<svg width="314" height="20" viewBox="0 0 314 20" fill="none" xmlns="http://www.w3.org/2000/svg">
<path d="M0.953125 16V4.6875H3.29688V9.70312H3.45312L7.5625 4.6875H10.3906L6.17188 9.75L10.4375 16H7.625L4.48438 11.3281L3.29688 12.7656V16H0.953125ZM11.5625 16V4.6875H16C18.5703 4.6875 20.0469 6.13281 20.0469 8.375C20.0469 9.92188 19.3359 11.0469 18.0469 11.6016L20.4531 16H17.8594L15.6953 11.9844H13.9062V16H11.5625ZM13.9062 10.0781H15.5625C16.9531 10.0781 17.6328 9.50781 17.625 8.375C17.6328 7.23438 16.9531 6.61719 15.5625 6.60938H13.9062V10.0781Z" fill="white"/>
<path d="M29.5 7L35.5005 13L41.5005 7" stroke="white" stroke-width="2" stroke-linecap="round"/>
<path d="M77.5156 8.625C77.3281 7.375 76.3672 6.61719 75.0469 6.60938C73.2891 6.61719 72.125 7.96094 72.125 10.3438C72.125 12.7812 73.3047 14.0703 75.0312 14.0781C76.3203 14.0703 77.2891 13.3672 77.5156 12.1406L79.8906 12.1562C79.6328 14.25 77.875 16.1562 75 16.1562C71.9766 16.1562 69.7344 14.0234 69.7344 10.3438C69.7344 6.64844 72.0156 4.53125 75 4.53125C77.6094 4.53125 79.5781 6.02344 79.8906 8.625H77.5156ZM81.5312 16V4.6875H85.9688C88.5391 4.6875 90.0156 6.13281 90.0156 8.375C90.0156 9.92188 89.3047 11.0469 88.0156 11.6016L90.4219 16H87.8281L85.6641 11.9844H83.875V16H81.5312ZM83.875 10.0781H85.5312C86.9219 10.0781 87.6016 9.50781 87.5938 8.375C87.6016 7.23438 86.9219 6.61719 85.5312 6.60938H83.875V10.0781ZM91.6406 4.6875H94.5469L97.6875 12.3594H97.8125L100.953 4.6875H103.859V16H101.578V8.59375H101.484L98.5312 15.9531H96.9688L94.0156 8.5625H93.9219V16H91.6406V4.6875ZM115.594 7.92188C115.5 7.02344 114.789 6.5 113.641 6.5C112.453 6.5 111.789 7.04688 111.781 7.79688C111.773 8.61719 112.617 8.98438 113.594 9.20312L114.609 9.45312C116.547 9.89844 117.992 10.8828 118 12.7656C117.992 14.8359 116.383 16.1641 113.625 16.1562C110.891 16.1641 109.148 14.8984 109.078 12.4688H111.359C111.438 13.6094 112.344 14.1875 113.594 14.1875C114.828 14.1875 115.625 13.6094 115.625 12.7656C115.625 11.9922 114.922 11.6328 113.688 11.3281L112.453 11.0312C110.547 10.5625 109.375 9.60938 109.375 7.95312C109.367 5.89844 111.18 4.53125 113.656 4.53125C116.164 4.53125 117.812 5.92188 117.844 7.92188H115.594ZM119.531 16V4.6875H127.125V6.625H121.875V9.375H126.734V11.3125H121.875V14.0625H127.141V16H119.531ZM128.953 16V4.6875H133.391C135.961 4.6875 137.438 6.13281 137.438 8.375C137.438 9.92188 136.727 11.0469 135.438 11.6016L137.844 16H135.25L133.086 11.9844H131.297V16H128.953ZM131.297 10.0781H132.953C134.344 10.0781 135.023 9.50781 135.016 8.375C135.023 7.23438 134.344 6.61719 132.953 6.60938H131.297V10.0781ZM140.734 4.6875L143.484 13.3125H143.594L146.359 4.6875H148.953L145.047 16H142.031L138.109 4.6875H140.734ZM152.578 4.6875V16H150.234V4.6875H152.578ZM162.047 8.625C161.859 7.375 160.898 6.61719 159.578 6.60938C157.82 6.61719 156.656 7.96094 156.656 10.3438C156.656 12.7812 157.836 14.0703 159.562 14.0781C160.852 14.0703 161.82 13.3672 162.047 12.1406L164.422 12.1562C164.164 14.25 162.406 16.1562 159.531 16.1562C156.508 16.1562 154.266 14.0234 154.266 10.3438C154.266 6.64844 156.547 4.53125 159.531 4.53125C162.141 4.53125 164.109 6.02344 164.422 8.625H162.047ZM166.062 16V4.6875H173.656V6.625H168.406V9.375H173.266V11.3125H168.406V14.0625H173.672V16H166.062Z" fill="white"/>
<path d="M211.75 3.21875V17.4375H209.844V10.3125H208.672V16.75H206.797V3.45312H208.672V8.70312H209.844V3.21875H211.75ZM199.266 12.5469H200.469V6.4375H199.531V4.82812H206.094V6.4375H205.172V12.3438C205.539 12.3047 205.891 12.2656 206.219 12.2188L206.328 13.6719C204.148 14.1328 201.242 14.1875 199.484 14.1875L199.266 12.5469ZM202.266 12.5156C202.633 12.5 203.016 12.4922 203.391 12.4688V6.4375H202.266V12.5156ZM220.922 3.92188V9.92188H213.969V3.92188H220.922ZM215.625 17.3438V13.4375H223.188V12.5625H215.625V11.0156H225.141V14.8438H217.609V15.7656H225.516V17.3438H215.625ZM215.938 8.39062H218.938V5.51562H215.938V8.39062ZM223.156 10.4062V3.21875H225.141V10.4062H223.156ZM239 3.21875V17.4688H237.016V3.21875H239ZM227.828 6.01562V4.40625H234.594V9.89062H229.906V12.5C232.078 12.4844 233.914 12.375 236 12.0312L236.172 13.6406C233.836 14.0547 231.719 14.1406 229.125 14.1406H227.844V8.3125H232.562V6.01562H227.828ZM249.828 6.4375C249.82 8.98438 250.906 11.5547 253.188 12.6562L251.984 14.25C250.461 13.4922 249.43 12.0859 248.844 10.375C248.219 12.2109 247.125 13.7188 245.516 14.5156L244.281 12.9062C246.695 11.7969 247.828 9.07812 247.828 6.4375V4.3125H249.828V6.4375ZM253.812 17.4375V3.21875H255.812V8.70312H257.906V10.3906H255.812V17.4375H253.812ZM270.328 3.21875V17.4688H268.312V3.21875H270.328ZM258.844 9.28125C258.836 6.17969 260.422 4.21875 262.609 4.21875C264.75 4.21875 266.344 6.17969 266.344 9.28125C266.344 12.4062 264.75 14.3594 262.609 14.3594C260.422 14.3594 258.836 12.4062 258.844 9.28125ZM260.766 9.28125C260.758 11.3984 261.5 12.5547 262.609 12.5469C263.688 12.5547 264.414 11.3984 264.422 9.28125C264.414 7.17188 263.688 6.01562 262.609 6.01562C261.5 6.01562 260.758 7.17188 260.766 9.28125ZM283.844 10.5625V12.1406H273.781V4.26562H283.734V5.875H275.812V7.375H283.406V8.9375H275.812V10.5625H283.844ZM272.25 15.7812V14.1562H285.266V15.7812H272.25Z" fill="white"/>
<rect x="294" width="20" height="20" rx="10" fill="white"/>
<path d="M304 7V13" stroke="black" stroke-width="1.5" stroke-linecap="round"/>
<path d="M301 10H307" stroke="black" stroke-width="1.5" stroke-linecap="round"/>
</svg>
