<svg width="200" height="27" viewBox="0 0 200 27" fill="none" xmlns="http://www.w3.org/2000/svg">
<g clip-path="url(#clip0_2680_168)">
<path d="M7.79421 13.5L0 27H15.5884L7.79421 13.5Z" fill="#007C36"/>
<path d="M0 0H15.5884L23.3826 13.5L0 0Z" fill="#6FBA2C"/>
<path d="M0 0L23.3826 13.5L15.5884 27L0 0Z" fill="#00A33E"/>
<path d="M72.1088 16.3633H68.9892V22.2741H83.3313V19.694H72.1088V16.3633Z" fill="#003281"/>
<path d="M99.4772 4.72461V11.0277H97.9183V4.72461H94.9042L94.9101 15.4056C93.851 16.1143 91.0956 16.827 89.2342 16.9584V7.8622H93.3652V5.28404H86.0926V20.0343C90.1161 19.9308 93.3154 18.8876 94.9101 18.1629L94.9042 22.2322H97.9183V13.9303H99.4772V22.276H102.511V4.72461H99.4772Z" fill="#003281"/>
<path d="M70.2354 11.1866C70.2354 9.97617 71.0736 9.11413 72.1586 9.11413C73.3034 9.11413 74.0838 9.97617 74.0838 11.1866C74.0838 12.3971 73.3034 13.2392 72.1586 13.2392C71.0139 13.2392 70.2354 12.3572 70.2354 11.1866ZM76.9028 11.328C76.9028 10.3644 76.5823 9.52624 76.0487 8.85333H77.7927V11.4315H79.9389V12.5225H77.7927V15.1902H79.9389V17.3921H83.0387V4.72429H79.9389V8.83143H77.8246V6.27318H73.7175L72.7798 4.01953H69.471L70.4505 6.27318H66.3393V8.85333H68.1689C67.6314 9.52425 67.3089 10.3624 67.3089 11.328C67.3089 13.93 69.3535 15.6003 72.0949 15.6003C74.8363 15.6003 76.9008 13.928 76.9008 11.328" fill="#003281"/>
<path d="M72.1088 16.3633H68.9892V22.2741H83.3313V19.694H72.1088V16.3633Z" fill="#003281"/>
<path d="M99.4772 4.72461V11.0277H97.9183V4.72461H94.9042L94.9101 15.4056C93.851 16.1143 91.0956 16.827 89.2342 16.9584V7.8622H93.3652V5.28404H86.0926V20.0343C90.1161 19.9308 93.3154 18.8876 94.9101 18.1629L94.9042 22.2322H97.9183V13.9303H99.4772V22.276H102.511V4.72461H99.4772Z" fill="#003281"/>
<path d="M70.2354 11.1866C70.2354 9.97617 71.0736 9.11413 72.1586 9.11413C73.3034 9.11413 74.0838 9.97617 74.0838 11.1866C74.0838 12.3971 73.3034 13.2392 72.1586 13.2392C71.0139 13.2392 70.2354 12.3572 70.2354 11.1866ZM76.9028 11.328C76.9028 10.3644 76.5823 9.52624 76.0487 8.85333H77.7927V11.4315H79.9389V12.5225H77.7927V15.1902H79.9389V17.3921H83.0387V4.72429H79.9389V8.83143H77.8246V6.27318H73.7175L72.7798 4.01953H69.471L70.4505 6.27318H66.3393V8.85333H68.1689C67.6314 9.52425 67.3089 10.3624 67.3089 11.328C67.3089 13.93 69.3535 15.6003 72.0949 15.6003C74.8363 15.6003 76.9008 13.928 76.9008 11.328" fill="#003281"/>
<path d="M54.6431 19.2898H52.4073V7.71292H54.6431C58.0574 7.71292 59.6481 9.60424 59.6481 13.363C59.6481 17.1217 58.0594 19.2917 54.6431 19.2917M54.7506 4.72465H48.4774V22.274H54.7506C60.5081 22.274 63.4725 19.2659 63.4725 13.359C63.4725 7.45212 60.5081 4.72266 54.7506 4.72266" fill="#003281"/>
<path d="M41.2386 4.72461V14.6829L39.421 11.5333H34.0636V4.72461H30.1754V22.274H34.0636V14.9278H41.2386V22.274H45.1467V4.72461H41.2386Z" fill="#003281"/>
<path d="M54.6431 19.2898H52.4073V7.71292H54.6431C58.0574 7.71292 59.6481 9.60424 59.6481 13.363C59.6481 17.1217 58.0594 19.2917 54.6431 19.2917M54.7506 4.72465H48.4774V22.274H54.7506C60.5081 22.274 63.4725 19.2659 63.4725 13.359C63.4725 7.45212 60.5081 4.72266 54.7506 4.72266" fill="#003281"/>
<path d="M41.2386 4.72461V14.6829L39.421 11.5333H34.0636V4.72461H30.1754V22.274H34.0636V14.9278H41.2386V22.274H45.1467V4.72461H41.2386Z" fill="#003281"/>
<path d="M145.229 17.5519H156.179V16.7556H145.229V14.693H159.257V19.487H148.307V20.3252H159.804V22.4096H145.229V17.5499V17.5519ZM150.712 4.99755V4.61133H154.001V4.99755C154.001 6.75946 157.533 8.0137 160.36 8.29441L159.579 10.8109C156.668 10.552 153.601 9.28188 152.334 7.75489C151.092 9.35952 148.158 10.5958 145.153 10.8109L144.373 8.29441C147.387 8.06148 150.71 6.75946 150.71 4.99755M143.372 11.4678H150.815V9.82737H153.873V11.4678H161.297V13.8549H143.372V11.4678Z" fill="#003281"/>
<path d="M164.747 8.2752H175.359V7.27579H164.747V4.78125H178.472V10.6662H167.835V11.7154H178.847V14.1542H164.745V8.2752H164.747ZM162.87 15.2074H180.533V17.8313H173.177V22.3028H170.165V17.8313H162.87V15.2074Z" fill="#003281"/>
<path d="M192.333 9.79191H195.667V8.78055H192.333V6.28601H195.667V4.69531H198.789V17.4229H195.667V12.3502H192.333V9.79191ZM188.058 19.7462H199.086V22.3482H184.939V16.1149H188.058V19.7482V19.7462ZM186.434 7.31926L186.456 4.91232H189.617V7.31926C189.617 10.4569 191.349 12.4358 193.941 13.4013L192.747 15.8481C190.842 15.006 188.765 13.3814 187.997 11.5757C187.184 13.5327 185.217 15.2528 183.101 16.1348L181.69 13.7258C184.254 12.6508 186.414 10.5226 186.434 7.31926Z" fill="#003281"/>
<path d="M117.63 4.70703V22.3062H120.696V13.5385H123.626V10.6438H120.696V4.70703H117.63Z" fill="#003281"/>
<path d="M112.304 7.82391H108.629V17.2845H112.304V7.82391ZM105.513 5.26367H115.42V19.8407H105.513V5.26367Z" fill="#003281"/>
<path d="M138.014 4.73633H141.136V17.7904H138.014V4.73633ZM130.18 19.7812H141.383V22.3833H126.931V17.0757H130.18V19.7812Z" fill="#003281"/>
<path d="M138.098 14.7528C135.538 15.6407 131.86 16.1364 125.601 16.1583V9.21419H132.199V7.50205H125.559V5.02344H135.319V11.4778H128.721V13.5085C132.095 13.5304 135.36 13.2696 138.098 12.2542V14.7528Z" fill="#003281"/>
</g>
<defs>
<clipPath id="clip0_2680_168">
<rect width="199.086" height="27" fill="white"/>
</clipPath>
</defs>
</svg>
