<svg width="200" height="27" viewBox="0 0 200 27" fill="none" xmlns="http://www.w3.org/2000/svg">
<g clip-path="url(#clip0_2680_32)">
<path d="M72.1088 16.3629H68.9892V22.2737H83.3313V19.6936H72.1088V16.3629Z" fill="white"/>
<path d="M99.4772 4.7243V11.0274H97.9183V4.7243H94.9042L94.9101 15.4052C93.851 16.114 91.0956 16.8267 89.2342 16.9581V7.86189H93.3652V5.28373H86.0926V20.034C90.1161 19.9305 93.3154 18.8873 94.9101 18.1626L94.9042 22.2319H97.9183V13.93H99.4772V22.2757H102.511V4.7243H99.4772Z" fill="white"/>
<path d="M70.2354 11.1866C70.2354 9.97618 71.0736 9.11414 72.1586 9.11414C73.3034 9.11414 74.0838 9.97618 74.0838 11.1866C74.0838 12.3971 73.3034 13.2392 72.1586 13.2392C71.0139 13.2392 70.2354 12.3572 70.2354 11.1866ZM76.9028 11.328C76.9028 10.3644 76.5823 9.52625 76.0487 8.85334H77.7927V11.4315H79.9389V12.5225H77.7927V15.1902H79.9389V17.3921H83.0387V4.7243H79.9389V8.83144H77.8246V6.27319H73.7175L72.7798 4.01954H69.471L70.4505 6.27319H66.3393V8.85334H68.1689C67.6314 9.52426 67.3089 10.3624 67.3089 11.328C67.3089 13.93 69.3535 15.6004 72.0949 15.6004C74.8363 15.6004 76.9008 13.928 76.9008 11.328" fill="white"/>
<path d="M72.1088 16.3629H68.9892V22.2737H83.3313V19.6936H72.1088V16.3629Z" fill="white"/>
<path d="M99.4772 4.7243V11.0274H97.9183V4.7243H94.9042L94.9101 15.4052C93.851 16.114 91.0956 16.8267 89.2342 16.9581V7.86189H93.3652V5.28373H86.0926V20.034C90.1161 19.9305 93.3154 18.8873 94.9101 18.1626L94.9042 22.2319H97.9183V13.93H99.4772V22.2757H102.511V4.7243H99.4772Z" fill="white"/>
<path d="M70.2354 11.1866C70.2354 9.97618 71.0736 9.11414 72.1586 9.11414C73.3034 9.11414 74.0838 9.97618 74.0838 11.1866C74.0838 12.3971 73.3034 13.2392 72.1586 13.2392C71.0139 13.2392 70.2354 12.3572 70.2354 11.1866ZM76.9028 11.328C76.9028 10.3644 76.5823 9.52625 76.0487 8.85334H77.7927V11.4315H79.9389V12.5225H77.7927V15.1902H79.9389V17.3921H83.0387V4.7243H79.9389V8.83144H77.8246V6.27319H73.7175L72.7798 4.01954H69.471L70.4505 6.27319H66.3393V8.85334H68.1689C67.6314 9.52426 67.3089 10.3624 67.3089 11.328C67.3089 13.93 69.3535 15.6004 72.0949 15.6004C74.8363 15.6004 76.9008 13.928 76.9008 11.328" fill="white"/>
<path d="M54.6431 19.2894H52.4073V7.71258H54.6431C58.0574 7.71258 59.6481 9.60389 59.6481 13.3626C59.6481 17.1214 58.0594 19.2914 54.6431 19.2914M54.7506 4.7243H48.4774V22.2737H54.7506C60.5081 22.2737 63.4725 19.2655 63.4725 13.3586C63.4725 7.45177 60.5081 4.72231 54.7506 4.72231" fill="white"/>
<path d="M41.2386 4.7243V14.6826L39.421 11.533H34.0636V4.7243H30.1754V22.2737H34.0636V14.9274H41.2386V22.2737H45.1467V4.7243H41.2386Z" fill="white"/>
<path d="M54.6431 19.2894H52.4073V7.71258H54.6431C58.0574 7.71258 59.6481 9.60389 59.6481 13.3626C59.6481 17.1214 58.0594 19.2914 54.6431 19.2914M54.7506 4.7243H48.4774V22.2737H54.7506C60.5081 22.2737 63.4725 19.2655 63.4725 13.3586C63.4725 7.45178 60.5081 4.72231 54.7506 4.72231" fill="white"/>
<path d="M41.2386 4.7243V14.6826L39.421 11.533H34.0636V4.7243H30.1754V22.2737H34.0636V14.9274H41.2386V22.2737H45.1467V4.7243H41.2386Z" fill="white"/>
<path d="M145.229 17.5514H156.179V16.7551H145.229V14.6925H159.257V19.4865H148.307V20.3247H159.804V22.4091H145.229V17.5494V17.5514ZM150.712 4.99705V4.61082H154.001V4.99705C154.001 6.75896 157.533 8.0132 160.36 8.29391L159.579 10.8104C156.668 10.5515 153.601 9.28138 152.334 7.75439C151.092 9.35902 148.158 10.5953 145.153 10.8104L144.373 8.29391C147.387 8.06098 150.71 6.75896 150.71 4.99705M143.372 11.4673H150.815V9.82687H153.873V11.4673H161.297V13.8544H143.372V11.4673Z" fill="white"/>
<path d="M164.747 8.27599H175.359V7.27658H164.747V4.78204H178.472V10.667H167.835V11.7162H178.847V14.155H164.745V8.27599H164.747ZM162.87 15.2082H180.533V17.8321H173.177V22.3036H170.165V17.8321H162.87V15.2082Z" fill="white"/>
<path d="M192.333 9.79103H195.667V8.77968H192.333V6.28513H195.667V4.69444H198.789V17.422H195.667V12.3493H192.333V9.79103ZM188.058 19.7453H199.086V22.3474H184.939V16.114H188.058V19.7473V19.7453ZM186.434 7.31839L186.456 4.91144H189.617V7.31839C189.617 10.456 191.349 12.4349 193.941 13.4005L192.747 15.8472C190.842 15.0051 188.765 13.3805 187.997 11.5748C187.184 13.5319 185.217 15.252 183.101 16.1339L181.69 13.725C184.254 12.6499 186.414 10.5217 186.434 7.31839Z" fill="white"/>
<path d="M117.63 4.70639V22.3056H120.696V13.5378H123.626V10.6431H120.696V4.70639H117.63Z" fill="white"/>
<path d="M112.304 7.82407H108.629V17.2846H112.304V7.82407ZM105.513 5.26382H115.42V19.8409H105.513V5.26382Z" fill="white"/>
<path d="M138.014 4.73625H141.136V17.7903H138.014V4.73625ZM130.18 19.7812H141.383V22.3832H126.931V17.0756H130.18V19.7812Z" fill="white"/>
<path d="M138.098 14.7522C135.538 15.6402 131.86 16.1359 125.601 16.1578V9.21368H132.199V7.50155H125.559V5.02293H135.319V11.4773H128.721V13.508C132.095 13.5299 135.36 13.2691 138.098 12.2537V14.7522Z" fill="white"/>
<g clip-path="url(#clip1_2680_32)">
<path d="M0 26.9991H14.7076L7.35448 14.2617L0 26.9991Z" fill="white"/>
<path d="M15.588 0H0L23.3819 13.4993L15.588 0Z" fill="white"/>
<path d="M15.5877 27.0005L23.0007 14.1597L0.761719 1.32031L15.5877 27.0005Z" fill="white"/>
</g>
</g>
<defs>
<clipPath id="clip0_2680_32">
<rect width="199.086" height="27" fill="white"/>
</clipPath>
<clipPath id="clip1_2680_32">
<rect width="181.548" height="27" fill="white"/>
</clipPath>
</defs>
</svg>
