<svg width="864" height="350" viewBox="0 0 864 350" fill="none" xmlns="http://www.w3.org/2000/svg">
<path d="M11.2939 3.16406V16.1865H10.1367V3.16406H11.2939ZM0.688477 12.8027C4.21143 11.1328 6.01318 8.63525 6.26953 5.52246H1.28906V4.58496H7.44141C7.42676 8.32764 5.68359 11.6455 1.31836 13.7402L0.688477 12.8027ZM17.0801 3.7793C18.8232 3.77197 20.1562 4.79004 20.4053 6.28418H23.1299V3.16406H24.2871V10.1514H23.1299V7.23633H20.4126C20.1855 8.77441 18.8452 9.7998 17.0801 9.7998C15.0952 9.7998 13.689 8.56934 13.6963 6.78223C13.689 5.01709 15.0952 3.77197 17.0801 3.7793ZM14.7949 6.78223C14.7949 7.96875 15.7397 8.82568 17.0801 8.83301C18.3911 8.82568 19.3359 7.96875 19.3359 6.78223C19.3359 5.58105 18.3911 4.74609 17.0801 4.76074C15.7397 4.74609 14.7949 5.58105 14.7949 6.78223ZM15.8936 16.0107V10.8105H17.0508V12.4658H23.1299V10.8105H24.2871V16.0107H15.8936ZM17.0508 15.0732H23.1299V13.3887H17.0508V15.0732ZM38.3789 13.5352V14.4873H26.4551V13.5352H31.7871V10.3418H32.915V13.5352H38.3789ZM26.9238 9.53613C29.2017 9.14795 31.7358 7.24365 31.7432 5.05371V4.05762H32.9443V5.05371C32.9517 7.229 35.5225 9.14795 37.793 9.53613L37.2803 10.4883C35.2954 10.0781 33.2007 8.73779 32.3584 6.86279C31.5015 8.73047 29.4287 10.0781 27.4365 10.4883L26.9238 9.53613ZM50.5371 3.16406V16.1865H49.4092V9.375H47.6074V15.542H46.5088V3.51562H47.6074V8.42285H49.4092V3.16406H50.5371ZM39.4336 12.583C42.4585 10.8911 43.7036 8.51074 43.9014 5.81543H39.9316V4.86328H45.0293C45.0146 8.17383 43.8501 11.3013 40.1074 13.3887L39.4336 12.583Z" fill="black"/>
<path d="M59.5 8L62.5 11L65.5 8" stroke="black" stroke-width="1.5" stroke-linejoin="round"/>
<path d="M10.7959 43.5557V44.8594C10.7959 46.5 10.7959 48.353 10.3125 51.1875L9.14062 51.0703C9.66797 48.4043 9.66797 46.4561 9.66797 44.8594V44.5078H1.81641V43.5557H10.7959ZM0.527344 53.2676V52.3154H12.3926V53.2676H0.527344ZM25.4004 48.6094V49.5615H19.9805V51.1875H18.8525V49.5615H13.4766V48.6094H25.4004ZM14.9854 43.3359V42.4424H23.8623V45.416H16.1719V46.6758H24.1406V47.5693H15.0293V44.5518H22.7051V43.3359H14.9854ZM15.0732 55.0107V50.3965H16.2158V51.8613H22.7051V50.3965H23.8477V55.0107H15.0732ZM16.2158 54.1025H22.7051V52.7402H16.2158V54.1025ZM30.8203 45.665C30.8203 47.9575 32.3364 50.3232 34.1895 51.2314L33.4863 52.1543C32.0508 51.4072 30.8496 49.8618 30.271 48.0527C29.6924 49.9717 28.4619 51.6196 26.9971 52.4033L26.2646 51.4805C28.1689 50.543 29.6777 48.0454 29.6924 45.665V43.292H30.8203V45.665ZM35.3906 55.1865V42.1641H36.5332V47.4521H38.7158V48.4482H36.5332V55.1865H35.3906ZM51.3428 52.5352V53.4873H39.4189V52.5352H44.751V49.3418H45.8789V52.5352H51.3428ZM39.8877 48.5361C42.1655 48.1479 44.6997 46.2437 44.707 44.0537V43.0576H45.9082V44.0537C45.9155 46.229 48.4863 48.1479 50.7568 48.5361L50.2441 49.4883C48.2593 49.0781 46.1646 47.7378 45.3223 45.8628C44.4653 47.7305 42.3926 49.0781 40.4004 49.4883L39.8877 48.5361ZM63.501 42.1641V55.1865H62.373V48.375H60.5713V54.542H59.4727V42.5156H60.5713V47.4229H62.373V42.1641H63.501ZM52.3975 51.583C55.4224 49.8911 56.6675 47.5107 56.8652 44.8154H52.8955V43.8633H57.9932C57.9785 47.1738 56.814 50.3013 53.0713 52.3887L52.3975 51.583Z" fill="black"/>
<path d="M10.8838 81.7354V82.5703C10.8838 83.4492 10.8838 84.5771 10.5908 86.042H12.4512V86.9648H0.527344V86.042H9.43359C9.73389 84.5918 9.74854 83.5298 9.74121 82.6729H2.03613V81.7354H10.8838ZM1.94824 89.2061V88.2832H10.9277V91.5645H3.12012V93.1025H11.2646V94.04H1.96289V90.6562H9.78516V89.2061H1.94824ZM25.415 91.6084V92.5752H13.4912V91.6084H18.8525V89.1475H14.9854V85.1338H22.7783V83.083H14.9561V82.1309H23.9062V86.0713H16.1279V88.1953H24.2139V89.1475H19.9805V91.6084H25.415ZM37.2363 81.1641V87.9609H36.0938V85.0312H33.0176V87.4336H27.1143V81.7793H28.2568V83.6396H31.8896V81.7793H33.0176V84.0645H36.0938V81.1641H37.2363ZM28.2568 86.4961H31.8896V84.5625H28.2568V86.4961ZM28.7988 89.5137V88.5908H37.2363V91.667H29.9707V93.0879H37.7344V94.0107H28.8281V90.7881H36.0938V89.5137H28.7988ZM44.9707 82.585V89.8799C46.3843 89.8652 47.7173 89.7847 49.2773 89.4551L49.4385 90.4512C47.7026 90.8174 46.2378 90.8833 44.6484 90.8906H43.8281V82.585H44.9707ZM47.4756 86.5107V85.5586H50.4492V81.4863H51.5479V93.5273H50.4492V86.5107H47.4756ZM53.2324 94.1865V81.1641H54.3311V94.1865H53.2324ZM66.6943 88.21V89.1475H57.6855V82.292H66.5479V83.2588H58.8574V85.1924H66.2695V86.1152H58.8574V88.21H66.6943ZM56.1475 92.4873V91.5352H68.0713V92.4873H56.1475ZM79.8926 81.1787V94.2012H78.7207V90.9639H75.7178V90.085H78.7207V81.1787H79.8926ZM69.0527 88.0342C71.5356 88.0269 74.8389 88.0195 77.71 87.6094L77.7832 88.4736C76.4941 88.6934 75.1538 88.8179 73.8574 88.8984V93.791H72.7002V88.957C71.4551 89.001 70.2612 89.0156 69.2139 89.0156L69.0527 88.0342ZM70.0488 84.3867C70.0415 82.856 71.3892 81.8232 73.3447 81.8232C75.2783 81.8232 76.6333 82.856 76.626 84.3867C76.6333 85.9321 75.2783 86.9282 73.3447 86.9355C71.3892 86.9282 70.0415 85.9321 70.0488 84.3867ZM71.1328 84.3867C71.1255 85.3755 72.0337 86.0493 73.3447 86.042C74.6265 86.0493 75.5347 85.3755 75.542 84.3867C75.5347 83.4053 74.6265 82.7241 73.3447 82.7168C72.0337 82.7241 71.1255 83.4053 71.1328 84.3867ZM92.4609 82.4971V84.1084C92.4683 86.0273 92.4683 87.7998 91.9189 90.4365L90.7617 90.334C91.0547 89.0815 91.1938 87.9976 91.2671 86.9868L83.3203 87.4189L83.1592 86.4668L91.3184 86.1299C91.3403 85.4414 91.3477 84.7749 91.3477 84.1084V83.4639H83.5107V82.4971H92.4609ZM82.0752 92.3555V91.3887H93.9404V92.3555H82.0752Z" fill="black"/>
<path d="M12.4365 128.06V129.012H7.0166V133.187H5.88867V129.012H0.512695V128.06H12.4365ZM2.10938 126.712V120.779H10.9424V121.717H3.25195V123.24H10.6348V124.163H3.25195V125.774H11.0889V126.712H2.10938ZM17.9004 124.163C17.8857 126.25 19.3945 128.55 21.2842 129.451L20.625 130.359C19.1602 129.642 17.9224 128.104 17.3364 126.338C16.7358 128.25 15.4321 129.935 13.9746 130.682L13.2715 129.773C15.1465 128.858 16.7578 126.382 16.7725 124.163V122.464H13.7402V121.512H20.8301V122.464H17.9004V124.163ZM22.4268 133.187V120.164H23.5693V125.438H25.752V126.419H23.5693V133.187H22.4268ZM37.251 120.164V127.928H36.0938V124.515H33.4717V123.562H36.0938V120.164H37.251ZM26.5137 126.888C28.4473 126.192 29.8242 124.427 29.8242 122.566V122.083H26.8799V121.116H33.8965V122.083H30.9814V122.552C30.9814 124.251 32.2852 125.87 34.1895 126.521L33.5889 127.444C32.1313 126.917 30.9961 125.818 30.4321 124.478C29.8755 126.001 28.667 127.217 27.1143 127.811L26.5137 126.888ZM28.5645 130.755C28.5571 129.224 30.2197 128.331 32.9297 128.338C35.6323 128.331 37.2949 129.224 37.2949 130.755C37.2949 132.293 35.6323 133.172 32.9297 133.187C30.2197 133.172 28.5571 132.293 28.5645 130.755ZM29.707 130.755C29.6997 131.7 30.9302 132.271 32.9297 132.264C34.9219 132.271 36.1523 131.7 36.1523 130.755C36.1523 129.803 34.9219 129.231 32.9297 129.231C30.9302 129.231 29.6997 129.803 29.707 130.755ZM51.3428 130.564V131.517H39.4189V130.564H44.7803V127.752H40.8252V121.087H41.9824V123.445H48.75V121.087H49.8779V127.752H45.9082V130.564H51.3428ZM41.9824 126.814H48.75V124.383H41.9824V126.814Z" fill="black"/>
<path d="M59.5 125L62.5 128L65.5 125" stroke="black" stroke-width="1.5" stroke-linejoin="round"/>
<path d="M6.45996 160.014C9.22852 160.028 11.2207 161.376 11.2207 163.427C11.2207 165.368 9.49219 166.649 7.0166 166.818V169.55H12.4512V170.517H0.527344V169.55H5.88867V166.818C3.42773 166.642 1.69922 165.36 1.69922 163.427C1.69922 161.376 3.69873 160.028 6.45996 160.014ZM2.8125 163.427C2.80518 164.928 4.35059 165.902 6.45996 165.917C8.56934 165.902 10.1074 164.928 10.1074 163.427C10.1074 161.955 8.56934 160.958 6.45996 160.966C4.35059 160.958 2.80518 161.955 2.8125 163.427ZM18.1201 162.665C18.1128 165.045 19.7314 167.433 21.6504 168.305L20.9473 169.213C19.4604 168.495 18.1787 166.95 17.5562 165.097C16.9556 167.06 15.6738 168.708 14.1504 169.477L13.418 168.51C15.3589 167.624 16.9629 165.133 16.9775 162.665V160.292H18.1201V162.665ZM23.0713 172.216V159.164H24.2285V172.216H23.0713ZM36.9873 163.119V164.042H28.0664V159.647H29.209V163.119H36.9873ZM26.4404 166.752V165.814H38.3643V166.752H26.4404ZM27.9932 171.864V168.085H29.1357V170.912H37.0605V171.864H27.9932ZM53.9355 159.164V165.829H52.793V159.164H53.9355ZM43.4033 165.141C46.6699 164.416 48.5742 162.855 48.7793 160.761H44.0625V159.809H50.0391C50.0317 163.134 47.6807 165.207 43.8281 166.107L43.4033 165.141ZM45.4688 167.367V166.444H53.9355V169.594H46.6406V171.146H54.4043V172.069H45.498V168.715H52.793V167.367H45.4688Z" fill="black"/>
<path d="M170.715 8.36426V9.33105H168.605V16.1865H167.463V3.16406H168.605V8.36426H170.715ZM159.069 12.876V4.45312H160.212V11.9092C162.116 11.9092 164.057 11.7627 166.203 11.3086L166.35 12.29C164.101 12.7441 162.08 12.876 160.109 12.876H159.069ZM182.653 3.16406V16.1865H181.54V3.16406H182.653ZM171.652 8.78906C171.66 6.02051 172.758 4.27002 174.45 4.2627C176.032 4.27002 177.102 5.79346 177.248 8.24707H178.933V3.44238H180.031V15.5273H178.933V9.19922H177.255C177.146 11.7334 176.054 13.3228 174.45 13.3154C172.758 13.3228 171.66 11.5576 171.652 8.78906ZM172.736 8.78906C172.722 10.8984 173.396 12.2314 174.45 12.2168C175.512 12.2314 176.186 10.8984 176.179 8.78906C176.186 6.67236 175.512 5.34668 174.45 5.34668C173.396 5.34668 172.722 6.67236 172.736 8.78906ZM195.603 3.16406V16.1865H194.504V3.16406H195.603ZM184.47 12.5391C187.297 10.8618 188.718 8.51074 188.938 5.78613H185.026V4.83398H190.08C190.08 6.11572 189.875 7.35352 189.428 8.51074H191.765V3.51562H192.863V15.5273H191.765V9.44824H189.003C188.22 10.9644 186.96 12.3047 185.144 13.374L184.47 12.5391ZM207.761 4.05762V9.62402H201.74V4.05762H207.761ZM202.502 15.249C204.655 14.9121 206.567 13.7256 206.699 12.3047H203.015V11.3672H211.599V12.3047H207.9C208.024 13.6963 209.973 14.9121 212.097 15.249L211.672 16.1426C209.768 15.8276 208.046 14.8828 207.292 13.5791C206.56 14.8901 204.838 15.8203 202.941 16.1279L202.502 15.249ZM202.868 8.68652H206.647V4.99512H202.868V8.68652ZM210.222 10.6055V3.16406H211.364V6.29883H213.327V7.26562H211.364V10.6055H210.222ZM224.68 7.11914V8.04199H215.759V3.64746H216.901V7.11914H224.68ZM214.133 10.752V9.81445H226.057V10.752H214.133ZM215.686 15.8643V12.085H216.828V14.9121H224.753V15.8643H215.686ZM242.009 3.16406V16.1865H240.91V3.16406H242.009ZM230.715 12.7148C232.531 11.6309 233.593 9.25049 233.586 6.88477V5.6543H231.081V4.70215H237.087V5.6543H234.699V6.88477C234.699 9.1333 235.717 11.3818 237.512 12.4219L236.809 13.2715C235.527 12.5024 234.619 11.0962 234.165 9.44092C233.696 11.2354 232.751 12.7661 231.447 13.5791L230.715 12.7148ZM236.091 8.80371V7.86621H238.288V3.48633H239.372V15.5127H238.288V8.80371H236.091ZM255.705 9.46289V10.415H250.329V11.9531H254.255V16.0107H245.29V11.9531H249.201V10.415H243.84V9.46289H255.705ZM244.953 4.54102V3.58887H254.577V4.54102H252.57V7.28027H254.533V8.23242H244.997V7.28027H246.96V4.54102H244.953ZM246.433 15.0732H253.127V12.8613H246.433V15.0732ZM248.103 7.28027H251.428V4.54102H248.103V7.28027ZM263.527 4.01367C263.52 7.28027 261.184 9.62402 257.434 10.6934L256.95 9.78516C260.063 8.90625 262.055 7.17773 262.304 4.96582H257.624V4.01367H263.527ZM259.147 16.0107V11.1621H267.6V16.0107H259.147ZM260.261 15.0732H266.457V12.085H260.261V15.0732ZM263.557 7.5V6.5332H266.442V3.17871H267.6V10.6055H266.442V7.5H263.557ZM273.649 5.71289C273.657 7.19971 274.646 8.69385 276.315 9.3457L275.7 10.2393C274.462 9.73389 273.569 8.77441 273.107 7.62451C272.624 8.88428 271.687 9.99756 270.412 10.5615L269.782 9.66797C271.496 8.90625 272.543 7.19971 272.551 5.71289V3.96973H273.649V5.71289ZM272.053 12.7148V11.7627H280.827V16.1865H279.699V12.7148H272.053ZM276.916 10.9717V3.41309H278V6.57715H279.729V3.17871H280.827V11.0449H279.729V7.54395H278V10.9717H276.916Z" fill="black"/>
<path d="M169.689 42.1641V55.1865H168.576V42.1641H169.689ZM158.688 47.7891C158.696 45.0205 159.794 43.27 161.486 43.2627C163.068 43.27 164.138 44.7935 164.284 47.2471H165.969V42.4424H167.067V54.5273H165.969V48.1992H164.292C164.182 50.7334 163.09 52.3228 161.486 52.3154C159.794 52.3228 158.696 50.5576 158.688 47.7891ZM159.772 47.7891C159.758 49.8984 160.432 51.2314 161.486 51.2168C162.548 51.2314 163.222 49.8984 163.215 47.7891C163.222 45.6724 162.548 44.3467 161.486 44.3467C160.432 44.3467 159.758 45.6724 159.772 47.7891ZM174.992 43.1748C176.765 43.1821 178.046 44.7056 178.222 47.1445H181.145V42.1641H182.287V55.2158H181.145V48.0967H178.237C178.112 50.6528 176.809 52.2495 174.992 52.2422C173.066 52.2495 171.718 50.4917 171.726 47.7158C171.718 44.9473 173.066 43.1821 174.992 43.1748ZM172.824 47.7158C172.832 49.8325 173.71 51.2241 174.992 51.2168C176.267 51.2241 177.16 49.8325 177.16 47.7158C177.16 45.5991 176.267 44.2075 174.992 44.2002C173.71 44.2075 172.832 45.5991 172.824 47.7158ZM191.223 43.2188C191.208 46.5806 189.472 49.1074 185.275 50.5137L184.807 49.5908C187.041 48.8511 188.461 47.8184 189.252 46.5439L184.938 46.9102L184.733 45.958L189.663 45.7236C189.853 45.2329 189.97 44.7129 190.014 44.1709H185.393V43.2188H191.223ZM187.019 54.9082V50.8799H188.19V53.9414H195.617V54.9082H187.019ZM191.193 47.291V46.3242H194.094V42.1787H195.251V51.8467H194.094V47.291H191.193Z" fill="black"/>
<path d="M204.5 50L207.5 47L210.5 50" stroke="black" stroke-width="1.5" stroke-linejoin="round"/>
<rect width="125" height="162" transform="translate(158 66)" fill="#F5F5F5"/>
<path d="M170.93 92L170.916 91.0977L174.293 87.543C175.462 86.2988 176.022 85.6289 176.029 84.7129C176.022 83.6943 175.175 83.0381 174.061 83.0312C172.878 83.0381 172.14 83.7832 172.133 84.8906H170.971C170.957 83.1406 172.311 81.9648 174.102 81.9648C175.899 81.9648 177.171 83.1748 177.178 84.7129C177.171 85.8203 176.658 86.6816 174.908 88.4863L172.639 90.8242V90.9062H177.355V92H170.93ZM179.16 92V84.5762H180.336V92H179.16ZM178.928 82.5664C178.921 82.1289 179.297 81.7803 179.748 81.7871C180.199 81.7803 180.575 82.1289 180.582 82.5664C180.575 82.9971 180.199 83.3457 179.748 83.3457C179.297 83.3457 178.921 82.9971 178.928 82.5664ZM183.385 87.543V92H182.209V84.5762H183.344V85.7383H183.439C183.788 84.9795 184.485 84.4805 185.613 84.4805C187.117 84.4805 188.122 85.3965 188.115 87.2832V92H186.939V87.3652C186.939 86.2168 186.311 85.5332 185.258 85.5332C184.178 85.5332 183.385 86.2578 183.385 87.543ZM192.941 82.1016V92H191.697V83.3867H191.643L189.236 84.9863V83.7422L191.697 82.1016H192.941Z" fill="#295FCC"/>
<path d="M170 94.2354H194.65V95.1855H170V94.2354Z" fill="#295FCC"/>
<path d="M176.549 112.744C176.556 114.829 178.935 116.682 181.047 117.078L180.555 117.98C178.716 117.557 176.788 116.251 176.002 114.467C175.209 116.251 173.288 117.55 171.449 117.98L170.957 117.078C173.062 116.675 175.421 114.836 175.428 112.744V111.814H176.549V112.744ZM170.492 121.453V120.564H181.621V121.453H170.492ZM187.855 112.02V112.908H184.164V114.521H187.719V115.383H184.164V117.105C185.935 117.099 187.042 117.037 188.348 116.777L188.457 117.652C187.028 117.939 185.88 117.987 183.904 117.994H183.139V112.02H187.855ZM184.943 122.848V118.965H186.01V121.945H193.283V122.848H184.943ZM189.182 119.744V111.199H190.18V114.549H191.889V110.967H192.914V120.1H191.889V115.451H190.18V119.744H189.182ZM204.508 116.805V117.693H196.113V112.088H204.385V112.977H197.18V116.805H204.508ZM194.691 121.453V120.551H205.82V121.453H194.691ZM213.682 112.32V113.195H206.805V112.32H209.758V110.857H210.824V112.32H213.682ZM207.529 116.066C207.516 114.713 208.637 113.817 210.277 113.824C211.904 113.817 213.046 114.713 213.053 116.066C213.046 117.427 211.904 118.315 210.277 118.322C208.637 118.315 207.516 117.427 207.529 116.066ZM208.527 116.066C208.521 116.921 209.218 117.495 210.277 117.488C211.323 117.495 212.041 116.921 212.055 116.066C212.041 115.212 211.323 114.645 210.277 114.631C209.218 114.645 208.521 115.212 208.527 116.066ZM208.773 121.016C208.773 119.689 210.312 118.938 212.861 118.938C215.397 118.938 216.936 119.689 216.936 121.016C216.936 122.321 215.397 123.08 212.861 123.08C210.312 123.08 208.773 122.321 208.773 121.016ZM209.881 121.016C209.888 121.788 211.016 122.253 212.861 122.246C214.68 122.253 215.801 121.788 215.801 121.016C215.801 120.223 214.68 119.778 212.861 119.771C211.016 119.778 209.888 120.223 209.881 121.016ZM213.668 117.133V116.244H215.787V114.768H213.682V113.879H215.787V110.953H216.867V118.814H215.787V117.133H213.668Z" fill="#555555"/>
<path d="M172.174 141.678V143.701H175.564V141.678H176.617V142.908H179.488V140.953H180.568V148.186H179.488V146.271H176.617V147.488H171.107V141.678H172.174ZM172.174 146.6H175.564V144.549H172.174V146.6ZM172.393 149.703V148.828H180.568V153.107H179.488V149.703H172.393ZM176.617 145.383H179.488V143.797H176.617V145.383ZM192.668 140.953V147.201H191.588V144.781H188.895V143.893H191.588V140.953H192.668ZM182.783 146.572C185.695 145.868 187.445 144.398 187.657 142.443H183.412V141.555H188.799C188.799 144.576 186.666 146.579 183.166 147.461L182.783 146.572ZM184.793 148.596V147.721H192.668V150.688H185.887V152.109H193.078V152.998H184.82V149.867H191.588V148.596H184.793ZM204.713 140.953V153.135H203.633V140.953H204.713ZM195.143 146.135C195.149 143.551 196.435 141.903 198.246 141.896C200.051 141.903 201.356 143.551 201.35 146.135C201.356 148.726 200.051 150.366 198.246 150.359C196.435 150.366 195.149 148.726 195.143 146.135ZM196.182 146.135C196.182 148.11 197.029 149.409 198.246 149.402C199.47 149.409 200.311 148.11 200.311 146.135C200.311 144.159 199.47 142.86 198.246 142.854C197.029 142.86 196.182 144.159 196.182 146.135ZM213.682 142.32V143.195H206.805V142.32H209.758V140.857H210.824V142.32H213.682ZM207.529 146.066C207.516 144.713 208.637 143.817 210.277 143.824C211.904 143.817 213.046 144.713 213.053 146.066C213.046 147.427 211.904 148.315 210.277 148.322C208.637 148.315 207.516 147.427 207.529 146.066ZM208.527 146.066C208.521 146.921 209.218 147.495 210.277 147.488C211.323 147.495 212.041 146.921 212.055 146.066C212.041 145.212 211.323 144.645 210.277 144.631C209.218 144.645 208.521 145.212 208.527 146.066ZM208.773 151.016C208.773 149.689 210.312 148.938 212.861 148.938C215.397 148.938 216.936 149.689 216.936 151.016C216.936 152.321 215.397 153.08 212.861 153.08C210.312 153.08 208.773 152.321 208.773 151.016ZM209.881 151.016C209.888 151.788 211.016 152.253 212.861 152.246C214.68 152.253 215.801 151.788 215.801 151.016C215.801 150.223 214.68 149.778 212.861 149.771C211.016 149.778 209.888 150.223 209.881 151.016ZM213.668 147.133V146.244H215.787V144.768H213.682V143.879H215.787V140.953H216.867V148.814H215.787V147.133H213.668Z" fill="#555555"/>
<path d="M174.635 173.578C174.642 175.068 175.858 176.401 177.656 176.928L177.15 177.789C175.756 177.358 174.669 176.449 174.129 175.28C173.609 176.6 172.488 177.611 171.053 178.104L170.506 177.256C172.317 176.695 173.575 175.239 173.582 173.578V173.332H170.834V172.443H173.582V170.898H174.662V172.443H177.383V173.332H174.635V173.578ZM172.064 180.893C172.071 179.505 173.589 178.712 176.098 178.719C178.606 178.712 180.104 179.505 180.104 180.893C180.104 182.28 178.606 183.073 176.098 183.066C173.589 183.073 172.071 182.28 172.064 180.893ZM173.145 180.893C173.131 181.74 174.252 182.232 176.098 182.232C177.937 182.232 179.058 181.74 179.064 180.893C179.058 180.045 177.937 179.566 176.098 179.566C174.252 179.566 173.131 180.045 173.145 180.893ZM178.928 178.418V170.953H179.994V174.125H181.826V175.014H179.994V178.418H178.928ZM193.707 177.174V178.062H188.758V180.551H187.691V178.062H182.578V177.174H193.707ZM184 182.848V179.348H185.08V181.945H192.463V182.848H184ZM184.027 175.779V171.555H192.258V175.779H184.027ZM185.08 174.918H191.191V172.402H185.08V174.918ZM201.582 172.32V173.195H194.705V172.32H197.658V170.857H198.725V172.32H201.582ZM195.43 176.066C195.416 174.713 196.537 173.817 198.178 173.824C199.805 173.817 200.946 174.713 200.953 176.066C200.946 177.427 199.805 178.315 198.178 178.322C196.537 178.315 195.416 177.427 195.43 176.066ZM196.428 176.066C196.421 176.921 197.118 177.495 198.178 177.488C199.224 177.495 199.941 176.921 199.955 176.066C199.941 175.212 199.224 174.645 198.178 174.631C197.118 174.645 196.421 175.212 196.428 176.066ZM196.674 181.016C196.674 179.689 198.212 178.938 200.762 178.938C203.298 178.938 204.836 179.689 204.836 181.016C204.836 182.321 203.298 183.08 200.762 183.08C198.212 183.08 196.674 182.321 196.674 181.016ZM197.781 181.016C197.788 181.788 198.916 182.253 200.762 182.246C202.58 182.253 203.701 181.788 203.701 181.016C203.701 180.223 202.58 179.778 200.762 179.771C198.916 179.778 197.788 180.223 197.781 181.016ZM201.568 177.133V176.244H203.688V174.768H201.582V173.879H203.688V170.953H204.768V178.814H203.688V177.133H201.568ZM210.77 171.637L207.57 183.49H206.504L209.689 171.637H210.77ZM221.488 170.953V183.135H220.408V170.953H221.488ZM211.918 176.135C211.925 173.551 213.21 171.903 215.021 171.896C216.826 171.903 218.132 173.551 218.125 176.135C218.132 178.726 216.826 180.366 215.021 180.359C213.21 180.366 211.925 178.726 211.918 176.135ZM212.957 176.135C212.957 178.11 213.805 179.409 215.021 179.402C216.245 179.409 217.086 178.11 217.086 176.135C217.086 174.159 216.245 172.86 215.021 172.854C213.805 172.86 212.957 174.159 212.957 176.135ZM234.654 176.969V177.83H223.566V176.969H228.584V175.547H224.975V171.527H233.273V172.389H226.027V174.672H233.355V175.547H229.623V176.969H234.654ZM224.906 180.906C224.899 179.519 226.479 178.726 229.104 178.719C231.708 178.726 233.273 179.519 233.287 180.906C233.273 182.308 231.708 183.094 229.104 183.107C226.479 183.094 224.899 182.308 224.906 180.906ZM226 180.906C225.986 181.761 227.155 182.253 229.104 182.246C231.031 182.253 232.2 181.761 232.207 180.906C232.2 180.065 231.031 179.566 229.104 179.566C227.155 179.566 225.986 180.065 226 180.906ZM242.557 172.32V173.195H235.68V172.32H238.633V170.857H239.699V172.32H242.557ZM236.404 176.066C236.391 174.713 237.512 173.817 239.152 173.824C240.779 173.817 241.921 174.713 241.928 176.066C241.921 177.427 240.779 178.315 239.152 178.322C237.512 178.315 236.391 177.427 236.404 176.066ZM237.402 176.066C237.396 176.921 238.093 177.495 239.152 177.488C240.198 177.495 240.916 176.921 240.93 176.066C240.916 175.212 240.198 174.645 239.152 174.631C238.093 174.645 237.396 175.212 237.402 176.066ZM237.648 181.016C237.648 179.689 239.187 178.938 241.736 178.938C244.272 178.938 245.811 179.689 245.811 181.016C245.811 182.321 244.272 183.08 241.736 183.08C239.187 183.08 237.648 182.321 237.648 181.016ZM238.756 181.016C238.763 181.788 239.891 182.253 241.736 182.246C243.555 182.253 244.676 181.788 244.676 181.016C244.676 180.223 243.555 179.778 241.736 179.771C239.891 179.778 238.763 180.223 238.756 181.016ZM242.543 177.133V176.244H244.662V174.768H242.557V173.879H244.662V170.953H245.742V178.814H244.662V177.133H242.543Z" fill="#555555"/>
<path d="M174.812 204.221C174.806 206.442 176.316 208.671 178.107 209.484L177.451 210.332C176.063 209.662 174.867 208.22 174.286 206.49C173.726 208.322 172.529 209.86 171.107 210.578L170.424 209.676C172.235 208.849 173.732 206.524 173.746 204.221V202.006H174.812V204.221ZM179.434 213.135V200.953H180.514V213.135H179.434ZM188.648 202.744C188.655 204.829 191.034 206.682 193.146 207.078L192.654 207.98C190.815 207.557 188.888 206.251 188.102 204.467C187.309 206.251 185.388 207.55 183.549 207.98L183.057 207.078C185.162 206.675 187.521 204.836 187.527 202.744V201.814H188.648V202.744ZM182.592 211.453V210.564H193.721V211.453H182.592ZM199.9 201.746V202.648H196.291V204.152H199.395V205H196.291V206.654C198.055 206.647 199.142 206.579 200.447 206.34L200.557 207.201C199.148 207.468 198 207.522 196.031 207.529H195.266V201.746H199.9ZM196.988 212.943V208.842H205.014V212.943H196.988ZM198.041 212.068H203.961V209.717H198.041V212.068ZM199.969 204.904V204.016H201.609V201.172H202.648V208.172H201.609V204.904H199.969ZM203.988 208.281V200.953H205.014V208.281H203.988ZM213.682 202.32V203.195H206.805V202.32H209.758V200.857H210.824V202.32H213.682ZM207.529 206.066C207.516 204.713 208.637 203.817 210.277 203.824C211.904 203.817 213.046 204.713 213.053 206.066C213.046 207.427 211.904 208.315 210.277 208.322C208.637 208.315 207.516 207.427 207.529 206.066ZM208.527 206.066C208.521 206.921 209.218 207.495 210.277 207.488C211.323 207.495 212.041 206.921 212.055 206.066C212.041 205.212 211.323 204.645 210.277 204.631C209.218 204.645 208.521 205.212 208.527 206.066ZM208.773 211.016C208.773 209.689 210.312 208.938 212.861 208.938C215.397 208.938 216.936 209.689 216.936 211.016C216.936 212.321 215.397 213.08 212.861 213.08C210.312 213.08 208.773 212.321 208.773 211.016ZM209.881 211.016C209.888 211.788 211.016 212.253 212.861 212.246C214.68 212.253 215.801 211.788 215.801 211.016C215.801 210.223 214.68 209.778 212.861 209.771C211.016 209.778 209.888 210.223 209.881 211.016ZM213.668 207.133V206.244H215.787V204.768H213.682V203.879H215.787V200.953H216.867V208.814H215.787V207.133H213.668Z" fill="#555555"/>
<path d="M169.689 251.164V264.187H168.576V251.164H169.689ZM158.688 256.789C158.696 254.021 159.794 252.27 161.486 252.263C163.068 252.27 164.138 253.793 164.284 256.247H165.969V251.442H167.067V263.527H165.969V257.199H164.292C164.182 259.733 163.09 261.323 161.486 261.315C159.794 261.323 158.696 259.558 158.688 256.789ZM159.772 256.789C159.758 258.898 160.432 260.231 161.486 260.217C162.548 260.231 163.222 258.898 163.215 256.789C163.222 254.672 162.548 253.347 161.486 253.347C160.432 253.347 159.758 254.672 159.772 256.789ZM174.992 252.175C176.765 252.182 178.046 253.706 178.222 256.145H181.145V251.164H182.287V264.216H181.145V257.097H178.237C178.112 259.653 176.809 261.25 174.992 261.242C173.066 261.25 171.718 259.492 171.726 256.716C171.718 253.947 173.066 252.182 174.992 252.175ZM172.824 256.716C172.832 258.833 173.71 260.224 174.992 260.217C176.267 260.224 177.16 258.833 177.16 256.716C177.16 254.599 176.267 253.208 174.992 253.2C173.71 253.208 172.832 254.599 172.824 256.716ZM190.197 252.717C190.19 253.947 190.051 255.17 189.677 256.32H191.765V251.516H192.863V263.527H191.765V257.272H189.304C188.571 258.876 187.297 260.327 185.202 261.477L184.543 260.656C186.55 259.565 187.744 258.195 188.403 256.657L184.689 257.038L184.514 256.013L188.725 255.749C188.916 255.075 189.025 254.387 189.069 253.669H185.144V252.717H190.197ZM194.504 264.187V251.164H195.603V264.187H194.504ZM200.92 252.175C202.692 252.182 203.974 253.706 204.15 256.145H207.072V251.164H208.215V264.216H207.072V257.097H204.165C204.04 259.653 202.736 261.25 200.92 261.242C198.994 261.25 197.646 259.492 197.653 256.716C197.646 253.947 198.994 252.182 200.92 252.175ZM198.752 256.716C198.759 258.833 199.638 260.224 200.92 260.217C202.194 260.224 203.088 258.833 203.088 256.716C203.088 254.599 202.194 253.208 200.92 253.2C199.638 253.208 198.759 254.599 198.752 256.716Z" fill="black"/>
<path d="M217.5 256L220.5 259L223.5 256" stroke="black" stroke-width="1.5" stroke-linejoin="round"/>
<path d="M169.587 290.179V298.074H168.488V294.544H166.613V297.591H165.544V290.428H166.613V293.577H168.488V290.179H169.587ZM159.187 296.858V291.219H160.329V295.892C161.706 295.884 163.032 295.804 164.636 295.496L164.738 296.448C162.995 296.792 161.567 296.858 160.007 296.858H159.187ZM160.915 300.726C160.9 299.18 162.578 298.272 165.28 298.265C167.968 298.272 169.653 299.18 169.66 300.726C169.653 302.249 167.968 303.157 165.28 303.157C162.578 303.157 160.9 302.249 160.915 300.726ZM162.058 300.726C162.043 301.67 163.295 302.242 165.28 302.234C167.258 302.242 168.503 301.67 168.518 300.726C168.503 299.759 167.258 299.18 165.28 299.188C163.295 299.18 162.043 299.759 162.058 300.726ZM173.278 291.116V296.243C175.139 296.243 177.058 296.126 179.182 295.687L179.313 296.639C177.109 297.1 175.131 297.225 173.161 297.225H172.121V291.116H173.278ZM173.571 302.908V298.66H174.714V301.941H182.141V302.908H173.571ZM180.529 299.583V290.179H181.672V294.046H183.635V295.042H181.672V299.583H180.529ZM190.461 298.353C193.134 298.353 194.753 299.231 194.753 300.755C194.753 302.293 193.134 303.172 190.461 303.187C187.78 303.172 186.147 302.293 186.14 300.755C186.147 299.231 187.78 298.353 190.461 298.353ZM185.012 296.99V290.984H186.14V292.977H189.934V290.984H191.076V296.99H185.012ZM186.14 296.053H189.934V293.885H186.14V296.053ZM187.297 300.755C187.282 301.692 188.498 302.249 190.461 302.249C192.431 302.249 193.632 301.692 193.64 300.755C193.632 299.825 192.431 299.275 190.461 299.261C188.498 299.275 187.282 299.825 187.297 300.755ZM193.493 298.001V290.164H194.636V293.445H196.599V294.427H194.636V298.001H193.493ZM208.186 290.164V303.187H207.028V290.164H208.186ZM197.58 299.803C201.103 298.133 202.905 295.635 203.161 292.522H198.181V291.585H204.333C204.318 295.328 202.575 298.646 198.21 300.74L197.58 299.803Z" fill="black"/>
<path d="M217.5 295L220.5 298L223.5 295" stroke="black" stroke-width="1.5" stroke-linejoin="round"/>
<path d="M169.689 329.164V342.187H168.576V329.164H169.689ZM158.688 334.789C158.696 332.021 159.794 330.27 161.486 330.263C163.068 330.27 164.138 331.793 164.284 334.247H165.969V329.442H167.067V341.527H165.969V335.199H164.292C164.182 337.733 163.09 339.323 161.486 339.315C159.794 339.323 158.696 337.558 158.688 334.789ZM159.772 334.789C159.758 336.898 160.432 338.231 161.486 338.217C162.548 338.231 163.222 336.898 163.215 334.789C163.222 332.672 162.548 331.347 161.486 331.347C160.432 331.347 159.758 332.672 159.772 334.789ZM182.302 329.164V342.216H181.145V334.423H177.087V333.471H181.145V329.164H182.302ZM172.209 339.052V330.629H173.366V338.085C175.358 338.063 177.124 337.96 179.079 337.558L179.226 338.51C177.146 338.942 175.314 339.052 173.205 339.052H172.209ZM189.113 333.163C189.121 335.375 190.725 337.624 192.644 338.451L191.999 339.359C190.476 338.671 189.165 337.169 188.557 335.368C187.949 337.279 186.63 338.935 185.144 339.682L184.455 338.773C186.323 337.88 187.949 335.419 187.956 333.163V331.464H184.88V330.512H192.219V331.464H189.113V333.163ZM194.035 342.187V329.164H195.192V342.187H194.035ZM207.673 333.148V334.862H213.049V335.8H201.184V334.862H206.545V333.148H207.673ZM201.843 332.958C204.223 332.694 206.53 331.449 206.53 329.765V329.267H207.688V329.765C207.688 331.449 210.002 332.694 212.375 332.958L211.965 333.837C209.914 333.559 207.929 332.672 207.109 331.244C206.289 332.672 204.296 333.559 202.253 333.837L201.843 332.958ZM202.619 337.777V336.884H211.525V339.843H203.791V341.132H211.921V342.04H202.648V338.979H210.397V337.777H202.619ZM224.606 329.691V333.075H216.755V334.76H224.885V335.712H215.598V332.167H223.435V330.629H215.568V329.691H224.606ZM214.133 338.012V337.089H226.057V338.012H220.637V342.216H219.494V338.012H214.133ZM231.564 331.581C231.564 333.493 232.875 335.294 234.758 336.034L234.113 336.928C232.685 336.334 231.564 335.148 231.015 333.668C230.458 335.265 229.287 336.532 227.771 337.162L227.141 336.239C229.082 335.492 230.429 333.625 230.437 331.581V329.911H231.564V331.581ZM229.484 341.908V337.895H230.642V340.941H238.2V341.908H229.484ZM234.069 334.73V333.793H236.75V332.064H234.069V331.112H236.75V329.179H237.907V338.905H236.75V334.73H234.069Z" fill="black"/>
<path d="M247.5 334L250.5 337L253.5 334" stroke="black" stroke-width="1.5" stroke-linejoin="round"/>
<path d="M339.323 3.17871V12.8027H338.166V9.28711H334.797C334.196 10.0562 333.229 10.5176 332.116 10.5176C330.168 10.5176 328.725 9.16992 328.732 7.26562C328.725 5.354 330.168 4.00635 332.116 3.99902C333.222 4.00635 334.174 4.46045 334.782 5.21484H338.166V3.17871H339.323ZM329.831 7.26562C329.831 8.56934 330.783 9.49951 332.116 9.49219C333.398 9.49951 334.372 8.56934 334.372 7.26562C334.372 5.96924 333.398 5.03174 332.116 5.02441C330.783 5.03174 329.831 5.96924 329.831 7.26562ZM330.959 15.9082V11.792H332.116V14.9414H339.689V15.9082H330.959ZM335.302 6.16699C335.419 6.50391 335.485 6.87012 335.485 7.26562C335.485 7.64648 335.419 8.00537 335.31 8.33496H338.166V6.16699H335.302ZM351.789 4.01367V5.15625C351.789 6.38672 351.789 7.7417 351.416 9.60938H353.356V10.5615H347.98V16.2158H346.823V10.5615H341.491V9.60938H350.251C350.646 7.73438 350.646 6.37207 350.646 5.15625V4.96582H342.985V4.01367H351.789ZM366.379 13.5352V14.4873H354.455V13.5352H359.787V10.3418H360.915V13.5352H366.379ZM354.924 9.53613C357.202 9.14795 359.736 7.24365 359.743 5.05371V4.05762H360.944V5.05371C360.952 7.229 363.522 9.14795 365.793 9.53613L365.28 10.4883C363.295 10.0781 361.201 8.73779 360.358 6.86279C359.501 8.73047 357.429 10.0781 355.437 10.4883L354.924 9.53613ZM383.107 13.5352V14.4873H371.184V13.5352H376.516V10.3418H377.644V13.5352H383.107ZM371.652 9.53613C373.93 9.14795 376.464 7.24365 376.472 5.05371V4.05762H377.673V5.05371C377.68 7.229 380.251 9.14795 382.521 9.53613L382.009 10.4883C380.024 10.0781 377.929 8.73779 377.087 6.86279C376.23 8.73047 374.157 10.0781 372.165 10.4883L371.652 9.53613ZM395.266 3.16406V16.1865H394.138V9.375H392.336V15.542H391.237V3.51562H392.336V8.42285H394.138V3.16406H395.266ZM384.162 12.583C387.187 10.8911 388.432 8.51074 388.63 5.81543H384.66V4.86328H389.758C389.743 8.17383 388.579 11.3013 384.836 13.3887L384.162 12.583Z" fill="black"/>
<path d="M335.134 43.7021V44.6396H328.454V43.7021H331.237V42.2373H332.38V43.7021H335.134ZM329.025 47.6133C329.018 46.2217 330.168 45.2988 331.809 45.2988C333.457 45.2988 334.599 46.2217 334.606 47.6133C334.599 48.9756 333.457 49.8984 331.809 49.8984C330.168 49.8984 329.018 48.9756 329.025 47.6133ZM330.051 47.6133C330.051 48.4482 330.769 49.0195 331.809 49.0195C332.849 49.0195 333.566 48.4482 333.566 47.6133C333.566 46.749 332.849 46.1777 331.809 46.1631C330.769 46.1777 330.051 46.749 330.051 47.6133ZM330.812 51.9785V51.041H339.587V55.1865H338.459V51.9785H330.812ZM335.69 50.1768V42.3984H336.789V45.8408H338.488V42.1787H339.587V50.2646H338.488V46.793H336.789V50.1768H335.69ZM352.243 42.1787V49.5762H351.101V42.1787H352.243ZM341.594 48.3311C343.564 47.6426 344.934 45.8774 344.934 43.9658V42.6914H346.105V43.9658C346.091 45.8042 347.497 47.4302 349.416 48.1113L348.83 48.9902C347.321 48.4702 346.113 47.3716 345.527 45.9507C344.948 47.4595 343.732 48.6606 342.18 49.2393L341.594 48.3311ZM343.776 55.0107V50.3232H352.243V55.0107H343.776ZM344.904 54.0732H351.115V51.2607H344.904V54.0732ZM365.222 42.1641V55.1865H364.064V42.1641H365.222ZM354.616 51.8027C358.139 50.1328 359.941 47.6353 360.197 44.5225H355.217V43.585H361.369C361.354 47.3276 359.611 50.6455 355.246 52.7402L354.616 51.8027ZM373.952 42.7354C373.945 44.354 376.296 45.5991 378.64 45.8848L378.229 46.7637C376.179 46.4854 374.172 45.5698 373.352 44.1636C372.517 45.5698 370.502 46.4854 368.474 46.7637L368.078 45.8848C370.415 45.5991 372.766 44.354 372.766 42.7354V42.2373H373.952V42.7354ZM367.419 48.5508V47.6133H379.284V48.5508H373.908V49.8545H377.761V52.8135H370.026V54.1318H378.156V55.04H368.884V51.9492H376.633V50.7627H368.854V49.8545H372.766V48.5508H367.419Z" fill="black"/>
<path d="M335.061 82.3799C335.068 84.2183 337.456 85.8003 339.807 86.1299L339.338 87.0674C337.316 86.7305 335.31 85.6099 334.475 84.0132C333.64 85.6245 331.64 86.7305 329.611 87.0674L329.143 86.1299C331.494 85.8003 333.874 84.2476 333.874 82.3799V81.6328H335.061V82.3799ZM328.527 89.4697V88.5029H340.393V89.4697H335.002V94.1865H333.874V89.4697H328.527ZM345.842 83.2734C345.842 85.0459 347.189 86.6719 349.079 87.3164L348.449 88.2246C347.014 87.6973 345.878 86.6206 345.307 85.2583C344.75 86.8037 343.586 87.9976 342.062 88.5908L341.447 87.668C343.396 86.9429 344.707 85.1997 344.714 83.1855V81.8379H345.842V83.2734ZM343.176 91.7842C343.183 90.2974 344.816 89.4258 347.497 89.4258C350.17 89.4258 351.789 90.2974 351.789 91.7842C351.789 93.3003 350.17 94.1572 347.497 94.1572C344.816 94.1572 343.183 93.3003 343.176 91.7842ZM344.333 91.7842C344.318 92.707 345.534 93.2417 347.497 93.249C349.467 93.2417 350.668 92.707 350.676 91.7842C350.668 90.8979 349.467 90.3486 347.497 90.3486C345.534 90.3486 344.318 90.8979 344.333 91.7842ZM350.529 89.0889V81.1641H351.672V84.5625H353.635V85.5293H351.672V89.0889H350.529ZM365.017 82.0137V87.3164H358.908V82.0137H365.017ZM359.846 93.249C362.087 93 364.24 91.7329 364.24 90.4365H360.388V89.543H364.255V88.2686H365.397V89.543H369.294V90.4365H365.427C365.419 91.7036 367.514 92.9707 369.748 93.249L369.353 94.1426C367.397 93.8716 365.61 92.9487 364.833 91.7476C364.05 92.978 362.219 93.8716 360.256 94.1426L359.846 93.249ZM360.036 86.4082H363.889V82.9512H360.036V86.4082ZM367.829 88.6494V81.1641H368.957V88.6494H367.829ZM385.7 81.1787V90.7002H384.558V81.1787H385.7ZM375.256 85.2803C375.249 83.4053 376.721 82.0942 378.669 82.0869C380.617 82.0942 382.075 83.4053 382.082 85.2803C382.075 87.1772 380.617 88.4956 378.669 88.4883C376.721 88.4956 375.249 87.1772 375.256 85.2803ZM376.384 85.2803C376.369 86.5767 377.351 87.4775 378.669 87.4775C379.965 87.4775 380.954 86.5767 380.954 85.2803C380.954 84.0059 379.965 83.0977 378.669 83.0977C377.351 83.0977 376.369 84.0059 376.384 85.2803ZM377.292 93.9082V89.7334H378.435V92.9414H386.11V93.9082H377.292ZM399.777 87.3604V88.3125H387.912V87.3604H399.777ZM388.586 85.6611C390.856 85.3975 393.046 84.2769 393.098 82.79H388.996V81.8379H398.723V82.79H394.592C394.643 84.2622 396.811 85.3975 399.118 85.6611L398.693 86.584C396.562 86.313 394.562 85.3535 393.845 83.9106C393.127 85.3535 391.142 86.313 388.996 86.584L388.586 85.6611ZM389.348 91.8135C389.34 90.3193 391.032 89.4551 393.845 89.4551C396.635 89.4551 398.312 90.3193 398.327 91.8135C398.312 93.3223 396.635 94.1572 393.845 94.1572C391.032 94.1572 389.34 93.3223 389.348 91.8135ZM390.52 91.8135C390.505 92.7217 391.757 93.2417 393.845 93.2344C395.91 93.2417 397.163 92.7217 397.17 91.8135C397.163 90.8979 395.91 90.3779 393.845 90.3633C391.757 90.3779 390.505 90.8979 390.52 91.8135Z" fill="black"/>
<path d="M445.172 15V4.39453H451.603V5.56641H446.49V9.11133H451.266V10.2686H446.49V13.8281H451.676V15H445.172ZM459.469 7.06055C459.359 6.02051 458.392 5.41992 457.125 5.41992C455.719 5.41992 454.803 6.15234 454.796 7.16309C454.803 8.27637 456.041 8.69385 456.847 8.8916L457.901 9.18457C459.037 9.47754 460.904 10.1294 460.904 12.1143C460.904 13.8428 459.513 15.1831 457.052 15.1904C454.767 15.1831 453.353 14.0039 453.229 12.2461H454.576C454.686 13.4326 455.792 13.9966 457.052 13.9893C458.517 13.9966 459.615 13.2422 459.615 12.085C459.615 11.0522 458.634 10.6567 457.521 10.3418L456.217 9.99023C454.554 9.50684 453.514 8.65723 453.521 7.22168C453.514 5.42725 455.111 4.24805 457.169 4.24805C459.227 4.24805 460.707 5.44922 460.758 7.06055H459.469ZM470.03 7.70508C469.576 6.34277 468.543 5.47852 467.027 5.47852C465.152 5.47852 463.666 6.95801 463.658 9.69727C463.666 12.4292 465.152 13.9087 467.115 13.916C468.902 13.9087 470.14 12.7222 470.162 10.8398H467.394V9.68262H471.451V10.8252C471.451 13.4546 469.642 15.1465 467.115 15.1465C464.281 15.1465 462.376 13.0518 462.384 9.69727C462.376 6.34277 464.303 4.24805 467.027 4.24805C469.269 4.24805 470.997 5.6543 471.393 7.70508H470.03ZM487.667 3.16406V16.1865H486.539V9.375H484.737V15.542H483.639V3.51562H484.737V8.42285H486.539V3.16406H487.667ZM476.563 12.583C479.588 10.8911 480.833 8.51074 481.031 5.81543H477.062V4.86328H482.159C482.145 8.17383 480.98 11.3013 477.237 13.3887L476.563 12.583ZM501.437 13.5498V14.5166H489.513V13.5498H492.472V10.0415C491.358 9.46289 490.685 8.52539 490.685 7.33887C490.685 5.32471 492.662 3.99902 495.445 3.98438C498.229 3.99902 500.206 5.32471 500.206 7.33887C500.206 8.50342 499.554 9.42627 498.478 10.0049V13.5498H501.437ZM491.798 7.33887C491.791 8.79639 493.307 9.77051 495.445 9.77051C497.562 9.77051 499.093 8.79639 499.093 7.33887C499.093 5.88135 497.562 4.92188 495.445 4.93652C493.307 4.92188 491.791 5.88135 491.798 7.33887ZM493.6 13.5498H497.32V10.4517C496.756 10.5981 496.126 10.6787 495.445 10.6787C494.779 10.6787 494.156 10.6055 493.6 10.459V13.5498Z" fill="black"/>
<path d="M454.693 42.1641V46.7344H456.642V47.7012H454.693V52.3594H453.536V42.1641H454.693ZM444.469 49.9131C445.501 49.9131 446.725 49.8984 447.999 49.8545V48.8584C446.483 48.7192 445.501 47.9941 445.509 46.8955C445.501 45.6431 446.725 44.8813 448.556 44.8887C450.401 44.8813 451.603 45.6431 451.617 46.8955C451.603 47.9868 450.65 48.7119 449.142 48.8584V49.8032C450.357 49.73 451.595 49.6201 452.73 49.4443L452.833 50.2646C450.042 50.792 446.878 50.8286 444.601 50.8506L444.469 49.9131ZM444.791 44.3174V43.4531H447.999V42.1348H449.142V43.4531H452.335V44.3174H444.791ZM446.417 54.9082V51.6709H447.574V53.9414H455.162V54.9082H446.417ZM446.607 46.8955C446.6 47.606 447.354 48.0674 448.556 48.0674C449.757 48.0674 450.519 47.606 450.519 46.8955C450.519 46.1558 449.757 45.7017 448.556 45.709C447.354 45.7017 446.6 46.1558 446.607 46.8955ZM468.287 42.1787V50.001H467.13V48.2432H463.673V47.291H467.13V45.5332H463.805C462.948 47.6279 460.941 49.144 458.15 49.9717L457.667 49.0635C460.809 48.1333 462.779 46.3682 463.006 44.1123H458.326V43.1455H464.259C464.259 43.6582 464.2 44.1489 464.09 44.6104H467.13V42.1787H468.287ZM459.674 52.623C459.667 51.0703 461.358 50.1328 464.024 50.1328C466.661 50.1328 468.36 51.0703 468.36 52.623C468.36 54.1831 466.661 55.1279 464.024 55.1279C461.358 55.1279 459.667 54.1831 459.674 52.623ZM460.802 52.623C460.809 53.6045 462.062 54.1978 464.024 54.1904C465.958 54.1978 467.21 53.6045 467.218 52.623C467.21 51.6416 465.958 51.0483 464.024 51.0557C462.062 51.0483 460.809 51.6416 460.802 52.623ZM481.251 42.1787V50.001H480.094V48.2432H476.637V47.291H480.094V45.5332H476.769C475.912 47.6279 473.905 49.144 471.114 49.9717L470.631 49.0635C473.773 48.1333 475.743 46.3682 475.97 44.1123H471.29V43.1455H477.223C477.223 43.6582 477.164 44.1489 477.054 44.6104H480.094V42.1787H481.251ZM472.638 52.623C472.63 51.0703 474.322 50.1328 476.988 50.1328C479.625 50.1328 481.324 51.0703 481.324 52.623C481.324 54.1831 479.625 55.1279 476.988 55.1279C474.322 55.1279 472.63 54.1831 472.638 52.623ZM473.766 52.623C473.773 53.6045 475.025 54.1978 476.988 54.1904C478.922 54.1978 480.174 53.6045 480.182 52.623C480.174 51.6416 478.922 51.0483 476.988 51.0557C475.025 51.0483 473.773 51.6416 473.766 52.623ZM487.008 42.9551C488.106 42.9478 489.037 43.3652 489.645 44.0537H493.058V42.1641H494.215V49.8838H493.058V48.0234H489.645C489.044 48.7119 488.106 49.1294 487.008 49.1221C485.06 49.1294 483.617 47.855 483.624 46.0459C483.617 44.2222 485.06 42.9478 487.008 42.9551ZM484.723 46.0459C484.723 47.2544 485.675 48.1479 487.008 48.1406C488.297 48.1479 489.264 47.2544 489.264 46.0459C489.264 44.8081 488.297 43.9438 487.008 43.9512C485.675 43.9438 484.723 44.8081 484.723 46.0459ZM485.528 52.667C485.521 51.0996 487.191 50.1914 489.894 50.1914C492.589 50.1914 494.259 51.0996 494.259 52.667C494.259 54.249 492.589 55.1572 489.894 55.1572C487.191 55.1572 485.521 54.249 485.528 52.667ZM486.656 52.667C486.649 53.6484 487.894 54.2417 489.894 54.2344C491.893 54.2417 493.138 53.6484 493.131 52.667C493.138 51.6782 491.893 51.0923 489.894 51.085C487.894 51.0923 486.649 51.6782 486.656 52.667ZM490.194 44.9912C490.311 45.3135 490.377 45.665 490.377 46.0459C490.377 46.4121 490.311 46.7563 490.201 47.0713H493.058V44.9912H490.194Z" fill="black"/>
<path d="M448.893 84.665C448.893 86.9575 450.409 89.3232 452.262 90.2314L451.559 91.1543C450.123 90.4072 448.922 88.8618 448.343 87.0527C447.765 88.9717 446.534 90.6196 445.069 91.4033L444.337 90.4805C446.241 89.543 447.75 87.0454 447.765 84.665V82.292H448.893V84.665ZM453.463 94.1865V81.1641H454.605V86.4521H456.788V87.4482H454.605V94.1865H453.463ZM468.17 81.1641V94.1865H467.027V81.1641H468.17ZM457.564 90.7148C458.678 90.7075 459.952 90.7002 461.271 90.6562V89.2354C459.703 89.0742 458.692 88.1807 458.707 86.877C458.692 85.4048 459.945 84.4526 461.827 84.46C463.709 84.4526 464.984 85.4048 464.977 86.877C464.984 88.166 463.973 89.0596 462.428 89.2354V90.6123C463.688 90.5537 464.962 90.4658 466.163 90.3047L466.251 91.1836C463.343 91.6523 460.157 91.6963 457.74 91.6963L457.564 90.7148ZM457.843 83.7129V82.7754H461.271V81.1787H462.428V82.7754H465.826V83.7129H457.843ZM459.776 86.877C459.769 87.7778 460.619 88.3711 461.827 88.3564C463.043 88.3711 463.885 87.7778 463.878 86.877C463.885 85.9688 463.043 85.3535 461.827 85.3535C460.619 85.3535 459.769 85.9688 459.776 86.877ZM476.344 89.3965C479.134 89.3965 480.907 90.2754 480.914 91.7842C480.907 93.2783 479.134 94.1572 476.344 94.1572C473.553 94.1572 471.781 93.2783 471.788 91.7842C471.781 90.2754 473.553 89.3965 476.344 89.3965ZM470.47 88.1807V87.2432H475.377V84.7236H476.505V87.2432H482.32V88.1807H470.47ZM471.876 82.7754V81.8379H480.812V82.9365C480.804 83.9912 480.804 85.0459 480.445 86.3936L479.317 86.2617C479.669 84.9214 479.669 83.9546 479.669 82.9365V82.7754H471.876ZM472.931 91.7842C472.923 92.6924 474.271 93.249 476.344 93.249C478.424 93.249 479.757 92.6924 479.771 91.7842C479.757 90.854 478.424 90.2827 476.344 90.2754C474.271 90.2827 472.923 90.854 472.931 91.7842ZM494.215 81.1787V91.0225H493.058V86.6279H490.787V85.6611H493.058V81.1787H494.215ZM483.434 83.7129V82.7754H486.671V81.1641H487.799V82.7754H491.036V83.7129H483.434ZM484.21 86.8623C484.21 85.4194 485.462 84.4307 487.228 84.4307C488.985 84.4307 490.245 85.4194 490.26 86.8623C490.245 88.2979 488.985 89.272 487.228 89.2646C485.462 89.272 484.21 88.2979 484.21 86.8623ZM485.309 86.8623C485.309 87.7559 486.1 88.3711 487.228 88.3564C488.348 88.3711 489.146 87.7559 489.146 86.8623C489.146 85.9688 488.348 85.3315 487.228 85.3389C486.1 85.3315 485.309 85.9688 485.309 86.8623ZM485.792 93.9082V90.1436H486.949V92.9414H494.508V93.9082H485.792Z" fill="black"/>
<path d="M449.186 124.163C449.193 126.375 450.797 128.624 452.716 129.451L452.071 130.359C450.548 129.671 449.237 128.169 448.629 126.368C448.021 128.279 446.703 129.935 445.216 130.682L444.527 129.773C446.395 128.88 448.021 126.419 448.028 124.163V122.464H444.952V121.512H452.291V122.464H449.186V124.163ZM454.107 133.187V120.164H455.265V133.187H454.107ZM469.4 126.712V127.664H457.491V126.712H462.853V124.705H463.98V126.712H469.4ZM458.209 124.485C460.509 124.17 462.838 122.72 462.838 120.984V120.369H463.995V120.984C463.995 122.72 466.339 124.17 468.639 124.485L468.17 125.408C466.2 125.064 464.237 124.017 463.424 122.515C462.604 124.031 460.648 125.064 458.648 125.408L458.209 124.485ZM458.81 129.861V128.938H467.892V133.187H466.734V129.861H458.81ZM480.533 120.164V125.467H482.643V126.434H480.533V133.187H479.391V120.164H480.533ZM470.543 129.803C473.905 128.133 475.736 125.621 476 122.537H471.144V121.57H477.164C477.157 125.254 475.428 128.616 471.188 130.711L470.543 129.803ZM493.937 123.812V124.764H485.045V120.428H486.188V123.812H493.937ZM483.419 127.239V126.287H495.299V127.239H483.419ZM484.854 130.77C484.847 129.253 486.539 128.404 489.352 128.411C492.142 128.404 493.819 129.253 493.834 130.77C493.819 132.278 492.142 133.128 489.352 133.128C486.539 133.128 484.847 132.278 484.854 130.77ZM486.026 130.77C486.012 131.678 487.264 132.227 489.352 132.234C491.417 132.227 492.669 131.678 492.677 130.77C492.669 129.847 491.417 129.327 489.352 129.319C487.264 129.327 486.012 129.847 486.026 130.77ZM507.179 120.179V128.001H506.021V126.243H502.564V125.291H506.021V123.533H502.696C501.839 125.628 499.833 127.144 497.042 127.972L496.559 127.063C499.701 126.133 501.671 124.368 501.898 122.112H497.218V121.146H503.15C503.15 121.658 503.092 122.149 502.982 122.61H506.021V120.179H507.179ZM498.565 130.623C498.558 129.07 500.25 128.133 502.916 128.133C505.553 128.133 507.252 129.07 507.252 130.623C507.252 132.183 505.553 133.128 502.916 133.128C500.25 133.128 498.558 132.183 498.565 130.623ZM499.693 130.623C499.701 131.604 500.953 132.198 502.916 132.19C504.85 132.198 506.102 131.604 506.109 130.623C506.102 129.642 504.85 129.048 502.916 129.056C500.953 129.048 499.701 129.642 499.693 130.623ZM512.936 120.955C514.034 120.948 514.964 121.365 515.572 122.054H518.985V120.164H520.143V127.884H518.985V126.023H515.572C514.972 126.712 514.034 127.129 512.936 127.122C510.987 127.129 509.544 125.855 509.552 124.046C509.544 122.222 510.987 120.948 512.936 120.955ZM510.65 124.046C510.65 125.254 511.603 126.148 512.936 126.141C514.225 126.148 515.191 125.254 515.191 124.046C515.191 122.808 514.225 121.944 512.936 121.951C511.603 121.944 510.65 122.808 510.65 124.046ZM511.456 130.667C511.449 129.1 513.119 128.191 515.821 128.191C518.517 128.191 520.187 129.1 520.187 130.667C520.187 132.249 518.517 133.157 515.821 133.157C513.119 133.157 511.449 132.249 511.456 130.667ZM512.584 130.667C512.577 131.648 513.822 132.242 515.821 132.234C517.821 132.242 519.066 131.648 519.059 130.667C519.066 129.678 517.821 129.092 515.821 129.085C513.822 129.092 512.577 129.678 512.584 130.667ZM516.122 122.991C516.239 123.313 516.305 123.665 516.305 124.046C516.305 124.412 516.239 124.756 516.129 125.071H518.985V122.991H516.122Z" fill="black"/>
<path d="M773.937 7.16309C773.922 9.25049 775.431 11.5503 777.32 12.4512L776.661 13.3594C775.196 12.6416 773.958 11.1035 773.373 9.33838C772.772 11.25 771.468 12.9346 770.011 13.6816L769.308 12.7734C771.183 11.8579 772.794 9.38232 772.809 7.16309V5.46387H769.776V4.51172H776.866V5.46387H773.937V7.16309ZM778.463 16.1865V3.16406H779.605V8.4375H781.788V9.41895H779.605V16.1865H778.463ZM789.068 5.00977C789.061 6.75293 791.383 8.23242 793.653 8.56934L793.229 9.47754C791.2 9.1333 789.215 8.04932 788.424 6.48193C787.633 8.04932 785.648 9.1333 783.648 9.47754L783.194 8.56934C785.458 8.23242 787.772 6.75293 787.779 5.00977V4.92188H783.604V3.98438H793.229V4.92188H789.068V5.00977ZM782.491 11.543V10.5908H794.356V11.543H788.966V16.1865H787.838V11.543H782.491ZM809.796 15.0879V16.0107H800.67V11.792H804.581V10.2393H799.22V9.28711H811.085V10.2393H805.709V11.792H809.664V12.7441H801.827V15.0879H809.796ZM800.758 8.0127V3.67676H809.576V8.0127H800.758ZM801.886 7.08984H808.434V4.61426H801.886V7.08984ZM822.716 7.11914V8.04199H813.795V3.64746H814.938V7.11914H822.716ZM812.169 10.752V9.81445H824.093V10.752H812.169ZM813.722 15.8643V12.085H814.864V14.9121H822.789V15.8643H813.722ZM839.649 3.16406V9.93164H838.521V3.16406H839.649ZM829.103 9.03809C831.043 8.39355 832.435 6.79688 832.442 5.00977V4.86328H829.396V3.91113H836.603V4.86328H833.6V5.00977C833.607 6.70166 834.991 8.1958 836.954 8.77441L836.383 9.66797C834.845 9.18457 833.622 8.15186 833.043 6.81885C832.479 8.27637 831.234 9.41162 829.645 9.94629L829.103 9.03809ZM831.197 11.4697V10.5615H839.664V13.667H832.354V15.1172H840.133V16.04H831.227V12.8027H838.521V11.4697H831.197ZM853.785 9.8291V10.7812H848.482V13.4473H847.34V10.7812H841.861V9.8291H853.785ZM843.385 15.9082V12.1582H844.542V14.9414H852.452V15.9082H843.385ZM843.414 8.33496V3.80859H852.232V8.33496H843.414ZM844.542 7.41211H851.09V4.7168H844.542V7.41211Z" fill="black"/>
<path d="M781.437 49.5908V50.543H778.287V55.1865H777.13V50.543H773.79V55.1865H772.604V50.543H769.513V49.5908H781.437ZM770.86 45.5332C770.868 43.7974 772.706 42.6987 775.445 42.6914C778.177 42.6987 780.03 43.7974 780.03 45.5332C780.03 47.269 778.177 48.353 775.445 48.3457C772.706 48.353 770.868 47.269 770.86 45.5332ZM772.047 45.5332C772.032 46.6831 773.417 47.4229 775.445 47.4229C777.474 47.4229 778.851 46.6831 778.858 45.5332C778.851 44.376 777.474 43.6289 775.445 43.6289C773.417 43.6289 772.032 44.376 772.047 45.5332ZM787.149 46.1631C787.157 48.375 788.761 50.6235 790.68 51.4512L790.035 52.3594C788.512 51.6709 787.201 50.1694 786.593 48.3677C785.985 50.2793 784.667 51.9346 783.18 52.6816L782.491 51.7734C784.359 50.8799 785.985 48.4189 785.992 46.1631V44.4639H782.916V43.5117H790.255V44.4639H787.149V46.1631ZM792.071 55.1865V42.1641H793.229V55.1865H792.071ZM802.677 43.1748V43.8633C802.669 44.7202 802.669 46.0166 802.34 47.7158L801.183 47.6279C801.498 46.0752 801.527 44.9692 801.542 44.1416H796.188V43.1748H802.677ZM795.382 48.9316C796.224 48.9316 797.176 48.9243 798.18 48.895V46.0605H799.322V48.8584C800.765 48.7998 802.259 48.6973 803.614 48.5068L803.688 49.3564C800.956 49.8252 797.821 49.8765 795.499 49.8838L795.382 48.9316ZM797.389 54.9082V51.085H798.546V53.9414H806.09V54.9082H797.389ZM804.493 51.9639V42.1641H805.665V46.4121H807.569V47.3936H805.665V51.9639H804.493ZM819.171 42.1641V55.2158H818.028V42.1641H819.171ZM809.151 44.332V43.3799H815.216V48.0088H810.353V51.085C812.513 51.0923 814.439 50.9897 816.769 50.6162L816.886 51.583C814.491 51.9565 812.513 52.0518 810.265 52.0518H809.181V47.0713H814.059V44.332H809.151ZM835.226 42.1641V47.4668H837.335V48.4336H835.226V55.1865H834.083V42.1641H835.226ZM825.235 51.8027C828.597 50.1328 830.428 47.6206 830.692 44.5371H825.836V43.5703H831.856C831.849 47.2544 830.121 50.6162 825.88 52.7109L825.235 51.8027ZM848.849 42.1641V55.2158H847.691V42.1641H848.849ZM838.595 47.7158C838.602 44.9473 839.979 43.1821 841.92 43.1748C843.854 43.1821 845.252 44.9473 845.245 47.7158C845.252 50.4917 843.854 52.2495 841.92 52.2422C839.979 52.2495 838.602 50.4917 838.595 47.7158ZM839.708 47.7158C839.708 49.8325 840.616 51.2241 841.92 51.2168C843.231 51.2241 844.132 49.8325 844.132 47.7158C844.132 45.5991 843.231 44.2075 841.92 44.2002C840.616 44.2075 839.708 45.5991 839.708 47.7158ZM861.593 48.4336V49.3857H852.599V43.3799H861.461V44.332H853.741V48.4336H861.593ZM851.075 53.4141V52.4473H862.999V53.4141H851.075Z" fill="black"/>
<path d="M770.641 93H769.264L773.146 82.3945H774.537L778.419 93H777.027L775.965 90.0117H771.703L770.641 93ZM772.105 88.8545H775.562L773.878 84.1084H773.79L772.105 88.8545ZM783.473 81.8965L780.045 94.5967H778.902L782.315 81.8965H783.473ZM790.65 85.0605C790.541 84.0205 789.574 83.4199 788.307 83.4199C786.9 83.4199 785.985 84.1523 785.978 85.1631C785.985 86.2764 787.223 86.6938 788.028 86.8916L789.083 87.1846C790.218 87.4775 792.086 88.1294 792.086 90.1143C792.086 91.8428 790.694 93.1831 788.233 93.1904C785.948 93.1831 784.535 92.0039 784.41 90.2461H785.758C785.868 91.4326 786.974 91.9966 788.233 91.9893C789.698 91.9966 790.797 91.2422 790.797 90.085C790.797 89.0522 789.815 88.6567 788.702 88.3418L787.398 87.9902C785.736 87.5068 784.696 86.6572 784.703 85.2217C784.696 83.4272 786.292 82.248 788.351 82.248C790.409 82.248 791.888 83.4492 791.939 85.0605H790.65ZM807.848 81.1787V90.7295H806.705V81.1787H807.848ZM797.228 87.9463C799.198 87.1772 800.538 85.2729 800.538 83.2148V81.9111H801.71V83.2148C801.695 85.1997 803.05 86.9795 804.991 87.6826L804.391 88.6055C802.882 88.0269 801.71 86.855 801.131 85.3535C800.567 86.9502 799.381 88.2319 797.857 88.8398L797.228 87.9463ZM799.439 93.9082V89.8506H800.582V92.9414H808.258V93.9082H799.439ZM814.498 83.9619C814.505 85.5806 815.904 87.0454 817.823 87.6094L817.267 88.5029C815.758 88.0488 814.557 87.0674 813.963 85.7856C813.407 87.2065 812.213 88.3271 810.66 88.8398L810.104 87.9609C812.015 87.3164 813.363 85.7271 813.37 83.9619V83.6836H810.426V82.7607H813.37V81.1055H814.527V82.7607H817.442V83.6836H814.498V83.9619ZM812.169 91.7842C812.162 90.2681 813.824 89.4038 816.534 89.4111C819.237 89.4038 820.899 90.2681 820.899 91.7842C820.899 93.293 819.237 94.1572 816.534 94.1572C813.824 94.1572 812.162 93.293 812.169 91.7842ZM813.312 91.7842C813.304 92.6924 814.535 93.249 816.534 93.249C818.534 93.249 819.757 92.6924 819.757 91.7842C819.757 90.854 818.534 90.3193 816.534 90.3047C814.535 90.3193 813.304 90.854 813.312 91.7842ZM817.032 85.8516V84.8994H819.698V81.1641H820.855V89.0596H819.698V85.8516H817.032ZM824.521 88.83C824.181 88.83 823.886 88.705 823.636 88.455C823.386 88.205 823.261 87.91 823.261 87.57C823.261 87.22 823.386 86.925 823.636 86.685C823.886 86.435 824.181 86.31 824.521 86.31C824.871 86.31 825.166 86.435 825.406 86.685C825.656 86.925 825.781 87.22 825.781 87.57C825.781 87.91 825.656 88.205 825.406 88.455C825.166 88.705 824.871 88.83 824.521 88.83ZM838.99 91.5498V92.5166H827.066V91.5498H832.442V88.3857H833.6V91.5498H838.99ZM827.652 87.917C829.857 87.5435 832.413 85.7197 832.413 83.6396V83.3174H828.048V82.3506H837.965V83.3174H833.6V83.6396C833.607 85.7197 836.17 87.5068 838.419 87.873L837.95 88.7812C835.958 88.3857 833.856 87.1187 833.021 85.3169C832.186 87.1406 830.091 88.437 828.136 88.8398L827.652 87.917ZM850.709 81.1641V94.1865H849.566V81.1641H850.709ZM840.104 90.7148C841.217 90.7075 842.491 90.7002 843.81 90.6562V89.2354C842.242 89.0742 841.231 88.1807 841.246 86.877C841.231 85.4048 842.484 84.4526 844.366 84.46C846.249 84.4526 847.523 85.4048 847.516 86.877C847.523 88.166 846.512 89.0596 844.967 89.2354V90.6123C846.227 90.5537 847.501 90.4658 848.702 90.3047L848.79 91.1836C845.882 91.6523 842.696 91.6963 840.279 91.6963L840.104 90.7148ZM840.382 83.7129V82.7754H843.81V81.1787H844.967V82.7754H848.365V83.7129H840.382ZM842.315 86.877C842.308 87.7778 843.158 88.3711 844.366 88.3564C845.582 88.3711 846.424 87.7778 846.417 86.877C846.424 85.9688 845.582 85.3535 844.366 85.3535C843.158 85.3535 842.308 85.9688 842.315 86.877Z" fill="black"/>
<path d="M780.323 120.164V127.928H779.166V124.515H776.544V123.562H779.166V120.164H780.323ZM769.586 126.888C771.52 126.192 772.896 124.427 772.896 122.566V122.083H769.952V121.116H776.969V122.083H774.054V122.552C774.054 124.251 775.357 125.87 777.262 126.521L776.661 127.444C775.204 126.917 774.068 125.818 773.504 124.478C772.948 126.001 771.739 127.217 770.187 127.811L769.586 126.888ZM771.637 130.755C771.629 129.224 773.292 128.331 776.002 128.338C778.705 128.331 780.367 129.224 780.367 130.755C780.367 132.293 778.705 133.172 776.002 133.187C773.292 133.172 771.629 132.293 771.637 130.755ZM772.779 130.755C772.772 131.7 774.002 132.271 776.002 132.264C777.994 132.271 779.225 131.7 779.225 130.755C779.225 129.803 777.994 129.231 776.002 129.231C774.002 129.231 772.772 129.803 772.779 130.755ZM794.356 126.463V127.415H788.98V128.953H792.906V133.011H783.941V128.953H787.853V127.415H782.491V126.463H794.356ZM783.604 121.541V120.589H793.229V121.541H791.222V124.28H793.185V125.232H783.648V124.28H785.611V121.541H783.604ZM785.084 132.073H791.778V129.861H785.084V132.073ZM786.754 124.28H790.079V121.541H786.754V124.28ZM806.207 120.179V129.7H805.064V120.179H806.207ZM795.763 124.28C795.755 122.405 797.228 121.094 799.176 121.087C801.124 121.094 802.582 122.405 802.589 124.28C802.582 126.177 801.124 127.496 799.176 127.488C797.228 127.496 795.755 126.177 795.763 124.28ZM796.891 124.28C796.876 125.577 797.857 126.478 799.176 126.478C800.472 126.478 801.461 125.577 801.461 124.28C801.461 123.006 800.472 122.098 799.176 122.098C797.857 122.098 796.876 123.006 796.891 124.28ZM797.799 132.908V128.733H798.941V131.941H806.617V132.908H797.799ZM820.284 126.36V127.312H808.419V126.36H820.284ZM809.093 124.661C811.363 124.397 813.553 123.277 813.604 121.79H809.503V120.838H819.229V121.79H815.099C815.15 123.262 817.318 124.397 819.625 124.661L819.2 125.584C817.069 125.313 815.069 124.354 814.352 122.911C813.634 124.354 811.649 125.313 809.503 125.584L809.093 124.661ZM809.854 130.813C809.847 129.319 811.539 128.455 814.352 128.455C817.142 128.455 818.819 129.319 818.834 130.813C818.819 132.322 817.142 133.157 814.352 133.157C811.539 133.157 809.847 132.322 809.854 130.813ZM811.026 130.813C811.012 131.722 812.264 132.242 814.352 132.234C816.417 132.242 817.669 131.722 817.677 130.813C817.669 129.898 816.417 129.378 814.352 129.363C812.264 129.378 811.012 129.898 811.026 130.813Z" fill="black"/>
<path d="M780.66 159.164V172.187H779.562V159.164H780.66ZM769.366 168.715C771.183 167.631 772.245 165.25 772.237 162.885V161.654H769.732V160.702H775.738V161.654H773.351V162.885C773.351 165.133 774.369 167.382 776.163 168.422L775.46 169.271C774.178 168.502 773.27 167.096 772.816 165.441C772.347 167.235 771.402 168.766 770.099 169.579L769.366 168.715ZM774.742 164.804V163.866H776.939V159.486H778.023V171.513H776.939V164.804H774.742ZM794.356 165.463V166.415H788.98V167.953H792.906V172.011H783.941V167.953H787.853V166.415H782.491V165.463H794.356ZM783.604 160.541V159.589H793.229V160.541H791.222V163.28H793.185V164.232H783.648V163.28H785.611V160.541H783.604ZM785.084 171.073H791.778V168.861H785.084V171.073ZM786.754 163.28H790.079V160.541H786.754V163.28ZM803.585 162.665C803.585 164.958 805.101 167.323 806.954 168.231L806.251 169.154C804.815 168.407 803.614 166.862 803.036 165.053C802.457 166.972 801.227 168.62 799.762 169.403L799.029 168.48C800.934 167.543 802.442 165.045 802.457 162.665V160.292H803.585V162.665ZM808.155 172.187V159.164H809.298V164.452H811.48V165.448H809.298V172.187H808.155ZM824.049 165.609V166.562H812.184V165.609H815.128V163.771C814.088 163.368 813.502 162.709 813.502 161.83C813.502 160.299 815.26 159.42 818.116 159.413C820.951 159.42 822.708 160.299 822.716 161.83C822.708 162.702 822.13 163.361 821.104 163.771V165.609H824.049ZM813.619 169.857C813.612 168.371 815.289 167.55 818.116 167.558C820.907 167.55 822.584 168.371 822.599 169.857C822.584 171.344 820.907 172.157 818.116 172.157C815.289 172.157 813.612 171.344 813.619 169.857ZM814.688 161.83C814.681 162.782 815.985 163.332 818.116 163.339C820.226 163.332 821.537 162.782 821.544 161.83C821.537 160.893 820.226 160.321 818.116 160.321C815.985 160.321 814.681 160.893 814.688 161.83ZM814.791 169.857C814.776 170.744 816.029 171.271 818.116 171.264C820.182 171.271 821.434 170.744 821.441 169.857C821.434 168.971 820.182 168.451 818.116 168.437C816.029 168.451 814.776 168.971 814.791 169.857ZM816.271 165.609H819.962V164.079C819.413 164.181 818.797 164.232 818.116 164.232C817.435 164.232 816.82 164.181 816.271 164.086V165.609ZM835.943 159.164V165.902H834.786V162.519H831.886V161.566H834.786V159.164H835.943ZM825.133 165.009C827.096 164.357 828.443 162.724 828.458 160.819V159.589H829.586V160.819C829.571 162.526 830.919 164.093 832.823 164.716L832.208 165.609C830.765 165.097 829.615 164.071 829.037 162.753C828.48 164.24 827.301 165.375 825.763 165.932L825.133 165.009ZM827.506 167.484V166.562H835.943V169.667H828.663V171.088H836.427V172.011H827.535V168.788H834.801V167.484H827.506ZM848.907 159.164V166.884H847.75V164.833H844.703V165.946H838.727V160.16H844.703V161.288H847.75V159.164H848.907ZM839.869 165.009H843.575V161.098H839.869V165.009ZM840.221 169.726C840.213 168.158 841.876 167.257 844.586 167.265C847.289 167.257 848.951 168.158 848.951 169.726C848.951 171.278 847.289 172.157 844.586 172.157C841.876 172.157 840.213 171.278 840.221 169.726ZM841.363 169.726C841.356 170.67 842.586 171.249 844.586 171.249C846.578 171.249 847.809 170.67 847.809 169.726C847.809 168.744 846.578 168.173 844.586 168.158C842.586 168.173 841.356 168.744 841.363 169.726ZM844.703 163.866H847.75V162.24H844.703V163.866ZM855.66 162.665C855.653 165.023 857.169 167.396 859.059 168.261L858.37 169.198C856.891 168.437 855.667 166.884 855.089 165.031C854.51 166.979 853.287 168.649 851.808 169.433L851.061 168.51C852.972 167.572 854.481 165.067 854.488 162.665V160.292H855.66V162.665ZM857.638 164.555V163.617H860.729V159.164H861.871V172.216H860.729V164.555H857.638Z" fill="black"/>
<path d="M774.112 201.665C774.105 204.023 775.621 206.396 777.511 207.261L776.822 208.198C775.343 207.437 774.12 205.884 773.541 204.031C772.962 205.979 771.739 207.649 770.26 208.433L769.513 207.51C771.424 206.572 772.933 204.067 772.94 201.665V199.292H774.112V201.665ZM776.09 203.555V202.617H779.181V198.164H780.323V211.216H779.181V203.555H776.09ZM793.229 198.164V211.216H792.071V198.164H793.229ZM783.253 208.066V199.277H784.396V202.72H788.277V199.277H789.405V208.066H783.253ZM784.396 207.1H788.277V203.643H784.396V207.1ZM801.944 200.083C801.952 202.317 804.5 204.302 806.764 204.727L806.236 205.693C804.266 205.239 802.201 203.84 801.358 201.929C800.509 203.84 798.451 205.232 796.48 205.693L795.953 204.727C798.209 204.294 800.736 202.324 800.743 200.083V199.087H801.944V200.083ZM795.455 209.414V208.462H807.379V209.414H795.455ZM819.479 198.164V207.935H818.38V198.164H819.479ZM808.463 205.166C810.14 204.375 811.166 202.573 811.158 201.035V199.087H812.271V201.035C812.271 202.559 813.224 204.126 814.879 204.829L814.234 205.737C813.033 205.188 812.176 204.185 811.729 203.005C811.268 204.302 810.353 205.452 809.107 206.06L808.463 205.166ZM810.938 210.908V206.733H812.081V209.941H819.874V210.908H810.938ZM813.751 202.427V201.475H815.802V198.428H816.915V207.568H815.802V202.427H813.751ZM832.179 198.164V211.216H831.036V204.038H828.282V203.086H831.036V198.164H832.179ZM821.983 208.066V199.365H828.062V200.317H823.141V203.027H827.491V203.965H823.141V207.114C825.528 207.107 827.066 207.041 828.854 206.719L828.985 207.671C827.088 207.979 825.499 208.066 822.979 208.066H821.983ZM848.292 198.164V202.134H850.255V203.101H848.292V207.773H847.149V198.164H848.292ZM838.36 202.295C838.353 200.405 839.833 199.094 841.773 199.087C843.729 199.094 845.187 200.405 845.201 202.295C845.187 204.177 843.729 205.503 841.773 205.503C839.833 205.503 838.353 204.177 838.36 202.295ZM839.488 202.295C839.481 203.577 840.484 204.492 841.773 204.492C843.084 204.492 844.066 203.577 844.073 202.295C844.066 201.006 843.084 200.098 841.773 200.098C840.484 200.098 839.481 201.006 839.488 202.295ZM840.147 210.908V206.777H841.275V209.941H848.893V210.908H840.147ZM862.193 198.164V211.187H861.065V204.448H859.19V210.513H858.106V198.457H859.19V203.467H861.065V198.164H862.193ZM851.734 207.817V199.761H852.877V206.792C854.166 206.785 855.558 206.689 857.14 206.367L857.286 207.393C855.47 207.722 853.976 207.817 852.54 207.817H851.734Z" fill="black"/>
<path d="M774.112 240.665C774.105 243.023 775.621 245.396 777.511 246.261L776.822 247.198C775.343 246.437 774.12 244.884 773.541 243.031C772.962 244.979 771.739 246.649 770.26 247.433L769.513 246.51C771.424 245.572 772.933 243.067 772.94 240.665V238.292H774.112V240.665ZM776.09 242.555V241.617H779.181V237.164H780.323V250.216H779.181V242.555H776.09ZM793.229 237.164V250.216H792.071V237.164H793.229ZM783.253 247.066V238.277H784.396V241.72H788.277V238.277H789.405V247.066H783.253ZM784.396 246.1H788.277V242.643H784.396V246.1ZM801.944 239.083C801.952 241.317 804.5 243.302 806.764 243.727L806.236 244.693C804.266 244.239 802.201 242.84 801.358 240.929C800.509 242.84 798.451 244.232 796.48 244.693L795.953 243.727C798.209 243.294 800.736 241.324 800.743 239.083V238.087H801.944V239.083ZM795.455 248.414V247.462H807.379V248.414H795.455ZM822.979 237.164V244.928H821.822V241.515H819.2V240.562H821.822V237.164H822.979ZM812.242 243.888C814.176 243.192 815.553 241.427 815.553 239.566V239.083H812.608V238.116H819.625V239.083H816.71V239.552C816.71 241.251 818.014 242.87 819.918 243.521L819.317 244.444C817.86 243.917 816.725 242.818 816.161 241.478C815.604 243.001 814.396 244.217 812.843 244.811L812.242 243.888ZM814.293 247.755C814.286 246.224 815.948 245.331 818.658 245.338C821.361 245.331 823.023 246.224 823.023 247.755C823.023 249.293 821.361 250.172 818.658 250.187C815.948 250.172 814.286 249.293 814.293 247.755ZM815.436 247.755C815.428 248.7 816.659 249.271 818.658 249.264C820.65 249.271 821.881 248.7 821.881 247.755C821.881 246.803 820.65 246.231 818.658 246.231C816.659 246.231 815.428 246.803 815.436 247.755ZM829 239.991C829 241.529 830.025 243.031 831.681 243.639L831.124 244.532C829.857 244.027 828.949 243.053 828.487 241.881C828.033 243.155 827.118 244.21 825.821 244.767L825.25 243.902C826.913 243.221 827.901 241.646 827.916 239.991V239.83H825.514V238.893H827.916V237.325H829V238.893H831.358V239.83H829V239.991ZM827.433 246.788V245.851H836.207V250.187H835.079V246.788H827.433ZM832.296 245.089V237.413H833.409V240.665H835.108V237.179H836.207V245.147H835.108V241.617H833.409V245.089H832.296Z" fill="black"/>
<path d="M774.156 279.665C774.149 282.045 775.768 284.433 777.687 285.305L776.983 286.213C775.497 285.495 774.215 283.95 773.592 282.097C772.992 284.06 771.71 285.708 770.187 286.477L769.454 285.51C771.395 284.624 772.999 282.133 773.014 279.665V277.292H774.156V279.665ZM779.107 289.216V276.164H780.265V289.216H779.107ZM788.98 278.083C788.988 280.317 791.537 282.302 793.8 282.727L793.272 283.693C791.302 283.239 789.237 281.84 788.395 279.929C787.545 281.84 785.487 283.232 783.517 283.693L782.989 282.727C785.245 282.294 787.772 280.324 787.779 278.083V277.087H788.98V278.083ZM782.491 287.414V286.462H794.415V287.414H782.491ZM801.036 277.014V277.98H797.169V279.592H800.494V280.5H797.169V282.272C799.059 282.265 800.223 282.192 801.622 281.936L801.739 282.858C800.23 283.144 799 283.203 796.891 283.21H796.07V277.014H801.036ZM797.916 289.011V284.616H806.515V289.011H797.916ZM799.044 288.073H805.387V285.554H799.044V288.073ZM801.109 280.397V279.445H802.867V276.398H803.98V283.898H802.867V280.397H801.109ZM805.416 284.016V276.164H806.515V284.016H805.416ZM819.479 276.179V284.074H818.38V280.544H816.505V283.591H815.436V276.428H816.505V279.577H818.38V276.179H819.479ZM809.078 282.858V277.219H810.221V281.892C811.598 281.884 812.923 281.804 814.527 281.496L814.63 282.448C812.887 282.792 811.458 282.858 809.898 282.858H809.078ZM810.807 286.726C810.792 285.18 812.469 284.272 815.172 284.265C817.86 284.272 819.544 285.18 819.552 286.726C819.544 288.249 817.86 289.157 815.172 289.157C812.469 289.157 810.792 288.249 810.807 286.726ZM811.949 286.726C811.935 287.67 813.187 288.242 815.172 288.234C817.149 288.242 818.395 287.67 818.409 286.726C818.395 285.759 817.149 285.18 815.172 285.188C813.187 285.18 811.935 285.759 811.949 286.726ZM833.263 282.609V283.532H821.383V282.609H826.759V281.086H822.892V276.779H831.783V277.702H824.02V280.148H831.871V281.086H827.872V282.609H833.263ZM822.818 286.828C822.811 285.341 824.503 284.492 827.315 284.484C830.106 284.492 831.783 285.341 831.798 286.828C831.783 288.33 830.106 289.172 827.315 289.187C824.503 289.172 822.811 288.33 822.818 286.828ZM823.99 286.828C823.976 287.744 825.228 288.271 827.315 288.264C829.381 288.271 830.633 287.744 830.641 286.828C830.633 285.927 829.381 285.393 827.315 285.393C825.228 285.393 823.976 285.927 823.99 286.828ZM845.113 276.164V289.187H843.956V276.164H845.113ZM834.508 285.803C838.031 284.133 839.833 281.635 840.089 278.522H835.108V277.585H841.261C841.246 281.328 839.503 284.646 835.138 286.74L834.508 285.803ZM774.112 298.665C774.105 301.023 775.621 303.396 777.511 304.261L776.822 305.198C775.343 304.437 774.12 302.884 773.541 301.031C772.962 302.979 771.739 304.649 770.26 305.433L769.513 304.51C771.424 303.572 772.933 301.067 772.94 298.665V296.292H774.112V298.665ZM776.09 300.555V299.617H779.181V295.164H780.323V308.216H779.181V300.555H776.09ZM793.229 295.164V308.216H792.071V295.164H793.229ZM783.253 305.066V296.277H784.396V299.72H788.277V296.277H789.405V305.066H783.253ZM784.396 304.1H788.277V300.643H784.396V304.1ZM801.944 297.083C801.952 299.317 804.5 301.302 806.764 301.727L806.236 302.693C804.266 302.239 802.201 300.84 801.358 298.929C800.509 300.84 798.451 302.232 796.48 302.693L795.953 301.727C798.209 301.294 800.736 299.324 800.743 297.083V296.087H801.944V297.083ZM795.455 306.414V305.462H807.379V306.414H795.455ZM822.364 295.164V299.134H824.327V300.101H822.364V304.773H821.222V295.164H822.364ZM812.433 299.295C812.425 297.405 813.905 296.094 815.846 296.087C817.801 296.094 819.259 297.405 819.273 299.295C819.259 301.177 817.801 302.503 815.846 302.503C813.905 302.503 812.425 301.177 812.433 299.295ZM813.561 299.295C813.553 300.577 814.557 301.492 815.846 301.492C817.157 301.492 818.138 300.577 818.146 299.295C818.138 298.006 817.157 297.098 815.846 297.098C814.557 297.098 813.553 298.006 813.561 299.295ZM814.22 307.908V303.777H815.348V306.941H822.965V307.908H814.22ZM836.266 295.164V308.187H835.138V301.448H833.263V307.513H832.179V295.457H833.263V300.467H835.138V295.164H836.266ZM825.807 304.817V296.761H826.949V303.792C828.238 303.785 829.63 303.689 831.212 303.367L831.358 304.393C829.542 304.722 828.048 304.817 826.612 304.817H825.807Z" fill="black"/>
<path d="M781.393 341.107V342.06H769.527V341.107H774.889V339.745C772.391 339.613 770.846 338.676 770.846 337.138C770.846 335.534 772.633 334.567 775.46 334.56C778.258 334.567 780.052 335.534 780.06 337.138C780.052 338.676 778.5 339.613 776.031 339.745V341.107H781.393ZM771.065 346.908V343.114H772.223V345.941H780.074V346.908H771.065ZM772.032 337.138C772.025 338.2 773.358 338.808 775.46 338.808C777.547 338.808 778.88 338.2 778.888 337.138C778.88 336.142 777.547 335.497 775.46 335.497C773.358 335.497 772.025 336.142 772.032 337.138ZM792.569 334.164V339.35H794.752V340.316H792.569V347.216H791.427V334.164H792.569ZM783.004 336.332V335.38H788.922V340.038H784.176V343.085C786.593 343.092 788.285 342.997 790.255 342.631L790.372 343.583C788.321 343.957 786.585 344.052 784.073 344.066H783.033V339.086H787.779V336.332H783.004ZM806.207 334.179V343.7H805.064V334.179H806.207ZM795.763 338.28C795.755 336.405 797.228 335.094 799.176 335.087C801.124 335.094 802.582 336.405 802.589 338.28C802.582 340.177 801.124 341.496 799.176 341.488C797.228 341.496 795.755 340.177 795.763 338.28ZM796.891 338.28C796.876 339.577 797.857 340.478 799.176 340.478C800.472 340.478 801.461 339.577 801.461 338.28C801.461 337.006 800.472 336.098 799.176 336.098C797.857 336.098 796.876 337.006 796.891 338.28ZM797.799 346.908V342.733H798.941V345.941H806.617V346.908H797.799ZM824.093 340.829V341.781H818.79V344.447H817.647V341.781H812.169V340.829H824.093ZM813.692 346.908V343.158H814.85V345.941H822.76V346.908H813.692ZM813.722 339.335V334.809H822.54V339.335H813.722ZM814.85 338.412H821.397V335.717H814.85V338.412ZM829.41 335.116C831.454 335.124 832.904 336.369 832.911 338.178C832.904 339.994 831.454 341.232 829.41 341.239C827.352 341.232 825.887 339.994 825.895 338.178C825.887 336.369 827.352 335.124 829.41 335.116ZM825.221 343.363C827.623 343.371 830.941 343.349 833.819 342.924L833.907 343.773C830.926 344.33 827.726 344.345 825.382 344.345L825.221 343.363ZM827.022 338.178C827.015 339.394 828.019 340.229 829.41 340.229C830.787 340.229 831.791 339.394 831.783 338.178C831.791 336.969 830.787 336.127 829.41 336.127C828.019 336.127 827.015 336.969 827.022 338.178ZM834.684 347.216V334.164H835.826V347.216H834.684Z" fill="black"/>
</svg>
