<svg width="207" height="56" viewBox="0 0 207 56" fill="none" xmlns="http://www.w3.org/2000/svg">
<rect x="0.5" y="0.5" width="206" height="55" rx="27.5" stroke="black"/>
<path d="M32 22.5V32.0469H25.125V22.5H32ZM27.125 30.4688H30.0625V24.0625H27.125V30.4688ZM34.3125 35.4688V21.2188H36.3281V35.4688H34.3125ZM49.3562 21.2188V35.4688H47.3406V21.2188H49.3562ZM38.3094 32.0781V22.4688H45.2312V24.0938H40.3094V30.3906C42.8562 30.3906 44.4266 30.3203 46.2156 30L46.4031 31.6406C44.4344 32.0156 42.6219 32.0781 39.5437 32.0781H38.3094ZM54.4 22.2188C56.3219 22.2188 57.7594 23.7969 58.0406 26.3594H60.5094V21.2188H62.4781V35.4688H60.5094V27.9531H58.0641C57.8531 30.6875 56.3844 32.3594 54.4 32.3594C52.2437 32.3594 50.6969 30.4062 50.7125 27.2812C50.6969 24.1797 52.2437 22.2188 54.4 22.2188ZM52.6187 27.2812C52.6109 29.3984 53.3375 30.5547 54.4 30.5469C55.4703 30.5547 56.1812 29.3984 56.1812 27.2812C56.1812 25.1719 55.4703 24.0156 54.4 24.0156C53.3375 24.0156 52.6109 25.1719 52.6187 27.2812ZM77.6125 21.2188V26.5312H79.7062V28.2031H77.6125V35.4375H75.6125V21.2188H77.6125ZM66.8469 32.1406V22.3438H68.8312V25.8125H71.7844V22.3438H73.7687V32.1406H66.8469ZM68.8312 30.5312H71.7844V27.3594H68.8312V30.5312ZM92.4375 32.2188V33.8594H79.4219V32.2188H84.9062V30.0781H80.9219V25.2969H88.9688V23.7344H80.9062V22.1406H90.9375V26.8594H82.9219V28.4531H91.2656V30.0781H86.8906V32.2188H92.4375ZM103.669 21.2188V26.6719H105.684V28.3125H103.669V35.4062H101.669V21.2188H103.669ZM92.2937 31.4219C95.6609 29.7344 97.4734 27.4688 97.8484 24.2969H93.1062V22.6719H99.8719C99.8562 26.9219 98.2 30.6016 93.4187 32.9531L92.2937 31.4219ZM117.431 21.2188V35.4375H115.416V21.2188H117.431ZM105.525 31.4062C109.197 29.6719 110.814 27.4219 111.134 24.2656H106.291V22.7031H113.166C113.158 27.0156 111.65 30.6016 106.572 33L105.525 31.4062Z" fill="black"/>
<path d="M163 28H178M178 28L171.182 21M178 28L171.182 35" stroke="black" stroke-width="1.5" stroke-linejoin="round"/>
</svg>
