<svg width="242" height="23" viewBox="0 0 242 23" fill="none" xmlns="http://www.w3.org/2000/svg">
<path d="M14.2383 3.67383V19.5645H12.3398V11.4609H10.6348V18.8262H8.82422V4.04297H10.6348V9.87891H12.3398V3.67383H14.2383ZM0.527344 15.0293C2.7334 13.79 4.08691 12.3486 4.86035 10.6787L0.861328 11.1094L0.615234 9.43945L5.39648 9.1582C5.56348 8.5166 5.66895 7.83984 5.72168 7.13672H1.44141V5.55469H7.62891C7.61133 9.94043 6.45996 13.7109 1.66992 16.418L0.527344 15.0293ZM28.9603 3.67383V19.582H27.0267V3.67383H28.9603ZM16.5853 6.64453V5.0625H24.0736V11.0215H18.6068V14.2207C21.1117 14.2031 23.265 14.0713 25.7435 13.6582L25.9193 15.2578C23.2211 15.7236 20.848 15.8291 17.9916 15.8203H16.6029V9.47461H22.0873V6.64453H16.5853ZM35.2624 4.83398C37.407 4.83398 38.9978 6.62695 39.279 9.52734H42.3113V3.67383H44.2448V19.582H42.3113V11.1094H39.2966C39.0857 14.1768 37.4685 16.0664 35.2624 16.0664C32.8718 16.0664 31.1755 13.8955 31.1843 10.4414C31.1755 7.01367 32.8718 4.83398 35.2624 4.83398ZM33.0652 10.4414C33.0564 12.8848 33.9529 14.2998 35.2624 14.3086C36.5808 14.2998 37.4685 12.8848 37.4773 10.4414C37.4685 8.01562 36.5808 6.5918 35.2624 6.5918C33.9529 6.5918 33.0564 8.01562 33.0652 10.4414ZM60.6016 10.3184V11.9004H46.1173V10.3184H52.3575V9.12305H47.9454V4.16602H58.7384V9.12305H54.2911V10.3184H60.6016ZM47.8223 14.3438V12.8672H58.7911V16.7695H49.7559V17.9297H59.2305V19.4238H47.8399V15.3633H56.8751V14.3438H47.8223ZM49.8614 7.59375H56.7872V5.69531H49.8614V7.59375Z" fill="white"/>
<path d="M77 5.5H72V17.5H84V12.5" stroke="white" stroke-linejoin="round"/>
<path d="M79 5.5H84M84 5.5V10.5M84 5.5L78 11.5" stroke="white" stroke-linejoin="round"/>
<path d="M129.146 5.25586V13.9922C130.702 13.9746 132.126 13.8691 133.752 13.5176L134.033 15.1699C132.021 15.6094 130.28 15.6797 128.268 15.6797H127.195V5.25586H129.146ZM131.66 10.3887V8.80664H134.982V4.00781H136.828V18.8086H134.982V10.3887H131.66ZM138.375 19.5645V3.67383H140.238V19.5645H138.375ZM154.943 3.67383V19.582H152.974V3.67383H154.943ZM142.234 10.4414C142.225 7.01367 143.974 4.83398 146.382 4.83398C148.764 4.83398 150.522 7.01367 150.531 10.4414C150.522 13.8955 148.764 16.0664 146.382 16.0664C143.974 16.0664 142.225 13.8955 142.234 10.4414ZM144.115 10.4414C144.115 12.8848 145.037 14.2998 146.382 14.3086C147.718 14.2998 148.632 12.8848 148.632 10.4414C148.632 8.01562 147.718 6.5918 146.382 6.5918C145.037 6.5918 144.115 8.01562 144.115 10.4414ZM170.245 3.67383V19.582H168.311V10.9688H165.077V15.7324H157.518V4.9043H159.487V8.85938H163.161V4.9043H165.077V9.36914H168.311V3.67383H170.245ZM159.487 14.168H163.161V10.3887H159.487V14.168ZM180.326 5.85352C180.326 8.30566 182.726 10.7754 186.057 11.3555L185.178 12.9902C182.515 12.4365 180.335 10.8193 179.298 8.68359C178.252 10.8018 176.072 12.4277 173.418 12.9902L172.557 11.3555C175.835 10.7578 178.243 8.29688 178.252 5.85352V4.67578H180.326V5.85352ZM172.117 17.543V15.9258H186.637V17.543H172.117ZM200.234 11.6719V13.2363H195.54V16.1367H201.833V17.7012H187.314V16.1367H193.572V13.2363H189.089V4.85156H200.093V6.43359H191.076V8.22656H199.724V9.77344H191.076V11.6719H200.234ZM206.852 4.83398C208.997 4.83398 210.588 6.62695 210.869 9.52734H213.901V3.67383H215.835V19.582H213.901V11.1094H210.887C210.676 14.1768 209.058 16.0664 206.852 16.0664C204.462 16.0664 202.765 13.8955 202.774 10.4414C202.765 7.01367 204.462 4.83398 206.852 4.83398ZM204.655 10.4414C204.646 12.8848 205.543 14.2998 206.852 14.3086C208.171 14.2998 209.058 12.8848 209.067 10.4414C209.058 8.01562 208.171 6.5918 206.852 6.5918C205.543 6.5918 204.646 8.01562 204.655 10.4414Z" fill="white"/>
<path d="M233 5.5H228V17.5H240V12.5" stroke="white" stroke-linejoin="round"/>
<path d="M235 5.5H240M240 5.5V10.5M240 5.5L234 11.5" stroke="white" stroke-linejoin="round"/>
</svg>
