<svg width="464" height="44" viewBox="0 0 464 44" fill="none" xmlns="http://www.w3.org/2000/svg">
<path d="M13.2188 10.875V11.8906H7.48438V13.375C10.1016 13.4922 11.6562 14.3438 11.6719 15.8125C11.6562 17.3672 9.86719 18.2344 6.89062 18.2344C3.875 18.2344 2.08594 17.3672 2.09375 15.8125C2.08594 14.3438 3.63281 13.4922 6.28125 13.375V11.8906H0.5625V10.875H13.2188ZM1.28125 9.0625C3.6875 8.8125 6.00781 7.58594 6.09375 6.03125H1.71875V5.03125H12.0938V6.03125H7.6875C7.77344 7.58594 10.0703 8.8125 12.5156 9.0625L12.0625 10.0312C9.78906 9.75781 7.65625 8.73438 6.89062 7.19531C6.125 8.73438 4.00781 9.75781 1.71875 10.0312L1.28125 9.0625ZM3.34375 15.8125C3.32812 16.7344 4.66406 17.2891 6.89062 17.2812C9.09375 17.2891 10.4297 16.7344 10.4375 15.8125C10.4297 14.8672 9.09375 14.3281 6.89062 14.3125C4.66406 14.3281 3.32812 14.8672 3.34375 15.8125ZM25.4656 4.375V18.2656H24.2937V10.9844H22.2469V17.5469H21.1219V4.6875H22.2469V9.96875H24.2937V4.375H25.4656ZM14.1062 14.8281V6.07812H19.3094V7.09375H15.325V13.7812C17.2391 13.7734 18.5594 13.7031 20.1062 13.3906L20.2156 14.4219C18.5437 14.7656 17.1297 14.8203 14.9969 14.8281H14.1062ZM34.4937 5.9375V6.9375H26.6344V5.9375H30.0094V4.26562H31.2281V5.9375H34.4937ZM27.4625 10.2188C27.4469 8.67188 28.7281 7.64844 30.6031 7.65625C32.4625 7.64844 33.7672 8.67188 33.775 10.2188C33.7672 11.7734 32.4625 12.7891 30.6031 12.7969C28.7281 12.7891 27.4469 11.7734 27.4625 10.2188ZM28.6031 10.2188C28.5953 11.1953 29.3922 11.8516 30.6031 11.8438C31.7984 11.8516 32.6187 11.1953 32.6344 10.2188C32.6187 9.24219 31.7984 8.59375 30.6031 8.57812C29.3922 8.59375 28.5953 9.24219 28.6031 10.2188ZM28.8844 15.875C28.8844 14.3594 30.6422 13.5 33.5562 13.5C36.4547 13.5 38.2125 14.3594 38.2125 15.875C38.2125 17.3672 36.4547 18.2344 33.5562 18.2344C30.6422 18.2344 28.8844 17.3672 28.8844 15.875ZM30.15 15.875C30.1578 16.7578 31.4469 17.2891 33.5562 17.2812C35.6344 17.2891 36.9156 16.7578 36.9156 15.875C36.9156 14.9688 35.6344 14.4609 33.5562 14.4531C31.4469 14.4609 30.1578 14.9688 30.15 15.875ZM34.4781 11.4375V10.4219H36.9V8.73438H34.4937V7.71875H36.9V4.375H38.1344V13.3594H36.9V11.4375H34.4781ZM47.8 8.10938C47.7922 10.6484 49.5187 13.1953 51.5656 14.125L50.8156 15.0938C49.2297 14.3281 47.8625 12.6797 47.1984 10.7031C46.5578 12.7969 45.1906 14.5547 43.5656 15.375L42.7844 14.3438C44.8547 13.3984 46.5656 10.7422 46.5812 8.10938V5.57812H47.8V8.10938ZM53.0812 18.2969V4.375H54.3156V18.2969H53.0812ZM62.8125 6.42188C62.8203 8.80469 65.5391 10.9219 67.9531 11.375L67.3906 12.4062C65.2891 11.9219 63.0859 10.4297 62.1875 8.39062C61.2812 10.4297 59.0859 11.9141 56.9844 12.4062L56.4219 11.375C58.8281 10.9141 61.5234 8.8125 61.5312 6.42188V5.35938H62.8125V6.42188ZM55.8906 16.375V15.3594H68.6094V16.375H55.8906ZM74.8719 5.28125V6.3125H70.7469V8.03125H74.2937V9H70.7469V10.8906C72.7625 10.8828 74.0047 10.8047 75.4969 10.5312L75.6219 11.5156C74.0125 11.8203 72.7 11.8828 70.45 11.8906H69.575V5.28125H74.8719ZM71.5437 18.0781V13.3906H80.7156V18.0781H71.5437ZM72.7469 17.0781H79.5125V14.3906H72.7469V17.0781ZM74.95 8.89062V7.875H76.825V4.625H78.0125V12.625H76.825V8.89062H74.95ZM79.5437 12.75V4.375H80.7156V12.75H79.5437ZM89.65 5.92188V6.64062C89.6422 7.74219 89.6422 9.57812 89.2438 12.1562L88.0094 12.0469C88.3922 9.71875 88.4234 8.03125 88.4156 6.92188H82.5875V5.92188H89.65ZM81.8063 14.1875C82.7203 14.1797 83.7359 14.1719 84.8063 14.1484V9.89062H86.0094V14.1094C87.5484 14.0547 89.1266 13.9531 90.5719 13.7812L90.6344 14.7031C87.7125 15.1562 84.4469 15.2188 81.9625 15.2031L81.8063 14.1875ZM91.4469 18.2656V4.375H92.6656V10.1875H94.9156V11.25H92.6656V18.2656H91.4469ZM102.863 7C102.855 8.91406 104.3 10.6797 106.347 11.3906L105.722 12.375C104.144 11.7969 102.917 10.625 102.3 9.15625C101.714 10.8125 100.456 12.0859 98.8156 12.7188L98.1438 11.7344C100.261 10.9922 101.652 9.10938 101.659 6.95312V5.23438H102.863V7ZM100.378 17.9688V13.6562H101.628V16.9375H109.691V17.9688H100.378ZM107.831 14.6406V4.375H109.05V8.64062H111.144V9.6875H109.05V14.6406H107.831ZM115.047 5.03125C116.906 5.02344 118.328 6.10938 118.594 7.70312H121.5V4.375H122.734V11.8281H121.5V8.71875H118.602C118.359 10.3594 116.93 11.4531 115.047 11.4531C112.93 11.4531 111.43 10.1406 111.438 8.23438C111.43 6.35156 112.93 5.02344 115.047 5.03125ZM112.609 8.23438C112.609 9.5 113.617 10.4141 115.047 10.4219C116.445 10.4141 117.453 9.5 117.453 8.23438C117.453 6.95312 116.445 6.0625 115.047 6.07812C113.617 6.0625 112.609 6.95312 112.609 8.23438ZM113.781 18.0781V12.5312H115.016V14.2969H121.5V12.5312H122.734V18.0781H113.781ZM115.016 17.0781H121.5V15.2812H115.016V17.0781ZM138.978 4.375V11.5625H137.744V7.95312H134.65V6.9375H137.744V4.375H138.978ZM127.447 10.6094C129.541 9.91406 130.978 8.17188 130.994 6.14062V4.82812H132.197V6.14062C132.181 7.96094 133.619 9.63281 135.65 10.2969L134.994 11.25C133.455 10.7031 132.228 9.60938 131.611 8.20312C131.017 9.78906 129.759 11 128.119 11.5938L127.447 10.6094ZM129.978 13.25V12.2656H138.978V15.5781H131.213V17.0938H139.494V18.0781H130.009V14.6406H137.759V13.25H129.978ZM151.944 4.375V18.2969H150.709V4.375H151.944ZM141.303 14.9375V5.5625H142.522V9.23438H146.663V5.5625H147.866V14.9375H141.303ZM142.522 13.9062H146.663V10.2188H142.522V13.9062ZM166.222 10.8281V11.7969H153.503V10.8281H166.222ZM155.034 13.8281V12.9062H164.628V15.8594H156.284V17.1875H165.081V18.0781H155.05V15.0156H163.409V13.8281H155.034ZM155.113 5.6875V4.79688H164.581V7.67188H156.378V8.89062H164.831V9.78125H155.159V6.82812H163.347V5.6875H155.113ZM174.341 5.0625C176.419 5.04688 177.911 6.19531 177.903 7.89062C177.911 9.58594 176.419 10.7422 174.341 10.7344C172.262 10.7422 170.778 9.58594 170.778 7.89062C170.778 6.19531 172.262 5.04688 174.341 5.0625ZM169.731 11.9219C172.341 11.9297 175.911 11.875 178.997 11.4219L179.075 12.3438C177.747 12.5859 176.372 12.7344 175.028 12.8203V17.8438H173.809V12.8906C172.395 12.9531 171.059 12.9609 169.903 12.9688L169.731 11.9219ZM171.981 7.89062C171.966 8.97656 172.958 9.72656 174.341 9.71875C175.739 9.72656 176.739 8.97656 176.731 7.89062C176.739 6.8125 175.739 6.04688 174.341 6.0625C172.958 6.04688 171.966 6.8125 171.981 7.89062ZM180.012 18.2812V4.39062H181.216V18.2812H180.012ZM193.65 4.39062V8.96875H195.744V10H193.65V14.7969H192.431V4.39062H193.65ZM182.822 7.09375V6.09375H186.353V4.39062H187.572V6.09375H191.103V7.09375H182.822ZM183.619 10.4531C183.611 8.875 184.955 7.85938 186.962 7.85938C188.947 7.85938 190.291 8.875 190.306 10.4531C190.291 12.0156 188.947 13.0234 186.962 13.0156C184.955 13.0234 183.611 12.0156 183.619 10.4531ZM184.791 10.4531C184.783 11.4297 185.65 12.0625 186.962 12.0469C188.259 12.0625 189.134 11.4297 189.15 10.4531C189.134 9.46094 188.259 8.82031 186.962 8.82812C185.65 8.82031 184.783 9.46094 184.791 10.4531ZM184.962 17.9688V13.9688H186.166V16.9375H194.291V17.9688H184.962ZM12.0781 26.3906V36.5781H10.8438V31.25H7.98438V30.2344H10.8438V26.3906H12.0781ZM0.625 33.7969C2.67188 33.0781 4.15625 31.2422 4.15625 29.25V28.5312H1.01562V27.5156H8.5V28.5312H5.39062V29.25C5.39062 31.0469 6.78125 32.7891 8.8125 33.4844L8.17188 34.4688C6.60938 33.8984 5.39844 32.7344 4.79688 31.2969C4.19531 32.9062 2.91406 34.1797 1.26562 34.7969L0.625 33.7969ZM3.15625 39.9688V35.6562H4.39062V38.9375H12.4688V39.9688H3.15625ZM26.2937 33.4844V34.5H20.6375V37.3438H19.4187V34.5H13.575V33.4844H26.2937ZM15.2 39.9688V35.9688H16.4344V38.9375H24.8719V39.9688H15.2ZM15.2312 31.8906V27.0625H24.6375V31.8906H15.2312ZM16.4344 30.9062H23.4187V28.0312H16.4344V30.9062ZM31.4469 28.9375C31.4469 30.7422 32.8375 32.4688 34.8687 33.1719L34.2281 34.1406C32.6656 33.5781 31.4547 32.4141 30.8609 30.9844C30.2594 32.5781 28.9703 33.8594 27.3219 34.4688L26.6812 33.5C28.7281 32.7656 30.2125 30.9141 30.2125 28.9531V28.3438H27.0719V27.3438H34.5562V28.3438H31.4469V28.9375ZM28.7906 36.4531V35.4375H38.1344V40.2656H36.9V36.4531H28.7906ZM34.1187 31.0469V30.0156H36.9V26.375H38.1344V34.7031H36.9V31.0469H34.1187ZM51.1156 26.3906V36.5469H49.8969V26.3906H51.1156ZM39.975 30.7656C39.9672 28.7656 41.5375 27.3672 43.6156 27.3594C45.6937 27.3672 47.2484 28.7656 47.2562 30.7656C47.2484 32.7891 45.6937 34.1953 43.6156 34.1875C41.5375 34.1953 39.9672 32.7891 39.975 30.7656ZM41.1781 30.7656C41.1625 32.1484 42.2094 33.1094 43.6156 33.1094C44.9984 33.1094 46.0531 32.1484 46.0531 30.7656C46.0531 29.4062 44.9984 28.4375 43.6156 28.4375C42.2094 28.4375 41.1625 29.4062 41.1781 30.7656ZM42.1469 39.9688V35.5156H43.3656V38.9375H51.5531V39.9688H42.1469ZM68.5938 34.2969V35.3125H65.2344V40.2656H64V35.3125H60.4375V40.2656H59.1719V35.3125H55.875V34.2969H68.5938ZM57.3125 29.9688C57.3203 28.1172 59.2812 26.9453 62.2031 26.9375C65.1172 26.9453 67.0938 28.1172 67.0938 29.9688C67.0938 31.8203 65.1172 32.9766 62.2031 32.9688C59.2812 32.9766 57.3203 31.8203 57.3125 29.9688ZM58.5781 29.9688C58.5625 31.1953 60.0391 31.9844 62.2031 31.9844C64.3672 31.9844 65.8359 31.1953 65.8438 29.9688C65.8359 28.7344 64.3672 27.9375 62.2031 27.9375C60.0391 27.9375 58.5625 28.7344 58.5781 29.9688ZM73.8875 30.6406C73.8953 33 75.6062 35.3984 77.6531 36.2812L76.9656 37.25C75.3406 36.5156 73.9422 34.9141 73.2937 32.9922C72.6453 35.0312 71.2391 36.7969 69.6531 37.5938L68.9187 36.625C70.9109 35.6719 72.6453 33.0469 72.6531 30.6406V28.8281H69.3719V27.8125H77.2V28.8281H73.8875V30.6406ZM79.1375 40.2656V26.375H80.3719V40.2656H79.1375ZM89.65 27.4531V28.1875C89.6422 29.1016 89.6422 30.4844 89.2906 32.2969L88.0563 32.2031C88.3922 30.5469 88.4234 29.3672 88.4391 28.4844H82.7281V27.4531H89.65ZM81.8688 33.5938C82.7672 33.5938 83.7828 33.5859 84.8531 33.5547V30.5312H86.0719V33.5156C87.6109 33.4531 89.2047 33.3438 90.65 33.1406L90.7281 34.0469C87.8141 34.5469 84.4703 34.6016 81.9938 34.6094L81.8688 33.5938ZM84.0094 39.9688V35.8906H85.2438V38.9375H93.2906V39.9688H84.0094ZM91.5875 36.8281V26.375H92.8375V30.9062H94.8688V31.9531H92.8375V36.8281H91.5875ZM106.444 26.375V40.2969H105.225V26.375H106.444ZM95.7562 28.6875V27.6719H102.225V32.6094H97.0375V35.8906C99.3422 35.8984 101.397 35.7891 103.881 35.3906L104.006 36.4219C101.452 36.8203 99.3422 36.9219 96.9437 36.9219H95.7875V31.6094H100.991V28.6875H95.7562ZM122.734 26.375V34.6562H121.5V31.0156H118.703V30H121.5V26.375H122.734ZM111.281 33.5469C113.344 32.8047 114.812 30.9219 114.812 28.9375V28.4219H111.672V27.3906H119.156V28.4219H116.047V28.9219C116.047 30.7344 117.438 32.4609 119.469 33.1562L118.828 34.1406C117.273 33.5781 116.062 32.4062 115.461 30.9766C114.867 32.6016 113.578 33.8984 111.922 34.5312L111.281 33.5469ZM113.469 37.6719C113.461 36.0391 115.234 35.0859 118.125 35.0938C121.008 35.0859 122.781 36.0391 122.781 37.6719C122.781 39.3125 121.008 40.25 118.125 40.2656C115.234 40.25 113.461 39.3125 113.469 37.6719ZM114.688 37.6719C114.68 38.6797 115.992 39.2891 118.125 39.2812C120.25 39.2891 121.562 38.6797 121.562 37.6719C121.562 36.6562 120.25 36.0469 118.125 36.0469C115.992 36.0469 114.68 36.6562 114.688 37.6719ZM136.966 37.4688V38.4844H124.247V37.4688H129.966V34.4688H125.747V27.3594H126.981V29.875H134.2V27.3594H135.403V34.4688H131.169V37.4688H136.966ZM126.981 33.4688H134.2V30.875H126.981V33.4688ZM149.978 32.8281V33.7969H137.259V32.8281H149.978ZM138.791 35.8281V34.9062H148.384V37.8594H140.041V39.1875H148.837V40.0781H138.806V37.0156H147.166V35.8281H138.791ZM138.869 27.6875V26.7969H148.337V29.6719H140.134V30.8906H148.587V31.7812H138.916V28.8281H147.103V27.6875H138.869ZM165.394 26.375V40.2656H164.222V26.375H165.394ZM153.347 36.5625C155.284 35.4062 156.417 32.8672 156.409 30.3438V29.0312H153.738V28.0156H160.144V29.0312H157.597V30.3438C157.597 32.7422 158.683 35.1406 160.597 36.25L159.847 37.1562C158.48 36.3359 157.511 34.8359 157.027 33.0703C156.527 34.9844 155.519 36.6172 154.128 37.4844L153.347 36.5625ZM159.081 32.3906V31.3906H161.425V26.7188H162.581V39.5469H161.425V32.3906H159.081ZM172.828 35.1562C175.805 35.1562 177.695 36.0938 177.703 37.7031C177.695 39.2969 175.805 40.2344 172.828 40.2344C169.852 40.2344 167.961 39.2969 167.969 37.7031C167.961 36.0938 169.852 35.1562 172.828 35.1562ZM166.562 33.8594V32.8594H171.797V30.1719H173V32.8594H179.203V33.8594H166.562ZM168.062 28.0938V27.0938H177.594V28.2656C177.586 29.3906 177.586 30.5156 177.203 31.9531L176 31.8125C176.375 30.3828 176.375 29.3516 176.375 28.2656V28.0938H168.062ZM169.188 37.7031C169.18 38.6719 170.617 39.2656 172.828 39.2656C175.047 39.2656 176.469 38.6719 176.484 37.7031C176.469 36.7109 175.047 36.1016 172.828 36.0938C170.617 36.1016 169.18 36.7109 169.188 37.7031ZM190.434 26.375V29.9375H192.528V30.9844H190.434V34.4531H189.216V26.375H190.434ZM179.606 28.8281V27.8125H183.137V26.25H184.356V27.8125H187.887V28.8281H179.606ZM180.403 31.9062C180.395 30.4219 181.731 29.4766 183.747 29.4688C185.739 29.4766 187.075 30.4219 187.091 31.9062C187.075 33.3906 185.739 34.3516 183.747 34.3438C181.731 34.3516 180.395 33.3906 180.403 31.9062ZM181.575 31.9062C181.567 32.8125 182.434 33.4062 183.747 33.4062C185.044 33.4062 185.919 32.8125 185.934 31.9062C185.919 31.0078 185.044 30.4062 183.747 30.4219C182.434 30.4062 181.567 31.0078 181.575 31.9062ZM181.653 40.0781V35.0625H182.872V36.5469H189.216V35.0625H190.434V40.0781H181.653ZM182.872 39.0938H189.216V37.5156H182.872V39.0938ZM204.056 26.375V40.2656H202.837V26.375H204.056ZM193.509 36.6875V27.75H194.712V35.625C196.837 35.6094 199.025 35.4453 201.353 34.9531L201.525 36C199.056 36.5156 196.861 36.6875 194.634 36.6875H193.509ZM216.381 26.375V31.875H218.709V32.9062H216.381V40.2969H215.163V26.375H216.381ZM206.241 36.8125V27.7344H212.725V28.75H207.459V35.7812C209.975 35.7734 211.748 35.6641 213.819 35.2812L213.975 36.3438C211.795 36.7344 209.975 36.8125 207.334 36.8125H206.241ZM220.128 39.0938C219.581 39.0859 219.113 38.6328 219.128 38.0781C219.113 37.5312 219.581 37.0781 220.128 37.0781C220.683 37.0781 221.136 37.5312 221.128 38.0781C221.136 38.6328 220.683 39.0859 220.128 39.0938Z" fill="black"/>
<path d="M436 26H456M456 26L446.909 17M456 26L446.909 35" stroke="black" stroke-width="2" stroke-linejoin="round"/>
</svg>
