<svg width="419" height="87" viewBox="0 0 419 87" fill="none" xmlns="http://www.w3.org/2000/svg">
<path d="M27.1484 0V10.5859H32.3828V13.1641H27.1484V25.625H24.1016V0H27.1484ZM0.664062 11.0156C0.644531 5.97656 4.58984 2.48047 9.76562 2.46094C14.9805 2.48047 18.8672 5.97656 18.9062 11.0156C18.8672 16.0352 14.9805 19.5703 9.76562 19.5703C4.58984 19.5703 0.644531 16.0352 0.664062 11.0156ZM3.67188 11.0156C3.65234 14.4336 6.32812 16.875 9.76562 16.875C13.2617 16.875 15.8789 14.4336 15.8984 11.0156C15.8789 7.57812 13.2617 5.15625 9.76562 5.15625C6.32812 5.15625 3.65234 7.57812 3.67188 11.0156ZM5.42969 33.9844V22.9688H8.4375V31.4062H28.75V33.9844H5.42969ZM62.5594 0V20.7031H59.4734V11.6016H52.4813V9.0625H59.4734V0H62.5594ZM33.9266 17.9297C39.0828 16.0742 42.7547 11.3672 42.7547 6.40625V5.11719H34.9031V2.53906H53.6141V5.11719H45.8406V6.36719C45.8406 10.8984 49.3172 15.2148 54.3953 16.9531L52.7938 19.4141C48.907 18.0078 45.8797 15.0781 44.3758 11.5039C42.8914 15.5664 39.6688 18.8086 35.5281 20.3906L33.9266 17.9297ZM39.3953 28.2422C39.3758 24.1602 43.8094 21.7773 51.0359 21.7969C58.243 21.7773 62.6766 24.1602 62.6766 28.2422C62.6766 32.3438 58.243 34.6875 51.0359 34.7266C43.8094 34.6875 39.3758 32.3438 39.3953 28.2422ZM42.4422 28.2422C42.4227 30.7617 45.7039 32.2852 51.0359 32.2656C56.3484 32.2852 59.6297 30.7617 59.6297 28.2422C59.6297 25.7031 56.3484 24.1797 51.0359 24.1797C45.7039 24.1797 42.4227 25.7031 42.4422 28.2422ZM79.6109 6.40625C79.6109 10.918 83.0875 15.2344 88.1656 16.9922L86.5641 19.4141C82.6578 18.0078 79.6305 15.0977 78.1461 11.5234C76.6422 15.5078 73.4195 18.7109 69.2984 20.2344L67.6969 17.8125C72.8141 15.9766 76.525 11.3477 76.525 6.44531V4.92188H68.6734V2.42188H87.3844V4.92188H79.6109V6.40625ZM72.9703 25.1953V22.6562H96.3297V34.7266H93.2438V25.1953H72.9703ZM86.2906 11.6797V9.10156H93.2438V0H96.3297V20.8203H93.2438V11.6797H86.2906ZM129.983 0.0390625V25.4297H126.936V0.0390625H129.983ZM102.131 10.9766C102.112 5.97656 106.037 2.48047 111.233 2.46094C116.428 2.48047 120.315 5.97656 120.334 10.9766C120.315 16.0352 116.428 19.5508 111.233 19.5312C106.037 19.5508 102.112 16.0352 102.131 10.9766ZM105.139 10.9766C105.1 14.4336 107.717 16.8359 111.233 16.8359C114.69 16.8359 117.327 14.4336 117.327 10.9766C117.327 7.57812 114.69 5.15625 111.233 5.15625C107.717 5.15625 105.1 7.57812 105.139 10.9766ZM107.561 33.9844V22.8516H110.608V31.4062H131.077V33.9844H107.561ZM156.195 6.5625C156.195 11.4062 159.711 15.9766 164.789 17.8125L163.07 20.1953C159.262 18.6914 156.215 15.6836 154.73 11.8945C153.266 16.0938 150.102 19.4141 146 21.0547L144.359 18.5547C149.574 16.6406 153.168 11.7773 153.188 6.44531V2.14844H156.195V6.5625ZM150.648 33.9844V23.0859H153.734V31.4062H173.891V33.9844H150.648ZM162.289 10.7812V8.20312H170.023V0.0390625H173.109V26.0547H170.023V10.7812H162.289ZM193.13 2.53906V5.11719H182.583V9.45312H192.739V11.875H182.583V16.6797C187.641 16.6602 190.805 16.4648 194.536 15.7422L194.848 18.2812C190.766 19.082 187.485 19.2383 181.841 19.2578H179.653V2.53906H193.13ZM184.184 25.3906V22.8906H207.583V34.7266H204.575V25.3906H184.184ZM196.919 20.8594V0.703125H199.77V9.10156H204.653V0.0390625H207.583V21.0938H204.653V11.6016H199.77V20.8594H196.919ZM243.619 20.625V23.125H229.127V34.7266H226.119V23.125H211.822V20.625H243.619ZM215.884 16.4062V1.44531H218.931V6.25H236.431V1.44531H239.517V16.4062H215.884ZM218.931 13.9062H236.431V8.75H218.931V13.9062ZM274.42 0V34.8047H271.373V15.6641H264.03V13.125H271.373V0H274.42ZM247.233 26.4062V3.20312H263.444V5.74219H250.319V12.9688H261.92V15.4688H250.319V23.8672C256.686 23.8477 260.788 23.6719 265.553 22.8125L265.905 25.3516C260.846 26.1719 256.608 26.4062 249.889 26.4062H247.233ZM320.398 17.6562V20.1953H306.297V27.3047H303.211V20.1953H288.602V17.6562H320.398ZM292.195 7.89062C292.176 3.57422 297.039 0.917969 304.461 0.898438C311.883 0.917969 316.688 3.57422 316.688 7.89062C316.688 12.168 311.883 14.8242 304.461 14.8047C297.039 14.8242 292.176 12.168 292.195 7.89062ZM292.703 33.9844V23.8281H295.789V31.3672H316.844V33.9844H292.703ZM295.477 7.89062C295.438 10.5859 299.051 12.3047 304.461 12.3047C309.852 12.3047 313.445 10.5859 313.445 7.89062C313.445 5.11719 309.852 3.41797 304.461 3.39844C299.051 3.41797 295.438 5.11719 295.477 7.89062ZM331.981 2.10938C334.911 2.08984 337.391 3.20312 339.013 5.03906H348.114V0H351.2V20.5859H348.114V15.625H339.013C337.411 17.4609 334.911 18.5742 331.981 18.5547C326.786 18.5742 322.938 15.1758 322.958 10.3516C322.938 5.48828 326.786 2.08984 331.981 2.10938ZM325.888 10.3516C325.888 13.5742 328.427 15.957 331.981 15.9375C335.419 15.957 337.997 13.5742 337.997 10.3516C337.997 7.05078 335.419 4.74609 331.981 4.76562C328.427 4.74609 325.888 7.05078 325.888 10.3516ZM328.036 28.0078C328.016 23.8281 332.47 21.4062 339.677 21.4062C346.864 21.4062 351.317 23.8281 351.317 28.0078C351.317 32.2266 346.864 34.6484 339.677 34.6484C332.47 34.6484 328.016 32.2266 328.036 28.0078ZM331.044 28.0078C331.024 30.625 334.345 32.207 339.677 32.1875C345.009 32.207 348.329 30.625 348.309 28.0078C348.329 25.3711 345.009 23.8086 339.677 23.7891C334.345 23.8086 331.024 25.3711 331.044 28.0078ZM340.477 7.53906C340.79 8.39844 340.966 9.33594 340.966 10.3516C340.966 11.3281 340.79 12.2461 340.497 13.0859H348.114V7.53906H340.477ZM383.681 0V14.3359H388.955V16.9141H383.681V34.7266H380.595V0H383.681ZM356.064 25.1172C361.298 19.7461 363.427 13.2812 363.818 6.36719H357.158V3.78906H366.728C366.689 12.0508 364.834 20.2148 358.525 26.875L356.064 25.1172ZM366.025 27.4609C371.455 21.3281 373.076 13.6133 373.369 6.36719H367.822V3.78906H376.259C376.24 12.0312 375.029 21.6211 368.525 29.1797L366.025 27.4609ZM402.373 10.6641C402.393 16.5625 406.67 22.5586 411.788 24.7656L410.069 27.1875C406.006 25.3516 402.51 21.3477 400.889 16.543C399.268 21.6406 395.752 26.0547 391.788 28.0469L389.952 25.625C394.932 23.2422 399.268 16.6797 399.288 10.6641V6.13281H391.084V3.59375H410.655V6.13281H402.373V10.6641ZM415.498 34.7266V0H418.584V34.7266H415.498ZM31.7969 79.6953V82.2734H0V79.6953H14.2969V71.2188H3.75V54.9297H27.8516V71.2188H17.3047V79.6953H31.7969ZM6.75781 68.7578H24.8828V57.3906H6.75781V68.7578ZM65.45 69.5391V72.0391H33.7703V69.5391H65.45ZM37.7938 65.7109V53.5234H61.5047V56.0234H40.8406V63.1719H61.8172V65.7109H37.7938ZM37.8719 85.9453V75.7891H40.9188V83.3672H62.0906V85.9453H37.8719ZM89.2016 62.6641C89.2211 68.5625 93.4984 74.5586 98.6156 76.7656L96.8969 79.1875C92.8344 77.3516 89.3383 73.3477 87.7172 68.543C86.0961 73.6406 82.5805 78.0547 78.6156 80.0469L76.7797 77.625C81.7602 75.2422 86.0961 68.6797 86.1156 62.6641V58.1328H77.9125V55.5938H97.4828V58.1328H89.2016V62.6641ZM102.327 86.7266V52H105.412V86.7266H102.327ZM139.183 52.0391V78.4062H136.097V74.8125H128.909V72.5859H136.097V52.0391H139.183ZM110.355 68.1328C116.82 68.0938 125.53 68.0352 132.972 67.1172L133.167 69.3438C130.081 69.832 126.82 70.1445 123.636 70.3398V77.1953H120.55V70.4961C117.034 70.6328 113.695 70.6328 110.784 70.6328L110.355 68.1328ZM113.167 59.5C113.148 55.8477 116.624 53.4453 121.761 53.4453C126.859 53.4453 130.335 55.8477 130.355 59.5C130.335 63.2109 126.859 65.5156 121.761 65.5156C116.624 65.5156 113.148 63.2109 113.167 59.5ZM115.355 85.9844V75.8281H118.441V83.4062H140.042V85.9844H115.355ZM116.097 59.5C116.058 61.7656 118.363 63.2305 121.761 63.25C125.062 63.2305 127.405 61.7656 127.425 59.5C127.405 57.2734 125.062 55.75 121.761 55.7891C118.363 55.75 116.058 57.2734 116.097 59.5ZM160.141 52.625C167.855 52.625 172.387 54.7539 172.406 58.6016C172.387 62.5469 167.855 64.6758 160.141 64.6953C152.387 64.6758 147.836 62.5469 147.836 58.6016C147.836 54.7539 152.387 52.625 160.141 52.625ZM144.32 69.5391V67.0391H175.961V69.5391H144.32ZM148.148 74.8906V72.5469H171.898V80.3203H151.273V83.9141H172.953V86.3359H148.227V78.0547H168.891V74.8906H148.148ZM151.039 58.6016C151 61.0234 154.379 62.3516 160.141 62.3516C165.902 62.3516 169.262 61.0234 169.281 58.6016C169.262 56.3164 165.902 54.9492 160.141 54.9297C154.379 54.9492 151 56.3164 151.039 58.6016ZM214.478 52.0391V63.4844H219.712V66.0625H214.478V78.0547H211.431V52.0391H214.478ZM187.408 58.7969V56.2969H196.236V52.0391H199.283V56.2969H208.111V58.7969H187.408ZM189.4 67.1953C189.38 63.25 192.74 60.7109 197.759 60.7109C202.72 60.7109 206.08 63.25 206.119 67.1953C206.08 71.1016 202.72 73.6211 197.759 73.6016C192.74 73.6211 189.38 71.1016 189.4 67.1953ZM192.33 67.1953C192.31 69.6367 194.478 71.2188 197.759 71.1797C201.002 71.2188 203.189 69.6367 203.228 67.1953C203.189 64.7148 201.002 63.1133 197.759 63.1328C194.478 63.1133 192.31 64.7148 192.33 67.1953ZM192.759 85.9844V75.9844H195.767V83.4062H216.08V85.9844H192.759ZM257.956 53.7188V56.1406C257.937 58.7773 257.937 61.8242 257.019 65.9453L254.011 65.5938C254.909 61.5703 254.909 58.7188 254.909 56.1797H234.128V53.7188H257.956ZM230.378 70.7891V68.3281H243.464V61.2969H246.472V68.3281H261.98V70.7891H230.378ZM232.644 84.1875C238.933 83.25 244.46 79.7734 244.48 75.1641V73.5625H247.566V75.1641C247.585 79.7734 253.113 83.25 259.441 84.1875L258.269 86.5703C252.976 85.7109 248.132 83.2109 246.023 79.4219C243.913 83.2109 239.07 85.7109 233.777 86.5703L232.644 84.1875ZM293.875 52V86.7266H290.906V52H293.875ZM264.539 67C264.559 59.6172 267.488 54.9492 272 54.9297C276.219 54.9492 279.07 59.0117 279.461 65.5547H283.953V52.7422H286.883V84.9688H283.953V68.0938H279.48C279.188 74.8516 276.277 79.0898 272 79.0703C267.488 79.0898 264.559 74.3828 264.539 67ZM267.43 67C267.391 72.625 269.188 76.1797 272 76.1406C274.832 76.1797 276.629 72.625 276.609 67C276.629 61.3555 274.832 57.8203 272 57.8203C269.188 57.8203 267.391 61.3555 267.43 67Z" fill="black"/>
</svg>
