<svg width="438" height="359" viewBox="0 0 438 359" fill="none" xmlns="http://www.w3.org/2000/svg">
<g filter="url(#filter0_d_812_1384)">
<rect x="24" y="16" width="390" height="311" rx="12" fill="white"/>
<path d="M66.7969 60.6719V68.4375C68.1797 68.4219 69.4453 68.3281 70.8906 68.0156L71.1406 69.4844C69.3516 69.875 67.8047 69.9375 66.0156 69.9375H65.0625V60.6719H66.7969ZM69.0312 65.2344V63.8281H71.9844V59.5625H73.625V72.7188H71.9844V65.2344H69.0312ZM75 73.3906V59.2656H76.6562V73.3906H75ZM89.7269 59.2656V73.4062H87.9769V59.2656H89.7269ZM78.43 65.2812C78.4222 62.2344 79.9769 60.2969 82.1175 60.2969C84.2347 60.2969 85.7972 62.2344 85.805 65.2812C85.7972 68.3516 84.2347 70.2812 82.1175 70.2812C79.9769 70.2812 78.4222 68.3516 78.43 65.2812ZM80.1019 65.2812C80.1019 67.4531 80.9222 68.7109 82.1175 68.7188C83.305 68.7109 84.1175 67.4531 84.1175 65.2812C84.1175 63.125 83.305 61.8594 82.1175 61.8594C80.9222 61.8594 80.1019 63.125 80.1019 65.2812ZM103.329 59.2656V73.4062H101.61V65.75H98.735V69.9844H92.0163V60.3594H93.7663V63.875H97.0319V60.3594H98.735V64.3281H101.61V59.2656H103.329ZM93.7663 68.5938H97.0319V65.2344H93.7663V68.5938ZM115.767 61.2031C115.767 63.3828 117.9 65.5781 120.861 66.0938L120.079 67.5469C117.712 67.0547 115.775 65.6172 114.853 63.7188C113.923 65.6016 111.986 67.0469 109.626 67.5469L108.861 66.0938C111.775 65.5625 113.915 63.375 113.923 61.2031V60.1562H115.767V61.2031ZM108.47 71.5938V70.1562H121.376V71.5938H108.47ZM133.463 66.375V67.7656H129.291V70.3438H134.884V71.7344H121.978V70.3438H127.541V67.7656H123.556V60.3125H133.338V61.7188H125.322V63.3125H133.009V64.6875H125.322V66.375H133.463ZM139.346 60.2969C141.252 60.2969 142.666 61.8906 142.916 64.4688H145.611V59.2656H147.33V73.4062H145.611V65.875H142.932C142.744 68.6016 141.307 70.2812 139.346 70.2812C137.221 70.2812 135.713 68.3516 135.721 65.2812C135.713 62.2344 137.221 60.2969 139.346 60.2969ZM137.393 65.2812C137.385 67.4531 138.182 68.7109 139.346 68.7188C140.518 68.7109 141.307 67.4531 141.314 65.2812C141.307 63.125 140.518 61.8594 139.346 61.8594C138.182 61.8594 137.385 63.125 137.393 65.2812Z" fill="black"/>
<path d="M76.6562 96.2656V110.391H74.9688V103.188H73.4531V109.734H71.8438V96.5938H73.4531V101.781H74.9688V96.2656H76.6562ZM64.4688 106.359C66.4297 105.258 67.6328 103.977 68.3203 102.492L64.7656 102.875L64.5469 101.391L68.7969 101.141C68.9453 100.57 69.0391 99.9688 69.0859 99.3438H65.2812V97.9375H70.7812C70.7656 101.836 69.7422 105.188 65.4844 107.594L64.4688 106.359ZM89.7425 96.2656V110.406H88.0238V96.2656H89.7425ZM78.7425 98.9062V97.5H85.3988V102.797H80.5394V105.641C82.7659 105.625 84.68 105.508 86.8831 105.141L87.0394 106.562C84.6409 106.977 82.5316 107.07 79.9925 107.062H78.7581V101.422H83.6331V98.9062H78.7425ZM95.3444 97.2969C97.2506 97.2969 98.6647 98.8906 98.9147 101.469H101.61V96.2656H103.329V110.406H101.61V102.875H98.9303C98.7428 105.602 97.3053 107.281 95.3444 107.281C93.2194 107.281 91.7116 105.352 91.7194 102.281C91.7116 99.2344 93.2194 97.2969 95.3444 97.2969ZM93.3913 102.281C93.3834 104.453 94.1803 105.711 95.3444 105.719C96.5163 105.711 97.3053 104.453 97.3131 102.281C97.3053 100.125 96.5163 98.8594 95.3444 98.8594C94.1803 98.8594 93.3834 100.125 93.3913 102.281ZM117.868 102.172V103.578H104.993V102.172H110.54V101.109H106.618V96.7031H116.212V101.109H112.259V102.172H117.868ZM106.509 105.75V104.438H116.259V107.906H108.228V108.938H116.649V110.266H106.524V106.656H114.556V105.75H106.509ZM108.321 99.75H114.478V98.0625H108.321V99.75Z" fill="black"/>
<path d="M77.375 144.234V145.641H64.4688V144.234H70V140.969H71.7188V144.234H77.375ZM64.8438 139.875C67.7969 139.398 69.9141 137.281 69.9219 135.156V134.125H71.7656V135.156C71.7656 137.289 73.8984 139.398 76.875 139.875L76.125 141.312C73.7422 140.859 71.7812 139.492 70.8438 137.641C69.9141 139.484 67.9766 140.867 65.5938 141.312L64.8438 139.875ZM90.8831 144.25V145.672H77.9769V144.25H83.5394V141.172H79.3988V134.359H89.3988V141.172H85.2581V144.25H90.8831ZM81.1019 139.812H87.68V135.75H81.1019V139.812ZM104.36 139.953V141.344H98.7663V142.703H102.798V147.219H93.0006V142.703H97.0475V141.344H91.485V139.953H104.36ZM92.6413 135.078V133.688H103.173V135.078H101.235V137.5H103.094V138.906H92.7194V137.5H94.5788V135.078H92.6413ZM94.7194 145.812H101.11V144.047H94.7194V145.812ZM96.3131 137.5H99.485V135.078H96.3131V137.5ZM119.767 134.125V135.391C119.759 136.711 119.759 138.156 119.392 140.156H121.345V141.562H115.736V147.406H113.986V141.562H108.47V140.156H117.626C118.017 138.234 118.033 136.789 118.033 135.531H109.986V134.125H119.767ZM133.744 133.266V140.844H131.994V133.266H133.744ZM122.228 137.203C122.228 135.242 123.853 133.883 126.041 133.891C128.22 133.883 129.845 135.242 129.838 137.203C129.845 139.133 128.22 140.492 126.041 140.484C123.853 140.492 122.228 139.133 122.228 137.203ZM123.931 137.203C123.923 138.336 124.806 139.055 126.041 139.062C127.252 139.055 128.134 138.336 128.134 137.203C128.134 136.07 127.252 135.336 126.041 135.344C124.806 135.336 123.923 136.07 123.931 137.203ZM124.4 147.219V141.5H126.119V142.953H132.009V141.5H133.744V147.219H124.4ZM126.119 145.812H132.009V144.312H126.119V145.812Z" fill="black"/>
<path d="M221.656 59.2656V73.3906H219.984V66.1562H218.484V72.7031H216.844V59.5156H218.484V64.7188H219.984V59.2656H221.656ZM209.906 69.75V60.7969H215.453V69.75H209.906ZM211.531 68.375H213.828V62.1719H211.531V68.375ZM228.039 61.8125C228.039 63.5391 229.157 65.1641 231.368 65.8438L230.539 67.2031C228.953 66.7031 227.828 65.6953 227.211 64.4219C226.586 65.9062 225.399 67.0859 223.696 67.6562L222.821 66.2812C225.094 65.5391 226.289 63.7031 226.289 61.8281V61.6562H223.305V60.25H230.977V61.6562H228.039V61.8125ZM224.743 70.6719C224.743 68.9844 226.571 68 229.524 68C232.453 68 234.25 68.9844 234.258 70.6719C234.25 72.375 232.453 73.375 229.524 73.375C226.571 73.375 224.743 72.375 224.743 70.6719ZM226.477 70.6719C226.477 71.5469 227.586 72.0078 229.524 72.0156C231.453 72.0078 232.539 71.5469 232.539 70.6719C232.539 69.8125 231.453 69.3594 229.524 69.3594C227.586 69.3594 226.477 69.8125 226.477 70.6719ZM232.383 67.6875V59.2656H234.118V62.6562H236.086V64.0781H234.118V67.6875H232.383ZM247.626 59.2656V63.4062H249.594V64.8438H247.626V69.5938H245.891V59.2656H247.626ZM236.641 63.7656C236.633 61.6797 238.305 60.2109 240.454 60.2031C242.602 60.2109 244.251 61.6797 244.266 63.7656C244.251 65.8203 242.602 67.3125 240.454 67.3125C238.305 67.3125 236.633 65.8203 236.641 63.7656ZM238.344 63.7656C238.337 64.9844 239.274 65.7891 240.454 65.7812C241.649 65.7891 242.555 64.9844 242.563 63.7656C242.555 62.5156 241.649 61.7188 240.454 61.7188C239.274 61.7188 238.337 62.5156 238.344 63.7656ZM238.579 73.1094V68.5156H240.313V71.7031H248.188V73.1094H238.579ZM262.118 59.2656V73.3906H260.446V66.25H258.884V72.6719H257.259V59.5312H258.884V64.8281H260.446V59.2656H262.118ZM250.603 69.875V60.8906H252.353V68.3438C253.571 68.3203 254.899 68.2109 256.384 67.9219L256.556 69.4375C254.649 69.7734 253.032 69.875 251.54 69.875H250.603Z" fill="black"/>
<rect width="165" height="194" transform="translate(209 93)" fill="#F5F5F5"/>
<path d="M239.91 115.953V128.107H238.871V121.668H237.176V127.492H236.15V116.213H237.176V120.779H238.871V115.953H239.91ZM229.943 124.84V117.375H234.592V124.84H229.943ZM230.955 123.979H233.58V118.236H230.955V123.979ZM245.427 118.264C245.434 119.856 246.623 121.278 248.408 121.859L247.902 122.707C246.5 122.242 245.441 121.278 244.914 120.055C244.395 121.449 243.274 122.536 241.818 123.062L241.271 122.201C243.089 121.586 244.361 120.021 244.374 118.264V117.744H241.599V116.855H248.161V117.744H245.427V118.264ZM242.884 125.838C242.891 124.437 244.415 123.623 246.917 123.623C249.412 123.623 250.923 124.437 250.923 125.838C250.923 127.26 249.412 128.08 246.917 128.08C244.415 128.08 242.891 127.26 242.884 125.838ZM243.964 125.838C243.95 126.713 245.085 127.226 246.917 127.219C248.756 127.226 249.877 126.713 249.884 125.838C249.877 124.99 248.756 124.484 246.917 124.484C245.085 124.484 243.95 124.99 243.964 125.838ZM249.747 123.295V115.953H250.814V119.057H252.646V119.959H250.814V123.295H249.747ZM259.407 116.746C259.4 119.795 257.219 121.982 253.719 122.98L253.268 122.133C256.173 121.312 258.033 119.699 258.265 117.635H253.897V116.746H259.407ZM255.319 127.943V123.418H263.208V127.943H255.319ZM256.358 127.068H262.141V124.279H256.358V127.068ZM259.434 120V119.098H262.128V115.967H263.208V122.898H262.128V120H259.434ZM268.574 118.332C268.581 119.72 269.504 121.114 271.062 121.723L270.488 122.557C269.333 122.085 268.499 121.189 268.068 120.116C267.617 121.292 266.742 122.331 265.553 122.857L264.965 122.023C266.564 121.312 267.542 119.72 267.549 118.332V116.705H268.574V118.332ZM267.084 124.867V123.979H275.273V128.107H274.221V124.867H267.084ZM271.623 123.24V116.186H272.635V119.139H274.248V115.967H275.273V123.309H274.248V120.041H272.635V123.24H271.623Z" fill="#555555"/>
<path d="M230.094 161V151.102H236.096V152.195H231.324V155.504H235.781V156.584H231.324V159.906H236.164V161H230.094ZM241.859 155.518V156.598H237.525V155.518H241.859ZM249.235 151.225C249.228 154.731 248.032 157.944 243.657 160.098L243.055 159.277C245.338 158.163 246.712 156.755 247.451 155.121L243.288 155.518L243.11 154.574L247.779 154.26C247.998 153.576 248.121 152.858 248.169 152.113H243.725V151.225H249.235ZM251.272 162.107V149.953H252.338V154.902H254.307V155.805H252.338V162.107H251.272ZM260.713 150.664V151.539H256.365V154.738C258.751 154.752 260.186 154.663 261.847 154.328L261.984 155.189C260.241 155.559 258.758 155.627 256.256 155.613H255.312V150.664H260.713ZM256.502 157.568V156.693H264.254V159.688H257.582V161.068H264.705V161.943H256.529V158.84H263.187V157.568H256.502ZM263.187 156.092V149.953H264.254V152.537H266.086V153.426H264.254V156.092H263.187ZM277.7 159.701V160.604H266.571V159.701H271.575V157.404H267.966V153.658H275.239V151.744H267.939V150.855H276.292V154.533H269.032V156.516H276.579V157.404H272.628V159.701H277.7ZM287.975 151.252V152.469C287.975 154 287.975 155.729 287.524 158.375L286.43 158.266C286.922 155.777 286.922 153.959 286.922 152.469V152.141H279.594V151.252H287.975ZM278.391 160.316V159.428H289.465V160.316H278.391Z" fill="#555555"/>
<path d="M236.438 185.115V185.99H235.193V190.017C235.815 189.976 236.431 189.914 237.012 189.846L237.094 190.652C234.626 191.035 231.769 191.097 229.656 191.09L229.533 190.201C230.025 190.201 230.552 190.194 231.105 190.181V185.99H229.875V185.115H236.438ZM231.393 195.848V192.061H232.445V194.945H239.555V195.848H231.393ZM232.158 190.16C232.808 190.146 233.478 190.119 234.141 190.085V185.99H232.158V190.16ZM237.928 192.908V183.967H238.994V187.658H240.826V188.574H238.994V192.908H237.928ZM251.73 183.953V196.107H250.691V189.668H248.995V195.492H247.97V184.213H248.995V188.779H250.691V183.953H251.73ZM241.763 192.84V185.375H246.411V192.84H241.763ZM242.775 191.979H245.4V186.236H242.775V191.979ZM257.206 187.221C257.206 189.36 258.621 191.568 260.35 192.416L259.694 193.277C258.354 192.58 257.233 191.138 256.693 189.449C256.153 191.24 255.004 192.778 253.637 193.51L252.954 192.648C254.731 191.773 256.139 189.442 256.153 187.221V185.006H257.206V187.221ZM261.471 196.107V183.953H262.538V188.889H264.575V189.818H262.538V196.107H261.471ZM274.972 183.967V193.195H273.892V191.938H271.377V191.158H273.892V183.967H274.972ZM264.883 189.6C267.145 189.586 270.194 189.565 272.799 189.244L272.867 190.023C271.787 190.194 270.645 190.304 269.531 190.372V192.771H268.451V190.427C267.221 190.475 266.052 190.475 265.033 190.475L264.883 189.6ZM265.867 186.578C265.86 185.3 267.077 184.459 268.875 184.459C270.659 184.459 271.876 185.3 271.883 186.578C271.876 187.877 270.659 188.684 268.875 188.684C267.077 188.684 265.86 187.877 265.867 186.578ZM266.633 195.848V192.293H267.713V194.945H275.273V195.848H266.633ZM266.892 186.578C266.879 187.371 267.685 187.884 268.875 187.891C270.03 187.884 270.85 187.371 270.857 186.578C270.85 185.799 270.03 185.266 268.875 185.279C267.685 185.266 266.879 185.799 266.892 186.578ZM286.806 183.967V192.854H285.739V183.967H286.806ZM277.058 187.795C277.051 186.045 278.425 184.821 280.243 184.814C282.062 184.821 283.422 186.045 283.429 187.795C283.422 189.565 282.062 190.796 280.243 190.789C278.425 190.796 277.051 189.565 277.058 187.795ZM278.11 187.795C278.097 189.005 279.013 189.846 280.243 189.846C281.453 189.846 282.376 189.005 282.376 187.795C282.376 186.605 281.453 185.758 280.243 185.758C279.013 185.758 278.097 186.605 278.11 187.795ZM278.958 195.848V191.951H280.025V194.945H287.189V195.848H278.958ZM299.664 189.736V190.625H288.59V189.736H299.664ZM289.219 188.15C291.338 187.904 293.382 186.858 293.43 185.471H289.602V184.582H298.68V185.471H294.825C294.872 186.845 296.896 187.904 299.049 188.15L298.653 189.012C296.663 188.759 294.797 187.863 294.127 186.517C293.457 187.863 291.605 188.759 289.602 189.012L289.219 188.15ZM289.93 193.893C289.923 192.498 291.502 191.691 294.127 191.691C296.732 191.691 298.297 192.498 298.311 193.893C298.297 195.301 296.732 196.08 294.127 196.08C291.502 196.08 289.923 195.301 289.93 193.893ZM291.024 193.893C291.01 194.74 292.179 195.226 294.127 195.219C296.055 195.226 297.224 194.74 297.231 193.893C297.224 193.038 296.055 192.553 294.127 192.539C292.179 192.553 291.01 193.038 291.024 193.893ZM311.539 193.646V194.549H300.41V193.646H305.427V190.693H306.507V193.646H311.539ZM300.957 190.256C303.014 189.907 305.4 188.205 305.4 186.264V185.963H301.326V185.061H310.582V185.963H306.507V186.264C306.514 188.205 308.907 189.873 311.006 190.215L310.568 191.062C308.709 190.693 306.747 189.511 305.967 187.829C305.188 189.531 303.233 190.741 301.408 191.117L300.957 190.256ZM322.196 183.953V196.107H321.13V183.953H322.196ZM312.298 192.867C313.337 192.86 314.526 192.854 315.757 192.812V191.486C314.294 191.336 313.351 190.502 313.364 189.285C313.351 187.911 314.519 187.022 316.276 187.029C318.033 187.022 319.223 187.911 319.216 189.285C319.223 190.488 318.279 191.322 316.837 191.486V192.771C318.013 192.717 319.202 192.635 320.323 192.484L320.405 193.305C317.691 193.742 314.718 193.783 312.462 193.783L312.298 192.867ZM312.558 186.332V185.457H315.757V183.967H316.837V185.457H320.009V186.332H312.558ZM314.362 189.285C314.355 190.126 315.148 190.68 316.276 190.666C317.411 190.68 318.197 190.126 318.19 189.285C318.197 188.438 317.411 187.863 316.276 187.863C315.148 187.863 314.355 188.438 314.362 189.285Z" fill="#555555"/>
<path d="M234.988 225.637C237.593 225.637 239.247 226.457 239.254 227.865C239.247 229.26 237.593 230.08 234.988 230.08C232.384 230.08 230.729 229.26 230.736 227.865C230.729 226.457 232.384 225.637 234.988 225.637ZM229.506 224.502V223.627H234.086V221.275H235.139V223.627H240.566V224.502H229.506ZM230.818 219.457V218.582H239.158V219.607C239.151 220.592 239.151 221.576 238.816 222.834L237.764 222.711C238.092 221.46 238.092 220.558 238.092 219.607V219.457H230.818ZM231.803 227.865C231.796 228.713 233.054 229.232 234.988 229.232C236.93 229.232 238.174 228.713 238.188 227.865C238.174 226.997 236.93 226.464 234.988 226.457C233.054 226.464 231.796 226.997 231.803 227.865ZM245.618 219.717C245.605 221.487 246.89 223.066 248.695 223.695L248.148 224.543C246.74 224.023 245.625 222.978 245.078 221.631C244.545 223.073 243.424 224.208 241.995 224.762L241.435 223.914C243.253 223.237 244.525 221.556 244.525 219.717V218.555H245.618V219.717ZM243.171 226.771V225.883H251.347V230.107H250.281V226.771H243.171ZM250.281 225.281V217.953H251.347V225.281H250.281ZM263.167 217.967V226.854H262.1V217.967H263.167ZM253.419 221.795C253.412 220.045 254.786 218.821 256.604 218.814C258.422 218.821 259.783 220.045 259.79 221.795C259.783 223.565 258.422 224.796 256.604 224.789C254.786 224.796 253.412 223.565 253.419 221.795ZM254.471 221.795C254.458 223.005 255.374 223.846 256.604 223.846C257.814 223.846 258.737 223.005 258.737 221.795C258.737 220.605 257.814 219.758 256.604 219.758C255.374 219.758 254.458 220.605 254.471 221.795ZM255.319 229.848V225.951H256.385V228.945H263.549V229.848H255.319ZM276.025 223.736V224.625H264.951V223.736H276.025ZM265.58 222.15C267.699 221.904 269.743 220.858 269.791 219.471H265.963V218.582H275.041V219.471H271.185C271.233 220.845 273.257 221.904 275.41 222.15L275.014 223.012C273.024 222.759 271.158 221.863 270.488 220.517C269.818 221.863 267.966 222.759 265.963 223.012L265.58 222.15ZM266.291 227.893C266.284 226.498 267.863 225.691 270.488 225.691C273.093 225.691 274.658 226.498 274.672 227.893C274.658 229.301 273.093 230.08 270.488 230.08C267.863 230.08 266.284 229.301 266.291 227.893ZM267.385 227.893C267.371 228.74 268.54 229.226 270.488 229.219C272.416 229.226 273.585 228.74 273.592 227.893C273.585 227.038 272.416 226.553 270.488 226.539C268.54 226.553 267.371 227.038 267.385 227.893ZM286.847 217.953V225.076H285.767V221.904H283.306V221.002H285.767V217.953H286.847ZM276.825 224.105C278.616 223.47 279.915 221.843 279.915 220.113V219.635H277.167V218.746H283.716V219.635H280.995V220.113C280.995 221.679 282.212 223.196 283.989 223.832L283.429 224.68C282.062 224.181 281.002 223.162 280.476 221.904C279.949 223.312 278.828 224.427 277.386 224.953L276.825 224.105ZM278.903 229.943V225.678H286.847V229.943H278.903ZM279.97 229.068H285.794V226.539H279.97V229.068ZM301.326 217.953V221.658H303.158V222.561H301.326V226.922H300.259V217.953H301.326ZM292.056 221.809C292.049 220.045 293.43 218.821 295.242 218.814C297.067 218.821 298.427 220.045 298.441 221.809C298.427 223.565 297.067 224.803 295.242 224.803C293.43 224.803 292.049 223.565 292.056 221.809ZM293.109 221.809C293.102 223.005 294.039 223.859 295.242 223.859C296.466 223.859 297.382 223.005 297.388 221.809C297.382 220.605 296.466 219.758 295.242 219.758C294.039 219.758 293.102 220.605 293.109 221.809ZM293.724 229.848V225.992H294.777V228.945H301.886V229.848H293.724ZM314.02 217.953V230.107H312.968V223.818H311.218V229.479H310.206V218.227H311.218V222.902H312.968V217.953H314.02ZM304.259 226.963V219.443H305.325V226.006C306.528 225.999 307.827 225.91 309.304 225.609L309.44 226.566C307.745 226.874 306.351 226.963 305.011 226.963H304.259Z" fill="#555555"/>
<path d="M240.621 261.633V262.549H229.492V261.633H240.621ZM230.477 254.072V253.184H239.555V254.072H237.627V258.324H239.527V259.199H230.504V258.324H232.404V254.072H230.477ZM233.471 258.324H236.574V254.072H233.471V258.324ZM251.347 251.953V264.135H250.281V251.953H251.347ZM241.995 253.977V253.088H247.656V257.408H243.116V260.279C245.133 260.286 246.931 260.19 249.105 259.842L249.214 260.744C246.979 261.093 245.133 261.182 243.034 261.182H242.023V256.533H246.575V253.977H241.995ZM259.461 253.156V261.059H253.842V253.156H259.461ZM254.895 260.184H258.409V254.018H254.895V260.184ZM262.073 264.135V251.953H263.153V264.135H262.073ZM268.301 252.664C269.928 252.657 271.172 253.614 271.404 255.043H273.947V251.953H275.027V258.939H273.947V255.932H271.418C271.213 257.415 269.955 258.386 268.301 258.393C266.469 258.386 265.136 257.23 265.142 255.521C265.136 253.833 266.469 252.657 268.301 252.664ZM266.168 255.521C266.168 256.684 267.056 257.477 268.301 257.49C269.504 257.477 270.406 256.684 270.406 255.521C270.406 254.373 269.504 253.566 268.301 253.566C267.056 253.566 266.168 254.373 266.168 255.521ZM267.084 263.943V259.568H275.027V263.943H267.084ZM268.15 263.068H273.974V260.443H268.15V263.068ZM284.379 254.209C284.386 255.843 285.678 257.333 287.496 257.928L286.95 258.762C285.535 258.283 284.413 257.285 283.86 256C283.327 257.381 282.192 258.475 280.743 258.994L280.182 258.16C282.007 257.518 283.292 255.932 283.299 254.209V253.689H280.455V252.814H287.182V253.689H284.379V254.209ZM281.864 260.84V259.951H290.039V264.107H288.973V260.84H281.864ZM288.973 259.309V251.953H290.039V259.309H288.973ZM295.174 252.691C296.199 252.685 297.067 253.074 297.634 253.717H300.82V251.953H301.9V259.158H300.82V257.422H297.634C297.074 258.064 296.199 258.454 295.174 258.447C293.355 258.454 292.008 257.265 292.015 255.576C292.008 253.874 293.355 252.685 295.174 252.691ZM293.041 255.576C293.041 256.704 293.929 257.538 295.174 257.531C296.377 257.538 297.279 256.704 297.279 255.576C297.279 254.421 296.377 253.614 295.174 253.621C293.929 253.614 293.041 254.421 293.041 255.576ZM293.793 261.756C293.786 260.293 295.344 259.445 297.867 259.445C300.382 259.445 301.941 260.293 301.941 261.756C301.941 263.232 300.382 264.08 297.867 264.08C295.344 264.08 293.786 263.232 293.793 261.756ZM294.845 261.756C294.839 262.672 296.001 263.226 297.867 263.219C299.733 263.226 300.895 262.672 300.888 261.756C300.895 260.833 299.733 260.286 297.867 260.279C296.001 260.286 294.839 260.833 294.845 261.756ZM298.147 254.592C298.257 254.893 298.318 255.221 298.318 255.576C298.318 255.918 298.257 256.239 298.154 256.533H300.82V254.592H298.147ZM314.061 251.953V264.107H313.022V257.668H311.327V263.492H310.302V252.213H311.327V256.779H313.022V251.953H314.061ZM304.095 260.84V253.375H308.743V260.84H304.095ZM305.106 259.979H307.731V254.236H305.106V259.979ZM319.578 254.264C319.585 255.856 320.775 257.278 322.559 257.859L322.053 258.707C320.652 258.242 319.592 257.278 319.066 256.055C318.546 257.449 317.425 258.536 315.969 259.062L315.422 258.201C317.24 257.586 318.512 256.021 318.526 254.264V253.744H315.75V252.855H322.313V253.744H319.578V254.264ZM317.035 261.838C317.042 260.437 318.567 259.623 321.069 259.623C323.564 259.623 325.074 260.437 325.074 261.838C325.074 263.26 323.564 264.08 321.069 264.08C318.567 264.08 317.042 263.26 317.035 261.838ZM318.115 261.838C318.102 262.713 319.237 263.226 321.069 263.219C322.907 263.226 324.029 262.713 324.035 261.838C324.029 260.99 322.907 260.484 321.069 260.484C319.237 260.484 318.102 260.99 318.115 261.838ZM323.899 259.295V251.953H324.965V255.057H326.797V255.959H324.965V259.295H323.899ZM341.645 261.633V262.521H330.516V261.633H335.493V258.652H336.546V261.633H341.645ZM330.954 257.9C333.08 257.538 335.445 255.761 335.452 253.717V252.787H336.573V253.717C336.58 255.747 338.979 257.538 341.098 257.9L340.62 258.789C338.767 258.406 336.812 257.155 336.026 255.405C335.226 257.148 333.292 258.406 331.432 258.789L330.954 257.9ZM352.713 251.953V264.107H351.66V257.75H349.979V263.506H348.953V252.281H349.979V256.861H351.66V251.953H352.713ZM342.35 260.744C345.173 259.165 346.335 256.943 346.52 254.428H342.815V253.539H347.572C347.559 256.629 346.472 259.548 342.979 261.496L342.35 260.744Z" fill="#555555"/>
</g>
<defs>
<filter id="filter0_d_812_1384" x="0" y="0" width="438" height="359" filterUnits="userSpaceOnUse" color-interpolation-filters="sRGB">
<feFlood flood-opacity="0" result="BackgroundImageFix"/>
<feColorMatrix in="SourceAlpha" type="matrix" values="0 0 0 0 0 0 0 0 0 0 0 0 0 0 0 0 0 0 127 0" result="hardAlpha"/>
<feOffset dy="8"/>
<feGaussianBlur stdDeviation="12"/>
<feComposite in2="hardAlpha" operator="out"/>
<feColorMatrix type="matrix" values="0 0 0 0 0 0 0 0 0 0 0 0 0 0 0 0 0 0 0.1 0"/>
<feBlend mode="normal" in2="BackgroundImageFix" result="effect1_dropShadow_812_1384"/>
<feBlend mode="normal" in="SourceGraphic" in2="effect1_dropShadow_812_1384" result="shape"/>
</filter>
</defs>
</svg>
