<svg width="368" height="144" viewBox="0 0 368 144" fill="none" xmlns="http://www.w3.org/2000/svg">
<path d="M0.265625 4.6875H2.90625L5.51562 9.5625H5.625L8.21875 4.6875H10.8594L6.73438 11.9688V16H4.39062V11.9688L0.265625 4.6875ZM13.7738 16.1719C11.2113 16.1641 9.60969 14.4062 9.6175 11.7812C9.60969 9.16406 11.2113 7.40625 13.7738 7.40625C16.3441 7.40625 17.9378 9.16406 17.9456 11.7812C17.9378 14.4062 16.3441 16.1641 13.7738 16.1719ZM11.9613 11.7812C11.9613 13.2656 12.5784 14.3672 13.7894 14.375C14.9691 14.3672 15.5941 13.2656 15.5863 11.7812C15.5941 10.2891 14.9691 9.17188 13.7894 9.17188C12.5784 9.17188 11.9613 10.2891 11.9613 11.7812ZM24.5163 12.3906V7.51562H26.8288V16H24.61V14.4688H24.5163C24.1334 15.4531 23.2194 16.1094 21.9381 16.1094C20.2428 16.1094 19.0788 14.9062 19.0788 12.9219V7.51562H21.3913V12.5156C21.3913 13.5234 21.9694 14.1484 22.8756 14.1562C23.7194 14.1484 24.5163 13.5469 24.5163 12.3906ZM32.7744 7.51562V9.25H31.1806V13.3906C31.1728 14.0703 31.5088 14.2344 31.9775 14.25C32.2119 14.25 32.6181 14.2266 32.8994 14.2031V16.0312C32.6494 16.0703 32.2353 16.1172 31.665 16.1094C29.9931 16.1172 28.8525 15.3672 28.8681 13.7188V9.25H27.6963V7.51562H28.8681V5.48438H31.1806V7.51562H32.7744ZM39.345 12.3906V7.51562H41.6575V16H39.4388V14.4688H39.345C38.9622 15.4531 38.0481 16.1094 36.7669 16.1094C35.0716 16.1094 33.9075 14.9062 33.9075 12.9219V7.51562H36.22V12.5156C36.22 13.5234 36.7981 14.1484 37.7044 14.1562C38.5481 14.1484 39.345 13.5469 39.345 12.3906ZM43.1813 16V4.6875H45.4938V8.9375H45.5563C45.8766 8.25 46.5484 7.40625 47.9781 7.40625C49.8531 7.40625 51.4234 8.85938 51.4313 11.7656C51.4234 14.6016 49.9156 16.1406 47.9781 16.1406C46.5953 16.1406 45.8922 15.3438 45.5563 14.6406H45.4625V16H43.1813ZM45.4469 11.75C45.4391 13.2812 46.1031 14.2891 47.2438 14.2969C48.4234 14.2891 49.0641 13.25 49.0563 11.75C49.0641 10.2734 48.4391 9.25 47.2438 9.25C46.0953 9.25 45.4391 10.2266 45.4469 11.75ZM56.4394 16.1719C53.8378 16.1641 52.2441 14.4844 52.2519 11.7969C52.2441 9.17969 53.8613 7.40625 56.3456 7.40625C58.5722 7.40625 60.33 8.8125 60.33 11.7031V12.3594H54.5331C54.5331 13.6406 55.2909 14.4297 56.4863 14.4375C57.2753 14.4297 57.8378 14.0859 58.0644 13.5781H60.2675C59.9394 15.1484 58.5331 16.1641 56.4394 16.1719ZM54.5331 10.9062H58.1425C58.1347 9.875 57.4238 9.13281 56.3925 9.14062C55.33 9.13281 54.58 9.92969 54.5331 10.9062Z" fill="#295FCC"/>
<path d="M14.0273 42.7969V58.4238H12.6914V42.7969H14.0273ZM0.826172 49.5469C0.834961 46.2246 2.15332 44.124 4.18359 44.1152C6.08203 44.124 7.36523 45.9521 7.54102 48.8965H9.5625V43.1309H10.8809V57.6328H9.5625V50.0391H7.5498C7.41797 53.0801 6.1084 54.9873 4.18359 54.9785C2.15332 54.9873 0.834961 52.8691 0.826172 49.5469ZM2.12695 49.5469C2.10938 52.0781 2.91797 53.6777 4.18359 53.6602C5.45801 53.6777 6.2666 52.0781 6.25781 49.5469C6.2666 47.0068 5.45801 45.416 4.18359 45.416C2.91797 45.416 2.10938 47.0068 2.12695 49.5469ZM28.8021 42.7969V58.459H27.4134V49.1074H22.5443V47.9648H27.4134V42.7969H28.8021ZM16.6908 54.6621V44.5547H18.0795V53.502C20.4701 53.4756 22.5882 53.3525 24.9349 52.8691L25.1107 54.0117C22.6146 54.5303 20.4173 54.6621 17.8861 54.6621H16.6908ZM36.6159 47.5957C36.6247 50.25 38.5495 52.9482 40.8523 53.9414L40.0788 55.0312C38.2507 54.2051 36.6775 52.4033 35.948 50.2412C35.2185 52.5352 33.6364 54.5215 31.8523 55.418L31.0261 54.3281C33.2673 53.2559 35.2185 50.3027 35.2273 47.5957V45.5566H31.5359V44.4141H40.3425V45.5566H36.6159V47.5957ZM42.5222 58.4238V42.7969H43.9109V58.4238H42.5222ZM59.2397 44.4141V45.5566H50.3979V44.4141H54.1948V42.6738H55.5659V44.4141H59.2397ZM51.3295 49.3359C51.312 47.5869 52.7797 46.4355 54.8627 46.418C56.9457 46.4355 58.4223 47.5869 58.4311 49.3359C58.4223 51.0674 56.9457 52.2539 54.8627 52.2715C52.7797 52.2539 51.312 51.0674 51.3295 49.3359ZM52.6127 49.3359C52.6039 50.4258 53.5268 51.1729 54.8627 51.1641C56.1987 51.1729 57.1303 50.4258 57.1479 49.3359C57.1303 48.2461 56.1987 47.499 54.8627 47.4902C53.5268 47.499 52.6039 48.2461 52.6127 49.3359ZM52.8237 54.75V53.625H63.3354V58.4238H61.9467V54.75H52.8237ZM59.2221 50.7422V49.582H61.9467V47.7715H59.2397V46.6641H61.9467V42.7969H63.3354V52.7109H61.9467V50.7422H59.2221ZM78.4793 42.8145V54.2754H77.1082V42.8145H78.4793ZM65.7352 50.9355C68.0994 50.0127 69.7078 47.7275 69.7078 45.2578V43.6934H71.1141V45.2578C71.0965 47.6396 72.7225 49.7754 75.0516 50.6191L74.3309 51.7266C72.5203 51.0322 71.1141 49.626 70.4197 47.8242C69.743 49.7402 68.3191 51.2783 66.491 52.0078L65.7352 50.9355ZM68.3895 58.0898V53.2207H69.7605V56.9297H78.9715V58.0898H68.3895ZM85.8888 43.9395C88.341 43.9482 90.0812 45.4424 90.09 47.6133C90.0812 49.793 88.341 51.2783 85.8888 51.2871C83.4191 51.2783 81.6613 49.793 81.6701 47.6133C81.6613 45.4424 83.4191 43.9482 85.8888 43.9395ZM80.8615 53.8359C83.7443 53.8447 87.7257 53.8184 91.1798 53.3086L91.2853 54.3281C87.7082 54.9961 83.8673 55.0137 81.0548 55.0137L80.8615 53.8359ZM83.0236 47.6133C83.0148 49.0723 84.2189 50.0742 85.8888 50.0742C87.5412 50.0742 88.7453 49.0723 88.7365 47.6133C88.7453 46.1631 87.5412 45.1523 85.8888 45.1523C84.2189 45.1523 83.0148 46.1631 83.0236 47.6133ZM92.2169 58.459V42.7969H93.588V58.459H92.2169ZM104.311 44.0098C106.614 44.0186 108.249 46.1367 108.266 49.459C108.249 52.79 106.614 54.8994 104.311 54.8906C101.991 54.8994 100.365 52.79 100.374 49.459C100.365 46.1367 101.991 44.0186 104.311 44.0098ZM101.675 49.459C101.683 51.999 102.765 53.6689 104.311 53.6602C105.876 53.6689 106.931 51.999 106.931 49.459C106.931 46.9189 105.876 45.249 104.311 45.2402C102.765 45.249 101.683 46.9189 101.675 49.459ZM110.85 58.4238V42.7969H112.222V49.0371H114.841V50.2324H112.222V58.4238H110.85ZM128.209 42.7969V58.459H126.821V42.7969H128.209ZM115.905 49.459C115.913 46.1367 117.566 44.0186 119.895 44.0098C122.215 44.0186 123.894 46.1367 123.885 49.459C123.894 52.79 122.215 54.8994 119.895 54.8906C117.566 54.8994 115.913 52.79 115.905 49.459ZM117.24 49.459C117.24 51.999 118.33 53.6689 119.895 53.6602C121.468 53.6689 122.549 51.999 122.549 49.459C122.549 46.9189 121.468 45.249 119.895 45.2402C118.33 45.249 117.24 46.9189 117.24 49.459ZM142.984 43.5703V44.8711C142.993 46.3213 142.993 47.9121 142.562 50.0566L141.191 49.9336C141.384 49.0195 141.49 48.2021 141.543 47.4639L132.033 47.9121L131.839 46.7344L141.604 46.418C141.622 45.873 141.63 45.3633 141.63 44.8711V44.6953H132.226V43.5703H142.984ZM130.539 52.2363V51.1113H136.339V48.8086H137.728V51.1113H144.759V52.2363H130.539ZM132.349 58.1777V53.5723H133.738V57.0527H143.353V58.1777H132.349ZM148.284 55.8223L146.913 60.6035H145.612L146.579 55.8223H148.284ZM167.498 42.7969V58.4238H166.162V50.2852H163.982V57.6504H162.681V43.1836H163.982V49.1426H166.162V42.7969H167.498ZM154.226 54.2051C156.678 52.8779 158.129 51.2168 158.911 49.3447L154.437 49.8105L154.226 48.5977L159.289 48.2637C159.508 47.4814 159.632 46.6729 159.684 45.8379H155V44.6953H161.064C161.047 48.7295 159.816 52.5879 155.052 55.1895L154.226 54.2051ZM182.22 42.7969V58.459H180.849V42.7969H182.22ZM170.196 45.3984V44.2559H177.474V49.8105H171.638V53.502C174.231 53.5107 176.542 53.3877 179.337 52.9395L179.478 54.0996C176.604 54.5479 174.231 54.6621 171.532 54.6621H170.231V48.6855H176.085V45.3984H170.196ZM188.715 44.0098C190.842 44.0186 192.38 45.8467 192.591 48.7734H196.098V42.7969H197.469V58.459H196.098V49.916H192.609C192.459 52.9834 190.895 54.8994 188.715 54.8906C186.404 54.8994 184.787 52.79 184.795 49.459C184.787 46.1367 186.404 44.0186 188.715 44.0098ZM186.114 49.459C186.122 51.999 187.177 53.6689 188.715 53.6602C190.245 53.6689 191.317 51.999 191.317 49.459C191.317 46.9189 190.245 45.249 188.715 45.2402C187.177 45.249 186.122 46.9189 186.114 49.459ZM206.224 44.2734V57H204.642V44.2734H206.224ZM209.995 51.2695V57H208.483V47.4551H209.942V48.9492H210.065C210.513 47.9736 211.41 47.332 212.86 47.332C214.793 47.332 216.085 48.5098 216.077 50.9355V57H214.565V51.041C214.565 49.5645 213.756 48.6855 212.403 48.6855C211.014 48.6855 209.995 49.6172 209.995 51.2695ZM222.282 57L222.265 55.8398L226.607 51.2695C228.11 49.6699 228.83 48.8086 228.839 47.6309C228.83 46.3213 227.74 45.4775 226.308 45.4688C224.787 45.4775 223.838 46.4355 223.829 47.8594H222.335C222.318 45.6094 224.058 44.0977 226.361 44.0977C228.672 44.0977 230.307 45.6533 230.316 47.6309C230.307 49.0547 229.648 50.1621 227.398 52.4824L224.48 55.4883V55.5938H230.544V57H222.282ZM236.653 57.1758C233.832 57.1758 232.197 54.8027 232.206 50.6367C232.197 46.5059 233.849 44.0977 236.653 44.0977C239.448 44.0977 241.1 46.5059 241.1 50.6367C241.1 54.8027 239.474 57.1758 236.653 57.1758ZM233.735 50.6367C233.744 53.9326 234.807 55.7695 236.653 55.7695C238.49 55.7695 239.562 53.9326 239.553 50.6367C239.562 47.3408 238.481 45.4775 236.653 45.4688C234.825 45.4775 233.744 47.3408 233.735 50.6367ZM242.85 57L242.832 55.8398L247.174 51.2695C248.677 49.6699 249.397 48.8086 249.406 47.6309C249.397 46.3213 248.308 45.4775 246.875 45.4688C245.354 45.4775 244.405 46.4355 244.396 47.8594H242.902C242.885 45.6094 244.625 44.0977 246.928 44.0977C249.239 44.0977 250.874 45.6533 250.883 47.6309C250.874 49.0547 250.215 50.1621 247.965 52.4824L245.047 55.4883V55.5938H251.111V57H242.85ZM257.202 57.1758C254.908 57.1758 253.168 55.7607 253.072 53.8008H254.601C254.715 54.9346 255.823 55.7783 257.202 55.7871C258.855 55.7783 260.05 54.5742 260.05 52.9746C260.05 51.3223 258.811 50.1006 257.097 50.0918C256.025 50.0742 255.19 50.4082 254.724 51.2344H253.195L254.091 44.2734H260.982V45.6797H255.409L254.935 49.4062H255.058C255.629 48.9668 256.482 48.668 257.378 48.668C259.804 48.668 261.588 50.4609 261.597 52.9395C261.588 55.4004 259.742 57.1758 257.202 57.1758ZM280.389 42.7969V58.4238H279.07V50.2324H276.768V57.6152H275.502V43.1484H276.768V49.0898H279.07V42.7969H280.389ZM267.609 54.5566V44.7129H273.463V45.8555H268.98V53.3789C271.134 53.3701 272.619 53.291 274.359 52.9395L274.482 54.0996C272.602 54.4863 271.011 54.5479 268.611 54.5566H267.609ZM294.443 42.8145V47.9648H296.798V49.125H294.443V54.5215H293.072V42.8145H294.443ZM282.261 45.8555V44.7305H286.234V42.8145H287.605V44.7305H291.578V45.8555H282.261ZM283.158 49.6348C283.149 47.8594 284.661 46.7168 286.919 46.7168C289.152 46.7168 290.663 47.8594 290.681 49.6348C290.663 51.3926 289.152 52.5264 286.919 52.5176C284.661 52.5264 283.149 51.3926 283.158 49.6348ZM284.476 49.6348C284.467 50.7334 285.443 51.4453 286.919 51.4277C288.378 51.4453 289.363 50.7334 289.38 49.6348C289.363 48.5186 288.378 47.7979 286.919 47.8066C285.443 47.7979 284.467 48.5186 284.476 49.6348ZM284.669 58.0898V53.5898H286.023V56.9297H295.163V58.0898H284.669ZM305.579 44.168V51.4102H298.249V44.168H305.579ZM299.602 50.3027H304.225V45.3105H299.602V50.3027ZM300.235 57.8965V52.957H301.606V56.7539H310.817V57.8965H300.235ZM308.954 54.0469V42.8145H310.325V54.0469H308.954ZM325.047 43.5703V44.6953C325.047 45.8555 325.047 47.2617 324.66 49.1426H326.928V50.2676H320.424V53.1504H325.152V58.4238H323.764V54.293H314.096V53.1504H319.053V50.2676H312.619V49.1426H323.272C323.685 47.2354 323.685 45.8555 323.676 44.6953H314.43V43.5703H325.047ZM345.368 42.7969V58.4238H344.032V42.7969H345.368ZM332.167 49.5469C332.176 46.2246 333.494 44.124 335.524 44.1152C337.423 44.124 338.706 45.9521 338.882 48.8965H340.903V43.1309H342.221V57.6328H340.903V50.0391H338.89C338.759 53.0801 337.449 54.9873 335.524 54.9785C333.494 54.9873 332.176 52.8691 332.167 49.5469ZM333.468 49.5469C333.45 52.0781 334.259 53.6777 335.524 53.6602C336.799 53.6777 337.607 52.0781 337.598 49.5469C337.607 47.0068 336.799 45.416 335.524 45.416C334.259 45.416 333.45 47.0068 333.468 49.5469ZM360.143 42.7969V58.459H358.754V49.1074H353.885V47.9648H358.754V42.7969H360.143ZM348.031 54.6621V44.5547H349.42V53.502C351.811 53.4756 353.929 53.3525 356.276 52.8691L356.451 54.0117C353.955 54.5303 351.758 54.6621 349.227 54.6621H348.031ZM6.22266 74.5957C6.23145 77.25 8.15625 79.9482 10.459 80.9414L9.68555 82.0312C7.85742 81.2051 6.28418 79.4033 5.55469 77.2412C4.8252 79.5352 3.24316 81.5215 1.45898 82.418L0.632812 81.3281C2.87402 80.2559 4.8252 77.3027 4.83398 74.5957V72.5566H1.14258V71.4141H9.94922V72.5566H6.22266V74.5957ZM12.1289 85.4238V69.7969H13.5176V85.4238H12.1289ZM29.1888 69.7969V85.4238H27.8705V77.2324H25.5677V84.6152H24.3021V70.1484H25.5677V76.0898H27.8705V69.7969H29.1888ZM16.4095 81.5566V71.7129H22.263V72.8555H17.7806V80.3789C19.9339 80.3701 21.4193 80.291 23.1595 79.9395L23.2826 81.0996C21.4017 81.4863 19.8109 81.5479 17.4115 81.5566H16.4095ZM43.9812 69.8145V81.2754H42.5925V75.2812H39.3757V74.1387H42.5925V69.8145H43.9812ZM31.0964 78.1465C33.3991 77.3379 35.0691 75.2725 35.0691 73.0312V72.2227H31.5359V71.0801H39.9558V72.2227H36.4577V73.0312C36.4577 75.0527 38.0222 77.0127 40.3073 77.7949L39.5866 78.9023C37.8288 78.2607 36.4665 76.9512 35.7898 75.334C35.113 77.1445 33.6716 78.5771 31.8171 79.2715L31.0964 78.1465ZM33.9441 85.0898V80.2383H35.3327V83.9297H44.4206V85.0898H33.9441Z" fill="black"/>
<path d="M0.929688 138L0.916016 137.098L4.29297 133.543C5.46191 132.299 6.02246 131.629 6.0293 130.713C6.02246 129.694 5.1748 129.038 4.06055 129.031C2.87793 129.038 2.13965 129.783 2.13281 130.891H0.970703C0.957031 129.141 2.31055 127.965 4.10156 127.965C5.89941 127.965 7.1709 129.175 7.17773 130.713C7.1709 131.82 6.6582 132.682 4.9082 134.486L2.63867 136.824V136.906H7.35547V138H0.929688ZM12.1067 138.137C9.91238 138.137 8.6409 136.291 8.64773 133.051C8.6409 129.838 9.92605 127.965 12.1067 127.965C14.2805 127.965 15.5657 129.838 15.5657 133.051C15.5657 136.291 14.3011 138.137 12.1067 138.137ZM9.83719 133.051C9.84402 135.614 10.6712 137.043 12.1067 137.043C13.5354 137.043 14.3694 135.614 14.3626 133.051C14.3694 130.487 13.5286 129.038 12.1067 129.031C10.6848 129.038 9.84402 130.487 9.83719 133.051ZM16.9263 138L16.9127 137.098L20.2896 133.543C21.4586 132.299 22.0191 131.629 22.0259 130.713C22.0191 129.694 21.1714 129.038 20.0572 129.031C18.8746 129.038 18.1363 129.783 18.1295 130.891H16.9673C16.9537 129.141 18.3072 127.965 20.0982 127.965C21.8961 127.965 23.1675 129.175 23.1744 130.713C23.1675 131.82 22.6548 132.682 20.9048 134.486L18.6353 136.824V136.906H23.3521V138H16.9263ZM28.0897 138.137C26.3055 138.137 24.952 137.036 24.8768 135.512H26.0662C26.1551 136.394 27.0164 137.05 28.0897 137.057C29.3748 137.05 30.3045 136.113 30.3045 134.869C30.3045 133.584 29.3407 132.634 28.0077 132.627C27.1737 132.613 26.5243 132.873 26.162 133.516H24.9725L25.6698 128.102H31.0291V129.195H26.6952L26.326 132.094H26.4217C26.8661 131.752 27.5291 131.52 28.2264 131.52C30.1131 131.52 31.5008 132.914 31.5077 134.842C31.5008 136.756 30.0653 138.137 28.0897 138.137ZM37.2023 132.518V133.598H32.8683V132.518H37.2023ZM42.2133 128.102V138H40.9691V129.387H40.9145L38.5082 130.986V129.742L40.9691 128.102H42.2133ZM47.8122 138.137C45.6179 138.137 44.3464 136.291 44.3532 133.051C44.3464 129.838 45.6315 127.965 47.8122 127.965C49.986 127.965 51.2712 129.838 51.2712 133.051C51.2712 136.291 50.0065 138.137 47.8122 138.137ZM45.5427 133.051C45.5495 135.614 46.3766 137.043 47.8122 137.043C49.2409 137.043 50.0749 135.614 50.068 133.051C50.0749 130.487 49.2341 129.038 47.8122 129.031C46.3903 129.038 45.5495 130.487 45.5427 133.051ZM56.8974 132.518V133.598H52.5634V132.518H56.8974ZM61.9084 128.102V138H60.6643V129.387H60.6096L58.2034 130.986V129.742L60.6643 128.102H61.9084ZM67.4937 138.137C65.7095 138.137 64.356 137.036 64.2808 135.512H65.4702C65.5591 136.394 66.4204 137.05 67.4937 137.057C68.7788 137.05 69.7085 136.113 69.7085 134.869C69.7085 133.584 68.7446 132.634 67.4116 132.627C66.5777 132.613 65.9282 132.873 65.5659 133.516H64.3765L65.0737 128.102H70.4331V129.195H66.0991L65.73 132.094H65.8257C66.27 131.752 66.9331 131.52 67.6304 131.52C69.5171 131.52 70.9048 132.914 70.9116 134.842C70.9048 136.756 69.4693 138.137 67.4937 138.137Z" fill="#999999"/>
</svg>
