<svg width="199" height="26" viewBox="0 0 199 26" fill="none" xmlns="http://www.w3.org/2000/svg">
<path d="M3.66569e-06 10.4164C3.66569e-06 8.76841 0.368004 7.29641 1.104 6.00041C1.856 4.68841 2.872 3.67241 4.152 2.95241C5.448 2.21641 6.896 1.84841 8.496 1.84841C10.368 1.84841 12.008 2.32841 13.416 3.28841C14.824 4.24841 15.808 5.57641 16.368 7.27241H12.504C12.12 6.47241 11.576 5.87241 10.872 5.4724C10.184 5.07241 9.384 4.87241 8.472 4.87241C7.496 4.87241 6.624 5.10441 5.856 5.56841C5.104 6.01641 4.512 6.65641 4.08 7.48841C3.664 8.32041 3.456 9.29641 3.456 10.4164C3.456 11.5204 3.664 12.4964 4.08 13.3444C4.512 14.1764 5.104 14.8244 5.856 15.2884C6.624 15.7364 7.496 15.9604 8.472 15.9604C9.384 15.9604 10.184 15.7604 10.872 15.3604C11.576 14.9444 12.12 14.3364 12.504 13.5364H16.368C15.808 15.2484 14.824 16.5844 13.416 17.5444C12.024 18.4884 10.384 18.9604 8.496 18.9604C6.896 18.9604 5.448 18.6004 4.152 17.8804C2.872 17.1444 1.856 16.1284 1.104 14.8324C0.368004 13.5364 3.66569e-06 12.0644 3.66569e-06 10.4164ZM17.8939 12.1204C17.8939 10.7764 18.1579 9.58441 18.6859 8.54441C19.2299 7.50441 19.9579 6.70441 20.8699 6.14441C21.7979 5.58441 22.8299 5.30441 23.9659 5.30441C24.9579 5.30441 25.8219 5.50441 26.5579 5.90441C27.3099 6.30441 27.9099 6.80841 28.3579 7.41641V5.52041H31.7419V18.8164H28.3579V16.8724C27.9259 17.4964 27.3259 18.0164 26.5579 18.4324C25.8059 18.8324 24.9339 19.0324 23.9419 19.0324C22.8219 19.0324 21.7979 18.7444 20.8699 18.1684C19.9579 17.5924 19.2299 16.7844 18.6859 15.7444C18.1579 14.6884 17.8939 13.4804 17.8939 12.1204ZM28.3579 12.1684C28.3579 11.3524 28.1979 10.6564 27.8779 10.0804C27.5579 9.48841 27.1259 9.04041 26.5819 8.73641C26.0379 8.41641 25.4539 8.25641 24.8299 8.25641C24.2059 8.25641 23.6299 8.40841 23.1019 8.71241C22.5739 9.01641 22.1419 9.46441 21.8059 10.0564C21.4859 10.6324 21.3259 11.3204 21.3259 12.1204C21.3259 12.9204 21.4859 13.6244 21.8059 14.2324C22.1419 14.8244 22.5739 15.2804 23.1019 15.6004C23.6459 15.9204 24.2219 16.0804 24.8299 16.0804C25.4539 16.0804 26.0379 15.9284 26.5819 15.6244C27.1259 15.3044 27.5579 14.8564 27.8779 14.2804C28.1979 13.6884 28.3579 12.9844 28.3579 12.1684ZM37.9035 7.58441C38.3355 6.88041 38.8955 6.32841 39.5835 5.92841C40.2875 5.52841 41.0875 5.32841 41.9835 5.32841V8.85641H41.0955C40.0395 8.85641 39.2395 9.10441 38.6955 9.60041C38.1675 10.0964 37.9035 10.9604 37.9035 12.1924V18.8164H34.5435V5.52041H37.9035V7.58441ZM56.1266 11.8804C56.1266 12.3604 56.0946 12.7924 56.0306 13.1764H46.3106C46.3906 14.1364 46.7266 14.8884 47.3186 15.4324C47.9106 15.9764 48.6386 16.2484 49.5026 16.2484C50.7506 16.2484 51.6386 15.7124 52.1666 14.6404H55.7906C55.4066 15.9204 54.6706 16.9764 53.5826 17.8084C52.4946 18.6244 51.1586 19.0324 49.5746 19.0324C48.2946 19.0324 47.1426 18.7524 46.1186 18.1924C45.1106 17.6164 44.3186 16.8084 43.7426 15.7684C43.1826 14.7284 42.9026 13.5284 42.9026 12.1684C42.9026 10.7924 43.1826 9.58441 43.7426 8.54441C44.3026 7.50441 45.0866 6.70441 46.0946 6.14441C47.1026 5.58441 48.2626 5.30441 49.5746 5.30441C50.8386 5.30441 51.9666 5.57641 52.9586 6.12041C53.9666 6.66441 54.7426 7.44041 55.2866 8.44841C55.8466 9.44041 56.1266 10.5844 56.1266 11.8804ZM52.6466 10.9204C52.6306 10.0564 52.3186 9.36841 51.7106 8.85641C51.1026 8.32841 50.3586 8.06441 49.4786 8.06441C48.6466 8.06441 47.9426 8.32041 47.3666 8.83241C46.8066 9.32841 46.4626 10.0244 46.3346 10.9204H52.6466ZM75.5539 7.24841C75.5539 8.14441 75.3379 8.98441 74.9059 9.76841C74.4899 10.5524 73.8259 11.1844 72.9139 11.6644C72.0179 12.1444 70.8819 12.3844 69.5059 12.3844H66.6979V18.8164H63.3379V2.06441H69.5059C70.8019 2.06441 71.9059 2.28841 72.8179 2.73641C73.7299 3.18441 74.4099 3.80041 74.8579 4.5844C75.3219 5.36841 75.5539 6.25641 75.5539 7.24841ZM69.3619 9.67241C70.2899 9.67241 70.9779 9.46441 71.4259 9.04841C71.8739 8.61641 72.0979 8.01641 72.0979 7.24841C72.0979 5.61641 71.1859 4.80041 69.3619 4.80041H66.6979V9.67241H69.3619ZM76.5954 12.1204C76.5954 10.7764 76.8594 9.58441 77.3874 8.54441C77.9314 7.50441 78.6594 6.70441 79.5714 6.14441C80.4994 5.58441 81.5314 5.30441 82.6674 5.30441C83.6594 5.30441 84.5234 5.50441 85.2594 5.90441C86.0114 6.30441 86.6114 6.80841 87.0594 7.41641V5.52041H90.4434V18.8164H87.0594V16.8724C86.6274 17.4964 86.0274 18.0164 85.2594 18.4324C84.5074 18.8324 83.6354 19.0324 82.6434 19.0324C81.5234 19.0324 80.4994 18.7444 79.5714 18.1684C78.6594 17.5924 77.9314 16.7844 77.3874 15.7444C76.8594 14.6884 76.5954 13.4804 76.5954 12.1204ZM87.0594 12.1684C87.0594 11.3524 86.8994 10.6564 86.5794 10.0804C86.2594 9.48841 85.8274 9.04041 85.2834 8.73641C84.7394 8.41641 84.1554 8.25641 83.5314 8.25641C82.9074 8.25641 82.3314 8.40841 81.8034 8.71241C81.2754 9.01641 80.8434 9.46441 80.5074 10.0564C80.1874 10.6324 80.0274 11.3204 80.0274 12.1204C80.0274 12.9204 80.1874 13.6244 80.5074 14.2324C80.8434 14.8244 81.2754 15.2804 81.8034 15.6004C82.3474 15.9204 82.9234 16.0804 83.5314 16.0804C84.1554 16.0804 84.7394 15.9284 85.2834 15.6244C85.8274 15.3044 86.2594 14.8564 86.5794 14.2804C86.8994 13.6884 87.0594 12.9844 87.0594 12.1684ZM96.6051 7.58441C97.0371 6.88041 97.5971 6.32841 98.2851 5.92841C98.9891 5.52841 99.7891 5.32841 100.685 5.32841V8.85641H99.7971C98.7411 8.85641 97.9411 9.10441 97.3971 9.60041C96.8691 10.0964 96.6051 10.9604 96.6051 12.1924V18.8164H93.2451V5.52041H96.6051V7.58441ZM106.38 8.28041V14.7124C106.38 15.1604 106.484 15.4884 106.692 15.6964C106.916 15.8884 107.284 15.9844 107.796 15.9844H109.356V18.8164H107.244C104.412 18.8164 102.996 17.4404 102.996 14.6884V8.28041H101.412V5.52041H102.996V2.23241H106.38V5.52041H109.356V8.28041H106.38ZM118.661 5.32841C120.245 5.32841 121.525 5.83241 122.501 6.84041C123.477 7.83241 123.965 9.22441 123.965 11.0164V18.8164H120.605V11.4724C120.605 10.4164 120.341 9.60841 119.813 9.04841C119.285 8.47241 118.565 8.18441 117.653 8.18441C116.725 8.18441 115.989 8.47241 115.445 9.04841C114.917 9.60841 114.653 10.4164 114.653 11.4724V18.8164H111.293V5.52041H114.653V7.17641C115.101 6.60041 115.669 6.15241 116.357 5.83241C117.061 5.49641 117.829 5.32841 118.661 5.32841ZM139.04 11.8804C139.04 12.3604 139.008 12.7924 138.944 13.1764H129.224C129.304 14.1364 129.64 14.8884 130.232 15.4324C130.824 15.9764 131.552 16.2484 132.416 16.2484C133.664 16.2484 134.552 15.7124 135.08 14.6404H138.704C138.32 15.9204 137.584 16.9764 136.496 17.8084C135.408 18.6244 134.072 19.0324 132.488 19.0324C131.208 19.0324 130.056 18.7524 129.032 18.1924C128.024 17.6164 127.232 16.8084 126.656 15.7684C126.096 14.7284 125.816 13.5284 125.816 12.1684C125.816 10.7924 126.096 9.58441 126.656 8.54441C127.216 7.50441 128 6.70441 129.008 6.14441C130.016 5.58441 131.176 5.30441 132.488 5.30441C133.752 5.30441 134.88 5.57641 135.872 6.12041C136.88 6.66441 137.656 7.44041 138.2 8.44841C138.76 9.44041 139.04 10.5844 139.04 11.8804ZM135.56 10.9204C135.544 10.0564 135.232 9.36841 134.624 8.85641C134.016 8.32841 133.272 8.06441 132.392 8.06441C131.56 8.06441 130.856 8.32041 130.28 8.83241C129.72 9.32841 129.376 10.0244 129.248 10.9204H135.56ZM144.373 7.58441C144.805 6.88041 145.365 6.32841 146.053 5.92841C146.757 5.52841 147.557 5.32841 148.453 5.32841V8.85641H147.565C146.509 8.85641 145.709 9.10441 145.165 9.60041C144.637 10.0964 144.373 10.9604 144.373 12.1924V18.8164H141.013V5.52041H144.373V7.58441ZM155.324 19.0324C154.236 19.0324 153.26 18.8404 152.396 18.4564C151.532 18.0564 150.844 17.5204 150.332 16.8484C149.836 16.1764 149.564 15.4324 149.516 14.6164H152.9C152.964 15.1284 153.212 15.5524 153.644 15.8884C154.092 16.2244 154.644 16.3924 155.3 16.3924C155.94 16.3924 156.436 16.2644 156.788 16.0084C157.156 15.7524 157.34 15.4244 157.34 15.0244C157.34 14.5924 157.116 14.2724 156.668 14.0644C156.236 13.8404 155.54 13.6004 154.58 13.3444C153.588 13.1044 152.772 12.8564 152.132 12.6004C151.508 12.3444 150.964 11.9524 150.5 11.4244C150.052 10.8964 149.828 10.1844 149.828 9.28841C149.828 8.55241 150.036 7.88041 150.452 7.27241C150.884 6.66441 151.492 6.18441 152.276 5.83241C153.076 5.48041 154.012 5.30441 155.084 5.30441C156.668 5.30441 157.932 5.70441 158.876 6.50441C159.82 7.28841 160.34 8.35241 160.436 9.69641H157.22C157.172 9.16841 156.948 8.75241 156.548 8.44841C156.164 8.12841 155.644 7.96841 154.988 7.96841C154.38 7.96841 153.908 8.08041 153.572 8.30441C153.252 8.52841 153.092 8.84041 153.092 9.24041C153.092 9.68841 153.316 10.0324 153.764 10.2724C154.212 10.4964 154.908 10.7284 155.852 10.9684C156.812 11.2084 157.604 11.4564 158.228 11.7124C158.852 11.9684 159.388 12.3684 159.836 12.9124C160.3 13.4404 160.54 14.1444 160.556 15.0244C160.556 15.7924 160.34 16.4804 159.908 17.0884C159.492 17.6964 158.884 18.1764 158.084 18.5284C157.3 18.8644 156.38 19.0324 155.324 19.0324ZM170.322 5.32841C171.33 5.32841 172.226 5.55241 173.01 6.00041C173.794 6.43241 174.402 7.08041 174.834 7.94441C175.282 8.79241 175.506 9.81641 175.506 11.0164V18.8164H172.146V11.4724C172.146 10.4164 171.882 9.60841 171.354 9.04841C170.826 8.47241 170.106 8.18441 169.194 8.18441C168.266 8.18441 167.53 8.47241 166.986 9.04841C166.458 9.60841 166.194 10.4164 166.194 11.4724V18.8164H162.834V1.05641H166.194V7.17641C166.626 6.60041 167.202 6.15241 167.922 5.83241C168.642 5.49641 169.442 5.32841 170.322 5.32841ZM179.925 3.93641C179.333 3.93641 178.837 3.75241 178.437 3.38441C178.053 3.00041 177.861 2.52841 177.861 1.96841C177.861 1.40841 178.053 0.944405 178.437 0.576405C178.837 0.192405 179.333 0.000405312 179.925 0.000405312C180.517 0.000405312 181.005 0.192405 181.389 0.576405C181.789 0.944405 181.989 1.40841 181.989 1.96841C181.989 2.52841 181.789 3.00041 181.389 3.38441C181.005 3.75241 180.517 3.93641 179.925 3.93641ZM181.581 5.52041V18.8164H178.221V5.52041H181.581ZM187.781 7.44041C188.213 6.83241 188.805 6.32841 189.557 5.92841C190.325 5.51241 191.197 5.30441 192.173 5.30441C193.309 5.30441 194.333 5.58441 195.245 6.14441C196.173 6.70441 196.901 7.50441 197.429 8.54441C197.973 9.56841 198.245 10.7604 198.245 12.1204C198.245 13.4804 197.973 14.6884 197.429 15.7444C196.901 16.7844 196.173 17.5924 195.245 18.1684C194.333 18.7444 193.309 19.0324 192.173 19.0324C191.197 19.0324 190.333 18.8324 189.581 18.4324C188.845 18.0324 188.245 17.5284 187.781 16.9204V25.1524H184.421V5.52041H187.781V7.44041ZM194.813 12.1204C194.813 11.3204 194.645 10.6324 194.309 10.0564C193.989 9.46441 193.557 9.01641 193.013 8.71241C192.485 8.40841 191.909 8.25641 191.285 8.25641C190.677 8.25641 190.101 8.41641 189.557 8.73641C189.029 9.04041 188.597 9.48841 188.261 10.0804C187.941 10.6724 187.781 11.3684 187.781 12.1684C187.781 12.9684 187.941 13.6644 188.261 14.2564C188.597 14.8484 189.029 15.3044 189.557 15.6244C190.101 15.9284 190.677 16.0804 191.285 16.0804C191.909 16.0804 192.485 15.9204 193.013 15.6004C193.557 15.2804 193.989 14.8244 194.309 14.2324C194.645 13.6404 194.813 12.9364 194.813 12.1204Z" fill="#295FCC"/>
</svg>
