<svg width="100" height="40" viewBox="0 0 100 40" fill="none" xmlns="http://www.w3.org/2000/svg">
<rect x="0.5" y="0.5" width="99" height="39" rx="19.5" fill="white" fill-opacity="0.5"/>
<rect x="0.5" y="0.5" width="99" height="39" rx="19.5" stroke="#182A7E"/>
<path d="M37.056 26.112C36.2347 26.112 35.4987 25.9787 34.848 25.712C34.1973 25.4453 33.6747 25.0507 33.28 24.528C32.896 24.0053 32.6933 23.376 32.672 22.64H35.584C35.6267 23.056 35.7707 23.376 36.016 23.6C36.2613 23.8133 36.5813 23.92 36.976 23.92C37.3813 23.92 37.7013 23.8293 37.936 23.648C38.1707 23.456 38.288 23.1947 38.288 22.864C38.288 22.5867 38.192 22.3573 38 22.176C37.8187 21.9947 37.5893 21.8453 37.312 21.728C37.0453 21.6107 36.6613 21.4773 36.16 21.328C35.4347 21.104 34.8427 20.88 34.384 20.656C33.9253 20.432 33.5307 20.1013 33.2 19.664C32.8693 19.2267 32.704 18.656 32.704 17.952C32.704 16.9067 33.0827 16.0907 33.84 15.504C34.5973 14.9067 35.584 14.608 36.8 14.608C38.0373 14.608 39.0347 14.9067 39.792 15.504C40.5493 16.0907 40.9547 16.912 41.008 17.968H38.048C38.0267 17.6053 37.8933 17.3227 37.648 17.12C37.4027 16.9067 37.088 16.8 36.704 16.8C36.3733 16.8 36.1067 16.8907 35.904 17.072C35.7013 17.2427 35.6 17.4933 35.6 17.824C35.6 18.1867 35.7707 18.4693 36.112 18.672C36.4533 18.8747 36.9867 19.0933 37.712 19.328C38.4373 19.5733 39.024 19.808 39.472 20.032C39.9307 20.256 40.3253 20.5813 40.656 21.008C40.9867 21.4347 41.152 21.984 41.152 22.656C41.152 23.296 40.9867 23.8773 40.656 24.4C40.336 24.9227 39.8667 25.3387 39.248 25.648C38.6293 25.9573 37.8987 26.112 37.056 26.112ZM49.3478 26L45.5718 21.04V26H42.8358V14.768H45.5718V19.696L49.3158 14.768H52.5318L48.1798 20.272L52.6918 26H49.3478ZM56.728 14.768V26H53.992V14.768H56.728ZM67.2708 18.384C67.2708 19.0347 67.1214 19.632 66.8228 20.176C66.5241 20.7093 66.0654 21.1413 65.4468 21.472C64.8281 21.8027 64.0601 21.968 63.1428 21.968H61.4468V26H58.7108V14.768H63.1428C64.0388 14.768 64.7961 14.9227 65.4148 15.232C66.0334 15.5413 66.4974 15.968 66.8068 16.512C67.1161 17.056 67.2708 17.68 67.2708 18.384ZM62.9348 19.792C63.4574 19.792 63.8468 19.6693 64.1028 19.424C64.3588 19.1787 64.4868 18.832 64.4868 18.384C64.4868 17.936 64.3588 17.5893 64.1028 17.344C63.8468 17.0987 63.4574 16.976 62.9348 16.976H61.4468V19.792H62.9348Z" fill="#182A7E"/>
</svg>
