<svg width="492" height="156" viewBox="0 0 492 156" fill="none" xmlns="http://www.w3.org/2000/svg">
<path d="M3.95078 78C3.95078 69.76 5.79078 62.4 9.47078 55.92C13.2308 49.36 18.3108 44.28 24.7108 40.68C31.1908 37 38.4308 35.16 46.4308 35.16C55.7908 35.16 63.9908 37.56 71.0308 42.36C78.0708 47.16 82.9908 53.8 85.7908 62.28H66.4708C64.5508 58.28 61.8308 55.28 58.3108 53.28C54.8708 51.28 50.8708 50.28 46.3108 50.28C41.4308 50.28 37.0708 51.44 33.2308 53.76C29.4708 56 26.5108 59.2 24.3508 63.36C22.2708 67.52 21.2308 72.4 21.2308 78C21.2308 83.52 22.2708 88.4 24.3508 92.64C26.5108 96.8 29.4708 100.04 33.2308 102.36C37.0708 104.6 41.4308 105.72 46.3108 105.72C50.8708 105.72 54.8708 104.72 58.3108 102.72C61.8308 100.64 64.5508 97.6 66.4708 93.6H85.7908C82.9908 102.16 78.0708 108.84 71.0308 113.64C64.0708 118.36 55.8708 120.72 46.4308 120.72C38.4308 120.72 31.1908 118.92 24.7108 115.32C18.3108 111.64 13.2308 106.56 9.47078 100.08C5.79078 93.6 3.95078 86.24 3.95078 78ZM149.1 104.04H115.74L110.22 120H92.5802L122.7 36.12H142.26L172.38 120H154.62L149.1 104.04ZM144.54 90.6L132.42 55.56L120.3 90.6H144.54ZM224.439 120L205.959 87.36H198.039V120H181.239V36.24H212.679C219.159 36.24 224.679 37.4 229.239 39.72C233.799 41.96 237.199 45.04 239.439 48.96C241.759 52.8 242.919 57.12 242.919 61.92C242.919 67.44 241.319 72.44 238.119 76.92C234.919 81.32 230.159 84.36 223.839 86.04L243.879 120H224.439ZM198.039 74.76H212.079C216.639 74.76 220.039 73.68 222.279 71.52C224.519 69.28 225.639 66.2 225.639 62.28C225.639 58.44 224.519 55.48 222.279 53.4C220.039 51.24 216.639 50.16 212.079 50.16H198.039V74.76ZM298.914 120L280.434 87.36H272.514V120H255.714V36.24H287.154C293.634 36.24 299.154 37.4 303.714 39.72C308.274 41.96 311.674 45.04 313.914 48.96C316.234 52.8 317.394 57.12 317.394 61.92C317.394 67.44 315.794 72.44 312.594 76.92C309.394 81.32 304.634 84.36 298.314 86.04L318.354 120H298.914ZM272.514 74.76H286.554C291.114 74.76 294.514 73.68 296.754 71.52C298.994 69.28 300.114 66.2 300.114 62.28C300.114 58.44 298.994 55.48 296.754 53.4C294.514 51.24 291.114 50.16 286.554 50.16H272.514V74.76ZM346.989 36.24V120H330.189V36.24H346.989ZM377.987 49.8V70.8H406.187V84.12H377.987V106.32H409.787V120H361.187V36.12H409.787V49.8H377.987ZM465.854 120L447.374 87.36H439.454V120H422.654V36.24H454.094C460.574 36.24 466.094 37.4 470.654 39.72C475.214 41.96 478.614 45.04 480.854 48.96C483.174 52.8 484.334 57.12 484.334 61.92C484.334 67.44 482.734 72.44 479.534 76.92C476.334 81.32 471.574 84.36 465.254 86.04L485.294 120H465.854ZM439.454 74.76H453.494C458.054 74.76 461.454 73.68 463.694 71.52C465.934 69.28 467.054 66.2 467.054 62.28C467.054 58.44 465.934 55.48 463.694 53.4C461.454 51.24 458.054 50.16 453.494 50.16H439.454V74.76Z" fill="white"/>
</svg>
