<svg width="464" height="44" viewBox="0 0 464 44" fill="none" xmlns="http://www.w3.org/2000/svg">
<path d="M11.6094 4.98438V5.96875C11.6094 7.01562 11.6094 8.29688 11.2578 9.95312H13.2812V10.9531H7.48438V13.1406C10.1406 13.25 11.7266 14.1562 11.7344 15.6719C11.7266 17.3203 9.89844 18.2344 6.89062 18.2344C3.84375 18.2344 2.02344 17.3203 2.01562 15.6719C2.02344 14.1562 3.60156 13.2578 6.28125 13.1406V10.9531H0.5625V9.95312H10.0234C10.3984 8.26562 10.3984 7.04688 10.3906 5.98438H2.17188V4.98438H11.6094ZM3.26562 15.6719C3.25 16.6719 4.61719 17.2422 6.89062 17.25C9.11719 17.2422 10.4844 16.6719 10.5 15.6719C10.4844 14.6875 9.11719 14.125 6.89062 14.1094C4.61719 14.125 3.25 14.6875 3.26562 15.6719ZM24.6375 5.125V6.15625C24.6375 7.23438 24.6375 8.5 24.2703 10.2344H26.3094V11.25H13.5906V10.2344H23.0359C23.4266 8.48438 23.4266 7.23438 23.4187 6.15625V6.14062H15.2V5.125H24.6375ZM15.1531 18.0781V13.1719H24.7V18.0781H15.1531ZM16.3719 17.0781H23.4812V14.1406H16.3719V17.0781ZM37.4781 4.39062V8.96875H39.5719V10H37.4781V14.7969H36.2594V4.39062H37.4781ZM26.65 7.09375V6.09375H30.1812V4.39062H31.4V6.09375H34.9312V7.09375H26.65ZM27.4469 10.4531C27.4391 8.875 28.7828 7.85938 30.7906 7.85938C32.775 7.85938 34.1187 8.875 34.1344 10.4531C34.1187 12.0156 32.775 13.0234 30.7906 13.0156C28.7828 13.0234 27.4391 12.0156 27.4469 10.4531ZM28.6187 10.4531C28.6109 11.4297 29.4781 12.0625 30.7906 12.0469C32.0875 12.0625 32.9625 11.4297 32.9781 10.4531C32.9625 9.46094 32.0875 8.82031 30.7906 8.82812C29.4781 8.82031 28.6109 9.46094 28.6187 10.4531ZM28.7906 17.9688V13.9688H29.9937V16.9375H38.1187V17.9688H28.7906ZM54.7219 4.375V18.2656H53.5187V11.0781H51.5187V17.5469H50.3625V4.6875H51.5187V10.0312H53.5187V4.375H54.7219ZM43.5656 14.6719V6.07812H44.7844V13.5781C46.1594 13.5703 47.6437 13.4688 49.3312 13.125L49.4875 14.2188C47.55 14.5703 45.9562 14.6719 44.425 14.6719H43.5656ZM68.5469 11.25V12.2656H55.8906V11.25H59.0312V9.28906C57.9219 8.85938 57.2969 8.15625 57.2969 7.21875C57.2969 5.58594 59.1719 4.64844 62.2188 4.64062C65.2422 4.64844 67.1172 5.58594 67.125 7.21875C67.1172 8.14844 66.5 8.85156 65.4062 9.28906V11.25H68.5469ZM57.4219 15.7812C57.4141 14.1953 59.2031 13.3203 62.2188 13.3281C65.1953 13.3203 66.9844 14.1953 67 15.7812C66.9844 17.3672 65.1953 18.2344 62.2188 18.2344C59.2031 18.2344 57.4141 17.3672 57.4219 15.7812ZM58.5625 7.21875C58.5547 8.23438 59.9453 8.82031 62.2188 8.82812C64.4688 8.82031 65.8672 8.23438 65.875 7.21875C65.8672 6.21875 64.4688 5.60938 62.2188 5.60938C59.9453 5.60938 58.5547 6.21875 58.5625 7.21875ZM58.6719 15.7812C58.6562 16.7266 59.9922 17.2891 62.2188 17.2812C64.4219 17.2891 65.7578 16.7266 65.7656 15.7812C65.7578 14.8359 64.4219 14.2812 62.2188 14.2656C59.9922 14.2812 58.6562 14.8359 58.6719 15.7812ZM60.25 11.25H64.1875V9.61719C63.6016 9.72656 62.9453 9.78125 62.2188 9.78125C61.4922 9.78125 60.8359 9.72656 60.25 9.625V11.25ZM75.2469 4.625C78.3328 4.625 80.1453 5.47656 80.1531 7.01562C80.1453 8.59375 78.3328 9.44531 75.2469 9.45312C72.1453 9.44531 70.325 8.59375 70.325 7.01562C70.325 5.47656 72.1453 4.625 75.2469 4.625ZM68.9187 11.3906V10.3906H81.575V11.3906H68.9187ZM70.45 13.5312V12.5938H79.95V15.7031H71.7V17.1406H80.3719V18.1094H70.4812V14.7969H78.7469V13.5312H70.45ZM71.6062 7.01562C71.5906 7.98438 72.9422 8.51562 75.2469 8.51562C77.5516 8.51562 78.8953 7.98438 78.9031 7.01562C78.8953 6.10156 77.5516 5.55469 75.2469 5.54688C72.9422 5.55469 71.5906 6.10156 71.6062 7.01562ZM96.2875 4.375V9.8125H98.1781V10.8594H96.2875V18.2656H95.0687V4.375H96.2875ZM85.4437 14.9062V5.67188H86.5062V9.26562H88.2562V5.67188H89.3031V14.9062H85.4437ZM86.5062 13.875H88.2562V10.25H86.5062V13.875ZM90.0531 14.9062V5.67188H91.1V9.26562H92.8031V5.67188H93.85V14.9062H90.0531ZM91.1 13.875H92.8031V10.25H91.1V13.875ZM110.909 15.4844V16.5156H98.1906V15.4844H110.909ZM99.7531 6.45312V5.4375H109.3V9.64062H101.003V11.9219H109.628V12.9062H99.7844V8.64062H108.097V6.45312H99.7531ZM123.109 4.375V18.2656H121.938V4.375H123.109ZM111.234 14.375C114.25 12.5859 115.766 10.0781 116 7.17188H111.828V6.15625H117.219C117.219 7.52344 117 8.84375 116.523 10.0781H119.016V4.75H120.188V17.5625H119.016V11.0781H116.07C115.234 12.6953 113.891 14.125 111.953 15.2656L111.234 14.375ZM134.4 6.78125V7.78125H127.431V6.78125H130.322V4.79688H131.541V6.78125H134.4ZM127.931 11.875C127.931 10.0312 129.189 8.72656 130.916 8.71875C132.666 8.72656 133.916 10.0312 133.931 11.875C133.916 13.7422 132.666 15.0547 130.916 15.0625C129.189 15.0547 127.931 13.7422 127.931 11.875ZM129.025 11.875C129.025 13.1094 129.814 13.9922 130.916 13.9844C132.025 13.9922 132.838 13.1094 132.838 11.875C132.838 10.6562 132.025 9.76562 130.916 9.75C129.814 9.76562 129.025 10.6562 129.025 11.875ZM135.119 17.5781V4.71875H136.275V10.2344H138.119V4.375H139.291V18.2656H138.119V11.25H136.275V17.5781H135.119ZM152.006 4.375V11.4844H150.772V10.0312H147.069V9.0625H150.772V7.39062H147.272C146.405 9.57812 144.248 11.0547 141.163 11.7969L140.725 10.7812C144.131 9.99219 146.108 8.33594 146.342 6.09375H141.428V5.07812H147.694C147.694 5.53906 147.647 5.98438 147.561 6.40625H150.772V4.375H152.006ZM143.006 13.1094V12.1094H152.006V15.5H144.256V17.125H152.475V18.1406H143.038V14.5625H150.772V13.1094H143.006ZM164.378 4.32812V7.70312H166.488V8.71875H164.378V12.0156H163.159V4.32812H164.378ZM153.55 6.625V5.64062H157.081V4.23438H158.3V5.64062H161.831V6.625H153.55ZM154.347 9.53125C154.339 8.125 155.667 7.25781 157.691 7.25C159.706 7.25781 161.019 8.125 161.034 9.53125C161.019 10.9453 159.706 11.8047 157.691 11.8125C155.667 11.8047 154.339 10.9453 154.347 9.53125ZM155.519 13.6562V12.7344H164.378V15.8125H156.753V17.1719H164.894V18.1094H155.55V14.9062H163.159V13.6562H155.519ZM155.519 9.53125C155.511 10.3672 156.37 10.8906 157.691 10.8906C159.003 10.8906 159.863 10.3672 159.878 9.53125C159.863 8.70312 159.003 8.16406 157.691 8.15625C156.37 8.16406 155.511 8.70312 155.519 9.53125ZM176.731 5.67188C176.739 7.63281 179.286 9.32031 181.794 9.67188L181.294 10.6719C179.137 10.3125 176.997 9.11719 176.106 7.41406C175.216 9.13281 173.083 10.3125 170.919 10.6719L170.419 9.67188C172.927 9.32031 175.466 7.66406 175.466 5.67188V4.875H176.731V5.67188ZM169.762 13.2344V12.2031H182.419V13.2344H176.669V18.2656H175.466V13.2344H169.762ZM190.709 13.7031C190.702 14.9297 191.366 16.2344 192.686 16.9844C194.014 16.1641 194.717 14.7734 194.709 13.7031V12.9375H195.913V13.7031C195.905 15.1328 196.959 16.5547 198.741 17.1719L198.131 18.0781C196.741 17.5859 195.772 16.6172 195.288 15.4531C194.858 16.5781 194.006 17.6484 192.725 18.1875C191.373 17.6719 190.514 16.6562 190.1 15.4922C189.6 16.6094 188.647 17.5781 187.319 18.0781L186.694 17.1719C188.452 16.5156 189.506 15.0312 189.522 13.7031V12.9375H190.709V13.7031ZM186.334 8.45312C186.327 6.51562 187.866 5.19531 189.975 5.20312C192.084 5.19531 193.608 6.51562 193.616 8.45312C193.608 10.3594 192.084 11.6719 189.975 11.6719C187.866 11.6719 186.327 10.3594 186.334 8.45312ZM187.538 8.45312C187.522 9.74219 188.545 10.6484 189.975 10.6562C191.389 10.6484 192.413 9.74219 192.413 8.45312C192.413 7.15625 191.389 6.23438 189.975 6.25C188.545 6.23438 187.522 7.15625 187.538 8.45312ZM196.256 12.3281V4.39062H197.475V12.3281H196.256ZM210.253 10.8906V11.8906H205.956V15.4844H211.753V16.5156H199.034V15.4844H204.753V11.8906H200.659V5.51562H210.113V6.51562H201.894V10.8906H210.253ZM224.766 12.0312V13.0469H212.047V12.0312H217.797V10.5625H213.703V7.17188H221.891V5.73438H213.656V4.73438H223.125V8.09375H214.922V9.57812H223.422V10.5625H219V12.0312H224.766ZM213.469 15.1094V14.1094H223.203V18.1406H221.969V15.1094H213.469ZM6.89062 27.2812C9.84375 27.2969 11.9688 28.7344 11.9688 30.9219C11.9688 32.9922 10.125 34.3594 7.48438 34.5391V37.4531H13.2812V38.4844H0.5625V37.4531H6.28125V34.5391C3.65625 34.3516 1.8125 32.9844 1.8125 30.9219C1.8125 28.7344 3.94531 27.2969 6.89062 27.2812ZM3 30.9219C2.99219 32.5234 4.64062 33.5625 6.89062 33.5781C9.14062 33.5625 10.7812 32.5234 10.7812 30.9219C10.7812 29.3516 9.14062 28.2891 6.89062 28.2969C4.64062 28.2891 2.99219 29.3516 3 30.9219ZM19.5437 27.375V28.375H15.4187V30.1875H18.9656V31.1719H15.4187V33.125C17.4344 33.125 18.6766 33.0469 20.1687 32.75L20.2937 33.7656C18.6844 34.0703 17.3719 34.125 15.1219 34.125H14.2469V27.375H19.5437ZM15.9656 36.6406V35.625H25.3875V40.2656H24.1844V36.6406H15.9656ZM19.6219 31.0625V30.0312H21.4969V26.6875H22.6844V34.875H21.4969V31.0625H19.6219ZM24.2156 34.9688V26.3906H25.3875V34.9688H24.2156ZM38.5094 26.375V40.2656H37.3219V33.0312H35.3844V39.5781H34.2281V26.7188H35.3844V32.0156H37.3219V26.375H38.5094ZM26.7125 36.5156C28.8922 35.3359 30.1812 33.8594 30.8766 32.1953L26.9 32.6094L26.7125 31.5312L31.2125 31.2344C31.4078 30.5391 31.5172 29.8203 31.5641 29.0781H27.4V28.0625H32.7906C32.775 31.6484 31.6812 35.0781 27.4469 37.3906L26.7125 36.5156ZM51.1156 26.375V40.2969H49.8969V26.375H51.1156ZM40.4281 28.6875V27.6719H46.8969V32.6094H41.7094V35.8906C44.0141 35.8984 46.0687 35.7891 48.5531 35.3906L48.6781 36.4219C46.1234 36.8203 44.0141 36.9219 41.6156 36.9219H40.4594V31.6094H45.6625V28.6875H40.4281ZM56.4094 27.4531C58.3 27.4609 59.6672 29.0859 59.8547 31.6875H62.9719V26.375H64.1906V40.2969H62.9719V32.7031H59.8703C59.7375 35.4297 58.3469 37.1328 56.4094 37.125C54.3547 37.1328 52.9172 35.2578 52.925 32.2969C52.9172 29.3438 54.3547 27.4609 56.4094 27.4531ZM54.0969 32.2969C54.1047 34.5547 55.0422 36.0391 56.4094 36.0312C57.7687 36.0391 58.7219 34.5547 58.7219 32.2969C58.7219 30.0391 57.7687 28.5547 56.4094 28.5469C55.0422 28.5547 54.1047 30.0391 54.0969 32.2969ZM70.25 27.3906C72.4297 27.3984 73.9766 28.7266 73.9844 30.6562C73.9766 32.5938 72.4297 33.9141 70.25 33.9219C68.0547 33.9141 66.4922 32.5938 66.5 30.6562C66.4922 28.7266 68.0547 27.3984 70.25 27.3906ZM65.7812 36.1875C68.3438 36.1953 71.8828 36.1719 74.9531 35.7188L75.0469 36.625C71.8672 37.2188 68.4531 37.2344 65.9531 37.2344L65.7812 36.1875ZM67.7031 30.6562C67.6953 31.9531 68.7656 32.8438 70.25 32.8438C71.7188 32.8438 72.7891 31.9531 72.7812 30.6562C72.7891 29.3672 71.7188 28.4688 70.25 28.4688C68.7656 28.4688 67.6953 29.3672 67.7031 30.6562ZM75.875 40.2969V26.375H77.0938V40.2969H75.875ZM82.6344 39V27.6875H89.4469V28.9375H84.0406V32.7188H88.9313V33.9531H84.0406V39H82.6344ZM89.8187 39H88.35L92.4906 27.6875H93.975L98.1156 39H96.6312L95.4984 35.8125H90.9516L89.8187 39ZM91.3812 34.5781H95.0687L93.2719 29.5156H93.1781L91.3812 34.5781ZM102.409 35.4531H103.941L105.136 37.0156C105.98 36.2734 106.511 35.0312 106.519 33.3438C106.511 30.4219 104.925 28.8438 102.878 28.8438C100.831 28.8438 99.2453 30.4219 99.2375 33.3438C99.2453 36.2578 100.831 37.8359 102.878 37.8438C103.3 37.8438 103.706 37.7734 104.081 37.6406L102.409 35.4531ZM97.8781 33.3438C97.8703 29.7656 99.9719 27.5312 102.878 27.5312C105.777 27.5312 107.886 29.7656 107.878 33.3438C107.886 35.4609 107.152 37.1016 105.948 38.0938L107.425 40.0625H105.894L104.909 38.7422C104.3 39.0156 103.613 39.1562 102.878 39.1562C99.9719 39.1562 97.8703 36.9219 97.8781 33.3438ZM121.156 32.8281V33.7969H108.438V32.8281H121.156ZM109.969 35.8281V34.9062H119.562V37.8594H111.219V39.1875H120.016V40.0781H109.984V37.0156H118.344V35.8281H109.969ZM110.047 27.6875V26.7969H119.516V29.6719H111.312V30.8906H119.766V31.7812H110.094V28.8281H118.281V27.6875H110.047ZM136.572 26.375V40.2656H135.4V26.375H136.572ZM124.525 36.5625C126.463 35.4062 127.595 32.8672 127.588 30.3438V29.0312H124.916V28.0156H131.322V29.0312H128.775V30.3438C128.775 32.7422 129.861 35.1406 131.775 36.25L131.025 37.1562C129.658 36.3359 128.689 34.8359 128.205 33.0703C127.705 34.9844 126.697 36.6172 125.306 37.4844L124.525 36.5625ZM130.259 32.3906V31.3906H132.603V26.7188H133.759V39.5469H132.603V32.3906H130.259ZM144.006 35.1562C146.983 35.1562 148.873 36.0938 148.881 37.7031C148.873 39.2969 146.983 40.2344 144.006 40.2344C141.03 40.2344 139.139 39.2969 139.147 37.7031C139.139 36.0938 141.03 35.1562 144.006 35.1562ZM137.741 33.8594V32.8594H142.975V30.1719H144.178V32.8594H150.381V33.8594H137.741ZM139.241 28.0938V27.0938H148.772V28.2656C148.764 29.3906 148.764 30.5156 148.381 31.9531L147.178 31.8125C147.553 30.3828 147.553 29.3516 147.553 28.2656V28.0938H139.241ZM140.366 37.7031C140.358 38.6719 141.795 39.2656 144.006 39.2656C146.225 39.2656 147.647 38.6719 147.663 37.7031C147.647 36.7109 146.225 36.1016 144.006 36.0938C141.795 36.1016 140.358 36.7109 140.366 37.7031ZM161.613 26.375V29.9375H163.706V30.9844H161.613V34.4531H160.394V26.375H161.613ZM150.784 28.8281V27.8125H154.316V26.25H155.534V27.8125H159.066V28.8281H150.784ZM151.581 31.9062C151.573 30.4219 152.909 29.4766 154.925 29.4688C156.917 29.4766 158.253 30.4219 158.269 31.9062C158.253 33.3906 156.917 34.3516 154.925 34.3438C152.909 34.3516 151.573 33.3906 151.581 31.9062ZM152.753 31.9062C152.745 32.8125 153.613 33.4062 154.925 33.4062C156.222 33.4062 157.097 32.8125 157.113 31.9062C157.097 31.0078 156.222 30.4062 154.925 30.4219C153.613 30.4062 152.745 31.0078 152.753 31.9062ZM152.831 40.0781V35.0625H154.05V36.5469H160.394V35.0625H161.613V40.0781H152.831ZM154.05 39.0938H160.394V37.5156H154.05V39.0938ZM175.234 26.375V40.2656H174.016V26.375H175.234ZM164.688 36.6875V27.75H165.891V35.625C168.016 35.6094 170.203 35.4453 172.531 34.9531L172.703 36C170.234 36.5156 168.039 36.6875 165.812 36.6875H164.688ZM187.559 26.375V31.875H189.887V32.9062H187.559V40.2969H186.341V26.375H187.559ZM177.419 36.8125V27.7344H183.903V28.75H178.637V35.7812C181.153 35.7734 182.927 35.6641 184.997 35.2812L185.153 36.3438C182.973 36.7344 181.153 36.8125 178.512 36.8125H177.419ZM191.306 39.0938C190.759 39.0859 190.291 38.6328 190.306 38.0781C190.291 37.5312 190.759 37.0781 191.306 37.0781C191.861 37.0781 192.314 37.5312 192.306 38.0781C192.314 38.6328 191.861 39.0859 191.306 39.0938Z" fill="black"/>
<path d="M436 26H456M456 26L446.909 17M456 26L446.909 35" stroke="black" stroke-width="2" stroke-linejoin="round"/>
</svg>
