<svg width="284" height="49" viewBox="0 0 284 49" fill="none" xmlns="http://www.w3.org/2000/svg">
<path d="M22.4766 4.42969V26.7969H0V4.42969H22.4766ZM4.21094 23.3516H18.3203V7.92969H4.21094V23.3516ZM5.52344 47.5781V32.2656H9.73438V43.9688H38.1719V47.5781H5.52344ZM31.6641 35.6562V0H35.9297V14.8203H43.2578V18.4297H35.9297V35.6562H31.6641ZM88.4319 20.4531V23.8984H44.0803V20.4531H88.4319ZM49.4397 31.6094V28.2734H82.6897V39.5391H53.8147V44.5703H84.1662V48.0703H49.5491V36.3125H78.4787V31.6094H49.4397ZM49.9866 16.4609V1.69531H82.635V5.14062H54.3069V12.9609H83.1272V16.4609H49.9866ZM103.309 3.77344C109.926 3.80078 114.711 9.48828 115.368 18.5938H126.278V0H130.543V48.7266H126.278V22.1484H115.422C114.957 31.6914 110.09 37.6523 103.309 37.625C96.1177 37.6523 91.0864 31.0898 91.1137 20.7266C91.0864 10.3906 96.1177 3.80078 103.309 3.77344ZM95.2153 20.7266C95.2427 28.6289 98.5239 33.8242 103.309 33.7969C108.067 33.8242 111.403 28.6289 111.403 20.7266C111.403 12.8242 108.067 7.62891 103.309 7.60156C98.5239 7.62891 95.2427 12.8242 95.2153 20.7266ZM174.405 0V11.5938H181.733V15.2031H174.405V26.3047H170.085V0H174.405ZM136.507 23.4062C148.538 20.5352 155.702 14.3828 156.467 6.50781H138.639V3.00781H161.171C161.143 15.1484 152.503 23.4062 138.147 26.9609L136.507 23.4062ZM143.507 47.9609V28.5469H147.827V34.7266H170.139V28.5469H174.405V47.9609H143.507ZM147.827 44.4609H170.139V38.1719H147.827V44.4609ZM222.642 0V48.6172H218.376V0H222.642ZM185.727 36.0938V4.8125H189.938V32.375C197.376 32.3203 205.032 31.7461 213.181 30.0234L213.782 33.6875C205.142 35.4922 197.458 36.0938 189.665 36.0938H185.727ZM266.339 0V19.25H274.488V22.8594H266.339V48.7266H262.073V0H266.339ZM230.847 36.5312V4.75781H253.542V8.3125H235.113V32.9219C243.917 32.8945 250.124 32.5117 257.37 31.1719L257.917 34.8906C250.288 36.2578 243.917 36.5312 234.675 36.5312H230.847ZM280.013 44.5156C278.099 44.4883 276.458 42.9023 276.513 40.9609C276.458 39.0469 278.099 37.4609 280.013 37.4609C281.955 37.4609 283.54 39.0469 283.513 40.9609C283.54 42.9023 281.955 44.4883 280.013 44.5156Z" fill="#182A7E"/>
</svg>
