<svg width="220" height="56" viewBox="0 0 220 56" fill="none" xmlns="http://www.w3.org/2000/svg">
<rect x="0.5" y="0.5" width="219" height="55" rx="27.5" stroke="white"/>
<path d="M36.375 21.2188V35.4375H34.3594V21.2188H36.375ZM24.4688 31.4062C28.1406 29.6719 29.7578 27.4219 30.0781 24.2656H25.2344V22.7031H32.1094C32.1016 27.0156 30.5938 30.6016 25.5156 33L24.4688 31.4062ZM41.4187 21.8281C43.2312 21.8125 44.6766 22.8516 45.0672 24.375H47.45V21.2188H49.4344V28.8594H47.45V25.9688H45.075C44.7078 27.5312 43.2469 28.5938 41.4187 28.5938C39.2312 28.5938 37.6219 27.1719 37.6375 25.1875C37.6219 23.2422 39.2312 21.8125 41.4187 21.8281ZM39.5281 25.1875C39.5203 26.25 40.3016 26.9219 41.4187 26.9219C42.4969 26.9219 43.2703 26.25 43.2781 25.1875C43.2703 24.125 42.4969 23.4766 41.4187 23.4844C40.3016 23.4766 39.5203 24.125 39.5281 25.1875ZM39.95 35.2812V29.4844H41.9187V30.8594H47.45V29.4844H49.4344V35.2812H39.95ZM41.9187 33.6719H47.45V32.3906H41.9187V33.6719ZM63.4937 32.1406V33.7344H50.4781V32.1406H55.9156V28.9219H57.9V32.1406H63.4937ZM50.7906 27.7188C54.0094 27.2188 55.8219 25.0547 55.8375 23.0469V22.0312H57.9625V23.0469C57.9547 25.0781 59.7906 27.2188 63.0406 27.7188L62.1969 29.375C59.6969 28.9219 57.8375 27.5859 56.9 25.8125C55.9703 27.5781 54.1187 28.9297 51.6344 29.375L50.7906 27.7188ZM75.7719 21.2188V35.4375H73.85V28.2031H72.5531V34.8125H70.6937V21.5938H72.5531V26.6094H73.85V21.2188H75.7719ZM63.3344 31.1406C66.2328 29.4375 67.4828 27.3516 67.7484 24.5625H64.0531V22.9688H69.6937C69.6859 26.9375 68.4984 30.1875 64.4906 32.5156L63.3344 31.1406ZM90.6406 21.2188V26.5312H92.7344V28.2031H90.6406V35.4375H88.6406V21.2188H90.6406ZM79.875 32.1406V22.3438H81.8594V25.8125H84.8125V22.3438H86.7969V32.1406H79.875ZM81.8594 30.5312H84.8125V27.3594H81.8594V30.5312ZM105.466 32.2188V33.8594H92.45V32.2188H97.9344V30.0781H93.95V25.2969H101.997V23.7344H93.9344V22.1406H103.966V26.8594H95.95V28.4531H104.294V30.0781H99.9187V32.2188H105.466ZM116.697 21.2188V26.6719H118.713V28.3125H116.697V35.4062H114.697V21.2188H116.697ZM105.322 31.4219C108.689 29.7344 110.502 27.4688 110.877 24.2969H106.134V22.6719H112.9C112.884 26.9219 111.228 30.6016 106.447 32.9531L105.322 31.4219ZM130.459 21.2188V35.4375H128.444V21.2188H130.459ZM118.553 31.4062C122.225 29.6719 123.842 27.4219 124.162 24.2656H119.319V22.7031H126.194C126.186 27.0156 124.678 30.6016 119.6 33L118.553 31.4062Z" fill="white"/>
<path d="M176 28H191M191 28L184.182 21M191 28L184.182 35" stroke="white" stroke-width="1.5" stroke-linejoin="round"/>
</svg>
