<svg width="464" height="44" viewBox="0 0 464 44" fill="none" xmlns="http://www.w3.org/2000/svg">
<path d="M12.4375 4.375V18.2656H11.2656V4.375H12.4375ZM0.390625 14.5625C2.32812 13.4062 3.46094 10.8672 3.45312 8.34375V7.03125H0.78125V6.01562H7.1875V7.03125H4.64062V8.34375C4.64062 10.7422 5.72656 13.1406 7.64062 14.25L6.89062 15.1562C5.52344 14.3359 4.55469 12.8359 4.07031 11.0703C3.57031 12.9844 2.5625 14.6172 1.17188 15.4844L0.390625 14.5625ZM6.125 10.3906V9.39062H8.46875V4.71875H9.625V17.5469H8.46875V10.3906H6.125ZM26.2469 11.0938V12.1094H20.5125V13.75H24.7V18.0781H15.1375V13.75H19.3094V12.1094H13.5906V11.0938H26.2469ZM14.7781 5.84375V4.82812H25.0437V5.84375H22.9031V8.76562H24.9969V9.78125H14.825V8.76562H16.9187V5.84375H14.7781ZM16.3562 17.0781H23.4969V14.7188H16.3562V17.0781ZM18.1375 8.76562H21.6844V5.84375H18.1375V8.76562ZM34.475 6.625C34.475 8.51562 35.9125 10.25 37.9281 10.9375L37.2563 11.9062C35.725 11.3438 34.5141 10.1953 33.9047 8.74219C33.3109 10.3906 32.0688 11.6641 30.4438 12.2969L29.7875 11.3125C31.8656 10.5391 33.2641 8.67969 33.2719 6.53125V5.09375H34.475V6.625ZM31.6313 15.7031C31.6391 14.1172 33.3813 13.1875 36.2406 13.1875C39.0922 13.1875 40.8188 14.1172 40.8188 15.7031C40.8188 17.3203 39.0922 18.2344 36.2406 18.2344C33.3813 18.2344 31.6391 17.3203 31.6313 15.7031ZM32.8656 15.7031C32.85 16.6875 34.1469 17.2578 36.2406 17.2656C38.3422 17.2578 39.6234 16.6875 39.6313 15.7031C39.6234 14.7578 38.3422 14.1719 36.2406 14.1719C34.1469 14.1719 32.85 14.7578 32.8656 15.7031ZM39.475 12.8281V4.375H40.6938V8H42.7875V9.03125H40.6938V12.8281H39.475ZM53.7219 4.375V7.78125H55.8156V8.8125H53.7219V12.2656H52.5031V4.375H53.7219ZM43.5187 11.4375V5.32812H49.675V6.32812H44.7375V10.4219C47.5266 10.4375 49.1125 10.3281 50.9719 9.96875L51.1281 10.9688C49.175 11.3672 47.5187 11.4453 44.5969 11.4375H43.5187ZM44.9562 18.0781V12.9844H53.7219V18.0781H44.9562ZM46.1594 17.0781H52.5031V13.9844H46.1594V17.0781ZM68.5938 12.625V13.625H62.7969V18.2656H61.5938V13.625H55.875V12.625H68.5938ZM57.5 10.9375V4.95312H58.7188V6.875H65.7188V4.95312H66.9531V10.9375H57.5ZM58.7188 9.9375H65.7188V7.875H58.7188V9.9375ZM80.4344 4.375V18.2969H79.2156V10.6406H76.2781V9.625H79.2156V4.375H80.4344ZM69.5594 14.9375V5.65625H76.0437V6.67188H70.7937V9.5625H75.4344V10.5625H70.7937V13.9219C73.3406 13.9141 74.9812 13.8438 76.8875 13.5L77.0281 14.5156C75.0047 14.8438 73.3094 14.9375 70.6219 14.9375H69.5594ZM97.8656 11.4375V12.4531H92.225V15.2969H90.9906V12.4531H85.1469V11.4375H97.8656ZM86.5844 7.53125C86.5766 5.80469 88.5219 4.74219 91.4906 4.73438C94.4594 4.74219 96.3812 5.80469 96.3812 7.53125C96.3812 9.24219 94.4594 10.3047 91.4906 10.2969C88.5219 10.3047 86.5766 9.24219 86.5844 7.53125ZM86.7875 17.9688V13.9062H88.0219V16.9219H96.4437V17.9688H86.7875ZM87.8969 7.53125C87.8812 8.60938 89.3266 9.29688 91.4906 9.29688C93.6469 9.29688 95.0844 8.60938 95.0844 7.53125C95.0844 6.42188 93.6469 5.74219 91.4906 5.73438C89.3266 5.74219 87.8812 6.42188 87.8969 7.53125ZM102.019 5.21875C103.191 5.21094 104.183 5.65625 104.831 6.39062H108.472V4.375H109.706V12.6094H108.472V10.625H104.831C104.191 11.3594 103.191 11.8047 102.019 11.7969C99.9406 11.8047 98.4016 10.4453 98.4094 8.51562C98.4016 6.57031 99.9406 5.21094 102.019 5.21875ZM99.5813 8.51562C99.5813 9.80469 100.597 10.7578 102.019 10.75C103.394 10.7578 104.425 9.80469 104.425 8.51562C104.425 7.19531 103.394 6.27344 102.019 6.28125C100.597 6.27344 99.5813 7.19531 99.5813 8.51562ZM100.441 15.5781C100.433 13.9062 102.214 12.9375 105.097 12.9375C107.972 12.9375 109.753 13.9062 109.753 15.5781C109.753 17.2656 107.972 18.2344 105.097 18.2344C102.214 18.2344 100.433 17.2656 100.441 15.5781ZM101.644 15.5781C101.636 16.625 102.964 17.2578 105.097 17.25C107.23 17.2578 108.558 16.625 108.55 15.5781C108.558 14.5234 107.23 13.8984 105.097 13.8906C102.964 13.8984 101.636 14.5234 101.644 15.5781ZM105.417 7.39062C105.542 7.73438 105.613 8.10938 105.613 8.51562C105.613 8.90625 105.542 9.27344 105.425 9.60938H108.472V7.39062H105.417ZM122.219 4.375V10.1094H124.328V11.1406H122.219V18.2656H120.984V4.375H122.219ZM111.172 14.4219C113.266 12.2734 114.117 9.6875 114.273 6.92188H111.609V5.89062H115.438C115.422 9.19531 114.68 12.4609 112.156 15.125L111.172 14.4219ZM115.156 15.3594C117.328 12.9062 117.977 9.82031 118.094 6.92188H115.875V5.89062H119.25C119.242 9.1875 118.758 13.0234 116.156 16.0469L115.156 15.3594ZM129.216 8.64062C129.223 11 130.934 13.3984 132.981 14.2812L132.294 15.25C130.669 14.5156 129.27 12.9141 128.622 10.9922C127.973 13.0312 126.567 14.7969 124.981 15.5938L124.247 14.625C126.239 13.6719 127.973 11.0469 127.981 8.64062V6.82812H124.7V5.8125H132.528V6.82812H129.216V8.64062ZM134.466 18.2656V4.375H135.7V18.2656H134.466ZM7.57812 27.3281V33.2656H1.15625V27.3281H7.57812ZM1.96875 39.2656C4.26562 38.9062 6.30469 37.6406 6.44531 36.125H2.51562V35.125H11.6719V36.125H7.72656C7.85938 37.6094 9.9375 38.9062 12.2031 39.2656L11.75 40.2188C9.71875 39.8828 7.88281 38.875 7.07812 37.4844C6.29688 38.8828 4.46094 39.875 2.4375 40.2031L1.96875 39.2656ZM2.35938 32.2656H6.39062V28.3281H2.35938V32.2656ZM10.2031 34.3125V26.375H11.4219V29.7188H13.5156V30.75H11.4219V34.3125H10.2031ZM26.2469 33.25V34.25H20.5125V35.7812H24.7V40.0781H15.1375V35.7812H19.3094V34.25H13.5906V33.25H26.2469ZM14.325 31.5C16.9422 31.2656 19.1453 30.2188 19.2469 28.6719H14.9031V27.6875H19.3094V26.2969H20.5125V27.6875H24.9656V28.6719H20.5906C20.6766 30.2188 22.8953 31.2656 25.4969 31.5L25.1375 32.4219C22.825 32.1875 20.7625 31.3828 19.9187 30C19.0672 31.3828 17.0047 32.1875 14.7 32.4219L14.325 31.5ZM16.3562 39.0781H23.4969V36.7656H16.3562V39.0781ZM36.7563 30.625V32.4531H42.4906V33.4531H29.8344V32.4531H35.5531V30.625H36.7563ZM30.5375 30.4219C33.0766 30.1406 35.5375 28.8125 35.5375 27.0156V26.4844H36.7719V27.0156C36.7719 28.8125 39.2406 30.1406 41.7719 30.4219L41.3344 31.3594C39.1469 31.0625 37.0297 30.1172 36.1547 28.5938C35.2797 30.1172 33.1547 31.0625 30.975 31.3594L30.5375 30.4219ZM31.3656 35.5625V34.6094H40.8656V37.7656H32.6156V39.1406H41.2875V40.1094H31.3969V36.8438H39.6625V35.5625H31.3656ZM54.0187 26.9375V30.5469H45.6437V32.3438H54.3156V33.3594H44.4094V29.5781H52.7687V27.9375H44.3781V26.9375H54.0187ZM42.8469 35.8125V34.8281H55.5656V35.8125H49.7844V40.2969H48.5656V35.8125H42.8469ZM60.6406 28.9531C60.6406 30.9922 62.0391 32.9141 64.0469 33.7031L63.3594 34.6562C61.8359 34.0234 60.6406 32.7578 60.0547 31.1797C59.4609 32.8828 58.2109 34.2344 56.5938 34.9062L55.9219 33.9219C57.9922 33.125 59.4297 31.1328 59.4375 28.9531V27.1719H60.6406V28.9531ZM58.4219 39.9688V35.6875H59.6562V38.9375H67.7188V39.9688H58.4219ZM63.3125 32.3125V31.3125H66.1719V29.4688H63.3125V28.4531H66.1719V26.3906H67.4062V36.7656H66.1719V32.3125H63.3125ZM75.2469 26.625C78.3328 26.625 80.1453 27.4766 80.1531 29.0156C80.1453 30.5938 78.3328 31.4453 75.2469 31.4531C72.1453 31.4453 70.325 30.5938 70.325 29.0156C70.325 27.4766 72.1453 26.625 75.2469 26.625ZM68.9187 33.3906V32.3906H81.575V33.3906H68.9187ZM70.45 35.5312V34.5938H79.95V37.7031H71.7V39.1406H80.3719V40.1094H70.4812V36.7969H78.7469V35.5312H70.45ZM71.6062 29.0156C71.5906 29.9844 72.9422 30.5156 75.2469 30.5156C77.5516 30.5156 78.8953 29.9844 78.9031 29.0156C78.8953 28.1016 77.5516 27.5547 75.2469 27.5469C72.9422 27.5547 71.5906 28.1016 71.6062 29.0156ZM96.0219 26.375V30.6094H98.1156V31.6406H96.0219V36.5469H94.7875V26.375H96.0219ZM85.1781 33.9531C88.5141 32.9141 90.6781 30.9375 90.9359 28.4844H85.7562V27.4531H92.2719C92.2719 31.0312 89.7172 33.6875 85.7094 34.9375L85.1781 33.9531ZM87.3187 39.9688V35.5156H88.5375V38.9375H96.6625V39.9688H87.3187ZM109.706 26.375V36.7188H108.472V32.6875H106.097V31.6562H108.472V30.0469H106.097V29.0312H108.472V26.375H109.706ZM98.2219 33.5625C98.7766 33.5625 99.3781 33.5547 100.019 33.5469V28.5156H98.6125V27.5156H105.988V28.5156H104.566V33.3828C105.206 33.3438 105.839 33.2891 106.441 33.2188L106.503 34.1406C103.808 34.5547 100.636 34.6016 98.3781 34.6094L98.2219 33.5625ZM100.753 39.9688V35.8594H101.988V38.9375H110.081V39.9688H100.753ZM101.206 33.5234C101.917 33.5078 102.652 33.4844 103.378 33.4531V28.5156H101.206V33.5234ZM121.969 26.375V32.1094H124.297V33.125H121.969V40.2656H120.75V26.375H121.969ZM111.141 29.625V28.6094H114.719V26.5469H115.938V28.6094H119.406V29.625H111.141ZM111.938 33.9688C111.93 32.0938 113.367 30.7812 115.344 30.7812C117.305 30.7812 118.734 32.0938 118.75 33.9688C118.734 35.8516 117.305 37.1562 115.344 37.1562C113.367 37.1562 111.93 35.8516 111.938 33.9688ZM113.109 33.9688C113.102 35.2344 114.047 36.125 115.344 36.1094C116.625 36.125 117.562 35.2344 117.578 33.9688C117.562 32.7109 116.625 31.8047 115.344 31.8125C114.047 31.8047 113.102 32.7109 113.109 33.9688ZM136.137 26.375V40.2656H134.966V26.375H136.137ZM124.262 36.375C127.278 34.5859 128.794 32.0781 129.028 29.1719H124.856V28.1562H130.247C130.247 29.5234 130.028 30.8438 129.552 32.0781H132.044V26.75H133.216V39.5625H132.044V33.0781H129.098C128.262 34.6953 126.919 36.125 124.981 37.2656L124.262 36.375ZM151.991 26.375V33.9219H150.772V30.7812H147.959V29.75H150.772V26.375H151.991ZM140.553 33.1875C142.6 32.4453 144.084 30.6094 144.084 28.6406V28.2344H140.944V27.2188H148.428V28.2344H145.319V28.6406C145.319 30.4219 146.709 32.1719 148.741 32.875L148.1 33.8281C146.538 33.2578 145.327 32.0938 144.725 30.6719C144.131 32.2656 142.842 33.5547 141.194 34.1562L140.553 33.1875ZM143.053 40.0781V34.5938H144.288V36.3281H150.772V34.5938H151.991V40.0781H143.053ZM144.288 39.0781H150.772V37.3125H144.288V39.0781ZM160.488 27.6719C160.495 29.6328 163.042 31.3203 165.55 31.6719L165.05 32.6719C162.894 32.3125 160.753 31.1172 159.863 29.4141C158.972 31.1328 156.839 32.3125 154.675 32.6719L154.175 31.6719C156.683 31.3203 159.222 29.6641 159.222 27.6719V26.875H160.488V27.6719ZM153.519 35.2344V34.2031H166.175V35.2344H160.425V40.2656H159.222V35.2344H153.519ZM177.297 26.375V32.1094H179.625V33.125H177.297V40.2656H176.078V26.375H177.297ZM166.469 29.625V28.6094H170.047V26.5469H171.266V28.6094H174.734V29.625H166.469ZM167.266 33.9688C167.258 32.0938 168.695 30.7812 170.672 30.7812C172.633 30.7812 174.062 32.0938 174.078 33.9688C174.062 35.8516 172.633 37.1562 170.672 37.1562C168.695 37.1562 167.258 35.8516 167.266 33.9688ZM168.438 33.9688C168.43 35.2344 169.375 36.125 170.672 36.1094C171.953 36.125 172.891 35.2344 172.906 33.9688C172.891 32.7109 171.953 31.8047 170.672 31.8125C169.375 31.8047 168.43 32.7109 168.438 33.9688ZM183.7 30.3281C183.7 32.5391 184.778 34.9219 186.622 36.0156L185.919 36.9688C184.575 36.1562 183.614 34.6719 183.13 32.9766C182.622 34.8281 181.591 36.4219 180.2 37.2656L179.419 36.3438C181.341 35.2188 182.512 32.7578 182.512 30.375V27.6875H183.7V30.3281ZM185.091 32.4062V31.3594H187.45V26.6719H188.606V39.5625H187.45V32.4062H185.091ZM190.294 40.2656V26.375H191.481V40.2656H190.294ZM205.322 37.4531V38.4844H192.603V37.4531H195.759V33.7109C194.572 33.0938 193.853 32.0938 193.853 30.8281C193.853 28.6797 195.962 27.2656 198.931 27.25C201.9 27.2656 204.009 28.6797 204.009 30.8281C204.009 32.0703 203.314 33.0547 202.166 33.6719V37.4531H205.322ZM195.041 30.8281C195.033 32.3828 196.65 33.4219 198.931 33.4219C201.189 33.4219 202.822 32.3828 202.822 30.8281C202.822 29.2734 201.189 28.25 198.931 28.2656C196.65 28.25 195.033 29.2734 195.041 30.8281ZM196.962 37.4531H200.931V34.1484C200.33 34.3047 199.658 34.3906 198.931 34.3906C198.22 34.3906 197.556 34.3125 196.962 34.1562V37.4531ZM207.1 39.0938C206.553 39.0859 206.084 38.6328 206.1 38.0781C206.084 37.5312 206.553 37.0781 207.1 37.0781C207.655 37.0781 208.108 37.5312 208.1 38.0781C208.108 38.6328 207.655 39.0859 207.1 39.0938Z" fill="black"/>
<path d="M436 26H456M456 26L446.909 17M456 26L446.909 35" stroke="black" stroke-width="2" stroke-linejoin="round"/>
</svg>
