<svg width="197" height="56" viewBox="0 0 197 56" fill="none" xmlns="http://www.w3.org/2000/svg">
<rect x="0.5" y="0.5" width="196" height="55" rx="27.5" stroke="white"/>
<path d="M24.9531 34V22.6875H32.5469V24.625H27.2969V27.375H32.1562V29.3125H27.2969V32.0625H32.5625V34H24.9531ZM39.7156 25.9219C39.6219 25.0234 38.9109 24.5 37.7625 24.5C36.575 24.5 35.9109 25.0469 35.9031 25.7969C35.8953 26.6172 36.7391 26.9844 37.7156 27.2031L38.7312 27.4531C40.6687 27.8984 42.1141 28.8828 42.1219 30.7656C42.1141 32.8359 40.5047 34.1641 37.7469 34.1562C35.0125 34.1641 33.2703 32.8984 33.2 30.4688H35.4812C35.5594 31.6094 36.4656 32.1875 37.7156 32.1875C38.95 32.1875 39.7469 31.6094 39.7469 30.7656C39.7469 29.9922 39.0437 29.6328 37.8094 29.3281L36.575 29.0312C34.6687 28.5625 33.4969 27.6094 33.4969 25.9531C33.4891 23.8984 35.3016 22.5312 37.7781 22.5312C40.2859 22.5312 41.9344 23.9219 41.9656 25.9219H39.7156ZM50.3687 26.3281C50.0484 25.2656 49.1969 24.6172 47.9625 24.6094C46.2125 24.6172 45.025 25.9531 45.025 28.3281C45.025 30.7188 46.1734 32.0703 47.9781 32.0781C49.5953 32.0703 50.5562 31.1562 50.5875 29.7344H48.1344V27.9688H52.8531V29.375C52.8531 32.3438 50.8141 34.1562 47.9625 34.1562C44.7906 34.1562 42.6344 31.9375 42.6344 28.3594C42.6344 24.6875 44.9312 22.5312 47.9156 22.5312C50.4703 22.5312 52.4312 24.1016 52.7437 26.3281H50.3687ZM67.3469 21.2188V26.5312H69.4406V28.2031H67.3469V35.4375H65.3469V21.2188H67.3469ZM56.5812 32.1406V22.3438H58.5656V25.8125H61.5187V22.3438H63.5031V32.1406H56.5812ZM58.5656 30.5312H61.5187V27.3594H58.5656V30.5312ZM82.1719 32.2188V33.8594H69.1562V32.2188H74.6406V30.0781H70.6562V25.2969H78.7031V23.7344H70.6406V22.1406H80.6719V26.8594H72.6562V28.4531H81V30.0781H76.625V32.2188H82.1719ZM93.4031 21.2188V26.6719H95.4188V28.3125H93.4031V35.4062H91.4031V21.2188H93.4031ZM82.0281 31.4219C85.3953 29.7344 87.2078 27.4688 87.5828 24.2969H82.8406V22.6719H89.6063C89.5906 26.9219 87.9344 30.6016 83.1531 32.9531L82.0281 31.4219ZM107.166 21.2188V35.4375H105.15V21.2188H107.166ZM95.2594 31.4062C98.9313 29.6719 100.548 27.4219 100.869 24.2656H96.025V22.7031H102.9C102.892 27.0156 101.384 30.6016 96.3063 33L95.2594 31.4062Z" fill="white"/>
<path d="M153 28H168M168 28L161.182 21M168 28L161.182 35" stroke="white" stroke-width="1.5" stroke-linejoin="round"/>
</svg>
