<svg width="368" height="144" viewBox="0 0 368 144" fill="none" xmlns="http://www.w3.org/2000/svg">
<path d="M10.3906 4.6875V16H8.35938L3.39062 8.8125H3.29688V16H0.953125V4.6875H3.01562L7.95312 11.875H8.0625V4.6875H10.3906ZM15.7738 16.1719C13.1722 16.1641 11.5784 14.4844 11.5863 11.7969C11.5784 9.17969 13.1956 7.40625 15.68 7.40625C17.9066 7.40625 19.6644 8.8125 19.6644 11.7031V12.3594H13.8675C13.8675 13.6406 14.6253 14.4297 15.8206 14.4375C16.6097 14.4297 17.1722 14.0859 17.3988 13.5781H19.6019C19.2738 15.1484 17.8675 16.1641 15.7738 16.1719ZM13.8675 10.9062H17.4769C17.4691 9.875 16.7581 9.13281 15.7269 9.14062C14.6644 9.13281 13.9144 9.92969 13.8675 10.9062ZM22.4069 16L20.0944 7.51562H22.4381L23.7663 13.25H23.8444L25.235 7.51562H27.5319L28.9381 13.2188H29.0163L30.3288 7.51562H32.6725L30.3444 16H27.9069L26.4381 10.6094H26.3288L24.86 16H22.4069ZM38.3681 10.0312C38.2666 9.4375 37.7509 9.05469 36.9775 9.04688C36.2275 9.05469 35.6572 9.40625 35.665 9.92188C35.6572 10.3047 35.9541 10.6016 36.7588 10.7656L38.2744 11.0781C39.9228 11.4219 40.7197 12.1562 40.7275 13.375C40.7197 15.0469 39.2197 16.1641 36.9619 16.1719C34.6728 16.1641 33.3291 15.1406 33.1338 13.4844H35.4619C35.5713 14.1484 36.1103 14.4922 36.9619 14.5C37.8056 14.4922 38.3681 14.1562 38.3681 13.6094C38.3681 13.1719 38.0088 12.8984 37.2119 12.7344L35.8056 12.4531C34.1884 12.1328 33.3603 11.3047 33.3681 10.0469C33.3603 8.42188 34.7588 7.40625 36.9463 7.40625C39.0869 7.40625 40.415 8.42188 40.54 10.0312H38.3681Z" fill="#295FCC"/>
<path d="M7.75195 43.8164C11.0742 43.834 13.4648 45.4512 13.4648 47.9121C13.4648 50.2412 11.3906 51.7793 8.41992 51.9814V55.2598H14.9414V56.4199H0.632812V55.2598H7.06641V51.9814C4.11328 51.7705 2.03906 50.2324 2.03906 47.9121C2.03906 45.4512 4.43848 43.834 7.75195 43.8164ZM3.375 47.9121C3.36621 49.7139 5.2207 50.8828 7.75195 50.9004C10.2832 50.8828 12.1289 49.7139 12.1289 47.9121C12.1289 46.1455 10.2832 44.9502 7.75195 44.959C5.2207 44.9502 3.36621 46.1455 3.375 47.9121ZM22.5267 43.9219V45.0469H17.8861V47.0859H21.8763V48.1934H17.8861V50.3906C20.1537 50.3906 21.5511 50.3027 23.2298 49.9688L23.3705 51.1113C21.5599 51.4541 20.0834 51.5156 17.5521 51.5156H16.5677V43.9219H22.5267ZM18.5013 54.3457V53.2031H29.1009V58.4238H27.7474V54.3457H18.5013ZM22.6146 48.0703V46.9102H24.724V43.1484H26.0599V52.3594H24.724V48.0703H22.6146ZM27.7826 52.4648V42.8145H29.1009V52.4648H27.7826ZM44.403 42.7969V58.4238H43.0671V50.2852H40.8874V57.6504H39.5866V43.1836H40.8874V49.1426H43.0671V42.7969H44.403ZM31.1316 54.2051C33.5837 52.8779 35.0339 51.2168 35.8161 49.3447L31.3425 49.8105L31.1316 48.5977L36.1941 48.2637C36.4138 47.4814 36.5368 46.6729 36.5896 45.8379H31.905V44.6953H37.9695C37.9519 48.7295 36.7214 52.5879 31.9577 55.1895L31.1316 54.2051ZM59.1251 42.7969V58.459H57.754V42.7969H59.1251ZM47.1016 45.3984V44.2559H54.379V49.8105H48.543V53.502C51.1358 53.5107 53.4473 53.3877 56.2423 52.9395L56.3829 54.0996C53.5089 54.5479 51.1358 54.6621 48.4376 54.6621H47.1368V48.6855H52.9903V45.3984H47.1016ZM65.6205 44.0098C67.7475 44.0186 69.2856 45.8467 69.4965 48.7734H73.0034V42.7969H74.3745V58.459H73.0034V49.916H69.5141C69.3647 52.9834 67.8002 54.8994 65.6205 54.8906C63.309 54.8994 61.6918 52.79 61.7006 49.459C61.6918 46.1367 63.309 44.0186 65.6205 44.0098ZM63.019 49.459C63.0278 51.999 64.0825 53.6689 65.6205 53.6602C67.1498 53.6689 68.2221 51.999 68.2221 49.459C68.2221 46.9189 67.1498 45.249 65.6205 45.2402C64.0825 45.249 63.0278 46.9189 63.019 49.459ZM79.1824 55.8223L77.8113 60.6035H76.5105L77.4773 55.8223H79.1824ZM98.4136 42.7969V58.4238H97.0777V42.7969H98.4136ZM85.2124 49.5469C85.2212 46.2246 86.5396 44.124 88.5698 44.1152C90.4683 44.124 91.7515 45.9521 91.9273 48.8965H93.9488V43.1309H95.2671V57.6328H93.9488V50.0391H91.9361C91.8042 53.0801 90.4947 54.9873 88.5698 54.9785C86.5396 54.9873 85.2212 52.8691 85.2124 49.5469ZM86.5132 49.5469C86.4956 52.0781 87.3042 53.6777 88.5698 53.6602C89.8443 53.6777 90.6529 52.0781 90.6441 49.5469C90.6529 47.0068 89.8443 45.416 88.5698 45.416C87.3042 45.416 86.4956 47.0068 86.5132 49.5469ZM113.188 42.7969V58.459H111.8V49.1074H106.931V47.9648H111.8V42.7969H113.188ZM101.077 54.6621V44.5547H102.466V53.502C104.856 53.4756 106.974 53.3525 109.321 52.8691L109.497 54.0117C107.001 54.5303 104.804 54.6621 102.272 54.6621H101.077ZM121.002 47.5957C121.011 50.25 122.936 52.9482 125.239 53.9414L124.465 55.0312C122.637 54.2051 121.064 52.4033 120.334 50.2412C119.605 52.5352 118.023 54.5215 116.239 55.418L115.412 54.3281C117.654 53.2559 119.605 50.3027 119.614 47.5957V45.5566H115.922V44.4141H124.729V45.5566H121.002V47.5957ZM126.908 58.4238V42.7969H128.297V58.4238H126.908ZM147.722 42.8145V54.2754H146.333V48.2812H143.116V47.1387H146.333V42.8145H147.722ZM134.837 51.1465C137.14 50.3379 138.81 48.2725 138.81 46.0312V45.2227H135.276V44.0801H143.696V45.2227H140.198V46.0312C140.198 48.0527 141.763 50.0127 144.048 50.7949L143.327 51.9023C141.569 51.2607 140.207 49.9512 139.53 48.334C138.853 50.1445 137.412 51.5771 135.558 52.2715L134.837 51.1465ZM137.685 58.0898V53.2383H139.073V56.9297H148.161V58.0898H137.685ZM162.162 42.7969V48.2812H164.5V49.4414H162.162V55.0312H160.774V42.7969H162.162ZM149.893 52.0957C151.132 52.0957 152.6 52.0781 154.129 52.0254V50.8301C152.31 50.6631 151.132 49.793 151.141 48.4746C151.132 46.9717 152.6 46.0576 154.797 46.0664C157.012 46.0576 158.453 46.9717 158.471 48.4746C158.453 49.7842 157.311 50.6543 155.5 50.8301V51.9639C156.959 51.876 158.445 51.7441 159.807 51.5332L159.93 52.5176C156.581 53.1504 152.784 53.1943 150.051 53.2207L149.893 52.0957ZM150.28 45.3809V44.3438H154.129V42.7617H155.5V44.3438H159.332V45.3809H150.28ZM152.231 58.0898V54.2051H153.619V56.9297H162.725V58.0898H152.231ZM152.459 48.4746C152.451 49.3271 153.356 49.8809 154.797 49.8809C156.239 49.8809 157.153 49.3271 157.153 48.4746C157.153 47.5869 156.239 47.042 154.797 47.0508C153.356 47.042 152.451 47.5869 152.459 48.4746ZM177.245 44.6426V45.7676H169.23V44.6426H172.569V42.8848H173.94V44.6426H177.245ZM169.915 49.3359C169.906 47.666 171.286 46.5586 173.255 46.5586C175.232 46.5586 176.604 47.666 176.612 49.3359C176.604 50.9707 175.232 52.0781 173.255 52.0781C171.286 52.0781 169.906 50.9707 169.915 49.3359ZM171.146 49.3359C171.146 50.3379 172.007 51.0234 173.255 51.0234C174.503 51.0234 175.364 50.3379 175.364 49.3359C175.364 48.2988 174.503 47.6133 173.255 47.5957C172.007 47.6133 171.146 48.2988 171.146 49.3359ZM172.06 54.5742V53.4492H182.589V58.4238H181.235V54.5742H172.06ZM177.913 52.4121V43.0781H179.231V47.209H181.271V42.8145H182.589V52.5176H181.271V48.3516H179.231V52.4121H177.913ZM197.416 42.8145V51.6914H196.045V42.8145H197.416ZM184.637 50.1973C187.001 49.3711 188.645 47.2529 188.645 44.959V43.4297H190.051V44.959C190.034 47.165 191.721 49.1162 194.024 49.9336L193.321 50.9883C191.51 50.3643 190.06 49.0459 189.357 47.3408C188.663 49.1514 187.204 50.5928 185.34 51.2871L184.637 50.1973ZM187.256 58.2129V52.5879H197.416V58.2129H187.256ZM188.61 57.0879H196.063V53.7129H188.61V57.0879ZM205.265 46.998C205.257 49.8545 207.199 52.7197 209.502 53.7656L208.658 54.8555C206.874 53.9941 205.336 52.1396 204.589 49.916C203.868 52.2715 202.33 54.249 200.502 55.1719L199.623 54.0117C201.952 52.9482 203.877 49.96 203.894 46.998V44.1504H205.265V46.998ZM211.207 58.459V42.7969H212.595V58.459H211.207ZM220.198 45.7676C220.207 47.8154 221.736 49.6436 224.03 50.3906L223.38 51.4805C221.578 50.8828 220.216 49.6436 219.539 48.0703C218.871 49.8633 217.43 51.2607 215.558 51.9375L214.855 50.8301C217.193 50.0391 218.827 48.0264 218.845 45.7676V45.0996H215.276V43.957H223.714V45.0996H220.198V45.7676ZM216.929 55.5059C216.938 53.7041 218.898 52.6582 222.114 52.6582C225.322 52.6582 227.265 53.7041 227.265 55.5059C227.265 57.334 225.322 58.3887 222.114 58.3887C218.898 58.3887 216.938 57.334 216.929 55.5059ZM218.318 55.5059C218.3 56.6309 219.759 57.29 222.114 57.2812C224.479 57.29 225.92 56.6309 225.929 55.5059C225.92 54.416 224.479 53.7656 222.114 53.7656C219.759 53.7656 218.3 54.416 218.318 55.5059ZM225.753 52.2363V42.7969H227.124V46.7871H229.48V47.9473H227.124V52.2363H225.753ZM241.328 52.6758C244.677 52.6758 246.804 53.7305 246.812 55.541C246.804 57.334 244.677 58.3887 241.328 58.3887C237.979 58.3887 235.852 57.334 235.861 55.541C235.852 53.7305 237.979 52.6758 241.328 52.6758ZM234.279 51.2168V50.0918H240.168V47.0684H241.521V50.0918H248.5V51.2168H234.279ZM235.967 44.7305V43.6055H246.689V44.9238C246.681 46.1895 246.681 47.4551 246.25 49.0723L244.896 48.9141C245.318 47.3057 245.318 46.1455 245.318 44.9238V44.7305H235.967ZM237.232 55.541C237.223 56.6309 238.841 57.2988 241.328 57.2988C243.824 57.2988 245.424 56.6309 245.441 55.541C245.424 54.4248 243.824 53.7393 241.328 53.7305C238.841 53.7393 237.223 54.4248 237.232 55.541ZM264.03 45.3105V46.4531H261.675V48.5801H264.03V49.7402H261.675V52.3066H260.304V42.8145H261.675V45.3105H264.03ZM250.126 44.8711V43.7461H257.21V48.0527H251.515V50.3203C254.292 50.3115 256.305 50.2148 258.739 49.8105L258.88 50.9531C256.375 51.3662 254.283 51.4717 251.374 51.4629H250.161V46.9629H255.857V44.8711H250.126ZM251.445 54.2578V53.1328H261.675V58.4238H260.304V54.2578H251.445ZM266.307 57.1055C265.692 57.0967 265.165 56.5869 265.182 55.9629C265.165 55.3477 265.692 54.8379 266.307 54.8379C266.931 54.8379 267.441 55.3477 267.432 55.9629C267.441 56.5869 266.931 57.0967 266.307 57.1055ZM270.517 57.1055C269.902 57.0967 269.375 56.5869 269.392 55.9629C269.375 55.3477 269.902 54.8379 270.517 54.8379C271.142 54.8379 271.651 55.3477 271.642 55.9629C271.651 56.5869 271.142 57.0967 270.517 57.1055ZM274.728 57.1055C274.113 57.0967 273.585 56.5869 273.603 55.9629C273.585 55.3477 274.113 54.8379 274.728 54.8379C275.352 54.8379 275.862 55.3477 275.853 55.9629C275.862 56.5869 275.352 57.0967 274.728 57.1055ZM290.663 42.7969V58.4238H289.327V42.7969H290.663ZM277.901 54.6621V44.7305H283.79V45.873H279.237V53.502C281.496 53.4844 282.92 53.4053 284.598 53.0273L284.739 54.2051C282.928 54.5742 281.399 54.6533 278.885 54.6621H277.901ZM282.735 49.9336V48.7734H286.145V43.1836H287.464V57.6152H286.145V49.9336H282.735ZM305.367 42.7969V58.459H303.979V42.7969H305.367ZM293.062 49.459C293.071 46.1367 294.724 44.0186 297.053 44.0098C299.373 44.0186 301.052 46.1367 301.043 49.459C301.052 52.79 299.373 54.8994 297.053 54.8906C294.724 54.8994 293.071 52.79 293.062 49.459ZM294.398 49.459C294.398 51.999 295.488 53.6689 297.053 53.6602C298.626 53.6689 299.707 51.999 299.707 49.459C299.707 46.9189 298.626 45.249 297.053 45.2402C295.488 45.249 294.398 46.9189 294.398 49.459ZM320.634 42.7969V58.459H319.263V49.8457H315.958V48.7031H319.263V42.7969H320.634ZM308.4 54.6797V44.2383H315.695V45.3809H309.788V48.6328H315.009V49.7578H309.788V53.5371C312.654 53.5283 314.499 53.4492 316.644 53.0625L316.802 54.2051C314.526 54.5742 312.619 54.6797 309.595 54.6797H308.4ZM336.147 42.7969V54.5215H334.829V42.7969H336.147ZM322.928 51.1992C324.941 50.25 326.172 48.0879 326.163 46.2422V43.9043H327.499V46.2422C327.499 48.0703 328.641 49.9512 330.628 50.7949L329.854 51.8848C328.413 51.2256 327.384 50.0215 326.848 48.6064C326.295 50.1621 325.196 51.542 323.702 52.2715L322.928 51.1992ZM325.899 58.0898V53.0801H327.27V56.9297H336.622V58.0898H325.899ZM329.274 47.9121V46.7695H331.735V43.1133H333.071V54.082H331.735V47.9121H329.274ZM351.027 42.7969V58.459H349.656V49.8457H346.352V48.7031H349.656V42.7969H351.027ZM338.793 54.6797V44.2383H346.088V45.3809H340.182V48.6328H345.402V49.7578H340.182V53.5371C343.047 53.5283 344.893 53.4492 347.037 53.0625L347.195 54.2051C344.919 54.5742 343.012 54.6797 339.988 54.6797H338.793ZM355.066 51.996C354.658 51.996 354.304 51.846 354.004 51.546C353.704 51.246 353.554 50.892 353.554 50.484C353.554 50.064 353.704 49.71 354.004 49.422C354.304 49.122 354.658 48.972 355.066 48.972C355.486 48.972 355.84 49.122 356.128 49.422C356.428 49.71 356.578 50.064 356.578 50.484C356.578 50.892 356.428 51.246 356.128 51.546C355.84 51.846 355.486 51.996 355.066 51.996ZM8.41992 72.0996C8.42871 74.7803 11.4873 77.1621 14.2031 77.6719L13.5703 78.832C11.2061 78.2871 8.72754 76.6084 7.7168 74.3145C6.69727 76.6084 4.22754 78.2783 1.86328 78.832L1.23047 77.6719C3.9375 77.1533 6.96973 74.7891 6.97852 72.0996V70.9043H8.41992V72.0996ZM0.632812 83.2969V82.1543H14.9414V83.2969H0.632812ZM23.6869 71.3789V81.4512H16.4798V71.3789H23.6869ZM17.8158 80.3262H22.3158V72.4863H17.8158V80.3262ZM26.5521 85.4238V69.7969H27.9232V76.0371H30.5423V77.2324H27.9232V85.4238H26.5521ZM43.6823 78.252V79.377H32.8718V71.1504H43.5066V72.3105H34.278V74.6309H43.1726V75.7383H34.278V78.252H43.6823ZM31.0261 83.3848V82.2422H45.3347V83.3848H31.0261ZM55.1524 70.9922V72.1348H53.5528V76.6787C54.3526 76.6172 55.1436 76.5469 55.8907 76.459L55.9962 77.5137C52.8145 78.0059 49.1055 78.0498 46.4337 78.0586L46.2755 76.8809C46.8995 76.8809 47.585 76.8809 48.297 76.8721V72.1348H46.7149V70.9922H55.1524ZM48.5782 85.2129V79.6934H58.4395V85.2129H48.5782ZM49.6505 76.8457C50.4854 76.8281 51.338 76.8018 52.1993 76.7578V72.1348H49.6505V76.8457ZM49.9317 84.0879H57.0684V80.8008H49.9317V84.0879ZM57.0684 78.8672V69.7969H58.4395V73.5586H60.795V74.7188H58.4395V78.8672H57.0684ZM68.8465 70.4297V72.416H76.5809V70.4297H77.952V76.6699H73.3816V78.3398H79.8152V79.4824H65.577V78.3398H72.0105V76.6699H67.4754V70.4297H68.8465ZM67.4227 85.0898V80.7305H68.8113V83.9297H78.2332V85.0898H67.4227ZM68.8465 75.5625H76.5809V73.5059H68.8465V75.5625ZM89.0177 70.8691C89.0177 71.4756 88.9474 72.0557 88.8244 72.6094H92.34V69.8145H93.7287V79.1309H92.34V77.0566H88.1916V75.9141H92.34V73.752H88.4464C87.3918 76.2129 84.9396 77.9971 81.5646 78.9199L81.0197 77.8125C84.8341 76.7578 87.2511 74.666 87.5324 71.9941H81.8107V70.8691H89.0177ZM83.2169 80.9238V79.8164H93.7287V85.4062H92.34V80.9238H83.2169ZM108.099 69.7969V76.459H110.595V77.6191H108.099V85.4238H106.71V69.7969H108.099ZM95.7769 81.2578C97.0513 81.2578 98.5366 81.249 100.084 81.2051V79.4824C98.2642 79.2715 97.0777 78.1992 97.0952 76.6523C97.0777 74.8857 98.5718 73.7432 100.787 73.752C102.966 73.7432 104.487 74.8857 104.496 76.6523C104.487 78.208 103.283 79.2715 101.472 79.4824V81.1523C102.922 81.082 104.399 80.959 105.761 80.7656L105.849 81.8203C102.439 82.4004 98.7476 82.4355 96.0054 82.4355L95.7769 81.2578ZM96.0581 72.8379V71.7129H100.084V69.832H101.472V71.7129H105.48V72.8379H96.0581ZM98.3784 76.6523C98.3872 77.7334 99.3364 78.4453 100.787 78.4277C102.21 78.4453 103.168 77.7334 103.177 76.6523C103.168 75.5625 102.21 74.8242 100.787 74.8242C99.3364 74.8242 98.3872 75.5625 98.3784 76.6523Z" fill="black"/>
<path d="M0.929688 138L0.916016 137.098L4.29297 133.543C5.46191 132.299 6.02246 131.629 6.0293 130.713C6.02246 129.694 5.1748 129.038 4.06055 129.031C2.87793 129.038 2.13965 129.783 2.13281 130.891H0.970703C0.957031 129.141 2.31055 127.965 4.10156 127.965C5.89941 127.965 7.1709 129.175 7.17773 130.713C7.1709 131.82 6.6582 132.682 4.9082 134.486L2.63867 136.824V136.906H7.35547V138H0.929688ZM12.1067 138.137C9.91238 138.137 8.6409 136.291 8.64773 133.051C8.6409 129.838 9.92605 127.965 12.1067 127.965C14.2805 127.965 15.5657 129.838 15.5657 133.051C15.5657 136.291 14.3011 138.137 12.1067 138.137ZM9.83719 133.051C9.84402 135.614 10.6712 137.043 12.1067 137.043C13.5354 137.043 14.3694 135.614 14.3626 133.051C14.3694 130.487 13.5286 129.038 12.1067 129.031C10.6848 129.038 9.84402 130.487 9.83719 133.051ZM16.9263 138L16.9127 137.098L20.2896 133.543C21.4586 132.299 22.0191 131.629 22.0259 130.713C22.0191 129.694 21.1714 129.038 20.0572 129.031C18.8746 129.038 18.1363 129.783 18.1295 130.891H16.9673C16.9537 129.141 18.3072 127.965 20.0982 127.965C21.8961 127.965 23.1675 129.175 23.1744 130.713C23.1675 131.82 22.6548 132.682 20.9048 134.486L18.6353 136.824V136.906H23.3521V138H16.9263ZM28.3084 138.137C26.5926 138.116 24.6991 137.098 24.6991 133.434C24.6991 129.927 26.1346 127.965 28.4588 127.965C30.202 127.965 31.4188 129.038 31.6717 130.59H30.4549C30.2293 129.715 29.5594 129.059 28.4588 129.059C26.8319 129.059 25.8543 130.446 25.8612 132.832H25.9842C26.5516 132.005 27.4608 131.52 28.5272 131.52C30.284 131.52 31.7537 132.887 31.7537 134.801C31.7537 136.667 30.3934 138.157 28.3084 138.137ZM26.0252 134.828C26.0321 135.99 26.9823 137.05 28.3084 137.057C29.5868 137.05 30.5575 136.045 30.5643 134.814C30.5575 133.598 29.6278 132.606 28.3358 132.6C27.037 132.606 26.0389 133.659 26.0252 134.828ZM37.4347 132.518V133.598H33.1007V132.518H37.4347ZM42.1859 138.137C39.9916 138.137 38.7201 136.291 38.727 133.051C38.7201 129.838 40.0053 127.965 42.1859 127.965C44.3598 127.965 45.6449 129.838 45.6449 133.051C45.6449 136.291 44.3803 138.137 42.1859 138.137ZM39.9164 133.051C39.9232 135.614 40.7504 137.043 42.1859 137.043C43.6146 137.043 44.4486 135.614 44.4418 133.051C44.4486 130.487 43.6078 129.038 42.1859 129.031C40.7641 129.038 39.9232 130.487 39.9164 133.051ZM50.5055 128.102V138H49.2614V129.387H49.2067L46.8005 130.986V129.742L49.2614 128.102H50.5055ZM57.1298 132.518V133.598H52.7959V132.518H57.1298ZM61.8811 138.137C59.6868 138.137 58.4153 136.291 58.4221 133.051C58.4153 129.838 59.7004 127.965 61.8811 127.965C64.0549 127.965 65.3401 129.838 65.3401 133.051C65.3401 136.291 64.0754 138.137 61.8811 138.137ZM59.6116 133.051C59.6184 135.614 60.4455 137.043 61.8811 137.043C63.3098 137.043 64.1438 135.614 64.137 133.051C64.1438 130.487 63.303 129.038 61.8811 129.031C60.4592 129.038 59.6184 130.487 59.6116 133.051ZM70.2007 128.102V138H68.9566V129.387H68.9019L66.4956 130.986V129.742L68.9566 128.102H70.2007Z" fill="#999999"/>
</svg>
