<svg width="240" height="42" viewBox="0 0 240 42" fill="none" xmlns="http://www.w3.org/2000/svg">
<path d="M28.504 14.4484C28.504 16.5391 28 18.4991 26.992 20.3284C26.0213 22.1578 24.472 23.6324 22.344 24.7524C20.2533 25.8724 17.6027 26.4324 14.392 26.4324H7.84V41.4404H1.90735e-06V2.35243H14.392C17.416 2.35243 19.992 2.8751 22.12 3.92043C24.248 4.96576 25.8347 6.40309 26.88 8.23243C27.9627 10.0618 28.504 12.1338 28.504 14.4484ZM14.056 20.1044C16.2213 20.1044 17.8267 19.6191 18.872 18.6484C19.9173 17.6404 20.44 16.2404 20.44 14.4484C20.44 10.6404 18.312 8.73643 14.056 8.73643H7.84V20.1044H14.056ZM40.7903 15.2324C41.7983 13.5898 43.105 12.3018 44.7103 11.3684C46.353 10.4351 48.2196 9.96843 50.3103 9.96843V18.2004H48.2383C45.7743 18.2004 43.9076 18.7791 42.6383 19.9364C41.4063 21.0938 40.7903 23.1098 40.7903 25.9844V41.4404H32.9503V10.4164H40.7903V15.2324ZM68.2469 41.9444C65.2603 41.9444 62.5723 41.2911 60.1829 39.9844C57.7936 38.6404 55.9083 36.7551 54.5269 34.3284C53.1829 31.9018 52.5109 29.1018 52.5109 25.9284C52.5109 22.7551 53.2016 19.9551 54.5829 17.5284C56.0016 15.1018 57.9243 13.2351 60.3509 11.9284C62.7776 10.5844 65.4843 9.91243 68.4709 9.91243C71.4576 9.91243 74.1643 10.5844 76.5909 11.9284C79.0176 13.2351 80.9216 15.1018 82.3029 17.5284C83.7216 19.9551 84.4309 22.7551 84.4309 25.9284C84.4309 29.1018 83.7029 31.9018 82.2469 34.3284C80.8283 36.7551 78.8869 38.6404 76.4229 39.9844C73.9963 41.2911 71.2709 41.9444 68.2469 41.9444ZM68.2469 35.1124C69.6656 35.1124 70.9909 34.7764 72.2229 34.1044C73.4923 33.3951 74.5003 32.3498 75.2469 30.9684C75.9936 29.5871 76.3669 27.9071 76.3669 25.9284C76.3669 22.9791 75.5829 20.7204 74.0149 19.1524C72.4843 17.5471 70.5989 16.7444 68.3589 16.7444C66.1189 16.7444 64.2336 17.5471 62.7029 19.1524C61.2096 20.7204 60.4629 22.9791 60.4629 25.9284C60.4629 28.8778 61.1909 31.1551 62.6469 32.7604C64.1403 34.3284 66.0069 35.1124 68.2469 35.1124ZM87.0459 25.8164C87.0459 22.6804 87.6619 19.8991 88.8939 17.4724C90.1632 15.0458 91.8805 13.1791 94.0459 11.8724C96.2112 10.5658 98.6192 9.91243 101.27 9.91243C103.286 9.91243 105.209 10.3604 107.038 11.2564C108.867 12.1151 110.323 13.2724 111.406 14.7284V0.000429153H119.358V41.4404H111.406V36.8484C110.435 38.3791 109.073 39.6111 107.318 40.5444C105.563 41.4778 103.529 41.9444 101.214 41.9444C98.6005 41.9444 96.2112 41.2724 94.0459 39.9284C91.8805 38.5844 90.1632 36.6991 88.8939 34.2724C87.6619 31.8084 87.0459 28.9898 87.0459 25.8164ZM111.462 25.9284C111.462 24.0244 111.089 22.4004 110.342 21.0564C109.595 19.6751 108.587 18.6298 107.318 17.9204C106.049 17.1738 104.686 16.8004 103.23 16.8004C101.774 16.8004 100.43 17.1551 99.1979 17.8644C97.9659 18.5738 96.9579 19.6191 96.1739 21.0004C95.4272 22.3444 95.0539 23.9498 95.0539 25.8164C95.0539 27.6831 95.4272 29.3258 96.1739 30.7444C96.9579 32.1258 97.9659 33.1898 99.1979 33.9364C100.467 34.6831 101.811 35.0564 103.23 35.0564C104.686 35.0564 106.049 34.7018 107.318 33.9924C108.587 33.2458 109.595 32.2004 110.342 30.8564C111.089 29.4751 111.462 27.8324 111.462 25.9284ZM155.183 10.4164V41.4404H147.287V37.5204C146.279 38.8644 144.954 39.9284 143.311 40.7124C141.706 41.4591 139.951 41.8324 138.047 41.8324C135.62 41.8324 133.474 41.3284 131.607 40.3204C129.74 39.2751 128.266 37.7631 127.183 35.7844C126.138 33.7684 125.615 31.3791 125.615 28.6164V10.4164H133.455V27.4964C133.455 29.9604 134.071 31.8644 135.303 33.2084C136.535 34.5151 138.215 35.1684 140.343 35.1684C142.508 35.1684 144.207 34.5151 145.439 33.2084C146.671 31.8644 147.287 29.9604 147.287 27.4964V10.4164H155.183ZM159.782 25.9284C159.782 22.7178 160.436 19.9178 161.742 17.5284C163.049 15.1018 164.86 13.2351 167.174 11.9284C169.489 10.5844 172.14 9.91243 175.126 9.91243C178.972 9.91243 182.145 10.8831 184.646 12.8244C187.185 14.7284 188.884 17.4164 189.742 20.8884H181.286C180.838 19.5444 180.073 18.4991 178.99 17.7524C177.945 16.9684 176.638 16.5764 175.07 16.5764C172.83 16.5764 171.057 17.3978 169.75 19.0404C168.444 20.6458 167.79 22.9418 167.79 25.9284C167.79 28.8778 168.444 31.1738 169.75 32.8164C171.057 34.4218 172.83 35.2244 175.07 35.2244C178.244 35.2244 180.316 33.8058 181.286 30.9684H189.742C188.884 34.3284 187.185 36.9978 184.646 38.9764C182.108 40.9551 178.934 41.9444 175.126 41.9444C172.14 41.9444 169.489 41.2911 167.174 39.9844C164.86 38.6404 163.049 36.7738 161.742 34.3844C160.436 31.9578 159.782 29.1391 159.782 25.9284ZM203.494 16.8564V31.8644C203.494 32.9098 203.737 33.6751 204.222 34.1604C204.745 34.6084 205.603 34.8324 206.798 34.8324H210.438V41.4404H205.51C198.902 41.4404 195.598 38.2298 195.598 31.8084V16.8564H191.902V10.4164H195.598V2.74443H203.494V10.4164H210.438V16.8564H203.494ZM226.829 41.9444C224.29 41.9444 222.013 41.4964 219.997 40.6004C217.981 39.6671 216.376 38.4164 215.181 36.8484C214.024 35.2804 213.389 33.5444 213.277 31.6404H221.173C221.322 32.8351 221.901 33.8244 222.909 34.6084C223.954 35.3924 225.242 35.7844 226.773 35.7844C228.266 35.7844 229.424 35.4858 230.245 34.8884C231.104 34.2911 231.533 33.5258 231.533 32.5924C231.533 31.5844 231.01 30.8378 229.965 30.3524C228.957 29.8298 227.333 29.2698 225.093 28.6724C222.778 28.1124 220.874 27.5338 219.381 26.9364C217.925 26.3391 216.656 25.4244 215.573 24.1924C214.528 22.9604 214.005 21.2991 214.005 19.2084C214.005 17.4911 214.49 15.9231 215.461 14.5044C216.469 13.0858 217.888 11.9658 219.717 11.1444C221.584 10.3231 223.768 9.91243 226.269 9.91243C229.965 9.91243 232.914 10.8458 235.117 12.7124C237.32 14.5418 238.533 17.0244 238.757 20.1604H231.253C231.141 18.9284 230.618 17.9578 229.685 17.2484C228.789 16.5018 227.576 16.1284 226.045 16.1284C224.626 16.1284 223.525 16.3898 222.741 16.9124C221.994 17.4351 221.621 18.1631 221.621 19.0964C221.621 20.1418 222.144 20.9444 223.189 21.5044C224.234 22.0271 225.858 22.5684 228.061 23.1284C230.301 23.6884 232.149 24.2671 233.605 24.8644C235.061 25.4618 236.312 26.3951 237.357 27.6644C238.44 28.8964 239 30.5391 239.037 32.5924C239.037 34.3844 238.533 35.9898 237.525 37.4084C236.554 38.8271 235.136 39.9471 233.269 40.7684C231.44 41.5524 229.293 41.9444 226.829 41.9444Z" fill="white"/>
</svg>
