<svg width="552" height="43" viewBox="0 0 552 43" fill="none" xmlns="http://www.w3.org/2000/svg">
<path d="M16.1719 12.1875C16.1719 19.125 20.25 26.4375 27.0938 29.2969L24.2344 33.4219C19.2188 31.2422 15.5625 26.8125 13.6172 21.4219C11.6719 27.2344 7.94531 32.1094 3 34.4531L0 30.375C6.67969 27.2812 10.8516 19.3828 10.875 12.1875V8.625H1.54688V4.3125H25.4531V8.625H16.1719V12.1875ZM30.1875 42.5156V0.140625H35.4375V42.5156H30.1875ZM78.3769 20.9531V25.1719H39.7519V20.9531H56.4394V15.0469H61.5956V20.9531H78.3769ZM41.8613 13.4062C50.6034 12.3047 56.3456 7.5 56.3456 2.4375V0.84375H61.6425V2.4375C61.6425 7.61719 67.3378 12.3047 76.1738 13.4062L74.1581 17.4844C67.2206 16.4297 61.6659 13.2891 58.9706 8.83594C56.2519 13.2656 50.7206 16.4297 43.7363 17.4844L41.8613 13.4062ZM44.0175 32.625V28.5469H73.6425V42.5156H68.4394V32.625H44.0175ZM121.974 0.140625V16.6875H128.256V21.0469H121.974V42.4219H116.771V0.140625H121.974ZM88.5525 30.8438C98.865 25.6875 104.443 18.5156 105.474 8.85938H90.8494V4.54688H110.771C110.748 16.9922 105.592 27.9375 91.5056 34.875L88.5525 30.8438ZM162.617 11.1562V15.375H133.367V0.890625H138.57V11.1562H162.617ZM128.351 23.6719V19.4531H167.023V23.6719H128.351ZM132.851 34.5469C132.851 29.5547 138.406 26.7422 147.617 26.7188C156.758 26.7422 162.265 29.5547 162.289 34.5469C162.265 39.5156 156.758 42.3281 147.617 42.3281C138.406 42.3281 132.851 39.5156 132.851 34.5469ZM138.148 34.5469C138.125 36.9844 141.453 38.3203 147.617 38.3438C153.687 38.3203 157.039 36.9844 157.086 34.5469C157.039 32.0391 153.687 30.8203 147.617 30.7969C141.453 30.8203 138.125 32.0391 138.148 34.5469ZM201.337 0.1875V13.5H207.244V17.8125H201.337V31.8281H196.134V0.1875H201.337ZM167.962 9.04688V4.875H177.947V0.140625H183.15V4.875H193.087V9.04688H167.962ZM170.119 18.8906C170.119 14.0156 174.361 10.7812 180.525 10.7812C186.642 10.7812 190.861 14.0156 190.884 18.8906C190.861 23.7422 186.642 26.9062 180.525 26.9062C174.361 26.9062 170.119 23.7422 170.119 18.8906ZM174.197 41.6719V29.3438H179.4V37.4531H203.025V41.6719H174.197ZM175.181 18.8906C175.158 21.4453 177.314 22.8984 180.525 22.875C183.736 22.8984 185.916 21.4453 185.916 18.8906C185.916 16.3125 183.736 14.8125 180.525 14.8125C177.314 14.8125 175.158 16.3125 175.181 18.8906ZM253.513 0.140625V42.5156H248.497V0.140625H253.513ZM217.372 18.4688C217.372 9.14062 220.982 3.35156 226.513 3.375C231.646 3.35156 235.138 8.15625 235.747 16.0781H239.826V0.890625H244.794V40.4531H239.826V20.2969H235.794C235.302 28.5703 231.763 33.6328 226.513 33.6094C220.982 33.6328 217.372 27.8203 217.372 18.4688ZM222.201 18.4688C222.177 25.1016 223.818 28.6641 226.513 28.6406C229.326 28.6641 230.99 25.1016 231.013 18.4688C230.99 11.8594 229.326 8.27344 226.513 8.29688C223.818 8.27344 222.177 11.8594 222.201 18.4688ZM292.093 0.140625V42.5625H286.89V17.7656H274.749V13.5469H286.89V0.140625H292.093ZM258.765 32.5312V4.78125H263.968V28.1484C269.663 28.0781 275.312 27.6562 281.265 26.4844L281.874 30.75C275.054 32.1562 268.726 32.5078 262.234 32.5312H258.765ZM312.064 12.1875C312.064 19.125 316.142 26.4375 322.986 29.2969L320.126 33.4219C315.111 31.2422 311.454 26.8125 309.509 21.4219C307.564 27.2344 303.837 32.1094 298.892 34.4531L295.892 30.375C302.572 27.2812 306.743 19.3828 306.767 12.1875V8.625H297.439V4.3125H321.345V8.625H312.064V12.1875ZM326.079 42.5156V0.140625H331.329V42.5156H326.079ZM367.099 2.85938C367.099 7.85156 372.982 13.0312 381.63 14.25L379.661 18.375C372.7 17.2969 367.146 13.9219 364.45 9.35156C361.732 13.9688 356.13 17.3906 349.193 18.4688L347.224 14.3906C355.872 13.1016 361.732 8.01562 361.755 2.85938V1.21875H367.099V2.85938ZM345.068 25.4062V21.1875H383.786V25.4062H367.427V33.1406H362.271V25.4062H345.068ZM349.755 41.6719V29.3438H354.958V37.4531H379.521V41.6719H349.755ZM418.241 0.140625V14.3438H423.96V18.6562H418.241V33.2344H413.038V0.140625H418.241ZM384.304 24.75C387.468 24.75 391.147 24.7266 394.991 24.6094V21.9141C390.28 21.3281 387.28 19.0078 387.304 15.6094C387.28 11.4609 391.382 9 397.522 9.04688C403.687 9 407.741 11.4609 407.741 15.6094C407.741 18.9844 404.835 21.2812 400.194 21.9141V24.3516C403.804 24.1406 407.437 23.8125 410.835 23.2969L411.257 26.9531C402.28 28.6406 392.179 28.7578 384.866 28.8281L384.304 24.75ZM385.382 7.64062V3.84375H394.991V0H400.194V3.84375H409.71V7.64062H385.382ZM390.397 41.6719V31.0312H395.601V37.4531H419.741V41.6719H390.397ZM392.319 15.6094C392.272 17.4375 394.241 18.5156 397.522 18.5156C400.804 18.5156 402.772 17.4375 402.772 15.6094C402.772 13.6172 400.804 12.5391 397.522 12.5625C394.241 12.5391 392.272 13.6172 392.319 15.6094ZM469.104 0.140625V42.5156H463.854V0.140625H469.104ZM433.995 30.8438C445.104 25.5703 450.214 18.3984 451.151 8.76562H436.151V4.64062H456.448C456.448 17.25 451.55 27.9609 436.714 35.0156L433.995 30.8438ZM495.263 1.5C495.263 6.02344 501.052 10.1484 509.888 11.1094L508.153 15.0469C500.958 14.2266 495.263 11.3672 492.544 7.24219C489.825 11.3672 484.13 14.2266 477.028 15.0469L475.247 11.1094C484.13 10.1484 489.895 6.02344 489.919 1.5V0.375H495.263V1.5ZM473.278 21.2812V17.1562H511.903V21.2812H495.122V24.5625H507.075V35.0625H482.981V38.1562H508.247V42.1406H477.872V31.3125H501.966V28.5469H477.825V24.5625H489.919V21.2812H473.278ZM551.561 33.2812V37.5938H512.843V33.2812H529.53V26.3906H517.436V12.5156H541.811V7.26562H517.343V3.04688H546.968V16.6406H522.639V22.125H547.952V26.3906H534.686V33.2812H551.561Z" fill="white"/>
</svg>
