<svg width="437" height="59" viewBox="0 0 437 59" fill="none" xmlns="http://www.w3.org/2000/svg">
<path d="M29.12 16.5763C28.224 14.9336 26.992 13.683 25.424 12.8243C23.856 11.9656 22.0266 11.5363 19.936 11.5363C17.6213 11.5363 15.568 12.059 13.776 13.1043C11.984 14.1496 10.584 15.643 9.57598 17.5843C8.56798 19.5256 8.06398 21.7656 8.06398 24.3043C8.06398 26.9176 8.56798 29.195 9.57598 31.1363C10.6213 33.0776 12.0586 34.571 13.888 35.6163C15.7173 36.6616 17.8453 37.1843 20.272 37.1843C23.2586 37.1843 25.704 36.4003 27.608 34.8323C29.512 33.227 30.7626 31.0056 31.36 28.1683H17.92V22.1763H39.088V29.0083C38.5653 31.7336 37.4453 34.2536 35.728 36.5683C34.0106 38.883 31.7893 40.7496 29.064 42.1683C26.376 43.5496 23.352 44.2403 19.992 44.2403C16.2213 44.2403 12.8053 43.4003 9.74398 41.7203C6.71998 40.003 4.33064 37.6323 2.57598 34.6083C0.858645 31.5843 -2.19643e-05 28.1496 -2.19643e-05 24.3043C-2.19643e-05 20.459 0.858645 17.0243 2.57598 14.0003C4.33064 10.939 6.71998 8.56829 9.74398 6.8883C12.8053 5.17096 16.2026 4.3123 19.936 4.3123C24.3413 4.3123 28.168 5.39496 31.416 7.56029C34.664 9.6883 36.904 12.6936 38.136 16.5763H29.12ZM51.6084 2.4643V43.9043H43.7684V2.4643H51.6084ZM72.0103 44.4083C69.0236 44.4083 66.3356 43.755 63.9463 42.4483C61.557 41.1043 59.6716 39.219 58.2903 36.7923C56.9463 34.3656 56.2743 31.5656 56.2743 28.3923C56.2743 25.219 56.965 22.419 58.3463 19.9923C59.765 17.5656 61.6876 15.699 64.1143 14.3923C66.541 13.0483 69.2476 12.3763 72.2343 12.3763C75.221 12.3763 77.9276 13.0483 80.3543 14.3923C82.781 15.699 84.685 17.5656 86.0663 19.9923C87.485 22.419 88.1943 25.219 88.1943 28.3923C88.1943 31.5656 87.4663 34.3656 86.0103 36.7923C84.5916 39.219 82.6503 41.1043 80.1863 42.4483C77.7596 43.755 75.0343 44.4083 72.0103 44.4083ZM72.0103 37.5763C73.429 37.5763 74.7543 37.2403 75.9863 36.5683C77.2556 35.859 78.2636 34.8136 79.0103 33.4323C79.757 32.051 80.1303 30.371 80.1303 28.3923C80.1303 25.443 79.3463 23.1843 77.7783 21.6163C76.2476 20.011 74.3623 19.2083 72.1223 19.2083C69.8823 19.2083 67.997 20.011 66.4663 21.6163C64.973 23.1843 64.2263 25.443 64.2263 28.3923C64.2263 31.3416 64.9543 33.619 66.4103 35.2243C67.9036 36.7923 69.7703 37.5763 72.0103 37.5763ZM100.665 17.4163C101.673 15.923 103.055 14.7096 104.809 13.7763C106.601 12.843 108.636 12.3763 110.913 12.3763C113.564 12.3763 115.953 13.0296 118.081 14.3363C120.247 15.643 121.945 17.5096 123.177 19.9363C124.447 22.3256 125.081 25.107 125.081 28.2803C125.081 31.4536 124.447 34.2723 123.177 36.7363C121.945 39.163 120.247 41.0483 118.081 42.3923C115.953 43.7363 113.564 44.4083 110.913 44.4083C108.599 44.4083 106.564 43.9603 104.809 43.0643C103.092 42.131 101.711 40.9363 100.665 39.4803V43.9043H92.8252V2.4643H100.665V17.4163ZM117.073 28.2803C117.073 26.4136 116.681 24.8083 115.897 23.4643C115.151 22.083 114.143 21.0376 112.873 20.3283C111.641 19.619 110.297 19.2643 108.841 19.2643C107.423 19.2643 106.079 19.6376 104.809 20.3843C103.577 21.0936 102.569 22.139 101.785 23.5203C101.039 24.9016 100.665 26.5256 100.665 28.3923C100.665 30.259 101.039 31.883 101.785 33.2643C102.569 34.6456 103.577 35.7096 104.809 36.4563C106.079 37.1656 107.423 37.5203 108.841 37.5203C110.297 37.5203 111.641 37.147 112.873 36.4003C114.143 35.6536 115.151 34.5896 115.897 33.2083C116.681 31.827 117.073 30.1843 117.073 28.2803ZM127.642 28.2803C127.642 25.1443 128.258 22.363 129.49 19.9363C130.76 17.5096 132.458 15.643 134.586 14.3363C136.752 13.0296 139.16 12.3763 141.81 12.3763C144.125 12.3763 146.141 12.843 147.858 13.7763C149.613 14.7096 151.013 15.8856 152.058 17.3043V12.8803H159.954V43.9043H152.058V39.3683C151.05 40.8243 149.65 42.0376 147.858 43.0083C146.104 43.9416 144.069 44.4083 141.754 44.4083C139.141 44.4083 136.752 43.7363 134.586 42.3923C132.458 41.0483 130.76 39.163 129.49 36.7363C128.258 34.2723 127.642 31.4536 127.642 28.2803ZM152.058 28.3923C152.058 26.4883 151.685 24.8643 150.938 23.5203C150.192 22.139 149.184 21.0936 147.914 20.3843C146.645 19.6376 145.282 19.2643 143.826 19.2643C142.37 19.2643 141.026 19.619 139.794 20.3283C138.562 21.0376 137.554 22.083 136.77 23.4643C136.024 24.8083 135.65 26.4136 135.65 28.2803C135.65 30.147 136.024 31.7896 136.77 33.2083C137.554 34.5896 138.562 35.6536 139.794 36.4003C141.064 37.147 142.408 37.5203 143.826 37.5203C145.282 37.5203 146.645 37.1656 147.914 36.4563C149.184 35.7096 150.192 34.6643 150.938 33.3203C151.685 31.939 152.058 30.2963 152.058 28.3923ZM174.331 2.4643V43.9043H166.491V2.4643H174.331ZM217.317 4.8163V11.1443H201.021V21.1683H213.509V27.3843H201.021V43.9043H193.181V4.8163H217.317ZM235.532 44.4083C232.546 44.4083 229.858 43.755 227.468 42.4483C225.079 41.1043 223.194 39.219 221.812 36.7923C220.468 34.3656 219.796 31.5656 219.796 28.3923C219.796 25.219 220.487 22.419 221.868 19.9923C223.287 17.5656 225.21 15.699 227.636 14.3923C230.063 13.0483 232.77 12.3763 235.756 12.3763C238.743 12.3763 241.45 13.0483 243.876 14.3923C246.303 15.699 248.207 17.5656 249.588 19.9923C251.007 22.419 251.716 25.219 251.716 28.3923C251.716 31.5656 250.988 34.3656 249.532 36.7923C248.114 39.219 246.172 41.1043 243.708 42.4483C241.282 43.755 238.556 44.4083 235.532 44.4083ZM235.532 37.5763C236.951 37.5763 238.276 37.2403 239.508 36.5683C240.778 35.859 241.786 34.8136 242.532 33.4323C243.279 32.051 243.652 30.371 243.652 28.3923C243.652 25.443 242.868 23.1843 241.3 21.6163C239.77 20.011 237.884 19.2083 235.644 19.2083C233.404 19.2083 231.519 20.011 229.988 21.6163C228.495 23.1843 227.748 25.443 227.748 28.3923C227.748 31.3416 228.476 33.619 229.932 35.2243C231.426 36.7923 233.292 37.5763 235.532 37.5763ZM270.123 44.4083C267.137 44.4083 264.449 43.755 262.059 42.4483C259.67 41.1043 257.785 39.219 256.403 36.7923C255.059 34.3656 254.387 31.5656 254.387 28.3923C254.387 25.219 255.078 22.419 256.459 19.9923C257.878 17.5656 259.801 15.699 262.227 14.3923C264.654 13.0483 267.361 12.3763 270.347 12.3763C273.334 12.3763 276.041 13.0483 278.467 14.3923C280.894 15.699 282.798 17.5656 284.179 19.9923C285.598 22.419 286.307 25.219 286.307 28.3923C286.307 31.5656 285.579 34.3656 284.123 36.7923C282.705 39.219 280.763 41.1043 278.299 42.4483C275.873 43.755 273.147 44.4083 270.123 44.4083ZM270.123 37.5763C271.542 37.5763 272.867 37.2403 274.099 36.5683C275.369 35.859 276.377 34.8136 277.123 33.4323C277.87 32.051 278.243 30.371 278.243 28.3923C278.243 25.443 277.459 23.1843 275.891 21.6163C274.361 20.011 272.475 19.2083 270.235 19.2083C267.995 19.2083 266.11 20.011 264.579 21.6163C263.086 23.1843 262.339 25.443 262.339 28.3923C262.339 31.3416 263.067 33.619 264.523 35.2243C266.017 36.7923 267.883 37.5763 270.123 37.5763ZM300.066 19.3203V34.3283C300.066 35.3736 300.309 36.139 300.794 36.6243C301.317 37.0723 302.176 37.2963 303.37 37.2963H307.01V43.9043H302.082C295.474 43.9043 292.17 40.6936 292.17 34.2723V19.3203H288.474V12.8803H292.17V5.20829H300.066V12.8803H307.01V19.3203H300.066ZM319.369 17.3603C320.377 15.9416 321.759 14.7656 323.513 13.8323C325.305 12.8616 327.34 12.3763 329.617 12.3763C332.268 12.3763 334.657 13.0296 336.785 14.3363C338.951 15.643 340.649 17.5096 341.881 19.9363C343.151 22.3256 343.785 25.107 343.785 28.2803C343.785 31.4536 343.151 34.2723 341.881 36.7363C340.649 39.163 338.951 41.0483 336.785 42.3923C334.657 43.7363 332.268 44.4083 329.617 44.4083C327.34 44.4083 325.324 43.9416 323.569 43.0083C321.852 42.075 320.452 40.899 319.369 39.4803V58.6883H311.529V12.8803H319.369V17.3603ZM335.777 28.2803C335.777 26.4136 335.385 24.8083 334.601 23.4643C333.855 22.083 332.847 21.0376 331.577 20.3283C330.345 19.619 329.001 19.2643 327.545 19.2643C326.127 19.2643 324.783 19.6376 323.513 20.3843C322.281 21.0936 321.273 22.139 320.489 23.5203C319.743 24.9016 319.369 26.5256 319.369 28.3923C319.369 30.259 319.743 31.883 320.489 33.2643C321.273 34.6456 322.281 35.7096 323.513 36.4563C324.783 37.1656 326.127 37.5203 327.545 37.5203C329.001 37.5203 330.345 37.147 331.577 36.4003C332.847 35.6536 333.855 34.5896 334.601 33.2083C335.385 31.827 335.777 30.1843 335.777 28.2803ZM356.202 17.6963C357.21 16.0536 358.517 14.7656 360.122 13.8323C361.765 12.899 363.632 12.4323 365.722 12.4323V20.6643H363.65C361.186 20.6643 359.32 21.243 358.05 22.4003C356.818 23.5576 356.202 25.5736 356.202 28.4483V43.9043H348.362V12.8803H356.202V17.6963ZM373.859 9.1843C372.478 9.1843 371.32 8.75496 370.387 7.8963C369.491 7.00029 369.043 5.89896 369.043 4.5923C369.043 3.28563 369.491 2.20296 370.387 1.34429C371.32 0.448294 372.478 0.000294685 373.859 0.000294685C375.24 0.000294685 376.379 0.448294 377.275 1.34429C378.208 2.20296 378.675 3.28563 378.675 4.5923C378.675 5.89896 378.208 7.00029 377.275 7.8963C376.379 8.75496 375.24 9.1843 373.859 9.1843ZM377.723 12.8803V43.9043H369.883V12.8803H377.723ZM401.541 12.4323C405.237 12.4323 408.224 13.6083 410.501 15.9603C412.778 18.275 413.917 21.523 413.917 25.7043V43.9043H406.077V26.7683C406.077 24.3043 405.461 22.419 404.229 21.1123C402.997 19.7683 401.317 19.0963 399.189 19.0963C397.024 19.0963 395.306 19.7683 394.037 21.1123C392.805 22.419 392.189 24.3043 392.189 26.7683V43.9043H384.349V12.8803H392.189V16.7443C393.234 15.4003 394.56 14.355 396.165 13.6083C397.808 12.8243 399.6 12.4323 401.541 12.4323ZM429.38 19.3203V34.3283C429.38 35.3736 429.623 36.139 430.108 36.6243C430.631 37.0723 431.49 37.2963 432.684 37.2963H436.324V43.9043H431.396C424.788 43.9043 421.484 40.6936 421.484 34.2723V19.3203H417.788V12.8803H421.484V5.20829H429.38V12.8803H436.324V19.3203H429.38Z" fill="white"/>
</svg>
