<svg width="581" height="32" viewBox="0 0 581 32" fill="none" xmlns="http://www.w3.org/2000/svg">
<rect x="0.5" y="0.5" width="106" height="31" rx="15.5" stroke="white"/>
<path d="M20.8125 12.7207C20.8057 14.9424 22.3164 17.1709 24.1074 17.9844L23.4512 18.832C22.0635 18.1621 20.8672 16.7197 20.2861 14.9902C19.7256 16.8223 18.5293 18.3604 17.1074 19.0781L16.4238 18.1758C18.2354 17.3486 19.7324 15.0244 19.7461 12.7207V10.5059H20.8125V12.7207ZM25.4336 21.6348V9.45312H26.5137V21.6348H25.4336ZM34.3684 11.2441C34.3753 13.3291 36.7542 15.1816 38.8665 15.5781L38.3743 16.4805C36.5354 16.0566 34.6077 14.751 33.8216 12.9668C33.0286 14.751 31.1077 16.0498 29.2688 16.4805L28.7766 15.5781C30.8821 15.1748 33.2405 13.3359 33.2473 11.2441V10.3145H34.3684V11.2441ZM28.3118 19.9531V19.0645H39.4407V19.9531H28.3118ZM45.3404 10.2461V11.1484H41.731V12.6523H44.8345V13.5H41.731V15.1543C43.4947 15.1475 44.5816 15.0791 45.8873 14.8398L45.9966 15.7012C44.5884 15.9678 43.44 16.0225 41.4713 16.0293H40.7056V10.2461H45.3404ZM42.4283 21.4434V17.3418H50.4537V21.4434H42.4283ZM43.481 20.5684H49.4009V18.2168H43.481V20.5684ZM45.4088 13.4043V12.5156H47.0494V9.67188H48.0884V16.6719H47.0494V13.4043H45.4088ZM49.4283 16.7812V9.45312H50.4537V16.7812H49.4283ZM65.6027 9.45312V21.6074H64.5636V9.45312H65.6027ZM55.3351 14.7031C55.3419 12.1191 56.3673 10.4854 57.9464 10.4785C59.423 10.4854 60.421 11.9072 60.5577 14.1973H62.13V9.71289H63.1554V20.9922H62.13V15.0859H60.5646C60.462 17.4512 59.4435 18.9346 57.9464 18.9277C56.3673 18.9346 55.3419 17.2871 55.3351 14.7031ZM56.3468 14.7031C56.3331 16.6719 56.962 17.916 57.9464 17.9023C58.9376 17.916 59.5665 16.6719 59.5597 14.7031C59.5665 12.7275 58.9376 11.4902 57.9464 11.4902C56.962 11.4902 56.3331 12.7275 56.3468 14.7031ZM70.2719 10.3965C71.9262 10.4033 73.1225 11.8252 73.2865 14.1016H76.0141V9.45312H77.0805V21.6348H76.0141V14.9902H73.3002C73.184 17.376 71.9672 18.8662 70.2719 18.8594C68.474 18.8662 67.2162 17.2256 67.223 14.6348C67.2162 12.0508 68.474 10.4033 70.2719 10.3965ZM68.2484 14.6348C68.2553 16.6104 69.0756 17.9092 70.2719 17.9023C71.4613 17.9092 72.2953 16.6104 72.2953 14.6348C72.2953 12.6592 71.4613 11.3604 70.2719 11.3535C69.0756 11.3604 68.2553 12.6592 68.2484 14.6348ZM85.1403 10.4375C85.1266 13.5752 83.5065 15.9336 79.5895 17.2461L79.152 16.3848C81.237 15.6943 82.5632 14.7305 83.3014 13.541L79.2751 13.8828L79.0837 12.9941L83.6843 12.7754C83.862 12.3174 83.9714 11.832 84.0124 11.3262H79.6989V10.4375H85.1403ZM81.2165 21.3477V17.5879H82.3102V20.4453H89.2419V21.3477H81.2165ZM85.113 14.2383V13.3359H87.82V9.4668H88.9001V18.4902H87.82V14.2383H85.113Z" fill="white"/>
<rect x="115.5" y="0.5" width="121" height="31" rx="15.5" stroke="white"/>
<path d="M141.814 9.4668V16.8359H140.789V13.541H139.039V16.3848H138.041V9.69922H139.039V12.6387H140.789V9.4668H141.814ZM132.107 15.7012V10.4375H133.174V14.7988C134.459 14.792 135.696 14.7168 137.193 14.4297L137.289 15.3184C135.662 15.6396 134.329 15.7012 132.873 15.7012H132.107ZM133.721 19.3105C133.707 17.8682 135.272 17.0205 137.795 17.0137C140.304 17.0205 141.876 17.8682 141.883 19.3105C141.876 20.7324 140.304 21.5801 137.795 21.5801C135.272 21.5801 133.707 20.7324 133.721 19.3105ZM134.787 19.3105C134.773 20.1924 135.942 20.7256 137.795 20.7188C139.641 20.7256 140.803 20.1924 140.816 19.3105C140.803 18.4082 139.641 17.8682 137.795 17.875C135.942 17.8682 134.773 18.4082 134.787 19.3105ZM154.4 15.4688V16.3301H143.312V15.4688H148.329V14.0469H144.72V10.0273H153.019V10.8887H145.773V13.1719H153.101V14.0469H149.368V15.4688H154.4ZM144.652 19.4062C144.645 18.0186 146.224 17.2256 148.849 17.2188C151.453 17.2256 153.019 18.0186 153.033 19.4062C153.019 20.8076 151.453 21.5938 148.849 21.6074C146.224 21.5938 144.645 20.8076 144.652 19.4062ZM145.745 19.4062C145.732 20.2607 146.901 20.7529 148.849 20.7461C150.777 20.7529 151.946 20.2607 151.952 19.4062C151.946 18.5654 150.777 18.0664 148.849 18.0664C146.901 18.0664 145.732 18.5654 145.745 19.4062ZM163.861 17.1367C166.466 17.1367 168.12 17.957 168.127 19.3652C168.12 20.7598 166.466 21.5801 163.861 21.5801C161.257 21.5801 159.602 20.7598 159.609 19.3652C159.602 17.957 161.257 17.1367 163.861 17.1367ZM158.379 16.002V15.127H162.959V12.7754H164.012V15.127H169.439V16.002H158.379ZM159.691 10.957V10.082H168.031V11.1074C168.024 12.0918 168.024 13.0762 167.689 14.334L166.637 14.2109C166.965 12.96 166.965 12.0576 166.965 11.1074V10.957H159.691ZM160.676 19.3652C160.669 20.2129 161.927 20.7324 163.861 20.7324C165.803 20.7324 167.047 20.2129 167.06 19.3652C167.047 18.4971 165.803 17.9639 163.861 17.957C161.927 17.9639 160.669 18.4971 160.676 19.3652ZM181.314 19.1465V20.0488H170.185V19.1465H175.202V16.1934H176.282V19.1465H181.314ZM170.732 15.7559C172.789 15.4072 175.175 13.7051 175.175 11.7637V11.4629H171.101V10.5605H180.357V11.4629H176.282V11.7637C176.289 13.7051 178.682 15.373 180.78 15.7148L180.343 16.5625C178.484 16.1934 176.522 15.0107 175.742 13.3291C174.963 15.0312 173.008 16.2412 171.183 16.6172L170.732 15.7559ZM189.558 12.7207C189.551 14.9424 191.062 17.1709 192.853 17.9844L192.197 18.832C190.809 18.1621 189.613 16.7197 189.032 14.9902C188.471 16.8223 187.275 18.3604 185.853 19.0781L185.17 18.1758C186.981 17.3486 188.478 15.0244 188.492 12.7207V10.5059H189.558V12.7207ZM194.179 21.6348V9.45312H195.259V21.6348H194.179ZM203.114 11.2441C203.121 13.3291 205.5 15.1816 207.612 15.5781L207.12 16.4805C205.281 16.0566 203.353 14.751 202.567 12.9668C201.774 14.751 199.853 16.0498 198.015 16.4805L197.522 15.5781C199.628 15.1748 201.986 13.3359 201.993 11.2441V10.3145H203.114V11.2441ZM197.058 19.9531V19.0645H208.186V19.9531H197.058ZM214.086 10.2461V11.1484H210.477V12.6523H213.58V13.5H210.477V15.1543C212.24 15.1475 213.327 15.0791 214.633 14.8398L214.742 15.7012C213.334 15.9678 212.186 16.0225 210.217 16.0293H209.451V10.2461H214.086ZM211.174 21.4434V17.3418H219.199V21.4434H211.174ZM212.227 20.5684H218.147V18.2168H212.227V20.5684ZM214.155 13.4043V12.5156H215.795V9.67188H216.834V16.6719H215.795V13.4043H214.155ZM218.174 16.7812V9.45312H219.199V16.7812H218.174Z" fill="white"/>
<rect x="245.5" y="0.5" width="141" height="31" rx="15.5" stroke="white"/>
<path d="M271.24 10.6836V11.9004C271.227 13.3906 271.227 15.0586 270.789 17.5059L269.695 17.3828C270.153 15.0586 270.153 13.3564 270.16 11.9004V11.5723H262.668V10.6836H271.24ZM261.492 19.8848V18.9961H265.84V14.6484H266.893V18.9961H272.566V19.8848H261.492ZM283.812 11.2715V12.1602H273.859V11.2715H278.316V9.6582H279.368V11.2715H283.812ZM273.312 20.2129V19.3242H276.251V17.0752C275.349 16.6924 274.85 16.0635 274.857 15.2363C274.843 13.7871 276.367 12.9463 278.849 12.9531C281.31 12.9463 282.848 13.7871 282.841 15.2363C282.848 16.0635 282.335 16.6924 281.433 17.0752V19.3242H284.441V20.2129H273.312ZM275.937 15.2363C275.923 16.1182 277.037 16.6514 278.849 16.6582C280.64 16.6514 281.754 16.1182 281.747 15.2363C281.754 14.334 280.64 13.8008 278.849 13.8008C277.037 13.8008 275.923 14.334 275.937 15.2363ZM277.331 19.3242H280.38V17.376C279.922 17.4648 279.409 17.5059 278.849 17.5059C278.295 17.5059 277.783 17.4648 277.331 17.3828V19.3242ZM290.669 9.60352C293.369 9.60352 294.955 10.3555 294.961 11.709C294.955 13.0762 293.369 13.8213 290.669 13.8281C287.955 13.8213 286.362 13.0762 286.362 11.709C286.362 10.3555 287.955 9.60352 290.669 9.60352ZM285.131 15.4414V14.5664H296.206V15.4414H293.116V16.6445H294.784V19.3652H287.565V20.623H295.153V21.4707H286.499V18.5723H293.731V17.4648H286.471V16.6445H288.153V15.4414H285.131ZM287.483 11.709C287.469 12.543 288.652 12.9941 290.669 13.0078C292.685 12.9941 293.861 12.543 293.868 11.709C293.861 10.9092 292.685 10.4375 290.669 10.4238C288.652 10.4375 287.469 10.9092 287.483 11.709ZM289.206 16.6445H292.049V15.4414H289.206V16.6445ZM310.507 9.4668V16.8359H309.482V13.541H307.732V16.3848H306.734V9.69922H307.732V12.6387H309.482V9.4668H310.507ZM300.8 15.7012V10.4375H301.866V14.7988C303.151 14.792 304.389 14.7168 305.886 14.4297L305.982 15.3184C304.355 15.6396 303.022 15.7012 301.566 15.7012H300.8ZM302.413 19.3105C302.4 17.8682 303.965 17.0205 306.487 17.0137C308.996 17.0205 310.568 17.8682 310.575 19.3105C310.568 20.7324 308.996 21.5801 306.487 21.5801C303.965 21.5801 302.4 20.7324 302.413 19.3105ZM303.48 19.3105C303.466 20.1924 304.635 20.7256 306.487 20.7188C308.333 20.7256 309.495 20.1924 309.509 19.3105C309.495 18.4082 308.333 17.8682 306.487 17.875C304.635 17.8682 303.466 18.4082 303.48 19.3105ZM323.092 15.4688V16.3301H312.004V15.4688H317.022V14.0469H313.412V10.0273H321.711V10.8887H314.465V13.1719H321.793V14.0469H318.061V15.4688H323.092ZM313.344 19.4062C313.337 18.0186 314.916 17.2256 317.541 17.2188C320.146 17.2256 321.711 18.0186 321.725 19.4062C321.711 20.8076 320.146 21.5938 317.541 21.6074C314.916 21.5938 313.337 20.8076 313.344 19.4062ZM314.438 19.4062C314.424 20.2607 315.593 20.7529 317.541 20.7461C319.469 20.7529 320.638 20.2607 320.645 19.4062C320.638 18.5654 319.469 18.0664 317.541 18.0664C315.593 18.0664 314.424 18.5654 314.438 19.4062ZM333.873 9.45312V21.6074H332.793V9.45312H333.873ZM323.974 18.4492C327.262 16.8906 328.944 14.5596 329.183 11.6543H324.535V10.7793H330.277C330.263 14.2725 328.636 17.3691 324.562 19.3242L323.974 18.4492ZM336.395 16.7266C336.409 14.1494 337.106 12.0029 338.364 10.1777H339.403C338.48 11.5244 337.619 14.293 337.612 16.7266C337.619 19.167 338.48 21.9287 339.403 23.2891H338.364C337.106 21.457 336.409 19.3105 336.395 16.7266ZM347.217 10.6016H348.448V17.1504C348.448 19.1875 346.923 20.6709 344.592 20.6777C342.254 20.6709 340.737 19.1875 340.737 17.1504V10.6016H341.967V17.0547C341.96 18.4902 342.958 19.5225 344.592 19.5293C346.226 19.5225 347.21 18.4902 347.217 17.0547V10.6016ZM355.755 13.0898C355.653 12.1191 354.751 11.5586 353.568 11.5586C352.255 11.5586 351.401 12.2422 351.394 13.1855C351.401 14.2246 352.556 14.6143 353.308 14.7988L354.293 15.0723C355.352 15.3457 357.095 15.9541 357.095 17.8066C357.095 19.4199 355.796 20.6709 353.5 20.6777C351.367 20.6709 350.047 19.5703 349.931 17.9297H351.189C351.292 19.0371 352.324 19.5635 353.5 19.5566C354.867 19.5635 355.892 18.8594 355.892 17.7793C355.892 16.8154 354.976 16.4463 353.937 16.1523L352.72 15.8242C351.168 15.373 350.198 14.5801 350.205 13.2402C350.198 11.5654 351.688 10.4648 353.609 10.4648C355.53 10.4648 356.911 11.5859 356.959 13.0898H355.755ZM359.208 10.6016L361.723 14.6895H361.805L364.335 10.6016H365.784L362.68 15.5508L365.784 20.5H364.335L361.805 16.4941H361.723L359.194 20.5H357.745L360.93 15.5508L357.745 10.6016H359.208ZM369.305 16.7266C369.291 19.3105 368.594 21.457 367.336 23.2891H366.297C367.22 21.9287 368.081 19.167 368.088 16.7266C368.081 14.293 367.22 11.5244 366.297 10.1777H367.336C368.594 12.0029 369.291 14.1494 369.305 16.7266Z" fill="white"/>
<rect x="395.5" y="0.5" width="94" height="31" rx="15.5" stroke="white"/>
<path d="M421.91 9.45312V21.6074H420.871V9.45312H421.91ZM411.643 14.7031C411.649 12.1191 412.675 10.4854 414.254 10.4785C415.73 10.4854 416.729 11.9072 416.865 14.1973H418.438V9.71289H419.463V20.9922H418.438V15.0859H416.872C416.77 17.4512 415.751 18.9346 414.254 18.9277C412.675 18.9346 411.649 17.2871 411.643 14.7031ZM412.654 14.7031C412.641 16.6719 413.27 17.916 414.254 17.9023C415.245 17.916 415.874 16.6719 415.867 14.7031C415.874 12.7275 415.245 11.4902 414.254 11.4902C413.27 11.4902 412.641 12.7275 412.654 14.7031ZM433.402 9.45312V21.6348H432.322V14.3613H428.534V13.4727H432.322V9.45312H433.402ZM423.982 18.6816V10.8203H425.062V17.7793C426.921 17.7588 428.569 17.6631 430.394 17.2871L430.531 18.1758C428.589 18.5791 426.88 18.6816 424.911 18.6816H423.982ZM439.479 13.1855C439.486 15.25 440.983 17.3486 442.774 18.1211L442.172 18.9688C440.751 18.3262 439.527 16.9248 438.96 15.2432C438.392 17.0273 437.162 18.5723 435.774 19.2695L435.131 18.4219C436.875 17.5879 438.392 15.291 438.399 13.1855V11.5996H435.528V10.7109H442.378V11.5996H439.479V13.1855ZM444.073 21.6074V9.45312H445.153V21.6074H444.073ZM460.685 11.2715V12.1602H450.732V11.2715H455.189V9.6582H456.241V11.2715H460.685ZM450.185 20.2129V19.3242H453.124V17.0752C452.222 16.6924 451.723 16.0635 451.73 15.2363C451.716 13.7871 453.24 12.9463 455.722 12.9531C458.183 12.9463 459.721 13.7871 459.714 15.2363C459.721 16.0635 459.208 16.6924 458.306 17.0752V19.3242H461.314V20.2129H450.185ZM452.81 15.2363C452.796 16.1182 453.91 16.6514 455.722 16.6582C457.513 16.6514 458.627 16.1182 458.62 15.2363C458.627 14.334 457.513 13.8008 455.722 13.8008C453.91 13.8008 452.796 14.334 452.81 15.2363ZM454.204 19.3242H457.253V17.376C456.795 17.4648 456.282 17.5059 455.722 17.5059C455.168 17.5059 454.655 17.4648 454.204 17.3828V19.3242ZM467.541 9.60352C470.242 9.60352 471.828 10.3555 471.834 11.709C471.828 13.0762 470.242 13.8213 467.541 13.8281C464.828 13.8213 463.235 13.0762 463.235 11.709C463.235 10.3555 464.828 9.60352 467.541 9.60352ZM462.004 15.4414V14.5664H473.079V15.4414H469.989V16.6445H471.657V19.3652H464.438V20.623H472.026V21.4707H463.371V18.5723H470.604V17.4648H463.344V16.6445H465.026V15.4414H462.004ZM464.356 11.709C464.342 12.543 465.525 12.9941 467.541 13.0078C469.558 12.9941 470.734 12.543 470.741 11.709C470.734 10.9092 469.558 10.4375 467.541 10.4238C465.525 10.4375 464.342 10.9092 464.356 11.709ZM466.079 16.6445H468.922V15.4414H466.079V16.6445Z" fill="white"/>
<rect x="498.5" y="0.5" width="82" height="31" rx="15.5" stroke="white"/>
<path d="M515.531 20.5H514.246L517.869 10.6016H519.168L522.791 20.5H521.492L520.501 17.7109H516.522L515.531 20.5ZM516.898 16.6309H520.125L518.553 12.2012H518.471L516.898 16.6309ZM525.081 10.6016V20.5H523.851V10.6016H525.081ZM540.75 19.1602V20.0488H529.621V19.1602H534.625V16.5352H530.933V10.3145H532.014V12.5156H538.33V10.3145H539.383V16.5352H535.678V19.1602H540.75ZM532.014 15.6602H538.33V13.3906H532.014V15.6602ZM544.886 9.9043C546.704 9.91113 548.024 11.0186 548.03 12.5977C548.024 14.1836 546.704 15.2773 544.886 15.2773C543.047 15.2773 541.721 14.1836 541.728 12.5977C541.721 11.0186 543.047 9.91113 544.886 9.9043ZM542.78 12.5977C542.767 13.6641 543.662 14.4023 544.886 14.4023C546.089 14.4023 546.991 13.6641 546.991 12.5977C546.991 11.5449 546.089 10.7998 544.886 10.8066C543.662 10.7998 542.767 11.5449 542.78 12.5977ZM543.573 17.1504V16.2891H551.476V19.2148H544.653V20.582H551.913V21.4434H543.601V18.4082H550.409V17.1504H543.573ZM550.409 15.7012V9.45312H551.476V15.7012H550.409ZM563.323 9.45312V21.6348H562.256V15.0312H559.891V14.1289H562.256V9.45312H563.323ZM553.684 11.4766V10.5879H559.153V14.8398H554.791V17.793C556.89 17.793 558.408 17.7246 560.178 17.3965L560.26 18.2988C558.435 18.627 556.856 18.7021 554.655 18.709H553.725V13.9512H558.114V11.4766H553.684Z" fill="white"/>
</svg>
