<svg width="368" height="144" viewBox="0 0 368 144" fill="none" xmlns="http://www.w3.org/2000/svg">
<path d="M10.3906 4.6875V16H8.35938L3.39062 8.8125H3.29688V16H0.953125V4.6875H3.01562L7.95312 11.875H8.0625V4.6875H10.3906ZM15.7738 16.1719C13.1722 16.1641 11.5784 14.4844 11.5863 11.7969C11.5784 9.17969 13.1956 7.40625 15.68 7.40625C17.9066 7.40625 19.6644 8.8125 19.6644 11.7031V12.3594H13.8675C13.8675 13.6406 14.6253 14.4297 15.8206 14.4375C16.6097 14.4297 17.1722 14.0859 17.3988 13.5781H19.6019C19.2738 15.1484 17.8675 16.1641 15.7738 16.1719ZM13.8675 10.9062H17.4769C17.4691 9.875 16.7581 9.13281 15.7269 9.14062C14.6644 9.13281 13.9144 9.92969 13.8675 10.9062ZM22.4069 16L20.0944 7.51562H22.4381L23.7663 13.25H23.8444L25.235 7.51562H27.5319L28.9381 13.2188H29.0163L30.3288 7.51562H32.6725L30.3444 16H27.9069L26.4381 10.6094H26.3288L24.86 16H22.4069ZM38.3681 10.0312C38.2666 9.4375 37.7509 9.05469 36.9775 9.04688C36.2275 9.05469 35.6572 9.40625 35.665 9.92188C35.6572 10.3047 35.9541 10.6016 36.7588 10.7656L38.2744 11.0781C39.9228 11.4219 40.7197 12.1562 40.7275 13.375C40.7197 15.0469 39.2197 16.1641 36.9619 16.1719C34.6728 16.1641 33.3291 15.1406 33.1338 13.4844H35.4619C35.5713 14.1484 36.1103 14.4922 36.9619 14.5C37.8056 14.4922 38.3681 14.1562 38.3681 13.6094C38.3681 13.1719 38.0088 12.8984 37.2119 12.7344L35.8056 12.4531C34.1884 12.1328 33.3603 11.3047 33.3681 10.0469C33.3603 8.42188 34.7588 7.40625 36.9463 7.40625C39.0869 7.40625 40.415 8.42188 40.54 10.0312H38.3681Z" fill="#295FCC"/>
<path d="M5.29102 45.9082C5.2998 47.6396 6.50391 49.3887 8.50781 50.1445L7.78711 51.1992C6.28418 50.6191 5.20312 49.5029 4.64062 48.1582C4.06934 49.6436 2.94434 50.9707 1.40625 51.6387L0.650391 50.5664C2.70703 49.6699 3.96387 47.6484 3.97266 45.9082V43.7812H5.29102V45.9082ZM3.49805 55.6113C3.48047 53.8447 5.48438 52.8076 8.73633 52.8164C11.9707 52.8076 13.9834 53.8447 13.9922 55.6113C13.9834 57.3604 11.9707 58.3887 8.73633 58.3887C5.48438 58.3887 3.48047 57.3604 3.49805 55.6113ZM4.86914 55.6113C4.85156 56.6748 6.33691 57.3252 8.73633 57.3164C11.1094 57.3252 12.6035 56.6748 12.6211 55.6113C12.6035 54.5303 11.1094 53.8799 8.73633 53.8711C6.33691 53.8799 4.85156 54.5303 4.86914 55.6113ZM9.21094 51.9727V43.1133H10.5117V47.0156H12.5859V42.8145H13.9043V52.4648H12.5859V48.1582H10.5117V51.9727H9.21094ZM28.0287 42.7969V46.8047H30.3666V47.9824H28.0287V52.0254H26.64V42.7969H28.0287ZM15.7591 50.6191C17.0072 50.6191 18.4662 50.6191 19.9955 50.5752V49.6084C18.1586 49.459 16.9984 48.7295 17.0072 47.543C16.9984 46.2598 18.4398 45.5127 20.6634 45.5215C22.8871 45.5127 24.3197 46.2598 24.3373 47.543C24.3197 48.7207 23.1859 49.4502 21.3666 49.6084V50.5225C22.8255 50.4521 24.3021 50.3379 25.6732 50.1445L25.7963 51.0762C22.4213 51.6299 18.6683 51.6562 15.9173 51.6562L15.7591 50.6191ZM16.1459 44.9941V43.9922H19.9955V42.6562H21.3666V43.9922H25.1986V44.9941H16.1459ZM17.8509 53.7129V52.7285H28.0287V55.875H19.2572V57.2637H28.6263V58.248H17.8861V54.9434H26.6576V53.7129H17.8509ZM18.3255 47.543C18.3168 48.2461 19.222 48.6943 20.6634 48.7031C22.1048 48.6943 23.0189 48.2461 23.0189 47.543C23.0189 46.8574 22.1048 46.4443 20.6634 46.4355C19.222 46.4443 18.3168 46.8574 18.3255 47.543ZM38.0925 52.6758C41.4411 52.6758 43.5681 53.7305 43.5769 55.541C43.5681 57.334 41.4411 58.3887 38.0925 58.3887C34.7439 58.3887 32.6169 57.334 32.6257 55.541C32.6169 53.7305 34.7439 52.6758 38.0925 52.6758ZM31.0437 51.2168V50.0918H36.9323V47.0684H38.2859V50.0918H45.2644V51.2168H31.0437ZM32.7312 44.7305V43.6055H43.4538V44.9238C43.445 46.1895 43.445 47.4551 43.0144 49.0723L41.6609 48.9141C42.0827 47.3057 42.0827 46.1455 42.0827 44.9238V44.7305H32.7312ZM33.9968 55.541C33.988 56.6309 35.6052 57.2988 38.0925 57.2988C40.5886 57.2988 42.1882 56.6309 42.2058 55.541C42.1882 54.4248 40.5886 53.7393 38.0925 53.7305C35.6052 53.7393 33.988 54.4248 33.9968 55.541ZM58.4395 42.7969V47.5605H60.795V48.7207H58.4395V54.2402H57.0509V42.7969H58.4395ZM46.2403 51.3223C49.9932 50.1533 52.4278 47.9297 52.7178 45.1699H46.8907V44.0098H54.2208C54.2208 48.0352 51.3468 51.0234 46.838 52.4297L46.2403 51.3223ZM48.6485 58.0898V53.0801H50.0196V56.9297H59.1602V58.0898H48.6485ZM74.8139 42.7969V58.4238H73.478V42.7969H74.8139ZM61.6127 49.5469C61.6215 46.2246 62.9399 44.124 64.9702 44.1152C66.8686 44.124 68.1518 45.9521 68.3276 48.8965H70.3491V43.1309H71.6674V57.6328H70.3491V50.0391H68.3364C68.2045 53.0801 66.895 54.9873 64.9702 54.9785C62.9399 54.9873 61.6215 52.8691 61.6127 49.5469ZM62.9135 49.5469C62.8959 52.0781 63.7045 53.6777 64.9702 53.6602C66.2446 53.6777 67.0532 52.0781 67.0444 49.5469C67.0532 47.0068 66.2446 45.416 64.9702 45.416C63.7045 45.416 62.8959 47.0068 62.9135 49.5469ZM82.118 46.998C82.1092 49.8281 83.9285 52.6758 86.1961 53.7129L85.3699 54.8379C83.5945 53.9238 82.1268 52.0605 81.4324 49.8369C80.7381 52.1748 79.2703 54.1787 77.4949 55.1191L76.5984 54.0117C78.8924 52.8867 80.7029 49.8809 80.7117 46.998V44.1504H82.118V46.998ZM84.491 49.2656V48.1406H88.2V42.7969H89.5711V58.459H88.2V49.2656H84.491ZM109.347 42.7969V58.4238H108.011V42.7969H109.347ZM96.5855 54.6621V44.7305H102.474V45.873H97.9214V53.502C100.18 53.4844 101.604 53.4053 103.283 53.0273L103.423 54.2051C101.613 54.5742 100.084 54.6533 97.5698 54.6621H96.5855ZM101.419 49.9336V48.7734H104.83V43.1836H106.148V57.6152H104.83V49.9336H101.419ZM124.052 42.7969V58.459H122.663V42.7969H124.052ZM111.747 49.459C111.756 46.1367 113.408 44.0186 115.737 44.0098C118.058 44.0186 119.736 46.1367 119.727 49.459C119.736 52.79 118.058 54.8994 115.737 54.8906C113.408 54.8994 111.756 52.79 111.747 49.459ZM113.083 49.459C113.083 51.999 114.173 53.6689 115.737 53.6602C117.31 53.6689 118.391 51.999 118.391 49.459C118.391 46.9189 117.31 45.249 115.737 45.2402C114.173 45.249 113.083 46.9189 113.083 49.459ZM139.319 42.7969V58.459H137.948V49.8457H134.643V48.7031H137.948V42.7969H139.319ZM127.084 54.6797V44.2383H134.379V45.3809H128.473V48.6328H133.694V49.7578H128.473V53.5371C131.338 53.5283 133.184 53.4492 135.328 53.0625L135.487 54.2051C133.21 54.5742 131.303 54.6797 128.28 54.6797H127.084ZM154.832 42.7969V54.5215H153.513V42.7969H154.832ZM141.613 51.1992C143.626 50.25 144.856 48.0879 144.847 46.2422V43.9043H146.183V46.2422C146.183 48.0703 147.326 49.9512 149.312 50.7949L148.539 51.8848C147.097 51.2256 146.069 50.0215 145.533 48.6064C144.979 50.1621 143.88 51.542 142.386 52.2715L141.613 51.1992ZM144.584 58.0898V53.0801H145.955V56.9297H155.306V58.0898H144.584ZM147.959 47.9121V46.7695H150.42V43.1133H151.755V54.082H150.42V47.9121H147.959ZM169.712 42.7969V58.459H168.341V49.8457H165.036V48.7031H168.341V42.7969H169.712ZM157.477 54.6797V44.2383H164.772V45.3809H158.866V48.6328H164.087V49.7578H158.866V53.5371C161.731 53.5283 163.577 53.4492 165.722 53.0625L165.88 54.2051C163.603 54.5742 161.696 54.6797 158.673 54.6797H157.477ZM184.328 42.7969V49.248H186.701V50.4082H184.328V58.4238H182.94V42.7969H184.328ZM171.901 54.0996C174.256 51.6826 175.214 48.7734 175.39 45.6621H172.393V44.502H176.7C176.682 48.2197 175.847 51.8936 173.008 54.8906L171.901 54.0996ZM176.383 55.1543C178.826 52.3945 179.556 48.9229 179.688 45.6621H177.192V44.502H180.989C180.98 48.2109 180.435 52.5264 177.508 55.9277L176.383 55.1543ZM192.74 47.5957C192.749 50.25 194.674 52.9482 196.976 53.9414L196.203 55.0312C194.375 54.2051 192.801 52.4033 192.072 50.2412C191.342 52.5352 189.76 54.5215 187.976 55.418L187.15 54.3281C189.391 53.2559 191.342 50.3027 191.351 47.5957V45.5566H187.66V44.4141H196.466V45.5566H192.74V47.5957ZM198.646 58.4238V42.7969H200.035V58.4238H198.646ZM210.688 44.0098C212.991 44.0186 214.625 46.1367 214.643 49.459C214.625 52.79 212.991 54.8994 210.688 54.8906C208.368 54.8994 206.742 52.79 206.75 49.459C206.742 46.1367 208.368 44.0186 210.688 44.0098ZM208.051 49.459C208.06 51.999 209.141 53.6689 210.688 53.6602C212.252 53.6689 213.307 51.999 213.307 49.459C213.307 46.9189 212.252 45.249 210.688 45.2402C209.141 45.249 208.06 46.9189 208.051 49.459ZM217.227 58.4238V42.7969H218.598V49.0371H221.217V50.2324H218.598V58.4238H217.227ZM235.992 51.7617V52.9219H229.47V58.4238H228.117V52.9219H221.683V51.7617H235.992ZM223.301 46.875C223.309 44.7568 225.515 43.4385 228.803 43.4297C232.081 43.4385 234.304 44.7568 234.304 46.875C234.304 48.958 232.081 50.2764 228.803 50.2676C225.515 50.2764 223.309 48.958 223.301 46.875ZM224.724 46.875C224.707 48.2637 226.368 49.1602 228.803 49.1602C231.237 49.1602 232.889 48.2637 232.898 46.875C232.889 45.46 231.237 44.5547 228.803 44.5547C226.368 44.5547 224.707 45.46 224.724 46.875ZM251.206 55.2949V56.4551H236.898V55.2949H251.206ZM238.655 45.1348V43.9922H249.396V48.7207H240.062V51.2871H249.765V52.3945H238.691V47.5957H248.042V45.1348H238.655ZM264.733 47.543V48.6504H254.028V43.377H255.399V47.543H264.733ZM252.077 51.9023V50.7773H266.385V51.9023H252.077ZM253.94 58.0371V53.502H255.311V56.8945H264.821V58.0371H253.94ZM284.72 42.8145V52.2891H283.402V48.0527H281.152V51.709H279.868V43.1133H281.152V46.8926H283.402V42.8145H284.72ZM272.239 50.8301V44.0625H273.611V49.6699C275.263 49.6611 276.854 49.5645 278.779 49.1953L278.902 50.3379C276.81 50.751 275.096 50.8301 273.224 50.8301H272.239ZM274.314 55.4707C274.296 53.6162 276.309 52.5264 279.552 52.5176C282.778 52.5264 284.799 53.6162 284.808 55.4707C284.799 57.2988 282.778 58.3887 279.552 58.3887C276.309 58.3887 274.296 57.2988 274.314 55.4707ZM275.685 55.4707C275.667 56.6045 277.17 57.29 279.552 57.2812C281.925 57.29 283.419 56.6045 283.437 55.4707C283.419 54.3105 281.925 53.6162 279.552 53.625C277.17 53.6162 275.667 54.3105 275.685 55.4707ZM300.901 50.5312V51.6387H286.645V50.5312H293.096V48.7031H288.456V43.5352H299.126V44.6426H289.809V47.5781H299.231V48.7031H294.432V50.5312H300.901ZM288.368 55.5938C288.359 53.8096 290.389 52.79 293.764 52.7812C297.113 52.79 299.126 53.8096 299.143 55.5938C299.126 57.3955 297.113 58.4062 293.764 58.4238C290.389 58.4062 288.359 57.3955 288.368 55.5938ZM289.774 55.5938C289.756 56.6924 291.259 57.3252 293.764 57.3164C296.243 57.3252 297.746 56.6924 297.754 55.5938C297.746 54.5127 296.243 53.8711 293.764 53.8711C291.259 53.8711 289.756 54.5127 289.774 55.5938ZM308.908 52.6758C312.257 52.6758 314.384 53.7305 314.392 55.541C314.384 57.334 312.257 58.3887 308.908 58.3887C305.559 58.3887 303.433 57.334 303.441 55.541C303.433 53.7305 305.559 52.6758 308.908 52.6758ZM301.859 51.2168V50.0918H307.748V47.0684H309.101V50.0918H316.08V51.2168H301.859ZM303.547 44.7305V43.6055H314.269V44.9238C314.261 46.1895 314.261 47.4551 313.83 49.0723L312.476 48.9141C312.898 47.3057 312.898 46.1455 312.898 44.9238V44.7305H303.547ZM304.812 55.541C304.804 56.6309 306.421 57.2988 308.908 57.2988C311.404 57.2988 313.004 56.6309 313.021 55.541C313.004 54.4248 311.404 53.7393 308.908 53.7305C306.421 53.7393 304.804 54.4248 304.812 55.541ZM331.347 55.2598V56.4199H317.038V55.2598H323.49V51.4629H324.878V55.2598H331.347ZM317.741 50.9004C320.387 50.4521 323.454 48.2637 323.454 45.7676V45.3809H318.216V44.2207H330.116V45.3809H324.878V45.7676C324.887 48.2637 327.963 50.4082 330.661 50.8477L330.099 51.9375C327.708 51.4629 325.186 49.9424 324.184 47.7803C323.182 49.9688 320.668 51.5244 318.322 52.0078L317.741 50.9004ZM349.312 42.7969V58.4238H347.924V42.7969H349.312ZM336.586 54.3633C340.813 52.3594 342.976 49.3623 343.283 45.627H337.307V44.502H344.689C344.672 48.9932 342.58 52.9746 337.342 55.4883L336.586 54.3633ZM359.429 43.4824C359.42 45.4248 362.242 46.9189 365.054 47.2617L364.562 48.3164C362.101 47.9824 359.693 46.8838 358.708 45.1963C357.706 46.8838 355.289 47.9824 352.855 48.3164L352.38 47.2617C355.184 46.9189 358.005 45.4248 358.005 43.4824V42.8848H359.429V43.4824ZM351.589 50.4609V49.3359H365.828V50.4609H359.376V52.0254H363.999V55.5762H354.718V57.1582H364.474V58.248H353.347V54.5391H362.646V53.1152H353.312V52.0254H358.005V50.4609H351.589ZM8.05078 70.7637V75.1406H2.67188V77.5664C5.60742 77.5752 7.12793 77.5137 8.96484 77.1797L9.10547 78.3223C7.16309 78.6387 5.57227 78.6914 2.4082 78.6914H1.30078V74.0859H6.67969V71.8711H1.26562V70.7637H8.05078ZM3.05859 81.3809V80.2559H13.5879V85.459H12.1992V81.3809H3.05859ZM9.08789 76.5117V75.3691H12.1992V73.2598H9.08789V72.1348H12.1992V69.8145H13.5879V79.4121H12.1992V76.5117H9.08789ZM18.3607 71.2734L18.2377 80.4141H16.7611L16.638 71.2734H18.3607ZM16.3744 82.9629C16.3568 82.3477 16.8841 81.8379 17.4994 81.8379C18.1234 81.8379 18.6332 82.3477 18.6244 82.9629C18.6332 83.5869 18.1234 84.0967 17.4994 84.1055C16.8841 84.0967 16.3568 83.5869 16.3744 82.9629ZM31.3692 70.8164C34.6915 70.834 37.0821 72.4512 37.0821 74.9121C37.0821 77.2412 35.0079 78.7793 32.0372 78.9814V82.2598H38.5587V83.4199H24.2501V82.2598H30.6837V78.9814C27.7305 78.7705 25.6563 77.2324 25.6563 74.9121C25.6563 72.4512 28.0557 70.834 31.3692 70.8164ZM26.9923 74.9121C26.9835 76.7139 28.838 77.8828 31.3692 77.9004C33.9005 77.8828 35.7462 76.7139 35.7462 74.9121C35.7462 73.1455 33.9005 71.9502 31.3692 71.959C28.838 71.9502 26.9835 73.1455 26.9923 74.9121ZM46.144 70.9219V72.0469H41.5034V74.0859H45.4936V75.1934H41.5034V77.3906C43.7709 77.3906 45.1684 77.3027 46.8471 76.9688L46.9877 78.1113C45.1772 78.4541 43.7006 78.5156 41.1694 78.5156H40.185V70.9219H46.144ZM42.1186 81.3457V80.2031H52.7182V85.4238H51.3647V81.3457H42.1186ZM46.2319 75.0703V73.9102H48.3413V70.1484H49.6772V79.3594H48.3413V75.0703H46.2319ZM51.3998 79.4648V69.8145H52.7182V79.4648H51.3998ZM68.0203 69.7969V85.4238H66.6844V77.2852H64.5047V84.6504H63.2039V70.1836H64.5047V76.1426H66.6844V69.7969H68.0203ZM54.7488 81.2051C57.201 79.8779 58.6512 78.2168 59.4334 76.3447L54.9598 76.8105L54.7488 75.5977L59.8113 75.2637C60.0311 74.4814 60.1541 73.6729 60.2068 72.8379H55.5223V71.6953H61.5867C61.5691 75.7295 60.3387 79.5879 55.575 82.1895L54.7488 81.2051ZM82.7423 69.7969V85.459H81.3712V69.7969H82.7423ZM70.7189 72.3984V71.2559H77.9962V76.8105H72.1603V80.502C74.7531 80.5107 77.0646 80.3877 79.8595 79.9395L80.0002 81.0996C77.1261 81.5479 74.7531 81.6621 72.0548 81.6621H70.7541V75.6855H76.6076V72.3984H70.7189ZM89.2378 71.0098C91.3648 71.0186 92.9029 72.8467 93.1138 75.7734H96.6206V69.7969H97.9917V85.459H96.6206V76.916H93.1314C92.982 79.9834 91.4175 81.8994 89.2378 81.8906C86.9263 81.8994 85.3091 79.79 85.3179 76.459C85.3091 73.1367 86.9263 71.0186 89.2378 71.0098ZM86.6363 76.459C86.645 78.999 87.6997 80.6689 89.2378 80.6602C90.7671 80.6689 91.8394 78.999 91.8394 76.459C91.8394 73.9189 90.7671 72.249 89.2378 72.2402C87.6997 72.249 86.645 73.9189 86.6363 76.459ZM102.8 82.8223L101.429 87.6035H100.128L101.095 82.8223H102.8ZM122.927 79.0781V80.2031H116.406V85.4238H115.052V80.2031H108.619V79.0781H122.927ZM110.447 77.1797V70.4473H111.818V72.6094H119.693V70.4473H121.082V77.1797H110.447ZM111.818 76.0547H119.693V73.7344H111.818V76.0547ZM129.089 72.75C129.08 74.9033 130.706 76.8896 133.009 77.6895L132.306 78.7969C130.53 78.1465 129.15 76.8281 128.456 75.1758C127.797 77.0391 126.382 78.4717 124.536 79.1836L123.78 78.0762C126.162 77.2412 127.727 75.123 127.735 72.6973V70.7637H129.089V72.75ZM126.294 85.0898V80.2383H127.7V83.9297H136.77V85.0898H126.294ZM134.679 81.3457V69.7969H136.05V74.5957H138.405V75.7734H136.05V81.3457H134.679ZM156.564 69.7969V85.4238H155.228V69.7969H156.564ZM143.802 81.6621V71.7305H149.691V72.873H145.138V80.502C147.397 80.4844 148.821 80.4053 150.5 80.0273L150.64 81.2051C148.83 81.5742 147.3 81.6533 144.787 81.6621H143.802ZM148.636 76.9336V75.7734H152.047V70.1836H153.365V84.6152H152.047V76.9336H148.636ZM171.269 69.7969V85.459H169.88V69.7969H171.269ZM158.964 76.459C158.973 73.1367 160.625 71.0186 162.954 71.0098C165.274 71.0186 166.953 73.1367 166.944 76.459C166.953 79.79 165.274 81.8994 162.954 81.8906C160.625 81.8994 158.973 79.79 158.964 76.459ZM160.3 76.459C160.3 78.999 161.39 80.6689 162.954 80.6602C164.527 80.6689 165.608 78.999 165.608 76.459C165.608 73.9189 164.527 72.249 162.954 72.2402C161.39 72.249 160.3 73.9189 160.3 76.459ZM186.536 69.7969V85.459H185.164V76.8457H181.86V75.7031H185.164V69.7969H186.536ZM174.301 81.6797V71.2383H181.596V72.3809H175.69V75.6328H180.911V76.7578H175.69V80.5371C178.555 80.5283 180.401 80.4492 182.545 80.0625L182.704 81.2051C180.427 81.5742 178.52 81.6797 175.496 81.6797H174.301ZM202.049 69.7969V81.5215H200.73V69.7969H202.049ZM188.83 78.1992C190.843 77.25 192.073 75.0879 192.064 73.2422V70.9043H193.4V73.2422C193.4 75.0703 194.543 76.9512 196.529 77.7949L195.756 78.8848C194.314 78.2256 193.286 77.0215 192.75 75.6064C192.196 77.1621 191.097 78.542 189.603 79.2715L188.83 78.1992ZM191.801 85.0898V80.0801H193.172V83.9297H202.523V85.0898H191.801ZM195.176 74.9121V73.7695H197.636V70.1133H198.972V81.082H197.636V74.9121H195.176ZM216.929 69.7969V85.459H215.558V76.8457H212.253V75.7031H215.558V69.7969H216.929ZM204.694 81.6797V71.2383H211.989V72.3809H206.083V75.6328H211.304V76.7578H206.083V80.5371C208.948 80.5283 210.794 80.4492 212.939 80.0625L213.097 81.2051C210.82 81.5742 208.913 81.6797 205.89 81.6797H204.694ZM236.599 69.8145V79.2891H235.281V75.0527H233.031V78.709H231.748V70.1133H233.031V73.8926H235.281V69.8145H236.599ZM224.119 77.8301V71.0625H225.49V76.6699C227.142 76.6611 228.733 76.5645 230.658 76.1953L230.781 77.3379C228.689 77.751 226.975 77.8301 225.103 77.8301H224.119ZM226.193 82.4707C226.176 80.6162 228.188 79.5264 231.431 79.5176C234.657 79.5264 236.679 80.6162 236.687 82.4707C236.679 84.2988 234.657 85.3887 231.431 85.3887C228.188 85.3887 226.176 84.2988 226.193 82.4707ZM227.564 82.4707C227.547 83.6045 229.05 84.29 231.431 84.2812C233.805 84.29 235.299 83.6045 235.316 82.4707C235.299 81.3105 233.805 80.6162 231.431 80.625C229.05 80.6162 227.547 81.3105 227.564 82.4707ZM250.741 69.7969V73.7695H253.097V74.9473H250.741V78.9727H249.37V69.7969H250.741ZM238.507 77.7246C242.339 76.6875 244.703 74.5957 244.985 71.9414H239.21V70.7988H246.452C246.444 74.7539 243.684 77.5752 239.07 78.7969L238.507 77.7246ZM240.511 80.8184V79.6934H250.741V85.4238H249.37V80.8184H240.511ZM259.012 72.7676C259.021 74.8154 260.55 76.6436 262.844 77.3906L262.194 78.4805C260.392 77.8828 259.03 76.6436 258.353 75.0703C257.685 76.8633 256.244 78.2607 254.372 78.9375L253.669 77.8301C256.006 77.0391 257.641 75.0264 257.659 72.7676V72.0996H254.09V70.957H262.528V72.0996H259.012V72.7676ZM255.743 82.5059C255.752 80.7041 257.711 79.6582 260.928 79.6582C264.136 79.6582 266.079 80.7041 266.079 82.5059C266.079 84.334 264.136 85.3887 260.928 85.3887C257.711 85.3887 255.752 84.334 255.743 82.5059ZM257.131 82.5059C257.114 83.6309 258.573 84.29 260.928 84.2812C263.293 84.29 264.734 83.6309 264.743 82.5059C264.734 81.416 263.293 80.7656 260.928 80.7656C258.573 80.7656 257.114 81.416 257.131 82.5059ZM264.567 79.2363V69.7969H265.938V73.7871H268.294V74.9473H265.938V79.2363H264.567ZM281.803 69.7969V85.459H280.414V69.7969H281.803ZM269.832 81.6797V71.1328H271.203V75.2637H275.861V71.1328H277.215V81.6797H269.832ZM271.203 80.5195H275.861V76.3711H271.203V80.5195ZM300.489 69.8145V73.2949H302.862V74.4727H300.489V77.9531H299.118V69.8145H300.489ZM289.028 77.1797V70.5352H290.417V76.0195C292.649 76.0107 294.943 75.8701 297.465 75.3516L297.641 76.5117C294.987 77.0127 292.623 77.1885 290.276 77.1797H289.028ZM290.592 85.2129V78.7617H291.946V80.8359H299.118V78.7617H300.489V85.2129H290.592ZM291.946 84.0879H299.118V81.9785H291.946V84.0879ZM317.707 77.3555V78.498H311.256V80.3438H315.967V85.2129H305.209V80.3438H309.902V78.498H303.469V77.3555H317.707ZM304.805 71.4492V70.3066H316.354V71.4492H313.945V74.7363H316.301V75.8789H304.857V74.7363H307.213V71.4492H304.805ZM306.58 84.0879H314.613V81.4336H306.58V84.0879ZM308.584 74.7363H312.574V71.4492H308.584V74.7363ZM328.061 73.998C328.061 76.749 329.881 79.5879 332.104 80.6777L331.26 81.7852C329.538 80.8887 328.096 79.0342 327.402 76.8633C326.708 79.166 325.231 81.1436 323.473 82.084L322.594 80.9766C324.88 79.8516 326.69 76.8545 326.708 73.998V71.1504H328.061V73.998ZM333.546 85.4238V69.7969H334.917V76.1426H337.536V77.3379H334.917V85.4238H333.546ZM342.326 70.5352C344.418 70.5264 346.018 71.748 346.316 73.541H349.586V69.7969H350.975V78.1816H349.586V74.6836H346.325C346.053 76.5293 344.444 77.7598 342.326 77.7598C339.944 77.7598 338.257 76.2832 338.266 74.1387C338.257 72.0205 339.944 70.5264 342.326 70.5352ZM339.584 74.1387C339.584 75.5625 340.718 76.5908 342.326 76.5996C343.9 76.5908 345.033 75.5625 345.033 74.1387C345.033 72.6973 343.9 71.6953 342.326 71.7129C340.718 71.6953 339.584 72.6973 339.584 74.1387ZM340.902 85.2129V78.9727H342.291V80.959H349.586V78.9727H350.975V85.2129H340.902ZM342.291 84.0879H349.586V82.0664H342.291V84.0879ZM354.869 84.1055C354.253 84.0967 353.726 83.5869 353.744 82.9629C353.726 82.3477 354.253 81.8379 354.869 81.8379C355.493 81.8379 356.002 82.3477 355.994 82.9629C356.002 83.5869 355.493 84.0967 354.869 84.1055ZM358.314 82.9629C358.296 82.3477 358.824 81.8379 359.439 81.8379C360.063 81.8379 360.573 82.3477 360.564 82.9629C360.573 83.5869 360.063 84.0967 359.439 84.1055C358.824 84.0967 358.296 83.5869 358.314 82.9629ZM362.884 82.9629C362.867 82.3477 363.394 81.8379 364.009 81.8379C364.633 81.8379 365.143 82.3477 365.134 82.9629C365.143 83.5869 364.633 84.0967 364.009 84.1055C363.394 84.0967 362.867 83.5869 362.884 82.9629Z" fill="black"/>
<path d="M0.929688 138L0.916016 137.098L4.29297 133.543C5.46191 132.299 6.02246 131.629 6.0293 130.713C6.02246 129.694 5.1748 129.038 4.06055 129.031C2.87793 129.038 2.13965 129.783 2.13281 130.891H0.970703C0.957031 129.141 2.31055 127.965 4.10156 127.965C5.89941 127.965 7.1709 129.175 7.17773 130.713C7.1709 131.82 6.6582 132.682 4.9082 134.486L2.63867 136.824V136.906H7.35547V138H0.929688ZM12.1067 138.137C9.91238 138.137 8.6409 136.291 8.64773 133.051C8.6409 129.838 9.92605 127.965 12.1067 127.965C14.2805 127.965 15.5657 129.838 15.5657 133.051C15.5657 136.291 14.3011 138.137 12.1067 138.137ZM9.83719 133.051C9.84402 135.614 10.6712 137.043 12.1067 137.043C13.5354 137.043 14.3694 135.614 14.3626 133.051C14.3694 130.487 13.5286 129.038 12.1067 129.031C10.6848 129.038 9.84402 130.487 9.83719 133.051ZM16.9263 138L16.9127 137.098L20.2896 133.543C21.4586 132.299 22.0191 131.629 22.0259 130.713C22.0191 129.694 21.1714 129.038 20.0572 129.031C18.8746 129.038 18.1363 129.783 18.1295 130.891H16.9673C16.9537 129.141 18.3072 127.965 20.0982 127.965C21.8961 127.965 23.1675 129.175 23.1744 130.713C23.1675 131.82 22.6548 132.682 20.9048 134.486L18.6353 136.824V136.906H23.3521V138H16.9263ZM28.0897 138.137C26.3055 138.137 24.952 137.036 24.8768 135.512H26.0662C26.1551 136.394 27.0164 137.05 28.0897 137.057C29.3748 137.05 30.3045 136.113 30.3045 134.869C30.3045 133.584 29.3407 132.634 28.0077 132.627C27.1737 132.613 26.5243 132.873 26.162 133.516H24.9725L25.6698 128.102H31.0291V129.195H26.6952L26.326 132.094H26.4217C26.8661 131.752 27.5291 131.52 28.2264 131.52C30.1131 131.52 31.5008 132.914 31.5077 134.842C31.5008 136.756 30.0653 138.137 28.0897 138.137ZM37.2023 132.518V133.598H32.8683V132.518H37.2023ZM42.2133 128.102V138H40.9691V129.387H40.9145L38.5082 130.986V129.742L40.9691 128.102H42.2133ZM44.572 138L44.5583 137.098L47.9352 133.543C49.1042 132.299 49.6647 131.629 49.6716 130.713C49.6647 129.694 48.8171 129.038 47.7028 129.031C46.5202 129.038 45.7819 129.783 45.7751 130.891H44.613C44.5993 129.141 45.9528 127.965 47.7438 127.965C49.5417 127.965 50.8132 129.175 50.82 130.713C50.8132 131.82 50.3005 132.682 48.5505 134.486L46.2809 136.824V136.906H50.9977V138H44.572ZM56.7744 132.518V133.598H52.4404V132.518H56.7744ZM61.7854 128.102V138H60.5412V129.387H60.4866L58.0803 130.986V129.742L60.5412 128.102H61.7854ZM67.5894 138.137C65.8736 138.116 63.98 137.098 63.98 133.434C63.98 129.927 65.4155 127.965 67.7398 127.965C69.4829 127.965 70.6997 129.038 70.9527 130.59H69.7359C69.5103 129.715 68.8404 129.059 67.7398 129.059C66.1128 129.059 65.1353 130.446 65.1421 132.832H65.2652C65.8325 132.005 66.7417 131.52 67.8081 131.52C69.565 131.52 71.0347 132.887 71.0347 134.801C71.0347 136.667 69.6743 138.157 67.5894 138.137ZM65.3062 134.828C65.313 135.99 66.2632 137.05 67.5894 137.057C68.8677 137.05 69.8384 136.045 69.8452 134.814C69.8384 133.598 68.9087 132.606 67.6167 132.6C66.3179 132.606 65.3198 133.659 65.3062 134.828Z" fill="#999999"/>
</svg>
