<svg width="464" height="44" viewBox="0 0 464 44" fill="none" xmlns="http://www.w3.org/2000/svg">
<path d="M12.0312 4.39062V14.5781H10.8125V4.39062H12.0312ZM0.703125 11.6094C2.80469 10.7891 4.23438 8.75781 4.23438 6.5625V5.17188H5.48438V6.5625C5.46875 8.67969 6.91406 10.5781 8.98438 11.3281L8.34375 12.3125C6.73438 11.6953 5.48438 10.4453 4.86719 8.84375C4.26562 10.5469 3 11.9141 1.375 12.5625L0.703125 11.6094ZM3.0625 17.9688V13.6406H4.28125V16.9375H12.4688V17.9688H3.0625ZM21.6844 5.67188V9.32812H15.9187V11.0938H22.075V12.0781H18.8562V14.4062C20.2078 14.3516 21.5672 14.2578 22.8406 14.1094L22.9344 15.0312C19.8562 15.5 16.4969 15.5625 13.8406 15.5469L13.6687 14.5C14.8875 14.5 16.2469 14.4922 17.6375 14.4531V12.0781H14.7V8.40625H20.4812V6.67188H14.6687V5.67188H21.6844ZM23.7625 18.2969V4.375H24.9812V18.2969H23.7625ZM37.4781 4.32812V7.70312H39.5875V8.71875H37.4781V12.0156H36.2594V4.32812H37.4781ZM26.65 6.625V5.64062H30.1812V4.23438H31.4V5.64062H34.9312V6.625H26.65ZM27.4469 9.53125C27.4391 8.125 28.7672 7.25781 30.7906 7.25C32.8062 7.25781 34.1187 8.125 34.1344 9.53125C34.1187 10.9453 32.8062 11.8047 30.7906 11.8125C28.7672 11.8047 27.4391 10.9453 27.4469 9.53125ZM28.6187 13.6562V12.7344H37.4781V15.8125H29.8531V17.1719H37.9937V18.1094H28.65V14.9062H36.2594V13.6562H28.6187ZM28.6187 9.53125C28.6109 10.3672 29.4703 10.8906 30.7906 10.8906C32.1031 10.8906 32.9625 10.3672 32.9781 9.53125C32.9625 8.70312 32.1031 8.16406 30.7906 8.15625C29.4703 8.16406 28.6109 8.70312 28.6187 9.53125ZM49.8312 5.67188C49.8391 7.63281 52.3859 9.32031 54.8937 9.67188L54.3937 10.6719C52.2375 10.3125 50.0969 9.11719 49.2062 7.41406C48.3156 9.13281 46.1828 10.3125 44.0187 10.6719L43.5187 9.67188C46.0266 9.32031 48.5656 7.66406 48.5656 5.67188V4.875H49.8312V5.67188ZM42.8625 13.2344V12.2031H55.5187V13.2344H49.7687V18.2656H48.5656V13.2344H42.8625ZM63.8094 13.7031C63.8016 14.9297 64.4656 16.2344 65.7859 16.9844C67.1141 16.1641 67.8172 14.7734 67.8094 13.7031V12.9375H69.0125V13.7031C69.0047 15.1328 70.0594 16.5547 71.8406 17.1719L71.2313 18.0781C69.8406 17.5859 68.8719 16.6172 68.3875 15.4531C67.9578 16.5781 67.1063 17.6484 65.825 18.1875C64.4734 17.6719 63.6141 16.6562 63.2 15.4922C62.7 16.6094 61.7469 17.5781 60.4188 18.0781L59.7938 17.1719C61.5516 16.5156 62.6063 15.0312 62.6219 13.7031V12.9375H63.8094V13.7031ZM59.4344 8.45312C59.4266 6.51562 60.9656 5.19531 63.075 5.20312C65.1844 5.19531 66.7078 6.51562 66.7156 8.45312C66.7078 10.3594 65.1844 11.6719 63.075 11.6719C60.9656 11.6719 59.4266 10.3594 59.4344 8.45312ZM60.6375 8.45312C60.6219 9.74219 61.6453 10.6484 63.075 10.6562C64.4891 10.6484 65.5125 9.74219 65.5125 8.45312C65.5125 7.15625 64.4891 6.23438 63.075 6.25C61.6453 6.23438 60.6219 7.15625 60.6375 8.45312ZM69.3563 12.3281V4.39062H70.575V12.3281H69.3563ZM83.3688 8.59375V9.57812H73.8531V4.89062H75.0719V8.59375H83.3688ZM72.1188 12.4688V11.4688H84.8375V12.4688H72.1188ZM73.775 17.9219V13.8906H74.9938V16.9062H83.4469V17.9219H73.775ZM94.7063 5.28125C97.6594 5.29688 99.7844 6.73438 99.7844 8.92188C99.7844 10.9922 97.9406 12.3594 95.3 12.5391V15.4531H101.097V16.4844H88.3781V15.4531H94.0969V12.5391C91.4719 12.3516 89.6281 10.9844 89.6281 8.92188C89.6281 6.73438 91.7609 5.29688 94.7063 5.28125ZM90.8156 8.92188C90.8078 10.5234 92.4563 11.5625 94.7063 11.5781C96.9563 11.5625 98.5969 10.5234 98.5969 8.92188C98.5969 7.35156 96.9563 6.28906 94.7063 6.29688C92.4563 6.28906 90.8078 7.35156 90.8156 8.92188ZM107.359 5.375V6.375H103.234V8.1875H106.781V9.17188H103.234V11.125C105.25 11.125 106.492 11.0469 107.984 10.75L108.109 11.7656C106.5 12.0703 105.188 12.125 102.938 12.125H102.062V5.375H107.359ZM103.781 14.6406V13.625H113.203V18.2656H112V14.6406H103.781ZM107.438 9.0625V8.03125H109.312V4.6875H110.5V12.875H109.312V9.0625H107.438ZM112.031 12.9688V4.39062H113.203V12.9688H112.031ZM126.325 4.375V18.2656H125.137V11.0312H123.2V17.5781H122.044V4.71875H123.2V10.0156H125.137V4.375H126.325ZM114.528 14.5156C116.708 13.3359 117.997 11.8594 118.692 10.1953L114.716 10.6094L114.528 9.53125L119.028 9.23438C119.223 8.53906 119.333 7.82031 119.38 7.07812H115.216V6.0625H120.606C120.591 9.64844 119.497 13.0781 115.262 15.3906L114.528 14.5156ZM138.931 4.375V18.2969H137.713V4.375H138.931ZM128.244 6.6875V5.67188H134.713V10.6094H129.525V13.8906C131.83 13.8984 133.884 13.7891 136.369 13.3906L136.494 14.4219C133.939 14.8203 131.83 14.9219 129.431 14.9219H128.275V9.60938H133.478V6.6875H128.244ZM144.225 5.45312C146.116 5.46094 147.483 7.08594 147.67 9.6875H150.788V4.375H152.006V18.2969H150.788V10.7031H147.686C147.553 13.4297 146.163 15.1328 144.225 15.125C142.17 15.1328 140.733 13.2578 140.741 10.2969C140.733 7.34375 142.17 5.46094 144.225 5.45312ZM141.913 10.2969C141.92 12.5547 142.858 14.0391 144.225 14.0312C145.584 14.0391 146.538 12.5547 146.538 10.2969C146.538 8.03906 145.584 6.55469 144.225 6.54688C142.858 6.55469 141.92 8.03906 141.913 10.2969ZM158.066 5.39062C160.245 5.39844 161.792 6.72656 161.8 8.65625C161.792 10.5938 160.245 11.9141 158.066 11.9219C155.87 11.9141 154.308 10.5938 154.316 8.65625C154.308 6.72656 155.87 5.39844 158.066 5.39062ZM153.597 14.1875C156.159 14.1953 159.698 14.1719 162.769 13.7188L162.863 14.625C159.683 15.2188 156.269 15.2344 153.769 15.2344L153.597 14.1875ZM155.519 8.65625C155.511 9.95312 156.581 10.8438 158.066 10.8438C159.534 10.8438 160.605 9.95312 160.597 8.65625C160.605 7.36719 159.534 6.46875 158.066 6.46875C156.581 6.46875 155.511 7.36719 155.519 8.65625ZM163.691 18.2969V4.375H164.909V18.2969H163.691ZM6.84375 35.1562C9.82031 35.1562 11.7109 36.0938 11.7188 37.7031C11.7109 39.2969 9.82031 40.2344 6.84375 40.2344C3.86719 40.2344 1.97656 39.2969 1.98438 37.7031C1.97656 36.0938 3.86719 35.1562 6.84375 35.1562ZM0.578125 33.8594V32.8594H5.8125V30.1719H7.01562V32.8594H13.2188V33.8594H0.578125ZM2.07812 28.0938V27.0938H11.6094V28.2656C11.6016 29.3906 11.6016 30.5156 11.2188 31.9531L10.0156 31.8125C10.3906 30.3828 10.3906 29.3516 10.3906 28.2656V28.0938H2.07812ZM3.20312 37.7031C3.19531 38.6719 4.63281 39.2656 6.84375 39.2656C9.0625 39.2656 10.4844 38.6719 10.5 37.7031C10.4844 36.7109 9.0625 36.1016 6.84375 36.0938C4.63281 36.1016 3.19531 36.7109 3.20312 37.7031ZM18.5125 28.3906C18.4969 30.4141 19.9656 32.2188 22.0281 32.9375L21.4031 33.9062C19.7937 33.3125 18.5203 32.1172 17.8953 30.5781C17.2859 32.2266 16.0047 33.5234 14.3719 34.1562L13.7312 33.1875C15.8094 32.4141 17.2625 30.4922 17.2625 28.3906V27.0625H18.5125V28.3906ZM15.7156 36.4531V35.4375H25.0594V40.2656H23.8406V36.4531H15.7156ZM23.8406 34.75V26.375H25.0594V34.75H23.8406ZM34.725 30.1094C34.7172 32.625 36.3344 35.1562 38.35 36.0781L37.6156 37.0781C36.0375 36.2656 34.7328 34.6094 34.1156 32.6328C33.4984 34.7109 32.1938 36.4922 30.6156 37.3281L29.8188 36.3438C31.8578 35.3438 33.4672 32.6719 33.475 30.1094V27.5781H34.725V30.1094ZM36.8344 32.125V31.125H40.1313V26.375H41.35V40.2969H40.1313V32.125H36.8344ZM54.3156 26.375V40.2969H53.0812V26.375H54.3156ZM43.675 36.9375V27.5625H44.8937V31.2344H49.0344V27.5625H50.2375V36.9375H43.675ZM44.8937 35.9062H49.0344V32.2188H44.8937V35.9062ZM62.8125 28.4219C62.8203 30.8047 65.5391 32.9219 67.9531 33.375L67.3906 34.4062C65.2891 33.9219 63.0859 32.4297 62.1875 30.3906C61.2812 32.4297 59.0859 33.9141 56.9844 34.4062L56.4219 33.375C58.8281 32.9141 61.5234 30.8125 61.5312 28.4219V27.3594H62.8125V28.4219ZM55.8906 38.375V37.3594H68.6094V38.375H55.8906ZM83.9313 26.375V36.7969H82.7594V26.375H83.9313ZM72.1813 33.8438C73.9703 33 75.0641 31.0781 75.0563 29.4375V27.3594H76.2438V29.4375C76.2438 31.0625 77.2594 32.7344 79.025 33.4844L78.3375 34.4531C77.0563 33.8672 76.1422 32.7969 75.6656 31.5391C75.1734 32.9219 74.1969 34.1484 72.8688 34.7969L72.1813 33.8438ZM74.8219 39.9688V35.5156H76.0406V38.9375H84.3531V39.9688H74.8219ZM77.8219 30.9219V29.9062H80.0094V26.6562H81.1969V36.4062H80.0094V30.9219H77.8219ZM96.6781 26.375V40.2969H95.4594V32.6406H92.5219V31.625H95.4594V26.375H96.6781ZM85.8031 36.9375V27.6562H92.2875V28.6719H87.0375V31.5625H91.6781V32.5625H87.0375V35.9219C89.5844 35.9141 91.225 35.8438 93.1312 35.5L93.2719 36.5156C91.2484 36.8438 89.5531 36.9375 86.8656 36.9375H85.8031ZM110.894 32.8281V33.7969H98.175V32.8281H110.894ZM99.7063 35.8281V34.9062H109.3V37.8594H100.956V39.1875H109.753V40.0781H99.7219V37.0156H108.081V35.8281H99.7063ZM99.7844 27.6875V26.7969H109.253V29.6719H101.05V30.8906H109.503V31.7812H99.8313V28.8281H108.019V27.6875H99.7844ZM125.278 26.3906V30.5938H127.356V31.625H125.278V35.7031H124.044V26.3906H125.278ZM114.372 34.2812C115.481 34.2812 116.778 34.2812 118.137 34.2422V33.2188C116.52 33.0703 115.473 32.3281 115.481 31.1719C115.473 29.9062 116.778 29.125 118.731 29.125C120.7 29.125 121.981 29.9062 121.997 31.1719C121.981 32.3203 120.966 33.0625 119.356 33.2188V34.1953C120.653 34.1328 121.966 34.0234 123.184 33.8438L123.294 34.7344C120.278 35.2656 116.958 35.2891 114.512 35.2812L114.372 34.2812ZM114.716 28.5938V27.6562H118.137V26.2656H119.356V27.6562H122.762V28.5938H114.716ZM116.075 37.375V36.3906H125.278V40.2656H124.044V37.375H116.075ZM116.653 31.1719C116.645 31.8984 117.45 32.3906 118.731 32.375C120.012 32.3906 120.825 31.8984 120.825 31.1719C120.825 30.4375 120.012 29.9844 118.731 30C117.45 29.9844 116.645 30.4375 116.653 31.1719ZM138.931 26.3906V36.5469H137.713V26.3906H138.931ZM127.791 30.7656C127.783 28.7656 129.353 27.3672 131.431 27.3594C133.509 27.3672 135.064 28.7656 135.072 30.7656C135.064 32.7891 133.509 34.1953 131.431 34.1875C129.353 34.1953 127.783 32.7891 127.791 30.7656ZM128.994 30.7656C128.978 32.1484 130.025 33.1094 131.431 33.1094C132.814 33.1094 133.869 32.1484 133.869 30.7656C133.869 29.4062 132.814 28.4375 131.431 28.4375C130.025 28.4375 128.978 29.4062 128.994 30.7656ZM129.963 39.9688V35.5156H131.181V38.9375H139.369V39.9688H129.963ZM151.241 26.375V32.1094H153.569V33.125H151.241V40.2656H150.022V26.375H151.241ZM140.413 29.625V28.6094H143.991V26.5469H145.209V28.6094H148.678V29.625H140.413ZM141.209 33.9688C141.202 32.0938 142.639 30.7812 144.616 30.7812C146.577 30.7812 148.006 32.0938 148.022 33.9688C148.006 35.8516 146.577 37.1562 144.616 37.1562C142.639 37.1562 141.202 35.8516 141.209 33.9688ZM142.381 33.9688C142.373 35.2344 143.319 36.125 144.616 36.1094C145.897 36.125 146.834 35.2344 146.85 33.9688C146.834 32.7109 145.897 31.8047 144.616 31.8125C143.319 31.8047 142.373 32.7109 142.381 33.9688ZM157.644 30.3281C157.644 32.5391 158.722 34.9219 160.566 36.0156L159.863 36.9688C158.519 36.1562 157.558 34.6719 157.073 32.9766C156.566 34.8281 155.534 36.4219 154.144 37.2656L153.363 36.3438C155.284 35.2188 156.456 32.7578 156.456 30.375V27.6875H157.644V30.3281ZM159.034 32.4062V31.3594H161.394V26.6719H162.55V39.5625H161.394V32.4062H159.034ZM164.238 40.2656V26.375H165.425V40.2656H164.238ZM179.266 37.4531V38.4844H166.547V37.4531H169.703V33.7109C168.516 33.0938 167.797 32.0938 167.797 30.8281C167.797 28.6797 169.906 27.2656 172.875 27.25C175.844 27.2656 177.953 28.6797 177.953 30.8281C177.953 32.0703 177.258 33.0547 176.109 33.6719V37.4531H179.266ZM168.984 30.8281C168.977 32.3828 170.594 33.4219 172.875 33.4219C175.133 33.4219 176.766 32.3828 176.766 30.8281C176.766 29.2734 175.133 28.25 172.875 28.2656C170.594 28.25 168.977 29.2734 168.984 30.8281ZM170.906 37.4531H174.875V34.1484C174.273 34.3047 173.602 34.3906 172.875 34.3906C172.164 34.3906 171.5 34.3125 170.906 34.1562V37.4531ZM181.044 39.0938C180.497 39.0859 180.028 38.6328 180.044 38.0781C180.028 37.5312 180.497 37.0781 181.044 37.0781C181.598 37.0781 182.052 37.5312 182.044 38.0781C182.052 38.6328 181.598 39.0859 181.044 39.0938Z" fill="black"/>
<path d="M436 26H456M456 26L446.909 17M456 26L446.909 35" stroke="black" stroke-width="2" stroke-linejoin="round"/>
</svg>
