<svg width="487" height="29" viewBox="0 0 487 29" fill="none" xmlns="http://www.w3.org/2000/svg">
<path d="M11.792 17.454C11.792 19.326 10.262 21.126 7.472 21.126C4.97 21.126 3.044 19.758 3.044 17.544H5.24C5.33 18.57 6.05 19.398 7.472 19.398C8.912 19.398 9.722 18.624 9.722 17.562C9.722 14.538 3.08 16.5 3.08 11.892C3.08 9.696 4.826 8.328 7.382 8.328C9.776 8.328 11.468 9.588 11.648 11.73H9.38C9.308 10.884 8.57 10.11 7.274 10.074C6.086 10.038 5.168 10.614 5.168 11.82C5.168 14.646 11.792 12.882 11.792 17.454ZM23.1953 11.082V21H21.1433V19.812C20.4953 20.658 19.3793 21.144 18.2093 21.144C15.8873 21.144 14.1233 19.686 14.1233 16.914V11.082H16.1573V16.608C16.1573 18.426 17.1473 19.362 18.6413 19.362C20.1533 19.362 21.1433 18.426 21.1433 16.608V11.082H23.1953ZM33.3007 18.228C33.3007 19.902 31.8427 21.162 29.5027 21.162C27.1267 21.162 25.4527 19.758 25.3627 17.958H27.4867C27.5587 18.768 28.3327 19.434 29.4667 19.434C30.6547 19.434 31.2847 18.93 31.2847 18.246C31.2847 16.302 25.5247 17.418 25.5247 13.782C25.5247 12.198 27.0007 10.92 29.3407 10.92C31.5907 10.92 33.0667 12.126 33.1747 14.106H31.1227C31.0507 13.242 30.3847 12.648 29.2687 12.648C28.1707 12.648 27.5947 13.098 27.5947 13.764C27.5947 15.762 33.1927 14.646 33.3007 18.228ZM35.842 18.246V12.756H34.672V11.082H35.842V8.616H37.912V11.082H40.324V12.756H37.912V18.246C37.912 18.984 38.2 19.29 39.064 19.29H40.324V21H38.704C36.94 21 35.842 20.262 35.842 18.246ZM41.5312 15.996C41.5312 12.936 43.6012 10.92 46.2112 10.92C47.8852 10.92 49.0372 11.712 49.6492 12.522V11.082H51.7192V21H49.6492V19.524C49.0192 20.37 47.8312 21.162 46.1752 21.162C43.6012 21.162 41.5312 19.056 41.5312 15.996ZM49.6492 16.032C49.6492 13.908 48.1912 12.702 46.6432 12.702C45.1132 12.702 43.6372 13.854 43.6372 15.996C43.6372 18.138 45.1132 19.38 46.6432 19.38C48.1912 19.38 49.6492 18.174 49.6492 16.032ZM54.4145 21V11.082H56.4665V21H54.4145ZM55.4585 9.768C54.7205 9.768 54.1445 9.192 54.1445 8.454C54.1445 7.716 54.7205 7.14 55.4585 7.14C56.1785 7.14 56.7545 7.716 56.7545 8.454C56.7545 9.192 56.1785 9.768 55.4585 9.768ZM66.1985 21V15.456C66.1985 13.638 65.2085 12.702 63.7145 12.702C62.2025 12.702 61.2125 13.638 61.2125 15.456V21H59.1605V11.082H61.2125V12.216C61.8785 11.406 62.9765 10.92 64.1645 10.92C66.4865 10.92 68.2325 12.378 68.2325 15.15V21H66.1985ZM70.166 15.996C70.166 12.936 72.236 10.92 74.846 10.92C76.52 10.92 77.672 11.712 78.284 12.522V11.082H80.354V21H78.284V19.524C77.654 20.37 76.466 21.162 74.81 21.162C72.236 21.162 70.166 19.056 70.166 15.996ZM78.284 16.032C78.284 13.908 76.826 12.702 75.278 12.702C73.748 12.702 72.272 13.854 72.272 15.996C72.272 18.138 73.748 19.38 75.278 19.38C76.826 19.38 78.284 18.174 78.284 16.032ZM85.1012 12.558C85.7492 11.658 86.9912 10.92 88.5572 10.92C91.1852 10.92 93.2192 12.936 93.2192 15.996C93.2192 19.056 91.1672 21.162 88.5572 21.162C86.9192 21.162 85.7492 20.424 85.1012 19.56V21H83.0492V7.68H85.1012V12.558ZM91.1312 15.996C91.1312 13.854 89.6552 12.702 88.1072 12.702C86.5772 12.702 85.1012 13.908 85.1012 16.032C85.1012 18.174 86.5772 19.38 88.1072 19.38C89.6552 19.38 91.1312 18.138 91.1312 15.996ZM95.2484 21V7.68H97.3004V21H95.2484ZM104.171 12.648C102.785 12.648 101.669 13.584 101.453 15.15H106.943C106.907 13.62 105.701 12.648 104.171 12.648ZM108.815 18.048C108.257 19.776 106.691 21.162 104.261 21.162C101.417 21.162 99.3105 19.146 99.3105 16.032C99.3105 12.918 101.327 10.92 104.261 10.92C107.087 10.92 109.085 12.882 109.085 15.798C109.085 16.14 109.067 16.464 109.013 16.806H101.435C101.579 18.444 102.749 19.434 104.261 19.434C105.521 19.434 106.223 18.822 106.601 18.048H108.815ZM122.692 8.472V10.146H117.832V13.818H122.152V15.492H117.832V19.326H122.692V21H115.78V8.472H122.692ZM132.257 21V15.456C132.257 13.638 131.267 12.702 129.773 12.702C128.261 12.702 127.271 13.638 127.271 15.456V21H125.219V11.082H127.271V12.216C127.937 11.406 129.035 10.92 130.223 10.92C132.545 10.92 134.291 12.378 134.291 15.15V21H132.257ZM141.085 12.648C139.699 12.648 138.583 13.584 138.367 15.15H143.857C143.821 13.62 142.615 12.648 141.085 12.648ZM145.729 18.048C145.171 19.776 143.605 21.162 141.175 21.162C138.331 21.162 136.225 19.146 136.225 16.032C136.225 12.918 138.241 10.92 141.175 10.92C144.001 10.92 145.999 12.882 145.999 15.798C145.999 16.14 145.981 16.464 145.927 16.806H138.349C138.493 18.444 139.663 19.434 141.175 19.434C142.435 19.434 143.137 18.822 143.515 18.048H145.729ZM150.07 15.78V21H148.018V11.082H150.07V12.522C150.646 11.532 151.636 10.92 153.04 10.92V13.044H152.518C151.006 13.044 150.07 13.674 150.07 15.78ZM154.242 15.996C154.242 12.936 156.312 10.92 158.922 10.92C160.542 10.92 161.748 11.676 162.36 12.522V11.082H164.43V21.162C164.43 23.862 162.684 25.896 159.588 25.896C156.942 25.896 154.98 24.582 154.728 22.386H156.762C157.068 23.412 158.166 24.114 159.588 24.114C161.172 24.114 162.36 23.142 162.36 21.162V19.506C161.73 20.352 160.542 21.162 158.922 21.162C156.312 21.162 154.242 19.056 154.242 15.996ZM162.36 16.032C162.36 13.908 160.902 12.702 159.354 12.702C157.824 12.702 156.348 13.854 156.348 15.996C156.348 18.138 157.824 19.38 159.354 19.38C160.902 19.38 162.36 18.174 162.36 16.032ZM171.031 18.642L173.929 11.082H176.053L169.969 25.662H167.845L169.861 20.838L165.955 11.082H168.241L171.031 18.642ZM181.594 14.718C181.594 10.974 184.456 8.328 187.984 8.328C190.594 8.328 192.844 9.642 193.798 12.09H191.332C190.666 10.758 189.478 10.128 187.984 10.128C185.5 10.128 183.7 11.892 183.7 14.718C183.7 17.544 185.5 19.326 187.984 19.326C189.478 19.326 190.666 18.696 191.332 17.364H193.798C192.844 19.812 190.594 21.108 187.984 21.108C184.456 21.108 181.594 18.48 181.594 14.718ZM200.106 18.642L203.004 11.082H205.128L199.044 25.662H196.92L198.936 20.838L195.03 11.082H197.316L200.106 18.642ZM205.992 16.032C205.992 12.936 208.008 10.92 210.852 10.92C213.282 10.92 214.866 12.126 215.424 14.214H213.21C212.868 13.26 212.076 12.648 210.852 12.648C209.196 12.648 208.098 13.872 208.098 16.032C208.098 18.21 209.196 19.434 210.852 19.434C212.076 19.434 212.832 18.894 213.21 17.868H215.424C214.866 19.812 213.282 21.162 210.852 21.162C208.008 21.162 205.992 19.146 205.992 16.032ZM217.469 21V7.68H219.521V21H217.469ZM226.391 12.648C225.005 12.648 223.889 13.584 223.673 15.15H229.163C229.127 13.62 227.921 12.648 226.391 12.648ZM231.035 18.048C230.477 19.776 228.911 21.162 226.481 21.162C223.637 21.162 221.531 19.146 221.531 16.032C221.531 12.918 223.547 10.92 226.481 10.92C229.307 10.92 231.305 12.882 231.305 15.798C231.305 16.14 231.287 16.464 231.233 16.806H223.655C223.799 18.444 224.969 19.434 226.481 19.434C227.741 19.434 228.443 18.822 228.821 18.048H231.035ZM240.723 18.228C240.723 19.902 239.265 21.162 236.925 21.162C234.549 21.162 232.875 19.758 232.785 17.958H234.909C234.981 18.768 235.755 19.434 236.889 19.434C238.077 19.434 238.707 18.93 238.707 18.246C238.707 16.302 232.947 17.418 232.947 13.782C232.947 12.198 234.423 10.92 236.763 10.92C239.013 10.92 240.489 12.126 240.597 14.106H238.545C238.473 13.242 237.807 12.648 236.691 12.648C235.593 12.648 235.017 13.098 235.017 13.764C235.017 15.762 240.615 14.646 240.723 18.228ZM247.616 21V8.49H254.978V10.164H249.668V13.854H253.808V15.528H249.668V21H247.616ZM266.329 16.032C266.329 19.146 264.025 21.162 261.181 21.162C258.355 21.162 256.213 19.146 256.213 16.032C256.213 12.918 258.445 10.92 261.271 10.92C264.097 10.92 266.329 12.918 266.329 16.032ZM258.301 16.032C258.301 18.282 259.633 19.38 261.181 19.38C262.711 19.38 264.223 18.282 264.223 16.032C264.223 13.782 262.765 12.702 261.235 12.702C259.687 12.702 258.301 13.782 258.301 16.032ZM270.41 15.78V21H268.358V11.082H270.41V12.522C270.986 11.532 271.976 10.92 273.38 10.92V13.044H272.858C271.346 13.044 270.41 13.674 270.41 15.78ZM288.384 21L287.484 18.444H282.246L281.346 21H279.204L283.686 8.472H286.062L290.544 21H288.384ZM286.908 16.77L284.874 10.956L282.822 16.77H286.908ZM305.106 21V15.528H299.22V21H297.168V8.49H299.22V13.854H305.106V8.49H307.158V21H305.106ZM314.036 12.648C312.65 12.648 311.534 13.584 311.318 15.15H316.808C316.772 13.62 315.566 12.648 314.036 12.648ZM318.68 18.048C318.122 19.776 316.556 21.162 314.126 21.162C311.282 21.162 309.176 19.146 309.176 16.032C309.176 12.918 311.192 10.92 314.126 10.92C316.952 10.92 318.95 12.882 318.95 15.798C318.95 16.14 318.932 16.464 318.878 16.806H311.3C311.444 18.444 312.614 19.434 314.126 19.434C315.386 19.434 316.088 18.822 316.466 18.048H318.68ZM320.285 15.996C320.285 12.936 322.355 10.92 324.965 10.92C326.639 10.92 327.791 11.712 328.403 12.522V11.082H330.473V21H328.403V19.524C327.773 20.37 326.585 21.162 324.929 21.162C322.355 21.162 320.285 19.056 320.285 15.996ZM328.403 16.032C328.403 13.908 326.945 12.702 325.397 12.702C323.867 12.702 322.391 13.854 322.391 15.996C322.391 18.138 323.867 19.38 325.397 19.38C326.945 19.38 328.403 18.174 328.403 16.032ZM333.168 21V7.68H335.22V21H333.168ZM338.238 18.246V12.756H337.068V11.082H338.238V8.616H340.308V11.082H342.72V12.756H340.308V18.246C340.308 18.984 340.596 19.29 341.46 19.29H342.72V21H341.1C339.336 21 338.238 20.262 338.238 18.246ZM344.612 21V7.68H346.664V12.234C347.348 11.406 348.464 10.92 349.742 10.92C351.956 10.92 353.684 12.378 353.684 15.15V21H351.65V15.456C351.65 13.638 350.66 12.702 349.166 12.702C347.654 12.702 346.664 13.638 346.664 15.456V21H344.612ZM360.207 18.642L363.105 11.082H365.229L359.145 25.662H357.021L359.037 20.838L355.131 11.082H357.417L360.207 18.642ZM378.366 8.472V10.146H373.506V13.818H377.826V15.492H373.506V19.326H378.366V21H371.454V8.472H378.366ZM387.931 21V15.456C387.931 13.638 386.941 12.702 385.447 12.702C383.935 12.702 382.945 13.638 382.945 15.456V21H380.893V11.082H382.945V12.216C383.611 11.406 384.709 10.92 385.897 10.92C388.219 10.92 389.965 12.378 389.965 15.15V21H387.931ZM391.412 11.082H393.608L396.416 19.164L399.224 11.082H401.402L397.622 21H395.174L391.412 11.082ZM402.954 21V11.082H405.006V21H402.954ZM403.998 9.768C403.26 9.768 402.684 9.192 402.684 8.454C402.684 7.716 403.26 7.14 403.998 7.14C404.718 7.14 405.294 7.716 405.294 8.454C405.294 9.192 404.718 9.768 403.998 9.768ZM409.752 15.78V21H407.7V11.082H409.752V12.522C410.328 11.532 411.318 10.92 412.722 10.92V13.044H412.2C410.688 13.044 409.752 13.674 409.752 15.78ZM424.058 16.032C424.058 19.146 421.754 21.162 418.91 21.162C416.084 21.162 413.942 19.146 413.942 16.032C413.942 12.918 416.174 10.92 419 10.92C421.826 10.92 424.058 12.918 424.058 16.032ZM416.03 16.032C416.03 18.282 417.362 19.38 418.91 19.38C420.44 19.38 421.952 18.282 421.952 16.032C421.952 13.782 420.494 12.702 418.964 12.702C417.416 12.702 416.03 13.782 416.03 16.032ZM433.124 21V15.456C433.124 13.638 432.134 12.702 430.64 12.702C429.128 12.702 428.138 13.638 428.138 15.456V21H426.086V11.082H428.138V12.216C428.804 11.406 429.902 10.92 431.09 10.92C433.412 10.92 435.158 12.378 435.158 15.15V21H433.124ZM451.834 21V15.456C451.834 13.638 450.844 12.702 449.35 12.702C447.838 12.702 446.848 13.638 446.848 15.456V21H444.814V15.456C444.814 13.638 443.824 12.702 442.33 12.702C440.818 12.702 439.828 13.638 439.828 15.456V21H437.776V11.082H439.828V12.216C440.494 11.406 441.574 10.92 442.762 10.92C444.328 10.92 445.642 11.586 446.326 12.882C446.938 11.676 448.342 10.92 449.782 10.92C452.104 10.92 453.868 12.378 453.868 15.15V21H451.834ZM460.655 12.648C459.269 12.648 458.153 13.584 457.937 15.15H463.427C463.391 13.62 462.185 12.648 460.655 12.648ZM465.299 18.048C464.741 19.776 463.175 21.162 460.745 21.162C457.901 21.162 455.795 19.146 455.795 16.032C455.795 12.918 457.811 10.92 460.745 10.92C463.571 10.92 465.569 12.882 465.569 15.798C465.569 16.14 465.551 16.464 465.497 16.806H457.919C458.063 18.444 459.233 19.434 460.745 19.434C462.005 19.434 462.707 18.822 463.085 18.048H465.299ZM474.626 21V15.456C474.626 13.638 473.636 12.702 472.142 12.702C470.63 12.702 469.64 13.638 469.64 15.456V21H467.588V11.082H469.64V12.216C470.306 11.406 471.404 10.92 472.592 10.92C474.914 10.92 476.66 12.378 476.66 15.15V21H474.626ZM479.602 18.246V12.756H478.432V11.082H479.602V8.616H481.672V11.082H484.084V12.756H481.672V18.246C481.672 18.984 481.96 19.29 482.824 19.29H484.084V21H482.464C480.7 21 479.602 20.262 479.602 18.246Z" fill="#0055FF"/>
</svg>
