<svg width="622" height="43" viewBox="0 0 622 43" fill="none" xmlns="http://www.w3.org/2000/svg">
<path d="M19.2656 2.71875C28.3594 2.74219 35.0859 7.26562 35.0625 14.1562C35.0859 20.5078 29.625 24.75 21.8438 25.5234V33.2812H38.7188V37.5469H0V33.2812H16.6875V25.5234C9 24.75 3.53906 20.5078 3.5625 14.1562C3.53906 7.26562 10.2422 2.74219 19.2656 2.71875ZM8.67188 14.1562C8.64844 18.7266 13.0781 21.4688 19.2656 21.4688C25.5469 21.4688 29.9531 18.7266 29.9531 14.1562C29.9531 9.72656 25.5469 6.91406 19.2656 6.9375C13.0781 6.91406 8.64844 9.72656 8.67188 14.1562ZM57.4706 3.23438V7.40625H46.3613V11.7656H55.8769V15.75H46.3613V20.4375C51.4238 20.4141 54.9394 20.2031 59.0644 19.4531L59.6269 23.625C54.7284 24.4453 50.6972 24.5859 44.1581 24.5625H41.3456V3.23438H57.4706ZM46.6425 32.625V28.4531H75.7988V42.7031H70.5956V32.625H46.6425ZM57.705 15.4688V11.25H62.4863V1.21875H67.455V26.3906H62.4863V15.4688H57.705ZM70.83 26.6719V0.375H75.7988V26.6719H70.83ZM115.691 0.328125V42.7031H110.629V21.0938H106.082V40.7344H101.254V1.3125H106.082V16.875H110.629V0.328125H115.691ZM79.1288 30.6094C85.0116 27.3047 88.6209 23.4609 90.6834 19.0078L80.0194 20.1562L79.3631 15.7031L92.1131 14.9531C92.5584 13.2422 92.8397 11.4375 92.9803 9.5625H81.5663V5.34375H98.0663C98.0194 17.0391 94.9491 27.0938 82.1756 34.3125L79.1288 30.6094ZM153.99 0.328125V42.75H148.834V0.328125H153.99ZM120.99 8.25V4.03125H140.959V19.9219H126.381V28.4531C133.06 28.4062 138.802 28.0547 145.412 26.9531L145.881 31.2188C138.685 32.4609 132.357 32.7422 124.74 32.7188H121.037V15.7969H135.662V8.25H120.99ZM169.836 3.42188C175.554 3.42188 179.797 8.20312 180.547 15.9375H188.633V0.328125H193.789V42.75H188.633V20.1562H180.593C180.031 28.3359 175.718 33.375 169.836 33.375C163.461 33.375 158.937 27.5859 158.961 18.375C158.937 9.23438 163.461 3.42188 169.836 3.42188ZM163.976 18.375C163.953 24.8906 166.343 28.6641 169.836 28.6875C173.351 28.6641 175.718 24.8906 175.742 18.375C175.718 11.9062 173.351 8.10938 169.836 8.10938C166.343 8.10938 163.953 11.9062 163.976 18.375ZM211.556 3.28125C218.283 3.25781 223.181 7.5 223.228 13.5C223.181 19.5234 218.283 23.7422 211.556 23.7656C204.9 23.7422 199.908 19.5234 199.931 13.5C199.908 7.5 204.9 3.25781 211.556 3.28125ZM198.009 29.625C205.65 29.625 216.22 29.5312 225.384 28.2188L225.806 32.0156C216.314 33.8203 206.142 33.8906 198.666 33.8906L198.009 29.625ZM205.087 13.5C205.064 17.0391 207.853 19.2188 211.556 19.2188C215.306 19.2188 218.095 17.0391 218.119 13.5C218.095 9.98438 215.33 7.78125 211.556 7.78125C207.853 7.78125 205.064 9.98438 205.087 13.5ZM227.916 42.75V0.328125H233.119V42.75H227.916ZM262.044 12.375C262.021 18.9141 265.958 26.3672 272.638 29.4844L269.732 33.6094C264.951 31.3594 261.412 26.8125 259.513 21.5156C257.591 27.3281 253.888 32.2969 249.013 34.6406L245.966 30.5625C252.716 27.3516 256.818 19.4297 256.841 12.375V8.8125H247.607V4.5H270.904V8.8125H262.044V12.375ZM274.841 42.7031V0.328125H280.044V16.8281H286.56V21.1875H280.044V42.7031H274.841ZM299.359 13.2656C299.359 19.8281 302.054 26.4375 307.984 29.625L305.078 33.4688C301.14 31.3828 298.468 27.6562 296.945 23.2031C295.445 28.0078 292.773 32.1328 288.812 34.4531L285.765 30.5156C291.765 27.0469 294.413 19.9688 294.437 13.2656V11.9531H287.218V7.73438H294.437V1.82812H299.359V7.73438H306.437V11.9531H299.359V13.2656ZM303.812 20.9062V16.5938H309.343V1.125H314.265V40.6406H309.343V20.9062H303.812ZM317.921 42.7031V0.328125H322.89V42.7031H317.921ZM370.847 0.328125V42.7031H365.597V0.328125H370.847ZM335.737 31.0312C346.847 25.7578 351.956 18.5859 352.894 8.95312H337.894V4.82812H358.191C358.191 17.4375 353.292 28.1484 338.456 35.2031L335.737 31.0312ZM397.005 1.6875C397.005 6.21094 402.794 10.3359 411.63 11.2969L409.896 15.2344C402.7 14.4141 397.005 11.5547 394.286 7.42969C391.568 11.5547 385.872 14.4141 378.771 15.2344L376.989 11.2969C385.872 10.3359 391.638 6.21094 391.661 1.6875V0.5625H397.005V1.6875ZM375.021 21.4688V17.3438H413.646V21.4688H396.864V24.75H408.818V35.25H384.724V38.3438H409.989V42.3281H379.614V31.5H403.708V28.7344H379.568V24.75H391.661V21.4688H375.021ZM438.257 4.73438V7.73438C438.257 11.5078 438.257 16.8516 437.085 24.1406L431.929 23.7188C432.96 17.2969 433.077 12.5391 433.101 8.90625H416.46V4.73438H438.257ZM414.21 29.625C416.718 29.6016 419.507 29.5781 422.413 29.5078V16.8281H427.569V29.3438C431.882 29.1562 436.312 28.8516 440.366 28.3594L440.647 32.25C431.905 33.6797 422.202 33.8438 414.726 33.7969L414.21 29.625ZM442.569 42.7031V0.328125H447.819V17.5781H453.96V21.9844H447.819V42.7031H442.569ZM499.104 0.375V25.125H493.901V20.4375H483.823V16.2188H493.901V11.6719H484.222C481.55 18.3984 475.362 23.1094 466.151 25.6875L464.042 21.5625C473.956 18.8906 479.253 13.8516 480.05 7.54688H466.292V3.32812H485.745C485.745 4.80469 485.628 6.21094 485.393 7.54688H493.901V0.375H499.104ZM470.698 34.0312C470.698 28.8281 476.393 25.6172 485.089 25.5938C493.667 25.6172 499.386 28.8281 499.386 34.0312C499.386 39.2344 493.667 42.4922 485.089 42.4688C476.393 42.4922 470.698 39.2344 470.698 34.0312ZM475.901 34.0312C475.901 36.8203 479.393 38.3438 485.089 38.3438C490.69 38.3438 494.159 36.8203 494.182 34.0312C494.159 31.1953 490.69 29.6719 485.089 29.6719C479.393 29.6719 475.901 31.1953 475.901 34.0312ZM538.669 0.328125V25.9688H533.466V17.2031H527.419V12.8906H533.466V0.328125H538.669ZM503.278 8.48438V4.26562H513.122V0H518.278V4.26562H528.122V8.48438H503.278ZM505.669 17.7188C505.645 13.2656 509.841 10.125 515.7 10.125C521.606 10.125 525.755 13.2656 525.778 17.7188C525.755 22.2891 521.606 25.3125 515.7 25.3125C509.841 25.3125 505.645 22.2891 505.669 17.7188ZM510.497 42.1875V27.8906H538.669V42.1875H510.497ZM510.638 17.7188C510.638 20.0625 512.653 21.4219 515.7 21.4219C518.723 21.4219 520.763 20.0625 520.763 17.7188C520.763 15.4453 518.723 14.0625 515.7 14.0625C512.653 14.0625 510.638 15.4453 510.638 17.7188ZM515.7 37.9688H533.559V32.0156H515.7V37.9688ZM562.014 2.71875C570.944 2.71875 577.835 7.47656 577.811 14.6719C577.835 21.9609 570.944 26.7188 562.014 26.7188C553.132 26.7188 546.288 21.9609 546.311 14.6719C546.288 7.47656 553.132 2.71875 562.014 2.71875ZM542.749 37.3594V33.0938H581.468V37.3594H542.749ZM551.327 14.6719C551.303 19.4766 555.85 22.4297 562.014 22.4531C568.202 22.4297 572.702 19.4766 572.702 14.6719C572.702 9.98438 568.202 6.89062 562.014 6.9375C555.85 6.89062 551.303 9.98438 551.327 14.6719ZM621.032 33.4688V37.7812H582.313V33.4688H599.001V26.5781H586.907V12.7031H611.282V7.45312H586.813V3.23438H616.438V16.8281H592.11V22.3125H617.422V26.5781H604.157V33.4688H621.032Z" fill="white"/>
</svg>
