<svg width="642" height="94" viewBox="0 0 642 94" fill="none" xmlns="http://www.w3.org/2000/svg">
<path d="M9.49219 1.54688C13.9219 1.57031 17.1094 3.72656 17.1094 7.00781C17.1094 10.1133 14.3438 12.1641 10.3828 12.4336V16.8047H19.0781V18.3516H0V16.8047H8.57812V12.4336C4.64062 12.1523 1.875 10.1016 1.875 7.00781C1.875 3.72656 5.07422 1.57031 9.49219 1.54688ZM3.65625 7.00781C3.64453 9.41016 6.11719 10.9688 9.49219 10.9922C12.8672 10.9688 15.3281 9.41016 15.3281 7.00781C15.3281 4.65234 12.8672 3.05859 9.49219 3.07031C6.11719 3.05859 3.64453 4.65234 3.65625 7.00781ZM29.1919 1.6875V3.1875H23.0044V5.90625H28.3247V7.38281H23.0044V10.3125C26.0278 10.3125 27.8911 10.1953 30.1294 9.75L30.3169 11.2734C27.9028 11.7305 25.9341 11.8125 22.5591 11.8125H21.2466V1.6875H29.1919ZM23.8247 15.5859V14.0625H37.9575V21.0234H36.1528V15.5859H23.8247ZM29.3091 7.21875V5.67188H32.1216V0.65625H33.9028V12.9375H32.1216V7.21875H29.3091ZM36.1997 13.0781V0.210938H37.9575V13.0781H36.1997ZM58.3603 0.1875V21.0234H56.5791V10.1719H53.6728V19.9922H51.9384V0.703125H53.6728V8.64844H56.5791V0.1875H58.3603ZM40.665 15.3984C43.9345 13.6289 45.8681 11.4141 46.9111 8.91797L40.9463 9.53906L40.665 7.92188L47.415 7.47656C47.708 6.43359 47.872 5.35547 47.9423 4.24219H41.6963V2.71875H49.7822C49.7588 8.09766 48.1181 13.2422 41.7666 16.7109L40.665 15.3984ZM77.9897 0.1875V21.0703H76.1616V0.1875H77.9897ZM61.9584 3.65625V2.13281H71.6616V9.53906H63.8803V14.4609C67.3373 14.4727 70.4194 14.3086 74.1459 13.7109L74.3334 15.2578C70.5014 15.8555 67.3373 16.0078 63.7397 16.0078H62.0053V8.03906H69.81V3.65625H61.9584ZM86.6503 1.80469C89.4863 1.81641 91.537 4.25391 91.8183 8.15625H96.4941V0.1875H98.3222V21.0703H96.4941V9.67969H91.8417C91.6425 13.7695 89.5566 16.3242 86.6503 16.3125C83.5683 16.3242 81.412 13.5117 81.4238 9.07031C81.412 4.64062 83.5683 1.81641 86.6503 1.80469ZM83.1816 9.07031C83.1933 12.457 84.5995 14.6836 86.6503 14.6719C88.6894 14.6836 90.1191 12.457 90.1191 9.07031C90.1191 5.68359 88.6894 3.45703 86.6503 3.44531C84.5995 3.45703 83.1933 5.68359 83.1816 9.07031ZM108.131 1.71094C111.401 1.72266 113.721 3.71484 113.733 6.60938C113.721 9.51562 111.401 11.4961 108.131 11.5078C104.838 11.4961 102.495 9.51562 102.506 6.60938C102.495 3.71484 104.838 1.72266 108.131 1.71094ZM101.428 14.9062C105.272 14.918 110.58 14.8828 115.186 14.2031L115.327 15.5625C110.557 16.4531 105.436 16.4766 101.686 16.4766L101.428 14.9062ZM104.311 6.60938C104.299 8.55469 105.905 9.89062 108.131 9.89062C110.334 9.89062 111.94 8.55469 111.928 6.60938C111.94 4.67578 110.334 3.32812 108.131 3.32812C105.905 3.32812 104.299 4.67578 104.311 6.60938ZM116.569 21.0703V0.1875H118.397V21.0703H116.569ZM144.343 0.1875V21.0234H142.492V0.1875H144.343ZM127.374 15.6094C133.011 12.9375 135.894 8.94141 136.304 3.96094H128.335V2.46094H138.179C138.156 8.44922 135.367 13.7578 128.382 17.1094L127.374 15.6094ZM157.832 1.10156C157.82 3.69141 161.582 5.68359 165.332 6.14062L164.676 7.54688C161.394 7.10156 158.183 5.63672 156.871 3.38672C155.535 5.63672 152.312 7.10156 149.066 7.54688L148.433 6.14062C152.172 5.68359 155.933 3.69141 155.933 1.10156V0.304688H157.832V1.10156ZM147.379 10.4062V8.90625H166.363V10.4062H157.762V12.4922H163.926V17.2266H151.551V19.3359H164.558V20.7891H149.723V15.8438H162.121V13.9453H149.676V12.4922H155.933V10.4062H147.379ZM186.625 11.1797V12.6797H167.641V11.1797H186.625ZM169.75 5.0625C169.75 2.44922 172.61 0.914062 177.133 0.9375C181.61 0.914062 184.481 2.44922 184.492 5.0625C184.481 7.65234 181.61 9.21094 177.133 9.21094C172.61 9.21094 169.75 7.65234 169.75 5.0625ZM170.102 20.5781V14.5078H171.953V19.0312H184.516V20.5781H170.102ZM171.649 5.0625C171.637 6.71484 173.77 7.71094 177.133 7.71094C180.473 7.71094 182.606 6.71484 182.617 5.0625C182.606 3.43359 180.473 2.41406 177.133 2.41406C173.77 2.41406 171.637 3.43359 171.649 5.0625ZM199.658 4.33594C199.669 6.64453 201.275 8.97656 203.947 9.98438L202.986 11.3906C200.982 10.6172 199.54 9.12891 198.79 7.33594C198.029 9.31641 196.529 11.0859 194.478 11.9766L193.47 10.5469C196.212 9.35156 197.888 6.65625 197.9 4.33594V1.5H199.658V4.33594ZM197.267 17.2734C197.243 14.918 199.915 13.5352 204.251 13.5469C208.564 13.5352 211.247 14.918 211.259 17.2734C211.247 19.6055 208.564 20.9766 204.251 20.9766C199.915 20.9766 197.243 19.6055 197.267 17.2734ZM199.095 17.2734C199.072 18.6914 201.052 19.5586 204.251 19.5469C207.415 19.5586 209.408 18.6914 209.431 17.2734C209.408 15.832 207.415 14.9648 204.251 14.9531C201.052 14.9648 199.072 15.832 199.095 17.2734ZM204.884 12.4219V0.609375H206.618V5.8125H209.384V0.210938H211.142V13.0781H209.384V7.33594H206.618V12.4219H204.884ZM229.974 0.1875V5.53125H233.092V7.10156H229.974V12.4922H228.123V0.1875H229.974ZM213.615 10.6172C215.279 10.6172 217.224 10.6172 219.263 10.5586V9.26953C216.814 9.07031 215.267 8.09766 215.279 6.51562C215.267 4.80469 217.189 3.80859 220.154 3.82031C223.119 3.80859 225.029 4.80469 225.053 6.51562C225.029 8.08594 223.517 9.05859 221.092 9.26953V10.4883C223.037 10.3945 225.006 10.2422 226.834 9.98438L226.998 11.2266C222.498 11.9648 217.494 12 213.826 12L213.615 10.6172ZM214.131 3.11719V1.78125H219.263V0H221.092V1.78125H226.201V3.11719H214.131ZM216.404 14.7422V13.4297H229.974V17.625H218.279V19.4766H230.771V20.7891H216.451V16.3828H228.146V14.7422H216.404ZM217.037 6.51562C217.025 7.45312 218.232 8.05078 220.154 8.0625C222.076 8.05078 223.295 7.45312 223.295 6.51562C223.295 5.60156 222.076 5.05078 220.154 5.03906C218.232 5.05078 217.025 5.60156 217.037 6.51562ZM248.936 13.3594C253.401 13.3594 256.237 14.7656 256.249 17.1797C256.237 19.5703 253.401 20.9766 248.936 20.9766C244.471 20.9766 241.635 19.5703 241.647 17.1797C241.635 14.7656 244.471 13.3594 248.936 13.3594ZM239.538 11.4141V9.91406H247.389V5.88281H249.194V9.91406H258.499V11.4141H239.538ZM241.788 2.76562V1.26562H256.085V3.02344C256.073 4.71094 256.073 6.39844 255.499 8.55469L253.694 8.34375C254.257 6.19922 254.257 4.65234 254.257 3.02344V2.76562H241.788ZM243.475 17.1797C243.464 18.6328 245.62 19.5234 248.936 19.5234C252.264 19.5234 254.397 18.6328 254.421 17.1797C254.397 15.6914 252.264 14.7773 248.936 14.7656C245.62 14.7773 243.464 15.6914 243.475 17.1797ZM276.066 0.1875V6.53906H279.206V8.08594H276.066V15.4453H274.214V0.1875H276.066ZM259.8 11.5547C264.804 9.99609 268.05 7.03125 268.437 3.35156H260.667V1.80469H270.441C270.441 7.17188 266.609 11.1562 260.597 13.0312L259.8 11.5547ZM263.011 20.5781V13.8984H264.839V19.0312H277.027V20.5781H263.011ZM299.093 12.5625V14.0625H290.398V21.0234H288.593V14.0625H280.015V12.5625H299.093ZM282.453 10.0312V1.05469H284.281V3.9375H294.781V1.05469H296.633V10.0312H282.453ZM284.281 8.53125H294.781V5.4375H284.281V8.53125ZM317.574 0.1875V21.0703H315.746V9.58594H311.34V8.0625H315.746V0.1875H317.574ZM301.262 16.0312V2.10938H310.988V3.63281H303.113V7.96875H310.074V9.46875H303.113V14.5078C306.934 14.4961 309.395 14.3906 312.254 13.875L312.465 15.3984C309.43 15.8906 306.887 16.0312 302.856 16.0312H301.262ZM342.818 2.29688V4.38281C342.794 6.9375 342.794 9.79688 342.044 13.9922L340.169 13.7812C340.954 9.79688 340.954 6.87891 340.966 4.38281V3.82031H328.122V2.29688H342.818ZM326.107 18.0703V16.5469H333.56V9.09375H335.364V16.5469H345.091V18.0703H326.107ZM349.228 1.71094V9.91406C352.205 9.91406 355.275 9.72656 358.673 9.02344L358.884 10.5469C355.357 11.2852 352.193 11.4844 349.041 11.4844H347.377V1.71094H349.228ZM349.697 20.5781V13.7812H351.525V19.0312H363.408V20.5781H349.697ZM360.83 15.2578V0.210938H362.658V6.39844H365.798V7.99219H362.658V15.2578H360.83ZM383.459 9.96094V11.4609H377.014V16.8516H385.709V18.3984H366.631V16.8516H375.209V11.4609H369.068V1.89844H383.248V3.39844H370.92V9.96094H383.459ZM399.444 4.125C399.433 6.99609 401.601 9.64453 404.671 10.7109L403.733 12.1875C401.366 11.3203 399.526 9.5625 398.601 7.35938C397.722 9.84375 395.835 11.7539 393.374 12.7031L392.366 11.2266C395.542 10.1133 397.628 7.28906 397.64 4.05469V1.47656H399.444V4.125ZM395.718 20.5781V14.1094H397.593V19.0312H409.687V20.5781H395.718ZM406.897 15.5859V0.1875H408.726V6.58594H411.866V8.15625H408.726V15.5859H406.897ZM418.441 1.17188C421.23 1.16016 423.363 2.78906 423.761 5.17969H428.121V0.1875H429.972V11.3672H428.121V6.70312H423.773C423.41 9.16406 421.265 10.8047 418.441 10.8047C415.265 10.8047 413.015 8.83594 413.027 5.97656C413.015 3.15234 415.265 1.16016 418.441 1.17188ZM414.785 5.97656C414.785 7.875 416.296 9.24609 418.441 9.25781C420.539 9.24609 422.05 7.875 422.05 5.97656C422.05 4.05469 420.539 2.71875 418.441 2.74219C416.296 2.71875 414.785 4.05469 414.785 5.97656ZM416.543 20.7422V12.4219H418.394V15.0703H428.121V12.4219H429.972V20.7422H416.543ZM418.394 19.2422H428.121V16.5469H418.394V19.2422ZM454.77 0.1875V7.5H457.887V9.04688H454.77V16.5H452.918V0.1875H454.77ZM438.411 12.5859C440.063 12.5859 442.02 12.5625 444.059 12.4922V10.8984C441.633 10.6758 440.063 9.51562 440.075 7.75781C440.063 5.75391 442.02 4.53516 444.95 4.54688C447.903 4.53516 449.825 5.75391 449.848 7.75781C449.825 9.50391 448.301 10.6641 445.887 10.8984V12.4102C447.832 12.293 449.813 12.1172 451.629 11.8359L451.793 13.1484C447.329 13.9922 442.266 14.0508 438.622 14.0859L438.411 12.5859ZM438.926 3.63281V2.25H444.059V0.140625H445.887V2.25H450.997V3.63281H438.926ZM441.528 20.5781V15.3984H443.379V19.0312H455.52V20.5781H441.528ZM441.832 7.75781C441.821 8.89453 443.028 9.63281 444.95 9.63281C446.872 9.63281 448.09 8.89453 448.09 7.75781C448.09 6.57422 446.872 5.84766 444.95 5.85938C443.028 5.84766 441.821 6.57422 441.832 7.75781ZM476.04 0.210938V12.7266H474.188V9.91406H468.657V8.39062H474.188V5.57812H468.868C467.497 8.92969 464.286 11.3555 459.821 12.6797L459.048 11.2266C464.075 9.73828 467.228 6.91406 467.591 3.30469H460.103V1.75781H469.595C469.595 2.57812 469.501 3.36328 469.325 4.10156H474.188V0.210938H476.04ZM462.259 16.9219C462.247 14.4375 464.954 12.9375 469.22 12.9375C473.438 12.9375 476.157 14.4375 476.157 16.9219C476.157 19.418 473.438 20.9297 469.22 20.9297C464.954 20.9297 462.247 19.418 462.259 16.9219ZM464.063 16.9219C464.075 18.4922 466.079 19.4414 469.22 19.4297C472.313 19.4414 474.317 18.4922 474.329 16.9219C474.317 15.3516 472.313 14.4023 469.22 14.4141C466.079 14.4023 464.075 15.3516 464.063 16.9219ZM495.529 0.1875V8.78906H498.693V10.3359H495.529V21.0234H493.677V0.1875H495.529ZM478.958 15.2578C482.099 12.0352 483.376 8.15625 483.611 4.00781H479.615V2.46094H485.357C485.333 7.41797 484.22 12.3164 480.435 16.3125L478.958 15.2578ZM484.935 16.6641C488.193 12.9844 489.165 8.35547 489.341 4.00781H486.013V2.46094H491.076C491.064 7.40625 490.337 13.1602 486.435 17.6953L484.935 16.6641ZM506.744 6.58594C506.756 10.125 509.322 13.7227 512.392 15.0469L511.361 16.5C508.924 15.3984 506.826 12.9961 505.853 10.1133C504.881 13.1719 502.771 15.8203 500.392 17.0156L499.291 15.5625C502.279 14.1328 504.881 10.1953 504.892 6.58594V3.86719H499.971V2.34375H511.713V3.86719H506.744V6.58594ZM514.619 21.0234V0.1875H516.471V21.0234H514.619ZM16.125 36.1875V44.4375H19.6172V45.9844H16.125V57.0703H14.2969V36.1875H16.125ZM0.914062 51.8438V38.2266H10.6406V39.75H2.74219V50.2969C6.51562 50.2852 9.17578 50.1211 12.2812 49.5469L12.5156 51.1406C9.24609 51.7266 6.51562 51.8438 2.55469 51.8438H0.914062ZM39.645 39.3516V40.875H36.5513V43.7812H39.645V45.3281H36.5513V48.5625H34.7231V36.1875H36.5513V39.3516H39.645ZM20.6606 42.3516C20.6489 39.4453 22.9692 37.4414 26.1216 37.4531C29.2973 37.4414 31.5825 39.4453 31.6059 42.3516C31.5825 45.2461 29.2973 47.2383 26.1216 47.25C22.9692 47.2383 20.6489 45.2461 20.6606 42.3516ZM22.4653 42.3516C22.4536 44.3203 24.0122 45.6797 26.1216 45.7031C28.2544 45.6797 29.7895 44.3203 29.8013 42.3516C29.7895 40.3945 28.2544 39 26.1216 39.0234C24.0122 39 22.4536 40.3945 22.4653 42.3516ZM22.9575 53.1094C22.9692 50.6367 25.6177 49.207 29.8716 49.1953C34.1255 49.207 36.7388 50.6367 36.7388 53.1094C36.7388 55.5352 34.1255 56.9766 29.8716 56.9766C25.6177 56.9766 22.9692 55.5352 22.9575 53.1094ZM24.8091 53.1094C24.7856 54.6094 26.7309 55.4883 29.8716 55.5C33.0239 55.4883 34.9458 54.6094 34.9575 53.1094C34.9458 51.5977 33.0239 50.6953 29.8716 50.6953C26.7309 50.6953 24.7856 51.5977 24.8091 53.1094ZM56.8134 36.2109V43.0781H59.9541V44.625H56.8134V51.8203H54.9853V36.2109H56.8134ZM40.5713 40.2656V38.7656H45.8681V36.2109H47.6963V38.7656H52.9931V40.2656H40.5713ZM41.7666 45.3047C41.7548 42.9375 43.7705 41.4141 46.7822 41.4141C49.7588 41.4141 51.7744 42.9375 51.7978 45.3047C51.7744 47.6484 49.7588 49.1602 46.7822 49.1484C43.7705 49.1602 41.7548 47.6484 41.7666 45.3047ZM43.5244 45.3047C43.5127 46.7695 44.8134 47.7188 46.7822 47.6953C48.7275 47.7188 50.04 46.7695 50.0634 45.3047C50.04 43.8164 48.7275 42.8555 46.7822 42.8672C44.8134 42.8555 43.5127 43.8164 43.5244 45.3047ZM43.7822 56.5781V50.5781H45.5869V55.0312H57.7744V56.5781H43.7822ZM83.6034 36.2109V52.1016H81.7519V47.625H78.1425V46.125H81.7519V43.2891H78.1425V41.7656H81.7519V36.2109H83.6034ZM66.3534 40.2656V38.7656H71.4159V36.1875H73.2441V38.7656H78.1425V40.2656H66.3534ZM67.5956 45.3984C67.5722 43.0078 69.5175 41.4141 72.3066 41.4141C75.0956 41.4141 77.0527 43.0078 77.0644 45.3984C77.0527 47.7656 75.0956 49.3711 72.3066 49.3828C69.5175 49.3711 67.5722 47.7656 67.5956 45.3984ZM69.3066 45.3984C69.2948 46.8984 70.5253 47.918 72.3066 47.9062C74.0878 47.918 75.3183 46.8984 75.33 45.3984C75.3183 43.8984 74.0878 42.8906 72.3066 42.8672C70.5253 42.8906 69.2948 43.8984 69.3066 45.3984ZM70.1269 56.5781V50.6953H71.9784V55.0312H84.0722V56.5781H70.1269ZM93.6469 40.1484C93.6586 42.8789 95.6977 45.3164 98.7562 46.3125L97.8891 47.7656C95.4867 46.9688 93.6703 45.3164 92.768 43.2188C91.8773 45.6094 89.9555 47.4727 87.4594 48.375L86.5219 46.8984C89.6391 45.8438 91.8187 43.1602 91.8422 40.1484V39.2578H87.0844V37.7344H98.3344V39.2578H93.6469V40.1484ZM89.2875 53.1328C89.2992 50.7305 91.9125 49.3359 96.2016 49.3359C100.479 49.3359 103.069 50.7305 103.069 53.1328C103.069 55.5703 100.479 56.9766 96.2016 56.9766C91.9125 56.9766 89.2992 55.5703 89.2875 53.1328ZM91.1391 53.1328C91.1156 54.6328 93.0609 55.5117 96.2016 55.5C99.3539 55.5117 101.276 54.6328 101.287 53.1328C101.276 51.6797 99.3539 50.8125 96.2016 50.8125C93.0609 50.8125 91.1156 51.6797 91.1391 53.1328ZM101.053 48.7734V36.1875H102.881V41.5078H106.022V43.0547H102.881V48.7734H101.053ZM124.714 36.1875V57.0234H122.933V36.1875H124.714ZM107.112 45.1875C107.124 40.7578 108.882 37.957 111.589 37.9453C114.12 37.957 115.831 40.3945 116.065 44.3203H118.761V36.6328H120.518V55.9688H118.761V45.8438H116.077C115.901 49.8984 114.155 52.4414 111.589 52.4297C108.882 52.4414 107.124 49.6172 107.112 45.1875ZM108.847 45.1875C108.823 48.5625 109.901 50.6953 111.589 50.6719C113.288 50.6953 114.366 48.5625 114.354 45.1875C114.366 41.8008 113.288 39.6797 111.589 39.6797C109.901 39.6797 108.823 41.8008 108.847 45.1875ZM134.452 41.7891C134.441 45.5625 136.867 49.3594 139.89 50.7422L138.788 52.2422C136.421 51.0234 134.464 48.5391 133.538 45.5742C132.613 48.6914 130.656 51.3633 128.288 52.6172L127.093 51.1406C130.152 49.6406 132.566 45.6328 132.577 41.7891V37.9922H134.452V41.7891ZM137.617 44.8125V43.3125H142.562V36.1875H144.39V57.0703H142.562V44.8125H137.617ZM170.125 36.1875V47.3672H168.297V36.1875H170.125ZM153.414 42C153.403 39.1523 155.711 37.1953 158.875 37.2188C162.039 37.1953 164.325 39.1523 164.336 42C164.325 44.8359 162.039 46.793 158.875 46.7812C155.711 46.793 153.403 44.8359 153.414 42ZM155.219 42C155.196 43.8984 156.731 45.2461 158.875 45.2578C160.996 45.2461 162.532 43.8984 162.532 42C162.532 40.0898 160.996 38.7539 158.875 38.7656C156.731 38.7539 155.196 40.0898 155.219 42ZM156.625 56.7422V48.4219H158.453V50.9531H168.297V48.4219H170.125V56.7422H156.625ZM158.453 55.2422H168.297V52.4297H158.453V55.2422ZM192.169 46.1016V47.625H173.184V46.1016H192.169ZM174.262 43.3828C177.895 42.9609 181.399 41.168 181.481 38.7891H174.919V37.2656H190.481V38.7891H183.872C183.954 41.1445 187.423 42.9609 191.114 43.3828L190.434 44.8594C187.024 44.4258 183.825 42.8906 182.677 40.582C181.528 42.8906 178.352 44.4258 174.919 44.8594L174.262 43.3828ZM175.481 53.2266C175.47 50.8359 178.177 49.4531 182.677 49.4531C187.141 49.4531 189.825 50.8359 189.848 53.2266C189.825 55.6406 187.141 56.9766 182.677 56.9766C178.177 56.9766 175.47 55.6406 175.481 53.2266ZM177.356 53.2266C177.333 54.6797 179.337 55.5117 182.677 55.5C185.981 55.5117 187.985 54.6797 187.997 53.2266C187.985 51.7617 185.981 50.9297 182.677 50.9062C179.337 50.9297 177.333 51.7617 177.356 53.2266ZM205.868 45.1875V46.7109H201.298V50.8125C203.337 50.7305 205.388 50.5898 207.322 50.3672L207.462 51.75C202.845 52.418 197.806 52.5117 193.822 52.5L193.564 50.9531C195.38 50.9531 197.396 50.9414 199.47 50.8828V46.7109H195.158V38.1797H205.775V39.6797H196.962V45.1875H205.868ZM208.704 57.0703V36.1875H210.533V57.0703H208.704ZM220.881 50.1562C220.869 52.0312 221.865 53.9883 223.845 55.1367C225.849 53.8828 226.869 51.7617 226.881 50.1562V48.8906H228.685V50.1562C228.674 52.3125 230.232 54.4805 232.951 55.3828L231.99 56.7656C229.916 56.0039 228.463 54.5508 227.76 52.793C227.103 54.4922 225.826 56.1094 223.881 56.9297C221.888 56.1562 220.599 54.6211 219.967 52.8633C219.217 54.5391 217.787 56.0039 215.795 56.7656L214.881 55.3828C217.517 54.4336 219.099 52.1719 219.123 50.1562V48.8906H220.881V50.1562ZM214.06 42.2578C214.06 39.3984 216.334 37.3711 219.451 37.3828C222.193 37.3711 224.338 39.0234 224.748 41.4375H229.131V36.1875H230.982V48.0938H229.131V42.9609H224.76C224.408 45.4453 222.24 47.1328 219.451 47.1328C216.334 47.1328 214.06 45.1289 214.06 42.2578ZM215.842 42.2578C215.818 44.1914 217.353 45.5977 219.451 45.6094C221.502 45.5977 223.037 44.1914 223.037 42.2578C223.037 40.3242 221.502 38.9297 219.451 38.9531C217.353 38.9297 215.818 40.3242 215.842 42.2578ZM238.213 48.7031V51.1406H248.619V48.7031H250.471V56.7422H236.385V48.7031H238.213ZM233.971 47.2266V45.7031H252.955V47.2266H233.971ZM235.049 42.75C238.764 42.2461 242.526 40.0547 242.526 37.4062V36.4219H244.424V37.4062C244.412 39.9727 248.209 42.2812 251.877 42.75L251.197 44.2266C247.975 43.7461 244.799 42.1055 243.475 39.7734C242.151 42.1172 238.963 43.7461 235.752 44.2266L235.049 42.75ZM238.213 55.2656H248.619V52.5938H238.213V55.2656ZM271.413 36.1875V57.0234H269.585V36.1875H271.413ZM255.592 51.6562V38.25H257.397V50.0625C260.585 50.0391 263.866 49.793 267.358 49.0547L267.616 50.625C263.913 51.3984 260.62 51.6562 257.28 51.6562H255.592ZM290.62 36.1875V44.4375H294.112V45.9844H290.62V57.0703H288.792V36.1875H290.62ZM275.409 51.8438V38.2266H285.136V39.75H277.237V50.2969C281.011 50.2852 283.671 50.1211 286.777 49.5469L287.011 51.1406C283.741 51.7266 281.011 51.8438 277.05 51.8438H275.409ZM296.961 55.2656C296.14 55.2539 295.437 54.5742 295.461 53.7422C295.437 52.9219 296.14 52.2422 296.961 52.2422C297.793 52.2422 298.472 52.9219 298.461 53.7422C298.472 54.5742 297.793 55.2539 296.961 55.2656ZM17.2734 72.2109V87.4922H15.4219V79.5H11.1328V77.9766H15.4219V72.2109H17.2734ZM0.09375 83.3203C3.16406 82.2422 5.39062 79.4883 5.39062 76.5V75.4219H0.679688V73.8984H11.9062V75.4219H7.24219V76.5C7.24219 79.1953 9.32812 81.8086 12.375 82.8516L11.4141 84.3281C9.07031 83.4727 7.25391 81.7266 6.35156 79.5703C5.44922 81.9844 3.52734 83.8945 1.05469 84.8203L0.09375 83.3203ZM3.89062 92.5781V86.1094H5.74219V91.0312H17.8594V92.5781H3.89062ZM31.9931 78.1172C31.9931 81.4336 33.6103 85.0078 36.3759 86.6484L35.3213 88.0781C33.3056 86.8594 31.8642 84.6328 31.1377 82.0898C30.3759 84.8672 28.8291 87.2578 26.7431 88.5234L25.5713 87.1406C28.4541 85.4531 30.2119 81.7617 30.2119 78.1875V74.1562H31.9931V78.1172ZM34.0791 81.2344V79.6641H37.6181V72.6328H39.3525V91.9688H37.6181V81.2344H34.0791ZM41.8838 93.0234V72.1875H43.665V93.0234H41.8838ZM63.9038 72.1875V93.0234H62.1459V72.1875H63.9038ZM46.0444 87.1875C50.5795 84.5039 52.853 80.7422 53.2163 76.3828H46.9819V74.8594H55.0444C55.0444 75.9258 54.9506 76.9805 54.7631 78H57.9272V72.75H59.685V91.9688H57.9272V84.75H54.06V83.2266H57.9272V79.5234H54.3998C53.392 83.0508 51.1069 86.168 47.1694 88.5234L46.0444 87.1875ZM88.5844 74.2969V76.3828C88.5609 78.9375 88.5609 81.7969 87.8109 85.9922L85.9359 85.7812C86.7211 81.7969 86.7211 78.8789 86.7328 76.3828V75.8203H73.8891V74.2969H88.5844ZM71.8734 90.0703V88.5469H79.3266V81.0938H81.1312V88.5469H90.8578V90.0703H71.8734ZM109.831 72.2109V84.4922H108.073V78.9844H105.237V84.3516H103.479V72.6094H105.237V77.4609H108.073V72.2109H109.831ZM92.2528 83.3438C96.577 81.5859 99.0263 78.7617 99.3778 75.2578H93.0966V73.7344H101.276C101.265 78.7148 98.452 82.4766 93.1669 84.7266L92.2528 83.3438ZM95.7684 86.9531V85.4531H109.831V93.0234H108.026V86.9531H95.7684ZM123.952 74.5078V75.5859C123.941 77.2383 123.941 79.9922 123.343 83.8594L121.492 83.6953C122.066 80.2031 122.113 77.6719 122.101 76.0078H113.359V74.5078H123.952ZM112.187 86.9062C113.558 86.8945 115.081 86.8828 116.687 86.8477V80.4609H118.492V86.7891C120.8 86.707 123.167 86.5547 125.335 86.2969L125.429 87.6797C121.046 88.3594 116.148 88.4531 112.421 88.4297L112.187 86.9062ZM126.648 93.0234V72.1875H128.476V80.9062H131.851V82.5H128.476V93.0234H126.648ZM154.492 72.1875V77.7422H157.633V79.3125H154.492V84.75H152.664V72.1875H154.492ZM138.25 75.9375V74.4141H143.547V72.0234H145.375V74.4141H150.672V75.9375H138.25ZM139.446 80.6719C139.434 78.4453 141.438 76.9688 144.461 76.9688C147.45 76.9688 149.453 78.4453 149.477 80.6719C149.453 82.9336 147.45 84.3984 144.461 84.3984C141.438 84.3984 139.434 82.9336 139.446 80.6719ZM141.203 80.6719C141.192 82.0898 142.492 82.9688 144.461 82.9922C146.407 82.9688 147.719 82.0898 147.742 80.6719C147.719 79.3125 146.407 78.3984 144.461 78.3984C142.492 78.3984 141.192 79.3125 141.203 80.6719ZM141.344 92.7422V85.9453H154.492V92.7422H141.344ZM143.149 91.2422H152.664V87.4219H143.149V91.2422ZM163.645 74.7188C163.622 79.0898 163.012 84.0117 159.966 88.0547L158.512 87.2109C161.114 83.9531 161.887 80.0742 162.04 76.2422H158.934V74.7188H163.645ZM163.2 88.5703C166.071 84.8906 166.575 80.1328 166.657 76.2422H164.302V74.7188H168.262C168.262 76.418 168.216 78.375 167.958 80.3906H170.723V72.75H172.481V91.9688H170.723V81.9141H167.712C167.231 84.5156 166.329 87.1523 164.63 89.4375L163.2 88.5703ZM174.614 93.0234V72.1875H176.395V93.0234H174.614ZM191.443 75.4688C191.42 78.4453 193.541 81.0586 196.599 82.1016L195.568 83.5312C193.271 82.6758 191.467 80.9766 190.564 78.7852C189.674 81.2812 187.775 83.2148 185.256 84.1641L184.248 82.6641C187.459 81.5391 189.592 78.7734 189.615 75.5391V73.3828H191.443V75.4688ZM187.646 89.0859C187.635 86.5781 190.295 85.1367 194.631 85.1484C198.955 85.1367 201.615 86.5781 201.615 89.0859C201.615 91.5703 198.955 92.9766 194.631 92.9766C190.295 92.9766 187.635 91.5703 187.646 89.0859ZM189.474 89.0859C189.463 90.5977 191.431 91.5117 194.631 91.5C197.818 91.5117 199.787 90.5977 199.787 89.0859C199.787 87.5273 197.818 86.6016 194.631 86.6016C191.431 86.6016 189.463 87.5273 189.474 89.0859ZM195.053 78.1875V76.6641H199.693V72.1875H201.545V84.5391H199.693V78.1875H195.053ZM211.588 76.1484C211.6 78.8789 213.639 81.3164 216.697 82.3125L215.83 83.7656C213.428 82.9688 211.612 81.3164 210.709 79.2188C209.819 81.6094 207.897 83.4727 205.401 84.375L204.463 82.8984C207.58 81.8438 209.76 79.1602 209.783 76.1484V75.2578H205.026V73.7344H216.276V75.2578H211.588V76.1484ZM207.229 89.1328C207.24 86.7305 209.854 85.3359 214.143 85.3359C218.42 85.3359 221.01 86.7305 221.01 89.1328C221.01 91.5703 218.42 92.9766 214.143 92.9766C209.854 92.9766 207.24 91.5703 207.229 89.1328ZM209.08 89.1328C209.057 90.6328 211.002 91.5117 214.143 91.5C217.295 91.5117 219.217 90.6328 219.229 89.1328C219.217 87.6797 217.295 86.8125 214.143 86.8125C211.002 86.8125 209.057 87.6797 209.08 89.1328ZM218.994 84.7734V72.1875H220.822V77.5078H223.963V79.0547H220.822V84.7734H218.994ZM240.921 72.1875V80.7891H244.413V82.3125H240.921V93.0234H239.092V72.1875H240.921ZM224.678 77.0625V75.5391H230.046V72.4453H231.874V75.5391H237.077V77.0625H224.678ZM225.874 83.5781C225.862 80.7656 228.018 78.7969 230.983 78.7969C233.925 78.7969 236.069 80.7656 236.092 83.5781C236.069 86.4023 233.925 88.3594 230.983 88.3594C228.018 88.3594 225.862 86.4023 225.874 83.5781ZM227.632 83.5781C227.62 85.4766 229.038 86.8125 230.983 86.7891C232.905 86.8125 234.311 85.4766 234.335 83.5781C234.311 81.6914 232.905 80.332 230.983 80.3438C229.038 80.332 227.62 81.6914 227.632 83.5781ZM255.394 74.2734V77.2031H260.503V72.1875H262.331V93.0703H260.503V84.4688H255.394V87.75H245.902V74.2734H255.394ZM247.73 86.2734H253.613V75.7266H247.73V86.2734ZM255.394 82.9453H260.503V78.7266H255.394V82.9453ZM286.988 72.1875V80.6719H290.363V82.2188H286.988V93.0234H285.16V72.1875H286.988ZM271.004 87.6094C276.383 84.9375 279.313 80.918 279.735 75.9844H271.965V74.4375H281.598C281.586 80.332 278.82 85.7109 272.035 89.0625L271.004 87.6094ZM308.305 72.1875V93.0234H306.454V72.1875H308.305ZM291.547 87.5625C294.641 86.1562 297.008 82.6406 297.008 78.9844V77.3203H292.11V75.8203H296.985V72.5859H298.813V75.8203H303.665V77.3203H298.813V78.9844C298.813 82.4766 301.251 85.8516 304.391 87.1875L303.36 88.6172C300.946 87.5508 298.919 85.3008 297.946 82.5469C297.008 85.4531 294.993 87.8555 292.579 88.9922L291.547 87.5625ZM323.986 86.1797C323.974 88.0195 324.97 89.9766 326.951 91.1016C328.943 89.8711 329.998 87.7852 329.986 86.1797V85.0312H331.791V86.1797C331.779 88.3242 333.361 90.457 336.033 91.3828L335.119 92.7422C333.033 92.0039 331.58 90.5508 330.853 88.8047C330.209 90.4922 328.931 92.0977 327.009 92.9062C324.982 92.1328 323.693 90.6094 323.072 88.8633C322.322 90.5391 320.892 91.9922 318.9 92.7422L317.962 91.3828C320.599 90.3984 322.181 88.1719 322.205 86.1797V85.0312H323.986V86.1797ZM317.423 78.3047C317.412 75.3984 319.72 73.418 322.884 73.4297C326.048 73.418 328.334 75.3984 328.345 78.3047C328.334 81.1641 326.048 83.1328 322.884 83.1328C319.72 83.1328 317.412 81.1641 317.423 78.3047ZM319.228 78.3047C319.205 80.2383 320.74 81.5977 322.884 81.6094C325.005 81.5977 326.541 80.2383 326.541 78.3047C326.541 76.3594 325.005 74.9766 322.884 75C320.74 74.9766 319.205 76.3594 319.228 78.3047ZM332.306 84.1172V72.2109H334.134V84.1172H332.306ZM354.045 78.5156V79.9922H339.772V72.9609H341.6V78.5156H354.045ZM337.17 84.3281V82.8281H356.248V84.3281H337.17ZM339.654 92.5078V86.4609H341.483V90.9844H354.162V92.5078H339.654ZM380.858 72.1875V93.0234H379.077V72.1875H380.858ZM363.257 81.1875C363.269 76.7578 365.026 73.957 367.733 73.9453C370.265 73.957 371.976 76.3945 372.21 80.3203H374.905V72.6328H376.663V91.9688H374.905V81.8438H372.222C372.046 85.8984 370.3 88.4414 367.733 88.4297C365.026 88.4414 363.269 85.6172 363.257 81.1875ZM364.991 81.1875C364.968 84.5625 366.046 86.6953 367.733 86.6719C369.433 86.6953 370.511 84.5625 370.499 81.1875C370.511 77.8008 369.433 75.6797 367.733 75.6797C366.046 75.6797 364.968 77.8008 364.991 81.1875ZM400.558 72.1875V93.0703H398.707V80.6016H392.214V79.0781H398.707V72.1875H400.558ZM384.41 88.0078V74.5312H386.261V86.4609C389.449 86.4258 392.273 86.2617 395.402 85.6172L395.636 87.1406C392.308 87.832 389.378 88.0078 386.003 88.0078H384.41ZM410.977 78.5859C410.988 82.125 413.555 85.7227 416.625 87.0469L415.594 88.5C413.156 87.3984 411.059 84.9961 410.086 82.1133C409.113 85.1719 407.004 87.8203 404.625 89.0156L403.523 87.5625C406.512 86.1328 409.113 82.1953 409.125 78.5859V75.8672H404.203V74.3438H415.945V75.8672H410.977V78.5859ZM418.852 93.0234V72.1875H420.703V93.0234H418.852ZM435.54 76.3359C435.552 78.6445 437.157 80.9766 439.829 81.9844L438.868 83.3906C436.864 82.6172 435.423 81.1289 434.673 79.3359C433.911 81.3164 432.411 83.0859 430.36 83.9766L429.353 82.5469C432.095 81.3516 433.77 78.6562 433.782 76.3359V73.5H435.54V76.3359ZM433.149 89.2734C433.126 86.918 435.798 85.5352 440.134 85.5469C444.446 85.5352 447.13 86.918 447.142 89.2734C447.13 91.6055 444.446 92.9766 440.134 92.9766C435.798 92.9766 433.126 91.6055 433.149 89.2734ZM434.978 89.2734C434.954 90.6914 436.935 91.5586 440.134 91.5469C443.298 91.5586 445.29 90.6914 445.313 89.2734C445.29 87.832 443.298 86.9648 440.134 86.9531C436.935 86.9648 434.954 87.832 434.978 89.2734ZM440.767 84.4219V72.6094H442.501V77.8125H445.267V72.2109H447.024V85.0781H445.267V79.3359H442.501V84.4219H440.767ZM458.685 74.6016V76.1016H452.193V80.1094H458.38V81.5859H452.193V86.2969C455.287 86.2852 457.208 86.1914 459.482 85.7812L459.646 87.3047C457.197 87.7734 455.193 87.8789 451.771 87.8672H450.435V74.6016H458.685ZM461.029 91.9688V72.6328H462.81V80.5781H465.669V72.1875H467.451V93.0234H465.669V82.1016H462.81V91.9688H461.029ZM487.689 72.1875V93.0234H485.932V72.1875H487.689ZM469.83 87.1875C474.365 84.5039 476.639 80.7422 477.002 76.3828H470.767V74.8594H478.83C478.83 75.9258 478.736 76.9805 478.549 78H481.713V72.75H483.471V91.9688H481.713V84.75H477.846V83.2266H481.713V79.5234H478.185C477.178 83.0508 474.892 86.168 470.955 88.5234L469.83 87.1875ZM509.17 81.8672V83.3203H490.092V81.8672H509.17ZM492.389 86.3672V84.9844H506.78V89.4141H494.264V91.4062H507.459V92.7422H492.413V88.1484H504.952V86.3672H492.389ZM492.506 74.1562V72.8203H506.709V77.1328H494.405V78.9609H507.084V80.2969H492.577V75.8672H504.858V74.1562H492.506ZM526.445 74.0859V83.6719H516.812V74.0859H526.445ZM518.617 82.1953H524.663V75.5859H518.617V82.1953ZM519.179 92.5781V86.0156H520.984V91.0312H533.171V92.5781H519.179ZM530.382 87.4688V72.1875H532.21V78.5391H535.351V80.0859H532.21V87.4688H530.382ZM555.191 80.9531V82.4297H536.183V80.9531H555.191ZM538.48 85.7344V84.3047H552.73V89.1328H540.355V91.2891H553.363V92.7891H538.527V87.75H550.926V85.7344H538.48ZM538.715 79.2422V72.9141H552.707V74.3906H540.566V77.7422H552.918V79.2422H538.715ZM562.047 73.8047C564.883 73.8164 566.934 76.2539 567.215 80.1562H571.891V72.1875H573.719V93.0703H571.891V81.6797H567.239C567.039 85.7695 564.953 88.3242 562.047 88.3125C558.965 88.3242 556.809 85.5117 556.821 81.0703C556.809 76.6406 558.965 73.8164 562.047 73.8047ZM558.578 81.0703C558.59 84.457 559.996 86.6836 562.047 86.6719C564.086 86.6836 565.516 84.457 565.516 81.0703C565.516 77.6836 564.086 75.457 562.047 75.4453C559.996 75.457 558.59 77.6836 558.578 81.0703ZM592.997 72.1875V77.1562H596.138V78.7031H592.997V83.4609H591.145V72.1875H592.997ZM576.755 82.2188C581.911 80.9883 584.981 78.3516 585.309 74.9766H577.669V73.4766H587.325C587.313 78.6797 583.61 82.2188 577.458 83.7422L576.755 82.2188ZM579.755 92.7422V84.4219H581.606V87.0703H591.169V84.4219H592.997V92.7422H579.755ZM581.606 91.2422H591.169V88.5469H581.606V91.2422ZM614.15 72.1875V93.0234H612.322V72.1875H614.15ZM598.329 87.6562V74.25H600.134V86.0625C603.322 86.0391 606.603 85.793 610.095 85.0547L610.353 86.625C606.65 87.3984 603.357 87.6562 600.017 87.6562H598.329ZM633.357 72.1875V80.4375H636.849V81.9844H633.357V93.0703H631.529V72.1875H633.357ZM618.146 87.8438V74.2266H627.873V75.75H619.974V86.2969C623.748 86.2852 626.408 86.1211 629.513 85.5469L629.748 87.1406C626.478 87.7266 623.748 87.8438 619.787 87.8438H618.146ZM639.698 91.2656C638.877 91.2539 638.174 90.5742 638.198 89.7422C638.174 88.9219 638.877 88.2422 639.698 88.2422C640.53 88.2422 641.209 88.9219 641.198 89.7422C641.209 90.5742 640.53 91.2539 639.698 91.2656Z" fill="white"/>
</svg>
