<svg width="327" height="43" viewBox="0 0 327 43" fill="none" xmlns="http://www.w3.org/2000/svg">
<path d="M14.1093 11.3438C14.0859 18.4922 16.5468 25.4766 22.4062 28.5938L19.3124 32.7188C15.4921 30.5859 12.9609 26.8594 11.5312 22.3359C10.0077 27.3281 7.28898 31.5234 3.32805 33.8906L-7.82013e-05 30.0938C6.2343 26.4375 9.0468 18.8906 9.0468 11.6719V4.07812H14.1093V11.3438ZM22.9687 40.6406V1.07812H27.8905V17.0156H32.2499V0.328125H37.2655V42.7031H32.2499V21.2344H27.8905V40.6406H22.9687ZM78.9393 21.6094V25.7344H40.2205V21.6094H57.0018V18.5156H45.1424V7.82812H68.9549V5.0625H45.0018V1.07812H74.158V11.5781H50.2987V14.5312H75.0018V18.5156H62.158V21.6094H78.9393ZM45.2362 42.1875V27.4688H50.3924V30.7031H69.1424V27.4688H74.2518V42.1875H45.2362ZM50.3924 38.1094H69.1424V34.6406H50.3924V38.1094ZM116.394 0.328125V42.7031H111.426V0.328125H116.394ZM79.5037 30.0469C88.2693 24.8672 92.3005 18.2344 93.0974 9.70312H81.6599V5.48438H98.2537C98.2537 9.58594 97.738 13.4297 96.5896 17.0156H102.472V1.35938H107.394V40.6875H102.472V21.1875H94.8787C92.4177 26.0391 88.4334 30.2812 82.4568 33.75L79.5037 30.0469ZM164.351 0.328125V25.5H159.148V15.1406H151.929V10.875H159.148V0.328125H164.351ZM128.726 21.2812C135.546 18.9375 139.132 13.2422 139.132 7.64062V7.3125H130.32V3.09375H153.195V7.3125H144.429V7.59375C144.429 12.75 147.851 17.9531 154.414 20.1562L151.789 24.2812C147.078 22.6875 143.75 19.4531 141.875 15.4688C140.023 19.9688 136.484 23.625 131.445 25.4062L128.726 21.2812ZM135.617 34.6406C135.57 29.5547 141.078 26.5781 150.007 26.5781C158.984 26.5781 164.468 29.5547 164.492 34.6406C164.468 39.7266 158.984 42.6797 150.007 42.7031C141.078 42.6797 135.57 39.7266 135.617 34.6406ZM140.773 34.6406C140.75 37.2656 144.125 38.6953 150.007 38.6719C155.937 38.6953 159.289 37.2656 159.289 34.6406C159.289 31.9922 155.937 30.5625 150.007 30.5625C144.125 30.5625 140.75 31.9922 140.773 34.6406ZM182.166 3.28125C188.892 3.25781 193.791 7.5 193.837 13.5C193.791 19.5234 188.892 23.7422 182.166 23.7656C175.509 23.7422 170.517 19.5234 170.541 13.5C170.517 7.5 175.509 3.25781 182.166 3.28125ZM168.619 29.625C176.259 29.625 186.83 29.5312 195.994 28.2188L196.416 32.0156C186.923 33.8203 176.751 33.8906 169.275 33.8906L168.619 29.625ZM175.697 13.5C175.673 17.0391 178.462 19.2188 182.166 19.2188C185.916 19.2188 188.705 17.0391 188.728 13.5C188.705 9.98438 185.939 7.78125 182.166 7.78125C178.462 7.78125 175.673 9.98438 175.697 13.5ZM198.525 42.75V0.328125H203.728V42.75H198.525ZM241.417 0.328125V10.7812H247.324V15.0938H241.417V25.0781H236.214V0.328125H241.417ZM208.042 8.4375V4.26562H218.027V0H223.23V4.26562H233.167V8.4375H208.042ZM210.199 17.3438C210.199 12.8438 214.417 9.89062 220.605 9.89062C226.722 9.89062 230.941 12.8438 230.964 17.3438C230.941 21.8438 226.722 24.8203 220.605 24.7969C214.417 24.8203 210.199 21.8438 210.199 17.3438ZM214.042 42.1875V26.7656H219.199V30.4219H236.214V26.7656H241.417V42.1875H214.042ZM215.261 17.3438C215.238 19.6406 217.394 20.9531 220.605 20.9531C223.816 20.9531 225.996 19.6406 225.996 17.3438C225.996 15.1172 223.816 13.7344 220.605 13.7344C217.394 13.7344 215.238 15.1172 215.261 17.3438ZM219.199 38.0625H236.214V34.4531H219.199V38.0625ZM282.904 0.328125V42.7031H277.747V0.328125H282.904ZM249.997 32.0625V4.45312H255.154V27.6094C261.083 27.5156 267.411 27 273.951 25.6875L274.607 30.0469C267.154 31.5938 260.24 32.0859 253.654 32.0625H249.997ZM320.312 0.328125V16.4062H326.827V20.6719H320.312V42.75H315.109V0.328125H320.312ZM288.859 32.3906V4.35938H308.687V8.57812H294.062V28.0312C300.648 28.0078 305.874 27.6797 311.687 26.6719L312.296 31.0781C305.71 32.2031 300.015 32.3906 292.374 32.3906H288.859Z" fill="white"/>
</svg>
