<svg width="482" height="86" viewBox="0 0 482 86" fill="none" xmlns="http://www.w3.org/2000/svg">
<path d="M-0.000393659 42.84C-0.000393659 34.6 1.83961 27.24 5.51961 20.76C9.27961 14.2 14.3596 9.11996 20.7596 5.51996C27.2396 1.83996 34.4796 -3.62396e-05 42.4796 -3.62396e-05C51.8396 -3.62396e-05 60.0396 2.39996 67.0796 7.19996C74.1196 12 79.0396 18.64 81.8396 27.12H62.5196C60.5996 23.12 57.8796 20.12 54.3596 18.12C50.9196 16.12 46.9196 15.12 42.3596 15.12C37.4796 15.12 33.1196 16.28 29.2796 18.6C25.5196 20.84 22.5596 24.04 20.3996 28.2C18.3196 32.36 17.2796 37.24 17.2796 42.84C17.2796 48.36 18.3196 53.24 20.3996 57.48C22.5596 61.64 25.5196 64.88 29.2796 67.2C33.1196 69.44 37.4796 70.56 42.3596 70.56C46.9196 70.56 50.9196 69.56 54.3596 67.56C57.8796 65.48 60.5996 62.44 62.5196 58.44H81.8396C79.0396 67 74.1196 73.68 67.0796 78.48C60.1196 83.2 51.9196 85.56 42.4796 85.56C34.4796 85.56 27.2396 83.76 20.7596 80.16C14.3596 76.48 9.27961 71.4 5.51961 64.92C1.83961 58.44 -0.000393659 51.08 -0.000393659 42.84ZM145.149 68.88H111.789L106.269 84.84H88.629L118.749 0.959959H138.309L168.429 84.84H150.669L145.149 68.88ZM140.589 55.44L128.469 20.4L116.349 55.44H140.589ZM220.487 84.84L202.007 52.2H194.087V84.84H177.287V1.07996H208.727C215.207 1.07996 220.727 2.23996 225.287 4.55996C229.847 6.79996 233.247 9.87996 235.487 13.8C237.807 17.64 238.967 21.96 238.967 26.76C238.967 32.28 237.367 37.28 234.167 41.76C230.967 46.16 226.207 49.2 219.887 50.88L239.927 84.84H220.487ZM194.087 39.6H208.127C212.687 39.6 216.087 38.52 218.327 36.36C220.567 34.12 221.687 31.04 221.687 27.12C221.687 23.28 220.567 20.32 218.327 18.24C216.087 16.08 212.687 15 208.127 15H194.087V39.6ZM294.962 84.84L276.482 52.2H268.562V84.84H251.762V1.07996H283.202C289.682 1.07996 295.202 2.23996 299.762 4.55996C304.322 6.79996 307.722 9.87996 309.962 13.8C312.282 17.64 313.442 21.96 313.442 26.76C313.442 32.28 311.842 37.28 308.642 41.76C305.442 46.16 300.682 49.2 294.362 50.88L314.402 84.84H294.962ZM268.562 39.6H282.602C287.162 39.6 290.562 38.52 292.802 36.36C295.042 34.12 296.162 31.04 296.162 27.12C296.162 23.28 295.042 20.32 292.802 18.24C290.562 16.08 287.162 15 282.602 15H268.562V39.6ZM343.037 1.07996V84.84H326.237V1.07996H343.037ZM374.036 14.64V35.64H402.236V48.96H374.036V71.16H405.836V84.84H357.236V0.959959H405.836V14.64H374.036ZM461.903 84.84L443.423 52.2H435.503V84.84H418.703V1.07996H450.143C456.623 1.07996 462.143 2.23996 466.703 4.55996C471.263 6.79996 474.663 9.87996 476.903 13.8C479.223 17.64 480.383 21.96 480.383 26.76C480.383 32.28 478.783 37.28 475.583 41.76C472.383 46.16 467.623 49.2 461.303 50.88L481.343 84.84H461.903ZM435.503 39.6H449.543C454.103 39.6 457.503 38.52 459.743 36.36C461.983 34.12 463.103 31.04 463.103 27.12C463.103 23.28 461.983 20.32 459.743 18.24C457.503 16.08 454.103 15 449.543 15H435.503V39.6Z" fill="#182A7E"/>
</svg>
