<svg width="181" height="56" viewBox="0 0 181 56" fill="none" xmlns="http://www.w3.org/2000/svg">
<rect x="0.5" y="0.5" width="180" height="55" rx="27.5" stroke="white"/>
<path d="M29.6719 25.0938C29.6641 27.2578 30.8203 29.7578 33.1562 30.8438L32.0469 32.4062C30.4609 31.6797 29.3359 30.2266 28.6953 28.5234C28.0625 30.3984 26.8906 31.9922 25.25 32.7656L24.0938 31.1875C26.4609 30.0859 27.6562 27.4453 27.6719 25.0938V24.2188H24.6562V22.5938H32.5312V24.2188H29.6719V25.0938ZM33.6406 35.4375V21.2188H35.6406V26.6406H37.7344V28.3125H35.6406V35.4375H33.6406ZM42.0125 24.7969C42.0047 27.1016 42.6453 29.4766 44.5906 30.7188L43.5125 32.2656C42.2781 31.5234 41.5047 30.2891 41.0516 28.8359C40.5437 30.4453 39.6922 31.7969 38.4031 32.5781L37.1844 31.1094C39.2937 29.8047 40.075 27.2969 40.075 24.8906V22.4375H42.0125V24.7969ZM43.0906 27.6406V26.0156H44.9344V21.4219H46.7937V34.7812H44.9344V27.6406H43.0906ZM47.8719 35.4375V21.2188H49.7781V35.4375H47.8719ZM62.3844 21.2188V35.4375H60.3687V21.2188H62.3844ZM50.775 24.9531V23.3594H54.0094V21.4062H56.0406V23.3594H59.275V24.9531H50.775ZM51.3844 29.125C51.3844 27.1406 52.9469 25.7266 55.0562 25.7344C57.1578 25.7266 58.7125 27.1406 58.7125 29.125C58.7125 31.1094 57.1578 32.5078 55.0562 32.5156C52.9469 32.5078 51.3844 31.1094 51.3844 29.125ZM53.2906 29.125C53.2828 30.2266 54.0172 30.8828 55.0562 30.875C56.0797 30.8828 56.8062 30.2266 56.8062 29.125C56.8062 28.0312 56.0797 27.3594 55.0562 27.3438C54.0172 27.3594 53.2828 28.0312 53.2906 29.125ZM79.4094 32.1562V33.7812H66.3937V32.1562H71.8781V29.5312H67.7687V22.125H69.7687V24.3281H75.9719V22.125H77.9562V29.5312H73.8625V32.1562H79.4094ZM69.7687 27.9375H75.9719V25.9219H69.7687V27.9375ZM91.375 21.2188V35.4375H89.3594V21.2188H91.375ZM79.4688 31.4062C83.1406 29.6719 84.7578 27.4219 85.0781 24.2656H80.2344V22.7031H87.1094C87.1016 27.0156 85.5938 30.6016 80.5156 33L79.4688 31.4062Z" fill="white"/>
<path d="M137 28H152M152 28L145.182 21M152 28L145.182 35" stroke="white" stroke-width="1.5" stroke-linejoin="round"/>
</svg>
