<svg width="454" height="43" viewBox="0 0 454 43" fill="none" xmlns="http://www.w3.org/2000/svg">
<path d="M34.9218 0.375V31.4531H29.7187V17.2031H21.5624V12.8906H29.7187V0.375H34.9218ZM-7.82013e-05 22.8281C9.11711 19.9453 15.1405 14.5312 16.1484 7.82812H2.20305V3.5625H21.8437C21.8437 14.7422 14.4609 23.0859 2.20305 27L-7.82013e-05 22.8281ZM7.31242 41.8594V28.3125H12.6093V37.6406H35.9999V41.8594H7.31242ZM72.4237 0.328125V10.6406H78.3299V14.9062H72.4237V25.1719H67.2205V0.328125H72.4237ZM38.8612 21.6094C48.4471 18.9844 54.1659 13.8047 55.0565 7.45312H40.783V3.23438H60.7049C60.7284 14.3672 53.4627 22.2891 40.9237 25.8281L38.8612 21.6094ZM44.5799 34.1719C44.533 28.9453 50.2049 25.6875 58.7362 25.6875C67.3377 25.6875 72.8924 28.9453 72.8924 34.1719C72.8924 39.4453 67.3377 42.6797 58.7362 42.6562C50.2049 42.6797 44.533 39.4453 44.5799 34.1719ZM49.7362 34.1719C49.7127 36.9375 53.1346 38.5781 58.7362 38.5781C64.3143 38.5781 67.7596 36.9375 67.783 34.1719C67.7596 31.3828 64.3143 29.7656 58.7362 29.7656C53.1346 29.7656 49.7127 31.3828 49.7362 34.1719ZM111.988 0.375V13.6875H117.894V18H111.988V32.0156H106.785V0.375H111.988ZM78.613 9.23438V5.0625H88.5974V0.328125H93.8005V5.0625H103.738V9.23438H78.613ZM80.7693 19.0781C80.7693 14.2031 85.0115 10.9688 91.1755 10.9688C97.2927 10.9688 101.511 14.2031 101.535 19.0781C101.511 23.9297 97.2927 27.0938 91.1755 27.0938C85.0115 27.0938 80.7693 23.9297 80.7693 19.0781ZM84.8474 41.8594V29.5312H90.0505V37.6406H113.676V41.8594H84.8474ZM85.8318 19.0781C85.8084 21.6328 87.9646 23.0859 91.1755 23.0625C94.3865 23.0859 96.5662 21.6328 96.5662 19.0781C96.5662 16.5 94.3865 15 91.1755 15C87.9646 15 85.8084 16.5 85.8318 19.0781ZM161.164 0.328125V14.5312H166.882V18.8438H161.164V33.4219H155.961V0.328125H161.164ZM127.226 24.9375C130.39 24.9375 134.07 24.9141 137.914 24.7969V22.1016C133.203 21.5156 130.203 19.1953 130.226 15.7969C130.203 11.6484 134.304 9.1875 140.445 9.23438C146.609 9.1875 150.664 11.6484 150.664 15.7969C150.664 19.1719 147.757 21.4688 143.117 22.1016V24.5391C146.726 24.3281 150.359 24 153.757 23.4844L154.179 27.1406C145.203 28.8281 135.101 28.9453 127.789 29.0156L127.226 24.9375ZM128.304 7.82812V4.03125H137.914V0.1875H143.117V4.03125H152.632V7.82812H128.304ZM133.32 41.8594V31.2188H138.523V37.6406H162.664V41.8594H133.32ZM135.242 15.7969C135.195 17.625 137.164 18.7031 140.445 18.7031C143.726 18.7031 145.695 17.625 145.695 15.7969C145.695 13.8047 143.726 12.7266 140.445 12.75C137.164 12.7266 135.195 13.8047 135.242 15.7969ZM202.65 0.375V25.125H197.447V20.4375H187.369V16.2188H197.447V11.6719H187.767C185.095 18.3984 178.908 23.1094 169.697 25.6875L167.587 21.5625C177.501 18.8906 182.798 13.8516 183.595 7.54688H169.837V3.32812H189.291C189.291 4.80469 189.173 6.21094 188.939 7.54688H197.447V0.375H202.65ZM174.244 34.0312C174.244 28.8281 179.939 25.6172 188.634 25.5938C197.212 25.6172 202.931 28.8281 202.931 34.0312C202.931 39.2344 197.212 42.4922 188.634 42.4688C179.939 42.4922 174.244 39.2344 174.244 34.0312ZM179.447 34.0312C179.447 36.8203 182.939 38.3438 188.634 38.3438C194.236 38.3438 197.705 36.8203 197.728 34.0312C197.705 31.1953 194.236 29.6719 188.634 29.6719C182.939 29.6719 179.447 31.1953 179.447 34.0312ZM225.996 0.984375C235.652 1.00781 241.253 3.5625 241.277 8.25C241.253 12.9844 235.652 15.5391 225.996 15.5625C216.363 15.5391 210.714 12.9844 210.714 8.25C210.714 3.5625 216.363 1.00781 225.996 0.984375ZM206.73 21.9844V17.8125H245.355V21.9844H206.73ZM211.277 28.6875V24.8438H240.527V35.2031H216.433V38.3438H241.699V42.3281H211.324V31.5H235.417V28.6875H211.277ZM216.199 8.25C216.175 10.5938 219.55 11.6719 225.996 11.6719C232.535 11.6719 235.886 10.5938 235.886 8.25C235.886 6.07031 232.535 4.82812 225.996 4.82812C219.55 4.82812 216.175 6.07031 216.199 8.25ZM294.484 33.3281V37.5938H255.765V33.3281H272.499V23.5781H277.702V33.3281H294.484ZM257.452 21.2344C265.89 19.8281 272.171 14.1094 272.312 8.01562H258.999V3.75H291.156V8.01562H277.796C277.96 14.1094 284.241 19.6875 292.937 21L290.874 25.125C283.726 23.8359 277.843 20.0391 275.101 14.7422C272.382 20.1094 266.57 24.0234 259.515 25.3594L257.452 21.2344ZM310.845 6.42188C310.821 12.1875 314.196 17.4609 320.829 19.5469L318.017 23.625C313.4 21.9844 310.165 18.8906 308.361 14.8828C306.486 19.5 302.946 23.1328 297.814 24.9375L295.048 20.7188C302.056 18.4219 305.571 12.7734 305.595 6.65625V2.625H310.845V6.42188ZM302.079 34.5469C302.032 29.3906 307.54 26.3672 316.47 26.3906C325.446 26.3672 330.931 29.3906 330.954 34.5469C330.931 39.7031 325.446 42.6562 316.47 42.6562C307.54 42.6562 302.032 39.7031 302.079 34.5469ZM307.236 34.5469C307.212 37.125 310.587 38.5547 316.47 38.5781C322.4 38.5547 325.751 37.125 325.751 34.5469C325.751 31.875 322.4 30.4453 316.47 30.4219C310.587 30.4453 307.212 31.875 307.236 34.5469ZM317.173 12.7969V8.53125H325.611V0.328125H330.814V25.2656H325.611V12.7969H317.173ZM368.316 0.328125V10.7812H374.222V15.0938H368.316V25.0781H363.112V0.328125H368.316ZM334.941 8.4375V4.26562H344.925V0H350.128V4.26562H360.066V8.4375H334.941ZM337.097 17.3438C337.097 12.8438 341.316 9.89062 347.503 9.89062C353.62 9.89062 357.839 12.8438 357.862 17.3438C357.839 21.8438 353.62 24.8203 347.503 24.7969C341.316 24.8203 337.097 21.8438 337.097 17.3438ZM340.941 42.1875V26.7656H346.097V30.4219H363.112V26.7656H368.316V42.1875H340.941ZM342.159 17.3438C342.136 19.6406 344.292 20.9531 347.503 20.9531C350.714 20.9531 352.894 19.6406 352.894 17.3438C352.894 15.1172 350.714 13.7344 347.503 13.7344C344.292 13.7344 342.136 15.1172 342.159 17.3438ZM346.097 38.0625H363.112V34.4531H346.097V38.0625ZM409.802 0.328125V42.7031H404.646V0.328125H409.802ZM376.896 32.0625V4.45312H382.052V27.6094C387.981 27.5156 394.31 27 400.849 25.6875L401.505 30.0469C394.052 31.5938 387.138 32.0859 380.552 32.0625H376.896ZM447.21 0.328125V16.4062H453.726V20.6719H447.21V42.75H442.007V0.328125H447.21ZM415.757 32.3906V4.35938H435.585V8.57812H420.96V28.0312C427.546 28.0078 432.772 27.6797 438.585 26.6719L439.194 31.0781C432.608 32.2031 426.913 32.3906 419.272 32.3906H415.757Z" fill="white"/>
</svg>
