<svg width="469" height="156" viewBox="0 0 469 156" fill="none" xmlns="http://www.w3.org/2000/svg">
<path d="M59.7298 104.04H26.3698L20.8498 120H3.20984L33.3298 36.12H52.8898L83.0098 120H65.2498L59.7298 104.04ZM55.1698 90.6L43.0498 55.56L30.9298 90.6H55.1698ZM108.428 36.24V88.08C108.428 93.76 109.908 98.12 112.868 101.16C115.828 104.12 119.988 105.6 125.348 105.6C130.788 105.6 134.988 104.12 137.948 101.16C140.908 98.12 142.388 93.76 142.388 88.08V36.24H159.308V87.96C159.308 95.08 157.748 101.12 154.628 106.08C151.588 110.96 147.468 114.64 142.268 117.12C137.148 119.6 131.428 120.84 125.108 120.84C118.868 120.84 113.188 119.6 108.068 117.12C103.028 114.64 99.0283 110.96 96.0683 106.08C93.1083 101.12 91.6283 95.08 91.6283 87.96V36.24H108.428ZM230.14 36.24V49.8H207.82V120H191.02V49.8H168.7V36.24H230.14ZM256.798 49.8V70.8H284.998V84.12H256.798V106.32H288.598V120H239.998V36.12H288.598V49.8H256.798ZM297.385 78C297.385 69.76 299.225 62.4 302.905 55.92C306.665 49.36 311.745 44.28 318.145 40.68C324.625 37 331.865 35.16 339.865 35.16C349.225 35.16 357.425 37.56 364.465 42.36C371.505 47.16 376.425 53.8 379.225 62.28H359.905C357.985 58.28 355.265 55.28 351.745 53.28C348.305 51.28 344.305 50.28 339.745 50.28C334.865 50.28 330.505 51.44 326.665 53.76C322.905 56 319.945 59.2 317.785 63.36C315.705 67.52 314.665 72.4 314.665 78C314.665 83.52 315.705 88.4 317.785 92.64C319.945 96.8 322.905 100.04 326.665 102.36C330.505 104.6 334.865 105.72 339.745 105.72C344.305 105.72 348.305 104.72 351.745 102.72C355.265 100.64 357.985 97.6 359.905 93.6H379.225C376.425 102.16 371.505 108.84 364.465 113.64C357.505 118.36 349.305 120.72 339.865 120.72C331.865 120.72 324.625 118.92 318.145 115.32C311.745 111.64 306.665 106.56 302.905 100.08C299.225 93.6 297.385 86.24 297.385 78ZM460.655 36.24V120H443.855V84.36H407.975V120H391.175V36.24H407.975V70.68H443.855V36.24H460.655Z" fill="white"/>
</svg>
