<svg width="993" height="53" viewBox="0 0 993 53" fill="none" xmlns="http://www.w3.org/2000/svg">
<path d="M29.94 33L30.516 29.472H27.312L26.736 33H25.476L26.052 29.472H24.144L24.36 28.212H26.268L26.772 25.044H24.9L25.116 23.784H26.988L27.564 20.256H28.824L28.248 23.784H31.452L32.028 20.256H33.324L32.748 23.784H34.62L34.404 25.044H32.532L32.028 28.212H33.9L33.684 29.472H31.812L31.236 33H29.94ZM27.528 28.212H30.732L31.236 25.044H28.032L27.528 28.212ZM43.361 20.004C43.343 24.054 41.183 27.114 36.053 28.788L35.513 27.636C38.213 26.79 39.959 25.566 40.931 24.054L35.621 24.468L35.405 23.352L41.453 23.082C41.687 22.47 41.831 21.822 41.903 21.156H36.197V20.004H43.361ZM37.889 34.188V29.364H39.257V33.036H48.473V34.188H37.889ZM46.601 30.156V18.816H47.969V30.156H46.601ZM56.9376 19.932V21.048H52.3296V23.1H56.3256V24.18H52.3296V26.376C54.5976 26.394 56.0016 26.304 57.6576 25.98L57.8016 27.096C56.0016 27.456 54.5076 27.51 51.9696 27.528H50.9976V19.932H56.9376ZM52.9416 30.336V29.22H63.5256V34.44H62.1576V30.336H52.9416ZM57.0456 24.072V22.92H59.1696V19.14H60.5016V28.356H59.1696V24.072H57.0456ZM62.2296 28.464V18.816H63.5256V28.464H62.2296ZM73.2502 21.12C73.2502 23.784 76.3102 26.16 79.0462 26.664L78.3982 27.816C76.0402 27.276 73.5742 25.602 72.5482 23.334C71.5222 25.602 69.0562 27.276 66.6982 27.816L66.0502 26.664C68.7682 26.142 71.7922 23.784 71.8102 21.12V19.896H73.2502V21.12ZM65.4742 32.316V31.164H79.7662V32.316H65.4742Z" fill="white"/>
<path d="M134.94 33L135.516 29.472H132.312L131.736 33H130.476L131.052 29.472H129.144L129.36 28.212H131.268L131.772 25.044H129.9L130.116 23.784H131.988L132.564 20.256H133.824L133.248 23.784H136.452L137.028 20.256H138.324L137.748 23.784H139.62L139.404 25.044H137.532L137.028 28.212H138.9L138.684 29.472H136.812L136.236 33H134.94ZM132.528 28.212H135.732L136.236 25.044H133.032L132.528 28.212ZM148.037 20.292V21.444H142.241V29.436C145.049 29.418 146.921 29.328 149.081 28.896L149.261 30.048C146.957 30.48 145.049 30.588 142.061 30.588H140.837V20.292H148.037ZM147.101 25.656V24.468H151.637V18.816H153.041V34.44H151.637V25.656H147.101ZM168.202 18.816V30.732H166.834V27.384H164.098V26.232H166.834V24.108H164.098V22.992H166.834V18.816H168.202ZM155.278 21.876V20.724H159.094V18.816H160.462V20.724H164.134V21.876H155.278ZM156.214 25.692C156.196 23.91 157.654 22.722 159.742 22.704C161.848 22.722 163.306 23.91 163.306 25.692C163.306 27.474 161.848 28.68 159.742 28.68C157.654 28.68 156.196 27.474 156.214 25.692ZM157.51 25.692C157.492 26.826 158.41 27.6 159.742 27.6C161.074 27.6 162.01 26.826 162.01 25.692C162.01 24.576 161.074 23.82 159.742 23.82C158.41 23.82 157.492 24.576 157.51 25.692ZM158.122 34.08V29.688H159.49V32.928H168.562V34.08H158.122ZM183.794 18.816V34.44H182.498V26.232H180.194V33.612H178.934V19.14H180.194V25.08H182.498V18.816H183.794ZM171.014 30.552V20.724H176.882V21.84H172.418V29.4C174.578 29.364 176.054 29.292 177.782 28.932L177.89 30.084C176.036 30.48 174.434 30.552 172.022 30.552H171.014ZM191.143 22.992C191.143 25.836 192.961 28.68 195.247 29.724L194.419 30.84C192.637 29.922 191.161 28.068 190.459 25.836C189.775 28.176 188.317 30.174 186.535 31.128L185.635 30.012C187.939 28.878 189.739 25.872 189.775 22.992V20.148H191.143V22.992ZM193.555 25.26V24.144H197.227V18.816H198.595V34.44H197.227V25.26H193.555ZM207.96 18.996C211.452 18.996 213.486 19.968 213.468 21.696C213.486 23.46 211.452 24.414 207.96 24.432C204.486 24.414 202.434 23.46 202.416 21.696C202.434 19.968 204.486 18.996 207.96 18.996ZM200.868 26.556V25.44H215.088V26.556H208.644V28.032H213.252V31.524H203.964V33.144H213.72V34.26H202.632V30.516H211.92V29.112H202.596V28.032H207.276V26.556H200.868ZM203.892 21.696C203.856 22.776 205.386 23.352 207.96 23.352C210.57 23.352 212.082 22.776 212.064 21.696C212.082 20.67 210.57 20.058 207.96 20.04C205.386 20.058 203.856 20.67 203.892 21.696Z" fill="white"/>
<path d="M269.94 33L270.516 29.472H267.312L266.736 33H265.476L266.052 29.472H264.144L264.36 28.212H266.268L266.772 25.044H264.9L265.116 23.784H266.988L267.564 20.256H268.824L268.248 23.784H271.452L272.028 20.256H273.324L272.748 23.784H274.62L274.404 25.044H272.532L272.028 28.212H273.9L273.684 29.472H271.812L271.236 33H269.94ZM267.528 28.212H270.732L271.236 25.044H268.032L267.528 28.212ZM287.501 19.572V20.688C287.501 21.858 287.501 23.262 287.087 25.152H289.373V26.268H282.857V29.148H287.609V34.44H286.205V30.3H276.557V29.148H281.489V26.268H275.081V25.152H285.719C286.133 23.244 286.133 21.858 286.133 20.688H276.881V19.572H287.501ZM303.166 18.816V27.384H301.798V18.816H303.166ZM291.034 20.688V19.572H298.198V23.784H292.438V25.908C295.228 25.908 297.298 25.836 299.818 25.404L299.998 26.556C297.37 26.988 295.228 27.06 292.366 27.06H291.07V22.704H296.83V20.688H291.034ZM293.014 34.224V28.176H294.382V30.048H301.798V28.176H303.166V34.224H293.014ZM294.382 33.072H301.798V31.164H294.382V33.072ZM319.694 26.124V27.24H313.25V28.914C316.202 29.058 317.948 30.012 317.966 31.668C317.948 33.414 315.932 34.386 312.566 34.404C309.182 34.386 307.184 33.414 307.166 31.668C307.184 30.012 308.912 29.058 311.882 28.914V27.24H305.474V26.124H319.694ZM306.266 24.072C308.966 23.784 311.576 22.416 311.702 20.652H306.77V19.536H318.434V20.652H313.466C313.574 22.416 316.148 23.784 318.902 24.072L318.398 25.152C315.842 24.846 313.448 23.712 312.584 21.966C311.72 23.712 309.326 24.846 306.77 25.152L306.266 24.072ZM308.57 31.668C308.57 32.694 310.064 33.324 312.566 33.324C315.05 33.324 316.562 32.694 316.562 31.668C316.562 30.606 315.05 29.994 312.566 29.976C310.064 29.994 308.57 30.606 308.57 31.668ZM325.063 19.752C327.439 19.734 329.149 21.246 329.167 23.424C329.149 25.584 327.439 27.078 325.063 27.096C322.687 27.078 320.941 25.584 320.959 23.424C320.941 21.246 322.687 19.734 325.063 19.752ZM322.327 23.424C322.291 24.9 323.461 25.908 325.063 25.944C326.647 25.908 327.799 24.9 327.835 23.424C327.799 21.948 326.647 20.904 325.063 20.904C323.461 20.904 322.291 21.948 322.327 23.424ZM322.687 31.488C322.687 29.634 324.667 28.554 327.871 28.536C331.057 28.554 333.019 29.634 333.019 31.488C333.019 33.306 331.057 34.386 327.871 34.404C324.667 34.386 322.687 33.306 322.687 31.488ZM324.055 31.488C324.055 32.622 325.513 33.27 327.871 33.288C330.229 33.27 331.669 32.622 331.687 31.488C331.669 30.354 330.229 29.688 327.871 29.688C325.513 29.688 324.055 30.354 324.055 31.488ZM331.507 28.068V18.816H332.875V22.74H335.215V23.892H332.875V28.068H331.507ZM348.072 18.816V22.884H350.412V24.036H348.072V28.248H346.704V18.816H348.072ZM336.516 27.168V19.788H337.884V22.236H342.42V19.788H343.788V27.168H336.516ZM337.848 30.192V29.076H348.072V34.44H346.704V30.192H337.848ZM337.884 26.052H342.42V23.352H337.884V26.052ZM365.284 25.404V26.52H358.84V28.068H363.448V31.56H354.16V33.144H363.916V34.26H352.828V30.552H362.116V29.148H352.792V28.068H357.472V26.52H351.064V25.404H365.284ZM352.9 24.072V19.32H363.448V24.072H352.9ZM354.268 22.992H362.08V20.436H354.268V22.992ZM374.901 20.004V20.832C374.901 21.858 374.901 23.424 374.505 25.476L373.137 25.368C373.515 23.478 373.551 22.146 373.569 21.156H367.125V20.004H374.901ZM366.153 26.916C367.161 26.916 368.295 26.916 369.501 26.88V23.46H370.869V26.844C372.615 26.772 374.397 26.646 376.017 26.412L376.125 27.42C372.849 27.996 369.087 28.05 366.297 28.068L366.153 26.916ZM368.565 34.08V29.508H369.969V32.928H379.005V34.08H368.565ZM377.097 30.552V18.816H378.501V23.892H380.769V25.08H378.501V30.552H377.097Z" fill="white"/>
<path d="M435.94 33L436.516 29.472H433.312L432.736 33H431.476L432.052 29.472H430.144L430.36 28.212H432.268L432.772 25.044H430.9L431.116 23.784H432.988L433.564 20.256H434.824L434.248 23.784H437.452L438.028 20.256H439.324L438.748 23.784H440.62L440.404 25.044H438.532L438.028 28.212H439.9L439.684 29.472H437.812L437.236 33H435.94ZM433.528 28.212H436.732L437.236 25.044H434.032L433.528 28.212ZM453.969 18.816V30.228H452.601V18.816H453.969ZM441.441 23.748C441.423 21.48 443.187 19.914 445.545 19.896C447.867 19.914 449.613 21.48 449.613 23.748C449.613 26.016 447.867 27.6 445.545 27.564C443.187 27.6 441.423 26.016 441.441 23.748ZM442.773 23.748C442.773 25.296 443.943 26.376 445.545 26.376C447.075 26.376 448.281 25.296 448.281 23.748C448.281 22.218 447.075 21.12 445.545 21.12C443.943 21.12 442.773 22.218 442.773 23.748ZM443.889 34.08V29.076H445.257V32.928H454.473V34.08H443.889ZM461.606 22.524C461.588 24.63 463.244 26.43 465.566 27.168L464.882 28.284C463.064 27.69 461.642 26.448 460.94 24.828C460.256 26.556 458.834 27.906 456.998 28.536L456.314 27.456C458.618 26.682 460.238 24.738 460.238 22.524V22.02H456.71V20.904H460.238V18.888H461.606V20.904H465.098V22.02H461.606V22.524ZM459.194 34.08V29.436H460.562V32.928H469.67V34.08H459.194ZM464.594 24.756V23.64H467.834V18.816H469.202V30.48H467.834V24.756H464.594ZM483.894 19.572V20.688C483.894 21.858 483.894 23.262 483.48 25.152H485.766V26.268H479.25V29.148H484.002V34.44H482.598V30.3H472.95V29.148H477.882V26.268H471.474V25.152H482.112C482.526 23.244 482.526 21.858 482.526 20.688H473.274V19.572H483.894ZM499.991 18.816V34.44H498.695V18.816H499.991ZM486.455 30.264C488.651 28.968 489.911 26.106 489.911 23.244V21.804H486.887V20.652H494.087V21.804H491.243V23.244C491.243 25.962 492.467 28.662 494.627 29.904L493.763 30.912C492.233 30.012 491.153 28.338 490.595 26.34C490.037 28.482 488.903 30.318 487.355 31.308L486.455 30.264ZM492.899 25.584V24.432H495.563V19.176H496.859V33.612H495.563V25.584H492.899ZM508.924 28.68C512.272 28.68 514.396 29.724 514.396 31.56C514.396 33.342 512.272 34.386 508.924 34.404C505.576 34.386 503.452 33.342 503.452 31.56C503.452 29.724 505.576 28.68 508.924 28.68ZM501.868 27.204V26.088H507.772V23.064H509.104V26.088H516.088V27.204H501.868ZM503.56 20.724V19.608H514.288V20.94C514.27 22.182 514.27 23.46 513.82 25.08L512.488 24.936C512.902 23.298 512.902 22.146 512.92 20.94V20.724H503.56ZM504.82 31.56C504.82 32.622 506.422 33.306 508.924 33.288C511.408 33.306 513.01 32.622 513.028 31.56C513.01 30.426 511.408 29.742 508.924 29.724C506.422 29.742 504.82 30.426 504.82 31.56ZM529.268 18.816V23.172H531.608V24.324H529.268V28.896H527.9V18.816H529.268ZM517.1 21.696V20.58H521.06V18.672H522.428V20.58H526.388V21.696H517.1ZM518 25.26C517.964 23.586 519.476 22.488 521.744 22.488C523.994 22.488 525.488 23.586 525.488 25.26C525.488 26.934 523.994 28.014 521.744 27.996C519.476 28.014 517.964 26.934 518 25.26ZM519.224 31.704C519.206 29.994 521.132 29.004 524.336 29.004C527.504 29.004 529.448 29.994 529.448 31.704C529.448 33.396 527.504 34.386 524.336 34.404C521.132 34.386 519.206 33.396 519.224 31.704ZM519.296 25.26C519.296 26.268 520.268 26.934 521.744 26.916C523.202 26.934 524.192 26.268 524.192 25.26C524.192 24.216 523.202 23.532 521.744 23.532C520.268 23.532 519.296 24.216 519.296 25.26ZM520.592 31.704C520.574 32.712 521.978 33.324 524.336 33.324C526.658 33.324 528.08 32.712 528.08 31.704C528.08 30.66 526.658 30.084 524.336 30.084C521.978 30.084 520.574 30.66 520.592 31.704Z" fill="white"/>
<path d="M585.94 33L586.516 29.472H583.312L582.736 33H581.476L582.052 29.472H580.144L580.36 28.212H582.268L582.772 25.044H580.9L581.116 23.784H582.988L583.564 20.256H584.824L584.248 23.784H587.452L588.028 20.256H589.324L588.748 23.784H590.62L590.404 25.044H588.532L588.028 28.212H589.9L589.684 29.472H587.812L587.236 33H585.94ZM583.528 28.212H586.732L587.236 25.044H584.032L583.528 28.212ZM603.177 18.816V25.26H605.769V26.412H603.177V34.44H601.809V18.816H603.177ZM590.973 22.452V21.3H595.005V18.996H596.373V21.3H600.261V22.452H590.973ZM591.873 27.348C591.855 25.224 593.475 23.748 595.689 23.748C597.921 23.748 599.523 25.224 599.541 27.348C599.523 29.454 597.921 30.93 595.689 30.912C593.475 30.93 591.855 29.454 591.873 27.348ZM593.205 27.348C593.187 28.77 594.249 29.76 595.689 29.76C597.147 29.76 598.209 28.77 598.209 27.348C598.209 25.926 597.147 24.9 595.689 24.9C594.249 24.9 593.187 25.926 593.205 27.348ZM619.13 18.816V34.44H617.762V18.816H619.13ZM606.854 25.44C606.854 22.128 608.51 20.022 610.85 20.004C613.154 20.022 614.828 22.128 614.846 25.44C614.828 28.788 613.154 30.894 610.85 30.912C608.51 30.894 606.854 28.788 606.854 25.44ZM608.186 25.44C608.186 27.996 609.266 29.67 610.85 29.652C612.398 29.67 613.478 27.996 613.478 25.44C613.478 22.92 612.398 21.246 610.85 21.228C609.266 21.246 608.186 22.92 608.186 25.44ZM635.766 31.2V32.352H621.474V31.2H635.766ZM623.166 28.068V19.932H624.534V22.848H632.634V19.932H634.002V28.068H623.166ZM624.534 26.952H632.634V23.964H624.534V26.952ZM649.919 18.816V30.444H648.623V24.648H646.427V29.976H645.131V19.104H646.427V23.496H648.623V18.816H649.919ZM637.355 21.264V20.148H643.259V24.612H638.723V26.988C640.775 26.97 642.341 26.88 644.195 26.52L644.339 27.636C642.323 28.014 640.667 28.104 638.399 28.104H637.391V23.532H641.927V21.264H637.355ZM639.695 34.08V29.4H641.063V32.928H650.423V34.08H639.695ZM664.468 26.304V27.456H653.668V20.256H664.324V21.408H655.036V26.304H664.468ZM651.868 32.28V31.128H666.16V32.28H651.868Z" fill="white"/>
<path d="M720.94 33L721.516 29.472H718.312L717.736 33H716.476L717.052 29.472H715.144L715.36 28.212H717.268L717.772 25.044H715.9L716.116 23.784H717.988L718.564 20.256H719.824L719.248 23.784H722.452L723.028 20.256H724.324L723.748 23.784H725.62L725.404 25.044H723.532L723.028 28.212H724.9L724.684 29.472H722.812L722.236 33H720.94ZM718.528 28.212H721.732L722.236 25.044H719.032L718.528 28.212ZM738.933 18.816V30.696H737.565V29.076H734.325V28.068H737.565V18.816H738.933ZM725.973 26.052C728.889 26.034 732.813 26.016 736.161 25.584L736.233 26.592C734.847 26.826 733.389 26.97 731.949 27.042V30.156H730.581V27.114C728.997 27.168 727.467 27.168 726.153 27.168L725.973 26.052ZM727.233 22.164C727.233 20.526 728.799 19.446 731.121 19.464C733.407 19.446 734.973 20.526 734.973 22.164C734.973 23.838 733.407 24.882 731.121 24.9C728.799 24.882 727.233 23.838 727.233 22.164ZM728.241 34.08V29.508H729.609V32.928H739.329V34.08H728.241ZM728.565 22.164C728.547 23.19 729.591 23.856 731.121 23.856C732.597 23.856 733.641 23.19 733.677 22.164C733.641 21.174 732.597 20.49 731.121 20.508C729.591 20.49 728.547 21.174 728.565 22.164ZM746.534 23.604C746.534 26.106 748.352 28.86 750.602 29.94L749.81 31.02C748.064 30.174 746.57 28.32 745.886 26.214C745.166 28.5 743.582 30.516 741.818 31.416L740.99 30.336C743.258 29.238 745.184 26.268 745.202 23.604V21.552H741.566V20.4H750.062V21.552H746.534V23.604ZM751.97 34.44V18.816H753.374V25.116H755.966V26.304H753.374V34.44H751.97ZM763.854 19.752V24.144H758.49V26.556C761.442 26.574 762.954 26.502 764.79 26.16L764.934 27.312C762.99 27.636 761.388 27.69 758.238 27.708H757.122V23.064H762.486V20.868H757.086V19.752H763.854ZM758.886 30.372V29.256H769.398V34.44H768.03V30.372H758.886ZM764.898 25.512V24.36H768.03V22.272H764.898V21.156H768.03V18.816H769.398V28.428H768.03V25.512H764.898ZM777.827 19.464V21.696H782.363V19.464H783.731V26.268H776.459V19.464H777.827ZM777.827 25.152H782.363V22.812H777.827V25.152ZM778.043 28.716V27.6H788.015V31.38H779.447V33.108H788.591V34.26H778.079V30.336H786.647V28.716H778.043ZM786.647 26.88V18.816H788.015V22.2H790.355V23.352H788.015V26.88H786.647ZM803.932 18.816V30.264H802.564V24.288H799.36V23.136H802.564V18.816H803.932ZM791.044 27.132C793.366 26.34 795.04 24.27 795.04 22.02V21.228H791.512V20.076H799.936V21.228H796.444V22.02C796.426 24.054 797.992 26.016 800.296 26.808L799.576 27.888C797.794 27.258 796.426 25.962 795.76 24.36C795.076 26.16 793.618 27.582 791.764 28.284L791.044 27.132ZM793.924 34.08V29.256H795.292V32.928H804.4V34.08H793.924ZM820.496 31.236V32.388H806.204V31.236H812.576V27.42H813.944V31.236H820.496ZM806.744 26.448C809.48 25.98 812.522 23.694 812.54 21.084V19.86H813.98V21.084C813.98 23.676 817.076 25.98 819.812 26.448L819.164 27.6C816.806 27.096 814.286 25.494 813.278 23.262C812.234 25.494 809.75 27.096 807.356 27.6L806.744 26.448Z" fill="white"/>
<path d="M875.94 33L876.516 29.472H873.312L872.736 33H871.476L872.052 29.472H870.144L870.36 28.212H872.268L872.772 25.044H870.9L871.116 23.784H872.988L873.564 20.256H874.824L874.248 23.784H877.452L878.028 20.256H879.324L878.748 23.784H880.62L880.404 25.044H878.532L878.028 28.212H879.9L879.684 29.472H877.812L877.236 33H875.94ZM873.528 28.212H876.732L877.236 25.044H874.032L873.528 28.212ZM888.857 24.252V26.556H895.301V27.708H881.081V26.556H887.489V24.252H888.857ZM881.909 23.964C884.681 23.604 887.489 21.858 887.489 19.788V19.032H888.857V19.788C888.875 21.858 891.683 23.604 894.437 23.964L893.897 25.08C891.521 24.666 889.163 23.424 888.191 21.642C887.201 23.424 884.843 24.666 882.449 25.08L881.909 23.964ZM882.773 31.704C882.791 29.958 884.789 29.004 888.173 29.004C891.539 29.004 893.555 29.958 893.573 31.704C893.555 33.432 891.539 34.386 888.173 34.404C884.789 34.386 882.791 33.432 882.773 31.704ZM884.177 31.704C884.177 32.73 885.653 33.324 888.173 33.324C890.693 33.324 892.169 32.73 892.169 31.704C892.169 30.66 890.693 30.084 888.173 30.084C885.653 30.084 884.177 30.66 884.177 31.704ZM908.878 26.124V27.24H904.054V31.308H910.57V32.46H896.278V31.308H902.686V27.24H898.078V20.076H908.734V21.192H899.482V26.124H908.878ZM926.486 20.256V33H924.974L918.062 23.1H917.954V33H916.37V20.256H917.882L924.794 30.192H924.938V20.256H926.486ZM928.93 33V20.256H936.634V21.66H930.514V25.944H936.238V27.312H930.514V31.596H936.742V33H928.93ZM939.377 33H937.721L942.365 20.256H944.021L948.701 33H947.045L945.785 29.436H940.637L939.377 33ZM941.141 28.032H945.281L943.265 22.308H943.157L941.141 28.032ZM947.899 21.66V20.256H957.475V21.66H953.479V33H951.895V21.66H947.899ZM958.561 21.66V20.256H968.137V21.66H964.141V33H962.557V21.66H958.561Z" fill="white"/>
</svg>
