<svg width="807" height="49" viewBox="0 0 807 49" fill="none" xmlns="http://www.w3.org/2000/svg">
<path d="M19.8281 3.70312V7.82812H5.20312V12.5625H18.9844V16.6875H5.20312V21.6328C12.6094 21.5859 17.0859 21.375 22.2656 20.4844L22.8281 24.5625C17.0859 25.6406 12.0234 25.8281 3.375 25.8281H0V3.70312H19.8281ZM4.54688 41.9062V28.875H9.75V37.6875H33.375V41.9062H4.54688ZM26.4844 31.7344V0.375H31.6875V13.125H37.5938V17.4375H31.6875V31.7344H26.4844ZM76.5488 33.2812V37.5H37.83V33.2812H54.4238V23.4844H59.58V33.2812H76.5488ZM38.955 20.2031C47.8144 18.7734 54.1659 12.4219 54.1894 6.04688V2.95312H59.7206V6.04688C59.7206 12.4453 66.1191 18.7734 75.0488 20.2031L72.7988 24.5156C65.6503 23.1562 59.7675 19.0547 56.955 13.5C54.1659 19.0312 48.3534 23.1797 41.205 24.5156L38.955 20.2031ZM93.0994 4.26562V14.0625H99.99V4.26562H104.818V32.4844H88.1775V4.26562H93.0994ZM93.0994 28.2656H99.99V18.1875H93.0994V28.2656ZM108.99 40.6875V1.125H113.912V16.7344H118.412V0.375H123.427V42.75H118.412V21.0469H113.912V40.6875H108.99ZM164.961 18.7031V22.5469H148.273V25.6406H160.226V35.5781H136.133V38.4844H161.398V42.375H131.023V32.0156H155.117V29.3906H130.976V25.6406H143.117V22.5469H126.523V18.7031H164.961ZM128.211 13.4062C136.578 12.9844 141.5 10.7344 142.578 7.73438H130.226V3.84375H143.117V0.28125H148.273V3.84375H161.258V7.73438H148.812C149.843 10.7344 154.765 12.9844 163.226 13.4062L161.679 17.2969C154.062 16.8281 148.367 14.7656 145.695 11.3438C143.023 14.7656 137.351 16.8281 129.664 17.2969L128.211 13.4062ZM185.259 1.03125C194.916 1.05469 200.517 3.60938 200.541 8.29688C200.517 13.0312 194.916 15.5859 185.259 15.6094C175.627 15.5859 169.978 13.0312 169.978 8.29688C169.978 3.60938 175.627 1.05469 185.259 1.03125ZM165.994 22.0312V17.8594H204.619V22.0312H165.994ZM170.541 28.7344V24.8906H199.791V35.25H175.697V38.3906H200.962V42.375H170.587V31.5469H194.681V28.7344H170.541ZM175.462 8.29688C175.439 10.6406 178.814 11.7188 185.259 11.7188C191.798 11.7188 195.15 10.6406 195.15 8.29688C195.15 6.11719 191.798 4.875 185.259 4.875C178.814 4.875 175.439 6.11719 175.462 8.29688ZM238.794 4.26562V8.39062H215.122V4.26562H224.591V0H229.794V4.26562H238.794ZM217.326 18.2812C217.302 13.5234 221.474 10.2188 227.122 10.2188C232.841 10.2188 237.037 13.5234 237.06 18.2812C237.037 22.9219 232.841 26.2734 227.122 26.2969C221.474 26.2734 217.302 22.9219 217.326 18.2812ZM221.638 33.5625V29.4375H250.513V42.75H245.31V33.5625H221.638ZM222.201 18.2812C222.177 20.6953 224.216 22.2656 227.122 22.2656C230.052 22.2656 232.185 20.6953 232.185 18.2812C232.185 15.75 230.052 14.1562 227.122 14.1562C224.216 14.1562 222.177 15.75 222.201 18.2812ZM239.029 22.5V18.2812H245.31V14.3438H239.076V10.2188H245.31V0.375H250.513V27.2812H245.31V22.5H239.029ZM289.89 0.421875V31.3594H284.64V0.421875H289.89ZM254.64 21.375C261.507 18.9609 265.023 12.9844 264.999 6.89062V2.76562H270.39V6.89062C270.367 12.7969 273.835 18.375 280.562 20.625L277.89 24.75C273.062 23.0625 269.617 19.6875 267.742 15.3516C265.867 19.9922 262.351 23.6953 257.359 25.5L254.64 21.375ZM261.859 41.9062V28.4062H267.109V37.6875H291.062V41.9062H261.859ZM327.345 0.375V17.25H333.861V21.5625H327.345V42.75H322.189V0.375H327.345ZM293.923 11.0625V6.89062H303.954V0.984375H309.158V6.89062H318.908V11.0625H293.923ZM295.892 23.8125C295.845 17.9531 300.392 13.8047 306.579 13.8281C312.673 13.8047 317.197 17.9531 317.22 23.8125C317.197 29.6484 312.673 33.75 306.579 33.75C300.392 33.75 295.845 29.6484 295.892 23.8125ZM300.861 23.8125C300.837 27.2578 303.251 29.4609 306.579 29.4375C309.837 29.4609 312.204 27.2578 312.251 23.8125C312.204 20.3672 309.837 18.0938 306.579 18.0938C303.251 18.0938 300.837 20.3672 300.861 23.8125ZM368.316 4.26562V8.34375C368.269 13.6172 368.269 19.5 366.628 28.3594L361.378 27.7969C363.042 19.5469 363.042 13.5234 363.066 8.4375H337.753V4.26562H368.316ZM333.722 37.2656V33H347.972V18.2812H353.128V33H372.347V37.2656H333.722ZM381.536 35.25L377.599 48.375H373.146L375.583 35.25H381.536ZM428.368 0.421875V31.0312H423.118V0.421875H428.368ZM393.821 13.7812C393.821 7.61719 398.813 3.21094 405.259 3.1875C411.704 3.21094 416.673 7.61719 416.649 13.7812C416.673 20.0391 411.704 24.4219 405.259 24.4219C398.813 24.4219 393.821 20.0391 393.821 13.7812ZM398.931 13.7812C398.907 17.5312 401.626 19.875 405.259 19.875C408.798 19.875 411.54 17.5312 411.54 13.7812C411.54 10.125 408.798 7.73438 405.259 7.73438C401.626 7.73438 398.907 10.125 398.931 13.7812ZM400.337 41.9062V27.9375H405.587V37.6875H429.54V41.9062H400.337ZM471.307 25.4062V29.4844H461.979V42.75H456.729V29.4844H447.214V42.75H442.011V29.4844H432.589V25.4062H471.307ZM437.136 6.04688V1.78125H466.807V13.6406H442.479V17.6719H467.745V21.8906H437.229V9.75H461.464V6.04688H437.136ZM484.856 3C491.372 3 496.341 7.19531 496.388 13.2188C496.341 18.3984 492.684 22.2188 487.528 23.1797V29.4375C491.067 29.25 494.583 28.9922 497.888 28.5469L498.263 32.4375C489.38 34.0312 479.7 34.0781 472.434 33.9844L471.684 29.7188C474.872 29.7188 478.528 29.6953 482.325 29.6016V23.2266C477.005 22.2891 473.325 18.4453 473.372 13.2188C473.325 7.19531 478.2 3 484.856 3ZM478.434 13.2188C478.411 16.7578 481.153 19.0312 484.856 18.9844C488.489 19.0312 491.208 16.7578 491.231 13.2188C491.208 9.65625 488.489 7.45312 484.856 7.40625C481.153 7.45312 478.411 9.65625 478.434 13.2188ZM500.325 42.75V0.375H505.528V17.2969H511.669V21.7031H505.528V42.75H500.325ZM536.422 12.4219C536.399 18.9609 540.337 26.4141 547.016 29.5312L544.11 33.6562C539.329 31.4062 535.79 26.8594 533.891 21.5625C531.969 27.375 528.266 32.3438 523.391 34.6875L520.344 30.6094C527.094 27.3984 531.196 19.4766 531.219 12.4219V8.85938H521.985V4.54688H545.282V8.85938H536.422V12.4219ZM549.219 42.75V0.375H554.422V16.875H560.938V21.2344H554.422V42.75H549.219ZM596.284 0.421875V31.5H591.081V21H580.979C578.963 23.2734 575.963 24.6328 572.565 24.6562C566.167 24.6328 561.362 20.0859 561.362 13.8281C561.362 7.5 566.167 2.97656 572.565 2.95312C575.94 2.97656 578.94 4.3125 580.956 6.5625H591.081V0.421875H596.284ZM566.331 13.8281C566.331 17.6016 568.932 20.0156 572.565 20.0156C576.034 20.0156 578.682 17.6016 578.706 13.8281C578.682 10.0312 576.034 7.59375 572.565 7.59375C568.932 7.59375 566.331 10.0312 566.331 13.8281ZM568.487 41.9062V28.3125H573.69V37.6875H597.362V41.9062H568.487ZM583.253 10.7812C583.51 11.7422 583.674 12.75 583.674 13.8281C583.674 14.8594 583.534 15.8438 583.276 16.7812H591.081V10.7812H583.253ZM635.614 0.375V42.7969H630.364V0.375H635.614ZM601.723 18.4219C601.7 9.28125 606.364 3.46875 612.786 3.46875C619.137 3.46875 623.825 9.28125 623.848 18.4219C623.825 27.6328 619.137 33.4219 612.786 33.4219C606.364 33.4219 601.7 27.6328 601.723 18.4219ZM606.739 18.4219C606.739 24.9375 609.2 28.7109 612.786 28.7344C616.348 28.7109 618.786 24.9375 618.786 18.4219C618.786 11.9531 616.348 8.15625 612.786 8.15625C609.2 8.15625 606.739 11.9531 606.739 18.4219ZM664.399 7.125C664.399 12.4453 667.844 17.4844 674.383 19.5469L671.571 23.625C667 22.0781 663.719 18.9844 661.867 15.0469C660.039 19.5469 656.617 23.0859 651.742 24.7969L648.93 20.7188C655.75 18.3516 659.172 12.7031 659.196 6.65625V2.625H664.399V7.125ZM654.696 34.6406C654.696 29.625 660.203 26.6484 669.039 26.6719C677.805 26.6484 683.219 29.625 683.242 34.6406C683.219 39.7734 677.805 42.7031 669.039 42.7031C660.203 42.7031 654.696 39.7734 654.696 34.6406ZM659.899 34.6406C659.899 37.2656 663.227 38.5781 669.039 38.5781C674.828 38.5781 678.086 37.2656 678.086 34.6406C678.086 32.1562 674.828 30.75 669.039 30.75C663.227 30.75 659.899 32.1562 659.899 34.6406ZM677.617 25.7344V0.375H682.821V10.6875H688.727V15H682.821V25.7344H677.617ZM702.182 8.25C702.205 12.8203 704.877 17.4375 710.432 19.5469L707.666 23.5312C703.893 22.1016 701.268 19.3828 699.744 16.1016C698.198 19.875 695.432 23.1094 691.401 24.7969L688.588 20.8125C694.424 18.2344 697.143 12.9375 697.166 8.25V3H702.182V8.25ZM696.369 34.875C696.346 30 701.971 27.0938 710.901 27.0938C719.76 27.0938 725.408 30 725.432 34.875C725.408 39.7734 719.76 42.7031 710.901 42.7031C701.971 42.7031 696.346 39.7734 696.369 34.875ZM701.573 34.875C701.549 37.3828 705.018 38.7422 710.901 38.7188C716.69 38.7422 720.158 37.3828 720.182 34.875C720.158 32.3906 716.69 31.0312 710.901 31.0312C705.018 31.0312 701.549 32.3906 701.573 34.875ZM711.135 25.0781V1.21875H716.01V11.1094H720.229V0.421875H725.198V26.3906H720.229V15.375H716.01V25.0781H711.135ZM761.715 0.375V17.25H768.231V21.5625H761.715V42.75H756.559V0.375H761.715ZM728.293 11.0625V6.89062H738.324V0.984375H743.528V6.89062H753.278V11.0625H728.293ZM730.262 23.8125C730.215 17.9531 734.762 13.8047 740.949 13.8281C747.043 13.8047 751.567 17.9531 751.59 23.8125C751.567 29.6484 747.043 33.75 740.949 33.75C734.762 33.75 730.215 29.6484 730.262 23.8125ZM735.231 23.8125C735.207 27.2578 737.621 29.4609 740.949 29.4375C744.207 29.4609 746.574 27.2578 746.621 23.8125C746.574 20.3672 744.207 18.0938 740.949 18.0938C737.621 18.0938 735.207 20.3672 735.231 23.8125ZM802.404 12.375V16.5H773.061V1.92188H778.217V12.375H802.404ZM768.045 25.5469V21.4219H806.764V25.5469H768.045ZM772.686 41.7656V29.2969H777.889V37.5469H802.686V41.7656H772.686Z" fill="white"/>
</svg>
