<svg width="462" height="48" viewBox="0 0 462 48" fill="none" xmlns="http://www.w3.org/2000/svg">
<path d="M36.1406 0V42.375H31.125V0H36.1406ZM0 18.3281C0 9 3.60938 3.21094 9.14062 3.23438C14.2734 3.21094 17.7656 8.01562 18.375 15.9375H22.4531V0.75H27.4219V40.3125H22.4531V20.1562H18.4219C17.9297 28.4297 14.3906 33.4922 9.14062 33.4688C3.60938 33.4922 0 27.6797 0 18.3281ZM4.82812 18.3281C4.80469 24.9609 6.44531 28.5234 9.14062 28.5C11.9531 28.5234 13.6172 24.9609 13.6406 18.3281C13.6172 11.7188 11.9531 8.13281 9.14062 8.15625C6.44531 8.13281 4.80469 11.7188 4.82812 18.3281ZM74.7206 0V42.4219H69.5175V17.625H57.3769V13.4062H69.5175V0H74.7206ZM41.3925 32.3906V4.64062H46.5956V28.0078C52.2909 27.9375 57.9394 27.5156 63.8925 26.3438L64.5019 30.6094C57.6816 32.0156 51.3534 32.3672 44.8613 32.3906H41.3925ZM94.6913 12.0469C94.6913 18.9844 98.7694 26.2969 105.613 29.1562L102.754 33.2812C97.7381 31.1016 94.0819 26.6719 92.1366 21.2812C90.1913 27.0938 86.4647 31.9688 81.5194 34.3125L78.5194 30.2344C85.1991 27.1406 89.3709 19.2422 89.3944 12.0469V8.48438H80.0663V4.17188H103.973V8.48438H94.6913V12.0469ZM108.707 42.375V0H113.957V42.375H108.707ZM132.006 2.95312C138.732 2.92969 143.631 7.17188 143.677 13.1719C143.631 19.1953 138.732 23.4141 132.006 23.4375C125.349 23.4141 120.357 19.1953 120.381 13.1719C120.357 7.17188 125.349 2.92969 132.006 2.95312ZM118.459 29.2969C126.099 29.2969 136.67 29.2031 145.834 27.8906L146.256 31.6875C136.763 33.4922 126.592 33.5625 119.115 33.5625L118.459 29.2969ZM125.537 13.1719C125.513 16.7109 128.302 18.8906 132.006 18.8906C135.756 18.8906 138.545 16.7109 138.568 13.1719C138.545 9.65625 135.779 7.45312 132.006 7.45312C128.302 7.45312 125.513 9.65625 125.537 13.1719ZM148.365 42.4219V0H153.568V42.4219H148.365ZM202.509 0V21.8438H197.353V0H202.509ZM167.634 18.0469C174.22 16.1016 177.853 11.3203 178.111 6.32812H168.994V2.10938H192.291V6.32812H183.408C183.642 11.0156 187.228 15.4688 193.791 17.25L191.259 21.2812C186.314 19.8516 182.775 16.8516 180.853 13.0078C178.931 17.25 175.252 20.6016 170.025 22.1719L167.634 18.0469ZM174.478 27.6094V23.625H202.603V34.5469H179.681V37.9688H203.869V42H174.572V30.75H197.4V27.6094H174.478ZM222.527 10.1719C222.503 18.0469 226.277 25.7812 233.027 28.7344L229.886 32.9062C225.105 30.5625 221.73 26.0625 219.925 20.5078C218.074 26.3672 214.605 31.2422 209.73 33.7031L206.449 29.4844C213.363 26.25 217.207 18.0938 217.23 10.1719V3.42188H222.527V10.1719ZM228.339 17.9062V13.6875H237.246V0H242.402V42.4219H237.246V17.9062H228.339ZM285.107 19.2188V23.1562H246.388V19.2188H285.107ZM250.888 29.3438V25.6875H280.419V35.3438H256.138V38.2969H281.685V41.9062H250.935V31.9688H275.263V29.3438H250.888ZM251.169 4.54688V0.9375H280.326V10.5H256.466V13.2656H281.076V16.8281H251.31V7.125H275.122V4.54688H251.169ZM330.954 0V21.7031H325.751V10.9688H317.314V6.79688H325.751V0H330.954ZM295.236 17.7656C302.056 15.7031 305.595 10.4766 305.595 4.78125V1.40625H310.845V4.78125C310.822 10.0078 314.243 14.9531 320.829 16.9688L318.064 21C313.47 19.4766 310.142 16.4766 308.267 12.6328C306.439 16.9219 302.947 20.2969 297.954 21.9375L295.236 17.7656ZM303.064 27.6094V23.5312H330.954V34.5H308.22V37.7344H332.314V41.8594H303.111V30.6094H325.798V27.6094H303.064ZM371.597 0V42.375H366.628V0H371.597ZM334.612 29.7188C343.378 24.5391 347.409 17.9062 348.206 9.375H336.862V5.15625H353.362C353.362 7.28906 353.222 9.375 352.917 11.3906H357.862V1.03125H362.831V40.3594H357.862V26.2031H351.253V21.9375H357.862V15.6562H352.027C350.011 22.6875 345.605 28.7344 337.659 33.4219L334.612 29.7188ZM407.786 0V16.875H414.302V21.1875H407.786V42.375H402.63V0H407.786ZM374.364 10.6875V6.51562H384.396V0.609375H389.599V6.51562H399.349V10.6875H374.364ZM376.333 23.4375C376.286 17.5781 380.833 13.4297 387.021 13.4531C393.114 13.4297 397.638 17.5781 397.661 23.4375C397.638 29.2734 393.114 33.375 387.021 33.375C380.833 33.375 376.286 29.2734 376.333 23.4375ZM381.302 23.4375C381.278 26.8828 383.693 29.0859 387.021 29.0625C390.278 29.0859 392.646 26.8828 392.693 23.4375C392.646 19.9922 390.278 17.7188 387.021 17.7188C383.693 17.7188 381.278 19.9922 381.302 23.4375ZM448.757 3.89062V7.96875C448.71 13.2422 448.71 19.125 447.069 27.9844L441.819 27.4219C443.483 19.1719 443.483 13.1484 443.507 8.0625H418.194V3.89062H448.757ZM414.163 36.8906V32.625H428.413V17.9062H433.569V32.625H452.788V36.8906H414.163ZM461.978 34.875L458.04 48H453.587L456.024 34.875H461.978Z" fill="white"/>
</svg>
