<svg width="368" height="144" viewBox="0 0 368 144" fill="none" xmlns="http://www.w3.org/2000/svg">
<path d="M3.29688 4.6875V16H0.953125V4.6875H3.29688ZM7.14875 11.0938V16H4.83625V7.51562H7.03938V9H7.13313C7.51594 8.02344 8.42219 7.40625 9.68 7.40625C11.4534 7.40625 12.6097 8.61719 12.6019 10.5938V16H10.305V11C10.2972 9.95312 9.73469 9.32812 8.77375 9.32812C7.81281 9.32812 7.14875 9.97656 7.14875 11.0938ZM18.9225 10.0312C18.8209 9.4375 18.3053 9.05469 17.5319 9.04688C16.7819 9.05469 16.2116 9.40625 16.2194 9.92188C16.2116 10.3047 16.5084 10.6016 17.3131 10.7656L18.8287 11.0781C20.4772 11.4219 21.2741 12.1562 21.2819 13.375C21.2741 15.0469 19.7741 16.1641 17.5162 16.1719C15.2272 16.1641 13.8834 15.1406 13.6881 13.4844H16.0162C16.1256 14.1484 16.6647 14.4922 17.5162 14.5C18.36 14.4922 18.9225 14.1562 18.9225 13.6094C18.9225 13.1719 18.5631 12.8984 17.7662 12.7344L16.36 12.4531C14.7428 12.1328 13.9147 11.3047 13.9225 10.0469C13.9147 8.42188 15.3131 7.40625 17.5006 7.40625C19.6412 7.40625 20.9694 8.42188 21.0944 10.0312H18.9225ZM26.8525 7.51562V9.25H25.2588V13.3906C25.2509 14.0703 25.5869 14.2344 26.0556 14.25C26.29 14.25 26.6963 14.2266 26.9775 14.2031V16.0312C26.7275 16.0703 26.3134 16.1172 25.7431 16.1094C24.0713 16.1172 22.9306 15.3672 22.9463 13.7188V9.25H21.7744V7.51562H22.9463V5.48438H25.2588V7.51562H26.8525ZM27.5794 13.625C27.5872 11.7344 29.1028 11.1172 30.7356 11.0156C31.345 10.9766 32.4856 10.9219 32.845 10.9062V10.2188C32.8372 9.50781 32.3528 9.10156 31.4856 9.09375C30.6966 9.10156 30.2044 9.45312 30.0794 10.0312H27.8762C28.0169 8.5625 29.2981 7.40625 31.5481 7.40625C33.3997 7.40625 35.1497 8.23438 35.1419 10.2812V16H32.9544V14.8281H32.8919C32.4778 15.6094 31.6653 16.1641 30.4075 16.1562C28.7825 16.1641 27.5872 15.3047 27.5794 13.625ZM29.7981 13.5625C29.7981 14.2109 30.3216 14.5547 31.0637 14.5625C32.1184 14.5547 32.8528 13.8672 32.845 12.9688V12.3516C32.4934 12.3672 31.5012 12.4219 31.1106 12.4531C30.3059 12.5234 29.7981 12.9062 29.7981 13.5625ZM40.4 19.3594C38.0563 19.3594 36.6109 18.3047 36.4781 16.7031H38.7594C38.8844 17.3828 39.525 17.6875 40.4469 17.6875C41.5172 17.6875 42.2359 17.2266 42.2438 16.0469V14.5H42.1344C41.8297 15.1875 41.0797 15.8828 39.7125 15.875C37.7984 15.8828 36.2594 14.5312 36.2594 11.7031C36.2594 8.83594 37.8375 7.40625 39.7125 7.40625C41.1344 7.40625 41.8219 8.25 42.1344 8.9375H42.2281V7.51562H44.525V16.0938C44.5172 18.2578 42.8141 19.3594 40.4 19.3594ZM38.6344 11.7344C38.6266 13.2031 39.2594 14.1328 40.4313 14.1406C41.5875 14.1328 42.2438 13.2422 42.2438 11.7344C42.2438 10.2266 41.5953 9.25 40.4313 9.25C39.2516 9.25 38.6266 10.2734 38.6344 11.7344ZM46.0019 16V7.51562H48.2363V8.98438H48.33C48.6347 7.94531 49.4238 7.39062 50.3769 7.39062C50.6113 7.39062 50.9081 7.42188 51.1113 7.46875V9.53125C50.8925 9.46094 50.4472 9.40625 50.1269 9.40625C49.08 9.40625 48.3066 10.1328 48.3144 11.1719V16H46.0019ZM51.2756 13.625C51.2834 11.7344 52.7991 11.1172 54.4319 11.0156C55.0412 10.9766 56.1819 10.9219 56.5412 10.9062V10.2188C56.5334 9.50781 56.0491 9.10156 55.1819 9.09375C54.3928 9.10156 53.9006 9.45312 53.7756 10.0312H51.5725C51.7131 8.5625 52.9944 7.40625 55.2444 7.40625C57.0959 7.40625 58.8459 8.23438 58.8381 10.2812V16H56.6506V14.8281H56.5881C56.1741 15.6094 55.3616 16.1641 54.1037 16.1562C52.4787 16.1641 51.2834 15.3047 51.2756 13.625ZM53.4944 13.5625C53.4944 14.2109 54.0178 14.5547 54.76 14.5625C55.8147 14.5547 56.5491 13.8672 56.5412 12.9688V12.3516C56.1897 12.3672 55.1975 12.4219 54.8069 12.4531C54.0022 12.5234 53.4944 12.9062 53.4944 13.5625ZM60.2837 16V7.51562H62.4869V9H62.5806C62.94 8.00781 63.7994 7.40625 64.94 7.40625C66.1041 7.40625 66.9712 8.02344 67.2525 9H67.3306C67.6822 8.03906 68.6509 7.40625 69.8931 7.40625C71.4634 7.40625 72.565 8.44531 72.565 10.2969V16H70.2525V10.75C70.2603 9.78125 69.6822 9.3125 68.9244 9.3125C68.0572 9.3125 67.5416 9.91406 67.5494 10.8125V16H65.2994V10.6875C65.3072 9.85156 64.7759 9.3125 63.9869 9.3125C63.1978 9.3125 62.5884 9.94531 62.5962 10.9062V16H60.2837Z" fill="#295FCC"/>
<path d="M14.8711 50.1094V51.252H8.41992V52.9219C11.3643 53.0537 13.1133 54.0117 13.1309 55.6641C13.1133 57.4131 11.1006 58.3887 7.75195 58.3887C4.35938 58.3887 2.34668 57.4131 2.35547 55.6641C2.34668 54.0117 4.08691 53.0537 7.06641 52.9219V51.252H0.632812V50.1094H14.8711ZM1.44141 48.0703C4.14844 47.7891 6.75879 46.4092 6.85547 44.6602H1.93359V43.5352H13.6055V44.6602H8.64844C8.74512 46.4092 11.3291 47.7891 14.0801 48.0703L13.5703 49.1602C11.0127 48.8525 8.61328 47.7012 7.75195 45.9697C6.89062 47.7012 4.50879 48.8525 1.93359 49.1602L1.44141 48.0703ZM3.76172 55.6641C3.74414 56.7012 5.24707 57.3252 7.75195 57.3164C10.2305 57.3252 11.7334 56.7012 11.7422 55.6641C11.7334 54.6006 10.2305 53.9941 7.75195 53.9766C5.24707 53.9941 3.74414 54.6006 3.76172 55.6641ZM29.1888 42.7969V58.4238H27.8705V50.2324H25.5677V57.6152H24.3021V43.1484H25.5677V49.0898H27.8705V42.7969H29.1888ZM16.4095 54.5566V44.7129H22.263V45.8555H17.7806V53.3789C19.9339 53.3701 21.4193 53.291 23.1595 52.9395L23.2826 54.0996C21.4017 54.4863 19.8109 54.5479 17.4115 54.5566H16.4095ZM39.8855 44.5547V45.6797H31.0437V44.5547H34.8405V42.6738H36.2116V44.5547H39.8855ZM31.9753 49.3711C31.9577 47.6309 33.3991 46.4795 35.5085 46.4883C37.6003 46.4795 39.0681 47.6309 39.0769 49.3711C39.0681 51.1201 37.6003 52.2627 35.5085 52.2715C33.3991 52.2627 31.9577 51.1201 31.9753 49.3711ZM33.2585 49.3711C33.2497 50.4697 34.1462 51.208 35.5085 51.1992C36.8532 51.208 37.7761 50.4697 37.7937 49.3711C37.7761 48.2725 36.8532 47.543 35.5085 47.5254C34.1462 47.543 33.2497 48.2725 33.2585 49.3711ZM33.5749 55.7344C33.5749 54.0293 35.5525 53.0625 38.8308 53.0625C42.0915 53.0625 44.0691 54.0293 44.0691 55.7344C44.0691 57.4131 42.0915 58.3887 38.8308 58.3887C35.5525 58.3887 33.5749 57.4131 33.5749 55.7344ZM34.9988 55.7344C35.0075 56.7275 36.4577 57.3252 38.8308 57.3164C41.1687 57.3252 42.6101 56.7275 42.6101 55.7344C42.6101 54.7148 41.1687 54.1436 38.8308 54.1348C36.4577 54.1436 35.0075 54.7148 34.9988 55.7344ZM39.8679 50.7422V49.5996H42.5925V47.7012H39.8855V46.5586H42.5925V42.7969H43.9812V52.9043H42.5925V50.7422H39.8679ZM63.6518 42.8145V52.2891H62.3334V48.0527H60.0834V51.709H58.8002V43.1133H60.0834V46.8926H62.3334V42.8145H63.6518ZM51.1713 50.8301V44.0625H52.5424V49.6699C54.1948 49.6611 55.7856 49.5645 57.7104 49.1953L57.8334 50.3379C55.7416 50.751 54.0278 50.8301 52.1557 50.8301H51.1713ZM53.2455 55.4707C53.228 53.6162 55.2407 52.5264 58.4838 52.5176C61.7094 52.5264 63.7309 53.6162 63.7397 55.4707C63.7309 57.2988 61.7094 58.3887 58.4838 58.3887C55.2407 58.3887 53.228 57.2988 53.2455 55.4707ZM54.6166 55.4707C54.5991 56.6045 56.102 57.29 58.4838 57.2812C60.8569 57.29 62.351 56.6045 62.3686 55.4707C62.351 54.3105 60.8569 53.6162 58.4838 53.625C56.102 53.6162 54.5991 54.3105 54.6166 55.4707ZM67.7215 43.9395V50.0918C69.9539 50.0918 72.2566 49.9512 74.8055 49.4238L74.9637 50.5664C72.3182 51.1201 69.9451 51.2695 67.5809 51.2695H66.3328V43.9395H67.7215ZM68.073 58.0898V52.9922H69.4441V56.9297H78.3562V58.0898H68.073ZM76.4227 54.0996V42.8145H77.7937V47.4551H80.1492V48.6504H77.7937V54.0996H76.4227ZM87.9806 52.623C91.1886 52.623 93.131 53.6777 93.131 55.5059C93.131 57.3516 91.1886 58.4062 87.9806 58.4238C84.7638 58.4062 82.8039 57.3516 82.7951 55.5059C82.8039 53.6777 84.7638 52.623 87.9806 52.623ZM81.4416 50.9883V43.7812H82.7951V46.1719H87.3478V43.7812H88.7189V50.9883H81.4416ZM82.7951 49.8633H87.3478V47.2617H82.7951V49.8633ZM84.1837 55.5059C84.1662 56.6309 85.6252 57.2988 87.9806 57.2988C90.3449 57.2988 91.7863 56.6309 91.7951 55.5059C91.7863 54.3896 90.3449 53.7305 87.9806 53.7129C85.6252 53.7305 84.1662 54.3896 84.1837 55.5059ZM91.6193 52.2012V42.7969H92.9904V46.7344H95.3459V47.9121H92.9904V52.2012H91.6193ZM108.89 42.7969V58.4238H107.501V42.7969H108.89ZM96.1636 54.3633C100.391 52.3594 102.553 49.3623 102.861 45.627H96.8843V44.502H104.267C104.25 48.9932 102.158 52.9746 96.9195 55.4883L96.1636 54.3633ZM120.281 57.1758C117.75 57.1758 115.931 55.8223 115.852 53.8008H117.451C117.539 55.0137 118.743 55.7695 120.264 55.7695C121.943 55.7695 123.156 54.8643 123.164 53.5371C123.156 52.1484 122.048 51.1729 120.071 51.1641H119.033V49.7754H120.071C121.617 49.7754 122.698 48.9053 122.69 47.5957C122.698 46.3213 121.767 45.4775 120.317 45.4688C118.954 45.4775 117.715 46.2246 117.645 47.4727H116.115C116.195 45.4512 118.075 44.0977 120.334 44.0977C122.76 44.0977 124.237 45.6885 124.219 47.5078C124.237 48.958 123.393 50.0127 122.057 50.3906V50.4785C123.718 50.7334 124.72 51.9199 124.711 53.5371C124.72 55.6289 122.822 57.1758 120.281 57.1758ZM133.861 48.3516V50.584H140.312V51.7266H126.074V50.584H132.507V48.3516H133.861ZM126.865 48.0352C129.589 47.7451 132.2 46.4092 132.296 44.6602H127.375V43.5352H139.046V44.6602H134.089C134.186 46.4004 136.796 47.7451 139.521 48.0352L139.011 49.125C136.454 48.8086 134.054 47.6924 133.193 45.9609C132.332 47.6924 129.95 48.8086 127.375 49.125L126.865 48.0352ZM127.796 55.6992C127.788 53.9678 129.8 53.0098 133.193 53.0098C136.55 53.0098 138.554 53.9678 138.572 55.6992C138.554 57.4395 136.55 58.3887 133.193 58.3887C129.8 58.3887 127.788 57.4395 127.796 55.6992ZM129.203 55.6992C129.185 56.7275 130.662 57.3252 133.193 57.3164C135.698 57.3252 137.174 56.7275 137.183 55.6992C137.174 54.6797 135.698 54.0908 133.193 54.0996C130.662 54.0908 129.185 54.6797 129.203 55.6992ZM143.802 44.2734L143.679 53.4141H142.202L142.079 44.2734H143.802ZM141.815 55.9629C141.798 55.3477 142.325 54.8379 142.94 54.8379C143.564 54.8379 144.074 55.3477 144.065 55.9629C144.074 56.5869 143.564 57.0967 142.94 57.1055C142.325 57.0967 141.798 56.5869 141.815 55.9629ZM150.465 57V44.2734H158.129V45.6797H152.047V49.9336H157.549V51.3223H152.047V57H150.465ZM163.13 57.1934C160.528 57.2021 158.771 55.2334 158.771 52.2715C158.771 49.292 160.528 47.332 163.13 47.332C165.723 47.332 167.463 49.292 167.454 52.2715C167.463 55.2334 165.723 57.2021 163.13 57.1934ZM160.282 52.2715C160.291 54.1787 161.188 55.8574 163.13 55.8574C165.055 55.8574 165.942 54.1787 165.942 52.2715C165.942 50.373 165.055 48.668 163.13 48.668C161.188 48.668 160.291 50.373 160.282 52.2715ZM170.592 44.2734V57H169.08V44.2734H170.592ZM174.152 44.2734V57H172.64V44.2734H174.152ZM180.103 57.1934C177.501 57.2021 175.743 55.2334 175.743 52.2715C175.743 49.292 177.501 47.332 180.103 47.332C182.695 47.332 184.436 49.292 184.427 52.2715C184.436 55.2334 182.695 57.2021 180.103 57.1934ZM177.255 52.2715C177.264 54.1787 178.16 55.8574 180.103 55.8574C182.027 55.8574 182.915 54.1787 182.915 52.2715C182.915 50.373 182.027 48.668 180.103 48.668C178.16 48.668 177.264 50.373 177.255 52.2715ZM187.881 57L184.981 47.4551H186.581L188.62 54.7324H188.708L190.729 47.4551H192.346L194.333 54.6973H194.438L196.477 47.4551H198.059L195.159 57H193.665L191.59 49.7227H191.45L189.393 57H187.881ZM203.72 44.2734H205.618L209.907 54.75H210.066L214.355 44.2734H216.253V57H214.759V47.3848H214.636L210.681 57H209.275L205.32 47.3848H205.214V57H203.72V44.2734ZM222.52 57.1934C219.76 57.2021 218.055 55.2334 218.055 52.3066C218.055 49.3711 219.787 47.332 222.379 47.332C224.383 47.332 226.502 48.5625 226.493 52.0957V52.7285H219.567C219.646 54.75 220.824 55.8574 222.52 55.8574C223.663 55.8574 224.383 55.3564 224.735 54.7676H226.352C225.904 56.2178 224.489 57.2021 222.52 57.1934ZM219.576 51.4453H224.963C224.955 49.8545 223.953 48.668 222.379 48.668C220.727 48.668 219.681 49.9688 219.576 51.4453ZM230.053 44.2734L229.93 53.4141H228.453L228.33 44.2734H230.053ZM228.066 55.9629C228.049 55.3477 228.576 54.8379 229.191 54.8379C229.815 54.8379 230.325 55.3477 230.316 55.9629C230.325 56.5869 229.815 57.0967 229.191 57.1055C228.576 57.0967 228.049 56.5869 228.066 55.9629ZM241.18 46.998C241.18 49.749 243 52.5879 245.223 53.6777L244.38 54.7852C242.657 53.8887 241.215 52.0342 240.521 49.8633C239.827 52.166 238.35 54.1436 236.592 55.084L235.714 53.9766C237.999 52.8516 239.809 49.8545 239.827 46.998V44.1504H241.18V46.998ZM246.665 58.4238V42.7969H248.036V49.1426H250.655V50.3379H248.036V58.4238H246.665ZM263.355 42.8145V46.8223H265.729V48H263.355V52.1309H261.984V42.8145H263.355ZM251.807 44.8008V43.6582H258.891V47.9297H253.195V50.1445C255.973 50.1533 257.985 50.0654 260.42 49.6699L260.561 50.7773C258.056 51.2168 255.964 51.3047 253.055 51.3047H251.842V46.8574H257.537V44.8008H251.807ZM253.459 58.2129V52.9043H263.355V58.2129H253.459ZM254.812 57.0879H262.02V53.9766H254.812V57.0879ZM279.22 42.7969V58.459H277.831V42.7969H279.22ZM266.915 49.459C266.924 46.1367 268.577 44.0186 270.906 44.0098C273.226 44.0186 274.905 46.1367 274.896 49.459C274.905 52.79 273.226 54.8994 270.906 54.8906C268.577 54.8994 266.924 52.79 266.915 49.459ZM268.251 49.459C268.251 51.999 269.341 53.6689 270.906 53.6602C272.479 53.6689 273.56 51.999 273.56 49.459C273.56 46.9189 272.479 45.249 270.906 45.2402C269.341 45.249 268.251 46.9189 268.251 49.459ZM293.441 44.3613V48.5273H297.274V42.7969H298.645V58.459H297.274V49.6699H293.441V54.4688H286.322V44.3613H293.441ZM287.693 53.3613H292.106V45.4512H287.693V53.3613ZM315.177 51.8848V53.0273H308.656V58.4238H307.302V53.0273H300.869V51.8848H315.177ZM302.714 49.7578V43.6758H313.314V49.7578H302.714ZM304.068 48.668H311.943V44.8008H304.068V48.668ZM328.721 47.543V48.6504H318.016V43.377H319.388V47.543H328.721ZM316.065 51.9023V50.7773H330.374V51.9023H316.065ZM317.929 58.0371V53.502H319.3V56.8945H328.809V58.0371H317.929ZM342.503 52.6758C345.852 52.6758 347.979 53.7305 347.988 55.541C347.979 57.334 345.852 58.3887 342.503 58.3887C339.155 58.3887 337.028 57.334 337.037 55.541C337.028 53.7305 339.155 52.6758 342.503 52.6758ZM335.455 51.2168V50.0918H341.343V47.0684H342.697V50.0918H349.675V51.2168H335.455ZM337.142 44.7305V43.6055H347.865V44.9238C347.856 46.1895 347.856 47.4551 347.425 49.0723L346.072 48.9141C346.494 47.3057 346.494 46.1455 346.494 44.9238V44.7305H337.142ZM338.408 55.541C338.399 56.6309 340.016 57.2988 342.503 57.2988C345 57.2988 346.599 56.6309 346.617 55.541C346.599 54.4248 345 53.7393 342.503 53.7305C340.016 53.7393 338.399 54.4248 338.408 55.541ZM362.85 42.7969V47.5605H365.206V48.7207H362.85V54.2402H361.462V42.7969H362.85ZM350.651 51.3223C354.404 50.1533 356.839 47.9297 357.129 45.1699H351.302V44.0098H358.632C358.632 48.0352 355.758 51.0234 351.249 52.4297L350.651 51.3223ZM353.059 58.0898V53.0801H354.431V56.9297H363.571V58.0898H353.059ZM7.75195 70.0781C11.2236 70.0781 13.2627 71.0361 13.2715 72.7676C13.2627 74.543 11.2236 75.501 7.75195 75.5098C4.2627 75.501 2.21484 74.543 2.21484 72.7676C2.21484 71.0361 4.2627 70.0781 7.75195 70.0781ZM0.632812 77.6895V76.5645H14.8711V77.6895H0.632812ZM2.35547 80.0977V79.043H13.043V82.541H3.76172V84.1582H13.5176V85.248H2.39062V81.5215H11.6895V80.0977H2.35547ZM3.65625 72.7676C3.63867 73.8574 5.15918 74.4551 7.75195 74.4551C10.3447 74.4551 11.8564 73.8574 11.8652 72.7676C11.8564 71.7393 10.3447 71.124 7.75195 71.1152C5.15918 71.124 3.63867 71.7393 3.65625 72.7676ZM32.8718 69.7969V78.1289H31.5183V69.7969H32.8718ZM20.3562 74.0156C20.3474 71.9502 22.0525 70.5088 24.4167 70.5176C26.7546 70.5088 28.4509 71.9502 28.4597 74.0156C28.4509 76.0811 26.7546 77.5225 24.4167 77.5312C22.0525 77.5225 20.3474 76.0811 20.3562 74.0156ZM21.7097 74.0156C21.6921 75.3955 22.8435 76.3887 24.4167 76.3887C25.9636 76.3887 27.1238 75.3955 27.1238 74.0156C27.1238 72.6533 25.9636 71.6689 24.4167 71.6777C22.8435 71.6689 21.6921 72.6533 21.7097 74.0156ZM21.9734 79.8691V78.7969H27.1589V82.4004H23.3269V84.1406C25.3396 84.1406 26.6404 84.0967 28.2488 83.8066L28.3894 84.8613C26.614 85.1953 25.2341 85.2217 22.9402 85.2129H21.9909V81.3809H25.823V79.8691H21.9734ZM27.862 79.9395V78.7969H32.8718V85.3008H31.5183V79.9395H27.862ZM39.3848 71.0098C41.5118 71.0186 43.0499 72.8467 43.2608 75.7734H46.7677V69.7969H48.1387V85.459H46.7677V76.916H43.2784C43.129 79.9834 41.5645 81.8994 39.3848 81.8906C37.0733 81.8994 35.4561 79.79 35.4649 76.459C35.4561 73.1367 37.0733 71.0186 39.3848 71.0098ZM36.7833 76.459C36.7921 78.999 37.8468 80.6689 39.3848 80.6602C40.9141 80.6689 41.9864 78.999 41.9864 76.459C41.9864 73.9189 40.9141 72.249 39.3848 72.2402C37.8468 72.249 36.7921 73.9189 36.7833 76.459ZM67.8797 69.7969V85.4238H66.5262V77.3379H64.2762V84.6152H62.9754V70.1484H64.2762V76.1602H66.5262V69.7969H67.8797ZM55.3289 81.3809V71.7129H56.7V80.1504C58.2469 80.1416 59.9168 80.0273 61.8152 79.6406L61.991 80.8711C59.8113 81.2666 58.0184 81.3809 56.2957 81.3809H55.3289ZM81.8283 69.7969V76.1602H84.3595V77.3203H81.8283V85.4238H80.4572V69.7969H81.8283ZM69.84 81.3633C73.8742 79.3594 76.0714 76.3447 76.3878 72.6445H70.5607V71.4844H77.7853C77.7765 75.9053 75.7023 79.9395 70.6134 82.4531L69.84 81.3633ZM94.3798 80.291C94.371 81.6709 95.118 83.1387 96.6034 83.9824C98.0975 83.0596 98.8886 81.4951 98.8798 80.291V79.4297H100.233V80.291C100.224 81.8994 101.411 83.499 103.415 84.1934L102.729 85.2129C101.165 84.6592 100.075 83.5693 99.5302 82.2598C99.0468 83.5254 98.0888 84.7295 96.6473 85.3359C95.1268 84.7559 94.16 83.6133 93.6942 82.3037C93.1317 83.5605 92.0595 84.6504 90.5653 85.2129L89.8622 84.1934C91.8397 83.4551 93.0263 81.7852 93.0438 80.291V79.4297H94.3798V80.291ZM89.4579 74.3848C89.4491 72.2051 91.1805 70.7197 93.5536 70.7285C95.9266 70.7197 97.6405 72.2051 97.6493 74.3848C97.6405 76.5293 95.9266 78.0059 93.5536 78.0059C91.1805 78.0059 89.4491 76.5293 89.4579 74.3848ZM90.8114 74.3848C90.7938 75.835 91.9452 76.8545 93.5536 76.8633C95.1444 76.8545 96.2958 75.835 96.2958 74.3848C96.2958 72.9258 95.1444 71.8887 93.5536 71.9062C91.9452 71.8887 90.7938 72.9258 90.8114 74.3848ZM100.62 78.7441V69.8145H101.991V78.7441H100.62ZM116.924 74.543V75.6504H106.219V70.377H107.59V74.543H116.924ZM104.268 78.9023V77.7773H118.576V78.9023H104.268ZM106.131 85.0371V80.502H107.502V83.8945H117.012V85.0371H106.131ZM136.067 70.5703V71.6602C136.059 72.8467 136.059 74.2178 135.645 76.0723L134.292 75.9141C134.696 74.1035 134.696 72.8203 134.696 71.6777H125.345V70.5703H136.067ZM123.657 78.252V77.1445H129.546V73.9805H130.899V77.1445H137.878V78.252H123.657ZM124.677 84.2812C127.507 83.8594 129.994 82.2949 130.003 80.2207V79.5H131.392V80.2207C131.4 82.2949 133.888 83.8594 136.735 84.2812L136.208 85.3535C133.826 84.9668 131.646 83.8418 130.697 82.1367C129.748 83.8418 127.568 84.9668 125.186 85.3535L124.677 84.2812ZM147.195 71.0098C149.322 71.0186 150.86 72.8467 151.071 75.7734H154.578V69.7969H155.949V85.459H154.578V76.916H151.089C150.939 79.9834 149.375 81.8994 147.195 81.8906C144.883 81.8994 143.266 79.79 143.275 76.459C143.266 73.1367 144.883 71.0186 147.195 71.0098ZM144.593 76.459C144.602 78.999 145.657 80.6689 147.195 80.6602C148.724 80.6689 149.797 78.999 149.797 76.459C149.797 73.9189 148.724 72.249 147.195 72.2402C145.657 72.249 144.602 73.9189 144.593 76.459ZM171.075 69.7969V85.459H169.687V69.7969H171.075ZM159.21 81.5742V71.291H166.646V72.4512H160.599V80.3789C163.64 80.3789 165.635 80.291 167.981 79.8691L168.122 81.0293C165.696 81.46 163.64 81.5654 160.476 81.5742H159.21ZM187.643 77.6895V78.8145H173.387V77.6895H187.643ZM175.198 75.9668V70.4824H185.868V71.6074H176.569V74.8242H186.008V75.9668H175.198ZM175.233 85.0723V80.502H176.604V83.9121H186.131V85.0723H175.233ZM199.984 71.4492V72.6445C199.966 74.1035 199.966 75.9932 199.474 78.6562L198.191 78.5156C198.401 77.4082 198.525 76.4414 198.595 75.5713L193.216 76.0371L193.023 74.8945L198.656 74.5693C198.683 73.8486 198.683 73.2158 198.683 72.6445V72.5918H193.357V71.4492H199.984ZM192.548 80.5898C193.339 80.5898 194.306 80.5811 195.325 80.5635V77.1094H196.609V80.5195C198.015 80.4668 199.447 80.3701 200.651 80.2031L200.722 81.2402C198.173 81.6973 194.842 81.75 192.759 81.7676L192.548 80.5898ZM201.495 84.5977V70.1484H202.796V76.4238H204.747V69.7969H206.066V85.4238H204.747V77.5664H202.796V84.5977H201.495ZM213.37 72.6797C213.37 74.71 214.934 76.6523 217.219 77.4434L216.499 78.5332C214.741 77.9004 213.378 76.5908 212.71 74.9824C212.034 76.7754 210.583 78.2168 208.729 78.9023L208.008 77.8125C210.311 76.9863 211.981 74.9033 211.981 72.6973V72.0117H208.448V70.8867H216.868V72.0117H213.37V72.6797ZM210.381 81.1348V79.9922H220.893V85.4238H219.504V81.1348H210.381ZM216.375 75.0527V73.8926H219.504V69.7969H220.893V79.166H219.504V75.0527H216.375ZM235.228 69.7969V76.248H237.848V77.3906H235.228V85.4238H233.857V69.7969H235.228ZM223.047 73.4531V72.3105H227.072V69.9902H228.443V72.3105H232.346V73.4531H223.047ZM223.943 78.3398C223.934 76.2305 225.552 74.7539 227.775 74.7539C229.981 74.7539 231.59 76.2305 231.607 78.3398C231.59 80.458 229.981 81.9258 227.775 81.9258C225.552 81.9258 223.934 80.458 223.943 78.3398ZM225.262 78.3398C225.253 79.7637 226.316 80.7656 227.775 80.748C229.217 80.7656 230.271 79.7637 230.289 78.3398C230.271 76.9248 229.217 75.9053 227.775 75.9141C226.316 75.9053 225.253 76.9248 225.262 78.3398ZM251.708 69.7969V85.4238H250.39V69.7969H251.708ZM238.349 81.0469C241.741 79.0342 243.446 76.2129 243.71 72.9434H239.017V71.8008H245.081C245.081 73.3389 244.835 74.8242 244.299 76.2129H247.103V70.2188H248.421V84.6328H247.103V77.3379H243.789C242.849 79.1572 241.337 80.7656 239.157 82.0488L238.349 81.0469Z" fill="black"/>
<path d="M0.929688 138L0.916016 137.098L4.29297 133.543C5.46191 132.299 6.02246 131.629 6.0293 130.713C6.02246 129.694 5.1748 129.038 4.06055 129.031C2.87793 129.038 2.13965 129.783 2.13281 130.891H0.970703C0.957031 129.141 2.31055 127.965 4.10156 127.965C5.89941 127.965 7.1709 129.175 7.17773 130.713C7.1709 131.82 6.6582 132.682 4.9082 134.486L2.63867 136.824V136.906H7.35547V138H0.929688ZM12.1067 138.137C9.91238 138.137 8.6409 136.291 8.64773 133.051C8.6409 129.838 9.92605 127.965 12.1067 127.965C14.2805 127.965 15.5657 129.838 15.5657 133.051C15.5657 136.291 14.3011 138.137 12.1067 138.137ZM9.83719 133.051C9.84402 135.614 10.6712 137.043 12.1067 137.043C13.5354 137.043 14.3694 135.614 14.3626 133.051C14.3694 130.487 13.5286 129.038 12.1067 129.031C10.6848 129.038 9.84402 130.487 9.83719 133.051ZM16.9263 138L16.9127 137.098L20.2896 133.543C21.4586 132.299 22.0191 131.629 22.0259 130.713C22.0191 129.694 21.1714 129.038 20.0572 129.031C18.8746 129.038 18.1363 129.783 18.1295 130.891H16.9673C16.9537 129.141 18.3072 127.965 20.0982 127.965C21.8961 127.965 23.1675 129.175 23.1744 130.713C23.1675 131.82 22.6548 132.682 20.9048 134.486L18.6353 136.824V136.906H23.3521V138H16.9263ZM28.3084 138.137C26.5926 138.116 24.6991 137.098 24.6991 133.434C24.6991 129.927 26.1346 127.965 28.4588 127.965C30.202 127.965 31.4188 129.038 31.6717 130.59H30.4549C30.2293 129.715 29.5594 129.059 28.4588 129.059C26.8319 129.059 25.8543 130.446 25.8612 132.832H25.9842C26.5516 132.005 27.4608 131.52 28.5272 131.52C30.284 131.52 31.7537 132.887 31.7537 134.801C31.7537 136.667 30.3934 138.157 28.3084 138.137ZM26.0252 134.828C26.0321 135.99 26.9823 137.05 28.3084 137.057C29.5868 137.05 30.5575 136.045 30.5643 134.814C30.5575 133.598 29.6278 132.606 28.3358 132.6C27.037 132.606 26.0389 133.659 26.0252 134.828ZM37.4347 132.518V133.598H33.1007V132.518H37.4347ZM42.1859 138.137C39.9916 138.137 38.7201 136.291 38.727 133.051C38.7201 129.838 40.0053 127.965 42.1859 127.965C44.3598 127.965 45.6449 129.838 45.6449 133.051C45.6449 136.291 44.3803 138.137 42.1859 138.137ZM39.9164 133.051C39.9232 135.614 40.7504 137.043 42.1859 137.043C43.6146 137.043 44.4486 135.614 44.4418 133.051C44.4486 130.487 43.6078 129.038 42.1859 129.031C40.7641 129.038 39.9232 130.487 39.9164 133.051ZM50.5055 128.102V138H49.2614V129.387H49.2067L46.8005 130.986V129.742L49.2614 128.102H50.5055ZM57.1298 132.518V133.598H52.7959V132.518H57.1298ZM62.1409 128.102V138H60.8967V129.387H60.842L58.4358 130.986V129.742L60.8967 128.102H62.1409ZM67.7261 138.137C65.9419 138.137 64.5884 137.036 64.5132 135.512H65.7027C65.7915 136.394 66.6529 137.05 67.7261 137.057C69.0112 137.05 69.9409 136.113 69.9409 134.869C69.9409 133.584 68.9771 132.634 67.6441 132.627C66.8101 132.613 66.1607 132.873 65.7984 133.516H64.6089L65.3062 128.102H70.6655V129.195H66.3316L65.9624 132.094H66.0581C66.5025 131.752 67.1655 131.52 67.8628 131.52C69.7495 131.52 71.1372 132.914 71.1441 134.842C71.1372 136.756 69.7017 138.137 67.7261 138.137Z" fill="#999999"/>
</svg>
