<svg width="494" height="43" viewBox="0 0 494 43" fill="none" xmlns="http://www.w3.org/2000/svg">
<path d="M19.2656 2.39062C28.3594 2.41406 35.0859 6.9375 35.0625 13.8281C35.0859 20.1797 29.625 24.4219 21.8438 25.1953V32.9531H38.7188V37.2188H0V32.9531H16.6875V25.1953C9 24.4219 3.53906 20.1797 3.5625 13.8281C3.53906 6.9375 10.2422 2.41406 19.2656 2.39062ZM8.67188 13.8281C8.64844 18.3984 13.0781 21.1406 19.2656 21.1406C25.5469 21.1406 29.9531 18.3984 29.9531 13.8281C29.9531 9.39844 25.5469 6.58594 19.2656 6.60938C13.0781 6.58594 8.64844 9.39844 8.67188 13.8281ZM57.4706 2.90625V7.07812H46.3613V11.4375H55.8769V15.4219H46.3613V20.1094C51.4238 20.0859 54.9394 19.875 59.0644 19.125L59.6269 23.2969C54.7284 24.1172 50.6972 24.2578 44.1581 24.2344H41.3456V2.90625H57.4706ZM46.6425 32.2969V28.125H75.7988V42.375H70.5956V32.2969H46.6425ZM57.705 15.1406V10.9219H62.4863V0.890625H67.455V26.0625H62.4863V15.1406H57.705ZM70.83 26.3438V0.046875H75.7988V26.3438H70.83ZM115.691 0V42.375H110.629V20.7656H106.082V40.4062H101.254V0.984375H106.082V16.5469H110.629V0H115.691ZM79.1288 30.2812C85.0116 26.9766 88.6209 23.1328 90.6834 18.6797L80.0194 19.8281L79.3631 15.375L92.1131 14.625C92.5584 12.9141 92.8397 11.1094 92.9803 9.23438H81.5663V5.01562H98.0663C98.0194 16.7109 94.9491 26.7656 82.1756 33.9844L79.1288 30.2812ZM153.99 0V42.4219H148.834V0H153.99ZM120.99 7.92188V3.70312H140.959V19.5938H126.381V28.125C133.06 28.0781 138.802 27.7266 145.412 26.625L145.881 30.8906C138.685 32.1328 132.357 32.4141 124.74 32.3906H121.037V15.4688H135.662V7.92188H120.99ZM169.836 3.09375C175.554 3.09375 179.797 7.875 180.547 15.6094H188.633V0H193.789V42.4219H188.633V19.8281H180.593C180.031 28.0078 175.718 33.0469 169.836 33.0469C163.461 33.0469 158.937 27.2578 158.961 18.0469C158.937 8.90625 163.461 3.09375 169.836 3.09375ZM163.976 18.0469C163.953 24.5625 166.343 28.3359 169.836 28.3594C173.351 28.3359 175.718 24.5625 175.742 18.0469C175.718 11.5781 173.351 7.78125 169.836 7.78125C166.343 7.78125 163.953 11.5781 163.976 18.0469ZM231.009 0V16.5469H237.291V20.9062H231.009V42.2812H225.806V0H231.009ZM197.587 30.7031C207.9 25.5469 213.478 18.375 214.509 8.71875H199.884V4.40625H219.806C219.783 16.8516 214.627 27.7969 200.541 34.7344L197.587 30.7031ZM268.372 3.65625V23.6719H248.31V3.65625H268.372ZM253.138 41.5312V27.9375H258.341V37.3125H281.966V41.5312H253.138ZM253.419 19.5469H263.263V7.82812H253.419V19.5469ZM275.076 30.9375V0H280.279V12.4219H286.185V16.7812H280.279V30.9375H275.076ZM325.093 16.9688V21.0938H286.421V16.9688H325.093ZM290.968 27.9375V24H320.218V34.6406H296.124V37.875H321.39V41.9531H291.015V30.8906H315.109V27.9375H290.968ZM291.343 14.25V1.07812H320.124V5.25H296.546V10.125H320.499V14.25H291.343ZM337.564 3.09375C343.283 3.09375 347.525 7.875 348.275 15.6094H356.361V0H361.517V42.4219H356.361V19.8281H348.322C347.759 28.0078 343.447 33.0469 337.564 33.0469C331.189 33.0469 326.665 27.2578 326.689 18.0469C326.665 8.90625 331.189 3.09375 337.564 3.09375ZM331.704 18.0469C331.681 24.5625 334.072 28.3359 337.564 28.3594C341.079 28.3359 343.447 24.5625 343.47 18.0469C343.447 11.5781 341.079 7.78125 337.564 7.78125C334.072 7.78125 331.681 11.5781 331.704 18.0469ZM408.443 0V9.51562H414.349V13.7812H408.443V22.9688H403.146V0H408.443ZM374.927 19.2656C384.982 17.0625 390.255 12.3047 390.958 6.5625H376.989V2.39062H396.771C396.771 13.4062 389.599 20.5312 376.849 23.4844L374.927 19.2656ZM380.927 41.8594V24.7031H386.177V29.25H403.239V24.7031H408.443V41.8594H380.927ZM386.177 37.6406H403.239V33.3281H386.177V37.6406ZM449.929 0V42.375H444.772V0H449.929ZM417.022 31.7344V4.125H422.179V27.2812C428.108 27.1875 434.437 26.6719 440.976 25.3594L441.632 29.7188C434.179 31.2656 427.265 31.7578 420.679 31.7344H417.022ZM487.337 0V16.0781H493.853V20.3438H487.337V42.4219H482.134V0H487.337ZM455.884 32.0625V4.03125H475.712V8.25H461.087V27.7031C467.673 27.6797 472.899 27.3516 478.712 26.3438L479.321 30.75C472.735 31.875 467.04 32.0625 459.399 32.0625H455.884Z" fill="white"/>
</svg>
