<svg width="736" height="480" viewBox="0 0 736 480" fill="none" xmlns="http://www.w3.org/2000/svg">
<mask id="path-1-inside-1_812_921" fill="white">
<path d="M0 0H736V120H0V0Z"/>
</mask>
<path d="M0 0V1H736V0V-1H0V0Z" fill="white" mask="url(#path-1-inside-1_812_921)"/>
<path d="M4.36581 69.5H0.836517L7.31113 51.1172H11.3736L17.8736 69.5H14.3443L12.8082 64.9551H5.88925L4.36581 69.5ZM6.77792 62.2891H11.9195L9.41855 54.875H9.2662L6.77792 62.2891ZM22.838 51.1172V69.5H19.5372V51.1172H22.838ZM49.6261 48.8066V71.7598H46.7824V48.8066H49.6261ZM30.6085 65.4375C36.6261 62.5811 39.3937 58.6963 39.9015 53.4785H31.7765V51.2441H42.7707C42.7707 58.0742 40.1173 63.876 32.0812 67.6973L30.6085 65.4375ZM70.5104 48.832V55.459H73.7096V57.7949H70.5104V65.7168H67.6921V48.832H70.5104ZM53.194 61.9844V50.457H55.987V53.9609H61.3444V50.457H64.1374V61.9844H53.194ZM55.8092 71.3027V64.0156H58.6276V69.0176H71.4245V71.3027H55.8092ZM55.987 59.75H61.3444V56.1445H55.987V59.75ZM91.865 51.9551C91.865 55.4971 95.3308 59.0645 100.142 59.9023L98.8728 62.2637C95.0261 61.4639 91.8776 59.1279 90.3796 56.043C88.8689 59.1025 85.7204 61.4512 81.8864 62.2637L80.6423 59.9023C85.3776 59.0391 88.8562 55.4844 88.8689 51.9551V50.2539H91.865V51.9551ZM80.0075 68.8398V66.5039H100.98V68.8398H80.0075ZM113.638 51.041V66.0723H102.771V51.041H113.638ZM105.538 63.8125H110.82V53.25H105.538V63.8125ZM117.116 71.7598V48.8066H119.935V57.6172H123.464V60.0039H119.935V71.7598H117.116ZM142.571 60.8418V63.0762H126.473V50.6094H142.368V52.8945H129.343V55.6621H141.835V57.8711H129.343V60.8418H142.571ZM123.909 68.9668V66.6562H144.882V68.9668H123.909ZM164.332 50.5078V51.8789C164.306 53.4404 164.306 55.7256 163.773 58.6328L160.98 58.3789C161.437 56.0176 161.526 54.2529 161.552 52.8438H152.627V50.5078H164.332ZM151.256 60.4609C152.614 60.4482 154.137 60.4355 155.75 60.4102V55.7383H158.543V60.3213C160.917 60.2197 163.354 60.042 165.576 59.7246L165.728 61.7559C160.955 62.6191 155.534 62.708 151.51 62.7207L151.256 60.4609ZM154.683 71.3027V64.4727H157.527V69.0176H170.553V71.3027H154.683ZM166.922 65.9961V48.8066H169.816V55.9668H172.787V58.3281H169.816V65.9961H166.922ZM193.214 48.8066V71.7598H190.523V48.8066H193.214ZM173.054 65.2344C176.367 63.2158 177.827 59.0771 177.827 55.0781V53.5547H173.841V51.2695H184.251V53.5547H180.544V55.0781C180.544 58.9502 181.928 62.835 185.216 64.7266L183.54 66.8086C181.42 65.5518 180.011 63.3682 179.211 60.7529C178.399 63.584 176.939 65.9961 174.781 67.3418L173.054 65.2344ZM182.576 59.0898V56.8047H185.876V49.2383H188.542V70.6426H185.876V59.0898H182.576ZM212.893 55.7383V58.4043H221.983V60.6641H201.061V58.4043H210.1V55.7383H212.893ZM202.127 54.9004C207.028 54.418 210.049 52.2344 210.049 49.6191V49.0098H212.918V49.6191C212.918 52.2344 215.927 54.418 220.84 54.9004L219.85 57.0586C216.003 56.5762 212.956 55.1289 211.471 52.8945C209.998 55.1289 206.964 56.5762 203.118 57.0586L202.127 54.9004ZM203.524 64.2188V62.0605H219.368V67.748H206.317V69.3984H220.002V71.5566H203.549V65.7422H216.6V64.2188H203.524ZM241.521 49.5938V56.1191H228.344V58.4043H242.029V60.6641H225.5V53.9863H238.627V51.8789H225.449V49.5938H241.521ZM222.986 64.8789V62.6191H243.959V64.8789H234.844V71.7852H232.025V64.8789H222.986ZM253.316 52.8691C253.303 56.1064 255.119 59.2549 258.648 60.5879L257.074 62.7715C254.623 61.8066 252.871 59.8896 251.919 57.5156C250.929 60.0674 249.076 62.0859 246.435 63.1016L244.912 60.8672C248.568 59.5469 250.459 56.3096 250.472 52.8691V50.127H253.316V52.8691ZM249.05 71.3027V64.1934H251.919V69.0176H264.691V71.3027H249.05ZM257.175 58.7598V56.5H261.365V54.2402H257.175V51.9551H261.365V48.832H264.183V65.8691H261.365V58.7598H257.175Z" fill="white"/>
<mask id="path-4-inside-2_812_921" fill="white">
<path d="M0 120H736V240H0V120Z"/>
</mask>
<path d="M0 120V121H736V120V119H0V120Z" fill="white" mask="url(#path-4-inside-2_812_921)"/>
<path d="M20.2184 168.832V185.666H17.4V177.947H12.982V175.611H17.4V168.832H20.2184ZM1.30234 180.994C6.24081 179.433 9.50351 176.5 10.0494 172.869H2.4957V170.559H13.1344C13.1344 176.614 9.13535 181.134 2.4957 183.254L1.30234 180.994ZM5.26328 191.303V183.965H8.13242V189.018H20.8023V191.303H5.26328ZM43.8702 178.125V180.359H34.7804V182.086H41.255V187.723H28.2042V189.398H41.8898V191.557H25.4366V185.691H38.4874V184.219H25.4112V182.086H31.962V180.359H22.9484V178.125H43.8702ZM25.589 176.678V169.518H41.1788V176.678H25.589ZM28.3566 174.469H38.3605V171.727H28.3566V174.469ZM70.3537 168.807V191.76H67.6369V168.807H70.3537ZM50.7775 178.734C50.7775 173.682 52.7326 170.546 55.7287 170.559C58.5089 170.546 60.4005 173.148 60.7306 177.439H62.9396V169.213H65.631V190.643H62.9396V179.725H60.756C60.4894 184.206 58.5724 186.948 55.7287 186.936C52.7326 186.948 50.7775 183.8 50.7775 178.734ZM53.3927 178.734C53.38 182.327 54.2687 184.257 55.7287 184.244C57.2521 184.257 58.1535 182.327 58.1662 178.734C58.1535 175.154 57.2521 173.212 55.7287 173.225C54.2687 173.212 53.38 175.154 53.3927 178.734ZM91.7712 168.807V191.785H88.9528V178.354H82.3766V176.068H88.9528V168.807H91.7712ZM73.7184 186.352V171.32H76.5368V183.978C79.6217 183.939 82.6813 183.711 85.9059 183.076L86.236 185.387C82.5417 186.148 79.1139 186.339 75.5973 186.352H73.7184ZM103.109 175.332C103.109 179.09 105.318 183.051 109.025 184.6L107.476 186.834C104.759 185.653 102.779 183.254 101.725 180.334C100.671 183.482 98.6525 186.123 95.9738 187.393L94.3488 185.184C97.967 183.508 100.227 179.229 100.239 175.332V173.402H95.1867V171.066H108.136V173.402H103.109V175.332ZM110.7 191.76V168.807H113.544V191.76H110.7ZM142.973 180.74V182.975H122V180.74H131.065V179.039H124.692V169.416H140.459V171.6H127.51V173.174H139.901V175.256H127.51V176.881H140.637V179.039H133.883V180.74H142.973ZM124.489 187.977C124.489 185.577 127.37 184.231 132.487 184.244C137.527 184.231 140.421 185.577 140.434 187.977C140.421 190.439 137.527 191.734 132.487 191.734C127.37 191.734 124.489 190.439 124.489 187.977ZM127.307 187.977C127.307 189.094 129.033 189.627 132.487 189.627C135.876 189.627 137.59 189.094 137.615 187.977C137.59 186.885 135.876 186.352 132.487 186.352C129.033 186.352 127.307 186.885 127.307 187.977ZM162.105 168.807V174.469H165.304V176.805H162.105V182.213H159.287V168.807H162.105ZM144.027 173.199V170.939H149.435V168.629H152.254V170.939H157.636V173.199H144.027ZM145.195 178.023C145.195 175.586 147.48 173.986 150.832 173.986C154.145 173.986 156.43 175.586 156.443 178.023C156.43 180.461 154.145 182.073 150.832 182.061C147.48 182.073 145.195 180.461 145.195 178.023ZM147.277 191.48V183.127H150.07V185.107H159.287V183.127H162.105V191.48H147.277ZM147.937 178.023C147.925 179.268 149.093 179.979 150.832 179.979C152.571 179.979 153.752 179.268 153.752 178.023C153.752 176.817 152.571 176.068 150.832 176.068C149.093 176.068 147.925 176.817 147.937 178.023ZM150.07 189.246H159.287V187.291H150.07V189.246ZM192.55 180.156V182.416H183.688V186.631H180.819V182.416H171.577V180.156H192.55ZM173.811 174.012C173.799 171.13 177.099 169.314 182.038 169.314C187.002 169.314 190.264 171.13 190.264 174.012C190.264 176.906 187.002 178.696 182.038 178.684C177.099 178.696 173.799 176.906 173.811 174.012ZM174.141 191.303V184.498H176.985V188.992H190.239V191.303H174.141ZM176.858 174.012C176.833 175.535 178.889 176.424 182.038 176.424C185.212 176.424 187.256 175.535 187.243 174.012C187.256 172.438 185.212 171.549 182.038 171.549C178.889 171.549 176.833 172.438 176.858 174.012ZM199.926 170.102C201.78 170.089 203.392 170.774 204.471 171.93H209.955V168.807H212.774V182.314H209.955V179.395H204.458C203.367 180.524 201.767 181.21 199.926 181.197C196.46 181.21 193.858 178.887 193.858 175.662C193.858 172.412 196.46 170.089 199.926 170.102ZM196.549 175.662C196.549 177.541 197.958 178.811 199.926 178.811C201.83 178.811 203.24 177.541 203.252 175.662C203.24 173.72 201.83 172.514 199.926 172.514C197.958 172.514 196.549 173.72 196.549 175.662ZM197.209 187.266C197.184 184.435 200.193 182.784 205.004 182.797C209.828 182.784 212.837 184.435 212.85 187.266C212.837 190.084 209.828 191.734 205.004 191.734C200.193 191.734 197.184 190.084 197.209 187.266ZM199.977 187.266C199.951 188.726 201.818 189.513 205.004 189.525C208.254 189.513 210.082 188.726 210.082 187.266C210.082 185.768 208.254 184.968 205.004 184.955C201.818 184.968 199.951 185.768 199.977 187.266ZM205.741 174.189C205.867 174.659 205.944 175.142 205.944 175.662C205.944 176.17 205.867 176.652 205.753 177.109H209.955V174.189H205.741ZM232.986 175.738V178.404H242.076V180.664H221.154V178.404H230.193V175.738H232.986ZM222.22 174.9C227.12 174.418 230.142 172.234 230.142 169.619V169.01H233.011V169.619C233.011 172.234 236.02 174.418 240.933 174.9L239.943 177.059C236.096 176.576 233.049 175.129 231.564 172.895C230.091 175.129 227.057 176.576 223.21 177.059L222.22 174.9ZM223.617 184.219V182.061H239.46V187.748H226.41V189.398H240.095V191.557H223.642V185.742H236.693V184.219H223.617ZM261.614 169.594V176.119H248.436V178.404H262.122V180.664H245.593V173.986H258.72V171.879H245.542V169.594H261.614ZM243.079 184.879V182.619H264.052V184.879H254.936V191.785H252.118V184.879H243.079ZM273.409 172.869C273.396 176.106 275.211 179.255 278.741 180.588L277.166 182.771C274.716 181.807 272.964 179.89 272.012 177.516C271.022 180.067 269.168 182.086 266.528 183.102L265.004 180.867C268.661 179.547 270.552 176.31 270.565 172.869V170.127H273.409V172.869ZM269.143 191.303V184.193H272.012V189.018H284.784V191.303H269.143ZM277.268 178.76V176.5H281.457V174.24H277.268V171.955H281.457V168.832H284.276V185.869H281.457V178.76H277.268Z" fill="white"/>
<mask id="path-7-inside-3_812_921" fill="white">
<path d="M0 240H736V360H0V240Z"/>
</mask>
<path d="M0 240V241H736V240V239H0V240Z" fill="white" mask="url(#path-7-inside-3_812_921)"/>
<path d="M12.778 290.609V292.844H4.85609V295.408H12.3209V297.643H4.85609V300.321C8.86781 300.296 11.2926 300.182 14.0983 299.699L14.403 301.908C11.2926 302.492 8.55043 302.594 3.86586 302.594H2.03773V290.609H12.778ZM4.50063 311.303V304.244H7.31898V309.018H20.1159V311.303H4.50063ZM16.3834 305.793V288.807H19.2018V295.713H22.401V298.049H19.2018V305.793H16.3834ZM44.0216 306.631V308.916H23.049V306.631H32.0373V301.324H34.8302V306.631H44.0216ZM23.6584 299.547C28.4572 298.772 31.8976 295.332 31.9103 291.879V290.203H34.9064V291.879C34.9064 295.345 38.3722 298.772 43.2091 299.547L41.9904 301.883C38.1183 301.146 34.9318 298.925 33.4084 295.916C31.8976 298.912 28.7492 301.159 24.8771 301.883L23.6584 299.547ZM65.9216 299.344V301.629H56.8317V303.559C60.9323 303.825 63.3698 305.247 63.3825 307.621C63.3698 310.262 60.3737 311.734 55.4352 311.734C50.4206 311.734 47.4372 310.262 47.4372 307.621C47.4372 305.247 49.8747 303.812 54.0387 303.546V301.629H44.9997V299.344H65.9216ZM46.0153 296.068C50.2302 295.675 52.985 293.961 53.4548 292.082H46.904V289.822H64.0427V292.082H57.4284C57.8854 293.974 60.6149 295.675 64.9313 296.068L63.9411 298.303C59.7643 297.871 56.6794 296.208 55.4352 293.885C54.1911 296.208 51.1442 297.871 46.9802 298.303L46.0153 296.068ZM50.3063 307.621C50.2936 308.891 52.0964 309.589 55.4352 309.576C58.7233 309.589 60.5387 308.891 60.5641 307.621C60.5387 306.352 58.7233 305.679 55.4352 305.666C52.0964 305.679 50.2936 306.352 50.3063 307.621ZM86.0695 288.832V301.553H83.2258V288.832H86.0695ZM68.1184 292.158V289.873H78.7063V296.5H70.9367V298.811C74.8596 298.785 77.6652 298.709 80.9406 298.15L81.2961 300.436C77.6779 301.032 74.5676 301.121 70.1242 301.121H68.1691V294.342H75.9133V292.158H68.1184ZM70.8605 311.48V302.568H73.6789V304.803H83.2512V302.568H86.0695V311.48H70.8605ZM73.6789 309.195H83.2512V306.986H73.6789V309.195ZM114.356 288.807V311.76H111.639V288.807H114.356ZM94.7795 298.734C94.7795 293.682 96.7346 290.546 99.7307 290.559C102.511 290.546 104.403 293.148 104.733 297.439H106.942V289.213H109.633V310.643H106.942V299.725H104.758C104.491 304.206 102.574 306.948 99.7307 306.936C96.7346 306.948 94.7795 303.8 94.7795 298.734ZM97.3948 298.734C97.3821 302.327 98.2707 304.257 99.7307 304.244C101.254 304.257 102.156 302.327 102.168 298.734C102.156 295.154 101.254 293.212 99.7307 293.225C98.2707 293.212 97.3821 295.154 97.3948 298.734ZM135.773 288.807V311.785H132.955V298.354H126.379V296.068H132.955V288.807H135.773ZM117.72 306.352V291.32H120.539V303.978C123.624 303.939 126.683 303.711 129.908 303.076L130.238 305.387C126.544 306.148 123.116 306.339 119.599 306.352H117.72ZM147.111 295.332C147.111 299.09 149.32 303.051 153.027 304.6L151.478 306.834C148.761 305.653 146.781 303.254 145.727 300.334C144.673 303.482 142.655 306.123 139.976 307.393L138.351 305.184C141.969 303.508 144.229 299.229 144.241 295.332V293.402H139.189V291.066H152.138V293.402H147.111V295.332ZM154.702 311.76V288.807H157.546V311.76H154.702ZM177.885 295.738V298.404H186.975V300.664H166.053V298.404H175.092V295.738H177.885ZM167.119 294.9C172.02 294.418 175.041 292.234 175.041 289.619V289.01H177.91V289.619C177.91 292.234 180.919 294.418 185.832 294.9L184.842 297.059C180.995 296.576 177.949 295.129 176.463 292.895C174.991 295.129 171.956 296.576 168.11 297.059L167.119 294.9ZM168.516 304.219V302.061H184.36V307.748H171.309V309.398H184.994V311.557H168.541V305.742H181.592V304.219H168.516ZM206.514 289.594V296.119H193.336V298.404H207.021V300.664H190.492V293.986H203.619V291.879H190.441V289.594H206.514ZM187.978 304.879V302.619H208.951V304.879H199.836V311.785H197.017V304.879H187.978ZM218.308 292.869C218.295 296.106 220.111 299.255 223.64 300.588L222.066 302.771C219.616 301.807 217.864 299.89 216.911 297.516C215.921 300.067 214.068 302.086 211.427 303.102L209.904 300.867C213.56 299.547 215.452 296.31 215.464 292.869V290.127H218.308V292.869ZM214.042 311.303V304.193H216.911V309.018H229.683V311.303H214.042ZM222.167 298.76V296.5H226.357V294.24H222.167V291.955H226.357V288.832H229.175V305.869H226.357V298.76H222.167Z" fill="white"/>
<mask id="path-10-inside-4_812_921" fill="white">
<path d="M0 360H736V480H0V360Z"/>
</mask>
<path d="M0 360V361H736V360V359H0V360Z" fill="white" mask="url(#path-10-inside-4_812_921)"/>
<path d="M20.903 408.807V431.76H18.1608V408.807H20.903ZM1.86 426.504V411.498H10.5944V413.758H4.62758V424.143C7.33168 424.13 9.28676 424.003 11.5338 423.533L11.7623 425.844C9.1725 426.377 6.87465 426.491 3.40883 426.504H1.86ZM9.02016 419.623V417.312H13.4381V409.264H16.0788V430.643H13.4381V419.623H9.02016ZM42.1427 408.807V431.785H39.299V408.807H42.1427ZM23.7853 418.582C23.7726 413.631 26.299 410.482 29.7775 410.482C33.2179 410.482 35.757 413.631 35.7697 418.582C35.757 423.571 33.2179 426.707 29.7775 426.707C26.299 426.707 23.7726 423.571 23.7853 418.582ZM26.5021 418.582C26.5021 422.111 27.8351 424.155 29.7775 424.168C31.7072 424.155 33.0275 422.111 33.0275 418.582C33.0275 415.078 31.7072 413.021 29.7775 413.021C27.8351 413.021 26.5021 415.078 26.5021 418.582ZM64.2458 408.807V431.785H61.4528V419.395H57.1364V417.109H61.4528V408.807H64.2458ZM46.0407 426.504V410.787H56.7809V413.098H48.8845V417.211H55.8669V419.445H48.8845V424.168C52.3757 424.155 54.9909 424.028 57.9489 423.559L58.2282 425.844C54.8893 426.352 51.944 426.479 47.8434 426.504H46.0407ZM86.5773 408.807V425.996H83.8859V408.807H86.5773ZM66.798 420.766C69.8576 419.28 71.2922 416.233 71.2922 413.504V410.381H74.0344V413.504C74.0344 416.183 75.3547 418.849 78.2746 420.156L76.7004 422.34C74.7707 421.438 73.4504 419.89 72.6887 418.023C71.8762 420.131 70.4416 421.921 68.3469 422.898L66.798 420.766ZM71.216 431.303V423.939H74.0344V429.018H87.2121V431.303H71.216ZM76.218 416.576V414.266H79.2902V409.213H81.9816V425.311H79.2902V416.576H76.218ZM108.147 408.807V431.785H105.354V419.395H101.038V417.109H105.354V408.807H108.147ZM89.9421 426.504V410.787H100.682V413.098H92.7859V417.211H99.7683V419.445H92.7859V424.168C96.2771 424.155 98.8923 424.028 101.85 423.559L102.13 425.844C98.7907 426.352 95.8454 426.479 91.7448 426.504H89.9421ZM136.129 408.832V422.619H133.437V416.855H130.924V421.807H128.283V409.264H130.924V414.52H133.437V408.832H136.129ZM117.492 420.867V410.635H120.31V418.544C122.507 418.519 124.563 418.341 126.937 417.871L127.191 420.182C124.309 420.753 121.859 420.88 119.041 420.867H117.492ZM120.513 427.316C120.501 424.536 123.56 422.848 128.385 422.848C133.158 422.848 136.243 424.536 136.256 427.316C136.243 430.059 133.158 431.734 128.385 431.734C123.56 431.734 120.501 430.059 120.513 427.316ZM123.332 427.316C123.319 428.726 125.211 429.513 128.385 429.525C131.52 429.513 133.399 428.726 133.412 427.316C133.399 425.856 131.52 425.057 128.385 425.057C125.211 425.057 123.319 425.856 123.332 427.316ZM156.556 408.807V414.342H159.755V416.703H156.556V422.188H153.738V408.807H156.556ZM138.224 419.902C143.581 418.519 146.641 415.776 147.123 412.438H139.366V410.152H150.158C150.145 416.17 146.235 420.321 139.392 422.061L138.224 419.902ZM141.271 425.412V423.152H156.556V431.76H153.738V425.412H141.271ZM177.885 415.738V418.404H186.975V420.664H166.053V418.404H175.092V415.738H177.885ZM167.119 414.9C172.02 414.418 175.041 412.234 175.041 409.619V409.01H177.91V409.619C177.91 412.234 180.919 414.418 185.832 414.9L184.842 417.059C180.995 416.576 177.949 415.129 176.463 412.895C174.991 415.129 171.956 416.576 168.11 417.059L167.119 414.9ZM168.516 424.219V422.061H184.36V427.748H171.309V429.398H184.994V431.557H168.541V425.742H181.592V424.219H168.516ZM206.514 409.594V416.119H193.336V418.404H207.021V420.664H190.492V413.986H203.619V411.879H190.441V409.594H206.514ZM187.978 424.879V422.619H208.951V424.879H199.836V431.785H197.017V424.879H187.978ZM218.308 412.869C218.295 416.106 220.111 419.255 223.64 420.588L222.066 422.771C219.616 421.807 217.864 419.89 216.911 417.516C215.921 420.067 214.068 422.086 211.427 423.102L209.904 420.867C213.56 419.547 215.452 416.31 215.464 412.869V410.127H218.308V412.869ZM214.042 431.303V424.193H216.911V429.018H229.683V431.303H214.042ZM222.167 418.76V416.5H226.357V414.24H222.167V411.955H226.357V408.832H229.175V425.869H226.357V418.76H222.167Z" fill="white"/>
</svg>
