<svg width="38" height="15" viewBox="0 0 38 15" fill="none" xmlns="http://www.w3.org/2000/svg">
<path d="M6.51562 3.39062C6.42188 2.49219 5.71094 1.96875 4.5625 1.96875C3.375 1.96875 2.71094 2.51562 2.70312 3.26562C2.69531 4.08594 3.53906 4.45312 4.51562 4.67188L5.53125 4.92188C7.46875 5.36719 8.91406 6.35156 8.92188 8.23438C8.91406 10.3047 7.30469 11.6328 4.54688 11.625C1.8125 11.6328 0.0703125 10.3672 0 7.9375H2.28125C2.35938 9.07812 3.26562 9.65625 4.51562 9.65625C5.75 9.65625 6.54688 9.07812 6.54688 8.23438C6.54688 7.46094 5.84375 7.10156 4.60938 6.79688L3.375 6.5C1.46875 6.03125 0.296875 5.07812 0.296875 3.42188C0.289062 1.36719 2.10156 0 4.57812 0C7.08594 0 8.73438 1.39062 8.76562 3.39062H6.51562ZM12.7188 6.5625V11.4688H10.4062V0.15625H12.6562V4.46875H12.75C13.1406 3.47656 13.9922 2.875 15.2812 2.875C17.0547 2.875 18.2188 4.07031 18.2188 6.0625V11.4688H15.9062V6.46875C15.9062 5.41406 15.3438 4.79688 14.375 4.79688C13.3984 4.79688 12.7188 5.44531 12.7188 6.5625ZM23.8125 11.6406C21.25 11.6328 19.6484 9.875 19.6562 7.25C19.6484 4.63281 21.25 2.875 23.8125 2.875C26.3828 2.875 27.9766 4.63281 27.9844 7.25C27.9766 9.875 26.3828 11.6328 23.8125 11.6406ZM22 7.25C22 8.73438 22.6172 9.83594 23.8281 9.84375C25.0078 9.83594 25.6328 8.73438 25.625 7.25C25.6328 5.75781 25.0078 4.64062 23.8281 4.64062C22.6172 4.64062 22 5.75781 22 7.25ZM29.4375 14.6562V2.98438H31.7188V4.40625H31.8125C32.1328 3.71875 32.8047 2.875 34.2344 2.875C36.1094 2.875 37.6797 4.32812 37.6719 7.23438C37.6797 10.0703 36.1719 11.6094 34.2344 11.6094C32.8516 11.6094 32.1406 10.8125 31.8125 10.1094H31.75V14.6562H29.4375ZM31.7031 7.21875C31.6953 8.75 32.3516 9.75781 33.5 9.76562C34.6797 9.75781 35.3203 8.71875 35.3125 7.21875C35.3203 5.74219 34.6953 4.71875 33.5 4.71875C32.3438 4.71875 31.6953 5.69531 31.7031 7.21875Z" fill="black"/>
</svg>
