<svg width="734" height="50" viewBox="0 0 734 50" fill="none" xmlns="http://www.w3.org/2000/svg">
<path d="M38.1718 0.382812V17.4453H45.4453V21.0547H38.1718V38.4453H33.8515V0.382812H38.1718ZM-3.05176e-05 29.3125C3.85544 29.3125 8.42184 29.2578 13.1797 29.0938V25.375C7.5195 24.8555 3.85544 22.1484 3.88278 18.0469C3.85544 13.3711 8.42184 10.5273 15.2578 10.5547C22.1484 10.5273 26.6328 13.3711 26.6875 18.0469C26.6328 22.1211 23.0781 24.8281 17.4453 25.375V28.9023C21.9843 28.6289 26.6054 28.2188 30.8437 27.5625L31.2265 30.625C20.8086 32.5938 8.99606 32.7305 0.492157 32.8125L-3.05176e-05 29.3125ZM1.20309 8.42188V5.19531H13.1797V0.273438H17.4453V5.19531H29.3672V8.42188H1.20309ZM7.27341 47.9609V35.875H11.5937V44.3516H39.9218V47.9609H7.27341ZM7.98434 18.0469C7.957 20.6992 10.7734 22.4219 15.2578 22.4219C19.7422 22.4219 22.5859 20.6992 22.5859 18.0469C22.5859 15.2852 19.7422 13.5898 15.2578 13.6172C10.7734 13.5898 7.957 15.2852 7.98434 18.0469ZM86.6818 0.4375V29.6406H82.3615V23.0781H69.4553V19.5234H82.3615V12.9609H69.9475C66.7482 20.7812 59.2561 26.4414 48.8381 29.5312L47.0334 26.1406C58.7639 22.668 66.1193 16.0781 66.967 7.65625H49.4943V4.04688H71.6428C71.6428 5.96094 71.424 7.79297 71.0139 9.51562H82.3615V0.4375H86.6818ZM54.5256 39.4297C54.4982 33.6328 60.8147 30.1328 70.7678 30.1328C80.6115 30.1328 86.9553 33.6328 86.9553 39.4297C86.9553 45.2539 80.6115 48.7812 70.7678 48.7812C60.8147 48.7812 54.4982 45.2539 54.5256 39.4297ZM58.7365 39.4297C58.7639 43.0938 63.4397 45.3086 70.7678 45.2812C77.9865 45.3086 82.6623 43.0938 82.6897 39.4297C82.6623 35.7656 77.9865 33.5508 70.7678 33.5781C63.4397 33.5508 58.7639 35.7656 58.7365 39.4297ZM114.684 1.25781C125.485 1.25781 131.829 4.23828 131.856 9.625C131.829 15.1484 125.485 18.1289 114.684 18.1562C103.829 18.1289 97.4575 15.1484 97.4575 9.625C97.4575 4.23828 103.829 1.25781 114.684 1.25781ZM92.5356 24.9375V21.4375H136.832V24.9375H92.5356ZM97.895 32.4297V29.1484H131.145V40.0312H102.27V45.0625H132.622V48.4531H98.0043V36.8594H126.934V32.4297H97.895ZM101.942 9.625C101.887 13.0156 106.618 14.875 114.684 14.875C122.75 14.875 127.454 13.0156 127.481 9.625C127.454 6.42578 122.75 4.51172 114.684 4.48438C106.618 4.51172 101.887 6.42578 101.942 9.625ZM195.735 8.91406V12.4688H188.517V19.1953H195.735V22.8047H188.517V31.7734H184.251V0.382812H188.517V8.91406H195.735ZM150.618 9.35156V5.96094H162.977V0H167.243V5.96094H179.602V9.35156H150.618ZM153.407 20.4531C153.38 15.2578 158.056 11.8945 165.11 11.8672C172.083 11.8945 176.759 15.2578 176.813 20.4531C176.759 25.7031 172.083 29.0664 165.11 29.0391C158.056 29.0664 153.38 25.7031 153.407 20.4531ZM157.235 40.5234C157.208 35.2188 163.224 32.1289 173.149 32.1016C183.048 32.1289 189.063 35.2188 189.063 40.5234C189.063 45.8008 183.048 48.8906 173.149 48.8906C163.224 48.8906 157.208 45.8008 157.235 40.5234ZM157.509 20.4531C157.481 23.6523 160.517 25.7031 165.11 25.7031C169.649 25.7031 172.712 23.6523 172.767 20.4531C172.712 17.2539 169.649 15.1484 165.11 15.0938C160.517 15.1484 157.481 17.2539 157.509 20.4531ZM161.501 40.5234C161.446 43.668 165.876 45.582 173.149 45.5547C180.395 45.582 184.825 43.668 184.798 40.5234C184.825 37.2969 180.395 35.4922 173.149 35.4922C165.876 35.4922 161.446 37.2969 161.501 40.5234ZM234.675 0.4375V16.4609H242.003V20.0703H234.675V36.8594H230.409V0.4375H234.675ZM196.777 9.89844V6.39844H209.136V0.4375H213.402V6.39844H225.761V9.89844H196.777ZM199.566 21.6562C199.538 16.1328 204.241 12.5781 211.269 12.5781C218.214 12.5781 222.917 16.1328 222.972 21.6562C222.917 27.125 218.214 30.6523 211.269 30.625C204.241 30.6523 199.538 27.125 199.566 21.6562ZM203.667 21.6562C203.64 25.0742 206.675 27.2891 211.269 27.2344C215.808 27.2891 218.87 25.0742 218.925 21.6562C218.87 18.1836 215.808 15.9414 211.269 15.9688C206.675 15.9414 203.64 18.1836 203.667 21.6562ZM204.269 47.9609V33.9609H208.48V44.3516H236.917V47.9609H204.269ZM269.023 10.9375C269.023 16.6797 272.851 22.2852 279.031 24.5547L276.953 27.8906C272.222 26.0039 268.832 22.3672 267.109 17.9922C265.414 22.75 261.996 26.6875 257.156 28.7656L255.023 25.5391C261.23 22.9961 264.922 17.1172 264.976 10.9375V10.3359H256.007V6.83594H264.976V0.984375H269.023V6.83594H277.828V10.3359H269.023V10.9375ZM263.172 36.3125V32.8125H295.929V49H291.718V36.3125H263.172ZM281.328 29.9688V1.3125H285.484V13.4531H291.828V0.4375H295.929V30.1875H291.828V17.0078H285.484V29.9688H281.328ZM340.939 0.4375V28.2188H336.674V0.4375H340.939ZM301.947 14.3828C301.92 7.60156 307.307 3.00781 314.689 3.00781C322.072 3.00781 327.404 7.60156 327.432 14.3828C327.404 21.0547 322.072 25.7031 314.689 25.7031C307.307 25.7031 301.92 21.0547 301.947 14.3828ZM306.158 14.3828C306.103 18.8945 309.685 22.0664 314.689 22.0391C319.639 22.0664 323.221 18.8945 323.221 14.3828C323.221 9.84375 319.639 6.64453 314.689 6.67188C309.685 6.64453 306.103 9.84375 306.158 14.3828ZM309.33 48.3438V30.8438H340.939V48.3438H309.33ZM313.541 44.8438H336.728V34.3438H313.541V44.8438ZM369.106 1.25781C379.906 1.25781 386.25 4.23828 386.277 9.625C386.25 15.1484 379.906 18.1289 369.106 18.1562C358.25 18.1289 351.879 15.1484 351.879 9.625C351.879 4.23828 358.25 1.25781 369.106 1.25781ZM346.957 24.9375V21.4375H391.254V24.9375H346.957ZM352.317 32.4297V29.1484H385.567V40.0312H356.692V45.0625H387.043V48.4531H352.426V36.8594H381.356V32.4297H352.317ZM356.363 9.625C356.309 13.0156 361.039 14.875 369.106 14.875C377.172 14.875 381.875 13.0156 381.902 9.625C381.875 6.42578 377.172 4.51172 369.106 4.48438C361.039 4.51172 356.309 6.42578 356.363 9.625ZM445.126 0.382812V49H440.805V0.382812H445.126ZM405.532 36.3672C418.684 30.1328 425.411 20.8086 426.368 9.1875H407.774V5.6875H430.743C430.688 19.6602 424.18 32.0469 407.883 39.8672L405.532 36.3672ZM475.479 2.51562C475.452 8.55859 484.229 13.207 492.979 14.2734L491.448 17.5547C483.792 16.5156 476.3 13.0977 473.237 7.84766C470.12 13.0977 462.6 16.5156 455.026 17.5547L453.55 14.2734C462.272 13.207 471.05 8.55859 471.05 2.51562V0.65625H475.479V2.51562ZM451.089 24.2266V20.7266H495.386V24.2266H475.315V29.0938H489.698V40.1406H460.823V45.0625H491.175V48.4531H456.557V36.9141H485.487V32.4844H456.448V29.0938H471.05V24.2266H451.089ZM541.763 39.375V42.9844H497.247V39.375H517.263V30.1875H502.825V15.2031H531.919V7.54688H502.716V3.99219H536.13V18.7031H507.091V26.6328H537.278V30.1875H521.474V39.375H541.763ZM595.306 0.382812V25.5938H591.095V0.382812H595.306ZM555.548 21.7109C562.877 19.168 568.072 12.6602 568.072 5.52344V1.80469H572.447V5.52344C572.392 12.3867 577.642 18.457 584.861 20.8359L582.728 24.1719C577.013 22.2305 572.502 18.1562 570.314 12.9062C568.127 18.5664 563.56 23.0234 557.791 25.1016L555.548 21.7109ZM563.752 31.5V28.0547H595.361V39.7031H568.072V44.9531H597.111V48.4531H563.861V36.3672H591.095V31.5H563.752ZM617.949 12.0312C617.976 18.5117 623.09 24.1445 630.308 26.4141L628.176 29.8594C622.57 28.0273 618.113 24.1719 615.926 19.168C613.82 24.5273 609.39 28.6836 603.676 30.6797L601.543 27.3438C608.734 24.9375 613.711 18.8945 613.738 12.0312V10.4453H602.746V6.94531H613.738V0.710938H618.058V6.94531H628.941V10.4453H617.949V12.0312ZM610.457 47.9609V33.4688H614.777V44.3516H643.051V47.9609H610.457ZM627.246 18.9766V15.4219H637.363V0.4375H641.683V36.75H637.363V18.9766H627.246ZM685.162 0.382812V20.4531H693.311V24.0078H685.162V49H680.896V0.382812H685.162ZM647.264 11.7578V8.20312H659.787V0.984375H664.053V8.20312H676.193V11.7578H647.264ZM650.053 26.9609C650.025 20.3984 655.057 15.8047 661.975 15.8047C668.838 15.8047 673.842 20.3984 673.896 26.9609C673.842 33.5508 668.838 38.1172 661.975 38.1172C655.057 38.1172 650.025 33.5508 650.053 26.9609ZM654.154 26.9609C654.127 31.3906 657.436 34.5078 661.975 34.4531C666.459 34.5078 669.74 31.3906 669.795 26.9609C669.74 22.5586 666.459 19.3867 661.975 19.4141C657.436 19.3867 654.127 22.5586 654.154 26.9609ZM717.813 5.25V12.0859H729.735V0.382812H734V49.1094H729.735V29.0391H717.813V36.6953H695.664V5.25H717.813ZM699.93 33.25H713.656V8.64062H699.93V33.25ZM717.813 25.4844H729.735V15.6406H717.813V25.4844Z" fill="#182A7E"/>
</svg>
