<svg width="378" height="119" viewBox="0 0 378 119" fill="none" xmlns="http://www.w3.org/2000/svg">
<path d="M17.36 48.392C14.6347 48.392 12.1707 47.9253 9.968 46.992C7.80267 46.0587 6.08533 44.7147 4.816 42.96C3.54667 41.2053 2.89333 39.1333 2.856 36.744H11.256C11.368 38.3493 11.928 39.6187 12.936 40.552C13.9813 41.4853 15.4 41.952 17.192 41.952C19.0213 41.952 20.4587 41.5227 21.504 40.664C22.5493 39.768 23.072 38.6107 23.072 37.192C23.072 36.0347 22.7173 35.0827 22.008 34.336C21.2987 33.5893 20.4027 33.0107 19.32 32.6C18.2747 32.152 16.8187 31.6667 14.952 31.144C12.4133 30.3973 10.3413 29.6693 8.736 28.96C7.168 28.2133 5.80533 27.112 4.648 25.656C3.528 24.1627 2.968 22.184 2.968 19.72C2.968 17.4053 3.54667 15.3893 4.704 13.672C5.86133 11.9547 7.48533 10.648 9.576 9.752C11.6667 8.81867 14.056 8.352 16.744 8.352C20.776 8.352 24.0427 9.34133 26.544 11.32C29.0827 13.2613 30.4827 15.9867 30.744 19.496H22.12C22.0453 18.152 21.4667 17.0507 20.384 16.192C19.3387 15.296 17.9387 14.848 16.184 14.848C14.6533 14.848 13.4213 15.24 12.488 16.024C11.592 16.808 11.144 17.9467 11.144 19.44C11.144 20.4853 11.48 21.3627 12.152 22.072C12.8613 22.744 13.72 23.304 14.728 23.752C15.7733 24.1627 17.2293 24.648 19.096 25.208C21.6347 25.9547 23.7067 26.7013 25.312 27.448C26.9173 28.1947 28.2987 29.3147 29.456 30.808C30.6133 32.3013 31.192 34.2613 31.192 36.688C31.192 38.7787 30.6507 40.72 29.568 42.512C28.4853 44.304 26.8987 45.7413 24.808 46.824C22.7173 47.8693 20.2347 48.392 17.36 48.392ZM66.157 16.976V48H58.261V44.08C57.253 45.424 55.9277 46.488 54.285 47.272C52.6797 48.0187 50.925 48.392 49.021 48.392C46.5943 48.392 44.4477 47.888 42.581 46.88C40.7143 45.8347 39.2397 44.3227 38.157 42.344C37.1117 40.328 36.589 37.9387 36.589 35.176V16.976H44.429V34.056C44.429 36.52 45.045 38.424 46.277 39.768C47.509 41.0747 49.189 41.728 51.317 41.728C53.4823 41.728 55.181 41.0747 56.413 39.768C57.645 38.424 58.261 36.52 58.261 34.056V16.976H66.157ZM84.6444 48.504C82.1058 48.504 79.8284 48.056 77.8124 47.16C75.7964 46.2267 74.1911 44.976 72.9964 43.408C71.8391 41.84 71.2044 40.104 71.0924 38.2H78.9884C79.1378 39.3947 79.7164 40.384 80.7244 41.168C81.7698 41.952 83.0578 42.344 84.5884 42.344C86.0818 42.344 87.2391 42.0453 88.0604 41.448C88.9191 40.8507 89.3484 40.0853 89.3484 39.152C89.3484 38.144 88.8258 37.3973 87.7804 36.912C86.7724 36.3893 85.1484 35.8293 82.9084 35.232C80.5938 34.672 78.6898 34.0933 77.1964 33.496C75.7404 32.8987 74.4711 31.984 73.3884 30.752C72.3431 29.52 71.8204 27.8587 71.8204 25.768C71.8204 24.0507 72.3058 22.4827 73.2764 21.064C74.2844 19.6453 75.7031 18.5253 77.5324 17.704C79.3991 16.8827 81.5831 16.472 84.0844 16.472C87.7804 16.472 90.7298 17.4053 92.9324 19.272C95.1351 21.1013 96.3484 23.584 96.5724 26.72H89.0684C88.9564 25.488 88.4338 24.5173 87.5004 23.808C86.6044 23.0613 85.3911 22.688 83.8604 22.688C82.4418 22.688 81.3404 22.9493 80.5564 23.472C79.8098 23.9947 79.4364 24.7227 79.4364 25.656C79.4364 26.7013 79.9591 27.504 81.0044 28.064C82.0498 28.5867 83.6738 29.128 85.8764 29.688C88.1164 30.248 89.9644 30.8267 91.4204 31.424C92.8764 32.0213 94.1271 32.9547 95.1724 34.224C96.2551 35.456 96.8151 37.0987 96.8524 39.152C96.8524 40.944 96.3484 42.5493 95.3404 43.968C94.3698 45.3867 92.9511 46.5067 91.0844 47.328C89.2551 48.112 87.1084 48.504 84.6444 48.504ZM111.296 23.416V38.424C111.296 39.4693 111.539 40.2347 112.024 40.72C112.547 41.168 113.405 41.392 114.6 41.392H118.24V48H113.312C106.704 48 103.4 44.7893 103.4 38.368V23.416H99.7041V16.976H103.4V9.304H111.296V16.976H118.24V23.416H111.296ZM120.743 32.376C120.743 29.24 121.359 26.4587 122.591 24.032C123.86 21.6053 125.559 19.7387 127.687 18.432C129.852 17.1253 132.26 16.472 134.911 16.472C137.226 16.472 139.242 16.9387 140.959 17.872C142.714 18.8053 144.114 19.9813 145.159 21.4V16.976H153.055V48H145.159V43.464C144.151 44.92 142.751 46.1333 140.959 47.104C139.204 48.0373 137.17 48.504 134.855 48.504C132.242 48.504 129.852 47.832 127.687 46.488C125.559 45.144 123.86 43.2587 122.591 40.832C121.359 38.368 120.743 35.5493 120.743 32.376ZM145.159 32.488C145.159 30.584 144.786 28.96 144.039 27.616C143.292 26.2347 142.284 25.1893 141.015 24.48C139.746 23.7333 138.383 23.36 136.927 23.36C135.471 23.36 134.127 23.7147 132.895 24.424C131.663 25.1333 130.655 26.1787 129.871 27.56C129.124 28.904 128.751 30.5093 128.751 32.376C128.751 34.2427 129.124 35.8853 129.871 37.304C130.655 38.6853 131.663 39.7493 132.895 40.496C134.164 41.2427 135.508 41.616 136.927 41.616C138.383 41.616 139.746 41.2613 141.015 40.552C142.284 39.8053 143.292 38.76 144.039 37.416C144.786 36.0347 145.159 34.392 145.159 32.488ZM163.568 13.28C162.187 13.28 161.029 12.8507 160.096 11.992C159.2 11.096 158.752 9.99466 158.752 8.688C158.752 7.38133 159.2 6.29866 160.096 5.44C161.029 4.544 162.187 4.096 163.568 4.096C164.949 4.096 166.088 4.544 166.984 5.44C167.917 6.29866 168.384 7.38133 168.384 8.688C168.384 9.99466 167.917 11.096 166.984 11.992C166.088 12.8507 164.949 13.28 163.568 13.28ZM167.432 16.976V48H159.592V16.976H167.432ZM191.25 16.528C194.946 16.528 197.933 17.704 200.21 20.056C202.487 22.3707 203.626 25.6187 203.626 29.8V48H195.786V30.864C195.786 28.4 195.17 26.5147 193.938 25.208C192.706 23.864 191.026 23.192 188.898 23.192C186.733 23.192 185.015 23.864 183.746 25.208C182.514 26.5147 181.898 28.4 181.898 30.864V48H174.058V16.976H181.898V20.84C182.943 19.496 184.269 18.4507 185.874 17.704C187.517 16.92 189.309 16.528 191.25 16.528ZM207.946 32.376C207.946 29.24 208.562 26.4587 209.794 24.032C211.063 21.6053 212.762 19.7387 214.89 18.432C217.055 17.1253 219.463 16.472 222.114 16.472C224.428 16.472 226.444 16.9387 228.162 17.872C229.916 18.8053 231.316 19.9813 232.362 21.4V16.976H240.258V48H232.362V43.464C231.354 44.92 229.954 46.1333 228.162 47.104C226.407 48.0373 224.372 48.504 222.058 48.504C219.444 48.504 217.055 47.832 214.89 46.488C212.762 45.144 211.063 43.2587 209.794 40.832C208.562 38.368 207.946 35.5493 207.946 32.376ZM232.362 32.488C232.362 30.584 231.988 28.96 231.242 27.616C230.495 26.2347 229.487 25.1893 228.218 24.48C226.948 23.7333 225.586 23.36 224.13 23.36C222.674 23.36 221.33 23.7147 220.098 24.424C218.866 25.1333 217.858 26.1787 217.074 27.56C216.327 28.904 215.954 30.5093 215.954 32.376C215.954 34.2427 216.327 35.8853 217.074 37.304C217.858 38.6853 218.866 39.7493 220.098 40.496C221.367 41.2427 222.711 41.616 224.13 41.616C225.586 41.616 226.948 41.2613 228.218 40.552C229.487 39.8053 230.495 38.76 231.242 37.416C231.988 36.0347 232.362 34.392 232.362 32.488ZM254.635 21.512C255.643 20.0187 257.024 18.8053 258.779 17.872C260.571 16.9387 262.605 16.472 264.883 16.472C267.533 16.472 269.923 17.1253 272.051 18.432C274.216 19.7387 275.915 21.6053 277.147 24.032C278.416 26.4213 279.051 29.2027 279.051 32.376C279.051 35.5493 278.416 38.368 277.147 40.832C275.915 43.2587 274.216 45.144 272.051 46.488C269.923 47.832 267.533 48.504 264.883 48.504C262.568 48.504 260.533 48.056 258.779 47.16C257.061 46.2267 255.68 45.032 254.635 43.576V48H246.795V6.56H254.635V21.512ZM271.043 32.376C271.043 30.5093 270.651 28.904 269.867 27.56C269.12 26.1787 268.112 25.1333 266.843 24.424C265.611 23.7147 264.267 23.36 262.811 23.36C261.392 23.36 260.048 23.7333 258.779 24.48C257.547 25.1893 256.539 26.2347 255.755 27.616C255.008 28.9973 254.635 30.6213 254.635 32.488C254.635 34.3547 255.008 35.9787 255.755 37.36C256.539 38.7413 257.547 39.8053 258.779 40.552C260.048 41.2613 261.392 41.616 262.811 41.616C264.267 41.616 265.611 41.2427 266.843 40.496C268.112 39.7493 269.12 38.6853 269.867 37.304C270.651 35.9227 271.043 34.28 271.043 32.376ZM287.604 13.28C286.222 13.28 285.065 12.8507 284.132 11.992C283.236 11.096 282.788 9.99466 282.788 8.688C282.788 7.38133 283.236 6.29866 284.132 5.44C285.065 4.544 286.222 4.096 287.604 4.096C288.985 4.096 290.124 4.544 291.02 5.44C291.953 6.29866 292.42 7.38133 292.42 8.688C292.42 9.99466 291.953 11.096 291.02 11.992C290.124 12.8507 288.985 13.28 287.604 13.28ZM291.468 16.976V48H283.628V16.976H291.468ZM305.934 6.56V48H298.094V6.56H305.934ZM316.536 13.28C315.154 13.28 313.997 12.8507 313.064 11.992C312.168 11.096 311.72 9.99466 311.72 8.688C311.72 7.38133 312.168 6.29866 313.064 5.44C313.997 4.544 315.154 4.096 316.536 4.096C317.917 4.096 319.056 4.544 319.952 5.44C320.885 6.29866 321.352 7.38133 321.352 8.688C321.352 9.99466 320.885 11.096 319.952 11.992C319.056 12.8507 317.917 13.28 316.536 13.28ZM320.4 16.976V48H312.56V16.976H320.4ZM336.154 23.416V38.424C336.154 39.4693 336.396 40.2347 336.882 40.72C337.404 41.168 338.263 41.392 339.458 41.392H343.098V48H338.17C331.562 48 328.258 44.7893 328.258 38.368V23.416H324.562V16.976H328.258V9.304H336.154V16.976H343.098V23.416H336.154ZM377.297 16.976L358.089 62.672H349.745L356.465 47.216L344.033 16.976H352.825L360.833 38.648L368.953 16.976H377.297ZM11.704 64.912V104H3.864V64.912H11.704ZM56.8579 72.528C60.6659 72.528 63.7273 73.704 66.0419 76.056C68.3939 78.3707 69.5699 81.6187 69.5699 85.8V104H61.7299V86.864C61.7299 84.4373 61.1139 82.5893 59.8819 81.32C58.6499 80.0133 56.9699 79.36 54.8419 79.36C52.7139 79.36 51.0153 80.0133 49.7459 81.32C48.5139 82.5893 47.8979 84.4373 47.8979 86.864V104H40.0579V86.864C40.0579 84.4373 39.4419 82.5893 38.2099 81.32C36.9779 80.0133 35.2979 79.36 33.1699 79.36C31.0046 79.36 29.2873 80.0133 28.0179 81.32C26.7859 82.5893 26.1699 84.4373 26.1699 86.864V104H18.3299V72.976H26.1699V76.728C27.1779 75.4213 28.4659 74.3947 30.0339 73.648C31.6393 72.9013 33.3939 72.528 35.2979 72.528C37.7246 72.528 39.8899 73.0507 41.7939 74.096C43.6979 75.104 45.1726 76.56 46.2179 78.464C47.2259 76.672 48.6819 75.2347 50.5859 74.152C52.5273 73.0693 54.6179 72.528 56.8579 72.528ZM83.7296 77.456C84.7376 76.0373 86.119 74.8613 87.8736 73.928C89.6656 72.9573 91.7003 72.472 93.9776 72.472C96.6283 72.472 99.0176 73.1253 101.146 74.432C103.311 75.7387 105.01 77.6053 106.242 80.032C107.511 82.4213 108.146 85.2027 108.146 88.376C108.146 91.5493 107.511 94.368 106.242 96.832C105.01 99.2587 103.311 101.144 101.146 102.488C99.0176 103.832 96.6283 104.504 93.9776 104.504C91.7003 104.504 89.6843 104.037 87.9296 103.104C86.2123 102.171 84.8123 100.995 83.7296 99.576V118.784H75.8896V72.976H83.7296V77.456ZM100.138 88.376C100.138 86.5093 99.7456 84.904 98.9616 83.56C98.215 82.1787 97.207 81.1333 95.9376 80.424C94.7056 79.7147 93.3616 79.36 91.9056 79.36C90.487 79.36 89.143 79.7333 87.8736 80.48C86.6416 81.1893 85.6336 82.2347 84.8496 83.616C84.103 84.9973 83.7296 86.6213 83.7296 88.488C83.7296 90.3547 84.103 91.9787 84.8496 93.36C85.6336 94.7413 86.6416 95.8053 87.8736 96.552C89.143 97.2613 90.487 97.616 91.9056 97.616C93.3616 97.616 94.7056 97.2427 95.9376 96.496C97.207 95.7493 98.215 94.6853 98.9616 93.304C99.7456 91.9227 100.138 90.28 100.138 88.376ZM110.707 88.376C110.707 85.24 111.323 82.4587 112.555 80.032C113.824 77.6053 115.523 75.7387 117.651 74.432C119.816 73.1253 122.224 72.472 124.875 72.472C127.189 72.472 129.205 72.9387 130.923 73.872C132.677 74.8053 134.077 75.9813 135.123 77.4V72.976H143.019V104H135.123V99.464C134.115 100.92 132.715 102.133 130.923 103.104C129.168 104.037 127.133 104.504 124.819 104.504C122.205 104.504 119.816 103.832 117.651 102.488C115.523 101.144 113.824 99.2587 112.555 96.832C111.323 94.368 110.707 91.5493 110.707 88.376ZM135.123 88.488C135.123 86.584 134.749 84.96 134.003 83.616C133.256 82.2347 132.248 81.1893 130.979 80.48C129.709 79.7333 128.347 79.36 126.891 79.36C125.435 79.36 124.091 79.7147 122.859 80.424C121.627 81.1333 120.619 82.1787 119.835 83.56C119.088 84.904 118.715 86.5093 118.715 88.376C118.715 90.2427 119.088 91.8853 119.835 93.304C120.619 94.6853 121.627 95.7493 122.859 96.496C124.128 97.2427 125.472 97.616 126.891 97.616C128.347 97.616 129.709 97.2613 130.979 96.552C132.248 95.8053 133.256 94.76 134.003 93.416C134.749 92.0347 135.123 90.392 135.123 88.488ZM147.54 88.488C147.54 85.2773 148.193 82.4773 149.5 80.088C150.807 77.6613 152.617 75.7947 154.932 74.488C157.247 73.144 159.897 72.472 162.884 72.472C166.729 72.472 169.903 73.4427 172.404 75.384C174.943 77.288 176.641 79.976 177.5 83.448H169.044C168.596 82.104 167.831 81.0587 166.748 80.312C165.703 79.528 164.396 79.136 162.828 79.136C160.588 79.136 158.815 79.9573 157.508 81.6C156.201 83.2053 155.548 85.5013 155.548 88.488C155.548 91.4373 156.201 93.7333 157.508 95.376C158.815 96.9813 160.588 97.784 162.828 97.784C166.001 97.784 168.073 96.3653 169.044 93.528H177.5C176.641 96.888 174.943 99.5573 172.404 101.536C169.865 103.515 166.692 104.504 162.884 104.504C159.897 104.504 157.247 103.851 154.932 102.544C152.617 101.2 150.807 99.3333 149.5 96.944C148.193 94.5173 147.54 91.6987 147.54 88.488ZM191.251 79.416V94.424C191.251 95.4693 191.494 96.2347 191.979 96.72C192.502 97.168 193.361 97.392 194.555 97.392H198.195V104H193.267C186.659 104 183.355 100.789 183.355 94.368V79.416H179.659V72.976H183.355V65.304H191.251V72.976H198.195V79.416H191.251Z" fill="white"/>
</svg>
