<svg width="158" height="26" viewBox="0 0 158 26" fill="none" xmlns="http://www.w3.org/2000/svg">
<path d="M18.264 2.06441V18.8164H14.904V7.92041L10.416 18.8164H7.87199L3.35999 7.92041V18.8164H-5.72205e-06V2.06441H3.81599L9.14399 14.5204L14.472 2.06441H18.264ZM33.4659 11.8804C33.4659 12.3604 33.4339 12.7924 33.3699 13.1764H23.6499C23.7299 14.1364 24.0659 14.8884 24.6579 15.4324C25.2499 15.9764 25.9779 16.2484 26.8419 16.2484C28.0899 16.2484 28.9779 15.7124 29.5059 14.6404H33.1299C32.7459 15.9204 32.0099 16.9764 30.9219 17.8084C29.8339 18.6244 28.4979 19.0324 26.9139 19.0324C25.6339 19.0324 24.4819 18.7524 23.4579 18.1924C22.4499 17.6164 21.6579 16.8084 21.0819 15.7684C20.5219 14.7284 20.2419 13.5284 20.2419 12.1684C20.2419 10.7924 20.5219 9.58441 21.0819 8.54441C21.6419 7.50441 22.4259 6.70441 23.4339 6.14441C24.4419 5.58441 25.6019 5.30441 26.9139 5.30441C28.1779 5.30441 29.3059 5.57641 30.2979 6.12041C31.3059 6.66441 32.0819 7.44041 32.6259 8.44841C33.1859 9.44041 33.4659 10.5844 33.4659 11.8804ZM29.9859 10.9204C29.9699 10.0564 29.6579 9.36841 29.0499 8.85641C28.4419 8.32841 27.6979 8.06441 26.8179 8.06441C25.9859 8.06441 25.2819 8.32041 24.7059 8.83241C24.1459 9.32841 23.8019 10.0244 23.6739 10.9204H29.9859ZM34.5744 12.1204C34.5744 10.7764 34.8384 9.58441 35.3664 8.54441C35.9104 7.50441 36.6464 6.70441 37.5744 6.14441C38.5024 5.58441 39.5344 5.30441 40.6704 5.30441C41.5344 5.30441 42.3584 5.49641 43.1424 5.88041C43.9264 6.24841 44.5504 6.74441 45.0144 7.36841V1.05641H48.4224V18.8164H45.0144V16.8484C44.5984 17.5044 44.0144 18.0324 43.2624 18.4324C42.5104 18.8324 41.6384 19.0324 40.6464 19.0324C39.5264 19.0324 38.5024 18.7444 37.5744 18.1684C36.6464 17.5924 35.9104 16.7844 35.3664 15.7444C34.8384 14.6884 34.5744 13.4804 34.5744 12.1204ZM45.0384 12.1684C45.0384 11.3524 44.8784 10.6564 44.5584 10.0804C44.2384 9.48841 43.8064 9.04041 43.2624 8.73641C42.7184 8.41641 42.1344 8.25641 41.5104 8.25641C40.8864 8.25641 40.3104 8.40841 39.7824 8.71241C39.2544 9.01641 38.8224 9.46441 38.4864 10.0564C38.1664 10.6324 38.0064 11.3204 38.0064 12.1204C38.0064 12.9204 38.1664 13.6244 38.4864 14.2324C38.8224 14.8244 39.2544 15.2804 39.7824 15.6004C40.3264 15.9204 40.9024 16.0804 41.5104 16.0804C42.1344 16.0804 42.7184 15.9284 43.2624 15.6244C43.8064 15.3044 44.2384 14.8564 44.5584 14.2804C44.8784 13.6884 45.0384 12.9844 45.0384 12.1684ZM52.9281 3.93641C52.3361 3.93641 51.8401 3.75241 51.4401 3.38441C51.0561 3.00041 50.8641 2.52841 50.8641 1.96841C50.8641 1.40841 51.0561 0.944405 51.4401 0.576405C51.8401 0.192405 52.3361 0.000405312 52.9281 0.000405312C53.5201 0.000405312 54.0081 0.192405 54.3921 0.576405C54.7921 0.944405 54.9921 1.40841 54.9921 1.96841C54.9921 2.52841 54.7921 3.00041 54.3921 3.38441C54.0081 3.75241 53.5201 3.93641 52.9281 3.93641ZM54.5841 5.52041V18.8164H51.2241V5.52041H54.5841ZM56.5597 12.1204C56.5597 10.7764 56.8237 9.58441 57.3517 8.54441C57.8957 7.50441 58.6237 6.70441 59.5357 6.14441C60.4637 5.58441 61.4957 5.30441 62.6317 5.30441C63.6237 5.30441 64.4877 5.50441 65.2237 5.90441C65.9757 6.30441 66.5757 6.80841 67.0237 7.41641V5.52041H70.4077V18.8164H67.0237V16.8724C66.5917 17.4964 65.9917 18.0164 65.2237 18.4324C64.4717 18.8324 63.5997 19.0324 62.6077 19.0324C61.4877 19.0324 60.4637 18.7444 59.5357 18.1684C58.6237 17.5924 57.8957 16.7844 57.3517 15.7444C56.8237 14.6884 56.5597 13.4804 56.5597 12.1204ZM67.0237 12.1684C67.0237 11.3524 66.8637 10.6564 66.5437 10.0804C66.2237 9.48841 65.7917 9.04041 65.2477 8.73641C64.7037 8.41641 64.1197 8.25641 63.4957 8.25641C62.8717 8.25641 62.2957 8.40841 61.7677 8.71241C61.2397 9.01641 60.8077 9.46441 60.4717 10.0564C60.1517 10.6324 59.9917 11.3204 59.9917 12.1204C59.9917 12.9204 60.1517 13.6244 60.4717 14.2324C60.8077 14.8244 61.2397 15.2804 61.7677 15.6004C62.3117 15.9204 62.8877 16.0804 63.4957 16.0804C64.1197 16.0804 64.7037 15.9284 65.2477 15.6244C65.7917 15.3044 66.2237 14.8564 66.5437 14.2804C66.8637 13.6884 67.0237 12.9844 67.0237 12.1684ZM81.8081 16.1524H87.3281V18.8164H78.4481V2.06441H81.8081V16.1524ZM90.6877 3.93641C90.0957 3.93641 89.5997 3.75241 89.1997 3.38441C88.8157 3.00041 88.6237 2.52841 88.6237 1.96841C88.6237 1.40841 88.8157 0.944405 89.1997 0.576405C89.5997 0.192405 90.0957 0.000405312 90.6877 0.000405312C91.2797 0.000405312 91.7677 0.192405 92.1517 0.576405C92.5517 0.944405 92.7517 1.40841 92.7517 1.96841C92.7517 2.52841 92.5517 3.00041 92.1517 3.38441C91.7677 3.75241 91.2797 3.93641 90.6877 3.93641ZM92.3437 5.52041V18.8164H88.9837V5.52041H92.3437ZM98.5434 7.46441C98.9754 6.82441 99.5674 6.30441 100.319 5.90441C101.087 5.50441 101.959 5.30441 102.935 5.30441C104.071 5.30441 105.095 5.58441 106.007 6.14441C106.935 6.70441 107.663 7.50441 108.191 8.54441C108.735 9.56841 109.007 10.7604 109.007 12.1204C109.007 13.4804 108.735 14.6884 108.191 15.7444C107.663 16.7844 106.935 17.5924 106.007 18.1684C105.095 18.7444 104.071 19.0324 102.935 19.0324C101.943 19.0324 101.071 18.8404 100.319 18.4564C99.5834 18.0564 98.9914 17.5444 98.5434 16.9204V18.8164H95.1834V1.05641H98.5434V7.46441ZM105.575 12.1204C105.575 11.3204 105.407 10.6324 105.071 10.0564C104.751 9.46441 104.319 9.01641 103.775 8.71241C103.247 8.40841 102.671 8.25641 102.047 8.25641C101.439 8.25641 100.863 8.41641 100.319 8.73641C99.7914 9.04041 99.3594 9.48841 99.0234 10.0804C98.7034 10.6724 98.5434 11.3684 98.5434 12.1684C98.5434 12.9684 98.7034 13.6644 99.0234 14.2564C99.3594 14.8484 99.7914 15.3044 100.319 15.6244C100.863 15.9284 101.439 16.0804 102.047 16.0804C102.671 16.0804 103.247 15.9204 103.775 15.6004C104.319 15.2804 104.751 14.8244 105.071 14.2324C105.407 13.6404 105.575 12.9364 105.575 12.1204ZM114.329 7.58441C114.761 6.88041 115.321 6.32841 116.009 5.92841C116.713 5.52841 117.513 5.32841 118.409 5.32841V8.85641H117.521C116.465 8.85641 115.665 9.10441 115.121 9.60041C114.593 10.0964 114.329 10.9604 114.329 12.1924V18.8164H110.969V5.52041H114.329V7.58441ZM119.328 12.1204C119.328 10.7764 119.592 9.58441 120.12 8.54441C120.664 7.50441 121.392 6.70441 122.304 6.14441C123.232 5.58441 124.264 5.30441 125.4 5.30441C126.392 5.30441 127.256 5.50441 127.992 5.90441C128.744 6.30441 129.344 6.80841 129.792 7.41641V5.52041H133.176V18.8164H129.792V16.8724C129.36 17.4964 128.76 18.0164 127.992 18.4324C127.24 18.8324 126.368 19.0324 125.376 19.0324C124.256 19.0324 123.232 18.7444 122.304 18.1684C121.392 17.5924 120.664 16.7844 120.12 15.7444C119.592 14.6884 119.328 13.4804 119.328 12.1204ZM129.792 12.1684C129.792 11.3524 129.632 10.6564 129.312 10.0804C128.992 9.48841 128.56 9.04041 128.016 8.73641C127.472 8.41641 126.888 8.25641 126.264 8.25641C125.64 8.25641 125.064 8.40841 124.536 8.71241C124.008 9.01641 123.576 9.46441 123.24 10.0564C122.92 10.6324 122.76 11.3204 122.76 12.1204C122.76 12.9204 122.92 13.6244 123.24 14.2324C123.576 14.8244 124.008 15.2804 124.536 15.6004C125.08 15.9204 125.656 16.0804 126.264 16.0804C126.888 16.0804 127.472 15.9284 128.016 15.6244C128.56 15.3044 128.992 14.8564 129.312 14.2804C129.632 13.6884 129.792 12.9844 129.792 12.1684ZM139.338 7.58441C139.77 6.88041 140.33 6.32841 141.018 5.92841C141.722 5.52841 142.522 5.32841 143.418 5.32841V8.85641H142.53C141.474 8.85641 140.674 9.10441 140.13 9.60041C139.602 10.0964 139.338 10.9604 139.338 12.1924V18.8164H135.978V5.52041H139.338V7.58441ZM157.921 5.52041L149.689 25.1044H146.113L148.993 18.4804L143.665 5.52041H147.433L150.865 14.8084L154.345 5.52041H157.921Z" fill="#295FCC"/>
</svg>
