<svg width="759" height="43" viewBox="0 0 759 43" fill="none" xmlns="http://www.w3.org/2000/svg">
<path d="M36.1406 0V42.375H31.125V0H36.1406ZM0 18.3281C0 9 3.60938 3.21094 9.14062 3.23438C14.2734 3.21094 17.7656 8.01562 18.375 15.9375H22.4531V0.75H27.4219V40.3125H22.4531V20.1562H18.4219C17.9297 28.4297 14.3906 33.4922 9.14062 33.4688C3.60938 33.4922 0 27.6797 0 18.3281ZM4.82812 18.3281C4.80469 24.9609 6.44531 28.5234 9.14062 28.5C11.9531 28.5234 13.6172 24.9609 13.6406 18.3281C13.6172 11.7188 11.9531 8.13281 9.14062 8.15625C6.44531 8.13281 4.80469 11.7188 4.82812 18.3281ZM74.7206 0V42.4219H69.5175V17.625H57.3769V13.4062H69.5175V0H74.7206ZM41.3925 32.3906V4.64062H46.5956V28.0078C52.2909 27.9375 57.9394 27.5156 63.8925 26.3438L64.5019 30.6094C57.6816 32.0156 51.3534 32.3672 44.8613 32.3906H41.3925ZM94.6913 12.0469C94.6913 18.9844 98.7694 26.2969 105.613 29.1562L102.754 33.2812C97.7381 31.1016 94.0819 26.6719 92.1366 21.2812C90.1913 27.0938 86.4647 31.9688 81.5194 34.3125L78.5194 30.2344C85.1991 27.1406 89.3709 19.2422 89.3944 12.0469V8.48438H80.0663V4.17188H103.973V8.48438H94.6913V12.0469ZM108.707 42.375V0H113.957V42.375H108.707ZM143.773 10.1719C143.726 17.9531 147.828 25.7344 154.695 28.6875L151.601 32.8594C146.726 30.6094 143.164 26.1328 141.195 20.6016C139.25 26.5547 135.593 31.4297 130.461 33.8438L127.273 29.4844C134.328 26.4375 138.453 18.3516 138.476 10.1719V3.42188H143.773V10.1719ZM157.742 42.4219V0H162.992V42.4219H157.742ZM189.197 5.8125C189.197 12.3516 195.595 18.9375 204.478 20.4844L202.134 24.8438C195.033 23.3672 189.22 19.0547 186.455 13.3594C183.666 19.0078 177.853 23.3438 170.775 24.8438L168.478 20.4844C177.22 18.8906 183.642 12.3281 183.666 5.8125V2.67188H189.197V5.8125ZM167.306 36.9844V32.6719H206.025V36.9844H167.306ZM224.777 2.625V6.84375H213.667V10.8281H223.183V14.8594H213.667V19.2188C218.73 19.1719 222.246 18.9609 226.371 18.2344L226.933 22.3125C222.035 23.2031 218.003 23.3906 211.464 23.3906H208.652V2.625H224.777ZM214.511 41.8594V27.1406H243.105V41.8594H214.511ZM219.714 37.6406H237.949V31.2656H219.714V37.6406ZM225.011 14.5781V10.3594H229.792V0.703125H234.761V25.0312H229.792V14.5781H225.011ZM238.136 25.3594V0H243.105V25.3594H238.136ZM291.39 0V21.7031H286.187V10.9688H277.749V6.79688H286.187V0H291.39ZM255.671 17.7656C262.492 15.7031 266.031 10.4766 266.031 4.78125V1.40625H271.281V4.78125C271.257 10.0078 274.679 14.9531 281.265 16.9688L278.499 21C273.906 19.4766 270.578 16.4766 268.703 12.6328C266.874 16.9219 263.382 20.2969 258.39 21.9375L255.671 17.7656ZM263.499 27.6094V23.5312H291.39V34.5H268.656V37.7344H292.749V41.8594H263.546V30.6094H286.234V27.6094H263.499ZM332.033 0V42.375H327.064V0H332.033ZM295.048 29.7188C303.814 24.5391 307.845 17.9062 308.642 9.375H297.298V5.15625H313.798C313.798 7.28906 313.658 9.375 313.353 11.3906H318.298V1.03125H323.267V40.3594H318.298V26.2031H311.689V21.9375H318.298V15.6562H312.462C310.447 22.6875 306.04 28.7344 298.095 33.4219L295.048 29.7188ZM347.691 2.625C354.206 2.625 359.175 6.82031 359.222 12.8438C359.175 18.0234 355.519 21.8438 350.362 22.8047V29.0625C353.902 28.875 357.417 28.6172 360.722 28.1719L361.097 32.0625C352.214 33.6562 342.534 33.7031 335.269 33.6094L334.519 29.3438C337.706 29.3438 341.362 29.3203 345.159 29.2266V22.8516C339.839 21.9141 336.159 18.0703 336.206 12.8438C336.159 6.82031 341.034 2.625 347.691 2.625ZM341.269 12.8438C341.245 16.3828 343.987 18.6562 347.691 18.6094C351.323 18.6562 354.042 16.3828 354.066 12.8438C354.042 9.28125 351.323 7.07812 347.691 7.03125C343.987 7.07812 341.245 9.28125 341.269 12.8438ZM363.159 42.375V0H368.362V16.9219H374.503V21.3281H368.362V42.375H363.159ZM399.257 7.5C399.21 13.0547 402.726 18.375 409.382 20.5312L406.663 24.6562C401.976 23.0625 398.624 19.875 396.772 15.7969C394.897 20.2969 391.405 23.8125 386.46 25.5469L383.554 21.4219C390.515 19.1484 394.007 13.4766 394.007 7.45312V2.625H399.257V7.5ZM390.351 41.5312V28.0781H395.694V37.3125H419.179V41.5312H390.351ZM412.288 31.125V0H417.491V12.5156H423.397V16.9219H417.491V31.125H412.288ZM435.399 1.875C440.884 1.85156 445.196 5.01562 446.251 9.65625H453.915V0H459.118V22.7344H453.915V13.875H446.298C445.29 18.6328 440.931 21.8438 435.399 21.8438C428.907 21.8438 424.196 17.6719 424.196 11.8125C424.196 6.02344 428.907 1.85156 435.399 1.875ZM429.165 11.8125C429.165 15.2109 431.743 17.4609 435.399 17.4375C438.962 17.4609 441.517 15.2109 441.54 11.8125C441.517 8.41406 438.962 6.21094 435.399 6.23438C431.743 6.21094 429.165 8.41406 429.165 11.8125ZM431.181 41.8594V24.7031H436.337V29.2031H453.915V24.7031H459.118V41.8594H431.181ZM436.337 37.6406H453.915V33.2344H436.337V37.6406ZM476.932 2.95312C483.659 2.92969 488.557 7.17188 488.604 13.1719C488.557 19.1953 483.659 23.4141 476.932 23.4375C470.276 23.4141 465.284 19.1953 465.307 13.1719C465.284 7.17188 470.276 2.92969 476.932 2.95312ZM463.386 29.2969C471.026 29.2969 481.597 29.2031 490.761 27.8906L491.182 31.6875C481.69 33.4922 471.518 33.5625 464.042 33.5625L463.386 29.2969ZM470.464 13.1719C470.44 16.7109 473.229 18.8906 476.932 18.8906C480.682 18.8906 483.472 16.7109 483.495 13.1719C483.472 9.65625 480.706 7.45312 476.932 7.45312C473.229 7.45312 470.44 9.65625 470.464 13.1719ZM493.292 42.4219V0H498.495V42.4219H493.292ZM548.796 0V42.375H543.78V0H548.796ZM512.655 18.3281C512.655 9 516.264 3.21094 521.796 3.23438C526.928 3.21094 530.421 8.01562 531.03 15.9375H535.108V0.75H540.077V40.3125H535.108V20.1562H531.077C530.585 28.4297 527.046 33.4922 521.796 33.4688C516.264 33.4922 512.655 27.6797 512.655 18.3281ZM517.483 18.3281C517.46 24.9609 519.1 28.5234 521.796 28.5C524.608 28.5234 526.272 24.9609 526.296 18.3281C526.272 11.7188 524.608 8.13281 521.796 8.15625C519.1 8.13281 517.46 11.7188 517.483 18.3281ZM587.376 0V42.4219H582.172V17.625H570.032V13.4062H582.172V0H587.376ZM554.047 32.3906V4.64062H559.251V28.0078C564.946 27.9375 570.594 27.5156 576.547 26.3438L577.157 30.6094C570.337 32.0156 564.008 32.3672 557.516 32.3906H554.047ZM607.346 12.0469C607.346 18.9844 611.424 26.2969 618.268 29.1562L615.409 33.2812C610.393 31.1016 606.737 26.6719 604.792 21.2812C602.846 27.0938 599.12 31.9688 594.174 34.3125L591.174 30.2344C597.854 27.1406 602.026 19.2422 602.049 12.0469V8.48438H592.721V4.17188H616.628V8.48438H607.346V12.0469ZM621.362 42.375V0H626.612V42.375H621.362ZM677.147 5.95312V10.125H642.131V5.95312H657.084V0.703125H662.241V5.95312H677.147ZM640.397 37.5938V33.375H679.116V37.5938H640.397ZM645.366 20.8125C645.342 15.4922 650.85 12.3047 659.662 12.3281C668.358 12.3047 673.936 15.4922 673.912 20.8125C673.936 26.1328 668.358 29.3438 659.662 29.3438C650.85 29.3438 645.342 26.1328 645.366 20.8125ZM650.662 20.8125C650.616 23.625 653.944 25.1719 659.662 25.1719C665.264 25.1719 668.569 23.625 668.569 20.8125C668.569 18.0234 665.264 16.4531 659.662 16.4531C653.944 16.4531 650.616 18.0234 650.662 20.8125ZM718.633 21.5625V25.6875H679.914V21.5625H718.633ZM684.696 4.96875V0.890625H713.852V11.7656H689.992V14.8125H714.696V18.7969H684.836V7.96875H708.649V4.96875H684.696ZM684.977 41.8594V28.7344H713.992V41.8594H684.977ZM690.086 37.6406H708.836V32.8594H690.086V37.6406ZM738.791 0.65625C748.448 0.679688 754.049 3.23438 754.073 7.92188C754.049 12.6562 748.448 15.2109 738.791 15.2344C729.158 15.2109 723.51 12.6562 723.51 7.92188C723.51 3.23438 729.158 0.679688 738.791 0.65625ZM719.526 21.6562V17.4844H758.151V21.6562H719.526ZM724.073 28.3594V24.5156H753.323V34.875H729.229V38.0156H754.494V42H724.119V31.1719H748.213V28.3594H724.073ZM728.994 7.92188C728.971 10.2656 732.346 11.3438 738.791 11.3438C745.33 11.3438 748.682 10.2656 748.682 7.92188C748.682 5.74219 745.33 4.5 738.791 4.5C732.346 4.5 728.971 5.74219 728.994 7.92188Z" fill="white"/>
</svg>
