<svg width="458" height="86" viewBox="0 0 458 86" fill="none" xmlns="http://www.w3.org/2000/svg">
<path d="M56.5199 68.88H23.1599L17.6399 84.84H-0.000117123L30.1199 0.959959H49.6799L79.7999 84.84H62.0399L56.5199 68.88ZM51.9599 55.44L39.8399 20.4L27.7199 55.44H51.9599ZM105.218 1.07996V52.92C105.218 58.6 106.698 62.96 109.658 66C112.618 68.96 116.778 70.44 122.138 70.44C127.578 70.44 131.778 68.96 134.738 66C137.698 62.96 139.178 58.6 139.178 52.92V1.07996H156.098V52.8C156.098 59.92 154.538 65.96 151.418 70.92C148.378 75.8 144.258 79.48 139.058 81.96C133.938 84.44 128.218 85.68 121.898 85.68C115.658 85.68 109.978 84.44 104.858 81.96C99.8183 79.48 95.8183 75.8 92.8583 70.92C89.8983 65.96 88.4183 59.92 88.4183 52.8V1.07996H105.218ZM226.93 1.07996V14.64H204.61V84.84H187.81V14.64H165.49V1.07996H226.93ZM253.588 14.64V35.64H281.788V48.96H253.588V71.16H285.388V84.84H236.788V0.959959H285.388V14.64H253.588ZM294.175 42.84C294.175 34.6 296.015 27.24 299.695 20.76C303.455 14.2 308.535 9.11996 314.935 5.51996C321.415 1.83996 328.655 -3.62396e-05 336.655 -3.62396e-05C346.015 -3.62396e-05 354.215 2.39996 361.255 7.19996C368.295 12 373.215 18.64 376.015 27.12H356.695C354.775 23.12 352.055 20.12 348.535 18.12C345.095 16.12 341.095 15.12 336.535 15.12C331.655 15.12 327.295 16.28 323.455 18.6C319.695 20.84 316.735 24.04 314.575 28.2C312.495 32.36 311.455 37.24 311.455 42.84C311.455 48.36 312.495 53.24 314.575 57.48C316.735 61.64 319.695 64.88 323.455 67.2C327.295 69.44 331.655 70.56 336.535 70.56C341.095 70.56 345.095 69.56 348.535 67.56C352.055 65.48 354.775 62.44 356.695 58.44H376.015C373.215 67 368.295 73.68 361.255 78.48C354.295 83.2 346.095 85.56 336.655 85.56C328.655 85.56 321.415 83.76 314.935 80.16C308.535 76.48 303.455 71.4 299.695 64.92C296.015 58.44 294.175 51.08 294.175 42.84ZM457.445 1.07996V84.84H440.645V49.2H404.765V84.84H387.965V1.07996H404.765V35.52H440.645V1.07996H457.445Z" fill="#182A7E"/>
</svg>
