<svg width="75" height="40" viewBox="0 0 75 40" fill="none" xmlns="http://www.w3.org/2000/svg">
<rect x="0.5" y="0.5" width="74" height="39" rx="19.5" stroke="black"/>
<path d="M16.9531 14.1875H19.8594L23 21.8594H23.125L26.2656 14.1875H29.1719V25.5H26.8906V18.0938H26.7969L23.8438 25.4531H22.2812L19.3281 18.0625H19.2344V25.5H16.9531V14.1875ZM34.875 25.6719C32.2734 25.6641 30.6797 23.9844 30.6875 21.2969C30.6797 18.6797 32.2969 16.9062 34.7812 16.9062C37.0078 16.9062 38.7656 18.3125 38.7656 21.2031V21.8594H32.9688C32.9688 23.1406 33.7266 23.9297 34.9219 23.9375C35.7109 23.9297 36.2734 23.5859 36.5 23.0781H38.7031C38.375 24.6484 36.9688 25.6641 34.875 25.6719ZM32.9688 20.4062H36.5781C36.5703 19.375 35.8594 18.6328 34.8281 18.6406C33.7656 18.6328 33.0156 19.4297 32.9688 20.4062ZM42.5312 20.5938V25.5H40.2188V17.0156H42.4219V18.5H42.5156C42.8984 17.5234 43.8047 16.9062 45.0625 16.9062C46.8359 16.9062 47.9922 18.1172 47.9844 20.0938V25.5H45.6875V20.5C45.6797 19.4531 45.1172 18.8281 44.1562 18.8281C43.1953 18.8281 42.5312 19.4766 42.5312 20.5938ZM55.2188 21.8906V17.0156H57.5312V25.5H55.3125V23.9688H55.2188C54.8359 24.9531 53.9219 25.6094 52.6406 25.6094C50.9453 25.6094 49.7812 24.4062 49.7812 22.4219V17.0156H52.0938V22.0156C52.0938 23.0234 52.6719 23.6484 53.5781 23.6562C54.4219 23.6484 55.2188 23.0469 55.2188 21.8906Z" fill="black"/>
</svg>
