<svg width="101" height="40" viewBox="0 0 101 40" fill="none" xmlns="http://www.w3.org/2000/svg">
<g clip-path="url(#clip0_363_27)">
<path d="M50.1646 40C77.9614 40 100.329 31.0458 100.329 20.0035C100.329 8.96125 77.9544 0 50.1646 0C22.3748 0 0 8.95417 0 19.9965C0 31.0388 22.3677 39.9929 50.1646 39.9929" fill="#000F9F"/>
<path d="M50.167 38.0039C76.803 38.0039 98.2364 30.0336 98.2364 19.9964C98.2364 9.95929 76.803 1.99609 50.167 1.99609C23.531 1.99609 2.09766 9.96636 2.09766 19.9964C2.09766 30.0265 23.531 38.0039 50.167 38.0039Z" fill="white"/>
<path d="M50.1667 36.6022C75.9391 36.6022 97.4787 29.1699 97.4787 20.0034C97.4787 10.8369 75.9321 3.39746 50.1667 3.39746C24.4014 3.39746 2.84766 10.8298 2.84766 19.9963C2.84766 29.1628 24.3943 36.5951 50.1667 36.5951" fill="#000F9F"/>
<path d="M69.1137 21.2774C74.2667 20.6333 75.371 18.8566 75.371 17.6179C75.371 15.9969 73.5306 15.4448 72.3485 15.4448C68.5616 15.4448 66.3531 18.9982 66.3673 22.0631C66.3814 25.3546 71.308 27.6621 74.741 23.2098L74.1393 22.7639C73.5589 23.5991 72.3697 24.4061 71.1098 24.399C68.873 24.3848 68.8872 21.3057 69.1137 21.2845M72.3414 16.2518C73.0139 16.2518 73.2262 16.9101 73.2262 17.1153C73.205 18.8425 72.1645 19.6706 69.1207 20.4563C69.4959 18.8141 70.9045 16.2518 72.3485 16.2518" fill="white"/>
<path d="M50.1293 15.6434C48.7066 15.5159 47.7581 15.9053 46.399 18.503L46.3495 18.4535C46.852 16.5565 46.2787 15.6009 45.4434 15.5938C43.3553 15.5796 41.8476 18.3261 41.6211 18.6941L42.1449 18.9702C42.3785 18.588 43.5606 16.875 44.233 16.8325C44.7993 16.7971 44.318 17.8872 44.0277 18.8923C42.3077 24.4843 41.9892 25.4398 41.9892 25.4398H44.4171C44.4171 25.4398 46.8237 17.1935 48.7561 16.9812C48.7844 16.9812 48.473 18.1137 50.101 18.1208C51.2336 18.1208 51.8565 15.7991 50.1293 15.6434Z" fill="white"/>
<path d="M59.7074 15.6578C58.2847 15.5303 57.3362 15.9267 55.9771 18.5174L55.9276 18.4679C56.4302 16.5709 55.8568 15.6153 55.0216 15.6153C52.9334 15.6011 51.4257 18.3475 51.1992 18.7156L51.723 18.9917C51.9566 18.6094 53.1387 16.8965 53.8182 16.854C54.3845 16.8186 53.9032 17.9087 53.6129 18.9138C51.8929 24.5058 51.5744 25.4613 51.5744 25.4613H54.0023C54.0023 25.4613 56.4089 17.215 58.3413 17.0027C58.3696 17.0027 58.0582 18.1352 59.6862 18.1423C60.8188 18.1494 61.4417 15.8206 59.7145 15.6648" fill="white"/>
<path d="M84.798 15.6578C83.3753 15.5303 82.4268 15.9267 81.0677 18.5174L81.0182 18.4679C81.5207 16.5709 80.9474 15.6153 80.1121 15.6153C78.024 15.6011 76.5234 18.3475 76.2969 18.7156L76.8207 18.9917C77.0543 18.6094 78.2364 16.8965 78.9159 16.854C79.4821 16.8186 79.0008 17.9087 78.7035 18.9138C76.9835 24.5058 76.6649 25.4613 76.6649 25.4613H79.0928C79.0928 25.4613 81.5066 17.215 83.4319 17.0027C83.4602 17.0027 83.1488 18.1352 84.7768 18.1423C85.9093 18.1494 86.5322 15.8206 84.8051 15.6648" fill="white"/>
<path d="M29.7593 14.4472C30.5591 14.1286 31.2599 12.175 28.9948 11.5309C22.9215 9.79665 16.4023 14.9993 16.4023 20.0957C16.4023 24.2578 19.0355 25.8434 22.0155 25.8858C24.1744 25.9141 26.0997 24.4135 27.5437 22.6581L27.027 22.0777C23.3392 26.4733 19.1912 24.9515 19.3116 20.6407C19.4177 16.7193 23.3675 11.5167 27.6287 12.3519C27.7632 12.4086 27.933 12.5218 27.8977 12.7271C27.8835 12.7767 27.8835 12.812 27.8977 12.8404C27.2606 14.3056 28.9665 14.7728 29.7664 14.4472" fill="white"/>
<path d="M37.8238 24.2579C37.7318 24.2579 37.5265 24.2366 37.5265 23.9393C37.5265 23.1749 37.9795 21.8088 38.298 20.8107L39.8624 15.8134H37.753L37.5265 16.5353C37.5265 16.5353 37.0027 15.6222 35.2189 15.6364C32.4513 15.6647 28.8555 19.8764 28.8555 22.9838C28.8555 23.6774 29.082 25.7231 31.3329 25.716C33.0954 25.7089 34.7305 24.2225 35.318 23.2952C35.0845 24.1517 34.9924 25.8151 36.7479 25.7585C38.1352 25.716 39.6571 23.9464 40.4074 22.8564L39.9332 22.5378C39.3669 23.2527 38.2485 24.2579 37.8167 24.2579M35.9622 20.7045C35.0066 22.828 33.4069 24.3924 32.4017 24.2012C31.3966 24.0101 31.3541 22.1344 32.3168 20.0108C33.2795 17.8873 34.8721 16.323 35.8772 16.5141C36.8824 16.7052 36.9248 18.581 35.9622 20.7045Z" fill="white"/>
<path d="M64.2694 12.2598C63.3209 12.2598 62.875 12.9888 62.875 13.4065C62.875 13.8595 63.2785 14.5886 64.2694 14.5886C65.0905 14.5886 65.7276 14.0648 65.7276 13.4419C65.7276 12.819 65.0764 12.2598 64.2694 12.2598Z" fill="white"/>
<path d="M62.8877 24.2011C62.7957 24.2011 62.5905 24.1799 62.5905 23.8897C62.5905 23.1252 63.0435 21.752 63.362 20.761L64.9263 15.7637H62.3993L60.205 23.2809C60.021 23.8967 59.929 25.7725 61.8189 25.7088C63.2063 25.6593 64.7281 23.9038 65.4714 22.7996L64.9971 22.4811C64.4308 23.196 63.3125 24.194 62.8807 24.194" fill="white"/>
</g>
<defs>
<clipPath id="clip0_363_27">
<rect width="100.322" height="40" fill="white"/>
</clipPath>
</defs>
</svg>
