<svg width="464" height="44" viewBox="0 0 464 44" fill="none" xmlns="http://www.w3.org/2000/svg">
<path d="M12.4375 4.375V18.2656H11.2656V4.375H12.4375ZM0.390625 14.5625C2.32812 13.4062 3.46094 10.8672 3.45312 8.34375V7.03125H0.78125V6.01562H7.1875V7.03125H4.64062V8.34375C4.64062 10.7422 5.72656 13.1406 7.64062 14.25L6.89062 15.1562C5.52344 14.3359 4.55469 12.8359 4.07031 11.0703C3.57031 12.9844 2.5625 14.6172 1.17188 15.4844L0.390625 14.5625ZM6.125 10.3906V9.39062H8.46875V4.71875H9.625V17.5469H8.46875V10.3906H6.125ZM26.2469 11.0938V12.1094H20.5125V13.75H24.7V18.0781H15.1375V13.75H19.3094V12.1094H13.5906V11.0938H26.2469ZM14.7781 5.84375V4.82812H25.0437V5.84375H22.9031V8.76562H24.9969V9.78125H14.825V8.76562H16.9187V5.84375H14.7781ZM16.3562 17.0781H23.4969V14.7188H16.3562V17.0781ZM18.1375 8.76562H21.6844V5.84375H18.1375V8.76562ZM31.1656 5.39062C33.3453 5.39844 34.8922 6.72656 34.9 8.65625C34.8922 10.5938 33.3453 11.9141 31.1656 11.9219C28.9703 11.9141 27.4078 10.5938 27.4156 8.65625C27.4078 6.72656 28.9703 5.39844 31.1656 5.39062ZM26.6969 14.1875C29.2594 14.1953 32.7984 14.1719 35.8687 13.7188L35.9625 14.625C32.7828 15.2188 29.3687 15.2344 26.8687 15.2344L26.6969 14.1875ZM28.6187 8.65625C28.6109 9.95312 29.6812 10.8438 31.1656 10.8438C32.6344 10.8438 33.7047 9.95312 33.6969 8.65625C33.7047 7.36719 32.6344 6.46875 31.1656 6.46875C29.6812 6.46875 28.6109 7.36719 28.6187 8.65625ZM36.7906 18.2969V4.375H38.0094V18.2969H36.7906ZM47.5031 6.625C47.5031 8.51562 48.9406 10.25 50.9562 10.9375L50.2844 11.9062C48.7531 11.3438 47.5422 10.1953 46.9328 8.74219C46.3391 10.3906 45.0969 11.6641 43.4719 12.2969L42.8156 11.3125C44.8937 10.5391 46.2922 8.67969 46.3 6.53125V5.09375H47.5031V6.625ZM44.6594 15.7031C44.6672 14.1172 46.4094 13.1875 49.2687 13.1875C52.1203 13.1875 53.8469 14.1172 53.8469 15.7031C53.8469 17.3203 52.1203 18.2344 49.2687 18.2344C46.4094 18.2344 44.6672 17.3203 44.6594 15.7031ZM45.8937 15.7031C45.8781 16.6875 47.175 17.2578 49.2687 17.2656C51.3703 17.2578 52.6516 16.6875 52.6594 15.7031C52.6516 14.7578 51.3703 14.1719 49.2687 14.1719C47.175 14.1719 45.8781 14.7578 45.8937 15.7031ZM52.5031 12.8281V4.375H53.7219V8H55.8156V9.03125H53.7219V12.8281H52.5031ZM60.0156 8.32812C60.0156 10.5391 61.0938 12.9219 62.9375 14.0156L62.2344 14.9688C60.8906 14.1562 59.9297 12.6719 59.4453 10.9766C58.9375 12.8281 57.9062 14.4219 56.5156 15.2656L55.7344 14.3438C57.6562 13.2188 58.8281 10.7578 58.8281 8.375V5.6875H60.0156V8.32812ZM61.4062 10.4062V9.35938H63.7656V4.67188H64.9219V17.5625H63.7656V10.4062H61.4062ZM66.6094 18.2656V4.375H67.7969V18.2656H66.6094ZM84.0094 4.375V18.2656H82.8375V4.375H84.0094ZM71.9625 14.5625C73.9 13.4062 75.0328 10.8672 75.025 8.34375V7.03125H72.3531V6.01562H78.7594V7.03125H76.2125V8.34375C76.2125 10.7422 77.2984 13.1406 79.2125 14.25L78.4625 15.1562C77.0953 14.3359 76.1266 12.8359 75.6422 11.0703C75.1422 12.9844 74.1344 14.6172 72.7438 15.4844L71.9625 14.5625ZM77.6969 10.3906V9.39062H80.0406V4.71875H81.1969V17.5469H80.0406V10.3906H77.6969ZM96.6156 4.39062V14.9375H95.3812V13.5H92.5062V12.6094H95.3812V4.39062H96.6156ZM85.0844 10.8281C87.6703 10.8125 91.1547 10.7891 94.1312 10.4219L94.2094 11.3125C92.975 11.5078 91.6703 11.6328 90.3969 11.7109V14.4531H89.1625V11.7734C87.7562 11.8281 86.4203 11.8281 85.2562 11.8281L85.0844 10.8281ZM86.2094 7.375C86.2016 5.91406 87.5922 4.95312 89.6469 4.95312C91.6859 4.95312 93.0766 5.91406 93.0844 7.375C93.0766 8.85938 91.6859 9.78125 89.6469 9.78125C87.5922 9.78125 86.2016 8.85938 86.2094 7.375ZM87.0844 17.9688V13.9062H88.3187V16.9375H96.9594V17.9688H87.0844ZM87.3812 7.375C87.3656 8.28125 88.2875 8.86719 89.6469 8.875C90.9672 8.86719 91.9047 8.28125 91.9125 7.375C91.9047 6.48438 90.9672 5.875 89.6469 5.89062C88.2875 5.875 87.3656 6.48438 87.3812 7.375ZM110.894 12.625V13.625H105.097V18.2656H103.894V13.625H98.175V12.625H110.894ZM99.8 10.9375V4.95312H101.019V6.875H108.019V4.95312H109.253V10.9375H99.8ZM101.019 9.9375H108.019V7.875H101.019V9.9375ZM122.734 4.375V18.2969H121.516V10.6406H118.578V9.625H121.516V4.375H122.734ZM111.859 14.9375V5.65625H118.344V6.67188H113.094V9.5625H117.734V10.5625H113.094V13.9219C115.641 13.9141 117.281 13.8438 119.188 13.5L119.328 14.5156C117.305 14.8438 115.609 14.9375 112.922 14.9375H111.859ZM134.384 8.625V10.4531H140.119V11.4531H127.463V10.4531H133.181V8.625H134.384ZM128.166 8.42188C130.705 8.14062 133.166 6.8125 133.166 5.01562V4.48438H134.4V5.01562C134.4 6.8125 136.869 8.14062 139.4 8.42188L138.963 9.35938C136.775 9.0625 134.658 8.11719 133.783 6.59375C132.908 8.11719 130.783 9.0625 128.603 9.35938L128.166 8.42188ZM128.994 13.5625V12.6094H138.494V15.7656H130.244V17.1406H138.916V18.1094H129.025V14.8438H137.291V13.5625H128.994ZM151.647 4.9375V8.54688H143.272V10.3438H151.944V11.3594H142.038V7.57812H150.397V5.9375H142.006V4.9375H151.647ZM140.475 13.8125V12.8281H153.194V13.8125H147.413V18.2969H146.194V13.8125H140.475ZM158.269 6.95312C158.269 8.99219 159.667 10.9141 161.675 11.7031L160.988 12.6562C159.464 12.0234 158.269 10.7578 157.683 9.17969C157.089 10.8828 155.839 12.2344 154.222 12.9062L153.55 11.9219C155.62 11.125 157.058 9.13281 157.066 6.95312V5.17188H158.269V6.95312ZM156.05 17.9688V13.6875H157.284V16.9375H165.347V17.9688H156.05ZM160.941 10.3125V9.3125H163.8V7.46875H160.941V6.45312H163.8V4.39062H165.034V14.7656H163.8V10.3125H160.941ZM174.466 8.64062C174.45 10.8672 176.059 13.3203 178.075 14.2812L177.372 15.25C175.809 14.4844 174.489 12.8438 173.864 10.9609C173.223 13 171.833 14.7969 170.278 15.5938L169.528 14.625C171.528 13.6484 173.247 11.0078 173.262 8.64062V6.82812H170.028V5.8125H177.591V6.82812H174.466V8.64062ZM179.294 18.2656V4.375H180.512V10H182.841V11.0469H180.512V18.2656H179.294ZM195.509 15.5156V16.5469H182.791V15.5156H186.369V12.875H184.384V8.59375H192.697V6.42188H184.353V5.40625H193.9V9.60938H185.603V11.8594H194.228V12.875H192.056V15.5156H195.509ZM187.572 15.5156H190.853V12.875H187.572V15.5156ZM206.819 4.375V10.1094H208.928V11.1406H206.819V18.2656H205.584V4.375H206.819ZM195.772 14.4219C197.866 12.2734 198.717 9.6875 198.873 6.92188H196.209V5.89062H200.038C200.022 9.19531 199.28 12.4609 196.756 15.125L195.772 14.4219ZM199.756 15.3594C201.928 12.9062 202.577 9.82031 202.694 6.92188H200.475V5.89062H203.85C203.842 9.1875 203.358 13.0234 200.756 16.0469L199.756 15.3594ZM213.816 8.64062C213.823 11 215.534 13.3984 217.581 14.2812L216.894 15.25C215.269 14.5156 213.87 12.9141 213.222 10.9922C212.573 13.0312 211.167 14.7969 209.581 15.5938L208.847 14.625C210.839 13.6719 212.573 11.0469 212.581 8.64062V6.82812H209.3V5.8125H217.128V6.82812H213.816V8.64062ZM219.066 18.2656V4.375H220.3V18.2656H219.066ZM6.84375 35.1562C9.82031 35.1562 11.7109 36.0938 11.7188 37.7031C11.7109 39.2969 9.82031 40.2344 6.84375 40.2344C3.86719 40.2344 1.97656 39.2969 1.98438 37.7031C1.97656 36.0938 3.86719 35.1562 6.84375 35.1562ZM0.578125 33.8594V32.8594H5.8125V30.1719H7.01562V32.8594H13.2188V33.8594H0.578125ZM2.07812 28.0938V27.0938H11.6094V28.2656C11.6016 29.3906 11.6016 30.5156 11.2188 31.9531L10.0156 31.8125C10.3906 30.3828 10.3906 29.3516 10.3906 28.2656V28.0938H2.07812ZM3.20312 37.7031C3.19531 38.6719 4.63281 39.2656 6.84375 39.2656C9.0625 39.2656 10.4844 38.6719 10.5 37.7031C10.4844 36.7109 9.0625 36.1016 6.84375 36.0938C4.63281 36.1016 3.19531 36.7109 3.20312 37.7031ZM18.5125 28.3906C18.4969 30.4141 19.9656 32.2188 22.0281 32.9375L21.4031 33.9062C19.7937 33.3125 18.5203 32.1172 17.8953 30.5781C17.2859 32.2266 16.0047 33.5234 14.3719 34.1562L13.7312 33.1875C15.8094 32.4141 17.2625 30.4922 17.2625 28.3906V27.0625H18.5125V28.3906ZM15.7156 36.4531V35.4375H25.0594V40.2656H23.8406V36.4531H15.7156ZM23.8406 34.75V26.375H25.0594V34.75H23.8406ZM41.3188 26.375V40.2656H40.0844V26.375H41.3188ZM30.0063 36.6562C33.7641 34.875 35.6859 32.2109 35.9594 28.8906H30.6469V27.8906H37.2094C37.1938 31.8828 35.3344 35.4219 30.6781 37.6562L30.0063 36.6562ZM49.8312 26.9844C49.8234 28.7109 52.3312 30.0391 54.8312 30.3438L54.3937 31.2812C52.2062 30.9844 50.0656 30.0078 49.1906 28.5078C48.3 30.0078 46.1516 30.9844 43.9875 31.2812L43.5656 30.3438C46.0578 30.0391 48.5656 28.7109 48.5656 26.9844V26.4531H49.8312V26.9844ZM42.8625 33.1875V32.1875H55.5187V33.1875H49.7844V34.5781H53.8937V37.7344H45.6437V39.1406H54.3156V40.1094H44.425V36.8125H52.6906V35.5469H44.3937V34.5781H48.5656V33.1875H42.8625ZM70.6219 26.375V34.6562H69.3875V31.0156H66.5906V30H69.3875V26.375H70.6219ZM59.1688 33.5469C61.2313 32.8047 62.7 30.9219 62.7 28.9375V28.4219H59.5594V27.3906H67.0438V28.4219H63.9344V28.9219C63.9344 30.7344 65.325 32.4609 67.3563 33.1562L66.7156 34.1406C65.1609 33.5781 63.95 32.4062 63.3484 30.9766C62.7547 32.6016 61.4656 33.8984 59.8094 34.5312L59.1688 33.5469ZM61.3563 37.6719C61.3484 36.0391 63.1219 35.0859 66.0125 35.0938C68.8953 35.0859 70.6688 36.0391 70.6688 37.6719C70.6688 39.3125 68.8953 40.25 66.0125 40.2656C63.1219 40.25 61.3484 39.3125 61.3563 37.6719ZM62.575 37.6719C62.5672 38.6797 63.8797 39.2891 66.0125 39.2812C68.1375 39.2891 69.45 38.6797 69.45 37.6719C69.45 36.6562 68.1375 36.0469 66.0125 36.0469C63.8797 36.0469 62.5672 36.6562 62.575 37.6719ZM84.8531 37.4688V38.4844H72.1344V37.4688H77.8531V34.4688H73.6344V27.3594H74.8688V29.875H82.0875V27.3594H83.2906V34.4688H79.0563V37.4688H84.8531ZM74.8688 33.4688H82.0875V30.875H74.8688V33.4688ZM97.8656 32.8281V33.7969H85.1469V32.8281H97.8656ZM86.6781 35.8281V34.9062H96.2719V37.8594H87.9281V39.1875H96.725V40.0781H86.6937V37.0156H95.0531V35.8281H86.6781ZM86.7562 27.6875V26.7969H96.225V29.6719H88.0219V30.8906H96.475V31.7812H86.8031V28.8281H94.9906V27.6875H86.7562ZM112.25 26.3906V30.5938H114.328V31.625H112.25V35.7031H111.016V26.3906H112.25ZM101.344 34.2812C102.453 34.2812 103.75 34.2812 105.109 34.2422V33.2188C103.492 33.0703 102.445 32.3281 102.453 31.1719C102.445 29.9062 103.75 29.125 105.703 29.125C107.672 29.125 108.953 29.9062 108.969 31.1719C108.953 32.3203 107.938 33.0625 106.328 33.2188V34.1953C107.625 34.1328 108.938 34.0234 110.156 33.8438L110.266 34.7344C107.25 35.2656 103.93 35.2891 101.484 35.2812L101.344 34.2812ZM101.688 28.5938V27.6562H105.109V26.2656H106.328V27.6562H109.734V28.5938H101.688ZM103.047 37.375V36.3906H112.25V40.2656H111.016V37.375H103.047ZM103.625 31.1719C103.617 31.8984 104.422 32.3906 105.703 32.375C106.984 32.3906 107.797 31.8984 107.797 31.1719C107.797 30.4375 106.984 29.9844 105.703 30C104.422 29.9844 103.617 30.4375 103.625 31.1719ZM125.903 26.3906V36.5469H124.684V26.3906H125.903ZM114.762 30.7656C114.755 28.7656 116.325 27.3672 118.403 27.3594C120.481 27.3672 122.036 28.7656 122.044 30.7656C122.036 32.7891 120.481 34.1953 118.403 34.1875C116.325 34.1953 114.755 32.7891 114.762 30.7656ZM115.966 30.7656C115.95 32.1484 116.997 33.1094 118.403 33.1094C119.786 33.1094 120.841 32.1484 120.841 30.7656C120.841 29.4062 119.786 28.4375 118.403 28.4375C116.997 28.4375 115.95 29.4062 115.966 30.7656ZM116.934 39.9688V35.5156H118.153V38.9375H126.341V39.9688H116.934ZM138.213 26.375V32.1094H140.541V33.125H138.213V40.2656H136.994V26.375H138.213ZM127.384 29.625V28.6094H130.963V26.5469H132.181V28.6094H135.65V29.625H127.384ZM128.181 33.9688C128.173 32.0938 129.611 30.7812 131.588 30.7812C133.548 30.7812 134.978 32.0938 134.994 33.9688C134.978 35.8516 133.548 37.1562 131.588 37.1562C129.611 37.1562 128.173 35.8516 128.181 33.9688ZM129.353 33.9688C129.345 35.2344 130.291 36.125 131.588 36.1094C132.869 36.125 133.806 35.2344 133.822 33.9688C133.806 32.7109 132.869 31.8047 131.588 31.8125C130.291 31.8047 129.345 32.7109 129.353 33.9688ZM144.616 30.3281C144.616 32.5391 145.694 34.9219 147.538 36.0156L146.834 36.9688C145.491 36.1562 144.53 34.6719 144.045 32.9766C143.538 34.8281 142.506 36.4219 141.116 37.2656L140.334 36.3438C142.256 35.2188 143.428 32.7578 143.428 30.375V27.6875H144.616V30.3281ZM146.006 32.4062V31.3594H148.366V26.6719H149.522V39.5625H148.366V32.4062H146.006ZM151.209 40.2656V26.375H152.397V40.2656H151.209ZM166.238 37.4531V38.4844H153.519V37.4531H156.675V33.7109C155.488 33.0938 154.769 32.0938 154.769 30.8281C154.769 28.6797 156.878 27.2656 159.847 27.25C162.816 27.2656 164.925 28.6797 164.925 30.8281C164.925 32.0703 164.23 33.0547 163.081 33.6719V37.4531H166.238ZM155.956 30.8281C155.948 32.3828 157.566 33.4219 159.847 33.4219C162.105 33.4219 163.738 32.3828 163.738 30.8281C163.738 29.2734 162.105 28.25 159.847 28.2656C157.566 28.25 155.948 29.2734 155.956 30.8281ZM157.878 37.4531H161.847V34.1484C161.245 34.3047 160.573 34.3906 159.847 34.3906C159.136 34.3906 158.472 34.3125 157.878 34.1562V37.4531ZM168.016 39.0938C167.469 39.0859 167 38.6328 167.016 38.0781C167 37.5312 167.469 37.0781 168.016 37.0781C168.57 37.0781 169.023 37.5312 169.016 38.0781C169.023 38.6328 168.57 39.0859 168.016 39.0938Z" fill="black"/>
<path d="M436 26H456M456 26L446.909 17M456 26L446.909 35" stroke="black" stroke-width="2" stroke-linejoin="round"/>
</svg>
