<svg width="757" height="43" viewBox="0 0 757 43" fill="none" xmlns="http://www.w3.org/2000/svg">
<path d="M16.1719 12.0469C16.1719 18.9844 20.25 26.2969 27.0938 29.1562L24.2344 33.2812C19.2188 31.1016 15.5625 26.6719 13.6172 21.2812C11.6719 27.0938 7.94531 31.9688 3 34.3125L0 30.2344C6.67969 27.1406 10.8516 19.2422 10.875 12.0469V8.48438H1.54688V4.17188H25.4531V8.48438H16.1719V12.0469ZM30.1875 42.375V0H35.4375V42.375H30.1875ZM73.6425 2.57812V6.375C73.6191 10.3359 73.6191 14.6719 72.5175 20.6719H78.3769V24.8906H61.5488V42.4219H56.2988V24.8906H39.7519V20.6719H67.2206C68.3925 14.9062 68.4394 10.5703 68.4394 6.79688H44.2988V2.57812H73.6425ZM112.504 0V16.5469H118.785V20.9062H112.504V42.2812H107.301V0H112.504ZM79.0819 30.7031C89.3944 25.5469 94.9725 18.375 96.0038 8.71875H81.3788V4.40625H101.301C101.277 16.8516 96.1209 27.7969 82.035 34.7344L79.0819 30.7031ZM162.289 27.6094V41.8594H132.898V27.6094H144.992V23.25H128.351V19.0312H166.976V23.25H150.242V27.6094H162.289ZM130.32 12.5625C139.179 11.4375 144.968 6.79688 144.992 2.0625V0.421875H150.336V2.0625C150.336 6.67969 156.148 11.4844 164.914 12.5625L163.086 16.5938C155.984 15.6328 150.383 12.4922 147.664 8.17969C144.922 12.5156 139.297 15.6328 132.242 16.5938L130.32 12.5625ZM138.054 37.6406H157.226V31.7344H138.054V37.6406ZM184.556 4.125C184.533 8.71875 188.002 12.7734 194.822 14.2969L192.431 18.4219C187.369 17.1562 183.806 14.5078 181.908 10.9688C179.986 14.9062 176.33 17.9062 171.15 19.2656L168.666 15.1875C175.556 13.5 179.142 9.02344 179.119 4.125V1.78125H184.556V4.125ZM167.962 22.3125C175.697 22.3359 186.314 22.2188 195.431 20.9531L195.806 24.6562C192.15 25.3594 188.353 25.8281 184.65 26.1094V41.0625H179.4V26.4141C175.509 26.5781 171.83 26.5781 168.619 26.5781L167.962 22.3125ZM198.197 42.3281V0.046875H203.353V42.3281H198.197ZM241.792 12V16.125H212.449V1.54688H217.605V12H241.792ZM207.433 25.1719V21.0469H246.152V25.1719H207.433ZM212.074 41.3906V28.9219H217.277V37.1719H242.074V41.3906H212.074ZM292.89 0V42.375H287.874V20.9531H283.187V40.2188H278.312V0.796875H283.187V16.6875H287.874V0H292.89ZM258.343 31.8281V4.875H263.593V27.2344C267.249 27.1641 271.234 26.8359 275.687 25.9688L276.203 30.5156C270.484 31.5234 265.632 31.8281 261.156 31.8281H258.343ZM308.079 1.35938C314.501 1.38281 319.283 5.34375 319.329 10.9219C319.283 16.5234 314.501 20.4609 308.079 20.4844C301.611 20.4609 296.829 16.5234 296.829 10.9219C296.829 5.34375 301.611 1.38281 308.079 1.35938ZM301.892 10.9219C301.892 14.2031 304.517 16.2656 308.079 16.2656C311.642 16.2656 314.243 14.2031 314.267 10.9219C314.243 7.71094 311.642 5.64844 308.079 5.67188C304.517 5.64844 301.892 7.71094 301.892 10.9219ZM303.251 27.3281V23.25H331.376V34.3125H308.454V37.7344H332.642V41.8594H303.345V30.4688H326.173V27.3281H303.251ZM326.126 21.4219V0H331.376V21.4219H326.126ZM354.909 0.65625C364.566 0.679688 370.167 3.23438 370.191 7.92188C370.167 12.6562 364.566 15.2109 354.909 15.2344C345.277 15.2109 339.628 12.6562 339.628 7.92188C339.628 3.23438 345.277 0.679688 354.909 0.65625ZM335.644 21.6562V17.4844H374.269V21.6562H335.644ZM340.191 28.3594V24.5156H369.441V34.875H345.347V38.0156H370.612V42H340.237V31.1719H364.331V28.3594H340.191ZM345.112 7.92188C345.089 10.2656 348.464 11.3438 354.909 11.3438C361.448 11.3438 364.8 10.2656 364.8 7.92188C364.8 5.74219 361.448 4.5 354.909 4.5C348.464 4.5 345.089 5.74219 345.112 7.92188ZM406.194 3.65625V23.6719H386.132V3.65625H406.194ZM390.96 41.5312V27.9375H396.163V37.3125H419.788V41.5312H390.96ZM391.241 19.5469H401.085V7.82812H391.241V19.5469ZM412.897 30.9375V0H418.101V12.4219H424.007V16.7812H418.101V30.9375H412.897ZM458.649 19.875V24.0469H428.931V3.70312H458.321V7.92188H434.087V19.875H458.649ZM424.243 36.9844V32.6719H462.962V36.9844H424.243ZM498.12 12V16.125H468.776V1.54688H473.932V12H498.12ZM463.761 25.1719V21.0469H502.479V25.1719H463.761ZM468.401 41.3906V28.9219H473.604V37.1719H498.401V41.3906H468.401ZM529.53 22.6875V29.5547C533.21 29.3438 536.913 29.0156 540.405 28.5L540.827 32.3438C531.335 34.1016 521.163 34.1953 513.686 34.1719L513.03 29.9531C516.335 29.9297 520.225 29.9062 524.327 29.7891V22.6875H529.53ZM514.014 20.1094C520.389 18.3516 523.905 14.1562 524.21 9.42188H515.28V5.20312H524.327V0.375H529.53V5.20312H538.671V9.42188H529.6C529.882 13.9453 533.468 18 539.843 19.6406L537.452 23.7188C532.436 22.3594 528.85 19.4297 526.928 15.6797C525.077 19.6172 521.538 22.6875 516.499 24.0469L514.014 20.1094ZM542.936 42.4219V0H548.139V42.4219H542.936ZM567.969 7.26562C567.969 12.4453 571.391 17.625 577.954 19.8281L575.329 23.8594C570.594 22.3125 567.243 19.1016 565.391 15.1172C563.54 19.5469 560.024 23.1094 554.985 24.7969L552.313 20.6719C559.063 18.4453 562.672 12.8203 562.672 7.3125V6.75H553.86V2.57812H576.735V6.75H567.969V7.26562ZM559.016 31.4531V27.2812H587.891V42.375H582.688V31.4531H559.016ZM575.469 14.7656V10.5H582.688V0H587.891V25.2656H582.688V14.7656H575.469ZM625.487 0V17.4844H631.44V21.8438H625.487V42.375H620.237V0H625.487ZM591.456 30.6094C594.667 30.6094 598.393 30.6094 602.284 30.5156V26.5547C597.667 25.7578 594.667 22.875 594.69 18.8906C594.667 14.1094 598.862 10.9453 604.956 10.9219C610.979 10.9453 615.221 14.1094 615.268 18.8906C615.221 22.8984 612.151 25.7812 607.534 26.5547V30.3281C611.096 30.1406 614.659 29.8594 617.987 29.3906L618.315 33.1875C609.221 34.8516 599.424 34.9219 592.206 34.9219L591.456 30.6094ZM592.253 9V4.875H602.284V0.1875H607.534V4.875H617.518V9H592.253ZM599.612 18.8906C599.588 21.3281 601.745 22.7578 604.956 22.7344C608.12 22.7578 610.253 21.3281 610.253 18.8906C610.253 16.4297 608.12 14.9297 604.956 14.9062C601.745 14.9297 599.588 16.4297 599.612 18.8906ZM662.85 12.7969V17.7188H679.631V21.8906H641.006V17.7188H657.694V12.7969H662.85ZM642.975 11.25C652.022 10.3594 657.6 6.32812 657.6 1.5V0.375H662.897V1.5C662.897 6.32812 668.452 10.3594 677.522 11.25L675.694 15.2344C668.592 14.3438 662.967 11.6719 660.225 7.54688C657.506 11.6719 651.905 14.3438 644.803 15.2344L642.975 11.25ZM645.553 28.4531V24.4688H674.803V34.9688H650.709V38.0156H675.975V42H645.6V31.2656H669.694V28.4531H645.553ZM714.742 1.45312V13.5H690.414V17.7188H715.68V21.8906H685.164V9.5625H709.399V5.67188H685.071V1.45312H714.742ZM680.524 29.6719V25.5H719.242V29.6719H702.414V42.4219H697.211V29.6719H680.524ZM735.557 7.5C735.533 13.4766 738.885 19.2891 745.401 21.75L742.494 25.7812C737.971 24 734.737 20.4609 732.979 16.0781C731.151 20.7891 727.729 24.5156 722.854 26.3906L720.041 22.2656C726.791 19.8281 730.283 13.8516 730.307 7.5V2.4375H735.557V7.5ZM727.682 41.5312V28.4062H732.979V37.3125H756.557V41.5312H727.682ZM742.682 18.375V14.2031H750.416V10.0312H742.682V5.8125H750.416V0.046875H755.619V31.5H750.416V18.375H742.682Z" fill="white"/>
</svg>
