<svg width="507" height="87" viewBox="0 0 507 87" fill="none" xmlns="http://www.w3.org/2000/svg">
<path d="M15.8203 2.26562C23.2031 2.30469 28.5156 5.89844 28.5156 11.3672C28.5156 16.543 23.9062 19.9609 17.3047 20.4102V27.6953H31.7969V30.2734H0V27.6953H14.2969V20.4102C7.73438 19.9414 3.125 16.5234 3.125 11.3672C3.125 5.89844 8.45703 2.30469 15.8203 2.26562ZM6.09375 11.3672C6.07422 15.3711 10.1953 17.9688 15.8203 18.0078C21.4453 17.9688 25.5469 15.3711 25.5469 11.3672C25.5469 7.44141 21.4453 4.78516 15.8203 4.80469C10.1953 4.78516 6.07422 7.44141 6.09375 11.3672ZM48.6531 2.5V5H38.3406V9.53125H47.2078V11.9922H38.3406V16.875C43.3797 16.875 46.4852 16.6797 50.2156 15.9375L50.5281 18.4766C46.5047 19.2383 43.2234 19.375 37.5984 19.375H35.4109V2.5H48.6531ZM39.7078 25.6641V23.125H63.2625V34.7266H60.2547V25.6641H39.7078ZM48.8484 11.7188V9.14062H53.5359V0.78125H56.5047V21.25H53.5359V11.7188H48.8484ZM60.3328 21.4844V0.0390625H63.2625V21.4844H60.3328ZM97.2672 0V34.7266H94.2984V16.6406H89.4547V33.0078H86.5641V0.859375H89.4547V14.1016H94.2984V0H97.2672ZM67.775 25.3516C73.2242 22.4023 76.4469 18.7109 78.1852 14.5508L68.2438 15.5859L67.775 12.8906L79.025 12.1484C79.5133 10.4102 79.7867 8.61328 79.9039 6.75781H69.4938V4.21875H82.9703C82.9313 13.1836 80.1969 21.7578 69.6109 27.5391L67.775 25.3516ZM129.983 0V34.8047H126.936V0H129.983ZM103.264 5.78125V3.24219H119.436V15.5859H106.467V23.7891C112.229 23.8086 117.366 23.5352 123.577 22.5391L123.889 25.1172C117.502 26.1133 112.229 26.3672 106.233 26.3672H103.342V13.0859H116.35V5.78125H103.264ZM144.417 2.69531C149.144 2.71484 152.562 6.77734 153.03 13.2812H160.823V0H163.87V34.8047H160.823V15.8203H153.07C152.738 22.6367 149.261 26.8945 144.417 26.875C139.28 26.8945 135.687 22.207 135.706 14.8047C135.687 7.42188 139.28 2.71484 144.417 2.69531ZM138.636 14.8047C138.655 20.4492 140.999 24.1602 144.417 24.1406C147.816 24.1602 150.198 20.4492 150.198 14.8047C150.198 9.16016 147.816 5.44922 144.417 5.42969C140.999 5.44922 138.655 9.16016 138.636 14.8047ZM180.219 2.53906C185.668 2.55859 189.535 5.87891 189.555 10.7031C189.535 15.5469 185.668 18.8477 180.219 18.8672C174.73 18.8477 170.824 15.5469 170.844 10.7031C170.824 5.87891 174.73 2.55859 180.219 2.53906ZM169.047 24.5312C175.453 24.5508 184.301 24.4922 191.977 23.3594L192.211 25.625C184.262 27.1094 175.727 27.1484 169.477 27.1484L169.047 24.5312ZM173.852 10.7031C173.832 13.9453 176.508 16.1719 180.219 16.1719C183.891 16.1719 186.566 13.9453 186.547 10.7031C186.566 7.48047 183.891 5.23438 180.219 5.23438C176.508 5.23438 173.832 7.48047 173.852 10.7031ZM194.281 34.8047V0H197.328V34.8047H194.281ZM225.025 18.3203V24.7266C228.384 24.5508 231.783 24.2773 234.986 23.7891L235.22 26.0547C227.271 27.5 218.736 27.5586 212.486 27.5391L212.056 25C214.966 24.9805 218.404 24.9609 222.017 24.8438V18.3203H225.025ZM213.111 17.1094C218.248 15.5859 221.861 11.7773 221.939 7.10938H213.97V4.57031H222.017V0.273438H225.025V4.57031H233.189V7.10938H225.025C225.123 11.582 228.834 15.2539 233.97 16.7188L232.525 19.1406C228.365 17.8906 225.084 15.2148 223.521 11.6992C222.017 15.4102 218.775 18.1836 214.595 19.4531L213.111 17.1094ZM237.291 34.8047V0H240.337V34.8047H237.291ZM274.303 0.0390625V25.5078H271.256V0.0390625H274.303ZM245.983 18.0859C251.237 16.0352 254.811 10.957 254.811 5.46875V1.99219H257.936V5.46875C257.897 10.7617 261.51 15.5078 266.686 17.3828L265.084 19.8438C261.061 18.3008 257.936 15.1758 256.393 11.1719C254.889 15.4297 251.725 18.8477 247.663 20.4688L245.983 18.0859ZM251.881 33.9844V23.1641H254.928V31.4062H275.397V33.9844H251.881ZM320.438 27.6562V30.1953H288.641V27.6562H302.859V19.1406H305.867V27.6562H320.438ZM289.891 16.9922C295.965 15.957 302.723 10.8789 302.742 5.03906V2.38281H305.945V5.03906C305.965 10.8398 312.82 15.957 318.875 16.9922L317.508 19.5312C312.215 18.4375 306.629 14.8633 304.383 9.86328C302.098 14.8438 296.57 18.4375 291.258 19.5312L289.891 16.9922ZM334.716 5.03906C334.677 10.0977 338.348 14.6094 343.505 16.4062L341.942 18.8281C337.919 17.3438 334.735 14.3555 333.173 10.5078C331.649 14.6289 328.446 17.8711 324.364 19.4531L322.763 17.0312C327.958 15.0977 331.591 10.293 331.591 5.03906V1.71875H334.716V5.03906ZM327.723 25.1953V22.6562H351.083V34.7266H348.036V25.1953H327.723ZM348.036 20.9375V0H351.083V20.9375H348.036ZM375.439 3.86719V5.66406C375.42 8.41797 375.42 13.0078 374.423 19.4531L371.337 19.1797C372.295 13.3594 372.373 9.14062 372.353 6.36719H357.783V3.86719H375.439ZM355.83 24.5312C358.115 24.5117 360.654 24.4922 363.33 24.4336V13.7891H366.337V24.3359C370.185 24.1992 374.13 23.9453 377.744 23.5156L377.9 25.8203C370.595 26.9531 362.431 27.1094 356.22 27.0703L355.83 24.5312ZM379.931 34.7266V0H382.978V14.5312H388.603V17.1875H382.978V34.7266H379.931ZM26.875 52V65.75H32.6953V68.3281H26.875V86.8047H23.8281V52H26.875ZM1.52344 78.0938V55.3984H17.7344V57.9375H4.57031V75.5156C10.8594 75.4961 15.293 75.2227 20.4688 74.2656L20.8594 76.9219C15.4102 77.8984 10.8594 78.0938 4.25781 78.0938H1.52344ZM66.075 57.2734V59.8125H60.9188V64.6562H66.075V67.2344H60.9188V72.625H57.8719V52H60.9188V57.2734H66.075ZM34.4344 62.2734C34.4148 57.4297 38.282 54.0898 43.5359 54.1094C48.8289 54.0898 52.6375 57.4297 52.6766 62.2734C52.6375 67.0977 48.8289 70.418 43.5359 70.4375C38.282 70.418 34.4148 67.0977 34.4344 62.2734ZM37.4422 62.2734C37.4227 65.5547 40.0203 67.8203 43.5359 67.8594C47.0906 67.8203 49.6492 65.5547 49.6688 62.2734C49.6492 59.0117 47.0906 56.6875 43.5359 56.7266C40.0203 56.6875 37.4227 59.0117 37.4422 62.2734ZM38.2625 80.2031C38.282 76.082 42.6961 73.6992 49.7859 73.6797C56.8758 73.6992 61.2313 76.082 61.2313 80.2031C61.2313 84.2461 56.8758 86.6484 49.7859 86.6484C42.6961 86.6484 38.282 84.2461 38.2625 80.2031ZM41.3484 80.2031C41.3094 82.7031 44.5516 84.168 49.7859 84.1875C55.0398 84.168 58.243 82.7031 58.2625 80.2031C58.243 77.6836 55.0398 76.1797 49.7859 76.1797C44.5516 76.1797 41.3094 77.6836 41.3484 80.2031ZM94.6891 52.0391V63.4844H99.9234V66.0625H94.6891V78.0547H91.6422V52.0391H94.6891ZM67.6188 58.7969V56.2969H76.4469V52.0391H79.4938V56.2969H88.3219V58.7969H67.6188ZM69.6109 67.1953C69.5914 63.25 72.9508 60.7109 77.9703 60.7109C82.9313 60.7109 86.2906 63.25 86.3297 67.1953C86.2906 71.1016 82.9313 73.6211 77.9703 73.6016C72.9508 73.6211 69.5914 71.1016 69.6109 67.1953ZM72.5406 67.1953C72.5211 69.6367 74.6891 71.2188 77.9703 71.1797C81.2125 71.2188 83.4 69.6367 83.4391 67.1953C83.4 64.7148 81.2125 63.1133 77.9703 63.1328C74.6891 63.1133 72.5211 64.7148 72.5406 67.1953ZM72.9703 85.9844V75.9844H75.9781V83.4062H96.2906V85.9844H72.9703ZM128.636 55.4375V78.0156H112.581V55.4375H128.636ZM115.589 75.5156H125.628V57.8984H115.589V75.5156ZM136.097 86.8047V52H139.183V86.8047H136.097ZM172.953 52V86.8047H169.867V52H172.953ZM146.586 78.1719V55.3203H163.109V57.8984H149.672V75.5156C156.43 75.5156 160.863 75.3203 166.078 74.3828L166.391 76.9609C161 77.918 156.43 78.1523 149.398 78.1719H146.586ZM187.427 54.6953C192.153 54.7148 195.571 58.7773 196.04 65.2812H203.833V52H206.88V86.8047H203.833V67.8203H196.079C195.747 74.6367 192.27 78.8945 187.427 78.875C182.29 78.8945 178.696 74.207 178.716 66.8047C178.696 59.4219 182.29 54.7148 187.427 54.6953ZM181.645 66.8047C181.665 72.4492 184.009 76.1602 187.427 76.1406C190.825 76.1602 193.208 72.4492 193.208 66.8047C193.208 61.1602 190.825 57.4492 187.427 57.4297C184.009 57.4492 181.665 61.1602 181.645 66.8047ZM232.858 62.6641C232.819 68.2305 236.842 74.3633 241.881 76.7656L240.123 79.1875C236.217 77.2734 232.916 73.1719 231.354 68.4648C229.752 73.5625 226.276 78.0547 222.389 80.0469L220.514 77.625C225.514 75.1836 229.811 68.582 229.85 62.6641V58.1328H221.764V55.5938H240.67V58.1328H232.858V62.6641ZM244.928 86.7266V52H247.975V66.0625H253.795V68.6797H247.975V86.7266H244.928ZM286.667 79.8516V82.4297H254.87V79.8516H263.816V73.25H258.855V62.5469H279.636V57.1172H258.777V54.5781H282.644V65.0859H261.902V70.7109H283.464V73.25H278.034V79.8516H286.667ZM266.823 79.8516H275.027V73.25H266.823V79.8516ZM320.398 68.1328V70.5547H288.602V68.1328H320.398ZM292.43 75.6328V73.3281H316.414V80.7109H295.555V84.0312H317.547V86.2578H292.469V78.6016H313.367V75.6328H292.43ZM292.625 55.2812V53.0547H316.297V60.2422H295.789V63.2891H316.922V65.5156H292.742V58.1328H313.211V55.2812H292.625ZM358.759 52.0391V62.5469H363.955V65.125H358.759V75.3203H355.673V52.0391H358.759ZM331.494 71.7656C334.267 71.7656 337.509 71.7656 340.908 71.668V69.1094C336.865 68.7383 334.248 66.8828 334.267 63.9922C334.248 60.8281 337.509 58.875 342.392 58.875C347.314 58.875 350.517 60.8281 350.556 63.9922C350.517 66.8633 347.978 68.7188 343.955 69.1094V71.5508C347.197 71.3945 350.478 71.1211 353.525 70.6719L353.798 72.8984C346.259 74.2266 337.959 74.2852 331.845 74.2656L331.494 71.7656ZM332.353 57.5469V55.2031H340.908V51.7266H343.955V55.2031H352.47V57.5469H332.353ZM335.752 79.5V77.0391H358.759V86.7266H355.673V79.5H335.752ZM337.197 63.9922C337.177 65.8086 339.189 67.0391 342.392 67C345.595 67.0391 347.627 65.8086 347.627 63.9922C347.627 62.1562 345.595 61.0234 342.392 61.0625C339.189 61.0234 337.177 62.1562 337.197 63.9922ZM394.092 52.0391V77.4297H391.045V52.0391H394.092ZM366.241 62.9766C366.221 57.9766 370.147 54.4805 375.342 54.4609C380.538 54.4805 384.424 57.9766 384.444 62.9766C384.424 68.0352 380.538 71.5508 375.342 71.5312C370.147 71.5508 366.221 68.0352 366.241 62.9766ZM369.248 62.9766C369.209 66.4336 371.827 68.8359 375.342 68.8359C378.799 68.8359 381.436 66.4336 381.436 62.9766C381.436 59.5781 378.799 57.1562 375.342 57.1562C371.827 57.1562 369.209 59.5781 369.248 62.9766ZM371.67 85.9844V74.8516H374.717V83.4062H395.186V85.9844H371.67ZM426.066 52V66.3359H431.886V68.875H426.066V86.7266H423.019V52H426.066ZM398.995 60.125V57.5859H407.941V52.4297H410.987V57.5859H419.659V60.125H398.995ZM400.987 70.9844C400.968 66.2969 404.562 63.0156 409.503 63.0156C414.405 63.0156 417.98 66.2969 418.019 70.9844C417.98 75.6914 414.405 78.9531 409.503 78.9531C404.562 78.9531 400.968 75.6914 400.987 70.9844ZM403.917 70.9844C403.898 74.1484 406.261 76.375 409.503 76.3359C412.706 76.375 415.05 74.1484 415.089 70.9844C415.05 67.8398 412.706 65.5742 409.503 65.5938C406.261 65.5742 403.898 67.8398 403.917 70.9844ZM443.273 61.8828C443.273 67.4102 445.969 73.3672 450.578 76.1016L448.82 78.4844C445.461 76.4531 443.059 72.7422 441.848 68.5039C440.578 73.1328 438 77.1172 434.523 79.2266L432.57 76.9219C437.375 74.1094 440.305 67.957 440.305 62V55.2812H443.273V61.8828ZM446.75 67.0781V64.4609H452.648V52.7422H455.539V84.9688H452.648V67.0781H446.75ZM459.758 86.7266V52H462.727V86.7266H459.758ZM498.528 79.6953V82.2734H466.731V79.6953H474.622V70.3398C471.653 68.7969 469.856 66.2969 469.856 63.1328C469.856 57.7617 475.13 54.2266 482.552 54.1875C489.973 54.2266 495.247 57.7617 495.247 63.1328C495.247 66.2383 493.509 68.6992 490.638 70.2422V79.6953H498.528ZM472.825 63.1328C472.805 67.0195 476.848 69.6172 482.552 69.6172C488.196 69.6172 492.278 67.0195 492.278 63.1328C492.278 59.2461 488.196 56.6875 482.552 56.7266C476.848 56.6875 472.805 59.2461 472.825 63.1328ZM477.63 79.6953H487.552V71.4336C486.048 71.8242 484.368 72.0391 482.552 72.0391C480.774 72.0391 479.114 71.8438 477.63 71.4531V79.6953ZM504.173 83.7969C502.806 83.7773 501.634 82.6445 501.673 81.2578C501.634 79.8906 502.806 78.7578 504.173 78.7578C505.56 78.7578 506.693 79.8906 506.673 81.2578C506.693 82.6445 505.56 83.7773 504.173 83.7969Z" fill="black"/>
</svg>
