<svg width="392" height="49" viewBox="0 0 392 49" fill="none" xmlns="http://www.w3.org/2000/svg">
<path d="M17.3906 14.9297C17.418 23.1875 23.4062 31.582 30.5703 34.6719L28.1641 38.0625C22.4766 35.4922 17.582 29.8867 15.3125 23.1602C13.043 30.2969 8.12109 36.4766 2.57031 39.2656L0 35.875C6.97266 32.5391 13.043 23.3516 13.0703 14.9297V8.58594H1.58594V5.03125H28.9844V8.58594H17.3906V14.9297ZM35.7656 48.6172V0H40.0859V48.6172H35.7656ZM90.6194 24.4453V28H46.1584V24.4453H66.1741V16.9531H70.385V24.4453H90.6194ZM48.8381 16.1328C57.4241 14.957 66.1194 9.54297 66.1194 3.0625V0.765625H70.4397V3.0625C70.4397 9.54297 79.1897 14.957 87.7756 16.1328L86.0256 19.5781C78.6702 18.293 71.342 14.3828 68.3069 8.77734C65.2444 14.4375 57.9436 18.293 50.4787 19.5781L48.8381 16.1328ZM51.0803 36.2031V32.7578H84.9866V48.6172H80.6662V36.2031H51.0803ZM141.757 0V19.7969H149.632V23.4062H141.757V48.6172H137.491V0H141.757ZM104.46 35.9844C117.01 29.75 123.846 20.3711 124.831 8.85938H106.702V5.25H129.178C129.151 19.0039 122.698 31.5547 106.866 39.375L104.46 35.9844ZM189.556 13.6172V17.1719H156.36V0.984375H160.626V13.6172H189.556ZM150.29 26.4141V22.8594H194.642V26.4141H150.29ZM155.649 39.5938C155.622 33.9336 161.938 30.7617 172.438 30.7891C182.856 30.7617 189.118 33.9336 189.173 39.5938C189.118 45.2266 182.856 48.3984 172.438 48.3984C161.938 48.3984 155.622 45.2266 155.649 39.5938ZM160.024 39.5938C159.97 42.9844 164.645 45.0352 172.438 45.0625C180.149 45.0352 184.825 42.9844 184.852 39.5938C184.825 36.1484 180.149 34.207 172.438 34.1797C164.645 34.207 159.97 36.1484 160.024 39.5938ZM234.456 0.0546875V16.0781H241.784V19.6875H234.456V36.4766H230.191V0.0546875H234.456ZM196.558 9.51562V6.01562H208.917V0.0546875H213.183V6.01562H225.542V9.51562H196.558ZM199.347 21.2734C199.32 15.75 204.023 12.1953 211.05 12.1953C217.995 12.1953 222.698 15.75 222.753 21.2734C222.698 26.7422 217.995 30.2695 211.05 30.2422C204.023 30.2695 199.32 26.7422 199.347 21.2734ZM203.448 21.2734C203.421 24.6914 206.456 26.9062 211.05 26.8516C215.589 26.9062 218.652 24.6914 218.706 21.2734C218.652 17.8008 215.589 15.5586 211.05 15.5859C206.456 15.5586 203.421 17.8008 203.448 21.2734ZM204.05 47.5781V33.5781H208.261V43.9688H236.698V47.5781H204.05ZM295.929 0V48.6172H291.718V23.4609H284.718V46.1016H280.672V1.09375H284.718V19.7969H291.718V0H295.929ZM256.883 36.0391V5.96094H261.148V32.2109C265.961 32.1836 271.156 31.8281 277.062 30.625L277.609 34.4531C270.828 35.6836 265.25 36.0391 259.89 36.0391H256.883ZM314.361 1.80469C321.635 1.83203 326.912 6.26172 326.939 12.5781C326.912 18.9219 321.635 23.2969 314.361 23.2969C307.006 23.2969 301.701 18.9219 301.728 12.5781C301.701 6.26172 307.006 1.83203 314.361 1.80469ZM305.939 12.5781C305.885 16.8438 309.467 19.7969 314.361 19.7969C319.174 19.7969 322.783 16.8438 322.783 12.5781C322.783 8.36719 319.174 5.38672 314.361 5.41406C309.467 5.38672 305.885 8.36719 305.939 12.5781ZM309.111 30.7891V27.3438H340.721V39.0469H313.432V44.5156H342.471V47.9609H309.221V35.8203H336.455V30.7891H309.111ZM336.455 24.9922V0H340.721V24.9922H336.455ZM368.887 0.875C379.688 0.875 386.031 3.85547 386.059 9.24219C386.031 14.7656 379.688 17.7461 368.887 17.7734C358.031 17.7461 351.66 14.7656 351.66 9.24219C351.66 3.85547 358.031 0.875 368.887 0.875ZM346.738 24.5547V21.0547H391.035V24.5547H346.738ZM352.098 32.0469V28.7656H385.348V39.6484H356.473V44.6797H386.824V48.0703H352.207V36.4766H381.137V32.0469H352.098ZM356.145 9.24219C356.09 12.6328 360.82 14.4922 368.887 14.4922C376.953 14.4922 381.656 12.6328 381.684 9.24219C381.656 6.04297 376.953 4.12891 368.887 4.10156C360.82 4.12891 356.09 6.04297 356.145 9.24219Z" fill="#182A7E"/>
</svg>
