<svg width="180" height="208" viewBox="0 0 180 208" fill="none" xmlns="http://www.w3.org/2000/svg">
<rect width="180" height="208" rx="8" fill="white"/>
<rect x="20" y="20" width="36" height="36" rx="18" fill="#F3F5F9"/>
<rect x="29.6667" y="34.6667" width="16.6667" height="11.6667" rx="5.83333" stroke="black" stroke-width="1.25"/>
<path d="M35.5 39.6667V41.3334" stroke="black" stroke-width="1.25" stroke-linecap="round"/>
<path d="M40.5 39.6667V41.3334" stroke="black" stroke-width="1.25" stroke-linecap="round"/>
<path d="M38 34.6666V31.3333" stroke="black" stroke-width="1.25"/>
<circle cx="37.9999" cy="31.3334" r="1.66667" fill="black"/>
<path d="M73.0117 43V33.1016H79.1504V34.4004H74.5156V37.3945H78.7129V38.6797H74.5156V43H73.0117ZM79.8755 43H78.2759L81.8306 33.1016H83.567L87.1353 43H85.5357L84.6334 40.3887H80.7779L79.8755 43ZM81.2086 39.1309H84.1959L82.733 34.9062H82.6646L81.2086 39.1309ZM90.9913 39.7871H92.4679L93.4249 41.0244C94.0743 40.4023 94.4708 39.3975 94.4777 38.0508C94.4708 35.6445 93.2062 34.3389 91.5109 34.3457C89.8019 34.3389 88.5372 35.6445 88.5304 38.0508C88.5372 40.457 89.8019 41.7627 91.5109 41.7559C91.8253 41.7559 92.1193 41.7148 92.3995 41.626L90.9913 39.7871ZM87.0402 38.0508C87.0402 34.8857 88.9337 32.9648 91.5109 32.9648C94.0675 32.9648 95.9679 34.8857 95.9679 38.0508C95.9679 39.876 95.339 41.2842 94.3136 42.1523L95.6534 43.8887H94.1085L93.2745 42.7949C92.7413 43.0205 92.1466 43.1367 91.5109 43.1367C88.9337 43.1367 87.0402 41.209 87.0402 38.0508ZM103.625 33.8672C103.618 35.4736 104.753 36.9707 106.578 37.5723L105.881 38.5977C104.541 38.126 103.536 37.1689 103.003 35.959C102.47 37.333 101.431 38.4131 100.002 38.9395L99.3049 37.9004C101.219 37.2236 102.326 35.5898 102.34 33.7578V32.5547H103.625V33.8672ZM100.959 41.8652C100.959 40.4297 102.525 39.5889 105.074 39.5957C107.59 39.5889 109.135 40.4297 109.135 41.8652C109.135 43.3145 107.59 44.1416 105.074 44.1348C102.525 44.1416 100.959 43.3145 100.959 41.8652ZM102.258 41.8652C102.251 42.6719 103.304 43.1094 105.074 43.123C106.831 43.1094 107.87 42.6719 107.864 41.8652C107.87 41.0859 106.831 40.6211 105.074 40.6211C103.304 40.6211 102.251 41.0859 102.258 41.8652ZM107.727 39.3086V31.9121H109.026V34.9883H110.803V36.082H109.026V39.3086H107.727ZM120.565 31.9121V34.8242H122.343V35.9043H120.565V38.8301H119.266V31.9121H120.565ZM111.487 38.2012V32.7188H116.929V33.7715H112.772V37.1484C115.158 37.1484 116.498 37.0527 118.036 36.752L118.186 37.791C116.532 38.1396 115.083 38.2012 112.458 38.2012H111.487ZM112.745 43.998V39.4316H120.565V43.998H112.745ZM114.016 42.959H119.28V40.4707H114.016V42.959Z" fill="black"/>
<rect x="20" y="64" width="36" height="36" rx="18" fill="#F3F5F9"/>
<path d="M40.1279 75.864L40.7405 75.74L40.7405 75.7398L40.1279 75.864ZM42.2891 77.114L42.0911 76.5211L42.091 76.5212L42.2891 77.114ZM44.4688 80.7302L44.0592 80.2581L44.059 80.2583L44.4688 80.7302ZM44.4678 83.2468L44.0576 83.7183L44.0578 83.7185L44.4678 83.2468ZM42.2891 86.8815L42.4868 86.2886L42.4867 86.2886L42.2891 86.8815ZM40.1279 88.1325L39.5154 88.0085L39.5153 88.0086L40.1279 88.1325ZM35.8643 88.1354L36.4768 88.0113L36.4768 88.0113L35.8643 88.1354ZM33.7021 86.8854L33.504 86.2927L33.5039 86.2927L33.7021 86.8854ZM31.5381 83.2556L31.1283 82.7836L31.1282 82.7837L31.5381 83.2556ZM31.5391 80.7399L31.1289 81.2115L31.129 81.2116L31.5391 80.7399ZM33.707 77.0983L33.5093 77.6912L33.5093 77.6912L33.707 77.0983ZM35.8682 75.8483L36.4807 75.9724L36.4808 75.9723L35.8682 75.8483ZM30.1971 85.3198L29.6574 85.635L30.1971 85.3198ZM45.8028 85.3061L46.3424 85.6215L45.8028 85.3061ZM32.1774 87.3953L31.9792 86.8026L32.1774 87.3953ZM45.7946 78.6801L46.3342 78.3647L45.7946 78.6801ZM45.6213 79.7301L46.0309 80.2022L45.6213 79.7301ZM43.8173 87.3912L43.6195 87.9841L43.8173 87.3912ZM43.8142 76.6047L43.6162 76.0118L43.8142 76.6047ZM39.8178 89.6656L39.2052 89.5417L39.8178 89.6656ZM39.818 74.3345L40.4305 74.2104L39.818 74.3345ZM39.818 74.3345L39.2054 74.4586L39.5154 75.9881L40.1279 75.864L40.7405 75.7398L40.4305 74.2104L39.818 74.3345ZM40.1279 75.864L39.5154 75.9879C39.7885 77.3374 41.1811 78.143 42.4871 77.7067L42.2891 77.114L42.091 76.5212C41.4975 76.7194 40.8647 76.3535 40.7405 75.74L40.1279 75.864ZM42.2891 77.114L42.487 77.7068L44.0122 77.1975L43.8142 76.6047L43.6162 76.0118L42.0911 76.5211L42.2891 77.114ZM44.7976 76.9745L44.258 77.2899L45.2551 78.9956L45.7946 78.6801L46.3342 78.3647L45.3371 76.6591L44.7976 76.9745ZM45.6213 79.7301L45.2117 79.2581L44.0592 80.2581L44.4688 80.7302L44.8783 81.2022L46.0309 80.2022L45.6213 79.7301ZM44.4688 80.7302L44.059 80.2583C43.0073 81.1715 43.0069 82.8044 44.0576 83.7183L44.4678 83.2468L44.878 82.7752C44.4003 82.3597 44.4006 81.6171 44.8785 81.2021L44.4688 80.7302ZM44.4678 83.2468L44.0578 83.7185L45.22 84.7283L45.6299 84.2565L46.0398 83.7848L44.8777 82.775L44.4678 83.2468ZM45.8028 85.3061L45.2632 84.9907L44.2607 86.7058L44.8003 87.0211L45.3399 87.3365L46.3424 85.6215L45.8028 85.3061ZM43.8173 87.3912L44.015 86.7983L42.4868 86.2886L42.2891 86.8815L42.0913 87.4744L43.6195 87.9841L43.8173 87.3912ZM42.2891 86.8815L42.4867 86.2886C41.1809 85.8533 39.7884 86.6596 39.5154 88.0085L40.1279 88.1325L40.7405 88.2565C40.8647 87.6432 41.498 87.2766 42.0914 87.4744L42.2891 86.8815ZM40.1279 88.1325L39.5153 88.0086L39.2052 89.5417L39.8178 89.6656L40.4304 89.7895L40.7405 88.2564L40.1279 88.1325ZM39.001 90.3337V89.7087H36.991V90.3337V90.9587H39.001V90.3337ZM36.1743 89.6658L36.7868 89.5417L36.4768 88.0113L35.8643 88.1354L35.2517 88.2595L35.5617 89.7899L36.1743 89.6658ZM35.8643 88.1354L36.4768 88.0113C36.2034 86.662 34.81 85.8562 33.504 86.2927L33.7021 86.8854L33.9003 87.4782C34.4938 87.2798 35.1274 87.6461 35.2517 88.2596L35.8643 88.1354ZM33.7021 86.8854L33.5039 86.2927L31.9792 86.8026L32.1774 87.3953L32.3756 87.988L33.9004 87.4782L33.7021 86.8854ZM31.1936 87.0254L31.7332 86.7101L30.7367 85.0045L30.1971 85.3198L29.6574 85.635L30.6539 87.3406L31.1936 87.0254ZM30.3701 84.2703L30.78 84.7421L31.948 83.7274L31.5381 83.2556L31.1282 82.7837L29.9602 83.7985L30.3701 84.2703ZM31.5381 83.2556L31.9479 83.7275C32.9995 82.8143 33.0004 81.1823 31.9491 80.2683L31.5391 80.7399L31.129 81.2116C31.6067 81.6269 31.6065 82.3684 31.1283 82.7836L31.5381 83.2556ZM31.5391 80.7399L31.9492 80.2684L30.7826 79.2536L30.3724 79.7252L29.9622 80.1968L31.1289 81.2115L31.5391 80.7399ZM30.1998 78.6761L30.7394 78.9913L31.7413 77.2762L31.2017 76.9609L30.662 76.6457L29.6601 78.3608L30.1998 78.6761ZM32.1849 76.5907L31.9871 77.1836L33.5093 77.6912L33.707 77.0983L33.9048 76.5054L32.3826 75.9978L32.1849 76.5907ZM33.707 77.0983L33.5093 77.6912C34.8146 78.1265 36.2074 77.3215 36.4807 75.9724L35.8682 75.8483L35.2556 75.7242C35.1315 76.3371 34.4984 76.7034 33.9047 76.5054L33.707 77.0983ZM35.8682 75.8483L36.4808 75.9723L36.787 74.4587L36.1744 74.3348L35.5618 74.2108L35.2556 75.7244L35.8682 75.8483ZM36.9912 73.6667V74.2917H39.0012V73.6667V73.0417H36.9912V73.6667ZM31.2017 76.9609L31.7413 77.2762C31.7911 77.191 31.8936 77.1524 31.9871 77.1836L32.1849 76.5907L32.3826 75.9978C31.728 75.7795 31.01 76.0499 30.662 76.6457L31.2017 76.9609ZM30.1971 85.3198L30.7367 85.0045C30.6862 84.918 30.7044 84.8078 30.78 84.7421L30.3701 84.2703L29.9602 83.7985C29.4309 84.2583 29.3038 85.0297 29.6574 85.635L30.1971 85.3198ZM36.991 90.3337V89.7087C36.8919 89.7087 36.8065 89.6389 36.7868 89.5417L36.1743 89.6658L35.5617 89.7899C35.6995 90.4699 36.2972 90.9587 36.991 90.9587V90.3337ZM45.6299 84.2565L45.22 84.7283C45.2956 84.794 45.3137 84.9042 45.2632 84.9907L45.8028 85.3061L46.3424 85.6215C46.6962 85.0161 46.5691 84.2447 46.0398 83.7848L45.6299 84.2565ZM32.1774 87.3953L31.9792 86.8026C31.8856 86.8338 31.783 86.7952 31.7332 86.7101L31.1936 87.0254L30.6539 87.3406C31.0022 87.9368 31.7208 88.207 32.3756 87.988L32.1774 87.3953ZM45.7946 78.6801L45.2551 78.9956C45.3056 79.0821 45.2874 79.1924 45.2117 79.2581L45.6213 79.7301L46.0309 80.2022C46.5609 79.7424 46.6883 78.9704 46.3342 78.3647L45.7946 78.6801ZM30.3724 79.7252L30.7826 79.2536C30.7071 79.1879 30.6889 79.0778 30.7394 78.9913L30.1998 78.6761L29.6601 78.3608C29.3066 78.9659 29.4335 79.7369 29.9622 80.1968L30.3724 79.7252ZM44.8003 87.0211L44.2607 86.7058C44.211 86.7908 44.1085 86.8294 44.015 86.7983L43.8173 87.3912L43.6195 87.9841C44.274 88.2023 44.9918 87.9321 45.3399 87.3365L44.8003 87.0211ZM43.8142 76.6047L44.0122 77.1975C44.1057 77.1663 44.2082 77.2048 44.258 77.2899L44.7976 76.9745L45.3371 76.6591C44.9889 76.0634 44.2708 75.7933 43.6162 76.0118L43.8142 76.6047ZM39.8178 89.6656L39.2052 89.5417C39.1855 89.6388 39.1001 89.7087 39.001 89.7087V90.3337V90.9587C39.6949 90.9587 40.2928 90.4697 40.4304 89.7895L39.8178 89.6656ZM36.1744 74.3348L36.787 74.4587C36.8066 74.3615 36.8921 74.2917 36.9912 74.2917V73.6667V73.0417C36.2972 73.0417 35.6994 73.5307 35.5618 74.2108L36.1744 74.3348ZM39.818 74.3345L40.4305 74.2104C40.2927 73.5304 39.695 73.0417 39.0012 73.0417V73.6667V74.2917C39.1003 74.2917 39.1857 74.3615 39.2054 74.4586L39.818 74.3345Z" fill="black"/>
<circle cx="38" cy="82" r="2.5" stroke="black" stroke-width="1.25"/>
<path d="M73.8594 87H72.2598L75.8145 77.1016H77.5508L81.1191 87H79.5195L78.6172 84.3887H74.7617L73.8594 87ZM75.1924 83.1309H78.1797L76.7168 78.9062H76.6484L75.1924 83.1309ZM85.4673 76.6367L82.2818 88.4902H80.983L84.1685 76.6367H85.4673ZM91.4972 79.7129C91.4015 78.79 90.5948 78.2637 89.4601 78.2637C88.2501 78.2637 87.4845 78.8857 87.4777 79.7266C87.4777 80.6631 88.4962 81.0322 89.2823 81.2168L90.2394 81.4766C91.504 81.7842 93.09 82.4746 93.0968 84.2656C93.09 85.9404 91.757 87.1641 89.4191 87.1641C87.2042 87.1641 85.8097 86.0566 85.714 84.252H87.2179C87.3068 85.332 88.2638 85.8447 89.4191 85.8516C90.6837 85.8447 91.5997 85.209 91.6066 84.2383C91.5997 83.377 90.7794 83.0283 89.7335 82.748L88.5577 82.4336C86.965 81.9961 85.9806 81.1895 85.9738 79.8086C85.9806 78.0996 87.4982 76.9648 89.5011 76.9648C91.5109 76.9648 92.9122 78.1133 92.9601 79.7129H91.4972ZM106.606 75.9258V84.8945H105.307V75.9258H106.606ZM96.5159 82.1328C98.4368 81.4219 99.5715 79.6582 99.5784 77.8125V76.5957H100.905V77.8125C100.898 79.6035 102.032 81.2441 103.926 81.9004L103.256 82.9395C101.841 82.4131 100.795 81.374 100.248 80.0479C99.7082 81.4697 98.6487 82.6045 97.2131 83.1582L96.5159 82.1328ZM98.594 87.9023V84.0469H99.9065V86.8496H106.975V87.9023H98.594ZM112.28 78.5234C112.28 79.9658 113.463 81.3125 115.329 81.832L114.714 82.8438C113.292 82.4404 112.225 81.5654 111.665 80.4307C111.132 81.6953 110.065 82.7002 108.602 83.1582L107.987 82.1602C109.846 81.5654 110.995 80.1025 110.995 78.5234V78.373H108.329V77.334H110.995V75.8574H112.294V77.334H114.946V78.373H112.28V78.5234ZM109.956 85.8652C109.949 84.4297 111.528 83.6162 114.098 83.6094C116.662 83.6162 118.234 84.4297 118.241 85.8652C118.234 87.3076 116.662 88.1416 114.098 88.1348C111.528 88.1416 109.949 87.3076 109.956 85.8652ZM111.241 85.8652C111.234 86.6582 112.301 87.1299 114.098 87.1367C115.896 87.1299 116.949 86.6582 116.956 85.8652C116.949 85.0723 115.896 84.6211 114.098 84.6211C112.301 84.6211 111.234 85.0723 111.241 85.8652ZM114.563 80.4102V79.3438H116.901V75.9121H118.2V83.3359H116.901V80.4102H114.563ZM123.738 76.6367L120.552 88.4902H119.253L122.439 76.6367H123.738ZM135.031 85.5645V86.6309H123.82V85.5645H128.769V82.666H130.068V85.5645H135.031ZM124.34 82.1055C126.616 81.7227 128.728 80.0205 128.728 78.1406V78.0312H124.75V76.9648H134.06V78.0312H130.082V78.1406C130.082 80.0205 132.208 81.6885 134.539 82.0508L134.019 83.0762C132.037 82.707 130.212 81.5586 129.412 79.9453C128.626 81.5791 126.814 82.748 124.873 83.1309L124.34 82.1055ZM145.491 75.9121V88.1621H144.192V75.9121H145.491ZM135.428 84.8262C136.44 84.8193 137.588 84.8125 138.791 84.7852V83.5547C137.363 83.3633 136.433 82.5225 136.44 81.3262C136.433 79.9453 137.636 79.0361 139.407 79.0293C141.198 79.0361 142.421 79.9453 142.428 81.3262C142.421 82.5088 141.499 83.3428 140.077 83.5479V84.7373C141.211 84.6826 142.36 84.6006 143.44 84.457L143.536 85.4277C140.815 85.8789 137.848 85.9131 135.606 85.9062L135.428 84.8262ZM135.688 78.4141V77.375H138.791V75.9395H140.09V77.375H143.166V78.4141H135.688ZM137.67 81.3262C137.657 82.1055 138.381 82.5908 139.407 82.584C140.466 82.5908 141.184 82.1055 141.184 81.3262C141.184 80.54 140.466 80.041 139.407 80.041C138.381 80.041 137.657 80.54 137.67 81.3262Z" fill="black"/>
<rect x="20" y="108" width="36" height="36" rx="18" fill="#F3F5F9"/>
<path d="M46.3334 130.167V120.167C46.3334 119.246 45.5872 118.5 44.6667 118.5H31.3334C30.4129 118.5 29.6667 119.246 29.6667 120.167V128.5C29.6667 129.42 30.4129 130.167 31.3334 130.167H41.8216C42.0426 130.167 42.2545 130.254 42.4108 130.411L44.9108 132.911C45.4358 133.436 46.3334 133.064 46.3334 132.321V130.167Z" stroke="black" stroke-width="1.25"/>
<circle cx="33.8333" cy="124.333" r="0.833333" fill="black"/>
<circle cx="38.0001" cy="124.333" r="0.833333" fill="black"/>
<circle cx="42.1666" cy="124.333" r="0.833333" fill="black"/>
<path d="M83.6211 126.365V127.432H72.4512V126.365H77.3867V125.183C75.0898 125.046 73.6475 124.15 73.6543 122.715C73.6475 121.19 75.3633 120.261 78.0293 120.254C80.6816 120.261 82.3975 121.19 82.4043 122.715C82.3975 124.15 80.9551 125.046 78.6719 125.183V126.365H83.6211ZM73.8594 131.902V128.348H75.1719V130.85H82.3633V131.902H73.8594ZM74.9941 122.715C74.9873 123.638 76.1494 124.144 78.0293 124.15C79.9023 124.144 81.0713 123.638 81.0645 122.715C81.0713 121.84 79.9023 121.3 78.0293 121.307C76.1494 121.3 74.9873 121.84 74.9941 122.715ZM93.5337 119.912V124.697H95.5025V125.791H93.5337V132.189H92.2486V119.912H93.5337ZM84.4693 122.072V121.02H90.0748V125.518H85.7818V128.17C87.8804 128.163 89.4459 128.088 91.2369 127.76L91.3599 128.812C89.4459 129.168 87.7916 129.25 85.4947 129.264H84.4966V124.465H88.7896V122.072H84.4693ZM105.689 119.926V128.826H104.39V119.926H105.689ZM95.7765 123.781C95.7833 122.011 97.1915 120.753 99.0441 120.746C100.89 120.753 102.298 122.011 102.298 123.781C102.298 125.579 100.89 126.83 99.0441 126.83C97.1915 126.83 95.7833 125.579 95.7765 123.781ZM97.048 123.781C97.0411 124.937 97.9025 125.695 99.0441 125.695C100.165 125.695 101.026 124.937 101.026 123.781C101.026 122.653 100.165 121.881 99.0441 121.881C97.9025 121.881 97.0411 122.653 97.048 123.781ZM97.6769 131.902V127.924H98.9894V130.85H106.058V131.902H97.6769ZM121.125 126.105V127.158H116.258V129.537H114.973V127.158H109.914V126.105H121.125ZM111.309 131.902V128.375H112.608V130.85H119.881V131.902H111.309ZM111.35 124.834V120.486H119.676V124.834H111.35ZM112.621 123.809H118.391V121.512H112.621V123.809ZM125.46 120.787C127.394 120.78 128.789 121.977 128.796 123.699C128.789 125.422 127.394 126.618 125.46 126.625C123.532 126.618 122.117 125.422 122.124 123.699C122.117 121.977 123.532 120.78 125.46 120.787ZM121.536 128.471C123.764 128.471 126.854 128.45 129.534 128.061L129.63 129.004C126.861 129.537 123.888 129.551 121.7 129.551L121.536 128.471ZM123.409 123.699C123.395 124.786 124.27 125.49 125.46 125.49C126.649 125.49 127.524 124.786 127.524 123.699C127.524 122.626 126.649 121.908 125.46 121.908C124.27 121.908 123.395 122.626 123.409 123.699ZM130.3 132.189V119.912H131.598V132.189H130.3Z" fill="black"/>
<rect x="20" y="152" width="36" height="36" rx="18" fill="#F3F5F9"/>
<path d="M29.6667 170.833C29.6667 169.913 30.4129 169.167 31.3334 169.167H32.1667V173.333C32.1667 173.794 31.7937 174.167 31.3334 174.167C30.4129 174.167 29.6667 173.42 29.6667 172.5V170.833Z" stroke="black" stroke-width="1.25"/>
<path d="M46.3333 170.833C46.3333 169.913 45.5871 169.167 44.6666 169.167H43.8333V173.333C43.8333 173.794 44.2063 174.167 44.6666 174.167C45.5871 174.167 46.3333 173.42 46.3333 172.5V170.833Z" stroke="black" stroke-width="1.25"/>
<path d="M43.8334 173.333V168.333C43.8334 165.572 41.5948 163.333 38.8334 163.333H37.1667C34.4053 163.333 32.1667 165.572 32.1667 168.333V173.333" stroke="black" stroke-width="1.25"/>
<path d="M43.8334 172.5C43.8334 173.889 43.0001 176.667 39.6667 176.667" stroke="black" stroke-width="1.25" stroke-linecap="round"/>
<path d="M39.6667 176.667H37.1667" stroke="black" stroke-width="2.5" stroke-linecap="round"/>
<path d="M83.6484 170.83V171.896H80.8047V176.162H79.4922V171.896H76.5664V176.162H75.2266V171.896H72.4375V170.83H83.6484ZM73.6543 167.084C73.6611 165.43 75.4248 164.377 78.0156 164.377C80.6064 164.377 82.3838 165.43 82.377 167.084C82.3838 168.718 80.6064 169.75 78.0156 169.736C75.4248 169.75 73.6611 168.718 73.6543 167.084ZM74.9941 167.084C74.9873 168.089 76.1973 168.711 78.0156 168.711C79.8408 168.711 81.0439 168.089 81.0508 167.084C81.0439 166.052 79.8408 165.423 78.0156 165.416C76.1973 165.423 74.9873 166.052 74.9941 167.084ZM88.3111 166.154C88.3179 167.815 89.4185 169.415 91.2642 170.064L90.5533 171.076C89.2203 170.563 88.2154 169.552 87.689 168.287C87.1627 169.695 86.1168 170.81 84.6744 171.363L83.9771 170.338C85.8843 169.661 87.0191 167.959 87.0259 166.113V164.664H88.3111V166.154ZM86.2056 175.902V172.033H87.5181V174.85H94.4771V175.902H86.2056ZM90.3209 167.781V166.715H92.9048V163.926H94.2037V173.059H92.9048V167.781H90.3209ZM109.586 170.105V171.158H104.718V173.537H103.433V171.158H98.3747V170.105H109.586ZM99.7692 175.902V172.375H101.068V174.85H108.341V175.902H99.7692ZM99.8102 168.834V164.486H108.136V168.834H99.8102ZM101.082 167.809H106.851V165.512H101.082V167.809ZM113.92 164.787C115.855 164.78 117.249 165.977 117.256 167.699C117.249 169.422 115.855 170.618 113.92 170.625C111.992 170.618 110.577 169.422 110.584 167.699C110.577 165.977 111.992 164.78 113.92 164.787ZM109.996 172.471C112.225 172.471 115.315 172.45 117.994 172.061L118.09 173.004C115.322 173.537 112.348 173.551 110.16 173.551L109.996 172.471ZM111.869 167.699C111.856 168.786 112.731 169.49 113.92 169.49C115.11 169.49 115.985 168.786 115.985 167.699C115.985 166.626 115.11 165.908 113.92 165.908C112.731 165.908 111.856 166.626 111.869 167.699ZM118.76 176.189V163.912H120.059V176.189H118.76Z" fill="black"/>
</svg>
