<svg width="609" height="92" viewBox="0 0 609 92" fill="none" xmlns="http://www.w3.org/2000/svg">
<path d="M17.1875 3.08594V5.54688H4.25781V10.4688H16.5234V13.0078H4.25781V18.2031C11.0742 18.1641 14.8828 18.0078 19.4531 17.1875L19.8047 19.6484C15.0195 20.5469 11.0156 20.7031 3.82812 20.7031H1.21094V3.08594H17.1875ZM5 34.2578V23.6719H8.00781V31.6797H28.3203V34.2578H5ZM23.6719 25.9766V0.273438H26.7188V11.0938H31.9531V13.6719H26.7188V25.9766H23.6719ZM65.1375 27.9297V30.4688H33.3406V27.9297H47.5594V19.4141H50.5672V27.9297H65.1375ZM34.5906 17.2656C40.6648 16.2305 47.4227 11.1523 47.4422 5.3125V2.65625H50.6453V5.3125C50.6648 11.1133 57.5203 16.2305 63.575 17.2656L62.2078 19.8047C56.9148 18.7109 51.3289 15.1367 49.0828 10.1367C46.7977 15.1172 41.2703 18.7109 35.9578 19.8047L34.5906 17.2656ZM98.7516 16.5234V19.0625H84.4156V22.7734C90.9586 23.0664 94.8453 25.1953 94.8844 28.8672C94.8453 32.7539 90.3727 34.9219 82.9313 34.9219C75.3922 34.9219 70.9195 32.7539 70.9391 28.8672C70.9195 25.1953 74.7867 23.0664 81.4078 22.7734V19.0625H67.1109V16.5234H98.7516ZM68.9078 11.9922C74.9234 11.3672 80.7242 8.30078 80.9391 4.41406H70.0016V1.91406H95.9391V4.41406H84.9234C85.1383 8.30078 90.8805 11.3672 96.9938 11.9922L95.8609 14.4141C90.1773 13.7305 84.8453 11.1719 82.9313 7.32422C81.0172 11.1719 75.7242 13.7305 70.0016 14.4141L68.9078 11.9922ZM74.0641 28.8672C74.025 31.1719 77.3648 32.5586 82.9313 32.5391C88.4391 32.5586 91.7789 31.1719 91.7984 28.8672C91.7789 26.5039 88.4391 25.1562 82.9313 25.1172C77.3648 25.1562 74.025 26.5039 74.0641 28.8672ZM129.553 0.3125V19.375H126.506V0.3125H129.553ZM102.639 4.53125V1.99219H118.498V11.3672H105.686V16.0938C111.897 16.0547 116.526 15.918 122.17 15L122.522 17.5391C116.682 18.457 111.936 18.6328 105.53 18.6719H102.717V8.94531H115.452V4.53125H102.639ZM106.975 34.5312V21.1328H110.061V25.2734H126.506V21.1328H129.553V34.5312H106.975ZM110.061 32.0312H126.506V27.7344H110.061V32.0312ZM154.339 4.17969V6.67969H134.691V4.17969H143.128V0H146.175V4.17969H154.339ZM136.761 14.8828C136.722 11.0156 139.925 8.45703 144.613 8.47656C149.261 8.45703 152.523 11.0156 152.542 14.8828C152.523 18.7695 149.261 21.3086 144.613 21.3281C139.925 21.3086 136.722 18.7695 136.761 14.8828ZM139.613 14.8828C139.593 17.3242 141.585 18.9648 144.613 18.9453C147.601 18.9648 149.652 17.3242 149.691 14.8828C149.652 12.4414 147.601 10.8203 144.613 10.7812C141.585 10.8203 139.593 12.4414 139.613 14.8828ZM140.316 29.0234C140.316 25.2344 144.71 23.0859 151.995 23.0859C159.241 23.0859 163.636 25.2344 163.636 29.0234C163.636 32.7539 159.241 34.9219 151.995 34.9219C144.71 34.9219 140.316 32.7539 140.316 29.0234ZM143.48 29.0234C143.499 31.2305 146.722 32.5586 151.995 32.5391C157.191 32.5586 160.394 31.2305 160.394 29.0234C160.394 26.7578 157.191 25.4883 151.995 25.4688C146.722 25.4883 143.499 26.7578 143.48 29.0234ZM154.3 17.9297V15.3906H160.355V11.1719H154.339V8.63281H160.355V0.273438H163.441V22.7344H160.355V17.9297H154.3ZM207.427 0.273438V35H204.458V0.273438H207.427ZM178.091 15.2734C178.11 7.89062 181.04 3.22266 185.552 3.20312C189.77 3.22266 192.622 7.28516 193.012 13.8281H197.505V1.01562H200.434V33.2422H197.505V16.3672H193.032C192.739 23.125 189.829 27.3633 185.552 27.3438C181.04 27.3633 178.11 22.6562 178.091 15.2734ZM180.981 15.2734C180.942 20.8984 182.739 24.4531 185.552 24.4141C188.384 24.4531 190.18 20.8984 190.161 15.2734C190.18 9.62891 188.384 6.09375 185.552 6.09375C182.739 6.09375 180.942 9.62891 180.981 15.2734ZM240.259 0.273438V35.0781H237.173V14.2969H226.353V11.7578H237.173V0.273438H240.259ZM213.345 26.6406V4.17969H216.431V24.0625C221.744 24.0039 226.451 23.7305 231.666 22.6562L232.056 25.1953C226.509 26.3477 221.627 26.6406 216.002 26.6406H213.345ZM257.623 10.9375C257.643 16.8359 261.92 22.832 267.038 25.0391L265.319 27.4609C261.256 25.625 257.76 21.6211 256.139 16.8164C254.518 21.9141 251.002 26.3281 247.038 28.3203L245.202 25.8984C250.182 23.5156 254.518 16.9531 254.538 10.9375V6.40625H246.334V3.86719H265.905V6.40625H257.623V10.9375ZM270.748 35V0.273438H273.834V35H270.748ZM305.633 2.92969C305.613 7.48047 311.941 11.6211 317.977 12.5391L316.766 14.9609C311.492 14.0625 306.258 11.1328 304.07 7.08984C301.883 11.2109 296.629 14.1016 291.336 15L290.125 12.5781C296.199 11.6406 302.469 7.61719 302.469 2.92969V1.17188H305.633V2.92969ZM288.172 20.5078V17.9688H319.969V20.5078H305.828V27.6172H302.781V20.5078H288.172ZM292.234 34.2578V24.2188H295.32V31.6797H316.414V34.2578H292.234ZM349.091 0.273438V12.4609H354.286V15.0391H349.091V27.4609H346.005V0.273438H349.091ZM321.825 20.9375C324.579 20.9375 327.841 20.8984 331.239 20.7812V18.125C327.196 17.7539 324.579 15.8203 324.598 12.8906C324.579 9.55078 327.841 7.51953 332.723 7.53906C337.645 7.51953 340.848 9.55078 340.888 12.8906C340.848 15.8008 338.309 17.7344 334.286 18.125V20.6445C337.528 20.4492 340.829 20.1562 343.856 19.6875L344.13 21.875C336.688 23.2812 328.251 23.3789 322.177 23.4375L321.825 20.9375ZM322.684 6.01562V3.71094H331.239V0.195312H334.286V3.71094H342.802V6.01562H322.684ZM327.02 34.2578V25.625H330.106V31.6797H350.341V34.2578H327.02ZM327.528 12.8906C327.509 14.7852 329.52 16.0156 332.723 16.0156C335.927 16.0156 337.958 14.7852 337.958 12.8906C337.958 10.918 335.927 9.70703 332.723 9.72656C329.52 9.70703 327.509 10.918 327.528 12.8906ZM375.147 10.9766C375.166 16.5625 377.998 22.2852 382.725 24.8047L380.967 27.1094C377.51 25.2148 375.01 21.6211 373.741 17.4414C372.51 21.8945 370.03 25.8008 366.553 27.8906L364.717 25.5469C369.444 22.8125 372.237 16.7188 372.256 10.9766V9.25781H365.655V6.71875H372.256V1.5625H375.186V6.71875H381.67V9.25781H375.147V10.9766ZM379.288 16.6016V13.9844H384.756V1.13281H387.647V33.2031H384.756V16.6016H379.288ZM391.748 35V0.273438H394.678V35H391.748ZM428.487 0.273438V35H425.558V0.273438H428.487ZM398.722 25.2734C406.28 20.8008 410.07 14.5312 410.675 7.26562H400.284V4.72656H413.722C413.722 6.50391 413.566 8.26172 413.253 9.96094H418.527V1.21094H421.456V33.2422H418.527V21.2109H412.081V18.6719H418.527V12.5H412.648C410.968 18.3789 407.159 23.5742 400.597 27.5L398.722 25.2734ZM464.289 16.4062V18.8281H432.492V16.4062H464.289ZM436.32 23.9062V21.6016H460.305V28.9844H439.445V32.3047H461.438V34.5312H436.359V26.875H457.258V23.9062H436.32ZM436.516 3.55469V1.32812H460.188V8.51562H439.68V11.5625H460.812V13.7891H436.633V6.40625H457.102V3.55469H436.516ZM504.252 0.273438V35H501.166V0.273438H504.252ZM475.97 25.9766C485.365 21.5234 490.17 14.8633 490.853 6.5625H477.572V4.0625H493.978C493.939 14.043 489.291 22.8906 477.65 28.4766L475.97 25.9766ZM536.459 0.3125V10.8203H541.694V13.3984H536.459V25.8203H533.413V0.3125H536.459ZM510.795 19.9609V2.8125H513.803V8.67188H523.92V2.8125H526.967V19.9609H510.795ZM513.803 17.4609H523.92V11.0938H513.803V17.4609ZM514.741 34.2578V23.3203H517.748V31.6797H538.061V34.2578H514.741ZM558.902 2.53906C566.148 2.55859 571.597 6.34766 571.597 12.0703C571.597 17.8516 566.148 21.6406 558.902 21.6016C551.655 21.6406 546.206 17.8516 546.206 12.0703C546.206 6.34766 551.655 2.55859 558.902 2.53906ZM543.081 30.3906V27.8125H574.878V30.3906H543.081ZM549.136 12.0703C549.097 16.2891 553.296 19.1016 558.902 19.1016C564.468 19.1016 568.628 16.2891 568.628 12.0703C568.628 7.91016 564.468 5.01953 558.902 5.03906C553.296 5.01953 549.097 7.91016 549.136 12.0703ZM608.648 28.125V30.7031H576.852V28.125H591.148V21.5625H580.836V10.8594H601.617V5.39062H580.758V2.85156H604.625V13.3594H583.883V19.0234H605.445V21.5625H594.156V28.125H608.648ZM29.3359 56.2734V91H26.3672V56.2734H29.3359ZM0 71.2734C0.0195312 63.8906 2.94922 59.2227 7.46094 59.2031C11.6797 59.2227 14.5312 63.2852 14.9219 69.8281H19.4141V57.0156H22.3438V89.2422H19.4141V72.3672H14.9414C14.6484 79.125 11.7383 83.3633 7.46094 83.3438C2.94922 83.3633 0.0195312 78.6562 0 71.2734ZM2.89062 71.2734C2.85156 76.8984 4.64844 80.4531 7.46094 80.4141C10.293 80.4531 12.0898 76.8984 12.0703 71.2734C12.0898 65.6289 10.293 62.0938 7.46094 62.0938C4.64844 62.0938 2.85156 65.6289 2.89062 71.2734ZM62.1688 56.2734V91.0781H59.0828V70.2969H48.2625V67.7578H59.0828V56.2734H62.1688ZM35.2547 82.6406V60.1797H38.3406V80.0625C43.6531 80.0039 48.3602 79.7305 53.575 78.6562L53.9656 81.1953C48.4188 82.3477 43.5359 82.6406 37.9109 82.6406H35.2547ZM79.5328 66.9375C79.5523 72.8359 83.8297 78.832 88.9469 81.0391L87.2281 83.4609C83.1656 81.625 79.6695 77.6211 78.0484 72.8164C76.4273 77.9141 72.9117 82.3281 68.9469 84.3203L67.1109 81.8984C72.0914 79.5156 76.4273 72.9531 76.4469 66.9375V62.4062H68.2438V59.8672H87.8141V62.4062H79.5328V66.9375ZM92.6578 91V56.2734H95.7438V91H92.6578ZM121.761 65.6094C121.761 71.7227 125.804 78.0312 130.745 80.4531L128.87 82.9141C125.042 80.9219 121.839 76.8008 120.296 71.9766C118.753 77.0938 115.472 81.4883 111.566 83.5781L109.613 81.1172C114.691 78.6172 118.714 71.957 118.753 65.6094V59.2812H121.761V65.6094ZM133.948 91V56.2734H136.995V70.375H142.816V73.0312H136.995V91H133.948ZM175.531 73.4609V76H143.891V73.4609H151.742V68.5586C148.969 67.4844 147.406 65.7266 147.406 63.3828C147.406 59.3008 152.094 56.957 159.711 56.9375C167.27 56.957 171.957 59.3008 171.977 63.3828C171.957 65.707 170.414 67.4648 167.68 68.5586V73.4609H175.531ZM147.719 84.7891C147.699 80.8242 152.172 78.6367 159.711 78.6562C167.152 78.6367 171.625 80.8242 171.664 84.7891C171.625 88.7539 167.152 90.9219 159.711 90.9219C152.172 90.9219 147.699 88.7539 147.719 84.7891ZM150.57 63.3828C150.551 65.9219 154.027 67.3867 159.711 67.4062C165.336 67.3867 168.832 65.9219 168.852 63.3828C168.832 60.8828 165.336 59.3594 159.711 59.3594C154.027 59.3594 150.551 60.8828 150.57 63.3828ZM150.844 84.7891C150.805 87.1523 154.145 88.5586 159.711 88.5391C165.219 88.5586 168.559 87.1523 168.578 84.7891C168.559 82.4258 165.219 81.0391 159.711 81C154.145 81.0391 150.805 82.4258 150.844 84.7891ZM154.789 73.4609H164.633V69.3789C163.168 69.6523 161.527 69.7891 159.711 69.7891C157.895 69.7891 156.254 69.6523 154.789 69.3984V73.4609ZM215.689 56.3125V81.7812H212.603V68.4609H205.455V65.9219H212.603V56.3125H215.689ZM187.056 74.8281C192.173 73.0312 195.884 68.4414 195.884 63.4609V61.6641H188.033V59.125H206.744V61.6641H198.97V63.4609C198.97 67.9531 202.447 72.3086 207.525 74.0469L205.923 76.5078C202.017 75.082 198.99 72.1719 197.486 68.5781C195.982 72.6016 192.779 75.7852 188.658 77.3281L187.056 74.8281ZM193.384 90.2578V79.4766H196.47V87.6797H216.666V90.2578H193.384ZM247.819 56.3125V66.8203H253.053V69.3984H247.819V81.8203H244.772V56.3125H247.819ZM222.155 75.9609V58.8125H225.163V64.6719H235.28V58.8125H238.327V75.9609H222.155ZM225.163 73.4609H235.28V67.0938H225.163V73.4609ZM226.1 90.2578V79.3203H229.108V87.6797H249.42V90.2578H226.1ZM265.808 58.8125C271.257 58.832 275.124 62.1523 275.144 66.9766C275.124 71.8203 271.257 75.1211 265.808 75.1406C260.32 75.1211 256.413 71.8203 256.433 66.9766C256.413 62.1523 260.32 58.832 265.808 58.8125ZM254.636 80.8047C261.042 80.8242 269.89 80.7656 277.566 79.6328L277.8 81.8984C269.851 83.3828 261.316 83.4219 255.066 83.4219L254.636 80.8047ZM259.441 66.9766C259.421 70.2188 262.097 72.4453 265.808 72.4453C269.48 72.4453 272.155 70.2188 272.136 66.9766C272.155 63.7539 269.48 61.5078 265.808 61.5078C262.097 61.5078 259.421 63.7539 259.441 66.9766ZM279.87 91.0781V56.2734H282.917V91.0781H279.87ZM326.239 56.3125V82.0156H323.153V72.6797H314.95V76.0781H299.208V58.6172H302.255V64.7891H311.942V58.6172H314.95V62.6797H323.153V56.3125H326.239ZM302.255 73.5391H311.942V67.2109H302.255V73.5391ZM303.778 90.2578V79.4766H306.864V87.6797H327.02V90.2578H303.778ZM314.95 70.1406H323.153V65.2578H314.95V70.1406ZM358.173 56.2734V71.0781H363.72V73.6562H358.173V91H355.087V56.2734H358.173ZM330.791 81.7422C333.623 81.7422 336.923 81.7227 340.361 81.625V77.7969C336.318 77.3281 333.681 74.9453 333.72 71.5078C333.681 67.582 337.002 65.043 341.923 65.0625C346.767 65.043 350.146 67.582 350.166 71.5078C350.146 74.9648 347.47 77.3281 343.447 77.7969V81.5078C346.67 81.3516 349.951 81.0781 352.978 80.6484L353.173 82.9922C345.595 84.2812 337.392 84.3594 331.298 84.3594L330.791 81.7422ZM331.416 63.0312V60.5312H340.361V56.3516H343.447V60.5312H352.353V63.0312H331.416ZM336.572 71.5078C336.591 73.9102 338.701 75.4922 341.923 75.4531C345.087 75.4922 347.216 73.9102 347.236 71.5078C347.216 69.0859 345.087 67.4453 341.923 67.4453C338.701 67.4453 336.591 69.0859 336.572 71.5078ZM396.748 72.4062V74.8281H364.952V72.4062H396.748ZM368.78 79.9062V77.6016H392.764V84.9844H371.905V88.3047H393.897V90.5312H368.819V82.875H389.717V79.9062H368.78ZM368.975 59.5547V57.3281H392.647V64.5156H372.139V67.5625H393.272V69.7891H369.092V62.4062H389.561V59.5547H368.975ZM435.109 56.3125V66.8203H440.305V69.3984H435.109V79.5938H432.023V56.3125H435.109ZM407.844 76.0391C410.617 76.0391 413.859 76.0391 417.258 75.9414V73.3828C413.215 73.0117 410.598 71.1562 410.617 68.2656C410.598 65.1016 413.859 63.1484 418.742 63.1484C423.664 63.1484 426.867 65.1016 426.906 68.2656C426.867 71.1367 424.328 72.9922 420.305 73.3828V75.8242C423.547 75.668 426.828 75.3945 429.875 74.9453L430.148 77.1719C422.609 78.5 414.309 78.5586 408.195 78.5391L407.844 76.0391ZM408.703 61.8203V59.4766H417.258V56H420.305V59.4766H428.82V61.8203H408.703ZM412.102 83.7734V81.3125H435.109V91H432.023V83.7734H412.102ZM413.547 68.2656C413.527 70.082 415.539 71.3125 418.742 71.2734C421.945 71.3125 423.977 70.082 423.977 68.2656C423.977 66.4297 421.945 65.2969 418.742 65.3359C415.539 65.2969 413.527 66.4297 413.547 68.2656ZM453.528 62.875C453.548 67.4258 456.946 71.4883 462.044 73.1484L460.598 75.5703C456.595 74.2422 453.567 71.4883 452.063 67.9922C450.579 71.9766 447.376 75.082 443.216 76.5859L441.653 74.125C446.848 72.3672 450.481 67.8945 450.52 62.875V61.3906H442.591V58.8516H461.341V61.3906H453.528V62.875ZM446.263 84.5156C446.282 80.5117 450.638 78.1875 457.786 78.1875C464.915 78.1875 469.231 80.5117 469.231 84.5156C469.231 88.5781 464.915 90.9219 457.786 90.9219C450.638 90.9219 446.282 88.5781 446.263 84.5156ZM449.348 84.5156C449.309 87.0156 452.552 88.4805 457.786 88.4609C463.04 88.4805 466.243 87.0156 466.263 84.5156C466.243 82.0938 463.04 80.6484 457.786 80.6484C452.552 80.6484 449.309 82.0938 449.348 84.5156ZM465.872 77.25V56.2734H468.919V65.1406H474.153V67.7188H468.919V77.25H465.872ZM502.689 56.2734V65.1797H507.923V67.7969H502.689V76.4688H499.642V56.2734H502.689ZM475.619 62.4062V59.8672H484.447V55.9609H487.494V59.8672H496.322V62.4062H475.619ZM477.611 70.1016C477.591 66.3906 480.931 64.0273 485.97 64.0078C490.951 64.0273 494.291 66.3906 494.33 70.1016C494.291 73.8125 490.951 76.2148 485.97 76.1953C480.931 76.2148 477.591 73.8125 477.611 70.1016ZM480.541 70.1016C480.521 72.3672 482.689 73.8516 485.97 73.8516C489.212 73.8516 491.4 72.3672 491.439 70.1016C491.4 67.8555 489.212 66.3516 485.97 66.3906C482.689 66.3516 480.521 67.8555 480.541 70.1016ZM480.736 90.5312V77.9922H483.783V81.7031H499.642V77.9922H502.689V90.5312H480.736ZM483.783 88.0703H499.642V84.125H483.783V88.0703ZM537.944 56.2734V91H534.897V56.2734H537.944ZM511.577 82.0547V59.7109H514.584V79.3984C519.897 79.3594 525.366 78.9492 531.186 77.7188L531.616 80.3359C525.444 81.625 519.955 82.0547 514.389 82.0547H511.577ZM569.956 56.2734V70.0234H575.777V72.6016H569.956V91.0781H566.909V56.2734H569.956ZM544.605 82.3672V59.6719H560.816V62.2109H547.652V79.7891C553.941 79.7695 558.374 79.4961 563.55 78.5391L563.941 81.1953C558.491 82.1719 553.941 82.3672 547.339 82.3672H544.605ZM580.523 88.0703C579.156 88.0508 577.984 86.918 578.023 85.5312C577.984 84.1641 579.156 83.0312 580.523 83.0312C581.91 83.0312 583.043 84.1641 583.023 85.5312C583.043 86.918 581.91 88.0508 580.523 88.0703Z" fill="#182A7E"/>
</svg>
