<svg width="415" height="54" viewBox="0 0 415 54" fill="none" xmlns="http://www.w3.org/2000/svg">
<path d="M0 41.5078V1.91406H25.7578V7.875H7.10938V18.7031H24.3906V24.6641H7.10938V35.4922H25.8672V41.5078H0ZM38.1456 24.1172V41.5078H31.1456V11.8125H37.8175V16.8438H38.2003C39.5402 13.5352 42.5753 11.4297 47.005 11.4297C53.1573 11.4297 57.2042 15.4766 57.1769 22.5859V41.5078H50.2316V23.6797C50.2316 19.6875 48.0714 17.3086 44.4347 17.3359C40.7433 17.3086 38.1456 19.7969 38.1456 24.1172ZM75.9084 42.1094C66.967 42.1094 61.4709 36.1484 61.4709 26.8516C61.4709 17.6641 67.0491 11.4297 75.5256 11.4297C82.7991 11.4297 89.0881 15.9961 89.0881 26.4141V28.6016H68.3616C68.4709 33.6602 71.4514 36.668 75.9631 36.6406C79.0256 36.668 81.0764 35.3555 81.9787 33.5781H88.8147C87.5569 38.7188 82.7991 42.1094 75.9084 42.1094ZM68.3889 23.8438H82.4162C82.3889 19.7969 79.6545 16.8438 75.635 16.8438C71.4514 16.8438 68.635 20.0703 68.3889 23.8438ZM93.3822 41.5078V11.8125H100.163V16.7344H100.492C101.558 13.3164 104.402 11.375 107.82 11.375C108.585 11.375 109.679 11.457 110.335 11.5391V17.9922C109.706 17.7734 108.257 17.582 107.109 17.5547C103.226 17.582 100.382 20.2617 100.382 24.0078V41.5078H93.3822ZM125.348 53.2656C117.473 53.2656 112.469 49.7656 112.004 44.1875H118.95C119.442 46.7852 121.875 47.9883 125.457 48.0156C129.641 47.9883 132.348 46.1836 132.348 41.8359V36.1484H132.02C130.926 38.3359 128.547 41.0703 123.434 41.0703C116.571 41.0703 111.184 36.0938 111.184 26.4141C111.184 16.6523 116.598 11.4297 123.489 11.4297C128.711 11.4297 130.926 14.5742 132.02 16.6797H132.348V11.8125H139.239V42C139.239 49.6016 133.36 53.2656 125.348 53.2656ZM118.293 26.5234C118.293 31.9922 120.754 35.6016 125.348 35.6016C129.86 35.6016 132.403 32.2109 132.403 26.5234C132.403 20.8633 129.887 17.1445 125.348 17.1172C120.7 17.1445 118.293 21.1094 118.293 26.5234ZM149.002 52.6641C147.607 52.6367 146.295 52.6094 145.392 52.5V46.9219C146.24 47.0039 147.416 47.0039 148.345 47.0312C150.041 47.0039 151.462 46.8945 152.666 43.6953L153.267 42.1094L142.439 11.8125H149.822L156.712 34.2344H157.041L163.931 11.8125H171.314L159.392 45.1172C157.697 49.8477 154.58 52.6367 149.002 52.6641ZM208.613 12.7969C208.258 9.37891 205.387 7.41016 201.121 7.4375C196.609 7.41016 193.93 9.59766 193.902 12.5781C193.875 15.9141 197.402 17.2812 200.683 18.0469L204.402 19.0312C210.308 20.3984 215.996 23.5156 215.996 30.4062C215.996 37.3516 210.5 42.1094 201.012 42.1094C191.797 42.1094 185.945 37.6797 185.644 29.8594H192.644C192.973 33.9883 196.445 36.0117 200.957 36.0391C205.633 36.0117 208.859 33.7422 208.887 30.3516C208.859 27.2344 206.015 25.9219 201.723 24.8281L197.238 23.6797C190.73 21.9844 186.683 18.7031 186.683 13.0156C186.683 6.01562 192.89 1.36719 201.23 1.36719C209.625 1.36719 215.34 6.09766 215.449 12.7969H208.613ZM233.415 42.1094C224.747 42.1094 219.196 35.957 219.196 26.7969C219.196 17.5547 224.747 11.4297 233.415 11.4297C242.11 11.4297 247.661 17.5547 247.634 26.7969C247.661 35.957 242.11 42.1094 233.415 42.1094ZM226.251 26.7422C226.251 32.1836 228.63 36.5312 233.47 36.5312C238.227 36.5312 240.606 32.1836 240.579 26.7422C240.606 21.3008 238.227 16.9258 233.47 16.9531C228.63 16.9258 226.251 21.3008 226.251 26.7422ZM258.928 1.91406V41.5078H251.928V1.91406H258.928ZM283.456 29.0391V11.8125H290.402V41.5078H283.675V36.2578H283.347C281.98 39.5664 278.862 41.8906 274.433 41.8906C268.554 41.8906 264.507 37.8438 264.48 30.7344V11.8125H271.48V29.6406C271.48 33.4141 273.722 35.8203 277.112 35.8203C280.175 35.8203 283.456 33.5781 283.456 29.0391ZM310.774 11.8125V17.1719H304.922V32.5938C304.922 35.4375 306.344 36.0117 308.094 36.0391C308.914 36.0664 310.282 35.9844 311.157 35.9297V41.6172C310.336 41.7539 308.996 41.918 307.219 41.8906C301.969 41.918 297.922 39.3203 297.977 33.7422V17.1719H293.711V11.8125H297.977V4.70312H304.922V11.8125H310.774ZM315.013 41.5078V11.8125H322.013V41.5078H315.013ZM314.521 3.77344C314.521 1.69531 316.353 0 318.568 0C320.783 0 322.615 1.69531 322.615 3.77344C322.615 5.87891 320.783 7.57422 318.568 7.60156C316.353 7.57422 314.521 5.87891 314.521 3.77344ZM340.526 42.1094C331.858 42.1094 326.307 35.957 326.307 26.7969C326.307 17.5547 331.858 11.4297 340.526 11.4297C349.221 11.4297 354.772 17.5547 354.745 26.7969C354.772 35.957 349.221 42.1094 340.526 42.1094ZM333.362 26.7422C333.362 32.1836 335.741 36.5312 340.581 36.5312C345.338 36.5312 347.717 32.1836 347.69 26.7422C347.717 21.3008 345.338 16.9258 340.581 16.9531C335.741 16.9258 333.362 21.3008 333.362 26.7422ZM366.039 24.1172V41.5078H359.039V11.8125H365.711V16.8438H366.093C367.433 13.5352 370.468 11.4297 374.898 11.4297C381.05 11.4297 385.097 15.4766 385.07 22.5859V41.5078H378.125V23.6797C378.125 19.6875 375.965 17.3086 372.328 17.3359C368.636 17.3086 366.039 19.7969 366.039 24.1172ZM407.466 20.2891C407.028 18.0469 405.169 16.5977 402.216 16.625C399.235 16.5977 397.048 18.1016 397.075 20.125C397.048 21.6562 398.278 22.8047 401.286 23.5156L406.317 24.5547C411.923 25.7852 414.657 28.3828 414.684 32.6484C414.657 38.2266 409.763 42.1094 401.997 42.1094C394.45 42.1094 389.993 38.7188 389.255 33.0312H396.364C396.774 35.5742 398.743 36.832 401.997 36.8047C405.36 36.832 407.548 35.4648 407.575 33.25C407.548 31.5273 406.208 30.4336 403.255 29.8047L398.497 28.7656C392.973 27.6445 390.102 24.7461 390.13 20.5078C390.102 15.0117 394.86 11.4297 402.106 11.4297C409.188 11.4297 413.563 14.9023 414.083 20.2891H407.466Z" fill="white"/>
</svg>
