<svg width="464" height="44" viewBox="0 0 464 44" fill="none" xmlns="http://www.w3.org/2000/svg">
<path d="M13.2188 11.7812V12.7969H0.5625V11.7812H6.28125V10.3281C3.61719 10.1875 1.96875 9.1875 1.96875 7.54688C1.96875 5.83594 3.875 4.80469 6.89062 4.79688C9.875 4.80469 11.7891 5.83594 11.7969 7.54688C11.7891 9.1875 10.1328 10.1875 7.5 10.3281V11.7812H13.2188ZM2.20312 17.9688V13.9219H3.4375V16.9375H11.8125V17.9688H2.20312ZM3.23438 7.54688C3.22656 8.67969 4.64844 9.32812 6.89062 9.32812C9.11719 9.32812 10.5391 8.67969 10.5469 7.54688C10.5391 6.48438 9.11719 5.79688 6.89062 5.79688C4.64844 5.79688 3.22656 6.48438 3.23438 7.54688ZM24.3406 4.375V9.90625H26.6687V10.9375H24.3406V18.2969H23.1219V4.375H24.3406ZM14.1375 6.6875V5.67188H20.45V10.6406H15.3875V13.8906C17.9656 13.8984 19.7703 13.7969 21.8719 13.4062L21.9969 14.4219C19.8094 14.8203 17.9578 14.9219 15.2781 14.9375H14.1687V9.625H19.2312V6.6875H14.1375ZM38.0875 4.39062V14.5469H36.8687V4.39062H38.0875ZM26.9469 8.76562C26.9391 6.76562 28.5094 5.36719 30.5875 5.35938C32.6656 5.36719 34.2203 6.76562 34.2281 8.76562C34.2203 10.7891 32.6656 12.1953 30.5875 12.1875C28.5094 12.1953 26.9391 10.7891 26.9469 8.76562ZM28.15 8.76562C28.1344 10.1484 29.1812 11.1094 30.5875 11.1094C31.9703 11.1094 33.025 10.1484 33.025 8.76562C33.025 7.40625 31.9703 6.4375 30.5875 6.4375C29.1812 6.4375 28.1344 7.40625 28.15 8.76562ZM29.1187 17.9688V13.5156H30.3375V16.9375H38.525V17.9688H29.1187ZM45.975 5.28125C48.8734 5.28906 51.0531 6.80469 51.0531 9.09375C51.0531 11.4062 48.8734 12.9219 45.975 12.9062C43.0766 12.9219 40.8969 11.4062 40.8969 9.09375C40.8969 6.80469 43.0766 5.28906 45.975 5.28125ZM39.6469 16.4219V15.3906H52.3656V16.4219H39.6469ZM42.0687 9.09375C42.0531 10.7812 43.7328 11.9062 45.975 11.9062C48.2016 11.9062 49.8656 10.7812 49.8656 9.09375C49.8656 7.42969 48.2016 6.27344 45.975 6.28125C43.7328 6.27344 42.0531 7.42969 42.0687 9.09375ZM65.3937 15.5156V16.5469H52.675V15.5156H58.3937V12.8906H54.2687V8.60938H62.5812V6.42188H54.2375V5.40625H63.7844V9.60938H55.4875V11.875H64.1125V12.8906H59.5969V15.5156H65.3937ZM80.4344 4.39062V14.9844H79.2V12H76.7937V11H79.2V9.10938H76.7937V8.09375H79.2V4.39062H80.4344ZM68.9344 7.09375V6.09375H72.3094V4.375H73.5281V6.09375H76.7937V7.09375H68.9344ZM69.7625 10.5156C69.7469 8.92188 71.0437 7.85938 72.9031 7.85938C74.7625 7.85938 76.0672 8.92188 76.075 10.5156C76.0672 12.0938 74.7625 13.1641 72.9031 13.1719C71.0437 13.1641 69.7469 12.0938 69.7625 10.5156ZM70.9031 10.5156C70.8953 11.5156 71.7156 12.1953 72.9031 12.1875C74.0906 12.1953 74.9109 11.5156 74.9187 10.5156C74.9109 9.51562 74.0906 8.84375 72.9031 8.82812C71.7156 8.84375 70.8953 9.51562 70.9031 10.5156ZM71.45 17.9688V14.0469H72.6844V16.9375H80.7469V17.9688H71.45ZM86.65 7.01562C86.6578 8.83594 88.0172 10.4609 90.0563 11.125L89.4781 12.0938C87.8766 11.5625 86.6656 10.4609 86.0641 9.0625C85.4703 10.6562 84.1891 11.8984 82.525 12.5L81.9 11.5156C83.9781 10.8125 85.4313 9.02344 85.4469 7.01562V6.42188H82.275V5.40625H89.775V6.42188H86.65V7.01562ZM83.7438 15.6719C83.7516 14.0703 85.4938 13.1406 88.3531 13.1406C91.2047 13.1406 92.9313 14.0703 92.9313 15.6719C92.9313 17.2969 91.2047 18.2344 88.3531 18.2344C85.4938 18.2344 83.7516 17.2969 83.7438 15.6719ZM84.9781 15.6719C84.9625 16.6719 86.2594 17.2578 88.3531 17.25C90.4547 17.2578 91.7359 16.6719 91.7438 15.6719C91.7359 14.7031 90.4547 14.125 88.3531 14.125C86.2594 14.125 84.9625 14.7031 84.9781 15.6719ZM91.5875 12.7656V4.375H92.8063V7.92188H94.9V8.95312H92.8063V12.7656H91.5875ZM104.597 13.1094C107.448 13.1094 109.175 14.0469 109.175 15.6719C109.175 17.3125 107.448 18.25 104.597 18.2656C101.738 18.25 99.9953 17.3125 99.9875 15.6719C99.9953 14.0469 101.738 13.1094 104.597 13.1094ZM98.7844 11.6562V5.25H99.9875V7.375H104.034V5.25H105.253V11.6562H98.7844ZM99.9875 10.6562H104.034V8.34375H99.9875V10.6562ZM101.222 15.6719C101.206 16.6719 102.503 17.2656 104.597 17.2656C106.698 17.2656 107.98 16.6719 107.988 15.6719C107.98 14.6797 106.698 14.0938 104.597 14.0781C102.503 14.0938 101.206 14.6797 101.222 15.6719ZM107.831 12.7344V4.375H109.05V7.875H111.144V8.92188H109.05V12.7344H107.831ZM123.922 11.4844V12.5H118.266V15.3438H117.047V12.5H111.203V11.4844H123.922ZM112.828 17.9688V13.9688H114.062V16.9375H122.5V17.9688H112.828ZM112.859 9.89062V5.0625H122.266V9.89062H112.859ZM114.062 8.90625H121.047V6.03125H114.062V8.90625ZM132.353 8.10938C132.345 10.625 133.963 13.1562 135.978 14.0781L135.244 15.0781C133.666 14.2656 132.361 12.6094 131.744 10.6328C131.127 12.7109 129.822 14.4922 128.244 15.3281L127.447 14.3438C129.486 13.3438 131.095 10.6719 131.103 8.10938V5.57812H132.353V8.10938ZM134.463 10.125V9.125H137.759V4.375H138.978V18.2969H137.759V10.125H134.463ZM151.944 4.375V18.2969H150.709V4.375H151.944ZM141.303 14.9375V5.5625H142.522V9.23438H146.663V5.5625H147.866V14.9375H141.303ZM142.522 13.9062H146.663V10.2188H142.522V13.9062ZM160.441 6.42188C160.448 8.80469 163.167 10.9219 165.581 11.375L165.019 12.4062C162.917 11.9219 160.714 10.4297 159.816 8.39062C158.909 10.4297 156.714 11.9141 154.613 12.4062L154.05 11.375C156.456 10.9141 159.152 8.8125 159.159 6.42188V5.35938H160.441V6.42188ZM153.519 16.375V15.3594H166.238V16.375H153.519ZM179.25 10.8281V11.7969H166.531V10.8281H179.25ZM168.062 13.8281V12.9062H177.656V15.8594H169.312V17.1875H178.109V18.0781H168.078V15.0156H176.438V13.8281H168.062ZM168.141 5.6875V4.79688H177.609V7.67188H169.406V8.89062H177.859V9.78125H168.188V6.82812H176.375V5.6875H168.141ZM12.4688 26.375V40.2656H11.2812V26.375H12.4688ZM0.734375 32.375C0.742188 29.4219 1.91406 27.5547 3.71875 27.5469C4.90625 27.5547 5.82031 28.3594 6.32031 29.75H8.53125V26.6719H9.70312V39.5625H8.53125V35H6.32031C5.82812 36.3984 4.90625 37.2109 3.71875 37.2031C1.91406 37.2109 0.742188 35.3281 0.734375 32.375ZM1.875 32.375C1.86719 34.625 2.57812 36.0469 3.71875 36.0312C4.85156 36.0469 5.57812 34.625 5.57812 32.375C5.57812 30.1172 4.85156 28.7031 3.71875 28.7031C2.57812 28.7031 1.86719 30.1172 1.875 32.375ZM6.57812 30.7656C6.67188 31.2578 6.71875 31.7969 6.71875 32.375C6.71875 32.9453 6.67188 33.4844 6.58594 33.9688H8.53125V30.7656H6.57812ZM26.5125 28.5312V29.5312H24.45V31.4844H26.5125V32.5312H24.45V34.6406H23.2312V26.375H24.45V28.5312H26.5125ZM13.8562 30.4844C13.8484 28.5547 15.3953 27.2109 17.4969 27.2188C19.6141 27.2109 21.1375 28.5547 21.1531 30.4844C21.1375 32.4375 19.6141 33.7734 17.4969 33.7812C15.3953 33.7734 13.8484 32.4375 13.8562 30.4844ZM15.0594 30.4844C15.0516 31.8203 16.0906 32.7344 17.4969 32.7188C18.9187 32.7344 19.9422 31.8203 19.95 30.4844C19.9422 29.1797 18.9187 28.2734 17.4969 28.2656C16.0906 28.2734 15.0516 29.1797 15.0594 30.4844ZM15.3562 36.2969V35.2812H24.45V40.2656H23.2312V36.2969H15.3562ZM41.3031 26.3906V36.5781H40.0844V26.3906H41.3031ZM29.975 33.6094C32.0766 32.7891 33.5063 30.7578 33.5063 28.5625V27.1719H34.7563V28.5625C34.7406 30.6797 36.1859 32.5781 38.2563 33.3281L37.6156 34.3125C36.0063 33.6953 34.7563 32.4453 34.1391 30.8438C33.5375 32.5469 32.2719 33.9141 30.6469 34.5625L29.975 33.6094ZM32.3344 39.9688V35.6406H33.5531V38.9375H41.7406V39.9688H32.3344ZM47.5969 29.3594C47.6047 31.0859 49.0969 32.6484 51.1437 33.25L50.55 34.2031C48.9406 33.7188 47.6594 32.6719 47.0266 31.3047C46.4328 32.8203 45.1594 34.0156 43.5031 34.5625L42.9094 33.625C44.9484 32.9375 46.3859 31.2422 46.3937 29.3594V29.0625H43.2531V28.0781H46.3937V26.3125H47.6281V28.0781H50.7375V29.0625H47.5969V29.3594ZM45.1125 37.7031C45.1047 36.0859 46.8781 35.1641 49.7687 35.1719C52.6516 35.1641 54.425 36.0859 54.425 37.7031C54.425 39.3125 52.6516 40.2344 49.7687 40.2344C46.8781 40.2344 45.1047 39.3125 45.1125 37.7031ZM46.3312 37.7031C46.3234 38.6719 47.6359 39.2656 49.7687 39.2656C51.9016 39.2656 53.2062 38.6719 53.2062 37.7031C53.2062 36.7109 51.9016 36.1406 49.7687 36.125C47.6359 36.1406 46.3234 36.7109 46.3312 37.7031ZM50.3 31.375V30.3594H53.1437V26.375H54.3781V34.7969H53.1437V31.375H50.3ZM66.75 26.3281V29.7031H68.8594V30.7188H66.75V34.0156H65.5312V26.3281H66.75ZM55.9219 28.625V27.6406H59.4531V26.2344H60.6719V27.6406H64.2031V28.625H55.9219ZM56.7188 31.5312C56.7109 30.125 58.0391 29.2578 60.0625 29.25C62.0781 29.2578 63.3906 30.125 63.4062 31.5312C63.3906 32.9453 62.0781 33.8047 60.0625 33.8125C58.0391 33.8047 56.7109 32.9453 56.7188 31.5312ZM57.8906 35.6562V34.7344H66.75V37.8125H59.125V39.1719H67.2656V40.1094H57.9219V36.9062H65.5312V35.6562H57.8906ZM57.8906 31.5312C57.8828 32.3672 58.7422 32.8906 60.0625 32.8906C61.375 32.8906 62.2344 32.3672 62.25 31.5312C62.2344 30.7031 61.375 30.1641 60.0625 30.1562C58.7422 30.1641 57.8828 30.7031 57.8906 31.5312ZM79.1031 27.6719C79.1109 29.6328 81.6578 31.3203 84.1656 31.6719L83.6656 32.6719C81.5094 32.3125 79.3688 31.1172 78.4781 29.4141C77.5875 31.1328 75.4547 32.3125 73.2906 32.6719L72.7906 31.6719C75.2984 31.3203 77.8375 29.6641 77.8375 27.6719V26.875H79.1031V27.6719ZM72.1344 35.2344V34.2031H84.7906V35.2344H79.0406V40.2656H77.8375V35.2344H72.1344ZM93.0813 35.7031C93.0734 36.9297 93.7375 38.2344 95.0578 38.9844C96.3859 38.1641 97.0891 36.7734 97.0813 35.7031V34.9375H98.2844V35.7031C98.2766 37.1328 99.3313 38.5547 101.113 39.1719L100.503 40.0781C99.1125 39.5859 98.1438 38.6172 97.6594 37.4531C97.2297 38.5781 96.3781 39.6484 95.0969 40.1875C93.7453 39.6719 92.8859 38.6562 92.4719 37.4922C91.9719 38.6094 91.0188 39.5781 89.6906 40.0781L89.0656 39.1719C90.8234 38.5156 91.8781 37.0312 91.8938 35.7031V34.9375H93.0813V35.7031ZM88.7063 30.4531C88.6984 28.5156 90.2375 27.1953 92.3469 27.2031C94.4563 27.1953 95.9797 28.5156 95.9875 30.4531C95.9797 32.3594 94.4563 33.6719 92.3469 33.6719C90.2375 33.6719 88.6984 32.3594 88.7063 30.4531ZM89.9094 30.4531C89.8938 31.7422 90.9172 32.6484 92.3469 32.6562C93.7609 32.6484 94.7844 31.7422 94.7844 30.4531C94.7844 29.1562 93.7609 28.2344 92.3469 28.25C90.9172 28.2344 89.8938 29.1562 89.9094 30.4531ZM98.6281 34.3281V26.3906H99.8469V34.3281H98.6281ZM104.234 34.7188V36.3438H111.172V34.7188H112.406V40.0781H103.016V34.7188H104.234ZM101.406 33.7344V32.7188H114.062V33.7344H101.406ZM102.125 30.75C104.602 30.4141 107.109 28.9531 107.109 27.1875V26.5312H108.375V27.1875C108.367 28.8984 110.898 30.4375 113.344 30.75L112.891 31.7344C110.742 31.4141 108.625 30.3203 107.742 28.7656C106.859 30.3281 104.734 31.4141 102.594 31.7344L102.125 30.75ZM104.234 39.0938H111.172V37.3125H104.234V39.0938ZM125.887 26.375V40.2656H124.669V26.375H125.887ZM115.341 36.6875V27.75H116.544V35.625C118.669 35.6094 120.856 35.4453 123.184 34.9531L123.356 36C120.887 36.5156 118.692 36.6875 116.466 36.6875H115.341ZM138.213 26.375V31.875H140.541V32.9062H138.213V40.2969H136.994V26.375H138.213ZM128.072 36.8125V27.7344H134.556V28.75H129.291V35.7812C131.806 35.7734 133.58 35.6641 135.65 35.2812L135.806 36.3438C133.627 36.7344 131.806 36.8125 129.166 36.8125H128.072ZM141.959 39.0938C141.413 39.0859 140.944 38.6328 140.959 38.0781C140.944 37.5312 141.413 37.0781 141.959 37.0781C142.514 37.0781 142.967 37.5312 142.959 38.0781C142.967 38.6328 142.514 39.0859 141.959 39.0938Z" fill="black"/>
<path d="M436 26H456M456 26L446.909 17M456 26L446.909 35" stroke="black" stroke-width="2" stroke-linejoin="round"/>
</svg>
