<svg width="619" height="20" viewBox="0 0 619 20" fill="none" xmlns="http://www.w3.org/2000/svg">
<path d="M14.8396 8.67844e-05V17.4801H13.0796V8.67844e-05H14.8396ZM-0.000423521 7.56009C-0.000423521 3.76009 1.47958 1.40009 3.75958 1.40009C5.87958 1.40009 7.33958 3.42009 7.55958 6.72009H9.51958V0.320087H11.3196V16.6401H9.51958V8.20009H7.57958C7.39958 11.6201 5.91958 13.7401 3.75958 13.7201C1.47958 13.7401 -0.000423521 11.3601 -0.000423521 7.56009ZM1.71958 7.56009C1.71958 10.3401 2.49958 11.9801 3.75958 11.9601C5.05958 11.9801 5.85958 10.3401 5.87958 7.56009C5.85958 4.76009 5.05958 3.14009 3.75958 3.12009C2.49958 3.14009 1.71958 4.76009 1.71958 7.56009ZM31.2847 8.67844e-05V17.5201H29.4447V7.16009H24.2047V5.64009H29.4447V8.67844e-05H31.2847ZM17.6447 13.3201V1.92009H19.4847V11.7601C22.0047 11.7401 24.3647 11.5801 26.9247 11.0801L27.1247 12.6001C24.3247 13.1801 21.7847 13.3201 19.0047 13.3201H17.6447ZM40.0099 5.16009C40.0099 8.08009 41.9299 11.1001 44.6499 12.2401L43.6099 13.7201C41.5499 12.8001 39.9299 10.8801 39.1099 8.56009C38.2899 11.0401 36.6499 13.1801 34.6099 14.1601L33.5299 12.6801C36.1699 11.4601 38.1299 8.16009 38.1299 5.16009V3.28009H34.1299V1.76009H44.0099V3.28009H40.0099V5.16009ZM46.2099 17.4801V8.67844e-05H48.0899V17.4801H46.2099ZM56.175 1.24009C58.935 1.24009 60.915 2.96009 60.935 5.40009C60.915 7.88009 58.935 9.58009 56.175 9.60009C53.415 9.58009 51.395 7.88009 51.415 5.40009C51.395 2.96009 53.415 1.24009 56.175 1.24009ZM50.535 12.2001C53.735 12.2201 58.155 12.2001 61.975 11.6401L62.135 13.0001C58.155 13.7401 53.915 13.7601 50.775 13.7601L50.535 12.2001ZM53.215 5.40009C53.215 6.96009 54.455 7.98009 56.175 7.96009C57.855 7.98009 59.115 6.96009 59.135 5.40009C59.115 3.88009 57.855 2.86009 56.175 2.84009C54.455 2.86009 53.215 3.88009 53.215 5.40009ZM63.095 17.5201V8.67844e-05H64.935V17.5201H63.095ZM86.303 8.67844e-05V9.04009H84.503V8.67844e-05H86.303ZM72.023 7.68009C74.743 6.82009 76.423 4.70009 76.423 2.44009H72.503V0.920087H82.143V2.44009H78.303C78.303 4.58009 79.983 6.56009 82.703 7.32009L81.783 8.76009C79.743 8.14009 78.203 6.82009 77.403 5.14009C76.623 6.98009 75.023 8.44009 72.863 9.12009L72.023 7.68009ZM74.823 11.2801V9.84009H86.343V14.2001H76.703V15.8801H86.903V17.3201H74.903V12.8401H84.503V11.2801H74.823ZM95.0282 4.44009C95.0282 7.66009 96.8282 10.8401 99.5082 12.0401L98.3882 13.5201C96.3882 12.5401 94.8682 10.5601 94.1082 8.16009C93.3282 10.6801 91.8082 12.8201 89.7882 13.8401L88.6282 12.3601C91.3282 11.0601 93.1282 7.70009 93.1482 4.44009V1.44009H95.0282V4.44009ZM97.5882 7.32009V5.80009H101.468V8.67844e-05H103.308V17.5201H101.468V7.32009H97.5882ZM121.593 8.04009V9.44009H105.593V8.04009H121.593ZM107.473 12.0001V10.6801H119.633V14.5201H109.353V15.9601H120.153V17.2801H107.513V13.2801H117.793V12.0001H107.473ZM107.593 1.76009V0.440087H119.593V4.24009H109.473V5.56009H119.873V6.88009H107.633V3.00009H117.713V1.76009H107.593ZM141.561 8.67844e-05V9.00009H139.721V4.52009H136.001V3.00009H139.721V8.67844e-05H141.561ZM126.921 7.60009C129.641 6.72009 131.261 4.54009 131.281 2.08009V0.560087H133.121V2.08009C133.121 4.32009 134.721 6.40009 137.361 7.24009L136.361 8.68009C134.461 8.02009 133.001 6.70009 132.221 5.02009C131.461 6.90009 129.961 8.36009 127.881 9.08009L126.921 7.60009ZM130.121 11.2801V9.84009H141.561V14.1601H131.961V15.8001H142.161V17.2801H130.161V12.8001H139.721V11.2801H130.121ZM158.886 8.67844e-05V17.4801H157.126V8.67844e-05H158.886ZM143.766 12.4401C147.466 10.2401 149.246 7.28009 149.566 3.68009H144.606V2.16009H151.406C151.406 3.06009 151.346 3.94009 151.206 4.80009H153.566V0.440087H155.326V16.6401H153.566V10.6801H150.566V9.16009H153.566V6.32009H150.846C150.006 9.26009 148.126 11.8001 144.846 13.7601L143.766 12.4401ZM174.372 8.67844e-05V7.08009H177.172V8.64009H174.372V17.4801H172.532V8.67844e-05H174.372ZM160.652 4.24009V2.76009H164.972V0.240087H166.812V2.76009H171.012V4.24009H160.652ZM161.532 9.60009C161.532 7.22009 163.372 5.54009 165.892 5.56009C168.392 5.54009 170.232 7.22009 170.252 9.60009C170.232 12.0201 168.392 13.6801 165.892 13.6801C163.372 13.6801 161.532 12.0201 161.532 9.60009ZM163.332 9.60009C163.312 11.1201 164.392 12.1401 165.892 12.1201C167.372 12.1401 168.472 11.1201 168.492 9.60009C168.472 8.12009 167.372 7.08009 165.892 7.08009C164.392 7.08009 163.312 8.12009 163.332 9.60009ZM191.777 1.68009V3.40009C191.777 5.56009 191.777 7.98009 191.097 11.5601L189.257 11.3601C189.917 7.98009 189.917 5.50009 189.937 3.40009V3.20009H179.297V1.68009H191.777ZM177.617 15.1201V13.6001H183.697V7.44009H185.537V13.6001H193.577V15.1201H177.617ZM197.702 14.4801L196.102 19.8801H194.462L195.502 14.4801H197.702ZM210.161 5.16009C210.161 8.08009 212.081 11.1001 214.801 12.2401L213.761 13.7201C211.701 12.8001 210.081 10.8801 209.261 8.56009C208.441 11.0401 206.801 13.1801 204.761 14.1601L203.681 12.6801C206.321 11.4601 208.281 8.16009 208.281 5.16009V3.28009H204.281V1.76009H214.161V3.28009H210.161V5.16009ZM216.361 17.4801V8.67844e-05H218.241V17.4801H216.361ZM234.527 1.12009V2.64009C234.527 4.28009 234.527 6.10009 234.047 8.60009H236.567V10.1201H229.487V17.5201H227.607V10.1201H220.607V8.60009H232.167C232.687 6.12009 232.687 4.28009 232.687 2.64009V2.60009H222.567V1.12009H234.527ZM251.132 8.67844e-05V6.96009H253.852V8.52009H251.132V17.4801H249.292V8.67844e-05H251.132ZM237.492 12.8001C241.892 10.6201 244.272 7.48009 244.672 3.40009H238.372V1.84009H246.572C246.552 6.90009 244.312 11.4201 238.532 14.2401L237.492 12.8001ZM272.86 11.4401V17.2801H260.78V11.4401H265.9V9.48009H258.86V7.96009H274.82V9.48009H267.78V11.4401H272.86ZM259.74 5.36009C263.12 4.92009 265.88 3.02009 265.9 0.920087V0.160087H267.78V0.920087C267.8 2.96009 270.58 4.92009 273.94 5.36009L273.26 6.80009C270.44 6.40009 267.98 5.04009 266.86 3.18009C265.72 5.06009 263.24 6.38009 260.42 6.80009L259.74 5.36009ZM262.62 15.7601H271.06V12.9201H262.62V15.7601ZM282.465 1.76009C282.445 3.74009 284.065 5.40009 286.785 6.04009L285.945 7.52009C283.845 6.98009 282.305 5.84009 281.525 4.32009C280.745 6.02009 279.165 7.30009 277.025 7.88009L276.145 6.44009C278.885 5.72009 280.545 3.86009 280.545 1.76009V0.760088H282.465V1.76009ZM275.745 9.28009C278.985 9.30009 283.425 9.26009 287.265 8.72009L287.385 10.0801C285.785 10.3801 284.145 10.5601 282.545 10.6601V16.9601H280.665V10.7601C278.985 10.8401 277.385 10.8401 275.985 10.8401L275.745 9.28009ZM288.465 17.5201V8.67844e-05H290.305V17.5201H288.465ZM306.79 5.12009V6.60009H294.75V0.640087H296.59V5.12009H306.79ZM292.63 10.2801V8.80009H308.63V10.2801H292.63ZM294.63 17.0801V11.9601H296.47V15.5601H306.91V17.0801H294.63ZM328.998 8.67844e-05V17.4801H327.198V8.56009H324.958V16.6001H323.238V0.360087H324.958V7.00009H327.198V8.67844e-05H328.998ZM314.838 13.0401V2.08009H316.678V11.4001C318.298 11.4001 320.058 11.2601 322.038 10.8801L322.238 12.4801C319.838 12.9401 317.838 13.0601 315.958 13.0401H314.838ZM335.843 0.600087C338.483 0.600087 340.423 2.22009 340.443 4.52009C340.423 6.82009 338.483 8.42009 335.843 8.40009C333.183 8.42009 331.243 6.82009 331.243 4.52009C331.243 2.22009 333.183 0.600087 335.843 0.600087ZM333.043 4.52009C333.043 5.96009 334.243 6.90009 335.843 6.92009C337.443 6.90009 338.643 5.96009 338.643 4.52009C338.643 3.10009 337.443 2.14009 335.843 2.16009C334.243 2.14009 333.043 3.10009 333.043 4.52009ZM333.883 11.2001V9.72009H345.403V14.1201H335.763V15.8001H345.963V17.2801H333.963V12.7201H343.563V11.2001H333.883ZM343.563 8.92009V8.67844e-05H345.403V8.92009H343.563ZM355.728 0.280087C359.688 0.280087 361.988 1.36009 361.968 3.28009C361.988 5.26009 359.688 6.32009 355.728 6.32009C351.788 6.32009 349.488 5.26009 349.488 3.28009C349.488 1.36009 351.788 0.280087 355.728 0.280087ZM347.768 8.88009V7.40009H363.728V8.88009H347.768ZM349.688 11.6401V10.2401H361.728V14.3201H351.528V15.8801H362.208V17.3201H349.728V13.0001H359.888V11.6401H349.688ZM351.408 3.28009C351.408 4.38009 352.948 4.94009 355.728 4.96009C358.548 4.94009 360.088 4.38009 360.088 3.28009C360.088 2.26009 358.548 1.66009 355.728 1.68009C352.948 1.66009 351.408 2.26009 351.408 3.28009ZM378.016 1.52009V9.72009H369.816V1.52009H378.016ZM371.616 8.24009H376.176V3.04009H371.616V8.24009ZM371.816 17.1201V11.5601H373.656V15.6401H383.656V17.1201H371.816ZM381.056 12.8001V8.67844e-05H382.896V5.24009H385.416V6.76009H382.896V12.8001H381.056ZM400.221 8.32009V9.80009H388.021V1.56009H400.061V3.08009H389.861V8.32009H400.221ZM386.021 15.2001V13.6401H402.061V15.2001H386.021ZM417.067 5.12009V6.60009H405.027V0.640087H406.867V5.12009H417.067ZM402.907 10.2801V8.80009H418.907V10.2801H402.907ZM404.907 17.0801V11.9601H406.747V15.5601H417.187V17.0801H404.907ZM439.315 8.67844e-05V17.4801H437.555V8.67844e-05H439.315ZM424.475 7.56009C424.475 3.76009 425.955 1.40009 428.235 1.40009C430.355 1.40009 431.815 3.42009 432.035 6.72009H433.995V0.320087H435.795V16.6401H433.995V8.20009H432.055C431.875 11.6201 430.395 13.7401 428.235 13.7201C425.955 13.7401 424.475 11.3601 424.475 7.56009ZM426.195 7.56009C426.195 10.3401 426.975 11.9801 428.235 11.9601C429.535 11.9801 430.335 10.3401 430.355 7.56009C430.335 4.76009 429.535 3.14009 428.235 3.12009C426.975 3.14009 426.195 4.76009 426.195 7.56009ZM455.76 8.67844e-05V17.5201H453.92V7.16009H448.68V5.64009H453.92V8.67844e-05H455.76ZM442.12 13.3201V1.92009H443.96V11.7601C446.48 11.7401 448.84 11.5801 451.4 11.0801L451.6 12.6001C448.8 13.1801 446.26 13.3201 443.48 13.3201H442.12ZM464.485 5.16009C464.485 8.08009 466.405 11.1001 469.125 12.2401L468.085 13.7201C466.025 12.8001 464.405 10.8801 463.585 8.56009C462.765 11.0401 461.125 13.1801 459.085 14.1601L458.005 12.6801C460.645 11.4601 462.605 8.16009 462.605 5.16009V3.28009H458.605V1.76009H468.485V3.28009H464.485V5.16009ZM470.685 17.4801V8.67844e-05H472.565V17.4801H470.685ZM488.293 5.32009V7.48009H495.373V8.96009H479.413V7.48009H486.453V5.32009H488.293ZM480.253 4.84009C483.733 4.50009 486.433 2.84009 486.453 0.720087V0.120088H488.333V0.720087C488.313 2.84009 491.013 4.50009 494.493 4.84009L493.813 6.28009C490.973 5.90009 488.493 4.76009 487.373 2.96009C486.253 4.76009 483.773 5.90009 480.933 6.28009L480.253 4.84009ZM481.333 11.6401V10.2401H493.373V14.4001H483.173V15.8801H493.853V17.3201H481.373V13.0401H491.533V11.6401H481.333ZM510.378 0.640087V5.40009H500.098V7.40009H510.778V8.92009H498.218V4.00009H508.498V2.16009H498.178V0.640087H510.378ZM496.298 12.0801V10.6001H512.298V12.0801H505.178V17.5201H503.338V12.0801H496.298ZM519.383 3.16009C519.363 5.68009 520.943 8.10009 523.543 9.08009L522.503 10.5201C520.603 9.76009 519.203 8.24009 518.463 6.34009C517.703 8.38009 516.223 10.0001 514.183 10.8001L513.183 9.36009C515.883 8.34009 517.503 5.84009 517.543 3.16009V1.00009H519.383V3.16009ZM516.343 17.1201V11.7201H518.223V15.6401H528.183V17.1201H516.343ZM522.543 7.52009V6.04009H525.943V4.00009H522.543V2.48009H525.943V8.67844e-05H527.783V13.0401H525.943V7.52009H522.543ZM549.111 8.67844e-05V17.4801H547.231V8.67844e-05H549.111ZM534.711 12.8001C539.391 10.6001 541.651 7.44009 542.011 3.36009H535.591V1.88009H543.911C543.891 7.00009 541.711 11.4401 535.711 14.3201L534.711 12.8001ZM556.276 0.800087C558.576 0.780087 560.356 2.12009 560.756 4.08009H564.196V8.67844e-05H566.036V9.40009H564.196V5.60009H560.776C560.416 7.60009 558.616 8.96009 556.276 8.96009C553.616 8.96009 551.696 7.28009 551.716 4.88009C551.696 2.48009 553.616 0.780087 556.276 0.800087ZM553.476 4.88009C553.456 6.36009 554.636 7.40009 556.276 7.40009C557.896 7.40009 559.056 6.36009 559.076 4.88009C559.056 3.36009 557.896 2.34009 556.276 2.36009C554.636 2.34009 553.456 3.36009 553.476 4.88009ZM554.636 17.2801V10.2401H556.476V12.2801H564.196V10.2401H566.036V17.2801H554.636ZM556.476 15.7601H564.196V13.7201H556.476V15.7601ZM582.841 8.67844e-05V9.40009H581.001V8.67844e-05H582.841ZM568.681 4.88009C568.681 2.46009 570.661 0.800087 573.361 0.800087C576.021 0.800087 578.001 2.46009 578.001 4.88009C578.001 7.26009 576.021 8.92009 573.361 8.92009C570.661 8.92009 568.681 7.26009 568.681 4.88009ZM570.481 4.88009C570.481 6.38009 571.681 7.38009 573.361 7.40009C574.981 7.38009 576.181 6.38009 576.161 4.88009C576.181 3.36009 574.981 2.36009 573.361 2.36009C571.681 2.36009 570.481 3.36009 570.481 4.88009ZM571.401 17.2801V10.2401H573.201V12.2001H581.001V10.2401H582.841V17.2801H571.401ZM573.201 15.7601H581.001V13.6801H573.201V15.7601ZM599.727 8.67844e-05V17.4801H597.887V8.67844e-05H599.727ZM586.287 13.0401V1.72009H588.127V11.4401C590.667 11.4401 593.367 11.2201 596.167 10.6401L596.407 12.2001C593.327 12.8401 590.507 13.0601 587.767 13.0401H586.287ZM615.732 8.67844e-05V6.76009H618.532V8.32009H615.732V17.5201H613.892V8.67844e-05H615.732ZM602.852 13.2001V1.68009H611.012V3.20009H604.692V11.6401C607.632 11.6201 609.832 11.5001 612.332 11.0401L612.572 12.6401C609.832 13.1001 607.492 13.2001 604.252 13.2001H602.852Z" fill="white"/>
</svg>
