<svg width="389" height="29" viewBox="0 0 389 29" fill="none" xmlns="http://www.w3.org/2000/svg">
<path d="M10.406 17.418C10.406 16.176 9.47 15.42 8.102 15.42H5.402V19.326H8.174C9.56 19.326 10.406 18.624 10.406 17.418ZM10.082 11.964C10.082 10.83 9.272 10.164 7.94 10.164H5.402V13.746H7.94C9.272 13.746 10.082 13.116 10.082 11.964ZM12.458 17.634C12.458 19.542 10.91 21 8.354 21H3.35V8.49H8.12C10.766 8.49 12.17 9.948 12.17 11.712C12.17 13.224 11.252 14.142 10.046 14.574C11.378 14.808 12.458 16.14 12.458 17.634ZM16.7399 15.78V21H14.6879V11.082H16.7399V12.522C17.3159 11.532 18.3059 10.92 19.7099 10.92V13.044H19.1879C17.6759 13.044 16.7399 13.674 16.7399 15.78ZM25.7721 12.648C24.3861 12.648 23.2701 13.584 23.0541 15.15H28.5441C28.5081 13.62 27.3021 12.648 25.7721 12.648ZM30.4161 18.048C29.8581 19.776 28.2921 21.162 25.8621 21.162C23.0181 21.162 20.9121 19.146 20.9121 16.032C20.9121 12.918 22.9281 10.92 25.8621 10.92C28.6881 10.92 30.6861 12.882 30.6861 15.798C30.6861 16.14 30.6681 16.464 30.6141 16.806H23.0361C23.1801 18.444 24.3501 19.434 25.8621 19.434C27.1221 19.434 27.8241 18.822 28.2021 18.048H30.4161ZM32.0215 15.996C32.0215 12.936 34.0915 10.92 36.7015 10.92C38.3755 10.92 39.5275 11.712 40.1395 12.522V11.082H42.2095V21H40.1395V19.524C39.5095 20.37 38.3215 21.162 36.6655 21.162C34.0915 21.162 32.0215 19.056 32.0215 15.996ZM40.1395 16.032C40.1395 13.908 38.6815 12.702 37.1335 12.702C35.6035 12.702 34.1275 13.854 34.1275 15.996C34.1275 18.138 35.6035 19.38 37.1335 19.38C38.6815 19.38 40.1395 18.174 40.1395 16.032ZM45.2287 18.246V12.756H44.0587V11.082H45.2287V8.616H47.2987V11.082H49.7107V12.756H47.2987V18.246C47.2987 18.984 47.5867 19.29 48.4507 19.29H49.7107V21H48.0907C46.3267 21 45.2287 20.262 45.2287 18.246ZM51.602 21V7.68H53.654V12.234C54.338 11.406 55.454 10.92 56.732 10.92C58.946 10.92 60.674 12.378 60.674 15.15V21H58.64V15.456C58.64 13.638 57.65 12.702 56.156 12.702C54.644 12.702 53.654 13.638 53.654 15.456V21H51.602ZM62.6074 15.996C62.6074 12.936 64.6774 10.92 67.2874 10.92C68.9614 10.92 70.1134 11.712 70.7254 12.522V11.082H72.7954V21H70.7254V19.524C70.0954 20.37 68.9074 21.162 67.2514 21.162C64.6774 21.162 62.6074 19.056 62.6074 15.996ZM70.7254 16.032C70.7254 13.908 69.2674 12.702 67.7194 12.702C66.1894 12.702 64.7134 13.854 64.7134 15.996C64.7134 18.138 66.1894 19.38 67.7194 19.38C69.2674 19.38 70.7254 18.174 70.7254 16.032ZM77.5426 12.558C78.1906 11.658 79.4326 10.92 80.9986 10.92C83.6266 10.92 85.6606 12.936 85.6606 15.996C85.6606 19.056 83.6086 21.162 80.9986 21.162C79.3606 21.162 78.1906 20.424 77.5426 19.56V21H75.4906V7.68H77.5426V12.558ZM83.5726 15.996C83.5726 13.854 82.0966 12.702 80.5486 12.702C79.0186 12.702 77.5426 13.908 77.5426 16.032C77.5426 18.174 79.0186 19.38 80.5486 19.38C82.0966 19.38 83.5726 18.138 83.5726 15.996ZM87.6898 21V7.68H89.7418V21H87.6898ZM96.6119 12.648C95.2259 12.648 94.1099 13.584 93.8939 15.15H99.3839C99.3479 13.62 98.1419 12.648 96.6119 12.648ZM101.256 18.048C100.698 19.776 99.1319 21.162 96.7019 21.162C93.8579 21.162 91.7519 19.146 91.7519 16.032C91.7519 12.918 93.7679 10.92 96.7019 10.92C99.5279 10.92 101.526 12.882 101.526 15.798C101.526 16.14 101.508 16.464 101.454 16.806H93.8759C94.0199 18.444 95.1899 19.434 96.7019 19.434C97.9619 19.434 98.6639 18.822 99.0419 18.048H101.256ZM108.221 21V8.49H115.583V10.164H110.273V13.854H114.413V15.528H110.273V21H108.221ZM126.467 11.082V21H124.415V19.812C123.767 20.658 122.651 21.144 121.481 21.144C119.159 21.144 117.395 19.686 117.395 16.914V11.082H119.429V16.608C119.429 18.426 120.419 19.362 121.913 19.362C123.425 19.362 124.415 18.426 124.415 16.608V11.082H126.467ZM129.498 18.246V12.756H128.328V11.082H129.498V8.616H131.568V11.082H133.98V12.756H131.568V18.246C131.568 18.984 131.856 19.29 132.72 19.29H133.98V21H132.36C130.596 21 129.498 20.262 129.498 18.246ZM144.853 11.082V21H142.801V19.812C142.153 20.658 141.037 21.144 139.867 21.144C137.545 21.144 135.781 19.686 135.781 16.914V11.082H137.815V16.608C137.815 18.426 138.805 19.362 140.299 19.362C141.811 19.362 142.801 18.426 142.801 16.608V11.082H144.853ZM149.613 15.78V21H147.561V11.082H149.613V12.522C150.189 11.532 151.179 10.92 152.583 10.92V13.044H152.061C150.549 13.044 149.613 13.674 149.613 15.78ZM158.645 12.648C157.259 12.648 156.143 13.584 155.927 15.15H161.417C161.381 13.62 160.175 12.648 158.645 12.648ZM163.289 18.048C162.731 19.776 161.165 21.162 158.735 21.162C155.891 21.162 153.785 19.146 153.785 16.032C153.785 12.918 155.801 10.92 158.735 10.92C161.561 10.92 163.559 12.882 163.559 15.798C163.559 16.14 163.541 16.464 163.487 16.806H155.909C156.053 18.444 157.223 19.434 158.735 19.434C159.995 19.434 160.697 18.822 161.075 18.048H163.289ZM175.15 18.894L178.876 8.49H181.036L176.338 21H173.962L169.246 8.49H171.442L175.15 18.894ZM182.752 21V11.082H184.804V21H182.752ZM183.796 9.768C183.058 9.768 182.482 9.192 182.482 8.454C182.482 7.716 183.058 7.14 183.796 7.14C184.516 7.14 185.092 7.716 185.092 8.454C185.092 9.192 184.516 9.768 183.796 9.768ZM186.814 15.996C186.814 12.936 188.884 10.92 191.494 10.92C193.168 10.92 194.32 11.712 194.932 12.522V11.082H197.002V21H194.932V19.524C194.302 20.37 193.114 21.162 191.458 21.162C188.884 21.162 186.814 19.056 186.814 15.996ZM194.932 16.032C194.932 13.908 193.474 12.702 191.926 12.702C190.396 12.702 188.92 13.854 188.92 15.996C188.92 18.138 190.396 19.38 191.926 19.38C193.474 19.38 194.932 18.174 194.932 16.032ZM211.285 8.472V10.146H206.425V13.818H210.745V15.492H206.425V19.326H211.285V21H204.373V8.472H211.285ZM220.851 21V15.456C220.851 13.638 219.861 12.702 218.367 12.702C216.855 12.702 215.865 13.638 215.865 15.456V21H213.813V11.082H215.865V12.216C216.531 11.406 217.629 10.92 218.817 10.92C221.139 10.92 222.885 12.378 222.885 15.15V21H220.851ZM229.678 12.648C228.292 12.648 227.176 13.584 226.96 15.15H232.45C232.414 13.62 231.208 12.648 229.678 12.648ZM234.322 18.048C233.764 19.776 232.198 21.162 229.768 21.162C226.924 21.162 224.818 19.146 224.818 16.032C224.818 12.918 226.834 10.92 229.768 10.92C232.594 10.92 234.592 12.882 234.592 15.798C234.592 16.14 234.574 16.464 234.52 16.806H226.942C227.086 18.444 228.256 19.434 229.768 19.434C231.028 19.434 231.73 18.822 232.108 18.048H234.322ZM238.664 15.78V21H236.612V11.082H238.664V12.522C239.24 11.532 240.23 10.92 241.634 10.92V13.044H241.112C239.6 13.044 238.664 13.674 238.664 15.78ZM242.836 15.996C242.836 12.936 244.906 10.92 247.516 10.92C249.136 10.92 250.342 11.676 250.954 12.522V11.082H253.024V21.162C253.024 23.862 251.278 25.896 248.182 25.896C245.536 25.896 243.574 24.582 243.322 22.386H245.356C245.662 23.412 246.76 24.114 248.182 24.114C249.766 24.114 250.954 23.142 250.954 21.162V19.506C250.324 20.352 249.136 21.162 247.516 21.162C244.906 21.162 242.836 19.056 242.836 15.996ZM250.954 16.032C250.954 13.908 249.496 12.702 247.948 12.702C246.418 12.702 244.942 13.854 244.942 15.996C244.942 18.138 246.418 19.38 247.948 19.38C249.496 19.38 250.954 18.174 250.954 16.032ZM259.625 18.642L262.523 11.082H264.647L258.563 25.662H256.439L258.455 20.838L254.549 11.082H256.835L259.625 18.642ZM282.967 14.718C282.967 18.48 280.141 21.126 276.577 21.126C273.049 21.126 270.187 18.48 270.187 14.718C270.187 10.974 273.049 8.328 276.577 8.328C280.141 8.328 282.967 10.974 282.967 14.718ZM272.293 14.718C272.293 17.544 274.093 19.344 276.577 19.344C279.061 19.344 280.861 17.544 280.861 14.718C280.861 11.892 279.061 10.128 276.577 10.128C274.093 10.128 272.293 11.892 272.293 14.718ZM287.039 12.54C287.669 11.712 288.875 10.92 290.495 10.92C293.105 10.92 295.157 12.936 295.157 15.996C295.157 19.056 293.105 21.162 290.495 21.162C288.857 21.162 287.687 20.334 287.039 19.56V25.716H284.987V11.082H287.039V12.54ZM293.069 15.996C293.069 13.854 291.593 12.702 290.045 12.702C288.515 12.702 287.039 13.908 287.039 16.032C287.039 18.174 288.515 19.38 290.045 19.38C291.593 19.38 293.069 18.138 293.069 15.996ZM297.51 18.246V12.756H296.34V11.082H297.51V8.616H299.58V11.082H301.992V12.756H299.58V18.246C299.58 18.984 299.868 19.29 300.732 19.29H301.992V21H300.372C298.608 21 297.51 20.262 297.51 18.246ZM303.883 21V11.082H305.935V21H303.883ZM304.927 9.768C304.189 9.768 303.613 9.192 303.613 8.454C303.613 7.716 304.189 7.14 304.927 7.14C305.647 7.14 306.223 7.716 306.223 8.454C306.223 9.192 305.647 9.768 304.927 9.768ZM322.687 21V15.456C322.687 13.638 321.697 12.702 320.203 12.702C318.691 12.702 317.701 13.638 317.701 15.456V21H315.667V15.456C315.667 13.638 314.677 12.702 313.183 12.702C311.671 12.702 310.681 13.638 310.681 15.456V21H308.629V11.082H310.681V12.216C311.347 11.406 312.427 10.92 313.615 10.92C315.181 10.92 316.495 11.586 317.179 12.882C317.791 11.676 319.195 10.92 320.635 10.92C322.957 10.92 324.721 12.378 324.721 15.15V21H322.687ZM327.332 21V11.082H329.384V21H327.332ZM328.376 9.768C327.638 9.768 327.062 9.192 327.062 8.454C327.062 7.716 327.638 7.14 328.376 7.14C329.096 7.14 329.672 7.716 329.672 8.454C329.672 9.192 329.096 9.768 328.376 9.768ZM338.397 11.082V12.756L333.897 19.326H338.397V21H331.521V19.326L336.039 12.756H331.521V11.082H338.397ZM339.867 15.996C339.867 12.936 341.937 10.92 344.547 10.92C346.221 10.92 347.373 11.712 347.985 12.522V11.082H350.055V21H347.985V19.524C347.355 20.37 346.167 21.162 344.511 21.162C341.937 21.162 339.867 19.056 339.867 15.996ZM347.985 16.032C347.985 13.908 346.527 12.702 344.979 12.702C343.449 12.702 341.973 13.854 341.973 15.996C341.973 18.138 343.449 19.38 344.979 19.38C346.527 19.38 347.985 18.174 347.985 16.032ZM353.074 18.246V12.756H351.904V11.082H353.074V8.616H355.144V11.082H357.556V12.756H355.144V18.246C355.144 18.984 355.432 19.29 356.296 19.29H357.556V21H355.936C354.172 21 353.074 20.262 353.074 18.246ZM359.448 21V11.082H361.5V21H359.448ZM360.492 9.768C359.754 9.768 359.178 9.192 359.178 8.454C359.178 7.716 359.754 7.14 360.492 7.14C361.212 7.14 361.788 7.716 361.788 8.454C361.788 9.192 361.212 9.768 360.492 9.768ZM373.644 16.032C373.644 19.146 371.34 21.162 368.496 21.162C365.67 21.162 363.528 19.146 363.528 16.032C363.528 12.918 365.76 10.92 368.586 10.92C371.412 10.92 373.644 12.918 373.644 16.032ZM365.616 16.032C365.616 18.282 366.948 19.38 368.496 19.38C370.026 19.38 371.538 18.282 371.538 16.032C371.538 13.782 370.08 12.702 368.55 12.702C367.002 12.702 365.616 13.782 365.616 16.032ZM382.71 21V15.456C382.71 13.638 381.72 12.702 380.226 12.702C378.714 12.702 377.724 13.638 377.724 15.456V21H375.672V11.082H377.724V12.216C378.39 11.406 379.488 10.92 380.676 10.92C382.998 10.92 384.744 12.378 384.744 15.15V21H382.71Z" fill="#0055FF"/>
</svg>
