<svg width="562" height="23" viewBox="0 0 562 23" fill="none" xmlns="http://www.w3.org/2000/svg">
<path d="M14.4365 3.74414V15.5566H12.8545V3.74414H14.4365ZM0.971642 12.0762C3.04586 11.0918 4.16207 8.94727 4.15328 7.08398V4.83398H5.77047V7.08398C5.77047 8.92969 6.79879 10.793 8.81149 11.6719L7.87984 12.9551C6.48238 12.3135 5.51559 11.1885 4.98824 9.82617C4.41695 11.3379 3.37984 12.6562 1.90328 13.3594L0.971642 12.0762ZM3.99508 19.1602V14.1152H5.64742V17.8066H14.8935V19.1602H3.99508ZM7.40524 8.98242V7.61133H9.70797V4.02539H11.3076V15.0996H9.70797V8.98242H7.40524ZM29.3343 3.74414V19.5293H27.682V10.9336H24.553V9.5625H27.682V3.74414H29.3343ZM16.9241 15.8027V5.15039H24.2894V6.50391H18.6116V9.5625H23.6214V10.8984H18.6116V14.4141C21.2484 14.4141 23.0765 14.335 25.1683 13.9746L25.3441 15.3281C23.0501 15.6973 21.0726 15.7939 18.1546 15.8027H16.9241ZM45.8141 16.1191V17.4902H31.4001V16.1191H37.7106V12.375H39.363V16.1191H45.8141ZM31.8923 11.2852C34.9245 10.7754 37.6315 8.4375 37.6403 5.94141V4.74609H39.3981V5.94141C39.3981 8.4375 42.1403 10.7754 45.1813 11.2852L44.4606 12.6562C41.903 12.1553 39.5651 10.5732 38.528 8.41992C37.4909 10.5645 35.1706 12.1553 32.6305 12.6562L31.8923 11.2852ZM60.0791 3.74414V19.4941H58.4795V11.3203H56.5284V18.7383H54.9639V4.16602H56.5284V9.9668H58.4795V3.74414H60.0791ZM46.544 14.9941C50.042 13.0078 51.5098 10.3271 51.7735 7.11914H47.212V5.74805H53.3995C53.3907 9.8877 52.0196 13.6143 47.5108 16.1543L46.544 14.9941Z" fill="black"/>
<path d="M128.85 7.75195C128.832 10.626 130.573 13.5264 133.016 14.6074L132.014 15.9258C130.203 15.0645 128.771 13.2979 128.033 11.1445C127.303 13.4561 125.853 15.3545 123.963 16.2773L122.944 14.8711C125.422 13.7725 127.162 10.7578 127.162 7.75195V5.0625H128.85V7.75195ZM134.44 19.5293V3.74414H136.11V19.5293H134.44ZM151.394 3.74414V13.2891H149.724V9.86133H147.263V8.47266H149.724V3.74414H151.394ZM138.281 6.64453V5.30859H142.078V3.60352H143.73V5.30859H147.509V6.64453H138.281ZM139.195 10.1777C139.195 8.52539 140.742 7.36523 142.904 7.36523C145.066 7.36523 146.595 8.52539 146.595 10.1777C146.595 11.874 145.066 12.999 142.904 13.0078C140.742 12.999 139.195 11.874 139.195 10.1777ZM140.795 10.1777C140.795 11.1357 141.647 11.7334 142.904 11.7422C144.143 11.7334 144.996 11.1357 144.996 10.1777C144.996 9.25488 144.143 8.63965 142.904 8.64844C141.647 8.63965 140.795 9.25488 140.795 10.1777ZM141.006 19.3008V14.0625H151.394V19.3008H141.006ZM142.658 17.9473H149.759V15.3809H142.658V17.9473ZM158.874 4.67578L154.778 19.916H153.108L157.204 4.67578H158.874ZM173.737 11.9883V13.3242H167.479V16.2246H165.827V13.3242H159.323V11.9883H173.737ZM161.116 19.1602V14.8535H162.768V17.8066H172.137V19.1602H161.116ZM161.221 10.5996V4.23633H162.873V6.15234H170.168V4.23633H171.838V10.5996H161.221ZM162.873 9.26367H170.168V7.40039H162.873V9.26367ZM180.092 6.25781C180.083 8.34961 181.515 10.3184 183.888 11.1094L182.974 12.4453C181.243 11.8125 179.96 10.5469 179.283 8.95605C178.589 10.7051 177.253 12.0762 175.416 12.7793L174.519 11.4258C176.989 10.5732 178.413 8.49902 178.422 6.16992V4.55273H180.092V6.25781ZM176.998 15.2227V13.9043H187.668V19.4941H185.998V15.2227H176.998ZM182.676 8.29688V6.92578H185.998V3.74414H187.668V13.0781H185.998V8.29688H182.676Z" fill="black"/>
<path d="M264.162 3.74414V19.4941H262.475V3.74414H264.162ZM251.225 15.2754C255.408 13.2803 257.456 10.4414 257.782 6.76758H251.981V5.43164H259.469C259.469 10.0459 257.509 14.0361 252.104 16.6289L251.225 15.2754ZM274.297 4.3418C274.305 6.15234 276.801 7.67285 279.869 8.01562L279.289 9.28125C276.705 8.96484 274.446 7.875 273.435 6.2666C272.416 7.875 270.157 8.96484 267.599 9.28125L267.019 8.01562C270.095 7.67285 272.583 6.15234 272.591 4.3418V3.81445H274.297V4.3418ZM266.263 11.5312V10.1953H280.625V11.5312H274.261V12.9375H278.814V16.6641H269.638V18.0527H279.254V19.3359H268.004V15.4512H277.162V14.2207H267.986V12.9375H272.591V11.5312H266.263ZM286.874 4.67578L282.778 19.916H281.108L285.204 4.67578H286.874ZM300.401 3.76172V15.2051H298.731V3.76172H300.401ZM287.657 8.71875C287.665 6.44238 289.476 4.8252 291.858 4.81641C294.231 4.8252 296.041 6.44238 296.041 8.71875C296.041 11.0303 294.231 12.6387 291.858 12.6387C289.476 12.6387 287.665 11.0303 287.657 8.71875ZM289.291 8.71875C289.283 10.2041 290.39 11.1797 291.858 11.1797C293.299 11.1797 294.407 10.2041 294.407 8.71875C294.407 7.26855 293.299 6.27539 291.858 6.27539C290.39 6.27539 289.283 7.26855 289.291 8.71875ZM290.1 19.1602V14.0449H291.787V17.8066H300.875V19.1602H290.1ZM316.898 11.1621V12.5156H302.537V11.1621H316.898ZM303.293 9.01758C306.149 8.70996 308.408 7.42676 308.593 5.88867H303.855V4.51758H315.615V5.88867H310.825C311.018 7.41797 313.242 8.70996 316.16 9.01758L315.562 10.3359C312.829 10.0195 310.57 8.86816 309.718 7.20703C308.847 8.86816 306.606 10.0195 303.873 10.3359L303.293 9.01758ZM304.242 16.6113C304.242 14.7832 306.29 13.7285 309.709 13.7285C313.101 13.7285 315.132 14.7832 315.14 16.6113C315.132 18.4395 313.101 19.4678 309.709 19.459C306.29 19.4678 304.242 18.4395 304.242 16.6113ZM305.929 16.6113C305.921 17.6045 307.301 18.1494 309.709 18.1406C312.082 18.1494 313.47 17.6045 313.47 16.6113C313.47 15.5918 312.082 15.0469 309.709 15.0293C307.301 15.0469 305.921 15.5918 305.929 16.6113Z" fill="black"/>
<path d="M393.368 10.2656V11.6016H387.005V12.9727H391.558V16.6641H382.382V18.0527H391.997V19.3359H380.747V15.4512H389.905V14.2559H380.729V12.9727H385.335V11.6016H379.007V10.2656H393.368ZM380.853 9.10547V4.25391H391.522V9.10547H380.853ZM382.487 7.78711H389.853V5.57227H382.487V7.78711ZM402.061 4.9043V11.9883H394.819V4.9043H402.061ZM395.68 18.1055C398.633 17.6484 400.874 15.9785 400.883 13.8867V13.4297H402.535V13.8867C402.518 15.9785 404.777 17.6484 407.756 18.1055L407.088 19.4238C404.689 19.0107 402.667 17.8506 401.718 16.1631C400.751 17.8506 398.73 19.0107 396.33 19.4238L395.68 18.1055ZM396.453 10.6523H400.409V6.25781H396.453V10.6523ZM404.909 14.1855V3.74414H406.578V7.92773H408.864V9.33398H406.578V14.1855H404.909ZM422.531 3.76172V15.3633H420.861V11.2676H416.95C416.212 12.1553 415.069 12.6914 413.759 12.6914C411.386 12.6914 409.62 11.0303 409.629 8.71875C409.62 6.38965 411.386 4.72852 413.759 4.71094C415.06 4.71973 416.194 5.25586 416.932 6.13477H420.861V3.76172H422.531ZM411.228 8.71875C411.219 10.2041 412.283 11.2236 413.759 11.2148C415.174 11.2236 416.256 10.2041 416.256 8.71875C416.256 7.2334 415.174 6.21387 413.759 6.20508C412.283 6.21387 411.219 7.2334 411.228 8.71875ZM412.3 19.1602V14.1504H413.97V17.8066H422.953V19.1602H412.3ZM417.671 7.48828C417.794 7.875 417.855 8.2793 417.855 8.71875C417.855 9.14062 417.794 9.54492 417.679 9.91406H420.861V7.48828H417.671ZM437.13 4.72852V6.11719C437.13 7.61133 437.13 9.2373 436.69 11.4785H438.958V12.8496H432.577V19.5117H430.89V12.8496H424.597V11.4785H435.003C435.469 9.22852 435.469 7.58496 435.478 6.11719V6.09961H426.355V4.72852H437.13Z" fill="black"/>
<path d="M513.751 5.25586V6.80273C513.742 8.74512 513.742 10.9248 513.153 14.1504L511.466 13.9746C512.072 10.9248 512.072 8.69238 512.081 6.80273V6.60938H502.519V5.25586H513.751ZM501.007 17.3672V15.9785H506.474V10.4238H508.126V15.9785H515.368V17.3672H501.007ZM529.633 3.76172V13.0254H528.051V8.98242H526.153V12.9375H524.571V4.04297H526.153V7.59375H528.051V3.76172H529.633ZM516.203 11.918C519.385 10.6699 521.108 8.70996 521.398 6.24023H516.889V4.88672H523.094C523.094 8.70996 521.046 11.4961 517.012 13.166L516.203 11.918ZM518.875 15.0645V13.7109H529.633V19.4941H527.981V15.0645H518.875ZM537.201 8.38477C537.192 11.0215 538.924 13.7461 541.349 14.7832L540.435 16.084C538.581 15.2666 537.104 13.5264 536.375 11.4258C535.645 13.6758 534.169 15.5918 532.332 16.4883L531.365 15.1699C533.738 14.0537 535.496 11.1006 535.513 8.38477V6.71484H531.91V5.32617H540.787V6.71484H537.201V8.38477ZM542.773 19.4941V3.74414H544.443V19.4941H542.773ZM559.692 3.76172V15.6973H558.022V14.1855H554.858V13.0078H558.022V3.76172H559.692ZM546.526 10.9512C549.436 10.9248 553.364 10.8984 556.722 10.4766L556.827 11.6719C555.482 11.9004 554.067 12.041 552.679 12.1377V15.2051H551.009V12.2256C549.48 12.2871 548.012 12.2871 546.737 12.2871L546.526 10.9512ZM547.757 7.13672C547.748 5.4668 549.339 4.35938 551.677 4.35938C553.98 4.35938 555.579 5.4668 555.579 7.13672C555.579 8.81543 553.98 9.87891 551.677 9.87891C549.348 9.87891 547.748 8.81543 547.757 7.13672ZM548.706 19.1602V14.5371H550.358V17.8066H560.079V19.1602H548.706ZM549.339 7.13672C549.33 8.06836 550.279 8.64844 551.677 8.64844C553.022 8.64844 553.988 8.06836 553.997 7.13672C553.988 6.19629 553.022 5.58984 551.677 5.60742C550.279 5.58984 549.33 6.19629 549.339 7.13672Z" fill="black"/>
</svg>
