<svg width="262" height="60" viewBox="0 0 262 60" fill="none" xmlns="http://www.w3.org/2000/svg">
<path d="M212.624 27.9049V21.9009C212.624 7.01807 201.89 0.280396 191.94 0.280396C178.207 0.280396 168.682 11.1668 168.682 24.2545C168.682 38.2144 177.644 46.8211 188.83 46.8211C197.003 46.8211 201.655 43.5723 204.668 40.6418C205.517 42.114 206.242 43.1431 206.953 44.0291C208.106 45.4182 209.389 46.0689 210.88 46.0689C211.706 46.0689 212.569 45.8704 213.492 45.4736C215.301 44.689 216.459 43.5353 216.833 42.114C217.23 40.6418 216.745 39.2251 216.159 38.3944C214.096 35.3071 212.629 30.9968 212.629 27.9095M200.441 23.1008C200.012 30.5861 195.863 37.0376 188.719 36.3731C183.154 35.8701 179.886 29.9354 180.906 22.6116C181.94 15.2971 186.504 10.1608 192.374 10.6453C198.12 10.9453 200.824 15.7724 200.446 23.1054" fill="white"/>
<path d="M230.6 51.3344C228.394 56.9922 229.201 58.5705 231.421 59.4473C235.256 60.9748 240.614 59.3412 242.506 54.4818L260.329 8.66096C262.525 3.00777 261.727 1.43411 259.503 0.552676C255.672 -0.974837 250.314 0.658818 248.422 5.51825L241.971 22.1225L232.616 4.55836C230.189 -0.00572006 224.688 -0.997911 221.052 0.944938C218.943 2.07096 218.32 3.7 221.149 9.00707L236.128 37.153L230.604 51.339L230.6 51.3344Z" fill="white"/>
<path d="M157.191 0.289649C153.195 0.289649 151.003 2.07559 150.37 5.34752L145.756 31.2645C145.728 31.4168 145.506 31.4214 145.47 31.2737L139.484 6.51507C138.367 2.20942 137.089 0.285034 133.425 0.285034C129.761 0.285034 128.478 2.20942 127.356 6.51507L121.371 31.2737C121.339 31.4214 121.117 31.4122 121.089 31.2645L116.474 5.34752C115.851 2.07098 113.655 0.289649 109.658 0.289649C106.829 0.289649 104.25 1.80793 104.808 4.2538L113.101 40.8541C113.881 44.2968 116.973 46.4243 120.808 46.4243C124.643 46.4243 127.97 44.1676 128.833 40.8541L133.425 21.4764L138.012 40.8541C138.88 44.1676 142.045 46.4243 146.042 46.4243C150.038 46.4243 152.959 44.3014 153.744 40.8541L162.041 4.2538C162.586 1.80793 160.016 0.289649 157.187 0.289649" fill="white"/>
<path d="M74.3773 0.280396C58.8299 0.280396 50.7031 10.7053 50.7031 23.5484C50.7031 36.3916 58.8299 46.8211 74.3773 46.8211C89.9247 46.8211 98.0514 36.3916 98.0514 23.5484C98.0514 10.7053 89.9339 0.280396 74.3773 0.280396ZM74.3773 36.4608C67.7457 36.4608 62.8632 31.6567 62.8632 23.5484C62.8632 15.4402 67.7457 10.6361 74.3773 10.6361C81.0088 10.6361 85.8913 15.4494 85.8913 23.5484C85.8913 31.6475 81.0134 36.4608 74.3773 36.4608Z" fill="white"/>
<path d="M39.6277 32.7228C35.239 36.8392 28.1598 37.7622 23.9372 37.1945C17.9287 36.4008 12.1601 32.6443 12.1601 23.5484C12.1601 15.4494 17.0472 10.6361 23.6788 10.6361C28.1044 10.6361 30.9195 12.0713 34.1083 14.5726C38.0632 17.6784 43.2734 13.6265 42.6596 9.79621C41.9905 5.55516 34.2929 0.280396 23.6742 0.280396C8.12674 0.280396 0 10.7007 0 23.5484C0 35.667 7.17147 46.8211 24.8002 46.8211C34.1037 46.8211 40.7952 42.9816 41.7597 37.7622C42.1843 35.487 40.7768 33.3919 39.6277 32.7228Z" fill="white"/>
</svg>
