<svg width="215" height="41" viewBox="0 0 215 41" fill="none" xmlns="http://www.w3.org/2000/svg">
<path d="M12.6002 9.47143C18.2574 9.47143 21.6002 11.6143 21.6002 15.2143C21.6002 18.3429 19.0717 20.4 14.7002 20.8714V24.2143C17.5288 24.0857 20.4002 23.9143 23.3145 23.6571C24.3002 23.5714 24.8145 24.2143 24.9002 25.1571C24.9859 26.1 24.5574 26.9571 23.6145 27.0429C17.0574 27.6 9.42879 27.8143 1.50022 27.8143C0.471652 27.8143 0.000223099 27.0429 0.000223099 26.1C0.000223099 25.1571 0.471652 24.3857 1.50022 24.3857C4.50022 24.3857 7.50022 24.3857 10.5431 24.3429V20.8714C6.12879 20.4 3.60022 18.3857 3.60022 15.2143C3.60022 11.6143 6.94308 9.47143 12.6002 9.47143ZM29.1431 0.642861C30.2574 0.642861 31.2859 1.2 31.2859 2.4V13.4143H35.4431C36.5574 13.4143 37.0288 14.2286 37.0288 15.2571C37.0288 16.2857 36.5574 17.1429 35.4431 17.1429H31.2859V29.1429C31.2859 30.3429 30.2574 30.9 29.1431 30.9C28.0717 30.9 27.0431 30.3429 27.0431 29.1429V2.4C27.0431 1.2 28.0717 0.642861 29.1431 0.642861ZM7.88594 29.7C8.95737 29.7 10.0288 30.2571 10.0288 31.5V35.3143C10.0288 36 10.2431 36.2143 10.9288 36.2143H30.9002C31.8859 36.2143 32.3145 37.0286 32.3145 37.9714C32.3145 38.9143 31.8859 39.7286 30.9002 39.7286H9.08594C6.60022 39.7286 5.78594 38.9571 5.78594 36.5143V31.5C5.78594 30.2571 6.81451 29.7 7.88594 29.7ZM12.6002 4.26183e-06C13.7145 4.26183e-06 14.7431 0.557148 14.7431 1.75715V4.02857H22.3717C23.3574 4.02857 23.7859 4.8 23.7859 5.74286C23.7859 6.68572 23.3574 7.45715 22.3717 7.45715H2.44308C1.45737 7.45715 1.02879 6.68572 1.02879 5.74286C1.02879 4.8 1.45737 4.02857 2.44308 4.02857H10.4574V1.75715C10.4574 0.557148 11.4431 4.26183e-06 12.6002 4.26183e-06ZM12.6002 12.6C9.12879 12.6 7.50022 13.6286 7.50022 15.2143C7.50022 16.7571 9.12879 17.8286 12.6002 17.8286C16.0717 17.8286 17.7002 16.7571 17.7002 15.2143C17.7002 13.6286 16.0717 12.6 12.6002 12.6ZM40.0355 2.82857H52.5926C55.0783 2.82857 55.8926 3.6 55.8926 6.04286V9.3C55.8926 15.6857 53.7926 17.1429 40.8926 23.2286C39.8641 23.7 38.8355 23.1429 38.3641 22.2429C37.9783 21.3857 37.9783 20.1857 39.0926 19.6714C50.9212 14.1857 51.6069 13.3286 51.6069 9.12857V7.41429C51.6069 6.77143 51.3926 6.51429 50.7069 6.51429H40.0355C39.0069 6.51429 38.5355 5.7 38.5355 4.71429C38.5355 3.68572 39.0069 2.82857 40.0355 2.82857ZM66.9926 0.642861C68.0641 0.642861 69.0926 1.2 69.0926 2.44286V22.3714C69.0926 23.5714 68.0641 24.1286 66.9926 24.1286C65.9212 24.1286 64.8498 23.5714 64.8498 22.3714V18.3H58.8926C57.8641 18.3 57.4355 17.4429 57.4355 16.4571C57.4355 15.4714 57.8641 14.6143 58.8926 14.6143H64.8498V10.3286H59.2355C58.2069 10.3286 57.7783 9.47143 57.7783 8.48572C57.7783 7.5 58.2069 6.64286 59.2355 6.64286H64.8498V2.44286C64.8498 1.2 65.9212 0.642861 66.9926 0.642861ZM56.7498 24.5143C64.6783 24.5143 69.3069 27.2571 69.3069 32.6143C69.3069 37.9714 64.6783 40.7143 56.7498 40.7143C48.8212 40.7143 44.1926 37.9714 44.1926 32.6143C44.1926 27.2571 48.8212 24.5143 56.7498 24.5143ZM56.7498 27.9857C50.9212 27.9857 48.4355 29.7857 48.4355 32.6143C48.4355 35.4429 50.9212 37.2429 56.7498 37.2429C62.5355 37.2429 65.0641 35.4429 65.0641 32.6143C65.0641 29.7857 62.5355 27.9857 56.7498 27.9857ZM79.985 1.54286C81.0565 1.54286 82.085 2.10001 82.085 3.3V6.47143H99.8279V3.3C99.8279 2.10001 100.856 1.54286 101.885 1.54286C102.956 1.54286 104.028 2.10001 104.028 3.3V14.0571C104.028 16.5 103.214 17.2714 100.728 17.2714H81.185C78.6993 17.2714 77.9279 16.5 77.9279 14.0571V3.3C77.9279 2.10001 78.9565 1.54286 79.985 1.54286ZM82.085 13.0714C82.085 13.5429 82.2993 13.7143 82.7708 13.7143H99.1422C99.6136 13.7143 99.8279 13.5429 99.8279 13.0714V9.98572H82.085V13.0714ZM107.456 21C108.485 21 108.956 21.8571 108.956 22.8429C108.956 23.7857 108.485 24.6 107.456 24.6H93.5708V30.2143C93.5708 31.3714 92.6279 31.8429 91.4279 31.8429C90.2708 31.8429 89.3279 31.3714 89.3279 30.2143V24.6H74.4565C73.4279 24.6 72.9565 23.7857 72.9565 22.8429C72.9565 21.8571 73.4279 21 74.4565 21H107.456ZM79.985 27.9857C81.0993 27.9857 82.1279 28.5429 82.1279 29.7857V35.2714C82.1279 35.9143 82.385 36.1714 83.0279 36.1714H103.299C104.328 36.1714 104.799 36.9857 104.799 37.9714C104.799 38.9571 104.328 39.8143 103.299 39.8143H81.0993C78.6136 39.8143 77.8422 39.0429 77.8422 36.6V29.7857C77.8422 28.5429 78.8708 27.9857 79.985 27.9857ZM121.563 1.92858C122.72 1.92858 123.749 2.48572 123.749 3.72858V7.92858C123.749 10.6286 124.52 12.4714 126.535 14.1857C128.549 15.8571 130.349 17.2286 131.72 18.2143C132.663 18.9 132.62 20.0143 132.02 20.8286C131.463 21.5571 130.392 22.0714 129.363 21.3429C128.292 20.5714 126.535 19.2 124.735 17.7C122.635 16.0286 121.863 15 121.649 14.1429H121.606C121.392 15.0857 120.535 16.2 118.477 17.9143C116.677 19.4143 114.877 20.7857 113.12 22.0286C112.135 22.7143 111.02 22.2429 110.463 21.5143C109.906 20.7 109.777 19.5 110.806 18.7714C112.82 17.3571 114.62 15.9429 116.635 14.3143C118.649 12.6 119.42 10.7571 119.42 8.01429V3.72858C119.42 2.48572 120.449 1.92858 121.563 1.92858ZM139.863 0.642861C140.935 0.642861 141.963 1.2 141.963 2.44286V22.0286C141.963 23.2714 140.935 23.8286 139.863 23.8286C138.749 23.8286 137.72 23.2714 137.72 22.0286V12.2143H131.206C130.135 12.2143 129.663 11.4 129.663 10.4143C129.663 9.38572 130.135 8.57143 131.206 8.57143H137.72V2.44286C137.72 1.2 138.749 0.642861 139.863 0.642861ZM117.535 25.6714H138.663C141.149 25.6714 141.963 26.4429 141.963 28.8857V38.7C141.963 39.9429 140.935 40.5 139.82 40.5C138.706 40.5 137.677 39.9429 137.677 38.7V30.2143C137.677 29.5714 137.42 29.3571 136.777 29.3571H117.535C116.463 29.3571 115.992 28.5 115.992 27.5143C115.992 26.5286 116.463 25.6714 117.535 25.6714ZM155.598 2.52858C156.713 2.52858 157.741 3.08572 157.741 4.32858V8.7C157.741 11.6571 158.256 13.5429 160.227 15.6C161.77 17.2714 163.227 18.6 164.341 19.6286C165.113 20.3571 165.07 21.5571 164.384 22.3714C163.698 23.1429 162.541 23.3143 161.684 22.5429C160.698 21.6429 159.584 20.6143 158.298 19.2857C156.456 17.4429 155.813 16.4143 155.641 15.5571H155.598C155.427 16.5429 154.827 17.6143 152.941 19.5C151.398 21.0857 150.327 22.0714 148.827 23.4429C148.013 24.1286 146.856 23.9143 146.17 23.1C145.484 22.3286 145.398 21.1286 146.17 20.4C147.756 18.9857 149.427 17.3571 151.013 15.7286C152.941 13.6714 153.456 11.7857 153.456 8.82858V4.32858C153.456 3.08572 154.527 2.52858 155.598 2.52858ZM169.698 0.857146C170.684 0.857146 171.67 1.37143 171.67 2.52858V26.1429C171.67 27.3 170.684 27.8143 169.698 27.8143C168.67 27.8143 167.684 27.3 167.684 26.1429V13.1571H163.398C162.37 13.1571 161.898 12.3 161.898 11.3143C161.898 10.2857 162.37 9.47143 163.398 9.47143H167.684V2.52858C167.684 1.37143 168.67 0.857146 169.698 0.857146ZM177.37 0.642861C178.398 0.642861 179.384 1.15715 179.384 2.31429V27.9429C179.384 29.0571 178.398 29.6143 177.37 29.6143C176.384 29.6143 175.398 29.0571 175.398 27.9429V2.31429C175.398 1.15715 176.384 0.642861 177.37 0.642861ZM155.47 26.0143C156.541 26.0143 157.613 26.5714 157.613 27.8143V35.0571C157.613 35.7 157.827 35.9143 158.513 35.9143H178.87C179.941 35.9143 180.413 36.7714 180.413 37.8C180.413 38.7857 179.941 39.6429 178.87 39.6429H156.584C154.098 39.6429 153.284 38.8714 153.284 36.4286V27.8143C153.284 26.5714 154.313 26.0143 155.47 26.0143ZM201.462 3.3C202.491 3.3 202.962 4.15715 202.962 5.14286C202.962 6.12858 202.491 6.98572 201.462 6.98572H189.591C188.905 6.98572 188.691 7.20001 188.691 7.84286V13.8857H199.748C200.777 13.8857 201.248 14.6571 201.248 15.6429C201.248 16.6286 200.777 17.4429 199.748 17.4429H188.691V23.6571C188.691 24.3 188.905 24.5143 189.591 24.5143C195.248 24.5143 200.005 24.2571 204.634 23.6143C205.619 23.4857 206.262 24.1714 206.348 25.2C206.477 26.1857 206.091 27.1286 205.148 27.2571C201.162 27.8143 196.062 28.2 187.748 28.2C185.262 28.2 184.448 27.4286 184.448 24.9857V6.51429C184.448 4.07143 185.262 3.3 187.748 3.3H201.462ZM212.691 0.642861C213.805 0.642861 214.834 1.2 214.834 2.44286V35.8714C214.834 37.1143 213.805 37.6714 212.691 37.6714C211.619 37.6714 210.591 37.1143 210.591 35.8714V17.1429H205.019C203.948 17.1429 203.477 16.3286 203.477 15.3C203.477 14.2714 203.948 13.4571 205.019 13.4571H210.591V2.44286C210.591 1.2 211.619 0.642861 212.691 0.642861Z" fill="white"/>
</svg>
