<svg width="239" height="28" viewBox="0 0 239 28" fill="none" xmlns="http://www.w3.org/2000/svg">
<path d="M99.2253 13.0223V10.2204C99.2253 3.27511 94.216 0.130859 89.5729 0.130859C83.1638 0.130859 78.7188 5.21119 78.7188 11.3188C78.7188 17.8334 82.901 21.8499 88.1213 21.8499C91.9354 21.8499 94.1062 20.3337 95.5125 18.9662C95.9087 19.6532 96.2469 20.1334 96.5785 20.5469C97.1169 21.1952 97.7156 21.4988 98.4112 21.4988C98.7967 21.4988 99.1994 21.4062 99.6302 21.221C100.474 20.8549 101.015 20.3165 101.189 19.6532C101.375 18.9662 101.148 18.305 100.875 17.9174C99.9123 16.4766 99.2274 14.4652 99.2274 13.0244M93.5398 10.7804C93.3395 14.2735 91.4034 17.2842 88.0697 16.9741C85.4724 16.7394 83.9477 13.9699 84.4236 10.5521C84.906 7.13866 87.0359 4.7417 89.7753 4.96783C92.4565 5.10782 93.7185 7.36048 93.5419 10.7825" fill="#00A7E1"/>
<path d="M107.612 23.9561C106.583 26.5964 106.96 27.3329 107.996 27.7421C109.785 28.4549 112.286 27.6926 113.169 25.4248L121.486 4.04178C122.511 1.40363 122.138 0.669252 121.1 0.257916C119.313 -0.454924 116.812 0.307448 115.929 2.57518L112.919 10.3238L108.553 2.12724C107.421 -0.00266936 104.853 -0.465692 103.156 0.440971C102.172 0.966448 101.882 1.72667 103.202 4.2033L110.192 17.3381L107.614 23.9582L107.612 23.9561Z" fill="#00A7E1"/>
<path d="M73.3562 0.13521C71.4912 0.13521 70.4683 0.968651 70.1732 2.49555L68.0196 14.5901C68.0067 14.6612 67.9033 14.6634 67.8861 14.5944L65.0929 3.04041C64.5717 1.03111 63.9752 0.133057 62.2652 0.133057C60.5553 0.133057 59.9566 1.03111 59.4333 3.04041L56.64 14.5944C56.625 14.6634 56.5216 14.659 56.5087 14.5901L54.3551 2.49555C54.0643 0.966498 53.0392 0.13521 51.1742 0.13521C49.8541 0.13521 48.6502 0.843743 48.9108 1.98515L52.7808 19.0653C53.1448 20.6719 54.5877 21.6647 56.3773 21.6647C58.1669 21.6647 59.7197 20.6116 60.1224 19.0653L62.2652 10.0224L64.4059 19.0653C64.8108 20.6116 66.2881 21.6647 68.1532 21.6647C70.0182 21.6647 71.3814 20.674 71.7475 19.0653L75.6197 1.98515C75.8738 0.843743 74.6742 0.13521 73.3541 0.13521" fill="#00A7E1"/>
<path d="M34.71 0.130859C27.4546 0.130859 23.6621 4.99583 23.6621 10.9893C23.6621 16.9827 27.4546 21.8499 34.71 21.8499C41.9655 21.8499 45.758 16.9827 45.758 10.9893C45.758 4.99583 41.9698 0.130859 34.71 0.130859ZM34.71 17.015C31.6153 17.015 29.3368 14.7731 29.3368 10.9893C29.3368 7.20542 31.6153 4.96352 34.71 4.96352C37.8048 4.96352 40.0833 7.20972 40.0833 10.9893C40.0833 14.7688 37.8069 17.015 34.71 17.015Z" fill="#00A7E1"/>
<path d="M18.4929 15.2706C16.4448 17.1916 13.1412 17.6224 11.1707 17.3575C8.36671 16.987 5.67472 15.234 5.67472 10.9893C5.67472 7.20972 7.95538 4.96352 11.0501 4.96352C13.1154 4.96352 14.4291 5.63329 15.9172 6.80054C17.7628 8.24991 20.1943 6.35905 19.9078 4.57157C19.5956 2.59242 16.0034 0.130859 11.0479 0.130859C3.79248 0.130859 0 4.99367 0 10.9893C0 16.6446 3.34669 21.8499 11.5734 21.8499C15.9151 21.8499 19.0378 20.0581 19.4879 17.6224C19.686 16.5606 19.0292 15.5829 18.4929 15.2706Z" fill="#00A7E1"/>
<path d="M140.632 8.56C143.272 8.56 144.832 9.56 144.832 11.24C144.832 12.7 143.652 13.66 141.612 13.88V15.44C142.932 15.38 144.272 15.3 145.632 15.18C146.092 15.14 146.332 15.44 146.372 15.88C146.412 16.32 146.212 16.72 145.772 16.76C142.712 17.02 139.152 17.12 135.452 17.12C134.972 17.12 134.752 16.76 134.752 16.32C134.752 15.88 134.972 15.52 135.452 15.52C136.852 15.52 138.252 15.52 139.672 15.5V13.88C137.612 13.66 136.432 12.72 136.432 11.24C136.432 9.56 137.992 8.56 140.632 8.56ZM148.352 4.44C148.872 4.44 149.352 4.7 149.352 5.26V10.4H151.292C151.812 10.4 152.032 10.78 152.032 11.26C152.032 11.74 151.812 12.14 151.292 12.14H149.352V17.74C149.352 18.3 148.872 18.56 148.352 18.56C147.852 18.56 147.372 18.3 147.372 17.74V5.26C147.372 4.7 147.852 4.44 148.352 4.44ZM138.432 18C138.932 18 139.432 18.26 139.432 18.84V20.62C139.432 20.94 139.532 21.04 139.852 21.04H149.172C149.632 21.04 149.832 21.42 149.832 21.86C149.832 22.3 149.632 22.68 149.172 22.68H138.992C137.832 22.68 137.452 22.32 137.452 21.18V18.84C137.452 18.26 137.932 18 138.432 18ZM140.632 4.14C141.152 4.14 141.632 4.4 141.632 4.96V6.02H145.192C145.652 6.02 145.852 6.38 145.852 6.82C145.852 7.26 145.652 7.62 145.192 7.62H135.892C135.432 7.62 135.232 7.26 135.232 6.82C135.232 6.38 135.432 6.02 135.892 6.02H139.632V4.96C139.632 4.4 140.092 4.14 140.632 4.14ZM140.632 10.02C139.012 10.02 138.252 10.5 138.252 11.24C138.252 11.96 139.012 12.46 140.632 12.46C142.252 12.46 143.012 11.96 143.012 11.24C143.012 10.5 142.252 10.02 140.632 10.02ZM153.435 5.46H159.295C160.455 5.46 160.835 5.82 160.835 6.96V8.48C160.835 11.46 159.855 12.14 153.835 14.98C153.355 15.2 152.875 14.94 152.655 14.52C152.475 14.12 152.475 13.56 152.995 13.32C158.515 10.76 158.835 10.36 158.835 8.4V7.6C158.835 7.3 158.735 7.18 158.415 7.18H153.435C152.955 7.18 152.735 6.8 152.735 6.34C152.735 5.86 152.955 5.46 153.435 5.46ZM166.015 4.44C166.515 4.44 166.995 4.7 166.995 5.28V14.58C166.995 15.14 166.515 15.4 166.015 15.4C165.515 15.4 165.015 15.14 165.015 14.58V12.68H162.235C161.755 12.68 161.555 12.28 161.555 11.82C161.555 11.36 161.755 10.96 162.235 10.96H165.015V8.96H162.395C161.915 8.96 161.715 8.56 161.715 8.1C161.715 7.64 161.915 7.24 162.395 7.24H165.015V5.28C165.015 4.7 165.515 4.44 166.015 4.44ZM161.235 15.58C164.935 15.58 167.095 16.86 167.095 19.36C167.095 21.86 164.935 23.14 161.235 23.14C157.535 23.14 155.375 21.86 155.375 19.36C155.375 16.86 157.535 15.58 161.235 15.58ZM161.235 17.2C158.515 17.2 157.355 18.04 157.355 19.36C157.355 20.68 158.515 21.52 161.235 21.52C163.935 21.52 165.115 20.68 165.115 19.36C165.115 18.04 163.935 17.2 161.235 17.2ZM172.078 4.86C172.578 4.86 173.058 5.12 173.058 5.68V7.16H181.338V5.68C181.338 5.12 181.818 4.86 182.298 4.86C182.798 4.86 183.298 5.12 183.298 5.68V10.7C183.298 11.84 182.918 12.2 181.758 12.2H172.638C171.478 12.2 171.118 11.84 171.118 10.7V5.68C171.118 5.12 171.598 4.86 172.078 4.86ZM173.058 10.24C173.058 10.46 173.158 10.54 173.378 10.54H181.018C181.238 10.54 181.338 10.46 181.338 10.24V8.8H173.058V10.24ZM184.898 13.94C185.378 13.94 185.598 14.34 185.598 14.8C185.598 15.24 185.378 15.62 184.898 15.62H178.418V18.24C178.418 18.78 177.978 19 177.418 19C176.878 19 176.438 18.78 176.438 18.24V15.62H169.498C169.018 15.62 168.798 15.24 168.798 14.8C168.798 14.34 169.018 13.94 169.498 13.94H184.898ZM172.078 17.2C172.598 17.2 173.078 17.46 173.078 18.04V20.6C173.078 20.9 173.198 21.02 173.498 21.02H182.958C183.438 21.02 183.658 21.4 183.658 21.86C183.658 22.32 183.438 22.72 182.958 22.72H172.598C171.438 22.72 171.078 22.36 171.078 21.22V18.04C171.078 17.46 171.558 17.2 172.078 17.2ZM191.481 5.04C192.021 5.04 192.501 5.3 192.501 5.88V7.84C192.501 9.1 192.861 9.96 193.801 10.76C194.741 11.54 195.581 12.18 196.221 12.64C196.661 12.96 196.641 13.48 196.361 13.86C196.101 14.2 195.601 14.44 195.121 14.1C194.621 13.74 193.801 13.1 192.961 12.4C191.981 11.62 191.621 11.14 191.521 10.74H191.501C191.401 11.18 191.001 11.7 190.041 12.5C189.201 13.2 188.361 13.84 187.541 14.42C187.081 14.74 186.561 14.52 186.301 14.18C186.041 13.8 185.981 13.24 186.461 12.9C187.401 12.24 188.241 11.58 189.181 10.82C190.121 10.02 190.481 9.16 190.481 7.88V5.88C190.481 5.3 190.961 5.04 191.481 5.04ZM200.021 4.44C200.521 4.44 201.001 4.7 201.001 5.28V14.42C201.001 15 200.521 15.26 200.021 15.26C199.501 15.26 199.021 15 199.021 14.42V9.84H195.981C195.481 9.84 195.261 9.46 195.261 9C195.261 8.52 195.481 8.14 195.981 8.14H199.021V5.28C199.021 4.7 199.501 4.44 200.021 4.44ZM189.601 16.12H199.461C200.621 16.12 201.001 16.48 201.001 17.62V22.2C201.001 22.78 200.521 23.04 200.001 23.04C199.481 23.04 199.001 22.78 199.001 22.2V18.24C199.001 17.94 198.881 17.84 198.581 17.84H189.601C189.101 17.84 188.881 17.44 188.881 16.98C188.881 16.52 189.101 16.12 189.601 16.12ZM207.364 5.32C207.884 5.32 208.364 5.58 208.364 6.16V8.2C208.364 9.58 208.604 10.46 209.524 11.42C210.244 12.2 210.924 12.82 211.444 13.3C211.804 13.64 211.784 14.2 211.464 14.58C211.144 14.94 210.604 15.02 210.204 14.66C209.744 14.24 209.224 13.76 208.624 13.14C207.764 12.28 207.464 11.8 207.384 11.4H207.364C207.284 11.86 207.004 12.36 206.124 13.24C205.404 13.98 204.904 14.44 204.204 15.08C203.824 15.4 203.284 15.3 202.964 14.92C202.644 14.56 202.604 14 202.964 13.66C203.704 13 204.484 12.24 205.224 11.48C206.124 10.52 206.364 9.64 206.364 8.26V6.16C206.364 5.58 206.864 5.32 207.364 5.32ZM213.944 4.54C214.404 4.54 214.864 4.78 214.864 5.32V16.34C214.864 16.88 214.404 17.12 213.944 17.12C213.464 17.12 213.004 16.88 213.004 16.34V10.28H211.004C210.524 10.28 210.304 9.88 210.304 9.42C210.304 8.94 210.524 8.56 211.004 8.56H213.004V5.32C213.004 4.78 213.464 4.54 213.944 4.54ZM217.524 4.44C218.004 4.44 218.464 4.68 218.464 5.22V17.18C218.464 17.7 218.004 17.96 217.524 17.96C217.064 17.96 216.604 17.7 216.604 17.18V5.22C216.604 4.68 217.064 4.44 217.524 4.44ZM207.304 16.28C207.804 16.28 208.304 16.54 208.304 17.12V20.5C208.304 20.8 208.404 20.9 208.724 20.9H218.224C218.724 20.9 218.944 21.3 218.944 21.78C218.944 22.24 218.724 22.64 218.224 22.64H207.824C206.664 22.64 206.284 22.28 206.284 21.14V17.12C206.284 16.54 206.764 16.28 207.304 16.28ZM228.767 5.68C229.247 5.68 229.467 6.08 229.467 6.54C229.467 7 229.247 7.4 228.767 7.4H223.227C222.907 7.4 222.807 7.5 222.807 7.8V10.62H227.967C228.447 10.62 228.667 10.98 228.667 11.44C228.667 11.9 228.447 12.28 227.967 12.28H222.807V15.18C222.807 15.48 222.907 15.58 223.227 15.58C225.867 15.58 228.087 15.46 230.247 15.16C230.707 15.1 231.007 15.42 231.047 15.9C231.107 16.36 230.927 16.8 230.487 16.86C228.627 17.12 226.247 17.3 222.367 17.3C221.207 17.3 220.827 16.94 220.827 15.8V7.18C220.827 6.04 221.207 5.68 222.367 5.68H228.767ZM234.007 4.44C234.527 4.44 235.007 4.7 235.007 5.28V20.88C235.007 21.46 234.527 21.72 234.007 21.72C233.507 21.72 233.027 21.46 233.027 20.88V12.14H230.427C229.927 12.14 229.707 11.76 229.707 11.28C229.707 10.8 229.927 10.42 230.427 10.42H233.027V5.28C233.027 4.7 233.507 4.44 234.007 4.44Z" fill="black"/>
</svg>
