<svg width="616" height="43" viewBox="0 0 616 43" fill="none" xmlns="http://www.w3.org/2000/svg">
<path d="M14.4375 42.1094C5.49609 42.1094 0 36.1484 0 26.8516C0 17.6641 5.57812 11.4297 14.0547 11.4297C21.3281 11.4297 27.6172 15.9961 27.6172 26.4141V28.6016H6.89062C7 33.6602 9.98047 36.668 14.4922 36.6406C17.5547 36.668 19.6055 35.3555 20.5078 33.5781H27.3438C26.0859 38.7188 21.3281 42.1094 14.4375 42.1094ZM6.91797 23.8438H20.9453C20.918 19.7969 18.1836 16.8438 14.1641 16.8438C9.98047 16.8438 7.16406 20.0703 6.91797 23.8438ZM38.9112 24.1172V41.5078H31.9112V11.8125H38.5831V16.8438H38.9659C40.3058 13.5352 43.3409 11.4297 47.7706 11.4297C53.923 11.4297 57.9698 15.4766 57.9425 22.5859V41.5078H50.9972V23.6797C50.9972 19.6875 48.837 17.3086 45.2003 17.3359C41.5089 17.3086 38.9112 19.7969 38.9112 24.1172ZM88.9241 11.8125L78.3147 41.5078H70.6584L60.0491 11.8125H67.4866L74.3225 33.9062H74.6506L81.5412 11.8125H88.9241ZM92.1791 41.5078V11.8125H99.1791V41.5078H92.1791ZM91.6869 3.77344C91.6869 1.69531 93.5189 0 95.7337 0C97.9486 0 99.7806 1.69531 99.7806 3.77344C99.7806 5.87891 97.9486 7.57422 95.7337 7.60156C93.5189 7.57422 91.6869 5.87891 91.6869 3.77344ZM104.731 41.5078V11.8125H111.512V16.7344H111.84C112.907 13.3164 115.75 11.375 119.168 11.375C119.934 11.375 121.028 11.457 121.684 11.5391V17.9922C121.055 17.7734 119.606 17.582 118.457 17.5547C114.575 17.582 111.731 20.2617 111.731 24.0078V41.5078H104.731ZM136.697 42.1094C128.029 42.1094 122.478 35.957 122.478 26.7969C122.478 17.5547 128.029 11.4297 136.697 11.4297C145.392 11.4297 150.943 17.5547 150.916 26.7969C150.943 35.957 145.392 42.1094 136.697 42.1094ZM129.533 26.7422C129.533 32.1836 131.912 36.5312 136.752 36.5312C141.509 36.5312 143.888 32.1836 143.861 26.7422C143.888 21.3008 141.509 16.9258 136.752 16.9531C131.912 16.9258 129.533 21.3008 129.533 26.7422ZM162.21 24.1172V41.5078H155.21V11.8125H161.882V16.8438H162.264C163.604 13.5352 166.639 11.4297 171.069 11.4297C177.221 11.4297 181.268 15.4766 181.241 22.5859V41.5078H174.296V23.6797C174.296 19.6875 172.135 17.3086 168.499 17.3359C164.807 17.3086 162.21 19.7969 162.21 24.1172ZM186.793 41.5078V11.8125H193.465V16.8438H193.848C195.078 13.4531 198.058 11.4297 201.996 11.4297C206.015 11.4297 208.914 13.4805 210.035 16.8438H210.363C211.648 13.5625 214.957 11.4297 219.277 11.4297C224.719 11.4297 228.547 14.9297 228.519 21.5469V41.5078H221.574V22.6406C221.574 18.9492 219.332 17.2812 216.488 17.2812C213.07 17.2812 211.074 19.6055 211.074 22.9688V41.5078H204.293V22.3672C204.265 19.2773 202.242 17.2812 199.262 17.2812C196.254 17.2812 193.793 19.7695 193.793 23.4609V41.5078H186.793ZM247.251 42.1094C238.31 42.1094 232.813 36.1484 232.813 26.8516C232.813 17.6641 238.392 11.4297 246.868 11.4297C254.142 11.4297 260.431 15.9961 260.431 26.4141V28.6016H239.704C239.813 33.6602 242.794 36.668 247.306 36.6406C250.368 36.668 252.419 35.3555 253.321 33.5781H260.157C258.899 38.7188 254.142 42.1094 247.251 42.1094ZM239.731 23.8438H253.759C253.731 19.7969 250.997 16.8438 246.977 16.8438C242.794 16.8438 239.977 20.0703 239.731 23.8438ZM271.725 24.1172V41.5078H264.725V11.8125H271.397V16.8438H271.779C273.119 13.5352 276.154 11.4297 280.584 11.4297C286.736 11.4297 290.783 15.4766 290.756 22.5859V41.5078H283.811V23.6797C283.811 19.6875 281.65 17.3086 278.014 17.3359C274.322 17.3086 271.725 19.7969 271.725 24.1172ZM311.128 11.8125V17.1719H305.277V32.5938C305.277 35.4375 306.698 36.0117 308.448 36.0391C309.269 36.0664 310.636 35.9844 311.511 35.9297V41.6172C310.691 41.7539 309.351 41.918 307.573 41.8906C302.323 41.918 298.277 39.3203 298.331 33.7422V17.1719H294.066V11.8125H298.331V4.70312H305.277V11.8125H311.128ZM314 33.1406C314 26.4688 319.551 24.5273 325.047 24.1719C327.125 24.0078 331.364 23.8164 332.676 23.7617L332.649 21.3828C332.649 18.4297 330.762 16.7344 327.289 16.7344C324.172 16.7344 322.258 18.1562 321.711 20.2891H314.985C315.477 15.2305 320.016 11.4297 327.453 11.4297C333.086 11.4297 339.594 13.7539 339.594 21.6562V41.5078H332.922V37.4062H332.703C331.391 39.9219 328.629 42.1094 323.953 42.1094C318.293 42.1094 314 39.0195 314 33.1406ZM320.727 33.0859C320.727 35.6562 322.832 36.9688 325.758 36.9688C329.996 36.9688 332.703 34.1797 332.703 30.8438L332.676 28.4102C331.418 28.4648 327.535 28.7109 326.141 28.8203C322.832 29.0938 320.727 30.4883 320.727 33.0859ZM352.037 1.91406V41.5078H345.037V1.91406H352.037ZM368.39 33.1406C368.39 26.4688 373.941 24.5273 379.437 24.1719C381.515 24.0078 385.754 23.8164 387.066 23.7617L387.039 21.3828C387.039 18.4297 385.152 16.7344 381.679 16.7344C378.562 16.7344 376.648 18.1562 376.101 20.2891H369.375C369.867 15.2305 374.406 11.4297 381.843 11.4297C387.476 11.4297 393.984 13.7539 393.984 21.6562V41.5078H387.312V37.4062H387.093C385.781 39.9219 383.019 42.1094 378.343 42.1094C372.683 42.1094 368.39 39.0195 368.39 33.1406ZM375.117 33.0859C375.117 35.6562 377.222 36.9688 380.148 36.9688C384.386 36.9688 387.093 34.1797 387.093 30.8438L387.066 28.4102C385.808 28.4648 381.925 28.7109 380.531 28.8203C377.222 29.0938 375.117 30.4883 375.117 33.0859ZM406.427 24.1172V41.5078H399.427V11.8125H406.098V16.8438H406.481C407.821 13.5352 410.856 11.4297 415.286 11.4297C421.438 11.4297 425.485 15.4766 425.458 22.5859V41.5078H418.513V23.6797C418.513 19.6875 416.352 17.3086 412.716 17.3359C409.024 17.3086 406.427 19.7969 406.427 24.1172ZM442.057 42.0547C435.084 42.0273 429.807 36.4492 429.807 26.6875C429.807 16.7891 435.221 11.4297 442.111 11.4297C447.334 11.4297 449.521 14.5742 450.588 16.6797H450.861V1.91406H457.807V41.5078H450.971V36.8047H450.588C449.467 38.9922 447.197 42.0273 442.057 42.0547ZM436.916 26.6328C436.916 32.2383 439.377 36.3125 443.971 36.3125C448.482 36.3125 451.025 32.4297 451.025 26.6328C451.025 20.8633 448.51 17.1445 443.971 17.1172C439.322 17.1445 436.916 21.1094 436.916 26.6328ZM482.09 41.5078L473.668 11.8125H480.777L486.027 32.7031H486.301L491.606 11.8125H498.66L504.02 32.5938H504.293L509.488 11.8125H516.598L508.176 41.5078H500.902L495.324 21.3828H494.942L489.363 41.5078H482.09ZM518.54 33.1406C518.54 26.4688 524.091 24.5273 529.587 24.1719C531.665 24.0078 535.904 23.8164 537.216 23.7617L537.189 21.3828C537.189 18.4297 535.302 16.7344 531.829 16.7344C528.712 16.7344 526.798 18.1562 526.251 20.2891H519.525C520.017 15.2305 524.556 11.4297 531.993 11.4297C537.626 11.4297 544.134 13.7539 544.134 21.6562V41.5078H537.462V37.4062H537.243C535.931 39.9219 533.169 42.1094 528.493 42.1094C522.833 42.1094 518.54 39.0195 518.54 33.1406ZM525.267 33.0859C525.267 35.6562 527.372 36.9688 530.298 36.9688C534.536 36.9688 537.243 34.1797 537.243 30.8438L537.216 28.4102C535.958 28.4648 532.075 28.7109 530.681 28.8203C527.372 29.0938 525.267 30.4883 525.267 33.0859ZM564.397 11.8125V17.1719H558.545V32.5938C558.545 35.4375 559.967 36.0117 561.717 36.0391C562.537 36.0664 563.905 35.9844 564.78 35.9297V41.6172C563.959 41.7539 562.62 41.918 560.842 41.8906C555.592 41.918 551.545 39.3203 551.6 33.7422V17.1719H547.334V11.8125H551.6V4.70312H558.545V11.8125H564.397ZM581.488 42.1094C572.546 42.1094 567.05 36.1484 567.05 26.8516C567.05 17.6641 572.628 11.4297 581.105 11.4297C588.378 11.4297 594.667 15.9961 594.667 26.4141V28.6016H573.941C574.05 33.6602 577.031 36.668 581.542 36.6406C584.605 36.668 586.656 35.3555 587.558 33.5781H594.394C593.136 38.7188 588.378 42.1094 581.488 42.1094ZM573.968 23.8438H587.996C587.968 19.7969 585.234 16.8438 581.214 16.8438C577.031 16.8438 574.214 20.0703 573.968 23.8438ZM598.962 41.5078V11.8125H605.743V16.7344H606.071C607.137 13.3164 609.981 11.375 613.399 11.375C614.165 11.375 615.258 11.457 615.915 11.5391V17.9922C615.286 17.7734 613.837 17.582 612.688 17.5547C608.805 17.582 605.962 20.2617 605.962 24.0078V41.5078H598.962Z" fill="black"/>
</svg>
