<svg width="190" height="26" viewBox="0 0 190 26" fill="none" xmlns="http://www.w3.org/2000/svg">
<path d="M7.17188 25.4531L0 0H4.92188L9.52734 18.7383H9.77344L14.6602 0H19.1602L24.082 18.7734H24.293L28.8984 0H33.8203L26.6484 25.4531H22.1133L17.0156 7.55859H16.8398L11.707 25.4531H7.17188ZM40.3073 14.2734V25.4531H35.8073V0H40.2019V9.59766H40.448C41.3093 7.43555 43.1726 6.11719 46.1081 6.11719C50.0632 6.11719 52.6823 8.68359 52.6823 13.2891V25.4531H48.2175V13.9922C48.1999 11.3906 46.8112 9.89648 44.4558 9.91406C42.03 9.89648 40.3073 11.4961 40.3073 14.2734ZM55.3373 20.0742C55.3373 15.7852 58.9057 14.5371 62.4389 14.3086C63.7748 14.2031 66.4995 14.0801 67.3432 14.0449L67.3256 12.5156C67.3256 10.6172 66.1127 9.52734 63.8803 9.52734C61.8764 9.52734 60.6459 10.4414 60.2944 11.8125H55.9702C56.2866 8.56055 59.2045 6.11719 63.9858 6.11719C67.6069 6.11719 71.7905 7.61133 71.7905 12.6914V25.4531H67.5014V22.8164H67.3608C66.517 24.4336 64.7416 25.8398 61.7358 25.8398C58.0971 25.8398 55.3373 23.8535 55.3373 20.0742ZM59.6616 20.0391C59.6616 21.6914 61.0151 22.5352 62.8959 22.5352C65.6205 22.5352 67.3608 20.7422 67.3608 18.5977L67.3432 17.0332C66.5346 17.0684 64.0385 17.2266 63.142 17.2969C61.0151 17.4727 59.6616 18.3691 59.6616 20.0391ZM84.8166 6.36328V9.80859H81.0548V19.7227C81.0548 21.5508 81.9689 21.9199 83.0939 21.9375C83.6212 21.9551 84.5002 21.9023 85.0627 21.8672V25.5234C84.5353 25.6113 83.674 25.7168 82.5314 25.6992C79.1564 25.7168 76.5548 24.0469 76.59 20.4609V9.80859H73.8478V6.36328H76.59V1.79297H81.0548V6.36328H84.8166ZM99.3375 25.4531L93.9234 6.36328H98.4938L101.869 19.793H102.045L105.455 6.36328H109.99L113.435 19.7227H113.611L116.951 6.36328H121.521L116.107 25.4531H111.431L107.845 12.5156H107.599L104.013 25.4531H99.3375ZM131.594 25.8398C125.846 25.8398 122.313 22.0078 122.313 16.0312C122.313 10.125 125.899 6.11719 131.348 6.11719C136.024 6.11719 140.067 9.05273 140.067 15.75V17.1562H126.743C126.813 20.4082 128.729 22.3418 131.629 22.3242C133.598 22.3418 134.916 21.498 135.496 20.3555H139.891C139.082 23.6602 136.024 25.8398 131.594 25.8398ZM126.76 14.0977H135.778C135.76 11.4961 134.002 9.59766 131.418 9.59766C128.729 9.59766 126.918 11.6719 126.76 14.0977ZM157.752 25.8047C153.269 25.7871 149.877 22.2012 149.877 15.9258C149.877 9.5625 153.357 6.11719 157.787 6.11719C161.144 6.11719 162.551 8.13867 163.236 9.49219H163.412V0H167.877V25.4531H163.482V22.4297H163.236C162.515 23.8359 161.056 25.7871 157.752 25.8047ZM154.447 15.8906C154.447 19.4941 156.029 22.1133 158.982 22.1133C161.883 22.1133 163.517 19.6172 163.517 15.8906C163.517 12.1816 161.9 9.79102 158.982 9.77344C155.994 9.79102 154.447 12.3398 154.447 15.8906ZM180.024 25.8398C174.452 25.8398 170.883 21.8848 170.883 15.9961C170.883 10.0547 174.452 6.11719 180.024 6.11719C185.614 6.11719 189.182 10.0547 189.165 15.9961C189.182 21.8848 185.614 25.8398 180.024 25.8398ZM175.418 15.9609C175.418 19.459 176.948 22.2539 180.059 22.2539C183.118 22.2539 184.647 19.459 184.629 15.9609C184.647 12.4629 183.118 9.65039 180.059 9.66797C176.948 9.65039 175.418 12.4629 175.418 15.9609Z" fill="black"/>
</svg>
