<svg width="365" height="99" viewBox="0 0 365 99" fill="none" xmlns="http://www.w3.org/2000/svg">
<path d="M12.5391 6.46875V7.73438C12.5156 9.17578 12.5156 11.2852 12.0234 13.9688L9.44531 13.7344C9.86719 11.5547 9.94922 9.92578 9.97266 8.625H1.73438V6.46875H12.5391ZM0.46875 15.6562C1.72266 15.6445 3.12891 15.6328 4.61719 15.6094V11.2969H7.19531V15.5273C9.38672 15.4336 11.6367 15.2695 13.6875 14.9766L13.8281 16.8516C9.42188 17.6484 4.41797 17.7305 0.703125 17.7422L0.46875 15.6562ZM3.63281 25.6641V19.3594H6.25781V23.5547H18.2812V25.6641H3.63281ZM14.9297 20.7656V4.89844H17.6016V11.5078H20.3438V13.6875H17.6016V20.7656H14.9297ZM38.0981 10.4062V12.5156H23.4731V5.27344H26.0747V10.4062H38.0981ZM20.9653 16.6641V14.5547H40.3013V16.6641H20.9653ZM23.2153 22.1016C23.2153 19.6055 25.9927 18.1992 30.5981 18.1875C35.1684 18.1992 37.9223 19.6055 37.9341 22.1016C37.9223 24.5859 35.1684 25.9922 30.5981 25.9922C25.9927 25.9922 23.2153 24.5859 23.2153 22.1016ZM25.8638 22.1016C25.852 23.3203 27.5161 23.9883 30.5981 24C33.6333 23.9883 35.3091 23.3203 35.3325 22.1016C35.3091 20.8477 33.6333 20.2383 30.5981 20.2266C27.5161 20.2383 25.852 20.8477 25.8638 22.1016ZM53.0634 6.375V8.48438H51.1884V14.4961C51.9619 14.4375 52.7353 14.3672 53.4619 14.2734V12.375H56.3681V10.5469H53.4619V8.46094H56.3681V4.89844H58.9697V17.8828H56.3681V14.4609H53.5205L53.6259 16.1953C49.583 16.8633 44.9072 16.9336 41.5322 16.9453L41.2509 14.7891C41.9892 14.7891 42.7978 14.7891 43.6416 14.7773V8.48438H41.79V6.375H53.0634ZM44.6025 22.1719C44.5791 19.6758 47.3095 18.2578 51.7978 18.2578C56.3213 18.2578 59.0283 19.6758 59.04 22.1719C59.0283 24.6094 56.3213 26.0625 51.7978 26.0625C47.3095 26.0625 44.5791 24.6094 44.6025 22.1719ZM46.1728 14.7422C46.9931 14.7188 47.8369 14.6836 48.6806 14.6484V8.48438H46.1728V14.7422ZM47.1806 22.1719C47.1689 23.4023 48.833 24.0469 51.7978 24.0469C54.7744 24.0469 56.4384 23.4023 56.4384 22.1719C56.4384 20.918 54.7744 20.25 51.7978 20.25C48.833 20.25 47.1689 20.918 47.1806 22.1719ZM78.0834 4.89844V13.1719H81.2241V15.3516H78.0834V26.0391H75.4819V4.89844H78.0834ZM61.3725 20.25C66.5288 17.6719 69.3178 14.0859 69.8334 9.25781H62.5209V7.10156H72.4819C72.4702 13.3242 69.892 18.7969 62.8491 22.2656L61.3725 20.25Z" fill="black"/>
<path d="M13.2188 62.25V63.25H7.48438V64.625H11.5938V67.7344H3.34375V69.1406H12.0156V70.1094H2.125V66.8125H10.3906V65.5781H2.09375V64.625H6.26562V63.25H0.5625V62.25H13.2188ZM2.20312 61.0781V56.8438H11.5781V61.0781H2.20312ZM3.42188 60.0938H10.3594V57.8281H3.42188V60.0938ZM18.6175 57.3906C20.7972 57.3984 22.3441 58.7266 22.3519 60.6562C22.3441 62.5938 20.7972 63.9141 18.6175 63.9219C16.4222 63.9141 14.8597 62.5938 14.8675 60.6562C14.8597 58.7266 16.4222 57.3984 18.6175 57.3906ZM14.1488 66.1875C16.7113 66.1953 20.2503 66.1719 23.3206 65.7188L23.4144 66.625C20.2347 67.2188 16.8206 67.2344 14.3206 67.2344L14.1488 66.1875ZM16.0706 60.6562C16.0628 61.9531 17.1331 62.8438 18.6175 62.8438C20.0863 62.8438 21.1566 61.9531 21.1488 60.6562C21.1566 59.3672 20.0863 58.4688 18.6175 58.4688C17.1331 58.4688 16.0628 59.3672 16.0706 60.6562ZM24.2425 70.2969V56.375H25.4613V70.2969H24.2425ZM42.7275 56.375V64.4531H41.5244V56.375H42.7275ZM32.0088 63.1719V56.9688H33.2275V59.125H37.3213V56.9688H38.54V63.1719H32.0088ZM33.0088 69.3281C35.3603 69.0625 37.6259 67.7656 37.6963 66.4062H33.5869V65.4375H37.7119V64.0938H38.9306V65.4375H43.0869V66.4062H38.9619C39.0244 67.7266 41.2275 69.0312 43.5713 69.3125L43.1181 70.2656C41.0478 69.9766 39.1416 69 38.3213 67.7188C37.4931 69.0312 35.54 69.9844 33.4463 70.2656L33.0088 69.3281ZM33.2275 62.1875H37.3213V60.0781H33.2275V62.1875ZM55.6419 56.375V59.4219H57.7356V60.4531H55.6419V63.4844H54.4231V56.375H55.6419ZM44.8606 62.1562C46.47 61.1406 47.4544 60.0391 47.6809 58.1719H45.1731V57.1562H48.8763C48.8684 59.8516 47.7747 61.5 45.6888 62.9375L44.8606 62.1562ZM46.7356 65.1094V64.1406H55.6419V67.5156H47.9856V69.0938H56.2044V70.0781H46.7825V66.5625H54.4544V65.1094H46.7356ZM48.8294 62.8281C50.6184 61.5703 51.4544 60.1641 51.6341 58.1719H49.4388V57.1562H52.8294C52.8138 59.8828 51.9544 61.8984 49.7044 63.5625L48.8294 62.8281ZM60.5719 67.9531L59.3531 72.2031H58.1969L59.0563 67.9531H60.5719ZM72.635 57.4375V63.6094H66.3538V57.4375H72.635ZM67.1038 69.2344C69.5491 68.8203 71.7913 67.3672 71.7913 65.3594V64.9375H73.01V65.3594C73.0022 67.3672 75.2522 68.8203 77.7131 69.2344L77.2131 70.2031C75.1506 69.8203 73.2444 68.7656 72.4163 67.1641C71.5647 68.7656 69.6506 69.8203 67.5881 70.2031L67.1038 69.2344ZM67.5569 62.6094H71.4163V58.4531H67.5569V62.6094ZM75.4006 65.625V56.375H76.6194V60.1875H78.7131V61.2188H76.6194V65.625H75.4006ZM81.5494 67.9531L80.3306 72.2031H79.1744L80.0338 67.9531H81.5494ZM98.5344 56.3906V64.2969H97.3625V60.9219H95.3938V64.2188H94.2375V56.6562H95.3938V59.9062H97.3625V56.3906H98.5344ZM87.4406 63.2969V57.2656H88.6594V62.2656C90.1203 62.2578 91.5344 62.1797 93.2063 61.8438L93.3625 62.875C91.4641 63.2422 89.9406 63.2969 88.3 63.2969H87.4406ZM89.3469 70.0781V64.9531H98.5344V70.0781H89.3469ZM90.5344 69.0781H97.3313V65.9688H90.5344V69.0781ZM104.402 60.2969C104.402 62.5781 105.503 64.9375 107.355 65.9375L106.621 66.9062C105.277 66.1406 104.316 64.7188 103.816 63.0469C103.3 64.8672 102.269 66.4219 100.886 67.25L100.089 66.3438C102.027 65.2344 103.222 62.7578 103.214 60.375V57.6875H104.402V60.2969ZM107.871 69.5625V56.6719H109.058V61.9688H110.964V56.375H112.152V70.2656H110.964V62.9844H109.058V69.5625H107.871ZM130.121 62.9844V64.0156H117.449V62.9844H130.121ZM118.981 67.7344C118.973 66.1406 120.777 65.2344 123.777 65.2344C126.754 65.2344 128.543 66.1406 128.559 67.7344C128.543 69.3438 126.754 70.2344 123.777 70.2344C120.777 70.2344 118.973 69.3438 118.981 67.7344ZM119.059 61.6562V56.9375H128.543V57.9688H120.262V60.6562H128.637V61.6562H119.059ZM120.231 67.7344C120.215 68.7109 121.551 69.2656 123.777 69.2656C125.981 69.2656 127.317 68.7109 127.324 67.7344C127.317 66.7656 125.981 66.2031 123.777 66.1875C121.551 66.2031 120.215 66.7656 120.231 67.7344ZM137.286 56.625C140.372 56.625 142.184 57.4766 142.192 59.0156C142.184 60.5938 140.372 61.4453 137.286 61.4531C134.184 61.4453 132.364 60.5938 132.364 59.0156C132.364 57.4766 134.184 56.625 137.286 56.625ZM130.958 63.3906V62.3906H143.614V63.3906H130.958ZM132.489 65.5312V64.5938H141.989V67.7031H133.739V69.1406H142.411V70.1094H132.52V66.7969H140.786V65.5312H132.489ZM133.645 59.0156C133.629 59.9844 134.981 60.5156 137.286 60.5156C139.59 60.5156 140.934 59.9844 140.942 59.0156C140.934 58.1016 139.59 57.5547 137.286 57.5469C134.981 57.5547 133.629 58.1016 133.645 59.0156ZM152.818 60.1094C152.818 62.5547 154.435 65.0781 156.411 66.0469L155.661 67.0312C154.13 66.2344 152.849 64.5859 152.232 62.6562C151.614 64.7031 150.302 66.4609 148.739 67.2969L147.958 66.3125C149.989 65.3125 151.599 62.6484 151.614 60.1094V57.5781H152.818V60.1094ZM157.693 70.2656V56.375H158.911V62.0156H161.239V63.0781H158.911V70.2656H157.693ZM172.529 56.3906V59.9531H174.638V61H172.529V64.6719H171.31V56.3906H172.529ZM162.263 58.1562V57.1406H168.56V60.9375H163.497V62.9062C165.966 62.9141 167.755 62.8359 169.919 62.4844L170.044 63.4688C167.818 63.8594 165.958 63.9375 163.372 63.9375H162.294V59.9844H167.357V58.1562H162.263ZM163.732 70.0781V65.3594H172.529V70.0781H163.732ZM164.935 69.0781H171.341V66.3125H164.935V69.0781ZM179.724 57.3906C181.904 57.3984 183.451 58.7266 183.459 60.6562C183.451 62.5938 181.904 63.9141 179.724 63.9219C177.529 63.9141 175.967 62.5938 175.974 60.6562C175.967 58.7266 177.529 57.3984 179.724 57.3906ZM175.256 66.1875C177.818 66.1953 181.357 66.1719 184.428 65.7188L184.521 66.625C181.342 67.2188 177.928 67.2344 175.428 67.2344L175.256 66.1875ZM177.178 60.6562C177.17 61.9531 178.24 62.8438 179.724 62.8438C181.193 62.8438 182.263 61.9531 182.256 60.6562C182.263 59.3672 181.193 58.4688 179.724 58.4688C178.24 58.4688 177.17 59.3672 177.178 60.6562ZM185.349 70.2969V56.375H186.568V70.2969H185.349ZM203.241 56.375V59.7812H205.334V60.7969H203.241V64.2656H202.022V56.375H203.241ZM192.366 63.4219C195.78 62.5 197.866 60.6484 198.123 58.2969H192.991V57.2812H199.444C199.428 60.7812 196.983 63.2891 192.866 64.4062L192.366 63.4219ZM194.444 70.0781V64.9062H203.241V70.0781H194.444ZM195.663 69.0781H202.022V65.9219H195.663V69.0781ZM216.749 56.375V59.9062H218.842V60.9531H216.749V64.5312H215.53V56.375H216.749ZM205.874 63.4219C209.28 62.5 211.382 60.6406 211.632 58.2812H206.499V57.2656H212.936C212.928 60.7812 210.475 63.2891 206.374 64.375L205.874 63.4219ZM207.655 66.1719V65.1719H216.749V70.2656H215.53V66.1719H207.655ZM231.304 56.375V70.2656H230.116V56.375H231.304ZM219.569 62.375C219.577 59.4219 220.749 57.5547 222.554 57.5469C224.241 57.5547 225.382 59.1797 225.538 61.7969H227.335V56.6719H228.507V69.5625H227.335V62.8125H225.546C225.429 65.5156 224.265 67.2109 222.554 67.2031C220.749 67.2109 219.577 65.3281 219.569 62.375ZM220.726 62.375C220.71 64.625 221.429 66.0469 222.554 66.0312C223.687 66.0469 224.405 64.625 224.398 62.375C224.405 60.1172 223.687 58.7031 222.554 58.7031C221.429 58.7031 220.71 60.1172 220.726 62.375ZM241.148 57.3906C243.328 57.3984 244.875 58.7266 244.883 60.6562C244.875 62.5938 243.328 63.9141 241.148 63.9219C238.953 63.9141 237.39 62.5938 237.398 60.6562C237.39 58.7266 238.953 57.3984 241.148 57.3906ZM236.679 66.1875C239.242 66.1953 242.781 66.1719 245.851 65.7188L245.945 66.625C242.765 67.2188 239.351 67.2344 236.851 67.2344L236.679 66.1875ZM238.601 60.6562C238.593 61.9531 239.664 62.8438 241.148 62.8438C242.617 62.8438 243.687 61.9531 243.679 60.6562C243.687 59.3672 242.617 58.4688 241.148 58.4688C239.664 58.4688 238.593 59.3672 238.601 60.6562ZM246.773 70.2969V56.375H247.992V70.2969H246.773ZM257.047 58.7812V59.7812H250.078V58.7812H252.969V56.7969H254.188V58.7812H257.047ZM250.578 63.875C250.578 62.0312 251.836 60.7266 253.562 60.7188C255.312 60.7266 256.562 62.0312 256.578 63.875C256.562 65.7422 255.312 67.0547 253.562 67.0625C251.836 67.0547 250.578 65.7422 250.578 63.875ZM251.672 63.875C251.672 65.1094 252.461 65.9922 253.562 65.9844C254.672 65.9922 255.484 65.1094 255.484 63.875C255.484 62.6562 254.672 61.7656 253.562 61.75C252.461 61.7656 251.672 62.6562 251.672 63.875ZM257.766 69.5781V56.7188H258.922V62.2344H260.766V56.375H261.938V70.2656H260.766V63.25H258.922V69.5781H257.766ZM279.969 63.3906V64.3906H267.313V63.3906H279.969ZM268.063 61.6562C270.665 61.4297 272.868 60.3516 272.969 58.7656H268.626V57.7812H273.032V56.3438H274.235V57.7812H278.688V58.7656H274.313C274.399 60.3516 276.594 61.4297 279.219 61.6562L278.813 62.625C276.524 62.3672 274.477 61.5312 273.641 60.125C272.79 61.5312 270.743 62.3672 268.469 62.625L268.063 61.6562ZM268.719 66.8906V65.8906H278.407V70.2656H277.172V66.8906H268.719ZM292.337 56.375V64.6562H291.103V61.0156H288.306V60H291.103V56.375H292.337ZM280.884 63.5469C282.946 62.8047 284.415 60.9219 284.415 58.9375V58.4219H281.274V57.3906H288.759V58.4219H285.649V58.9219C285.649 60.7344 287.04 62.4609 289.071 63.1562L288.431 64.1406C286.876 63.5781 285.665 62.4062 285.063 60.9766C284.47 62.6016 283.181 63.8984 281.524 64.5312L280.884 63.5469ZM283.071 67.6719C283.063 66.0391 284.837 65.0859 287.728 65.0938C290.61 65.0859 292.384 66.0391 292.384 67.6719C292.384 69.3125 290.61 70.25 287.728 70.2656C284.837 70.25 283.063 69.3125 283.071 67.6719ZM284.29 67.6719C284.282 68.6797 285.595 69.2891 287.728 69.2812C289.853 69.2891 291.165 68.6797 291.165 67.6719C291.165 66.6562 289.853 66.0469 287.728 66.0469C285.595 66.0469 284.282 66.6562 284.29 67.6719ZM305.079 56.375V62.1094H307.408V63.125H305.079V70.2656H303.861V56.375H305.079ZM294.251 59.625V58.6094H297.829V56.5469H299.048V58.6094H302.517V59.625H294.251ZM295.048 63.9688C295.04 62.0938 296.478 60.7812 298.454 60.7812C300.415 60.7812 301.845 62.0938 301.861 63.9688C301.845 65.8516 300.415 67.1562 298.454 67.1562C296.478 67.1562 295.04 65.8516 295.048 63.9688ZM296.22 63.9688C296.212 65.2344 297.158 66.125 298.454 66.1094C299.736 66.125 300.673 65.2344 300.689 63.9688C300.673 62.7109 299.736 61.8047 298.454 61.8125C297.158 61.8047 296.212 62.7109 296.22 63.9688ZM319.072 60.5938V61.5781H309.556V56.8906H310.775V60.5938H319.072ZM307.822 64.4688V63.4688H320.541V64.4688H307.822ZM309.478 69.9219V65.8906H310.697V68.9062H319.15V69.9219H309.478ZM336.51 56.3906V64.2812H335.291V56.3906H336.51ZM325.151 62.9531C327.252 62.2188 328.713 60.3359 328.713 58.2969V56.9375H329.963V58.2969C329.948 60.2578 331.448 61.9922 333.494 62.7188L332.869 63.6562C331.26 63.1016 329.971 61.9297 329.346 60.4141C328.729 62.0234 327.432 63.3047 325.776 63.9219L325.151 62.9531ZM327.479 70.0781V65.0781H336.51V70.0781H327.479ZM328.682 69.0781H335.307V66.0781H328.682V69.0781ZM350.018 56.375V70.2969H348.799V56.375H350.018ZM339.331 58.6875V57.6719H345.799V62.6094H340.612V65.8906C342.917 65.8984 344.971 65.7891 347.456 65.3906L347.581 66.4219C345.026 66.8203 342.917 66.9219 340.518 66.9219H339.362V61.6094H344.565V58.6875H339.331ZM12.4531 80.375V94.2656H11.2812V80.375H12.4531ZM0.546875 90.375C3.57031 88.5859 5.08594 86.0781 5.32812 83.1719H1.17188V82.1562H6.54688C6.54688 82.8672 6.48438 83.5703 6.35938 84.25H8.46875V80.75H9.64062V93.5625H8.46875V88.75H5.89062V87.7344H8.46875V85.2656H6.11719C5.44531 87.6172 3.92188 89.6953 1.29688 91.2656L0.546875 90.375ZM26.7269 87.3906V88.3906H14.0706V87.3906H26.7269ZM14.8206 85.6562C17.4222 85.4297 19.6253 84.3516 19.7269 82.7656H15.3831V81.7812H19.7894V80.3438H20.9925V81.7812H25.4456V82.7656H21.0706C21.1566 84.3516 23.3519 85.4297 25.9769 85.6562L25.5706 86.625C23.2816 86.3672 21.2347 85.5312 20.3988 84.125C19.5472 85.5312 17.5003 86.3672 15.2269 86.625L14.8206 85.6562ZM15.4769 90.8906V89.8906H25.1644V94.2656H23.93V90.8906H15.4769ZM29.5006 81.0938V83.25H33.3756V81.0938H34.5788V83.7969H37.86V80.375H39.0944V87.9688H37.86V84.8281H34.5788V87.4531H28.2819V81.0938H29.5006ZM29.5006 86.4531H33.3756V84.2188H29.5006V86.4531ZM30.1413 94.0781V88.6406H31.3756V90.3438H37.86V88.6406H39.0788V94.0781H30.1413ZM31.3756 93.0625H37.86V91.3281H31.3756V93.0625ZM52.5556 80.375V87.8281H51.3369V80.375H52.5556ZM41.415 84.25C41.4072 82.3516 42.9463 81.0469 45.0556 81.0625C47.165 81.0469 48.6884 82.3516 48.6963 84.25C48.6884 86.1406 47.165 87.4453 45.0556 87.4375C42.9463 87.4453 41.4072 86.1406 41.415 84.25ZM42.6181 84.25C42.6025 85.5156 43.6259 86.4141 45.0556 86.4219C46.4697 86.4141 47.4931 85.5156 47.4931 84.25C47.4931 82.9766 46.4697 82.0859 45.0556 82.0938C43.6259 82.0859 42.6025 82.9766 42.6181 84.25ZM43.5556 94.0781V88.5312H44.7744V90.2188H51.3369V88.5312H52.5556V94.0781H43.5556ZM44.7744 93.0781H51.3369V91.2031H44.7744V93.0781ZM66.0481 80.375V94.2656H64.8294V80.375H66.0481ZM55.5013 90.6875V81.75H56.7044V89.625C58.8294 89.6094 61.0169 89.4453 63.345 88.9531L63.5169 90C61.0481 90.5156 58.8528 90.6875 56.6263 90.6875H55.5013ZM78.8531 80.375V85.875H81.1813V86.9062H78.8531V94.2969H77.6344V80.375H78.8531ZM68.7125 90.8125V81.7344H75.1969V82.75H69.9313V89.7812C72.4469 89.7734 74.2203 89.6641 76.2906 89.2812L76.4469 90.3438C74.2672 90.7344 72.4469 90.8125 69.8063 90.8125H68.7125ZM83.08 93.0938C82.5331 93.0859 82.0644 92.6328 82.08 92.0781C82.0644 91.5312 82.5331 91.0781 83.08 91.0781C83.6347 91.0781 84.0878 91.5312 84.08 92.0781C84.0878 92.6328 83.6347 93.0859 83.08 93.0938Z" fill="black"/>
</svg>
