<svg width="468" height="93" viewBox="0 0 468 93" fill="none" xmlns="http://www.w3.org/2000/svg">
<path d="M12.7188 11.2188V12.2344H0V11.2188H5.71875V8.21875H1.5V1.10938H2.73438V3.625H9.95312V1.10938H11.1562V8.21875H6.92188V11.2188H12.7188ZM2.73438 7.21875H9.95312V4.625H2.73438V7.21875ZM24.9613 0.125V14.0469H23.7269V0.125H24.9613ZM14.0238 6.04688C14.0316 3.09375 15.5003 1.21094 17.5706 1.20312C19.6331 1.21094 21.1253 3.09375 21.1175 6.04688C21.1253 9.00781 19.6331 10.8828 17.5706 10.875C15.5003 10.8828 14.0316 9.00781 14.0238 6.04688ZM15.2113 6.04688C15.2113 8.30469 16.18 9.78906 17.5706 9.78125C18.9691 9.78906 19.93 8.30469 19.93 6.04688C19.93 3.78906 18.9691 2.30469 17.5706 2.29688C16.18 2.30469 15.2113 3.78906 15.2113 6.04688ZM31.985 4.39062C31.9928 6.75 33.7038 9.14844 35.7506 10.0312L35.0631 11C33.4381 10.2656 32.0397 8.66406 31.3913 6.74219C30.7428 8.78125 29.3366 10.5469 27.7506 11.3438L27.0163 10.375C29.0084 9.42188 30.7428 6.79688 30.7506 4.39062V2.57812H27.4694V1.5625H35.2975V2.57812H31.985V4.39062ZM37.235 14.0156V0.125H38.4694V14.0156H37.235ZM48.095 0.921875C50.1731 0.929688 51.7044 2.25 51.7044 4.125C51.7044 6.02344 50.1731 7.33594 48.095 7.34375C46.0247 7.33594 44.4778 6.02344 44.4856 4.125C44.4778 2.25 46.0247 0.929688 48.095 0.921875ZM45.6888 4.125C45.6809 5.39844 46.7278 6.32812 48.095 6.32812C49.47 6.32812 50.5091 5.39844 50.5013 4.125C50.5091 2.875 49.47 1.95312 48.095 1.95312C46.7278 1.95312 45.6809 2.875 45.6888 4.125ZM45.7044 13.6406V8.57812H46.8919V12.6328C47.6966 12.6016 48.7669 12.4844 49.7513 12.1562L49.9388 13.1406C48.5872 13.5859 47.2669 13.6484 46.3606 13.6406H45.7044ZM49.4544 9.59375V8.64062H52.3763V7.40625H53.5794V8.64062H56.47V9.59375H49.4544ZM50.3763 12.0312C50.3684 10.8281 51.4231 10.0625 52.9544 10.0625C54.4778 10.0625 55.5481 10.8281 55.5638 12.0312C55.5481 13.2344 54.4778 13.9844 52.9544 13.9844C51.4231 13.9844 50.3684 13.2344 50.3763 12.0312ZM51.47 12.0312C51.47 12.6875 52.0872 13.1016 52.9544 13.1094C53.8216 13.1016 54.4388 12.6875 54.4388 12.0312C54.4388 11.3906 53.8216 10.9609 52.9544 10.9531C52.0872 10.9609 51.47 11.3906 51.47 12.0312ZM53.8606 7.07812V0.125H55.0794V3.26562H57.1731V4.28125H55.0794V7.07812H53.8606ZM68.9625 4.34375V5.32812H59.4469V0.640625H60.6656V4.34375H68.9625ZM57.7125 8.21875V7.21875H70.4313V8.21875H57.7125ZM59.3688 13.6719V9.64062H60.5875V12.6562H69.0406V13.6719H59.3688ZM81.9006 1.42188C81.9084 3.38281 84.4553 5.07031 86.9631 5.42188L86.4631 6.42188C84.3069 6.0625 82.1663 4.86719 81.2756 3.16406C80.385 4.88281 78.2522 6.0625 76.0881 6.42188L75.5881 5.42188C78.0959 5.07031 80.635 3.41406 80.635 1.42188V0.625H81.9006V1.42188ZM74.9319 8.98438V7.95312H87.5881V8.98438H81.8381V14.0156H80.635V8.98438H74.9319ZM99.8931 0.125V7.34375H98.69V0.125H99.8931ZM88.6431 6.39062C90.7134 5.70312 92.1978 4 92.2056 2.09375V1.9375H88.9556V0.921875H96.6431V1.9375H93.44V2.09375C93.4478 3.89844 94.9244 5.49219 97.0181 6.10938L96.4088 7.0625C94.7681 6.54688 93.4634 5.44531 92.8463 4.02344C92.2447 5.57812 90.9166 6.78906 89.2213 7.35938L88.6431 6.39062ZM90.8775 8.98438V8.01562H99.9088V11.3281H92.1119V12.875H100.409V13.8594H90.9088V10.4062H98.69V8.98438H90.8775ZM108.276 0.375C111.362 0.375 113.175 1.22656 113.183 2.76562C113.175 4.34375 111.362 5.19531 108.276 5.20312C105.175 5.19531 103.354 4.34375 103.354 2.76562C103.354 1.22656 105.175 0.375 108.276 0.375ZM101.948 7.14062V6.14062H114.604V7.14062H101.948ZM103.479 9.28125V8.34375H112.979V11.4531H104.729V12.8906H113.401V13.8594H103.511V10.5469H111.776V9.28125H103.479ZM104.636 2.76562C104.62 3.73438 105.972 4.26562 108.276 4.26562C110.581 4.26562 111.925 3.73438 111.933 2.76562C111.925 1.85156 110.581 1.30469 108.276 1.29688C105.972 1.30469 104.62 1.85156 104.636 2.76562ZM129.996 0.140625V4.34375H132.074V5.375H129.996V9.45312H128.761V0.140625H129.996ZM119.089 8.03125C120.199 8.03125 121.496 8.03125 122.855 7.99219V6.96875C121.238 6.82031 120.191 6.07812 120.199 4.92188C120.191 3.65625 121.496 2.875 123.449 2.875C125.418 2.875 126.699 3.65625 126.714 4.92188C126.699 6.07031 125.683 6.8125 124.074 6.96875V7.94531C125.371 7.88281 126.683 7.77344 127.902 7.59375L128.011 8.48438C124.996 9.01562 121.675 9.03906 119.23 9.03125L119.089 8.03125ZM119.433 2.34375V1.40625H122.855V0.015625H124.074V1.40625H127.48V2.34375H119.433ZM120.793 11.125V10.1406H129.996V14.0156H128.761V11.125H120.793ZM121.371 4.92188C121.363 5.64844 122.168 6.14062 123.449 6.125C124.73 6.14062 125.543 5.64844 125.543 4.92188C125.543 4.1875 124.73 3.73438 123.449 3.75C122.168 3.73438 121.363 4.1875 121.371 4.92188ZM144.129 0.140625V10.2969H142.91V0.140625H144.129ZM132.988 4.51562C132.98 2.51562 134.551 1.11719 136.629 1.10938C138.707 1.11719 140.262 2.51562 140.269 4.51562C140.262 6.53906 138.707 7.94531 136.629 7.9375C134.551 7.94531 132.98 6.53906 132.988 4.51562ZM134.191 4.51562C134.176 5.89844 135.223 6.85938 136.629 6.85938C138.012 6.85938 139.066 5.89844 139.066 4.51562C139.066 3.15625 138.012 2.1875 136.629 2.1875C135.223 2.1875 134.176 3.15625 134.191 4.51562ZM135.16 13.7188V9.26562H136.379V12.6875H144.566V13.7188H135.16ZM156.918 0.125V5.85938H159.246V6.875H156.918V14.0156H155.699V0.125H156.918ZM146.09 3.375V2.35938H149.668V0.296875H150.887V2.35938H154.356V3.375H146.09ZM146.887 7.71875C146.879 5.84375 148.317 4.53125 150.293 4.53125C152.254 4.53125 153.684 5.84375 153.699 7.71875C153.684 9.60156 152.254 10.9062 150.293 10.9062C148.317 10.9062 146.879 9.60156 146.887 7.71875ZM148.059 7.71875C148.051 8.98438 148.996 9.875 150.293 9.85938C151.574 9.875 152.512 8.98438 152.527 7.71875C152.512 6.46094 151.574 5.55469 150.293 5.5625C148.996 5.55469 148.051 6.46094 148.059 7.71875ZM170.817 1.53125V2.92188C170.801 4.625 170.801 6.53125 170.301 9.32812L169.051 9.1875C169.575 6.53125 169.575 4.58594 169.583 2.92188V2.54688H161.02V1.53125H170.817ZM159.676 12.0469V11.0312H164.645V6.0625H165.848V11.0312H172.333V12.0469H159.676ZM175.466 11.7031L174.247 15.9531H173.091L173.95 11.7031H175.466ZM191.497 0.125V5H193.576V6.03125H191.497V11H190.263V0.125H191.497ZM180.591 8.39062C181.693 8.39062 182.997 8.375 184.357 8.32812V7.26562C182.74 7.11719 181.693 6.34375 181.701 5.17188C181.693 3.83594 182.997 3.02344 184.951 3.03125C186.919 3.02344 188.201 3.83594 188.216 5.17188C188.201 6.33594 187.185 7.10938 185.576 7.26562V8.27344C186.872 8.19531 188.193 8.07812 189.404 7.89062L189.513 8.76562C186.537 9.32812 183.162 9.36719 180.732 9.39062L180.591 8.39062ZM180.935 2.42188V1.5H184.357V0.09375H185.576V1.5H188.982V2.42188H180.935ZM182.669 13.7188V10.2656H183.904V12.6875H191.997V13.7188H182.669ZM182.872 5.17188C182.865 5.92969 183.669 6.42188 184.951 6.42188C186.232 6.42188 187.044 5.92969 187.044 5.17188C187.044 4.38281 186.232 3.89844 184.951 3.90625C183.669 3.89844 182.865 4.38281 182.872 5.17188ZM205.678 0.140625V8.48438H204.443V6.60938H200.756V5.59375H204.443V3.71875H200.896C199.982 5.95312 197.842 7.57031 194.865 8.45312L194.349 7.48438C197.701 6.49219 199.803 4.60938 200.045 2.20312H195.053V1.17188H201.381C201.381 1.71875 201.318 2.24219 201.201 2.73438H204.443V0.140625H205.678ZM196.49 11.2812C196.482 9.625 198.287 8.625 201.131 8.625C203.943 8.625 205.756 9.625 205.756 11.2812C205.756 12.9453 203.943 13.9531 201.131 13.9531C198.287 13.9531 196.482 12.9453 196.49 11.2812ZM197.693 11.2812C197.701 12.3281 199.037 12.9609 201.131 12.9531C203.193 12.9609 204.529 12.3281 204.537 11.2812C204.529 10.2344 203.193 9.60156 201.131 9.60938C199.037 9.60156 197.701 10.2344 197.693 11.2812ZM224.069 7.10938V8.125H211.366V7.10938H217.084V4.96875H218.288V7.10938H224.069ZM212.131 4.73438C214.584 4.39844 217.069 2.85156 217.069 1V0.34375H218.303V1C218.303 2.85156 220.803 4.39844 223.256 4.73438L222.756 5.71875C220.655 5.35156 218.561 4.23438 217.694 2.63281C216.819 4.25 214.733 5.35156 212.6 5.71875L212.131 4.73438ZM212.772 10.4688V9.48438H222.459V14.0156H221.225V10.4688H212.772ZM233.148 0.8125C235.226 0.796875 236.718 1.94531 236.71 3.64062C236.718 5.33594 235.226 6.49219 233.148 6.48438C231.069 6.49219 229.585 5.33594 229.585 3.64062C229.585 1.94531 231.069 0.796875 233.148 0.8125ZM228.538 7.67188C231.148 7.67969 234.718 7.625 237.804 7.17188L237.882 8.09375C236.554 8.33594 235.179 8.48438 233.835 8.57031V13.5938H232.616V8.64062C231.202 8.70312 229.866 8.71094 228.71 8.71875L228.538 7.67188ZM230.788 3.64062C230.773 4.72656 231.765 5.47656 233.148 5.46875C234.546 5.47656 235.546 4.72656 235.538 3.64062C235.546 2.5625 234.546 1.79688 233.148 1.8125C231.765 1.79688 230.773 2.5625 230.788 3.64062ZM238.819 14.0312V0.140625H240.023V14.0312H238.819ZM253.593 0.125V8.54688H252.359V5.375H249.999V4.35938H252.359V0.125H253.593ZM242.093 2.59375V1.59375H245.546V0H246.749V1.59375H250.202V2.59375H242.093ZM242.921 5.78125C242.921 4.32812 244.257 3.3125 246.14 3.3125C248.031 3.3125 249.359 4.32812 249.374 5.78125C249.359 7.28125 248.031 8.26562 246.14 8.26562C244.257 8.26562 242.921 7.28125 242.921 5.78125ZM244.093 5.78125C244.093 6.70312 244.929 7.3125 246.14 7.32812C247.351 7.3125 248.187 6.70312 248.187 5.78125C248.187 4.89062 247.351 4.26562 246.14 4.26562C244.929 4.26562 244.093 4.89062 244.093 5.78125ZM244.515 13.8281V9.29688H253.593V13.8281H244.515ZM245.734 12.8281H252.39V10.2812H245.734V12.8281ZM272 11.2031V12.2344H259.281V11.2031H262.438V7.46094C261.25 6.84375 260.531 5.84375 260.531 4.57812C260.531 2.42969 262.641 1.01562 265.609 1C268.578 1.01562 270.688 2.42969 270.688 4.57812C270.688 5.82031 269.992 6.80469 268.844 7.42188V11.2031H272ZM261.719 4.57812C261.711 6.13281 263.328 7.17188 265.609 7.17188C267.867 7.17188 269.5 6.13281 269.5 4.57812C269.5 3.02344 267.867 2 265.609 2.01562C263.328 2 261.711 3.02344 261.719 4.57812ZM263.641 11.2031H267.609V7.89844C267.008 8.05469 266.336 8.14062 265.609 8.14062C264.898 8.14062 264.234 8.0625 263.641 7.90625V11.2031ZM285.508 11.1875V12.2031H272.789V11.1875H278.477V7.78125H279.68V11.1875H285.508ZM273.289 6.92188C275.719 6.50781 278.422 4.47656 278.43 2.14062V1.07812H279.711V2.14062C279.719 4.46094 282.461 6.50781 284.883 6.92188L284.336 7.9375C282.219 7.5 279.985 6.07031 279.086 4.07031C278.172 6.0625 275.961 7.5 273.836 7.9375L273.289 6.92188ZM299.001 6.57812V7.54688H286.282V6.57812H299.001ZM287.813 9.57812V8.65625H297.407V11.6094H289.063V12.9375H297.86V13.8281H287.829V10.7656H296.188V9.57812H287.813ZM287.891 1.4375V0.546875H297.36V3.42188H289.157V4.64062H297.61V5.53125H287.938V2.57812H296.126V1.4375H287.891ZM316.204 7.48438V8.48438H310.548V11.2031H309.329V8.48438H303.486V7.48438H316.204ZM305.111 13.7188V9.92188H306.329V12.6875H314.783V13.7188H305.111ZM305.189 6.125V0.578125H306.408V2.35938H313.283V0.578125H314.501V6.125H305.189ZM306.408 5.125H313.283V3.29688H306.408V5.125ZM321.744 2.35938C321.736 4.27344 323.166 6.03906 325.181 6.73438L324.509 7.71875C322.97 7.14844 321.759 5.96875 321.166 4.48438C320.58 6.125 319.33 7.40625 317.697 8.04688L317.025 7.03125C319.134 6.28906 320.525 4.45312 320.541 2.3125V0.84375H321.744V2.35938ZM319.181 10.0938V9.10938H328.525V14.0156H327.291V10.0938H319.181ZM324.197 4.07812V3.04688H327.291V0.125H328.525V8.34375H327.291V4.07812H324.197ZM341.267 0.125V5.85938H343.596V6.875H341.267V14.0156H340.049V0.125H341.267ZM330.439 3.375V2.35938H334.017V0.296875H335.236V2.35938H338.705V3.375H330.439ZM331.236 7.71875C331.228 5.84375 332.666 4.53125 334.642 4.53125C336.603 4.53125 338.033 5.84375 338.049 7.71875C338.033 9.60156 336.603 10.9062 334.642 10.9062C332.666 10.9062 331.228 9.60156 331.236 7.71875ZM332.408 7.71875C332.4 8.98438 333.346 9.875 334.642 9.85938C335.924 9.875 336.861 8.98438 336.877 7.71875C336.861 6.46094 335.924 5.55469 334.642 5.5625C333.346 5.55469 332.4 6.46094 332.408 7.71875ZM350.916 1.51562V3.46875H354.323V0.125H355.541V14.0469H354.323V8.3125H350.916V10.5H344.588V1.51562H350.916ZM345.807 9.51562H349.729V2.48438H345.807V9.51562ZM350.916 7.29688H354.323V4.48438H350.916V7.29688ZM359.815 11.7031L358.596 15.9531H357.44L358.299 11.7031H359.815ZM11.0469 26.8125V27.8125C11.0469 28.8438 11.0469 30.0938 10.7031 31.7656H12.7188V32.7656H6.9375V35.3281H11.1406V40.0156H9.90625V36.3438H1.3125V35.3281H5.71875V32.7656H0V31.7656H9.46875C9.83594 30.0703 9.83594 28.8438 9.82812 27.8125H1.60938V26.8125H11.0469ZM25.3831 26.125V40.0156H24.2113V26.125H25.3831ZM13.3363 36.3125C15.2738 35.1562 16.4066 32.6172 16.3988 30.0938V28.7812H13.7269V27.7656H20.1331V28.7812H17.5863V30.0938C17.5863 32.4922 18.6722 34.8906 20.5863 36L19.8363 36.9062C18.4691 36.0859 17.5003 34.5859 17.0159 32.8203C16.5159 34.7344 15.5081 36.3672 14.1175 37.2344L13.3363 36.3125ZM19.0706 32.1406V31.1406H21.4144V26.4688H22.5706V39.2969H21.4144V32.1406H19.0706ZM42.1963 26.125V40.0156H40.9619V26.125H42.1963ZM30.8838 36.4062C34.6416 34.625 36.5634 31.9609 36.8369 28.6406H31.5244V27.6406H38.0869C38.0713 31.6328 36.2119 35.1719 31.5556 37.4062L30.8838 36.4062ZM51.345 27.8594C51.3372 29.5703 53.6653 30.9609 56.1263 31.2969L55.6419 32.2656C53.3997 31.9375 51.2981 30.8203 50.5481 29.1953C49.7903 30.8203 47.7044 31.9375 45.4544 32.2656L45.0013 31.2969C47.4466 30.9609 49.7591 29.5703 49.7513 27.8594V27.8281H45.3763V26.8281H55.7513V27.8281H51.345V27.8594ZM44.2044 34.2969V33.2812H56.9231V34.2969H51.2669V37.1406H50.0481V34.2969H44.2044ZM45.8294 39.7188V35.75H47.0638V38.6875H55.5013V39.7188H45.8294ZM69.6344 26.125V40.0156H68.4469V26.125H69.6344ZM57.9 32.125C57.9078 29.1719 59.0797 27.3047 60.8844 27.2969C62.5719 27.3047 63.7125 28.9297 63.8688 31.5469H65.6656V26.4219H66.8375V39.3125H65.6656V32.5625H63.8766C63.7594 35.2656 62.5953 36.9609 60.8844 36.9531C59.0797 36.9609 57.9078 35.0781 57.9 32.125ZM59.0563 32.125C59.0406 34.375 59.7594 35.7969 60.8844 35.7812C62.0172 35.7969 62.7359 34.375 62.7281 32.125C62.7359 29.8672 62.0172 28.4531 60.8844 28.4531C59.7594 28.4531 59.0406 29.8672 59.0563 32.125ZM85.9163 26.1094V31.5938H87.9475V32.6406H85.9163V40.0156H84.6975V26.1094H85.9163ZM75.3538 36.375V27.5938H78.885V28.6094H76.5725V35.3359C77.26 35.3125 78.1038 35.25 79.0256 35.0469L79.1506 36.0781C77.8381 36.3516 76.7913 36.375 75.9631 36.375H75.3538ZM79.6819 36.375V27.5938H83.385V28.6094H80.9006V35.3438C81.9866 35.3281 82.8538 35.2656 83.8381 35.0156L83.9631 36.0469C82.7444 36.3438 81.76 36.375 80.3538 36.375H79.6819ZM99.19 26.125V31.6562H101.518V32.6875H99.19V40.0469H97.9713V26.125H99.19ZM88.9869 28.4375V27.4219H95.2994V32.3906H90.2369V35.6406C92.815 35.6484 94.6197 35.5469 96.7213 35.1562L96.8463 36.1719C94.6588 36.5703 92.8072 36.6719 90.1275 36.6875H89.0181V31.375H94.0806V28.4375H88.9869ZM117.519 26.125V40.0156H116.347V26.125H117.519ZM105.472 36.3125C107.409 35.1562 108.542 32.6172 108.534 30.0938V28.7812H105.863V27.7656H112.269V28.7812H109.722V30.0938C109.722 32.4922 110.808 34.8906 112.722 36L111.972 36.9062C110.605 36.0859 109.636 34.5859 109.152 32.8203C108.652 34.7344 107.644 36.3672 106.253 37.2344L105.472 36.3125ZM111.206 32.1406V31.1406H113.55V26.4688H114.706V39.2969H113.55V32.1406H111.206ZM131.808 32.8438V33.8594H126.074V35.5H130.261V39.8281H120.699V35.5H124.871V33.8594H119.152V32.8438H131.808ZM120.339 27.5938V26.5781H130.605V27.5938H128.464V30.5156H130.558V31.5312H120.386V30.5156H122.48V27.5938H120.339ZM121.918 38.8281H129.058V36.4688H121.918V38.8281ZM123.699 30.5156H127.246V27.5938H123.699V30.5156ZM137.207 27.1406C139.387 27.1484 140.933 28.4766 140.941 30.4062C140.933 32.3438 139.387 33.6641 137.207 33.6719C135.012 33.6641 133.449 32.3438 133.457 30.4062C133.449 28.4766 135.012 27.1484 137.207 27.1406ZM132.738 35.9375C135.301 35.9453 138.84 35.9219 141.91 35.4688L142.004 36.375C138.824 36.9688 135.41 36.9844 132.91 36.9844L132.738 35.9375ZM134.66 30.4062C134.652 31.7031 135.723 32.5938 137.207 32.5938C138.676 32.5938 139.746 31.7031 139.738 30.4062C139.746 29.1172 138.676 28.2188 137.207 28.2188C135.723 28.2188 134.652 29.1172 134.66 30.4062ZM142.832 40.0469V26.125H144.051V40.0469H142.832ZM160.723 26.125V30.3594H162.817V31.3906H160.723V36.375H159.504V26.125H160.723ZM150.129 30.5312C150.122 28.5156 151.7 27.1172 153.77 27.1094C155.856 27.1172 157.411 28.5156 157.426 30.5312C157.411 32.5391 155.856 33.9531 153.77 33.9531C151.7 33.9531 150.122 32.5391 150.129 30.5312ZM151.333 30.5312C151.325 31.8984 152.395 32.875 153.77 32.875C155.168 32.875 156.215 31.8984 156.223 30.5312C156.215 29.1562 155.168 28.1875 153.77 28.1875C152.395 28.1875 151.325 29.1562 151.333 30.5312ZM152.036 39.7188V35.3125H153.239V38.6875H161.364V39.7188H152.036ZM174.887 26.1406V36.3281H173.653V31H170.794V29.9844H173.653V26.1406H174.887ZM163.434 33.5469C165.481 32.8281 166.966 30.9922 166.966 29V28.2812H163.825V27.2656H171.309V28.2812H168.2V29C168.2 30.7969 169.591 32.5391 171.622 33.2344L170.981 34.2188C169.419 33.6484 168.208 32.4844 167.606 31.0469C167.005 32.6562 165.723 33.9297 164.075 34.5469L163.434 33.5469ZM165.966 39.7188V35.4062H167.2V38.6875H175.278V39.7188H165.966ZM181.661 28.3125C181.646 30.2969 183.06 32.0391 185.099 32.7344L184.411 33.6875C182.88 33.1172 181.677 31.9844 181.075 30.5234C180.482 32.1875 179.216 33.4766 177.536 34.1094L176.864 33.1094C179.005 32.3594 180.427 30.5156 180.443 28.3594V26.9219H181.661V28.3125ZM179.13 37.3906C179.122 35.7188 180.896 34.7578 183.786 34.7656C186.669 34.7578 188.443 35.7188 188.443 37.3906C188.443 39.0469 186.669 39.9844 183.786 39.9844C180.896 39.9844 179.122 39.0469 179.13 37.3906ZM180.349 37.3906C180.341 38.3984 181.653 39.0078 183.786 39C185.911 39.0078 187.224 38.3984 187.224 37.3906C187.224 36.3516 185.911 35.7344 183.786 35.7344C181.653 35.7344 180.341 36.3516 180.349 37.3906ZM184.068 30.125V29.1094H187.161V26.125H188.396V34.3594H187.161V30.125H184.068ZM196.716 26.375C199.802 26.375 201.615 27.2266 201.622 28.7656C201.615 30.3438 199.802 31.1953 196.716 31.2031C193.615 31.1953 191.794 30.3438 191.794 28.7656C191.794 27.2266 193.615 26.375 196.716 26.375ZM190.388 33.1406V32.1406H203.044V33.1406H190.388ZM191.919 35.2812V34.3438H201.419V37.4531H193.169V38.8906H201.841V39.8594H191.951V36.5469H200.216V35.2812H191.919ZM193.076 28.7656C193.06 29.7344 194.412 30.2656 196.716 30.2656C199.021 30.2656 200.365 29.7344 200.372 28.7656C200.365 27.8516 199.021 27.3047 196.716 27.2969C194.412 27.3047 193.06 27.8516 193.076 28.7656ZM214.764 27.0312C214.756 30.5156 212.264 33.0156 208.264 34.1562L207.748 33.1875C211.068 32.25 213.193 30.4062 213.459 28.0469H208.467V27.0312H214.764ZM210.092 39.8281V34.6562H219.107V39.8281H210.092ZM211.279 38.8281H217.889V35.6406H211.279V38.8281ZM214.795 30.75V29.7188H217.873V26.1406H219.107V34.0625H217.873V30.75H214.795ZM233.756 32.7344V33.75H221.1V32.7344H233.756ZM221.819 30.9219C224.241 30.6406 226.577 29.4453 226.631 27.8594H222.256V26.8438H232.631V27.8594H228.225C228.28 29.4297 230.592 30.6406 233.053 30.9219L232.6 31.9062C230.327 31.6172 228.194 30.5938 227.428 29.0547C226.663 30.5938 224.545 31.6172 222.256 31.9062L221.819 30.9219ZM222.631 37.4844C222.623 35.8906 224.428 34.9688 227.428 34.9688C230.405 34.9688 232.194 35.8906 232.209 37.4844C232.194 39.0938 230.405 39.9844 227.428 39.9844C224.428 39.9844 222.623 39.0938 222.631 37.4844ZM223.881 37.4844C223.866 38.4531 225.202 39.0078 227.428 39C229.631 39.0078 230.967 38.4531 230.975 37.4844C230.967 36.5078 229.631 35.9531 227.428 35.9375C225.202 35.9531 223.866 36.5078 223.881 37.4844ZM245.467 26.125V29.6875H247.561V30.7344H245.467V34.2031H244.249V26.125H245.467ZM234.639 28.5781V27.5625H238.171V26H239.389V27.5625H242.921V28.5781H234.639ZM235.436 31.6562C235.428 30.1719 236.764 29.2266 238.78 29.2188C240.772 29.2266 242.108 30.1719 242.124 31.6562C242.108 33.1406 240.772 34.1016 238.78 34.0938C236.764 34.1016 235.428 33.1406 235.436 31.6562ZM236.608 31.6562C236.6 32.5625 237.467 33.1562 238.78 33.1562C240.077 33.1562 240.952 32.5625 240.967 31.6562C240.952 30.7578 240.077 30.1562 238.78 30.1719C237.467 30.1562 236.6 30.7578 236.608 31.6562ZM236.686 39.8281V34.8125H237.905V36.2969H244.249V34.8125H245.467V39.8281H236.686ZM237.905 38.8438H244.249V37.2656H237.905V38.8438ZM259.569 26.125V40.0156H258.351V26.125H259.569ZM249.023 36.4375V27.5H250.226V35.375C252.351 35.3594 254.538 35.1953 256.866 34.7031L257.038 35.75C254.569 36.2656 252.374 36.4375 250.148 36.4375H249.023ZM272.374 26.125V31.625H274.703V32.6562H272.374V40.0469H271.156V26.125H272.374ZM262.234 36.5625V27.4844H268.718V28.5H263.453V35.5312C265.968 35.5234 267.742 35.4141 269.812 35.0312L269.968 36.0938C267.788 36.4844 265.968 36.5625 263.328 36.5625H262.234ZM276.601 38.8438C276.054 38.8359 275.586 38.3828 275.601 37.8281C275.586 37.2812 276.054 36.8281 276.601 36.8281C277.156 36.8281 277.609 37.2812 277.601 37.8281C277.609 38.3828 277.156 38.8359 276.601 38.8438ZM11.1094 53.4844V54.8281C11.0938 56.5156 11.1094 58.4219 10.5312 61.25L9.32812 61.1094C9.59375 59.8516 9.73438 58.75 9.8125 57.7734L1.32812 58.2812L1.125 57.2031L9.86719 56.8438C9.89844 56.1094 9.90625 55.4531 9.90625 54.8281V54.5H1.53125V53.4844H11.1094ZM0 64.125V63.0781H4.96875V59.4844H6.17188V63.0781H12.6562V64.125H0ZM17.0394 53.0156C18.805 53.0234 20.0706 54.0625 20.0863 55.5938C20.0706 57.1172 18.805 58.1562 17.0394 58.1406C15.2738 58.1562 13.9925 57.1172 14.0081 55.5938C13.9925 54.0625 15.2738 53.0234 17.0394 53.0156ZM13.3206 59.2188C15.2425 59.2266 18.3519 59.2109 20.6175 58.8438L20.7113 59.7812C19.7269 59.9766 18.6331 60.0938 17.555 60.1562V64.875H16.3988V60.2188C15.3206 60.2578 14.305 60.2656 13.4925 60.2656L13.3206 59.2188ZM15.1175 55.5938C15.1097 56.5391 15.9066 57.2109 17.0394 57.2188C18.1722 57.2109 18.9769 56.5391 18.9769 55.5938C18.9769 54.6406 18.1722 53.9531 17.0394 53.9688C15.9066 53.9531 15.1097 54.6406 15.1175 55.5938ZM18.8831 62.2031V61.2344H21.5238V52.4375H22.68V65.2812H21.5238V62.2031H18.8831ZM24.1644 66.0156V52.125H25.3363V66.0156H24.1644ZM38.4694 52.125V66.0469H37.235V52.125H38.4694ZM27.5319 58.0469C27.5397 55.0938 29.0084 53.2109 31.0788 53.2031C33.1413 53.2109 34.6334 55.0938 34.6256 58.0469C34.6334 61.0078 33.1413 62.8828 31.0788 62.875C29.0084 62.8828 27.5397 61.0078 27.5319 58.0469ZM28.7194 58.0469C28.7194 60.3047 29.6881 61.7891 31.0788 61.7812C32.4772 61.7891 33.4381 60.3047 33.4381 58.0469C33.4381 55.7891 32.4772 54.3047 31.0788 54.2969C29.6881 54.3047 28.7194 55.7891 28.7194 58.0469ZM55.0638 52.125V57H57.1419V58.0312H55.0638V63H53.8294V52.125H55.0638ZM44.1575 60.3906C45.2591 60.3906 46.5638 60.375 47.9231 60.3281V59.2656C46.3059 59.1172 45.2591 58.3438 45.2669 57.1719C45.2591 55.8359 46.5638 55.0234 48.5169 55.0312C50.4856 55.0234 51.7669 55.8359 51.7825 57.1719C51.7669 58.3359 50.7513 59.1094 49.1419 59.2656V60.2734C50.4388 60.1953 51.7591 60.0781 52.97 59.8906L53.0794 60.7656C50.1028 61.3281 46.7278 61.3672 44.2981 61.3906L44.1575 60.3906ZM44.5013 54.4219V53.5H47.9231V52.0938H49.1419V53.5H52.5481V54.4219H44.5013ZM46.2356 65.7188V62.2656H47.47V64.6875H55.5638V65.7188H46.2356ZM46.4388 57.1719C46.4309 57.9297 47.2356 58.4219 48.5169 58.4219C49.7981 58.4219 50.6106 57.9297 50.6106 57.1719C50.6106 56.3828 49.7981 55.8984 48.5169 55.9062C47.2356 55.8984 46.4309 56.3828 46.4388 57.1719ZM69.2438 52.1406V60.4844H68.0094V58.6094H64.3219V57.5938H68.0094V55.7188H64.4625C63.5484 57.9531 61.4078 59.5703 58.4313 60.4531L57.9156 59.4844C61.2672 58.4922 63.3688 56.6094 63.6109 54.2031H58.6188V53.1719H64.9469C64.9469 53.7188 64.8844 54.2422 64.7672 54.7344H68.0094V52.1406H69.2438ZM60.0563 63.2812C60.0484 61.625 61.8531 60.625 64.6969 60.625C67.5094 60.625 69.3219 61.625 69.3219 63.2812C69.3219 64.9453 67.5094 65.9531 64.6969 65.9531C61.8531 65.9531 60.0484 64.9453 60.0563 63.2812ZM61.2594 63.2812C61.2672 64.3281 62.6031 64.9609 64.6969 64.9531C66.7594 64.9609 68.0953 64.3281 68.1031 63.2812C68.0953 62.2344 66.7594 61.6016 64.6969 61.6094C62.6031 61.6016 61.2672 62.2344 61.2594 63.2812ZM83.9394 59.4844V60.4844H78.2831V63.2031H77.0644V60.4844H71.2206V59.4844H83.9394ZM72.8456 65.7188V61.9219H74.0644V64.6875H82.5175V65.7188H72.8456ZM72.9238 58.125V52.5781H74.1425V54.3594H81.0175V52.5781H82.2363V58.125H72.9238ZM74.1425 57.125H81.0175V55.2969H74.1425V57.125ZM89.4788 54.3594C89.4709 56.2734 90.9006 58.0391 92.9163 58.7344L92.2444 59.7188C90.7053 59.1484 89.4944 57.9688 88.9006 56.4844C88.3147 58.125 87.0647 59.4062 85.4319 60.0469L84.76 59.0312C86.8694 58.2891 88.26 56.4531 88.2756 54.3125V52.8438H89.4788V54.3594ZM86.9163 62.0938V61.1094H96.26V66.0156H95.0256V62.0938H86.9163ZM91.9319 56.0781V55.0469H95.0256V52.125H96.26V60.3438H95.0256V56.0781H91.9319ZM110.049 52.125V62.5469H108.878V52.125H110.049ZM98.2994 59.5938C100.088 58.75 101.182 56.8281 101.174 55.1875V53.1094H102.362V55.1875C102.362 56.8125 103.378 58.4844 105.143 59.2344L104.456 60.2031C103.174 59.6172 102.26 58.5469 101.784 57.2891C101.292 58.6719 100.315 59.8984 98.9869 60.5469L98.2994 59.5938ZM100.94 65.7188V61.2656H102.159V64.6875H110.471V65.7188H100.94ZM103.94 56.6719V55.6562H106.128V52.4062H107.315V62.1562H106.128V56.6719H103.94ZM123.276 52.125V66.0469H122.058V58.3906H119.12V57.375H122.058V52.125H123.276ZM112.401 62.6875V53.4062H118.886V54.4219H113.636V57.3125H118.276V58.3125H113.636V61.6719C116.183 61.6641 117.823 61.5938 119.729 61.25L119.87 62.2656C117.847 62.5938 116.151 62.6875 113.464 62.6875H112.401ZM136.503 56.3438V57.3281H126.988V52.6406H128.206V56.3438H136.503ZM125.253 60.2188V59.2188H137.972V60.2188H125.253ZM126.909 65.6719V61.6406H128.128V64.6562H136.581V65.6719H126.909ZM150.176 53.6719V54.3906C150.168 55.4922 150.168 57.3281 149.769 59.9062L148.535 59.7969C148.918 57.4688 148.949 55.7812 148.941 54.6719H143.113V53.6719H150.176ZM142.332 61.9375C143.246 61.9297 144.262 61.9219 145.332 61.8984V57.6406H146.535V61.8594C148.074 61.8047 149.652 61.7031 151.098 61.5312L151.16 62.4531C148.238 62.9062 144.973 62.9688 142.488 62.9531L142.332 61.9375ZM151.973 66.0156V52.125H153.191V57.9375H155.441V59H153.191V66.0156H151.973ZM164.293 53.625V54.625H156.012V53.625H159.543V52.0625H160.762V53.625H164.293ZM156.809 57.8594C156.801 56.3281 158.145 55.3594 160.152 55.3438C162.145 55.3594 163.481 56.3281 163.496 57.8594C163.481 59.3672 162.145 60.3516 160.152 60.3594C158.145 60.3516 156.801 59.3672 156.809 57.8594ZM157.746 62.5781V61.5781H166.84V66.0156H165.621V62.5781H157.746ZM157.981 57.8594C157.973 58.7812 158.84 59.3828 160.152 59.375C161.449 59.3828 162.324 58.7812 162.34 57.8594C162.324 56.9141 161.449 56.3047 160.152 56.2969C158.84 56.3047 157.973 56.9141 157.981 57.8594ZM165.621 60.8125V52.125H166.84V55.9844H168.934V57.0156H166.84V60.8125H165.621ZM174.317 54.6875C174.317 56.4922 175.708 58.2188 177.739 58.9219L177.098 59.8906C175.536 59.3281 174.325 58.1641 173.731 56.7344C173.129 58.3281 171.84 59.6094 170.192 60.2188L169.551 59.25C171.598 58.5156 173.083 56.6641 173.083 54.7031V54.0938H169.942V53.0938H177.426V54.0938H174.317V54.6875ZM171.661 62.2031V61.1875H181.004V66.0156H179.77V62.2031H171.661ZM176.989 56.7969V55.7656H179.77V52.125H181.004V60.4531H179.77V56.7969H176.989ZM197.739 52.9688V54.0469C197.739 55.2188 197.739 56.625 197.372 58.5156H199.411V59.5469H186.693V58.5156H196.153C196.528 56.5938 196.528 55.2266 196.521 54.0469V53.9688H188.302V52.9688H197.739ZM188.38 65.7031V61.1094H189.599V64.6719H198.161V65.7031H188.38ZM211.701 52.125V66.0156H210.482V58.7344H207.169V57.7188H210.482V52.125H211.701ZM200.216 62.3906C203.974 60.5703 205.716 57.8906 205.966 54.6406H200.826V53.6406H207.201C207.193 57.5781 205.529 61.0703 200.888 63.375L200.216 62.3906ZM217.896 53.0312C220.029 53.0469 221.592 54.3594 221.599 56.2969C221.592 58.0391 220.326 59.2734 218.521 59.5078V61.8672C219.818 61.8125 221.123 61.7188 222.334 61.5625L222.412 62.4844C219.467 62.9844 216.185 63.0156 213.74 63L213.537 61.9688C214.654 61.9609 215.943 61.9531 217.287 61.9141V59.5078C215.443 59.2891 214.185 58.0469 214.193 56.2969C214.185 54.3594 215.724 53.0469 217.896 53.0312ZM215.396 56.2969C215.381 57.6016 216.435 58.5078 217.896 58.5C219.334 58.5078 220.381 57.6016 220.396 56.2969C220.381 54.9922 219.334 54.1016 217.896 54.0938C216.435 54.1016 215.381 54.9922 215.396 56.2969ZM223.224 66.0156V52.125H224.443V57.8594H226.709V58.9219H224.443V66.0156H223.224ZM237.194 60.9062C240.17 60.9062 242.061 61.8438 242.069 63.4531C242.061 65.0469 240.17 65.9844 237.194 65.9844C234.217 65.9844 232.327 65.0469 232.334 63.4531C232.327 61.8438 234.217 60.9062 237.194 60.9062ZM230.928 59.6094V58.6094H236.163V55.9219H237.366V58.6094H243.569V59.6094H230.928ZM232.428 53.8438V52.8438H241.959V54.0156C241.952 55.1406 241.952 56.2656 241.569 57.7031L240.366 57.5625C240.741 56.1328 240.741 55.1016 240.741 54.0156V53.8438H232.428ZM233.553 63.4531C233.545 64.4219 234.983 65.0156 237.194 65.0156C239.413 65.0156 240.834 64.4219 240.85 63.4531C240.834 62.4609 239.413 61.8516 237.194 61.8438C234.983 61.8516 233.545 62.4609 233.553 63.4531ZM255.889 52.1406V62.2969H254.671V52.1406H255.889ZM244.749 56.5156C244.741 54.5156 246.311 53.1172 248.389 53.1094C250.467 53.1172 252.022 54.5156 252.03 56.5156C252.022 58.5391 250.467 59.9453 248.389 59.9375C246.311 59.9453 244.741 58.5391 244.749 56.5156ZM245.952 56.5156C245.936 57.8984 246.983 58.8594 248.389 58.8594C249.772 58.8594 250.827 57.8984 250.827 56.5156C250.827 55.1562 249.772 54.1875 248.389 54.1875C246.983 54.1875 245.936 55.1562 245.952 56.5156ZM246.921 65.7188V61.2656H248.139V64.6875H256.327V65.7188H246.921ZM266.007 56.6875V57.6875H263.194V59.625C264.491 59.5703 265.788 59.4766 266.991 59.3438L267.085 60.25C264.093 60.6641 260.788 60.75 258.179 60.75L257.991 59.75C259.21 59.7422 260.577 59.7266 261.976 59.6797V57.6875H259.257V53.0312H265.897V54.0469H260.491V56.6875H266.007ZM260.366 65.7188V61.8125H261.585V64.6875H269.835V65.7188H260.366ZM268.147 62.5312V52.1406H269.382V62.5312H268.147ZM280.07 55.8594C280.062 58.3984 281.789 60.9453 283.836 61.875L283.086 62.8438C281.5 62.0781 280.133 60.4297 279.468 58.4531C278.828 60.5469 277.461 62.3047 275.836 63.125L275.054 62.0938C277.125 61.1484 278.836 58.4922 278.851 55.8594V53.3281H280.07V55.8594ZM285.351 66.0469V52.125H286.586V66.0469H285.351ZM300.156 52.125V60.5469H298.922V57.375H296.562V56.3594H298.922V52.125H300.156ZM288.656 54.5938V53.5938H292.109V52H293.312V53.5938H296.766V54.5938H288.656ZM289.484 57.7812C289.484 56.3281 290.82 55.3125 292.703 55.3125C294.594 55.3125 295.922 56.3281 295.938 57.7812C295.922 59.2812 294.594 60.2656 292.703 60.2656C290.82 60.2656 289.484 59.2812 289.484 57.7812ZM290.656 57.7812C290.656 58.7031 291.492 59.3125 292.703 59.3281C293.914 59.3125 294.75 58.7031 294.75 57.7812C294.75 56.8906 293.914 56.2656 292.703 56.2656C291.492 56.2656 290.656 56.8906 290.656 57.7812ZM291.078 65.8281V61.2969H300.156V65.8281H291.078ZM292.297 64.8281H298.953V62.2812H292.297V64.8281ZM317.36 61.0781V66.0156H316.126V62.0625H308.016V61.0781H317.36ZM306.063 56.2344C306.055 54.2969 307.594 52.9141 309.672 52.9219C310.876 52.9141 311.899 53.3906 312.54 54.1719H316.126V52.125H317.36V60.3125H316.126V58.3125H312.547C311.907 59.1016 310.883 59.5703 309.672 59.5625C307.594 59.5781 306.055 58.2109 306.063 56.2344ZM307.235 56.2344C307.235 57.5859 308.251 58.5312 309.672 58.5312C311.04 58.5312 312.079 57.5859 312.079 56.2344C312.079 54.9297 311.04 53.9688 309.672 53.9688C308.251 53.9688 307.235 54.9297 307.235 56.2344ZM313.102 57.2969H316.126V55.1875H313.094C313.204 55.5156 313.266 55.8594 313.266 56.2344C313.266 56.6094 313.204 56.9688 313.102 57.2969ZM332.321 54.3125V55.3438H330.212V57.2344H332.321V58.2812H330.212V60.5469H328.993V52.1406H330.212V54.3125H332.321ZM319.946 54.0156V53H326.243V56.75H321.181V58.6875C323.649 58.6953 325.438 58.6016 327.603 58.2344L327.728 59.2656C325.501 59.6328 323.642 59.7188 321.056 59.7188H319.978V55.7812H325.04V54.0156H319.946ZM321.149 63.4844C321.142 61.8906 322.892 60.9453 325.759 60.9531C328.595 60.9453 330.337 61.8906 330.337 63.4844C330.337 65.0703 328.595 65.9844 325.759 65.9844C322.892 65.9844 321.142 65.0703 321.149 63.4844ZM322.353 63.4844C322.337 64.4531 323.626 65.0391 325.759 65.0312C327.86 65.0391 329.142 64.4531 329.149 63.4844C329.142 62.5078 327.86 61.9219 325.759 61.9219C323.626 61.9219 322.337 62.5078 322.353 63.4844ZM339.189 52.375C342.275 52.375 344.087 53.2266 344.095 54.7656C344.087 56.3438 342.275 57.1953 339.189 57.2031C336.087 57.1953 334.267 56.3438 334.267 54.7656C334.267 53.2266 336.087 52.375 339.189 52.375ZM332.861 59.1406V58.1406H345.517V59.1406H332.861ZM334.392 61.2812V60.3438H343.892V63.4531H335.642V64.8906H344.314V65.8594H334.423V62.5469H342.689V61.2812H334.392ZM335.548 54.7656C335.533 55.7344 336.884 56.2656 339.189 56.2656C341.493 56.2656 342.837 55.7344 342.845 54.7656C342.837 53.8516 341.493 53.3047 339.189 53.2969C336.884 53.3047 335.533 53.8516 335.548 54.7656ZM362.721 59.5V60.5H350.049V59.5H355.767V58.125H351.736V52.5312H361.142V53.5312H352.971V54.8281H360.767V55.7656H352.971V57.1406H361.221V58.125H356.986V59.5H362.721ZM351.596 63.7656C351.588 62.3203 353.314 61.5312 356.392 61.5469C359.439 61.5312 361.158 62.3203 361.174 63.7656C361.158 65.2266 359.439 65.9844 356.392 65.9844C353.314 65.9844 351.588 65.2266 351.596 63.7656ZM352.83 63.7656C352.814 64.6094 354.096 65.0469 356.392 65.0312C358.666 65.0469 359.932 64.6094 359.939 63.7656C359.932 62.9375 358.666 62.4766 356.392 62.4688C354.096 62.4766 352.814 62.9375 352.83 63.7656ZM370.51 54.5312V55.5312H363.541V54.5312H366.432V52.5469H367.651V54.5312H370.51ZM364.041 59.625C364.041 57.7812 365.299 56.4766 367.026 56.4688C368.776 56.4766 370.026 57.7812 370.041 59.625C370.026 61.4922 368.776 62.8047 367.026 62.8125C365.299 62.8047 364.041 61.4922 364.041 59.625ZM365.135 59.625C365.135 60.8594 365.924 61.7422 367.026 61.7344C368.135 61.7422 368.948 60.8594 368.948 59.625C368.948 58.4062 368.135 57.5156 367.026 57.5C365.924 57.5156 365.135 58.4062 365.135 59.625ZM371.229 65.3281V52.4688H372.385V57.9844H374.229V52.125H375.401V66.0156H374.229V59H372.385V65.3281H371.229ZM384.714 52.6406C386.792 52.6484 388.3 53.9141 388.307 55.7188C388.3 57.5312 386.792 58.7812 384.714 58.7812C382.612 58.7812 381.097 57.5312 381.104 55.7188C381.097 53.9141 382.612 52.6484 384.714 52.6406ZM382.307 55.7188C382.292 56.9375 383.315 57.7812 384.714 57.7812C386.089 57.7812 387.12 56.9375 387.12 55.7188C387.12 54.5156 386.089 53.6641 384.714 53.6719C383.315 53.6641 382.292 54.5156 382.307 55.7188ZM383.214 60.9219V59.9375H392.245V63.2812H384.448V64.8438H392.745V65.8281H383.245V62.3594H391.026V60.9219H383.214ZM391.026 59.2656V52.125H392.245V59.2656H391.026ZM398.925 54.375C398.925 56.2656 400.362 58 402.378 58.6875L401.706 59.6562C400.175 59.0938 398.964 57.9453 398.355 56.4922C397.761 58.1406 396.519 59.4141 394.894 60.0469L394.237 59.0625C396.316 58.2891 397.714 56.4297 397.722 54.2812V52.8438H398.925V54.375ZM396.081 63.4531C396.089 61.8672 397.831 60.9375 400.691 60.9375C403.542 60.9375 405.269 61.8672 405.269 63.4531C405.269 65.0703 403.542 65.9844 400.691 65.9844C397.831 65.9844 396.089 65.0703 396.081 63.4531ZM397.316 63.4531C397.3 64.4375 398.597 65.0078 400.691 65.0156C402.792 65.0078 404.073 64.4375 404.081 63.4531C404.073 62.5078 402.792 61.9219 400.691 61.9219C398.597 61.9219 397.3 62.5078 397.316 63.4531ZM403.925 60.5781V52.125H405.144V55.75H407.237V56.7812H405.144V60.5781H403.925ZM414.121 52.375C417.207 52.375 419.019 53.2266 419.027 54.7656C419.019 56.3438 417.207 57.1953 414.121 57.2031C411.019 57.1953 409.199 56.3438 409.199 54.7656C409.199 53.2266 411.019 52.375 414.121 52.375ZM407.793 59.1406V58.1406H420.449V59.1406H407.793ZM409.324 61.2812V60.3438H418.824V63.4531H410.574V64.8906H419.246V65.8594H409.355V62.5469H417.621V61.2812H409.324ZM410.48 54.7656C410.464 55.7344 411.816 56.2656 414.121 56.2656C416.425 56.2656 417.769 55.7344 417.777 54.7656C417.769 53.8516 416.425 53.3047 414.121 53.2969C411.816 53.3047 410.464 53.8516 410.48 54.7656ZM429.965 56.3906C429.973 58.75 431.684 61.1484 433.731 62.0312L433.043 63C431.418 62.2656 430.02 60.6641 429.371 58.7422C428.723 60.7812 427.317 62.5469 425.731 63.3438L424.996 62.375C426.988 61.4219 428.723 58.7969 428.731 56.3906V54.5781H425.449V53.5625H433.277V54.5781H429.965V56.3906ZM435.215 66.0156V52.125H436.449V66.0156H435.215ZM445.957 53.5781C445.942 57.5859 444.497 61.2891 439.473 63.75L438.786 62.7656C441.395 61.5156 443.004 59.9141 443.879 58.0312L439.051 58.5L438.848 57.4062L444.27 57.0469C444.52 56.2734 444.668 55.4531 444.731 54.5938H439.551V53.5781H445.957ZM448.754 66.0156V52.125H449.989V66.0156H448.754ZM463.153 53.5312V54.9219C463.138 56.625 463.138 58.5312 462.638 61.3281L461.388 61.1875C461.911 58.5312 461.911 56.5859 461.919 54.9219V54.5469H453.356V53.5312H463.153ZM452.013 64.0469V63.0312H456.981V58.0625H458.184V63.0312H464.669V64.0469H452.013ZM467.802 63.7031L466.583 67.9531H465.427L466.286 63.7031H467.802ZM4.14062 80.8906C4.14844 82.4297 5.21875 83.9844 7 84.6562L6.35938 85.5938C5.02344 85.0781 4.0625 84.0859 3.5625 82.8906C3.05469 84.2109 2.05469 85.3906 0.6875 85.9844L0.015625 85.0312C1.84375 84.2344 2.96094 82.4375 2.96875 80.8906V79H4.14062V80.8906ZM2.54688 89.5156C2.53125 87.9453 4.3125 87.0234 7.20312 87.0312C10.0781 87.0234 11.8672 87.9453 11.875 89.5156C11.8672 91.0703 10.0781 91.9844 7.20312 91.9844C4.3125 91.9844 2.53125 91.0703 2.54688 89.5156ZM3.76562 89.5156C3.75 90.4609 5.07031 91.0391 7.20312 91.0312C9.3125 91.0391 10.6406 90.4609 10.6562 89.5156C10.6406 88.5547 9.3125 87.9766 7.20312 87.9688C5.07031 87.9766 3.75 88.5547 3.76562 89.5156ZM7.625 86.2812V78.4062H8.78125V81.875H10.625V78.1406H11.7969V86.7188H10.625V82.8906H8.78125V86.2812H7.625ZM24.3519 78.125V81.6875H26.43V82.7344H24.3519V86.3281H23.1175V78.125H24.3519ZM13.4456 85.0781C14.555 85.0781 15.8519 85.0781 17.2113 85.0391V84.1797C15.5784 84.0469 14.5472 83.3984 14.555 82.3438C14.5472 81.2031 15.8284 80.5391 17.805 80.5469C19.7816 80.5391 21.055 81.2031 21.0706 82.3438C21.055 83.3906 20.0472 84.0391 18.43 84.1797V84.9922C19.7269 84.9297 21.0394 84.8281 22.2581 84.6562L22.3675 85.4844C19.3675 85.9766 16.0316 86 13.5863 86L13.4456 85.0781ZM13.7894 80.0781V79.1875H17.2113V78H18.43V79.1875H21.8363V80.0781H13.7894ZM15.305 87.8281V86.9531H24.3519V89.75H16.555V90.9844H24.8831V91.8594H15.3363V88.9219H23.1331V87.8281H15.305ZM15.7269 82.3438C15.7191 82.9688 16.5238 83.3672 17.805 83.375C19.0863 83.3672 19.8988 82.9688 19.8988 82.3438C19.8988 81.7344 19.0863 81.3672 17.805 81.3594C16.5238 81.3672 15.7191 81.7344 15.7269 82.3438ZM37.86 78.125V83H39.9381V84.0312H37.86V89H36.6256V78.125H37.86ZM26.9538 86.3906C28.0553 86.3906 29.36 86.375 30.7194 86.3281V85.2656C29.1022 85.1172 28.0553 84.3438 28.0631 83.1719C28.0553 81.8359 29.36 81.0234 31.3131 81.0312C33.2819 81.0234 34.5631 81.8359 34.5788 83.1719C34.5631 84.3359 33.5475 85.1094 31.9381 85.2656V86.2734C33.235 86.1953 34.5553 86.0781 35.7663 85.8906L35.8756 86.7656C32.8991 87.3281 29.5241 87.3672 27.0944 87.3906L26.9538 86.3906ZM27.2975 80.4219V79.5H30.7194V78.0938H31.9381V79.5H35.3444V80.4219H27.2975ZM29.0319 91.7188V88.2656H30.2663V90.6875H38.36V91.7188H29.0319ZM29.235 83.1719C29.2272 83.9297 30.0319 84.4219 31.3131 84.4219C32.5944 84.4219 33.4069 83.9297 33.4069 83.1719C33.4069 82.3828 32.5944 81.8984 31.3131 81.9062C30.0319 81.8984 29.2272 82.3828 29.235 83.1719ZM52.04 78.1406V86.4844H50.8056V84.6094H47.1181V83.5938H50.8056V81.7188H47.2588C46.3447 83.9531 44.2041 85.5703 41.2275 86.4531L40.7119 85.4844C44.0634 84.4922 46.165 82.6094 46.4072 80.2031H41.415V79.1719H47.7431C47.7431 79.7188 47.6806 80.2422 47.5634 80.7344H50.8056V78.1406H52.04ZM42.8525 89.2812C42.8447 87.625 44.6494 86.625 47.4931 86.625C50.3056 86.625 52.1181 87.625 52.1181 89.2812C52.1181 90.9453 50.3056 91.9531 47.4931 91.9531C44.6494 91.9531 42.8447 90.9453 42.8525 89.2812ZM44.0556 89.2812C44.0634 90.3281 45.3994 90.9609 47.4931 90.9531C49.5556 90.9609 50.8916 90.3281 50.8994 89.2812C50.8916 88.2344 49.5556 87.6016 47.4931 87.6094C45.3994 87.6016 44.0634 88.2344 44.0556 89.2812ZM58.5794 79.1406C60.7591 79.1484 62.3059 80.4766 62.3138 82.4062C62.3059 84.3438 60.7591 85.6641 58.5794 85.6719C56.3841 85.6641 54.8216 84.3438 54.8294 82.4062C54.8216 80.4766 56.3841 79.1484 58.5794 79.1406ZM54.1106 87.9375C56.6731 87.9453 60.2122 87.9219 63.2825 87.4688L63.3763 88.375C60.1966 88.9688 56.7825 88.9844 54.2825 88.9844L54.1106 87.9375ZM56.0325 82.4062C56.0247 83.7031 57.095 84.5938 58.5794 84.5938C60.0481 84.5938 61.1184 83.7031 61.1106 82.4062C61.1184 81.1172 60.0481 80.2188 58.5794 80.2188C57.095 80.2188 56.0247 81.1172 56.0325 82.4062ZM64.2044 92.0469V78.125H65.4231V92.0469H64.2044ZM82.705 78.1406V88.3281H81.4863V78.1406H82.705ZM71.3769 85.3594C73.4784 84.5391 74.9081 82.5078 74.9081 80.3125V78.9219H76.1581V80.3125C76.1425 82.4297 77.5878 84.3281 79.6581 85.0781L79.0175 86.0625C77.4081 85.4453 76.1581 84.1953 75.5409 82.5938C74.9394 84.2969 73.6738 85.6641 72.0488 86.3125L71.3769 85.3594ZM73.7363 91.7188V87.3906H74.955V90.6875H83.1425V91.7188H73.7363ZM92.8381 79.4219V83.0781H87.0725V84.8438H93.2288V85.8281H90.01V88.1562C91.3616 88.1016 92.7209 88.0078 93.9944 87.8594L94.0881 88.7812C91.01 89.25 87.6506 89.3125 84.9944 89.2969L84.8225 88.25C86.0413 88.25 87.4006 88.2422 88.7913 88.2031V85.8281H85.8538V82.1562H91.635V80.4219H85.8225V79.4219H92.8381ZM94.9163 92.0469V78.125H96.135V92.0469H94.9163ZM113.433 78.125V92.0156H112.198V78.125H113.433ZM102.12 88.4062C105.878 86.625 107.8 83.9609 108.073 80.6406H102.761V79.6406H109.323C109.308 83.6328 107.448 87.1719 102.792 89.4062L102.12 88.4062ZM122.581 79.8594C122.573 81.5703 124.902 82.9609 127.363 83.2969L126.878 84.2656C124.636 83.9375 122.534 82.8203 121.784 81.1953C121.027 82.8203 118.941 83.9375 116.691 84.2656L116.238 83.2969C118.683 82.9609 120.995 81.5703 120.988 79.8594V79.8281H116.613V78.8281H126.988V79.8281H122.581V79.8594ZM115.441 86.2969V85.2812H128.159V86.2969H122.503V89.1406H121.284V86.2969H115.441ZM117.066 91.7188V87.75H118.3V90.6875H126.738V91.7188H117.066ZM135.292 78.375C138.378 78.375 140.191 79.2266 140.199 80.7656C140.191 82.3438 138.378 83.1953 135.292 83.2031C132.191 83.1953 130.371 82.3438 130.371 80.7656C130.371 79.2266 132.191 78.375 135.292 78.375ZM128.964 85.1406V84.1406H141.621V85.1406H128.964ZM130.496 87.2812V86.3438H139.996V89.4531H131.746V90.8906H140.417V91.8594H130.527V88.5469H138.792V87.2812H130.496ZM131.652 80.7656C131.636 81.7344 132.988 82.2656 135.292 82.2656C137.597 82.2656 138.941 81.7344 138.949 80.7656C138.941 79.8516 137.597 79.3047 135.292 79.2969C132.988 79.3047 131.636 79.8516 131.652 80.7656ZM153.184 79.3906V85.7812H146.762V79.3906H153.184ZM147.965 84.7969H151.996V80.3906H147.965V84.7969ZM148.34 91.7188V87.3438H149.543V90.6875H157.668V91.7188H148.34ZM155.809 88.3125V78.125H157.027V82.3594H159.121V83.3906H157.027V88.3125H155.809ZM172.348 83.9688V84.9531H159.676V83.9688H172.348ZM161.208 87.1562V86.2031H170.708V89.4219H162.458V90.8594H171.129V91.8594H161.239V88.5H169.504V87.1562H161.208ZM161.364 82.8281V78.6094H170.692V79.5938H162.598V81.8281H170.833V82.8281H161.364ZM176.919 79.2031C178.809 79.2109 180.177 80.8359 180.364 83.4375H183.481V78.125H184.7V92.0469H183.481V84.4531H180.38C180.247 87.1797 178.856 88.8828 176.919 88.875C174.864 88.8828 173.427 87.0078 173.434 84.0469C173.427 81.0938 174.864 79.2109 176.919 79.2031ZM174.606 84.0469C174.614 86.3047 175.552 87.7891 176.919 87.7812C178.278 87.7891 179.231 86.3047 179.231 84.0469C179.231 81.7891 178.278 80.3047 176.919 80.2969C175.552 80.3047 174.614 81.7891 174.606 84.0469ZM197.552 78.125V81.4375H199.646V82.4688H197.552V85.6406H196.318V78.125H197.552ZM186.724 84.8125C190.161 83.9922 192.208 82.2344 192.427 79.9844H187.333V78.9844H193.771C193.763 82.4531 191.294 84.8125 187.193 85.8281L186.724 84.8125ZM188.724 91.8281V86.2812H189.958V88.0469H196.333V86.2812H197.552V91.8281H188.724ZM189.958 90.8281H196.333V89.0312H189.958V90.8281ZM211.654 78.125V92.0156H210.435V78.125H211.654ZM201.107 88.4375V79.5H202.31V87.375C204.435 87.3594 206.622 87.1953 208.951 86.7031L209.122 87.75C206.654 88.2656 204.458 88.4375 202.232 88.4375H201.107ZM224.459 78.125V83.625H226.787V84.6562H224.459V92.0469H223.24V78.125H224.459ZM214.318 88.5625V79.4844H220.803V80.5H215.537V87.5312C218.053 87.5234 219.826 87.4141 221.896 87.0312L222.053 88.0938C219.873 88.4844 218.053 88.5625 215.412 88.5625H214.318ZM228.686 90.8438C228.139 90.8359 227.67 90.3828 227.686 89.8281C227.67 89.2812 228.139 88.8281 228.686 88.8281C229.24 88.8281 229.693 89.2812 229.686 89.8281C229.693 90.3828 229.24 90.8359 228.686 90.8438Z" fill="black"/>
</svg>
