<svg width="135" height="52" viewBox="0 0 135 52" fill="none" xmlns="http://www.w3.org/2000/svg">
<rect width="135" height="52" rx="26" fill="black"/>
<path d="M36.1875 19.3438V29.5938H34.7031V24.3281H32.0312V23.125H34.7031V19.3438H36.1875ZM24.5312 26.6719C26.6797 25.9453 28.0234 24.1016 28.0156 22.1719V21.625H24.9844V20.4062H32.5312V21.625H29.5312V22.1719C29.5234 23.9141 30.7891 25.6719 32.9062 26.375L32.1406 27.5625C30.5703 27.0156 29.4062 25.8906 28.7969 24.5C28.1875 26.0469 26.9609 27.2812 25.2969 27.875L24.5312 26.6719ZM27.0938 33.0312V28.6719H28.5781V31.8281H36.5625V33.0312H27.0938ZM42.2113 23.625C42.2113 25.8281 43.2347 28.0703 45.1644 29.1094L44.3363 30.2031C42.9769 29.4844 42.0394 28.1484 41.5316 26.5625C41.0316 28.2578 40.0941 29.7188 38.7425 30.5312L37.8675 29.4062C39.805 28.2812 40.805 25.8828 40.8206 23.625V23.0625H38.2894V21.8438H40.8206V19.8281H42.2113V21.8438H44.6956V23.0625H42.2113V23.625ZM43.7738 26.0156V24.7812H45.7894V19.625H47.1956V32.625H45.7894V26.0156H43.7738ZM48.6175 33.3281V19.3281H50.0394V33.3281H48.6175ZM64.3444 30.3594V31.5938H51.5319V30.3594H57.1725V27.4844H53.0006V20.2812H54.485V22.6875H61.36V20.2812H62.8288V27.4844H58.6413V30.3594H64.3444ZM54.485 26.2812H61.36V23.8906H54.485V26.2812ZM76.6806 19.3281V33.3281H75.1806V19.3281H76.6806ZM65.1806 29.5781C68.8994 27.8047 70.7197 25.2812 71.0088 22.0156H65.8525V20.8281H72.5088C72.5088 24.9297 70.7666 28.4766 65.9619 30.7812L65.1806 29.5781Z" fill="white"/>
<path d="M99.5 29C100.328 29 101 29.6716 101 30.5C101 31.3284 100.328 32 99.5 32C98.6716 32 98 31.3284 98 30.5C98 29.6716 98.6716 29 99.5 29ZM106.5 24.5C107.328 24.5 108 25.1716 108 26C108 26.8284 107.328 27.5 106.5 27.5C105.672 27.5 105 26.8284 105 26C105 25.1716 105.672 24.5 106.5 24.5ZM99.5 20C100.328 20 101 20.6716 101 21.5C101 22.3284 100.328 23 99.5 23C98.6716 23 98 22.3284 98 21.5C98 20.6716 98.6716 20 99.5 20Z" fill="#00A7E1"/>
</svg>
