<svg width="365" height="99" viewBox="0 0 365 99" fill="none" xmlns="http://www.w3.org/2000/svg">
<path d="M1.57031 24V7.03125H7.94531C11.8359 7.03125 13.9102 9.21094 13.9219 12.4453C13.9102 14.7539 12.8555 16.4648 10.8633 17.2734L14.5312 24H11.1328L7.80469 17.7891H4.61719V24H1.57031ZM4.61719 15.2344H7.47656C9.77344 15.2461 10.8047 14.2617 10.8047 12.4453C10.8047 10.6406 9.77344 9.58594 7.47656 9.58594H4.61719V15.2344ZM21.2934 24.2578C17.5786 24.2578 15.1997 21.6211 15.1997 17.6953C15.1997 13.7344 17.5786 11.1094 21.2934 11.1094C25.02 11.1094 27.3989 13.7344 27.3872 17.6953C27.3989 21.6211 25.02 24.2578 21.2934 24.2578ZM18.2231 17.6719C18.2231 20.0039 19.2427 21.8672 21.3169 21.8672C23.3559 21.8672 24.3755 20.0039 24.3638 17.6719C24.3755 15.3398 23.3559 13.4648 21.3169 13.4766C19.2427 13.4648 18.2231 15.3398 18.2231 17.6719ZM29.3681 24V7.03125H32.415V14.2266H40.3134V7.03125H43.3838V24H40.3134V16.7812H32.415V24H29.3681ZM55.2788 11.6953C55.1264 10.2305 53.8959 9.38672 52.0678 9.39844C50.1342 9.38672 48.9858 10.3242 48.9741 11.6016C48.9623 13.0312 50.4741 13.6172 51.8803 13.9453L53.4741 14.3672C56.0053 14.9531 58.4428 16.2891 58.4428 19.2422C58.4428 22.2188 56.0873 24.2578 52.0209 24.2578C48.0717 24.2578 45.5639 22.3594 45.435 19.0078H48.435C48.5756 20.7773 50.0639 21.6445 51.9975 21.6562C54.0014 21.6445 55.3842 20.6719 55.3959 19.2188C55.3842 17.8828 54.1655 17.3203 52.3256 16.8516L50.4038 16.3594C47.6147 15.6328 45.8803 14.2266 45.8803 11.7891C45.8803 8.78906 48.5405 6.79688 52.1147 6.79688C55.7123 6.79688 58.1616 8.82422 58.2084 11.6953H55.2788ZM82.4906 4.92188V20.2266H79.8656V4.92188H82.4906ZM65.2172 11.6016C65.2172 8.51953 67.7133 6.31641 70.9359 6.30469C74.1586 6.31641 76.643 8.51953 76.6312 11.6016C76.643 14.7305 74.1586 16.9219 70.9359 16.9219C67.7133 16.9219 65.2172 14.7305 65.2172 11.6016ZM67.7719 11.6016C67.7602 13.4766 69.1195 14.6484 70.9359 14.6484C72.7055 14.6484 74.0766 13.4766 74.0766 11.6016C74.0766 9.77344 72.7055 8.57812 70.9359 8.57812C69.1195 8.57812 67.7602 9.77344 67.7719 11.6016ZM68.475 25.6641V18.6797H71.1V23.5547H83.0766V25.6641H68.475ZM104.417 14.7656V16.875H85.1044V14.7656H104.417ZM86.0419 11.7656C89.9677 11.3789 92.5223 9.80859 92.9208 8.03906H86.8622V5.90625H102.683V8.03906H96.5653C96.952 9.78516 99.4833 11.3789 103.503 11.7656L102.589 13.8281C98.7333 13.4297 95.8856 11.8945 94.7372 9.75C93.5888 11.8945 90.7763 13.4297 86.9325 13.8281L86.0419 11.7656ZM87.3544 22.1719C87.3544 19.7109 90.1317 18.2812 94.7372 18.2812C99.3075 18.2812 102.061 19.7109 102.073 22.1719C102.061 24.668 99.3075 26.0625 94.7372 26.0625C90.1317 26.0625 87.3544 24.668 87.3544 22.1719ZM90.0028 22.1719C89.9911 23.4023 91.6552 24.0117 94.7372 24.0234C97.7723 24.0117 99.4481 23.4023 99.4716 22.1719C99.4481 20.9414 97.7723 20.3203 94.7372 20.3203C91.6552 20.3203 89.9911 20.9414 90.0028 22.1719Z" fill="black"/>
<path d="M1.25 69V57.6875H5.09375C7.74219 57.6875 8.95312 59.1562 8.95312 61.1719C8.95312 62.6719 8.28125 63.8438 6.84375 64.3438L9.39062 69H7.75L5.38281 64.6016C5.29688 64.6094 5.20312 64.6094 5.10938 64.6094H2.65625V69H1.25ZM2.65625 63.3281H5.04688C6.85156 63.3281 7.55469 62.5156 7.5625 61.1719C7.55469 59.8203 6.85156 58.9375 5.03125 58.9375H2.65625V63.3281ZM13.8675 69.1719C11.555 69.1797 9.9925 67.4297 9.9925 64.7969C9.9925 62.1484 11.555 60.4062 13.8675 60.4062C16.1722 60.4062 17.7191 62.1484 17.7113 64.7969C17.7191 67.4297 16.1722 69.1797 13.8675 69.1719ZM11.3363 64.7969C11.3441 66.4922 12.1409 67.9844 13.8675 67.9844C15.5784 67.9844 16.3675 66.4922 16.3675 64.7969C16.3675 63.1094 15.5784 61.5938 13.8675 61.5938C12.1409 61.5938 11.3441 63.1094 11.3363 64.7969ZM19.3288 69V57.6875H20.735V62.7188H26.7194V57.6875H28.1413V69H26.7194V63.9531H20.735V69H19.3288ZM36.4775 60.5312C36.3603 59.4219 35.3291 58.7812 33.9775 58.7812C32.4775 58.7812 31.5009 59.5625 31.4931 60.6406C31.5009 61.8281 32.8213 62.2734 33.6806 62.4844L34.8056 62.7969C36.0166 63.1094 38.0088 63.8047 38.0088 65.9219C38.0088 67.7656 36.5244 69.1953 33.8994 69.2031C31.4619 69.1953 29.9541 67.9375 29.8213 66.0625H31.2588C31.3759 67.3281 32.5556 67.9297 33.8994 67.9219C35.4619 67.9297 36.6338 67.125 36.6338 65.8906C36.6338 64.7891 35.5869 64.3672 34.3994 64.0312L33.0088 63.6562C31.2353 63.1406 30.1259 62.2344 30.1338 60.7031C30.1259 58.7891 31.8291 57.5312 34.0244 57.5312C36.2197 57.5312 37.7978 58.8125 37.8525 60.5312H36.4775ZM54.1969 56.375V70.2656H52.9625V56.375H54.1969ZM42.8844 66.6562C46.6422 64.875 48.5641 62.2109 48.8375 58.8906H43.525V57.8906H50.0875C50.0719 61.8828 48.2125 65.4219 43.5563 67.6562L42.8844 66.6562ZM63.3456 58.1094C63.3378 59.8203 65.6659 61.2109 68.1269 61.5469L67.6425 62.5156C65.4003 62.1875 63.2988 61.0703 62.5488 59.4453C61.7909 61.0703 59.705 62.1875 57.455 62.5156L57.0019 61.5469C59.4472 61.2109 61.7597 59.8203 61.7519 58.1094V58.0781H57.3769V57.0781H67.7519V58.0781H63.3456V58.1094ZM56.205 64.5469V63.5312H68.9238V64.5469H63.2675V67.3906H62.0488V64.5469H56.205ZM57.83 69.9688V66H59.0644V68.9375H67.5019V69.9688H57.83ZM81.635 56.375V70.2656H80.4475V56.375H81.635ZM69.9006 62.375C69.9084 59.4219 71.0803 57.5547 72.885 57.5469C74.5725 57.5547 75.7131 59.1797 75.8694 61.7969H77.6663V56.6719H78.8381V69.5625H77.6663V62.8125H75.8772C75.76 65.5156 74.5959 67.2109 72.885 67.2031C71.0803 67.2109 69.9084 65.3281 69.9006 62.375ZM71.0569 62.375C71.0413 64.625 71.76 66.0469 72.885 66.0312C74.0178 66.0469 74.7366 64.625 74.7288 62.375C74.7366 60.1172 74.0178 58.7031 72.885 58.7031C71.76 58.7031 71.0413 60.1172 71.0569 62.375ZM97.9169 56.3594V61.8438H99.9481V62.8906H97.9169V70.2656H96.6981V56.3594H97.9169ZM87.3544 66.625V57.8438H90.8856V58.8594H88.5731V65.5859C89.2606 65.5625 90.1044 65.5 91.0263 65.2969L91.1513 66.3281C89.8388 66.6016 88.7919 66.625 87.9638 66.625H87.3544ZM91.6825 66.625V57.8438H95.3856V58.8594H92.9013V65.5938C93.9872 65.5781 94.8544 65.5156 95.8388 65.2656L95.9638 66.2969C94.745 66.5938 93.7606 66.625 92.3544 66.625H91.6825ZM113.144 64.0781V65.0938H100.425V64.0781H113.144ZM102.034 57.8438V56.8594H111.503V60.2812H103.3V61.8281H111.8V62.7969H102.081V59.3594H110.269V57.8438H102.034ZM102.113 69.9688V66.1875H103.347V68.9375H111.8V69.9688H102.113ZM122.582 60.1094C122.574 62.6484 124.301 65.1953 126.348 66.125L125.598 67.0938C124.012 66.3281 122.644 64.6797 121.98 62.7031C121.34 64.7969 119.973 66.5547 118.348 67.375L117.566 66.3438C119.637 65.3984 121.348 62.7422 121.363 60.1094V57.5781H122.582V60.1094ZM127.863 70.2969V56.375H129.098V70.2969H127.863ZM142.668 56.375V64.7969H141.434V61.625H139.074V60.6094H141.434V56.375H142.668ZM131.168 58.8438V57.8438H134.621V56.25H135.824V57.8438H139.277V58.8438H131.168ZM131.996 62.0312C131.996 60.5781 133.332 59.5625 135.215 59.5625C137.106 59.5625 138.434 60.5781 138.449 62.0312C138.434 63.5312 137.106 64.5156 135.215 64.5156C133.332 64.5156 131.996 63.5312 131.996 62.0312ZM133.168 62.0312C133.168 62.9531 134.004 63.5625 135.215 63.5781C136.426 63.5625 137.262 62.9531 137.262 62.0312C137.262 61.1406 136.426 60.5156 135.215 60.5156C134.004 60.5156 133.168 61.1406 133.168 62.0312ZM133.59 70.0781V65.5469H142.668V70.0781H133.59ZM134.809 69.0781H141.465V66.5312H134.809V69.0781ZM161.059 63.7344V64.7344H155.403V67.4531H154.184V64.7344H148.341V63.7344H161.059ZM149.966 69.9688V66.1719H151.184V68.9375H159.637V69.9688H149.966ZM150.044 62.375V56.8281H151.262V58.6094H158.137V56.8281H159.356V62.375H150.044ZM151.262 61.375H158.137V59.5469H151.262V61.375ZM166.599 58.6094C166.591 60.5234 168.021 62.2891 170.036 62.9844L169.364 63.9688C167.825 63.3984 166.614 62.2188 166.021 60.7344C165.435 62.375 164.185 63.6562 162.552 64.2969L161.88 63.2812C163.989 62.5391 165.38 60.7031 165.396 58.5625V57.0938H166.599V58.6094ZM164.036 66.3438V65.3594H173.38V70.2656H172.146V66.3438H164.036ZM169.052 60.3281V59.2969H172.146V56.375H173.38V64.5938H172.146V60.3281H169.052ZM181.701 57.2812C184.599 57.2891 186.779 58.8047 186.779 61.0938C186.779 63.4062 184.599 64.9219 181.701 64.9062C178.802 64.9219 176.622 63.4062 176.622 61.0938C176.622 58.8047 178.802 57.2891 181.701 57.2812ZM175.372 68.4219V67.3906H188.091V68.4219H175.372ZM177.794 61.0938C177.779 62.7812 179.458 63.9062 181.701 63.9062C183.927 63.9062 185.591 62.7812 185.591 61.0938C185.591 59.4297 183.927 58.2734 181.701 58.2812C179.458 58.2734 177.779 59.4297 177.794 61.0938ZM201.599 67.5156V68.5469H188.881V67.5156H194.599V64.8906H190.474V60.6094H198.787V58.4219H190.443V57.4062H199.99V61.6094H191.693V63.875H200.318V64.8906H195.803V67.5156H201.599ZM221.655 56.375V70.2656H220.483V56.375H221.655ZM209.608 66.5625C211.546 65.4062 212.678 62.8672 212.671 60.3438V59.0312H209.999V58.0156H216.405V59.0312H213.858V60.3438C213.858 62.7422 214.944 65.1406 216.858 66.25L216.108 67.1562C214.741 66.3359 213.772 64.8359 213.288 63.0703C212.788 64.9844 211.78 66.6172 210.389 67.4844L209.608 66.5625ZM215.342 62.3906V61.3906H217.686V56.7188H218.842V69.5469H217.686V62.3906H215.342ZM235.944 63.0938V64.1094H230.21V65.75H234.398V70.0781H224.835V65.75H229.007V64.1094H223.288V63.0938H235.944ZM224.476 57.8438V56.8281H234.741V57.8438H232.601V60.7656H234.694V61.7812H224.523V60.7656H226.616V57.8438H224.476ZM226.054 69.0781H233.194V66.7188H226.054V69.0781ZM227.835 60.7656H231.382V57.8438H227.835V60.7656ZM241.343 57.3906C243.523 57.3984 245.07 58.7266 245.077 60.6562C245.07 62.5938 243.523 63.9141 241.343 63.9219C239.148 63.9141 237.585 62.5938 237.593 60.6562C237.585 58.7266 239.148 57.3984 241.343 57.3906ZM236.874 66.1875C239.437 66.1953 242.976 66.1719 246.046 65.7188L246.14 66.625C242.96 67.2188 239.546 67.2344 237.046 67.2344L236.874 66.1875ZM238.796 60.6562C238.788 61.9531 239.859 62.8438 241.343 62.8438C242.812 62.8438 243.882 61.9531 243.874 60.6562C243.882 59.3672 242.812 58.4688 241.343 58.4688C239.859 58.4688 238.788 59.3672 238.796 60.6562ZM246.968 70.2969V56.375H248.187V70.2969H246.968ZM264.844 56.375V61.25H266.922V62.2812H264.844V67.25H263.609V56.375H264.844ZM253.938 64.6406C255.039 64.6406 256.344 64.625 257.703 64.5781V63.5156C256.086 63.3672 255.039 62.5938 255.047 61.4219C255.039 60.0859 256.344 59.2734 258.297 59.2812C260.266 59.2734 261.547 60.0859 261.562 61.4219C261.547 62.5859 260.531 63.3594 258.922 63.5156V64.5234C260.219 64.4453 261.539 64.3281 262.75 64.1406L262.859 65.0156C259.883 65.5781 256.508 65.6172 254.078 65.6406L253.938 64.6406ZM254.281 58.6719V57.75H257.703V56.3438H258.922V57.75H262.328V58.6719H254.281ZM256.016 69.9688V66.5156H257.25V68.9375H265.344V69.9688H256.016ZM256.219 61.4219C256.211 62.1797 257.016 62.6719 258.297 62.6719C259.578 62.6719 260.391 62.1797 260.391 61.4219C260.391 60.6328 259.578 60.1484 258.297 60.1562C257.016 60.1484 256.211 60.6328 256.219 61.4219ZM279.024 56.3906V64.7344H277.789V62.8594H274.102V61.8438H277.789V59.9688H274.242C273.328 62.2031 271.188 63.8203 268.211 64.7031L267.696 63.7344C271.047 62.7422 273.149 60.8594 273.391 58.4531H268.399V57.4219H274.727C274.727 57.9688 274.664 58.4922 274.547 58.9844H277.789V56.3906H279.024ZM269.836 67.5312C269.828 65.875 271.633 64.875 274.477 64.875C277.289 64.875 279.102 65.875 279.102 67.5312C279.102 69.1953 277.289 70.2031 274.477 70.2031C271.633 70.2031 269.828 69.1953 269.836 67.5312ZM271.039 67.5312C271.047 68.5781 272.383 69.2109 274.477 69.2031C276.539 69.2109 277.875 68.5781 277.883 67.5312C277.875 66.4844 276.539 65.8516 274.477 65.8594C272.383 65.8516 271.047 66.4844 271.039 67.5312ZM295.618 57.2812V58.3438C295.618 59.5859 295.618 61.1406 295.228 63.3438H297.368V64.3594H294.024V70.2656H292.806V64.3594H289.243V70.2656H288.024V64.3594H284.712V63.3438H293.97C294.423 61.1641 294.423 59.5781 294.431 58.3438V58.2969H286.337V57.2812H295.618ZM310.095 56.375V70.2656H308.923V56.375H310.095ZM298.048 66.5625C299.986 65.4062 301.118 62.8672 301.111 60.3438V59.0312H298.439V58.0156H304.845V59.0312H302.298V60.3438C302.298 62.7422 303.384 65.1406 305.298 66.25L304.548 67.1562C303.181 66.3359 302.212 64.8359 301.728 63.0703C301.228 64.9844 300.22 66.6172 298.829 67.4844L298.048 66.5625ZM303.783 62.3906V61.3906H306.126V56.7188H307.283V69.5469H306.126V62.3906H303.783ZM320.252 58.9375C320.252 60.7422 321.642 62.4688 323.674 63.1719L323.033 64.1406C321.471 63.5781 320.26 62.4141 319.666 60.9844C319.064 62.5781 317.775 63.8594 316.127 64.4688L315.486 63.5C317.533 62.7656 319.017 60.9141 319.017 58.9531V58.3438H315.877V57.3438H323.361V58.3438H320.252V58.9375ZM317.596 66.4531V65.4375H326.939V70.2656H325.705V66.4531H317.596ZM322.924 61.0469V60.0156H325.705V56.375H326.939V64.7031H325.705V61.0469H322.924ZM339.791 56.375V59.9375H341.885V60.9844H339.791V64.4531H338.573V56.375H339.791ZM328.963 58.8281V57.8125H332.494V56.25H333.713V57.8125H337.244V58.8281H328.963ZM329.76 61.9062C329.752 60.4219 331.088 59.4766 333.104 59.4688C335.096 59.4766 336.432 60.4219 336.448 61.9062C336.432 63.3906 335.096 64.3516 333.104 64.3438C331.088 64.3516 329.752 63.3906 329.76 61.9062ZM330.932 61.9062C330.924 62.8125 331.791 63.4062 333.104 63.4062C334.401 63.4062 335.276 62.8125 335.291 61.9062C335.276 61.0078 334.401 60.4062 333.104 60.4219C331.791 60.4062 330.924 61.0078 330.932 61.9062ZM331.01 70.0781V65.0625H332.229V66.5469H338.573V65.0625H339.791V70.0781H331.01ZM332.229 69.0938H338.573V67.5156H332.229V69.0938ZM347.221 58.5625C347.206 60.5469 348.62 62.2891 350.659 62.9844L349.971 63.9375C348.44 63.3672 347.237 62.2344 346.635 60.7734C346.042 62.4375 344.776 63.7266 343.096 64.3594L342.424 63.3594C344.565 62.6094 345.987 60.7656 346.003 58.6094V57.1719H347.221V58.5625ZM344.69 67.6406C344.682 65.9688 346.456 65.0078 349.346 65.0156C352.229 65.0078 354.003 65.9688 354.003 67.6406C354.003 69.2969 352.229 70.2344 349.346 70.2344C346.456 70.2344 344.682 69.2969 344.69 67.6406ZM345.909 67.6406C345.901 68.6484 347.213 69.2578 349.346 69.25C351.471 69.2578 352.784 68.6484 352.784 67.6406C352.784 66.6016 351.471 65.9844 349.346 65.9844C347.213 65.9844 345.901 66.6016 345.909 67.6406ZM349.628 60.375V59.3594H352.721V56.375H353.956V64.6094H352.721V60.375H349.628ZM8.26562 81.9219V82.6406C8.25781 83.7422 8.25781 85.5781 7.85938 88.1562L6.625 88.0469C7.00781 85.7188 7.03906 84.0312 7.03125 82.9219H1.20312V81.9219H8.26562ZM0.421875 90.1875C1.33594 90.1797 2.35156 90.1719 3.42188 90.1484V85.8906H4.625V90.1094C6.16406 90.0547 7.74219 89.9531 9.1875 89.7812L9.25 90.7031C6.32812 91.1562 3.0625 91.2188 0.578125 91.2031L0.421875 90.1875ZM10.0625 94.2656V80.375H11.2812V86.1875H13.5312V87.25H11.2812V94.2656H10.0625ZM29.235 80.3906V90.5781H28.0163V80.3906H29.235ZM17.9069 87.6094C20.0084 86.7891 21.4381 84.7578 21.4381 82.5625V81.1719H22.6881V82.5625C22.6725 84.6797 24.1178 86.5781 26.1881 87.3281L25.5475 88.3125C23.9381 87.6953 22.6881 86.4453 22.0709 84.8438C21.4694 86.5469 20.2038 87.9141 18.5788 88.5625L17.9069 87.6094ZM20.2663 93.9688V89.6406H21.485V92.9375H29.6725V93.9688H20.2663ZM39.3681 81.6719V85.3281H33.6025V87.0938H39.7588V88.0781H36.54V90.4062C37.8916 90.3516 39.2509 90.2578 40.5244 90.1094L40.6181 91.0312C37.54 91.5 34.1806 91.5625 31.5244 91.5469L31.3525 90.5C32.5713 90.5 33.9306 90.4922 35.3213 90.4531V88.0781H32.3838V84.4062H38.165V82.6719H32.3525V81.6719H39.3681ZM41.4463 94.2969V80.375H42.665V94.2969H41.4463ZM49.5638 82.5625C49.5481 84.5469 50.9622 86.2891 53.0013 86.9844L52.3138 87.9375C50.7825 87.3672 49.5794 86.2344 48.9778 84.7734C48.3841 86.4375 47.1184 87.7266 45.4388 88.3594L44.7669 87.3594C46.9075 86.6094 48.3294 84.7656 48.345 82.6094V81.1719H49.5638V82.5625ZM47.0325 91.6406C47.0247 89.9688 48.7981 89.0078 51.6888 89.0156C54.5716 89.0078 56.345 89.9688 56.345 91.6406C56.345 93.2969 54.5716 94.2344 51.6888 94.2344C48.7981 94.2344 47.0247 93.2969 47.0325 91.6406ZM48.2513 91.6406C48.2434 92.6484 49.5559 93.2578 51.6888 93.25C53.8138 93.2578 55.1263 92.6484 55.1263 91.6406C55.1263 90.6016 53.8138 89.9844 51.6888 89.9844C49.5559 89.9844 48.2434 90.6016 48.2513 91.6406ZM51.97 84.375V83.3594H55.0638V80.375H56.2981V88.6094H55.0638V84.375H51.97ZM64.6188 80.625C67.7047 80.625 69.5172 81.4766 69.525 83.0156C69.5172 84.5938 67.7047 85.4453 64.6188 85.4531C61.5172 85.4453 59.6969 84.5938 59.6969 83.0156C59.6969 81.4766 61.5172 80.625 64.6188 80.625ZM58.2906 87.3906V86.3906H70.9469V87.3906H58.2906ZM59.8219 89.5312V88.5938H69.3219V91.7031H61.0719V93.1406H69.7438V94.1094H59.8531V90.7969H68.1188V89.5312H59.8219ZM60.9781 83.0156C60.9625 83.9844 62.3141 84.5156 64.6188 84.5156C66.9234 84.5156 68.2672 83.9844 68.275 83.0156C68.2672 82.1016 66.9234 81.5547 64.6188 81.5469C62.3141 81.5547 60.9625 82.1016 60.9781 83.0156ZM79.5569 84.6562C79.5647 86.8906 80.6975 89.1797 82.5881 90.1875L81.885 91.1094C80.5022 90.3516 79.5022 88.9141 78.9944 87.2422C78.5022 89.0234 77.51 90.5859 76.1194 91.4219L75.385 90.4844C77.2756 89.3906 78.3928 86.9531 78.4006 84.6562V83.9688H75.76V82.9531H78.4006V80.8906H79.5725V82.9531H82.1663V83.9688H79.5569V84.6562ZM81.2131 86.9062V85.8594H83.4006V80.7188H84.5569V93.5469H83.4006V86.9062H81.2131ZM86.1975 94.2656V80.375H87.3694V94.2656H86.1975ZM100.893 80.375V94.2656H99.7213V80.375H100.893ZM88.9869 90.375C92.0103 88.5859 93.5259 86.0781 93.7681 83.1719H89.6119V82.1562H94.9869C94.9869 82.8672 94.9244 83.5703 94.7994 84.25H96.9088V80.75H98.0806V93.5625H96.9088V88.75H94.3306V87.7344H96.9088V85.2656H94.5572C93.8853 87.6172 92.3619 89.6953 89.7369 91.2656L88.9869 90.375ZM107.339 82.9375C107.339 84.7422 108.729 86.4688 110.761 87.1719L110.12 88.1406C108.558 87.5781 107.347 86.4141 106.753 84.9844C106.151 86.5781 104.862 87.8594 103.214 88.4688L102.573 87.5C104.62 86.7656 106.104 84.9141 106.104 82.9531V82.3438H102.964V81.3438H110.448V82.3438H107.339V82.9375ZM104.683 90.4531V89.4375H114.026V94.2656H112.792V90.4531H104.683ZM110.011 85.0469V84.0156H112.792V80.375H114.026V88.7031H112.792V85.0469H110.011ZM122.347 81.2812C125.245 81.2891 127.425 82.8047 127.425 85.0938C127.425 87.4062 125.245 88.9219 122.347 88.9062C119.448 88.9219 117.269 87.4062 117.269 85.0938C117.269 82.8047 119.448 81.2891 122.347 81.2812ZM116.019 92.4219V91.3906H128.738V92.4219H116.019ZM118.441 85.0938C118.425 86.7812 120.105 87.9062 122.347 87.9062C124.573 87.9062 126.238 86.7812 126.238 85.0938C126.238 83.4297 124.573 82.2734 122.347 82.2812C120.105 82.2734 118.425 83.4297 118.441 85.0938ZM142.246 91.5156V92.5469H129.527V91.5156H135.246V88.8906H131.121V84.6094H139.433V82.4219H131.089V81.4062H140.636V85.6094H132.339V87.875H140.964V88.8906H136.449V91.5156H142.246ZM153.902 81.2812C153.895 84.7656 151.402 87.2656 147.402 88.4062L146.887 87.4375C150.207 86.5 152.332 84.6562 152.598 82.2969H147.606V81.2812H153.902ZM149.231 94.0781V88.9062H158.246V94.0781H149.231ZM150.418 93.0781H157.027V89.8906H150.418V93.0781ZM153.934 85V83.9688H157.012V80.3906H158.246V88.3125H157.012V85H153.934ZM172.895 86.9844V88H160.239V86.9844H172.895ZM160.958 85.1719C163.379 84.8906 165.715 83.6953 165.77 82.1094H161.395V81.0938H171.77V82.1094H167.364C167.418 83.6797 169.731 84.8906 172.192 85.1719L171.739 86.1562C169.465 85.8672 167.333 84.8438 166.567 83.3047C165.801 84.8438 163.684 85.8672 161.395 86.1562L160.958 85.1719ZM161.77 91.7344C161.762 90.1406 163.567 89.2188 166.567 89.2188C169.543 89.2188 171.333 90.1406 171.348 91.7344C171.333 93.3438 169.543 94.2344 166.567 94.2344C163.567 94.2344 161.762 93.3438 161.77 91.7344ZM163.02 91.7344C163.004 92.7031 164.34 93.2578 166.567 93.25C168.77 93.2578 170.106 92.7031 170.114 91.7344C170.106 90.7578 168.77 90.2031 166.567 90.1875C164.34 90.2031 163.004 90.7578 163.02 91.7344ZM184.606 80.375V83.9375H186.7V84.9844H184.606V88.4531H183.387V80.375H184.606ZM173.778 82.8281V81.8125H177.309V80.25H178.528V81.8125H182.059V82.8281H173.778ZM174.575 85.9062C174.567 84.4219 175.903 83.4766 177.919 83.4688C179.911 83.4766 181.247 84.4219 181.262 85.9062C181.247 87.3906 179.911 88.3516 177.919 88.3438C175.903 88.3516 174.567 87.3906 174.575 85.9062ZM175.747 85.9062C175.739 86.8125 176.606 87.4062 177.919 87.4062C179.216 87.4062 180.091 86.8125 180.106 85.9062C180.091 85.0078 179.216 84.4062 177.919 84.4219C176.606 84.4062 175.739 85.0078 175.747 85.9062ZM175.825 94.0781V89.0625H177.044V90.5469H183.387V89.0625H184.606V94.0781H175.825ZM177.044 93.0938H183.387V91.5156H177.044V93.0938ZM198.708 80.375V94.2656H197.489V80.375H198.708ZM188.161 90.6875V81.75H189.364V89.625C191.489 89.6094 193.677 89.4453 196.005 88.9531L196.177 90C193.708 90.5156 191.513 90.6875 189.286 90.6875H188.161ZM211.513 80.375V85.875H213.841V86.9062H211.513V94.2969H210.294V80.375H211.513ZM201.372 90.8125V81.7344H207.857V82.75H202.591V89.7812C205.107 89.7734 206.88 89.6641 208.951 89.2812L209.107 90.3438C206.927 90.7344 205.107 90.8125 202.466 90.8125H201.372ZM215.74 93.0938C215.193 93.0859 214.724 92.6328 214.74 92.0781C214.724 91.5312 215.193 91.0781 215.74 91.0781C216.295 91.0781 216.748 91.5312 216.74 92.0781C216.748 92.6328 216.295 93.0859 215.74 93.0938Z" fill="black"/>
</svg>
