<svg width="437" height="54" viewBox="0 0 437 54" fill="none" xmlns="http://www.w3.org/2000/svg">
<path d="M13.4531 41.5078H0V1.91406H13.6719C25.4844 1.91406 32.6211 9.32422 32.6484 21.6562C32.6211 34.043 25.4844 41.5078 13.4531 41.5078ZM7.10938 35.3281H13.0703C21.3555 35.3555 25.5391 30.7891 25.5391 21.6562C25.5391 12.5781 21.3555 8.06641 13.2891 8.09375H7.10938V35.3281ZM50.6691 42.1094C41.7277 42.1094 36.2316 36.1484 36.2316 26.8516C36.2316 17.6641 41.8097 11.4297 50.2863 11.4297C57.5597 11.4297 63.8488 15.9961 63.8488 26.4141V28.6016H43.1222C43.2316 33.6602 46.212 36.668 50.7238 36.6406C53.7863 36.668 55.837 35.3555 56.7394 33.5781H63.5753C62.3175 38.7188 57.5597 42.1094 50.6691 42.1094ZM43.1495 23.8438H57.1769C57.1495 19.7969 54.4152 16.8438 50.3956 16.8438C46.212 16.8438 43.3956 20.0703 43.1495 23.8438ZM75.1428 1.91406V41.5078H68.1428V1.91406H75.1428ZM80.6947 41.5078V11.8125H87.6947V41.5078H80.6947ZM80.2025 3.77344C80.2025 1.69531 82.0345 0 84.2494 0C86.4642 0 88.2962 1.69531 88.2962 3.77344C88.2962 5.87891 86.4642 7.57422 84.2494 7.60156C82.0345 7.57422 80.2025 5.87891 80.2025 3.77344ZM119.77 11.8125L109.161 41.5078H101.504L90.895 11.8125H98.3325L105.168 33.9062H105.497L112.387 11.8125H119.77ZM135.166 42.1094C126.224 42.1094 120.728 36.1484 120.728 26.8516C120.728 17.6641 126.306 11.4297 134.783 11.4297C142.056 11.4297 148.345 15.9961 148.345 26.4141V28.6016H127.619C127.728 33.6602 130.709 36.668 135.22 36.6406C138.283 36.668 140.334 35.3555 141.236 33.5781H148.072C146.814 38.7188 142.056 42.1094 135.166 42.1094ZM127.646 23.8438H141.673C141.646 19.7969 138.912 16.8438 134.892 16.8438C130.709 16.8438 127.892 20.0703 127.646 23.8438ZM152.639 41.5078V11.8125H159.421V16.7344H159.749C160.815 13.3164 163.659 11.375 167.077 11.375C167.842 11.375 168.936 11.457 169.592 11.5391V17.9922C168.964 17.7734 167.514 17.582 166.366 17.5547C162.483 17.582 159.639 20.2617 159.639 24.0078V41.5078H152.639ZM172.629 41.5078V11.8125H179.629V41.5078H172.629ZM172.137 3.77344C172.137 1.69531 173.969 0 176.183 0C178.398 0 180.23 1.69531 180.23 3.77344C180.23 5.87891 178.398 7.57422 176.183 7.60156C173.969 7.57422 172.137 5.87891 172.137 3.77344ZM192.181 24.1172V41.5078H185.181V11.8125H191.852V16.8438H192.235C193.575 13.5352 196.61 11.4297 201.04 11.4297C207.192 11.4297 211.239 15.4766 211.212 22.5859V41.5078H204.267V23.6797C204.267 19.6875 202.106 17.3086 198.47 17.3359C194.778 17.3086 192.181 19.7969 192.181 24.1172ZM229.725 53.2656C221.85 53.2656 216.846 49.7656 216.381 44.1875H223.326C223.818 46.7852 226.252 47.9883 229.834 48.0156C234.018 47.9883 236.725 46.1836 236.725 41.8359V36.1484H236.397C235.303 38.3359 232.924 41.0703 227.811 41.0703C220.947 41.0703 215.561 36.0938 215.561 26.4141C215.561 16.6523 220.975 11.4297 227.865 11.4297C233.088 11.4297 235.303 14.5742 236.397 16.6797H236.725V11.8125H243.615V42C243.615 49.6016 237.736 53.2656 229.725 53.2656ZM222.67 26.5234C222.67 31.9922 225.131 35.6016 229.725 35.6016C234.236 35.6016 236.779 32.2109 236.779 26.5234C236.779 20.8633 234.264 17.1445 229.725 17.1172C225.076 17.1445 222.67 21.1094 222.67 26.5234ZM276.157 11.8125V17.1719H270.305V32.5938C270.305 35.4375 271.727 36.0117 273.477 36.0391C274.297 36.0664 275.664 35.9844 276.539 35.9297V41.6172C275.719 41.7539 274.379 41.918 272.602 41.8906C267.352 41.918 263.305 39.3203 263.36 33.7422V17.1719H259.094V11.8125H263.36V4.70312H270.305V11.8125H276.157ZM280.396 41.5078V11.8125H287.177V16.7344H287.505C288.572 13.3164 291.415 11.375 294.833 11.375C295.599 11.375 296.693 11.457 297.349 11.5391V17.9922C296.72 17.7734 295.271 17.582 294.122 17.5547C290.24 17.582 287.396 20.2617 287.396 24.0078V41.5078H280.396ZM319.362 29.0391V11.8125H326.307V41.5078H319.581V36.2578H319.253C317.885 39.5664 314.768 41.8906 310.338 41.8906C304.46 41.8906 300.413 37.8438 300.385 30.7344V11.8125H307.385V29.6406C307.385 33.4141 309.628 35.8203 313.018 35.8203C316.081 35.8203 319.362 33.5781 319.362 29.0391ZM348.703 20.2891C348.265 18.0469 346.406 16.5977 343.453 16.625C340.472 16.5977 338.285 18.1016 338.312 20.125C338.285 21.6562 339.515 22.8047 342.523 23.5156L347.554 24.5547C353.16 25.7852 355.894 28.3828 355.922 32.6484C355.894 38.2266 351 42.1094 343.234 42.1094C335.687 42.1094 331.23 38.7188 330.492 33.0312H337.601C338.011 35.5742 339.98 36.832 343.234 36.8047C346.597 36.832 348.785 35.4648 348.812 33.25C348.785 31.5273 347.445 30.4336 344.492 29.8047L339.734 28.7656C334.211 27.6445 331.34 24.7461 331.367 20.5078C331.34 15.0117 336.097 11.4297 343.343 11.4297C350.425 11.4297 354.8 14.9023 355.32 20.2891H348.703ZM374.927 11.8125V17.1719H369.075V32.5938C369.075 35.4375 370.497 36.0117 372.247 36.0391C373.067 36.0664 374.434 35.9844 375.309 35.9297V41.6172C374.489 41.7539 373.149 41.918 371.372 41.8906C366.122 41.918 362.075 39.3203 362.13 33.7422V17.1719H357.864V11.8125H362.13V4.70312H369.075V11.8125H374.927ZM392.017 42.1094C383.076 42.1094 377.58 36.1484 377.58 26.8516C377.58 17.6641 383.158 11.4297 391.635 11.4297C398.908 11.4297 405.197 15.9961 405.197 26.4141V28.6016H384.471C384.58 33.6602 387.56 36.668 392.072 36.6406C395.135 36.668 397.185 35.3555 398.088 33.5781H404.924C403.666 38.7188 398.908 42.1094 392.017 42.1094ZM384.498 23.8438H398.525C398.498 19.7969 395.764 16.8438 391.744 16.8438C387.56 16.8438 384.744 20.0703 384.498 23.8438ZM420.538 42.0547C413.565 42.0273 408.288 36.4492 408.288 26.6875C408.288 16.7891 413.702 11.4297 420.593 11.4297C425.815 11.4297 428.003 14.5742 429.069 16.6797H429.343V1.91406H436.288V41.5078H429.452V36.8047H429.069C427.948 38.9922 425.679 42.0273 420.538 42.0547ZM415.397 26.6328C415.397 32.2383 417.858 36.3125 422.452 36.3125C426.964 36.3125 429.507 32.4297 429.507 26.6328C429.507 20.8633 426.991 17.1445 422.452 17.1172C417.804 17.1445 415.397 21.1094 415.397 26.6328Z" fill="black"/>
</svg>
