<svg width="332" height="40" viewBox="0 0 332 40" fill="none" xmlns="http://www.w3.org/2000/svg">
<path d="M6.94385 33.096L-0.000148386 0.728014H8.17585L14.1119 30.576C14.1679 30.8 14.2239 30.856 14.2799 30.856C14.3359 30.856 14.3919 30.8 14.4479 30.576L19.8799 6.72001C20.8879 2.12802 23.1839 0.168014 26.5439 0.168014C29.9039 0.168014 32.1439 2.12802 33.2079 6.66401L38.7519 30.576C38.8079 30.8 38.8079 30.856 38.9199 30.856C38.9759 30.856 38.9759 30.744 39.0319 30.576L44.7439 0.728014H52.9199L46.1999 32.928C45.3599 36.904 42.8959 39.2 39.2559 39.2C35.8959 39.2 33.2079 37.072 32.3119 33.264L26.5439 8.51201L20.8319 33.432C19.9919 37.072 17.1919 39.2 13.9439 39.2C10.4719 39.2 7.78385 37.072 6.94385 33.096ZM51.8279 38.416L61.7959 6.04802C63.0839 1.96001 66.4439 1.28746e-05 69.9719 1.28746e-05C73.5559 1.28746e-05 76.9159 1.96001 78.2039 6.04802L88.1719 38.416H79.8279L77.6439 30.688L62.3559 30.744L60.1719 38.416H51.8279ZM68.7959 8.45601L64.4839 23.408H75.5159L71.2599 8.45601C71.0359 7.67201 70.6999 7.33602 70.0279 7.33602C69.4119 7.33602 69.0199 7.67201 68.7959 8.45601ZM116.92 0.728014V8.28801H105.832V38.416H97.6564V8.28801H86.5684V0.728014H116.92ZM148.633 38.416H128.361C123.153 38.416 121.137 35.728 121.137 31.416V7.78401C121.137 3.47201 123.153 0.728014 128.361 0.728014H148.297V8.06401H129.313V15.904H147.121V23.24H129.313V31.08H148.633V38.416ZM163.586 38.416H155.522V0.728014H170.026C178.538 0.728014 185.09 4.70401 185.09 12.712C185.09 17.864 182.066 21.84 177.25 23.128C179.658 24.472 181.058 27.048 183.018 30.968L186.658 38.416H177.81L174.45 31.696C172.714 28.224 171.09 26.376 166.834 26.376H163.642L163.586 38.416ZM170.138 8.28801H163.698L163.642 19.096H170.026C173.89 19.096 176.69 17.08 176.69 13.552C176.69 9.85601 173.834 8.28801 170.138 8.28801ZM213.685 38.416H205.397L210.493 5.99201C211.165 2.07201 213.909 1.28746e-05 217.717 1.28746e-05C221.077 1.28746e-05 223.933 1.45601 224.829 5.09601L231.157 28.616C231.157 28.784 231.213 28.784 231.213 28.784C231.269 28.784 231.325 28.784 231.325 28.616L237.541 5.26402C238.493 1.62402 241.405 1.28746e-05 244.821 1.28746e-05C248.573 1.28746e-05 251.261 2.12802 251.821 6.16001L256.469 38.416H248.181L244.541 8.84802C244.541 8.56801 244.485 8.40001 244.261 8.40001C244.093 8.40001 243.981 8.51201 243.925 8.73601L236.925 33.712C236.141 36.568 233.901 37.968 231.213 37.968C228.637 37.968 226.229 36.624 225.557 33.88L218.557 8.73601C218.501 8.45601 218.389 8.40001 218.277 8.40001C218.109 8.40001 217.941 8.51201 217.941 8.79201L213.685 38.416ZM259.373 38.416L269.341 6.04802C270.629 1.96001 273.989 1.28746e-05 277.517 1.28746e-05C281.101 1.28746e-05 284.461 1.96001 285.749 6.04802L295.717 38.416H287.373L285.189 30.688L269.901 30.744L267.717 38.416H259.373ZM276.341 8.45601L272.029 23.408H283.061L278.805 8.45601C278.581 7.67201 278.245 7.33602 277.573 7.33602C276.957 7.33602 276.565 7.67201 276.341 8.45601ZM309.226 38.36L301.05 38.416V0.728014H314.322C325.018 0.728014 331.57 5.71201 331.57 14.448C331.57 23.52 325.13 28.448 314.77 28.448H309.226V38.36ZM314.546 8.28801H309.226V20.888H314.546C319.922 20.888 323.17 18.816 323.17 14.448C323.17 10.304 319.922 8.28801 314.546 8.28801Z" fill="white"/>
</svg>
