<svg width="325" height="134" viewBox="0 0 325 134" fill="none" xmlns="http://www.w3.org/2000/svg">
<path d="M5.79688 10.2812C5.79688 12.5938 7.15625 15.0312 9.4375 15.9844L8.48438 17.3594C6.8125 16.6328 5.59375 15.1562 4.94531 13.3594C4.29688 15.2969 3.05469 16.9219 1.40625 17.7031L0.40625 16.3438C2.63281 15.3125 4.02344 12.6797 4.03125 10.2812V9.09375H0.921875V7.65625H8.89062V9.09375H5.79688V10.2812ZM10.4688 20.3906V6.26562H12.2188V20.3906H10.4688ZM25.805 15.2812V20.3906H24.0706V16.6562H16.18V15.2812H25.805ZM14.1644 10.4688C14.1644 8.46875 15.7659 7.03125 17.8988 7.04688C19.0628 7.03906 20.0784 7.47656 20.7425 8.21875H24.0706V6.26562H25.805V14.6094H24.0706V12.7344H20.7581C20.0863 13.4844 19.0706 13.9375 17.8988 13.9375C15.7659 13.9375 14.1644 12.5 14.1644 10.4688ZM15.8206 10.4688C15.8206 11.6953 16.6878 12.4609 17.8988 12.4688C19.055 12.4609 19.9378 11.6953 19.9456 10.4688C19.9378 9.28906 19.055 8.50781 17.8988 8.51562C16.6878 8.50781 15.8206 9.28906 15.8206 10.4688ZM21.4925 11.3281H24.0706V9.64062H21.5003C21.5628 9.90625 21.6019 10.1797 21.6019 10.4688C21.6019 10.7656 21.5628 11.0547 21.4925 11.3281ZM33.9069 6.48438C37.1256 6.49219 38.9928 7.34375 39.0006 8.90625C38.9928 10.4844 37.1256 11.3359 33.9069 11.3438C30.6959 11.3359 28.8131 10.4844 28.8131 8.90625C28.8131 7.34375 30.6959 6.49219 33.9069 6.48438ZM27.485 13.4844V12.0938H40.36V13.4844H27.485ZM29.0006 15.7188V14.4375H38.7506V17.8906H30.7194V18.9375H39.1413V20.2656H29.0163V16.6562H37.0475V15.7188H29.0006ZM30.6413 8.90625C30.6334 9.6875 31.7584 10.0469 33.9069 10.0469C36.0866 10.0469 37.2038 9.6875 37.2038 8.90625C37.2038 8.17969 36.0866 7.76562 33.9069 7.76562C31.7584 7.76562 30.6334 8.17969 30.6413 8.90625ZM49.6106 8.76562C49.6028 10.6406 50.7278 12.4688 52.9231 13.2188L51.97 14.5781C50.4466 14.0078 49.3606 12.9062 48.7591 11.5156C48.1575 13.0703 47.0013 14.2891 45.345 14.9062L44.4231 13.5312C46.6966 12.7656 47.8528 10.8125 47.8606 8.75V7.14062H49.6106V8.76562ZM46.9856 20.1094V15.625H48.7513V18.7031H56.6106V20.1094H46.9856ZM51.7513 10.8125V9.39062H54.5638V6.28125H56.2981V16.7656H54.5638V10.8125H51.7513ZM64.0563 7.25V8.64062H60.1813V10.0156H63.9156V11.3438H60.1813V12.8281C61.9 12.8125 63.1031 12.7422 64.4781 12.4844L64.6656 13.8906C63.0016 14.2031 61.6422 14.2578 59.4469 14.25H58.5094V7.25H64.0563ZM60.3844 16.9062V15.5H70.0563V20.3906H68.3219V16.9062H60.3844ZM65.3063 14.7656V6.54688H66.9313V9.8125H68.4V6.28125H70.0563V14.875H68.4V11.2031H66.9313V14.7656H65.3063ZM82.5488 6.26562V11.8906H84.7206V13.3281H82.5488V20.3906H80.83V6.26562H82.5488ZM71.4081 9.82812V8.4375H74.7519V6.46875H76.4863V8.4375H79.7363V9.82812H71.4081ZM72.0644 14.0781C72.0488 12.125 73.5644 10.7422 75.6269 10.75C77.6581 10.7422 79.1659 12.125 79.1738 14.0781C79.1659 16.0234 77.6581 17.3906 75.6269 17.3906C73.5644 17.3906 72.0488 16.0234 72.0644 14.0781ZM73.7206 14.0781C73.7128 15.2266 74.5175 15.9609 75.6269 15.9531C76.7128 15.9609 77.5019 15.2266 77.5175 14.0781C77.5019 12.9297 76.7128 12.1719 75.6269 12.1719C74.5175 12.1719 73.7128 12.9297 73.7206 14.0781ZM89.4006 9.96875C89.4084 12.25 90.1897 14.625 92.1038 15.8281L91.1506 17.1562C89.8772 16.3906 89.0491 15.0781 88.5803 13.5391C88.0725 15.2344 87.1663 16.6719 85.8381 17.4844L84.76 16.1875C86.8147 14.9453 87.7209 12.4531 87.7288 10.0469V7.51562H89.4006V9.96875ZM90.5881 12.5625V11.125H92.6038V6.51562H94.2444V19.7031H92.6038V12.5625H90.5881ZM95.51 20.3906V6.26562H97.1819V20.3906H95.51ZM111.409 17.25V18.6719H98.5025V17.25H101.487V13.6797C100.362 13.0312 99.6822 12.0156 99.69 10.7656C99.6822 8.51562 101.885 7.03125 104.924 7.03125C107.979 7.03125 110.198 8.51562 110.19 10.7656C110.198 12 109.534 12.9922 108.44 13.6406V17.25H111.409ZM101.393 10.7656C101.385 12.2109 102.815 13.1328 104.924 13.125C107.026 13.1328 108.487 12.2109 108.487 10.7656C108.487 9.29688 107.026 8.39844 104.924 8.40625C102.815 8.39844 101.385 9.29688 101.393 10.7656ZM103.206 17.25H106.674V14.3047C106.135 14.4219 105.549 14.4844 104.924 14.4844C104.315 14.4844 103.737 14.4219 103.206 14.3125V17.25ZM113.729 19.125C113.058 19.125 112.503 18.5781 112.511 17.9062C112.503 17.25 113.058 16.7109 113.729 16.7031C114.378 16.7109 114.933 17.25 114.933 17.9062C114.933 18.5781 114.378 19.125 113.729 19.125Z" fill="white"/>
<rect x="0.5" y="46.5" width="67" height="39" rx="19.5" stroke="white"/>
<path d="M25.6875 62.6562C25.6797 65.2812 26.9375 67.8594 29.1875 68.8438L28.1406 70.2344C26.5469 69.4531 25.4219 67.9531 24.8203 66.1016C24.2031 68.0547 23.0469 69.6797 21.4219 70.5L20.3281 69.0938C22.6328 68.0156 23.9141 65.2969 23.9219 62.6562V60.4062H25.6875V62.6562ZM27.625 65.2344V63.8281H30.5938V59.2656H32.3125V73.4062H30.5938V65.2344H27.625ZM40.3988 59.4062C43.6175 59.4141 45.4847 60.2734 45.4925 61.8281C45.4847 63.4062 43.6175 64.2578 40.3988 64.2656C37.1878 64.2578 35.305 63.4062 35.305 61.8281C35.305 60.2734 37.1878 59.4141 40.3988 59.4062ZM33.9769 66.3594V65H46.8519V66.3594H41.2581V67.4375H45.2425V70.8906H37.2113V71.9375H45.6331V73.2656H35.5081V69.6562H43.5394V68.7188H35.4925V67.4375H39.5238V66.3594H33.9769ZM37.1331 61.8281C37.1253 62.6094 38.2503 62.9688 40.3988 62.9844C42.5784 62.9688 43.6956 62.6094 43.6956 61.8281C43.6956 61.1016 42.5784 60.7109 40.3988 60.7031C38.2503 60.7109 37.1253 61.1016 37.1331 61.8281Z" fill="white"/>
<rect x="76.5" y="46.5" width="67" height="39" rx="19.5" stroke="white"/>
<path d="M108.234 59.2812V69.4844H106.484V59.2812H108.234ZM96.7188 63.7344C96.7188 61.6797 98.3828 60.2109 100.531 60.2031C102.68 60.2109 104.336 61.6797 104.328 63.7344C104.336 65.8203 102.68 67.2812 100.531 67.2812C98.3828 67.2812 96.7188 65.8203 96.7188 63.7344ZM98.4219 63.7344C98.4141 64.9844 99.3203 65.7656 100.531 65.7656C101.711 65.7656 102.625 64.9844 102.625 63.7344C102.625 62.5156 101.711 61.7188 100.531 61.7188C99.3203 61.7188 98.4141 62.5156 98.4219 63.7344ZM98.8906 73.1094V68.4531H100.641V71.7031H108.625V73.1094H98.8906ZM115.055 62.6094C115.047 64.2891 116.227 65.9219 118.461 66.6094L117.618 67.9688C116.016 67.4922 114.852 66.4688 114.211 65.1719C113.586 66.5703 112.422 67.6719 110.774 68.2031L109.93 66.8438C112.157 66.1484 113.321 64.4219 113.321 62.6094V62.3906H110.368V61.0156H113.321V59.3594H115.071V61.0156H118.008V62.3906H115.055V62.6094ZM112.539 73.1094V68.8594H114.274V71.7031H122.164V73.1094H112.539ZM117.539 64.875V63.4844H120.071V59.2812H121.805V69.7656H120.071V64.875H117.539Z" fill="white"/>
<rect x="152.5" y="46.5" width="67" height="39" rx="19.5" stroke="white"/>
<path d="M184.625 59.2656V73.3906H182.969V66.1875H181.375V72.6719H179.781V59.5312H181.375V64.7969H182.969V59.2656H184.625ZM172.906 70.0938V60.9375H178.188V62.3438H174.656V68.625C176.188 68.6094 177.453 68.5312 178.891 68.2656L179.016 69.6875C177.305 70.0312 175.828 70.0781 173.859 70.0938H172.906ZM197.274 60.125V61.3906C197.266 62.7109 197.266 64.1562 196.899 66.1562H198.852V67.5625H193.243V73.4062H191.493V67.5625H185.977V66.1562H195.133C195.524 64.2344 195.539 62.7891 195.539 61.5312H187.493V60.125H197.274Z" fill="white"/>
<rect x="228.5" y="46.5" width="67" height="39" rx="19.5" stroke="white"/>
<path d="M254.891 59.4062C258.109 59.4141 259.977 60.2734 259.984 61.8281C259.977 63.4062 258.109 64.2578 254.891 64.2656C251.68 64.2578 249.797 63.4062 249.797 61.8281C249.797 60.2734 251.68 59.4141 254.891 59.4062ZM248.469 66.3594V65H261.344V66.3594H255.75V67.4375H259.734V70.8906H251.703V71.9375H260.125V73.2656H250V69.6562H258.031V68.7188H249.984V67.4375H254.016V66.3594H248.469ZM251.625 61.8281C251.617 62.6094 252.742 62.9688 254.891 62.9844C257.07 62.9688 258.188 62.6094 258.188 61.8281C258.188 61.1016 257.07 60.7109 254.891 60.7031C252.742 60.7109 251.617 61.1016 251.625 61.8281ZM267.039 61.7656C267.024 63.6172 268.196 65.3906 270.414 66.1094L269.508 67.4844C267.946 66.9531 266.828 65.8906 266.211 64.5312C265.586 66.0312 264.422 67.2031 262.774 67.7812L261.805 66.4062C264.125 65.6484 265.289 63.7578 265.289 61.75V60.1406H267.039V61.7656ZM264.071 73.1094V68.625H265.852V71.7031H273.68V73.1094H264.071ZM271.383 69.6406V59.2656H273.118V63.4375H275.086V64.9062H273.118V69.6406H271.383Z" fill="white"/>
<rect x="0.5" y="94.5" width="67" height="39" rx="19.5" stroke="white"/>
<path d="M32.625 107.266V121.391H30.9688V114.188H29.375V120.672H27.7812V107.531H29.375V112.797H30.9688V107.266H32.625ZM20.9062 118.094V108.938H26.1875V110.344H22.6562V116.625C24.1875 116.609 25.4531 116.531 26.8906 116.266L27.0156 117.688C25.3047 118.031 23.8281 118.078 21.8594 118.094H20.9062ZM45.805 107.281V117.594H44.0706V112.422H41.5706V111.016H44.0706V107.281H45.805ZM33.9456 114.547C36.1956 113.805 37.3988 111.961 37.3988 110.078V109.703H34.4613V108.297H42.0863V109.703H39.1644V110.094C39.1644 111.789 40.305 113.547 42.4925 114.266L41.6175 115.656C40.0394 115.117 38.9222 114.039 38.305 112.703C37.6878 114.188 36.5081 115.375 34.8363 115.953L33.9456 114.547ZM36.5394 121.109V116.688H38.2738V119.703H46.1644V121.109H36.5394Z" fill="white"/>
<rect x="76.5" y="94.5" width="67" height="39" rx="19.5" stroke="white"/>
<path d="M104.359 108.078V108.953C104.359 109.852 104.359 111.117 104.016 112.703L102.312 112.562C102.57 111.289 102.617 110.305 102.633 109.5H97.1562V108.078H104.359ZM96.3125 113.828C97.1562 113.828 98.0938 113.82 99.0781 113.805V111.203H100.797V113.758C102.266 113.703 103.758 113.609 105.125 113.438L105.219 114.656C102.281 115.156 99.0156 115.242 96.4688 115.234L96.3125 113.828ZM98.1562 118.703C98.1562 117.094 100.016 116.117 103 116.109C105.992 116.117 107.836 117.094 107.844 118.703C107.836 120.383 105.992 121.352 103 121.344C100.016 121.352 98.1562 120.383 98.1562 118.703ZM99.9219 118.703C99.9141 119.57 101.055 119.984 103 119.984C104.938 119.984 106.055 119.57 106.062 118.703C106.055 117.914 104.938 117.453 103 117.453C101.055 117.453 99.9141 117.914 99.9219 118.703ZM105.953 115.953V107.266H107.734V110.875H109.562V112.328H107.734V115.953H105.953ZM122.852 115.141V116.547H117.243V121.375H115.524V116.547H109.977V115.141H122.852ZM110.649 112.828C113.422 112.477 115.282 110.984 115.407 109.438H111.164V108.062H121.664V109.438H117.422C117.539 110.984 119.383 112.477 122.18 112.828L121.555 114.188C119.149 113.844 117.274 112.742 116.414 111.219C115.547 112.742 113.688 113.844 111.305 114.188L110.649 112.828Z" fill="white"/>
<rect x="152.5" y="94.5" width="67" height="39" rx="19.5" stroke="white"/>
<path d="M185.359 115.484V116.859H179.734V121.391H178.016V116.859H172.453V115.484H185.359ZM174.016 114.016V107.828H175.734V109.562H182.047V107.828H183.797V114.016H174.016ZM175.734 112.609H182.047V110.938H175.734V112.609ZM191.039 109.766C191.024 111.617 192.196 113.391 194.414 114.109L193.508 115.484C191.946 114.953 190.828 113.891 190.211 112.531C189.586 114.031 188.422 115.203 186.774 115.781L185.805 114.406C188.125 113.648 189.289 111.758 189.289 109.75V108.141H191.039V109.766ZM188.071 121.109V116.625H189.852V119.703H197.68V121.109H188.071ZM195.383 117.641V107.266H197.118V111.438H199.086V112.906H197.118V117.641H195.383Z" fill="white"/>
</svg>
