<svg width="432" height="113" viewBox="0 0 432 113" fill="none" xmlns="http://www.w3.org/2000/svg">
<path d="M40.1953 4.53906V9.02344C40.168 15.0117 40.25 21.9297 38.0078 32.375L32.0469 31.7734C32.9219 27.7812 33.4414 24.2539 33.7422 21.1094L4.59375 22.75L3.71875 17.5547L34.0977 16.4609C34.207 13.8906 34.2344 11.5938 34.2344 9.46094H5.25V4.53906H40.1953ZM0 43.5312V38.5H16.625V26.3047H22.6406V38.5H45.0625V43.5312H0ZM59.7472 3.0625C66.0089 3.08984 70.63 6.91797 70.63 12.4141C70.63 17.8555 66.0089 21.6562 59.7472 21.6016C53.3761 21.6562 48.755 17.8555 48.755 12.4141C48.755 6.91797 53.3761 3.08984 59.7472 3.0625ZM46.5675 24.6641C53.2941 24.6914 64.0675 24.6367 71.9972 23.4062L72.4347 27.9453C69.2902 28.5742 65.8448 28.957 62.4269 29.2305V45.6094H56.6847V29.5312C53.1847 29.668 49.9308 29.6953 47.2784 29.6953L46.5675 24.6641ZM54.1691 12.4141C54.1691 15.2578 56.4113 17.1172 59.7472 17.1172C62.9738 17.1172 65.2433 15.2578 65.2706 12.4141C65.2433 9.51562 62.9738 7.60156 59.7472 7.65625C56.4113 7.60156 54.1691 9.51562 54.1691 12.4141ZM66.3644 36.8047V32.1562H74.7316V1.09375H80.4191V47.1406H74.7316V36.8047H66.3644ZM84.5206 49.6016V0.164062H90.2628V49.6016H84.5206ZM135.682 0.164062V49.6562H129.557V0.164062H135.682ZM96.1428 21.2188C96.1155 10.5547 101.557 3.77344 109.049 3.77344C116.459 3.77344 121.928 10.5547 121.955 21.2188C121.928 31.9648 116.459 38.7188 109.049 38.7188C101.557 38.7188 96.1155 31.9648 96.1428 21.2188ZM101.994 21.2188C101.994 28.8203 104.865 33.2227 109.049 33.25C113.205 33.2227 116.049 28.8203 116.049 21.2188C116.049 13.6719 113.205 9.24219 109.049 9.24219C104.865 9.24219 101.994 13.6719 101.994 21.2188ZM193.161 0.164062V16.7344H199.833V21.7656H193.161V38.7734H187.09V0.164062H193.161ZM153.567 28.875C157.258 28.875 161.551 28.8477 166.036 28.7109V25.5664C160.54 24.8828 157.04 22.1758 157.067 18.2109C157.04 13.3711 161.825 10.5 168.989 10.5547C176.18 10.5 180.911 13.3711 180.911 18.2109C180.911 22.1484 177.52 24.8281 172.106 25.5664V28.4102C176.317 28.1641 180.555 27.7812 184.52 27.1797L185.012 31.4453C174.54 33.4141 162.754 33.5508 154.223 33.6328L153.567 28.875ZM154.825 8.91406V4.48438H166.036V0H172.106V4.48438H183.208V8.91406H154.825ZM160.676 48.6172V36.2031H166.747V43.6953H194.911V48.6172H160.676ZM162.918 18.2109C162.864 20.3438 165.161 21.6016 168.989 21.6016C172.817 21.6016 175.114 20.3438 175.114 18.2109C175.114 15.8867 172.817 14.6289 168.989 14.6562C165.161 14.6289 162.864 15.8867 162.918 18.2109ZM242.681 0.21875V29.0938H236.611V23.625H224.853V18.7031H236.611V13.3984H225.318C222.201 21.2461 214.982 26.7422 204.236 29.75L201.775 24.9375C213.341 21.8203 219.521 15.9414 220.451 8.58594H204.4V3.66406H227.095C227.095 5.38672 226.959 7.02734 226.685 8.58594H236.611V0.21875H242.681ZM209.541 39.4844C209.541 33.4141 216.185 29.668 226.33 29.6406C236.337 29.668 243.009 33.4141 243.009 39.4844C243.009 45.5547 236.337 49.3555 226.33 49.3281C216.185 49.3555 209.541 45.5547 209.541 39.4844ZM215.611 39.4844C215.611 42.7383 219.685 44.5156 226.33 44.5156C232.865 44.5156 236.912 42.7383 236.939 39.4844C236.912 36.1758 232.865 34.3984 226.33 34.3984C219.685 34.3984 215.611 36.1758 215.611 39.4844ZM293.678 25.7578V30.625H274.592V39.1562H268.577V30.625H248.507V25.7578H293.678ZM253.975 48.6172V35H259.991V43.6953H288.702V48.6172H253.975ZM254.413 21.875V1.75H260.428V7.32812H281.757V1.75H287.772V21.875H254.413ZM260.428 17.0625H281.757V11.8672H260.428V17.0625ZM313.777 7.98438C313.777 14.3281 317.742 20.3984 325.371 22.8594L322.09 27.7266C316.703 25.8398 312.902 22.0938 310.797 17.3359C308.609 22.5312 304.59 26.5781 298.902 28.6562L295.621 23.7891C303.66 21.1367 307.652 14.6562 307.652 7.60156V2.73438H313.777V7.98438ZM303.551 36.75V31.9375H337.238V49.6016H331.168V36.75H303.551ZM321.324 14.7656V9.78906H331.168V0.164062H337.238V29.5312H331.168V14.7656H321.324ZM385.392 0.164062V37.1875H379.595V0.164062H385.392ZM342.79 25.9219C349.38 22.7227 352.47 16.1602 352.47 10.2812V3.55469H358.376V10.2812C358.376 16.0508 361.22 21.793 367.509 24.6094L364.118 29.3125C359.962 27.3711 357.118 24.0352 355.478 20.0156C353.728 24.5547 350.638 28.4102 346.126 30.5156L342.79 25.9219ZM352.306 48.6172V32.7578H358.376V43.6953H386.759V48.6172H352.306ZM363.079 16.8984V11.9219H369.696V1.03906H375.493V35.7109H369.696V16.8984H363.079ZM431.85 0.164062V49.6562H425.834V22.9688H416.537V18.0469H425.834V0.164062H431.85ZM392.639 38.2812V4.42969H415.772V9.40625H398.764V18.2656H413.803V23.0781H398.764V33.25C406.283 33.2227 411.916 32.9492 418.287 31.9375L418.889 36.8594C411.697 37.9531 405.354 38.2266 396.522 38.2812H392.639ZM23.5703 83.0234C23.2148 79.6055 20.3438 77.6367 16.0781 77.6641C11.5664 77.6367 8.88672 79.8242 8.85938 82.8047C8.83203 86.1406 12.3594 87.5078 15.6406 88.2734L19.3594 89.2578C25.2656 90.625 30.9531 93.7422 30.9531 100.633C30.9531 107.578 25.457 112.336 15.9688 112.336C6.75391 112.336 0.902344 107.906 0.601562 100.086H7.60156C7.92969 104.215 11.4023 106.238 15.9141 106.266C20.5898 106.238 23.8164 103.969 23.8438 100.578C23.8164 97.4609 20.9727 96.1484 16.6797 95.0547L12.1953 93.9062C5.6875 92.2109 1.64062 88.9297 1.64062 83.2422C1.64062 76.2422 7.84766 71.5938 16.1875 71.5938C24.582 71.5938 30.2969 76.3242 30.4062 83.0234H23.5703ZM48.5909 112.336C39.6495 112.336 34.1534 106.375 34.1534 97.0781C34.1534 87.8906 39.7316 81.6562 48.2081 81.6562C55.4816 81.6562 61.7706 86.2227 61.7706 96.6406V98.8281H41.0441C41.1534 103.887 44.1339 106.895 48.6456 106.867C51.7081 106.895 53.7589 105.582 54.6613 103.805H61.4972C60.2394 108.945 55.4816 112.336 48.5909 112.336ZM41.0714 94.0703H55.0988C55.0714 90.0234 52.337 87.0703 48.3175 87.0703C44.1339 87.0703 41.3175 90.2969 41.0714 94.0703ZM66.0647 111.734V82.0391H72.8459V86.9609H73.1741C74.2405 83.543 77.0842 81.6016 80.5022 81.6016C81.2678 81.6016 82.3616 81.6836 83.0178 81.7656V88.2188C82.3889 88 80.9397 87.8086 79.7913 87.7812C75.9084 87.8086 73.0647 90.4883 73.0647 94.2344V111.734H66.0647ZM113.507 82.0391L102.898 111.734H95.2416L84.6322 82.0391H92.0697L98.9056 104.133H99.2337L106.124 82.0391H113.507ZM116.762 111.734V82.0391H123.762V111.734H116.762ZM116.27 74C116.27 71.9219 118.102 70.2266 120.317 70.2266C122.532 70.2266 124.364 71.9219 124.364 74C124.364 76.1055 122.532 77.8008 120.317 77.8281C118.102 77.8008 116.27 76.1055 116.27 74ZM142.275 112.336C133.416 112.336 128.056 105.992 128.056 97.0234C128.056 87.918 133.58 81.6562 142.275 81.6562C149.466 81.6562 154.525 85.8672 155.017 92.2656H148.345C147.798 89.4219 145.72 87.2617 142.33 87.2344C138.009 87.2617 135.111 90.8711 135.111 96.8594C135.111 102.984 137.955 106.621 142.33 106.648C145.42 106.621 147.716 104.816 148.345 101.617H155.017C154.498 107.879 149.74 112.336 142.275 112.336ZM172.327 112.336C163.385 112.336 157.889 106.375 157.889 97.0781C157.889 87.8906 163.467 81.6562 171.944 81.6562C179.217 81.6562 185.507 86.2227 185.507 96.6406V98.8281H164.78C164.889 103.887 167.87 106.895 172.382 106.867C175.444 106.895 177.495 105.582 178.397 103.805H185.233C183.975 108.945 179.217 112.336 172.327 112.336ZM164.807 94.0703H178.835C178.807 90.0234 176.073 87.0703 172.053 87.0703C167.87 87.0703 165.053 90.2969 164.807 94.0703Z" fill="black"/>
</svg>
