<svg width="755" height="410" viewBox="0 0 755 410" fill="none" xmlns="http://www.w3.org/2000/svg">
<rect width="87" height="36" rx="18" fill="#00A7E1"/>
<path d="M29.375 21.7656V23.1875H16.4688V21.7656H22.0312V19.0156H17.8906V11.7031H19.625V14.0156H26.1719V11.7031H27.9062V19.0156H23.75V21.7656H29.375ZM19.625 17.6094H26.1719V15.4062H19.625V17.6094ZM41.4456 17.1875V18.5625H37.2581V21.7969H42.8831V23.2188H29.9769V21.7969H35.5394V18.5625H31.5394V11.8125H41.3363V13.2031H33.2738V17.1875H41.4456ZM48.5475 14.7812C48.5397 16.9609 49.8522 19.4453 52.0788 20.4844L51.11 21.8594C49.5163 21.1094 48.3366 19.5938 47.7038 17.8281C47.0631 19.7656 45.8288 21.4219 44.2038 22.2031L43.1881 20.8438C45.4381 19.7734 46.8053 17.1328 46.8131 14.7812V13.5938H43.735V12.1562H51.5006V13.5938H48.5475V14.7812ZM52.8131 24.8906V10.7656H54.5475V16.2656H56.7194V17.7188H54.5475V24.8906H52.8131ZM69.8994 21.8125V23.25H56.9931V21.8125H60.415V19.4844H58.5244V14.875H66.6494V13.1406H58.4931V11.7344H68.3681V16.2656H60.2588V18.0781H68.6963V19.4844H66.6338V21.8125H69.8994ZM62.1025 21.8125H64.9306V19.4844H62.1025V21.8125Z" fill="white"/>
<path d="M26.8945 106.16V109.043C26.877 112.893 26.9297 117.34 25.4883 124.055L21.6562 123.668C22.2188 121.102 22.5527 118.834 22.7461 116.812L4.00781 117.867L3.44531 114.527L22.9746 113.824C23.0449 112.172 23.0625 110.695 23.0625 109.324H4.42969V106.16H26.8945ZM1.05469 131.227V127.992H11.7422V120.152H15.6094V127.992H30.0234V131.227H1.05469ZM39.4636 105.211C43.489 105.229 46.4597 107.689 46.4597 111.223C46.4597 114.721 43.489 117.164 39.4636 117.129C35.3679 117.164 32.3972 114.721 32.3972 111.223C32.3972 107.689 35.3679 105.229 39.4636 105.211ZM30.9909 119.098C35.3152 119.115 42.2409 119.08 47.3386 118.289L47.6198 121.207C45.5984 121.611 43.3835 121.857 41.1863 122.033V132.562H37.4948V122.227C35.2448 122.314 33.153 122.332 31.448 122.332L30.9909 119.098ZM35.8777 111.223C35.8777 113.051 37.3191 114.246 39.4636 114.246C41.5378 114.246 42.9968 113.051 43.0144 111.223C42.9968 109.359 41.5378 108.129 39.4636 108.164C37.3191 108.129 35.8777 109.359 35.8777 111.223ZM43.7175 126.902V123.914H49.0964V103.945H52.7527V133.547H49.0964V126.902H43.7175ZM55.3894 135.129V103.348H59.0808V135.129H55.3894ZM88.2788 103.348V135.164H84.3413V103.348H88.2788ZM62.8608 116.883C62.8432 110.027 66.3413 105.668 71.1577 105.668C75.9213 105.668 79.437 110.027 79.4545 116.883C79.437 123.791 75.9213 128.133 71.1577 128.133C66.3413 128.133 62.8432 123.791 62.8608 116.883ZM66.6225 116.883C66.6225 121.77 68.4682 124.6 71.1577 124.617C73.8295 124.6 75.6577 121.77 75.6577 116.883C75.6577 112.031 73.8295 109.184 71.1577 109.184C68.4682 109.184 66.6225 112.031 66.6225 116.883ZM125.229 103.348V114H129.518V117.234H125.229V128.168H121.327V103.348H125.229ZM99.7763 121.805C102.149 121.805 104.909 121.787 107.792 121.699V119.678C104.259 119.238 102.009 117.498 102.026 114.949C102.009 111.838 105.085 109.992 109.69 110.027C114.313 109.992 117.354 111.838 117.354 114.949C117.354 117.48 115.175 119.203 111.694 119.678V121.506C114.401 121.348 117.126 121.102 119.675 120.715L119.991 123.457C113.259 124.723 105.683 124.811 100.198 124.863L99.7763 121.805ZM100.585 108.973V106.125H107.792V103.242H111.694V106.125H118.831V108.973H100.585ZM104.347 134.496V126.516H108.249V131.332H126.354V134.496H104.347ZM105.788 114.949C105.753 116.32 107.229 117.129 109.69 117.129C112.151 117.129 113.628 116.32 113.628 114.949C113.628 113.455 112.151 112.646 109.69 112.664C107.229 112.646 105.753 113.455 105.788 114.949ZM157.064 103.383V121.945H153.162V118.43H145.603V115.266H153.162V111.855H145.902C143.898 116.9 139.257 120.434 132.349 122.367L130.767 119.273C138.203 117.27 142.175 113.49 142.773 108.762H132.455V105.598H147.045C147.045 106.705 146.957 107.76 146.781 108.762H153.162V103.383H157.064ZM135.759 128.625C135.759 124.723 140.031 122.314 146.552 122.297C152.986 122.314 157.275 124.723 157.275 128.625C157.275 132.527 152.986 134.971 146.552 134.953C140.031 134.971 135.759 132.527 135.759 128.625ZM139.662 128.625C139.662 130.717 142.281 131.859 146.552 131.859C150.754 131.859 153.355 130.717 153.373 128.625C153.355 126.498 150.754 125.355 146.552 125.355C142.281 125.355 139.662 126.498 139.662 128.625ZM187.387 103.348V135.129H183.45V103.348H187.387ZM161.055 126.375C169.387 122.42 173.219 117.041 173.922 109.816H162.672V106.723H177.895C177.895 116.18 174.221 124.213 163.094 129.504L161.055 126.375ZM207.726 104.367C207.726 107.76 212.067 110.854 218.694 111.574L217.394 114.527C211.997 113.912 207.726 111.768 205.687 108.674C203.648 111.768 199.376 113.912 194.05 114.527L192.714 111.574C199.376 110.854 203.7 107.76 203.718 104.367V103.523H207.726V104.367ZM191.237 119.203V116.109H220.206V119.203H207.62V121.664H216.585V129.539H198.515V131.859H217.464V134.848H194.683V126.727H212.753V124.652H194.648V121.664H203.718V119.203H191.237ZM248.244 103.383V126.691H244.342V118.816H236.765C235.254 120.521 233.004 121.541 230.455 121.559C225.656 121.541 222.053 118.131 222.053 113.438C222.053 108.691 225.656 105.299 230.455 105.281C232.986 105.299 235.236 106.301 236.748 107.988H244.342V103.383H248.244ZM225.779 113.438C225.779 116.268 227.73 118.078 230.455 118.078C233.056 118.078 235.043 116.268 235.06 113.438C235.043 110.59 233.056 108.762 230.455 108.762C227.73 108.762 225.779 110.59 225.779 113.438ZM227.396 134.496V124.301H231.299V131.332H249.053V134.496H227.396ZM238.47 111.152C238.664 111.873 238.787 112.629 238.787 113.438C238.787 114.211 238.681 114.949 238.488 115.652H244.342V111.152H238.47ZM277.442 105.281V108.129C277.424 111.1 277.424 114.352 276.598 118.852H280.993V122.016H268.372V135.164H264.434V122.016H252.024V118.852H272.625C273.504 114.527 273.54 111.275 273.54 108.445H255.434V105.281H277.442ZM311.456 128.027V131.191H282.417V128.027H294.862V120.68H298.73V128.027H311.456ZM283.261 118.219C289.905 117.146 294.669 112.383 294.687 107.602V105.281H298.835V107.602C298.835 112.4 303.634 117.146 310.331 118.219L308.644 121.453C303.282 120.434 298.87 117.357 296.761 113.191C294.669 117.34 290.31 120.451 284.948 121.453L283.261 118.219ZM318.998 129.504L316.045 139.348H312.705L314.533 129.504H318.998ZM354.578 104.789V107.215C354.595 109.57 354.595 112.312 353.892 115.863H358.128V119.027H345.507V123.984H354.648V135.129H350.745V127.113H332.042V123.984H341.605V119.027H329.089V115.863H349.972C350.605 112.594 350.675 110.115 350.675 107.918H332.675V104.789H354.578ZM386.834 103.348V135.129H383.108V103.348H386.834ZM358.92 126.094C363.508 123.299 365.529 117.568 365.529 112.031V109.922H360.01V106.758H374.424V109.922H369.291V112.031C369.291 117.393 371.207 122.771 375.76 125.391L373.44 128.273C370.504 126.533 368.553 123.51 367.445 119.889C366.32 123.809 364.299 127.148 361.311 129.012L358.92 126.094ZM372.104 117.586V114.422H376.674V103.945H380.365V133.582H376.674V117.586H372.104ZM406.364 104.965C406.364 108.551 410.759 112.189 417.333 113.051L415.856 116.109C410.6 115.336 406.399 112.928 404.36 109.641C402.304 112.945 398.102 115.336 392.864 116.109L391.388 113.051C397.962 112.189 402.339 108.568 402.356 104.965V103.77H406.364V104.965ZM389.876 121.172V118.043H418.845V121.172H406.259V124.617H415.294V135.129H411.391V127.711H393.075V124.617H402.391V121.172H389.876ZM435.457 105.562V115.441H425.437V119.625C430.253 119.572 433.312 119.396 436.863 118.781L437.285 121.98C433.189 122.666 429.726 122.771 423.89 122.754H421.5V112.488H431.519V108.691H421.464V105.562H435.457ZM425.789 134.426V125.039H429.691V131.227H447.726V134.426H425.789ZM437.425 118.676V115.512H442.98V111.504H437.425V108.375H442.98V103.383H446.882V126.797H442.98V118.676H437.425ZM476.467 117.797V120.891H467.045V128.168H479.701V131.367H450.662V128.168H463.178V120.891H454.178V105.703H476.221V108.832H458.08V117.797H476.467ZM506.633 105.562V108.727H503.82V117.744C504.98 117.656 506.14 117.551 507.23 117.41V114.562H511.59V111.82H507.23V108.691H511.59V103.348H515.492V122.824H511.59V117.691H507.318L507.476 120.293C501.412 121.295 494.398 121.4 489.336 121.418L488.914 118.184C490.021 118.184 491.234 118.184 492.5 118.166V108.727H489.722V105.562H506.633ZM493.941 129.258C493.906 125.514 498.002 123.387 504.734 123.387C511.519 123.387 515.58 125.514 515.597 129.258C515.58 132.914 511.519 135.094 504.734 135.094C498.002 135.094 493.906 132.914 493.941 129.258ZM496.297 118.113C497.527 118.078 498.793 118.025 500.058 117.973V108.727H496.297V118.113ZM497.808 129.258C497.791 131.104 500.287 132.07 504.734 132.07C509.199 132.07 511.695 131.104 511.695 129.258C511.695 127.377 509.199 126.375 504.734 126.375C500.287 126.375 497.791 127.377 497.808 129.258ZM544.162 103.348V115.758H548.873V119.027H544.162V135.059H540.26V103.348H544.162ZM519.096 126.375C526.83 122.508 531.014 117.129 531.787 109.887H520.819V106.652H535.76C535.743 115.986 531.875 124.195 521.311 129.398L519.096 126.375ZM561.407 110.977C561.39 116.883 564.22 122.684 569.282 124.898L566.927 128.027C563.341 126.27 560.81 122.895 559.456 118.729C558.068 123.123 555.466 126.779 551.81 128.625L549.349 125.461C554.534 123.035 557.417 116.918 557.435 110.977V105.914H561.407V110.977ZM565.767 116.777V113.613H572.446V103.348H576.314V135.164H572.446V116.777H565.767ZM600.397 120.363V125.514C603.157 125.355 605.934 125.109 608.553 124.723L608.87 127.605C601.751 128.924 594.122 128.994 588.514 128.977L588.022 125.812C590.501 125.795 593.419 125.777 596.495 125.689V120.363H600.397ZM588.76 118.43C593.542 117.111 596.178 113.965 596.407 110.414H589.71V107.25H596.495V103.629H600.397V107.25H607.253V110.414H600.45C600.661 113.807 603.35 116.848 608.131 118.078L606.338 121.137C602.577 120.117 599.887 117.92 598.446 115.107C597.057 118.061 594.403 120.363 590.624 121.383L588.76 118.43ZM610.452 135.164V103.348H614.354V135.164H610.452ZM647.279 121.242V124.477H634.622V135.129H630.755V124.477H618.24V121.242H647.279ZM621.298 111.609C621.281 107.25 625.921 104.49 632.689 104.473C639.456 104.49 644.132 107.25 644.15 111.609C644.132 115.916 639.456 118.658 632.689 118.641C625.921 118.658 621.281 115.916 621.298 111.609ZM625.306 111.609C625.288 114.088 628.206 115.547 632.689 115.547C637.189 115.547 640.107 114.088 640.107 111.609C640.107 109.113 637.189 107.637 632.689 107.637C628.206 107.637 625.288 109.113 625.306 111.609ZM665.227 105.984C665.209 109.975 669.691 114.035 676.477 114.914L674.93 118.078C669.533 117.27 665.244 114.615 663.17 111.029C661.096 114.615 656.824 117.27 651.48 118.078L649.934 114.914C656.648 114.035 661.113 110.01 661.113 105.984V104.367H665.227V105.984ZM648.668 124.055V120.82H677.637V124.055H665.016V135.129H661.148V124.055H648.668ZM715.888 118.078V121.277H686.884V118.078H715.888ZM690.259 129.258C690.259 125.566 694.425 123.475 701.333 123.492C708.189 123.475 712.32 125.566 712.337 129.258C712.32 133.002 708.189 135.094 701.333 135.094C694.425 135.094 690.259 133.002 690.259 129.258ZM690.435 115.582V104.367H712.372V107.531H694.337V112.453H712.548V115.582H690.435ZM694.232 129.258C694.214 131.139 696.71 132.07 701.333 132.07C705.886 132.07 708.4 131.139 708.435 129.258C708.4 127.465 705.886 126.48 701.333 126.48C696.71 126.48 694.214 127.465 694.232 129.258ZM724.695 121.453V125.109H738.793V121.453H742.66V134.742H720.863V121.453H724.695ZM717.278 119.098V115.969H738.125C738.793 112.611 738.863 110.08 738.863 107.848H720.863V104.719H742.766V107.18C742.783 109.605 742.783 112.242 741.992 115.969H746.317V119.098H717.278ZM724.695 131.578H738.793V128.133H724.695V131.578ZM20.9883 152.879V155.762H2.17969V152.879H9.59766V150.172H13.5V152.879H20.9883ZM1.19531 167.996C3.72656 167.996 6.60938 167.996 9.59766 167.908V166.045C5.99414 165.605 3.74414 163.918 3.76172 161.457C3.74414 158.504 6.85547 156.658 11.6016 156.676C16.2246 156.658 19.4062 158.504 19.4062 161.457C19.4062 163.936 17.0684 165.623 13.5 166.062V167.768C16.1895 167.627 18.8789 167.416 21.4102 167.082L21.6914 169.754C14.8711 170.914 7.36523 171.002 1.72266 171.02L1.19531 167.996ZM5.69531 176.152V173.094H27.5625V182.129H23.625V176.152H5.69531ZM7.52344 161.457C7.50586 162.758 9.08789 163.531 11.6016 163.496C14.0098 163.531 15.6621 162.758 15.6797 161.457C15.6621 160.051 14.0098 159.295 11.6016 159.312C9.08789 159.295 7.50586 160.051 7.52344 161.457ZM23.625 171.793V150.418H27.5625V171.793H23.625ZM60.4519 165.5V168.664H31.448V165.5H60.4519ZM34.6472 174.887V171.758H56.9363V182.199H53.0691V174.887H34.6472ZM34.9988 162.652V151.473H56.9363V154.602H38.9011V159.523H57.2175V162.652H34.9988Z" fill="black"/>
<path d="M2.25 216.75V220.156H5.28125V216.75H6.40625V220.656H8.5V215.688H9.67188V228.578H8.5V221.688H6.40625V225.781H1.07812V216.75H2.25ZM2.25 224.75H5.28125V221.156H2.25V224.75ZM11.2812 229.266V215.375H12.4688V229.266H11.2812ZM20.9925 217.422C21.0003 219.805 23.7191 221.922 26.1331 222.375L25.5706 223.406C23.4691 222.922 21.2659 221.43 20.3675 219.391C19.4613 221.43 17.2659 222.914 15.1644 223.406L14.6019 222.375C17.0081 221.914 19.7034 219.812 19.7113 217.422V216.359H20.9925V217.422ZM14.0706 227.375V226.359H26.7894V227.375H14.0706ZM38.8288 222.891V223.891H29.2194V216.578H38.6725V217.609H30.4694V219.672H38.3756V220.656H30.4694V222.891H38.8288ZM27.5788 227.453V226.438H40.2975V227.453H27.5788ZM55.5325 215.375V220.906H57.8606V221.938H55.5325V229.297H54.3138V215.375H55.5325ZM45.3294 217.688V216.672H51.6419V221.641H46.5794V224.891C49.1575 224.898 50.9622 224.797 53.0638 224.406L53.1888 225.422C51.0013 225.82 49.1497 225.922 46.47 225.938H45.3606V220.625H50.4231V217.688H45.3294ZM69.7438 215.375V229.297H68.5094V215.375H69.7438ZM58.8063 221.297C58.8141 218.344 60.2828 216.461 62.3531 216.453C64.4156 216.461 65.9078 218.344 65.9 221.297C65.9078 224.258 64.4156 226.133 62.3531 226.125C60.2828 226.133 58.8141 224.258 58.8063 221.297ZM59.9938 221.297C59.9938 223.555 60.9625 225.039 62.3531 225.031C63.7516 225.039 64.7125 223.555 64.7125 221.297C64.7125 219.039 63.7516 217.555 62.3531 217.547C60.9625 217.555 59.9938 219.039 59.9938 221.297ZM84.5175 226.438V227.484H71.7988V226.438H84.5175ZM72.9238 217.797V216.781H83.2988V217.797H81.0956V222.656H83.2675V223.656H72.955V222.656H75.1269V217.797H72.9238ZM76.3456 222.656H79.8925V217.797H76.3456V222.656ZM95.9244 219.625V221.453H101.659V222.453H89.0025V221.453H94.7213V219.625H95.9244ZM89.7056 219.422C92.2447 219.141 94.7056 217.812 94.7056 216.016V215.484H95.94V216.016C95.94 217.812 98.4088 219.141 100.94 219.422L100.503 220.359C98.315 220.062 96.1978 219.117 95.3228 217.594C94.4478 219.117 92.3228 220.062 90.1431 220.359L89.7056 219.422ZM90.5338 224.562V223.609H100.034V226.766H91.7838V228.141H100.456V229.109H90.565V225.844H98.8306V224.562H90.5338ZM113.667 215.938V219.547H105.292V221.344H113.964V222.359H104.058V218.578H112.417V216.938H104.026V215.938H113.667ZM102.495 224.812V223.828H115.214V224.812H109.433V229.297H108.214V224.812H102.495ZM120.769 217.953C120.769 219.992 122.167 221.914 124.175 222.703L123.488 223.656C121.964 223.023 120.769 221.758 120.183 220.18C119.589 221.883 118.339 223.234 116.722 223.906L116.05 222.922C118.12 222.125 119.558 220.133 119.566 217.953V216.172H120.769V217.953ZM118.55 228.969V224.688H119.784V227.938H127.847V228.969H118.55ZM123.441 221.312V220.312H126.3V218.469H123.441V217.453H126.3V215.391H127.534V225.766H126.3V221.312H123.441ZM144.707 215.375V229.266H143.473V215.375H144.707ZM133.394 225.656C137.152 223.875 139.074 221.211 139.348 217.891H134.035V216.891H140.598C140.582 220.883 138.723 224.422 134.066 226.656L133.394 225.656ZM150.559 216.031C152.418 216.023 153.84 217.109 154.106 218.703H157.012V215.375H158.246V222.828H157.012V219.719H154.113C153.871 221.359 152.442 222.453 150.559 222.453C148.442 222.453 146.942 221.141 146.949 219.234C146.942 217.352 148.442 216.023 150.559 216.031ZM148.121 219.234C148.121 220.5 149.129 221.414 150.559 221.422C151.957 221.414 152.965 220.5 152.965 219.234C152.965 217.953 151.957 217.062 150.559 217.078C149.129 217.062 148.121 217.953 148.121 219.234ZM149.293 229.078V223.531H150.527V225.297H157.012V223.531H158.246V229.078H149.293ZM150.527 228.078H157.012V226.281H150.527V228.078ZM175.044 216.734V218.078C175.028 219.766 175.044 221.672 174.466 224.5L173.262 224.359C173.528 223.102 173.669 222 173.747 221.023L165.262 221.531L165.059 220.453L173.802 220.094C173.833 219.359 173.841 218.703 173.841 218.078V217.75H165.466V216.734H175.044ZM163.934 227.375V226.328H168.903V222.734H170.106V226.328H176.591V227.375H163.934ZM180.974 216.266C182.739 216.273 184.005 217.312 184.021 218.844C184.005 220.367 182.739 221.406 180.974 221.391C179.208 221.406 177.927 220.367 177.943 218.844C177.927 217.312 179.208 216.273 180.974 216.266ZM177.255 222.469C179.177 222.477 182.286 222.461 184.552 222.094L184.646 223.031C183.661 223.227 182.568 223.344 181.489 223.406V228.125H180.333V223.469C179.255 223.508 178.239 223.516 177.427 223.516L177.255 222.469ZM179.052 218.844C179.044 219.789 179.841 220.461 180.974 220.469C182.107 220.461 182.911 219.789 182.911 218.844C182.911 217.891 182.107 217.203 180.974 217.219C179.841 217.203 179.044 217.891 179.052 218.844ZM182.818 225.453V224.484H185.458V215.688H186.614V228.531H185.458V225.453H182.818ZM188.099 229.266V215.375H189.271V229.266H188.099ZM202.404 215.375V229.297H201.169V215.375H202.404ZM191.466 221.297C191.474 218.344 192.943 216.461 195.013 216.453C197.076 216.461 198.568 218.344 198.56 221.297C198.568 224.258 197.076 226.133 195.013 226.125C192.943 226.133 191.474 224.258 191.466 221.297ZM192.654 221.297C192.654 223.555 193.622 225.039 195.013 225.031C196.412 225.039 197.372 223.555 197.372 221.297C197.372 219.039 196.412 217.555 195.013 217.547C193.622 217.555 192.654 219.039 192.654 221.297ZM205.318 223.688C205.334 220.742 206.131 218.289 207.568 216.203H208.756C207.701 217.742 206.717 220.906 206.709 223.688C206.717 226.477 207.701 229.633 208.756 231.188H207.568C206.131 229.094 205.334 226.641 205.318 223.688ZM221.467 215.375V229.266H220.295V221.984H218.248V228.547H217.123V215.688H218.248V220.969H220.295V215.375H221.467ZM210.107 225.828V217.078H215.311V218.094H211.326V224.781C213.24 224.773 214.561 224.703 216.107 224.391L216.217 225.422C214.545 225.766 213.131 225.82 210.998 225.828H210.107ZM235.819 226.547V227.562H223.1V226.547H226.647V223.234H224.256V222.219H226.428V217.688H224.225V216.672H234.6V217.688H232.397V222.219H234.569V223.234H232.178V226.547H235.819ZM227.647 222.219H231.194V217.688H227.647V222.219ZM227.881 226.547H230.959V223.234H227.881V226.547ZM245.194 219.109C245.187 221.625 246.804 224.156 248.819 225.078L248.085 226.078C246.507 225.266 245.202 223.609 244.585 221.633C243.968 223.711 242.663 225.492 241.085 226.328L240.288 225.344C242.327 224.344 243.937 221.672 243.944 219.109V216.578H245.194V219.109ZM247.304 221.125V220.125H250.601V215.375H251.819V229.297H250.601V221.125H247.304ZM258.515 218.016C258.523 219.836 259.882 221.461 261.921 222.125L261.343 223.094C259.742 222.562 258.531 221.461 257.929 220.062C257.335 221.656 256.054 222.898 254.39 223.5L253.765 222.516C255.843 221.812 257.296 220.023 257.312 218.016V217.422H254.14V216.406H261.64V217.422H258.515V218.016ZM255.609 226.672C255.617 225.07 257.359 224.141 260.218 224.141C263.07 224.141 264.796 225.07 264.796 226.672C264.796 228.297 263.07 229.234 260.218 229.234C257.359 229.234 255.617 228.297 255.609 226.672ZM256.843 226.672C256.827 227.672 258.124 228.258 260.218 228.25C262.32 228.258 263.601 227.672 263.609 226.672C263.601 225.703 262.32 225.125 260.218 225.125C258.124 225.125 256.827 225.703 256.843 226.672ZM263.452 223.766V215.375H264.671V218.922H266.765V219.953H264.671V223.766H263.452ZM278.773 215.391V225.938H277.539V224.5H274.664V223.609H277.539V215.391H278.773ZM267.242 221.828C269.828 221.812 273.312 221.789 276.289 221.422L276.367 222.312C275.133 222.508 273.828 222.633 272.554 222.711V225.453H271.32V222.773C269.914 222.828 268.578 222.828 267.414 222.828L267.242 221.828ZM268.367 218.375C268.359 216.914 269.75 215.953 271.804 215.953C273.843 215.953 275.234 216.914 275.242 218.375C275.234 219.859 273.843 220.781 271.804 220.781C269.75 220.781 268.359 219.859 268.367 218.375ZM269.242 228.969V224.906H270.476V227.938H279.117V228.969H269.242ZM269.539 218.375C269.523 219.281 270.445 219.867 271.804 219.875C273.125 219.867 274.062 219.281 274.07 218.375C274.062 217.484 273.125 216.875 271.804 216.891C270.445 216.875 269.523 217.484 269.539 218.375ZM284.297 223.688C284.281 226.641 283.484 229.094 282.047 231.188H280.859C281.914 229.633 282.898 226.477 282.906 223.688C282.898 220.906 281.914 217.742 280.859 216.203H282.047C283.484 218.289 284.281 220.742 284.297 223.688ZM300.501 215.375V220.25H302.579V221.281H300.501V226.25H299.266V215.375H300.501ZM289.594 223.641C290.696 223.641 292.001 223.625 293.36 223.578V222.516C291.743 222.367 290.696 221.594 290.704 220.422C290.696 219.086 292.001 218.273 293.954 218.281C295.922 218.273 297.204 219.086 297.219 220.422C297.204 221.586 296.188 222.359 294.579 222.516V223.523C295.876 223.445 297.196 223.328 298.407 223.141L298.516 224.016C295.54 224.578 292.165 224.617 289.735 224.641L289.594 223.641ZM289.938 217.672V216.75H293.36V215.344H294.579V216.75H297.985V217.672H289.938ZM291.672 228.969V225.516H292.907V227.938H301.001V228.969H291.672ZM291.876 220.422C291.868 221.18 292.672 221.672 293.954 221.672C295.235 221.672 296.047 221.18 296.047 220.422C296.047 219.633 295.235 219.148 293.954 219.156C292.672 219.148 291.868 219.633 291.876 220.422ZM314.681 215.391V223.734H313.446V221.859H309.759V220.844H313.446V218.969H309.899C308.985 221.203 306.845 222.82 303.868 223.703L303.353 222.734C306.704 221.742 308.806 219.859 309.048 217.453H304.056V216.422H310.384C310.384 216.969 310.321 217.492 310.204 217.984H313.446V215.391H314.681ZM305.493 226.531C305.485 224.875 307.29 223.875 310.134 223.875C312.946 223.875 314.759 224.875 314.759 226.531C314.759 228.195 312.946 229.203 310.134 229.203C307.29 229.203 305.485 228.195 305.493 226.531ZM306.696 226.531C306.704 227.578 308.04 228.211 310.134 228.203C312.196 228.211 313.532 227.578 313.54 226.531C313.532 225.484 312.196 224.852 310.134 224.859C308.04 224.852 306.704 225.484 306.696 226.531ZM328.158 215.375V229.266H326.923V215.375H328.158ZM316.845 225.656C320.603 223.875 322.525 221.211 322.798 217.891H317.486V216.891H324.048C324.033 220.883 322.173 224.422 317.517 226.656L316.845 225.656ZM337.15 215.984C337.142 217.711 339.65 219.039 342.15 219.344L341.712 220.281C339.525 219.984 337.384 219.008 336.509 217.508C335.619 219.008 333.47 219.984 331.306 220.281L330.884 219.344C333.377 219.039 335.884 217.711 335.884 215.984V215.453H337.15V215.984ZM330.181 222.188V221.188H342.837V222.188H337.103V223.578H341.212V226.734H332.962V228.141H341.634V229.109H331.744V225.812H340.009V224.547H331.712V223.578H335.884V222.188H330.181ZM355.205 215.391V225.656H353.971V221.906H350.377C349.736 222.727 348.705 223.219 347.517 223.219C345.439 223.219 343.9 221.781 343.908 219.75C343.9 217.711 345.439 216.273 347.517 216.266C348.697 216.273 349.713 216.758 350.361 217.562H353.971V215.391H355.205ZM345.08 219.75C345.08 221.141 346.096 222.133 347.517 222.125C348.885 222.133 349.924 221.141 349.924 219.75C349.924 218.367 348.885 217.367 347.517 217.359C346.096 217.367 345.08 218.367 345.08 219.75ZM346.283 228.969V224.578H347.517V227.938H355.596V228.969H346.283ZM350.916 218.578C351.041 218.938 351.111 219.328 351.111 219.75C351.111 220.156 351.041 220.539 350.924 220.891H353.971V218.578H350.916ZM368.182 216.281V217.5C368.182 218.812 368.182 220.258 367.783 222.25H369.854V223.266H364.119V229.297H362.885V223.266H357.198V222.25H366.541C366.963 220.25 366.963 218.797 366.963 217.5V217.297H358.791V216.281H368.182ZM383.424 226.438V227.453H370.706V226.438H376.393V223.031H377.596V226.438H383.424ZM371.206 222.172C373.635 221.758 376.338 219.727 376.346 217.391V216.328H377.628V217.391C377.635 219.711 380.378 221.758 382.799 222.172L382.253 223.188C380.135 222.75 377.901 221.32 377.003 219.32C376.088 221.312 373.878 222.75 371.753 223.188L371.206 222.172ZM395.448 219.594V220.578H385.932V215.891H387.151V219.594H395.448ZM384.198 223.469V222.469H396.917V223.469H384.198ZM385.854 228.922V224.891H387.073V227.906H395.526V228.922H385.854ZM405.246 216.219C406.418 216.211 407.41 216.656 408.058 217.391H411.699V215.375H412.933V223.609H411.699V221.625H408.058C407.418 222.359 406.418 222.805 405.246 222.797C403.168 222.805 401.628 221.445 401.636 219.516C401.628 217.57 403.168 216.211 405.246 216.219ZM402.808 219.516C402.808 220.805 403.824 221.758 405.246 221.75C406.621 221.758 407.652 220.805 407.652 219.516C407.652 218.195 406.621 217.273 405.246 217.281C403.824 217.273 402.808 218.195 402.808 219.516ZM403.668 226.578C403.66 224.906 405.441 223.938 408.324 223.938C411.199 223.938 412.98 224.906 412.98 226.578C412.98 228.266 411.199 229.234 408.324 229.234C405.441 229.234 403.66 228.266 403.668 226.578ZM404.871 226.578C404.863 227.625 406.191 228.258 408.324 228.25C410.457 228.258 411.785 227.625 411.777 226.578C411.785 225.523 410.457 224.898 408.324 224.891C406.191 224.898 404.863 225.523 404.871 226.578ZM408.644 218.391C408.769 218.734 408.839 219.109 408.839 219.516C408.839 219.906 408.769 220.273 408.652 220.609H411.699V218.391H408.644ZM425.973 216.062V217.062C425.973 218.094 425.973 219.344 425.629 221.016H427.644V222.016H421.863V224.578H426.066V229.266H424.832V225.594H416.238V224.578H420.644V222.016H414.926V221.016H424.394C424.762 219.32 424.762 218.094 424.754 217.062H416.535V216.062H425.973ZM433.356 217.391C433.34 219.414 434.809 221.219 436.871 221.938L436.246 222.906C434.637 222.312 433.363 221.117 432.738 219.578C432.129 221.227 430.848 222.523 429.215 223.156L428.574 222.188C430.652 221.414 432.106 219.492 432.106 217.391V216.062H433.356V217.391ZM430.559 225.453V224.438H439.902V229.266H438.684V225.453H430.559ZM438.684 223.75V215.375H439.902V223.75H438.684ZM454.598 222.094V223.109H448.864V224.75H453.051V229.078H443.489V224.75H447.661V223.109H441.942V222.094H454.598ZM443.129 216.844V215.828H453.395V216.844H451.254V219.766H453.348V220.781H443.176V219.766H445.27V216.844H443.129ZM444.707 228.078H451.848V225.719H444.707V228.078ZM446.489 219.766H450.036V216.844H446.489V219.766ZM466.294 215.375V220.25H468.372V221.281H466.294V226.25H465.059V215.375H466.294ZM455.388 223.641C456.489 223.641 457.794 223.625 459.153 223.578V222.516C457.536 222.367 456.489 221.594 456.497 220.422C456.489 219.086 457.794 218.273 459.747 218.281C461.716 218.273 462.997 219.086 463.013 220.422C462.997 221.586 461.981 222.359 460.372 222.516V223.523C461.669 223.445 462.989 223.328 464.2 223.141L464.309 224.016C461.333 224.578 457.958 224.617 455.528 224.641L455.388 223.641ZM455.731 217.672V216.75H459.153V215.344H460.372V216.75H463.778V217.672H455.731ZM457.466 228.969V225.516H458.7V227.938H466.794V228.969H457.466ZM457.669 220.422C457.661 221.18 458.466 221.672 459.747 221.672C461.028 221.672 461.841 221.18 461.841 220.422C461.841 219.633 461.028 219.148 459.747 219.156C458.466 219.148 457.661 219.633 457.669 220.422ZM480.474 215.391V223.734H479.239V221.859H475.552V220.844H479.239V218.969H475.693C474.778 221.203 472.638 222.82 469.661 223.703L469.146 222.734C472.497 221.742 474.599 219.859 474.841 217.453H469.849V216.422H476.177C476.177 216.969 476.114 217.492 475.997 217.984H479.239V215.391H480.474ZM471.286 226.531C471.278 224.875 473.083 223.875 475.927 223.875C478.739 223.875 480.552 224.875 480.552 226.531C480.552 228.195 478.739 229.203 475.927 229.203C473.083 229.203 471.278 228.195 471.286 226.531ZM472.489 226.531C472.497 227.578 473.833 228.211 475.927 228.203C477.989 228.211 479.325 227.578 479.333 226.531C479.325 225.484 477.989 224.852 475.927 224.859C473.833 224.852 472.497 225.484 472.489 226.531ZM487.201 218.359C487.208 220.086 488.701 221.648 490.747 222.25L490.154 223.203C488.544 222.719 487.263 221.672 486.63 220.305C486.037 221.82 484.763 223.016 483.107 223.562L482.513 222.625C484.552 221.938 485.99 220.242 485.997 218.359V218.062H482.857V217.078H485.997V215.312H487.232V217.078H490.341V218.062H487.201V218.359ZM484.716 226.703C484.708 225.086 486.482 224.164 489.372 224.172C492.255 224.164 494.029 225.086 494.029 226.703C494.029 228.312 492.255 229.234 489.372 229.234C486.482 229.234 484.708 228.312 484.716 226.703ZM485.935 226.703C485.927 227.672 487.24 228.266 489.372 228.266C491.505 228.266 492.81 227.672 492.81 226.703C492.81 225.711 491.505 225.141 489.372 225.125C487.24 225.141 485.927 225.711 485.935 226.703ZM489.904 220.375V219.359H492.747V215.375H493.982V223.797H492.747V220.375H489.904ZM507.427 215.375V229.297H506.193V215.375H507.427ZM496.49 221.297C496.498 218.344 497.967 216.461 500.037 216.453C502.099 216.461 503.592 218.344 503.584 221.297C503.592 224.258 502.099 226.133 500.037 226.125C497.967 226.133 496.498 224.258 496.49 221.297ZM497.677 221.297C497.677 223.555 498.646 225.039 500.037 225.031C501.435 225.039 502.396 223.555 502.396 221.297C502.396 219.039 501.435 217.555 500.037 217.547C498.646 217.555 497.677 219.039 497.677 221.297ZM520.194 217.344C520.186 219.203 522.662 220.781 525.084 221.141L524.631 222.109C522.467 221.742 520.35 220.586 519.506 218.914C518.662 220.586 516.545 221.742 514.412 222.109L513.928 221.141C516.342 220.781 518.811 219.203 518.819 217.344V217.25H514.366V216.25H524.631V217.25H520.194V217.344ZM513.178 224.312V223.297H525.834V224.312H520.084V229.266H518.881V224.312H513.178ZM534.389 216.453V217.188C534.382 218.102 534.382 219.484 534.03 221.297L532.796 221.203C533.132 219.547 533.163 218.367 533.178 217.484H527.468V216.453H534.389ZM526.608 222.594C527.507 222.594 528.522 222.586 529.593 222.555V219.531H530.811V222.516C532.35 222.453 533.944 222.344 535.389 222.141L535.468 223.047C532.553 223.547 529.21 223.602 526.733 223.609L526.608 222.594ZM528.749 228.969V224.891H529.983V227.938H538.03V228.969H528.749ZM536.327 225.828V215.375H537.577V219.906H539.608V220.953H537.577V225.828H536.327ZM550.944 215.375V221.109H553.273V222.125H550.944V229.266H549.726V215.375H550.944ZM540.116 218.625V217.609H543.694V215.547H544.913V217.609H548.382V218.625H540.116ZM540.913 222.969C540.905 221.094 542.343 219.781 544.319 219.781C546.28 219.781 547.71 221.094 547.726 222.969C547.71 224.852 546.28 226.156 544.319 226.156C542.343 226.156 540.905 224.852 540.913 222.969ZM542.085 222.969C542.077 224.234 543.023 225.125 544.319 225.109C545.601 225.125 546.538 224.234 546.554 222.969C546.538 221.711 545.601 220.805 544.319 220.812C543.023 220.805 542.077 221.711 542.085 222.969ZM564.937 219.594V220.578H555.421V215.891H556.64V219.594H564.937ZM553.687 223.469V222.469H566.406V223.469H553.687ZM555.343 228.922V224.891H556.562V227.906H565.015V228.922H555.343ZM581.953 216.062V217.062C581.953 218.094 581.953 219.344 581.609 221.016H583.625V222.016H577.844V224.578H582.047V229.266H580.812V225.594H572.219V224.578H576.625V222.016H570.906V221.016H580.375C580.742 219.32 580.742 218.094 580.734 217.062H572.516V216.062H581.953ZM596.289 215.375V229.266H595.117V215.375H596.289ZM584.242 225.562C586.18 224.406 587.313 221.867 587.305 219.344V218.031H584.633V217.016H591.039V218.031H588.492V219.344C588.492 221.742 589.578 224.141 591.492 225.25L590.742 226.156C589.375 225.336 588.407 223.836 587.922 222.07C587.422 223.984 586.414 225.617 585.024 226.484L584.242 225.562ZM589.977 221.391V220.391H592.321V215.719H593.477V228.547H592.321V221.391H589.977ZM609.376 215.375V229.297H608.141V215.375H609.376ZM598.735 225.938V216.562H599.954V220.234H604.094V216.562H605.297V225.938H598.735ZM599.954 224.906H604.094V221.219H599.954V224.906ZM622.587 216.781V218.328C622.579 220.109 622.579 221.898 622.087 224.484L620.884 224.344C621.376 221.891 621.376 220.062 621.384 218.328V217.797H612.759V216.781H622.587ZM611.431 227.297V226.281H614.571V221.703H615.79V226.281H618.04V221.703H619.243V226.281H624.087V227.297H611.431ZM631.907 216.219C631.9 217.977 634.431 219.539 636.876 219.891L636.392 220.844C634.267 220.508 632.157 219.398 631.275 217.828C630.392 219.406 628.275 220.508 626.142 220.844L625.673 219.891C628.134 219.539 630.642 218.008 630.642 216.219V215.562H631.907V216.219ZM624.939 222.969V221.953H637.595V222.969H631.861V224.75H636.032V229.266H634.798V225.75H626.345V224.75H630.657V222.969H624.939ZM645.041 216.375V220.422H640.259V222.719C642.798 222.719 644.197 222.656 645.884 222.359L646.009 223.375C644.197 223.688 642.744 223.734 640.025 223.734H639.025V219.453H643.791V217.375H638.994V216.375H645.041ZM640.931 228.891V224.859H642.166V227.875H650.384V228.891H640.931ZM645.978 221.859V220.844H648.728V218.734H645.978V217.734H648.728V215.391H649.963V225.609H648.728V221.859H645.978ZM663.174 221.891V222.891H658.877V226.484H664.674V227.516H651.955V226.484H657.674V222.891H653.58V216.516H663.033V217.516H654.814V221.891H663.174ZM676.956 216.438V217.453H675.534V221.898C676.174 221.852 676.807 221.797 677.409 221.719L677.471 222.656C674.76 223.07 671.604 223.117 669.346 223.109L669.19 222.078C669.745 222.078 670.346 222.078 670.987 222.07V217.453H669.581V216.438H676.956ZM671.409 226.734C671.401 225.148 673.159 224.242 676.065 224.25C678.971 224.242 680.721 225.148 680.721 226.734C680.721 228.32 678.971 229.234 676.065 229.234C673.159 229.234 671.401 228.32 671.409 226.734ZM672.174 222.047C672.885 222.031 673.62 222.008 674.346 221.969V217.453H672.174V222.047ZM672.628 226.734C672.62 227.703 673.924 228.266 676.065 228.266C678.198 228.266 679.503 227.703 679.503 226.734C679.503 225.781 678.198 225.203 676.065 225.203C673.924 225.203 672.62 225.781 672.628 226.734ZM677.096 221.375V220.359H679.44V218.891H677.096V217.875H679.44V215.375H680.674V223.953H679.44V221.375H677.096ZM693.417 215.375V221.031H695.667V222.062H693.417V229.266H692.198V215.375H693.417ZM682.761 225.656C686.347 223.875 688.3 221.195 688.581 217.906H683.401V216.875H689.823C689.815 220.805 687.972 224.391 683.448 226.625L682.761 225.656ZM697.034 223.688C697.05 220.742 697.847 218.289 699.284 216.203H700.472C699.417 217.742 698.433 220.906 698.425 223.688C698.433 226.477 699.417 229.633 700.472 231.188H699.284C697.847 229.094 697.05 226.641 697.034 223.688ZM701.996 228V216.688H708.808V217.938H703.402V221.719H708.292V222.953H703.402V228H701.996ZM709.66 228H708.191L712.332 216.688H713.816L717.957 228H716.472L715.34 224.812H710.793L709.66 228ZM711.222 223.578H714.91L713.113 218.516H713.019L711.222 223.578ZM719.168 228V216.688H723.012C725.66 216.688 726.871 218.266 726.871 220.281C726.871 222.289 725.66 223.891 723.028 223.891H720.574V228H719.168ZM720.574 222.641H722.965C724.77 222.641 725.473 221.625 725.481 220.281C725.473 218.93 724.77 217.938 722.949 217.938H720.574V222.641ZM727.864 228H726.395L730.536 216.688H732.02L736.161 228H734.676L733.543 224.812H728.997L727.864 228ZM729.426 223.578H733.114L731.317 218.516H731.223L729.426 223.578ZM743.528 219.531C743.411 218.422 742.38 217.781 741.028 217.781C739.528 217.781 738.552 218.562 738.544 219.641C738.552 220.828 739.872 221.273 740.731 221.484L741.856 221.797C743.067 222.109 745.059 222.805 745.059 224.922C745.059 226.766 743.575 228.195 740.95 228.203C738.513 228.195 737.005 226.938 736.872 225.062H738.309C738.427 226.328 739.606 226.93 740.95 226.922C742.513 226.93 743.684 226.125 743.684 224.891C743.684 223.789 742.638 223.367 741.45 223.031L740.059 222.656C738.286 222.141 737.177 221.234 737.184 219.703C737.177 217.789 738.88 216.531 741.075 216.531C743.27 216.531 744.848 217.812 744.903 219.531H743.528ZM749.536 223.688C749.521 226.641 748.724 229.094 747.286 231.188H746.099C747.153 229.633 748.138 226.477 748.146 223.688C748.138 220.906 747.153 217.742 746.099 216.203H747.286C748.724 218.289 749.521 220.742 749.536 223.688ZM7.79688 240.75V249.781H1.375V240.75H7.79688ZM2.57812 248.781H6.59375V241.734H2.57812V248.781ZM10.7812 253.297V239.375H12.0156V253.297H10.7812ZM18.2113 242.141C18.2191 243.68 19.2894 245.234 21.0706 245.906L20.43 246.844C19.0941 246.328 18.1331 245.336 17.6331 244.141C17.1253 245.461 16.1253 246.641 14.7581 247.234L14.0863 246.281C15.9144 245.484 17.0316 243.688 17.0394 242.141V240.25H18.2113V242.141ZM16.6175 250.766C16.6019 249.195 18.3831 248.273 21.2738 248.281C24.1488 248.273 25.9378 249.195 25.9456 250.766C25.9378 252.32 24.1488 253.234 21.2738 253.234C18.3831 253.234 16.6019 252.32 16.6175 250.766ZM17.8363 250.766C17.8206 251.711 19.1409 252.289 21.2738 252.281C23.3831 252.289 24.7113 251.711 24.7269 250.766C24.7113 249.805 23.3831 249.227 21.2738 249.219C19.1409 249.227 17.8206 249.805 17.8363 250.766ZM21.6956 247.531V239.656H22.8519V243.125H24.6956V239.391H25.8675V247.969H24.6956V244.141H22.8519V247.531H21.6956ZM40.235 245.25V246.25H34.5006V247.625H38.61V250.734H30.36V252.141H39.0319V253.109H29.1413V249.812H37.4069V248.578H29.11V247.625H33.2819V246.25H27.5788V245.25H40.235ZM29.2194 244.078V239.844H38.5944V244.078H29.2194ZM30.4381 243.094H37.3756V240.828H30.4381V243.094ZM57.4856 246.734V247.734H51.8294V250.453H50.6106V247.734H44.7669V246.734H57.4856ZM46.3919 252.969V249.172H47.6106V251.938H56.0638V252.969H46.3919ZM46.47 245.375V239.828H47.6888V241.609H54.5638V239.828H55.7825V245.375H46.47ZM47.6888 244.375H54.5638V242.547H47.6888V244.375ZM63.025 241.609C63.0172 243.523 64.4469 245.289 66.4625 245.984L65.7906 246.969C64.2516 246.398 63.0406 245.219 62.4469 243.734C61.8609 245.375 60.6109 246.656 58.9781 247.297L58.3063 246.281C60.4156 245.539 61.8063 243.703 61.8219 241.562V240.094H63.025V241.609ZM60.4625 249.344V248.359H69.8063V253.266H68.5719V249.344H60.4625ZM65.4781 243.328V242.297H68.5719V239.375H69.8063V247.594H68.5719V243.328H65.4781ZM88.1975 246.734V247.734H82.5413V250.453H81.3225V247.734H75.4788V246.734H88.1975ZM77.1038 252.969V249.172H78.3225V251.938H86.7756V252.969H77.1038ZM77.1819 245.375V239.828H78.4006V241.609H85.2756V239.828H86.4944V245.375H77.1819ZM78.4006 244.375H85.2756V242.547H78.4006V244.375ZM92.7213 240.453C94.7681 240.461 96.2213 242.344 96.2369 245.297C96.2213 248.258 94.7681 250.133 92.7213 250.125C90.6588 250.133 89.2134 248.258 89.2213 245.297C89.2134 242.344 90.6588 240.461 92.7213 240.453ZM90.3775 245.297C90.3853 247.555 91.3463 249.039 92.7213 249.031C94.1119 249.039 95.0494 247.555 95.0494 245.297C95.0494 243.039 94.1119 241.555 92.7213 241.547C91.3463 241.555 90.3853 243.039 90.3775 245.297ZM98.5338 253.266V239.375H99.7525V242.875H102.003V243.922H99.7525V247.016H102.003V248.047H99.7525V253.266H98.5338ZM114.417 239.375V253.266H113.229V239.375H114.417ZM102.683 245.375C102.69 242.422 103.862 240.555 105.667 240.547C107.354 240.555 108.495 242.18 108.651 244.797H110.448V239.672H111.62V252.562H110.448V245.812H108.659C108.542 248.516 107.378 250.211 105.667 250.203C103.862 250.211 102.69 248.328 102.683 245.375ZM103.839 245.375C103.823 247.625 104.542 249.047 105.667 249.031C106.8 249.047 107.518 247.625 107.511 245.375C107.518 243.117 106.8 241.703 105.667 241.703C104.542 241.703 103.823 243.117 103.839 245.375ZM120.909 243.109C120.902 245.625 122.519 248.156 124.534 249.078L123.8 250.078C122.222 249.266 120.917 247.609 120.3 245.633C119.683 247.711 118.378 249.492 116.8 250.328L116.003 249.344C118.042 248.344 119.652 245.672 119.659 243.109V240.578H120.909V243.109ZM123.019 245.125V244.125H126.316V239.375H127.534V253.297H126.316V245.125H123.019ZM138.488 246.703V249.266C139.832 249.195 141.191 249.086 142.473 248.891L142.566 249.797C139.387 250.375 135.973 250.398 133.473 250.391L133.301 249.375C134.465 249.367 135.84 249.359 137.285 249.312V246.703H138.488ZM133.723 246.219C135.777 245.609 137.223 244.086 137.254 242.219H134.066V241.203H137.285V239.484H138.488V241.203H141.754V242.219H138.488C138.527 244.008 140.012 245.477 142.066 246.062L141.488 247.031C139.824 246.531 138.512 245.461 137.887 244.055C137.285 245.539 135.988 246.648 134.316 247.156L133.723 246.219ZM143.394 253.297V239.375H144.613V253.297H143.394ZM157.871 240.781V242.172C157.856 243.875 157.856 245.781 157.356 248.578L156.106 248.438C156.629 245.781 156.629 243.836 156.637 242.172V241.797H148.074V240.781H157.871ZM146.731 251.297V250.281H151.699V245.312H152.902V250.281H159.387V251.297H146.731ZM171.754 239.375V247.516H170.52V243.891H167.708V242.859H170.52V239.375H171.754ZM160.301 246.406C162.348 245.68 163.833 243.82 163.833 241.844V241.297H160.692V240.281H168.176V241.297H165.067V241.844C165.067 243.633 166.458 245.367 168.489 246.094L167.848 247.062C166.286 246.492 165.075 245.328 164.473 243.891C163.872 245.5 162.59 246.773 160.942 247.375L160.301 246.406ZM162.676 253.078V248.203H171.754V253.078H162.676ZM163.895 252.078H170.551V249.188H163.895V252.078ZM180.075 239.625C183.161 239.625 184.973 240.477 184.981 242.016C184.973 243.594 183.161 244.445 180.075 244.453C176.973 244.445 175.153 243.594 175.153 242.016C175.153 240.477 176.973 239.625 180.075 239.625ZM173.747 246.391V245.391H186.403V246.391H173.747ZM175.278 248.531V247.594H184.778V250.703H176.528V252.141H185.2V253.109H175.309V249.797H183.575V248.531H175.278ZM176.434 242.016C176.419 242.984 177.77 243.516 180.075 243.516C182.38 243.516 183.723 242.984 183.731 242.016C183.723 241.102 182.38 240.555 180.075 240.547C177.77 240.555 176.419 241.102 176.434 242.016ZM199.685 240.656V241.594H191.482V240.656H194.966V239.297H196.185V240.656H199.685ZM191.013 247.25C192.193 247.25 193.552 247.242 194.966 247.195V246.227C193.318 246.078 192.263 245.336 192.279 244.203C192.263 242.914 193.583 242.125 195.591 242.125C197.568 242.125 198.904 242.914 198.919 244.203C198.904 245.336 197.833 246.086 196.185 246.227V247.148C197.482 247.086 198.794 246.984 200.013 246.812L200.107 247.688C197.06 248.188 193.701 248.234 191.201 248.234L191.013 247.25ZM193.029 250.312V249.328H202.404V253.266H201.169V250.312H193.029ZM193.435 244.203C193.435 244.914 194.287 245.391 195.591 245.375C196.872 245.391 197.74 244.914 197.732 244.203C197.74 243.445 196.872 242.984 195.591 243C194.287 242.984 193.435 243.445 193.435 244.203ZM201.169 248.672V239.422H202.404V248.672H201.169ZM217.131 246.141V247.156H204.459V246.141H217.131ZM205.865 249.828V248.828H215.568V253.344H214.349V249.828H205.865ZM206.068 244.594V239.922H215.553V240.922H207.287V243.594H215.678V244.594H206.068ZM224.904 241.781V242.781H217.936V241.781H220.826V239.797H222.045V241.781H224.904ZM218.436 246.875C218.436 245.031 219.693 243.727 221.42 243.719C223.17 243.727 224.42 245.031 224.436 246.875C224.42 248.742 223.17 250.055 221.42 250.062C219.693 250.055 218.436 248.742 218.436 246.875ZM219.529 246.875C219.529 248.109 220.318 248.992 221.42 248.984C222.529 248.992 223.342 248.109 223.342 246.875C223.342 245.656 222.529 244.766 221.42 244.75C220.318 244.766 219.529 245.656 219.529 246.875ZM225.623 252.578V239.719H226.779V245.234H228.623V239.375H229.795V253.266H228.623V246.25H226.779V252.578H225.623ZM239.296 243.328C239.296 245.539 240.374 247.922 242.217 249.016L241.514 249.969C240.171 249.156 239.21 247.672 238.725 245.977C238.217 247.828 237.186 249.422 235.796 250.266L235.014 249.344C236.936 248.219 238.108 245.758 238.108 243.375V240.688H239.296V243.328ZM240.686 245.406V244.359H243.046V239.672H244.202V252.562H243.046V245.406H240.686ZM245.889 253.266V239.375H247.077V253.266H245.889ZM260.569 239.375V253.266H259.398V239.375H260.569ZM248.663 249.375C251.687 247.586 253.202 245.078 253.444 242.172H249.288V241.156H254.663C254.663 241.867 254.601 242.57 254.476 243.25H256.585V239.75H257.757V252.562H256.585V247.75H254.007V246.734H256.585V244.266H254.233C253.562 246.617 252.038 248.695 249.413 250.266L248.663 249.375ZM267.015 241.938C267.015 243.742 268.406 245.469 270.437 246.172L269.796 247.141C268.234 246.578 267.023 245.414 266.429 243.984C265.828 245.578 264.538 246.859 262.89 247.469L262.249 246.5C264.296 245.766 265.781 243.914 265.781 241.953V241.344H262.64V240.344H270.124V241.344H267.015V241.938ZM264.359 249.453V248.438H273.703V253.266H272.468V249.453H264.359ZM269.687 244.047V243.016H272.468V239.375H273.703V247.703H272.468V244.047H269.687ZM286.359 240.672C286.367 242.633 288.914 244.32 291.422 244.672L290.922 245.672C288.766 245.312 286.625 244.117 285.734 242.414C284.844 244.133 282.711 245.312 280.547 245.672L280.047 244.672C282.555 244.32 285.094 242.664 285.094 240.672V239.875H286.359V240.672ZM279.391 248.234V247.203H292.047V248.234H286.297V253.266H285.094V248.234H279.391ZM300.024 241.109C300.016 242.82 302.344 244.211 304.805 244.547L304.321 245.516C302.078 245.188 299.977 244.07 299.227 242.445C298.469 244.07 296.383 245.188 294.133 245.516L293.68 244.547C296.125 244.211 298.438 242.82 298.43 241.109V241.078H294.055V240.078H304.43V241.078H300.024V241.109ZM292.883 247.547V246.531H305.602V247.547H299.946V250.391H298.727V247.547H292.883ZM294.508 252.969V249H295.742V251.938H304.18V252.969H294.508ZM310.954 240.391C313.133 240.398 314.68 241.727 314.688 243.656C314.68 245.594 313.133 246.914 310.954 246.922C308.758 246.914 307.196 245.594 307.204 243.656C307.196 241.727 308.758 240.398 310.954 240.391ZM306.485 249.188C309.047 249.195 312.587 249.172 315.657 248.719L315.751 249.625C312.571 250.219 309.157 250.234 306.657 250.234L306.485 249.188ZM308.407 243.656C308.399 244.953 309.469 245.844 310.954 245.844C312.422 245.844 313.493 244.953 313.485 243.656C313.493 242.367 312.422 241.469 310.954 241.469C309.469 241.469 308.399 242.367 308.407 243.656ZM316.579 253.297V239.375H317.797V253.297H316.579ZM330.579 240.672C330.587 242.633 333.134 244.32 335.642 244.672L335.142 245.672C332.986 245.312 330.845 244.117 329.954 242.414C329.064 244.133 326.931 245.312 324.767 245.672L324.267 244.672C326.775 244.32 329.314 242.664 329.314 240.672V239.875H330.579V240.672ZM323.611 248.234V247.203H336.267V248.234H330.517V253.266H329.314V248.234H323.611ZM348.572 239.375V246.594H347.369V239.375H348.572ZM337.322 245.641C339.392 244.953 340.877 243.25 340.884 241.344V241.188H337.634V240.172H345.322V241.188H342.119V241.344C342.127 243.148 343.603 244.742 345.697 245.359L345.087 246.312C343.447 245.797 342.142 244.695 341.525 243.273C340.923 244.828 339.595 246.039 337.9 246.609L337.322 245.641ZM339.556 248.234V247.266H348.587V250.578H340.791V252.125H349.087V253.109H339.587V249.656H347.369V248.234H339.556ZM367.026 246.734V247.734H361.369V250.453H360.151V247.734H354.307V246.734H367.026ZM355.932 252.969V249.172H357.151V251.938H365.604V252.969H355.932ZM356.01 245.375V239.828H357.229V241.609H364.104V239.828H365.323V245.375H356.01ZM357.229 244.375H364.104V242.547H357.229V244.375ZM372.565 241.609C372.557 243.523 373.987 245.289 376.003 245.984L375.331 246.969C373.792 246.398 372.581 245.219 371.987 243.734C371.401 245.375 370.151 246.656 368.518 247.297L367.846 246.281C369.956 245.539 371.346 243.703 371.362 241.562V240.094H372.565V241.609ZM370.003 249.344V248.359H379.346V253.266H378.112V249.344H370.003ZM375.018 243.328V242.297H378.112V239.375H379.346V247.594H378.112V243.328H375.018ZM396.253 243.266V244.281H386.769V239.656H387.987V243.266H396.253ZM385.034 246.922V245.906H397.706V246.922H385.034ZM386.566 250.688C386.558 249.07 388.362 248.164 391.362 248.172C394.339 248.164 396.128 249.07 396.144 250.688C396.128 252.297 394.339 253.203 391.362 253.203C388.362 253.203 386.558 252.297 386.566 250.688ZM387.816 250.688C387.8 251.656 389.136 252.242 391.362 252.25C393.566 252.242 394.902 251.656 394.909 250.688C394.902 249.703 393.566 249.148 391.362 249.141C389.136 249.148 387.8 249.703 387.816 250.688ZM405.136 240.234V244.125H400.355V246.281C402.964 246.289 404.316 246.234 405.949 245.938L406.074 246.953C404.347 247.234 402.933 247.281 400.121 247.281H399.136V243.188H403.918V241.219H399.105V240.234H405.136ZM400.699 249.672V248.672H410.058V253.297H408.824V249.672H400.699ZM406.058 245.344V244.328H408.824V242.453H406.058V241.453H408.824V239.391H410.058V247.922H408.824V245.344H406.058ZM418.379 239.625C421.465 239.625 423.277 240.477 423.285 242.016C423.277 243.594 421.465 244.445 418.379 244.453C415.277 244.445 413.457 243.594 413.457 242.016C413.457 240.477 415.277 239.625 418.379 239.625ZM412.051 246.391V245.391H424.707V246.391H412.051ZM413.582 248.531V247.594H423.082V250.703H414.832V252.141H423.504V253.109H413.613V249.797H421.879V248.531H413.582ZM414.738 242.016C414.723 242.984 416.074 243.516 418.379 243.516C420.683 243.516 422.027 242.984 422.035 242.016C422.027 241.102 420.683 240.555 418.379 240.547C416.074 240.555 414.723 241.102 414.738 242.016ZM440.723 239.391V249.547H439.504V239.391H440.723ZM429.582 243.766C429.575 241.766 431.145 240.367 433.223 240.359C435.301 240.367 436.856 241.766 436.864 243.766C436.856 245.789 435.301 247.195 433.223 247.188C431.145 247.195 429.575 245.789 429.582 243.766ZM430.786 243.766C430.77 245.148 431.817 246.109 433.223 246.109C434.606 246.109 435.661 245.148 435.661 243.766C435.661 242.406 434.606 241.438 433.223 241.438C431.817 241.438 430.77 242.406 430.786 243.766ZM431.754 252.969V248.516H432.973V251.938H441.161V252.969H431.754ZM454.278 239.375V247.656H453.044V244.016H450.247V243H453.044V239.375H454.278ZM442.825 246.547C444.888 245.805 446.356 243.922 446.356 241.938V241.422H443.216V240.391H450.7V241.422H447.591V241.922C447.591 243.734 448.981 245.461 451.013 246.156L450.372 247.141C448.817 246.578 447.606 245.406 447.005 243.977C446.411 245.602 445.122 246.898 443.466 247.531L442.825 246.547ZM445.013 250.672C445.005 249.039 446.778 248.086 449.669 248.094C452.552 248.086 454.325 249.039 454.325 250.672C454.325 252.312 452.552 253.25 449.669 253.266C446.778 253.25 445.005 252.312 445.013 250.672ZM446.231 250.672C446.223 251.68 447.536 252.289 449.669 252.281C451.794 252.289 453.106 251.68 453.106 250.672C453.106 249.656 451.794 249.047 449.669 249.047C447.536 249.047 446.223 249.656 446.231 250.672ZM467.13 239.375V242.734H469.224V243.766H467.13V247.5H465.911V239.375H467.13ZM456.864 246.625V240.172H458.068V242.297H462.114V240.172H463.333V246.625H456.864ZM458.068 245.641H462.114V243.281H458.068V245.641ZM458.411 253.078V248.281H467.239V249.266H459.63V252.078H467.505V253.078H458.411ZM473.685 240.203C475.802 240.195 477.326 241.523 477.341 243.469C477.326 245.406 475.802 246.727 473.685 246.734C471.583 246.727 470.037 245.406 470.044 243.469C470.037 241.523 471.583 240.195 473.685 240.203ZM470.341 252.172C472.091 251.539 473.169 250.031 473.169 248.688V247.906H474.341V248.688C474.333 249.93 474.997 251.242 476.318 252C477.654 251.164 478.333 249.758 478.341 248.688V247.906H479.544V248.688C479.537 250.133 480.576 251.57 482.372 252.172L481.747 253.109C480.372 252.594 479.404 251.625 478.927 250.453C478.497 251.594 477.646 252.68 476.341 253.219C475.005 252.695 474.154 251.664 473.74 250.5C473.24 251.625 472.279 252.602 470.966 253.109L470.341 252.172ZM471.247 243.469C471.24 244.781 472.279 245.688 473.685 245.703C475.107 245.688 476.13 244.781 476.138 243.469C476.13 242.164 475.107 241.234 473.685 241.25C472.279 241.234 471.24 242.164 471.247 243.469ZM479.419 247.297V239.375H480.638V242.734H482.732V243.75H480.638V247.297H479.419ZM494.037 239.375V244.875H496.365V245.906H494.037V253.297H492.818V239.375H494.037ZM483.896 249.812V240.734H490.381V241.75H485.115V248.781C487.631 248.773 489.404 248.664 491.474 248.281L491.631 249.344C489.451 249.734 487.631 249.812 484.99 249.812H483.896ZM498.264 252.094C497.717 252.086 497.248 251.633 497.264 251.078C497.248 250.531 497.717 250.078 498.264 250.078C498.818 250.078 499.272 250.531 499.264 251.078C499.272 251.633 498.818 252.086 498.264 252.094ZM4.29688 271.047H3.23438L3.32812 268.625L1.26562 269.922L0.734375 269L2.89062 267.875L0.734375 266.734L1.26562 265.812L3.32812 267.109L3.23438 264.688H4.29688L4.20312 267.109L6.26562 265.812L6.79688 266.734L4.65625 267.875L6.79688 269L6.26562 269.922L4.20312 268.625L4.29688 271.047ZM12.1569 276V264.688H18.9694V265.938H13.5631V269.719H18.4537V270.953H13.5631V276H12.1569ZM19.8213 276H18.3525L22.4931 264.688H23.9775L28.1181 276H26.6338L25.5009 272.812H20.9541L19.8213 276ZM21.3838 271.578H25.0713L23.2744 266.516H23.1806L21.3838 271.578ZM29.3294 276V264.688H33.1731C35.8216 264.688 37.0325 266.266 37.0325 268.281C37.0325 270.289 35.8216 271.891 33.1887 271.891H30.7356V276H29.3294ZM30.7356 270.641H33.1262C34.9309 270.641 35.6341 269.625 35.6419 268.281C35.6341 266.93 34.9309 265.938 33.1106 265.938H30.7356V270.641ZM38.025 276H36.5563L40.6969 264.688H42.1813L46.3219 276H44.8375L43.7047 272.812H39.1578L38.025 276ZM39.5875 271.578H43.275L41.4781 266.516H41.3844L39.5875 271.578ZM53.6894 267.531C53.5722 266.422 52.5409 265.781 51.1894 265.781C49.6894 265.781 48.7128 266.562 48.705 267.641C48.7128 268.828 50.0331 269.273 50.8925 269.484L52.0175 269.797C53.2284 270.109 55.2206 270.805 55.2206 272.922C55.2206 274.766 53.7363 276.195 51.1113 276.203C48.6738 276.195 47.1659 274.938 47.0331 273.062H48.4706C48.5878 274.328 49.7675 274.93 51.1113 274.922C52.6738 274.93 53.8456 274.125 53.8456 272.891C53.8456 271.789 52.7988 271.367 51.6113 271.031L50.2206 270.656C48.4472 270.141 47.3378 269.234 47.3456 267.703C47.3378 265.789 49.0409 264.531 51.2363 264.531C53.4316 264.531 55.0097 265.812 55.0644 267.531H53.6894ZM61.3931 274.5C60.8462 274.492 60.3775 274.039 60.3931 273.484C60.3775 272.938 60.8462 272.484 61.3931 272.484C61.9478 272.484 62.4009 272.938 62.3931 273.484C62.4009 274.039 61.9478 274.492 61.3931 274.5ZM60.3931 267.203C60.3775 266.656 60.8462 266.203 61.3931 266.203C61.9478 266.203 62.4009 266.656 62.3931 267.203C62.4009 267.758 61.9478 268.211 61.3931 268.219C60.8462 268.211 60.3775 267.758 60.3931 267.203ZM68.05 276V264.688H74.8625V265.938H69.4563V269.719H74.3469V270.953H69.4563V276H68.05ZM79.3081 276.172C76.9956 276.18 75.4331 274.43 75.4331 271.797C75.4331 269.148 76.9956 267.406 79.3081 267.406C81.6128 267.406 83.1597 269.148 83.1519 271.797C83.1597 274.43 81.6128 276.18 79.3081 276.172ZM76.7769 271.797C76.7847 273.492 77.5816 274.984 79.3081 274.984C81.0191 274.984 81.8081 273.492 81.8081 271.797C81.8081 270.109 81.0191 268.594 79.3081 268.594C77.5816 268.594 76.7847 270.109 76.7769 271.797ZM88.0663 276.172C85.7538 276.18 84.1913 274.43 84.1913 271.797C84.1913 269.148 85.7538 267.406 88.0663 267.406C90.3709 267.406 91.9178 269.148 91.91 271.797C91.9178 274.43 90.3709 276.18 88.0663 276.172ZM85.535 271.797C85.5428 273.492 86.3397 274.984 88.0663 274.984C89.7772 274.984 90.5663 273.492 90.5663 271.797C90.5663 270.109 89.7772 268.594 88.0663 268.594C86.3397 268.594 85.5428 270.109 85.535 271.797ZM96.5587 276.172C94.4416 276.18 92.9494 274.477 92.9494 271.781C92.9494 269.094 94.4416 267.406 96.5744 267.406C98.2228 267.406 98.7384 268.406 99.0275 268.859H99.1212V264.688H100.481V276H99.1681V274.703H99.0275C98.7306 275.172 98.1759 276.18 96.5587 276.172ZM94.3087 271.75C94.3087 273.555 95.1369 274.969 96.7462 274.969C98.3009 274.969 99.1603 273.656 99.1681 271.75C99.1603 269.867 98.3244 268.609 96.7462 268.609C95.1134 268.609 94.3087 269.977 94.3087 271.75ZM106.856 276H105.387L109.528 264.688H111.012L115.153 276H113.669L112.536 272.812H107.989L106.856 276ZM108.419 271.578H112.106L110.309 266.516H110.216L108.419 271.578ZM117.536 270.906V276H116.192V267.516H117.489V268.844H117.599C117.997 267.977 118.794 267.406 120.083 267.406C121.802 267.406 122.95 268.453 122.942 270.609V276H121.599V270.703C121.599 269.391 120.88 268.609 119.677 268.609C118.442 268.609 117.536 269.438 117.536 270.906ZM124.372 273.594C124.372 271.648 126.091 271.203 127.56 271.094C128.107 271.055 129.474 270.977 129.857 270.969V270.281C129.857 269.203 129.216 268.578 127.935 268.578C126.865 268.578 126.216 269.07 126.029 269.719H124.622C124.794 268.352 126.122 267.406 127.997 267.406C129.107 267.406 131.193 267.734 131.185 270.406V276H129.857V274.844H129.794C129.513 275.414 128.74 276.195 127.263 276.203C125.654 276.195 124.372 275.25 124.372 273.594ZM125.716 273.656C125.724 274.555 126.466 275.008 127.497 275C129.013 275.008 129.857 273.992 129.857 272.922V272.07C129.458 272.094 128.122 272.195 127.716 272.219C126.497 272.297 125.724 272.727 125.716 273.656ZM134.365 264.688V276H133.021V264.688H134.365ZM137.045 279.188C136.756 279.18 136.467 279.172 136.295 279.156V277.953C136.436 277.969 136.74 277.977 136.951 277.984C137.498 277.977 137.959 277.945 138.404 276.703L138.654 276.062L135.514 267.516H136.982L139.295 274.25H139.389L141.701 267.516H143.17L139.576 277.219C139.076 278.555 138.248 279.18 137.045 279.188ZM149.053 269.719C148.866 269.016 148.327 268.555 147.334 268.547C146.288 268.555 145.545 269.117 145.538 269.828C145.545 270.391 145.998 270.773 146.991 271.016L148.256 271.328C149.772 271.688 150.514 272.445 150.522 273.625C150.514 275.094 149.319 276.18 147.194 276.172C145.288 276.18 144.155 275.328 143.928 273.781H145.334C145.491 274.609 146.092 275.008 147.163 275C148.373 275.008 149.131 274.5 149.131 273.703C149.131 273.102 148.702 272.711 147.741 272.484L146.459 272.188C144.983 271.844 144.194 271.039 144.194 269.906C144.194 268.453 145.467 267.406 147.334 267.406C149.092 267.406 150.194 268.344 150.366 269.719H149.053ZM151.952 276V267.516H153.296V276H151.952ZM151.686 265.219C151.678 264.719 152.108 264.32 152.624 264.328C153.139 264.32 153.569 264.719 153.577 265.219C153.569 265.711 153.139 266.109 152.624 266.109C152.108 266.109 151.678 265.711 151.686 265.219ZM159.835 269.719C159.648 269.016 159.108 268.555 158.116 268.547C157.069 268.555 156.327 269.117 156.319 269.828C156.327 270.391 156.78 270.773 157.773 271.016L159.038 271.328C160.554 271.688 161.296 272.445 161.304 273.625C161.296 275.094 160.101 276.18 157.976 276.172C156.069 276.18 154.937 275.328 154.71 273.781H156.116C156.273 274.609 156.874 275.008 157.944 275C159.155 275.008 159.913 274.5 159.913 273.703C159.913 273.102 159.483 272.711 158.523 272.484L157.241 272.188C155.765 271.844 154.976 271.039 154.976 269.906C154.976 268.453 156.249 267.406 158.116 267.406C159.874 267.406 160.976 268.344 161.148 269.719H159.835ZM166.601 276V264.688H170.445C173.093 264.688 174.304 266.266 174.304 268.281C174.304 270.289 173.093 271.891 170.461 271.891H168.008V276H166.601ZM168.008 270.641H170.398C172.203 270.641 172.906 269.625 172.914 268.281C172.906 266.93 172.203 265.938 170.383 265.938H168.008V270.641ZM179.25 276.172C176.797 276.18 175.281 274.43 175.281 271.828C175.281 269.219 176.82 267.406 179.125 267.406C180.906 267.406 182.789 268.5 182.781 271.641V272.203H176.625C176.695 274 177.742 274.984 179.25 274.984C180.266 274.984 180.906 274.539 181.219 274.016H182.656C182.258 275.305 181 276.18 179.25 276.172ZM176.633 271.062H181.422C181.414 269.648 180.523 268.594 179.125 268.594C177.656 268.594 176.727 269.75 176.633 271.062ZM184.211 276V267.516H185.508V268.812H185.602C185.907 267.953 186.789 267.383 187.789 267.375C187.992 267.383 188.336 267.391 188.492 267.406V268.766C188.391 268.742 188.032 268.672 187.68 268.672C186.461 268.672 185.555 269.516 185.555 270.656V276H184.211ZM193.813 267.516V268.641H191.938V276H190.579V268.641H189.219V267.516H190.579V266.359C190.587 264.984 191.501 264.156 193.001 264.156C193.329 264.156 193.719 264.195 194.001 264.25V265.453C193.712 265.406 193.469 265.391 193.298 265.391C192.352 265.391 191.93 265.781 191.938 266.656V267.516H193.813ZM198.196 276.172C195.884 276.18 194.321 274.43 194.321 271.797C194.321 269.148 195.884 267.406 198.196 267.406C200.501 267.406 202.048 269.148 202.04 271.797C202.048 274.43 200.501 276.18 198.196 276.172ZM195.665 271.797C195.673 273.492 196.47 274.984 198.196 274.984C199.907 274.984 200.696 273.492 200.696 271.797C200.696 270.109 199.907 268.594 198.196 268.594C196.47 268.594 195.673 270.109 195.665 271.797ZM203.486 276V267.516H204.783V268.812H204.876C205.181 267.953 206.064 267.383 207.064 267.375C207.267 267.383 207.611 267.391 207.767 267.406V268.766C207.665 268.742 207.306 268.672 206.954 268.672C205.736 268.672 204.829 269.516 204.829 270.656V276H203.486ZM208.759 276V267.516H210.056V268.844H210.166C210.517 267.938 211.337 267.406 212.447 267.406C213.556 267.406 214.314 267.938 214.712 268.844H214.806C215.236 267.969 216.134 267.406 217.353 267.406C218.861 267.406 219.947 268.328 219.947 270.328V276H218.603V270.344C218.595 269.094 217.814 268.609 216.884 268.609C215.705 268.609 215.033 269.406 215.025 270.484V276H213.666V270.203C213.673 269.25 212.986 268.609 212.009 268.609C210.994 268.609 210.103 269.469 210.103 270.703V276H208.759ZM221.377 273.594C221.377 271.648 223.096 271.203 224.564 271.094C225.111 271.055 226.478 270.977 226.861 270.969V270.281C226.861 269.203 226.221 268.578 224.939 268.578C223.869 268.578 223.221 269.07 223.033 269.719H221.627C221.799 268.352 223.127 267.406 225.002 267.406C226.111 267.406 228.197 267.734 228.189 270.406V276H226.861V274.844H226.799C226.518 275.414 225.744 276.195 224.268 276.203C222.658 276.195 221.377 275.25 221.377 273.594ZM222.721 273.656C222.728 274.555 223.471 275.008 224.502 275C226.018 275.008 226.861 273.992 226.861 272.922V272.07C226.463 272.094 225.127 272.195 224.721 272.219C223.502 272.297 222.728 272.727 222.721 273.656ZM231.369 270.906V276H230.026V267.516H231.322V268.844H231.432C231.83 267.977 232.627 267.406 233.916 267.406C235.635 267.406 236.783 268.453 236.776 270.609V276H235.432V270.703C235.432 269.391 234.713 268.609 233.51 268.609C232.276 268.609 231.369 269.438 231.369 270.906ZM242.081 276.172C239.674 276.18 238.206 274.344 238.206 271.797C238.206 269.219 239.745 267.406 242.049 267.406C243.854 267.406 245.213 268.477 245.424 270.078H244.081C243.885 269.305 243.213 268.594 242.081 268.594C240.565 268.594 239.557 269.844 239.549 271.75C239.557 273.711 240.542 274.969 242.081 274.969C243.081 274.969 243.846 274.43 244.081 273.5H245.424C245.213 275.016 243.963 276.18 242.081 276.172ZM250.323 276.172C247.87 276.18 246.354 274.43 246.354 271.828C246.354 269.219 247.893 267.406 250.198 267.406C251.979 267.406 253.862 268.5 253.854 271.641V272.203H247.698C247.768 274 248.815 274.984 250.323 274.984C251.339 274.984 251.979 274.539 252.292 274.016H253.729C253.331 275.305 252.073 276.18 250.323 276.172ZM247.706 271.062H252.495C252.487 269.648 251.597 268.594 250.198 268.594C248.729 268.594 247.8 269.75 247.706 271.062ZM259.652 276H258.183L262.324 264.688H263.808L267.949 276H266.464L265.332 272.812H260.785L259.652 276ZM261.214 271.578H264.902L263.105 266.516H263.011L261.214 271.578ZM273.691 269.719C273.504 269.016 272.965 268.555 271.973 268.547C270.926 268.555 270.183 269.117 270.176 269.828C270.183 270.391 270.637 270.773 271.629 271.016L272.894 271.328C274.41 271.688 275.152 272.445 275.16 273.625C275.152 275.094 273.957 276.18 271.832 276.172C269.926 276.18 268.793 275.328 268.566 273.781H269.973C270.129 274.609 270.73 275.008 271.801 275C273.012 275.008 273.769 274.5 273.769 273.703C273.769 273.102 273.34 272.711 272.379 272.484L271.098 272.188C269.621 271.844 268.832 271.039 268.832 269.906C268.832 268.453 270.105 267.406 271.973 267.406C273.73 267.406 274.832 268.344 275.004 269.719H273.691ZM281.309 269.719C281.121 269.016 280.582 268.555 279.59 268.547C278.543 268.555 277.801 269.117 277.793 269.828C277.801 270.391 278.254 270.773 279.246 271.016L280.512 271.328C282.027 271.688 282.77 272.445 282.777 273.625C282.77 275.094 281.574 276.18 279.449 276.172C277.543 276.18 276.41 275.328 276.184 273.781H277.59C277.746 274.609 278.348 275.008 279.418 275C280.629 275.008 281.387 274.5 281.387 273.703C281.387 273.102 280.957 272.711 279.996 272.484L278.715 272.188C277.238 271.844 276.449 271.039 276.449 269.906C276.449 268.453 277.723 267.406 279.59 267.406C281.348 267.406 282.449 268.344 282.621 269.719H281.309ZM287.77 276.172C285.317 276.18 283.801 274.43 283.801 271.828C283.801 269.219 285.34 267.406 287.645 267.406C289.426 267.406 291.309 268.5 291.301 271.641V272.203H285.145C285.215 274 286.262 274.984 287.77 274.984C288.786 274.984 289.426 274.539 289.739 274.016H291.176C290.778 275.305 289.52 276.18 287.77 276.172ZM285.153 271.062H289.942C289.934 269.648 289.043 268.594 287.645 268.594C286.176 268.594 285.247 269.75 285.153 271.062ZM297.45 269.719C297.263 269.016 296.723 268.555 295.731 268.547C294.684 268.555 293.942 269.117 293.934 269.828C293.942 270.391 294.395 270.773 295.388 271.016L296.653 271.328C298.169 271.688 298.911 272.445 298.919 273.625C298.911 275.094 297.716 276.18 295.591 276.172C293.684 276.18 292.552 275.328 292.325 273.781H293.731C293.888 274.609 294.489 275.008 295.559 275C296.77 275.008 297.528 274.5 297.528 273.703C297.528 273.102 297.098 272.711 296.138 272.484L294.856 272.188C293.38 271.844 292.591 271.039 292.591 269.906C292.591 268.453 293.864 267.406 295.731 267.406C297.489 267.406 298.591 268.344 298.763 269.719H297.45ZM305.068 269.719C304.88 269.016 304.341 268.555 303.349 268.547C302.302 268.555 301.56 269.117 301.552 269.828C301.56 270.391 302.013 270.773 303.005 271.016L304.271 271.328C305.786 271.688 306.528 272.445 306.536 273.625C306.528 275.094 305.333 276.18 303.208 276.172C301.302 276.18 300.169 275.328 299.943 273.781H301.349C301.505 274.609 302.107 275.008 303.177 275C304.388 275.008 305.146 274.5 305.146 273.703C305.146 273.102 304.716 272.711 303.755 272.484L302.474 272.188C300.997 271.844 300.208 271.039 300.208 269.906C300.208 268.453 301.482 267.406 303.349 267.406C305.107 267.406 306.208 268.344 306.38 269.719H305.068ZM307.966 276V267.516H309.263V268.844H309.372C309.724 267.938 310.544 267.406 311.654 267.406C312.763 267.406 313.521 267.938 313.919 268.844H314.013C314.443 267.969 315.341 267.406 316.56 267.406C318.068 267.406 319.154 268.328 319.154 270.328V276H317.81V270.344C317.802 269.094 317.021 268.609 316.091 268.609C314.912 268.609 314.24 269.406 314.232 270.484V276H312.872V270.203C312.88 269.25 312.193 268.609 311.216 268.609C310.201 268.609 309.31 269.469 309.31 270.703V276H307.966ZM324.552 276.172C322.099 276.18 320.584 274.43 320.584 271.828C320.584 269.219 322.123 267.406 324.427 267.406C326.209 267.406 328.092 268.5 328.084 271.641V272.203H321.927C321.998 274 323.045 274.984 324.552 274.984C325.568 274.984 326.209 274.539 326.521 274.016H327.959C327.56 275.305 326.302 276.18 324.552 276.172ZM321.935 271.062H326.724C326.717 269.648 325.826 268.594 324.427 268.594C322.959 268.594 322.029 269.75 321.935 271.062ZM330.858 270.906V276H329.514V267.516H330.811V268.844H330.92C331.318 267.977 332.115 267.406 333.404 267.406C335.123 267.406 336.272 268.453 336.264 270.609V276H334.92V270.703C334.92 269.391 334.201 268.609 332.998 268.609C331.764 268.609 330.858 269.438 330.858 270.906ZM341.803 267.516V268.641H340.022V273.562C340.014 274.648 340.561 274.828 341.131 274.828C341.373 274.828 341.733 274.805 341.928 274.797V276.047C341.717 276.078 341.389 276.109 340.991 276.109C339.858 276.109 338.67 275.406 338.663 273.906V268.641H337.381V267.516H338.663V265.484H340.022V267.516H341.803ZM353.257 267.531C353.14 266.422 352.108 265.781 350.757 265.781C349.257 265.781 348.28 266.562 348.272 267.641C348.28 268.828 349.601 269.273 350.46 269.484L351.585 269.797C352.796 270.109 354.788 270.805 354.788 272.922C354.788 274.766 353.304 276.195 350.679 276.203C348.241 276.195 346.733 274.938 346.601 273.062H348.038C348.155 274.328 349.335 274.93 350.679 274.922C352.241 274.93 353.413 274.125 353.413 272.891C353.413 271.789 352.366 271.367 351.179 271.031L349.788 270.656C348.015 270.141 346.905 269.234 346.913 267.703C346.905 265.789 348.608 264.531 350.804 264.531C352.999 264.531 354.577 265.812 354.632 267.531H353.257ZM359.781 276.172C357.374 276.18 355.906 274.344 355.906 271.797C355.906 269.219 357.445 267.406 359.749 267.406C361.554 267.406 362.913 268.477 363.124 270.078H361.781C361.585 269.305 360.913 268.594 359.781 268.594C358.265 268.594 357.257 269.844 357.249 271.75C357.257 273.711 358.242 274.969 359.781 274.969C360.781 274.969 361.546 274.43 361.781 273.5H363.124C362.913 275.016 361.663 276.18 359.781 276.172ZM365.804 270.906V276H364.461V264.688H365.804V268.844H365.914C366.312 267.969 367.07 267.406 368.414 267.406C370.148 267.406 371.304 268.43 371.304 270.609V276H369.961V270.703C369.961 269.367 369.226 268.609 368.008 268.609C366.742 268.609 365.804 269.438 365.804 270.906ZM376.703 276.172C374.25 276.18 372.734 274.43 372.734 271.828C372.734 269.219 374.273 267.406 376.578 267.406C378.359 267.406 380.242 268.5 380.234 271.641V272.203H374.078C374.148 274 375.195 274.984 376.703 274.984C377.719 274.984 378.359 274.539 378.672 274.016H380.109C379.711 275.305 378.453 276.18 376.703 276.172ZM374.086 271.062H378.875C378.867 269.648 377.977 268.594 376.578 268.594C375.109 268.594 374.18 269.75 374.086 271.062ZM381.664 276V267.516H382.961V268.844H383.071C383.422 267.938 384.242 267.406 385.352 267.406C386.461 267.406 387.219 267.938 387.617 268.844H387.711C388.141 267.969 389.039 267.406 390.258 267.406C391.766 267.406 392.852 268.328 392.852 270.328V276H391.508V270.344C391.5 269.094 390.719 268.609 389.789 268.609C388.61 268.609 387.938 269.406 387.93 270.484V276H386.571V270.203C386.578 269.25 385.891 268.609 384.914 268.609C383.899 268.609 383.008 269.469 383.008 270.703V276H381.664ZM398.251 276.172C395.797 276.18 394.282 274.43 394.282 271.828C394.282 269.219 395.821 267.406 398.126 267.406C399.907 267.406 401.79 268.5 401.782 271.641V272.203H395.626C395.696 274 396.743 274.984 398.251 274.984C399.266 274.984 399.907 274.539 400.219 274.016H401.657C401.258 275.305 400.001 276.18 398.251 276.172ZM395.633 271.062H400.422C400.415 269.648 399.524 268.594 398.126 268.594C396.657 268.594 395.727 269.75 395.633 271.062Z" fill="black"/>
<path d="M1.0625 320L1.04688 318.969L4.90625 314.906C6.24219 313.484 6.88281 312.719 6.89062 311.672C6.88281 310.508 5.91406 309.758 4.64062 309.75C3.28906 309.758 2.44531 310.609 2.4375 311.875H1.10938C1.09375 309.875 2.64062 308.531 4.6875 308.531C6.74219 308.531 8.19531 309.914 8.20312 311.672C8.19531 312.938 7.60938 313.922 5.60938 315.984L3.01562 318.656V318.75H8.40625V320H1.0625ZM13.8363 320.156C11.3284 320.156 9.87531 318.047 9.88313 314.344C9.87531 310.672 11.3441 308.531 13.8363 308.531C16.3206 308.531 17.7894 310.672 17.7894 314.344C17.7894 318.047 16.3441 320.156 13.8363 320.156ZM11.2425 314.344C11.2503 317.273 12.1956 318.906 13.8363 318.906C15.4691 318.906 16.4222 317.273 16.4144 314.344C16.4222 311.414 15.4613 309.758 13.8363 309.75C12.2113 309.758 11.2503 311.414 11.2425 314.344ZM19.3444 320L19.3288 318.969L23.1881 314.906C24.5241 313.484 25.1647 312.719 25.1725 311.672C25.1647 310.508 24.1959 309.758 22.9225 309.75C21.5709 309.758 20.7272 310.609 20.7194 311.875H19.3913C19.3756 309.875 20.9225 308.531 22.9694 308.531C25.0241 308.531 26.4772 309.914 26.485 311.672C26.4772 312.938 25.8913 313.922 23.8913 315.984L21.2975 318.656V318.75H26.6881V320H19.3444ZM32.1025 320.156C30.0634 320.156 28.5166 318.898 28.4306 317.156H29.79C29.8916 318.164 30.8759 318.914 32.1025 318.922C33.5713 318.914 34.6338 317.844 34.6338 316.422C34.6338 314.953 33.5322 313.867 32.0088 313.859C31.0556 313.844 30.3134 314.141 29.8994 314.875H28.54L29.3369 308.688H35.4619V309.938H30.5088L30.0869 313.25H30.1963C30.7041 312.859 31.4619 312.594 32.2588 312.594C34.415 312.594 36.0009 314.188 36.0088 316.391C36.0009 318.578 34.3603 320.156 32.1025 320.156ZM38.1888 320.094C37.6419 320.086 37.1731 319.633 37.1888 319.078C37.1731 318.531 37.6419 318.078 38.1888 318.078C38.7434 318.078 39.1966 318.531 39.1888 319.078C39.1966 319.633 38.7434 320.086 38.1888 320.094ZM44.2594 320.156C41.7516 320.156 40.2984 318.047 40.3063 314.344C40.2984 310.672 41.7672 308.531 44.2594 308.531C46.7438 308.531 48.2125 310.672 48.2125 314.344C48.2125 318.047 46.7672 320.156 44.2594 320.156ZM41.6656 314.344C41.6734 317.273 42.6188 318.906 44.2594 318.906C45.8922 318.906 46.8453 317.273 46.8375 314.344C46.8453 311.414 45.8844 309.758 44.2594 309.75C42.6344 309.758 41.6734 311.414 41.6656 314.344ZM53.5331 308.531C55.4784 308.555 57.6425 309.727 57.6425 313.891C57.6425 317.914 55.9941 320.156 53.3456 320.156C51.3534 320.156 49.955 318.938 49.6738 317.141H51.0644C51.3144 318.156 52.0878 318.906 53.3456 318.906C55.1894 318.906 56.3144 317.312 56.33 314.562H56.1738C55.5253 315.5 54.4863 316.062 53.2831 316.062C51.2597 316.062 49.58 314.508 49.58 312.328C49.58 310.219 51.1269 308.508 53.5331 308.531ZM50.955 312.312C50.9472 313.711 52.0097 314.828 53.4863 314.828C54.9628 314.828 56.1113 313.609 56.1113 312.281C56.1113 310.984 55.0253 309.766 53.5331 309.766C52.0566 309.766 50.9394 310.914 50.955 312.312ZM59.8225 320.094C59.2756 320.086 58.8069 319.633 58.8225 319.078C58.8069 318.531 59.2756 318.078 59.8225 318.078C60.3772 318.078 60.8303 318.531 60.8225 319.078C60.8303 319.633 60.3772 320.086 59.8225 320.094ZM65.2369 308.688V320H63.815V310.156H63.7525L61.0025 311.984V310.562L63.815 308.688H65.2369ZM67.9325 320L67.9169 318.969L71.7763 314.906C73.1122 313.484 73.7528 312.719 73.7606 311.672C73.7528 310.508 72.7841 309.758 71.5106 309.75C70.1591 309.758 69.3153 310.609 69.3075 311.875H67.9794C67.9638 309.875 69.5106 308.531 71.5575 308.531C73.6122 308.531 75.0653 309.914 75.0731 311.672C75.0653 312.938 74.4794 313.922 72.4794 315.984L69.8856 318.656V318.75H75.2763V320H67.9325Z" fill="#999999"/>
<path d="M5.26562 395.641C5.25 397.867 6.85938 400.32 8.875 401.281L8.17188 402.25C6.60938 401.484 5.28906 399.844 4.66406 397.961C4.02344 400 2.63281 401.797 1.07812 402.594L0.328125 401.625C2.32812 400.648 4.04688 398.008 4.0625 395.641V393.828H0.828125V392.812H8.39062V393.828H5.26562V395.641ZM10.0938 405.266V391.375H11.3125V397H13.6406V398.047H11.3125V405.266H10.0938ZM18.1956 395.328C18.1956 397.539 19.2738 399.922 21.1175 401.016L20.4144 401.969C19.0706 401.156 18.1097 399.672 17.6253 397.977C17.1175 399.828 16.0863 401.422 14.6956 402.266L13.9144 401.344C15.8363 400.219 17.0081 397.758 17.0081 395.375V392.688H18.1956V395.328ZM19.5863 397.406V396.359H21.9456V391.672H23.1019V404.562H21.9456V397.406H19.5863ZM24.7894 405.266V391.375H25.9769V405.266H24.7894ZM39.0319 391.375V405.266H37.7975V391.375H39.0319ZM27.8913 394.641V393.641H31.4694V391.516H32.7038V393.641H36.2975V394.641H27.8913ZM28.6725 398.969C28.6647 397.094 30.11 395.781 32.1256 395.781C34.1178 395.781 35.5709 397.094 35.5631 398.969C35.5709 400.852 34.1178 402.156 32.1256 402.156C30.11 402.156 28.6647 400.852 28.6725 398.969ZM29.8288 398.969C29.8366 400.234 30.7975 401.125 32.1256 401.109C33.4381 401.125 34.3991 400.234 34.3913 398.969C34.3991 397.711 33.4381 396.805 32.1256 396.812C30.7975 396.805 29.8366 397.711 29.8288 398.969ZM57.5013 402.469V403.484H44.7825V402.469H50.5013V399.469H46.2825V392.359H47.5169V394.875H54.7356V392.359H55.9388V399.469H51.7044V402.469H57.5013ZM47.5169 398.469H54.7356V395.875H47.5169V398.469ZM69.775 391.375V405.266H68.5406V391.375H69.775ZM58.4625 401.656C62.2203 399.875 64.1422 397.211 64.4156 393.891H59.1031V392.891H65.6656C65.65 396.883 63.7906 400.422 59.1344 402.656L58.4625 401.656Z" fill="black"/>
<path d="M82 394L86 398L82 402" stroke="black" stroke-width="1.5" stroke-linecap="round" stroke-linejoin="round"/>
</svg>
