<svg width="365" height="99" viewBox="0 0 365 99" fill="none" xmlns="http://www.w3.org/2000/svg">
<path d="M5.15625 24L0.375 7.03125H3.65625L6.72656 19.5234H6.89062L10.1484 7.03125H13.1484L16.4297 19.5469H16.5703L19.6406 7.03125H22.9219L18.1406 24H15.1172L11.7188 12.0703H11.6016L8.17969 24H5.15625ZM38.6138 15.5156C38.6255 21 35.2739 24.2344 30.8325 24.2344C26.3677 24.2344 23.0395 20.9883 23.0513 15.5156C23.0395 10.0312 26.3677 6.79688 30.8325 6.79688C35.2739 6.79688 38.6255 10.0312 38.6138 15.5156ZM26.1216 15.5156C26.1098 19.3945 28.0669 21.4922 30.8325 21.4922C33.6098 21.4922 35.5552 19.3945 35.5434 15.5156C35.5552 11.6367 33.6098 9.53906 30.8325 9.53906C28.0669 9.53906 26.1098 11.6367 26.1216 15.5156ZM42.0947 24H38.8369L44.8134 7.03125H48.5634L54.5634 24H51.3056L49.8877 19.8047H43.5009L42.0947 24ZM44.3213 17.3438H49.0673L46.7588 10.5H46.6181L44.3213 17.3438ZM63.6694 14.2969V16.7578H56.0288V14.2969H63.6694ZM64.455 9.58594V7.03125H77.9784V9.58594H72.7519V24H69.705V9.58594H64.455ZM89.1234 11.6953C88.9711 10.2305 87.7406 9.38672 85.9125 9.39844C83.9789 9.38672 82.8305 10.3242 82.8187 11.6016C82.807 13.0312 84.3187 13.6172 85.725 13.9453L87.3187 14.3672C89.85 14.9531 92.2875 16.2891 92.2875 19.2422C92.2875 22.2188 89.932 24.2578 85.8656 24.2578C81.9164 24.2578 79.4086 22.3594 79.2797 19.0078H82.2797C82.4203 20.7773 83.9086 21.6445 85.8422 21.6562C87.8461 21.6445 89.2289 20.6719 89.2406 19.2188C89.2289 17.8828 88.0102 17.3203 86.1703 16.8516L84.2484 16.3594C81.4594 15.6328 79.725 14.2266 79.725 11.7891C79.725 8.78906 82.3852 6.79688 85.9594 6.79688C89.557 6.79688 92.0062 8.82422 92.0531 11.6953H89.1234ZM94.3388 24V7.03125H100.714C104.604 7.03125 106.679 9.39844 106.69 12.6562C106.679 15.9023 104.581 18.2578 100.667 18.2578H97.3856V24H94.3388ZM97.3856 15.75H100.245C102.542 15.7383 103.573 14.4492 103.573 12.6562C103.573 10.8398 102.542 9.58594 100.245 9.58594H97.3856V15.75Z" fill="black"/>
<path d="M11.6094 57.0625V58.0625C11.6094 59.0938 11.6094 60.3438 11.2656 62.0156H13.2812V63.0156H7.5V65.5781H11.7031V70.2656H10.4688V66.5938H1.875V65.5781H6.28125V63.0156H0.5625V62.0156H10.0312C10.3984 60.3203 10.3984 59.0938 10.3906 58.0625H2.17188V57.0625H11.6094ZM25.93 56.375V70.2656H24.7269V63.0781H22.7269V69.5469H21.5706V56.6875H22.7269V62.0312H24.7269V56.375H25.93ZM14.7738 66.6719V58.0781H15.9925V65.5781C17.3675 65.5703 18.8519 65.4688 20.5394 65.125L20.6956 66.2188C18.7581 66.5703 17.1644 66.6719 15.6331 66.6719H14.7738ZM43.9775 64.2969V65.3125H40.6181V70.2656H39.3838V65.3125H35.8213V70.2656H34.5556V65.3125H31.2588V64.2969H43.9775ZM32.6963 59.9688C32.7041 58.1172 34.665 56.9453 37.5869 56.9375C40.5009 56.9453 42.4775 58.1172 42.4775 59.9688C42.4775 61.8203 40.5009 62.9766 37.5869 62.9688C34.665 62.9766 32.7041 61.8203 32.6963 59.9688ZM33.9619 59.9688C33.9463 61.1953 35.4228 61.9844 37.5869 61.9844C39.7509 61.9844 41.2197 61.1953 41.2275 59.9688C41.2197 58.7344 39.7509 57.9375 37.5869 57.9375C35.4228 57.9375 33.9463 58.7344 33.9619 59.9688ZM48.72 56.8906C50.7981 56.8984 52.3059 58.1641 52.3138 59.9688C52.3059 61.7812 50.7981 63.0312 48.72 63.0312C46.6184 63.0312 45.1028 61.7812 45.1106 59.9688C45.1028 58.1641 46.6184 56.8984 48.72 56.8906ZM46.3138 59.9688C46.2981 61.1875 47.3216 62.0312 48.72 62.0312C50.095 62.0312 51.1263 61.1875 51.1263 59.9688C51.1263 58.7656 50.095 57.9141 48.72 57.9219C47.3216 57.9141 46.2981 58.7656 46.3138 59.9688ZM47.22 65.1719V64.1875H56.2513V67.5312H48.4544V69.0938H56.7513V70.0781H47.2513V66.6094H55.0325V65.1719H47.22ZM55.0325 63.5156V56.375H56.2513V63.5156H55.0325ZM64.7675 69L61.6738 57.6875H63.0956L65.455 66.8438H65.5644L67.955 57.6875H69.5331L71.9394 66.8438H72.0331L74.3925 57.6875H75.8144L72.7206 69H71.2675L68.7988 60.0469H68.705L66.2206 69H64.7675ZM80.5413 65.4531H82.0725L83.2678 67.0156C84.1116 66.2734 84.6428 65.0312 84.6506 63.3438C84.6428 60.4219 83.0569 58.8438 81.01 58.8438C78.9631 58.8438 77.3772 60.4219 77.3694 63.3438C77.3772 66.2578 78.9631 67.8359 81.01 67.8438C81.4319 67.8438 81.8381 67.7734 82.2131 67.6406L80.5413 65.4531ZM76.01 63.3438C76.0022 59.7656 78.1038 57.5312 81.01 57.5312C83.9084 57.5312 86.0178 59.7656 86.01 63.3438C86.0178 65.4609 85.2834 67.1016 84.0803 68.0938L85.5569 70.0625H84.0256L83.0413 68.7422C82.4319 69.0156 81.7444 69.1562 81.01 69.1562C78.1038 69.1562 76.0022 66.9219 76.01 63.3438ZM87.7056 69H86.2369L90.3775 57.6875H91.8619L96.0025 69H94.5181L93.3853 65.8125H88.8384L87.7056 69ZM89.2681 64.5781H92.9556L91.1588 59.5156H91.065L89.2681 64.5781ZM106.503 65.1562C109.48 65.1562 111.37 66.0938 111.378 67.7031C111.37 69.2969 109.48 70.2344 106.503 70.2344C103.527 70.2344 101.636 69.2969 101.644 67.7031C101.636 66.0938 103.527 65.1562 106.503 65.1562ZM100.238 63.8594V62.8594H105.472V60.1719H106.675V62.8594H112.878V63.8594H100.238ZM101.738 58.0938V57.0938H111.269V58.2656C111.261 59.3906 111.261 60.5156 110.878 61.9531L109.675 61.8125C110.05 60.3828 110.05 59.3516 110.05 58.2656V58.0938H101.738ZM102.863 67.7031C102.855 68.6719 104.292 69.2656 106.503 69.2656C108.722 69.2656 110.144 68.6719 110.159 67.7031C110.144 66.7109 108.722 66.1016 106.503 66.0938C104.292 66.1016 102.855 66.7109 102.863 67.7031ZM125.199 56.3906V66.5469H123.98V56.3906H125.199ZM114.058 60.7656C114.05 58.7656 115.621 57.3672 117.699 57.3594C119.777 57.3672 121.332 58.7656 121.339 60.7656C121.332 62.7891 119.777 64.1953 117.699 64.1875C115.621 64.1953 114.05 62.7891 114.058 60.7656ZM115.261 60.7656C115.246 62.1484 116.293 63.1094 117.699 63.1094C119.082 63.1094 120.136 62.1484 120.136 60.7656C120.136 59.4062 119.082 58.4375 117.699 58.4375C116.293 58.4375 115.246 59.4062 115.261 60.7656ZM116.23 69.9688V65.5156H117.449V68.9375H125.636V69.9688H116.23ZM136.652 58.0781V59.0625H132.652V61.8125H136.012V62.7969H132.652V65.9219C134.645 65.8984 135.863 65.8203 137.371 65.5469L137.481 66.5469C135.871 66.875 134.559 66.9141 132.356 66.9219H131.481V58.0781H136.652ZM136.762 62.6719V61.6562H138.809V56.7188H139.981V69.5469H138.809V62.6719H136.762ZM141.637 70.2656V56.375H142.824V70.2656H141.637ZM151.364 58.4219C151.372 60.8047 154.09 62.9219 156.504 63.375L155.942 64.4062C153.84 63.9219 151.637 62.4297 150.739 60.3906C149.833 62.4297 147.637 63.9141 145.536 64.4062L144.973 63.375C147.379 62.9141 150.075 60.8125 150.083 58.4219V57.3594H151.364V58.4219ZM144.442 68.375V67.3594H157.161V68.375H144.442ZM169.2 63.8906V64.8906H159.591V57.5781H169.044V58.6094H160.841V60.6719H168.747V61.6562H160.841V63.8906H169.2ZM157.95 68.4531V67.4375H170.669V68.4531H157.95ZM186.638 56.375V70.2656H185.404V56.375H186.638ZM175.326 66.6562C179.083 64.875 181.005 62.2109 181.279 58.8906H175.966V57.8906H182.529C182.513 61.8828 180.654 65.4219 175.997 67.6562L175.326 66.6562ZM196.365 57.4531V58.1875C196.357 59.1016 196.357 60.4844 196.006 62.2969L194.771 62.2031C195.107 60.5469 195.138 59.3672 195.154 58.4844H189.443V57.4531H196.365ZM188.584 63.5938C189.482 63.5938 190.498 63.5859 191.568 63.5547V60.5312H192.787V63.5156C194.326 63.4531 195.92 63.3438 197.365 63.1406L197.443 64.0469C194.529 64.5469 191.185 64.6016 188.709 64.6094L188.584 63.5938ZM190.724 69.9688V65.8906H191.959V68.9375H200.006V69.9688H190.724ZM198.303 66.8281V56.375H199.553V60.9062H201.584V61.9531H199.553V66.8281H198.303ZM208.498 57.2812C211.397 57.2891 213.576 58.8047 213.576 61.0938C213.576 63.4062 211.397 64.9219 208.498 64.9062C205.6 64.9219 203.42 63.4062 203.42 61.0938C203.42 58.8047 205.6 57.2891 208.498 57.2812ZM202.17 68.4219V67.3906H214.889V68.4219H202.17ZM204.592 61.0938C204.576 62.7812 206.256 63.9062 208.498 63.9062C210.725 63.9062 212.389 62.7812 212.389 61.0938C212.389 59.4297 210.725 58.2734 208.498 58.2812C206.256 58.2734 204.576 59.4297 204.592 61.0938ZM228.397 67.5156V68.5469H215.678V67.5156H221.397V64.8906H217.272V60.6094H225.584V58.4219H217.241V57.4062H226.788V61.6094H218.491V63.875H227.116V64.8906H222.6V67.5156H228.397ZM239.851 57.6719C239.858 59.6328 242.405 61.3203 244.913 61.6719L244.413 62.6719C242.257 62.3125 240.116 61.1172 239.226 59.4141C238.335 61.1328 236.202 62.3125 234.038 62.6719L233.538 61.6719C236.046 61.3203 238.585 59.6641 238.585 57.6719V56.875H239.851V57.6719ZM232.882 65.2344V64.2031H245.538V65.2344H239.788V70.2656H238.585V65.2344H232.882ZM257.906 56.375V70.2969H256.671V62.9844H253.624V61.9688H256.671V56.375H257.906ZM246.421 66.625C248.46 65.6719 249.984 63.2969 249.984 60.9062V59.7969H246.796V58.7969H249.984V56.6406H251.202V58.7969H254.343V59.7969H251.187V60.9062C251.187 63.1953 252.757 65.4531 254.812 66.375L254.109 67.3281C252.523 66.6094 251.218 65.0859 250.601 63.2578C249.999 65.1953 248.71 66.8125 247.124 67.5781L246.421 66.625ZM271.367 56.375V70.2969H270.148V56.375H271.367ZM260.679 58.6875V57.6719H267.148V62.6094H261.961V65.8906C264.265 65.8984 266.32 65.7891 268.804 65.3906L268.929 66.4219C266.375 66.8203 264.265 66.9219 261.867 66.9219H260.711V61.6094H265.914V58.6875H260.679ZM288.977 56.375V70.2656H287.805V56.375H288.977ZM276.93 66.5625C278.867 65.4062 280 62.8672 279.992 60.3438V59.0312H277.321V58.0156H283.727V59.0312H281.18V60.3438C281.18 62.7422 282.266 65.1406 284.18 66.25L283.43 67.1562C282.063 66.3359 281.094 64.8359 280.61 63.0703C280.11 64.9844 279.102 66.6172 277.711 67.4844L276.93 66.5625ZM282.664 62.3906V61.3906H285.008V56.7188H286.164V69.5469H285.008V62.3906H282.664ZM303.266 63.0938V64.1094H297.532V65.75H301.719V70.0781H292.157V65.75H296.329V64.1094H290.61V63.0938H303.266ZM291.797 57.8438V56.8281H302.063V57.8438H299.922V60.7656H302.016V61.7812H291.844V60.7656H293.938V57.8438H291.797ZM293.376 69.0781H300.516V66.7188H293.376V69.0781ZM295.157 60.7656H298.704V57.8438H295.157V60.7656ZM308.665 57.3906C310.845 57.3984 312.392 58.7266 312.399 60.6562C312.392 62.5938 310.845 63.9141 308.665 63.9219C306.47 63.9141 304.907 62.5938 304.915 60.6562C304.907 58.7266 306.47 57.3984 308.665 57.3906ZM304.196 66.1875C306.759 66.1953 310.298 66.1719 313.368 65.7188L313.462 66.625C310.282 67.2188 306.868 67.2344 304.368 67.2344L304.196 66.1875ZM306.118 60.6562C306.11 61.9531 307.181 62.8438 308.665 62.8438C310.134 62.8438 311.204 61.9531 311.196 60.6562C311.204 59.3672 310.134 58.4688 308.665 58.4688C307.181 58.4688 306.11 59.3672 306.118 60.6562ZM314.29 70.2969V56.375H315.509V70.2969H314.29ZM326.103 58.5625C326.087 60.5469 327.502 62.2891 329.541 62.9844L328.853 63.9375C327.322 63.3672 326.119 62.2344 325.517 60.7734C324.923 62.4375 323.658 63.7266 321.978 64.3594L321.306 63.3594C323.447 62.6094 324.869 60.7656 324.884 58.6094V57.1719H326.103V58.5625ZM323.572 67.6406C323.564 65.9688 325.337 65.0078 328.228 65.0156C331.111 65.0078 332.884 65.9688 332.884 67.6406C332.884 69.2969 331.111 70.2344 328.228 70.2344C325.337 70.2344 323.564 69.2969 323.572 67.6406ZM324.791 67.6406C324.783 68.6484 326.095 69.2578 328.228 69.25C330.353 69.2578 331.666 68.6484 331.666 67.6406C331.666 66.6016 330.353 65.9844 328.228 65.9844C326.095 65.9844 324.783 66.6016 324.791 67.6406ZM328.509 60.375V59.3594H331.603V56.375H332.837V64.6094H331.603V60.375H328.509ZM346.049 60.2656V61.2812H336.564V56.6562H337.783V60.2656H346.049ZM334.83 63.9219V62.9062H347.502V63.9219H334.83ZM336.361 67.6875C336.353 66.0703 338.158 65.1641 341.158 65.1719C344.135 65.1641 345.924 66.0703 345.939 67.6875C345.924 69.2969 344.135 70.2031 341.158 70.2031C338.158 70.2031 336.353 69.2969 336.361 67.6875ZM337.611 67.6875C337.596 68.6562 338.932 69.2422 341.158 69.25C343.361 69.2422 344.697 68.6562 344.705 67.6875C344.697 66.7031 343.361 66.1484 341.158 66.1406C338.932 66.1484 337.596 66.7031 337.611 67.6875ZM356.041 57.9219V58.6406C356.033 59.7422 356.033 61.5781 355.635 64.1562L354.401 64.0469C354.783 61.7188 354.815 60.0312 354.807 58.9219H348.979V57.9219H356.041ZM348.198 66.1875C349.112 66.1797 350.127 66.1719 351.198 66.1484V61.8906H352.401V66.1094C353.94 66.0547 355.518 65.9531 356.963 65.7812L357.026 66.7031C354.104 67.1562 350.838 67.2188 348.354 67.2031L348.198 66.1875ZM357.838 70.2656V56.375H359.057V62.1875H361.307V63.25H359.057V70.2656H357.838ZM11.4219 80.375V84.6094H13.5156V85.6406H11.4219V90.625H10.2031V80.375H11.4219ZM0.828125 84.7812C0.820312 82.7656 2.39844 81.3672 4.46875 81.3594C6.55469 81.3672 8.10938 82.7656 8.125 84.7812C8.10938 86.7891 6.55469 88.2031 4.46875 88.2031C2.39844 88.2031 0.820312 86.7891 0.828125 84.7812ZM2.03125 84.7812C2.02344 86.1484 3.09375 87.125 4.46875 87.125C5.86719 87.125 6.91406 86.1484 6.92188 84.7812C6.91406 83.4062 5.86719 82.4375 4.46875 82.4375C3.09375 82.4375 2.02344 83.4062 2.03125 84.7812ZM2.73438 93.9688V89.5625H3.9375V92.9375H12.0625V93.9688H2.73438ZM25.5863 80.3906V90.5781H24.3519V85.25H21.4925V84.2344H24.3519V80.3906H25.5863ZM14.1331 87.7969C16.18 87.0781 17.6644 85.2422 17.6644 83.25V82.5312H14.5238V81.5156H22.0081V82.5312H18.8988V83.25C18.8988 85.0469 20.2894 86.7891 22.3206 87.4844L21.68 88.4688C20.1175 87.8984 18.9066 86.7344 18.305 85.2969C17.7034 86.9062 16.4222 88.1797 14.7738 88.7969L14.1331 87.7969ZM16.6644 93.9688V89.6562H17.8988V92.9375H25.9769V93.9688H16.6644ZM32.36 82.5625C32.3444 84.5469 33.7584 86.2891 35.7975 86.9844L35.11 87.9375C33.5788 87.3672 32.3756 86.2344 31.7741 84.7734C31.1803 86.4375 29.9147 87.7266 28.235 88.3594L27.5631 87.3594C29.7038 86.6094 31.1256 84.7656 31.1413 82.6094V81.1719H32.36V82.5625ZM29.8288 91.6406C29.8209 89.9688 31.5944 89.0078 34.485 89.0156C37.3678 89.0078 39.1413 89.9688 39.1413 91.6406C39.1413 93.2969 37.3678 94.2344 34.485 94.2344C31.5944 94.2344 29.8209 93.2969 29.8288 91.6406ZM31.0475 91.6406C31.0397 92.6484 32.3522 93.2578 34.485 93.25C36.61 93.2578 37.9225 92.6484 37.9225 91.6406C37.9225 90.6016 36.61 89.9844 34.485 89.9844C32.3522 89.9844 31.0397 90.6016 31.0475 91.6406ZM34.7663 84.375V83.3594H37.86V80.375H39.0944V88.6094H37.86V84.375H34.7663ZM47.415 80.625C50.5009 80.625 52.3134 81.4766 52.3213 83.0156C52.3134 84.5938 50.5009 85.4453 47.415 85.4531C44.3134 85.4453 42.4931 84.5938 42.4931 83.0156C42.4931 81.4766 44.3134 80.625 47.415 80.625ZM41.0869 87.3906V86.3906H53.7431V87.3906H41.0869ZM42.6181 89.5312V88.5938H52.1181V91.7031H43.8681V93.1406H52.54V94.1094H42.6494V90.7969H50.915V89.5312H42.6181ZM43.7744 83.0156C43.7588 83.9844 45.1103 84.5156 47.415 84.5156C49.7197 84.5156 51.0634 83.9844 51.0713 83.0156C51.0634 82.1016 49.7197 81.5547 47.415 81.5469C45.1103 81.5547 43.7588 82.1016 43.7744 83.0156ZM65.4625 81.2812C65.4547 84.7656 62.9625 87.2656 58.9625 88.4062L58.4469 87.4375C61.7672 86.5 63.8922 84.6562 64.1578 82.2969H59.1656V81.2812H65.4625ZM60.7906 94.0781V88.9062H69.8063V94.0781H60.7906ZM61.9781 93.0781H68.5875V89.8906H61.9781V93.0781ZM65.4938 85V83.9688H68.5719V80.3906H69.8063V88.3125H68.5719V85H65.4938ZM84.455 86.9844V88H71.7988V86.9844H84.455ZM72.5175 85.1719C74.9394 84.8906 77.2753 83.6953 77.33 82.1094H72.955V81.0938H83.33V82.1094H78.9238C78.9784 83.6797 81.2909 84.8906 83.7519 85.1719L83.2988 86.1562C81.0253 85.8672 78.8925 84.8438 78.1269 83.3047C77.3613 84.8438 75.2441 85.8672 72.955 86.1562L72.5175 85.1719ZM73.33 91.7344C73.3222 90.1406 75.1269 89.2188 78.1269 89.2188C81.1034 89.2188 82.8925 90.1406 82.9081 91.7344C82.8925 93.3438 81.1034 94.2344 78.1269 94.2344C75.1269 94.2344 73.3222 93.3438 73.33 91.7344ZM74.58 91.7344C74.5644 92.7031 75.9003 93.2578 78.1269 93.25C80.33 93.2578 81.6659 92.7031 81.6738 91.7344C81.6659 90.7578 80.33 90.2031 78.1269 90.1875C75.9003 90.2031 74.5644 90.7578 74.58 91.7344ZM99.8619 80.375V83.9375H101.956V84.9844H99.8619V88.4531H98.6431V80.375H99.8619ZM89.0338 82.8281V81.8125H92.565V80.25H93.7838V81.8125H97.315V82.8281H89.0338ZM89.8306 85.9062C89.8228 84.4219 91.1588 83.4766 93.1744 83.4688C95.1666 83.4766 96.5025 84.4219 96.5181 85.9062C96.5025 87.3906 95.1666 88.3516 93.1744 88.3438C91.1588 88.3516 89.8228 87.3906 89.8306 85.9062ZM91.0025 85.9062C90.9947 86.8125 91.8619 87.4062 93.1744 87.4062C94.4713 87.4062 95.3463 86.8125 95.3619 85.9062C95.3463 85.0078 94.4713 84.4062 93.1744 84.4219C91.8619 84.4062 90.9947 85.0078 91.0025 85.9062ZM91.0806 94.0781V89.0625H92.2994V90.5469H98.6431V89.0625H99.8619V94.0781H91.0806ZM92.2994 93.0938H98.6431V91.5156H92.2994V93.0938ZM113.964 80.375V94.2656H112.745V80.375H113.964ZM103.417 90.6875V81.75H104.62V89.625C106.745 89.6094 108.933 89.4453 111.261 88.9531L111.433 90C108.964 90.5156 106.768 90.6875 104.542 90.6875H103.417ZM126.769 80.375V85.875H129.097V86.9062H126.769V94.2969H125.55V80.375H126.769ZM116.628 90.8125V81.7344H123.113V82.75H117.847V89.7812C120.363 89.7734 122.136 89.6641 124.206 89.2812L124.363 90.3438C122.183 90.7344 120.363 90.8125 117.722 90.8125H116.628ZM130.996 93.0938C130.449 93.0859 129.98 92.6328 129.996 92.0781C129.98 91.5312 130.449 91.0781 130.996 91.0781C131.55 91.0781 132.003 91.5312 131.996 92.0781C132.003 92.6328 131.55 93.0859 130.996 93.0938Z" fill="black"/>
</svg>
