<svg width="192" height="52" viewBox="0 0 192 52" fill="none" xmlns="http://www.w3.org/2000/svg">
<rect width="192" height="52" rx="26" fill="black"/>
<path d="M36.4531 19.3281V29.8281H35.0469V19.3281H36.4531ZM24.4844 26.7344C26.3281 25.8594 27.3203 23.9531 27.3125 22.2969V20.2969H28.75V22.2969C28.75 23.9375 29.6641 25.5938 31.4531 26.375L30.625 27.5156C29.3828 26.9453 28.5234 25.9453 28.0547 24.7344C27.5469 26.0781 26.625 27.25 25.3125 27.875L24.4844 26.7344ZM27.1719 33.0312V28.5469H28.6406V31.8281H36.8594V33.0312H27.1719ZM30.2031 23.9844V22.7656H32.25V19.5781H33.6719V29.4219H32.25V23.9844H30.2031ZM49.6956 19.3281V33.3594H48.2269V25.7188H45.4456V24.5H48.2269V19.3281H49.6956ZM38.6644 30.0469V20.5781H45.2113V21.7812H40.1644V24.5H44.6175V25.6875H40.1644V28.8125C42.5081 28.8125 44.1331 28.7422 45.9925 28.4219L46.1488 29.625C44.1097 29.9531 42.3519 30.0391 39.7581 30.0469H38.6644ZM64.3444 30.3281V31.5469H51.5319V30.3281H57.1413V27H58.61V30.3281H64.3444ZM51.9694 26.0312C54.6647 25.5781 57.0709 23.5 57.0788 21.2812V20.2188H58.6413V21.2812C58.6413 23.5 61.0788 25.5781 63.7819 26.0312L63.1413 27.25C60.8678 26.8047 58.7897 25.3984 57.8678 23.4844C56.9459 25.3906 54.8834 26.8047 52.6256 27.25L51.9694 26.0312ZM77.0244 19.3281V33.3281H75.6025V26.0625H73.8681V32.6562H72.4775V19.7031H73.8681V24.8594H75.6025V19.3281H77.0244ZM64.9931 29.3281C68.1025 27.5625 69.4072 25.1797 69.6416 22.3281H65.5869V21.1094H71.0869C71.0791 24.7891 69.8603 28.1016 65.8525 30.3594L64.9931 29.3281ZM93.0406 19.3281V24.75H95.2906V26H93.0406V33.3281H91.5563V19.3281H93.0406ZM82.6656 30V20.5H84.1344V24.0938H87.8375V20.5H89.3063V30H82.6656ZM84.1344 28.7812H87.8375V25.2656H84.1344V28.7812ZM108.455 30.4062V31.6562H95.6425V30.4062H101.283V27.9531H97.205V23.5H105.424V21.5312H97.1738V20.3125H106.893V24.6875H98.6738V26.7344H107.221V27.9531H102.752V30.4062H108.455ZM120.057 19.3281V24.9062H122.229V26.1406H120.057V33.3125H118.573V19.3281H120.057ZM109.166 29.5781C112.674 27.8281 114.58 25.2969 114.885 22.0312H109.869V20.7969H116.401C116.385 24.8438 114.604 28.4609 109.994 30.7344L109.166 29.5781ZM134.299 19.3281V33.3281H132.799V19.3281H134.299ZM122.799 29.5781C126.518 27.8047 128.338 25.2812 128.628 22.0156H123.471V20.8281H130.128C130.128 24.9297 128.385 28.4766 123.581 30.7812L122.799 29.5781Z" fill="white"/>
<path d="M156.5 29C157.328 29 158 29.6716 158 30.5C158 31.3284 157.328 32 156.5 32C155.672 32 155 31.3284 155 30.5C155 29.6716 155.672 29 156.5 29ZM163.5 24.5C164.328 24.5 165 25.1716 165 26C165 26.8284 164.328 27.5 163.5 27.5C162.672 27.5 162 26.8284 162 26C162 25.1716 162.672 24.5 163.5 24.5ZM156.5 20C157.328 20 158 20.6716 158 21.5C158 22.3284 157.328 23 156.5 23C155.672 23 155 22.3284 155 21.5C155 20.6716 155.672 20 156.5 20Z" fill="#00A7E1"/>
</svg>
