<svg width="750" height="92" viewBox="0 0 750 92" fill="none" xmlns="http://www.w3.org/2000/svg">
<path d="M4.51562 1.375V12.6875H3.09375V2.84375H3.03125L0.28125 4.67188V3.25L3.09375 1.375H4.51562ZM10.9769 1.21875C12.9222 1.24219 15.0862 2.41406 15.0862 6.57812C15.0862 10.6016 13.4378 12.8438 10.7894 12.8438C8.79719 12.8438 7.39875 11.625 7.1175 9.82812H8.50812C8.75812 10.8438 9.53156 11.5938 10.7894 11.5938C12.6331 11.5938 13.7581 10 13.7737 7.25H13.6175C12.9691 8.1875 11.93 8.75 10.7269 8.75C8.70344 8.75 7.02375 7.19531 7.02375 5.01562C7.02375 2.90625 8.57062 1.19531 10.9769 1.21875ZM8.39875 5C8.39094 6.39844 9.45344 7.51562 10.93 7.51562C12.4066 7.51562 13.555 6.29688 13.555 4.96875C13.555 3.67188 12.4691 2.45312 10.9769 2.45312C9.50031 2.45312 8.38312 3.60156 8.39875 5ZM20.4694 1.21875C22.4147 1.24219 24.5788 2.41406 24.5788 6.57812C24.5788 10.6016 22.9303 12.8438 20.2819 12.8438C18.2897 12.8438 16.8913 11.625 16.61 9.82812H18.0006C18.2506 10.8438 19.0241 11.5938 20.2819 11.5938C22.1256 11.5938 23.2506 10 23.2663 7.25H23.11C22.4616 8.1875 21.4225 8.75 20.2194 8.75C18.1959 8.75 16.5163 7.19531 16.5163 5.01562C16.5163 2.90625 18.0631 1.19531 20.4694 1.21875ZM17.8913 5C17.8834 6.39844 18.9459 7.51562 20.4225 7.51562C21.8991 7.51562 23.0475 6.29688 23.0475 4.96875C23.0475 3.67188 21.9616 2.45312 20.4694 2.45312C18.9928 2.45312 17.8756 3.60156 17.8913 5ZM29.9619 1.21875C31.9072 1.24219 34.0713 2.41406 34.0713 6.57812C34.0713 10.6016 32.4228 12.8438 29.7744 12.8438C27.7822 12.8438 26.3838 11.625 26.1025 9.82812H27.4931C27.7431 10.8438 28.5166 11.5938 29.7744 11.5938C31.6181 11.5938 32.7431 10 32.7588 7.25H32.6025C31.9541 8.1875 30.915 8.75 29.7119 8.75C27.6884 8.75 26.0088 7.19531 26.0088 5.01562C26.0088 2.90625 27.5556 1.19531 29.9619 1.21875ZM27.3838 5C27.3759 6.39844 28.4384 7.51562 29.915 7.51562C31.3916 7.51562 32.54 6.29688 32.54 4.96875C32.54 3.67188 31.4541 2.45312 29.9619 2.45312C28.4853 2.45312 27.3681 3.60156 27.3838 5ZM46.7044 0.078125V10.3594H45.47V5.54688H41.47V4.5625H45.47V2.89062H41.47V1.90625H45.47V0.078125H46.7044ZM36.0169 8.29688V1.07812H37.2513V7.25C39.1653 7.24219 41.0091 7.13281 43.1263 6.75L43.2513 7.76562C40.9934 8.1875 39.1028 8.28125 37.0638 8.29688H36.0169ZM37.7513 13.6562V9.48438H38.9856V12.625H47.0794V13.6562H37.7513ZM61.4 8.3125V9.3125H55.6031V13.9531H54.4V9.3125H48.6813V8.3125H61.4ZM50.3063 6.625V0.640625H51.525V2.5625H58.525V0.640625H59.7594V6.625H50.3063ZM51.525 5.625H58.525V3.5625H51.525V5.625ZM73.7206 0.0625V13.9844H72.5019V6.32812H69.5644V5.3125H72.5019V0.0625H73.7206ZM62.8456 10.625V1.34375H69.33V2.35938H64.08V5.25H68.7206V6.25H64.08V9.60938C66.6269 9.60156 68.2675 9.53125 70.1738 9.1875L70.3144 10.2031C68.2909 10.5312 66.5956 10.625 63.9081 10.625H62.8456ZM90.9244 0.078125V10.2656H89.69V4.9375H86.8306V3.92188H89.69V0.078125H90.9244ZM79.4713 7.48438C81.5181 6.76562 83.0025 4.92969 83.0025 2.9375V2.21875H79.8619V1.20312H87.3463V2.21875H84.2369V2.9375C84.2369 4.73438 85.6275 6.47656 87.6588 7.17188L87.0181 8.15625C85.4556 7.58594 84.2447 6.42188 83.6431 4.98438C83.0416 6.59375 81.7603 7.86719 80.1119 8.48438L79.4713 7.48438ZM82.0025 13.6562V9.34375H83.2369V12.625H91.315V13.6562H82.0025ZM100.738 4.01562C100.738 6.22656 101.816 8.60938 103.659 9.70312L102.956 10.6562C101.613 9.84375 100.652 8.35938 100.167 6.66406C99.6594 8.51562 98.6281 10.1094 97.2375 10.9531L96.4563 10.0312C98.3781 8.90625 99.55 6.44531 99.55 4.0625V1.375H100.738V4.01562ZM102.128 6.09375V5.04688H104.488V0.359375H105.644V13.25H104.488V6.09375H102.128ZM107.331 13.9531V0.0625H108.519V13.9531H107.331ZM122.011 0.0625V13.9531H120.839V0.0625H122.011ZM110.105 10.0625C113.128 8.27344 114.644 5.76562 114.886 2.85938H110.73V1.84375H116.105C116.105 2.55469 116.043 3.25781 115.918 3.9375H118.027V0.4375H119.199V13.25H118.027V8.4375H115.449V7.42188H118.027V4.95312H115.675C115.003 7.30469 113.48 9.38281 110.855 10.9531L110.105 10.0625ZM138.184 0.0625V3.59375H140.277V4.64062H138.184V8.21875H136.965V0.0625H138.184ZM127.309 7.10938C130.715 6.1875 132.817 4.32812 133.067 1.96875H127.934V0.953125H134.371C134.363 4.46875 131.91 6.97656 127.809 8.0625L127.309 7.10938ZM129.09 9.85938V8.85938H138.184V13.9531H136.965V9.85938H129.09ZM145.801 4.32812C145.809 6.6875 147.52 9.08594 149.567 9.96875L148.879 10.9375C147.254 10.2031 145.856 8.60156 145.208 6.67969C144.559 8.71875 143.153 10.4844 141.567 11.2812L140.833 10.3125C142.825 9.35938 144.559 6.73438 144.567 4.32812V2.51562H141.286V1.5H149.114V2.51562H145.801V4.32812ZM151.051 13.9531V0.0625H152.286V13.9531H151.051ZM158.887 1.07812C161.067 1.08594 162.614 2.41406 162.622 4.34375C162.614 6.28125 161.067 7.60156 158.887 7.60938C156.692 7.60156 155.13 6.28125 155.137 4.34375C155.13 2.41406 156.692 1.08594 158.887 1.07812ZM154.419 9.875C156.981 9.88281 160.52 9.85938 163.591 9.40625L163.684 10.3125C160.505 10.9062 157.091 10.9219 154.591 10.9219L154.419 9.875ZM156.341 4.34375C156.333 5.64062 157.403 6.53125 158.887 6.53125C160.356 6.53125 161.427 5.64062 161.419 4.34375C161.427 3.05469 160.356 2.15625 158.887 2.15625C157.403 2.15625 156.333 3.05469 156.341 4.34375ZM164.512 13.9844V0.0625H165.731V13.9844H164.512ZM184.201 5.9375V6.9375H178.466V8.3125H182.576V11.4219H174.326V12.8281H182.997V13.7969H173.107V10.5H181.372V9.26562H173.076V8.3125H177.247V6.9375H171.544V5.9375H184.201ZM173.185 4.76562V0.53125H182.56V4.76562H173.185ZM174.404 3.78125H181.341V1.51562H174.404V3.78125ZM191.381 0.3125C194.467 0.3125 196.279 1.16406 196.287 2.70312C196.279 4.28125 194.467 5.13281 191.381 5.14062C188.279 5.13281 186.459 4.28125 186.459 2.70312C186.459 1.16406 188.279 0.3125 191.381 0.3125ZM185.053 7.07812V6.07812H197.709V7.07812H185.053ZM186.584 9.21875V8.28125H196.084V11.3906H187.834V12.8281H196.506V13.7969H186.615V10.4844H194.881V9.21875H186.584ZM187.74 2.70312C187.724 3.67188 189.076 4.20312 191.381 4.20312C193.685 4.20312 195.029 3.67188 195.037 2.70312C195.029 1.78906 193.685 1.24219 191.381 1.23438C189.076 1.24219 187.724 1.78906 187.74 2.70312ZM206.319 4.32812C206.327 6.54688 207.459 8.82812 209.366 9.84375L208.647 10.7656C207.264 10.0078 206.264 8.57812 205.756 6.90625C205.264 8.6875 204.264 10.2344 202.881 11.0469L202.147 10.1406C204.022 9.03906 205.155 6.625 205.163 4.32812V3.6875H202.475V2.67188H205.163V0.578125H206.334V2.67188H208.991V3.6875H206.319V4.32812ZM209.944 13.25V0.359375H211.116V5.6875H213.006V0.0625H214.194V13.9531H213.006V6.73438H211.116V13.25H209.944ZM220.999 2.6875C221.007 4.09375 222.382 5.28125 224.358 5.71875L223.858 6.70312C222.257 6.30469 221.022 5.46094 220.413 4.33594C219.819 5.55469 218.569 6.48438 216.921 6.89062L216.389 5.90625C218.397 5.46094 219.78 4.17188 219.78 2.6875V2.625H216.686V1.65625H219.78V0.109375H220.999V1.65625H224.092V2.625H220.999V2.6875ZM215.733 7.875C218.397 7.86719 221.921 7.85156 224.999 7.45312L225.077 8.34375C223.749 8.5625 222.374 8.69531 221.03 8.78125V13.5469H219.811V8.84375C218.405 8.89844 217.069 8.90625 215.905 8.90625L215.733 7.875ZM226.014 13.9688V0.078125H227.217V13.9688H226.014ZM240.023 0.0625V5.79688H242.351V6.8125H240.023V13.9531H238.804V0.0625H240.023ZM229.194 3.3125V2.29688H232.773V0.234375H233.991V2.29688H237.46V3.3125H229.194ZM229.991 7.65625C229.983 5.78125 231.421 4.46875 233.398 4.46875C235.358 4.46875 236.788 5.78125 236.804 7.65625C236.788 9.53906 235.358 10.8438 233.398 10.8438C231.421 10.8438 229.983 9.53906 229.991 7.65625ZM231.163 7.65625C231.155 8.92188 232.101 9.8125 233.398 9.79688C234.679 9.8125 235.616 8.92188 235.632 7.65625C235.616 6.39844 234.679 5.49219 233.398 5.5C232.101 5.49219 231.155 6.39844 231.163 7.65625ZM253.921 1.46875V2.85938C253.906 4.5625 253.906 6.46875 253.406 9.26562L252.156 9.125C252.679 6.46875 252.679 4.52344 252.687 2.85938V2.48438H244.124V1.46875H253.921ZM242.781 11.9844V10.9688H247.749V6H248.952V10.9688H255.437V11.9844H242.781ZM272.688 7.42188V8.42188H267.031V11.1406H265.812V8.42188H259.969V7.42188H272.688ZM261.594 13.6562V9.85938H262.812V12.625H271.266V13.6562H261.594ZM261.672 6.0625V0.515625H262.891V2.29688H269.766V0.515625H270.984V6.0625H261.672ZM262.891 5.0625H269.766V3.23438H262.891V5.0625ZM278.227 2.29688C278.219 4.21094 279.649 5.97656 281.664 6.67188L280.992 7.65625C279.453 7.08594 278.242 5.90625 277.649 4.42188C277.063 6.0625 275.813 7.34375 274.18 7.98438L273.508 6.96875C275.617 6.22656 277.008 4.39062 277.024 2.25V0.78125H278.227V2.29688ZM275.664 10.0312V9.04688H285.008V13.9531H283.774V10.0312H275.664ZM280.68 4.01562V2.98438H283.774V0.0625H285.008V8.28125H283.774V4.01562H280.68ZM293.938 2.46875V3.46875H286.969V2.46875H289.86V0.484375H291.079V2.46875H293.938ZM287.469 7.5625C287.469 5.71875 288.727 4.41406 290.454 4.40625C292.204 4.41406 293.454 5.71875 293.469 7.5625C293.454 9.42969 292.204 10.7422 290.454 10.75C288.727 10.7422 287.469 9.42969 287.469 7.5625ZM288.563 7.5625C288.563 8.79688 289.352 9.67969 290.454 9.67188C291.563 9.67969 292.376 8.79688 292.376 7.5625C292.376 6.34375 291.563 5.45312 290.454 5.4375C289.352 5.45312 288.563 6.34375 288.563 7.5625ZM294.657 13.2656V0.40625H295.813V5.92188H297.657V0.0625H298.829V13.9531H297.657V6.9375H295.813V13.2656H294.657ZM311.173 1.35938C311.181 3.32031 313.728 5.00781 316.236 5.35938L315.736 6.35938C313.579 6 311.439 4.80469 310.548 3.10156C309.658 4.82031 307.525 6 305.361 6.35938L304.861 5.35938C307.368 5.00781 309.908 3.35156 309.908 1.35938V0.5625H311.173V1.35938ZM304.204 8.92188V7.89062H316.861V8.92188H311.111V13.9531H309.908V8.92188H304.204ZM329.166 0.0625V7.28125H327.962V0.0625H329.166ZM317.916 6.32812C319.986 5.64062 321.47 3.9375 321.478 2.03125V1.875H318.228V0.859375H325.916V1.875H322.712V2.03125C322.72 3.83594 324.197 5.42969 326.291 6.04688L325.681 7C324.041 6.48438 322.736 5.38281 322.119 3.96094C321.517 5.51562 320.189 6.72656 318.494 7.29688L317.916 6.32812ZM320.15 8.92188V7.95312H329.181V11.2656H321.384V12.8125H329.681V13.7969H320.181V10.3438H327.962V8.92188H320.15ZM346.807 0.0625V13.9531H345.619V0.0625H346.807ZM335.463 10.6094V1.78125H340.698V2.79688H336.651V9.57812C338.658 9.5625 339.924 9.49219 341.416 9.15625L341.541 10.2031C339.932 10.5312 338.573 10.6016 336.338 10.6094H335.463ZM339.76 6.40625V5.375H342.791V0.40625H343.963V13.2344H342.791V6.40625H339.76ZM359.878 0.0625V13.9844H358.643V0.0625H359.878ZM348.94 5.98438C348.948 3.03125 350.417 1.14844 352.487 1.14062C354.549 1.14844 356.042 3.03125 356.034 5.98438C356.042 8.94531 354.549 10.8203 352.487 10.8125C350.417 10.8203 348.948 8.94531 348.94 5.98438ZM350.128 5.98438C350.128 8.24219 351.096 9.72656 352.487 9.71875C353.885 9.72656 354.846 8.24219 354.846 5.98438C354.846 3.72656 353.885 2.24219 352.487 2.23438C351.096 2.24219 350.128 3.72656 350.128 5.98438ZM373.448 0.0625V13.9844H372.229V6.32812H369.292V5.3125H372.229V0.0625H373.448ZM362.573 10.625V1.34375H369.057V2.35938H363.807V5.25H368.448V6.25H363.807V9.60938C366.354 9.60156 367.995 9.53125 369.901 9.1875L370.042 10.2031C368.018 10.5312 366.323 10.625 363.636 10.625H362.573ZM377.128 1.4375V4.84375H380.159V1.4375H381.284V5.34375H383.378V0.375H384.55V13.2656H383.378V6.375H381.284V10.4688H375.956V1.4375H377.128ZM377.128 9.4375H380.159V5.84375H377.128V9.4375ZM386.159 13.9531V0.0625H387.347V13.9531H386.159ZM400.402 0.0625V13.9844H399.168V0.0625H400.402ZM389.464 5.98438C389.472 3.03125 390.941 1.14844 393.011 1.14062C395.074 1.14844 396.566 3.03125 396.558 5.98438C396.566 8.94531 395.074 10.8203 393.011 10.8125C390.941 10.8203 389.472 8.94531 389.464 5.98438ZM390.652 5.98438C390.652 8.24219 391.621 9.72656 393.011 9.71875C394.41 9.72656 395.371 8.24219 395.371 5.98438C395.371 3.72656 394.41 2.24219 393.011 2.23438C391.621 2.24219 390.652 3.72656 390.652 5.98438ZM409.379 2.10938C409.387 4.49219 412.105 6.60938 414.519 7.0625L413.957 8.09375C411.855 7.60938 409.652 6.11719 408.754 4.07812C407.848 6.11719 405.652 7.60156 403.551 8.09375L402.988 7.0625C405.394 6.60156 408.09 4.5 408.098 2.10938V1.04688H409.379V2.10938ZM402.457 12.0625V11.0469H415.176V12.0625H402.457ZM428.668 6.51562V7.48438H415.949V6.51562H428.668ZM417.481 9.51562V8.59375H427.074V11.5469H418.731V12.875H427.527V13.7656H417.496V10.7031H425.856V9.51562H417.481ZM417.559 1.375V0.484375H427.027V3.35938H418.824V4.57812H427.277V5.46875H417.606V2.51562H425.793V1.375H417.559ZM444.153 0.96875V2.1875C444.153 3.5 444.153 4.94531 443.755 6.9375H445.825V7.95312H440.091V13.9844H438.856V7.95312H433.169V6.9375H442.513C442.934 4.9375 442.934 3.48438 442.934 2.1875V1.98438H434.763V0.96875H444.153ZM459.333 7.0625V8.0625H453.599V9.65625H457.771V13.9062H456.536V10.6562H448.083V9.65625H452.396V8.0625H446.677V7.0625H459.333ZM447.427 5.34375C450.028 5.08594 452.232 4.00781 452.333 2.42188H447.989V1.4375H452.396V0H453.599V1.4375H458.052V2.42188H453.677C453.763 4.00781 455.958 5.08594 458.583 5.34375L458.177 6.28125C455.888 6.03906 453.841 5.20312 453.005 3.78906C452.153 5.20312 450.107 6.03906 447.833 6.28125L447.427 5.34375ZM470.935 0.0625V5.79688H473.263V6.8125H470.935V13.9531H469.716V0.0625H470.935ZM460.107 3.3125V2.29688H463.685V0.234375H464.904V2.29688H468.372V3.3125H460.107ZM460.904 7.65625C460.896 5.78125 462.333 4.46875 464.31 4.46875C466.271 4.46875 467.701 5.78125 467.716 7.65625C467.701 9.53906 466.271 10.8438 464.31 10.8438C462.333 10.8438 460.896 9.53906 460.904 7.65625ZM462.076 7.65625C462.068 8.92188 463.013 9.8125 464.31 9.79688C465.591 9.8125 466.529 8.92188 466.544 7.65625C466.529 6.39844 465.591 5.49219 464.31 5.5C463.013 5.49219 462.068 6.39844 462.076 7.65625ZM484.834 1.46875V2.85938C484.818 4.5625 484.818 6.46875 484.318 9.26562L483.068 9.125C483.592 6.46875 483.592 4.52344 483.599 2.85938V2.48438H475.037V1.46875H484.834ZM473.693 11.9844V10.9688H478.662V6H479.865V10.9688H486.349V11.9844H473.693ZM495.6 9.39062C495.592 10.6172 496.256 11.9219 497.577 12.6719C498.905 11.8516 499.608 10.4609 499.6 9.39062V8.625H500.803V9.39062C500.795 10.8203 501.85 12.2422 503.631 12.8594L503.022 13.7656C501.631 13.2734 500.663 12.3047 500.178 11.1406C499.748 12.2656 498.897 13.3359 497.616 13.875C496.264 13.3594 495.405 12.3438 494.991 11.1797C494.491 12.2969 493.538 13.2656 492.209 13.7656L491.584 12.8594C493.342 12.2031 494.397 10.7188 494.413 9.39062V8.625H495.6V9.39062ZM491.225 4.14062C491.217 2.20312 492.756 0.882812 494.866 0.890625C496.975 0.882812 498.498 2.20312 498.506 4.14062C498.498 6.04688 496.975 7.35938 494.866 7.35938C492.756 7.35938 491.217 6.04688 491.225 4.14062ZM492.428 4.14062C492.413 5.42969 493.436 6.33594 494.866 6.34375C496.28 6.33594 497.303 5.42969 497.303 4.14062C497.303 2.84375 496.28 1.92188 494.866 1.9375C493.436 1.92188 492.413 2.84375 492.428 4.14062ZM501.147 8.01562V0.078125H502.366V8.01562H501.147ZM507.233 8.40625V10.0312H514.171V8.40625H515.405V13.7656H506.014V8.40625H507.233ZM504.405 7.42188V6.40625H517.061V7.42188H504.405ZM505.124 4.4375C507.6 4.10156 510.108 2.64062 510.108 0.875V0.21875H511.374V0.875C511.366 2.58594 513.897 4.125 516.342 4.4375L515.889 5.42188C513.741 5.10156 511.624 4.00781 510.741 2.45312C509.858 4.01562 507.733 5.10156 505.592 5.42188L505.124 4.4375ZM507.233 12.7812H514.171V11H507.233V12.7812ZM529.366 0.0625V13.9531H528.148V0.0625H529.366ZM518.819 10.375V1.4375H520.023V9.3125C522.148 9.29688 524.335 9.13281 526.663 8.64062L526.835 9.6875C524.366 10.2031 522.171 10.375 519.944 10.375H518.819ZM542.171 0.0625V5.5625H544.499V6.59375H542.171V13.9844H540.953V0.0625H542.171ZM532.031 10.5V1.42188H538.515V2.4375H533.249V9.46875C535.765 9.46094 537.538 9.35156 539.609 8.96875L539.765 10.0312C537.585 10.4219 535.765 10.5 533.124 10.5H532.031ZM546.398 12.7812C545.851 12.7734 545.383 12.3203 545.398 11.7656C545.383 11.2188 545.851 10.7656 546.398 10.7656C546.953 10.7656 547.406 11.2188 547.398 11.7656C547.406 12.3203 546.953 12.7734 546.398 12.7812ZM11.4688 26.0625V39.9844H10.2344V26.0625H11.4688ZM0.53125 31.9844C0.539062 29.0312 2.00781 27.1484 4.07812 27.1406C6.14062 27.1484 7.63281 29.0312 7.625 31.9844C7.63281 34.9453 6.14062 36.8203 4.07812 36.8125C2.00781 36.8203 0.539062 34.9453 0.53125 31.9844ZM1.71875 31.9844C1.71875 34.2422 2.6875 35.7266 4.07812 35.7188C5.47656 35.7266 6.4375 34.2422 6.4375 31.9844C6.4375 29.7266 5.47656 28.2422 4.07812 28.2344C2.6875 28.2422 1.71875 29.7266 1.71875 31.9844ZM24.7581 30.2812V31.2656H15.2425V26.5781H16.4613V30.2812H24.7581ZM13.5081 34.1562V33.1562H26.2269V34.1562H13.5081ZM15.1644 39.6094V35.5781H16.3831V38.5938H24.8363V39.6094H15.1644ZM30.7431 31.75C33.3916 31.75 36.8838 31.75 39.9306 31.3438L40.0088 32.2344C38.7041 32.4375 37.3603 32.5547 36.04 32.625V34.25H42.1025V37.4219H34.1025V38.8281H42.6181V39.7969H32.915V36.4844H40.8994V35.2031H32.8838V34.25H34.8056V32.6797C33.4072 32.7344 32.0791 32.7344 30.915 32.7344L30.7431 31.75ZM31.3681 30C33.3916 29.5391 34.7978 28.2969 34.8056 26.8594V26.3438H36.0556V26.8594C36.0556 28.2266 37.4775 29.3828 39.4463 29.7812L38.9463 30.7188C37.3213 30.3516 36.04 29.5 35.4463 28.3594C34.8681 29.5859 33.5869 30.5234 31.915 30.9375L31.3681 30ZM40.8838 33.6094V26.0625H42.1025V33.6094H40.8838ZM52.0875 29.9844C52.0875 32.2656 53.1891 34.625 55.0406 35.625L54.3063 36.5938C52.9625 35.8281 52.0016 34.4062 51.5016 32.7344C50.9859 34.5547 49.9547 36.1094 48.5719 36.9375L47.775 36.0312C49.7125 34.9219 50.9078 32.4453 50.9 30.0625V27.375H52.0875V29.9844ZM55.5563 39.25V26.3594H56.7438V31.6562H58.65V26.0625H59.8375V39.9531H58.65V32.6719H56.7438V39.25H55.5563ZM67.9006 34.2188V35.9531H70.4319V34.2188H71.5725V39.7656H66.7444V34.2188H67.9006ZM65.3538 29.875C65.3459 27.9766 66.8459 26.6875 68.9631 26.6875C70.8303 26.6875 72.2444 27.7422 72.51 29.3438H75.4163V26.0625H76.6506V33.4219H75.4163V30.3594H72.5178C72.2756 32 70.8459 33.0781 68.9631 33.0781C66.8459 33.0781 65.3459 31.7812 65.3538 29.875ZM66.5256 29.875C66.5256 31.1484 67.5334 32.0547 68.9631 32.0625C70.3616 32.0547 71.3694 31.1484 71.3694 29.875C71.3694 28.6094 70.3616 27.7188 68.9631 27.7188C67.5334 27.7188 66.5256 28.6094 66.5256 29.875ZM67.9006 38.7969H70.4319V36.8906H67.9006V38.7969ZM71.76 38.9375C73.4319 38.2422 74.3147 36.7188 74.3225 35.3125V34.125H75.5413V35.3125C75.5256 36.7734 76.4084 38.3125 78.1038 38.9375L77.4631 39.875C76.1819 39.3672 75.3459 38.3828 74.9163 37.2344C74.4788 38.3672 73.6272 39.3516 72.4006 39.875L71.76 38.9375ZM90.0963 26.0625V39.9844H88.8619V26.0625H90.0963ZM79.1588 31.9844C79.1666 29.0312 80.6353 27.1484 82.7056 27.1406C84.7681 27.1484 86.2603 29.0312 86.2525 31.9844C86.2603 34.9453 84.7681 36.8203 82.7056 36.8125C80.6353 36.8203 79.1666 34.9453 79.1588 31.9844ZM80.3463 31.9844C80.3463 34.2422 81.315 35.7266 82.7056 35.7188C84.1041 35.7266 85.065 34.2422 85.065 31.9844C85.065 29.7266 84.1041 28.2422 82.7056 28.2344C81.315 28.2422 80.3463 29.7266 80.3463 31.9844ZM107.363 26.0781V36.3594H106.128V32.625H102.847V33.9844H96.55V27H97.7688V29.4688H101.644V27H102.847V28.625H106.128V26.0781H107.363ZM97.7688 32.9688H101.644V30.4375H97.7688V32.9688ZM98.3781 39.6562V35.3438H99.6125V38.625H107.675V39.6562H98.3781ZM102.847 31.6094H106.128V29.6562H102.847V31.6094ZM120.105 26.0625V31.7969H122.433V32.8125H120.105V39.9531H118.886V26.0625H120.105ZM109.277 29.3125V28.2969H112.855V26.2344H114.074V28.2969H117.543V29.3125H109.277ZM110.074 33.6562C110.066 31.7812 111.503 30.4688 113.48 30.4688C115.441 30.4688 116.871 31.7812 116.886 33.6562C116.871 35.5391 115.441 36.8438 113.48 36.8438C111.503 36.8438 110.066 35.5391 110.074 33.6562ZM111.246 33.6562C111.238 34.9219 112.183 35.8125 113.48 35.7969C114.761 35.8125 115.699 34.9219 115.714 33.6562C115.699 32.3984 114.761 31.4922 113.48 31.5C112.183 31.4922 111.238 32.3984 111.246 33.6562ZM134.098 30.2812V31.2656H124.582V26.5781H125.801V30.2812H134.098ZM122.848 34.1562V33.1562H135.566V34.1562H122.848ZM124.504 39.6094V35.5781H125.723V38.5938H134.176V39.6094H124.504ZM152.786 37.1406V38.1719H140.067V37.1406H145.786V33.75H141.567V27.2344H151.208V33.75H146.989V37.1406H152.786ZM142.77 32.7656H150.02V28.2188H142.77V32.7656ZM166.247 33.0781V34.0781H153.575V33.0781H166.247ZM155.184 31.5469V26.6719H164.669V27.6719H156.403V30.5312H164.794V31.5469H155.184ZM155.216 39.6406V35.5781H156.434V38.6094H164.903V39.6406H155.216ZM183.435 31.9375V32.9375H177.701V34.3125H181.81V37.4219H173.56V38.8281H182.232V39.7969H172.341V36.5H180.607V35.2656H172.31V34.3125H176.482V32.9375H170.779V31.9375H183.435ZM172.419 30.7656V26.5312H181.794V30.7656H172.419ZM173.638 29.7812H180.576V27.5156H173.638V29.7812ZM192.623 28.3125C192.623 30.2031 194.061 31.9375 196.076 32.625L195.404 33.5938C193.873 33.0312 192.662 31.8828 192.053 30.4297C191.459 32.0781 190.217 33.3516 188.592 33.9844L187.936 33C190.014 32.2266 191.412 30.3672 191.42 28.2188V26.7812H192.623V28.3125ZM189.779 37.3906C189.787 35.8047 191.529 34.875 194.389 34.875C197.24 34.875 198.967 35.8047 198.967 37.3906C198.967 39.0078 197.24 39.9219 194.389 39.9219C191.529 39.9219 189.787 39.0078 189.779 37.3906ZM191.014 37.3906C190.998 38.375 192.295 38.9453 194.389 38.9531C196.49 38.9453 197.772 38.375 197.779 37.3906C197.772 36.4453 196.49 35.8594 194.389 35.8594C192.295 35.8594 190.998 36.4453 191.014 37.3906ZM197.623 34.5156V26.0625H198.842V29.6875H200.936V30.7188H198.842V34.5156H197.623ZM212.334 26.0781V30.2656H214.413V31.2969H212.334V35.5H211.1V26.0781H212.334ZM201.428 33.875C202.538 33.875 203.842 33.875 205.194 33.8281V32.7266C203.561 32.5781 202.53 31.8672 202.538 30.7656C202.53 29.5234 203.811 28.7969 205.788 28.7969C207.764 28.7969 209.038 29.5234 209.053 30.7656C209.038 31.8594 208.03 32.5703 206.413 32.7188V33.7812C207.709 33.7188 209.022 33.6094 210.241 33.4375L210.35 34.2969C207.358 34.8203 204.03 34.8672 201.569 34.8594L201.428 33.875ZM201.772 28.2188V27.2656H205.194V25.9531H206.413V27.2656H209.819V28.2188H201.772ZM203.288 37.8125C203.28 36.4219 204.952 35.6562 207.85 35.6719C210.741 35.6562 212.42 36.4219 212.428 37.8125C212.42 39.1953 210.741 39.9375 207.85 39.9531C204.952 39.9375 203.28 39.1953 203.288 37.8125ZM203.709 30.7656C203.702 31.4609 204.506 31.8906 205.788 31.8906C207.069 31.8906 207.881 31.4609 207.881 30.7656C207.881 30.0938 207.069 29.6484 205.788 29.6562C204.506 29.6484 203.702 30.0938 203.709 30.7656ZM204.522 37.8125C204.506 38.5625 205.709 39.0156 207.85 39.0156C209.975 39.0156 211.17 38.5625 211.178 37.8125C211.17 37.0312 209.975 36.5781 207.85 36.5938C205.709 36.5781 204.506 37.0312 204.522 37.8125ZM226.905 26.0625V39.9531H225.717V26.0625H226.905ZM215.171 32.0625C215.178 29.1094 216.35 27.2422 218.155 27.2344C219.842 27.2422 220.983 28.8672 221.139 31.4844H222.936V26.3594H224.108V39.25H222.936V32.5H221.147C221.03 35.2031 219.866 36.8984 218.155 36.8906C216.35 36.8984 215.178 35.0156 215.171 32.0625ZM216.327 32.0625C216.311 34.3125 217.03 35.7344 218.155 35.7188C219.288 35.7344 220.007 34.3125 219.999 32.0625C220.007 29.8047 219.288 28.3906 218.155 28.3906C217.03 28.3906 216.311 29.8047 216.327 32.0625ZM244.077 26.0625V39.9531H242.906V32.6719H240.859V39.2344H239.734V26.375H240.859V31.6562H242.906V26.0625H244.077ZM232.718 36.5156V27.7656H237.921V28.7812H233.937V35.4688C235.851 35.4609 237.171 35.3906 238.718 35.0781L238.827 36.1094C237.156 36.4531 235.742 36.5078 233.609 36.5156H232.718ZM257.226 26.0625V39.9844H255.992V32.6719H252.945V31.6562H255.992V26.0625H257.226ZM245.742 36.3125C247.781 35.3594 249.304 32.9844 249.304 30.5938V29.4844H246.117V28.4844H249.304V26.3281H250.523V28.4844H253.664V29.4844H250.508V30.5938C250.508 32.8828 252.078 35.1406 254.133 36.0625L253.429 37.0156C251.843 36.2969 250.539 34.7734 249.922 32.9453C249.32 34.8828 248.031 36.5 246.445 37.2656L245.742 36.3125ZM269.969 26.0625V31.7969H272.297V32.8125H269.969V39.9531H268.75V26.0625H269.969ZM259.141 29.3125V28.2969H262.719V26.2344H263.938V28.2969H267.406V29.3125H259.141ZM259.938 33.6562C259.93 31.7812 261.367 30.4688 263.344 30.4688C265.305 30.4688 266.734 31.7812 266.75 33.6562C266.734 35.5391 265.305 36.8438 263.344 36.8438C261.367 36.8438 259.93 35.5391 259.938 33.6562ZM261.109 33.6562C261.102 34.9219 262.047 35.8125 263.344 35.7969C264.625 35.8125 265.562 34.9219 265.578 33.6562C265.562 32.3984 264.625 31.4922 263.344 31.5C262.047 31.4922 261.102 32.3984 261.109 33.6562ZM278.883 27.0938C278.883 28.1641 278.688 29.1406 278.305 30.0312H280.555V26.375H281.727V33.8906H280.555V31.0469H277.758C276.852 32.4375 275.422 33.5547 273.508 34.375L272.867 33.4688C275.719 32.3047 277.367 30.4609 277.617 28.1094H273.461V27.0938H278.883ZM273.555 39C275.305 38.3672 276.399 36.8516 276.399 35.5156V34.5781H277.571V35.5156C277.555 36.7656 278.219 38.0625 279.532 38.8203C280.867 37.9844 281.547 36.5703 281.555 35.5156V34.5781H282.742V35.5156C282.742 36.9531 283.797 38.4141 285.586 39L284.977 39.9062C283.586 39.4141 282.61 38.4375 282.133 37.2656C281.711 38.3984 280.867 39.4766 279.571 40.0312C278.211 39.5 277.367 38.4609 276.961 37.2891C276.461 38.4219 275.5 39.3984 274.18 39.9062L273.555 39ZM283.352 34.1094V26.0781H284.524V34.1094H283.352ZM296.985 26.0625V31.5625H299.313V32.5938H296.985V39.9844H295.766V26.0625H296.985ZM286.844 36.5V27.4219H293.329V28.4375H288.063V35.4688C290.579 35.4609 292.352 35.3516 294.422 34.9688L294.579 36.0312C292.399 36.4219 290.579 36.5 287.938 36.5H286.844ZM310.978 30.2812V31.2656H301.462V26.5781H302.681V30.2812H310.978ZM299.728 34.1562V33.1562H312.446V34.1562H299.728ZM301.384 39.6094V35.5781H302.603V38.5938H311.056V39.6094H301.384ZM328.056 27.4219V28.7656C328.041 30.4531 328.056 32.3594 327.478 35.1875L326.275 35.0469C326.541 33.7891 326.681 32.6875 326.759 31.7109L318.275 32.2188L318.072 31.1406L326.814 30.7812C326.845 30.0469 326.853 29.3906 326.853 28.7656V28.4375H318.478V27.4219H328.056ZM316.947 38.0625V37.0156H321.916V33.4219H323.119V37.0156H329.603V38.0625H316.947ZM333.986 26.9531C335.752 26.9609 337.017 28 337.033 29.5312C337.017 31.0547 335.752 32.0938 333.986 32.0781C332.221 32.0938 330.939 31.0547 330.955 29.5312C330.939 28 332.221 26.9609 333.986 26.9531ZM330.267 33.1562C332.189 33.1641 335.299 33.1484 337.564 32.7812L337.658 33.7188C336.674 33.9141 335.58 34.0312 334.502 34.0938V38.8125H333.346V34.1562C332.267 34.1953 331.252 34.2031 330.439 34.2031L330.267 33.1562ZM332.064 29.5312C332.057 30.4766 332.853 31.1484 333.986 31.1562C335.119 31.1484 335.924 30.4766 335.924 29.5312C335.924 28.5781 335.119 27.8906 333.986 27.9062C332.853 27.8906 332.057 28.5781 332.064 29.5312ZM335.83 36.1406V35.1719H338.471V26.375H339.627V39.2188H338.471V36.1406H335.83ZM341.111 39.9531V26.0625H342.283V39.9531H341.111ZM355.416 26.0625V39.9844H354.182V26.0625H355.416ZM344.479 31.9844C344.487 29.0312 345.955 27.1484 348.026 27.1406C350.088 27.1484 351.58 29.0312 351.573 31.9844C351.58 34.9453 350.088 36.8203 348.026 36.8125C345.955 36.8203 344.487 34.9453 344.479 31.9844ZM345.666 31.9844C345.666 34.2422 346.635 35.7266 348.026 35.7188C349.424 35.7266 350.385 34.2422 350.385 31.9844C350.385 29.7266 349.424 28.2422 348.026 28.2344C346.635 28.2422 345.666 29.7266 345.666 31.9844ZM362.018 27.0781C364.198 27.0859 365.745 28.4141 365.753 30.3438C365.745 32.2812 364.198 33.6016 362.018 33.6094C359.823 33.6016 358.26 32.2812 358.268 30.3438C358.26 28.4141 359.823 27.0859 362.018 27.0781ZM357.549 35.875C360.112 35.8828 363.651 35.8594 366.721 35.4062L366.815 36.3125C363.635 36.9062 360.221 36.9219 357.721 36.9219L357.549 35.875ZM359.471 30.3438C359.463 31.6406 360.534 32.5312 362.018 32.5312C363.487 32.5312 364.557 31.6406 364.549 30.3438C364.557 29.0547 363.487 28.1562 362.018 28.1562C360.534 28.1562 359.463 29.0547 359.471 30.3438ZM367.643 39.9844V26.0625H368.862V39.9844H367.643ZM385.425 26.0625V31.5625H387.753V32.5938H385.425V39.9844H384.206V26.0625H385.425ZM375.284 36.5V27.4219H381.769V28.4375H376.503V35.4688C379.019 35.4609 380.792 35.3516 382.862 34.9688L383.019 36.0312C380.839 36.4219 379.019 36.5 376.378 36.5H375.284ZM393.183 28.5156C393.191 30.3906 394.668 32.0469 396.746 32.7344L396.121 33.6875C394.503 33.1562 393.222 32.0156 392.589 30.5547C391.98 32.1328 390.683 33.375 389.027 33.9688L388.386 33C390.472 32.2656 391.941 30.4922 391.949 28.5156V28.0469H388.699V27.0469H396.386V28.0469H393.183V28.5156ZM390.621 39.7656V34.8906H399.652V39.7656H390.621ZM391.824 38.7656H398.449V35.875H391.824V38.7656ZM398.433 34.1719V26.0781H399.652V34.1719H398.433ZM408.019 26.9688C410.918 26.9766 413.098 28.4922 413.098 30.7812C413.098 33.0938 410.918 34.6094 408.019 34.5938C405.121 34.6094 402.941 33.0938 402.941 30.7812C402.941 28.4922 405.121 26.9766 408.019 26.9688ZM401.691 38.1094V37.0781H414.41V38.1094H401.691ZM404.113 30.7812C404.098 32.4688 405.777 33.5938 408.019 33.5938C410.246 33.5938 411.91 32.4688 411.91 30.7812C411.91 29.1172 410.246 27.9609 408.019 27.9688C405.777 27.9609 404.098 29.1172 404.113 30.7812ZM427.918 37.2031V38.2344H415.199V37.2031H420.918V34.5781H416.793V30.2969H425.106V28.1094H416.762V27.0938H426.309V31.2969H418.012V33.5625H426.637V34.5781H422.121V37.2031H427.918ZM441.411 34.3125V35.3125H435.614V39.9531H434.411V35.3125H428.692V34.3125H441.411ZM430.317 32.625V26.6406H431.536V28.5625H438.536V26.6406H439.77V32.625H430.317ZM431.536 31.625H438.536V29.5625H431.536V31.625ZM453.731 26.0625V39.9844H452.513V32.3281H449.575V31.3125H452.513V26.0625H453.731ZM442.856 36.625V27.3438H449.341V28.3594H444.091V31.25H448.731V32.25H444.091V35.6094C446.638 35.6016 448.278 35.5312 450.184 35.1875L450.325 36.2031C448.302 36.5312 446.606 36.625 443.919 36.625H442.856ZM464.357 29.7969C464.349 32.3359 466.076 34.8828 468.122 35.8125L467.372 36.7812C465.787 36.0156 464.419 34.3672 463.755 32.3906C463.115 34.4844 461.747 36.2422 460.122 37.0625L459.341 36.0312C461.412 35.0859 463.122 32.4297 463.138 29.7969V27.2656H464.357V29.7969ZM469.638 39.9844V26.0625H470.872V39.9844H469.638ZM477.631 28.6406C477.638 30.4922 478.998 32.1797 481.052 32.8906L480.427 33.8438C478.842 33.2812 477.631 32.1484 477.037 30.7109C476.443 32.2891 475.17 33.5156 473.537 34.1094L472.881 33.1562C474.959 32.4219 476.412 30.6328 476.427 28.6406V28.0469H473.256V27.0469H480.756V28.0469H477.631V28.6406ZM474.693 36.1719V35.1719H483.787V39.9531H482.568V36.1719H474.693ZM482.568 34.4375V26.0625H483.787V29.7344H485.881V30.7812H483.787V34.4375H482.568ZM497.186 26.0625V31.7969H499.514V32.8125H497.186V39.9531H495.967V26.0625H497.186ZM486.358 29.3125V28.2969H489.936V26.2344H491.154V28.2969H494.623V29.3125H486.358ZM487.154 33.6562C487.147 31.7812 488.584 30.4688 490.561 30.4688C492.522 30.4688 493.951 31.7812 493.967 33.6562C493.951 35.5391 492.522 36.8438 490.561 36.8438C488.584 36.8438 487.147 35.5391 487.154 33.6562ZM488.326 33.6562C488.318 34.9219 489.264 35.8125 490.561 35.7969C491.842 35.8125 492.779 34.9219 492.795 33.6562C492.779 32.3984 491.842 31.4922 490.561 31.5C489.264 31.4922 488.318 32.3984 488.326 33.6562ZM504.725 35.3906C504.717 36.6328 505.381 37.9453 506.709 38.6953C508.038 37.875 508.717 36.4531 508.725 35.3906V34.4375H509.928V35.3906C509.92 36.8203 510.959 38.2656 512.772 38.8594L512.131 39.7969C510.756 39.2969 509.788 38.3203 509.311 37.1562C508.873 38.2891 508.03 39.3594 506.725 39.9062C505.397 39.3984 504.538 38.375 504.116 37.2031C503.616 38.3203 502.663 39.2891 501.334 39.7969L500.725 38.8594C502.483 38.2344 503.538 36.7344 503.553 35.3906V34.4375H504.725V35.3906ZM500.178 30.1094C500.178 28.1875 501.694 26.8281 503.772 26.8281C504.936 26.8281 505.936 27.2734 506.577 28.0156H510.225V26.0625H511.459V34H510.225V32.1562H506.616C505.975 32.9219 504.959 33.375 503.772 33.375C501.694 33.375 500.178 32.0391 500.178 30.1094ZM501.366 30.1094C501.35 31.4141 502.373 32.3359 503.772 32.3438C505.139 32.3359 506.163 31.4141 506.163 30.1094C506.163 28.8125 505.139 27.8672 503.772 27.875C502.373 27.8672 501.35 28.8125 501.366 30.1094ZM507.163 29.0156C507.28 29.3516 507.35 29.7188 507.35 30.1094C507.35 30.4766 507.288 30.8203 507.186 31.1406H510.225V29.0156H507.163ZM519.78 26.9688C522.678 26.9766 524.858 28.4922 524.858 30.7812C524.858 33.0938 522.678 34.6094 519.78 34.5938C516.882 34.6094 514.702 33.0938 514.702 30.7812C514.702 28.4922 516.882 26.9766 519.78 26.9688ZM513.452 38.1094V37.0781H526.171V38.1094H513.452ZM515.874 30.7812C515.858 32.4688 517.538 33.5938 519.78 33.5938C522.007 33.5938 523.671 32.4688 523.671 30.7812C523.671 29.1172 522.007 27.9609 519.78 27.9688C517.538 27.9609 515.858 29.1172 515.874 30.7812ZM533.851 27.4531V29.4062H537.257V26.0625H538.476V39.9844H537.257V34.25H533.851V36.4375H527.523V27.4531H533.851ZM528.741 35.4531H532.663V28.4219H528.741V35.4531ZM533.851 33.2344H537.257V30.4219H533.851V33.2344ZM542.749 37.6406L541.531 41.8906H540.374L541.234 37.6406H542.749ZM560.656 37.1406V38.1719H547.938V37.1406H553.672V33.7656H554.906V37.1406H560.656ZM548.562 33.2656C550.914 32.8672 553.641 30.9219 553.641 28.7031V28.3594H548.984V27.3281H559.562V28.3594H554.906V28.7031C554.914 30.9219 557.648 32.8281 560.047 33.2188L559.547 34.1875C557.422 33.7656 555.18 32.4141 554.289 30.4922C553.398 32.4375 551.164 33.8203 549.078 34.25L548.562 33.2656ZM572.961 26.0781V36.3438H571.727V31.3906H568.649V30.3594H571.727V26.0781H572.961ZM561.664 33.7344C564.86 32.6797 567.086 30.6797 567.367 28.1719H562.367V27.1406H568.711C568.696 30.7109 566.141 33.4297 562.196 34.7188L561.664 33.7344ZM564.117 39.6562V35.2969H565.367V38.625H573.321V39.6562H564.117ZM582.657 27.6094V28.3281C582.649 29.4297 582.649 31.2656 582.251 33.8438L581.016 33.7344C581.399 31.4062 581.43 29.7188 581.422 28.6094H575.594V27.6094H582.657ZM574.813 35.875C575.727 35.8672 576.743 35.8594 577.813 35.8359V31.5781H579.016V35.7969C580.555 35.7422 582.133 35.6406 583.579 35.4688L583.641 36.3906C580.719 36.8438 577.454 36.9062 574.969 36.8906L574.813 35.875ZM584.454 39.9531V26.0625H585.672V31.875H587.922V32.9375H585.672V39.9531H584.454ZM596.861 28.7031C596.868 30.5234 598.228 32.1484 600.267 32.8125L599.689 33.7812C598.087 33.25 596.876 32.1484 596.275 30.75C595.681 32.3438 594.4 33.5859 592.736 34.1875L592.111 33.2031C594.189 32.5 595.642 30.7109 595.657 28.7031V28.1094H592.486V27.0938H599.986V28.1094H596.861V28.7031ZM593.954 37.3594C593.962 35.7578 595.704 34.8281 598.564 34.8281C601.415 34.8281 603.142 35.7578 603.142 37.3594C603.142 38.9844 601.415 39.9219 598.564 39.9219C595.704 39.9219 593.962 38.9844 593.954 37.3594ZM595.189 37.3594C595.173 38.3594 596.47 38.9453 598.564 38.9375C600.665 38.9453 601.947 38.3594 601.954 37.3594C601.947 36.3906 600.665 35.8125 598.564 35.8125C596.47 35.8125 595.173 36.3906 595.189 37.3594ZM601.798 34.4531V26.0625H603.017V29.6094H605.111V30.6406H603.017V34.4531H601.798ZM618.384 37.125V38.1406H605.666V37.125H611.353V33.7188H612.556V37.125H618.384ZM606.166 32.8594C608.595 32.4453 611.298 30.4141 611.306 28.0781V27.0156H612.588V28.0781C612.595 30.3984 615.338 32.4453 617.759 32.8594L617.213 33.875C615.095 33.4375 612.861 32.0078 611.963 30.0078C611.048 32 608.838 33.4375 606.713 33.875L606.166 32.8594ZM631.08 26.0625V39.9531H629.893V26.0625H631.08ZM619.346 32.0625C619.353 29.1094 620.525 27.2422 622.33 27.2344C624.018 27.2422 625.158 28.8672 625.314 31.4844H627.111V26.3594H628.283V39.25H627.111V32.5H625.322C625.205 35.2031 624.041 36.8984 622.33 36.8906C620.525 36.8984 619.353 35.0156 619.346 32.0625ZM620.502 32.0625C620.486 34.3125 621.205 35.7344 622.33 35.7188C623.463 35.7344 624.182 34.3125 624.174 32.0625C624.182 29.8047 623.463 28.3906 622.33 28.3906C621.205 28.3906 620.486 29.8047 620.502 32.0625ZM641.018 28.3125C641.018 30.2031 642.456 31.9375 644.471 32.625L643.799 33.5938C642.268 33.0312 641.057 31.8828 640.448 30.4297C639.854 32.0781 638.612 33.3516 636.987 33.9844L636.331 33C638.409 32.2266 639.807 30.3672 639.815 28.2188V26.7812H641.018V28.3125ZM638.174 37.3906C638.182 35.8047 639.924 34.875 642.784 34.875C645.635 34.875 647.362 35.8047 647.362 37.3906C647.362 39.0078 645.635 39.9219 642.784 39.9219C639.924 39.9219 638.182 39.0078 638.174 37.3906ZM639.409 37.3906C639.393 38.375 640.69 38.9453 642.784 38.9531C644.885 38.9453 646.167 38.375 646.174 37.3906C646.167 36.4453 644.885 35.8594 642.784 35.8594C640.69 35.8594 639.393 36.4453 639.409 37.3906ZM646.018 34.5156V26.0625H647.237V29.6875H649.331V30.7188H647.237V34.5156H646.018ZM657.589 27.1406V27.875C657.581 28.7891 657.581 30.1719 657.229 31.9844L655.995 31.8906C656.331 30.2344 656.362 29.0547 656.378 28.1719H650.667V27.1406H657.589ZM649.807 33.2812C650.706 33.2812 651.722 33.2734 652.792 33.2422V30.2188H654.011V33.2031C655.55 33.1406 657.143 33.0312 658.589 32.8281L658.667 33.7344C655.753 34.2344 652.409 34.2891 649.932 34.2969L649.807 33.2812ZM651.948 39.6562V35.5781H653.182V38.625H661.229V39.6562H651.948ZM659.526 36.5156V26.0625H660.776V30.5938H662.807V31.6406H660.776V36.5156H659.526ZM666.159 34.2188V35.9531H668.691V34.2188H669.831V39.7656H665.003V34.2188H666.159ZM663.612 29.875C663.605 27.9766 665.105 26.6875 667.222 26.6875C669.089 26.6875 670.503 27.7422 670.769 29.3438H673.675V26.0625H674.909V33.4219H673.675V30.3594H670.777C670.534 32 669.105 33.0781 667.222 33.0781C665.105 33.0781 663.605 31.7812 663.612 29.875ZM664.784 29.875C664.784 31.1484 665.792 32.0547 667.222 32.0625C668.62 32.0547 669.628 31.1484 669.628 29.875C669.628 28.6094 668.62 27.7188 667.222 27.7188C665.792 27.7188 664.784 28.6094 664.784 29.875ZM666.159 38.7969H668.691V36.8906H666.159V38.7969ZM670.019 38.9375C671.691 38.2422 672.573 36.7188 672.581 35.3125V34.125H673.8V35.3125C673.784 36.7734 674.667 38.3125 676.362 38.9375L675.722 39.875C674.441 39.3672 673.605 38.3828 673.175 37.2344C672.737 38.3672 671.886 39.3516 670.659 39.875L670.019 38.9375ZM688.355 26.0625V39.9844H687.121V26.0625H688.355ZM677.417 31.9844C677.425 29.0312 678.894 27.1484 680.964 27.1406C683.027 27.1484 684.519 29.0312 684.511 31.9844C684.519 34.9453 683.027 36.8203 680.964 36.8125C678.894 36.8203 677.425 34.9453 677.417 31.9844ZM678.605 31.9844C678.605 34.2422 679.574 35.7266 680.964 35.7188C682.363 35.7266 683.324 34.2422 683.324 31.9844C683.324 29.7266 682.363 28.2422 680.964 28.2344C679.574 28.2422 678.605 29.7266 678.605 31.9844ZM705.621 26.0781V36.3125H704.387V30.9531H701.481C701.207 32.6641 699.77 33.8281 697.934 33.8281C695.856 33.8281 694.317 32.3984 694.324 30.3906C694.317 28.375 695.856 26.9766 697.934 26.9688C699.809 26.9766 701.27 28.1719 701.496 29.9375H704.387V26.0781H705.621ZM695.496 30.3906C695.496 31.7734 696.535 32.75 697.934 32.7656C699.301 32.75 700.34 31.7734 700.34 30.3906C700.34 29.0156 699.301 28.0547 697.934 28.0469C696.535 28.0547 695.496 29.0156 695.496 30.3906ZM696.699 39.6562V35.2656H697.934V38.625H706.012V39.6562H696.699ZM719.489 26.0625V39.9531H718.317V26.0625H719.489ZM707.442 36.25C709.379 35.0938 710.512 32.5547 710.504 30.0312V28.7188H707.833V27.7031H714.239V28.7188H711.692V30.0312C711.692 32.4297 712.778 34.8281 714.692 35.9375L713.942 36.8438C712.575 36.0234 711.606 34.5234 711.122 32.7578C710.622 34.6719 709.614 36.3047 708.223 37.1719L707.442 36.25ZM713.176 32.0781V31.0781H715.52V26.4062H716.676V39.2344H715.52V32.0781H713.176ZM728.552 27.1406C730.443 27.1484 731.81 28.7734 731.997 31.375H735.114V26.0625H736.333V39.9844H735.114V32.3906H732.013C731.88 35.1172 730.489 36.8203 728.552 36.8125C726.497 36.8203 725.06 34.9453 725.068 31.9844C725.06 29.0312 726.497 27.1484 728.552 27.1406ZM726.239 31.9844C726.247 34.2422 727.185 35.7266 728.552 35.7188C729.911 35.7266 730.864 34.2422 730.864 31.9844C730.864 29.7266 729.911 28.2422 728.552 28.2344C727.185 28.2422 726.247 29.7266 726.239 31.9844ZM749.779 26.0625V39.9844H748.544V26.0625H749.779ZM739.232 36.5312V27.3906H745.841V28.4219H740.466V35.4688C743.169 35.4688 744.943 35.3906 747.029 35.0156L747.154 36.0469C744.997 36.4297 743.169 36.5234 740.357 36.5312H739.232ZM4.90625 55.7969C4.89844 58.3125 6.51562 60.8438 8.53125 61.7656L7.79688 62.7656C6.21875 61.9531 4.91406 60.2969 4.29688 58.3203C3.67969 60.3984 2.375 62.1797 0.796875 63.0156L0 62.0312C2.03906 61.0312 3.64844 58.3594 3.65625 55.7969V53.2656H4.90625V55.7969ZM7.01562 57.8125V56.8125H10.3125V52.0625H11.5312V65.9844H10.3125V57.8125H7.01562ZM26.5238 57.6094V58.6406H24.2738V65.9531H23.055V52.0625H24.2738V57.6094H26.5238ZM14.1019 62.4219V53.4375H15.3206V61.3906C17.3519 61.3906 19.4222 61.2344 21.7113 60.75L21.8675 61.7969C19.4691 62.2812 17.3128 62.4219 15.2113 62.4219H14.1019ZM41.5869 52.0625V56.2969H43.6806V57.3281H41.5869V62.3125H40.3681V52.0625H41.5869ZM30.9931 56.4688C30.9853 54.4531 32.5634 53.0547 34.6338 53.0469C36.7197 53.0547 38.2744 54.4531 38.29 56.4688C38.2744 58.4766 36.7197 59.8906 34.6338 59.8906C32.5634 59.8906 30.9853 58.4766 30.9931 56.4688ZM32.1963 56.4688C32.1884 57.8359 33.2588 58.8125 34.6338 58.8125C36.0322 58.8125 37.0791 57.8359 37.0869 56.4688C37.0791 55.0938 36.0322 54.125 34.6338 54.125C33.2588 54.125 32.1884 55.0938 32.1963 56.4688ZM32.8994 65.6562V61.25H34.1025V64.625H42.2275V65.6562H32.8994ZM55.7044 52.0781V59.9688H54.4856V52.0781H55.7044ZM44.345 58.6406C46.4466 57.9062 47.9075 56.0234 47.9075 53.9844V52.625H49.1575V53.9844C49.1419 55.9453 50.6419 57.6797 52.6888 58.4062L52.0638 59.3438C50.4544 58.7891 49.1653 57.6172 48.5403 56.1016C47.9231 57.7109 46.6263 58.9922 44.97 59.6094L44.345 58.6406ZM46.6731 65.7656V60.7656H55.7044V65.7656H46.6731ZM47.8763 64.7656H54.5013V61.7656H47.8763V64.7656ZM68.4938 52.0625V57.7969H70.8219V58.8125H68.4938V65.9531H67.275V52.0625H68.4938ZM57.6656 55.3125V54.2969H61.2438V52.2344H62.4625V54.2969H65.9313V55.3125H57.6656ZM58.4625 59.6562C58.4547 57.7812 59.8922 56.4688 61.8688 56.4688C63.8297 56.4688 65.2594 57.7812 65.275 59.6562C65.2594 61.5391 63.8297 62.8438 61.8688 62.8438C59.8922 62.8438 58.4547 61.5391 58.4625 59.6562ZM59.6344 59.6562C59.6266 60.9219 60.5719 61.8125 61.8688 61.7969C63.15 61.8125 64.0875 60.9219 64.1031 59.6562C64.0875 58.3984 63.15 57.4922 61.8688 57.5C60.5719 57.4922 59.6266 58.3984 59.6344 59.6562ZM82.3925 53.4688V54.8594C82.3769 56.5625 82.3769 58.4688 81.8769 61.2656L80.6269 61.125C81.1503 58.4688 81.1503 56.5234 81.1581 54.8594V54.4844H72.5956V53.4688H82.3925ZM71.2519 63.9844V62.9688H76.2206V58H77.4238V62.9688H83.9081V63.9844H71.2519ZM99.9713 52.0781V62.3438H98.7369V57.3906H95.6588V56.3594H98.7369V52.0781H99.9713ZM88.6744 59.7344C91.8697 58.6797 94.0963 56.6797 94.3775 54.1719H89.3775V53.1406H95.7213C95.7056 56.7109 93.1509 59.4297 89.2056 60.7188L88.6744 59.7344ZM91.1275 65.6562V61.2969H92.3775V64.625H100.331V65.6562H91.1275ZM112.823 52.0625V55.6875H114.917V56.7031H112.823V60.4062H111.604V52.0625H112.823ZM101.979 59.4219C105.331 58.4531 107.472 56.5234 107.722 54.1094H102.589V53.0938H109.042C109.034 56.6328 106.542 59.2266 102.495 60.4219L101.979 59.4219ZM103.886 63.2344C103.878 61.5703 105.667 60.5547 108.433 60.5625C111.222 60.5547 112.979 61.5703 112.979 63.2344C112.979 64.9219 111.222 65.9219 108.433 65.9219C105.667 65.9219 103.878 64.9219 103.886 63.2344ZM105.104 63.2344C105.089 64.2812 106.393 64.9453 108.433 64.9375C110.472 64.9453 111.792 64.2812 111.792 63.2344C111.792 62.1875 110.472 61.5391 108.433 61.5469C106.393 61.5391 105.089 62.1875 105.104 63.2344ZM126.331 52.0781V56.6562H128.425V57.6875H126.331V62.4844H125.113V52.0781H126.331ZM115.503 54.7812V53.7812H119.034V52.0781H120.253V53.7812H123.784V54.7812H115.503ZM116.3 58.1406C116.292 56.5625 117.636 55.5469 119.644 55.5469C121.628 55.5469 122.972 56.5625 122.988 58.1406C122.972 59.7031 121.628 60.7109 119.644 60.7031C117.636 60.7109 116.292 59.7031 116.3 58.1406ZM117.472 58.1406C117.464 59.1172 118.331 59.75 119.644 59.7344C120.941 59.75 121.816 59.1172 121.831 58.1406C121.816 57.1484 120.941 56.5078 119.644 56.5156C118.331 56.5078 117.464 57.1484 117.472 58.1406ZM117.644 65.6562V61.6562H118.847V64.625H126.972V65.6562H117.644ZM145.332 57.9375V58.9375H139.598V60.3125H143.707V63.4219H135.457V64.8281H144.129V65.7969H134.238V62.5H142.504V61.2656H134.207V60.3125H138.379V58.9375H132.676V57.9375H145.332ZM134.316 56.7656V52.5312H143.691V56.7656H134.316ZM135.535 55.7812H142.473V53.5156H135.535V55.7812ZM152.512 52.3125C155.598 52.3125 157.41 53.1641 157.418 54.7031C157.41 56.2812 155.598 57.1328 152.512 57.1406C149.41 57.1328 147.59 56.2812 147.59 54.7031C147.59 53.1641 149.41 52.3125 152.512 52.3125ZM146.184 59.0781V58.0781H158.84V59.0781H146.184ZM147.715 61.2188V60.2812H157.215V63.3906H148.965V64.8281H157.637V65.7969H147.746V62.4844H156.012V61.2188H147.715ZM148.871 54.7031C148.856 55.6719 150.207 56.2031 152.512 56.2031C154.817 56.2031 156.16 55.6719 156.168 54.7031C156.16 53.7891 154.817 53.2422 152.512 53.2344C150.207 53.2422 148.856 53.7891 148.871 54.7031ZM170.372 53.4688V62.4219H163.966V53.4688H170.372ZM165.153 61.4219H169.153V54.4531H165.153V61.4219ZM172.919 65.9531V52.0625H174.137V57.6094H176.466V58.6719H174.137V65.9531H172.919ZM188.349 52.0625V59.2656H187.146V52.0625H188.349ZM176.989 58.1562C179.083 57.4297 180.568 55.5703 180.568 53.5312V52.4688H181.818V53.5312C181.802 55.4922 183.302 57.2266 185.364 57.9062L184.755 58.8594C183.122 58.3047 181.833 57.1406 181.208 55.6406C180.583 57.2578 179.278 58.5312 177.63 59.125L176.989 58.1562ZM179.333 60.9531V59.9688H188.364V63.2969H180.568V64.7969H188.864V65.7969H179.364V62.3438H187.146V60.9531H179.333ZM201.068 53.3594C201.076 55.3203 203.623 57.0078 206.131 57.3594L205.631 58.3594C203.474 58 201.334 56.8047 200.443 55.1016C199.553 56.8203 197.42 58 195.256 58.3594L194.756 57.3594C197.263 57.0078 199.803 55.3516 199.803 53.3594V52.5625H201.068V53.3594ZM194.099 60.9219V59.8906H206.756V60.9219H201.006V65.9531H199.803V60.9219H194.099ZM216.006 61.3906C215.998 62.6172 216.663 63.9219 217.983 64.6719C219.311 63.8516 220.014 62.4609 220.006 61.3906V60.625H221.209V61.3906C221.202 62.8203 222.256 64.2422 224.038 64.8594L223.428 65.7656C222.038 65.2734 221.069 64.3047 220.584 63.1406C220.155 64.2656 219.303 65.3359 218.022 65.875C216.67 65.3594 215.811 64.3438 215.397 63.1797C214.897 64.2969 213.944 65.2656 212.616 65.7656L211.991 64.8594C213.748 64.2031 214.803 62.7188 214.819 61.3906V60.625H216.006V61.3906ZM211.631 56.1406C211.623 54.2031 213.163 52.8828 215.272 52.8906C217.381 52.8828 218.905 54.2031 218.913 56.1406C218.905 58.0469 217.381 59.3594 215.272 59.3594C213.163 59.3594 211.623 58.0469 211.631 56.1406ZM212.834 56.1406C212.819 57.4297 213.842 58.3359 215.272 58.3438C216.686 58.3359 217.709 57.4297 217.709 56.1406C217.709 54.8438 216.686 53.9219 215.272 53.9375C213.842 53.9219 212.819 54.8438 212.834 56.1406ZM221.553 60.0156V52.0781H222.772V60.0156H221.553ZM236.03 58.5781V59.5781H231.733V63.1719H237.53V64.2031H224.811V63.1719H230.53V59.5781H226.436V53.2031H235.889V54.2031H227.671V58.5781H236.03ZM251.023 59.7188V60.7344H238.304V59.7188H244.054V58.25H239.96V54.8594H248.148V53.4219H239.913V52.4219H249.382V55.7812H241.179V57.2656H249.679V58.25H245.257V59.7188H251.023ZM239.726 62.7969V61.7969H249.46V65.8281H248.226V62.7969H239.726ZM260.789 59.3906V61.9531C262.133 61.8828 263.492 61.7734 264.773 61.5781L264.867 62.4844C261.687 63.0625 258.273 63.0859 255.773 63.0781L255.601 62.0625C256.765 62.0547 258.14 62.0469 259.586 62V59.3906H260.789ZM256.023 58.9062C258.078 58.2969 259.523 56.7734 259.554 54.9062H256.367V53.8906H259.586V52.1719H260.789V53.8906H264.054V54.9062H260.789C260.828 56.6953 262.312 58.1641 264.367 58.75L263.789 59.7188C262.125 59.2188 260.812 58.1484 260.187 56.7422C259.586 58.2266 258.289 59.3359 256.617 59.8438L256.023 58.9062ZM265.695 65.9844V52.0625H266.914V65.9844H265.695ZM280.172 53.4688V54.8594C280.156 56.5625 280.156 58.4688 279.656 61.2656L278.406 61.125C278.93 58.4688 278.93 56.5234 278.938 54.8594V54.4844H270.375V53.4688H280.172ZM269.031 63.9844V62.9688H274V58H275.203V62.9688H281.688V63.9844H269.031ZM287.086 53.0781C289.266 53.0859 290.813 54.4141 290.821 56.3438C290.813 58.2812 289.266 59.6016 287.086 59.6094C284.891 59.6016 283.328 58.2812 283.336 56.3438C283.328 54.4141 284.891 53.0859 287.086 53.0781ZM282.617 61.875C285.18 61.8828 288.719 61.8594 291.789 61.4062L291.883 62.3125C288.703 62.9062 285.289 62.9219 282.789 62.9219L282.617 61.875ZM284.539 56.3438C284.532 57.6406 285.602 58.5312 287.086 58.5312C288.555 58.5312 289.625 57.6406 289.617 56.3438C289.625 55.0547 288.555 54.1562 287.086 54.1562C285.602 54.1562 284.532 55.0547 284.539 56.3438ZM292.711 65.9844V52.0625H293.93V65.9844H292.711ZM311.259 52.0781V62.3438H310.024V58.5938H306.431C305.79 59.4141 304.759 59.9062 303.571 59.9062C301.493 59.9062 299.954 58.4688 299.962 56.4375C299.954 54.3984 301.493 52.9609 303.571 52.9531C304.751 52.9609 305.767 53.4453 306.415 54.25H310.024V52.0781H311.259ZM301.134 56.4375C301.134 57.8281 302.149 58.8203 303.571 58.8125C304.938 58.8203 305.978 57.8281 305.978 56.4375C305.978 55.0547 304.938 54.0547 303.571 54.0469C302.149 54.0547 301.134 55.0547 301.134 56.4375ZM302.337 65.6562V61.2656H303.571V64.625H311.649V65.6562H302.337ZM306.97 55.2656C307.095 55.625 307.165 56.0156 307.165 56.4375C307.165 56.8438 307.095 57.2266 306.978 57.5781H310.024V55.2656H306.97ZM324.236 52.9688V54.1875C324.236 55.5 324.236 56.9453 323.837 58.9375H325.908V59.9531H320.173V65.9844H318.939V59.9531H313.251V58.9375H322.595C323.017 56.9375 323.017 55.4844 323.017 54.1875V53.9844H314.845V52.9688H324.236ZM338.228 52.0781V62.2344H337.009V52.0781H338.228ZM327.087 56.4531C327.08 54.4531 328.65 53.0547 330.728 53.0469C332.806 53.0547 334.361 54.4531 334.369 56.4531C334.361 58.4766 332.806 59.8828 330.728 59.875C328.65 59.8828 327.08 58.4766 327.087 56.4531ZM328.291 56.4531C328.275 57.8359 329.322 58.7969 330.728 58.7969C332.111 58.7969 333.166 57.8359 333.166 56.4531C333.166 55.0938 332.111 54.125 330.728 54.125C329.322 54.125 328.275 55.0938 328.291 56.4531ZM329.259 65.6562V61.2031H330.478V64.625H338.666V65.6562H329.259ZM346.861 52.9219V56.8125H342.08V58.9688C344.689 58.9766 346.041 58.9219 347.674 58.625L347.799 59.6406C346.072 59.9219 344.658 59.9688 341.846 59.9688H340.861V55.875H345.642V53.9062H340.83V52.9219H346.861ZM342.424 62.3594V61.3594H351.783V65.9844H350.549V62.3594H342.424ZM347.783 58.0312V57.0156H350.549V55.1406H347.783V54.1406H350.549V52.0781H351.783V60.6094H350.549V58.0312H347.783ZM361.479 53.6094V54.3281C361.471 55.4297 361.471 57.2656 361.073 59.8438L359.838 59.7344C360.221 57.4062 360.252 55.7188 360.244 54.6094H354.416V53.6094H361.479ZM353.635 61.875C354.549 61.8672 355.565 61.8594 356.635 61.8359V57.5781H357.838V61.7969C359.377 61.7422 360.955 61.6406 362.401 61.4688L362.463 62.3906C359.541 62.8438 356.276 62.9062 353.791 62.8906L353.635 61.875ZM363.276 65.9531V52.0625H364.494V57.875H366.744V58.9375H364.494V65.9531H363.276ZM375.714 55.0156C375.722 56.75 377.214 58.2344 379.261 58.8281L378.698 59.7969C377.057 59.3125 375.761 58.2812 375.136 56.9297C374.526 58.3906 373.245 59.5234 371.589 60.0625L370.979 59.1094C373.05 58.4766 374.503 56.8672 374.511 55.0156V54.7031H371.37V53.7188H374.511V52H375.745V53.7188H378.854V54.7031H375.714V55.0156ZM373.417 65.7656V61.0156H382.495V65.7656H373.417ZM374.636 64.7656H381.292V62.0156H374.636V64.7656ZM378.448 56.9844V55.9688H381.261V52.0625H382.495V60.2969H381.261V56.9844H378.448ZM395.347 52.0625V56.2031H397.456V57.2344H395.347V62.125H394.128V52.0625H395.347ZM385.144 59.6562V53.2656H391.331V54.2969H386.362V58.625C389.152 58.6328 390.737 58.5469 392.597 58.1719L392.753 59.1875C390.8 59.5625 389.144 59.6562 386.222 59.6562H385.144ZM386.659 65.6562V61.1094H387.862V64.625H395.987V65.6562H386.659ZM413.207 52.0781V62.3438H411.973V58.5938H408.379C407.738 59.4141 406.707 59.9062 405.519 59.9062C403.441 59.9062 401.902 58.4688 401.91 56.4375C401.902 54.3984 403.441 52.9609 405.519 52.9531C406.699 52.9609 407.715 53.4453 408.363 54.25H411.973V52.0781H413.207ZM403.082 56.4375C403.082 57.8281 404.098 58.8203 405.519 58.8125C406.887 58.8203 407.926 57.8281 407.926 56.4375C407.926 55.0547 406.887 54.0547 405.519 54.0469C404.098 54.0547 403.082 55.0547 403.082 56.4375ZM404.285 65.6562V61.2656H405.519V64.625H413.598V65.6562H404.285ZM408.918 55.2656C409.043 55.625 409.113 56.0156 409.113 56.4375C409.113 56.8438 409.043 57.2266 408.926 57.5781H411.973V55.2656H408.918ZM426.184 52.9688V54.1875C426.184 55.5 426.184 56.9453 425.785 58.9375H427.856V59.9531H422.121V65.9844H420.887V59.9531H415.199V58.9375H424.543C424.965 56.9375 424.965 55.4844 424.965 54.1875V53.9844H416.793V52.9688H426.184ZM433.645 55.7969C433.637 58.3359 435.364 60.8828 437.411 61.8125L436.661 62.7812C435.075 62.0156 433.707 60.3672 433.043 58.3906C432.403 60.4844 431.036 62.2422 429.411 63.0625L428.629 62.0312C430.7 61.0859 432.411 58.4297 432.426 55.7969V53.2656H433.645V55.7969ZM438.926 65.9844V52.0625H440.161V65.9844H438.926ZM453.731 52.0625V59.25H452.497V55.6406H449.403V54.625H452.497V52.0625H453.731ZM442.2 58.2969C444.294 57.6016 445.731 55.8594 445.747 53.8281V52.5156H446.95V53.8281C446.934 55.6484 448.372 57.3203 450.403 57.9844L449.747 58.9375C448.208 58.3906 446.981 57.2969 446.364 55.8906C445.77 57.4766 444.513 58.6875 442.872 59.2812L442.2 58.2969ZM444.731 60.9375V59.9531H453.731V63.2656H445.966V64.7812H454.247V65.7656H444.763V62.3281H452.513V60.9375H444.731ZM462.052 52.3125C465.138 52.3125 466.95 53.1641 466.958 54.7031C466.95 56.2812 465.138 57.1328 462.052 57.1406C458.95 57.1328 457.13 56.2812 457.13 54.7031C457.13 53.1641 458.95 52.3125 462.052 52.3125ZM455.724 59.0781V58.0781H468.38V59.0781H455.724ZM457.255 61.2188V60.2812H466.755V63.3906H458.505V64.8281H467.177V65.7969H457.286V62.4844H465.552V61.2188H457.255ZM458.411 54.7031C458.396 55.6719 459.747 56.2031 462.052 56.2031C464.357 56.2031 465.7 55.6719 465.708 54.7031C465.7 53.7891 464.357 53.2422 462.052 53.2344C459.747 53.2422 458.396 53.7891 458.411 54.7031ZM484.412 52.0625V65.9531H483.177V52.0625H484.412ZM473.099 62.3438C476.857 60.5625 478.779 57.8984 479.052 54.5781H473.74V53.5781H480.302C480.287 57.5703 478.427 61.1094 473.771 63.3438L473.099 62.3438ZM497.295 52.0781V56.2812H499.389V57.3125H497.295V62.2812H496.076V52.0781H497.295ZM487.029 59.9375V53.0781H488.233V55.4219H492.279V53.0781H493.498V59.9375H487.029ZM488.233 58.9375H492.279V56.3906H488.233V58.9375ZM488.608 65.6562V61.2812H489.811V64.625H497.936V65.6562H488.608ZM506.272 52.9688C509.17 52.9766 511.35 54.4922 511.35 56.7812C511.35 59.0938 509.17 60.6094 506.272 60.5938C503.373 60.6094 501.194 59.0938 501.194 56.7812C501.194 54.4922 503.373 52.9766 506.272 52.9688ZM499.944 64.1094V63.0781H512.663V64.1094H499.944ZM502.366 56.7812C502.35 58.4688 504.03 59.5938 506.272 59.5938C508.498 59.5938 510.163 58.4688 510.163 56.7812C510.163 55.1172 508.498 53.9609 506.272 53.9688C504.03 53.9609 502.35 55.1172 502.366 56.7812ZM526.171 63.2031V64.2344H513.452V63.2031H519.171V60.5781H515.046V56.2969H523.358V54.1094H515.014V53.0938H524.561V57.2969H516.264V59.5625H524.889V60.5781H520.374V63.2031H526.171ZM535.624 56.3281C535.632 58.6875 537.343 61.0859 539.39 61.9688L538.703 62.9375C537.078 62.2031 535.679 60.6016 535.031 58.6797C534.382 60.7188 532.976 62.4844 531.39 63.2812L530.656 62.3125C532.648 61.3594 534.382 58.7344 534.39 56.3281V54.5156H531.109V53.5H538.937V54.5156H535.624V56.3281ZM540.874 65.9531V52.0625H542.109V65.9531H540.874ZM556.867 59.0469V60.0625H544.164V59.0469H549.883V56.9062H551.086V59.0469H556.867ZM544.929 56.6719C547.383 56.3359 549.867 54.7891 549.867 52.9375V52.2812H551.101V52.9375C551.101 54.7891 553.601 56.3359 556.054 56.6719L555.554 57.6562C553.453 57.2891 551.359 56.1719 550.492 54.5703C549.617 56.1875 547.531 57.2891 545.398 57.6562L544.929 56.6719ZM545.57 62.4062V61.4219H555.258V65.9531H554.023V62.4062H545.57ZM562.5 54.625C562.5 56.4297 563.891 58.1562 565.922 58.8594L565.281 59.8281C563.719 59.2656 562.508 58.1016 561.914 56.6719C561.312 58.2656 560.023 59.5469 558.375 60.1562L557.734 59.1875C559.781 58.4531 561.266 56.6016 561.266 54.6406V54.0312H558.125V53.0312H565.609V54.0312H562.5V54.625ZM559.844 62.1406V61.125H569.188V65.9531H567.953V62.1406H559.844ZM565.172 56.7344V55.7031H567.953V52.0625H569.188V60.3906H567.953V56.7344H565.172ZM582.649 52.0781V62.2344H581.43V52.0781H582.649ZM571.508 56.4531C571.5 54.4531 573.071 53.0547 575.149 53.0469C577.227 53.0547 578.782 54.4531 578.789 56.4531C578.782 58.4766 577.227 59.8828 575.149 59.875C573.071 59.8828 571.5 58.4766 571.508 56.4531ZM572.711 56.4531C572.696 57.8359 573.742 58.7969 575.149 58.7969C576.532 58.7969 577.586 57.8359 577.586 56.4531C577.586 55.0938 576.532 54.125 575.149 54.125C573.742 54.125 572.696 55.0938 572.711 56.4531ZM573.68 65.6562V61.2031H574.899V64.625H583.086V65.6562H573.68ZM596.259 53.5V54.5156H588.399V53.5H591.774V51.9531H592.993V53.5H596.259ZM589.227 57.875C589.212 56.3203 590.517 55.2969 592.368 55.2812C594.22 55.2969 595.532 56.3203 595.54 57.875C595.532 59.4141 594.22 60.4688 592.368 60.4844C590.517 60.4688 589.212 59.4141 589.227 57.875ZM590.368 57.875C590.36 58.8438 591.181 59.5078 592.368 59.5C593.556 59.5078 594.384 58.8438 594.399 57.875C594.384 56.9062 593.556 56.2422 592.368 56.2344C591.181 56.2422 590.36 56.9062 590.368 57.875ZM590.556 62.6875V61.6875H599.899V65.9531H598.665V62.6875H590.556ZM596.243 59.125V58.0938H598.665V56.4844H596.259V55.5H598.665V52.0625H599.899V60.875H598.665V59.125H596.243ZM613.361 52.0781V62.2656H612.142V52.0781H613.361ZM602.032 59.2969C604.134 58.4766 605.564 56.4453 605.564 54.25V52.8594H606.814V54.25C606.798 56.3672 608.243 58.2656 610.314 59.0156L609.673 60C608.064 59.3828 606.814 58.1328 606.197 56.5312C605.595 58.2344 604.329 59.6016 602.704 60.25L602.032 59.2969ZM604.392 65.6562V61.3281H605.611V64.625H613.798V65.6562H604.392ZM626.884 52.0625V65.9531H625.65V52.0625H626.884ZM615.572 62.3438C619.33 60.5625 621.252 57.8984 621.525 54.5781H616.213V53.5781H622.775C622.759 57.5703 620.9 61.1094 616.244 63.3438L615.572 62.3438ZM635.877 52.6719C635.869 54.3984 638.377 55.7266 640.877 56.0312L640.439 56.9688C638.252 56.6719 636.111 55.6953 635.236 54.1953C634.346 55.6953 632.197 56.6719 630.033 56.9688L629.611 56.0312C632.103 55.7266 634.611 54.3984 634.611 52.6719V52.1406H635.877V52.6719ZM628.908 58.875V57.875H641.564V58.875H635.83V60.2656H639.939V63.4219H631.689V64.8281H640.361V65.7969H630.471V62.5H638.736V61.2344H630.439V60.2656H634.611V58.875H628.908ZM657.971 52.0625V65.9531H656.768V58.6875H654.846V65.2656H653.674V52.4375H654.846V57.6719H656.768V52.0625H657.971ZM646.128 62.1094C649.354 60.3047 650.682 57.7656 650.893 54.8906H646.659V53.875H652.096C652.081 57.4062 650.838 60.7422 646.846 62.9688L646.128 62.1094ZM661.417 52.6562V54.6562H665.464V52.6562H666.682V58.7031H660.214V52.6562H661.417ZM661.417 57.7031H665.464V55.6094H661.417V57.7031ZM661.62 60.8906V59.9062H670.479V63.2656H662.854V64.7969H670.995V65.7969H661.651V62.3281H669.261V60.8906H661.62ZM669.261 59.25V52.0625H670.479V55.0781H672.573V56.1094H670.479V59.25H669.261ZM685.034 52.0625V65.9531H683.847V52.0625H685.034ZM673.3 58.0625C673.308 55.1094 674.48 53.2422 676.284 53.2344C677.972 53.2422 679.112 54.8672 679.269 57.4844H681.066V52.3594H682.237V65.25H681.066V58.5H679.277C679.159 61.2031 677.995 62.8984 676.284 62.8906C674.48 62.8984 673.308 61.0156 673.3 58.0625ZM674.456 58.0625C674.441 60.3125 675.159 61.7344 676.284 61.7188C677.417 61.7344 678.136 60.3125 678.128 58.0625C678.136 55.8047 677.417 54.3906 676.284 54.3906C675.159 54.3906 674.441 55.8047 674.456 58.0625ZM702.238 52.0625V65.9531H701.051V58.5938H699.113V65.25H697.941V52.3594H699.113V57.5781H701.051V52.0625H702.238ZM690.847 62.2188V53.6875H696.16V62.2188H690.847ZM692.004 61.2344H695.004V54.6719H692.004V61.2344ZM708.84 55.0469C708.848 56.9219 710.324 58.6094 712.403 59.2656L711.778 60.25C710.16 59.6953 708.879 58.5547 708.246 57.0938C707.645 58.6719 706.34 59.9219 704.684 60.5312L704.043 59.5469C706.129 58.8203 707.598 57.0156 707.606 55.0469V54.2344H704.356V53.2344H712.043V54.2344H708.84V55.0469ZM706.34 65.6562V61.2969H707.559V64.625H715.746V65.6562H706.34ZM714.09 62.2656V52.0781H715.309V62.2656H714.09ZM728.098 52.0625V57.7969H730.426V58.8125H728.098V65.9531H726.879V52.0625H728.098ZM717.27 55.3125V54.2969H720.848V52.2344H722.067V54.2969H725.536V55.3125H717.27ZM718.067 59.6562C718.059 57.7812 719.497 56.4688 721.473 56.4688C723.434 56.4688 724.864 57.7812 724.879 59.6562C724.864 61.5391 723.434 62.8438 721.473 62.8438C719.497 62.8438 718.059 61.5391 718.067 59.6562ZM719.239 59.6562C719.231 60.9219 720.176 61.8125 721.473 61.7969C722.754 61.8125 723.692 60.9219 723.708 59.6562C723.692 58.3984 722.754 57.4922 721.473 57.5C720.176 57.4922 719.231 58.3984 719.239 59.6562ZM741.997 53.4688V54.8594C741.981 56.5625 741.981 58.4688 741.481 61.2656L740.231 61.125C740.755 58.4688 740.755 56.5234 740.763 54.8594V54.4844H732.2V53.4688H741.997ZM730.856 63.9844V62.9688H735.825V58H737.028V62.9688H743.513V63.9844H730.856ZM4.71875 87.3906C4.71094 88.6172 5.375 89.9219 6.69531 90.6719C8.02344 89.8516 8.72656 88.4609 8.71875 87.3906V86.625H9.92188V87.3906C9.91406 88.8203 10.9688 90.2422 12.75 90.8594L12.1406 91.7656C10.75 91.2734 9.78125 90.3047 9.29688 89.1406C8.86719 90.2656 8.01562 91.3359 6.73438 91.875C5.38281 91.3594 4.52344 90.3438 4.10938 89.1797C3.60938 90.2969 2.65625 91.2656 1.32812 91.7656L0.703125 90.8594C2.46094 90.2031 3.51562 88.7188 3.53125 87.3906V86.625H4.71875V87.3906ZM0.34375 82.1406C0.335938 80.2031 1.875 78.8828 3.98438 78.8906C6.09375 78.8828 7.61719 80.2031 7.625 82.1406C7.61719 84.0469 6.09375 85.3594 3.98438 85.3594C1.875 85.3594 0.335938 84.0469 0.34375 82.1406ZM1.54688 82.1406C1.53125 83.4297 2.55469 84.3359 3.98438 84.3438C5.39844 84.3359 6.42188 83.4297 6.42188 82.1406C6.42188 80.8438 5.39844 79.9219 3.98438 79.9375C2.55469 79.9219 1.53125 80.8438 1.54688 82.1406ZM10.2656 86.0156V78.0781H11.4844V86.0156H10.2656ZM16.3519 86.4062V88.0312H23.2894V86.4062H24.5238V91.7656H15.1331V86.4062H16.3519ZM13.5238 85.4219V84.4062H26.18V85.4219H13.5238ZM14.2425 82.4375C16.7191 82.1016 19.2269 80.6406 19.2269 78.875V78.2188H20.4925V78.875C20.4847 80.5859 23.0159 82.125 25.4613 82.4375L25.0081 83.4219C22.8597 83.1016 20.7425 82.0078 19.8597 80.4531C18.9769 82.0156 16.8519 83.1016 14.7113 83.4219L14.2425 82.4375ZM16.3519 90.7812H23.2894V89H16.3519V90.7812ZM38.485 78.0625V91.9531H37.2663V78.0625H38.485ZM27.9381 88.375V79.4375H29.1413V87.3125C31.2663 87.2969 33.4538 87.1328 35.7819 86.6406L35.9538 87.6875C33.485 88.2031 31.2897 88.375 29.0631 88.375H27.9381ZM51.29 78.0625V83.5625H53.6181V84.5938H51.29V91.9844H50.0713V78.0625H51.29ZM41.1494 88.5V79.4219H47.6338V80.4375H42.3681V87.4688C44.8838 87.4609 46.6572 87.3516 48.7275 86.9688L48.8838 88.0312C46.7041 88.4219 44.8838 88.5 42.2431 88.5H41.1494ZM55.5169 90.7812C54.97 90.7734 54.5013 90.3203 54.5169 89.7656C54.5013 89.2188 54.97 88.7656 55.5169 88.7656C56.0716 88.7656 56.5247 89.2188 56.5169 89.7656C56.5247 90.3203 56.0716 90.7734 55.5169 90.7812Z" fill="#00A7E1"/>
</svg>
