<svg width="1422" height="168" viewBox="0 0 1422 168" fill="none" xmlns="http://www.w3.org/2000/svg">
<path d="M29.7597 141.84L-0.000261009 3.12013H35.0397L60.4797 131.04C60.7197 132 60.9597 132.24 61.1997 132.24C61.4397 132.24 61.6797 132 61.9197 131.04L85.1997 28.8001C89.5197 9.12014 99.3597 0.72013 113.76 0.72013C128.16 0.72013 137.76 9.12014 142.32 28.5601L166.08 131.04C166.32 132 166.32 132.24 166.8 132.24C167.04 132.24 167.04 131.76 167.28 131.04L191.76 3.12013H226.8L198 141.12C194.4 158.16 183.84 168 168.24 168C153.84 168 142.32 158.88 138.48 142.56L113.76 36.4801L89.2797 143.28C85.6797 158.88 73.6797 168 59.7597 168C44.8797 168 33.3597 158.88 29.7597 141.84ZM222.12 164.64L264.84 25.9201C270.36 8.40013 284.76 0.000124931 299.88 0.000124931C315.24 0.000124931 329.64 8.40013 335.16 25.9201L377.88 164.64H342.12L332.76 131.52L267.24 131.76L257.88 164.64H222.12ZM294.84 36.2401L276.36 100.32H323.64L305.4 36.2401C304.44 32.8801 303 31.4401 300.12 31.4401C297.48 31.4401 295.8 32.8801 294.84 36.2401ZM501.088 3.12013V35.5201H453.568V164.64H418.528V35.5201H371.008V3.12013H501.088ZM636.997 164.64H550.117C527.797 164.64 519.157 153.12 519.157 134.64V33.3601C519.157 14.8801 527.797 3.12013 550.117 3.12013H635.557V34.5601H554.197V68.1601H630.517V99.6001H554.197V133.2H636.997V164.64ZM701.083 164.64H666.523V3.12013H728.683C765.163 3.12013 793.243 20.1601 793.243 54.4801C793.243 76.5601 780.283 93.6001 759.643 99.1201C769.963 104.88 775.963 115.92 784.363 132.72L799.963 164.64H762.043L747.643 135.84C740.203 120.96 733.243 113.04 715.003 113.04H701.323L701.083 164.64ZM729.163 35.5201H701.563L701.323 81.8401H728.683C745.243 81.8401 757.243 73.2001 757.243 58.0801C757.243 42.2401 745.003 35.5201 729.163 35.5201ZM915.795 164.64H880.275L902.115 25.6801C904.995 8.88013 916.755 0.000124931 933.075 0.000124931C947.475 0.000124931 959.715 6.24013 963.555 21.8401L990.675 122.64C990.675 123.36 990.915 123.36 990.915 123.36C991.155 123.36 991.395 123.36 991.395 122.64L1018.03 22.5601C1022.11 6.96014 1034.59 0.000124931 1049.23 0.000124931C1065.31 0.000124931 1076.83 9.12014 1079.23 26.4001L1099.15 164.64H1063.63L1048.03 37.9201C1048.03 36.7201 1047.79 36.0001 1046.83 36.0001C1046.11 36.0001 1045.63 36.4801 1045.39 37.4401L1015.39 144.48C1012.03 156.72 1002.43 162.72 990.915 162.72C979.875 162.72 969.555 156.96 966.675 145.2L936.675 37.4401C936.435 36.2401 935.955 36.0001 935.475 36.0001C934.755 36.0001 934.035 36.4801 934.035 37.6801L915.795 164.64ZM1111.6 164.64L1154.32 25.9201C1159.84 8.40013 1174.24 0.000124931 1189.36 0.000124931C1204.72 0.000124931 1219.12 8.40013 1224.64 25.9201L1267.36 164.64H1231.6L1222.24 131.52L1156.72 131.76L1147.36 164.64H1111.6ZM1184.32 36.2401L1165.84 100.32H1213.12L1194.88 36.2401C1193.92 32.8801 1192.48 31.4401 1189.6 31.4401C1186.96 31.4401 1185.28 32.8801 1184.32 36.2401ZM1325.25 164.4L1290.21 164.64V3.12013H1347.09C1392.93 3.12013 1421.01 24.4801 1421.01 61.9201C1421.01 100.8 1393.41 121.92 1349.01 121.92H1325.25V164.4ZM1348.05 35.5201H1325.25V89.5201H1348.05C1371.09 89.5201 1385.01 80.6401 1385.01 61.9201C1385.01 44.1601 1371.09 35.5201 1348.05 35.5201Z" fill="#00A7E1"/>
</svg>
