<svg width="480" height="640" viewBox="0 0 480 640" fill="none" xmlns="http://www.w3.org/2000/svg">
<path d="M187.68 24.16V34.96H171.84V78H160.16V34.96H144.32V24.16H187.68ZM200.651 78H189.291V55.28C189.291 45.12 195.051 37.36 206.811 37.36C209.371 37.36 212.171 37.84 214.171 38.72V49.76C212.251 48.64 209.931 48.08 207.851 48.08C203.371 48.08 200.651 50.96 200.651 55.68V78ZM238.617 68.08C244.457 68.08 247.417 62.88 247.417 56.72V38.4H258.777V58.08C258.777 69.68 251.897 79.04 238.617 79.04C225.417 79.04 218.537 69.68 218.537 58.08V38.4H229.897V56.8C229.897 62.88 232.777 68.08 238.617 68.08ZM281.767 79.12C273.527 79.12 267.767 76.08 264.487 70.16L272.887 65.44C274.567 68.64 277.207 70 281.207 70C284.887 70 287.207 68.56 287.207 66.24C287.207 59.84 265.447 65.36 265.447 50.08C265.447 42.96 271.687 37.36 281.447 37.36C289.927 37.36 295.047 41.36 297.447 45.92L289.047 50.64C287.767 47.76 284.887 46.4 281.687 46.4C278.887 46.4 276.807 47.76 276.807 49.84C276.807 56.24 298.567 51.12 298.567 66C298.567 74 290.807 79.12 281.767 79.12ZM325.203 79.12C313.763 79.12 308.083 72.24 308.083 62.32V48H300.803V38.4H308.083V28.32H319.443V38.4H333.443V48H319.443V62C319.443 66.4 322.083 68.96 326.243 68.96C328.563 68.96 331.523 68.24 333.443 67.04V77.2C331.443 78.48 328.003 79.12 325.203 79.12Z" fill="black"/>
<path d="M107.867 529.141C112.473 529.152 115.379 530.605 115.391 533.125C115.379 535.586 112.473 537.062 107.867 537.062C103.309 537.062 100.367 535.586 100.367 533.125C100.367 530.605 103.309 529.152 107.867 529.141ZM98.3752 527.617V525.508H105.828V521.664H108.406V525.508H117.594V527.617H98.3752ZM100.578 518.969V516.906H115.25V518.664C115.262 520.34 115.262 522.121 114.664 524.289L112.086 524.055C112.613 522.004 112.649 520.504 112.649 518.969H100.578ZM102.992 533.125C102.969 534.367 104.809 535.047 107.867 535.047C110.938 535.047 112.789 534.367 112.813 533.125C112.789 531.836 110.938 531.109 107.867 531.109C104.809 531.109 102.969 531.836 102.992 533.125ZM136.239 515.922V531.227H133.614V515.922H136.239ZM118.965 522.602C118.965 519.52 121.462 517.316 124.684 517.305C127.907 517.316 130.391 519.52 130.38 522.602C130.391 525.73 127.907 527.922 124.684 527.922C121.462 527.922 118.965 525.73 118.965 522.602ZM121.52 522.602C121.508 524.477 122.868 525.648 124.684 525.648C126.454 525.648 127.825 524.477 127.825 522.602C127.825 520.773 126.454 519.578 124.684 519.578C122.868 519.578 121.508 520.773 121.52 522.602ZM122.223 536.664V529.68H124.848V534.555H136.825V536.664H122.223ZM151.181 522.555V524.641H147.243V527.043C149.013 526.973 150.771 526.855 152.423 526.68L152.61 528.555C148.11 529.176 143.247 529.293 139.298 529.305L138.946 527.219C140.693 527.207 142.626 527.195 144.618 527.137V524.641H140.775V517.211H151.017V519.32H143.4V522.555H151.181ZM142.321 536.664V530.641H144.946V534.555H157.134V536.664H142.321ZM153.9 531.812V515.898H156.525V531.812H153.9ZM183.666 526.867V528.953H175.486V532.609H172.908V528.953H164.307V526.867H183.666ZM166.65 536.664V530.828H169.229V534.555H181.533V536.664H166.65ZM166.838 525.203V516.578H169.416V518.969H178.557V516.578H181.135V525.203H166.838ZM169.416 523.141H178.557V520.914H169.416V523.141ZM192.28 519.25C192.28 521.969 193.979 524.57 197.249 525.625L195.842 527.711C193.534 526.902 191.905 525.297 191.003 523.258C190.065 525.484 188.342 527.219 185.905 528.109L184.499 526.023C187.944 524.887 189.655 522.109 189.655 519.086V517H192.28V519.25ZM187.897 531.578V529.516H202.335V537.086H199.733V531.578H187.897ZM195.514 522.156V520.023H199.733V515.898H202.335V528.484H199.733V522.156H195.514ZM227.812 529.422V537.086H225.21V531.484H213.375V529.422H227.812ZM210.351 522.203C210.351 519.203 212.753 517.047 215.953 517.07C217.699 517.059 219.222 517.715 220.218 518.828H225.21V515.898H227.812V528.414H225.21V525.602H220.242C219.234 526.727 217.71 527.406 215.953 527.406C212.753 527.406 210.351 525.25 210.351 522.203ZM212.835 522.203C212.835 524.043 214.136 525.191 215.953 525.203C217.687 525.191 219.011 524.043 219.023 522.203C219.011 520.434 217.687 519.262 215.953 519.273C214.136 519.262 212.835 520.434 212.835 522.203ZM221.343 523.492H225.21V520.961H221.355C221.449 521.359 221.507 521.77 221.507 522.203C221.507 522.648 221.449 523.082 221.343 523.492ZM250.02 518.922V521.078H247.043V523.375H250.02V525.555H247.043V528.719H244.441V515.922H247.043V518.922H250.02ZM231.129 519.273V517.211H240.809V523.305H233.754V525.531C237.34 525.508 239.824 525.379 242.707 524.898L242.988 526.984C239.836 527.559 237.07 527.676 232.887 527.664H231.152V521.336H238.254V519.273H231.129ZM232.957 533.125C232.945 530.629 235.688 529.129 240.129 529.117C244.5 529.129 247.242 530.629 247.254 533.125C247.242 535.609 244.5 537.039 240.129 537.039C235.688 537.039 232.945 535.609 232.957 533.125ZM235.512 533.125C235.5 534.391 237.164 535.082 240.129 535.07C243.047 535.082 244.676 534.391 244.676 533.125C244.676 531.848 243.047 531.156 240.129 531.156C237.164 531.156 235.5 531.848 235.512 533.125ZM268.219 515.898V537.109H265.594V515.898H268.219ZM251.274 524.922C251.262 520.352 253.594 517.445 256.805 517.445C259.981 517.445 262.325 520.352 262.336 524.922C262.325 529.527 259.981 532.422 256.805 532.422C253.594 532.422 251.262 529.527 251.274 524.922ZM253.782 524.922C253.782 528.18 255.012 530.066 256.805 530.078C258.586 530.066 259.805 528.18 259.805 524.922C259.805 521.688 258.586 519.789 256.805 519.789C255.012 519.789 253.782 521.688 253.782 524.922ZM286.83 517.727V527.734H276.798V517.727H286.83ZM279.212 536.664V529.867H281.814V534.555H293.626V536.664H279.212ZM279.353 525.672H284.275V519.812H279.353V525.672ZM290.181 531.367V515.898H292.783V522.109H295.736V524.289H292.783V531.367H290.181ZM313.537 525.836V527.922H298.678V517.75H313.373V519.859H301.256V525.836H313.537ZM296.334 534.391V532.234H315.693V534.391H296.334ZM333.752 521.898V523.961H319.08V516.672H321.659V521.898H333.752ZM316.573 528.484V526.422H335.932V528.484H316.573ZM318.893 536.594V530.359H321.495V534.484H333.893V536.594H318.893ZM359.722 515.922V531.391H357.097V515.922H359.722ZM342.097 526.398C345.531 525.191 347.288 522.203 347.277 519.156V517.094H349.972V519.156C349.96 522.109 351.695 524.898 355.058 526.023L353.722 528.086C351.308 527.242 349.585 525.555 348.648 523.387C347.71 525.707 345.953 527.559 343.456 528.461L342.097 526.398ZM345.706 536.664V529.914H348.331V534.555H360.308V536.664H345.706ZM374.734 517.797V523.844H366.531V525.953H375.25V527.992H370.726V530.922C372.555 530.852 374.383 530.734 376.117 530.547L376.328 532.445C371.664 533.184 366.754 533.242 362.758 533.195L362.43 531.039C364.187 531.051 366.121 531.051 368.101 531.004V527.992H363.906V521.922H372.156V519.859H363.883V517.797H374.734ZM377.383 537.109V515.898H379.984V537.109H377.383Z" fill="black"/>
<path d="M31.9822 576.344V577.375H26.1853V582.266H24.9822V577.375H19.2634V576.344H31.9822ZM20.7009 572C20.7088 570.117 22.6697 568.945 25.5916 568.938C28.5056 568.945 30.4822 570.117 30.4822 572C30.4822 573.852 28.5056 575.023 25.5916 575.016C22.6697 575.023 20.7088 573.852 20.7009 572ZM21.9666 572C21.9509 573.234 23.4275 574.031 25.5916 574.031C27.7556 574.031 29.2244 573.234 29.2322 572C29.2244 570.742 27.7556 569.938 25.5916 569.938C23.4275 569.938 21.9509 570.742 21.9666 572ZM44.2559 568.375V582.297H43.0372V568.375H44.2559ZM33.5684 570.688V569.672H40.0372V574.609H34.8497V577.891C37.1544 577.898 39.2091 577.789 41.6934 577.391L41.8184 578.422C39.2638 578.82 37.1544 578.922 34.7559 578.922H33.5997V573.609H38.8028V570.688H33.5684ZM57.5297 572.594V573.578H48.0141V568.891H49.2328V572.594H57.5297ZM46.2797 576.469V575.469H58.9984V576.469H46.2797ZM47.9359 581.922V577.891H49.1547V580.906H57.6078V581.922H47.9359ZM76.1553 574.25V575.25H70.4209V576.625H74.5303V579.734H66.2803V581.141H74.9522V582.109H65.0616V578.812H73.3272V577.578H65.0303V576.625H69.2022V575.25H63.4991V574.25H76.1553ZM65.1397 573.078V568.844H74.5147V573.078H65.1397ZM66.3584 572.094H73.2959V569.828H66.3584V572.094ZM84.7103 569.922V570.641C84.7025 571.742 84.7025 573.578 84.3041 576.156L83.0697 576.047C83.4525 573.719 83.4838 572.031 83.4759 570.922H77.6478V569.922H84.7103ZM76.8666 578.188C77.7806 578.18 78.7963 578.172 79.8666 578.148V573.891H81.0697V578.109C82.6088 578.055 84.1869 577.953 85.6322 577.781L85.6947 578.703C82.7728 579.156 79.5072 579.219 77.0228 579.203L76.8666 578.188ZM86.5072 582.266V568.375H87.7259V574.188H89.9759V575.25H87.7259V582.266H86.5072ZM100.492 577.156C103.469 577.156 105.359 578.094 105.367 579.703C105.359 581.297 103.469 582.234 100.492 582.234C97.5156 582.234 95.625 581.297 95.6328 579.703C95.625 578.094 97.5156 577.156 100.492 577.156ZM94.2266 575.859V574.859H99.4609V572.172H100.664V574.859H106.867V575.859H94.2266ZM95.7266 570.094V569.094H105.258V570.266C105.25 571.391 105.25 572.516 104.867 573.953L103.664 573.812C104.039 572.383 104.039 571.352 104.039 570.266V570.094H95.7266ZM96.8516 579.703C96.8438 580.672 98.2813 581.266 100.492 581.266C102.711 581.266 104.133 580.672 104.148 579.703C104.133 578.711 102.711 578.102 100.492 578.094C98.2813 578.102 96.8438 578.711 96.8516 579.703ZM119.203 568.375V582.266H117.969V568.375H119.203ZM107.891 578.656C111.649 576.875 113.571 574.211 113.844 570.891H108.532V569.891H115.094C115.078 573.883 113.219 577.422 108.563 579.656L107.891 578.656ZM137.626 575.359V576.375H124.923V575.359H130.642V573.219H131.845V575.359H137.626ZM125.688 572.984C128.142 572.648 130.626 571.102 130.626 569.25V568.594H131.86V569.25C131.86 571.102 134.36 572.648 136.813 572.984L136.313 573.969C134.212 573.602 132.118 572.484 131.251 570.883C130.376 572.5 128.29 573.602 126.157 573.969L125.688 572.984ZM126.329 578.719V577.734H136.017V582.266H134.782V578.719H126.329ZM154.845 579.469V580.484H142.127V579.469H147.845V576.469H143.627V569.359H144.861V571.875H152.08V569.359H153.283V576.469H149.048V579.469H154.845ZM144.861 575.469H152.08V572.875H144.861V575.469ZM167.088 568.375V582.297H165.853V568.375H167.088ZM156.15 574.297C156.158 571.344 157.627 569.461 159.697 569.453C161.76 569.461 163.252 571.344 163.244 574.297C163.252 577.258 161.76 579.133 159.697 579.125C157.627 579.133 156.158 577.258 156.15 574.297ZM157.338 574.297C157.338 576.555 158.307 578.039 159.697 578.031C161.096 578.039 162.057 576.555 162.057 574.297C162.057 572.039 161.096 570.555 159.697 570.547C158.307 570.555 157.338 572.039 157.338 574.297ZM174.112 572.641C174.119 575 175.83 577.398 177.877 578.281L177.19 579.25C175.565 578.516 174.166 576.914 173.518 574.992C172.869 577.031 171.463 578.797 169.877 579.594L169.143 578.625C171.135 577.672 172.869 575.047 172.877 572.641V570.828H169.596V569.812H177.424V570.828H174.112V572.641ZM179.362 582.266V568.375H180.596V582.266H179.362ZM190.222 569.172C192.3 569.18 193.831 570.5 193.831 572.375C193.831 574.273 192.3 575.586 190.222 575.594C188.151 575.586 186.604 574.273 186.612 572.375C186.604 570.5 188.151 569.18 190.222 569.172ZM187.815 572.375C187.808 573.648 188.854 574.578 190.222 574.578C191.597 574.578 192.636 573.648 192.628 572.375C192.636 571.125 191.597 570.203 190.222 570.203C188.854 570.203 187.808 571.125 187.815 572.375ZM187.831 581.891V576.828H189.018V580.883C189.823 580.852 190.893 580.734 191.878 580.406L192.065 581.391C190.714 581.836 189.393 581.898 188.487 581.891H187.831ZM191.581 577.844V576.891H194.503V575.656H195.706V576.891H198.597V577.844H191.581ZM192.503 580.281C192.495 579.078 193.55 578.312 195.081 578.312C196.604 578.312 197.675 579.078 197.69 580.281C197.675 581.484 196.604 582.234 195.081 582.234C193.55 582.234 192.495 581.484 192.503 580.281ZM193.597 580.281C193.597 580.938 194.214 581.352 195.081 581.359C195.948 581.352 196.565 580.938 196.565 580.281C196.565 579.641 195.948 579.211 195.081 579.203C194.214 579.211 193.597 579.641 193.597 580.281ZM195.987 575.328V568.375H197.206V571.516H199.3V572.531H197.206V575.328H195.987ZM211.089 572.594V573.578H201.573V568.891H202.792V572.594H211.089ZM199.839 576.469V575.469H212.558V576.469H199.839ZM201.495 581.922V577.891H202.714V580.906H211.167V581.922H201.495ZM228.574 568.391V578.672H227.34V574.938H224.058V576.297H217.762V569.312H218.98V571.781H222.855V569.312H224.058V570.938H227.34V568.391H228.574ZM218.98 575.281H222.855V572.75H218.98V575.281ZM219.59 581.969V577.656H220.824V580.938H228.887V581.969H219.59ZM224.058 573.922H227.34V571.969H224.058V573.922ZM241.348 568.375V574.297H243.567V575.328H241.348V582.266H240.113V568.375H241.348ZM230.395 578.562C231.528 578.562 232.848 578.555 234.223 578.516V576.984C232.606 576.797 231.551 575.844 231.567 574.469C231.551 572.898 232.879 571.883 234.848 571.891C236.785 571.883 238.137 572.898 238.145 574.469C238.137 575.852 237.067 576.797 235.457 576.984V578.469C236.746 578.406 238.059 578.297 239.27 578.125L239.348 579.062C236.317 579.578 233.035 579.609 230.598 579.609L230.395 578.562ZM230.645 571.078V570.078H234.223V568.406H235.457V570.078H239.02V571.078H230.645ZM232.707 574.469C232.715 575.43 233.559 576.062 234.848 576.047C236.113 576.062 236.965 575.43 236.973 574.469C236.965 573.5 236.113 572.844 234.848 572.844C233.559 572.844 232.715 573.5 232.707 574.469ZM256.778 574.828V575.797H244.059V574.828H256.778ZM245.59 577.828V576.906H255.184V579.859H246.84V581.188H255.637V582.078H245.606V579.016H253.965V577.828H245.59ZM245.668 569.688V568.797H255.137V571.672H246.934V572.891H255.387V573.781H245.715V570.828H253.903V569.688H245.668ZM268.982 569.922V570.641C268.974 571.742 268.974 573.578 268.575 576.156L267.341 576.047C267.724 573.719 267.755 572.031 267.747 570.922H261.919V569.922H268.982ZM261.138 578.188C262.052 578.18 263.068 578.172 264.138 578.148V573.891H265.341V578.109C266.88 578.055 268.458 577.953 269.903 577.781L269.966 578.703C267.044 579.156 263.778 579.219 261.294 579.203L261.138 578.188ZM270.778 582.266V568.375H271.997V574.188H274.247V575.25H271.997V582.266H270.778ZM283.099 569.875V570.875H274.818V569.875H278.349V568.312H279.568V569.875H283.099ZM275.615 574.109C275.607 572.578 276.951 571.609 278.958 571.594C280.951 571.609 282.287 572.578 282.302 574.109C282.287 575.617 280.951 576.602 278.958 576.609C276.951 576.602 275.607 575.617 275.615 574.109ZM276.552 578.828V577.828H285.646V582.266H284.427V578.828H276.552ZM276.787 574.109C276.779 575.031 277.646 575.633 278.958 575.625C280.255 575.633 281.13 575.031 281.146 574.109C281.13 573.164 280.255 572.555 278.958 572.547C277.646 572.555 276.779 573.164 276.787 574.109ZM284.427 577.062V568.375H285.646V572.234H287.74V573.266H285.646V577.062H284.427ZM293.123 570.938C293.123 572.742 294.513 574.469 296.545 575.172L295.904 576.141C294.342 575.578 293.131 574.414 292.537 572.984C291.935 574.578 290.646 575.859 288.998 576.469L288.357 575.5C290.404 574.766 291.888 572.914 291.888 570.953V570.344H288.748V569.344H296.232V570.344H293.123V570.938ZM290.467 578.453V577.438H299.81V582.266H298.576V578.453H290.467ZM295.795 573.047V572.016H298.576V568.375H299.81V576.703H298.576V573.047H295.795ZM308.131 569.281C311.029 569.289 313.209 570.805 313.209 573.094C313.209 575.406 311.029 576.922 308.131 576.906C305.232 576.922 303.053 575.406 303.053 573.094C303.053 570.805 305.232 569.289 308.131 569.281ZM301.803 580.422V579.391H314.522V580.422H301.803ZM304.225 573.094C304.209 574.781 305.889 575.906 308.131 575.906C310.357 575.906 312.022 574.781 312.022 573.094C312.022 571.43 310.357 570.273 308.131 570.281C305.889 570.273 304.209 571.43 304.225 573.094ZM328.03 579.516V580.547H315.311V579.516H321.03V576.891H316.905V572.609H325.217V570.422H316.873V569.406H326.42V573.609H318.123V575.875H326.748V576.891H322.233V579.516H328.03ZM345.218 575.734V576.734H339.562V579.453H338.343V576.734H332.499V575.734H345.218ZM334.124 581.969V578.172H335.343V580.938H343.796V581.969H334.124ZM334.202 574.375V568.828H335.421V570.609H342.296V568.828H343.515V574.375H334.202ZM335.421 573.375H342.296V571.547H335.421V573.375ZM350.757 570.609C350.749 572.523 352.179 574.289 354.195 574.984L353.523 575.969C351.984 575.398 350.773 574.219 350.179 572.734C349.593 574.375 348.343 575.656 346.71 576.297L346.038 575.281C348.148 574.539 349.538 572.703 349.554 570.562V569.094H350.757V570.609ZM348.195 578.344V577.359H357.538V582.266H356.304V578.344H348.195ZM353.21 572.328V571.297H356.304V568.375H357.538V576.594H356.304V572.328H353.21ZM370.281 568.375V574.109H372.609V575.125H370.281V582.266H369.062V568.375H370.281ZM359.453 571.625V570.609H363.031V568.547H364.25V570.609H367.718V571.625H359.453ZM360.25 575.969C360.242 574.094 361.679 572.781 363.656 572.781C365.617 572.781 367.047 574.094 367.062 575.969C367.047 577.852 365.617 579.156 363.656 579.156C361.679 579.156 360.242 577.852 360.25 575.969ZM361.422 575.969C361.414 577.234 362.359 578.125 363.656 578.109C364.937 578.125 365.875 577.234 365.89 575.969C365.875 574.711 364.937 573.805 363.656 573.812C362.359 573.805 361.414 574.711 361.422 575.969ZM384.18 569.781V571.172C384.164 572.875 384.164 574.781 383.664 577.578L382.414 577.438C382.938 574.781 382.938 572.836 382.945 571.172V570.797H374.383V569.781H384.18ZM373.039 580.297V579.281H378.008V574.312H379.211V579.281H385.695V580.297H373.039ZM397.415 569.281C397.407 572.766 394.915 575.266 390.915 576.406L390.399 575.438C393.719 574.5 395.844 572.656 396.11 570.297H391.118V569.281H397.415ZM392.743 582.078V576.906H401.758V582.078H392.743ZM393.93 581.078H400.54V577.891H393.93V581.078ZM397.446 573V571.969H400.524V568.391H401.758V576.312H400.524V573H397.446ZM416.407 574.984V576H403.751V574.984H416.407ZM404.47 573.172C406.892 572.891 409.227 571.695 409.282 570.109H404.907V569.094H415.282V570.109H410.876C410.931 571.68 413.243 572.891 415.704 573.172L415.251 574.156C412.977 573.867 410.845 572.844 410.079 571.305C409.313 572.844 407.196 573.867 404.907 574.156L404.47 573.172ZM405.282 579.734C405.274 578.141 407.079 577.219 410.079 577.219C413.056 577.219 414.845 578.141 414.86 579.734C414.845 581.344 413.056 582.234 410.079 582.234C407.079 582.234 405.274 581.344 405.282 579.734ZM406.532 579.734C406.517 580.703 407.852 581.258 410.079 581.25C412.282 581.258 413.618 580.703 413.626 579.734C413.618 578.758 412.282 578.203 410.079 578.188C407.852 578.203 406.517 578.758 406.532 579.734ZM428.118 568.375V571.938H430.212V572.984H428.118V576.453H426.9V568.375H428.118ZM417.29 570.828V569.812H420.822V568.25H422.04V569.812H425.572V570.828H417.29ZM418.087 573.906C418.079 572.422 419.415 571.477 421.431 571.469C423.423 571.477 424.759 572.422 424.775 573.906C424.759 575.391 423.423 576.352 421.431 576.344C419.415 576.352 418.079 575.391 418.087 573.906ZM419.259 573.906C419.251 574.812 420.118 575.406 421.431 575.406C422.728 575.406 423.603 574.812 423.618 573.906C423.603 573.008 422.728 572.406 421.431 572.422C420.118 572.406 419.251 573.008 419.259 573.906ZM419.337 582.078V577.062H420.556V578.547H426.9V577.062H428.118V582.078H419.337ZM420.556 581.094H426.9V579.516H420.556V581.094ZM442.22 568.375V582.266H441.002V568.375H442.22ZM431.673 578.688V569.75H432.877V577.625C435.002 577.609 437.189 577.445 439.517 576.953L439.689 578C437.22 578.516 435.025 578.688 432.798 578.688H431.673ZM455.025 568.375V573.875H457.353V574.906H455.025V582.297H453.807V568.375H455.025ZM444.885 578.812V569.734H451.369V570.75H446.103V577.781C448.619 577.773 450.393 577.664 452.463 577.281L452.619 578.344C450.439 578.734 448.619 578.812 445.978 578.812H444.885ZM459.252 581.094C458.705 581.086 458.237 580.633 458.252 580.078C458.237 579.531 458.705 579.078 459.252 579.078C459.807 579.078 460.26 579.531 460.252 580.078C460.26 580.633 459.807 581.086 459.252 581.094ZM7.16937 603.156C10.1459 603.156 12.0366 604.094 12.0444 605.703C12.0366 607.297 10.1459 608.234 7.16937 608.234C4.19281 608.234 2.30219 607.297 2.31 605.703C2.30219 604.094 4.19281 603.156 7.16937 603.156ZM0.903748 601.859V600.859H6.13812V598.172H7.34125V600.859H13.5444V601.859H0.903748ZM2.40375 596.094V595.094H11.935V596.266C11.9272 597.391 11.9272 598.516 11.5444 599.953L10.3412 599.812C10.7162 598.383 10.7162 597.352 10.7162 596.266V596.094H2.40375ZM3.52875 605.703C3.52094 606.672 4.95844 607.266 7.16937 607.266C9.38812 607.266 10.81 606.672 10.8256 605.703C10.81 604.711 9.38812 604.102 7.16937 604.094C4.95844 604.102 3.52094 604.711 3.52875 605.703ZM25.865 594.391V604.547H24.6462V594.391H25.865ZM14.7244 598.766C14.7166 596.766 16.2869 595.367 18.365 595.359C20.4431 595.367 21.9978 596.766 22.0056 598.766C21.9978 600.789 20.4431 602.195 18.365 602.188C16.2869 602.195 14.7166 600.789 14.7244 598.766ZM15.9275 598.766C15.9119 600.148 16.9587 601.109 18.365 601.109C19.7478 601.109 20.8025 600.148 20.8025 598.766C20.8025 597.406 19.7478 596.438 18.365 596.438C16.9587 596.438 15.9119 597.406 15.9275 598.766ZM16.8962 607.969V603.516H18.115V606.938H26.3025V607.969H16.8962ZM36.5375 598.109C36.5297 600.648 38.2562 603.195 40.3031 604.125L39.5531 605.094C37.9672 604.328 36.6 602.68 35.9359 600.703C35.2953 602.797 33.9281 604.555 32.3031 605.375L31.5219 604.344C33.5922 603.398 35.3031 600.742 35.3187 598.109V595.578H36.5375V598.109ZM41.8187 608.297V594.375H43.0531V608.297H41.8187ZM56.6237 594.375V602.797H55.3894V599.625H53.03V598.609H55.3894V594.375H56.6237ZM45.1237 596.844V595.844H48.5769V594.25H49.78V595.844H53.2331V596.844H45.1237ZM45.9519 600.031C45.9519 598.578 47.2878 597.562 49.1706 597.562C51.0612 597.562 52.3894 598.578 52.405 600.031C52.3894 601.531 51.0612 602.516 49.1706 602.516C47.2878 602.516 45.9519 601.531 45.9519 600.031ZM47.1237 600.031C47.1237 600.953 47.9597 601.562 49.1706 601.578C50.3816 601.562 51.2175 600.953 51.2175 600.031C51.2175 599.141 50.3816 598.516 49.1706 598.516C47.9597 598.516 47.1237 599.141 47.1237 600.031ZM47.5456 608.078V603.547H56.6237V608.078H47.5456ZM48.7644 607.078H55.4206V604.531H48.7644V607.078ZM70.1006 594.375V608.266H68.8662V594.375H70.1006ZM58.7881 604.656C62.5459 602.875 64.4678 600.211 64.7412 596.891H59.4287V595.891H65.9912C65.9756 599.883 64.1162 603.422 59.46 605.656L58.7881 604.656ZM79.8275 595.453V596.188C79.8197 597.102 79.8197 598.484 79.4681 600.297L78.2337 600.203C78.5697 598.547 78.6009 597.367 78.6166 596.484H72.9056V595.453H79.8275ZM72.0462 601.594C72.9447 601.594 73.9603 601.586 75.0306 601.555V598.531H76.2494V601.516C77.7884 601.453 79.3822 601.344 80.8275 601.141L80.9056 602.047C77.9916 602.547 74.6478 602.602 72.1712 602.609L72.0462 601.594ZM74.1869 607.969V603.891H75.4212V606.938H83.4681V607.969H74.1869ZM81.765 604.828V594.375H83.015V598.906H85.0462V599.953H83.015V604.828H81.765ZM91.9606 595.281C94.8591 595.289 97.0387 596.805 97.0387 599.094C97.0387 601.406 94.8591 602.922 91.9606 602.906C89.0622 602.922 86.8825 601.406 86.8825 599.094C86.8825 596.805 89.0622 595.289 91.9606 595.281ZM85.6325 606.422V605.391H98.3512V606.422H85.6325ZM88.0544 599.094C88.0387 600.781 89.7184 601.906 91.9606 601.906C94.1872 601.906 95.8512 600.781 95.8512 599.094C95.8512 597.43 94.1872 596.273 91.9606 596.281C89.7184 596.273 88.0387 597.43 88.0544 599.094ZM111.859 605.516V606.547H99.1406V605.516H104.859V602.891H100.734V598.609H109.047V596.422H100.703V595.406H110.25V599.609H101.953V601.875H110.578V602.891H106.062V605.516H111.859ZM117.539 598.109C117.532 600.625 119.149 603.156 121.164 604.078L120.43 605.078C118.852 604.266 117.547 602.609 116.93 600.633C116.313 602.711 115.008 604.492 113.43 605.328L112.633 604.344C114.672 603.344 116.282 600.672 116.289 598.109V595.578H117.539V598.109ZM119.649 600.125V599.125H122.946V594.375H124.164V608.297H122.946V600.125H119.649ZM133.915 598.656C133.923 600.891 135.056 603.18 136.946 604.188L136.243 605.109C134.86 604.352 133.86 602.914 133.352 601.242C132.86 603.023 131.868 604.586 130.477 605.422L129.743 604.484C131.634 603.391 132.751 600.953 132.759 598.656V597.969H130.118V596.953H132.759V594.891H133.931V596.953H136.524V597.969H133.915V598.656ZM135.571 600.906V599.859H137.759V594.719H138.915V607.547H137.759V600.906H135.571ZM140.556 608.266V594.375H141.727V608.266H140.556ZM155.251 594.375V608.266H154.079V594.375H155.251ZM143.345 604.375C146.368 602.586 147.884 600.078 148.126 597.172H143.97V596.156H149.345C149.345 596.867 149.283 597.57 149.158 598.25H151.267V594.75H152.439V607.562H151.267V602.75H148.689V601.734H151.267V599.266H148.915C148.243 601.617 146.72 603.695 144.095 605.266L143.345 604.375ZM161.697 596.938C161.697 598.742 163.087 600.469 165.119 601.172L164.478 602.141C162.916 601.578 161.705 600.414 161.111 598.984C160.509 600.578 159.22 601.859 157.572 602.469L156.931 601.5C158.978 600.766 160.462 598.914 160.462 596.953V596.344H157.322V595.344H164.806V596.344H161.697V596.938ZM159.041 604.453V603.438H168.384V608.266H167.15V604.453H159.041ZM164.369 599.047V598.016H167.15V594.375H168.384V602.703H167.15V599.047H164.369ZM181.846 594.391V604.547H180.627V594.391H181.846ZM170.705 598.766C170.697 596.766 172.268 595.367 174.346 595.359C176.424 595.367 177.978 596.766 177.986 598.766C177.978 600.789 176.424 602.195 174.346 602.188C172.268 602.195 170.697 600.789 170.705 598.766ZM171.908 598.766C171.893 600.148 172.939 601.109 174.346 601.109C175.728 601.109 176.783 600.148 176.783 598.766C176.783 597.406 175.728 596.438 174.346 596.438C172.939 596.438 171.893 597.406 171.908 598.766ZM172.877 607.969V603.516H174.096V606.938H182.283V607.969H172.877ZM200.284 601.734V602.734H194.628V605.453H193.409V602.734H187.565V601.734H200.284ZM189.19 607.969V604.172H190.409V606.938H198.862V607.969H189.19ZM189.268 600.375V594.828H190.487V596.609H197.362V594.828H198.581V600.375H189.268ZM190.487 599.375H197.362V597.547H190.487V599.375ZM205.823 596.609C205.815 598.523 207.245 600.289 209.261 600.984L208.589 601.969C207.05 601.398 205.839 600.219 205.245 598.734C204.659 600.375 203.409 601.656 201.776 602.297L201.104 601.281C203.214 600.539 204.604 598.703 204.62 596.562V595.094H205.823V596.609ZM203.261 604.344V603.359H212.604V608.266H211.37V604.344H203.261ZM208.276 598.328V597.297H211.37V594.375H212.604V602.594H211.37V598.328H208.276ZM223.23 598.109C223.222 600.648 224.949 603.195 226.996 604.125L226.246 605.094C224.66 604.328 223.292 602.68 222.628 600.703C221.988 602.797 220.621 604.555 218.996 605.375L218.214 604.344C220.285 603.398 221.996 600.742 222.011 598.109V595.578H223.23V598.109ZM228.511 608.297V594.375H229.746V608.297H228.511ZM238.723 596.422C238.73 598.805 241.449 600.922 243.863 601.375L243.301 602.406C241.199 601.922 238.996 600.43 238.098 598.391C237.191 600.43 234.996 601.914 232.894 602.406L232.332 601.375C234.738 600.914 237.433 598.812 237.441 596.422V595.359H238.723V596.422ZM231.801 606.375V605.359H244.519V606.375H231.801ZM251.262 595.281V596.312H247.137V598.031H250.684V599H247.137V600.891C249.152 600.883 250.395 600.805 251.887 600.531L252.012 601.516C250.402 601.82 249.09 601.883 246.84 601.891H245.965V595.281H251.262ZM247.934 608.078V603.391H257.106V608.078H247.934ZM249.137 607.078H255.902V604.391H249.137V607.078ZM251.34 598.891V597.875H253.215V594.625H254.402V602.625H253.215V598.891H251.34ZM255.934 602.75V594.375H257.106V602.75H255.934ZM266.52 595.922V596.641C266.512 597.742 266.512 599.578 266.114 602.156L264.879 602.047C265.262 599.719 265.293 598.031 265.286 596.922H259.457V595.922H266.52ZM258.676 604.188C259.59 604.18 260.606 604.172 261.676 604.148V599.891H262.879V604.109C264.418 604.055 265.997 603.953 267.442 603.781L267.504 604.703C264.582 605.156 261.317 605.219 258.832 605.203L258.676 604.188ZM268.317 608.266V594.375H269.536V600.188H271.786V601.25H269.536V608.266H268.317ZM287.068 595.062V596.062C287.068 597.094 287.068 598.344 286.724 600.016H288.739V601.016H282.958V603.578H287.161V608.266H285.927V604.594H277.333V603.578H281.739V601.016H276.021V600.016H285.489C285.857 598.32 285.857 597.094 285.849 596.062H277.63V595.062H287.068ZM301.404 594.375V608.266H300.232V594.375H301.404ZM289.357 604.562C291.294 603.406 292.427 600.867 292.419 598.344V597.031H289.747V596.016H296.154V597.031H293.607V598.344C293.607 600.742 294.693 603.141 296.607 604.25L295.857 605.156C294.49 604.336 293.521 602.836 293.037 601.07C292.537 602.984 291.529 604.617 290.138 605.484L289.357 604.562ZM295.091 600.391V599.391H297.435V594.719H298.591V607.547H297.435V600.391H295.091ZM318.217 594.375V608.266H316.982V594.375H318.217ZM306.904 604.656C310.662 602.875 312.584 600.211 312.857 596.891H307.545V595.891H314.107C314.092 599.883 312.232 603.422 307.576 605.656L306.904 604.656ZM327.366 596.109C327.358 597.82 329.686 599.211 332.147 599.547L331.663 600.516C329.42 600.188 327.319 599.07 326.569 597.445C325.811 599.07 323.725 600.188 321.475 600.516L321.022 599.547C323.467 599.211 325.78 597.82 325.772 596.109V596.078H321.397V595.078H331.772V596.078H327.366V596.109ZM320.225 602.547V601.531H332.944V602.547H327.288V605.391H326.069V602.547H320.225ZM321.85 607.969V604H323.084V606.938H331.522V607.969H321.85ZM345.655 594.375V608.266H344.467V594.375H345.655ZM333.921 600.375C333.928 597.422 335.1 595.555 336.905 595.547C338.592 595.555 339.733 597.18 339.889 599.797H341.686V594.672H342.858V607.562H341.686V600.812H339.897C339.78 603.516 338.616 605.211 336.905 605.203C335.1 605.211 333.928 603.328 333.921 600.375ZM335.077 600.375C335.061 602.625 335.78 604.047 336.905 604.031C338.038 604.047 338.757 602.625 338.749 600.375C338.757 598.117 338.038 596.703 336.905 596.703C335.78 596.703 335.061 598.117 335.077 600.375ZM361.937 594.359V599.844H363.968V600.891H361.937V608.266H360.718V594.359H361.937ZM351.374 604.625V595.844H354.906V596.859H352.593V603.586C353.281 603.562 354.124 603.5 355.046 603.297L355.171 604.328C353.859 604.602 352.812 604.625 351.984 604.625H351.374ZM355.702 604.625V595.844H359.406V596.859H356.921V603.594C358.007 603.578 358.874 603.516 359.859 603.266L359.984 604.297C358.765 604.594 357.781 604.625 356.374 604.625H355.702ZM377.164 602.078V603.094H364.445V602.078H377.164ZM366.054 595.844V594.859H375.523V598.281H367.32V599.828H375.82V600.797H366.101V597.359H374.289V595.844H366.054ZM366.133 607.969V604.188H367.367V606.938H375.82V607.969H366.133ZM388.836 595.281C388.828 598.766 386.336 601.266 382.336 602.406L381.821 601.438C385.141 600.5 387.266 598.656 387.532 596.297H382.539V595.281H388.836ZM384.164 608.078V602.906H393.18V608.078H384.164ZM385.352 607.078H391.961V603.891H385.352V607.078ZM388.867 599V597.969H391.946V594.391H393.18V602.312H391.946V599H388.867ZM407.829 600.984V602H395.172V600.984H407.829ZM395.891 599.172C398.313 598.891 400.649 597.695 400.704 596.109H396.329V595.094H406.704V596.109H402.297C402.352 597.68 404.665 598.891 407.126 599.172L406.672 600.156C404.399 599.867 402.266 598.844 401.501 597.305C400.735 598.844 398.618 599.867 396.329 600.156L395.891 599.172ZM396.704 605.734C396.696 604.141 398.501 603.219 401.501 603.219C404.477 603.219 406.266 604.141 406.282 605.734C406.266 607.344 404.477 608.234 401.501 608.234C398.501 608.234 396.696 607.344 396.704 605.734ZM397.954 605.734C397.938 606.703 399.274 607.258 401.501 607.25C403.704 607.258 405.04 606.703 405.047 605.734C405.04 604.758 403.704 604.203 401.501 604.188C399.274 604.203 397.938 604.758 397.954 605.734ZM425.095 605.438V606.484H412.376V605.438H425.095ZM413.501 596.797V595.781H423.876V596.797H421.673V601.656H423.845V602.656H413.533V601.656H415.704V596.797H413.501ZM416.923 601.656H420.47V596.797H416.923V601.656ZM438.603 605.516V606.547H425.884V605.516H431.603V602.891H427.478V598.609H435.791V596.422H427.447V595.406H436.994V599.609H428.697V601.875H437.322V602.891H432.806V605.516H438.603ZM443.517 598.328C443.517 600.539 444.596 602.922 446.439 604.016L445.736 604.969C444.392 604.156 443.432 602.672 442.947 600.977C442.439 602.828 441.408 604.422 440.017 605.266L439.236 604.344C441.158 603.219 442.33 600.758 442.33 598.375V595.688H443.517V598.328ZM444.908 600.406V599.359H447.267V594.672H448.424V607.562H447.267V600.406H444.908ZM450.111 608.266V594.375H451.299V608.266H450.111ZM459.823 596.422C459.83 598.805 462.549 600.922 464.963 601.375L464.401 602.406C462.299 601.922 460.096 600.43 459.198 598.391C458.291 600.43 456.096 601.914 453.994 602.406L453.432 601.375C455.838 600.914 458.533 598.812 458.541 596.422V595.359H459.823V596.422ZM452.901 606.375V605.359H465.619V606.375H452.901ZM479.128 605.516V606.547H466.409V605.516H472.128V602.891H468.003V598.609H476.315V596.422H467.971V595.406H477.518V599.609H469.221V601.875H477.846V602.891H473.331V605.516H479.128ZM142.572 623.141C142.579 624.68 143.65 626.234 145.431 626.906L144.79 627.844C143.454 627.328 142.493 626.336 141.993 625.141C141.486 626.461 140.486 627.641 139.118 628.234L138.447 627.281C140.275 626.484 141.392 624.688 141.4 623.141V621.25H142.572V623.141ZM140.978 631.766C140.962 630.195 142.743 629.273 145.634 629.281C148.509 629.273 150.298 630.195 150.306 631.766C150.298 633.32 148.509 634.234 145.634 634.234C142.743 634.234 140.962 633.32 140.978 631.766ZM142.197 631.766C142.181 632.711 143.501 633.289 145.634 633.281C147.743 633.289 149.072 632.711 149.087 631.766C149.072 630.805 147.743 630.227 145.634 630.219C143.501 630.227 142.181 630.805 142.197 631.766ZM146.056 628.531V620.656H147.212V624.125H149.056V620.391H150.228V628.969H149.056V625.141H147.212V628.531H146.056ZM162.783 620.375V623.938H164.861V624.984H162.783V628.578H161.548V620.375H162.783ZM151.877 627.328C152.986 627.328 154.283 627.328 155.642 627.289V626.43C154.009 626.297 152.978 625.648 152.986 624.594C152.978 623.453 154.259 622.789 156.236 622.797C158.212 622.789 159.486 623.453 159.502 624.594C159.486 625.641 158.478 626.289 156.861 626.43V627.242C158.158 627.18 159.47 627.078 160.689 626.906L160.798 627.734C157.798 628.227 154.462 628.25 152.017 628.25L151.877 627.328ZM152.22 622.328V621.438H155.642V620.25H156.861V621.438H160.267V622.328H152.22ZM153.736 630.078V629.203H162.783V632H154.986V633.234H163.314V634.109H153.767V631.172H161.564V630.078H153.736ZM154.158 624.594C154.15 625.219 154.955 625.617 156.236 625.625C157.517 625.617 158.33 625.219 158.33 624.594C158.33 623.984 157.517 623.617 156.236 623.609C154.955 623.617 154.15 623.984 154.158 624.594ZM176.291 620.375V625.25H178.369V626.281H176.291V631.25H175.057V620.375H176.291ZM165.385 628.641C166.486 628.641 167.791 628.625 169.15 628.578V627.516C167.533 627.367 166.486 626.594 166.494 625.422C166.486 624.086 167.791 623.273 169.744 623.281C171.713 623.273 172.994 624.086 173.01 625.422C172.994 626.586 171.978 627.359 170.369 627.516V628.523C171.666 628.445 172.986 628.328 174.197 628.141L174.307 629.016C171.33 629.578 167.955 629.617 165.525 629.641L165.385 628.641ZM165.728 622.672V621.75H169.15V620.344H170.369V621.75H173.775V622.672H165.728ZM167.463 633.969V630.516H168.697V632.938H176.791V633.969H167.463ZM167.666 625.422C167.658 626.18 168.463 626.672 169.744 626.672C171.025 626.672 171.838 626.18 171.838 625.422C171.838 624.633 171.025 624.148 169.744 624.156C168.463 624.148 167.658 624.633 167.666 625.422ZM190.471 620.391V628.734H189.237V626.859H185.549V625.844H189.237V623.969H185.69C184.776 626.203 182.635 627.82 179.658 628.703L179.143 627.734C182.494 626.742 184.596 624.859 184.838 622.453H179.846V621.422H186.174C186.174 621.969 186.112 622.492 185.994 622.984H189.237V620.391H190.471ZM181.283 631.531C181.276 629.875 183.08 628.875 185.924 628.875C188.737 628.875 190.549 629.875 190.549 631.531C190.549 633.195 188.737 634.203 185.924 634.203C183.08 634.203 181.276 633.195 181.283 631.531ZM182.487 631.531C182.494 632.578 183.83 633.211 185.924 633.203C187.987 633.211 189.323 632.578 189.33 631.531C189.323 630.484 187.987 629.852 185.924 629.859C183.83 629.852 182.494 630.484 182.487 631.531ZM197.01 621.391C199.19 621.398 200.737 622.727 200.745 624.656C200.737 626.594 199.19 627.914 197.01 627.922C194.815 627.914 193.253 626.594 193.26 624.656C193.253 622.727 194.815 621.398 197.01 621.391ZM192.542 630.188C195.104 630.195 198.643 630.172 201.713 629.719L201.807 630.625C198.628 631.219 195.213 631.234 192.713 631.234L192.542 630.188ZM194.463 624.656C194.456 625.953 195.526 626.844 197.01 626.844C198.479 626.844 199.549 625.953 199.542 624.656C199.549 623.367 198.479 622.469 197.01 622.469C195.526 622.469 194.456 623.367 194.463 624.656ZM202.635 634.297V620.375H203.854V634.297H202.635ZM221.136 620.391V630.578H219.917V620.391H221.136ZM209.808 627.609C211.909 626.789 213.339 624.758 213.339 622.562V621.172H214.589V622.562C214.573 624.68 216.019 626.578 218.089 627.328L217.448 628.312C215.839 627.695 214.589 626.445 213.972 624.844C213.37 626.547 212.105 627.914 210.48 628.562L209.808 627.609ZM212.167 633.969V629.641H213.386V632.938H221.573V633.969H212.167ZM231.269 621.672V625.328H225.503V627.094H231.66V628.078H228.441V630.406C229.793 630.352 231.152 630.258 232.425 630.109L232.519 631.031C229.441 631.5 226.082 631.562 223.425 631.547L223.253 630.5C224.472 630.5 225.832 630.492 227.222 630.453V628.078H224.285V624.406H230.066V622.672H224.253V621.672H231.269ZM233.347 634.297V620.375H234.566V634.297H233.347ZM251.863 620.375V634.266H250.629V620.375H251.863ZM240.551 630.656C244.309 628.875 246.231 626.211 246.504 622.891H241.192V621.891H247.754C247.738 625.883 245.879 629.422 241.223 631.656L240.551 630.656ZM261.012 622.109C261.004 623.82 263.333 625.211 265.793 625.547L265.309 626.516C263.067 626.188 260.965 625.07 260.215 623.445C259.458 625.07 257.372 626.188 255.122 626.516L254.668 625.547C257.114 625.211 259.426 623.82 259.418 622.109V622.078H255.043V621.078H265.418V622.078H261.012V622.109ZM253.872 628.547V627.531H266.59V628.547H260.934V631.391H259.715V628.547H253.872ZM255.497 633.969V630H256.731V632.938H265.168V633.969H255.497ZM273.723 620.625C276.809 620.625 278.622 621.477 278.63 623.016C278.622 624.594 276.809 625.445 273.723 625.453C270.622 625.445 268.802 624.594 268.802 623.016C268.802 621.477 270.622 620.625 273.723 620.625ZM267.395 627.391V626.391H280.052V627.391H267.395ZM268.927 629.531V628.594H278.427V631.703H270.177V633.141H278.848V634.109H268.958V630.797H277.223V629.531H268.927ZM270.083 623.016C270.067 623.984 271.419 624.516 273.723 624.516C276.028 624.516 277.372 623.984 277.38 623.016C277.372 622.102 276.028 621.555 273.723 621.547C271.419 621.555 270.067 622.102 270.083 623.016ZM291.615 621.641V628.031H285.193V621.641H291.615ZM286.396 627.047H290.427V622.641H286.396V627.047ZM286.771 633.969V629.594H287.974V632.938H296.099V633.969H286.771ZM294.24 630.562V620.375H295.458V624.609H297.552V625.641H295.458V630.562H294.24ZM310.779 626.672V627.688H298.107V626.672H310.779ZM299.717 625.25V620.812H309.201V621.844H300.935V624.234H309.326V625.25H299.717ZM299.763 634.047V628.766H300.982V630.312H307.904V628.766H309.154V634.047H299.763ZM300.982 633.047H307.904V631.297H300.982V633.047ZM323.068 620.375V634.266H321.85V620.375H323.068ZM312.522 630.688V621.75H313.725V629.625C315.85 629.609 318.037 629.445 320.365 628.953L320.537 630C318.068 630.516 315.873 630.688 313.647 630.688H312.522ZM335.873 620.375V625.875H338.202V626.906H335.873V634.297H334.655V620.375H335.873ZM325.733 630.812V621.734H332.217V622.75H326.952V629.781C329.467 629.773 331.241 629.664 333.311 629.281L333.467 630.344C331.288 630.734 329.467 630.812 326.827 630.812H325.733ZM340.1 633.094C339.553 633.086 339.085 632.633 339.1 632.078C339.085 631.531 339.553 631.078 340.1 631.078C340.655 631.078 341.108 631.531 341.1 632.078C341.108 632.633 340.655 633.086 340.1 633.094Z" fill="black"/>
</svg>
