<svg width="600" height="231" viewBox="0 0 600 231" fill="none" xmlns="http://www.w3.org/2000/svg">
<g clip-path="url(#clip0_744_2763)">
<path fill-rule="evenodd" clip-rule="evenodd" d="M269.284 15.6335C274.982 14.9758 279.772 15.0921 284.752 16.2585C289.449 17.3586 294.221 19.3723 300 22.4059C305.778 19.3727 310.551 17.3595 315.247 16.2594C320.227 15.0931 325.017 14.9768 330.715 15.6344C333.404 15.9451 335.333 18.2487 335.333 20.8708V67.5339C335.333 70.7842 332.488 73.1815 329.375 72.904C324.161 72.4387 319.913 72.6295 315.587 73.6676C311.238 74.7111 306.709 76.6349 300.954 79.7594C300.824 79.83 300.688 79.8838 300.549 79.9235C300.546 79.9244 300.543 79.9256 300.54 79.9264C300.502 79.937 300.465 79.9465 300.427 79.9548C300.421 79.9561 300.414 79.9564 300.408 79.9577C300.329 79.9743 300.249 79.986 300.168 79.9928C300.166 79.993 300.163 79.9936 300.161 79.9938C300.122 79.997 300.082 79.9988 300.043 79.9997C300.039 79.9998 300.035 79.9996 300.03 79.9997C299.78 80.0035 299.529 79.9616 299.292 79.8717C299.281 79.8675 299.27 79.8625 299.259 79.8581C299.236 79.8491 299.214 79.8396 299.191 79.8298C299.168 79.8193 299.144 79.808 299.121 79.7966C299.103 79.7877 299.085 79.7786 299.067 79.7692C299.06 79.7654 299.052 79.7624 299.045 79.7585C293.29 76.6338 288.761 74.7102 284.412 73.6667C280.086 72.6285 275.839 72.4377 270.624 72.903C267.511 73.1808 264.666 70.7834 264.666 67.5329V20.8698C264.666 18.2476 266.595 15.944 269.284 15.6335ZM330.256 19.6081C324.897 18.9895 320.586 19.1172 316.159 20.154C311.964 21.1366 307.571 22.9567 302 25.8727V74.6911C306.624 72.3451 310.655 70.7374 314.653 69.778C319.502 68.6146 324.201 68.4262 329.73 68.9196C330.629 68.9995 331.333 68.3108 331.333 67.5339V20.8708C331.333 20.195 330.843 19.6761 330.256 19.6081ZM283.84 20.153C279.413 19.1161 275.103 18.9885 269.743 19.6071C269.156 19.6749 268.666 20.1938 268.666 20.8698V67.5329C268.666 68.31 269.37 68.9988 270.269 68.9186C275.798 68.4252 280.497 68.6135 285.346 69.777C289.344 70.7365 293.375 72.344 297.999 74.6901V25.8717C292.428 22.9556 288.035 21.1357 283.84 20.153Z" fill="white"/>
</g>
<path d="M254.014 149.5V151.562H245.623V153.156H251.6V158.359H239.553V159.906H252.186V161.898H236.998V156.484H249.045V155.125H236.975V153.156H243.022V151.562H234.701V149.5H254.014ZM237.139 148.164V141.555H251.529V148.164H237.139ZM239.693 146.125H248.928V143.594H239.693V146.125ZM269.812 141.32C274.499 141.32 277.44 142.855 277.452 145.445C277.44 147.977 274.499 149.488 269.812 149.477C265.171 149.488 262.171 147.977 262.171 145.445C262.171 142.855 265.171 141.32 269.812 141.32ZM260.179 153.016V150.906H279.491V153.016H260.179ZM262.452 161.828V154.703H277.147V161.828H262.452ZM264.89 145.445C264.866 146.723 266.718 147.449 269.812 147.461C272.905 147.449 274.757 146.723 274.757 145.445C274.757 144.098 272.905 143.359 269.812 143.359C266.718 143.359 264.866 144.098 264.89 145.445ZM265.03 159.719H274.616V156.766H265.03V159.719ZM299.753 151.094V153.18H280.441V151.094H284.941V148.41C283.335 147.73 282.433 146.664 282.433 145.281C282.433 142.738 285.398 141.25 290.074 141.25C294.738 141.25 297.703 142.738 297.714 145.281C297.703 146.676 296.789 147.742 295.183 148.41V151.094H299.753ZM282.691 158.242C282.691 155.805 285.445 154.445 290.074 154.469C294.632 154.445 297.398 155.805 297.41 158.242C297.398 160.703 294.632 162.039 290.074 162.039C285.445 162.039 282.691 160.703 282.691 158.242ZM285.152 145.281C285.128 146.57 286.945 147.262 290.074 147.25C293.191 147.262 295.019 146.57 295.019 145.281C295.019 143.98 293.191 143.254 290.074 143.266C286.945 143.254 285.128 143.98 285.152 145.281ZM285.339 158.242C285.328 159.438 286.992 160.082 290.074 160.07C293.109 160.082 294.785 159.438 294.808 158.242C294.785 157.059 293.109 156.449 290.074 156.438C286.992 156.449 285.328 157.059 285.339 158.242ZM287.566 151.094H292.582V149.078C291.82 149.184 290.976 149.242 290.074 149.242C289.171 149.242 288.328 149.184 287.566 149.078V151.094ZM322.512 140.898V149.172H325.653V151.352H322.512V162.039H319.911V140.898H322.512ZM305.801 156.25C310.957 153.672 313.747 150.086 314.262 145.258H306.95V143.102H316.911C316.899 149.324 314.321 154.797 307.278 158.266L305.801 156.25ZM343.806 140.898V162.109H341.181V140.898H343.806ZM326.86 149.922C326.849 145.352 329.181 142.445 332.392 142.445C335.567 142.445 337.911 145.352 337.923 149.922C337.911 154.527 335.567 157.422 332.392 157.422C329.181 157.422 326.849 154.527 326.86 149.922ZM329.368 149.922C329.368 153.18 330.599 155.066 332.392 155.078C334.173 155.066 335.392 153.18 335.392 149.922C335.392 146.688 334.173 144.789 332.392 144.789C330.599 144.789 329.368 146.688 329.368 149.922ZM363.646 150.836V152.922H348.787V142.75H363.482V144.859H351.365V150.836H363.646ZM346.443 159.391V157.234H365.802V159.391H346.443Z" fill="white"/>
<path opacity="0.7" d="M226.513 196.344V197.375H220.717V202.266H219.513V197.375H213.795V196.344H226.513ZM215.232 192C215.24 190.117 217.201 188.945 220.123 188.938C223.037 188.945 225.013 190.117 225.013 192C225.013 193.852 223.037 195.023 220.123 195.016C217.201 195.023 215.24 193.852 215.232 192ZM216.498 192C216.482 193.234 217.959 194.031 220.123 194.031C222.287 194.031 223.756 193.234 223.763 192C223.756 190.742 222.287 189.938 220.123 189.938C217.959 189.938 216.482 190.742 216.498 192ZM238.787 188.375V202.297H237.568V188.375H238.787ZM228.1 190.688V189.672H234.568V194.609H229.381V197.891C231.686 197.898 233.74 197.789 236.225 197.391L236.35 198.422C233.795 198.82 231.686 198.922 229.287 198.922H228.131V193.609H233.334V190.688H228.1ZM251.577 188.375V194.031H253.827V195.062H251.577V202.266H250.358V188.375H251.577ZM240.92 198.656C244.506 196.875 246.459 194.195 246.741 190.906H241.561V189.875H247.983C247.975 193.805 246.131 197.391 241.608 199.625L240.92 198.656ZM268.78 188.375V194.109H271.108V195.125H268.78V202.266H267.562V188.375H268.78ZM257.952 191.625V190.609H261.53V188.547H262.749V190.609H266.218V191.625H257.952ZM258.749 195.969C258.741 194.094 260.179 192.781 262.155 192.781C264.116 192.781 265.546 194.094 265.562 195.969C265.546 197.852 264.116 199.156 262.155 199.156C260.179 199.156 258.741 197.852 258.749 195.969ZM259.921 195.969C259.913 197.234 260.858 198.125 262.155 198.109C263.437 198.125 264.374 197.234 264.39 195.969C264.374 194.711 263.437 193.805 262.155 193.812C260.858 193.805 259.913 194.711 259.921 195.969ZM282.695 188.938V192.547H274.32V194.344H282.992V195.359H273.085V191.578H281.445V189.938H273.054V188.938H282.695ZM271.523 197.812V196.828H284.242V197.812H278.46V202.297H277.242V197.812H271.523ZM296.953 188.375V202.266H295.765V188.375H296.953ZM285.218 194.375C285.226 191.422 286.398 189.555 288.203 189.547C289.89 189.555 291.031 191.18 291.187 193.797H292.984V188.672H294.156V201.562H292.984V194.812H291.195C291.078 197.516 289.914 199.211 288.203 199.203C286.398 199.211 285.226 197.328 285.218 194.375ZM286.375 194.375C286.359 196.625 287.078 198.047 288.203 198.031C289.336 198.047 290.054 196.625 290.047 194.375C290.054 192.117 289.336 190.703 288.203 190.703C287.078 190.703 286.359 192.117 286.375 194.375ZM313.75 188.375V195.984H312.532V192.078H309.438V191.062H312.532V188.375H313.75ZM302.266 194.938C304.328 194.219 305.766 192.367 305.782 190.375V188.906H306.985V190.438C306.969 192.281 308.399 193.969 310.407 194.641L309.782 195.609C308.211 195.055 306.985 193.93 306.375 192.492C305.782 194.055 304.532 195.305 302.907 195.906L302.266 194.938ZM304.813 202.078V196.656H306.047V198.359H312.532V196.656H313.75V202.078H304.813ZM306.047 201.078H312.532V199.328H306.047V201.078ZM320.993 191C321.001 192.406 322.376 193.594 324.352 194.031L323.852 195.016C322.251 194.617 321.016 193.773 320.407 192.648C319.813 193.867 318.563 194.797 316.915 195.203L316.383 194.219C318.391 193.773 319.774 192.484 319.774 191V190.938H316.68V189.969H319.774V188.422H320.993V189.969H324.087V190.938H320.993V191ZM315.727 196.188C318.391 196.18 321.915 196.164 324.993 195.766L325.071 196.656C323.743 196.875 322.368 197.008 321.024 197.094V201.859H319.805V197.156C318.399 197.211 317.063 197.219 315.899 197.219L315.727 196.188ZM326.008 202.281V188.391H327.212V202.281H326.008ZM336.204 190.781V191.781H329.235V190.781H332.126V188.797H333.345V190.781H336.204ZM329.735 195.875C329.735 194.031 330.993 192.727 332.72 192.719C334.47 192.727 335.72 194.031 335.735 195.875C335.72 197.742 334.47 199.055 332.72 199.062C330.993 199.055 329.735 197.742 329.735 195.875ZM330.829 195.875C330.829 197.109 331.618 197.992 332.72 197.984C333.829 197.992 334.642 197.109 334.642 195.875C334.642 194.656 333.829 193.766 332.72 193.75C331.618 193.766 330.829 194.656 330.829 195.875ZM336.923 201.578V188.719H338.079V194.234H339.923V188.375H341.095V202.266H339.923V195.25H338.079V201.578H336.923ZM346.493 189.453C348.54 189.461 349.993 191.344 350.009 194.297C349.993 197.258 348.54 199.133 346.493 199.125C344.431 199.133 342.986 197.258 342.993 194.297C342.986 191.344 344.431 189.461 346.493 189.453ZM344.15 194.297C344.157 196.555 345.118 198.039 346.493 198.031C347.884 198.039 348.822 196.555 348.822 194.297C348.822 192.039 347.884 190.555 346.493 190.547C345.118 190.555 344.157 192.039 344.15 194.297ZM352.306 202.266V188.375H353.525V191.875H355.775V192.922H353.525V196.016H355.775V197.047H353.525V202.266H352.306ZM370.728 188.375V194.109H373.057V195.125H370.728V202.266H369.51V188.375H370.728ZM359.9 191.625V190.609H363.478V188.547H364.697V190.609H368.166V191.625H359.9ZM360.697 195.969C360.689 194.094 362.127 192.781 364.103 192.781C366.064 192.781 367.494 194.094 367.51 195.969C367.494 197.852 366.064 199.156 364.103 199.156C362.127 199.156 360.689 197.852 360.697 195.969ZM361.869 195.969C361.861 197.234 362.807 198.125 364.103 198.109C365.385 198.125 366.322 197.234 366.338 195.969C366.322 194.711 365.385 193.805 364.103 193.812C362.807 193.805 361.861 194.711 361.869 195.969ZM384.721 192.594V193.578H375.205V188.891H376.424V192.594H384.721ZM373.471 196.469V195.469H386.19V196.469H373.471ZM375.127 201.922V197.891H376.346V200.906H384.799V201.922H375.127ZM236.299 218.25V219.25H230.564V220.625H234.674V223.734H226.424V225.141H235.096V226.109H225.205V222.812H233.471V221.578H225.174V220.625H229.346V219.25H223.643V218.25H236.299ZM225.283 217.078V212.844H234.658V217.078H225.283ZM226.502 216.094H233.439V213.828H226.502V216.094ZM241.698 213.391C243.877 213.398 245.424 214.727 245.432 216.656C245.424 218.594 243.877 219.914 241.698 219.922C239.502 219.914 237.94 218.594 237.948 216.656C237.94 214.727 239.502 213.398 241.698 213.391ZM237.229 222.188C239.791 222.195 243.33 222.172 246.401 221.719L246.494 222.625C243.315 223.219 239.901 223.234 237.401 223.234L237.229 222.188ZM239.151 216.656C239.143 217.953 240.213 218.844 241.698 218.844C243.166 218.844 244.237 217.953 244.229 216.656C244.237 215.367 243.166 214.469 241.698 214.469C240.213 214.469 239.143 215.367 239.151 216.656ZM247.323 226.297V212.375H248.541V226.297H247.323ZM267.276 214.484V215.5H265.214V217.438H267.276V218.469H265.214V220.625H263.995V212.375H265.214V214.484H267.276ZM254.62 216.484C254.612 214.547 256.159 213.211 258.261 213.219C260.378 213.211 261.901 214.547 261.917 216.484C261.901 218.414 260.378 219.742 258.261 219.75C256.159 219.742 254.612 218.414 254.62 216.484ZM255.823 216.484C255.815 217.797 256.854 218.703 258.261 218.719C259.682 218.703 260.706 217.797 260.714 216.484C260.706 215.18 259.682 214.25 258.261 214.266C256.854 214.25 255.815 215.18 255.823 216.484ZM256.151 223.656C256.159 222.008 257.925 221.055 260.761 221.047C263.597 221.055 265.339 222.008 265.339 223.656C265.339 225.273 263.597 226.234 260.761 226.234C257.925 226.234 256.159 225.273 256.151 223.656ZM257.386 223.656C257.37 224.656 258.667 225.242 260.761 225.25C262.862 225.242 264.143 224.656 264.151 223.656C264.143 222.648 262.862 222.047 260.761 222.047C258.667 222.047 257.37 222.648 257.386 223.656ZM280.519 219.703V220.703H267.863V219.703H280.519ZM269.269 215.625C269.269 213.883 271.175 212.859 274.191 212.875C277.175 212.859 279.089 213.883 279.097 215.625C279.089 217.352 277.175 218.391 274.191 218.391C271.175 218.391 269.269 217.352 269.269 215.625ZM269.503 225.969V221.922H270.738V224.938H279.113V225.969H269.503ZM270.534 215.625C270.527 216.727 271.948 217.391 274.191 217.391C276.417 217.391 277.839 216.727 277.847 215.625C277.839 214.539 276.417 213.859 274.191 213.859C271.948 213.859 270.527 214.539 270.534 215.625ZM296.566 212.375V219.453H295.348V216.5H292.449C292.191 218.102 290.769 219.18 288.894 219.172C286.801 219.18 285.277 217.875 285.285 216C285.277 214.148 286.801 212.867 288.894 212.875C290.754 212.867 292.168 213.906 292.441 215.469H295.348V212.375H296.566ZM286.457 216C286.457 217.266 287.473 218.164 288.894 218.156C290.269 218.164 291.301 217.266 291.301 216C291.301 214.766 290.269 213.875 288.894 213.891C287.473 213.875 286.457 214.766 286.457 216ZM287.566 221.203V220.219H296.566V223.547H288.816V225.094H297.098V226.078H287.598V222.609H295.348V221.203H287.566ZM305.559 213.781V222.734H299.152V213.781H305.559ZM300.34 221.734H304.34V214.766H300.34V221.734ZM308.106 226.266V212.375H309.324V217.922H311.652V218.984H309.324V226.266H308.106ZM325.083 217.922V218.953H322.833V226.266H321.614V212.375H322.833V217.922H325.083ZM312.661 222.734V213.75H313.879V221.703C315.911 221.703 317.981 221.547 320.27 221.062L320.426 222.109C318.028 222.594 315.872 222.734 313.77 222.734H312.661ZM337.364 216.047V217.016H334.568V218.43C335.88 218.367 337.2 218.273 338.427 218.125L338.489 218.984C335.521 219.445 332.169 219.531 329.536 219.531L329.364 218.547C330.583 218.547 331.943 218.531 333.333 218.477V217.016H330.646V212.984H337.208V213.938H331.911V216.047H337.364ZM331.536 221.484V220.5H340.755V223.719H332.786V225.109H341.255V226.109H331.568V222.781H339.552V221.484H331.536ZM339.536 219.875V212.391H340.755V219.875H339.536ZM353.794 212.375V218.109H355.904V219.141H353.794V226.266H352.56V212.375H353.794ZM342.747 222.422C344.841 220.273 345.693 217.688 345.849 214.922H343.185V213.891H347.013C346.997 217.195 346.255 220.461 343.732 223.125L342.747 222.422ZM346.732 223.359C348.904 220.906 349.552 217.82 349.669 214.922H347.451V213.891H350.826C350.818 217.188 350.333 221.023 347.732 224.047L346.732 223.359ZM369.021 223.453V224.484H356.302V223.453H359.459V219.711C358.271 219.094 357.552 218.094 357.552 216.828C357.552 214.68 359.662 213.266 362.631 213.25C365.599 213.266 367.709 214.68 367.709 216.828C367.709 218.07 367.013 219.055 365.865 219.672V223.453H369.021ZM358.74 216.828C358.732 218.383 360.349 219.422 362.631 219.422C364.888 219.422 366.521 218.383 366.521 216.828C366.521 215.273 364.888 214.25 362.631 214.266C360.349 214.25 358.732 215.273 358.74 216.828ZM360.662 223.453H364.631V220.148C364.029 220.305 363.357 220.391 362.631 220.391C361.92 220.391 361.256 220.312 360.662 220.156V223.453ZM372.029 221.734C372.045 219.641 372.686 219 373.764 218.344C374.412 217.953 374.904 217.328 374.904 216.453C374.904 215.391 374.076 214.711 373.045 214.719C372.154 214.711 371.256 215.242 371.17 216.531H369.748C369.826 214.633 371.256 213.531 373.045 213.531C375.006 213.531 376.279 214.789 376.279 216.516C376.279 217.742 375.701 218.594 374.732 219.188C373.756 219.781 373.404 220.383 373.373 221.734V221.812H372.029V221.734ZM371.748 224.078C371.732 223.531 372.201 223.078 372.748 223.078C373.303 223.078 373.756 223.531 373.748 224.078C373.756 224.633 373.303 225.086 372.748 225.094C372.201 225.086 371.732 224.633 371.748 224.078Z" fill="white"/>
<defs>
<clipPath id="clip0_744_2763">
<rect width="80" height="80" fill="white" transform="translate(260 8)"/>
</clipPath>
</defs>
</svg>
