<svg width="26" height="12" viewBox="0 0 26 12" fill="none" xmlns="http://www.w3.org/2000/svg">
<path d="M4.35156 11.625C1.625 11.625 0 9.51562 0.0078125 5.8125C0 2.125 1.64062 0 4.35156 0C7.0625 0 8.69531 2.125 8.69531 5.8125C8.69531 9.52344 7.07031 11.625 4.35156 11.625ZM2.05469 5.8125C2.05469 8.53125 2.92969 9.91406 4.35156 9.92188C5.76562 9.91406 6.64844 8.53125 6.64844 5.8125C6.64062 3.11719 5.76562 1.69531 4.35156 1.6875C2.9375 1.69531 2.0625 3.11719 2.05469 5.8125ZM14.5703 11.625C11.8438 11.625 10.2188 9.51562 10.2266 5.8125C10.2188 2.125 11.8594 0 14.5703 0C17.2812 0 18.9141 2.125 18.9141 5.8125C18.9141 9.52344 17.2891 11.625 14.5703 11.625ZM12.2734 5.8125C12.2734 8.53125 13.1484 9.91406 14.5703 9.92188C15.9844 9.91406 16.8672 8.53125 16.8672 5.8125C16.8594 3.11719 15.9844 1.69531 14.5703 1.6875C13.1562 1.69531 12.2812 3.11719 12.2734 5.8125ZM25.2109 0.15625V11.4688H23.1641V2.14062H23.1016L20.4609 3.82812V1.96875L23.2578 0.15625H25.2109Z" fill="#999999"/>
</svg>
