<svg width="600" height="360" viewBox="0 0 600 360" fill="none" xmlns="http://www.w3.org/2000/svg">
<rect width="600" height="360" rx="16" fill="white"/>
<path d="M73.375 74.2656V75.6875H60.4688V74.2656H66.0312V71.5156H61.8906V64.2031H63.625V66.5156H70.1719V64.2031H71.9062V71.5156H67.75V74.2656H73.375ZM63.625 70.1094H70.1719V67.9062H63.625V70.1094ZM85.7656 69.6875V71.0625H81.5781V74.2969H87.2031V75.7188H74.2969V74.2969H79.8594V71.0625H75.8594V64.3125H85.6562V65.7031H77.5938V69.6875H85.7656ZM93.1875 67.2812C93.1875 69.4688 94.4844 71.9531 96.7188 72.9844L95.75 74.3594C94.1562 73.6094 92.9766 72.0938 92.3438 70.3281C91.7031 72.2656 90.4688 73.9219 88.8438 74.7031L87.8281 73.3438C90.0781 72.2812 91.4375 69.625 91.4531 67.2812V66.0938H88.375V64.6562H96.1406V66.0938H93.1875V67.2812ZM99.1875 63.2656V68.7656H101.359V70.2188H99.1875V77.3906H97.4531V63.2656H99.1875ZM114.859 74.3125V75.75H101.953V74.3125H105.375V71.9844H103.484V67.375H111.609V65.6406H103.453V64.2344H113.328V68.7656H105.219V70.5781H113.656V71.9844H111.594V74.3125H114.859ZM107.062 74.3125H109.891V71.9844H107.062V74.3125Z" fill="#00A7E1"/>
<path d="M77.9297 163.773V165.695C77.9062 168.273 77.9531 171.227 76.9922 175.703L74.4375 175.445C74.8008 173.746 75.0234 172.234 75.1641 170.875L62.6719 171.578L62.2969 169.352L75.3047 168.883C75.3516 167.781 75.3633 166.797 75.375 165.883H62.9531V163.773H77.9297ZM80.0156 178.328V180.484H60.7031V178.328H67.8281V173.102H70.4062V178.328H80.0156ZM86.3091 163.141C89.0044 163.164 90.9731 164.781 90.9731 167.148C90.9731 169.492 89.0044 171.109 86.3091 171.086C83.5669 171.109 81.5981 169.492 81.5981 167.148C81.5981 164.781 83.5669 163.164 86.3091 163.141ZM86.3091 165.109C84.8794 165.086 83.9184 165.906 83.9184 167.148C83.9184 168.367 84.8794 169.164 86.3091 169.164C87.6919 169.164 88.6528 168.367 88.6763 167.148C88.6528 165.906 87.6919 165.086 86.3091 165.109ZM99.3872 161.898V183.086H96.9263V161.898H99.3872ZM95.1684 162.297V182.031H92.7309V177.602H89.145V175.609H92.7309V162.297H95.1684ZM80.6606 172.398C83.5434 172.398 88.1606 172.375 91.5591 171.859L91.7466 173.805C90.3989 174.062 88.9223 174.238 87.4575 174.344V181.375H84.9966V174.484C83.5083 174.543 82.102 174.555 80.9653 174.555L80.6606 172.398ZM118.853 161.898V183.109H116.228V161.898H118.853ZM107.438 163.445C110.626 163.445 112.946 166.352 112.97 170.922C112.946 175.539 110.626 178.422 107.438 178.422C104.228 178.422 101.907 175.539 101.907 170.922C101.907 166.352 104.228 163.445 107.438 163.445ZM107.438 165.789C105.634 165.789 104.415 167.688 104.415 170.922C104.415 174.18 105.634 176.078 107.438 176.078C109.22 176.078 110.438 174.18 110.438 170.922C110.438 167.688 109.22 165.789 107.438 165.789ZM129.927 171.297V173.758H122.287V171.297H129.927ZM132.518 181V164.031H135.564V171.836H135.799L142.432 164.031H146.158L139.596 171.648L146.228 181H142.549L137.463 173.711L135.564 175.938V181H132.518ZM161.85 172.516C161.85 178 158.522 181.234 154.069 181.234C149.616 181.234 146.287 177.977 146.287 172.516C146.287 167.031 149.616 163.797 154.069 163.797C158.522 163.797 161.85 167.031 161.85 172.516ZM158.78 172.516C158.78 168.648 156.834 166.539 154.069 166.539C151.303 166.539 149.358 168.648 149.358 172.516C149.358 176.383 151.303 178.492 154.069 178.492C156.834 178.492 158.78 176.383 158.78 172.516ZM162.589 166.586V164.031H176.112V166.586H170.886V181H167.839V166.586H162.589ZM181.07 164.031V181H178.023V164.031H181.07ZM183.004 166.586V164.031H196.527V166.586H191.301V181H188.254V166.586H183.004ZM201.485 164.031V181H198.438V164.031H201.485ZM211.317 166.984C211.294 170.875 213.333 174.766 216.778 176.242L215.231 178.328C212.794 177.203 211.001 174.953 210.028 172.188C209.055 175.176 207.239 177.613 204.661 178.82L203.067 176.641C206.606 175.117 208.669 171.062 208.669 166.984V163.609H211.317V166.984ZM220.927 161.898V183.109H218.302V161.898H220.927ZM241.306 161.898V174.719H238.704V170.336H235.681V168.18H238.704V161.898H241.306ZM241.306 175.68V182.828H227.22V175.68H241.306ZM229.822 177.742V180.719H238.751V177.742H229.822ZM236.033 163.867V165.977H223.611V163.867H228.533V161.734H231.111V163.867H236.033ZM229.822 166.797C232.775 166.797 234.837 168.367 234.861 170.594C234.837 172.891 232.775 174.391 229.822 174.391C226.892 174.391 224.806 172.891 224.806 170.594C224.806 168.367 226.892 166.797 229.822 166.797ZM229.822 168.766C228.298 168.766 227.29 169.469 227.29 170.594C227.29 171.766 228.298 172.445 229.822 172.445C231.345 172.445 232.353 171.766 232.353 170.594C232.353 169.469 231.345 168.766 229.822 168.766ZM261.568 161.922V177.461H258.967V172.211H253.928C252.908 173.348 251.408 174.039 249.709 174.039C246.521 174.039 244.107 171.742 244.107 168.625C244.107 165.461 246.521 163.188 249.709 163.188C251.396 163.188 252.885 163.867 253.904 164.992H258.967V161.922H261.568ZM262.107 180.555V182.664H247.67V175.867H250.271V180.555H262.107ZM249.709 165.508C247.881 165.508 246.592 166.727 246.592 168.625C246.592 170.5 247.881 171.719 249.709 171.719C251.443 171.719 252.756 170.5 252.779 168.625C252.756 166.727 251.443 165.508 249.709 165.508ZM255.053 167.102C255.181 167.582 255.263 168.086 255.263 168.625C255.263 169.141 255.193 169.633 255.076 170.102H258.967V167.102H255.053ZM281.033 163.188V165.086C281.033 167.066 281.033 169.234 280.471 172.234H283.401V174.344H274.987V183.109H272.362V174.344H264.088V172.234H277.822C278.408 169.352 278.432 167.195 278.432 165.297H266.362V163.188H281.033ZM302.116 161.922V177.953H299.491V176.102H295.342V174.273H299.491V161.922H302.116ZM302.608 180.555V182.664H287.069V176.406H289.671V180.555H302.608ZM284.257 171.438C288.171 171.414 293.421 171.367 297.921 170.805L298.061 172.68C296.315 172.973 294.51 173.172 292.717 173.289V177.367H290.116V173.43C288.135 173.512 286.249 173.523 284.585 173.523L284.257 171.438ZM291.171 162.695C294.264 162.695 296.421 164.219 296.444 166.445C296.421 168.719 294.264 170.172 291.171 170.172C288.03 170.172 285.874 168.719 285.874 166.445C285.874 164.219 288.03 162.695 291.171 162.695ZM291.171 164.617C289.483 164.617 288.335 165.297 288.335 166.445C288.335 167.594 289.483 168.273 291.171 168.273C292.788 168.273 293.936 167.594 293.96 166.445C293.936 165.297 292.788 164.617 291.171 164.617ZM310.015 170.594L311.984 164.031H314.211L312.992 170.594H310.015ZM332.926 161.898V172.703H330.348V161.898H332.926ZM332.973 173.688V179.195H321.512V180.836H333.606V182.898H318.957V177.25H330.371V175.703H318.91V173.688H332.973ZM323.223 164.055C323.223 166.75 325.004 169.281 328.356 170.289L327.09 172.305C324.629 171.555 322.871 169.973 321.91 167.945C320.949 170.148 319.145 171.871 316.613 172.68L315.301 170.641C318.723 169.539 320.527 166.82 320.527 164.055V162.414H323.223V164.055ZM353.774 161.898V183.086H351.266V172.375H348.922V182.008H346.485V162.297H348.922V170.242H351.266V161.898H353.774ZM339.126 164.336V175.516C340.954 175.48 342.958 175.328 345.172 174.883L345.43 177.156C342.571 177.672 340.157 177.812 337.907 177.812H336.501V164.336H339.126ZM370.603 175.141C375.197 175.164 378.103 176.617 378.127 179.125C378.103 181.586 375.197 183.062 370.603 183.062C366.033 183.062 363.103 181.586 363.103 179.125C363.103 176.617 366.033 175.164 370.603 175.141ZM370.603 177.109C367.556 177.109 365.705 177.836 365.728 179.125C365.705 180.367 367.556 181.047 370.603 181.047C373.673 181.047 375.525 180.367 375.548 179.125C375.525 177.836 373.673 177.109 370.603 177.109ZM377.986 162.906V164.664C377.986 166.328 377.986 168.109 377.4 170.289L374.822 170.055C375.349 167.992 375.384 166.504 375.384 164.969H363.314V162.906H377.986ZM380.33 171.508V173.617H361.111V171.508H368.564V167.664H371.142V171.508H380.33ZM399.022 161.898V183.086H396.397V161.898H399.022ZM392.693 164.148C392.693 170.453 390.256 175.82 382.826 179.336L381.467 177.25C387.01 174.613 389.588 171.027 390.045 166.211H382.545V164.148H392.693ZM426.116 171.625V173.734H417.726V175.492C421.522 175.75 423.749 177.062 423.772 179.266C423.749 181.703 421.007 183.062 416.437 183.062C411.819 183.062 409.054 181.703 409.054 179.266C409.054 177.062 411.304 175.738 415.147 175.492V173.734H406.804V171.625H426.116ZM416.437 177.461C413.343 177.484 411.679 178.094 411.702 179.266C411.679 180.438 413.343 181.07 416.437 181.07C419.46 181.07 421.147 180.438 421.171 179.266C421.147 178.094 419.46 177.484 416.437 177.461ZM424.382 162.836V164.922H418.288C418.698 166.668 421.23 168.238 425.202 168.602L424.288 170.664C420.444 170.277 417.585 168.742 416.437 166.586C415.288 168.73 412.476 170.277 408.632 170.664L407.741 168.602C411.632 168.238 414.163 166.645 414.608 164.922H408.562V162.836H424.382ZM441.914 163.094C446.461 163.094 449.812 165.367 449.812 168.812C449.812 171.988 447.082 174.109 443.203 174.484V178.375H451.641V180.508H432.281V178.375H440.625V174.484C436.77 174.109 434.039 171.988 434.062 168.812C434.039 165.367 437.391 163.094 441.914 163.094ZM441.914 165.203C438.82 165.18 436.594 166.586 436.617 168.812C436.594 171.109 438.82 172.469 441.914 172.469C445.055 172.469 447.258 171.109 447.258 168.812C447.258 166.586 445.055 165.18 441.914 165.203ZM458.426 163.07C460.137 163.059 461.625 163.68 462.645 164.734H467.684V161.898H470.286V173.969H467.684V171.578H462.622C461.602 172.621 460.125 173.242 458.426 173.242C455.239 173.242 452.825 171.109 452.825 168.156C452.825 165.156 455.239 163.047 458.426 163.07ZM458.426 165.25C456.598 165.227 455.309 166.398 455.309 168.156C455.309 169.938 456.598 171.039 458.426 171.062C460.184 171.039 461.473 169.938 461.497 168.156C461.473 166.398 460.184 165.227 458.426 165.25ZM470.286 174.953V182.828H456.2V174.953H470.286ZM458.801 177.016V180.719H467.731V177.016H458.801ZM463.817 166.844C463.922 167.254 463.981 167.699 463.981 168.156C463.981 168.602 463.922 169.035 463.817 169.445H467.684V166.844H463.817ZM492.118 170.5V172.562H483.728V174.156H489.704V179.359H477.657V180.906H490.29V182.898H475.103V177.484H487.149V176.125H475.079V174.156H481.126V172.562H472.806V170.5H492.118ZM489.634 162.555V169.164H475.243V162.555H489.634ZM477.798 164.594V167.125H487.032V164.594H477.798ZM510.669 161.898V172.82H508.091V161.898H510.669ZM510.716 173.711V179.172H499.255V180.883H511.349V182.898H496.701V177.273H508.115V175.703H496.654V173.711H510.716ZM505.56 162.953V165.062H501.13C501.236 167.406 503.029 169.621 506.31 170.523L505.044 172.539C502.572 171.824 500.802 170.312 499.841 168.391C498.892 170.512 497.04 172.199 494.427 172.984L493.232 170.922C496.513 169.949 498.341 167.57 498.482 165.062H493.912V162.953H505.56ZM515.908 181.188C514.9 181.188 514.08 180.367 514.08 179.359C514.08 178.375 514.9 177.555 515.908 177.555C516.869 177.555 517.713 178.375 517.713 179.359C517.713 180.367 516.869 181.188 515.908 181.188ZM522.447 181.188C521.439 181.188 520.619 180.367 520.619 179.359C520.619 178.375 521.439 177.555 522.447 177.555C523.408 177.555 524.252 178.375 524.252 179.359C524.252 180.367 523.408 181.188 522.447 181.188ZM528.986 181.188C527.978 181.188 527.158 180.367 527.158 179.359C527.158 178.375 527.978 177.555 528.986 177.555C529.947 177.555 530.791 178.375 530.791 179.359C530.791 180.367 529.947 181.188 528.986 181.188Z" fill="black"/>
<path d="M71.6719 214.734V216.078C71.6562 217.766 71.6719 219.672 71.0938 222.5L69.8906 222.359C70.1641 221.102 70.3047 220 70.3906 219.016L61.8906 219.531L61.6875 218.453L70.4375 218.094C70.4688 217.359 70.4688 216.695 70.4688 216.078V215.75H62.0938V214.734H71.6719ZM73.2188 224.328V225.375H60.5625V224.328H65.5312V220.734H66.7344V224.328H73.2188ZM77.6019 214.266C79.3675 214.281 80.6331 215.312 80.6488 216.844C80.6331 218.359 79.3675 219.406 77.6019 219.391C75.8363 219.406 74.555 218.359 74.5706 216.844C74.555 215.312 75.8363 214.281 77.6019 214.266ZM77.6019 215.219C76.4769 215.203 75.68 215.891 75.68 216.844C75.68 217.797 76.4769 218.469 77.6019 218.469C78.7269 218.469 79.5394 217.797 79.5394 216.844C79.5394 215.891 78.7269 215.203 77.6019 215.219ZM85.8988 213.375V227.266H84.7269V213.375H85.8988ZM83.2425 213.688V226.531H82.0863V223.453H79.4456V222.484H82.0863V213.688H83.2425ZM73.8831 220.469C75.805 220.469 78.9144 220.469 81.18 220.094L81.2738 221.031C80.2894 221.219 79.1956 221.336 78.1175 221.406V226.125H76.9613V221.469C75.8831 221.508 74.8675 221.516 74.055 221.516L73.8831 220.469ZM99.0319 213.375V227.297H97.7975V213.375H99.0319ZM91.6413 214.453C93.7038 214.469 95.1881 216.344 95.1881 219.297C95.1881 222.25 93.7038 224.125 91.6413 224.125C89.5631 224.125 88.0944 222.25 88.0944 219.297C88.0944 216.344 89.5631 214.469 91.6413 214.453ZM91.6413 215.547C90.2506 215.562 89.2819 217.031 89.2819 219.297C89.2819 221.562 90.2506 223.031 91.6413 223.031C93.0319 223.031 94.0006 221.562 94.0006 219.297C94.0006 217.031 93.0319 215.562 91.6413 215.547ZM101.946 221.688C101.962 218.734 102.759 216.281 104.196 214.203H105.384C104.321 215.75 103.337 218.906 103.337 221.688C103.337 224.469 104.321 227.641 105.384 229.188H104.196C102.759 227.094 101.962 224.641 101.946 221.688ZM118.095 213.375V227.266H116.923V219.984H114.876V226.547H113.751V213.688H114.876V218.969H116.923V213.375H118.095ZM111.939 215.078V216.094H107.954V222.781C109.868 222.773 111.197 222.703 112.736 222.391L112.845 223.422C111.173 223.766 109.751 223.828 107.626 223.828H106.736V215.078H111.939ZM132.447 224.547V225.562H119.728V224.547H123.275V221.234H120.884V220.219H123.056V215.688H120.853V214.672H131.228V215.688H129.025V220.219H131.197V221.234H128.806V224.547H132.447ZM124.275 220.219H127.822V215.688H124.275V220.219ZM124.509 224.547H127.588V221.234H124.509V224.547ZM141.823 217.109C141.823 219.625 143.432 222.156 145.448 223.078L144.713 224.078C143.135 223.266 141.83 221.602 141.213 219.625C140.596 221.703 139.291 223.484 137.713 224.328L136.916 223.344C138.948 222.344 140.573 219.672 140.573 217.109V214.578H141.823V217.109ZM148.448 213.375V227.297H147.229V219.125H143.932V218.125H147.229V213.375H148.448ZM155.143 216.016C155.143 217.828 156.503 219.453 158.549 220.125L157.971 221.094C156.37 220.57 155.159 219.461 154.565 218.062C153.963 219.656 152.682 220.898 151.018 221.5L150.393 220.516C152.471 219.812 153.924 218.016 153.94 216.016V215.422H150.768V214.406H158.268V215.422H155.143V216.016ZM161.299 213.375V216.922H163.393V217.953H161.299V221.766H160.081V213.375H161.299ZM156.846 222.141C159.706 222.141 161.424 223.078 161.424 224.672C161.424 226.297 159.706 227.234 156.846 227.234C153.987 227.234 152.237 226.297 152.237 224.672C152.237 223.078 153.987 222.141 156.846 222.141ZM156.846 223.125C154.753 223.125 153.456 223.703 153.471 224.672C153.456 225.672 154.753 226.25 156.846 226.25C158.956 226.25 160.237 225.672 160.237 224.672C160.237 223.703 158.956 223.125 156.846 223.125ZM175.401 213.391V223.938H174.167V222.5H171.292V221.609H174.167V213.391H175.401ZM175.745 225.938V226.969H165.87V222.906H167.104V225.938H175.745ZM163.87 219.828C166.464 219.812 169.933 219.797 172.917 219.422L172.995 220.312C171.753 220.508 170.456 220.633 169.183 220.703V223.453H167.948V220.766C166.542 220.828 165.206 220.836 164.042 220.828L163.87 219.828ZM168.433 213.953C170.464 213.953 171.854 214.922 171.87 216.375C171.854 217.859 170.464 218.781 168.433 218.781C166.386 218.781 164.995 217.859 164.995 216.375C164.995 214.922 166.386 213.953 168.433 213.953ZM168.433 214.891C167.073 214.875 166.151 215.484 166.167 216.375C166.151 217.281 167.073 217.875 168.433 217.875C169.745 217.875 170.683 217.281 170.698 216.375C170.683 215.484 169.745 214.875 168.433 214.891ZM180.925 221.688C180.909 224.641 180.113 227.094 178.675 229.188H177.488C178.55 227.641 179.534 224.469 179.534 221.688C179.534 218.906 178.55 215.75 177.488 214.203H178.675C180.113 216.281 180.909 218.734 180.925 221.688ZM186.777 214.281C188.918 214.297 190.464 215.609 190.48 217.547C190.464 219.289 189.214 220.531 187.402 220.75V223.125C188.699 223.062 190.003 222.969 191.214 222.812L191.293 223.734C188.355 224.234 185.058 224.266 182.621 224.25L182.418 223.219C183.535 223.211 184.832 223.203 186.168 223.156V220.75C184.324 220.539 183.058 219.297 183.074 217.547C183.058 215.609 184.605 214.297 186.777 214.281ZM186.777 215.344C185.324 215.344 184.261 216.25 184.277 217.547C184.261 218.844 185.324 219.75 186.777 219.75C188.214 219.75 189.261 218.844 189.277 217.547C189.261 216.25 188.214 215.344 186.777 215.344ZM193.324 213.375V219.109H195.589V220.172H193.324V227.266H192.105V213.375H193.324ZM200.481 226V214.688H201.887V220.281H202.027L207.059 214.688H208.902L204.168 219.797L208.902 226H207.184L203.293 220.766L201.887 222.359V226H200.481ZM219.114 220.344C219.114 223.922 217.004 226.156 214.114 226.156C211.208 226.156 209.114 223.922 209.114 220.344C209.114 216.766 211.208 214.531 214.114 214.531C217.004 214.531 219.114 216.766 219.114 220.344ZM217.754 220.344C217.754 217.422 216.161 215.844 214.114 215.844C212.067 215.844 210.473 217.422 210.473 220.344C210.473 223.266 212.067 224.844 214.114 224.844C216.161 224.844 217.754 223.266 217.754 220.344ZM219.762 215.938V214.688H228.294V215.938H224.747V226H223.325V215.938H219.762ZM231.255 214.688V226H229.849V214.688H231.255ZM232.81 215.938V214.688H241.341V215.938H237.794V226H236.372V215.938H232.81ZM244.303 214.688V226H242.896V214.688H244.303ZM250.732 217.109C250.717 219.641 252.451 222.203 254.498 223.125L253.748 224.094C252.17 223.32 250.803 221.688 250.139 219.703C249.49 221.805 248.123 223.555 246.498 224.375L245.717 223.344C247.779 222.391 249.498 219.75 249.514 217.109V214.578H250.732V217.109ZM257.248 213.375V227.297H256.014V213.375H257.248ZM270.819 213.375V221.797H269.584V218.625H267.225V217.609H269.584V213.375H270.819ZM270.819 222.547V227.078H261.741V222.547H270.819ZM262.959 223.531V226.078H269.616V223.531H262.959ZM267.428 214.844V215.844H259.319V214.844H262.772V213.25H263.975V214.844H267.428ZM263.366 216.562C265.256 216.562 266.584 217.578 266.6 219.031C266.584 220.531 265.256 221.516 263.366 221.516C261.475 221.516 260.147 220.531 260.147 219.031C260.147 217.578 261.475 216.562 263.366 216.562ZM263.366 217.516C262.163 217.516 261.319 218.141 261.319 219.031C261.319 219.953 262.163 220.562 263.366 220.578C264.569 220.562 265.413 219.953 265.413 219.031C265.413 218.141 264.569 217.516 263.366 217.516ZM284.327 213.391V223.656H283.092V219.906H279.499C278.858 220.727 277.827 221.219 276.639 221.219C274.561 221.219 273.03 219.781 273.03 217.75C273.03 215.719 274.561 214.281 276.639 214.266C277.819 214.273 278.827 214.758 279.483 215.562H283.092V213.391H284.327ZM284.717 225.938V226.969H275.405V222.578H276.639V225.938H284.717ZM276.639 215.359C275.217 215.375 274.202 216.359 274.202 217.75C274.202 219.141 275.217 220.125 276.639 220.125C277.999 220.125 279.046 219.141 279.046 217.75C279.046 216.359 277.999 215.375 276.639 215.359ZM280.046 216.578C280.163 216.938 280.233 217.328 280.233 217.75C280.233 218.156 280.163 218.539 280.046 218.891H283.092V216.578H280.046ZM297.304 214.281V215.5C297.304 216.82 297.304 218.25 296.913 220.25H298.976V221.266H293.241V227.297H292.007V221.266H286.319V220.25H295.663C296.085 218.25 296.085 216.789 296.085 215.5V215.297H287.913V214.281H297.304ZM311.281 213.391V223.938H310.046V222.5H307.171V221.609H310.046V213.391H311.281ZM311.624 225.938V226.969H301.749V222.906H302.984V225.938H311.624ZM299.749 219.828C302.343 219.812 305.812 219.797 308.796 219.422L308.874 220.312C307.632 220.508 306.335 220.633 305.062 220.703V223.453H303.827V220.766C302.421 220.828 301.085 220.836 299.921 220.828L299.749 219.828ZM304.312 213.953C306.343 213.953 307.734 214.922 307.749 216.375C307.734 217.859 306.343 218.781 304.312 218.781C302.265 218.781 300.874 217.859 300.874 216.375C300.874 214.922 302.265 213.953 304.312 213.953ZM304.312 214.891C302.952 214.875 302.031 215.484 302.046 216.375C302.031 217.281 302.952 217.875 304.312 217.875C305.624 217.875 306.562 217.281 306.577 216.375C306.562 215.484 305.624 214.875 304.312 214.891ZM314.195 221.688C314.211 218.734 315.008 216.281 316.445 214.203H317.633C316.57 215.75 315.586 218.906 315.586 221.688C315.586 224.469 316.57 227.641 317.633 229.188H316.445C315.008 227.094 314.211 224.641 314.195 221.688ZM329.922 213.391V223.938H328.688V222.5H325.812V221.609H328.688V213.391H329.922ZM330.266 225.938V226.969H320.391V222.906H321.625V225.938H330.266ZM318.391 219.828C320.984 219.812 324.453 219.797 327.438 219.422L327.516 220.312C326.273 220.508 324.977 220.633 323.703 220.703V223.453H322.469V220.766C321.062 220.828 319.727 220.836 318.562 220.828L318.391 219.828ZM322.953 213.953C324.984 213.953 326.375 214.922 326.391 216.375C326.375 217.859 324.984 218.781 322.953 218.781C320.906 218.781 319.516 217.859 319.516 216.375C319.516 214.922 320.906 213.953 322.953 213.953ZM322.953 214.891C321.594 214.875 320.672 215.484 320.688 216.375C320.672 217.281 321.594 217.875 322.953 217.875C324.266 217.875 325.203 217.281 325.219 216.375C325.203 215.484 324.266 214.875 322.953 214.891ZM336.68 216.016C336.68 217.828 338.039 219.453 340.086 220.125L339.508 221.094C337.907 220.57 336.696 219.461 336.102 218.062C335.5 219.656 334.219 220.898 332.555 221.5L331.93 220.516C334.008 219.812 335.461 218.016 335.477 216.016V215.422H332.305V214.406H339.805V215.422H336.68V216.016ZM342.836 213.375V216.922H344.93V217.953H342.836V221.766H341.617V213.375H342.836ZM338.383 222.141C341.242 222.141 342.961 223.078 342.961 224.672C342.961 226.297 341.242 227.234 338.383 227.234C335.524 227.234 333.774 226.297 333.774 224.672C333.774 223.078 335.524 222.141 338.383 222.141ZM338.383 223.125C336.289 223.125 334.992 223.703 335.008 224.672C334.992 225.672 336.289 226.25 338.383 226.25C340.492 226.25 341.774 225.672 341.774 224.672C341.774 223.703 340.492 223.125 338.383 223.125ZM360.634 213.375V227.297H359.399V213.375H360.634ZM353.243 214.453C355.306 214.469 356.79 216.344 356.79 219.297C356.79 222.25 355.306 224.125 353.243 224.125C351.165 224.125 349.696 222.25 349.696 219.297C349.696 216.344 351.165 214.469 353.243 214.453ZM353.243 215.547C351.853 215.562 350.884 217.031 350.884 219.297C350.884 221.562 351.853 223.031 353.243 223.031C354.634 223.031 355.603 221.562 355.603 219.297C355.603 217.031 354.634 215.562 353.243 215.547ZM367.329 215.625C367.329 217.516 368.767 219.25 370.783 219.938L370.111 220.906C368.572 220.344 367.361 219.195 366.751 217.75C366.158 219.383 364.923 220.672 363.298 221.297L362.642 220.312C364.72 219.531 366.111 217.672 366.126 215.531V214.094H367.329V215.625ZM373.548 213.375V217H375.642V218.031H373.548V221.828H372.329V213.375H373.548ZM369.095 222.188C371.954 222.188 373.673 223.109 373.673 224.703C373.673 226.328 371.954 227.234 369.095 227.234C366.236 227.234 364.486 226.328 364.486 224.703C364.486 223.109 366.236 222.188 369.095 222.188ZM369.095 223.172C367.001 223.172 365.704 223.75 365.72 224.703C365.704 225.688 367.001 226.25 369.095 226.266C371.204 226.25 372.486 225.688 372.486 224.703C372.486 223.75 371.204 223.172 369.095 223.172ZM383.087 214.219V218.047H378.025V220.062C380.494 220.062 382.283 219.977 384.447 219.609L384.572 220.625C382.337 221 380.478 221.078 377.9 221.078H376.822V217.078H381.884V215.219H376.791V214.219H383.087ZM387.056 213.391V216.953H389.166V217.984H387.056V221.828H385.837V213.391H387.056ZM387.056 222.562V227.266H385.837V223.562H377.962V222.562H387.056ZM393.174 221.688C393.158 224.641 392.361 227.094 390.924 229.188H389.736C390.799 227.641 391.783 224.469 391.783 221.688C391.783 218.906 390.799 215.75 389.736 214.203H390.924C392.361 216.281 393.158 218.734 393.174 221.688ZM406.291 213.375V227.297H405.057V213.375H406.291ZM398.901 214.453C400.963 214.469 402.448 216.344 402.448 219.297C402.448 222.25 400.963 224.125 398.901 224.125C396.823 224.125 395.354 222.25 395.354 219.297C395.354 216.344 396.823 214.469 398.901 214.453ZM398.901 215.547C397.51 215.562 396.541 217.031 396.541 219.297C396.541 221.562 397.51 223.031 398.901 223.031C400.291 223.031 401.26 221.562 401.26 219.297C401.26 217.031 400.291 215.562 398.901 215.547ZM412.057 218.938L413.276 214.688H414.432L413.573 218.938H412.057ZM426.706 213.375V220.578H425.503V213.375H426.706ZM426.722 221.281V224.609H418.925V226.109H427.222V227.109H417.722V223.656H425.503V222.266H417.691V221.281H426.722ZM420.175 214.844C420.159 216.812 421.659 218.547 423.722 219.219L423.112 220.172C421.487 219.617 420.191 218.453 419.566 216.953C418.941 218.57 417.636 219.844 415.987 220.438L415.347 219.469C417.441 218.734 418.925 216.891 418.925 214.844V213.781H420.175V214.844ZM440.621 213.375V227.266H439.418V220.078H437.418V226.547H436.261V213.688H437.418V219.031H439.418V213.375H440.621ZM430.683 215.078V222.578C432.066 222.562 433.535 222.469 435.23 222.125L435.386 223.219C433.449 223.562 431.855 223.672 430.324 223.672H429.464V215.078H430.683ZM452.246 222.156C455.231 222.156 457.121 223.094 457.121 224.703C457.121 226.297 455.231 227.234 452.246 227.234C449.277 227.234 447.387 226.297 447.387 224.703C447.387 223.094 449.277 222.156 452.246 222.156ZM452.246 223.094C450.027 223.109 448.59 223.719 448.606 224.703C448.59 225.672 450.027 226.266 452.246 226.266C454.465 226.266 455.887 225.672 455.902 224.703C455.887 223.719 454.465 223.109 452.246 223.094ZM457.012 214.094V215.266C457.012 216.391 457.012 217.516 456.621 218.953L455.418 218.812C455.793 217.375 455.793 216.359 455.793 215.266V215.094H447.481V214.094H457.012ZM458.621 219.859V220.859H445.981V219.859H451.215V217.172H452.418V219.859H458.621ZM470.957 213.375V227.266H469.723V213.375H470.957ZM466.848 214.891C466.832 218.891 464.973 222.422 460.317 224.656L459.645 223.656C463.403 221.875 465.317 219.211 465.598 215.891H460.286V214.891H466.848ZM489.333 219.875V220.891H483.599V222.375C486.224 222.484 487.771 223.344 487.786 224.812C487.771 226.359 485.989 227.234 483.005 227.234C479.989 227.234 478.208 226.359 478.208 224.812C478.208 223.344 479.747 222.484 482.396 222.375V220.891H476.677V219.875H489.333ZM483.005 223.312C480.771 223.328 479.443 223.875 479.458 224.812C479.443 225.734 480.771 226.281 483.005 226.281C485.208 226.281 486.552 225.734 486.552 224.812C486.552 223.875 485.208 223.328 483.005 223.312ZM488.208 214.031V215.031H483.802C483.88 216.594 486.177 217.805 488.63 218.062L488.177 219.031C485.903 218.758 483.771 217.742 483.005 216.188C482.247 217.742 480.122 218.758 477.833 219.031L477.396 218.062C479.802 217.805 482.114 216.594 482.208 215.031H477.833V214.031H488.208ZM500.209 214.281C503.162 214.297 505.287 215.734 505.287 217.922C505.287 219.992 503.443 221.367 500.802 221.531V224.453H506.599V225.484H493.881V224.453H499.599V221.531C496.967 221.359 495.131 219.984 495.131 217.922C495.131 215.734 497.256 214.297 500.209 214.281ZM500.209 215.297C497.959 215.297 496.318 216.359 496.318 217.922C496.318 219.531 497.959 220.562 500.209 220.578C502.459 220.562 504.099 219.531 504.099 217.922C504.099 216.359 502.459 215.297 500.209 215.297ZM511.217 214.188C512.397 214.18 513.404 214.625 514.061 215.375H517.67V213.375H518.904V221.359H517.67V219.531H514.061C513.404 220.281 512.397 220.734 511.217 220.734C509.139 220.734 507.608 219.375 507.608 217.453C507.608 215.531 509.139 214.172 511.217 214.188ZM511.217 215.219C509.795 215.219 508.779 216.172 508.779 217.453C508.779 218.766 509.795 219.688 511.217 219.703C512.592 219.688 513.623 218.766 513.623 217.453C513.623 216.172 512.592 215.219 511.217 215.219ZM518.904 222.078V227.078H509.826V222.078H518.904ZM511.045 223.078V226.078H517.701V223.078H511.045ZM514.639 216.391C514.748 216.719 514.811 217.078 514.811 217.453C514.811 217.82 514.748 218.164 514.654 218.484H517.67V216.391H514.639ZM533.553 219.25V220.25H527.819V221.625H531.928V224.734H523.678V226.141H532.35V227.109H522.459V223.812H530.725V222.578H522.428V221.625H526.6V220.25H520.897V219.25H533.553ZM531.913 213.844V218.078H522.538V213.844H531.913ZM523.756 214.828V217.094H530.694V214.828H523.756ZM72.0156 237.375V244.594H70.8125V237.375H72.0156ZM72.0312 245.266V248.578H64.2344V250.125H72.5312V251.109H63.0312V247.656H70.8125V246.234H63V245.266H72.0312ZM65.5625 239.344C65.5625 241.156 67.0469 242.734 69.1406 243.359L68.5312 244.312C66.8906 243.797 65.5859 242.695 64.9688 241.266C64.3672 242.828 63.0391 244.047 61.3438 244.609L60.7656 243.641C62.8438 242.953 64.3281 241.25 64.3281 239.344V239.188H61.0781V238.172H68.7656V239.188H65.5625V239.344ZM89.2819 237.375V251.297H88.0475V243.453H85.0006V242.438H88.0475V237.375H89.2819ZM82.5788 241.5C82.5788 243.812 84.235 246.328 86.2663 247.25L85.5319 248.234C83.9459 247.461 82.61 245.781 81.985 243.844C81.3444 245.898 79.9772 247.68 78.3913 248.516L77.6413 247.562C79.6569 246.578 81.3288 243.969 81.3444 241.5V239.828H78.1725V238.812H85.7663V239.828H82.5788V241.5ZM102.134 237.375V240.781H104.228V241.797H102.134V245.266H100.915V237.375H102.134ZM98.3369 238.281C98.3213 241.781 95.8681 244.281 91.7588 245.406L91.2588 244.422C94.6806 243.5 96.7666 241.648 97.0244 239.297H91.8838V238.281H98.3369ZM102.134 245.906V251.078H93.3369V245.906H102.134ZM94.5556 246.922V250.078H100.915V246.922H94.5556ZM107.173 238.703L105.954 242.953H104.798L105.658 238.703H107.173ZM119.9 237.375V251.266H118.713V237.375H119.9ZM117.103 237.672V250.562H115.931V243.812H114.15C114.017 246.516 112.869 248.203 111.15 248.203C109.338 248.203 108.166 246.328 108.166 243.375C108.166 240.422 109.338 238.547 111.15 238.547C112.838 238.547 113.978 240.18 114.134 242.797H115.931V237.672H117.103ZM111.15 239.703C110.025 239.703 109.306 241.109 109.322 243.375C109.306 245.625 110.025 247.047 111.15 247.031C112.275 247.047 112.994 245.625 112.994 243.375C112.994 241.109 112.275 239.703 111.15 239.703ZM137.073 237.375V251.266H135.901V243.984H133.854V250.547H132.729V237.688H133.854V242.969H135.901V237.375H137.073ZM130.916 239.078V240.094H126.932V246.781C128.846 246.773 130.174 246.703 131.713 246.391L131.823 247.422C130.151 247.766 128.729 247.828 126.604 247.828H125.713V239.078H130.916ZM149.565 237.391V241.969H151.659V243H149.565V247.797H148.346V237.391H149.565ZM147.018 239.094V240.094H138.737V239.094H142.268V237.391H143.487V239.094H147.018ZM142.878 240.859C144.862 240.859 146.206 241.875 146.221 243.453C146.206 245.016 144.862 246.016 142.878 246.016C140.878 246.016 139.518 245.016 139.534 243.453C139.518 241.875 140.878 240.859 142.878 240.859ZM142.878 241.828C141.565 241.828 140.69 242.469 140.706 243.453C140.69 244.438 141.565 245.062 142.878 245.047C144.174 245.062 145.049 244.438 145.065 243.453C145.049 242.469 144.174 241.828 142.878 241.828ZM150.206 249.938V250.969H140.878V246.969H142.081V249.938H150.206ZM159.738 238.031C161.605 238.016 163.019 239.102 163.284 240.703H166.191V237.375H167.425V244.828H166.191V241.719H163.3C163.05 243.359 161.62 244.453 159.738 244.453C157.628 244.453 156.128 243.141 156.128 241.234C156.128 239.344 157.628 238.016 159.738 238.031ZM159.738 239.078C158.316 239.062 157.3 239.953 157.3 241.234C157.3 242.5 158.316 243.422 159.738 243.422C161.144 243.422 162.144 242.5 162.144 241.234C162.144 239.953 161.144 239.062 159.738 239.078ZM159.706 245.531V247.297H166.191V245.531H167.425V251.078H158.472V245.531H159.706ZM159.706 250.078H166.191V248.281H159.706V250.078ZM182.121 245.453V246.469H176.324V251.266H175.121V246.469H169.402V245.453H182.121ZM180.464 238.156V243.562H171.043V238.156H180.464ZM172.246 239.156V242.594H179.246V239.156H172.246ZM194.496 238.781V239.797H186.637V238.781H190.012V237.25H191.231V238.781H194.496ZM190.606 240.469C192.465 240.469 193.777 241.469 193.777 242.984C193.777 244.484 192.465 245.469 190.606 245.469C188.731 245.469 187.449 244.484 187.465 242.984C187.449 241.469 188.731 240.469 190.606 240.469ZM190.606 241.422C189.402 241.422 188.606 242.047 188.606 242.984C188.606 243.906 189.402 244.547 190.606 244.547C191.809 244.547 192.621 243.906 192.637 242.984C192.621 242.047 191.809 241.422 190.606 241.422ZM198.137 237.375V245.594H196.902V244.359H194.481V243.344H196.902V241.641H194.496V240.625H196.902V237.375H198.137ZM190.309 246.172V247.641H196.918V246.172H198.137V251.078H189.09V246.172H190.309ZM190.309 250.094H196.918V248.594H190.309V250.094ZM213.051 239.531V240.531H210.989V242.484H213.051V243.531H210.989V245.641H209.77V237.375H210.989V239.531H213.051ZM210.989 246.281V251.266H209.77V247.297H201.895V246.281H210.989ZM204.036 238.219C206.145 238.203 207.676 239.562 207.692 241.484C207.676 243.438 206.145 244.781 204.036 244.781C201.926 244.781 200.379 243.438 200.395 241.484C200.379 239.562 201.926 238.203 204.036 238.219ZM204.036 239.266C202.629 239.266 201.583 240.172 201.598 241.484C201.583 242.812 202.629 243.734 204.036 243.719C205.458 243.734 206.489 242.812 206.489 241.484C206.489 240.172 205.458 239.266 204.036 239.266ZM219.966 237.625C223.059 237.625 224.872 238.469 224.872 240.016C224.872 241.594 223.059 242.438 219.966 242.453C216.872 242.438 215.044 241.594 215.044 240.016C215.044 238.469 216.872 237.625 219.966 237.625ZM219.966 238.547C217.653 238.547 216.309 239.109 216.325 240.016C216.309 240.984 217.653 241.516 219.966 241.516C222.262 241.516 223.622 240.984 223.622 240.016C223.622 239.109 222.262 238.547 219.966 238.547ZM226.294 243.391V244.391H213.637V243.391H226.294ZM224.669 245.594V248.703H216.419V250.141H225.091V251.109H215.2V247.797H223.466V246.531H215.169V245.594H224.669ZM234.904 241.656C234.904 243.891 236.044 246.172 237.935 247.188L237.232 248.109C235.849 247.359 234.849 245.922 234.341 244.25C233.841 246.031 232.849 247.578 231.466 248.422L230.732 247.484C232.622 246.391 233.732 243.953 233.747 241.656V240.969H231.107V239.953H233.747V237.891H234.919V239.953H237.513V240.969H234.904V241.656ZM242.716 237.375V251.266H241.544V237.375H242.716ZM239.904 237.719V250.547H238.747V243.906H236.56V242.859H238.747V237.719H239.904ZM255.865 237.375V244.484H254.631V243.031H250.928V242.062H254.631V240.391H251.131C250.256 242.586 248.099 244.062 245.021 244.797L244.584 243.781C247.99 242.992 249.974 241.328 250.209 239.094H245.287V238.078H251.553C251.553 238.539 251.506 238.984 251.428 239.406H254.631V237.375H255.865ZM255.865 245.109V248.5H248.115V250.125H256.334V251.141H246.896V247.562H254.631V246.109H246.865V245.109H255.865ZM269.654 237.391V246H268.482V242.234H266.67V245.781H265.498V237.609H266.67V241.219H268.482V237.391H269.654ZM264.904 238.969V239.984H257.779V238.969H260.748V237.438H261.967V238.969H264.904ZM261.357 240.688C263.123 240.688 264.326 241.609 264.342 243.062C264.326 244.484 263.123 245.438 261.357 245.438C259.607 245.438 258.373 244.484 258.389 243.062C258.373 241.609 259.607 240.688 261.357 240.688ZM261.357 241.609C260.248 241.609 259.482 242.172 259.482 243.062C259.482 243.938 260.248 244.516 261.357 244.516C262.467 244.516 263.232 243.938 263.232 243.062C263.232 242.172 262.467 241.609 261.357 241.609ZM262.779 246.891C262.764 248.078 263.412 249.312 264.732 250.016C266.045 249.25 266.717 247.906 266.732 246.891V246.391H267.936V246.891C267.92 248.25 268.982 249.625 270.764 250.172L270.186 251.109C268.787 250.625 267.803 249.68 267.326 248.547C266.897 249.648 266.053 250.703 264.748 251.219C263.404 250.719 262.561 249.734 262.154 248.609C261.639 249.688 260.67 250.625 259.342 251.109L258.748 250.172C260.482 249.578 261.576 248.156 261.576 246.891V246.391H262.779V246.891ZM282.116 237.375V242.875H284.444V243.906H282.116V251.297H280.897V237.375H282.116ZM278.459 238.734V239.75H273.194V246.781C275.709 246.781 277.491 246.664 279.553 246.281L279.709 247.344C277.538 247.734 275.709 247.812 273.069 247.812H271.975V238.734H278.459ZM296.014 238.781V240.172C295.999 241.875 295.999 243.781 295.499 246.578L294.249 246.438C294.78 243.781 294.78 241.828 294.78 240.172V239.797H286.217V238.781H296.014ZM297.53 248.281V249.297H284.874V248.281H289.842V243.312H291.046V248.281H297.53ZM306.484 250.156C304.234 250.156 302.624 248.953 302.546 247.156H303.968C304.046 248.234 305.124 248.906 306.468 248.906C307.952 248.906 309.046 248.094 309.046 246.922C309.046 245.688 308.062 244.812 306.296 244.812H305.374V243.578H306.296C307.671 243.578 308.624 242.812 308.624 241.641C308.624 240.516 307.796 239.75 306.515 239.75C305.312 239.75 304.202 240.422 304.14 241.531H302.781C302.859 239.734 304.515 238.531 306.531 238.531C308.687 238.531 309.999 239.938 309.984 241.562C309.999 242.844 309.249 243.797 308.062 244.125V244.203C309.531 244.438 310.437 245.484 310.421 246.922C310.437 248.781 308.734 250.156 306.484 250.156ZM315.57 237.891C317.648 237.906 319.164 239.156 319.164 240.969C319.164 242.781 317.648 244.031 315.57 244.031C313.461 244.031 311.961 242.781 311.961 240.969C311.961 239.156 313.461 237.906 315.57 237.891ZM315.57 238.922C314.179 238.922 313.148 239.766 313.164 240.969C313.148 242.188 314.179 243.031 315.57 243.031C316.945 243.031 317.976 242.188 317.976 240.969C317.976 239.766 316.945 238.922 315.57 238.922ZM323.101 237.375V244.516H321.883V237.375H323.101ZM323.101 245.188V248.531H315.304V250.094H323.601V251.078H314.101V247.609H321.883V246.172H314.07V245.188H323.101ZM330.633 238.047V240.094H334.68V238.047H335.899V244.156H329.43V238.047H330.633ZM330.633 243.172H334.68V241.031H330.633V243.172ZM339.696 237.375V240.438H341.789V241.484H339.696V244.797H338.477V237.375H339.696ZM334.805 245.562V248.719H331.477V250.172C333.422 250.164 334.461 250.109 335.727 249.859L335.867 250.797C334.446 251.078 333.352 251.109 331.102 251.109H330.289V247.812H333.617V246.516H330.258V245.562H334.805ZM339.696 245.562V251.219H338.477V246.547H335.414V245.562H339.696ZM353.876 237.375V246.188H352.641V244.438H350.204V243.406H352.641V241.75H350.219V240.734H352.641V237.375H353.876ZM350.219 238.844V239.844H342.36V238.844H345.735V237.25H346.954V238.844H350.219ZM346.329 240.531C348.188 240.531 349.501 241.547 349.501 243.078C349.501 244.641 348.188 245.672 346.329 245.672C344.454 245.672 343.172 244.641 343.188 243.078C343.172 241.547 344.454 240.531 346.329 240.531ZM346.329 241.484C345.126 241.484 344.329 242.125 344.329 243.078C344.329 244.062 345.126 244.719 346.329 244.734C347.532 244.719 348.344 244.062 348.36 243.078C348.344 242.125 347.532 241.484 346.329 241.484ZM347.157 246.922C347.157 248.102 347.821 249.328 349.141 250.031C350.422 249.273 351.126 247.93 351.126 246.922V246.453H352.329V246.922C352.329 248.266 353.391 249.641 355.172 250.172L354.563 251.094C353.18 250.625 352.204 249.688 351.719 248.547C351.297 249.641 350.446 250.672 349.141 251.203C347.805 250.711 346.954 249.727 346.547 248.594C346.047 249.688 345.071 250.609 343.735 251.094L343.157 250.172C344.891 249.609 345.969 248.172 345.985 246.922V246.453H347.157V246.922ZM366.603 237.375V242.875H368.931V243.906H366.603V251.297H365.384V237.375H366.603ZM362.946 238.734V239.75H357.681V246.781C360.196 246.781 361.978 246.664 364.04 246.281L364.196 247.344C362.024 247.734 360.196 247.812 357.556 247.812H356.462V238.734H362.946ZM370.829 250.094C370.283 250.094 369.814 249.641 369.829 249.078C369.814 248.531 370.283 248.078 370.829 248.078C371.376 248.078 371.829 248.531 371.829 249.078C371.829 249.641 371.376 250.094 370.829 250.094Z" fill="black"/>
<path d="M61.0625 294L61.0469 292.969L64.9062 288.906C66.25 287.484 66.8906 286.719 66.8906 285.672C66.8906 284.516 65.9062 283.75 64.6406 283.75C63.2969 283.75 62.4375 284.609 62.4375 285.875H61.1094C61.0938 283.875 62.6406 282.531 64.6875 282.531C66.7344 282.531 68.2031 283.906 68.2031 285.672C68.2031 286.938 67.6094 287.922 65.6094 289.984L63.0156 292.656V292.75H68.4062V294H61.0625ZM73.8363 294.156C71.3206 294.156 69.8831 292.047 69.8831 288.344C69.8831 284.672 71.3519 282.531 73.8363 282.531C76.3206 282.531 77.7894 284.672 77.7894 288.344C77.7894 292.047 76.3363 294.156 73.8363 294.156ZM73.8363 292.906C75.4613 292.906 76.4144 291.266 76.4144 288.344C76.4144 285.422 75.4613 283.75 73.8363 283.75C72.2113 283.75 71.2425 285.422 71.2425 288.344C71.2425 291.266 72.1956 292.906 73.8363 292.906ZM79.3444 294L79.3288 292.969L83.1881 288.906C84.5319 287.484 85.1725 286.719 85.1725 285.672C85.1725 284.516 84.1881 283.75 82.9225 283.75C81.5788 283.75 80.7194 284.609 80.7194 285.875H79.3913C79.3756 283.875 80.9225 282.531 82.9694 282.531C85.0163 282.531 86.485 283.906 86.485 285.672C86.485 286.938 85.8913 287.922 83.8913 289.984L81.2975 292.656V292.75H86.6881V294H79.3444ZM92.1025 294.156C90.0556 294.156 88.5088 292.891 88.4306 291.156H89.79C89.8994 292.172 90.8838 292.922 92.1025 292.922C93.5713 292.922 94.6338 291.844 94.6338 290.422C94.6338 288.953 93.5244 287.875 92.0088 287.859C91.0556 287.844 90.3213 288.141 89.8994 288.875H88.54L89.3369 282.688H95.4619V283.938H90.5088L90.0869 287.25H90.1963C90.6963 286.859 91.4619 286.594 92.2588 286.594C94.415 286.594 96.0088 288.188 96.0088 290.391C96.0088 292.578 94.3525 294.156 92.1025 294.156ZM98.1888 294.094C97.6419 294.094 97.1731 293.641 97.1888 293.078C97.1731 292.531 97.6419 292.078 98.1888 292.078C98.7356 292.078 99.1888 292.531 99.1888 293.078C99.1888 293.641 98.7356 294.094 98.1888 294.094ZM104.259 294.156C101.744 294.156 100.306 292.047 100.306 288.344C100.306 284.672 101.775 282.531 104.259 282.531C106.744 282.531 108.213 284.672 108.213 288.344C108.213 292.047 106.759 294.156 104.259 294.156ZM104.259 292.906C105.884 292.906 106.838 291.266 106.838 288.344C106.838 285.422 105.884 283.75 104.259 283.75C102.634 283.75 101.666 285.422 101.666 288.344C101.666 291.266 102.619 292.906 104.259 292.906ZM113.533 282.531C115.486 282.547 117.643 283.719 117.643 287.891C117.643 291.906 116.002 294.156 113.346 294.156C111.361 294.156 109.955 292.938 109.674 291.141H111.064C111.314 292.156 112.08 292.906 113.346 292.906C115.189 292.906 116.314 291.312 116.33 288.562H116.174C115.518 289.5 114.486 290.062 113.283 290.062C111.252 290.062 109.58 288.516 109.58 286.328C109.58 284.219 111.127 282.516 113.533 282.531ZM113.533 283.766C112.049 283.766 110.939 284.922 110.955 286.312C110.955 287.719 112.002 288.828 113.486 288.828C114.955 288.828 116.111 287.609 116.111 286.281C116.111 284.984 115.033 283.766 113.533 283.766ZM119.822 294.094C119.276 294.094 118.807 293.641 118.822 293.078C118.807 292.531 119.276 292.078 119.822 292.078C120.369 292.078 120.822 292.531 120.822 293.078C120.822 293.641 120.369 294.094 119.822 294.094ZM125.237 282.688V294H123.815V284.156H123.752L121.002 285.984V284.562L123.815 282.688H125.237ZM127.933 294L127.917 292.969L131.776 288.906C133.12 287.484 133.761 286.719 133.761 285.672C133.761 284.516 132.776 283.75 131.511 283.75C130.167 283.75 129.308 284.609 129.308 285.875H127.979C127.964 283.875 129.511 282.531 131.558 282.531C133.604 282.531 135.073 283.906 135.073 285.672C135.073 286.938 134.479 287.922 132.479 289.984L129.886 292.656V292.75H135.276V294H127.933Z" fill="#999999"/>
</svg>
