<svg width="600" height="231" viewBox="0 0 600 231" fill="none" xmlns="http://www.w3.org/2000/svg">
<path d="M274.667 81.333H312L315.134 41.0344L306.87 44.8167L308.107 34.1143L300.816 26.1828L311.377 24.052L312.909 21.333H270L274.667 81.333Z" stroke="white" stroke-width="4" stroke-linecap="round" stroke-linejoin="round"/>
<path d="M272.119 48.2214C275.726 46.1744 285.008 43.3086 293.281 48.2214C301.554 53.1343 310.947 50.2685 314.61 48.2214" stroke="white" stroke-width="4" stroke-linecap="round" stroke-linejoin="round"/>
<path d="M310.779 24.1732C311.159 24.0966 311.487 23.8585 311.677 23.5209L312.91 21.3335L315.506 16.7278C316.016 15.8229 317.319 15.8229 317.829 16.7278L321.658 23.5209C321.848 23.8585 322.176 24.0966 322.556 24.1732L330.199 25.7155C331.218 25.9209 331.62 27.1602 330.917 27.9249L325.64 33.6656C325.378 33.9508 325.252 34.3361 325.297 34.721L326.192 42.4674C326.311 43.4992 325.257 44.2651 324.313 43.8328L317.222 40.5876C316.87 40.4264 316.465 40.4264 316.112 40.5876L315.135 41.035L309.022 43.8328C308.077 44.2651 307.023 43.4992 307.143 42.4673L308.038 34.721C308.082 34.3361 307.957 33.9508 307.695 33.6656L302.417 27.9249C301.714 27.1602 302.117 25.9209 303.135 25.7155L310.779 24.1732Z" stroke="white" stroke-width="4"/>
<path d="M253.774 149.5V151.562H245.383V153.156H251.36V158.359H239.313V159.906H251.946V161.898H236.758V156.484H248.805V155.125H236.735V153.156H242.782V151.562H234.461V149.5H253.774ZM236.899 148.164V141.555H251.289V148.164H236.899ZM239.453 146.125H248.688V143.594H239.453V146.125ZM265.341 142.422V152.078H255.45V142.422H265.341ZM256.622 159.93C260.864 159.332 263.466 157.059 263.466 154.492V153.906H266.067V154.492C266.044 157.059 268.669 159.332 272.934 159.93L271.903 161.969C268.622 161.441 266.067 159.941 264.79 157.832C263.489 159.941 260.934 161.441 257.653 161.969L256.622 159.93ZM258.005 149.992H262.762V144.508H258.005V149.992ZM268.833 154.914V140.898H271.434V146.359H274.387V148.539H271.434V154.914H268.833ZM292.037 142.375V144.484H290.162V150.496C290.935 150.438 291.709 150.367 292.435 150.273V148.375H295.342V146.547H292.435V144.461H295.342V140.898H297.943V153.883H295.342V150.461H292.494L292.599 152.195C288.556 152.863 283.881 152.934 280.506 152.945L280.224 150.789C280.963 150.789 281.771 150.789 282.615 150.777V144.484H280.763V142.375H292.037ZM283.576 158.172C283.552 155.676 286.283 154.258 290.771 154.258C295.295 154.258 298.002 155.676 298.013 158.172C298.002 160.609 295.295 162.062 290.771 162.062C286.283 162.062 283.552 160.609 283.576 158.172ZM285.146 150.742C285.967 150.719 286.81 150.684 287.654 150.648V144.484H285.146V150.742ZM286.154 158.172C286.142 159.402 287.806 160.047 290.771 160.047C293.748 160.047 295.412 159.402 295.412 158.172C295.412 156.918 293.748 156.25 290.771 156.25C287.806 156.25 286.142 156.918 286.154 158.172ZM317.057 140.898V149.172H320.198V151.352H317.057V162.039H314.455V140.898H317.057ZM300.346 156.25C305.502 153.672 308.291 150.086 308.807 145.258H301.494V143.102H311.455C311.444 149.324 308.865 154.797 301.823 158.266L300.346 156.25ZM335.761 153.977C340.155 153.977 342.851 155.465 342.862 158.008C342.851 160.586 340.155 162.074 335.761 162.086C331.331 162.074 328.589 160.586 328.589 158.008C328.589 155.465 331.331 153.977 335.761 153.977ZM326.667 152.125V142.234H329.245V145.094H334.191V142.234H336.769V152.125H326.667ZM329.245 150.062H334.191V147.133H329.245V150.062ZM331.191 158.008C331.191 159.32 332.855 160.035 335.761 160.023C338.655 160.035 340.284 159.32 340.284 158.008C340.284 156.695 338.655 156.027 335.761 156.016C332.855 156.027 331.191 156.695 331.191 158.008ZM340.05 153.461V140.898H342.652V145.961H345.605V148.141H342.652V153.461H340.05ZM349.765 142V144.883H354.5V142H357.078V145.867H361.343V140.898H363.945V152.477H361.343V148.023H357.078V151.82H347.164V142H349.765ZM349.765 149.711H354.5V146.898H349.765V149.711ZM349.976 161.781V153.414H352.578V155.57H361.343V153.414H363.945V161.781H349.976ZM352.578 159.672H361.343V157.586H352.578V159.672Z" fill="white"/>
<path opacity="0.7" d="M205.329 189.438V195.609H199.048V189.438H205.329ZM199.798 201.234C202.243 200.82 204.486 199.367 204.486 197.359V196.938H205.704V197.359C205.697 199.367 207.947 200.82 210.408 201.234L209.908 202.203C207.845 201.82 205.939 200.766 205.111 199.164C204.259 200.766 202.345 201.82 200.283 202.203L199.798 201.234ZM200.251 194.609H204.111V190.453H200.251V194.609ZM208.095 197.625V188.375H209.314V192.188H211.408V193.219H209.314V197.625H208.095ZM216.666 197.703C216.658 198.93 217.322 200.234 218.642 200.984C219.97 200.164 220.673 198.773 220.666 197.703V196.938H221.869V197.703C221.861 199.133 222.916 200.555 224.697 201.172L224.087 202.078C222.697 201.586 221.728 200.617 221.244 199.453C220.814 200.578 219.962 201.648 218.681 202.188C217.33 201.672 216.47 200.656 216.056 199.492C215.556 200.609 214.603 201.578 213.275 202.078L212.65 201.172C214.408 200.516 215.462 199.031 215.478 197.703V196.938H216.666V197.703ZM212.291 192.453C212.283 190.516 213.822 189.195 215.931 189.203C218.041 189.195 219.564 190.516 219.572 192.453C219.564 194.359 218.041 195.672 215.931 195.672C213.822 195.672 212.283 194.359 212.291 192.453ZM213.494 192.453C213.478 193.742 214.502 194.648 215.931 194.656C217.345 194.648 218.369 193.742 218.369 192.453C218.369 191.156 217.345 190.234 215.931 190.25C214.502 190.234 213.478 191.156 213.494 192.453ZM222.212 196.328V188.391H223.431V196.328H222.212ZM236.705 192.594V193.578H227.189V188.891H228.408V192.594H236.705ZM225.455 196.469V195.469H238.174V196.469H225.455ZM227.111 201.922V197.891H228.33V200.906H236.783V201.922H227.111ZM255.331 194.25V195.25H249.596V196.625H253.706V199.734H245.456V201.141H254.128V202.109H244.237V198.812H252.503V197.578H244.206V196.625H248.378V195.25H242.674V194.25H255.331ZM244.315 193.078V188.844H253.69V193.078H244.315ZM245.534 192.094H252.471V189.828H245.534V192.094ZM262.511 188.625C265.597 188.625 267.409 189.477 267.417 191.016C267.409 192.594 265.597 193.445 262.511 193.453C259.409 193.445 257.589 192.594 257.589 191.016C257.589 189.477 259.409 188.625 262.511 188.625ZM256.182 195.391V194.391H268.839V195.391H256.182ZM257.714 197.531V196.594H267.214V199.703H258.964V201.141H267.636V202.109H257.745V198.797H266.011V197.531H257.714ZM258.87 191.016C258.854 191.984 260.206 192.516 262.511 192.516C264.815 192.516 266.159 191.984 266.167 191.016C266.159 190.102 264.815 189.555 262.511 189.547C260.206 189.555 258.854 190.102 258.87 191.016ZM284.136 188.375V193.844H286.464V194.906H284.136V202.266H282.918V188.375H284.136ZM273.964 198.938V189.562H275.183V193.234H279.246V189.562H280.464V198.938H273.964ZM275.183 197.906H279.246V194.219H275.183V197.906ZM299.613 199.484V200.516H286.894V199.484H299.613ZM288.457 190.453V189.438H298.004V193.641H289.707V195.922H298.332V196.906H288.488V192.641H296.801V190.453H288.457ZM312.293 188.375V202.266H311.121V188.375H312.293ZM300.418 198.375C303.434 196.586 304.949 194.078 305.184 191.172H301.012V190.156H306.402C306.402 191.523 306.184 192.844 305.707 194.078H308.199V188.75H309.371V201.562H308.199V195.078H305.254C304.418 196.695 303.074 198.125 301.137 199.266L300.418 198.375ZM322.356 191C322.356 192.938 323.763 194.766 325.794 195.5L325.106 196.453C323.583 195.852 322.364 194.648 321.77 193.133C321.184 194.812 319.919 196.141 318.278 196.797L317.622 195.797C319.708 195.031 321.145 193.086 321.153 190.953V189.234H322.356V191ZM320.138 201.969V197.609H321.372V200.938H329.434V201.969H320.138ZM324.794 192.688V191.656H327.888V188.391H329.122V198.797H327.888V192.688H324.794ZM337.13 189.391V190.422H332.911V192.156H336.974V193.125H332.911V195.047C334.935 195.039 336.2 194.961 337.693 194.672L337.818 195.688C336.185 196.008 334.872 196.07 332.614 196.078H331.739V189.391H337.13ZM333.552 198.531V197.531H342.911V202.266H341.708V198.531H333.552ZM338.646 196.719V188.656H339.786V192.016H341.739V188.391H342.911V196.812H341.739V193.016H339.786V196.719H338.646ZM355.372 188.375V194.109H357.701V195.125H355.372V202.266H354.154V188.375H355.372ZM344.544 191.625V190.609H348.122V188.547H349.341V190.609H352.81V191.625H344.544ZM345.341 195.969C345.333 194.094 346.771 192.781 348.747 192.781C350.708 192.781 352.138 194.094 352.154 195.969C352.138 197.852 350.708 199.156 348.747 199.156C346.771 199.156 345.333 197.852 345.341 195.969ZM346.513 195.969C346.505 197.234 347.451 198.125 348.747 198.109C350.029 198.125 350.966 197.234 350.982 195.969C350.966 194.711 350.029 193.805 348.747 193.812C347.451 193.805 346.505 194.711 346.513 195.969ZM369.615 188.375V202.266H368.381V188.375H369.615ZM358.302 198.656C362.06 196.875 363.982 194.211 364.256 190.891H358.943V189.891H365.506C365.49 193.883 363.631 197.422 358.974 199.656L358.302 198.656ZM379.913 189.062C381.991 189.047 383.483 190.195 383.475 191.891C383.483 193.586 381.991 194.742 379.913 194.734C377.834 194.742 376.35 193.586 376.35 191.891C376.35 190.195 377.834 189.047 379.913 189.062ZM375.303 195.922C377.913 195.93 381.483 195.875 384.569 195.422L384.647 196.344C383.319 196.586 381.944 196.734 380.6 196.82V201.844H379.381V196.891C377.967 196.953 376.631 196.961 375.475 196.969L375.303 195.922ZM377.553 191.891C377.538 192.977 378.53 193.727 379.913 193.719C381.311 193.727 382.311 192.977 382.303 191.891C382.311 190.812 381.311 190.047 379.913 190.062C378.53 190.047 377.538 190.812 377.553 191.891ZM385.584 202.281V188.391H386.788V202.281H385.584ZM399.702 188.391V192.969H401.796V194H399.702V198.797H398.483V188.391H399.702ZM388.874 191.094V190.094H392.405V188.391H393.624V190.094H397.155V191.094H388.874ZM389.671 194.453C389.663 192.875 391.007 191.859 393.014 191.859C394.999 191.859 396.342 192.875 396.358 194.453C396.342 196.016 394.999 197.023 393.014 197.016C391.007 197.023 389.663 196.016 389.671 194.453ZM390.842 194.453C390.835 195.43 391.702 196.062 393.014 196.047C394.311 196.062 395.186 195.43 395.202 194.453C395.186 193.461 394.311 192.82 393.014 192.828C391.702 192.82 390.835 193.461 390.842 194.453ZM391.014 201.969V197.969H392.217V200.938H400.342V201.969H391.014ZM241.432 213.688V217.594H240.197V213.688H241.432ZM254.174 212.391V226.281H252.924V222.828H249.721V221.891H252.924V212.391H254.174ZM242.612 219.703C245.26 219.695 248.784 219.688 251.846 219.25L251.924 220.172C250.549 220.406 249.12 220.539 247.737 220.625V225.844H246.502V220.688C245.174 220.734 243.901 220.75 242.784 220.75L242.612 219.703ZM243.674 215.812C243.667 214.18 245.104 213.078 247.19 213.078C249.252 213.078 250.698 214.18 250.69 215.812C250.698 217.461 249.252 218.523 247.19 218.531C245.104 218.523 243.667 217.461 243.674 215.812ZM244.831 215.812C244.823 216.867 245.792 217.586 247.19 217.578C248.557 217.586 249.526 216.867 249.534 215.812C249.526 214.766 248.557 214.039 247.19 214.031C245.792 214.039 244.823 214.766 244.831 215.812ZM267.698 212.375V226.297H266.479V218.641H263.542V217.625H266.479V212.375H267.698ZM256.823 222.938V213.656H263.307V214.672H258.057V217.562H262.698V218.562H258.057V221.922C260.604 221.914 262.245 221.844 264.151 221.5L264.292 222.516C262.268 222.844 260.573 222.938 257.886 222.938H256.823ZM279.105 214.078V215.062H275.105V217.812H278.464V218.797H275.105V221.922C277.097 221.898 278.316 221.82 279.824 221.547L279.933 222.547C278.324 222.875 277.011 222.914 274.808 222.922H273.933V214.078H279.105ZM279.214 218.672V217.656H281.261V212.719H282.433V225.547H281.261V218.672H279.214ZM284.089 226.266V212.375H285.277V226.266H284.089ZM298.348 212.375V226.297H297.113V212.375H298.348ZM287.41 218.297C287.418 215.344 288.887 213.461 290.957 213.453C293.019 213.461 294.512 215.344 294.504 218.297C294.512 221.258 293.019 223.133 290.957 223.125C288.887 223.133 287.418 221.258 287.41 218.297ZM288.598 218.297C288.598 220.555 289.566 222.039 290.957 222.031C292.355 222.039 293.316 220.555 293.316 218.297C293.316 216.039 292.355 214.555 290.957 214.547C289.566 214.555 288.598 216.039 288.598 218.297ZM307.324 214.422C307.332 216.805 310.051 218.922 312.465 219.375L311.902 220.406C309.801 219.922 307.598 218.43 306.699 216.391C305.793 218.43 303.598 219.914 301.496 220.406L300.934 219.375C303.34 218.914 306.035 216.812 306.043 214.422V213.359H307.324V214.422ZM300.402 224.375V223.359H313.121V224.375H300.402ZM321.379 213.406V214.406H315.957V216.156H320.989V217.156H315.957V218.984C318.911 218.992 320.567 218.938 322.52 218.609L322.645 219.609C320.622 219.938 318.918 220.008 315.848 220H314.723V213.406H321.379ZM316.067 223.703C316.067 222.117 317.825 221.188 320.77 221.203C323.661 221.188 325.45 222.117 325.442 223.703C325.45 225.32 323.661 226.234 320.77 226.234C317.825 226.234 316.067 225.32 316.067 223.703ZM317.286 223.703C317.286 224.688 318.582 225.266 320.77 225.266C322.895 225.266 324.231 224.688 324.239 223.703C324.231 222.758 322.895 222.172 320.77 222.172C318.582 222.172 317.286 222.758 317.286 223.703ZM324.161 221V212.391H325.379V221H324.161ZM342.568 212.375V226.297H341.333V212.375H342.568ZM331.927 222.938V213.562H333.146V217.234H337.286V213.562H338.489V222.938H331.927ZM333.146 221.906H337.286V218.219H333.146V221.906ZM346.544 213.094V215.25H350.419V213.094H351.622V215.797H354.904V212.375H356.138V219.969H354.904V216.828H351.622V219.453H345.326V213.094H346.544ZM346.544 218.453H350.419V216.219H346.544V218.453ZM347.185 226.078V220.641H348.419V222.344H354.904V220.641H356.122V226.078H347.185ZM348.419 225.062H354.904V223.328H348.419V225.062ZM359.787 213.688V217.594H358.552V213.688H359.787Z" fill="white"/>
</svg>
