<svg width="179" height="52" viewBox="0 0 179 52" fill="none" xmlns="http://www.w3.org/2000/svg">
<rect width="179" height="52" rx="26" fill="black"/>
<path d="M36.2188 19.3438V33.3281H34.7188V29.9844H31.625V28.8594H34.7188V19.3438H36.2188ZM24.4531 26.625C27.1094 26.6094 30.6328 26.6016 33.7031 26.1719L33.7812 27.2656C32.4453 27.5 31.0625 27.6406 29.7188 27.7266V32.8906H28.2344V27.7969C26.9531 27.8438 25.7344 27.8594 24.6562 27.8594L24.4531 26.625ZM25.4844 22.7812C25.4922 21.125 26.9609 19.9844 29.0625 19.9844C31.1328 19.9844 32.6094 21.125 32.6094 22.7812C32.6094 24.4688 31.1328 25.5547 29.0625 25.5625C26.9609 25.5547 25.4922 24.4688 25.4844 22.7812ZM26.8906 22.7812C26.8828 23.7812 27.7734 24.4297 29.0625 24.4219C30.3047 24.4297 31.1953 23.7812 31.2031 22.7812C31.1953 21.7969 30.3125 21.1328 29.0625 21.125C27.7734 21.1328 26.8828 21.7969 26.8906 22.7812ZM49.6956 19.3281V33.3594H48.2269V25.7188H45.4456V24.5H48.2269V19.3281H49.6956ZM38.6644 30.0469V20.5781H45.2113V21.7812H40.1644V24.5H44.6175V25.6875H40.1644V28.8125C42.5081 28.8125 44.1331 28.7422 45.9925 28.4219L46.1488 29.625C44.1097 29.9531 42.3519 30.0391 39.7581 30.0469H38.6644ZM63.4694 19.3438V26.9531H62.0631V23.6875H60.4225V26.8594H59.0475V19.5938H60.4225V22.4531H62.0631V19.3438H63.4694ZM52.1256 26.2656V20.2969H57.5944V26.2656H52.1256ZM53.5163 25.0781H56.2194V21.4531H53.5163V25.0781ZM54.1256 33.1562V27.5625H55.5944V29.0938H62.0163V27.5625H63.4694V33.1562H54.1256ZM55.5944 31.9531H62.0163V30.2969H55.5944V31.9531ZM79.5325 19.3281V24.75H81.7825V26H79.5325V33.3281H78.0481V19.3281H79.5325ZM69.1575 30V20.5H70.6263V24.0938H74.3294V20.5H75.7981V30H69.1575ZM70.6263 28.7812H74.3294V25.2656H70.6263V28.7812ZM94.9469 30.4062V31.6562H82.1344V30.4062H87.775V27.9531H83.6969V23.5H91.9156V21.5312H83.6656V20.3125H93.3844V24.6875H85.1656V26.7344H93.7125V27.9531H89.2438V30.4062H94.9469ZM106.549 19.3281V24.9062H108.721V26.1406H106.549V33.3125H105.064V19.3281H106.549ZM95.6581 29.5781C99.1659 27.8281 101.072 25.2969 101.377 22.0312H96.3613V20.7969H102.893C102.877 24.8438 101.096 28.4609 96.4863 30.7344L95.6581 29.5781ZM120.791 19.3281V33.3281H119.291V19.3281H120.791ZM109.291 29.5781C113.01 27.8047 114.83 25.2812 115.119 22.0156H109.963V20.8281H116.619C116.619 24.9297 114.877 28.4766 110.073 30.7812L109.291 29.5781Z" fill="white"/>
<path d="M143.5 29C144.328 29 145 29.6716 145 30.5C145 31.3284 144.328 32 143.5 32C142.672 32 142 31.3284 142 30.5C142 29.6716 142.672 29 143.5 29ZM150.5 24.5C151.328 24.5 152 25.1716 152 26C152 26.8284 151.328 27.5 150.5 27.5C149.672 27.5 149 26.8284 149 26C149 25.1716 149.672 24.5 150.5 24.5ZM143.5 20C144.328 20 145 20.6716 145 21.5C145 22.3284 144.328 23 143.5 23C142.672 23 142 22.3284 142 21.5C142 20.6716 142.672 20 143.5 20Z" fill="#00A7E1"/>
</svg>
