<svg width="213" height="58" viewBox="0 0 213 58" fill="none" xmlns="http://www.w3.org/2000/svg">
<path d="M16.7109 0.0234375V4.875H19.6641V6.98438H16.7109V11.8594H14.1094V0.0234375H16.7109ZM0.234375 6.1875C0.222656 3.21094 2.68359 1.13672 5.95312 1.14844C9.21094 1.13672 11.6484 3.21094 11.6719 6.1875C11.6484 9.14062 9.21094 11.2148 5.95312 11.2031C2.68359 11.2148 0.222656 9.14062 0.234375 6.1875ZM2.74219 20.8594V18.75H5.64844V14.9062H2.88281V12.8438H17.1562V14.9062H14.4609V18.75H17.4375V20.8594H2.74219ZM2.78906 6.1875C2.77734 7.93359 4.13672 9.04688 5.95312 9.04688C7.75781 9.04688 9.10547 7.93359 9.11719 6.1875C9.10547 4.41797 7.75781 3.31641 5.95312 3.32812C4.13672 3.31641 2.77734 4.41797 2.78906 6.1875ZM8.17969 18.75H11.9297V14.9062H8.17969V18.75ZM27.9731 3.75C27.9614 6.5625 29.6489 9.30469 32.9419 10.4297L31.5122 12.4688C29.227 11.6133 27.5981 9.96094 26.6958 7.875C25.7934 10.207 24.0591 12.0352 21.5747 12.9609L20.1919 10.8984C23.602 9.75 25.3364 6.82031 25.3481 3.72656V1.3125H27.9731V3.75ZM24.0356 20.7656V14.0391H26.6841V18.6562H38.4731V20.7656H24.0356ZM31.1841 6.82031V4.6875H35.4028V0.0234375H38.0044V15.75H35.4028V6.82031H31.1841ZM63.435 0V21.1875H60.81V0H63.435ZM45.8803 15.3516C51.435 12.7148 53.9897 9.12891 54.4584 4.3125H46.9584V2.25H57.1069C57.1069 8.55469 54.6577 13.9102 47.2397 17.4375L45.8803 15.3516ZM76.9941 0.679688C76.9941 2.94141 79.8886 5.00391 84.3066 5.48438L83.4394 7.45312C79.8417 7.04297 76.9941 5.61328 75.6347 3.55078C74.2753 5.61328 71.4277 7.04297 67.8769 7.45312L66.9863 5.48438C71.4277 5.00391 74.3105 2.94141 74.3222 0.679688V0.117188H76.9941V0.679688ZM66.0019 10.5703V8.50781H85.3144V10.5703H76.9238V12.2109H82.9003V17.4609H70.8534V19.0078H83.4863V21H68.2988V15.5859H80.3456V14.2031H68.2753V12.2109H74.3222V10.5703H66.0019ZM105.623 16.5703V18.7266H86.2641V16.5703H94.6078V13.125H88.5609V6.1875H100.748V3.5625H88.5141V1.45312H103.327V8.25H91.1625V10.9922H103.819V13.125H97.1859V16.5703H105.623ZM129.929 0V21.1875H127.421V10.4766H125.077V20.1094H122.64V0.398438H125.077V8.34375H127.421V0H129.929ZM112.656 15.9141V2.4375H115.281V13.6172C117.109 13.582 119.101 13.418 121.327 12.9844L121.585 15.2578C118.726 15.7617 116.3 15.9141 114.062 15.9141H112.656ZM138.004 0.679688C141.215 0.691406 143.605 2.67188 143.629 5.46094C143.605 8.26172 141.215 10.2305 138.004 10.2422C134.769 10.2305 132.379 8.26172 132.379 5.46094C132.379 2.67188 134.769 0.691406 138.004 0.679688ZM134.91 5.46094C134.91 7.10156 136.223 8.13281 138.004 8.13281C139.785 8.13281 141.086 7.10156 141.098 5.46094C141.086 3.85547 139.785 2.82422 138.004 2.83594C136.223 2.82422 134.91 3.85547 134.91 5.46094ZM135.59 13.6641V11.625H149.652V17.1562H138.191V18.8672H150.285V20.9297H135.637V15.2344H147.051V13.6641H135.59ZM147.027 10.7109V0H149.652V10.7109H147.027ZM161.899 0.328125C166.727 0.339844 169.528 1.61719 169.539 3.96094C169.528 6.32812 166.727 7.60547 161.899 7.61719C157.082 7.60547 154.258 6.32812 154.258 3.96094C154.258 1.61719 157.082 0.339844 161.899 0.328125ZM152.266 10.8281V8.74219H171.578V10.8281H152.266ZM154.539 14.1797V12.2578H169.164V17.4375H157.117V19.0078H169.75V21H154.563V15.5859H166.61V14.1797H154.539ZM157 3.96094C156.989 5.13281 158.676 5.67188 161.899 5.67188C165.168 5.67188 166.844 5.13281 166.844 3.96094C166.844 2.87109 165.168 2.25 161.899 2.25C158.676 2.25 156.989 2.87109 157 3.96094ZM19.3125 44.1797V46.2656H0V44.1797H5.44922C6.09375 41.9297 6.22266 40.2539 6.24609 38.9297H1.80469V36.8438H8.8125V38.0859C8.80078 39.5039 8.80078 41.5547 8.13281 44.1797H13.8398C14.3906 41.9414 14.4961 40.2422 14.5195 38.9297H10.1016V36.8438H17.0859V38.0391C17.0742 39.4453 17.0742 41.4844 16.4648 44.1797H19.3125ZM2.15625 56.6016V48.6562H4.6875V54.4805C5.92969 54.4102 7.27734 54.2344 8.67188 53.8359L8.97656 55.9453C6.90234 56.5078 5.0625 56.6133 3.28125 56.6016H2.15625ZM8.53125 50.7422V48.7969H12.1406V47.2031H14.6953V48.7969H18.2109V50.7422H8.53125ZM9.58594 54.2812C9.58594 52.5352 11.2148 51.3867 13.4297 51.375C15.6094 51.3867 17.2266 52.5352 17.2266 54.2812C17.2266 56.0742 15.6094 57.1758 13.4297 57.1875C11.2148 57.1758 9.58594 56.0742 9.58594 54.2812ZM11.8125 54.2812C11.8008 55.0078 12.4805 55.3828 13.4297 55.3828C14.3555 55.3828 15.0234 55.0078 15.0234 54.2812C15.0234 53.5664 14.3555 53.1797 13.4297 53.1562C12.4805 53.1797 11.8008 53.5664 11.8125 54.2812ZM37.9106 36.0234V48.0234H35.2856V36.0234H37.9106ZM20.6372 42.0938C20.6372 39.1055 23.0747 37.043 26.3559 37.0312C29.6255 37.043 32.063 39.1055 32.0513 42.0938C32.063 45.0117 29.6255 47.1094 26.3559 47.1094C23.0747 47.1094 20.6372 45.0117 20.6372 42.0938ZM23.1919 42.0938C23.1802 43.8047 24.5044 44.918 26.3559 44.9062C28.1723 44.918 29.4966 43.8047 29.4966 42.0938C29.4966 40.3359 28.1723 39.2344 26.3559 39.2344C24.5044 39.2344 23.1802 40.3359 23.1919 42.0938ZM23.8481 56.9297V49.0547H37.9106V56.9297H23.8481ZM26.4263 54.8203H35.3559V51.1172H26.4263V54.8203ZM45.3291 48.3984V50.6719H48.1181V48.3984H50.5322V55.125C53.0283 54.0703 54.165 51.9492 54.165 49.9219V48.2344H56.7666V49.9219C56.7548 52.1133 57.9033 54.2578 60.5166 55.1484L59.1806 57.0938C57.3056 56.4141 56.1103 55.1367 55.4423 53.5312C54.7392 55.0898 53.5322 56.3906 51.7744 57.0938L50.5322 55.2539V56.9297H42.8916V48.3984H45.3291ZM40.8056 41.7891C40.8056 38.8945 43.1611 36.8555 46.4072 36.8672C49.1377 36.8555 51.2939 38.3906 51.833 40.6875H55.665V36H58.2666V47.2266H55.665V42.8438H51.8447C51.3291 45.1992 49.1611 46.7578 46.4072 46.7578C43.1611 46.7578 40.8056 44.7305 40.8056 41.7891ZM43.29 41.7891C43.29 43.5 44.5791 44.625 46.4072 44.625C48.1884 44.625 49.4658 43.5 49.4775 41.7891C49.4658 40.1133 48.1884 39.0117 46.4072 39.0234C44.5791 39.0117 43.29 40.1133 43.29 41.7891ZM45.3291 54.9375H48.1181V52.6172H45.3291V54.9375ZM77.9428 42V44.0625H63.2709V36.7734H65.8491V42H77.9428ZM60.7631 48.5859V46.5234H80.1225V48.5859H60.7631ZM63.0834 56.6953V50.4609H65.685V54.5859H78.0834V56.6953H63.0834ZM104.006 36.0234V51.5625H101.405V46.3125H96.3539C95.3461 47.4492 93.8461 48.1289 92.1469 48.1406C88.9477 48.1289 86.5453 45.8555 86.5453 42.7266C86.5453 39.5625 88.9477 37.3008 92.1469 37.2891C93.8344 37.3008 95.3344 37.9688 96.3422 39.0938H101.405V36.0234H104.006ZM89.0297 42.7266C89.0297 44.6133 90.3305 45.8203 92.1469 45.8203C93.8812 45.8203 95.2055 44.6133 95.2172 42.7266C95.2055 40.8281 93.8812 39.6094 92.1469 39.6094C90.3305 39.6094 89.0297 40.8281 89.0297 42.7266ZM90.1078 56.7656V49.9688H92.7094V54.6562H104.545V56.7656H90.1078ZM97.4906 41.2031C97.6195 41.6836 97.7016 42.1875 97.7016 42.7266C97.7016 43.2422 97.6312 43.7344 97.5023 44.2031H101.405V41.2031H97.4906ZM123.472 37.2891V39.1875C123.46 41.168 123.46 43.3359 122.909 46.3359H125.839V48.4453H117.425V57.2109H114.8V48.4453H106.526V46.3359H120.261C120.847 43.4531 120.87 41.2852 120.87 39.3984H108.8V37.2891H123.472ZM146.148 52.5703V54.7266H126.788V52.5703H135.132V49.125H129.085V42.1875H141.273V39.5625H129.038V37.4531H143.851V44.25H131.687V46.9922H144.343V49.125H137.71V52.5703H146.148ZM163.469 37.9922V52.0312H153.391V37.9922H163.469ZM155.969 49.9453H160.938V40.0312H155.969V49.9453ZM167.266 57.2109V36H169.891V57.2109H167.266ZM181.153 38.1562V46.0547H175.669V50.1797C177.813 50.1562 179.864 50.0742 182.231 49.6875L182.419 51.7969C179.559 52.2773 177.239 52.3477 174.614 52.3594H173.161V43.9453H178.645V40.2656H173.137V38.1562H181.153ZM183.497 56.1094V36.3984H185.887V44.1328H188.278V36H190.762V57.1875H188.278V46.2422H185.887V56.1094H183.497ZM212.126 45.6094V47.5781H192.767V45.6094H212.126ZM195.017 50.6719V48.8438H209.783V53.6719H197.642V55.1484H210.415V56.9531H195.04V51.9844H207.204V50.6719H195.017ZM195.158 38.2734V36.4688H209.736V41.25H197.806V42.6328H210.111V44.4141H195.228V39.5625H207.134V38.2734H195.158Z" fill="white"/>
</svg>
