<svg width="6182" height="169" viewBox="0 0 6182 169" fill="none" xmlns="http://www.w3.org/2000/svg">
<path d="M83.7596 168.24C36.7196 168.24 -0.000390589 131.04 -0.000390589 84.2399C-0.000390589 37.4399 36.7196 0.239871 83.7596 0.239871C111.84 0.239871 138.72 15.1199 150.72 40.3199L122.16 56.3999C114.24 42.4799 101.76 33.5999 82.3196 33.5999C55.4396 33.5999 35.9996 54.9599 35.9996 84.2399C35.9996 113.52 55.1996 134.88 82.3196 134.88C101.76 134.88 114.72 126 122.16 112.08L150.72 128.16C138.72 153.36 111.84 168.24 83.7596 168.24ZM241.153 168C193.393 168 157.153 132 157.153 84.2399C157.153 36.7199 193.393 0.479868 241.153 0.479868C289.153 0.479868 325.393 36.7199 325.393 84.2399C325.393 132 288.913 168 241.153 168ZM241.153 134.88C268.033 134.88 289.153 112.8 289.153 84.2399C289.153 55.6799 268.273 33.5999 241.153 33.5999C214.273 33.5999 193.153 55.6799 193.153 84.2399C193.153 112.8 214.273 134.88 241.153 134.88ZM362.011 142.08L332.251 3.35987H367.291L392.731 131.28C392.971 132.24 393.211 132.48 393.451 132.48C393.691 132.48 393.931 132.24 394.171 131.28L417.451 29.0399C421.771 9.35988 431.611 0.959876 446.011 0.959876C460.411 0.959876 470.011 9.35988 474.571 28.7999L498.331 131.28C498.571 132.24 498.571 132.48 499.051 132.48C499.291 132.48 499.291 132 499.531 131.28L524.011 3.35987H559.051L530.251 141.36C526.651 158.4 516.091 168.24 500.491 168.24C486.091 168.24 474.571 159.12 470.731 142.8L446.011 36.7199L421.531 143.52C417.931 159.12 405.931 168.24 392.011 168.24C377.131 168.24 365.611 159.12 362.011 142.08ZM554.371 164.88L597.091 26.1599C602.611 8.63988 617.011 0.239871 632.131 0.239871C647.491 0.239871 661.891 8.63988 667.411 26.1599L710.131 164.88H674.371L665.011 131.76L599.491 132L590.131 164.88H554.371ZM627.091 36.4799L608.611 100.56H655.891L637.651 36.4799C636.691 33.1199 635.251 31.6799 632.371 31.6799C629.731 31.6799 628.051 33.1199 627.091 36.4799ZM736.721 94.0799L697.841 3.35987H735.521L768.641 84.4799C770.081 87.5999 770.801 89.2799 772.241 89.2799C773.681 89.2799 774.401 87.3599 775.841 84.4799L808.721 3.35987H846.641L807.281 94.0799C803.201 103.92 796.961 110.88 789.761 115.2V164.88H754.721V115.44C747.521 111.12 741.041 104.16 736.721 94.0799ZM1043.67 164.88H956.788C934.468 164.88 925.828 153.36 925.828 134.88V33.5999C925.828 15.1199 934.468 3.35987 956.788 3.35987H1042.23V34.7999H960.868V68.3999H1037.19V99.8399H960.868V133.44H1043.67V164.88ZM1104.87 164.88H1071.51V25.4399C1071.51 9.35988 1083.27 -0.000125885 1096.47 -0.000125885C1107.03 -0.000125885 1115.43 3.83988 1120.71 12.7199L1184.55 122.16V3.35987H1217.67V142.8C1217.67 158.88 1205.91 168 1193.19 168C1182.87 168 1173.99 164.4 1168.71 155.52L1104.87 45.3599V164.88ZM1314.24 168.24C1295.52 168.24 1284 158.4 1277.76 138.48L1236.24 3.35987H1272.24L1309.44 128.4C1310.4 131.52 1312.08 133.2 1314.48 133.2C1316.88 133.2 1318.32 131.52 1319.28 128.4L1356.24 3.35987H1392.24L1350.72 138.48C1344.48 158.4 1332.96 168.24 1314.24 168.24ZM1412.11 3.35987H1447.15V164.88H1412.11V3.35987ZM1519.92 164.88H1485.36V3.35987H1547.52C1584 3.35987 1612.08 20.3999 1612.08 54.7199C1612.08 76.7999 1599.12 93.8399 1578.48 99.3599C1588.8 105.12 1594.8 116.16 1603.2 132.96L1618.8 164.88H1580.88L1566.48 136.08C1559.04 121.2 1552.08 113.28 1533.84 113.28H1520.16L1519.92 164.88ZM1548 35.7599H1520.4L1520.16 82.0799H1547.52C1564.08 82.0799 1576.08 73.4399 1576.08 58.3199C1576.08 42.4799 1563.84 35.7599 1548 35.7599ZM1717.29 168C1669.53 168 1633.29 132 1633.29 84.2399C1633.29 36.7199 1669.53 0.479868 1717.29 0.479868C1765.29 0.479868 1801.53 36.7199 1801.53 84.2399C1801.53 132 1765.05 168 1717.29 168ZM1717.29 134.88C1744.17 134.88 1765.29 112.8 1765.29 84.2399C1765.29 55.6799 1744.41 33.5999 1717.29 33.5999C1690.41 33.5999 1669.29 55.6799 1669.29 84.2399C1669.29 112.8 1690.41 134.88 1717.29 134.88ZM1858.06 164.88H1824.7V25.4399C1824.7 9.35988 1836.46 -0.000125885 1849.66 -0.000125885C1860.22 -0.000125885 1868.62 3.83988 1873.9 12.7199L1937.74 122.16V3.35987H1970.86V142.8C1970.86 158.88 1959.1 168 1946.38 168C1936.06 168 1927.18 164.4 1921.9 155.52L1858.06 45.3599V164.88ZM2033.11 164.88H1997.59L2019.43 25.9199C2022.31 9.11987 2034.07 0.239871 2050.39 0.239871C2064.79 0.239871 2077.03 6.47988 2080.87 22.0799L2107.99 122.88C2107.99 123.6 2108.23 123.6 2108.23 123.6C2108.47 123.6 2108.71 123.6 2108.71 122.88L2135.35 22.7999C2139.43 7.19988 2151.91 0.239871 2166.55 0.239871C2182.63 0.239871 2194.15 9.35988 2196.55 26.6399L2216.47 164.88H2180.95L2165.35 38.1599C2165.35 36.9599 2165.11 36.2399 2164.15 36.2399C2163.43 36.2399 2162.95 36.7199 2162.71 37.6799L2132.71 144.72C2129.35 156.96 2119.75 162.96 2108.23 162.96C2097.19 162.96 2086.87 157.2 2083.99 145.44L2053.99 37.6799C2053.75 36.4799 2053.27 36.2399 2052.79 36.2399C2052.07 36.2399 2051.35 36.7199 2051.35 37.9199L2033.11 164.88ZM2359.96 164.88H2273.08C2250.76 164.88 2242.12 153.36 2242.12 134.88V33.5999C2242.12 15.1199 2250.76 3.35987 2273.08 3.35987H2358.52V34.7999H2277.16V68.3999H2353.48V99.8399H2277.16V133.44H2359.96V164.88ZM2421.16 164.88H2387.8V25.4399C2387.8 9.35988 2399.56 -0.000125885 2412.76 -0.000125885C2423.32 -0.000125885 2431.72 3.83988 2437 12.7199L2500.84 122.16V3.35987H2533.96V142.8C2533.96 158.88 2522.2 168 2509.48 168C2499.16 168 2490.28 164.4 2485 155.52L2421.16 45.3599V164.88ZM2682.85 3.35987V35.7599H2635.33V164.88H2600.29V35.7599H2552.77V3.35987H2682.85ZM2676.23 164.88L2718.95 26.1599C2724.47 8.63988 2738.87 0.239871 2753.99 0.239871C2769.35 0.239871 2783.75 8.63988 2789.27 26.1599L2831.99 164.88H2796.23L2786.87 131.76L2721.35 132L2711.99 164.88H2676.23ZM2748.95 36.4799L2730.47 100.56H2777.75L2759.51 36.4799C2758.55 33.1199 2757.11 31.6799 2754.23 31.6799C2751.59 31.6799 2749.91 33.1199 2748.95 36.4799ZM2889.89 3.35987V132.48H2965.25V164.88H2885.81C2863.49 164.88 2854.85 153.36 2854.85 134.88V3.35987H2889.89ZM3031.68 164.88L3074.4 26.1599C3079.92 8.63988 3094.32 0.239871 3109.44 0.239871C3124.8 0.239871 3139.2 8.63988 3144.72 26.1599L3187.44 164.88H3151.68L3142.32 131.76L3076.8 132L3067.44 164.88H3031.68ZM3104.4 36.4799L3085.92 100.56H3133.2L3114.96 36.4799C3114 33.1199 3112.56 31.6799 3109.68 31.6799C3107.04 31.6799 3105.36 33.1199 3104.4 36.4799ZM3241.97 164.88H3208.61V25.4399C3208.61 9.35988 3220.37 -0.000125885 3233.57 -0.000125885C3244.13 -0.000125885 3252.53 3.83988 3257.81 12.7199L3321.65 122.16V3.35987H3354.77V142.8C3354.77 158.88 3343.01 168 3330.29 168C3319.97 168 3311.09 164.4 3305.81 155.52L3241.97 45.3599V164.88ZM3372.7 164.88L3415.42 26.1599C3420.94 8.63988 3435.34 0.239871 3450.46 0.239871C3465.82 0.239871 3480.22 8.63988 3485.74 26.1599L3528.46 164.88H3492.7L3483.34 131.76L3417.82 132L3408.46 164.88H3372.7ZM3445.42 36.4799L3426.94 100.56H3474.22L3455.98 36.4799C3455.02 33.1199 3453.58 31.6799 3450.7 31.6799C3448.06 31.6799 3446.38 33.1199 3445.42 36.4799ZM3586.36 3.35987V132.48H3661.72V164.88H3582.28C3559.96 164.88 3551.32 153.36 3551.32 134.88V3.35987H3586.36ZM3697.44 94.0799L3658.56 3.35987H3696.24L3729.36 84.4799C3730.8 87.5999 3731.52 89.2799 3732.96 89.2799C3734.4 89.2799 3735.12 87.3599 3736.56 84.4799L3769.44 3.35987H3807.36L3768 94.0799C3763.92 103.92 3757.68 110.88 3750.48 115.2V164.88H3715.44V115.44C3708.24 111.12 3701.76 104.16 3697.44 94.0799ZM3877.85 168C3848.81 168 3825.53 155.76 3815.21 132.72L3844.49 118.08C3849.77 129.84 3861.05 135.84 3877.85 135.84C3892.97 135.84 3904.49 129.6 3904.49 118.08C3904.49 104.64 3891.77 102.48 3874.97 99.5999C3850.73 95.5199 3817.85 86.8799 3817.85 50.3999C3817.85 22.0799 3843.29 0.479868 3876.65 0.479868C3903.29 0.479868 3926.33 12.7199 3936.65 35.7599L3907.37 50.3999C3902.09 40.0799 3891.53 32.8799 3875.21 32.8799C3862.01 32.8799 3852.89 39.1199 3852.89 48.9599C3852.89 61.9199 3866.33 65.2799 3883.85 68.3999C3907.85 72.4799 3939.53 81.1199 3939.53 117.84C3939.53 146.88 3912.17 168 3877.85 168ZM3967.23 3.35987H4002.27V164.88H3967.23V3.35987ZM4092.31 168C4063.27 168 4039.99 155.76 4029.67 132.72L4058.95 118.08C4064.23 129.84 4075.51 135.84 4092.31 135.84C4107.43 135.84 4118.95 129.6 4118.95 118.08C4118.95 104.64 4106.23 102.48 4089.43 99.5999C4065.19 95.5199 4032.31 86.8799 4032.31 50.3999C4032.31 22.0799 4057.75 0.479868 4091.11 0.479868C4117.75 0.479868 4140.79 12.7199 4151.11 35.7599L4121.83 50.3999C4116.55 40.0799 4105.99 32.8799 4089.67 32.8799C4076.47 32.8799 4067.35 39.1199 4067.35 48.9599C4067.35 61.9199 4080.79 65.2799 4098.31 68.3999C4122.31 72.4799 4153.99 81.1199 4153.99 117.84C4153.99 146.88 4126.63 168 4092.31 168ZM4315.18 168.24C4268.14 168.24 4231.42 131.04 4231.42 84.2399C4231.42 37.4399 4268.14 0.239871 4315.18 0.239871C4343.26 0.239871 4370.14 15.1199 4382.14 40.3199L4353.58 56.3999C4345.66 42.4799 4333.18 33.5999 4313.74 33.5999C4286.86 33.5999 4267.42 54.9599 4267.42 84.2399C4267.42 113.52 4286.62 134.88 4313.74 134.88C4333.18 134.88 4346.14 126 4353.58 112.08L4382.14 128.16C4370.14 153.36 4343.26 168.24 4315.18 168.24ZM4517.69 164.88H4430.81C4408.49 164.88 4399.85 153.36 4399.85 134.88V33.5999C4399.85 15.1199 4408.49 3.35987 4430.81 3.35987H4516.25V34.7999H4434.89V68.3999H4511.21V99.8399H4434.89V133.44H4517.69V164.88ZM4578.89 164.88H4545.53V25.4399C4545.53 9.35988 4557.29 -0.000125885 4570.49 -0.000125885C4581.05 -0.000125885 4589.45 3.83988 4594.73 12.7199L4658.57 122.16V3.35987H4691.69V142.8C4691.69 158.88 4679.93 168 4667.21 168C4656.89 168 4648.01 164.4 4642.73 155.52L4578.89 45.3599V164.88ZM4840.58 3.35987V35.7599H4793.06V164.88H4758.02V35.7599H4710.5V3.35987H4840.58ZM4976.49 164.88H4889.61C4867.29 164.88 4858.65 153.36 4858.65 134.88V33.5999C4858.65 15.1199 4867.29 3.35987 4889.61 3.35987H4975.05V34.7999H4893.69V68.3999H4970.01V99.8399H4893.69V133.44H4976.49V164.88ZM5040.58 164.88H5006.02V3.35987H5068.18C5104.66 3.35987 5132.74 20.3999 5132.74 54.7199C5132.74 76.7999 5119.78 93.8399 5099.14 99.3599C5109.46 105.12 5115.46 116.16 5123.86 132.96L5139.46 164.88H5101.54L5087.14 136.08C5079.7 121.2 5072.74 113.28 5054.5 113.28H5040.82L5040.58 164.88ZM5068.66 35.7599H5041.06L5040.82 82.0799H5068.18C5084.74 82.0799 5096.74 73.4399 5096.74 58.3199C5096.74 42.4799 5084.5 35.7599 5068.66 35.7599ZM5281.93 168C5252.89 168 5229.61 155.76 5219.29 132.72L5248.57 118.08C5253.85 129.84 5265.13 135.84 5281.93 135.84C5297.05 135.84 5308.57 129.6 5308.57 118.08C5308.57 104.64 5295.85 102.48 5279.05 99.5999C5254.81 95.5199 5221.93 86.8799 5221.93 50.3999C5221.93 22.0799 5247.37 0.479868 5280.73 0.479868C5307.37 0.479868 5330.41 12.7199 5340.73 35.7599L5311.45 50.3999C5306.17 40.0799 5295.61 32.8799 5279.29 32.8799C5266.09 32.8799 5256.97 39.1199 5256.97 48.9599C5256.97 61.9199 5270.41 65.2799 5287.93 68.3999C5311.93 72.4799 5343.61 81.1199 5343.61 117.84C5343.61 146.88 5316.25 168 5281.93 168ZM5486.74 164.88H5399.86C5377.54 164.88 5368.9 153.36 5368.9 134.88V33.5999C5368.9 15.1199 5377.54 3.35987 5399.86 3.35987H5485.3V34.7999H5403.94V68.3999H5480.26V99.8399H5403.94V133.44H5486.74V164.88ZM5550.83 164.88H5516.27V3.35987H5578.43C5614.91 3.35987 5642.99 20.3999 5642.99 54.7199C5642.99 76.7999 5630.03 93.8399 5609.39 99.3599C5619.71 105.12 5625.71 116.16 5634.11 132.96L5649.71 164.88H5611.79L5597.39 136.08C5589.95 121.2 5582.99 113.28 5564.75 113.28H5551.07L5550.83 164.88ZM5578.91 35.7599H5551.31L5551.07 82.0799H5578.43C5594.99 82.0799 5606.99 73.4399 5606.99 58.3199C5606.99 42.4799 5594.75 35.7599 5578.91 35.7599ZM5736.93 168.24C5718.21 168.24 5706.69 158.4 5700.45 138.48L5658.93 3.35987H5694.93L5732.13 128.4C5733.09 131.52 5734.77 133.2 5737.17 133.2C5739.57 133.2 5741.01 131.52 5741.97 128.4L5778.93 3.35987H5814.93L5773.41 138.48C5767.17 158.4 5755.65 168.24 5736.93 168.24ZM5834.79 3.35987H5869.83V164.88H5834.79V3.35987ZM5978.6 168.24C5931.56 168.24 5894.84 131.04 5894.84 84.2399C5894.84 37.4399 5931.56 0.239871 5978.6 0.239871C6006.68 0.239871 6033.56 15.1199 6045.56 40.3199L6017 56.3999C6009.08 42.4799 5996.6 33.5999 5977.16 33.5999C5950.28 33.5999 5930.84 54.9599 5930.84 84.2399C5930.84 113.52 5950.04 134.88 5977.16 134.88C5996.6 134.88 6009.56 126 6017 112.08L6045.56 128.16C6033.56 153.36 6006.68 168.24 5978.6 168.24ZM6181.1 164.88H6094.22C6071.9 164.88 6063.26 153.36 6063.26 134.88V33.5999C6063.26 15.1199 6071.9 3.35987 6094.22 3.35987H6179.66V34.7999H6098.3V68.3999H6174.62V99.8399H6098.3V133.44H6181.1V164.88Z" fill="white"/>
</svg>
