<svg width="600" height="231" viewBox="0 0 600 231" fill="none" xmlns="http://www.w3.org/2000/svg">
<path d="M326.666 14.667H273.333L278.666 81.3337H321.333L326.666 14.667Z" stroke="white" stroke-width="4" stroke-linecap="round" stroke-linejoin="round"/>
<path d="M275.755 44.5424C279.877 42.2679 290.485 39.0836 299.94 44.5424C309.395 50.0011 320.13 46.8168 324.316 44.5424" stroke="white" stroke-width="4" stroke-linecap="round" stroke-linejoin="round"/>
<path d="M257.559 140.922V162.062H254.911V157.211H250.411V155.242H254.911V140.922H257.559ZM239.583 151.797C243.567 151.785 248.864 151.773 253.458 151.141L253.622 153.062C251.677 153.391 249.673 153.602 247.716 153.73V161.43H245.091V153.859C243.239 153.93 241.481 153.93 239.911 153.93L239.583 151.797ZM241.106 146.125C241.106 143.605 243.356 141.836 246.544 141.836C249.661 141.836 251.934 143.605 251.934 146.125C251.934 148.703 249.661 150.379 246.544 150.391C243.356 150.379 241.106 148.703 241.106 146.125ZM243.567 146.125C243.555 147.543 244.762 148.398 246.544 148.398C248.231 148.398 249.45 147.543 249.45 146.125C249.45 144.742 248.243 143.828 246.544 143.828C244.762 143.828 243.555 144.742 243.567 146.125ZM277.704 140.898V162.109H275.126V150.672H271.142V148.562H275.126V140.898H277.704ZM260.9 157.234V142.727H270.814V144.859H263.525V148.656H269.97V150.719H263.525V155.078C266.747 155.066 269.161 154.949 271.892 154.516L272.15 156.625C269.068 157.094 266.349 157.211 262.564 157.234H260.9ZM299.56 157.352V159.461H280.201V157.352H288.498V152.453H291.076V157.352H299.56ZM280.763 150.812C285.193 150.098 288.369 146.922 288.381 143.734V142.188H291.146V143.734C291.146 146.934 294.345 150.098 298.81 150.812L297.685 152.969C294.111 152.289 291.17 150.238 289.763 147.461C288.369 150.227 285.463 152.301 281.888 152.969L280.763 150.812ZM319.776 149.57V151.68H300.463V149.57H319.776ZM302.737 155.148V153.133H317.362V158.336H305.315V159.906H317.948V161.898H302.76V156.484H314.807V155.148H302.737ZM302.901 148.164V141.555H317.291V148.164H302.901ZM305.455 146.125H314.69V143.594H305.455V146.125ZM338.374 140.898V162.109H335.796V140.898H338.374ZM321.874 144.859V142.75H331.858V150.695H324.569V154.961C327.909 154.938 330.78 154.762 334.085 154.211L334.319 156.344C330.721 156.965 327.557 157.105 323.749 157.094H321.897V148.633H329.21V144.859H321.874ZM359.269 140.898V162.086H356.761V140.898H359.269ZM341.198 150.062C341.198 145.398 343.003 142.504 345.769 142.516C348.335 142.504 350.081 144.906 350.386 148.867H352.425V141.273H354.909V161.055H352.425V150.977H350.409C350.163 155.113 348.394 157.645 345.769 157.633C343.003 157.645 341.198 154.738 341.198 150.062ZM343.612 150.062C343.601 153.379 344.421 155.16 345.769 155.148C347.175 155.16 348.007 153.379 348.019 150.062C348.007 146.758 347.175 144.965 345.769 144.977C344.421 144.965 343.601 146.758 343.612 150.062Z" fill="white"/>
<path opacity="0.7" d="M215.978 194.25V195.25H210.243V196.625H214.353V199.734H206.103V201.141H214.775V202.109H204.884V198.812H213.15V197.578H204.853V196.625H209.025V195.25H203.322V194.25H215.978ZM204.962 193.078V188.844H214.337V193.078H204.962ZM206.181 192.094H213.118V189.828H206.181V192.094ZM221.377 189.391C223.556 189.398 225.103 190.727 225.111 192.656C225.103 194.594 223.556 195.914 221.377 195.922C219.181 195.914 217.619 194.594 217.627 192.656C217.619 190.727 219.181 189.398 221.377 189.391ZM216.908 198.188C219.47 198.195 223.009 198.172 226.08 197.719L226.173 198.625C222.994 199.219 219.58 199.234 217.08 199.234L216.908 198.188ZM218.83 192.656C218.822 193.953 219.892 194.844 221.377 194.844C222.845 194.844 223.916 193.953 223.908 192.656C223.916 191.367 222.845 190.469 221.377 190.469C219.892 190.469 218.822 191.367 218.83 192.656ZM227.002 202.297V188.375H228.22V202.297H227.002ZM240.955 193.312V195.297H246.69V196.312H234.033V195.297H239.752V193.312H240.955ZM234.737 193.031C237.158 192.773 239.479 191.586 239.565 190.031H235.19V189.031H245.565V190.031H241.158C241.244 191.578 243.565 192.773 245.987 193.031L245.533 194C243.26 193.719 241.127 192.727 240.362 191.188C239.596 192.727 237.479 193.719 235.19 194L234.737 193.031ZM235.565 199.844C235.557 198.305 237.346 197.453 240.362 197.453C243.346 197.453 245.127 198.305 245.143 199.844C245.127 201.391 243.346 202.234 240.362 202.234C237.346 202.234 235.557 201.391 235.565 199.844ZM236.815 199.844C236.799 200.758 238.112 201.289 240.362 201.281C242.588 201.289 243.901 200.758 243.908 199.844C243.901 198.938 242.588 198.414 240.362 198.422C238.112 198.414 236.799 198.938 236.815 199.844ZM260.245 196.672V197.656H256.901V202.266H255.682V197.656H252.088V202.266H250.854V197.656H247.526V196.672H260.245ZM249.057 189.938V188.922H258.698V192.484H250.323V194.219H258.995V195.234H249.088V191.531H257.448V189.938H249.057ZM265.237 189.281C267.37 189.297 268.932 190.609 268.94 192.547C268.932 194.289 267.667 195.523 265.862 195.758V198.117C267.159 198.062 268.464 197.969 269.675 197.812L269.753 198.734C266.807 199.234 263.526 199.266 261.081 199.25L260.878 198.219C261.995 198.211 263.284 198.203 264.628 198.164V195.758C262.784 195.539 261.526 194.297 261.534 192.547C261.526 190.609 263.065 189.297 265.237 189.281ZM262.737 192.547C262.722 193.852 263.776 194.758 265.237 194.75C266.675 194.758 267.722 193.852 267.737 192.547C267.722 191.242 266.675 190.352 265.237 190.344C263.776 190.352 262.722 191.242 262.737 192.547ZM270.565 202.266V188.375H271.784V194.109H274.05V195.172H271.784V202.266H270.565ZM283.035 190.562C283.019 192.547 284.433 194.289 286.472 194.984L285.785 195.938C284.253 195.367 283.05 194.234 282.449 192.773C281.855 194.438 280.589 195.727 278.91 196.359L278.238 195.359C280.378 194.609 281.8 192.766 281.816 190.609V189.172H283.035V190.562ZM280.503 199.641C280.496 197.969 282.269 197.008 285.16 197.016C288.043 197.008 289.816 197.969 289.816 199.641C289.816 201.297 288.043 202.234 285.16 202.234C282.269 202.234 280.496 201.297 280.503 199.641ZM281.722 199.641C281.714 200.648 283.027 201.258 285.16 201.25C287.285 201.258 288.597 200.648 288.597 199.641C288.597 198.602 287.285 197.984 285.16 197.984C283.027 197.984 281.714 198.602 281.722 199.641ZM285.441 192.375V191.359H288.535V188.375H289.769V196.609H288.535V192.375H285.441ZM304.465 195.734V196.734H298.808V199.453H297.59V196.734H291.746V195.734H304.465ZM293.371 201.969V198.172H294.59V200.938H303.043V201.969H293.371ZM293.449 194.375V188.828H294.668V190.609H301.543V188.828H302.762V194.375H293.449ZM294.668 193.375H301.543V191.547H294.668V193.375ZM307.551 199.953L306.332 204.203H305.176L306.035 199.953H307.551ZM325.395 195.734V196.719H312.723V195.734H325.395ZM314.145 199.062V198.078H323.755V202.266H322.505V199.062H314.145ZM314.411 194.391V188.75H323.817V189.734H315.645V191.062H323.442V192.016H315.645V193.438H323.895V194.391H314.411ZM331.028 190.562C331.013 192.547 332.427 194.289 334.466 194.984L333.778 195.938C332.247 195.367 331.044 194.234 330.443 192.773C329.849 194.438 328.583 195.727 326.903 196.359L326.232 195.359C328.372 194.609 329.794 192.766 329.81 190.609V189.172H331.028V190.562ZM328.497 199.641C328.489 197.969 330.263 197.008 333.153 197.016C336.036 197.008 337.81 197.969 337.81 199.641C337.81 201.297 336.036 202.234 333.153 202.234C330.263 202.234 328.489 201.297 328.497 199.641ZM329.716 199.641C329.708 200.648 331.021 201.258 333.153 201.25C335.278 201.258 336.591 200.648 336.591 199.641C336.591 198.602 335.278 197.984 333.153 197.984C331.021 197.984 329.708 198.602 329.716 199.641ZM333.435 192.375V191.359H336.528V188.375H337.763V196.609H336.528V192.375H333.435ZM346.083 188.625C349.169 188.625 350.982 189.477 350.99 191.016C350.982 192.594 349.169 193.445 346.083 193.453C342.982 193.445 341.162 192.594 341.162 191.016C341.162 189.477 342.982 188.625 346.083 188.625ZM339.755 195.391V194.391H352.412V195.391H339.755ZM341.287 197.531V196.594H350.787V199.703H342.537V201.141H351.208V202.109H341.318V198.797H349.583V197.531H341.287ZM342.443 191.016C342.427 191.984 343.779 192.516 346.083 192.516C348.388 192.516 349.732 191.984 349.74 191.016C349.732 190.102 348.388 189.555 346.083 189.547C343.779 189.555 342.427 190.102 342.443 191.016ZM369.662 195.734V196.734H364.006V199.453H362.787V196.734H356.943V195.734H369.662ZM358.568 201.969V198.172H359.787V200.938H368.24V201.969H358.568ZM358.647 194.375V188.828H359.865V190.609H366.74V188.828H367.959V194.375H358.647ZM359.865 193.375H366.74V191.547H359.865V193.375ZM375.202 190.609C375.194 192.523 376.623 194.289 378.639 194.984L377.967 195.969C376.428 195.398 375.217 194.219 374.623 192.734C374.038 194.375 372.788 195.656 371.155 196.297L370.483 195.281C372.592 194.539 373.983 192.703 373.998 190.562V189.094H375.202V190.609ZM372.639 198.344V197.359H381.983V202.266H380.748V198.344H372.639ZM377.655 192.328V191.297H380.748V188.375H381.983V196.594H380.748V192.328H377.655ZM390.913 190.781V191.781H383.944V190.781H386.835V188.797H388.053V190.781H390.913ZM384.444 195.875C384.444 194.031 385.702 192.727 387.428 192.719C389.178 192.727 390.428 194.031 390.444 195.875C390.428 197.742 389.178 199.055 387.428 199.062C385.702 199.055 384.444 197.742 384.444 195.875ZM385.538 195.875C385.538 197.109 386.327 197.992 387.428 197.984C388.538 197.992 389.35 197.109 389.35 195.875C389.35 194.656 388.538 193.766 387.428 193.75C386.327 193.766 385.538 194.656 385.538 195.875ZM391.632 201.578V188.719H392.788V194.234H394.632V188.375H395.803V202.266H394.632V195.25H392.788V201.578H391.632ZM232.561 219.703V222.266C233.904 222.195 235.264 222.086 236.545 221.891L236.639 222.797C233.459 223.375 230.045 223.398 227.545 223.391L227.373 222.375C228.537 222.367 229.912 222.359 231.357 222.312V219.703H232.561ZM227.795 219.219C229.85 218.609 231.295 217.086 231.326 215.219H228.139V214.203H231.357V212.484H232.561V214.203H235.826V215.219H232.561C232.6 217.008 234.084 218.477 236.139 219.062L235.561 220.031C233.897 219.531 232.584 218.461 231.959 217.055C231.357 218.539 230.061 219.648 228.389 220.156L227.795 219.219ZM237.467 226.297V212.375H238.686V226.297H237.467ZM245.631 214.938C245.631 216.742 247.022 218.469 249.053 219.172L248.413 220.141C246.85 219.578 245.639 218.414 245.045 216.984C244.444 218.578 243.155 219.859 241.506 220.469L240.866 219.5C242.913 218.766 244.397 216.914 244.397 214.953V214.344H241.256V213.344H248.741V214.344H245.631V214.938ZM242.975 222.453V221.438H252.319V226.266H251.084V222.453H242.975ZM248.303 217.047V216.016H251.084V212.375H252.319V220.703H251.084V217.047H248.303ZM258.858 213.391C261.038 213.398 262.585 214.727 262.592 216.656C262.585 218.594 261.038 219.914 258.858 219.922C256.663 219.914 255.1 218.594 255.108 216.656C255.1 214.727 256.663 213.398 258.858 213.391ZM254.389 222.188C256.952 222.195 260.491 222.172 263.561 221.719L263.655 222.625C260.475 223.219 257.061 223.234 254.561 223.234L254.389 222.188ZM256.311 216.656C256.303 217.953 257.374 218.844 258.858 218.844C260.327 218.844 261.397 217.953 261.389 216.656C261.397 215.367 260.327 214.469 258.858 214.469C257.374 214.469 256.303 215.367 256.311 216.656ZM264.483 226.297V212.375H265.702V226.297H264.483ZM284.171 218.25V219.25H278.437V220.625H282.546V223.734H274.296V225.141H282.968V226.109H273.077V222.812H281.343V221.578H273.046V220.625H277.218V219.25H271.515V218.25H284.171ZM273.156 217.078V212.844H282.531V217.078H273.156ZM274.374 216.094H281.312V213.828H274.374V216.094ZM291.351 212.625C294.437 212.625 296.25 213.477 296.258 215.016C296.25 216.594 294.437 217.445 291.351 217.453C288.25 217.445 286.429 216.594 286.429 215.016C286.429 213.477 288.25 212.625 291.351 212.625ZM285.023 219.391V218.391H297.679V219.391H285.023ZM286.554 221.531V220.594H296.054V223.703H287.804V225.141H296.476V226.109H286.586V222.797H294.851V221.531H286.554ZM287.711 215.016C287.695 215.984 289.047 216.516 291.351 216.516C293.656 216.516 295 215.984 295.008 215.016C295 214.102 293.656 213.555 291.351 213.547C289.047 213.555 287.695 214.102 287.711 215.016ZM314.883 220.781V221.812H309.149V226.297H307.946V221.812H302.227V220.781H314.883ZM303.024 218.719C305.5 218.383 307.938 216.867 307.946 215.125V215.109H303.461V214.109H307.946V212.375H309.149V214.109H313.664V215.109H309.164V215.125C309.164 216.859 311.586 218.383 314.071 218.719L313.617 219.703C311.469 219.375 309.446 218.297 308.563 216.789C307.68 218.312 305.625 219.375 303.477 219.703L303.024 218.719ZM320.469 215.703C320.477 217.555 321.938 219.164 324.001 219.812L323.391 220.797C321.79 220.273 320.516 219.172 319.891 217.742C319.29 219.273 318.024 220.461 316.391 221.031L315.782 220.078C317.837 219.391 319.258 217.664 319.266 215.703V215.25H316.126V214.25H319.266V212.469H320.501V214.25H323.61V215.25H320.469V215.703ZM318.329 225.969V221.828H319.563V224.938H327.641V225.969H318.329ZM323.126 217.688V216.672H326.016V212.391H327.251V222.766H326.016V217.688H323.126ZM340.103 212.375V215.938H342.196V216.984H340.103V220.453H338.884V212.375H340.103ZM329.274 214.828V213.812H332.806V212.25H334.024V213.812H337.556V214.828H329.274ZM330.071 217.906C330.063 216.422 331.399 215.477 333.415 215.469C335.407 215.477 336.743 216.422 336.759 217.906C336.743 219.391 335.407 220.352 333.415 220.344C331.399 220.352 330.063 219.391 330.071 217.906ZM331.243 217.906C331.235 218.812 332.103 219.406 333.415 219.406C334.712 219.406 335.587 218.812 335.603 217.906C335.587 217.008 334.712 216.406 333.415 216.422C332.103 216.406 331.235 217.008 331.243 217.906ZM331.321 226.078V221.062H332.54V222.547H338.884V221.062H340.103V226.078H331.321ZM332.54 225.094H338.884V223.516H332.54V225.094ZM354.204 212.375V226.266H352.986V212.375H354.204ZM343.658 222.688V213.75H344.861V221.625C346.986 221.609 349.173 221.445 351.501 220.953L351.673 222C349.204 222.516 347.009 222.688 344.783 222.688H343.658ZM367.009 212.375V217.875H369.337V218.906H367.009V226.297H365.791V212.375H367.009ZM356.869 222.812V213.734H363.353V214.75H358.087V221.781C360.603 221.773 362.377 221.664 364.447 221.281L364.603 222.344C362.423 222.734 360.603 222.812 357.962 222.812H356.869ZM371.236 225.094C370.689 225.086 370.221 224.633 370.236 224.078C370.221 223.531 370.689 223.078 371.236 223.078C371.791 223.078 372.244 223.531 372.236 224.078C372.244 224.633 371.791 225.086 371.236 225.094Z" fill="white"/>
</svg>
