<svg width="293" height="50" viewBox="0 0 293 50" fill="none" xmlns="http://www.w3.org/2000/svg">
<path d="M40.1953 4.375V8.85938C40.168 14.8477 40.25 21.7656 38.0078 32.2109L32.0469 31.6094C32.9219 27.6172 33.4414 24.0898 33.7422 20.9453L4.59375 22.5859L3.71875 17.3906L34.0977 16.2969C34.207 13.7266 34.2344 11.4297 34.2344 9.29688H5.25V4.375H40.1953ZM0 43.3672V38.3359H16.625V26.1406H22.6406V38.3359H45.0625V43.3672H0ZM59.7472 2.89844C66.0089 2.92578 70.63 6.75391 70.63 12.25C70.63 17.6914 66.0089 21.4922 59.7472 21.4375C53.3761 21.4922 48.755 17.6914 48.755 12.25C48.755 6.75391 53.3761 2.92578 59.7472 2.89844ZM46.5675 24.5C53.2941 24.5273 64.0675 24.4727 71.9972 23.2422L72.4347 27.7812C69.2902 28.4102 65.8448 28.793 62.4269 29.0664V45.4453H56.6847V29.3672C53.1847 29.5039 49.9308 29.5312 47.2784 29.5312L46.5675 24.5ZM54.1691 12.25C54.1691 15.0938 56.4113 16.9531 59.7472 16.9531C62.9738 16.9531 65.2433 15.0938 65.2706 12.25C65.2433 9.35156 62.9738 7.4375 59.7472 7.49219C56.4113 7.4375 54.1691 9.35156 54.1691 12.25ZM66.3644 36.6406V31.9922H74.7316V0.929688H80.4191V46.9766H74.7316V36.6406H66.3644ZM84.5206 49.4375V0H90.2628V49.4375H84.5206ZM135.682 0V49.4922H129.557V0H135.682ZM96.1428 21.0547C96.1155 10.3906 101.557 3.60938 109.049 3.60938C116.459 3.60938 121.928 10.3906 121.955 21.0547C121.928 31.8008 116.459 38.5547 109.049 38.5547C101.557 38.5547 96.1155 31.8008 96.1428 21.0547ZM101.994 21.0547C101.994 28.6562 104.865 33.0586 109.049 33.0859C113.205 33.0586 116.049 28.6562 116.049 21.0547C116.049 13.5078 113.205 9.07812 109.049 9.07812C104.865 9.07812 101.994 13.5078 101.994 21.0547ZM188.567 4.97656V44.5703H182.223L163.465 17.5H163.137V44.5703H156.028V4.97656H162.481L181.129 32.0469H181.512V4.97656H188.567ZM207.627 45.1719C198.685 45.1719 193.189 39.2109 193.189 29.9141C193.189 20.7266 198.767 14.4922 207.244 14.4922C214.517 14.4922 220.806 19.0586 220.806 29.4766V31.6641H200.08C200.189 36.7227 203.17 39.7305 207.681 39.7031C210.744 39.7305 212.795 38.418 213.697 36.6406H220.533C219.275 41.7812 214.517 45.1719 207.627 45.1719ZM200.107 26.9062H214.134C214.107 22.8594 211.373 19.9062 207.353 19.9062C203.17 19.9062 200.353 23.1328 200.107 26.9062ZM231.116 44.5703L222.694 14.875H229.803L235.053 35.7656H235.327L240.632 14.875H247.686L253.046 35.6562H253.319L258.514 14.875H265.624L257.202 44.5703H249.928L244.35 24.4453H243.967L238.389 44.5703H231.116ZM285.777 23.3516C285.34 21.1094 283.48 19.6602 280.527 19.6875C277.547 19.6602 275.359 21.1641 275.387 23.1875C275.359 24.7188 276.59 25.8672 279.598 26.5781L284.629 27.6172C290.234 28.8477 292.969 31.4453 292.996 35.7109C292.969 41.2891 288.074 45.1719 280.308 45.1719C272.762 45.1719 268.305 41.7812 267.566 36.0938H274.676C275.086 38.6367 277.055 39.8945 280.308 39.8672C283.672 39.8945 285.859 38.5273 285.887 36.3125C285.859 34.5898 284.519 33.4961 281.566 32.8672L276.808 31.8281C271.285 30.707 268.414 27.8086 268.441 23.5703C268.414 18.0742 273.172 14.4922 280.418 14.4922C287.5 14.4922 291.875 17.9648 292.394 23.3516H285.777Z" fill="black"/>
</svg>
