<svg width="480" height="640" viewBox="0 0 480 640" fill="none" xmlns="http://www.w3.org/2000/svg">
<path d="M63.0688 78L77.3088 31.76C79.1488 25.92 83.9488 23.12 88.9888 23.12C94.1088 23.12 98.9088 25.92 100.749 31.76L114.989 78H103.069L99.9488 66.96L78.1088 67.04L74.9888 78H63.0688ZM87.3088 35.2L81.1488 56.56H96.9088L90.8288 35.2C90.5088 34.08 90.0288 33.6 89.0688 33.6C88.1888 33.6 87.6288 34.08 87.3088 35.2ZM138.314 79.04C126.394 79.12 117.034 69.6 117.034 58.16C117.034 46.64 126.394 37.2 138.314 37.28C145.914 37.36 152.954 40.8 156.554 48.48L147.194 53.6C145.434 50.16 142.234 48 138.314 48C132.634 48 128.394 52.56 128.394 58.16C128.394 63.76 132.634 68.32 138.314 68.32C142.234 68.32 145.434 66.16 147.194 62.72L156.554 67.84C152.954 75.52 145.914 78.96 138.314 79.04ZM181.011 79.04C169.091 79.12 159.731 69.6 159.731 58.16C159.731 46.64 169.091 37.2 181.011 37.28C188.611 37.36 195.651 40.8 199.251 48.48L189.891 53.6C188.131 50.16 184.931 48 181.011 48C175.331 48 171.091 52.56 171.091 58.16C171.091 63.76 175.331 68.32 181.011 68.32C184.931 68.32 188.131 66.16 189.891 62.72L199.251 67.84C195.651 75.52 188.611 78.96 181.011 79.04ZM223.948 68.08C229.788 68.08 232.748 62.88 232.748 56.72V38.4H244.108V58.08C244.108 69.68 237.228 79.04 223.948 79.04C210.748 79.04 203.868 69.68 203.868 58.08V38.4H215.228V56.8C215.228 62.88 218.108 68.08 223.948 68.08ZM262.938 78H251.578V55.28C251.578 45.12 257.338 37.36 269.098 37.36C271.658 37.36 274.458 37.84 276.458 38.72V49.76C274.538 48.64 272.218 48.08 270.138 48.08C265.658 48.08 262.938 50.96 262.938 55.68V78ZM298.047 79.04C286.527 79.04 278.447 69.6 278.447 58.08C278.447 46.72 287.727 37.2 299.887 37.2C312.287 37.2 321.407 46.16 321.407 58.08V78H310.607V73.36C307.807 76.88 303.487 79.04 298.047 79.04ZM299.887 68.4C305.727 68.4 310.047 63.76 310.047 58.16C310.047 52.56 305.727 47.92 299.887 47.92C294.047 47.92 289.807 52.56 289.807 58.16C289.807 63.76 294.047 68.4 299.887 68.4ZM348.596 79.04C336.676 79.12 327.316 69.6 327.316 58.16C327.316 46.64 336.676 37.2 348.596 37.28C356.196 37.36 363.236 40.8 366.836 48.48L357.476 53.6C355.716 50.16 352.516 48 348.596 48C342.916 48 338.676 52.56 338.676 58.16C338.676 63.76 342.916 68.32 348.596 68.32C352.516 68.32 355.716 66.16 357.476 62.72L366.836 67.84C363.236 75.52 356.196 78.96 348.596 79.04ZM391.132 97.36C381.692 97.36 374.812 93.36 371.212 86L380.572 80.88C382.332 84.32 385.852 86.96 390.972 86.96C397.772 86.96 401.692 82 401.692 74.64V73.52C399.532 76.72 396.012 78.48 391.132 78.48C378.252 78.48 372.652 70.24 372.652 58.48V38.4H383.852V58.08C383.852 63.84 386.972 67.76 392.572 67.76C397.692 67.76 401.532 63.52 401.532 57.84V38.4H413.052V74.48C413.052 88.32 404.172 97.36 391.132 97.36Z" fill="black"/>
<path d="M62.8073 515.922V531.391H60.2058V523.633H56.4558V521.523H60.2058V515.922H62.8073ZM45.0183 526.82C48.3933 525.707 50.198 522.941 50.198 520.117V519.555H45.7917V517.445H57.2292V519.555H52.8464V520.141C52.8464 522.684 54.5573 525.32 57.8386 526.398L56.5261 528.484C54.1589 527.676 52.4831 526.059 51.5573 524.055C50.6316 526.281 48.862 528.062 46.3542 528.93L45.0183 526.82ZM48.9089 536.664V530.031H51.5105V534.555H63.3464V536.664H48.9089ZM84.6633 526.492V528.578H76.4836V532.469H73.9055V528.578H65.3039V526.492H84.6633ZM67.6477 536.664V530.523H70.2492V534.555H82.5305V536.664H67.6477ZM67.7648 524.523V516.859H82.1789V524.523H67.7648ZM70.2961 522.484H79.6008V518.898H70.2961V522.484ZM108.453 515.922V531.227H105.828V515.922H108.453ZM91.1798 522.602C91.1798 519.52 93.6759 517.316 96.8986 517.305C100.121 517.316 102.606 519.52 102.594 522.602C102.606 525.73 100.121 527.922 96.8986 527.922C93.6759 527.922 91.1798 525.73 91.1798 522.602ZM93.7345 522.602C93.7228 524.477 95.0822 525.648 96.8986 525.648C98.6681 525.648 100.039 524.477 100.039 522.602C100.039 520.773 98.6681 519.578 96.8986 519.578C95.0822 519.578 93.7228 520.773 93.7345 522.602ZM94.4377 536.664V529.68H97.0627V534.555H109.039V536.664H94.4377ZM121.192 517.164V523.539H114.512V526.141C117.923 526.141 119.856 526.047 122.106 525.625L122.364 527.734C119.833 528.168 117.641 528.227 113.481 528.227H111.934V521.594H118.59V519.227H111.887V517.164H121.192ZM114.325 532.047V529.961H128.809V537.086H126.208V532.047H114.325ZM122.458 525.461V523.375H126.208V521.008H122.458V518.922H126.208V515.922H128.809V528.953H126.208V525.461H122.458ZM143.165 518.102V519.602C143.165 521.488 143.165 524.16 142.579 527.805L140.001 527.594C140.517 524.383 140.575 522.004 140.587 520.188H132.267V518.102H143.165ZM131.142 530.547C132.396 530.535 133.79 530.523 135.243 530.488V524.148H137.821V530.406C139.978 530.312 142.193 530.16 144.22 529.914L144.36 531.859C139.989 532.574 135.138 532.656 131.4 532.633L131.142 530.547ZM145.321 537.086V515.898H147.946V524.523H151.017V526.727H147.946V537.086H145.321ZM164.424 520.422C164.412 522.766 166.229 524.957 169.557 525.859L168.361 527.875C165.889 527.207 164.119 525.789 163.147 523.961C162.221 525.953 160.451 527.523 157.932 528.273L156.69 526.234C160.029 525.309 161.822 522.93 161.822 520.422V520.211H157.393V518.148H161.822V515.805H164.447V518.148H168.854V520.211H164.424V520.422ZM160.463 536.828V529.328H174.549V536.828H160.463ZM163.065 534.719H171.994V531.414H163.065V534.719ZM168.291 523.703V521.594H171.947V515.898H174.549V528.367H171.947V523.703H168.291ZM193.78 515.898V521.852H196.756V524.008H193.78V531.227H191.178V515.898H193.78ZM177.96 527.641V517.656H187.452V519.742H180.538V525.508C184.522 525.508 186.737 525.379 189.256 524.852L189.538 526.961C186.76 527.512 184.299 527.641 179.67 527.641H177.96ZM180.21 536.664V529.609H182.811V534.555H194.624V536.664H180.21ZM210.14 519.719C210.14 522.309 211.816 524.746 215.132 525.766L213.89 527.805C211.511 527.055 209.824 525.543 208.898 523.633C207.96 525.859 206.179 527.629 203.625 528.484L202.312 526.422C205.722 525.309 207.515 522.555 207.515 519.742V519.484H203.039V517.375H214.546V519.484H210.14V519.719ZM205.195 533.008C205.195 530.477 207.937 529 212.367 529C216.761 529 219.457 530.477 219.468 533.008C219.457 535.562 216.761 537.062 212.367 537.062C207.937 537.062 205.195 535.562 205.195 533.008ZM207.796 533.008C207.796 534.32 209.46 535.012 212.367 535.023C215.261 535.012 216.89 534.32 216.89 533.008C216.89 531.719 215.261 531.039 212.367 531.039C209.46 531.039 207.796 531.719 207.796 533.008ZM216.656 528.531V515.898H219.257V520.984H222.21V523.117H219.257V528.531H216.656ZM240.434 515.898V537.109H237.809V515.898H240.434ZM223.934 532.117V517.633H226.535V522.93H231.668V517.633H234.246V532.117H223.934ZM226.535 529.984H231.668V524.969H226.535V529.984ZM259.665 515.898V524.172H262.805V526.352H259.665V537.039H257.063V515.898H259.665ZM242.954 531.25C248.11 528.672 250.899 525.086 251.415 520.258H244.102V518.102H254.063C254.051 524.324 251.473 529.797 244.43 533.266L242.954 531.25ZM280.736 521.641V523.75H270.611V516.93H280.689V519.039H273.212V521.641H280.736ZM268.595 525.461C272.708 525.461 277.818 525.414 282.283 524.992L282.447 526.867C280.455 527.125 278.404 527.289 276.4 527.395V530.852H273.845V527.488C272.122 527.547 270.47 527.559 268.947 527.547L268.595 525.461ZM271.267 534.977C275.603 534.461 278.158 532.504 278.181 530.242V529.398H280.806V530.242C280.794 532.504 283.326 534.461 287.697 534.977L286.712 536.969C283.337 536.523 280.759 535.211 279.482 533.277C278.181 535.211 275.603 536.547 272.228 536.992L271.267 534.977ZM283.572 531.062V515.898H286.173V531.062H283.572ZM305.521 515.898V520.82H308.475V522.977H305.521V528.25H302.92V515.898H305.521ZM289.537 527.125V517.141H292.115V520.023H297.06V517.141H299.639V527.125H289.537ZM291.857 536.781V529.281H305.662V531.367H294.459V534.719H306.06V536.781H291.857ZM292.115 525.062H297.06V522.039H292.115V525.062ZM321.635 518.148V520.211H317.112C317.123 522.566 318.975 524.863 322.362 525.766L321.143 527.805C318.659 527.125 316.866 525.672 315.87 523.797C314.909 525.848 313.104 527.453 310.573 528.203L309.354 526.211C312.694 525.191 314.498 522.742 314.51 520.211H309.987V518.148H314.51V515.828H317.135V518.148H321.635ZM312.659 536.828V529.328H326.721V536.828H312.659ZM315.237 534.719H324.166V531.414H315.237V534.719ZM324.096 528.367V515.922H326.721V528.367H324.096ZM345.929 515.898V524.336H349.186V526.492H345.929V537.086H343.35V515.898H345.929ZM329.218 521.242V519.156H334.233V516.203H336.835V519.156H341.71V521.242H329.218ZM330.202 527.617C330.179 524.688 332.452 522.613 335.546 522.625C338.593 522.613 340.854 524.688 340.866 527.617C340.854 530.535 338.593 532.586 335.546 532.586C332.452 532.586 330.179 530.535 330.202 527.617ZM332.686 527.617C332.675 529.34 333.882 530.441 335.546 530.43C337.175 530.441 338.358 529.34 338.382 527.617C338.358 525.895 337.175 524.758 335.546 524.758C333.882 524.758 332.675 525.895 332.686 527.617ZM366.753 521.898V523.961H352.081V516.672H354.66V521.898H366.753ZM349.574 528.484V526.422H368.933V528.484H349.574ZM351.894 536.594V530.359H354.495V534.484H366.894V536.594H351.894ZM392.817 515.898V528.484H390.215V523.305H386.606V521.172H390.215V515.898H392.817ZM375.004 526.375C378.414 525.203 380.207 522.355 380.207 519.555V519.391H375.801V517.281H387.239V519.391H382.856V519.531C382.856 522.109 384.567 524.711 387.848 525.812L386.535 527.875C384.18 527.078 382.516 525.461 381.578 523.469C380.653 525.719 378.883 527.547 376.364 528.438L375.004 526.375ZM378.45 533.055C378.426 530.512 381.18 529.023 385.645 529.023C390.133 529.023 392.875 530.512 392.887 533.055C392.875 535.598 390.133 537.074 385.645 537.086C381.18 537.074 378.426 535.598 378.45 533.055ZM381.028 533.055C381.016 534.367 382.703 535.082 385.645 535.07C388.61 535.082 390.285 534.367 390.285 533.055C390.285 531.73 388.61 531.016 385.645 531.016C382.703 531.016 381.016 531.73 381.028 533.055ZM412.118 515.922V522.086H414.977V524.242H412.118V530.242H409.516V515.922H412.118ZM395.149 527.711C396.743 527.711 398.583 527.699 400.493 527.652V526.352C398.138 526.059 396.638 524.922 396.649 523.258C396.638 521.301 398.688 520.105 401.759 520.117C404.841 520.105 406.868 521.301 406.868 523.258C406.868 524.91 405.415 526.035 403.095 526.34V527.559C404.899 527.465 406.716 527.324 408.415 527.102L408.626 528.906C404.114 529.703 399.157 529.75 395.43 529.75L395.149 527.711ZM395.688 519.508V517.586H400.493V515.734H403.095V517.586H407.852V519.508H395.688ZM397.821 533.195V531.156H412.118V537.086H409.516V533.195H397.821ZM399.157 523.258C399.134 524.137 400.118 524.688 401.759 524.664C403.399 524.688 404.384 524.137 404.384 523.258C404.384 522.332 403.399 521.863 401.759 521.875C400.118 521.863 399.134 522.332 399.157 523.258ZM423.357 518.945C423.345 521.828 425.033 524.465 428.349 525.508L426.943 527.547C424.634 526.727 423.017 525.18 422.115 523.176C421.177 525.484 419.408 527.301 416.841 528.203L415.458 526.094C418.962 524.945 420.72 522.121 420.732 519.062V517.047H423.357V518.945ZM418.974 533.008C418.95 530.43 421.704 528.918 426.169 528.93C430.658 528.918 433.4 530.43 433.411 533.008C433.4 535.586 430.658 537.062 426.169 537.062C421.704 537.062 418.95 535.586 418.974 533.008ZM421.552 533.008C421.54 534.297 423.228 535.012 426.169 535.023C429.134 535.012 430.81 534.297 430.81 533.008C430.81 531.672 429.134 530.957 426.169 530.945C423.228 530.957 421.54 531.672 421.552 533.008ZM426.521 522.133V520H430.74V515.898H433.341V528.367H430.74V522.133H426.521Z" fill="black"/>
<path d="M117.387 568.391V578.578H116.152V573.25H113.293V572.234H116.152V568.391H117.387ZM105.934 575.797C107.981 575.078 109.465 573.242 109.465 571.25V570.531H106.324V569.516H113.809V570.531H110.699V571.25C110.699 573.047 112.09 574.789 114.121 575.484L113.481 576.469C111.918 575.898 110.707 574.734 110.106 573.297C109.504 574.906 108.223 576.18 106.574 576.797L105.934 575.797ZM108.465 581.969V577.656H109.699V580.938H117.777V581.969H108.465ZM132.082 575.484V576.5H126.426V579.344H125.207V576.5H119.364V575.484H132.082ZM120.989 581.969V577.969H122.223V580.938H130.661V581.969H120.989ZM121.02 573.891V569.062H130.426V573.891H121.02ZM122.223 572.906H129.207V570.031H122.223V572.906ZM148.099 568.391V578.656H146.864V574.906H143.271C142.63 575.727 141.599 576.219 140.411 576.219C138.333 576.219 136.794 574.781 136.802 572.75C136.794 570.711 138.333 569.273 140.411 569.266C141.591 569.273 142.607 569.758 143.255 570.562H146.864V568.391H148.099ZM137.974 572.75C137.974 574.141 138.989 575.133 140.411 575.125C141.778 575.133 142.818 574.141 142.818 572.75C142.818 571.367 141.778 570.367 140.411 570.359C138.989 570.367 137.974 571.367 137.974 572.75ZM139.177 581.969V577.578H140.411V580.938H148.489V581.969H139.177ZM143.81 571.578C143.935 571.938 144.005 572.328 144.005 572.75C144.005 573.156 143.935 573.539 143.818 573.891H146.864V571.578H143.81ZM161.076 569.281V570.5C161.076 571.812 161.076 573.258 160.677 575.25H162.747V576.266H157.013V582.297H155.779V576.266H150.091V575.25H159.435C159.857 573.25 159.857 571.797 159.857 570.5V570.297H151.685V569.281H161.076ZM178.764 568.391V578.547H177.545V568.391H178.764ZM167.623 572.766C167.615 570.766 169.186 569.367 171.264 569.359C173.342 569.367 174.897 570.766 174.904 572.766C174.897 574.789 173.342 576.195 171.264 576.188C169.186 576.195 167.615 574.789 167.623 572.766ZM168.826 572.766C168.811 574.148 169.857 575.109 171.264 575.109C172.647 575.109 173.701 574.148 173.701 572.766C173.701 571.406 172.647 570.438 171.264 570.438C169.857 570.438 168.811 571.406 168.826 572.766ZM169.795 581.969V577.516H171.014V580.938H179.201V581.969H169.795ZM187.397 569.234V573.125H182.616V575.281C185.225 575.289 186.577 575.234 188.209 574.938L188.334 575.953C186.608 576.234 185.194 576.281 182.381 576.281H181.397V572.188H186.178V570.219H181.366V569.234H187.397ZM182.959 578.672V577.672H192.319V582.297H191.084V578.672H182.959ZM188.319 574.344V573.328H191.084V571.453H188.319V570.453H191.084V568.391H192.319V576.922H191.084V574.344H188.319ZM202.014 569.922V570.641C202.007 571.742 202.007 573.578 201.608 576.156L200.374 576.047C200.757 573.719 200.788 572.031 200.78 570.922H194.952V569.922H202.014ZM194.171 578.188C195.085 578.18 196.1 578.172 197.171 578.148V573.891H198.374V578.109C199.913 578.055 201.491 577.953 202.936 577.781L202.999 578.703C200.077 579.156 196.811 579.219 194.327 579.203L194.171 578.188ZM203.811 582.266V568.375H205.03V574.188H207.28V575.25H205.03V582.266H203.811ZM216.781 575.703V578.266C218.124 578.195 219.484 578.086 220.765 577.891L220.859 578.797C217.679 579.375 214.265 579.398 211.765 579.391L211.593 578.375C212.757 578.367 214.132 578.359 215.577 578.312V575.703H216.781ZM212.015 575.219C214.07 574.609 215.515 573.086 215.546 571.219H212.359V570.203H215.577V568.484H216.781V570.203H220.046V571.219H216.781C216.82 573.008 218.304 574.477 220.359 575.062L219.781 576.031C218.117 575.531 216.804 574.461 216.179 573.055C215.577 574.539 214.281 575.648 212.609 576.156L212.015 575.219ZM221.687 582.297V568.375H222.906V582.297H221.687ZM236.492 568.391V578.578H235.273V568.391H236.492ZM225.164 575.609C227.265 574.789 228.695 572.758 228.695 570.562V569.172H229.945V570.562C229.929 572.68 231.375 574.578 233.445 575.328L232.804 576.312C231.195 575.695 229.945 574.445 229.328 572.844C228.726 574.547 227.461 575.914 225.836 576.562L225.164 575.609ZM227.523 581.969V577.641H228.742V580.938H236.929V581.969H227.523ZM247.164 572.109C247.157 574.648 248.883 577.195 250.93 578.125L250.18 579.094C248.594 578.328 247.227 576.68 246.563 574.703C245.922 576.797 244.555 578.555 242.93 579.375L242.149 578.344C244.219 577.398 245.93 574.742 245.946 572.109V569.578H247.164V572.109ZM252.446 582.297V568.375H253.68V582.297H252.446ZM267.251 568.375V576.797H266.016V573.625H263.657V572.609H266.016V568.375H267.251ZM255.751 570.844V569.844H259.204V568.25H260.407V569.844H263.86V570.844H255.751ZM256.579 574.031C256.579 572.578 257.915 571.562 259.798 571.562C261.688 571.562 263.016 572.578 263.032 574.031C263.016 575.531 261.688 576.516 259.798 576.516C257.915 576.516 256.579 575.531 256.579 574.031ZM257.751 574.031C257.751 574.953 258.587 575.562 259.798 575.578C261.008 575.562 261.844 574.953 261.844 574.031C261.844 573.141 261.008 572.516 259.798 572.516C258.587 572.516 257.751 573.141 257.751 574.031ZM258.173 582.078V577.547H267.251V582.078H258.173ZM259.391 581.078H266.048V578.531H259.391V581.078ZM270.712 577.062C270.165 577.055 269.696 576.602 269.712 576.047C269.696 575.5 270.165 575.047 270.712 575.047C271.267 575.047 271.72 575.5 271.712 576.047C271.72 576.602 271.267 577.055 270.712 577.062ZM285.689 575.734V576.734H280.033V579.453H278.814V576.734H272.97V575.734H285.689ZM274.595 581.969V578.172H275.814V580.938H284.267V581.969H274.595ZM274.673 574.375V568.828H275.892V570.609H282.767V568.828H283.986V574.375H274.673ZM275.892 573.375H282.767V571.547H275.892V573.375ZM291.228 570.609C291.22 572.523 292.65 574.289 294.666 574.984L293.994 575.969C292.455 575.398 291.244 574.219 290.65 572.734C290.064 574.375 288.814 575.656 287.181 576.297L286.509 575.281C288.619 574.539 290.009 572.703 290.025 570.562V569.094H291.228V570.609ZM288.666 578.344V577.359H298.009V582.266H296.775V578.344H288.666ZM293.681 572.328V571.297H296.775V568.375H298.009V576.594H296.775V572.328H293.681ZM308.401 571.016C308.408 572.836 309.768 574.461 311.807 575.125L311.229 576.094C309.627 575.562 308.416 574.461 307.815 573.062C307.221 574.656 305.94 575.898 304.276 576.5L303.651 575.516C305.729 574.812 307.182 573.023 307.198 571.016V570.422H304.026V569.406H311.526V570.422H308.401V571.016ZM305.494 579.672C305.502 578.07 307.244 577.141 310.104 577.141C312.955 577.141 314.682 578.07 314.682 579.672C314.682 581.297 312.955 582.234 310.104 582.234C307.244 582.234 305.502 581.297 305.494 579.672ZM306.729 579.672C306.713 580.672 308.01 581.258 310.104 581.25C312.205 581.258 313.487 580.672 313.494 579.672C313.487 578.703 312.205 578.125 310.104 578.125C308.01 578.125 306.713 578.703 306.729 579.672ZM313.338 576.766V568.375H314.557V571.922H316.651V572.953H314.557V576.766H313.338ZM328.659 568.375V582.297H327.424V568.375H328.659ZM318.018 578.938V569.562H319.237V573.234H323.378V569.562H324.581V578.938H318.018ZM319.237 577.906H323.378V574.219H319.237V577.906ZM343.417 574.828V575.797H330.698V574.828H343.417ZM332.229 577.828V576.906H341.823V579.859H333.479V581.188H342.276V582.078H332.245V579.016H340.604V577.828H332.229ZM332.307 569.688V568.797H341.776V571.672H333.573V572.891H342.026V573.781H332.354V570.828H340.542V569.688H332.307ZM360.574 575.75V576.75H347.902V575.75H353.621V574.375H349.589V568.781H358.996V569.781H350.824V571.078H358.621V572.016H350.824V573.391H359.074V574.375H354.839V575.75H360.574ZM349.449 580.016C349.441 578.57 351.167 577.781 354.246 577.797C357.292 577.781 359.011 578.57 359.027 580.016C359.011 581.477 357.292 582.234 354.246 582.234C351.167 582.234 349.441 581.477 349.449 580.016ZM350.683 580.016C350.667 580.859 351.949 581.297 354.246 581.281C356.519 581.297 357.785 580.859 357.792 580.016C357.785 579.188 356.519 578.727 354.246 578.719C351.949 578.727 350.667 579.188 350.683 580.016ZM368.363 570.781V571.781H361.394V570.781H364.285V568.797H365.504V570.781H368.363ZM361.894 575.875C361.894 574.031 363.152 572.727 364.879 572.719C366.629 572.727 367.879 574.031 367.894 575.875C367.879 577.742 366.629 579.055 364.879 579.062C363.152 579.055 361.894 577.742 361.894 575.875ZM362.988 575.875C362.988 577.109 363.777 577.992 364.879 577.984C365.988 577.992 366.801 577.109 366.801 575.875C366.801 574.656 365.988 573.766 364.879 573.75C363.777 573.766 362.988 574.656 362.988 575.875ZM369.082 581.578V568.719H370.238V574.234H372.082V568.375H373.254V582.266H372.082V575.25H370.238V581.578H369.082ZM149.572 595.781V597.172C149.556 598.875 149.556 600.781 149.056 603.578L147.806 603.438C148.329 600.781 148.329 598.836 148.337 597.172V596.797H139.775V595.781H149.572ZM138.431 606.297V605.281H143.4V600.312H144.603V605.281H151.087V606.297H138.431ZM163.158 600.891V601.891H158.861V605.484H164.658V606.516H151.939V605.484H157.658V601.891H153.564V595.516H163.017V596.516H154.798V600.891H163.158ZM176.228 594.375V600.297H178.447V601.328H176.228V608.266H174.994V594.375H176.228ZM165.275 604.562C166.408 604.562 167.728 604.555 169.103 604.516V602.984C167.486 602.797 166.432 601.844 166.447 600.469C166.432 598.898 167.76 597.883 169.728 597.891C171.666 597.883 173.018 598.898 173.025 600.469C173.018 601.852 171.947 602.797 170.338 602.984V604.469C171.627 604.406 172.939 604.297 174.15 604.125L174.228 605.062C171.197 605.578 167.916 605.609 165.478 605.609L165.275 604.562ZM165.525 597.078V596.078H169.103V594.406H170.338V596.078H173.9V597.078H165.525ZM167.588 600.469C167.596 601.43 168.439 602.062 169.728 602.047C170.994 602.062 171.846 601.43 171.853 600.469C171.846 599.5 170.994 598.844 169.728 598.844C168.439 598.844 167.596 599.5 167.588 600.469ZM187.033 598.938V599.938H184.221V601.875C185.518 601.82 186.815 601.727 188.018 601.594L188.112 602.5C185.119 602.914 181.815 603 179.205 603L179.018 602C180.237 601.992 181.604 601.977 183.002 601.93V599.938H180.283V595.281H186.924V596.297H181.518V598.938H187.033ZM181.393 607.969V604.062H182.612V606.938H190.862V607.969H181.393ZM189.174 604.781V594.391H190.408V604.781H189.174ZM207.675 594.375V602.656H206.44V599.016H203.643V598H206.44V594.375H207.675ZM196.222 601.547C198.284 600.805 199.753 598.922 199.753 596.938V596.422H196.612V595.391H204.097V596.422H200.987V596.922C200.987 598.734 202.378 600.461 204.409 601.156L203.768 602.141C202.214 601.578 201.003 600.406 200.401 598.977C199.807 600.602 198.518 601.898 196.862 602.531L196.222 601.547ZM198.409 605.672C198.401 604.039 200.175 603.086 203.065 603.094C205.948 603.086 207.722 604.039 207.722 605.672C207.722 607.312 205.948 608.25 203.065 608.266C200.175 608.25 198.401 607.312 198.409 605.672ZM199.628 605.672C199.62 606.68 200.932 607.289 203.065 607.281C205.19 607.289 206.503 606.68 206.503 605.672C206.503 604.656 205.19 604.047 203.065 604.047C200.932 604.047 199.62 604.656 199.628 605.672ZM216.917 595.156V600.812H210.402V595.156H216.917ZM211.605 599.844H215.714V596.156H211.605V599.844ZM212.105 603.219V602.234H221.12V605.547H213.339V607.109H221.62V608.109H212.12V604.641H219.917V603.219H212.105ZM219.917 601.547V594.375H221.12V601.547H219.917ZM239.574 601.734V602.734H233.918V605.453H232.699V602.734H226.855V601.734H239.574ZM228.48 607.969V604.172H229.699V606.938H238.152V607.969H228.48ZM228.558 600.375V594.828H229.777V596.609H236.652V594.828H237.871V600.375H228.558ZM229.777 599.375H236.652V597.547H229.777V599.375ZM245.113 596.609C245.106 598.523 246.535 600.289 248.551 600.984L247.879 601.969C246.34 601.398 245.129 600.219 244.535 598.734C243.949 600.375 242.699 601.656 241.067 602.297L240.395 601.281C242.504 600.539 243.895 598.703 243.91 596.562V595.094H245.113V596.609ZM242.551 604.344V603.359H251.895V608.266H250.66V604.344H242.551ZM247.567 598.328V597.297H250.66V594.375H251.895V602.594H250.66V598.328H247.567ZM260.215 594.625C263.301 594.625 265.114 595.477 265.122 597.016C265.114 598.594 263.301 599.445 260.215 599.453C257.114 599.445 255.293 598.594 255.293 597.016C255.293 595.477 257.114 594.625 260.215 594.625ZM253.887 601.391V600.391H266.543V601.391H253.887ZM255.418 603.531V602.594H264.918V605.703H256.668V607.141H265.34V608.109H255.45V604.797H263.715V603.531H255.418ZM256.575 597.016C256.559 597.984 257.911 598.516 260.215 598.516C262.52 598.516 263.864 597.984 263.872 597.016C263.864 596.102 262.52 595.555 260.215 595.547C257.911 595.555 256.559 596.102 256.575 597.016ZM278.06 595.672C278.068 597.633 280.614 599.32 283.122 599.672L282.622 600.672C280.466 600.312 278.325 599.117 277.435 597.414C276.544 599.133 274.411 600.312 272.247 600.672L271.747 599.672C274.255 599.32 276.794 597.664 276.794 595.672V594.875H278.06V595.672ZM271.091 603.234V602.203H283.747V603.234H277.997V608.266H276.794V603.234H271.091ZM296.396 594.375V603.172H295.224V599.188H293.365V602.672H292.208V594.656H293.365V598.172H295.224V594.375H296.396ZM284.521 597.031V596.047H287.49V594.484H288.708V596.047H291.646V597.031H284.521ZM285.13 600.156C285.122 598.703 286.349 597.773 288.099 597.781C289.857 597.773 291.076 598.703 291.083 600.156C291.076 601.586 289.857 602.516 288.099 602.516C286.349 602.516 285.122 601.586 285.13 600.156ZM286.224 600.156C286.224 601.008 286.99 601.594 288.099 601.594C289.208 601.594 289.974 601.008 289.974 600.156C289.974 599.273 289.208 598.688 288.099 598.688C286.99 598.688 286.224 599.273 286.224 600.156ZM287.146 605.844C287.13 604.281 288.872 603.406 291.802 603.406C294.724 603.406 296.466 604.281 296.474 605.844C296.466 607.367 294.724 608.234 291.802 608.234C288.872 608.234 287.13 607.367 287.146 605.844ZM288.365 605.844C288.349 606.742 289.638 607.289 291.802 607.281C293.958 607.289 295.24 606.742 295.255 605.844C295.24 604.891 293.958 604.359 291.802 604.375C289.638 604.359 288.349 604.891 288.365 605.844ZM308.967 594.375V597.938H311.06V598.984H308.967V602.453H307.748V594.375H308.967ZM298.138 596.828V595.812H301.67V594.25H302.888V595.812H306.42V596.828H298.138ZM298.935 599.906C298.927 598.422 300.263 597.477 302.279 597.469C304.271 597.477 305.607 598.422 305.623 599.906C305.607 601.391 304.271 602.352 302.279 602.344C300.263 602.352 298.927 601.391 298.935 599.906ZM300.107 599.906C300.099 600.812 300.967 601.406 302.279 601.406C303.576 601.406 304.451 600.812 304.467 599.906C304.451 599.008 303.576 598.406 302.279 598.422C300.967 598.406 300.099 599.008 300.107 599.906ZM300.185 608.078V603.062H301.404V604.547H307.748V603.062H308.967V608.078H300.185ZM301.404 607.094H307.748V605.516H301.404V607.094ZM323.068 594.375V608.266H321.85V594.375H323.068ZM312.522 604.688V595.75H313.725V603.625C315.85 603.609 318.037 603.445 320.365 602.953L320.537 604C318.068 604.516 315.873 604.688 313.647 604.688H312.522ZM335.873 594.375V599.875H338.202V600.906H335.873V608.297H334.655V594.375H335.873ZM325.733 604.812V595.734H332.217V596.75H326.952V603.781C329.467 603.773 331.241 603.664 333.311 603.281L333.467 604.344C331.288 604.734 329.467 604.812 326.827 604.812H325.733ZM340.1 607.094C339.553 607.086 339.085 606.633 339.1 606.078C339.085 605.531 339.553 605.078 340.1 605.078C340.655 605.078 341.108 605.531 341.1 606.078C341.108 606.633 340.655 607.086 340.1 607.094ZM45.4516 624.656C45.4594 626.891 46.5922 629.18 48.4828 630.188L47.7797 631.109C46.3969 630.352 45.3969 628.914 44.8891 627.242C44.3969 629.023 43.4047 630.586 42.0141 631.422L41.2797 630.484C43.1703 629.391 44.2875 626.953 44.2953 624.656V623.969H41.6547V622.953H44.2953V620.891H45.4672V622.953H48.0609V623.969H45.4516V624.656ZM47.1078 626.906V625.859H49.2953V620.719H50.4516V633.547H49.2953V626.906H47.1078ZM52.0922 634.266V620.375H53.2641V634.266H52.0922ZM66.7878 620.375V634.266H65.6159V620.375H66.7878ZM54.8816 630.375C57.905 628.586 59.4206 626.078 59.6628 623.172H55.5066V622.156H60.8816C60.8816 622.867 60.8191 623.57 60.6941 624.25H62.8034V620.75H63.9753V633.562H62.8034V628.75H60.2253V627.734H62.8034V625.266H60.4519C59.78 627.617 58.2566 629.695 55.6316 631.266L54.8816 630.375ZM73.2334 622.938C73.2334 624.742 74.6241 626.469 76.6553 627.172L76.0147 628.141C74.4522 627.578 73.2413 626.414 72.6475 624.984C72.0459 626.578 70.7569 627.859 69.1084 628.469L68.4678 627.5C70.5147 626.766 71.9991 624.914 71.9991 622.953V622.344H68.8584V621.344H76.3428V622.344H73.2334V622.938ZM70.5772 630.453V629.438H79.9209V634.266H78.6866V630.453H70.5772ZM75.9053 625.047V624.016H78.6866V620.375H79.9209V628.703H78.6866V625.047H75.9053ZM93.3822 620.391V630.547H92.1634V620.391H93.3822ZM82.2416 624.766C82.2338 622.766 83.8041 621.367 85.8822 621.359C87.9603 621.367 89.515 622.766 89.5228 624.766C89.515 626.789 87.9603 628.195 85.8822 628.188C83.8041 628.195 82.2338 626.789 82.2416 624.766ZM83.4447 624.766C83.4291 626.148 84.4759 627.109 85.8822 627.109C87.265 627.109 88.3197 626.148 88.3197 624.766C88.3197 623.406 87.265 622.438 85.8822 622.438C84.4759 622.438 83.4291 623.406 83.4447 624.766ZM84.4134 633.969V629.516H85.6322V632.938H93.8197V633.969H84.4134ZM110.633 620.391V630.656H109.398V626.906H105.805C105.164 627.727 104.133 628.219 102.945 628.219C100.867 628.219 99.3281 626.781 99.3359 624.75C99.3281 622.711 100.867 621.273 102.945 621.266C104.125 621.273 105.141 621.758 105.789 622.562H109.398V620.391H110.633ZM100.508 624.75C100.508 626.141 101.523 627.133 102.945 627.125C104.313 627.133 105.352 626.141 105.352 624.75C105.352 623.367 104.313 622.367 102.945 622.359C101.523 622.367 100.508 623.367 100.508 624.75ZM101.711 633.969V629.578H102.945V632.938H111.023V633.969H101.711ZM106.344 623.578C106.469 623.938 106.539 624.328 106.539 624.75C106.539 625.156 106.469 625.539 106.352 625.891H109.398V623.578H106.344ZM123.61 621.281V622.5C123.61 623.812 123.61 625.258 123.211 627.25H125.282V628.266H119.547V634.297H118.313V628.266H112.625V627.25H121.969C122.391 625.25 122.391 623.797 122.391 622.5V622.297H114.219V621.281H123.61ZM141.298 620.391V630.547H140.079V620.391H141.298ZM130.157 624.766C130.149 622.766 131.72 621.367 133.798 621.359C135.876 621.367 137.431 622.766 137.438 624.766C137.431 626.789 135.876 628.195 133.798 628.188C131.72 628.195 130.149 626.789 130.157 624.766ZM131.36 624.766C131.345 626.148 132.392 627.109 133.798 627.109C135.181 627.109 136.235 626.148 136.235 624.766C136.235 623.406 135.181 622.438 133.798 622.438C132.392 622.438 131.345 623.406 131.36 624.766ZM132.329 633.969V629.516H133.548V632.938H141.735V633.969H132.329ZM156.056 631.438V632.484H143.337V631.438H156.056ZM144.462 622.797V621.781H154.837V622.797H152.634V627.656H154.806V628.656H144.493V627.656H146.665V622.797H144.462ZM147.884 627.656H151.431V622.797H147.884V627.656ZM167.595 620.375V625.906H169.923V626.938H167.595V634.297H166.377V620.375H167.595ZM157.392 622.688V621.672H163.705V626.641H158.642V629.891C161.22 629.898 163.025 629.797 165.127 629.406L165.252 630.422C163.064 630.82 161.213 630.922 158.533 630.938H157.423V625.625H162.486V622.688H157.392ZM181.588 624.594V625.578H172.072V620.891H173.291V624.594H181.588ZM170.338 628.469V627.469H183.057V628.469H170.338ZM171.994 633.922V629.891H173.213V632.906H181.666V633.922H171.994ZM198.604 621.062V622.062C198.604 623.094 198.604 624.344 198.26 626.016H200.276V627.016H194.495V629.578H198.698V634.266H197.463V630.594H188.87V629.578H193.276V627.016H187.557V626.016H197.026C197.393 624.32 197.393 623.094 197.385 622.062H189.167V621.062H198.604ZM212.94 620.375V634.266H211.768V620.375H212.94ZM200.893 630.562C202.831 629.406 203.964 626.867 203.956 624.344V623.031H201.284V622.016H207.69V623.031H205.143V624.344C205.143 626.742 206.229 629.141 208.143 630.25L207.393 631.156C206.026 630.336 205.058 628.836 204.573 627.07C204.073 628.984 203.065 630.617 201.675 631.484L200.893 630.562ZM206.628 626.391V625.391H208.972V620.719H210.128V633.547H208.972V626.391H206.628ZM225.238 621.672C225.246 623.633 227.793 625.32 230.3 625.672L229.8 626.672C227.644 626.312 225.503 625.117 224.613 623.414C223.722 625.133 221.589 626.312 219.425 626.672L218.925 625.672C221.433 625.32 223.972 623.664 223.972 621.672V620.875H225.238V621.672ZM218.269 629.234V628.203H230.925V629.234H225.175V634.266H223.972V629.234H218.269ZM238.902 622.109C238.894 623.82 241.223 625.211 243.683 625.547L243.199 626.516C240.957 626.188 238.855 625.07 238.105 623.445C237.348 625.07 235.262 626.188 233.012 626.516L232.558 625.547C235.004 625.211 237.316 623.82 237.308 622.109V622.078H232.933V621.078H243.308V622.078H238.902V622.109ZM231.762 628.547V627.531H244.48V628.547H238.824V631.391H237.605V628.547H231.762ZM233.387 633.969V630H234.621V632.938H243.058V633.969H233.387ZM249.832 621.391C252.012 621.398 253.559 622.727 253.567 624.656C253.559 626.594 252.012 627.914 249.832 627.922C247.637 627.914 246.074 626.594 246.082 624.656C246.074 622.727 247.637 621.398 249.832 621.391ZM245.363 630.188C247.926 630.195 251.465 630.172 254.535 629.719L254.629 630.625C251.449 631.219 248.035 631.234 245.535 631.234L245.363 630.188ZM247.285 624.656C247.278 625.953 248.348 626.844 249.832 626.844C251.301 626.844 252.371 625.953 252.363 624.656C252.371 623.367 251.301 622.469 249.832 622.469C248.348 622.469 247.278 623.367 247.285 624.656ZM255.457 634.297V620.375H256.676V634.297H255.457ZM267.427 624.109C267.419 626.648 269.145 629.195 271.192 630.125L270.442 631.094C268.856 630.328 267.489 628.68 266.825 626.703C266.184 628.797 264.817 630.555 263.192 631.375L262.411 630.344C264.481 629.398 266.192 626.742 266.208 624.109V621.578H267.427V624.109ZM272.708 634.297V620.375H273.942V634.297H272.708ZM287.513 620.375V628.797H286.278V625.625H283.919V624.609H286.278V620.375H287.513ZM276.013 622.844V621.844H279.466V620.25H280.669V621.844H284.122V622.844H276.013ZM276.841 626.031C276.841 624.578 278.177 623.562 280.06 623.562C281.95 623.562 283.278 624.578 283.294 626.031C283.278 627.531 281.95 628.516 280.06 628.516C278.177 628.516 276.841 627.531 276.841 626.031ZM278.013 626.031C278.013 626.953 278.849 627.562 280.06 627.578C281.271 627.562 282.107 626.953 282.107 626.031C282.107 625.141 281.271 624.516 280.06 624.516C278.849 624.516 278.013 625.141 278.013 626.031ZM278.435 634.078V629.547H287.513V634.078H278.435ZM279.653 633.078H286.31V630.531H279.653V633.078ZM305.857 627.094V628.109H300.123V629.75H304.31V634.078H294.748V629.75H298.92V628.109H293.201V627.094H305.857ZM294.388 621.844V620.828H304.654V621.844H302.513V624.766H304.607V625.781H294.435V624.766H296.529V621.844H294.388ZM295.967 633.078H303.107V630.719H295.967V633.078ZM297.748 624.766H301.295V621.844H297.748V624.766ZM318.162 620.375V627.594H316.959V620.375H318.162ZM306.912 626.641C308.983 625.953 310.467 624.25 310.475 622.344V622.188H307.225V621.172H314.912V622.188H311.709V622.344C311.717 624.148 313.193 625.742 315.287 626.359L314.678 627.312C313.037 626.797 311.733 625.695 311.115 624.273C310.514 625.828 309.186 627.039 307.49 627.609L306.912 626.641ZM309.147 629.234V628.266H318.178V631.578H310.381V633.125H318.678V634.109H309.178V630.656H316.959V629.234H309.147ZM326.545 620.625C329.631 620.625 331.444 621.477 331.452 623.016C331.444 624.594 329.631 625.445 326.545 625.453C323.444 625.445 321.623 624.594 321.623 623.016C321.623 621.477 323.444 620.625 326.545 620.625ZM320.217 627.391V626.391H332.873V627.391H320.217ZM321.748 629.531V628.594H331.248V631.703H322.998V633.141H331.67V634.109H321.78V630.797H330.045V629.531H321.748ZM322.905 623.016C322.889 623.984 324.241 624.516 326.545 624.516C328.85 624.516 330.194 623.984 330.202 623.016C330.194 622.102 328.85 621.555 326.545 621.547C324.241 621.555 322.889 622.102 322.905 623.016ZM348.171 620.375V626.031H350.421V627.062H348.171V634.266H346.952V620.375H348.171ZM337.515 630.656C341.101 628.875 343.054 626.195 343.335 622.906H338.155V621.875H344.577C344.569 625.805 342.726 629.391 338.202 631.625L337.515 630.656ZM362.148 624.266V625.281H352.663V620.656H353.882V624.266H362.148ZM350.929 627.922V626.906H363.601V627.922H350.929ZM352.46 631.688C352.453 630.07 354.257 629.164 357.257 629.172C360.234 629.164 362.023 630.07 362.038 631.688C362.023 633.297 360.234 634.203 357.257 634.203C354.257 634.203 352.453 633.297 352.46 631.688ZM353.71 631.688C353.695 632.656 355.031 633.242 357.257 633.25C359.46 633.242 360.796 632.656 360.804 631.688C360.796 630.703 359.46 630.148 357.257 630.141C355.031 630.148 353.695 630.703 353.71 631.688ZM375.187 620.375V626.109H377.515V627.125H375.187V634.266H373.968V620.375H375.187ZM364.359 623.625V622.609H367.937V620.547H369.156V622.609H372.625V623.625H364.359ZM365.156 627.969C365.148 626.094 366.586 624.781 368.562 624.781C370.523 624.781 371.953 626.094 371.968 627.969C371.953 629.852 370.523 631.156 368.562 631.156C366.586 631.156 365.148 629.852 365.156 627.969ZM366.328 627.969C366.32 629.234 367.265 630.125 368.562 630.109C369.843 630.125 370.781 629.234 370.797 627.969C370.781 626.711 369.843 625.805 368.562 625.812C367.265 625.805 366.32 626.711 366.328 627.969ZM389.836 620.375V634.266H388.664V620.375H389.836ZM377.961 630.375C380.977 628.586 382.492 626.078 382.727 623.172H378.555V622.156H383.945C383.945 623.523 383.727 624.844 383.25 626.078H385.742V620.75H386.914V633.562H385.742V627.078H382.797C381.961 628.695 380.617 630.125 378.68 631.266L377.961 630.375ZM406.008 620.375V623.938H408.102V624.984H406.008V628.453H404.79V620.375H406.008ZM395.18 622.828V621.812H398.712V620.25H399.93V621.812H403.462V622.828H395.18ZM395.977 625.906C395.969 624.422 397.305 623.477 399.321 623.469C401.313 623.477 402.649 624.422 402.665 625.906C402.649 627.391 401.313 628.352 399.321 628.344C397.305 628.352 395.969 627.391 395.977 625.906ZM397.149 625.906C397.141 626.812 398.008 627.406 399.321 627.406C400.618 627.406 401.493 626.812 401.508 625.906C401.493 625.008 400.618 624.406 399.321 624.422C398.008 624.406 397.141 625.008 397.149 625.906ZM397.227 634.078V629.062H398.446V630.547H404.79V629.062H406.008V634.078H397.227ZM398.446 633.094H404.79V631.516H398.446V633.094ZM420.11 620.375V634.266H418.892V620.375H420.11ZM409.563 630.688V621.75H410.767V629.625C412.892 629.609 415.079 629.445 417.407 628.953L417.579 630C415.11 630.516 412.915 630.688 410.688 630.688H409.563ZM432.915 620.375V625.875H435.243V626.906H432.915V634.297H431.697V620.375H432.915ZM422.775 630.812V621.734H429.259V622.75H423.993V629.781C426.509 629.773 428.283 629.664 430.353 629.281L430.509 630.344C428.329 630.734 426.509 630.812 423.868 630.812H422.775ZM437.142 633.094C436.595 633.086 436.127 632.633 436.142 632.078C436.127 631.531 436.595 631.078 437.142 631.078C437.697 631.078 438.15 631.531 438.142 632.078C438.15 632.633 437.697 633.086 437.142 633.094Z" fill="black"/>
</svg>
