<svg width="198" height="52" viewBox="0 0 198 52" fill="none" xmlns="http://www.w3.org/2000/svg">
<rect width="198" height="52" rx="26" fill="black"/>
<path d="M29.6562 22.8906C29.6406 25.4453 31.1875 28.0234 33.3594 28.9844L32.4688 30.1562C30.8594 29.3906 29.5859 27.8203 28.9297 25.9062C28.2812 27.9609 26.9922 29.6484 25.3125 30.4688L24.4062 29.2188C26.6094 28.2422 28.1562 25.5625 28.1562 22.8906V20.5H29.6562V22.8906ZM34.625 33.3594V19.3281H36.1094V33.3594H34.625ZM49.6956 19.3281V27.8125H48.2113V24.7656H46.0238V23.5312H48.2113V19.3281H49.6956ZM38.0394 21.9062V20.7188H41.4144V19.2031H42.8831V20.7188H46.2425V21.9062H38.0394ZM38.8519 25.0469C38.8519 23.5781 40.2269 22.5469 42.1488 22.5469C44.0706 22.5469 45.43 23.5781 45.43 25.0469C45.43 26.5547 44.0706 27.5547 42.1488 27.5625C40.2269 27.5547 38.8519 26.5547 38.8519 25.0469ZM40.2738 25.0469C40.2738 25.8984 41.0316 26.4297 42.1488 26.4375C43.2503 26.4297 44.0081 25.8984 44.0081 25.0469C44.0081 24.2266 43.2503 23.6797 42.1488 23.6875C41.0316 23.6797 40.2738 24.2266 40.2738 25.0469ZM40.4613 33.1562V28.5H49.6956V33.1562H40.4613ZM41.93 31.9531H48.2425V29.6719H41.93V31.9531ZM56.3444 20.1562L52.7038 33.7031H51.2194L54.86 20.1562H56.3444ZM69.5556 26.6562V27.8438H63.9931V30.4219H62.5244V27.8438H56.7431V26.6562H69.5556ZM58.3369 33.0312V29.2031H59.8056V31.8281H68.1338V33.0312H58.3369ZM58.4306 25.4219V19.7656H59.8994V21.4688H66.3838V19.7656H67.8681V25.4219H58.4306ZM59.8994 24.2344H66.3838V22.5781H59.8994V24.2344ZM75.2044 21.5625C75.1966 23.4219 76.47 25.1719 78.5794 25.875L77.7669 27.0625C76.2278 26.5 75.0872 25.375 74.4856 23.9609C73.8684 25.5156 72.6809 26.7344 71.0481 27.3594L70.2513 26.1562C72.4466 25.3984 73.7122 23.5547 73.72 21.4844V20.0469H75.2044V21.5625ZM72.4544 29.5312V28.3594H81.9388V33.3281H80.4544V29.5312H72.4544ZM77.5013 23.375V22.1562H80.4544V19.3281H81.9388V27.625H80.4544V23.375H77.5013ZM98.2675 19.3281V24.75H100.518V26H98.2675V33.3281H96.7831V19.3281H98.2675ZM87.8925 30V20.5H89.3613V24.0938H93.0644V20.5H94.5331V30H87.8925ZM89.3613 28.7812H93.0644V25.2656H89.3613V28.7812ZM113.682 30.4062V31.6562H100.869V30.4062H106.51V27.9531H102.432V23.5H110.651V21.5312H102.401V20.3125H112.119V24.6875H103.901V26.7344H112.448V27.9531H107.979V30.4062H113.682ZM125.284 19.3281V24.9062H127.456V26.1406H125.284V33.3125H123.799V19.3281H125.284ZM114.393 29.5781C117.901 27.8281 119.807 25.2969 120.112 22.0312H115.096V20.7969H121.628C121.612 24.8438 119.831 28.4609 115.221 30.7344L114.393 29.5781ZM139.526 19.3281V33.3281H138.026V19.3281H139.526ZM128.026 29.5781C131.745 27.8047 133.565 25.2812 133.854 22.0156H128.698V20.8281H135.354C135.354 24.9297 133.612 28.4766 128.808 30.7812L128.026 29.5781Z" fill="white"/>
<path d="M162.5 29C163.328 29 164 29.6716 164 30.5C164 31.3284 163.328 32 162.5 32C161.672 32 161 31.3284 161 30.5C161 29.6716 161.672 29 162.5 29ZM169.5 24.5C170.328 24.5 171 25.1716 171 26C171 26.8284 170.328 27.5 169.5 27.5C168.672 27.5 168 26.8284 168 26C168 25.1716 168.672 24.5 169.5 24.5ZM162.5 20C163.328 20 164 20.6716 164 21.5C164 22.3284 163.328 23 162.5 23C161.672 23 161 22.3284 161 21.5C161 20.6716 161.672 20 162.5 20Z" fill="#00A7E1"/>
</svg>
