<svg width="600" height="360" viewBox="0 0 600 360" fill="none" xmlns="http://www.w3.org/2000/svg">
<rect width="600" height="360" rx="16" fill="white"/>
<path d="M73.375 74.2656V75.6875H60.4688V74.2656H66.0312V71.5156H61.8906V64.2031H63.625V66.5156H70.1719V64.2031H71.9062V71.5156H67.75V74.2656H73.375ZM63.625 70.1094H70.1719V67.9062H63.625V70.1094ZM85.7656 69.6875V71.0625H81.5781V74.2969H87.2031V75.7188H74.2969V74.2969H79.8594V71.0625H75.8594V64.3125H85.6562V65.7031H77.5938V69.6875H85.7656ZM93.1875 67.2812C93.1797 69.4609 94.4922 71.9453 96.7188 72.9844L95.75 74.3594C94.1562 73.6094 92.9766 72.0938 92.3438 70.3281C91.7031 72.2656 90.4688 73.9219 88.8438 74.7031L87.8281 73.3438C90.0781 72.2734 91.4453 69.6328 91.4531 67.2812V66.0938H88.375V64.6562H96.1406V66.0938H93.1875V67.2812ZM97.4531 77.3906V63.2656H99.1875V68.7656H101.359V70.2188H99.1875V77.3906H97.4531ZM114.859 74.3125V75.75H101.953V74.3125H105.375V71.9844H103.484V67.375H111.609V65.6406H103.453V64.2344H113.328V68.7656H105.219V70.5781H113.656V71.9844H111.594V74.3125H114.859ZM107.062 74.3125H109.891V71.9844H107.062V74.3125Z" fill="#00A7E1"/>
<path d="M77.9297 163.773V165.695C77.918 168.262 77.9531 171.227 76.9922 175.703L74.4375 175.445C74.8125 173.734 75.0352 172.223 75.1641 170.875L62.6719 171.578L62.2969 169.352L75.3164 168.883C75.3633 167.781 75.375 166.797 75.375 165.883H62.9531V163.773H77.9297ZM60.7031 180.484V178.328H67.8281V173.102H70.4062V178.328H80.0156V180.484H60.7031ZM86.3091 163.141C88.9927 163.152 90.9731 164.793 90.9731 167.148C90.9731 169.48 88.9927 171.109 86.3091 171.086C83.5786 171.109 81.5981 169.48 81.5981 167.148C81.5981 164.793 83.5786 163.152 86.3091 163.141ZM80.6606 172.398C83.5434 172.41 88.1606 172.387 91.5591 171.859L91.7466 173.805C90.3989 174.074 88.9223 174.238 87.4575 174.355V181.375H84.9966V174.484C83.4966 174.543 82.102 174.555 80.9653 174.555L80.6606 172.398ZM83.9184 167.148C83.9184 168.367 84.8794 169.164 86.3091 169.164C87.6919 169.164 88.6645 168.367 88.6763 167.148C88.6645 165.906 87.6919 165.086 86.3091 165.109C84.8794 165.086 83.9184 165.906 83.9184 167.148ZM89.145 177.602V175.609H92.7309V162.297H95.1684V182.031H92.7309V177.602H89.145ZM96.9263 183.086V161.898H99.3872V183.086H96.9263ZM118.853 161.898V183.109H116.228V161.898H118.853ZM101.907 170.922C101.895 166.352 104.228 163.445 107.438 163.445C110.614 163.445 112.958 166.352 112.97 170.922C112.958 175.527 110.614 178.422 107.438 178.422C104.228 178.422 101.895 175.527 101.907 170.922ZM104.415 170.922C104.415 174.18 105.645 176.066 107.438 176.078C109.22 176.066 110.438 174.18 110.438 170.922C110.438 167.688 109.22 165.789 107.438 165.789C105.645 165.789 104.415 167.688 104.415 170.922ZM125.615 179.336L123.646 185.898H121.419L122.638 179.336H125.615ZM135.155 164.031V170.266H132.881V164.031H135.155ZM154.526 161.922V183.062H151.878V178.211H147.378V176.242H151.878V161.922H154.526ZM136.55 172.797C140.534 172.785 145.831 172.773 150.425 172.141L150.589 174.062C148.643 174.391 146.64 174.602 144.683 174.73V182.43H142.058V174.859C140.206 174.93 138.448 174.93 136.878 174.93L136.55 172.797ZM138.073 167.125C138.073 164.605 140.323 162.836 143.511 162.836C146.628 162.836 148.901 164.605 148.901 167.125C148.901 169.703 146.628 171.379 143.511 171.391C140.323 171.379 138.073 169.703 138.073 167.125ZM140.534 167.125C140.522 168.543 141.729 169.398 143.511 169.398C145.198 169.398 146.417 168.543 146.417 167.125C146.417 165.742 145.21 164.828 143.511 164.828C141.729 164.828 140.522 165.742 140.534 167.125ZM174.671 161.898V183.109H172.093V171.672H168.109V169.562H172.093V161.898H174.671ZM157.867 178.234V163.727H167.781V165.859H160.492V169.656H166.937V171.719H160.492V176.078C163.714 176.066 166.128 175.949 168.859 175.516L169.117 177.625C166.035 178.094 163.316 178.211 159.531 178.234H157.867ZM201.743 178.352V180.461H182.383V178.352H190.68V173.453H193.258V178.352H201.743ZM182.946 171.812C187.375 171.098 190.551 167.922 190.563 164.734V163.188H193.328V164.734C193.328 167.934 196.528 171.098 200.993 171.812L199.868 173.969C196.293 173.289 193.352 171.238 191.946 168.461C190.551 171.227 187.645 173.301 184.071 173.969L182.946 171.812ZM221.958 170.57V172.68H202.645V170.57H221.958ZM204.919 176.148V174.133H219.544V179.336H207.497V180.906H220.13V182.898H204.942V177.484H216.989V176.148H204.919ZM205.083 169.164V162.555H219.473V169.164H205.083ZM207.637 167.125H216.872V164.594H207.637V167.125ZM240.556 161.898V183.109H237.978V161.898H240.556ZM224.056 165.859V163.75H234.04V171.695H226.751V175.961C230.091 175.938 232.962 175.762 236.267 175.211L236.501 177.344C232.904 177.965 229.74 178.105 225.931 178.094H224.079V169.633H231.392V165.859H224.056ZM261.451 161.898V183.086H258.943V161.898H261.451ZM243.381 171.062C243.381 166.398 245.185 163.504 247.951 163.516C250.517 163.504 252.263 165.906 252.568 169.867H254.607V162.273H257.092V182.055H254.607V171.977H252.592C252.345 176.113 250.576 178.645 247.951 178.633C245.185 178.645 243.381 175.738 243.381 171.062ZM245.795 171.062C245.783 174.379 246.603 176.16 247.951 176.148C249.357 176.16 250.189 174.379 250.201 171.062C250.189 167.758 249.357 165.965 247.951 165.977C246.603 165.965 245.783 167.758 245.795 171.062ZM266.244 164.031V170.266H263.971V164.031H266.244ZM290.316 163.844V166C290.316 168.637 290.316 171.473 289.542 175.633L286.988 175.375C287.714 171.449 287.714 168.566 287.714 166V165.93H274.894V163.844H290.316ZM272.948 180.344V178.211H277.284V171.461H279.886V178.211H282.581V171.461H285.136V178.211H292.261V180.344H272.948ZM312.523 171.906V173.992H307.695V176.195H310.156V183.086H307.554V178.234H295.343V176.195H297.968V173.992H293.211V171.906H312.523ZM295.203 166.469C295.203 163.914 298.203 162.344 302.843 162.344C307.496 162.344 310.472 163.914 310.484 166.469C310.472 169.059 307.496 170.617 302.843 170.617C298.203 170.617 295.203 169.059 295.203 166.469ZM297.922 166.469C297.898 167.852 299.75 168.59 302.843 168.602C305.937 168.59 307.789 167.852 307.789 166.469C307.789 165.145 305.937 164.383 302.843 164.383C299.75 164.383 297.898 165.145 297.922 166.469ZM300.57 176.195H305.117V173.992H300.57V176.195ZM338.047 178.352V180.531H318.688V178.352H338.047ZM320.282 165.953V163.867H336.36V165.953H333.266V172.703H336.29V174.766H320.352V172.703H323.329V165.953H320.282ZM325.93 172.703H330.688V165.953H325.93V172.703ZM358.31 178.469V180.625H338.95V178.469H347.294V175.023H341.247V168.086H353.435V165.461H341.2V163.352H356.013V170.148H343.849V172.891H356.505V175.023H349.872V178.469H358.31ZM376.064 163.961V166.352C376.064 169.188 376.064 172.105 375.291 176.57L372.642 176.336C373.462 172.176 373.462 169.105 373.462 166.352V166.07H361.252V163.961H376.064ZM359.212 180.18V178.047H378.525V180.18H359.212ZM397.592 161.922V174.461H395.108V169.141H392.904V174.25H390.467V162.32H392.904V167.031H395.108V161.922H397.592ZM380.342 165.273V163.211H388.404V169.328H382.897V171.625C385.369 171.602 387.233 171.484 389.389 171.062L389.623 173.125C387.068 173.594 384.924 173.652 381.818 173.641H380.365V167.383H385.897V165.273H380.342ZM383.295 182.828V175.352H397.592V182.828H383.295ZM385.897 180.719H395.014V177.438H385.897V180.719ZM412.991 166.211C412.991 168.848 414.796 171.426 418.171 172.469L416.835 174.508C414.433 173.734 412.687 172.141 411.714 170.125C410.765 172.316 408.96 174.062 406.452 174.93L405.116 172.867C408.526 171.742 410.343 169 410.366 166.211V165.602H405.796V163.516H417.444V165.602H412.991V166.211ZM408.585 182.664V175.891H411.21V180.555H423.187V182.664H408.585ZM419.976 177.297V161.922H422.601V177.297H419.976ZM443.332 161.898V175.211H440.847V169.445H438.785V174.508H436.347V162.32H438.785V167.336H440.847V161.898H443.332ZM425.097 166.234V164.195H429.105V162.086H431.683V164.195H435.644V166.234H425.097ZM425.847 170.758C425.824 168.555 427.746 167.09 430.394 167.102C433.089 167.09 434.988 168.555 435.011 170.758C434.988 172.961 433.089 174.414 430.394 174.414C427.746 174.414 425.824 172.961 425.847 170.758ZM428.168 170.758C428.168 171.848 429.07 172.539 430.394 172.539C431.73 172.539 432.644 171.848 432.644 170.758C432.644 169.668 431.73 168.977 430.394 168.977C429.07 168.977 428.168 169.668 428.168 170.758ZM428.918 179.289C428.906 176.852 431.648 175.48 436.183 175.469C440.707 175.48 443.437 176.852 443.449 179.289C443.437 181.68 440.707 183.062 436.183 183.062C431.648 183.062 428.906 181.68 428.918 179.289ZM431.519 179.289C431.507 180.449 433.16 181.082 436.183 181.07C439.195 181.082 440.812 180.449 440.824 179.289C440.812 178.059 439.195 177.438 436.183 177.461C433.16 177.438 431.507 178.059 431.519 179.289Z" fill="black"/>
<path d="M62.25 214.75V218.156H65.2812V214.75H66.4062V218.656H68.5V213.688H69.6719V226.578H68.5V219.688H66.4062V223.781H61.0781V214.75H62.25ZM62.25 222.75H65.2812V219.156H62.25V222.75ZM71.2812 227.266V213.375H72.4688V227.266H71.2812ZM80.9925 215.422C81.0003 217.805 83.7191 219.922 86.1331 220.375L85.5706 221.406C83.4691 220.922 81.2659 219.43 80.3675 217.391C79.4613 219.43 77.2659 220.914 75.1644 221.406L74.6019 220.375C77.0081 219.914 79.7034 217.812 79.7113 215.422V214.359H80.9925V215.422ZM74.0706 225.375V224.359H86.7894V225.375H74.0706ZM98.8288 220.891V221.891H89.2194V214.578H98.6725V215.609H90.4694V217.672H98.3756V218.656H90.4694V220.891H98.8288ZM87.5788 225.453V224.438H100.298V225.453H87.5788ZM115.533 213.375V218.906H117.861V219.938H115.533V227.297H114.314V213.375H115.533ZM105.329 215.688V214.672H111.642V219.641H106.579V222.891C109.158 222.898 110.962 222.797 113.064 222.406L113.189 223.422C111.001 223.82 109.15 223.922 106.47 223.938H105.361V218.625H110.423V215.688H105.329ZM129.744 213.375V227.297H128.509V213.375H129.744ZM118.806 219.297C118.814 216.344 120.283 214.461 122.353 214.453C124.416 214.461 125.908 216.344 125.9 219.297C125.908 222.258 124.416 224.133 122.353 224.125C120.283 224.133 118.814 222.258 118.806 219.297ZM119.994 219.297C119.994 221.555 120.963 223.039 122.353 223.031C123.752 223.039 124.713 221.555 124.713 219.297C124.713 217.039 123.752 215.555 122.353 215.547C120.963 215.555 119.994 217.039 119.994 219.297ZM144.518 224.438V225.484H131.799V224.438H144.518ZM132.924 215.797V214.781H143.299V215.797H141.096V220.656H143.268V221.656H132.955V220.656H135.127V215.797H132.924ZM136.346 220.656H139.893V215.797H136.346V220.656ZM155.924 217.625V219.453H161.659V220.453H149.003V219.453H154.721V217.625H155.924ZM149.706 217.422C152.245 217.141 154.706 215.812 154.706 214.016V213.484H155.94V214.016C155.94 215.812 158.409 217.141 160.94 217.422L160.503 218.359C158.315 218.062 156.198 217.117 155.323 215.594C154.448 217.117 152.323 218.062 150.143 218.359L149.706 217.422ZM150.534 222.562V221.609H160.034V224.766H151.784V226.141H160.456V227.109H150.565V223.844H158.831V222.562H150.534ZM173.667 213.938V217.547H165.292V219.344H173.964V220.359H164.058V216.578H172.417V214.938H164.026V213.938H173.667ZM162.495 222.812V221.828H175.214V222.812H169.433V227.297H168.214V222.812H162.495ZM180.769 215.953C180.769 217.992 182.167 219.914 184.175 220.703L183.488 221.656C181.964 221.023 180.769 219.758 180.183 218.18C179.589 219.883 178.339 221.234 176.722 221.906L176.05 220.922C178.12 220.125 179.558 218.133 179.566 215.953V214.172H180.769V215.953ZM178.55 226.969V222.688H179.784V225.938H187.847V226.969H178.55ZM183.441 219.312V218.312H186.3V216.469H183.441V215.453H186.3V213.391H187.534V223.766H186.3V219.312H183.441ZM204.707 213.375V227.266H203.473V213.375H204.707ZM193.394 223.656C197.152 221.875 199.074 219.211 199.348 215.891H194.035V214.891H200.598C200.582 218.883 198.723 222.422 194.066 224.656L193.394 223.656ZM210.559 214.031C212.418 214.023 213.84 215.109 214.106 216.703H217.012V213.375H218.246V220.828H217.012V217.719H214.113C213.871 219.359 212.442 220.453 210.559 220.453C208.442 220.453 206.942 219.141 206.949 217.234C206.942 215.352 208.442 214.023 210.559 214.031ZM208.121 217.234C208.121 218.5 209.129 219.414 210.559 219.422C211.957 219.414 212.965 218.5 212.965 217.234C212.965 215.953 211.957 215.062 210.559 215.078C209.129 215.062 208.121 215.953 208.121 217.234ZM209.293 227.078V221.531H210.527V223.297H217.012V221.531H218.246V227.078H209.293ZM210.527 226.078H217.012V224.281H210.527V226.078ZM235.044 214.734V216.078C235.028 217.766 235.044 219.672 234.466 222.5L233.262 222.359C233.528 221.102 233.669 220 233.747 219.023L225.262 219.531L225.059 218.453L233.802 218.094C233.833 217.359 233.841 216.703 233.841 216.078V215.75H225.466V214.734H235.044ZM223.934 225.375V224.328H228.903V220.734H230.106V224.328H236.591V225.375H223.934ZM240.974 214.266C242.739 214.273 244.005 215.312 244.021 216.844C244.005 218.367 242.739 219.406 240.974 219.391C239.208 219.406 237.927 218.367 237.943 216.844C237.927 215.312 239.208 214.273 240.974 214.266ZM237.255 220.469C239.177 220.477 242.286 220.461 244.552 220.094L244.646 221.031C243.661 221.227 242.568 221.344 241.489 221.406V226.125H240.333V221.469C239.255 221.508 238.239 221.516 237.427 221.516L237.255 220.469ZM239.052 216.844C239.044 217.789 239.841 218.461 240.974 218.469C242.107 218.461 242.911 217.789 242.911 216.844C242.911 215.891 242.107 215.203 240.974 215.219C239.841 215.203 239.044 215.891 239.052 216.844ZM242.818 223.453V222.484H245.458V213.688H246.614V226.531H245.458V223.453H242.818ZM248.099 227.266V213.375H249.271V227.266H248.099ZM262.404 213.375V227.297H261.169V213.375H262.404ZM251.466 219.297C251.474 216.344 252.943 214.461 255.013 214.453C257.076 214.461 258.568 216.344 258.56 219.297C258.568 222.258 257.076 224.133 255.013 224.125C252.943 224.133 251.474 222.258 251.466 219.297ZM252.654 219.297C252.654 221.555 253.622 223.039 255.013 223.031C256.412 223.039 257.372 221.555 257.372 219.297C257.372 217.039 256.412 215.555 255.013 215.547C253.622 215.555 252.654 217.039 252.654 219.297ZM265.318 221.688C265.334 218.742 266.131 216.289 267.568 214.203H268.756C267.701 215.742 266.717 218.906 266.709 221.688C266.717 224.477 267.701 227.633 268.756 229.188H267.568C266.131 227.094 265.334 224.641 265.318 221.688ZM281.467 213.375V227.266H280.295V219.984H278.248V226.547H277.123V213.688H278.248V218.969H280.295V213.375H281.467ZM270.107 223.828V215.078H275.311V216.094H271.326V222.781C273.24 222.773 274.561 222.703 276.107 222.391L276.217 223.422C274.545 223.766 273.131 223.82 270.998 223.828H270.107ZM295.819 224.547V225.562H283.1V224.547H286.647V221.234H284.256V220.219H286.428V215.688H284.225V214.672H294.6V215.688H292.397V220.219H294.569V221.234H292.178V224.547H295.819ZM287.647 220.219H291.194V215.688H287.647V220.219ZM287.881 224.547H290.959V221.234H287.881V224.547ZM305.194 217.109C305.187 219.625 306.804 222.156 308.819 223.078L308.085 224.078C306.507 223.266 305.202 221.609 304.585 219.633C303.968 221.711 302.663 223.492 301.085 224.328L300.288 223.344C302.327 222.344 303.937 219.672 303.944 217.109V214.578H305.194V217.109ZM307.304 219.125V218.125H310.601V213.375H311.819V227.297H310.601V219.125H307.304ZM318.515 216.016C318.523 217.836 319.882 219.461 321.921 220.125L321.343 221.094C319.742 220.562 318.531 219.461 317.929 218.062C317.335 219.656 316.054 220.898 314.39 221.5L313.765 220.516C315.843 219.812 317.296 218.023 317.312 216.016V215.422H314.14V214.406H321.64V215.422H318.515V216.016ZM315.609 224.672C315.617 223.07 317.359 222.141 320.218 222.141C323.07 222.141 324.796 223.07 324.796 224.672C324.796 226.297 323.07 227.234 320.218 227.234C317.359 227.234 315.617 226.297 315.609 224.672ZM316.843 224.672C316.827 225.672 318.124 226.258 320.218 226.25C322.32 226.258 323.601 225.672 323.609 224.672C323.601 223.703 322.32 223.125 320.218 223.125C318.124 223.125 316.827 223.703 316.843 224.672ZM323.452 221.766V213.375H324.671V216.922H326.765V217.953H324.671V221.766H323.452ZM338.773 213.391V223.938H337.539V222.5H334.664V221.609H337.539V213.391H338.773ZM327.242 219.828C329.828 219.812 333.312 219.789 336.289 219.422L336.367 220.312C335.133 220.508 333.828 220.633 332.554 220.711V223.453H331.32V220.773C329.914 220.828 328.578 220.828 327.414 220.828L327.242 219.828ZM328.367 216.375C328.359 214.914 329.75 213.953 331.804 213.953C333.843 213.953 335.234 214.914 335.242 216.375C335.234 217.859 333.843 218.781 331.804 218.781C329.75 218.781 328.359 217.859 328.367 216.375ZM329.242 226.969V222.906H330.476V225.938H339.117V226.969H329.242ZM329.539 216.375C329.523 217.281 330.445 217.867 331.804 217.875C333.125 217.867 334.062 217.281 334.07 216.375C334.062 215.484 333.125 214.875 331.804 214.891C330.445 214.875 329.523 215.484 329.539 216.375ZM344.297 221.688C344.281 224.641 343.484 227.094 342.047 229.188H340.859C341.914 227.633 342.898 224.477 342.906 221.688C342.898 218.906 341.914 215.742 340.859 214.203H342.047C343.484 216.289 344.281 218.742 344.297 221.688ZM356.711 213.375V219.031H358.961V220.062H356.711V227.266H355.492V213.375H356.711ZM346.055 223.656C349.641 221.875 351.594 219.195 351.875 215.906H346.696V214.875H353.117C353.11 218.805 351.266 222.391 346.742 224.625L346.055 223.656ZM375.821 219.25V220.25H370.087V221.625H374.196V224.734H365.946V226.141H374.618V227.109H364.728V223.812H372.993V222.578H364.696V221.625H368.868V220.25H363.165V219.25H375.821ZM364.806 218.078V213.844H374.181V218.078H364.806ZM366.024 217.094H372.962V214.828H366.024V217.094ZM383.548 214.438V220.609H377.267V214.438H383.548ZM378.017 226.234C380.462 225.82 382.704 224.367 382.704 222.359V221.938H383.923V222.359C383.915 224.367 386.165 225.82 388.626 226.234L388.126 227.203C386.064 226.82 384.158 225.766 383.329 224.164C382.478 225.766 380.564 226.82 378.501 227.203L378.017 226.234ZM378.47 219.609H382.329V215.453H378.47V219.609ZM386.314 222.625V213.375H387.533V217.188H389.626V218.219H387.533V222.625H386.314ZM405.392 213.391V223.578H404.158V218.25H401.299V217.234H404.158V213.391H405.392ZM393.939 220.797C395.986 220.078 397.471 218.242 397.471 216.25V215.531H394.33V214.516H401.814V215.531H398.705V216.25C398.705 218.047 400.096 219.789 402.127 220.484L401.486 221.469C399.924 220.898 398.713 219.734 398.111 218.297C397.51 219.906 396.228 221.18 394.58 221.797L393.939 220.797ZM396.471 226.969V222.656H397.705V225.938H405.783V226.969H396.471ZM420.088 220.484V221.5H414.432V224.344H413.213V221.5H407.369V220.484H420.088ZM408.994 226.969V222.969H410.229V225.938H418.666V226.969H408.994ZM409.026 218.891V214.062H418.432V218.891H409.026ZM410.229 217.906H417.213V215.031H410.229V217.906ZM431.643 213.375V219.031H433.893V220.062H431.643V227.266H430.424V213.375H431.643ZM420.987 223.656C424.573 221.875 426.526 219.195 426.807 215.906H421.628V214.875H428.049C428.042 218.805 426.198 222.391 421.674 224.625L420.987 223.656ZM443.097 215.672C443.105 217.484 444.605 219.094 446.675 219.719L446.05 220.688C444.425 220.172 443.12 219.055 442.495 217.617C441.878 219.156 440.566 220.359 438.909 220.922L438.269 219.953C440.362 219.289 441.855 217.578 441.862 215.672V215.312H438.612V214.312H446.3V215.312H443.097V215.672ZM440.566 227.078V221.578H441.784V223.266H448.347V221.578H449.566V227.078H440.566ZM441.784 226.078H448.347V224.25H441.784V226.078ZM448.347 220.891V213.375H449.566V220.891H448.347ZM464.261 219.875V220.891H458.527V222.375C461.144 222.492 462.699 223.344 462.714 224.812C462.699 226.367 460.91 227.234 457.933 227.234C454.918 227.234 453.128 226.367 453.136 224.812C453.128 223.344 454.675 222.492 457.324 222.375V220.891H451.605V219.875H464.261ZM452.324 218.062C454.73 217.812 457.05 216.586 457.136 215.031H452.761V214.031H463.136V215.031H458.73C458.816 216.586 461.113 217.812 463.558 218.062L463.105 219.031C460.832 218.758 458.699 217.734 457.933 216.195C457.168 217.734 455.05 218.758 452.761 219.031L452.324 218.062ZM454.386 224.812C454.371 225.734 455.707 226.289 457.933 226.281C460.136 226.289 461.472 225.734 461.48 224.812C461.472 223.867 460.136 223.328 457.933 223.312C455.707 223.328 454.371 223.867 454.386 224.812ZM481.731 215.484V216.5H479.668V218.438H481.731V219.469H479.668V221.625H478.449V213.375H479.668V215.484H481.731ZM469.074 217.484C469.067 215.547 470.613 214.211 472.715 214.219C474.832 214.211 476.356 215.547 476.371 217.484C476.356 219.414 474.832 220.742 472.715 220.75C470.613 220.742 469.067 219.414 469.074 217.484ZM470.277 217.484C470.27 218.797 471.309 219.703 472.715 219.719C474.137 219.703 475.16 218.797 475.168 217.484C475.16 216.18 474.137 215.25 472.715 215.266C471.309 215.25 470.27 216.18 470.277 217.484ZM470.606 224.656C470.613 223.008 472.379 222.055 475.215 222.047C478.051 222.055 479.793 223.008 479.793 224.656C479.793 226.273 478.051 227.234 475.215 227.234C472.379 227.234 470.613 226.273 470.606 224.656ZM471.84 224.656C471.824 225.656 473.121 226.242 475.215 226.25C477.317 226.242 478.598 225.656 478.606 224.656C478.598 223.648 477.317 223.047 475.215 223.047C473.121 223.047 471.824 223.648 471.84 224.656ZM487.098 215.562C487.082 217.547 488.497 219.289 490.536 219.984L489.848 220.938C488.317 220.367 487.114 219.234 486.512 217.773C485.918 219.438 484.653 220.727 482.973 221.359L482.301 220.359C484.442 219.609 485.864 217.766 485.879 215.609V214.172H487.098V215.562ZM484.567 224.641C484.559 222.969 486.332 222.008 489.223 222.016C492.106 222.008 493.879 222.969 493.879 224.641C493.879 226.297 492.106 227.234 489.223 227.234C486.332 227.234 484.559 226.297 484.567 224.641ZM485.786 224.641C485.778 225.648 487.09 226.258 489.223 226.25C491.348 226.258 492.661 225.648 492.661 224.641C492.661 223.602 491.348 222.984 489.223 222.984C487.09 222.984 485.778 223.602 485.786 224.641ZM489.504 217.375V216.359H492.598V213.375H493.832V221.609H492.598V217.375H489.504ZM502.153 213.625C505.239 213.625 507.052 214.477 507.059 216.016C507.052 217.594 505.239 218.445 502.153 218.453C499.052 218.445 497.231 217.594 497.231 216.016C497.231 214.477 499.052 213.625 502.153 213.625ZM495.825 220.391V219.391H508.481V220.391H495.825ZM497.356 222.531V221.594H506.856V224.703H498.606V226.141H507.278V227.109H497.388V223.797H505.653V222.531H497.356ZM498.513 216.016C498.497 216.984 499.848 217.516 502.153 217.516C504.458 217.516 505.802 216.984 505.809 216.016C505.802 215.102 504.458 214.555 502.153 214.547C499.848 214.555 498.497 215.102 498.513 216.016ZM517.607 214.062C519.685 214.047 521.177 215.195 521.169 216.891C521.177 218.586 519.685 219.742 517.607 219.734C515.529 219.742 514.044 218.586 514.044 216.891C514.044 215.195 515.529 214.047 517.607 214.062ZM512.997 220.922C515.607 220.93 519.177 220.875 522.263 220.422L522.341 221.344C521.013 221.586 519.638 221.734 518.294 221.82V226.844H517.076V221.891C515.662 221.953 514.326 221.961 513.169 221.969L512.997 220.922ZM515.247 216.891C515.232 217.977 516.224 218.727 517.607 218.719C519.005 218.727 520.005 217.977 519.997 216.891C520.005 215.812 519.005 215.047 517.607 215.062C516.224 215.047 515.232 215.812 515.247 216.891ZM523.279 227.281V213.391H524.482V227.281H523.279ZM533.474 215.781V216.781H526.506V215.781H529.396V213.797H530.615V215.781H533.474ZM527.006 220.875C527.006 219.031 528.263 217.727 529.99 217.719C531.74 217.727 532.99 219.031 533.006 220.875C532.99 222.742 531.74 224.055 529.99 224.062C528.263 224.055 527.006 222.742 527.006 220.875ZM528.099 220.875C528.099 222.109 528.888 222.992 529.99 222.984C531.099 222.992 531.912 222.109 531.912 220.875C531.912 219.656 531.099 218.766 529.99 218.75C528.888 218.766 528.099 219.656 528.099 220.875ZM534.193 226.578V213.719H535.349V219.234H537.193V213.375H538.365V227.266H537.193V220.25H535.349V226.578H534.193ZM65.2188 241.109C65.2188 243.555 66.8359 246.078 68.8125 247.047L68.0625 248.031C66.5312 247.234 65.25 245.586 64.6328 243.656C64.0156 245.703 62.7031 247.461 61.1406 248.297L60.3594 247.312C62.3906 246.312 64 243.648 64.0156 241.109V238.578H65.2188V241.109ZM70.0938 251.266V237.375H71.3125V243.016H73.6406V244.078H71.3125V251.266H70.0938ZM85.93 237.375V251.266H84.7269V244.078H82.7269V250.547H81.5706V237.688H82.7269V243.031H84.7269V237.375H85.93ZM74.7738 247.672V239.078H75.9925V246.578C77.3675 246.57 78.8519 246.469 80.5394 246.125L80.6956 247.219C78.7581 247.57 77.1644 247.672 75.6331 247.672H74.7738ZM91.29 242.938L92.5088 238.688H93.665L92.8056 242.938H91.29ZM105.986 237.391V251.281H104.736V247.828H101.533V246.891H104.736V237.391H105.986ZM94.4231 244.703C97.0716 244.695 100.595 244.688 103.658 244.25L103.736 245.172C102.361 245.406 100.931 245.539 99.5481 245.625V250.844H98.3138V245.688C96.9856 245.734 95.7122 245.75 94.595 245.75L94.4231 244.703ZM95.4856 240.812C95.4778 239.18 96.9153 238.078 99.0013 238.078C101.064 238.078 102.509 239.18 102.501 240.812C102.509 242.461 101.064 243.523 99.0013 243.531C96.9153 243.523 95.4778 242.461 95.4856 240.812ZM96.6419 240.812C96.6341 241.867 97.6028 242.586 99.0013 242.578C100.368 242.586 101.337 241.867 101.345 240.812C101.337 239.766 100.368 239.039 99.0013 239.031C97.6028 239.039 96.6341 239.766 96.6419 240.812ZM119.509 237.375V251.297H118.291V243.641H115.353V242.625H118.291V237.375H119.509ZM108.634 247.938V238.656H115.119V239.672H109.869V242.562H114.509V243.562H109.869V246.922C112.416 246.914 114.056 246.844 115.963 246.5L116.103 247.516C114.08 247.844 112.384 247.938 109.697 247.938H108.634ZM137.916 248.438V249.453H125.198V248.438H130.885V245.031H132.088V248.438H137.916ZM125.698 244.172C128.127 243.758 130.83 241.727 130.838 239.391V238.328H132.119V239.391C132.127 241.711 134.869 243.758 137.291 244.172L136.744 245.188C134.627 244.75 132.393 243.32 131.494 241.32C130.58 243.312 128.369 244.75 126.244 245.188L125.698 244.172ZM151.362 243.328V244.344H138.706V243.328H151.362ZM140.237 246.578V245.609H149.737V248.734H141.487V250.141H150.159V251.109H140.268V247.812H148.534V246.578H140.237ZM140.346 242.078V237.844H149.721V242.078H140.346ZM141.565 241.094H148.503V238.828H141.565V241.094ZM163.683 237.375V251.297H162.464V237.375H163.683ZM152.995 239.688V238.672H159.464V243.609H154.276V246.891C156.581 246.898 158.636 246.789 161.12 246.391L161.245 247.422C158.69 247.82 156.581 247.922 154.183 247.922H153.026V242.609H158.229V239.688H152.995ZM177.628 237.375V251.266H176.441V237.375H177.628ZM165.894 243.375C165.902 240.422 167.073 238.555 168.878 238.547C170.566 238.555 171.706 240.18 171.863 242.797H173.659V237.672H174.831V250.562H173.659V243.812H171.87C171.753 246.516 170.589 248.211 168.878 248.203C167.073 248.211 165.902 246.328 165.894 243.375ZM167.05 243.375C167.034 245.625 167.753 247.047 168.878 247.031C170.011 247.047 170.73 245.625 170.722 243.375C170.73 241.117 170.011 239.703 168.878 239.703C167.753 239.703 167.034 241.117 167.05 243.375ZM181.621 238.703L180.402 242.953H179.246L180.105 238.703H181.621ZM197.293 238.781V240.328C197.285 242.109 197.285 243.898 196.793 246.484L195.59 246.344C196.082 243.891 196.082 242.062 196.09 240.328V239.797H187.465V238.781H197.293ZM186.137 249.297V248.281H189.277V243.703H190.496V248.281H192.746V243.703H193.949V248.281H198.793V249.297H186.137ZM212.301 244.078V245.078H208.926V246.844H210.739V251.266H209.504V247.828H201.051V246.844H203.004V245.078H199.645V244.078H212.301ZM201.051 240.359C201.051 238.695 202.95 237.703 205.973 237.719C208.981 237.703 210.872 238.695 210.879 240.359C210.872 242.031 208.981 243.031 205.973 243.016C202.95 243.031 201.051 242.031 201.051 240.359ZM202.317 240.359C202.309 241.414 203.723 242.055 205.973 242.062C208.2 242.055 209.622 241.414 209.629 240.359C209.622 239.328 208.2 238.688 205.973 238.703C203.723 238.688 202.309 239.328 202.317 240.359ZM204.239 246.844H207.723V245.078H204.239V246.844ZM229.568 248.438V249.484H216.849V248.438H229.568ZM217.974 239.797V238.781H228.349V239.797H226.146V244.656H228.318V245.656H218.005V244.656H220.177V239.797H217.974ZM221.396 244.656H224.943V239.797H221.396V244.656ZM243.076 248.516V249.547H230.357V248.516H236.076V245.891H231.951V241.609H240.263V239.422H231.919V238.406H241.466V242.609H233.169V244.875H241.794V245.891H237.279V248.516H243.076ZM254.818 238.859V240.25C254.818 242 254.818 243.977 254.303 247L253.053 246.875C253.615 244.031 253.615 241.953 253.615 240.25V239.875H245.24V238.859H254.818ZM243.865 249.219V248.203H256.521V249.219H243.865ZM269.17 237.391V245.672H267.998V241.938H266.045V245.484H264.904V237.656H266.045V240.922H267.998V237.391H269.17ZM257.982 239.297V238.297H263.248V242.078H259.201V244.078C261.029 244.07 262.436 243.984 264.076 243.656L264.217 244.656C262.412 244.992 260.936 245.047 258.92 245.047H258.014V241.125H262.076V239.297H257.982ZM259.998 251.078V246.328H269.17V251.078H259.998ZM261.201 250.078H267.967V247.328H261.201V250.078ZM277.209 237.625C280.295 237.625 282.108 238.477 282.116 240.016C282.108 241.594 280.295 242.445 277.209 242.453C274.108 242.445 272.288 241.594 272.288 240.016C272.288 238.477 274.108 237.625 277.209 237.625ZM270.881 244.391V243.391H283.538V244.391H270.881ZM272.413 246.531V245.594H281.913V248.703H273.663V250.141H282.334V251.109H272.444V247.797H280.709V246.531H272.413ZM273.569 240.016C273.553 240.984 274.905 241.516 277.209 241.516C279.514 241.516 280.858 240.984 280.866 240.016C280.858 239.102 279.514 238.555 277.209 238.547C274.905 238.555 273.553 239.102 273.569 240.016ZM293.085 240.359C293.093 242.234 294.569 243.922 296.648 244.578L296.023 245.562C294.405 245.008 293.124 243.867 292.491 242.406C291.89 243.984 290.585 245.234 288.929 245.844L288.288 244.859C290.374 244.133 291.843 242.328 291.851 240.359V239.547H288.601V238.547H296.288V239.547H293.085V240.359ZM290.585 250.969V246.609H291.804V249.938H299.991V250.969H290.585ZM298.335 247.578V237.391H299.554V247.578H298.335ZM313.39 237.375V246.172H312.218V242.188H310.359V245.672H309.202V237.656H310.359V241.172H312.218V237.375H313.39ZM301.515 240.031V239.047H304.484V237.484H305.702V239.047H308.64V240.031H301.515ZM302.124 243.156C302.117 241.703 303.343 240.773 305.093 240.781C306.851 240.773 308.07 241.703 308.077 243.156C308.07 244.586 306.851 245.516 305.093 245.516C303.343 245.516 302.117 244.586 302.124 243.156ZM303.218 243.156C303.218 244.008 303.984 244.594 305.093 244.594C306.202 244.594 306.968 244.008 306.968 243.156C306.968 242.273 306.202 241.688 305.093 241.688C303.984 241.688 303.218 242.273 303.218 243.156ZM304.14 248.844C304.124 247.281 305.867 246.406 308.796 246.406C311.718 246.406 313.46 247.281 313.468 248.844C313.46 250.367 311.718 251.234 308.796 251.234C305.867 251.234 304.124 250.367 304.14 248.844ZM305.359 248.844C305.343 249.742 306.632 250.289 308.796 250.281C310.952 250.289 312.234 249.742 312.249 248.844C312.234 247.891 310.952 247.359 308.796 247.375C306.632 247.359 305.343 247.891 305.359 248.844ZM326.898 237.391V246H325.726V242.234H323.914V245.781H322.742V237.609H323.914V241.219H325.726V237.391H326.898ZM315.023 239.984V238.969H317.992V237.438H319.211V238.969H322.148V239.984H315.023ZM315.633 243.062C315.625 241.602 316.851 240.688 318.601 240.688C320.359 240.688 321.578 241.602 321.586 243.062C321.578 244.484 320.359 245.438 318.601 245.438C316.851 245.438 315.625 244.484 315.633 243.062ZM315.992 250.172C317.734 249.578 318.812 248.156 318.82 246.891V246.391H320.023V246.891C320.008 248.078 320.656 249.32 321.968 250.031C323.289 249.25 323.961 247.906 323.976 246.891V246.391H325.179V246.891C325.172 248.242 326.226 249.625 328.008 250.172L327.429 251.109C326.031 250.625 325.047 249.68 324.562 248.547C324.14 249.641 323.297 250.695 321.992 251.219C320.656 250.719 319.804 249.734 319.383 248.609C318.875 249.688 317.914 250.625 316.586 251.109L315.992 250.172ZM316.726 243.062C316.726 243.938 317.492 244.508 318.601 244.516C319.711 244.508 320.476 243.938 320.476 243.062C320.476 242.164 319.711 241.602 318.601 241.609C317.492 241.602 316.726 242.164 316.726 243.062ZM339.359 237.375V242.875H341.688V243.906H339.359V251.297H338.141V237.375H339.359ZM329.219 247.812V238.734H335.703V239.75H330.438V246.781C332.953 246.773 334.727 246.664 336.797 246.281L336.953 247.344C334.773 247.734 332.953 247.812 330.312 247.812H329.219ZM353.258 238.781V240.172C353.242 241.875 353.242 243.781 352.742 246.578L351.492 246.438C352.016 243.781 352.016 241.836 352.024 240.172V239.797H343.461V238.781H353.258ZM342.117 249.297V248.281H347.086V243.312H348.289V248.281H354.774V249.297H342.117ZM359.821 250L359.806 248.969L363.665 244.906C365.001 243.484 365.642 242.719 365.649 241.672C365.642 240.508 364.673 239.758 363.399 239.75C362.048 239.758 361.204 240.609 361.196 241.875H359.868C359.853 239.875 361.399 238.531 363.446 238.531C365.501 238.531 366.954 239.914 366.962 241.672C366.954 242.938 366.368 243.922 364.368 245.984L361.774 248.656V248.75H367.165V250H359.821ZM372.658 238.531C374.603 238.555 376.767 239.727 376.767 243.891C376.767 247.914 375.118 250.156 372.47 250.156C370.478 250.156 369.079 248.938 368.798 247.141H370.189C370.439 248.156 371.212 248.906 372.47 248.906C374.314 248.906 375.439 247.312 375.454 244.562H375.298C374.65 245.5 373.611 246.062 372.408 246.062C370.384 246.062 368.704 244.508 368.704 242.328C368.704 240.219 370.251 238.508 372.658 238.531ZM370.079 242.312C370.072 243.711 371.134 244.828 372.611 244.828C374.087 244.828 375.236 243.609 375.236 242.281C375.236 240.984 374.15 239.766 372.658 239.766C371.181 239.766 370.064 240.914 370.079 242.312ZM381.822 237.891C383.9 237.898 385.408 239.164 385.416 240.969C385.408 242.781 383.9 244.031 381.822 244.031C379.72 244.031 378.205 242.781 378.212 240.969C378.205 239.164 379.72 237.898 381.822 237.891ZM379.416 240.969C379.4 242.188 380.423 243.031 381.822 243.031C383.197 243.031 384.228 242.188 384.228 240.969C384.228 239.766 383.197 238.914 381.822 238.922C380.423 238.914 379.4 239.766 379.416 240.969ZM380.322 246.172V245.188H389.353V248.531H381.556V250.094H389.853V251.078H380.353V247.609H388.134V246.172H380.322ZM388.134 244.516V237.375H389.353V244.516H388.134ZM396.885 238.047V240.094H400.932V238.047H402.151V244.156H395.682V238.047H396.885ZM396.51 246.516V245.562H401.057V248.719H397.729V250.172C399.674 250.156 400.713 250.117 401.979 249.859L402.119 250.797C400.705 251.07 399.612 251.117 397.354 251.109H396.541V247.812H399.869V246.516H396.51ZM396.885 243.172H400.932V241.031H396.885V243.172ZM401.666 246.547V245.562H405.948V251.219H404.729V246.547H401.666ZM404.729 244.797V237.375H405.948V240.438H408.041V241.484H405.948V244.797H404.729ZM420.128 237.375V246.188H418.893V244.438H416.456V243.406H418.893V241.75H416.471V240.734H418.893V237.375H420.128ZM408.612 239.844V238.844H411.987V237.25H413.206V238.844H416.471V239.844H408.612ZM409.409 250.172C411.135 249.602 412.221 248.18 412.237 246.922V246.453H413.409V246.922C413.401 248.094 414.073 249.336 415.385 250.039C416.682 249.281 417.37 247.93 417.378 246.922V246.453H418.581V246.922C418.573 248.266 419.635 249.633 421.424 250.172L420.815 251.094C419.432 250.625 418.448 249.688 417.971 248.562C417.542 249.648 416.698 250.68 415.393 251.203C414.049 250.711 413.206 249.727 412.799 248.602C412.299 249.68 411.323 250.609 409.987 251.094L409.409 250.172ZM409.44 243.078C409.424 241.547 410.706 240.531 412.581 240.531C414.44 240.531 415.745 241.547 415.753 243.078C415.745 244.641 414.44 245.672 412.581 245.672C410.706 245.672 409.424 244.641 409.44 243.078ZM410.581 243.078C410.573 244.062 411.37 244.719 412.581 244.734C413.776 244.719 414.596 244.062 414.612 243.078C414.596 242.125 413.776 241.484 412.581 241.484C411.37 241.484 410.573 242.125 410.581 243.078ZM432.854 237.375V242.875H435.182V243.906H432.854V251.297H431.636V237.375H432.854ZM422.714 247.812V238.734H429.198V239.75H423.932V246.781C426.448 246.773 428.222 246.664 430.292 246.281L430.448 247.344C428.268 247.734 426.448 247.812 423.807 247.812H422.714ZM437.081 250.094C436.534 250.086 436.066 249.633 436.081 249.078C436.066 248.531 436.534 248.078 437.081 248.078C437.636 248.078 438.089 248.531 438.081 249.078C438.089 249.633 437.636 250.086 437.081 250.094Z" fill="black"/>
<path d="M61.0625 294L61.0469 292.969L64.9062 288.906C66.2422 287.484 66.8828 286.719 66.8906 285.672C66.8828 284.508 65.9141 283.758 64.6406 283.75C63.2891 283.758 62.4453 284.609 62.4375 285.875H61.1094C61.0938 283.875 62.6406 282.531 64.6875 282.531C66.7422 282.531 68.1953 283.914 68.2031 285.672C68.1953 286.938 67.6094 287.922 65.6094 289.984L63.0156 292.656V292.75H68.4062V294H61.0625ZM73.8363 294.156C71.3284 294.156 69.8753 292.047 69.8831 288.344C69.8753 284.672 71.3441 282.531 73.8363 282.531C76.3206 282.531 77.7894 284.672 77.7894 288.344C77.7894 292.047 76.3441 294.156 73.8363 294.156ZM71.2425 288.344C71.2503 291.273 72.1956 292.906 73.8363 292.906C75.4691 292.906 76.4222 291.273 76.4144 288.344C76.4222 285.414 75.4613 283.758 73.8363 283.75C72.2113 283.758 71.2503 285.414 71.2425 288.344ZM79.3444 294L79.3288 292.969L83.1881 288.906C84.5241 287.484 85.1647 286.719 85.1725 285.672C85.1647 284.508 84.1959 283.758 82.9225 283.75C81.5709 283.758 80.7272 284.609 80.7194 285.875H79.3913C79.3756 283.875 80.9225 282.531 82.9694 282.531C85.0241 282.531 86.4772 283.914 86.485 285.672C86.4772 286.938 85.8913 287.922 83.8913 289.984L81.2975 292.656V292.75H86.6881V294H79.3444ZM92.1025 294.156C90.0634 294.156 88.5166 292.898 88.4306 291.156H89.79C89.8916 292.164 90.8759 292.914 92.1025 292.922C93.5713 292.914 94.6338 291.844 94.6338 290.422C94.6338 288.953 93.5322 287.867 92.0088 287.859C91.0556 287.844 90.3134 288.141 89.8994 288.875H88.54L89.3369 282.688H95.4619V283.938H90.5088L90.0869 287.25H90.1963C90.7041 286.859 91.4619 286.594 92.2588 286.594C94.415 286.594 96.0009 288.188 96.0088 290.391C96.0009 292.578 94.3603 294.156 92.1025 294.156ZM98.1888 294.094C97.6419 294.086 97.1731 293.633 97.1888 293.078C97.1731 292.531 97.6419 292.078 98.1888 292.078C98.7434 292.078 99.1966 292.531 99.1888 293.078C99.1966 293.633 98.7434 294.086 98.1888 294.094ZM104.259 294.156C101.752 294.156 100.298 292.047 100.306 288.344C100.298 284.672 101.767 282.531 104.259 282.531C106.744 282.531 108.213 284.672 108.213 288.344C108.213 292.047 106.767 294.156 104.259 294.156ZM101.666 288.344C101.673 291.273 102.619 292.906 104.259 292.906C105.892 292.906 106.845 291.273 106.838 288.344C106.845 285.414 105.884 283.758 104.259 283.75C102.634 283.758 101.673 285.414 101.666 288.344ZM113.549 294.156C111.166 294.156 109.525 292.836 109.533 291C109.525 289.539 110.541 288.328 111.83 288.125V288.062C110.705 287.805 109.963 286.766 109.971 285.531C109.963 283.805 111.478 282.531 113.549 282.531C115.611 282.531 117.127 283.805 117.143 285.531C117.127 286.766 116.377 287.805 115.268 288.062V288.125C116.549 288.328 117.564 289.539 117.58 291C117.564 292.836 115.908 294.156 113.549 294.156ZM110.939 290.922C110.916 292.109 111.924 292.914 113.549 292.922C115.166 292.914 116.174 292.109 116.174 290.922C116.174 289.672 115.072 288.75 113.549 288.75C112.033 288.75 110.916 289.672 110.939 290.922ZM111.33 285.641C111.338 286.781 112.252 287.555 113.549 287.562C114.838 287.555 115.768 286.781 115.768 285.641C115.768 284.508 114.869 283.742 113.549 283.75C112.205 283.742 111.338 284.508 111.33 285.641ZM119.76 294.094C119.213 294.086 118.744 293.633 118.76 293.078C118.744 292.531 119.213 292.078 119.76 292.078C120.315 292.078 120.768 292.531 120.76 293.078C120.768 293.633 120.315 294.086 119.76 294.094ZM122.534 294L122.518 292.969L126.377 288.906C127.713 287.484 128.354 286.719 128.362 285.672C128.354 284.508 127.385 283.758 126.112 283.75C124.76 283.758 123.917 284.609 123.909 285.875H122.581C122.565 283.875 124.112 282.531 126.159 282.531C128.213 282.531 129.667 283.914 129.674 285.672C129.667 286.938 129.081 287.922 127.081 289.984L124.487 292.656V292.75H129.877V294H122.534ZM135.37 282.531C137.315 282.555 139.479 283.727 139.479 287.891C139.479 291.914 137.831 294.156 135.183 294.156C133.19 294.156 131.792 292.938 131.511 291.141H132.901C133.151 292.156 133.925 292.906 135.183 292.906C137.026 292.906 138.151 291.312 138.167 288.562H138.011C137.362 289.5 136.323 290.062 135.12 290.062C133.097 290.062 131.417 288.508 131.417 286.328C131.417 284.219 132.964 282.508 135.37 282.531ZM132.792 286.312C132.784 287.711 133.847 288.828 135.323 288.828C136.8 288.828 137.948 287.609 137.948 286.281C137.948 284.984 136.862 283.766 135.37 283.766C133.893 283.766 132.776 284.914 132.792 286.312Z" fill="#999999"/>
</svg>
