<svg width="686" height="41" viewBox="0 0 686 41" fill="none" xmlns="http://www.w3.org/2000/svg">
<path d="M12.7188 8.09375V9.125H6.92188V14.0156H5.71875V9.125H0V8.09375H12.7188ZM1.4375 3.75C1.44531 1.86719 3.40625 0.695312 6.32812 0.6875C9.24219 0.695312 11.2188 1.86719 11.2188 3.75C11.2188 5.60156 9.24219 6.77344 6.32812 6.76562C3.40625 6.77344 1.44531 5.60156 1.4375 3.75ZM2.70312 3.75C2.6875 4.98438 4.16406 5.78125 6.32812 5.78125C8.49219 5.78125 9.96094 4.98438 9.96875 3.75C9.96094 2.49219 8.49219 1.6875 6.32812 1.6875C4.16406 1.6875 2.6875 2.49219 2.70312 3.75ZM24.9925 0.125V14.0469H23.7738V0.125H24.9925ZM14.305 2.4375V1.42188H20.7738V6.35938H15.5863V9.64062C17.8909 9.64844 19.9456 9.53906 22.43 9.14062L22.555 10.1719C20.0003 10.5703 17.8909 10.6719 15.4925 10.6719H14.3363V5.35938H19.5394V2.4375H14.305ZM38.2663 4.34375V5.32812H28.7506V0.640625H29.9694V4.34375H38.2663ZM27.0163 8.21875V7.21875H39.735V8.21875H27.0163ZM28.6725 13.6719V9.64062H29.8913V12.6562H38.3444V13.6719H28.6725ZM56.8919 6V7H51.1575V8.375H55.2669V11.4844H47.0169V12.8906H55.6888V13.8594H45.7981V10.5625H54.0638V9.32812H45.7669V8.375H49.9388V7H44.2356V6H56.8919ZM45.8763 4.82812V0.59375H55.2513V4.82812H45.8763ZM47.095 3.84375H54.0325V1.57812H47.095V3.84375ZM65.4469 1.67188V2.39062C65.4391 3.49219 65.4391 5.32812 65.0406 7.90625L63.8063 7.79688C64.1891 5.46875 64.2203 3.78125 64.2125 2.67188H58.3844V1.67188H65.4469ZM57.6031 9.9375C58.5172 9.92969 59.5328 9.92188 60.6031 9.89844V5.64062H61.8063V9.85938C63.3453 9.80469 64.9234 9.70312 66.3688 9.53125L66.4313 10.4531C63.5094 10.9062 60.2438 10.9688 57.7594 10.9531L57.6031 9.9375ZM67.2438 14.0156V0.125H68.4625V5.9375H70.7125V7H68.4625V14.0156H67.2438ZM81.2288 8.90625C84.2053 8.90625 86.0959 9.84375 86.1038 11.4531C86.0959 13.0469 84.2053 13.9844 81.2288 13.9844C78.2522 13.9844 76.3616 13.0469 76.3694 11.4531C76.3616 9.84375 78.2522 8.90625 81.2288 8.90625ZM74.9631 7.60938V6.60938H80.1975V3.92188H81.4006V6.60938H87.6038V7.60938H74.9631ZM76.4631 1.84375V0.84375H85.9944V2.01562C85.9866 3.14062 85.9866 4.26562 85.6038 5.70312L84.4006 5.5625C84.7756 4.13281 84.7756 3.10156 84.7756 2.01562V1.84375H76.4631ZM77.5881 11.4531C77.5803 12.4219 79.0178 13.0156 81.2288 13.0156C83.4475 13.0156 84.8694 12.4219 84.885 11.4531C84.8694 10.4609 83.4475 9.85156 81.2288 9.84375C79.0178 9.85156 77.5803 10.4609 77.5881 11.4531ZM99.94 0.125V14.0156H98.7056V0.125H99.94ZM88.6275 10.4062C92.3853 8.625 94.3072 5.96094 94.5806 2.64062H89.2681V1.64062H95.8306C95.815 5.63281 93.9556 9.17188 89.2994 11.4062L88.6275 10.4062ZM118.363 7.10938V8.125H105.659V7.10938H111.378V4.96875H112.581V7.10938H118.363ZM106.425 4.73438C108.878 4.39844 111.363 2.85156 111.363 1V0.34375H112.597V1C112.597 2.85156 115.097 4.39844 117.55 4.73438L117.05 5.71875C114.948 5.35156 112.855 4.23438 111.988 2.63281C111.113 4.25 109.027 5.35156 106.894 5.71875L106.425 4.73438ZM107.066 10.4688V9.48438H116.753V14.0156H115.519V10.4688H107.066ZM135.582 11.2188V12.2344H122.863V11.2188H128.582V8.21875H124.363V1.10938H125.598V3.625H132.816V1.10938H134.019V8.21875H129.785V11.2188H135.582ZM125.598 7.21875H132.816V4.625H125.598V7.21875ZM147.824 0.125V14.0469H146.59V0.125H147.824ZM136.887 6.04688C136.895 3.09375 138.363 1.21094 140.434 1.20312C142.496 1.21094 143.988 3.09375 143.981 6.04688C143.988 9.00781 142.496 10.8828 140.434 10.875C138.363 10.8828 136.895 9.00781 136.887 6.04688ZM138.074 6.04688C138.074 8.30469 139.043 9.78906 140.434 9.78125C141.832 9.78906 142.793 8.30469 142.793 6.04688C142.793 3.78906 141.832 2.30469 140.434 2.29688C139.043 2.30469 138.074 3.78906 138.074 6.04688ZM154.848 4.39062C154.856 6.75 156.567 9.14844 158.614 10.0312L157.926 11C156.301 10.2656 154.903 8.66406 154.254 6.74219C153.606 8.78125 152.2 10.5469 150.614 11.3438L149.879 10.375C151.872 9.42188 153.606 6.79688 153.614 4.39062V2.57812H150.333V1.5625H158.161V2.57812H154.848V4.39062ZM160.098 14.0156V0.125H161.333V14.0156H160.098ZM170.958 0.921875C173.036 0.929688 174.568 2.25 174.568 4.125C174.568 6.02344 173.036 7.33594 170.958 7.34375C168.888 7.33594 167.341 6.02344 167.349 4.125C167.341 2.25 168.888 0.929688 170.958 0.921875ZM168.552 4.125C168.544 5.39844 169.591 6.32812 170.958 6.32812C172.333 6.32812 173.372 5.39844 173.364 4.125C173.372 2.875 172.333 1.95312 170.958 1.95312C169.591 1.95312 168.544 2.875 168.552 4.125ZM168.568 13.6406V8.57812H169.755V12.6328C170.56 12.6016 171.63 12.4844 172.614 12.1562L172.802 13.1406C171.45 13.5859 170.13 13.6484 169.224 13.6406H168.568ZM172.318 9.59375V8.64062H175.239V7.40625H176.443V8.64062H179.333V9.59375H172.318ZM173.239 12.0312C173.232 10.8281 174.286 10.0625 175.818 10.0625C177.341 10.0625 178.411 10.8281 178.427 12.0312C178.411 13.2344 177.341 13.9844 175.818 13.9844C174.286 13.9844 173.232 13.2344 173.239 12.0312ZM174.333 12.0312C174.333 12.6875 174.95 13.1016 175.818 13.1094C176.685 13.1016 177.302 12.6875 177.302 12.0312C177.302 11.3906 176.685 10.9609 175.818 10.9531C174.95 10.9609 174.333 11.3906 174.333 12.0312ZM176.724 7.07812V0.125H177.943V3.26562H180.036V4.28125H177.943V7.07812H176.724ZM191.826 4.34375V5.32812H182.31V0.640625H183.529V4.34375H191.826ZM180.576 8.21875V7.21875H193.294V8.21875H180.576ZM182.232 13.6719V9.64062H183.451V12.6562H191.904V13.6719H182.232ZM209.311 0.140625V10.4219H208.076V6.6875H204.795V8.04688H198.498V1.0625H199.717V3.53125H203.592V1.0625H204.795V2.6875H208.076V0.140625H209.311ZM199.717 7.03125H203.592V4.5H199.717V7.03125ZM200.326 13.7188V9.40625H201.561V12.6875H209.623V13.7188H200.326ZM204.795 5.67188H208.076V3.71875H204.795V5.67188ZM222.084 0.125V6.04688H224.303V7.07812H222.084V14.0156H220.85V0.125H222.084ZM211.131 10.3125C212.264 10.3125 213.584 10.3047 214.959 10.2656V8.73438C213.342 8.54688 212.288 7.59375 212.303 6.21875C212.288 4.64844 213.616 3.63281 215.584 3.64062C217.522 3.63281 218.873 4.64844 218.881 6.21875C218.873 7.60156 217.803 8.54688 216.194 8.73438V10.2188C217.483 10.1562 218.795 10.0469 220.006 9.875L220.084 10.8125C217.053 11.3281 213.772 11.3594 211.334 11.3594L211.131 10.3125ZM211.381 2.82812V1.82812H214.959V0.15625H216.194V1.82812H219.756V2.82812H211.381ZM213.444 6.21875C213.452 7.17969 214.295 7.8125 215.584 7.79688C216.85 7.8125 217.702 7.17969 217.709 6.21875C217.702 5.25 216.85 4.59375 215.584 4.59375C214.295 4.59375 213.452 5.25 213.444 6.21875ZM237.514 6.57812V7.54688H224.796V6.57812H237.514ZM226.327 9.57812V8.65625H235.921V11.6094H227.577V12.9375H236.374V13.8281H226.342V10.7656H234.702V9.57812H226.327ZM226.405 1.4375V0.546875H235.874V3.42188H227.671V4.64062H236.124V5.53125H226.452V2.57812H234.639V1.4375H226.405ZM249.718 1.67188V2.39062C249.71 3.49219 249.71 5.32812 249.312 7.90625L248.077 7.79688C248.46 5.46875 248.492 3.78125 248.484 2.67188H242.656V1.67188H249.718ZM241.874 9.9375C242.788 9.92969 243.804 9.92188 244.874 9.89844V5.64062H246.077V9.85938C247.617 9.80469 249.195 9.70312 250.64 9.53125L250.702 10.4531C247.781 10.9062 244.515 10.9688 242.031 10.9531L241.874 9.9375ZM251.515 14.0156V0.125H252.734V5.9375H254.984V7H252.734V14.0156H251.515ZM263.836 1.625V2.625H255.554V1.625H259.086V0.0625H260.304V1.625H263.836ZM256.351 5.85938C256.343 4.32812 257.687 3.35938 259.695 3.34375C261.687 3.35938 263.023 4.32812 263.039 5.85938C263.023 7.36719 261.687 8.35156 259.695 8.35938C257.687 8.35156 256.343 7.36719 256.351 5.85938ZM257.289 10.5781V9.57812H266.383V14.0156H265.164V10.5781H257.289ZM257.523 5.85938C257.515 6.78125 258.383 7.38281 259.695 7.375C260.992 7.38281 261.867 6.78125 261.883 5.85938C261.867 4.91406 260.992 4.30469 259.695 4.29688C258.383 4.30469 257.515 4.91406 257.523 5.85938ZM265.164 8.8125V0.125H266.383V3.98438H268.476V5.01562H266.383V8.8125H265.164ZM273.859 2.6875C273.859 4.49219 275.25 6.21875 277.281 6.92188L276.641 7.89062C275.078 7.32812 273.867 6.16406 273.273 4.73438C272.672 6.32812 271.383 7.60938 269.734 8.21875L269.094 7.25C271.141 6.51562 272.625 4.66406 272.625 2.70312V2.09375H269.484V1.09375H276.969V2.09375H273.859V2.6875ZM271.203 10.2031V9.1875H280.547V14.0156H279.312V10.2031H271.203ZM276.531 4.79688V3.76562H279.312V0.125H280.547V8.45312H279.312V4.79688H276.531ZM288.867 1.03125C291.766 1.03906 293.946 2.55469 293.946 4.84375C293.946 7.15625 291.766 8.67188 288.867 8.65625C285.969 8.67188 283.789 7.15625 283.789 4.84375C283.789 2.55469 285.969 1.03906 288.867 1.03125ZM282.539 12.1719V11.1406H295.258V12.1719H282.539ZM284.961 4.84375C284.946 6.53125 286.625 7.65625 288.867 7.65625C291.094 7.65625 292.758 6.53125 292.758 4.84375C292.758 3.17969 291.094 2.02344 288.867 2.03125C286.625 2.02344 284.946 3.17969 284.961 4.84375ZM308.766 11.2656V12.2969H296.047V11.2656H301.766V8.64062H297.641V4.35938H305.954V2.17188H297.61V1.15625H307.157V5.35938H298.86V7.625H307.485V8.64062H302.969V11.2656H308.766ZM325.954 7.48438V8.48438H320.298V11.2031H319.079V8.48438H313.236V7.48438H325.954ZM314.861 13.7188V9.92188H316.079V12.6875H324.533V13.7188H314.861ZM314.939 6.125V0.578125H316.158V2.35938H323.033V0.578125H324.251V6.125H314.939ZM316.158 5.125H323.033V3.29688H316.158V5.125ZM331.494 2.35938C331.486 4.27344 332.916 6.03906 334.931 6.73438L334.259 7.71875C332.72 7.14844 331.509 5.96875 330.916 4.48438C330.33 6.125 329.08 7.40625 327.447 8.04688L326.775 7.03125C328.884 6.28906 330.275 4.45312 330.291 2.3125V0.84375H331.494V2.35938ZM328.931 10.0938V9.10938H338.275V14.0156H337.041V10.0938H328.931ZM333.947 4.07812V3.04688H337.041V0.125H338.275V8.34375H337.041V4.07812H333.947ZM351.017 0.125V5.85938H353.346V6.875H351.017V14.0156H349.799V0.125H351.017ZM340.189 3.375V2.35938H343.767V0.296875H344.986V2.35938H348.455V3.375H340.189ZM340.986 7.71875C340.978 5.84375 342.416 4.53125 344.392 4.53125C346.353 4.53125 347.783 5.84375 347.799 7.71875C347.783 9.60156 346.353 10.9062 344.392 10.9062C342.416 10.9062 340.978 9.60156 340.986 7.71875ZM342.158 7.71875C342.15 8.98438 343.096 9.875 344.392 9.85938C345.674 9.875 346.611 8.98438 346.627 7.71875C346.611 6.46094 345.674 5.55469 344.392 5.5625C343.096 5.55469 342.15 6.46094 342.158 7.71875ZM364.916 1.53125V2.92188C364.901 4.625 364.901 6.53125 364.401 9.32812L363.151 9.1875C363.674 6.53125 363.674 4.58594 363.682 2.92188V2.54688H355.119V1.53125H364.916ZM353.776 12.0469V11.0312H358.744V6.0625H359.948V11.0312H366.432V12.0469H353.776ZM378.151 1.03125C378.143 4.51562 375.651 7.01562 371.651 8.15625L371.136 7.1875C374.456 6.25 376.581 4.40625 376.847 2.04688H371.854V1.03125H378.151ZM373.479 13.8281V8.65625H382.495V13.8281H373.479ZM374.667 12.8281H381.276V9.64062H374.667V12.8281ZM378.182 4.75V3.71875H381.261V0.140625H382.495V8.0625H381.261V4.75H378.182ZM397.144 6.73438V7.75H384.487V6.73438H397.144ZM385.206 4.92188C387.628 4.64062 389.964 3.44531 390.019 1.85938H385.644V0.84375H396.019V1.85938H391.612C391.667 3.42969 393.98 4.64062 396.441 4.92188L395.987 5.90625C393.714 5.61719 391.581 4.59375 390.816 3.05469C390.05 4.59375 387.933 5.61719 385.644 5.90625L385.206 4.92188ZM386.019 11.4844C386.011 9.89062 387.816 8.96875 390.816 8.96875C393.792 8.96875 395.581 9.89062 395.597 11.4844C395.581 13.0938 393.792 13.9844 390.816 13.9844C387.816 13.9844 386.011 13.0938 386.019 11.4844ZM387.269 11.4844C387.253 12.4531 388.589 13.0078 390.816 13C393.019 13.0078 394.355 12.4531 394.362 11.4844C394.355 10.5078 393.019 9.95312 390.816 9.9375C388.589 9.95312 387.253 10.5078 387.269 11.4844ZM408.855 0.125V3.6875H410.949V4.73438H408.855V8.20312H407.636V0.125H408.855ZM398.027 2.57812V1.5625H401.558V0H402.777V1.5625H406.308V2.57812H398.027ZM398.824 5.65625C398.816 4.17188 400.152 3.22656 402.168 3.21875C404.16 3.22656 405.496 4.17188 405.511 5.65625C405.496 7.14062 404.16 8.10156 402.168 8.09375C400.152 8.10156 398.816 7.14062 398.824 5.65625ZM399.996 5.65625C399.988 6.5625 400.855 7.15625 402.168 7.15625C403.464 7.15625 404.339 6.5625 404.355 5.65625C404.339 4.75781 403.464 4.15625 402.168 4.17188C400.855 4.15625 399.988 4.75781 399.996 5.65625ZM400.074 13.8281V8.8125H401.293V10.2969H407.636V8.8125H408.855V13.8281H400.074ZM401.293 12.8438H407.636V11.2656H401.293V12.8438ZM422.957 0.125V14.0156H421.738V0.125H422.957ZM412.41 10.4375V1.5H413.613V9.375C415.738 9.35938 417.926 9.19531 420.254 8.70312L420.426 9.75C417.957 10.2656 415.762 10.4375 413.535 10.4375H412.41ZM435.762 0.125V5.625H438.09V6.65625H435.762V14.0469H434.543V0.125H435.762ZM425.621 10.5625V1.48438H432.106V2.5H426.84V9.53125C429.356 9.52344 431.129 9.41406 433.199 9.03125L433.356 10.0938C431.176 10.4844 429.356 10.5625 426.715 10.5625H425.621ZM439.989 12.8438C439.442 12.8359 438.973 12.3828 438.989 11.8281C438.973 11.2812 439.442 10.8281 439.989 10.8281C440.543 10.8281 440.997 11.2812 440.989 11.8281C440.997 12.3828 440.543 12.8359 439.989 12.8438ZM6.29688 34.9062C9.27344 34.9062 11.1641 35.8438 11.1719 37.4531C11.1641 39.0469 9.27344 39.9844 6.29688 39.9844C3.32031 39.9844 1.42969 39.0469 1.4375 37.4531C1.42969 35.8438 3.32031 34.9062 6.29688 34.9062ZM0.03125 33.6094V32.6094H5.26562V29.9219H6.46875V32.6094H12.6719V33.6094H0.03125ZM1.53125 27.8438V26.8438H11.0625V28.0156C11.0547 29.1406 11.0547 30.2656 10.6719 31.7031L9.46875 31.5625C9.84375 30.1328 9.84375 29.1016 9.84375 28.0156V27.8438H1.53125ZM2.65625 37.4531C2.64844 38.4219 4.08594 39.0156 6.29688 39.0156C8.51562 39.0156 9.9375 38.4219 9.95312 37.4531C9.9375 36.4609 8.51562 35.8516 6.29688 35.8438C4.08594 35.8516 2.64844 36.4609 2.65625 37.4531ZM24.9925 26.1406V36.2969H23.7738V26.1406H24.9925ZM13.8519 30.5156C13.8441 28.5156 15.4144 27.1172 17.4925 27.1094C19.5706 27.1172 21.1253 28.5156 21.1331 30.5156C21.1253 32.5391 19.5706 33.9453 17.4925 33.9375C15.4144 33.9453 13.8441 32.5391 13.8519 30.5156ZM15.055 30.5156C15.0394 31.8984 16.0863 32.8594 17.4925 32.8594C18.8753 32.8594 19.93 31.8984 19.93 30.5156C19.93 29.1562 18.8753 28.1875 17.4925 28.1875C16.0863 28.1875 15.0394 29.1562 15.055 30.5156ZM16.0238 39.7188V35.2656H17.2425V38.6875H25.43V39.7188H16.0238ZM35.665 29.8594C35.6572 32.3984 37.3838 34.9453 39.4306 35.875L38.6806 36.8438C37.0947 36.0781 35.7275 34.4297 35.0634 32.4531C34.4228 34.5469 33.0556 36.3047 31.4306 37.125L30.6494 36.0938C32.7197 35.1484 34.4306 32.4922 34.4463 29.8594V27.3281H35.665V29.8594ZM40.9463 40.0469V26.125H42.1806V40.0469H40.9463ZM55.7513 26.125V34.5469H54.5169V31.375H52.1575V30.3594H54.5169V26.125H55.7513ZM44.2513 28.5938V27.5938H47.7044V26H48.9075V27.5938H52.3606V28.5938H44.2513ZM45.0794 31.7812C45.0794 30.3281 46.4153 29.3125 48.2981 29.3125C50.1888 29.3125 51.5169 30.3281 51.5325 31.7812C51.5169 33.2812 50.1888 34.2656 48.2981 34.2656C46.4153 34.2656 45.0794 33.2812 45.0794 31.7812ZM46.2513 31.7812C46.2513 32.7031 47.0872 33.3125 48.2981 33.3281C49.5091 33.3125 50.345 32.7031 50.345 31.7812C50.345 30.8906 49.5091 30.2656 48.2981 30.2656C47.0872 30.2656 46.2513 30.8906 46.2513 31.7812ZM46.6731 39.8281V35.2969H55.7513V39.8281H46.6731ZM47.8919 38.8281H54.5481V36.2812H47.8919V38.8281ZM69.2281 26.125V40.0156H67.9938V26.125H69.2281ZM57.9156 36.4062C61.6734 34.625 63.5953 31.9609 63.8688 28.6406H58.5563V27.6406H65.1188C65.1031 31.6328 63.2438 35.1719 58.5875 37.4062L57.9156 36.4062ZM78.955 27.2031V27.9375C78.9472 28.8516 78.9472 30.2344 78.5956 32.0469L77.3613 31.9531C77.6972 30.2969 77.7284 29.1172 77.7441 28.2344H72.0331V27.2031H78.955ZM71.1738 33.3438C72.0722 33.3438 73.0878 33.3359 74.1581 33.3047V30.2812H75.3769V33.2656C76.9159 33.2031 78.5097 33.0938 79.955 32.8906L80.0331 33.7969C77.1191 34.2969 73.7753 34.3516 71.2988 34.3594L71.1738 33.3438ZM73.3144 39.7188V35.6406H74.5488V38.6875H82.5956V39.7188H73.3144ZM80.8925 36.5781V26.125H82.1425V30.6562H84.1738V31.7031H82.1425V36.5781H80.8925ZM91.0881 27.0312C93.9866 27.0391 96.1663 28.5547 96.1663 30.8438C96.1663 33.1562 93.9866 34.6719 91.0881 34.6562C88.1897 34.6719 86.01 33.1562 86.01 30.8438C86.01 28.5547 88.1897 27.0391 91.0881 27.0312ZM84.76 38.1719V37.1406H97.4788V38.1719H84.76ZM87.1819 30.8438C87.1663 32.5312 88.8459 33.6562 91.0881 33.6562C93.3147 33.6562 94.9788 32.5312 94.9788 30.8438C94.9788 29.1797 93.3147 28.0234 91.0881 28.0312C88.8459 28.0234 87.1663 29.1797 87.1819 30.8438ZM110.987 37.2656V38.2969H98.2681V37.2656H103.987V34.6406H99.8619V30.3594H108.174V28.1719H99.8306V27.1562H109.378V31.3594H101.081V33.625H109.706V34.6406H105.19V37.2656H110.987ZM116.667 29.8594C116.659 32.375 118.276 34.9062 120.292 35.8281L119.558 36.8281C117.979 36.0156 116.675 34.3594 116.058 32.3828C115.44 34.4609 114.136 36.2422 112.558 37.0781L111.761 36.0938C113.8 35.0938 115.409 32.4219 115.417 29.8594V27.3281H116.667V29.8594ZM118.776 31.875V30.875H122.073V26.125H123.292V40.0469H122.073V31.875H118.776ZM133.042 30.4062C133.05 32.6406 134.183 34.9297 136.074 35.9375L135.371 36.8594C133.988 36.1016 132.988 34.6641 132.48 32.9922C131.988 34.7734 130.996 36.3359 129.605 37.1719L128.871 36.2344C130.761 35.1406 131.878 32.7031 131.886 30.4062V29.7188H129.246V28.7031H131.886V26.6406H133.058V28.7031H135.652V29.7188H133.042V30.4062ZM134.699 32.6562V31.6094H136.886V26.4688H138.042V39.2969H136.886V32.6562H134.699ZM139.683 40.0156V26.125H140.855V40.0156H139.683ZM154.379 26.125V40.0156H153.207V26.125H154.379ZM142.473 36.125C145.496 34.3359 147.012 31.8281 147.254 28.9219H143.098V27.9062H148.473C148.473 28.6172 148.41 29.3203 148.285 30H150.394V26.5H151.566V39.3125H150.394V34.5H147.816V33.4844H150.394V31.0156H148.043C147.371 33.3672 145.848 35.4453 143.223 37.0156L142.473 36.125ZM160.824 28.6875C160.824 30.4922 162.215 32.2188 164.246 32.9219L163.606 33.8906C162.043 33.3281 160.832 32.1641 160.238 30.7344C159.637 32.3281 158.348 33.6094 156.699 34.2188L156.059 33.25C158.106 32.5156 159.59 30.6641 159.59 28.7031V28.0938H156.449V27.0938H163.934V28.0938H160.824V28.6875ZM158.168 36.2031V35.1875H167.512V40.0156H166.277V36.2031H158.168ZM163.496 30.7969V29.7656H166.277V26.125H167.512V34.4531H166.277V30.7969H163.496ZM180.973 26.1406V36.2969H179.754V26.1406H180.973ZM169.833 30.5156C169.825 28.5156 171.395 27.1172 173.473 27.1094C175.551 27.1172 177.106 28.5156 177.114 30.5156C177.106 32.5391 175.551 33.9453 173.473 33.9375C171.395 33.9453 169.825 32.5391 169.833 30.5156ZM171.036 30.5156C171.02 31.8984 172.067 32.8594 173.473 32.8594C174.856 32.8594 175.911 31.8984 175.911 30.5156C175.911 29.1562 174.856 28.1875 173.473 28.1875C172.067 28.1875 171.02 29.1562 171.036 30.5156ZM172.004 39.7188V35.2656H173.223V38.6875H181.411V39.7188H172.004ZM199.411 33.4844V34.4844H193.755V37.2031H192.536V34.4844H186.693V33.4844H199.411ZM188.318 39.7188V35.9219H189.536V38.6875H197.989V39.7188H188.318ZM188.396 32.125V26.5781H189.614V28.3594H196.489V26.5781H197.708V32.125H188.396ZM189.614 31.125H196.489V29.2969H189.614V31.125ZM204.951 28.3594C204.943 30.2734 206.372 32.0391 208.388 32.7344L207.716 33.7188C206.177 33.1484 204.966 31.9688 204.372 30.4844C203.787 32.125 202.537 33.4062 200.904 34.0469L200.232 33.0312C202.341 32.2891 203.732 30.4531 203.747 28.3125V26.8438H204.951V28.3594ZM202.388 36.0938V35.1094H211.732V40.0156H210.497V36.0938H202.388ZM207.404 30.0781V29.0469H210.497V26.125H211.732V34.3438H210.497V30.0781H207.404ZM222.357 29.8594C222.35 32.3984 224.076 34.9453 226.123 35.875L225.373 36.8438C223.787 36.0781 222.42 34.4297 221.756 32.4531C221.115 34.5469 219.748 36.3047 218.123 37.125L217.342 36.0938C219.412 35.1484 221.123 32.4922 221.139 29.8594V27.3281H222.357V29.8594ZM227.639 40.0469V26.125H228.873V40.0469H227.639ZM237.85 28.1719C237.858 30.5547 240.577 32.6719 242.991 33.125L242.428 34.1562C240.327 33.6719 238.123 32.1797 237.225 30.1406C236.319 32.1797 234.123 33.6641 232.022 34.1562L231.459 33.125C233.866 32.6641 236.561 30.5625 236.569 28.1719V27.1094H237.85V28.1719ZM230.928 38.125V37.1094H243.647V38.125H230.928ZM250.389 27.0312V28.0625H246.264V29.7812H249.811V30.75H246.264V32.6406C248.28 32.6328 249.522 32.5547 251.014 32.2812L251.139 33.2656C249.53 33.5703 248.217 33.6328 245.967 33.6406H245.092V27.0312H250.389ZM247.061 39.8281V35.1406H256.233V39.8281H247.061ZM248.264 38.8281H255.03V36.1406H248.264V38.8281ZM250.467 30.6406V29.625H252.342V26.375H253.53V34.375H252.342V30.6406H250.467ZM255.061 34.5V26.125H256.233V34.5H255.061ZM265.647 27.6719V28.3906C265.64 29.4922 265.64 31.3281 265.241 33.9062L264.007 33.7969C264.39 31.4688 264.421 29.7812 264.413 28.6719H258.585V27.6719H265.647ZM257.804 35.9375C258.718 35.9297 259.733 35.9219 260.804 35.8984V31.6406H262.007V35.8594C263.546 35.8047 265.124 35.7031 266.569 35.5312L266.632 36.4531C263.71 36.9062 260.444 36.9688 257.96 36.9531L257.804 35.9375ZM267.444 40.0156V26.125H268.663V31.9375H270.913V33H268.663V40.0156H267.444ZM286.195 26.8125V27.8125C286.195 28.8438 286.195 30.0938 285.851 31.7656H287.867V32.7656H282.086V35.3281H286.289V40.0156H285.054V36.3438H276.461V35.3281H280.867V32.7656H275.148V31.7656H284.617C284.984 30.0703 284.984 28.8438 284.976 27.8125H276.758V26.8125H286.195ZM300.531 26.125V40.0156H299.359V26.125H300.531ZM288.484 36.3125C290.422 35.1562 291.555 32.6172 291.547 30.0938V28.7812H288.875V27.7656H295.281V28.7812H292.734V30.0938C292.734 32.4922 293.82 34.8906 295.734 36L294.984 36.9062C293.617 36.0859 292.648 34.5859 292.164 32.8203C291.664 34.7344 290.656 36.3672 289.266 37.2344L288.484 36.3125ZM294.219 32.1406V31.1406H296.562V26.4688H297.719V39.2969H296.562V32.1406H294.219ZM317.344 26.125V40.0156H316.11V26.125H317.344ZM306.032 36.4062C309.79 34.625 311.712 31.9609 311.985 28.6406H306.672V27.6406H313.235C313.219 31.6328 311.36 35.1719 306.704 37.4062L306.032 36.4062ZM326.493 27.8594C326.485 29.5703 328.813 30.9609 331.274 31.2969L330.79 32.2656C328.548 31.9375 326.446 30.8203 325.696 29.1953C324.938 30.8203 322.853 31.9375 320.603 32.2656L320.149 31.2969C322.595 30.9609 324.907 29.5703 324.899 27.8594V27.8281H320.524V26.8281H330.899V27.8281H326.493V27.8594ZM319.353 34.2969V33.2812H332.071V34.2969H326.415V37.1406H325.196V34.2969H319.353ZM320.978 39.7188V35.75H322.212V38.6875H330.649V39.7188H320.978ZM344.783 26.125V40.0156H343.595V26.125H344.783ZM333.048 32.125C333.056 29.1719 334.228 27.3047 336.033 27.2969C337.72 27.3047 338.861 28.9297 339.017 31.5469H340.814V26.4219H341.986V39.3125H340.814V32.5625H339.025C338.908 35.2656 337.743 36.9609 336.033 36.9531C334.228 36.9609 333.056 35.0781 333.048 32.125ZM334.204 32.125C334.189 34.375 334.908 35.7969 336.033 35.7812C337.165 35.7969 337.884 34.375 337.876 32.125C337.884 29.8672 337.165 28.4531 336.033 28.4531C334.908 28.4531 334.189 29.8672 334.204 32.125ZM361.064 26.1094V31.5938H363.096V32.6406H361.064V40.0156H359.846V26.1094H361.064ZM350.502 36.375V27.5938H354.033V28.6094H351.721V35.3359C352.408 35.3125 353.252 35.25 354.174 35.0469L354.299 36.0781C352.986 36.3516 351.939 36.375 351.111 36.375H350.502ZM354.83 36.375V27.5938H358.533V28.6094H356.049V35.3438C357.135 35.3281 358.002 35.2656 358.986 35.0156L359.111 36.0469C357.892 36.3438 356.908 36.375 355.502 36.375H354.83ZM376.291 33.8281V34.8438H363.573V33.8281H376.291ZM365.182 27.5938V26.6094H374.651V30.0312H366.448V31.5781H374.948V32.5469H365.229V29.1094H373.416V27.5938H365.182ZM365.26 39.7188V35.9375H366.494V38.6875H374.948V39.7188H365.26ZM387.964 27.0312C387.956 30.5156 385.464 33.0156 381.464 34.1562L380.948 33.1875C384.268 32.25 386.393 30.4062 386.659 28.0469H381.667V27.0312H387.964ZM383.292 39.8281V34.6562H392.307V39.8281H383.292ZM384.479 38.8281H391.089V35.6406H384.479V38.8281ZM387.995 30.75V29.7188H391.073V26.1406H392.307V34.0625H391.073V30.75H387.995ZM406.956 32.7344V33.75H394.3V32.7344H406.956ZM395.019 30.9219C397.441 30.6406 399.777 29.4453 399.831 27.8594H395.456V26.8438H405.831V27.8594H401.425C401.48 29.4297 403.792 30.6406 406.253 30.9219L405.8 31.9062C403.527 31.6172 401.394 30.5938 400.628 29.0547C399.862 30.5938 397.745 31.6172 395.456 31.9062L395.019 30.9219ZM395.831 37.4844C395.823 35.8906 397.628 34.9688 400.628 34.9688C403.605 34.9688 405.394 35.8906 405.409 37.4844C405.394 39.0938 403.605 39.9844 400.628 39.9844C397.628 39.9844 395.823 39.0938 395.831 37.4844ZM397.081 37.4844C397.066 38.4531 398.402 39.0078 400.628 39C402.831 39.0078 404.167 38.4531 404.175 37.4844C404.167 36.5078 402.831 35.9531 400.628 35.9375C398.402 35.9531 397.066 36.5078 397.081 37.4844ZM424.223 37.1875V38.2344H411.504V37.1875H424.223ZM412.629 28.5469V27.5312H423.004V28.5469H420.801V33.4062H422.973V34.4062H412.66V33.4062H414.832V28.5469H412.629ZM416.051 33.4062H419.598V28.5469H416.051V33.4062ZM437.731 37.2656V38.2969H425.012V37.2656H430.731V34.6406H426.606V30.3594H434.918V28.1719H426.574V27.1562H436.121V31.3594H427.824V33.625H436.449V34.6406H431.934V37.2656H437.731ZM442.645 30.0781C442.645 32.2891 443.723 34.6719 445.567 35.7656L444.864 36.7188C443.52 35.9062 442.559 34.4219 442.075 32.7266C441.567 34.5781 440.536 36.1719 439.145 37.0156L438.364 36.0938C440.286 34.9688 441.457 32.5078 441.457 30.125V27.4375H442.645V30.0781ZM444.036 32.1562V31.1094H446.395V26.4219H447.551V39.3125H446.395V32.1562H444.036ZM449.239 40.0156V26.125H450.426V40.0156H449.239ZM458.95 28.1719C458.958 30.5547 461.677 32.6719 464.091 33.125L463.528 34.1562C461.427 33.6719 459.223 32.1797 458.325 30.1406C457.419 32.1797 455.223 33.6641 453.122 34.1562L452.559 33.125C454.966 32.6641 457.661 30.5625 457.669 28.1719V27.1094H458.95V28.1719ZM452.028 38.125V37.1094H464.747V38.125H452.028ZM478.255 37.2656V38.2969H465.536V37.2656H471.255V34.6406H467.13V30.3594H475.443V28.1719H467.099V27.1562H476.646V31.3594H468.349V33.625H476.974V34.6406H472.458V37.2656H478.255ZM486.881 28.8906C486.888 30.4297 487.959 31.9844 489.74 32.6562L489.099 33.5938C487.763 33.0781 486.802 32.0859 486.302 30.8906C485.795 32.2109 484.795 33.3906 483.427 33.9844L482.756 33.0312C484.584 32.2344 485.701 30.4375 485.709 28.8906V27H486.881V28.8906ZM485.287 37.5156C485.271 35.9453 487.052 35.0234 489.943 35.0312C492.818 35.0234 494.607 35.9453 494.615 37.5156C494.607 39.0703 492.818 39.9844 489.943 39.9844C487.052 39.9844 485.271 39.0703 485.287 37.5156ZM486.506 37.5156C486.49 38.4609 487.81 39.0391 489.943 39.0312C492.052 39.0391 493.381 38.4609 493.396 37.5156C493.381 36.5547 492.052 35.9766 489.943 35.9688C487.81 35.9766 486.49 36.5547 486.506 37.5156ZM490.365 34.2812V26.4062H491.521V29.875H493.365V26.1406H494.537V34.7188H493.365V30.8906H491.521V34.2812H490.365ZM507.092 26.125V29.6875H509.17V30.7344H507.092V34.3281H505.858V26.125H507.092ZM496.186 33.0781C497.295 33.0781 498.592 33.0781 499.951 33.0391V32.1797C498.318 32.0469 497.287 31.3984 497.295 30.3438C497.287 29.2031 498.568 28.5391 500.545 28.5469C502.522 28.5391 503.795 29.2031 503.811 30.3438C503.795 31.3906 502.787 32.0391 501.17 32.1797V32.9922C502.467 32.9297 503.779 32.8281 504.998 32.6562L505.108 33.4844C502.108 33.9766 498.772 34 496.326 34L496.186 33.0781ZM496.529 28.0781V27.1875H499.951V26H501.17V27.1875H504.576V28.0781H496.529ZM498.045 35.8281V34.9531H507.092V37.75H499.295V38.9844H507.623V39.8594H498.076V36.9219H505.873V35.8281H498.045ZM498.467 30.3438C498.459 30.9688 499.264 31.3672 500.545 31.375C501.826 31.3672 502.639 30.9688 502.639 30.3438C502.639 29.7344 501.826 29.3672 500.545 29.3594C499.264 29.3672 498.459 29.7344 498.467 30.3438ZM520.6 26.125V31H522.678V32.0312H520.6V37H519.366V26.125H520.6ZM509.694 34.3906C510.795 34.3906 512.1 34.375 513.459 34.3281V33.2656C511.842 33.1172 510.795 32.3438 510.803 31.1719C510.795 29.8359 512.1 29.0234 514.053 29.0312C516.022 29.0234 517.303 29.8359 517.319 31.1719C517.303 32.3359 516.288 33.1094 514.678 33.2656V34.2734C515.975 34.1953 517.295 34.0781 518.506 33.8906L518.616 34.7656C515.639 35.3281 512.264 35.3672 509.834 35.3906L509.694 34.3906ZM510.038 28.4219V27.5H513.459V26.0938H514.678V27.5H518.084V28.4219H510.038ZM511.772 39.7188V36.2656H513.006V38.6875H521.1V39.7188H511.772ZM511.975 31.1719C511.967 31.9297 512.772 32.4219 514.053 32.4219C515.334 32.4219 516.147 31.9297 516.147 31.1719C516.147 30.3828 515.334 29.8984 514.053 29.9062C512.772 29.8984 511.967 30.3828 511.975 31.1719ZM534.78 26.1406V34.4844H533.546V32.6094H529.858V31.5938H533.546V29.7188H529.999C529.085 31.9531 526.944 33.5703 523.968 34.4531L523.452 33.4844C526.803 32.4922 528.905 30.6094 529.147 28.2031H524.155V27.1719H530.483C530.483 27.7188 530.421 28.2422 530.303 28.7344H533.546V26.1406H534.78ZM525.593 37.2812C525.585 35.625 527.389 34.625 530.233 34.625C533.046 34.625 534.858 35.625 534.858 37.2812C534.858 38.9453 533.046 39.9531 530.233 39.9531C527.389 39.9531 525.585 38.9453 525.593 37.2812ZM526.796 37.2812C526.803 38.3281 528.139 38.9609 530.233 38.9531C532.296 38.9609 533.632 38.3281 533.639 37.2812C533.632 36.2344 532.296 35.6016 530.233 35.6094C528.139 35.6016 526.803 36.2344 526.796 37.2812ZM541.319 27.1406C543.499 27.1484 545.046 28.4766 545.054 30.4062C545.046 32.3438 543.499 33.6641 541.319 33.6719C539.124 33.6641 537.562 32.3438 537.569 30.4062C537.562 28.4766 539.124 27.1484 541.319 27.1406ZM536.851 35.9375C539.413 35.9453 542.952 35.9219 546.023 35.4688L546.116 36.375C542.937 36.9688 539.523 36.9844 537.023 36.9844L536.851 35.9375ZM538.773 30.4062C538.765 31.7031 539.835 32.5938 541.319 32.5938C542.788 32.5938 543.858 31.7031 543.851 30.4062C543.858 29.1172 542.788 28.2188 541.319 28.2188C539.835 28.2188 538.765 29.1172 538.773 30.4062ZM546.944 40.0469V26.125H548.163V40.0469H546.944ZM565.445 26.1406V36.3281H564.226V26.1406H565.445ZM554.117 33.3594C556.218 32.5391 557.648 30.5078 557.648 28.3125V26.9219H558.898V28.3125C558.883 30.4297 560.328 32.3281 562.398 33.0781L561.758 34.0625C560.148 33.4453 558.898 32.1953 558.281 30.5938C557.679 32.2969 556.414 33.6641 554.789 34.3125L554.117 33.3594ZM556.476 39.7188V35.3906H557.695V38.6875H565.883V39.7188H556.476ZM575.578 27.4219V31.0781H569.812V32.8438H575.969V33.8281H572.75V36.1562C574.102 36.1016 575.461 36.0078 576.734 35.8594L576.828 36.7812C573.75 37.25 570.391 37.3125 567.734 37.2969L567.562 36.25C568.781 36.25 570.141 36.2422 571.531 36.2031V33.8281H568.594V30.1562H574.375V28.4219H568.562V27.4219H575.578ZM577.656 40.0469V26.125H578.875V40.0469H577.656ZM596.172 26.125V40.0156H594.938V26.125H596.172ZM584.86 36.4062C588.618 34.625 590.54 31.9609 590.813 28.6406H585.501V27.6406H592.063C592.047 31.6328 590.188 35.1719 585.532 37.4062L584.86 36.4062ZM605.321 27.8594C605.313 29.5703 607.642 30.9609 610.102 31.2969L609.618 32.2656C607.376 31.9375 605.274 30.8203 604.524 29.1953C603.767 30.8203 601.681 31.9375 599.431 32.2656L598.977 31.2969C601.423 30.9609 603.735 29.5703 603.727 27.8594V27.8281H599.352V26.8281H609.727V27.8281H605.321V27.8594ZM598.181 34.2969V33.2812H610.899V34.2969H605.243V37.1406H604.024V34.2969H598.181ZM599.806 39.7188V35.75H601.04V38.6875H609.477V39.7188H599.806ZM618.032 26.375C621.118 26.375 622.931 27.2266 622.939 28.7656C622.931 30.3438 621.118 31.1953 618.032 31.2031C614.931 31.1953 613.111 30.3438 613.111 28.7656C613.111 27.2266 614.931 26.375 618.032 26.375ZM611.704 33.1406V32.1406H624.361V33.1406H611.704ZM613.236 35.2812V34.3438H622.736V37.4531H614.486V38.8906H623.157V39.8594H613.267V36.5469H621.532V35.2812H613.236ZM614.392 28.7656C614.376 29.7344 615.728 30.2656 618.032 30.2656C620.337 30.2656 621.681 29.7344 621.689 28.7656C621.681 27.8516 620.337 27.3047 618.032 27.2969C615.728 27.3047 614.376 27.8516 614.392 28.7656ZM635.924 27.3906V33.7812H629.502V27.3906H635.924ZM630.705 32.7969H634.736V28.3906H630.705V32.7969ZM631.08 39.7188V35.3438H632.283V38.6875H640.408V39.7188H631.08ZM638.549 36.3125V26.125H639.768V30.3594H641.861V31.3906H639.768V36.3125H638.549ZM655.088 32.4219V33.4375H642.416V32.4219H655.088ZM644.026 31V26.5625H653.51V27.5938H645.244V29.9844H653.635V31H644.026ZM644.073 39.7969V34.5156H645.291V36.0625H652.213V34.5156H653.463V39.7969H644.073ZM645.291 38.7969H652.213V37.0469H645.291V38.7969ZM667.378 26.125V40.0156H666.159V26.125H667.378ZM656.831 36.4375V27.5H658.034V35.375C660.159 35.3594 662.346 35.1953 664.674 34.7031L664.846 35.75C662.378 36.2656 660.182 36.4375 657.956 36.4375H656.831ZM680.182 26.125V31.625H682.511V32.6562H680.182V40.0469H678.964V26.125H680.182ZM670.042 36.5625V27.4844H676.526V28.5H671.261V35.5312C673.776 35.5234 675.55 35.4141 677.62 35.0312L677.776 36.0938C675.597 36.4844 673.776 36.5625 671.136 36.5625H670.042ZM684.409 38.8438C683.862 38.8359 683.394 38.3828 683.409 37.8281C683.394 37.2812 683.862 36.8281 684.409 36.8281C684.964 36.8281 685.417 37.2812 685.409 37.8281C685.417 38.3828 684.964 38.8359 684.409 38.8438Z" fill="black"/>
</svg>
