<svg width="506" height="42" viewBox="0 0 506 42" fill="none" xmlns="http://www.w3.org/2000/svg">
<path d="M11.1094 1.42188V2.76562C11.0938 4.45312 11.1094 6.35938 10.5312 9.1875L9.32812 9.04688C9.59375 7.78906 9.73438 6.6875 9.8125 5.71094L1.32812 6.21875L1.125 5.14062L9.86719 4.78125C9.89844 4.04688 9.90625 3.39062 9.90625 2.76562V2.4375H1.53125V1.42188H11.1094ZM0 12.0625V11.0156H4.96875V7.42188H6.17188V11.0156H12.6562V12.0625H0ZM17.0394 0.953125C18.805 0.960938 20.0706 2 20.0863 3.53125C20.0706 5.05469 18.805 6.09375 17.0394 6.07812C15.2738 6.09375 13.9925 5.05469 14.0081 3.53125C13.9925 2 15.2738 0.960938 17.0394 0.953125ZM13.3206 7.15625C15.2425 7.16406 18.3519 7.14844 20.6175 6.78125L20.7113 7.71875C19.7269 7.91406 18.6331 8.03125 17.555 8.09375V12.8125H16.3988V8.15625C15.3206 8.19531 14.305 8.20312 13.4925 8.20312L13.3206 7.15625ZM15.1175 3.53125C15.1097 4.47656 15.9066 5.14844 17.0394 5.15625C18.1722 5.14844 18.9769 4.47656 18.9769 3.53125C18.9769 2.57812 18.1722 1.89062 17.0394 1.90625C15.9066 1.89062 15.1097 2.57812 15.1175 3.53125ZM18.8831 10.1406V9.17188H21.5238V0.375H22.68V13.2188H21.5238V10.1406H18.8831ZM24.1644 13.9531V0.0625H25.3363V13.9531H24.1644ZM38.4694 0.0625V13.9844H37.235V0.0625H38.4694ZM27.5319 5.98438C27.5397 3.03125 29.0084 1.14844 31.0788 1.14062C33.1413 1.14844 34.6334 3.03125 34.6256 5.98438C34.6334 8.94531 33.1413 10.8203 31.0788 10.8125C29.0084 10.8203 27.5397 8.94531 27.5319 5.98438ZM28.7194 5.98438C28.7194 8.24219 29.6881 9.72656 31.0788 9.71875C32.4772 9.72656 33.4381 8.24219 33.4381 5.98438C33.4381 3.72656 32.4772 2.24219 31.0788 2.23438C29.6881 2.24219 28.7194 3.72656 28.7194 5.98438ZM51.7588 4.28125V5.26562H42.2431V0.578125H43.4619V4.28125H51.7588ZM40.5088 8.15625V7.15625H53.2275V8.15625H40.5088ZM42.165 13.6094V9.57812H43.3838V12.5938H51.8369V13.6094H42.165ZM69.2438 0.078125V10.2656H68.0094V4.9375H65.15V3.92188H68.0094V0.078125H69.2438ZM57.7906 7.48438C59.8375 6.76562 61.3219 4.92969 61.3219 2.9375V2.21875H58.1813V1.20312H65.6656V2.21875H62.5563V2.9375C62.5563 4.73438 63.9469 6.47656 65.9781 7.17188L65.3375 8.15625C63.775 7.58594 62.5641 6.42188 61.9625 4.98438C61.3609 6.59375 60.0797 7.86719 58.4313 8.48438L57.7906 7.48438ZM60.3219 13.6562V9.34375H61.5563V12.625H69.6344V13.6562H60.3219ZM79.0569 4.01562C79.0569 6.22656 80.135 8.60938 81.9788 9.70312L81.2756 10.6562C79.9319 9.84375 78.9709 8.35938 78.4866 6.66406C77.9788 8.51562 76.9475 10.1094 75.5569 10.9531L74.7756 10.0312C76.6975 8.90625 77.8694 6.44531 77.8694 4.0625V1.375H79.0569V4.01562ZM80.4475 6.09375V5.04688H82.8069V0.359375H83.9631V13.25H82.8069V6.09375H80.4475ZM85.6506 13.9531V0.0625H86.8381V13.9531H85.6506ZM100.331 0.0625V13.9531H99.1588V0.0625H100.331ZM88.4244 10.0625C91.4478 8.27344 92.9634 5.76562 93.2056 2.85938H89.0494V1.84375H94.4244C94.4244 2.55469 94.3619 3.25781 94.2369 3.9375H96.3463V0.4375H97.5181V13.25H96.3463V8.4375H93.7681V7.42188H96.3463V4.95312H93.9947C93.3228 7.30469 91.7994 9.38281 89.1744 10.9531L88.4244 10.0625ZM116.394 0.0625V5.5625H118.722V6.59375H116.394V13.9844H115.175V0.0625H116.394ZM106.253 10.5V1.42188H112.738V2.4375H107.472V9.46875C109.988 9.46094 111.761 9.35156 113.831 8.96875L113.988 10.0312C111.808 10.4219 109.988 10.5 107.347 10.5H106.253ZM132.074 2.17188V3.1875H130.011V5.125H132.074V6.15625H130.011V8.3125H128.793V0.0625H130.011V2.17188H132.074ZM119.418 4.17188C119.41 2.23438 120.957 0.898438 123.058 0.90625C125.175 0.898438 126.699 2.23438 126.714 4.17188C126.699 6.10156 125.175 7.42969 123.058 7.4375C120.957 7.42969 119.41 6.10156 119.418 4.17188ZM120.621 4.17188C120.613 5.48438 121.652 6.39062 123.058 6.40625C124.48 6.39062 125.503 5.48438 125.511 4.17188C125.503 2.86719 124.48 1.9375 123.058 1.95312C121.652 1.9375 120.613 2.86719 120.621 4.17188ZM120.949 11.3438C120.957 9.69531 122.722 8.74219 125.558 8.73438C128.394 8.74219 130.136 9.69531 130.136 11.3438C130.136 12.9609 128.394 13.9219 125.558 13.9219C122.722 13.9219 120.957 12.9609 120.949 11.3438ZM122.183 11.3438C122.168 12.3438 123.464 12.9297 125.558 12.9375C127.66 12.9297 128.941 12.3438 128.949 11.3438C128.941 10.3359 127.66 9.73438 125.558 9.73438C123.464 9.73438 122.168 10.3359 122.183 11.3438ZM143.519 0.078125V4.65625H145.613V5.6875H143.519V10.4844H142.301V0.078125H143.519ZM132.691 2.78125V1.78125H136.223V0.078125H137.441V1.78125H140.973V2.78125H132.691ZM133.488 6.14062C133.48 4.5625 134.824 3.54688 136.832 3.54688C138.816 3.54688 140.16 4.5625 140.176 6.14062C140.16 7.70312 138.816 8.71094 136.832 8.70312C134.824 8.71094 133.48 7.70312 133.488 6.14062ZM134.66 6.14062C134.652 7.11719 135.519 7.75 136.832 7.73438C138.129 7.75 139.004 7.11719 139.019 6.14062C139.004 5.14844 138.129 4.50781 136.832 4.51562C135.519 4.50781 134.652 5.14844 134.66 6.14062ZM134.832 13.6562V9.65625H136.035V12.625H144.16V13.6562H134.832ZM154.833 4.32812C154.84 6.6875 156.551 9.08594 158.598 9.96875L157.911 10.9375C156.286 10.2031 154.887 8.60156 154.239 6.67969C153.59 8.71875 152.184 10.4844 150.598 11.2812L149.864 10.3125C151.856 9.35938 153.59 6.73438 153.598 4.32812V2.51562H150.317V1.5H158.145V2.51562H154.833V4.32812ZM160.083 13.9531V0.0625H161.317V13.9531H160.083ZM174.887 9.01562V13.9531H173.653V10H165.544V9.01562H174.887ZM163.591 4.17188C163.583 2.23438 165.122 0.851562 167.2 0.859375C168.403 0.851562 169.427 1.32812 170.067 2.10938H173.653V0.0625H174.887V8.25H173.653V6.25H170.075C169.434 7.03906 168.411 7.50781 167.2 7.5C165.122 7.51562 163.583 6.14844 163.591 4.17188ZM164.762 4.17188C164.762 5.52344 165.778 6.46875 167.2 6.46875C168.567 6.46875 169.606 5.52344 169.606 4.17188C169.606 2.86719 168.567 1.90625 167.2 1.90625C165.778 1.90625 164.762 2.86719 164.762 4.17188ZM170.63 5.23438H173.653V3.125H170.622C170.731 3.45312 170.794 3.79688 170.794 4.17188C170.794 4.54688 170.731 4.90625 170.63 5.23438ZM181.427 1.07812C183.607 1.08594 185.153 2.41406 185.161 4.34375C185.153 6.28125 183.607 7.60156 181.427 7.60938C179.232 7.60156 177.669 6.28125 177.677 4.34375C177.669 2.41406 179.232 1.08594 181.427 1.07812ZM176.958 9.875C179.521 9.88281 183.06 9.85938 186.13 9.40625L186.224 10.3125C183.044 10.9062 179.63 10.9219 177.13 10.9219L176.958 9.875ZM178.88 4.34375C178.872 5.64062 179.943 6.53125 181.427 6.53125C182.896 6.53125 183.966 5.64062 183.958 4.34375C183.966 3.05469 182.896 2.15625 181.427 2.15625C179.943 2.15625 178.872 3.05469 178.88 4.34375ZM187.052 13.9844V0.0625H188.271V13.9844H187.052ZM206.74 5.9375V6.9375H201.006V8.3125H205.115V11.4219H196.865V12.8281H205.537V13.7969H195.646V10.5H203.912V9.26562H195.615V8.3125H199.787V6.9375H194.084V5.9375H206.74ZM195.724 4.76562V0.53125H205.099V4.76562H195.724ZM196.943 3.78125H203.881V1.51562H196.943V3.78125ZM213.92 0.3125C217.006 0.3125 218.818 1.16406 218.826 2.70312C218.818 4.28125 217.006 5.13281 213.92 5.14062C210.818 5.13281 208.998 4.28125 208.998 2.70312C208.998 1.16406 210.818 0.3125 213.92 0.3125ZM207.592 7.07812V6.07812H220.248V7.07812H207.592ZM209.123 9.21875V8.28125H218.623V11.3906H210.373V12.8281H219.045V13.7969H209.154V10.4844H217.42V9.21875H209.123ZM210.279 2.70312C210.264 3.67188 211.615 4.20312 213.92 4.20312C216.225 4.20312 217.568 3.67188 217.576 2.70312C217.568 1.78906 216.225 1.24219 213.92 1.23438C211.615 1.24219 210.264 1.78906 210.279 2.70312ZM236.311 0.078125V10.3438H235.077V6.59375H231.483C230.842 7.41406 229.811 7.90625 228.624 7.90625C226.546 7.90625 225.007 6.46875 225.014 4.4375C225.007 2.39844 226.546 0.960938 228.624 0.953125C229.803 0.960938 230.819 1.44531 231.467 2.25H235.077V0.078125H236.311ZM226.186 4.4375C226.186 5.82812 227.202 6.82031 228.624 6.8125C229.991 6.82031 231.03 5.82812 231.03 4.4375C231.03 3.05469 229.991 2.05469 228.624 2.04688C227.202 2.05469 226.186 3.05469 226.186 4.4375ZM227.389 13.6562V9.26562H228.624V12.625H236.702V13.6562H227.389ZM232.022 3.26562C232.147 3.625 232.217 4.01562 232.217 4.4375C232.217 4.84375 232.147 5.22656 232.03 5.57812H235.077V3.26562H232.022ZM249.288 0.96875V2.1875C249.288 3.5 249.288 4.94531 248.89 6.9375H250.96V7.95312H245.226V13.9844H243.991V7.95312H238.304V6.9375H247.648C248.069 4.9375 248.069 3.48438 248.069 2.1875V1.98438H239.898V0.96875H249.288ZM253.281 8.75C252.734 8.74219 252.265 8.28906 252.281 7.73438C252.265 7.1875 252.734 6.73438 253.281 6.73438C253.835 6.73438 254.288 7.1875 254.281 7.73438C254.288 8.28906 253.835 8.74219 253.281 8.75ZM268.258 7.42188V8.42188H262.601V11.1406H261.383V8.42188H255.539V7.42188H268.258ZM257.164 13.6562V9.85938H258.383V12.625H266.836V13.6562H257.164ZM257.242 6.0625V0.515625H258.461V2.29688H265.336V0.515625H266.554V6.0625H257.242ZM258.461 5.0625H265.336V3.23438H258.461V5.0625ZM273.797 2.29688C273.789 4.21094 275.219 5.97656 277.234 6.67188L276.562 7.65625C275.023 7.08594 273.812 5.90625 273.219 4.42188C272.633 6.0625 271.383 7.34375 269.75 7.98438L269.078 6.96875C271.188 6.22656 272.578 4.39062 272.594 2.25V0.78125H273.797V2.29688ZM271.234 10.0312V9.04688H280.578V13.9531H279.344V10.0312H271.234ZM276.25 4.01562V2.98438H279.344V0.0625H280.578V8.28125H279.344V4.01562H276.25ZM293.321 0.0625V5.79688H295.649V6.8125H293.321V13.9531H292.102V0.0625H293.321ZM282.492 3.3125V2.29688H286.071V0.234375H287.289V2.29688H290.758V3.3125H282.492ZM283.289 7.65625C283.282 5.78125 284.719 4.46875 286.696 4.46875C288.657 4.46875 290.086 5.78125 290.102 7.65625C290.086 9.53906 288.657 10.8438 286.696 10.8438C284.719 10.8438 283.282 9.53906 283.289 7.65625ZM284.461 7.65625C284.453 8.92188 285.399 9.8125 286.696 9.79688C287.977 9.8125 288.914 8.92188 288.93 7.65625C288.914 6.39844 287.977 5.49219 286.696 5.5C285.399 5.49219 284.453 6.39844 284.461 7.65625ZM299.813 1.14062C301.087 1.14844 302.126 1.89062 302.727 3.17188H306.376V0.0625H307.594V13.9844H306.376V8.59375H302.813C302.235 10 301.157 10.8203 299.813 10.8125C297.758 10.8203 296.321 8.94531 296.329 5.98438C296.321 3.03125 297.758 1.14844 299.813 1.14062ZM297.501 5.98438C297.508 8.24219 298.446 9.72656 299.813 9.71875C301.172 9.72656 302.126 8.24219 302.126 5.98438C302.126 3.72656 301.172 2.24219 299.813 2.23438C298.446 2.24219 297.508 3.72656 297.501 5.98438ZM303.079 4.20312C303.212 4.74219 303.282 5.33594 303.282 5.98438C303.282 6.55469 303.227 7.09375 303.126 7.57812H306.376V4.20312H303.079ZM325.939 7.0625V8.0625H320.204V9.65625H324.376V13.9062H323.142V10.6562H314.689V9.65625H319.001V8.0625H313.283V7.0625H325.939ZM314.033 5.34375C316.634 5.08594 318.837 4.00781 318.939 2.42188H314.595V1.4375H319.001V0H320.204V1.4375H324.658V2.42188H320.283C320.368 4.00781 322.564 5.08594 325.189 5.34375L324.783 6.28125C322.493 6.03906 320.447 5.20312 319.611 3.78906C318.759 5.20312 316.712 6.03906 314.439 6.28125L314.033 5.34375ZM331.619 2.625C331.619 4.42969 333.009 6.15625 335.041 6.85938L334.4 7.82812C332.837 7.26562 331.627 6.10156 331.033 4.67188C330.431 6.26562 329.142 7.54688 327.494 8.15625L326.853 7.1875C328.9 6.45312 330.384 4.60156 330.384 2.64062V2.03125H327.244V1.03125H334.728V2.03125H331.619V2.625ZM328.962 10.1406V9.125H338.306V13.9531H337.072V10.1406H328.962ZM334.291 4.73438V3.70312H337.072V0.0625H338.306V8.39062H337.072V4.73438H334.291ZM351.158 0.078125V4.65625H353.252V5.6875H351.158V10.4844H349.939V0.078125H351.158ZM340.33 2.78125V1.78125H343.861V0.078125H345.08V1.78125H348.611V2.78125H340.33ZM341.127 6.14062C341.119 4.5625 342.463 3.54688 344.471 3.54688C346.455 3.54688 347.799 4.5625 347.814 6.14062C347.799 7.70312 346.455 8.71094 344.471 8.70312C342.463 8.71094 341.119 7.70312 341.127 6.14062ZM342.299 6.14062C342.291 7.11719 343.158 7.75 344.471 7.73438C345.767 7.75 346.642 7.11719 346.658 6.14062C346.642 5.14844 345.767 4.50781 344.471 4.51562C343.158 4.50781 342.291 5.14844 342.299 6.14062ZM342.471 13.6562V9.65625H343.674V12.625H351.799V13.6562H342.471ZM369.393 0.0625V13.9531H368.206V0.0625H369.393ZM358.049 10.6094V1.78125H363.284V2.79688H359.237V9.57812C361.245 9.5625 362.51 9.49219 364.003 9.15625L364.128 10.2031C362.518 10.5312 361.159 10.6016 358.924 10.6094H358.049ZM362.346 6.40625V5.375H365.378V0.40625H366.549V13.2344H365.378V6.40625H362.346ZM382.464 0.0625V13.9844H381.229V0.0625H382.464ZM371.526 5.98438C371.534 3.03125 373.003 1.14844 375.073 1.14062C377.136 1.14844 378.628 3.03125 378.62 5.98438C378.628 8.94531 377.136 10.8203 375.073 10.8125C373.003 10.8203 371.534 8.94531 371.526 5.98438ZM372.714 5.98438C372.714 8.24219 373.682 9.72656 375.073 9.71875C376.472 9.72656 377.432 8.24219 377.432 5.98438C377.432 3.72656 376.472 2.24219 375.073 2.23438C373.682 2.24219 372.714 3.72656 372.714 5.98438ZM396.034 0.0625V13.9844H394.816V6.32812H391.878V5.3125H394.816V0.0625H396.034ZM385.159 10.625V1.34375H391.644V2.35938H386.394V5.25H391.034V6.25H386.394V9.60938C388.941 9.60156 390.581 9.53125 392.487 9.1875L392.628 10.2031C390.605 10.5312 388.909 10.625 386.222 10.625H385.159ZM410.73 6.51562V7.48438H398.011V6.51562H410.73ZM399.543 9.51562V8.59375H409.136V11.5469H400.793V12.875H409.589V13.7656H399.558V10.7031H407.918V9.51562H399.543ZM399.621 1.375V0.484375H409.089V3.35938H400.886V4.57812H409.339V5.46875H399.668V2.51562H407.855V1.375H399.621ZM426.715 0.0625V13.9531H425.481V0.0625H426.715ZM415.402 10.3438C419.16 8.5625 421.082 5.89844 421.356 2.57812H416.043V1.57812H422.606C422.59 5.57031 420.731 9.10938 416.074 11.3438L415.402 10.3438ZM439.598 0.078125V4.28125H441.692V5.3125H439.598V10.2812H438.379V0.078125H439.598ZM429.332 7.9375V1.07812H430.536V3.42188H434.582V1.07812H435.801V7.9375H429.332ZM430.536 6.9375H434.582V4.39062H430.536V6.9375ZM430.911 13.6562V9.28125H432.114V12.625H440.239V13.6562H430.911ZM448.575 0.96875C451.473 0.976562 453.653 2.49219 453.653 4.78125C453.653 7.09375 451.473 8.60938 448.575 8.59375C445.677 8.60938 443.497 7.09375 443.497 4.78125C443.497 2.49219 445.677 0.976562 448.575 0.96875ZM442.247 12.1094V11.0781H454.966V12.1094H442.247ZM444.669 4.78125C444.653 6.46875 446.333 7.59375 448.575 7.59375C450.802 7.59375 452.466 6.46875 452.466 4.78125C452.466 3.11719 450.802 1.96094 448.575 1.96875C446.333 1.96094 444.653 3.11719 444.669 4.78125ZM468.474 11.2031V12.2344H455.755V11.2031H461.474V8.57812H457.349V4.29688H465.661V2.10938H457.318V1.09375H466.864V5.29688H458.568V7.5625H467.193V8.57812H462.677V11.2031H468.474ZM4.96875 30.3281C4.97656 32.6875 6.6875 35.0859 8.73438 35.9688L8.04688 36.9375C6.42188 36.2031 5.02344 34.6016 4.375 32.6797C3.72656 34.7188 2.32031 36.4844 0.734375 37.2812L0 36.3125C1.99219 35.3594 3.72656 32.7344 3.73438 30.3281V28.5156H0.453125V27.5H8.28125V28.5156H4.96875V30.3281ZM10.2188 39.9531V26.0625H11.4531V39.9531H10.2188ZM25.0238 35.0156V39.9531H23.7894V36H15.68V35.0156H25.0238ZM13.7269 30.1719C13.7191 28.2344 15.2581 26.8516 17.3363 26.8594C18.5394 26.8516 19.5628 27.3281 20.2034 28.1094H23.7894V26.0625H25.0238V34.25H23.7894V32.25H20.2113C19.5706 33.0391 18.5472 33.5078 17.3363 33.5C15.2581 33.5156 13.7191 32.1484 13.7269 30.1719ZM14.8988 30.1719C14.8988 31.5234 15.9144 32.4688 17.3363 32.4688C18.7034 32.4688 19.7425 31.5234 19.7425 30.1719C19.7425 28.8672 18.7034 27.9062 17.3363 27.9062C15.9144 27.9062 14.8988 28.8672 14.8988 30.1719ZM20.7659 31.2344H23.7894V29.125H20.7581C20.8675 29.4531 20.93 29.7969 20.93 30.1719C20.93 30.5469 20.8675 30.9062 20.7659 31.2344ZM38.5163 26.0625V33.3281H37.2975V31.5469H34.0163V32.7656H27.7194V26.7188H28.9381V28.7188H32.8131V26.7188H34.0163V28.0625H37.2975V26.0625H38.5163ZM28.9381 31.7656H32.8131V29.6875H28.9381V31.7656ZM29.5163 34.9844V34H38.5163V37.2656H30.7663V38.7812H39.0475V39.7656H29.5475V36.3281H37.2975V34.9844H29.5163ZM34.0163 30.5781H37.2975V29.0156H34.0163V30.5781ZM51.1888 27.3594C51.1966 29.3203 53.7434 31.0078 56.2513 31.3594L55.7513 32.3594C53.595 32 51.4544 30.8047 50.5638 29.1016C49.6731 30.8203 47.5403 32 45.3763 32.3594L44.8763 31.3594C47.3841 31.0078 49.9231 29.3516 49.9231 27.3594V26.5625H51.1888V27.3594ZM44.22 34.9219V33.8906H56.8763V34.9219H51.1263V39.9531H49.9231V34.9219H44.22ZM69.1813 26.0625V33.2812H67.9781V26.0625H69.1813ZM57.9313 32.3281C60.0016 31.6406 61.4859 29.9375 61.4938 28.0312V27.875H58.2438V26.8594H65.9313V27.875H62.7281V28.0312C62.7359 29.8359 64.2125 31.4297 66.3063 32.0469L65.6969 33C64.0563 32.4844 62.7516 31.3828 62.1344 29.9609C61.5328 31.5156 60.2047 32.7266 58.5094 33.2969L57.9313 32.3281ZM60.1656 34.9219V33.9531H69.1969V37.2656H61.4V38.8125H69.6969V39.7969H60.1969V36.3438H67.9781V34.9219H60.1656ZM87.5881 33.4219V34.4062H74.9163V33.4219H87.5881ZM76.3381 36.75V35.7656H85.9475V39.9531H84.6975V36.75H76.3381ZM76.6038 32.0781V26.4375H86.01V27.4219H77.8381V28.75H85.635V29.7031H77.8381V31.125H86.0881V32.0781H76.6038ZM93.2213 28.25C93.2056 30.2344 94.6197 31.9766 96.6588 32.6719L95.9713 33.625C94.44 33.0547 93.2369 31.9219 92.6353 30.4609C92.0416 32.125 90.7759 33.4141 89.0963 34.0469L88.4244 33.0469C90.565 32.2969 91.9869 30.4531 92.0025 28.2969V26.8594H93.2213V28.25ZM90.69 37.3281C90.6822 35.6562 92.4556 34.6953 95.3463 34.7031C98.2291 34.6953 100.003 35.6562 100.003 37.3281C100.003 38.9844 98.2291 39.9219 95.3463 39.9219C92.4556 39.9219 90.6822 38.9844 90.69 37.3281ZM91.9088 37.3281C91.9009 38.3359 93.2134 38.9453 95.3463 38.9375C97.4713 38.9453 98.7838 38.3359 98.7838 37.3281C98.7838 36.2891 97.4713 35.6719 95.3463 35.6719C93.2134 35.6719 91.9009 36.2891 91.9088 37.3281ZM95.6275 30.0625V29.0469H98.7213V26.0625H99.9556V34.2969H98.7213V30.0625H95.6275ZM109.651 27.6094V28.3281C109.643 29.4297 109.643 31.2656 109.245 33.8438L108.011 33.7344C108.393 31.4062 108.425 29.7188 108.417 28.6094H102.589V27.6094H109.651ZM101.808 35.875C102.722 35.8672 103.737 35.8594 104.808 35.8359V31.5781H106.011V35.7969C107.55 35.7422 109.128 35.6406 110.573 35.4688L110.636 36.3906C107.714 36.8438 104.448 36.9062 101.964 36.8906L101.808 35.875ZM111.448 39.9531V26.0625H112.667V31.875H114.917V32.9375H112.667V39.9531H111.448ZM131.808 31.9375V32.9375H126.074V34.3125H130.183V37.4219H121.933V38.8281H130.605V39.7969H120.714V36.5H128.98V35.2656H120.683V34.3125H124.855V32.9375H119.152V31.9375H131.808ZM120.793 30.7656V26.5312H130.168V30.7656H120.793ZM122.011 29.7812H128.949V27.5156H122.011V29.7812ZM139.535 27.125V33.2969H133.254V27.125H139.535ZM134.004 38.9219C136.449 38.5078 138.691 37.0547 138.691 35.0469V34.625H139.91V35.0469C139.902 37.0547 142.152 38.5078 144.613 38.9219L144.113 39.8906C142.051 39.5078 140.144 38.4531 139.316 36.8516C138.465 38.4531 136.551 39.5078 134.488 39.8906L134.004 38.9219ZM134.457 32.2969H138.316V28.1406H134.457V32.2969ZM142.301 35.3125V26.0625H143.519V29.875H145.613V30.9062H143.519V35.3125H142.301ZM150.715 27.0781C152.895 27.0859 154.442 28.4141 154.449 30.3438C154.442 32.2812 152.895 33.6016 150.715 33.6094C148.52 33.6016 146.957 32.2812 146.965 30.3438C146.957 28.4141 148.52 27.0859 150.715 27.0781ZM146.246 35.875C148.809 35.8828 152.348 35.8594 155.418 35.4062L155.512 36.3125C152.332 36.9062 148.918 36.9219 146.418 36.9219L146.246 35.875ZM148.168 30.3438C148.16 31.6406 149.231 32.5312 150.715 32.5312C152.184 32.5312 153.254 31.6406 153.246 30.3438C153.254 29.0547 152.184 28.1562 150.715 28.1562C149.231 28.1562 148.16 29.0547 148.168 30.3438ZM156.34 39.9844V26.0625H157.559V39.9844H156.34ZM167.997 30.5938C168.005 32.8203 169.45 35.0938 171.466 36.0625L170.747 37.0156C169.216 36.2656 168.005 34.7422 167.427 32.9531C166.817 34.8906 165.528 36.5 163.95 37.2656L163.247 36.3125C165.286 35.3594 166.802 32.9844 166.809 30.5938V29.4844H163.622V28.4844H166.794V26.3281H168.028V28.4844H171.153V29.4844H167.997V30.5938ZM172.903 39.9531V26.0625H174.122V31.7656H176.45V32.8125H174.122V39.9531H172.903ZM188.333 26.0625V39.9844H187.099V26.0625H188.333ZM177.396 31.9844C177.403 29.0312 178.872 27.1484 180.943 27.1406C183.005 27.1484 184.497 29.0312 184.489 31.9844C184.497 34.9453 183.005 36.8203 180.943 36.8125C178.872 36.8203 177.403 34.9453 177.396 31.9844ZM178.583 31.9844C178.583 34.2422 179.552 35.7266 180.943 35.7188C182.341 35.7266 183.302 34.2422 183.302 31.9844C183.302 29.7266 182.341 28.2422 180.943 28.2344C179.552 28.2422 178.583 29.7266 178.583 31.9844ZM203.091 32.5156V33.4844H190.372V32.5156H203.091ZM191.904 35.5156V34.5938H201.497V37.5469H193.154V38.875H201.951V39.7656H191.919V36.7031H200.279V35.5156H191.904ZM191.982 27.375V26.4844H201.451V29.3594H193.247V30.5781H201.701V31.4688H192.029V28.5156H200.216V27.375H191.982ZM218.451 26.0781V30.6562H220.545V31.6875H218.451V36.4844H217.232V26.0781H218.451ZM207.623 28.7812V27.7812H211.154V26.0781H212.373V27.7812H215.904V28.7812H207.623ZM208.42 32.1406C208.412 30.5625 209.756 29.5469 211.764 29.5469C213.748 29.5469 215.092 30.5625 215.107 32.1406C215.092 33.7031 213.748 34.7109 211.764 34.7031C209.756 34.7109 208.412 33.7031 208.42 32.1406ZM209.592 32.1406C209.584 33.1172 210.451 33.75 211.764 33.7344C213.061 33.75 213.936 33.1172 213.951 32.1406C213.936 31.1484 213.061 30.5078 211.764 30.5156C210.451 30.5078 209.584 31.1484 209.592 32.1406ZM209.764 39.6562V35.6562H210.967V38.625H219.092V39.6562H209.764ZM232.334 30.2969V31.2969H222.85V26.5938H224.069V30.2969H232.334ZM221.1 33.9531V32.9375H233.772V33.9531H228.147V36.8281H226.928V33.9531H221.1ZM222.725 39.6562V35.5938H223.944V38.625H232.428V39.6562H222.725ZM246.514 26.0625V39.9531H245.327V26.0625H246.514ZM234.78 32.0625C234.788 29.1094 235.96 27.2422 237.764 27.2344C239.452 27.2422 240.592 28.8672 240.749 31.4844H242.546V26.3594H243.717V39.25H242.546V32.5H240.757C240.639 35.2031 239.475 36.8984 237.764 36.8906C235.96 36.8984 234.788 35.0156 234.78 32.0625ZM235.936 32.0625C235.921 34.3125 236.639 35.7344 237.764 35.7188C238.897 35.7344 239.616 34.3125 239.608 32.0625C239.616 29.8047 238.897 28.3906 237.764 28.3906C236.639 28.3906 235.921 29.8047 235.936 32.0625ZM263.265 26.0625V39.9844H262.031V26.0625H263.265ZM252.327 31.9844C252.335 29.0312 253.804 27.1484 255.874 27.1406C257.937 27.1484 259.429 29.0312 259.421 31.9844C259.429 34.9453 257.937 36.8203 255.874 36.8125C253.804 36.8203 252.335 34.9453 252.327 31.9844ZM253.515 31.9844C253.515 34.2422 254.484 35.7266 255.874 35.7188C257.273 35.7266 258.234 34.2422 258.234 31.9844C258.234 29.7266 257.273 28.2422 255.874 28.2344C254.484 28.2422 253.515 29.7266 253.515 31.9844ZM272.258 28.4688V29.4688H265.289V28.4688H268.179V26.4844H269.398V28.4688H272.258ZM265.789 33.5625C265.789 31.7188 267.047 30.4141 268.773 30.4062C270.523 30.4141 271.773 31.7188 271.789 33.5625C271.773 35.4297 270.523 36.7422 268.773 36.75C267.047 36.7422 265.789 35.4297 265.789 33.5625ZM266.883 33.5625C266.883 34.7969 267.672 35.6797 268.773 35.6719C269.883 35.6797 270.695 34.7969 270.695 33.5625C270.695 32.3438 269.883 31.4531 268.773 31.4375C267.672 31.4531 266.883 32.3438 266.883 33.5625ZM272.976 39.2656V26.4062H274.133V31.9219H275.976V26.0625H277.148V39.9531H275.976V32.9375H274.133V39.2656H272.976ZM289.688 26.0156V29.3906H291.797V30.4062H289.688V33.7031H288.469V26.0156H289.688ZM278.859 28.3125V27.3281H282.391V25.9219H283.609V27.3281H287.141V28.3125H278.859ZM279.656 31.2188C279.648 29.8125 280.977 28.9453 283 28.9375C285.016 28.9453 286.328 29.8125 286.344 31.2188C286.328 32.6328 285.016 33.4922 283 33.5C280.977 33.4922 279.648 32.6328 279.656 31.2188ZM280.828 35.3438V34.4219H289.688V37.5H282.062V38.8594H290.203V39.7969H280.859V36.5938H288.469V35.3438H280.828ZM280.828 31.2188C280.82 32.0547 281.68 32.5781 283 32.5781C284.312 32.5781 285.172 32.0547 285.188 31.2188C285.172 30.3906 284.312 29.8516 283 29.8438C281.68 29.8516 280.82 30.3906 280.828 31.2188ZM303.001 27.3594C303.008 29.3203 305.555 31.0078 308.063 31.3594L307.563 32.3594C305.407 32 303.266 30.8047 302.376 29.1016C301.485 30.8203 299.352 32 297.188 32.3594L296.688 31.3594C299.196 31.0078 301.735 29.3516 301.735 27.3594V26.5625H303.001V27.3594ZM296.032 34.9219V33.8906H308.688V34.9219H302.938V39.9531H301.735V34.9219H296.032ZM317.939 35.3906C317.931 36.6172 318.595 37.9219 319.915 38.6719C321.243 37.8516 321.947 36.4609 321.939 35.3906V34.625H323.142V35.3906C323.134 36.8203 324.189 38.2422 325.97 38.8594L325.361 39.7656C323.97 39.2734 323.001 38.3047 322.517 37.1406C322.087 38.2656 321.236 39.3359 319.954 39.875C318.603 39.3594 317.743 38.3438 317.329 37.1797C316.829 38.2969 315.876 39.2656 314.548 39.7656L313.923 38.8594C315.681 38.2031 316.736 36.7188 316.751 35.3906V34.625H317.939V35.3906ZM313.564 30.1406C313.556 28.2031 315.095 26.8828 317.204 26.8906C319.314 26.8828 320.837 28.2031 320.845 30.1406C320.837 32.0469 319.314 33.3594 317.204 33.3594C315.095 33.3594 313.556 32.0469 313.564 30.1406ZM314.767 30.1406C314.751 31.4297 315.775 32.3359 317.204 32.3438C318.618 32.3359 319.642 31.4297 319.642 30.1406C319.642 28.8438 318.618 27.9219 317.204 27.9375C315.775 27.9219 314.751 28.8438 314.767 30.1406ZM323.486 34.0156V26.0781H324.704V34.0156H323.486ZM337.978 30.2812V31.2656H328.462V26.5781H329.681V30.2812H337.978ZM326.728 34.1562V33.1562H339.447V34.1562H326.728ZM328.384 39.6094V35.5781H329.603V38.5938H338.056V39.6094H328.384ZM346.729 38.6875L343.635 27.375H345.057L347.416 36.5312H347.526L349.916 27.375H351.494L353.901 36.5312H353.994L356.354 27.375H357.776L354.682 38.6875H353.229L350.76 29.7344H350.666L348.182 38.6875H346.729ZM357.565 36.2812C357.565 34.3359 359.284 33.8906 360.753 33.7812C361.299 33.7422 362.667 33.6641 363.049 33.6562V32.9688C363.049 31.8906 362.409 31.2656 361.128 31.2656C360.057 31.2656 359.409 31.7578 359.221 32.4062H357.815C357.987 31.0391 359.315 30.0938 361.19 30.0938C362.299 30.0938 364.385 30.4219 364.378 33.0938V38.6875H363.049V37.5312H362.987C362.706 38.1016 361.932 38.8828 360.456 38.8906C358.846 38.8828 357.565 37.9375 357.565 36.2812ZM358.909 36.3438C358.917 37.2422 359.659 37.6953 360.69 37.6875C362.206 37.6953 363.049 36.6797 363.049 35.6094V34.7578C362.651 34.7812 361.315 34.8828 360.909 34.9062C359.69 34.9844 358.917 35.4141 358.909 36.3438ZM369.917 30.2031V31.3281H368.136V36.25C368.128 37.3359 368.675 37.5156 369.245 37.5156C369.487 37.5156 369.847 37.4922 370.042 37.4844V38.7344C369.831 38.7656 369.503 38.7969 369.104 38.7969C367.972 38.7969 366.784 38.0938 366.776 36.5938V31.3281H365.495V30.2031H366.776V28.1719H368.136V30.2031H369.917ZM374.8 38.8594C372.347 38.8672 370.831 37.1172 370.831 34.5156C370.831 31.9062 372.37 30.0938 374.675 30.0938C376.456 30.0938 378.339 31.1875 378.331 34.3281V34.8906H372.175C372.245 36.6875 373.292 37.6719 374.8 37.6719C375.816 37.6719 376.456 37.2266 376.769 36.7031H378.206C377.808 37.9922 376.55 38.8672 374.8 38.8594ZM372.183 33.75H376.972C376.964 32.3359 376.073 31.2812 374.675 31.2812C373.206 31.2812 372.277 32.4375 372.183 33.75ZM379.761 38.6875V30.2031H381.058V31.5H381.152C381.457 30.6406 382.339 30.0703 383.339 30.0625C383.543 30.0703 383.886 30.0781 384.043 30.0938V31.4531C383.941 31.4297 383.582 31.3594 383.23 31.3594C382.011 31.3594 381.105 32.2031 381.105 33.3438V38.6875H379.761ZM388.902 27.375H390.59L394.402 36.6875H394.543L398.356 27.375H400.043V38.6875H398.715V30.1406H398.606L395.09 38.6875H393.84L390.324 30.1406H390.231V38.6875H388.902V27.375ZM401.645 36.2812C401.645 34.3359 403.364 33.8906 404.832 33.7812C405.379 33.7422 406.747 33.6641 407.129 33.6562V32.9688C407.129 31.8906 406.489 31.2656 405.207 31.2656C404.137 31.2656 403.489 31.7578 403.301 32.4062H401.895C402.067 31.0391 403.395 30.0938 405.27 30.0938C406.379 30.0938 408.465 30.4219 408.457 33.0938V38.6875H407.129V37.5312H407.067C406.786 38.1016 406.012 38.8828 404.536 38.8906C402.926 38.8828 401.645 37.9375 401.645 36.2812ZM402.989 36.3438C402.997 37.2422 403.739 37.6953 404.77 37.6875C406.286 37.6953 407.129 36.6797 407.129 35.6094V34.7578C406.731 34.7812 405.395 34.8828 404.989 34.9062C403.77 34.9844 402.997 35.4141 402.989 36.3438ZM410.294 41.875V30.2031H411.591V31.5469H411.747C412.036 31.0938 412.552 30.0938 414.2 30.0938C416.333 30.0938 417.809 31.7812 417.809 34.4688C417.809 37.1641 416.333 38.8672 414.216 38.8594C412.598 38.8672 412.036 37.8594 411.747 37.3906H411.638V41.875H410.294ZM411.606 34.4375C411.614 36.3438 412.466 37.6562 414.028 37.6562C415.638 37.6562 416.466 36.2422 416.466 34.4375C416.466 32.6641 415.661 31.2969 414.028 31.2969C412.442 31.2969 411.614 32.5547 411.606 34.4375ZM425.052 26.3125C428.138 26.3125 429.95 27.1641 429.958 28.7031C429.95 30.2812 428.138 31.1328 425.052 31.1406C421.95 31.1328 420.13 30.2812 420.13 28.7031C420.13 27.1641 421.95 26.3125 425.052 26.3125ZM418.724 33.0781V32.0781H431.38V33.0781H418.724ZM420.255 35.2188V34.2812H429.755V37.3906H421.505V38.8281H430.177V39.7969H420.286V36.4844H428.552V35.2188H420.255ZM421.411 28.7031C421.396 29.6719 422.747 30.2031 425.052 30.2031C427.357 30.2031 428.7 29.6719 428.708 28.7031C428.7 27.7891 427.357 27.2422 425.052 27.2344C422.747 27.2422 421.396 27.7891 421.411 28.7031ZM447.802 26.0625V39.9531H446.631V26.0625H447.802ZM435.756 36.25C437.693 35.0938 438.826 32.5547 438.818 30.0312V28.7188H436.146V27.7031H442.552V28.7188H440.006V30.0312C440.006 32.4297 441.092 34.8281 443.006 35.9375L442.256 36.8438C440.888 36.0234 439.92 34.5234 439.435 32.7578C438.935 34.6719 437.927 36.3047 436.537 37.1719L435.756 36.25ZM441.49 32.0781V31.0781H443.834V26.4062H444.99V39.2344H443.834V32.0781H441.49ZM455.717 34.8438C458.693 34.8438 460.584 35.7812 460.592 37.3906C460.584 38.9844 458.693 39.9219 455.717 39.9219C452.74 39.9219 450.85 38.9844 450.858 37.3906C450.85 35.7812 452.74 34.8438 455.717 34.8438ZM449.451 33.5469V32.5469H454.686V29.8594H455.889V32.5469H462.092V33.5469H449.451ZM450.951 27.7812V26.7812H460.483V27.9531C460.475 29.0781 460.475 30.2031 460.092 31.6406L458.889 31.5C459.264 30.0703 459.264 29.0391 459.264 27.9531V27.7812H450.951ZM452.076 37.3906C452.068 38.3594 453.506 38.9531 455.717 38.9531C457.936 38.9531 459.358 38.3594 459.373 37.3906C459.358 36.3984 457.936 35.7891 455.717 35.7812C453.506 35.7891 452.068 36.3984 452.076 37.3906ZM473.803 26.0625V29.625H475.897V30.6719H473.803V34.1406H472.584V26.0625H473.803ZM462.975 28.5156V27.5H466.506V25.9375H467.725V27.5H471.256V28.5156H462.975ZM463.772 31.5938C463.764 30.1094 465.1 29.1641 467.116 29.1562C469.108 29.1641 470.444 30.1094 470.459 31.5938C470.444 33.0781 469.108 34.0391 467.116 34.0312C465.1 34.0391 463.764 33.0781 463.772 31.5938ZM464.944 31.5938C464.936 32.5 465.803 33.0938 467.116 33.0938C468.413 33.0938 469.288 32.5 469.303 31.5938C469.288 30.6953 468.413 30.0938 467.116 30.1094C465.803 30.0938 464.936 30.6953 464.944 31.5938ZM465.022 39.7656V34.75H466.241V36.2344H472.584V34.75H473.803V39.7656H465.022ZM466.241 38.7812H472.584V37.2031H466.241V38.7812ZM487.905 26.0625V39.9531H486.686V26.0625H487.905ZM477.358 36.375V27.4375H478.561V35.3125C480.686 35.2969 482.874 35.1328 485.202 34.6406L485.374 35.6875C482.905 36.2031 480.71 36.375 478.483 36.375H477.358ZM500.71 26.0625V31.5625H503.038V32.5938H500.71V39.9844H499.491V26.0625H500.71ZM490.569 36.5V27.4219H497.054V28.4375H491.788V35.4688C494.304 35.4609 496.077 35.3516 498.147 34.9688L498.304 36.0312C496.124 36.4219 494.304 36.5 491.663 36.5H490.569ZM504.937 38.7812C504.39 38.7734 503.921 38.3203 503.937 37.7656C503.921 37.2188 504.39 36.7656 504.937 36.7656C505.492 36.7656 505.945 37.2188 505.937 37.7656C505.945 38.3203 505.492 38.7734 504.937 38.7812Z" fill="white"/>
</svg>
