<svg width="213" height="58" viewBox="0 0 213 58" fill="none" xmlns="http://www.w3.org/2000/svg">
<path d="M18.3516 0V21.1875H15.8203V0H18.3516ZM0.773438 16.3359V2.48438H8.83594V4.57031H3.32812V14.1562C5.82422 14.1445 7.62891 14.0273 9.70312 13.5938L9.91406 15.7266C7.52344 16.2188 5.40234 16.3242 2.20312 16.3359H0.773438ZM7.38281 9.98438V7.85156H11.4609V0.421875H13.8984V20.1562H11.4609V9.98438H7.38281ZM37.9575 0V21.2109H35.3325V0H37.9575ZM21.0122 9.02344C21.0005 4.45312 23.3325 1.54688 26.5434 1.54688C29.7192 1.54688 32.063 4.45312 32.0747 9.02344C32.063 13.6289 29.7192 16.5234 26.5434 16.5234C23.3325 16.5234 21.0005 13.6289 21.0122 9.02344ZM23.52 9.02344C23.52 12.2812 24.7505 14.168 26.5434 14.1797C28.3247 14.168 29.5434 12.2812 29.5434 9.02344C29.5434 5.78906 28.3247 3.89062 26.5434 3.89062C24.7505 3.89062 23.52 5.78906 23.52 9.02344ZM58.3603 0V21.2109H55.7822V9.77344H51.7978V7.66406H55.7822V0H58.3603ZM41.5556 16.3359V1.82812H51.4697V3.96094H44.1806V7.75781H50.6259V9.82031H44.1806V14.1797C47.4033 14.168 49.8173 14.0508 52.5478 13.6172L52.8056 15.7266C49.7236 16.1953 47.0048 16.3125 43.2197 16.3359H41.5556ZM80.2163 16.5703V18.7266H60.8569V16.5703H69.2006V13.125H63.1538V6.1875H75.3413V3.5625H63.1069V1.45312H77.9194V8.25H65.7553V10.9922H78.4116V13.125H71.7788V16.5703H80.2163ZM97.3031 1.28906C97.2914 6.75 93.6937 10.582 87.5297 12.3047L86.475 10.2656C91.2211 8.97656 94.0336 6.49219 94.5141 3.39844H87.6234V1.28906H97.3031ZM90.1312 20.9062V12.7969H104.077V20.9062H90.1312ZM92.6859 18.8438H101.498V14.8594H92.6859V18.8438ZM97.3969 7.33594V5.20312H101.475V0.0234375H104.077V11.9531H101.475V7.33594H97.3969ZM125.909 9.86719V11.9766H106.597V9.86719H125.909ZM107.534 6.86719C111.46 6.48047 114.015 4.91016 114.413 3.14062H108.354V1.00781H124.175V3.14062H118.058C118.444 4.88672 120.975 6.48047 124.995 6.86719L124.081 8.92969C120.225 8.53125 117.378 6.99609 116.229 4.85156C115.081 6.99609 112.268 8.53125 108.425 8.92969L107.534 6.86719ZM108.847 17.2734C108.847 14.8125 111.624 13.3828 116.229 13.3828C120.8 13.3828 123.554 14.8125 123.565 17.2734C123.554 19.7695 120.8 21.1641 116.229 21.1641C111.624 21.1641 108.847 19.7695 108.847 17.2734ZM111.495 17.2734C111.483 18.5039 113.147 19.1133 116.229 19.125C119.265 19.1133 120.94 18.5039 120.964 17.2734C120.94 16.043 119.265 15.4219 116.229 15.4219C113.147 15.4219 111.483 16.043 111.495 17.2734ZM139.187 6.65625V8.74219H135.249V11.1445C137.019 11.0742 138.777 10.957 140.429 10.7812L140.617 12.6562C136.117 13.2773 131.253 13.3945 127.304 13.4062L126.952 11.3203C128.699 11.3086 130.632 11.2969 132.624 11.2383V8.74219H128.781V1.3125H139.023V3.42188H131.406V6.65625H139.187ZM130.327 20.7656V14.7422H132.952V18.6562H145.14V20.7656H130.327ZM141.906 15.9141V0H144.531V15.9141H141.906ZM163.375 1.75781C163.364 4.41797 166.352 7.125 170.875 7.71094L169.844 9.82031C166.246 9.28125 163.387 7.51172 162.004 5.12109C160.621 7.51172 157.774 9.28125 154.211 9.82031L153.18 7.71094C157.657 7.125 160.633 4.44141 160.633 1.75781V0.679688H163.375V1.75781ZM152.336 13.8047V11.6484H171.649V13.8047H163.235V21.1875H160.657V13.8047H152.336ZM190.2 0V10.9219H187.622V0H190.2ZM172.762 9.02344C176.055 8.05078 177.872 5.66016 178.001 3.16406H173.442V1.05469H185.091V3.16406H180.649C180.766 5.50781 182.559 7.73438 185.841 8.625L184.575 10.6406C182.102 9.92578 180.333 8.42578 179.372 6.50391C178.411 8.625 176.571 10.3008 173.958 11.0859L172.762 9.02344ZM176.184 13.8047V11.8125H190.247V17.2734H178.786V18.9844H190.88V21H176.231V15.375H187.645V13.8047H176.184ZM204.697 2.20312V3.70312C204.697 5.58984 204.697 8.26172 204.111 11.9062L201.533 11.6953C202.048 8.48438 202.107 6.10547 202.118 4.28906H193.798V2.20312H204.697ZM192.673 14.6484C193.927 14.6367 195.322 14.625 196.775 14.5898V8.25H199.353V14.5078C201.509 14.4141 203.724 14.2617 205.751 14.0156L205.892 15.9609C201.521 16.6758 196.669 16.7578 192.931 16.7344L192.673 14.6484ZM206.853 21.1875V0H209.478V8.625H212.548V10.8281H209.478V21.1875H206.853ZM17.8125 36V48.5859H15.2109V43.4062H11.6016V41.2734H15.2109V36H17.8125ZM0 46.4766C3.41016 45.3047 5.20312 42.457 5.20312 39.6562V39.4922H0.796875V37.3828H12.2344V39.4922H7.85156V39.6328C7.85156 42.2109 9.5625 44.8125 12.8438 45.9141L11.5312 47.9766C9.17578 47.1797 7.51172 45.5625 6.57422 43.5703C5.64844 45.8203 3.87891 47.6484 1.35938 48.5391L0 46.4766ZM3.44531 53.1562C3.42188 50.6133 6.17578 49.125 10.6406 49.125C15.1289 49.125 17.8711 50.6133 17.8828 53.1562C17.8711 55.6992 15.1289 57.1758 10.6406 57.1875C6.17578 57.1758 3.42188 55.6992 3.44531 53.1562ZM6.02344 53.1562C6.01172 54.4688 7.69922 55.1836 10.6406 55.1719C13.6055 55.1836 15.2812 54.4688 15.2812 53.1562C15.2812 51.832 13.6055 51.1172 10.6406 51.1172C7.69922 51.1172 6.01172 51.832 6.02344 53.1562ZM37.6997 37.9453V40.1016C37.6997 42.7383 37.6997 45.5742 36.9263 49.7344L34.3716 49.4766C35.0981 45.5508 35.0981 42.668 35.0981 40.1016V40.0312H22.2778V37.9453H37.6997ZM20.3325 54.4453V52.3125H24.6684V45.5625H27.27V52.3125H29.9653V45.5625H32.52V52.3125H39.645V54.4453H20.3325ZM57.3056 36.0234V42.6797H60.2588V44.8359H57.3056V51.8438H54.7041V36.0234H57.3056ZM40.6181 40.4531V38.3672H45.6103V36H48.2119V38.3672H53.1806V40.4531H40.6181ZM41.6963 45.375C41.6963 42.9375 43.8173 41.3203 46.8994 41.3203C49.958 41.3203 52.0673 42.9375 52.0791 45.375C52.0673 47.8008 49.958 49.3828 46.8994 49.3828C43.8173 49.3828 41.6963 47.8008 41.6963 45.375ZM43.7353 56.7656V50.6016H46.3369V54.6562H58.1494V56.7656H43.7353ZM44.2275 45.375C44.2158 46.6523 45.2939 47.3789 46.8994 47.3672C48.5048 47.3789 49.5947 46.6523 49.5947 45.375C49.5947 44.0859 48.5048 43.3359 46.8994 43.3359C45.2939 43.3359 44.2158 44.0859 44.2275 45.375ZM82.7831 36V40.8281H85.7363V42.9609H82.7831V47.9062H80.1816V36H82.7831ZM65.9081 46.2188C70.8183 44.9648 73.6073 42.457 74.0644 39.3984H66.9159V37.2891H76.9003C76.8886 42.7969 73.2792 46.6055 66.9394 48.3047L65.9081 46.2188ZM69.0722 56.9062V48.75H82.7831V56.9062H69.0722ZM71.6738 54.8438H80.205V50.8828H71.6738V54.8438ZM103.045 36V41.1094H105.998V43.2891H103.045V48.3516H100.444V36H103.045ZM86.1234 46.2422C91.0687 44.9648 93.893 42.4336 94.3383 39.3516H87.1781V37.2422H97.1391C97.1273 42.7969 93.518 46.6289 87.2016 48.2344L86.1234 46.2422ZM88.9359 51.3281V49.2422H103.045V57.1875H100.444V51.3281H88.9359ZM129.554 36V46.8516H126.952V41.4844H122.734V39.3984H126.952V36H129.554ZM111.695 44.8828C115.105 43.8516 116.874 41.2383 116.874 38.3906V36.7031H119.499V38.3906C119.488 41.0039 121.199 43.4766 124.492 44.4844L123.109 46.5C120.812 45.7383 119.148 44.2383 118.21 42.3164C117.296 44.4609 115.55 46.1484 113.054 46.9688L111.695 44.8828ZM115.609 49.8047V47.7656H129.554V53.25H118.187V54.8672H130.234V56.9297H115.632V51.3047H126.976V49.8047H115.609ZM150.355 36V57.1875H147.871V36H150.355ZM131.863 50.8594C136.246 48.2695 138.262 44.9531 138.66 40.6875H132.988V38.5781H141.238C141.238 39.6445 141.168 40.6875 141.015 41.6953H143.488V36.5156H145.973V56.1797H143.488V49.1016H140.183V46.9688H143.488V43.8281H140.57C139.562 47.3438 137.359 50.3672 133.387 52.7109L131.863 50.8594Z" fill="white"/>
</svg>
