<svg width="29" height="12" viewBox="0 0 29 12" fill="none" xmlns="http://www.w3.org/2000/svg">
<path d="M4.35156 11.625C1.625 11.625 0 9.51562 0.0078125 5.8125C0 2.125 1.64062 0 4.35156 0C7.0625 0 8.69531 2.125 8.69531 5.8125C8.69531 9.52344 7.07031 11.625 4.35156 11.625ZM2.05469 5.8125C2.05469 8.53125 2.92969 9.91406 4.35156 9.92188C5.76562 9.91406 6.64844 8.53125 6.64844 5.8125C6.64062 3.11719 5.76562 1.69531 4.35156 1.6875C2.9375 1.69531 2.0625 3.11719 2.05469 5.8125ZM14.5703 11.625C11.8438 11.625 10.2188 9.51562 10.2266 5.8125C10.2188 2.125 11.8594 0 14.5703 0C17.2812 0 18.9141 2.125 18.9141 5.8125C18.9141 9.52344 17.2891 11.625 14.5703 11.625ZM12.2734 5.8125C12.2734 8.53125 13.1484 9.91406 14.5703 9.92188C15.9844 9.91406 16.8672 8.53125 16.8672 5.8125C16.8594 3.11719 15.9844 1.69531 14.5703 1.6875C13.1562 1.69531 12.2812 3.11719 12.2734 5.8125ZM24.7266 11.625C22.3125 11.625 20.5859 10.3125 20.5391 8.40625H22.5859C22.6406 9.3125 23.5469 9.91406 24.7266 9.90625C25.9688 9.91406 26.8672 9.22656 26.8672 8.21875C26.8672 7.20312 25.9922 6.47656 24.5234 6.46875H23.5078V4.90625H24.5234C25.7266 4.90625 26.5625 4.23438 26.5547 3.25C26.5625 2.29688 25.8438 1.65625 24.7422 1.65625C23.6797 1.65625 22.7656 2.25 22.7266 3.20312H20.7734C20.8203 1.30469 22.5469 0 24.7578 0C27.0547 0 28.5391 1.40625 28.5234 3.14062C28.5391 4.40625 27.6953 5.32031 26.4609 5.57812V5.67188C28.0547 5.88281 28.9609 6.90625 28.9453 8.32812C28.9609 10.2422 27.1719 11.625 24.7266 11.625Z" fill="#999999"/>
</svg>
