<svg width="260" height="48" viewBox="0 0 260 48" fill="none" xmlns="http://www.w3.org/2000/svg">
<rect width="100" height="48" rx="24" fill="black" fill-opacity="0.7"/>
<path d="M16.8594 29.5V28.3594L22.7969 19.6719H16.7969V18.1875H24.9062V19.3281L18.9688 28.0156H24.9531V29.5H16.8594ZM30.0394 29.6719C27.6331 29.6719 26.0628 27.9219 26.0706 25.2969C26.0628 22.6562 27.6331 20.9062 30.0394 20.9062C32.43 20.9062 33.9925 22.6562 33.9925 25.2969C33.9925 27.9219 32.43 29.6719 30.0394 29.6719ZM27.7425 25.2969C27.7425 26.9141 28.4847 28.2812 30.0394 28.2812C31.5706 28.2812 32.305 26.9141 32.305 25.2969C32.305 23.6719 31.5706 22.2891 30.0394 22.2812C28.4847 22.2891 27.7425 23.6719 27.7425 25.2969ZM38.9069 29.6719C36.5006 29.6719 34.9303 27.9219 34.9381 25.2969C34.9303 22.6562 36.5006 20.9062 38.9069 20.9062C41.2975 20.9062 42.86 22.6562 42.86 25.2969C42.86 27.9219 41.2975 29.6719 38.9069 29.6719ZM36.61 25.2969C36.61 26.9141 37.3522 28.2812 38.9069 28.2812C40.4381 28.2812 41.1725 26.9141 41.1725 25.2969C41.1725 23.6719 40.4381 22.2891 38.9069 22.2812C37.3522 22.2891 36.61 23.6719 36.61 25.2969ZM44.1806 29.5V21.0156H45.79V22.4062H45.8838C46.2431 21.4609 47.0791 20.9062 48.1963 20.9062C49.3291 20.9062 50.1181 21.4609 50.4775 22.4062H50.5713C50.9697 21.4922 51.8916 20.9062 53.1181 20.9062C54.6494 20.9062 55.7353 21.8672 55.7431 23.8125V29.5H54.0713V23.9688C54.0713 22.8203 53.3525 22.3438 52.4775 22.3438C51.4072 22.3438 50.79 23.0781 50.79 24.0938V29.5H49.1338V23.875C49.1338 22.9453 48.5009 22.3438 47.5869 22.3438C46.6494 22.3438 45.8525 23.125 45.8525 24.2656V29.5H44.1806ZM64.6188 29.6719C62.2125 29.6719 60.6422 27.9219 60.65 25.2969C60.6422 22.6562 62.2125 20.9062 64.6188 20.9062C67.0094 20.9062 68.5719 22.6562 68.5719 25.2969C68.5719 27.9219 67.0094 29.6719 64.6188 29.6719ZM62.3219 25.2969C62.3219 26.9141 63.0641 28.2812 64.6188 28.2812C66.15 28.2812 66.8844 26.9141 66.8844 25.2969C66.8844 23.6719 66.15 22.2891 64.6188 22.2812C63.0641 22.2891 62.3219 23.6719 62.3219 25.2969ZM75.2831 25.9688V21.0156H76.9394V29.5H75.3144V28.0312H75.2206C74.83 28.9375 73.9628 29.6094 72.6894 29.6094C71.0488 29.6094 69.8925 28.5078 69.8925 26.4062V21.0156H71.5644V26.2031C71.5644 27.3594 72.2675 28.0938 73.2831 28.0938C74.2128 28.0938 75.2831 27.4141 75.2831 25.9688ZM82.6194 21.0156V22.3438H80.885V27C80.8928 27.9609 81.3616 28.1328 81.9006 28.1406C82.1428 28.1406 82.51 28.1172 82.7444 28.0938V29.5469C82.5178 29.5781 82.1584 29.6094 81.6975 29.6094C80.3928 29.6094 79.2131 28.8906 79.2287 27.3438V22.3438H77.9787V21.0156H79.2287V18.9844H80.885V21.0156H82.6194Z" fill="white"/>
<rect x="108" width="96" height="48" rx="24" fill="black" fill-opacity="0.7"/>
<path d="M124 24H140" stroke="white" stroke-width="1.5" stroke-linejoin="round"/>
<path d="M172 24H188" stroke="white" stroke-width="1.5" stroke-linejoin="round"/>
<path d="M180.006 16.0049L180.006 32.0049" stroke="white" stroke-width="1.5" stroke-linejoin="round"/>
<rect x="212" width="48" height="48" rx="24" fill="black" fill-opacity="0.7"/>
<path d="M244 24C244 28.4183 240.418 32 236 32C231.582 32 228 28.4183 228 24C228 19.5817 231.582 16 236 16C238.389 16 240.534 17.0475 242 18.7084M242 18.7084H239M242 18.7084V16" stroke="white" stroke-width="1.5" stroke-linecap="round" stroke-linejoin="round"/>
</svg>
