<svg width="480" height="640" viewBox="0 0 480 640" fill="none" xmlns="http://www.w3.org/2000/svg">
<path d="M73.3488 78H44.3887C36.9487 78 34.0687 74.16 34.0687 68V34.24C34.0687 28.08 36.9487 24.16 44.3887 24.16H72.8687V34.64H45.7487V45.84H71.1887V56.32H45.7487V67.52H73.3488V78ZM91.3506 78H78.6306L87.9106 62.96C89.1106 61.04 89.6706 59.6 89.6706 58.24C89.6706 56.96 89.1906 55.68 88.1506 54L78.6306 38.4H91.4306L98.1506 49.52C98.7906 50.56 99.3506 51.76 99.6706 52.96H102.951C103.271 51.76 103.831 50.56 104.471 49.52L111.191 38.4H123.991L114.471 54C113.431 55.68 112.951 56.96 112.951 58.24C112.951 59.6 113.511 61.04 114.711 62.96L123.991 78H111.271L104.471 67.04C103.751 65.84 103.111 64.48 102.711 63.12H99.9106C99.5106 64.48 98.8706 65.84 98.1506 67.04L91.3506 78ZM141.176 96.24H129.816V58.08C129.816 46.16 138.936 37.28 151.256 37.28C163.496 37.28 172.696 46.72 172.696 58.08C172.696 70.48 164.216 79.12 151.896 79.12C147.896 79.12 144.136 77.68 141.176 75.44V96.24ZM151.256 68.4C157.096 68.4 161.336 63.76 161.336 58.16C161.336 52.56 157.096 48 151.256 48C145.416 48 141.176 52.56 141.176 58.16C141.176 63.76 145.416 68.4 151.256 68.4ZM198.284 79.04C185.964 79.04 176.684 70.48 176.684 57.84C176.684 46.4 185.004 36.96 197.244 36.96C209.804 36.96 217.084 46.24 217.084 57.04V60.4H187.644C188.444 65.68 192.524 69.2 198.204 69.2C202.524 69.2 206.124 67.12 207.964 63.44L216.684 67.84C213.244 74.96 206.684 79.04 198.284 79.04ZM188.124 54.08H205.804C205.324 50 201.964 46.88 197.164 46.88C192.204 46.88 188.924 50.08 188.124 54.08ZM235.163 78H223.803V55.28C223.803 45.12 229.563 37.36 241.323 37.36C243.883 37.36 246.683 37.84 248.683 38.72V49.76C246.763 48.64 244.443 48.08 242.363 48.08C237.883 48.08 235.163 50.96 235.163 55.68V78ZM258.077 32.48C254.237 32.48 251.037 29.36 251.037 25.44C251.037 21.6 254.237 18.4 258.077 18.4C261.917 18.4 265.037 21.6 265.037 25.44C265.037 29.36 261.917 32.48 258.077 32.48ZM252.397 38.4H263.757V78H252.397V38.4ZM292.859 79.04C280.539 79.04 271.259 70.48 271.259 57.84C271.259 46.4 279.579 36.96 291.819 36.96C304.379 36.96 311.659 46.24 311.659 57.04V60.4H282.219C283.019 65.68 287.099 69.2 292.779 69.2C297.099 69.2 300.699 67.12 302.539 63.44L311.259 67.84C307.819 74.96 301.259 79.04 292.859 79.04ZM282.699 54.08H300.379C299.899 50 296.539 46.88 291.739 46.88C286.779 46.88 283.499 50.08 282.699 54.08ZM339.018 48.32C332.618 48.32 329.738 53.52 329.738 59.6V78H318.378V58.24C318.378 46.72 325.178 37.28 339.018 37.28C352.858 37.28 359.818 46.64 359.818 58.24V78H348.458V59.6C348.458 53.52 345.498 48.32 339.018 48.32ZM386.996 79.04C375.076 79.12 365.716 69.6 365.716 58.16C365.716 46.64 375.076 37.2 386.996 37.28C394.596 37.36 401.636 40.8 405.236 48.48L395.876 53.6C394.116 50.16 390.916 48 386.996 48C381.316 48 377.076 52.56 377.076 58.16C377.076 63.76 381.316 68.32 386.996 68.32C390.916 68.32 394.116 66.16 395.876 62.72L405.236 67.84C401.636 75.52 394.596 78.96 386.996 79.04ZM430.012 79.04C417.692 79.04 408.412 70.48 408.412 57.84C408.412 46.4 416.732 36.96 428.972 36.96C441.532 36.96 448.812 46.24 448.812 57.04V60.4H419.372C420.172 65.68 424.252 69.2 429.932 69.2C434.252 69.2 437.852 67.12 439.692 63.44L448.412 67.84C444.972 74.96 438.412 79.04 430.012 79.04ZM419.852 54.08H437.532C437.052 50 433.692 46.88 428.892 46.88C423.932 46.88 420.652 50.08 419.852 54.08Z" fill="black"/>
<path d="M107.51 526.398V528.484H99.1191V530.5H105.143V537.039H102.541V532.586H90.33V530.5H96.5409V528.484H88.1972V526.398H107.51ZM89.1113 523.539C93.5527 523.199 96.0488 521.734 96.3417 519.93H90.0956V517.891H96.5409V515.875H99.1191V517.891H105.611V519.93H99.3066C99.5878 521.734 102.084 523.199 106.549 523.539L105.728 525.508C101.943 525.203 99.1425 524.031 97.83 522.18C96.4941 524.031 93.6933 525.203 89.9316 525.508L89.1113 523.539ZM116.241 519.531C116.241 522.121 117.952 524.711 121.233 525.812L119.92 527.828C117.553 527.055 115.877 525.449 114.952 523.457C114.026 525.672 112.268 527.453 109.748 528.297L108.413 526.234C111.788 525.121 113.592 522.309 113.592 519.555V519.273H109.186V517.188H120.623V519.273H116.241V519.531ZM111.764 531.625V529.539H126.202V537.086H123.6V531.625H111.764ZM119.991 523.281V521.148H123.6V515.898H126.202V528.531H123.6V523.281H119.991ZM141.05 522.555V524.641H137.112V527.043C138.882 526.973 140.64 526.855 142.292 526.68L142.479 528.555C137.979 529.176 133.116 529.293 129.167 529.305L128.815 527.219C130.561 527.207 132.495 527.195 134.487 527.137V524.641H130.643V517.211H140.886V519.32H133.268V522.555H141.05ZM132.19 536.664V530.641H134.815V534.555H147.003V536.664H132.19ZM143.768 531.812V515.898H146.393V531.812H143.768ZM171.941 515.922V528.297H169.34V525.953H164.301V523.844H169.34V521.57H164.5C163.164 524.934 160.07 527.289 155.465 528.578L154.41 526.516C159.367 525.18 162.015 522.66 162.414 519.508H155.535V517.398H165.262C165.262 518.137 165.203 518.84 165.086 519.508H169.34V515.922H171.941ZM157.738 532.75C157.738 530.148 160.586 528.543 164.933 528.531C169.223 528.543 172.082 530.148 172.082 532.75C172.082 535.352 169.223 536.98 164.933 536.969C160.586 536.98 157.738 535.352 157.738 532.75ZM160.34 532.75C160.34 534.145 162.086 534.906 164.933 534.906C167.734 534.906 169.469 534.145 169.48 532.75C169.469 531.332 167.734 530.57 164.933 530.57C162.086 530.57 160.34 531.332 160.34 532.75ZM192.203 515.898V528.719H189.602V524.336H186.578V522.18H189.602V515.898H192.203ZM174.508 519.977V517.867H179.43V515.734H182.008V517.867H186.93V519.977H174.508ZM175.703 524.594C175.692 522.367 177.789 520.797 180.719 520.797C183.672 520.797 185.746 522.367 185.758 524.594C185.746 526.879 183.672 528.391 180.719 528.391C177.789 528.391 175.692 526.879 175.703 524.594ZM178.117 536.828V529.68H192.203V536.828H178.117ZM178.188 524.594C178.188 525.766 179.196 526.445 180.719 526.445C182.231 526.445 183.25 525.766 183.25 524.594C183.25 523.457 182.231 522.766 180.719 522.766C179.196 522.766 178.188 523.457 178.188 524.594ZM180.719 534.719H189.649V531.742H180.719V534.719ZM212.348 515.898V537.109H209.723V515.898H212.348ZM195.403 524.922C195.391 520.352 197.723 517.445 200.934 517.445C204.11 517.445 206.454 520.352 206.466 524.922C206.454 529.527 204.11 532.422 200.934 532.422C197.723 532.422 195.391 529.527 195.403 524.922ZM197.911 524.922C197.911 528.18 199.141 530.066 200.934 530.078C202.716 530.066 203.934 528.18 203.934 524.922C203.934 521.688 202.716 519.789 200.934 519.789C199.141 519.789 197.911 521.688 197.911 524.922ZM226.599 516.812C229.693 516.812 231.896 518.535 231.92 521.078C231.896 523.188 230.314 524.77 227.959 525.203V526.914C229.728 526.809 231.498 526.656 233.138 526.422L233.349 528.32C228.943 529.105 224.021 529.199 220.435 529.188L220.154 527.102C221.678 527.102 223.459 527.09 225.334 527.031V525.215C222.908 524.805 221.291 523.223 221.303 521.078C221.291 518.535 223.494 516.812 226.599 516.812ZM223.06 536.641V530.664H225.662V534.531H237.732V536.641H223.06ZM223.74 521.078C223.717 522.473 224.912 523.34 226.599 523.352C228.299 523.34 229.447 522.473 229.459 521.078C229.447 519.648 228.299 518.805 226.599 518.805C224.912 518.805 223.717 519.648 223.74 521.078ZM234.381 532.094V515.922H236.982V522.766H239.842V524.922H236.982V532.094H234.381ZM248.221 518.945C248.209 521.828 249.897 524.465 253.213 525.508L251.807 527.547C249.498 526.727 247.881 525.18 246.979 523.176C246.041 525.484 244.272 527.301 241.705 528.203L240.322 526.094C243.826 524.945 245.584 522.121 245.596 519.062V517.047H248.221V518.945ZM243.838 533.008C243.815 530.43 246.569 528.918 251.033 528.93C255.522 528.918 258.264 530.43 258.276 533.008C258.264 535.586 255.522 537.062 251.033 537.062C246.569 537.062 243.815 535.586 243.838 533.008ZM246.416 533.008C246.405 534.297 248.092 535.012 251.033 535.023C253.998 535.012 255.674 534.297 255.674 533.008C255.674 531.672 253.998 530.957 251.033 530.945C248.092 530.957 246.405 531.672 246.416 533.008ZM251.385 522.133V520H255.604V515.898H258.205V528.367H255.604V522.133H251.385ZM277.319 515.898V524.336H280.577V526.492H277.319V537.086H274.741V515.898H277.319ZM260.608 521.242V519.156H265.624V516.203H268.225V519.156H273.1V521.242H260.608ZM261.592 527.617C261.569 524.688 263.842 522.613 266.936 522.625C269.983 522.613 272.245 524.688 272.257 527.617C272.245 530.535 269.983 532.586 266.936 532.586C263.842 532.586 261.569 530.535 261.592 527.617ZM264.077 527.617C264.065 529.34 265.272 530.441 266.936 530.43C268.565 530.441 269.749 529.34 269.772 527.617C269.749 525.895 268.565 524.758 266.936 524.758C265.272 524.758 264.065 525.895 264.077 527.617ZM298.144 521.898V523.961H283.472V516.672H286.05V521.898H298.144ZM280.964 528.484V526.422H300.323V528.484H280.964ZM283.284 536.594V530.359H285.886V534.484H298.284V536.594H283.284ZM325.801 526.867V528.953H317.621V532.609H315.043V528.953H306.442V526.867H325.801ZM308.785 536.664V530.828H311.363V534.555H323.668V536.664H308.785ZM308.973 525.203V516.578H311.551V518.969H320.692V516.578H323.27V525.203H308.973ZM311.551 523.141H320.692V520.914H311.551V523.141ZM334.415 519.25C334.415 521.969 336.114 524.57 339.383 525.625L337.977 527.711C335.669 526.902 334.04 525.297 333.137 523.258C332.2 525.484 330.477 527.219 328.04 528.109L326.633 526.023C330.079 524.887 331.79 522.109 331.79 519.086V517H334.415V519.25ZM330.032 531.578V529.516H344.469V537.086H341.868V531.578H330.032ZM337.649 522.156V520.023H341.868V515.898H344.469V528.484H341.868V522.156H337.649ZM369.9 515.898V537.086H367.275V515.898H369.9ZM352.345 531.25C357.9 528.613 360.455 525.027 360.923 520.211H353.423V518.148H363.572C363.572 524.453 361.123 529.809 353.705 533.336L352.345 531.25ZM390.045 516.859V518.945H383.904C384.139 520.949 386.729 522.848 390.818 523.328L389.834 525.391C386.037 524.934 383.236 523.258 382.1 520.973C380.963 523.246 378.186 524.934 374.389 525.391L373.428 523.328C377.518 522.848 380.072 520.938 380.318 518.945H374.225V516.859H390.045ZM372.443 528.672V526.562H391.803V528.672H383.623V532.539H381.045V528.672H372.443ZM374.787 536.664V530.594H377.389V534.555H389.67V536.664H374.787Z" fill="black"/>
<path d="M109.891 568.375V573.875H112.219V574.906H109.891V582.297H108.672V568.375H109.891ZM99.75 578.812V569.734H106.234V570.75H100.969V577.781C103.484 577.773 105.258 577.664 107.328 577.281L107.484 578.344C105.305 578.734 103.484 578.812 100.844 578.812H99.75ZM125.571 570.484V571.5H123.508V573.438H125.571V574.469H123.508V576.625H122.289V568.375H123.508V570.484H125.571ZM112.914 572.484C112.907 570.547 114.453 569.211 116.555 569.219C118.672 569.211 120.196 570.547 120.211 572.484C120.196 574.414 118.672 575.742 116.555 575.75C114.453 575.742 112.907 574.414 112.914 572.484ZM114.118 572.484C114.11 573.797 115.149 574.703 116.555 574.719C117.977 574.703 119 573.797 119.008 572.484C119 571.18 117.977 570.25 116.555 570.266C115.149 570.25 114.11 571.18 114.118 572.484ZM114.446 579.656C114.453 578.008 116.219 577.055 119.055 577.047C121.891 577.055 123.633 578.008 123.633 579.656C123.633 581.273 121.891 582.234 119.055 582.234C116.219 582.234 114.453 581.273 114.446 579.656ZM115.68 579.656C115.664 580.656 116.961 581.242 119.055 581.25C121.157 581.242 122.438 580.656 122.446 579.656C122.438 578.648 121.157 578.047 119.055 578.047C116.961 578.047 115.664 578.648 115.68 579.656ZM137.016 568.391V572.969H139.11V574H137.016V578.797H135.798V568.391H137.016ZM126.188 571.094V570.094H129.719V568.391H130.938V570.094H134.469V571.094H126.188ZM126.985 574.453C126.977 572.875 128.321 571.859 130.329 571.859C132.313 571.859 133.657 572.875 133.673 574.453C133.657 576.016 132.313 577.023 130.329 577.016C128.321 577.023 126.977 576.016 126.985 574.453ZM128.157 574.453C128.149 575.43 129.016 576.062 130.329 576.047C131.626 576.062 132.501 575.43 132.516 574.453C132.501 573.461 131.626 572.82 130.329 572.828C129.016 572.82 128.149 573.461 128.157 574.453ZM128.329 581.969V577.969H129.532V580.938H137.657V581.969H128.329ZM150.329 569.672C150.337 571.633 152.884 573.32 155.392 573.672L154.892 574.672C152.736 574.312 150.595 573.117 149.704 571.414C148.814 573.133 146.681 574.312 144.517 574.672L144.017 573.672C146.525 573.32 149.064 571.664 149.064 569.672V568.875H150.329V569.672ZM143.361 577.234V576.203H156.017V577.234H150.267V582.266H149.064V577.234H143.361ZM168.322 568.375V575.594H167.119V568.375H168.322ZM157.072 574.641C159.142 573.953 160.627 572.25 160.634 570.344V570.188H157.384V569.172H165.072V570.188H161.869V570.344C161.877 572.148 163.353 573.742 165.447 574.359L164.837 575.312C163.197 574.797 161.892 573.695 161.275 572.273C160.673 573.828 159.345 575.039 157.65 575.609L157.072 574.641ZM159.306 577.234V576.266H168.337V579.578H160.541V581.125H168.837V582.109H159.337V578.656H167.119V577.234H159.306ZM181.323 569.281V574.938H174.807V569.281H181.323ZM175.807 581.266C178.198 581 180.494 579.648 180.494 578.266H176.385V577.312H180.51V575.953H181.729V577.312H185.885V578.266H181.76C181.752 579.617 183.987 580.969 186.369 581.266L185.948 582.219C183.862 581.93 181.955 580.945 181.127 579.664C180.291 580.977 178.338 581.93 176.244 582.219L175.807 581.266ZM176.01 573.969H180.119V570.281H176.01V573.969ZM184.323 576.359V568.375H185.526V576.359H184.323ZM202.12 568.375V573.25H204.198V574.281H202.12V579.25H200.886V568.375H202.12ZM191.214 576.641C192.315 576.641 193.62 576.625 194.979 576.578V575.516C193.362 575.367 192.315 574.594 192.323 573.422C192.315 572.086 193.62 571.273 195.573 571.281C197.542 571.273 198.823 572.086 198.839 573.422C198.823 574.586 197.807 575.359 196.198 575.516V576.523C197.495 576.445 198.815 576.328 200.026 576.141L200.136 577.016C197.159 577.578 193.784 577.617 191.354 577.641L191.214 576.641ZM191.557 570.672V569.75H194.979V568.344H196.198V569.75H199.604V570.672H191.557ZM193.292 581.969V578.516H194.526V580.938H202.62V581.969H193.292ZM193.495 573.422C193.487 574.18 194.292 574.672 195.573 574.672C196.854 574.672 197.667 574.18 197.667 573.422C197.667 572.633 196.854 572.148 195.573 572.156C194.292 572.148 193.487 572.633 193.495 573.422ZM216.3 568.391V576.734H215.066V574.859H211.378V573.844H215.066V571.969H211.519C210.605 574.203 208.464 575.82 205.488 576.703L204.972 575.734C208.323 574.742 210.425 572.859 210.667 570.453H205.675V569.422H212.003C212.003 569.969 211.941 570.492 211.823 570.984H215.066V568.391H216.3ZM207.113 579.531C207.105 577.875 208.909 576.875 211.753 576.875C214.566 576.875 216.378 577.875 216.378 579.531C216.378 581.195 214.566 582.203 211.753 582.203C208.909 582.203 207.105 581.195 207.113 579.531ZM208.316 579.531C208.323 580.578 209.659 581.211 211.753 581.203C213.816 581.211 215.152 580.578 215.159 579.531C215.152 578.484 213.816 577.852 211.753 577.859C209.659 577.852 208.323 578.484 208.316 579.531ZM226.926 572.109C226.918 574.648 228.644 577.195 230.691 578.125L229.941 579.094C228.355 578.328 226.988 576.68 226.324 574.703C225.683 576.797 224.316 578.555 222.691 579.375L221.91 578.344C223.98 577.398 225.691 574.742 225.707 572.109V569.578H226.926V572.109ZM232.207 582.297V568.375H233.441V582.297H232.207ZM247.012 568.375V576.797H245.777V573.625H243.418V572.609H245.777V568.375H247.012ZM235.512 570.844V569.844H238.965V568.25H240.168V569.844H243.621V570.844H235.512ZM236.34 574.031C236.34 572.578 237.676 571.562 239.559 571.562C241.449 571.562 242.777 572.578 242.793 574.031C242.777 575.531 241.449 576.516 239.559 576.516C237.676 576.516 236.34 575.531 236.34 574.031ZM237.512 574.031C237.512 574.953 238.348 575.562 239.559 575.578C240.77 575.562 241.606 574.953 241.606 574.031C241.606 573.141 240.77 572.516 239.559 572.516C238.348 572.516 237.512 573.141 237.512 574.031ZM237.934 582.078V577.547H247.012V582.078H237.934ZM239.152 581.078H245.809V578.531H239.152V581.078ZM259.669 569.672C259.677 571.633 262.223 573.32 264.731 573.672L264.231 574.672C262.075 574.312 259.934 573.117 259.044 571.414C258.153 573.133 256.02 574.312 253.856 574.672L253.356 573.672C255.864 573.32 258.403 571.664 258.403 569.672V568.875H259.669V569.672ZM252.7 577.234V576.203H265.356V577.234H259.606V582.266H258.403V577.234H252.7ZM278.005 568.375V577.172H276.833V573.188H274.974V576.672H273.818V568.656H274.974V572.172H276.833V568.375H278.005ZM266.13 571.031V570.047H269.099V568.484H270.318V570.047H273.255V571.031H266.13ZM266.739 574.156C266.732 572.703 267.958 571.773 269.708 571.781C271.466 571.773 272.685 572.703 272.693 574.156C272.685 575.586 271.466 576.516 269.708 576.516C267.958 576.516 266.732 575.586 266.739 574.156ZM267.833 574.156C267.833 575.008 268.599 575.594 269.708 575.594C270.818 575.594 271.583 575.008 271.583 574.156C271.583 573.273 270.818 572.688 269.708 572.688C268.599 572.688 267.833 573.273 267.833 574.156ZM268.755 579.844C268.739 578.281 270.482 577.406 273.411 577.406C276.333 577.406 278.075 578.281 278.083 579.844C278.075 581.367 276.333 582.234 273.411 582.234C270.482 582.234 268.739 581.367 268.755 579.844ZM269.974 579.844C269.958 580.742 271.247 581.289 273.411 581.281C275.568 581.289 276.849 580.742 276.864 579.844C276.849 578.891 275.568 578.359 273.411 578.375C271.247 578.359 269.958 578.891 269.974 579.844ZM294.927 568.391V576.734H293.693V574.859H290.006V573.844H293.693V571.969H290.146C289.232 574.203 287.092 575.82 284.115 576.703L283.599 575.734C286.951 574.742 289.052 572.859 289.295 570.453H284.302V569.422H290.631C290.631 569.969 290.568 570.492 290.451 570.984H293.693V568.391H294.927ZM285.74 579.531C285.732 577.875 287.537 576.875 290.381 576.875C293.193 576.875 295.006 577.875 295.006 579.531C295.006 581.195 293.193 582.203 290.381 582.203C287.537 582.203 285.732 581.195 285.74 579.531ZM286.943 579.531C286.951 580.578 288.287 581.211 290.381 581.203C292.443 581.211 293.779 580.578 293.787 579.531C293.779 578.484 292.443 577.852 290.381 577.859C288.287 577.852 286.951 578.484 286.943 579.531ZM308.436 568.375V576.797H307.201V573.625H304.842V572.609H307.201V568.375H308.436ZM296.936 570.844V569.844H300.389V568.25H301.592V569.844H305.045V570.844H296.936ZM297.764 574.031C297.764 572.578 299.1 571.562 300.982 571.562C302.873 571.562 304.201 572.578 304.217 574.031C304.201 575.531 302.873 576.516 300.982 576.516C299.1 576.516 297.764 575.531 297.764 574.031ZM298.936 574.031C298.936 574.953 299.772 575.562 300.982 575.578C302.193 575.562 303.029 574.953 303.029 574.031C303.029 573.141 302.193 572.516 300.982 572.516C299.772 572.516 298.936 573.141 298.936 574.031ZM299.357 582.078V577.547H308.436V582.078H299.357ZM300.576 581.078H307.232V578.531H300.576V581.078ZM316.756 568.625C319.842 568.625 321.655 569.477 321.663 571.016C321.655 572.594 319.842 573.445 316.756 573.453C313.655 573.445 311.834 572.594 311.834 571.016C311.834 569.477 313.655 568.625 316.756 568.625ZM310.428 575.391V574.391H323.084V575.391H310.428ZM311.959 577.531V576.594H321.459V579.703H313.209V581.141H321.881V582.109H311.991V578.797H320.256V577.531H311.959ZM313.116 571.016C313.1 571.984 314.452 572.516 316.756 572.516C319.061 572.516 320.405 571.984 320.413 571.016C320.405 570.102 319.061 569.555 316.756 569.547C314.452 569.555 313.1 570.102 313.116 571.016ZM338.382 568.375V573.844H340.71V574.906H338.382V582.266H337.163V568.375H338.382ZM328.21 578.938V569.562H329.429V573.234H333.491V569.562H334.71V578.938H328.21ZM329.429 577.906H333.491V574.219H329.429V577.906ZM351.999 568.375V572H354.093V573.016H351.999V576.922H350.781V568.375H351.999ZM341.796 575.969V569.359H348.187V570.359H343.015V572.141H347.921V573.125H343.015V574.969C345.726 574.977 347.265 574.906 349.093 574.594L349.234 575.578C347.32 575.93 345.718 575.984 342.843 575.969H341.796ZM342.968 579.766C342.953 578.18 344.71 577.273 347.578 577.281C350.421 577.273 352.156 578.18 352.156 579.766C352.156 581.344 350.421 582.234 347.578 582.234C344.71 582.234 342.953 581.344 342.968 579.766ZM344.187 579.766C344.179 580.711 345.453 581.289 347.578 581.281C349.663 581.289 350.945 580.711 350.937 579.766C350.945 578.812 349.663 578.25 347.578 578.25C345.453 578.25 344.179 578.812 344.187 579.766ZM360.976 569.281C363.875 569.289 366.054 570.805 366.054 573.094C366.054 575.406 363.875 576.922 360.976 576.906C358.078 576.922 355.898 575.406 355.898 573.094C355.898 570.805 358.078 569.289 360.976 569.281ZM354.648 580.422V579.391H367.367V580.422H354.648ZM357.07 573.094C357.054 574.781 358.734 575.906 360.976 575.906C363.203 575.906 364.867 574.781 364.867 573.094C364.867 571.43 363.203 570.273 360.976 570.281C358.734 570.273 357.054 571.43 357.07 573.094ZM380.875 579.516V580.547H368.156V579.516H373.875V576.891H369.75V572.609H378.062V570.422H369.719V569.406H379.266V573.609H370.969V575.875H379.594V576.891H375.078V579.516H380.875ZM105.613 597C105.606 598.914 107.051 600.68 109.098 601.391L108.473 602.375C106.895 601.797 105.668 600.625 105.051 599.156C104.465 600.812 103.207 602.086 101.567 602.719L100.895 601.734C103.012 600.992 104.402 599.109 104.41 596.953V595.234H105.613V597ZM103.129 607.969V603.656H104.379V606.938H112.442V607.969H103.129ZM110.582 604.641V594.375H111.801V598.641H113.895V599.688H111.801V604.641H110.582ZM118.278 595.031C120.137 595.023 121.559 596.109 121.825 597.703H124.731V594.375H125.965V601.828H124.731V598.719H121.832C121.59 600.359 120.161 601.453 118.278 601.453C116.161 601.453 114.661 600.141 114.668 598.234C114.661 596.352 116.161 595.023 118.278 595.031ZM115.84 598.234C115.84 599.5 116.848 600.414 118.278 600.422C119.676 600.414 120.684 599.5 120.684 598.234C120.684 596.953 119.676 596.062 118.278 596.078C116.848 596.062 115.84 596.953 115.84 598.234ZM117.012 608.078V602.531H118.247V604.297H124.731V602.531H125.965V608.078H117.012ZM118.247 607.078H124.731V605.281H118.247V607.078ZM129.427 603.062C128.88 603.055 128.411 602.602 128.427 602.047C128.411 601.5 128.88 601.047 129.427 601.047C129.981 601.047 130.434 601.5 130.427 602.047C130.434 602.602 129.981 603.055 129.427 603.062ZM143.575 594.375V608.266H142.403V594.375H143.575ZM131.528 604.562C133.466 603.406 134.599 600.867 134.591 598.344V597.031H131.919V596.016H138.325V597.031H135.778V598.344C135.778 600.742 136.864 603.141 138.778 604.25L138.028 605.156C136.661 604.336 135.693 602.836 135.208 601.07C134.708 602.984 133.7 604.617 132.31 605.484L131.528 604.562ZM137.263 600.391V599.391H139.607V594.719H140.763V607.547H139.607V600.391H137.263ZM157.865 601.094V602.109H152.13V603.75H156.318V608.078H146.755V603.75H150.927V602.109H145.208V601.094H157.865ZM146.396 595.844V594.828H156.662V595.844H154.521V598.766H156.615V599.781H146.443V598.766H148.537V595.844H146.396ZM147.974 607.078H155.115V604.719H147.974V607.078ZM149.755 598.766H153.302V595.844H149.755V598.766ZM175.068 601.734V602.719H162.397V601.734H175.068ZM163.818 605.062V604.078H173.428V608.266H172.178V605.062H163.818ZM164.084 600.391V594.75H173.49V595.734H165.318V597.062H173.115V598.016H165.318V599.438H173.568V600.391H164.084ZM180.702 596.562C180.686 598.547 182.1 600.289 184.139 600.984L183.452 601.938C181.92 601.367 180.717 600.234 180.116 598.773C179.522 600.438 178.256 601.727 176.577 602.359L175.905 601.359C178.045 600.609 179.467 598.766 179.483 596.609V595.172H180.702V596.562ZM178.17 605.641C178.163 603.969 179.936 603.008 182.827 603.016C185.709 603.008 187.483 603.969 187.483 605.641C187.483 607.297 185.709 608.234 182.827 608.234C179.936 608.234 178.163 607.297 178.17 605.641ZM179.389 605.641C179.381 606.648 180.694 607.258 182.827 607.25C184.952 607.258 186.264 606.648 186.264 605.641C186.264 604.602 184.952 603.984 182.827 603.984C180.694 603.984 179.381 604.602 179.389 605.641ZM183.108 598.375V597.359H186.202V594.375H187.436V602.609H186.202V598.375H183.108ZM201.335 594.375V608.266H200.147V594.375H201.335ZM189.6 600.375C189.608 597.422 190.78 595.555 192.585 595.547C194.272 595.555 195.413 597.18 195.569 599.797H197.366V594.672H198.538V607.562H197.366V600.812H195.577C195.46 603.516 194.296 605.211 192.585 605.203C190.78 605.211 189.608 603.328 189.6 600.375ZM190.757 600.375C190.741 602.625 191.46 604.047 192.585 604.031C193.717 604.047 194.436 602.625 194.428 600.375C194.436 598.117 193.717 596.703 192.585 596.703C191.46 596.703 190.741 598.117 190.757 600.375ZM211.898 601.703V604.266C213.242 604.195 214.601 604.086 215.882 603.891L215.976 604.797C212.796 605.375 209.382 605.398 206.882 605.391L206.71 604.375C207.874 604.367 209.249 604.359 210.695 604.312V601.703H211.898ZM207.132 601.219C209.187 600.609 210.632 599.086 210.663 597.219H207.476V596.203H210.695V594.484H211.898V596.203H215.163V597.219H211.898C211.937 599.008 213.421 600.477 215.476 601.062L214.898 602.031C213.234 601.531 211.921 600.461 211.296 599.055C210.695 600.539 209.398 601.648 207.726 602.156L207.132 601.219ZM216.804 608.297V594.375H218.023V608.297H216.804ZM224.968 596.938C224.968 598.742 226.359 600.469 228.39 601.172L227.75 602.141C226.187 601.578 224.976 600.414 224.383 598.984C223.781 600.578 222.492 601.859 220.843 602.469L220.203 601.5C222.25 600.766 223.734 598.914 223.734 596.953V596.344H220.593V595.344H228.078V596.344H224.968V596.938ZM222.312 604.453V603.438H231.656V608.266H230.422V604.453H222.312ZM227.64 599.047V598.016H230.422V594.375H231.656V602.703H230.422V599.047H227.64ZM244.43 594.375V600.297H246.648V601.328H244.43V608.266H243.195V594.375H244.43ZM233.477 604.562C234.609 604.562 235.93 604.555 237.305 604.516V602.984C235.688 602.797 234.633 601.844 234.648 600.469C234.633 598.898 235.961 597.883 237.93 597.891C239.867 597.883 241.219 598.898 241.227 600.469C241.219 601.852 240.148 602.797 238.539 602.984V604.469C239.828 604.406 241.141 604.297 242.352 604.125L242.43 605.062C239.398 605.578 236.117 605.609 233.68 605.609L233.477 604.562ZM233.727 597.078V596.078H237.305V594.406H238.539V596.078H242.102V597.078H233.727ZM235.789 600.469C235.797 601.43 236.641 602.062 237.93 602.047C239.195 602.062 240.047 601.43 240.055 600.469C240.047 599.5 239.195 598.844 237.93 598.844C236.641 598.844 235.797 599.5 235.789 600.469ZM255.235 598.938V599.938H252.422V601.875C253.719 601.82 255.016 601.727 256.219 601.594L256.313 602.5C253.321 602.914 250.016 603 247.407 603L247.219 602C248.438 601.992 249.805 601.977 251.203 601.93V599.938H248.485V595.281H255.125V596.297H249.719V598.938H255.235ZM249.594 607.969V604.062H250.813V606.938H259.063V607.969H249.594ZM257.375 604.781V594.391H258.61V604.781H257.375ZM277.063 601.734V602.734H271.407V605.453H270.188V602.734H264.345V601.734H277.063ZM265.97 607.969V604.172H267.188V606.938H275.642V607.969H265.97ZM266.048 600.375V594.828H267.267V596.609H274.142V594.828H275.36V600.375H266.048ZM267.267 599.375H274.142V597.547H267.267V599.375ZM282.603 596.609C282.595 598.523 284.025 600.289 286.04 600.984L285.368 601.969C283.829 601.398 282.618 600.219 282.025 598.734C281.439 600.375 280.189 601.656 278.556 602.297L277.884 601.281C279.993 600.539 281.384 598.703 281.4 596.562V595.094H282.603V596.609ZM280.04 604.344V603.359H289.384V608.266H288.15V604.344H280.04ZM285.056 598.328V597.297H288.15V594.375H289.384V602.594H288.15V598.328H285.056ZM297.705 594.625C300.791 594.625 302.603 595.477 302.611 597.016C302.603 598.594 300.791 599.445 297.705 599.453C294.603 599.445 292.783 598.594 292.783 597.016C292.783 595.477 294.603 594.625 297.705 594.625ZM291.377 601.391V600.391H304.033V601.391H291.377ZM292.908 603.531V602.594H302.408V605.703H294.158V607.141H302.83V608.109H292.939V604.797H301.205V603.531H292.908ZM294.064 597.016C294.048 597.984 295.4 598.516 297.705 598.516C300.009 598.516 301.353 597.984 301.361 597.016C301.353 596.102 300.009 595.555 297.705 595.547C295.4 595.555 294.048 596.102 294.064 597.016ZM320.455 594.375V608.266H319.283V594.375H320.455ZM308.408 604.562C310.346 603.406 311.479 600.867 311.471 598.344V597.031H308.799V596.016H315.205V597.031H312.658V598.344C312.658 600.742 313.744 603.141 315.658 604.25L314.908 605.156C313.541 604.336 312.573 602.836 312.088 601.07C311.588 602.984 310.58 604.617 309.19 605.484L308.408 604.562ZM314.143 600.391V599.391H316.487V594.719H317.643V607.547H316.487V600.391H314.143ZM328.37 603.156C331.346 603.156 333.237 604.094 333.245 605.703C333.237 607.297 331.346 608.234 328.37 608.234C325.393 608.234 323.503 607.297 323.51 605.703C323.503 604.094 325.393 603.156 328.37 603.156ZM322.104 601.859V600.859H327.338V598.172H328.542V600.859H334.745V601.859H322.104ZM323.604 596.094V595.094H333.135V596.266C333.128 597.391 333.128 598.516 332.745 599.953L331.542 599.812C331.917 598.383 331.917 597.352 331.917 596.266V596.094H323.604ZM324.729 605.703C324.721 606.672 326.159 607.266 328.37 607.266C330.588 607.266 332.01 606.672 332.026 605.703C332.01 604.711 330.588 604.102 328.37 604.094C326.159 604.102 324.721 604.711 324.729 605.703ZM346.456 594.375V597.938H348.55V598.984H346.456V602.453H345.237V594.375H346.456ZM335.628 596.828V595.812H339.159V594.25H340.378V595.812H343.909V596.828H335.628ZM336.425 599.906C336.417 598.422 337.753 597.477 339.768 597.469C341.761 597.477 343.097 598.422 343.112 599.906C343.097 601.391 341.761 602.352 339.768 602.344C337.753 602.352 336.417 601.391 336.425 599.906ZM337.597 599.906C337.589 600.812 338.456 601.406 339.768 601.406C341.065 601.406 341.94 600.812 341.956 599.906C341.94 599.008 341.065 598.406 339.768 598.422C338.456 598.406 337.589 599.008 337.597 599.906ZM337.675 608.078V603.062H338.893V604.547H345.237V603.062H346.456V608.078H337.675ZM338.893 607.094H345.237V605.516H338.893V607.094ZM360.558 594.375V608.266H359.339V594.375H360.558ZM350.011 604.688V595.75H351.214V603.625C353.339 603.609 355.527 603.445 357.855 602.953L358.027 604C355.558 604.516 353.362 604.688 351.136 604.688H350.011ZM373.363 594.375V599.875H375.691V600.906H373.363V608.297H372.144V594.375H373.363ZM363.222 604.812V595.734H369.707V596.75H364.441V603.781C366.957 603.773 368.73 603.664 370.8 603.281L370.957 604.344C368.777 604.734 366.957 604.812 364.316 604.812H363.222ZM377.59 607.094C377.043 607.086 376.574 606.633 376.59 606.078C376.574 605.531 377.043 605.078 377.59 605.078C378.144 605.078 378.598 605.531 378.59 606.078C378.598 606.633 378.144 607.086 377.59 607.094ZM49.1391 627.375V628.375H43.4047V629.969H47.5766V634.219H46.3422V630.969H37.8891V629.969H42.2016V628.375H36.4828V627.375H49.1391ZM37.2328 625.656C39.8344 625.398 42.0375 624.32 42.1391 622.734H37.7953V621.75H42.2016V620.312H43.4047V621.75H47.8578V622.734H43.4828C43.5688 624.32 45.7641 625.398 48.3891 625.656L47.9828 626.594C45.6938 626.352 43.6469 625.516 42.8109 624.102C41.9594 625.516 39.9125 626.352 37.6391 626.594L37.2328 625.656ZM54.8191 622.938C54.8191 624.742 56.2097 626.469 58.2409 627.172L57.6003 628.141C56.0378 627.578 54.8269 626.414 54.2331 624.984C53.6316 626.578 52.3425 627.859 50.6941 628.469L50.0534 627.5C52.1003 626.766 53.5847 624.914 53.5847 622.953V622.344H50.4441V621.344H57.9284V622.344H54.8191V622.938ZM52.1628 630.453V629.438H61.5066V634.266H60.2722V630.453H52.1628ZM57.4909 625.047V624.016H60.2722V620.375H61.5066V628.703H60.2722V625.047H57.4909ZM71.5772 624.938V625.938H68.7647V627.875C70.0616 627.82 71.3584 627.727 72.5616 627.594L72.6553 628.5C69.6631 628.914 66.3584 629 63.7491 629L63.5616 628C64.7803 627.992 66.1475 627.977 67.5459 627.93V625.938H64.8272V621.281H71.4678V622.297H66.0616V624.938H71.5772ZM65.9366 633.969V630.062H67.1553V632.938H75.4053V633.969H65.9366ZM73.7178 630.781V620.391H74.9522V630.781H73.7178ZM92.5934 620.375V634.266H91.4059V620.375H92.5934ZM81.2497 630.922V622.094H86.4841V623.109H82.4372V629.891C84.445 629.875 85.7106 629.805 87.2028 629.469L87.3278 630.516C85.7184 630.844 84.3591 630.914 82.1247 630.922H81.2497ZM85.5466 626.719V625.688H88.5778V620.719H89.7497V633.547H88.5778V626.719H85.5466ZM105.664 620.375V634.297H104.43V620.375H105.664ZM94.7266 626.297C94.7344 623.344 96.2031 621.461 98.2734 621.453C100.336 621.461 101.828 623.344 101.82 626.297C101.828 629.258 100.336 631.133 98.2734 631.125C96.2031 631.133 94.7344 629.258 94.7266 626.297ZM95.9141 626.297C95.9141 628.555 96.8828 630.039 98.2734 630.031C99.6719 630.039 100.633 628.555 100.633 626.297C100.633 624.039 99.6719 622.555 98.2734 622.547C96.8828 622.555 95.9141 624.039 95.9141 626.297ZM119.235 620.375V634.297H118.016V626.641H115.078V625.625H118.016V620.375H119.235ZM108.36 630.938V621.656H114.844V622.672H109.594V625.562H114.235V626.562H109.594V629.922C112.141 629.914 113.782 629.844 115.688 629.5L115.828 630.516C113.805 630.844 112.11 630.938 109.422 630.938H108.36ZM125.415 621.281C127.548 621.297 129.11 622.609 129.118 624.547C129.11 626.289 127.844 627.523 126.04 627.758V630.117C127.337 630.062 128.641 629.969 129.852 629.812L129.93 630.734C126.985 631.234 123.704 631.266 121.258 631.25L121.055 630.219C122.173 630.211 123.462 630.203 124.805 630.164V627.758C122.962 627.539 121.704 626.297 121.712 624.547C121.704 622.609 123.243 621.297 125.415 621.281ZM122.915 624.547C122.899 625.852 123.954 626.758 125.415 626.75C126.852 626.758 127.899 625.852 127.915 624.547C127.899 623.242 126.852 622.352 125.415 622.344C123.954 622.352 122.899 623.242 122.915 624.547ZM130.743 634.266V620.375H131.962V626.109H134.227V627.172H131.962V634.266H130.743ZM149.681 626.703V627.734H145.368V631.438H151.15V632.453H138.431V631.438H144.15V627.734H139.993V621.562H141.243V626.703H149.681ZM162.689 620.375V626.109H165.017V627.125H162.689V634.266H161.47V620.375H162.689ZM151.861 623.625V622.609H155.439V620.547H156.658V622.609H160.127V623.625H151.861ZM152.658 627.969C152.65 626.094 154.088 624.781 156.064 624.781C158.025 624.781 159.455 626.094 159.47 627.969C159.455 629.852 158.025 631.156 156.064 631.156C154.088 631.156 152.65 629.852 152.658 627.969ZM153.83 627.969C153.822 629.234 154.767 630.125 156.064 630.109C157.345 630.125 158.283 629.234 158.298 627.969C158.283 626.711 157.345 625.805 156.064 625.812C154.767 625.805 153.822 626.711 153.83 627.969ZM178.15 628.344V629.375H172.353V634.266H171.15V629.375H165.432V628.344H178.15ZM166.869 624C166.877 622.117 168.838 620.945 171.76 620.938C174.674 620.945 176.65 622.117 176.65 624C176.65 625.852 174.674 627.023 171.76 627.016C168.838 627.023 166.877 625.852 166.869 624ZM168.135 624C168.119 625.234 169.596 626.031 171.76 626.031C173.924 626.031 175.393 625.234 175.4 624C175.393 622.742 173.924 621.938 171.76 621.938C169.596 621.938 168.119 622.742 168.135 624ZM190.19 624.594V625.578H180.674V620.891H181.893V624.594H190.19ZM178.94 628.469V627.469H191.658V628.469H178.94ZM180.596 633.922V629.891H181.815V632.906H190.268V633.922H180.596ZM208.878 631.469V632.484H196.159V631.469H201.878V628.469H197.659V621.359H198.893V623.875H206.112V621.359H207.315V628.469H203.081V631.469H208.878ZM198.893 627.469H206.112V624.875H198.893V627.469ZM220.417 620.375V625.875H222.745V626.906H220.417V634.297H219.198V620.375H220.417ZM210.277 630.812V621.734H216.761V622.75H211.495V629.781C214.011 629.773 215.784 629.664 217.855 629.281L218.011 630.344C215.831 630.734 214.011 630.812 211.37 630.812H210.277ZM238.387 620.375V628.656H237.152V625.016H234.355V624H237.152V620.375H238.387ZM226.933 627.547C228.996 626.805 230.465 624.922 230.465 622.938V622.422H227.324V621.391H234.808V622.422H231.699V622.922C231.699 624.734 233.09 626.461 235.121 627.156L234.48 628.141C232.926 627.578 231.715 626.406 231.113 624.977C230.519 626.602 229.23 627.898 227.574 628.531L226.933 627.547ZM229.121 631.672C229.113 630.039 230.887 629.086 233.777 629.094C236.66 629.086 238.433 630.039 238.433 631.672C238.433 633.312 236.66 634.25 233.777 634.266C230.887 634.25 229.113 633.312 229.121 631.672ZM230.34 631.672C230.332 632.68 231.644 633.289 233.777 633.281C235.902 633.289 237.215 632.68 237.215 631.672C237.215 630.656 235.902 630.047 233.777 630.047C231.644 630.047 230.332 630.656 230.34 631.672ZM247.629 621.156V626.812H241.113V621.156H247.629ZM242.317 625.844H246.426V622.156H242.317V625.844ZM242.817 629.219V628.234H251.832V631.547H244.051V633.109H252.332V634.109H242.832V630.641H250.629V629.219H242.817ZM250.629 627.547V620.375H251.832V627.547H250.629ZM264.747 620.391V624.969H266.84V626H264.747V630.797H263.528V620.391H264.747ZM253.918 623.094V622.094H257.45V620.391H258.668V622.094H262.2V623.094H253.918ZM254.715 626.453C254.708 624.875 256.051 623.859 258.059 623.859C260.043 623.859 261.387 624.875 261.403 626.453C261.387 628.016 260.043 629.023 258.059 629.016C256.051 629.023 254.708 628.016 254.715 626.453ZM255.887 626.453C255.879 627.43 256.747 628.062 258.059 628.047C259.356 628.062 260.231 627.43 260.247 626.453C260.231 625.461 259.356 624.82 258.059 624.828C256.747 624.82 255.879 625.461 255.887 626.453ZM256.059 633.969V629.969H257.262V632.938H265.387V633.969H256.059ZM278.888 621.438V622.453H277.466V626.898C278.107 626.852 278.739 626.797 279.341 626.719L279.403 627.656C276.693 628.07 273.536 628.117 271.278 628.109L271.122 627.078C271.677 627.078 272.278 627.078 272.919 627.07V622.453H271.513V621.438H278.888ZM273.341 631.734C273.333 630.148 275.091 629.242 277.997 629.25C280.903 629.242 282.653 630.148 282.653 631.734C282.653 633.32 280.903 634.234 277.997 634.234C275.091 634.234 273.333 633.32 273.341 631.734ZM274.107 627.047C274.818 627.031 275.552 627.008 276.278 626.969V622.453H274.107V627.047ZM274.56 631.734C274.552 632.703 275.857 633.266 277.997 633.266C280.13 633.266 281.435 632.703 281.435 631.734C281.435 630.781 280.13 630.203 277.997 630.203C275.857 630.203 274.552 630.781 274.56 631.734ZM279.028 626.375V625.359H281.372V623.891H279.028V622.875H281.372V620.375H282.607V628.953H281.372V626.375H279.028ZM295.349 620.375V626.031H297.599V627.062H295.349V634.266H294.13V620.375H295.349ZM284.693 630.656C288.279 628.875 290.232 626.195 290.513 622.906H285.333V621.875H291.755C291.747 625.805 289.904 629.391 285.38 631.625L284.693 630.656ZM302.295 621.281C304.428 621.297 305.99 622.609 305.998 624.547C305.99 626.289 304.724 627.523 302.92 627.758V630.117C304.217 630.062 305.521 629.969 306.732 629.812L306.81 630.734C303.865 631.234 300.584 631.266 298.138 631.25L297.935 630.219C299.053 630.211 300.342 630.203 301.685 630.164V627.758C299.842 627.539 298.584 626.297 298.592 624.547C298.584 622.609 300.123 621.297 302.295 621.281ZM299.795 624.547C299.779 625.852 300.834 626.758 302.295 626.75C303.732 626.758 304.779 625.852 304.795 624.547C304.779 623.242 303.732 622.352 302.295 622.344C300.834 622.352 299.779 623.242 299.795 624.547ZM307.623 634.266V620.375H308.842V626.109H311.107V627.172H308.842V634.266H307.623ZM322.248 622.781V623.781H315.28V622.781H318.17V620.797H319.389V622.781H322.248ZM315.78 627.875C315.78 626.031 317.038 624.727 318.764 624.719C320.514 624.727 321.764 626.031 321.78 627.875C321.764 629.742 320.514 631.055 318.764 631.062C317.038 631.055 315.78 629.742 315.78 627.875ZM316.873 627.875C316.873 629.109 317.663 629.992 318.764 629.984C319.873 629.992 320.686 629.109 320.686 627.875C320.686 626.656 319.873 625.766 318.764 625.75C317.663 625.766 316.873 626.656 316.873 627.875ZM322.967 633.578V620.719H324.123V626.234H325.967V620.375H327.139V634.266H325.967V627.25H324.123V633.578H322.967ZM333.553 622.609C333.546 624.523 334.975 626.289 336.991 626.984L336.319 627.969C334.78 627.398 333.569 626.219 332.975 624.734C332.389 626.375 331.139 627.656 329.507 628.297L328.835 627.281C330.944 626.539 332.335 624.703 332.35 622.562V621.094H333.553V622.609ZM330.991 630.344V629.359H340.335V634.266H339.1V630.344H330.991ZM336.007 624.328V623.297H339.1V620.375H340.335V628.594H339.1V624.328H336.007ZM348.655 621.281C351.554 621.289 353.733 622.805 353.733 625.094C353.733 627.406 351.554 628.922 348.655 628.906C345.757 628.922 343.577 627.406 343.577 625.094C343.577 622.805 345.757 621.289 348.655 621.281ZM342.327 632.422V631.391H355.046V632.422H342.327ZM344.749 625.094C344.733 626.781 346.413 627.906 348.655 627.906C350.882 627.906 352.546 626.781 352.546 625.094C352.546 623.43 350.882 622.273 348.655 622.281C346.413 622.273 344.733 623.43 344.749 625.094ZM368.554 631.516V632.547H355.835V631.516H361.554V628.891H357.429V624.609H365.742V622.422H357.398V621.406H366.945V625.609H358.648V627.875H367.273V628.891H362.757V631.516H368.554ZM384.492 620.375V634.297H383.258V620.375H384.492ZM373.555 626.297C373.562 623.344 375.031 621.461 377.102 621.453C379.164 621.461 380.656 623.344 380.648 626.297C380.656 629.258 379.164 631.133 377.102 631.125C375.031 631.133 373.562 629.258 373.555 626.297ZM374.742 626.297C374.742 628.555 375.711 630.039 377.102 630.031C378.5 630.039 379.461 628.555 379.461 626.297C379.461 624.039 378.5 622.555 377.102 622.547C375.711 622.555 374.742 624.039 374.742 626.297ZM390.282 621.453C392.172 621.461 393.539 623.086 393.727 625.688H396.844V620.375H398.063V634.297H396.844V626.703H393.742C393.61 629.43 392.219 631.133 390.282 631.125C388.227 631.133 386.789 629.258 386.797 626.297C386.789 623.344 388.227 621.461 390.282 621.453ZM387.969 626.297C387.977 628.555 388.914 630.039 390.282 630.031C391.641 630.039 392.594 628.555 392.594 626.297C392.594 624.039 391.641 622.555 390.282 622.547C388.914 622.555 387.977 624.039 387.969 626.297ZM405.055 622.672C405.063 624.484 406.563 626.094 408.633 626.719L408.008 627.688C406.383 627.172 405.079 626.055 404.454 624.617C403.837 626.156 402.524 627.359 400.868 627.922L400.227 626.953C402.321 626.289 403.813 624.578 403.821 622.672V622.312H400.571V621.312H408.258V622.312H405.055V622.672ZM402.524 634.078V628.578H403.743V630.266H410.305V628.578H411.524V634.078H402.524ZM403.743 633.078H410.305V631.25H403.743V633.078ZM410.305 627.891V620.375H411.524V627.891H410.305ZM425.017 620.375V634.266H423.798V620.375H425.017ZM414.47 630.688V621.75H415.673V629.625C417.798 629.609 419.985 629.445 422.313 628.953L422.485 630C420.017 630.516 417.821 630.688 415.595 630.688H414.47ZM437.822 620.375V625.875H440.15V626.906H437.822V634.297H436.603V620.375H437.822ZM427.681 630.812V621.734H434.165V622.75H428.9V629.781C431.415 629.773 433.189 629.664 435.259 629.281L435.415 630.344C433.236 630.734 431.415 630.812 428.775 630.812H427.681ZM442.048 633.094C441.502 633.086 441.033 632.633 441.048 632.078C441.033 631.531 441.502 631.078 442.048 631.078C442.603 631.078 443.056 631.531 443.048 632.078C443.056 632.633 442.603 633.086 442.048 633.094Z" fill="black"/>
</svg>
