<svg width="648" height="54" viewBox="0 0 648 54" fill="none" xmlns="http://www.w3.org/2000/svg">
<path d="M0 33.1406C0 26.4688 5.55078 24.5273 11.0469 24.1719C13.125 24.0078 17.3633 23.8164 18.6758 23.7617L18.6484 21.3828C18.6484 18.4297 16.7617 16.7344 13.2891 16.7344C10.1719 16.7344 8.25781 18.1562 7.71094 20.2891H0.984375C1.47656 15.2305 6.01562 11.4297 13.4531 11.4297C19.0859 11.4297 25.5938 13.7539 25.5938 21.6562V41.5078H18.9219V37.4062H18.7031C17.3906 39.9219 14.6289 42.1094 9.95312 42.1094C4.29297 42.1094 0 39.0195 0 33.1406ZM6.72656 33.0859C6.72656 35.6562 8.83203 36.9688 11.7578 36.9688C15.9961 36.9688 18.7031 34.1797 18.7031 30.8438L18.6758 28.4102C17.418 28.4648 13.5352 28.7109 12.1406 28.8203C8.83203 29.0938 6.72656 30.4883 6.72656 33.0859ZM38.0362 24.1172V41.5078H31.0362V11.8125H37.7081V16.8438H38.0909C39.4308 13.5352 42.4659 11.4297 46.8956 11.4297C53.048 11.4297 57.0948 15.4766 57.0675 22.5859V41.5078H50.1222V23.6797C50.1222 19.6875 47.962 17.3086 44.3253 17.3359C40.6339 17.3086 38.0362 19.7969 38.0362 24.1172ZM61.2522 33.1406C61.2522 26.4688 66.803 24.5273 72.2991 24.1719C74.3772 24.0078 78.6155 23.8164 79.928 23.7617L79.9006 21.3828C79.9006 18.4297 78.0139 16.7344 74.5412 16.7344C71.4241 16.7344 69.51 18.1562 68.9631 20.2891H62.2366C62.7287 15.2305 67.2678 11.4297 74.7053 11.4297C80.3381 11.4297 86.8459 13.7539 86.8459 21.6562V41.5078H80.1741V37.4062H79.9553C78.6428 39.9219 75.8811 42.1094 71.2053 42.1094C65.5452 42.1094 61.2522 39.0195 61.2522 33.1406ZM67.9787 33.0859C67.9787 35.6562 70.0842 36.9688 73.01 36.9688C77.2483 36.9688 79.9553 34.1797 79.9553 30.8438L79.928 28.4102C78.6702 28.4648 74.7873 28.7109 73.3928 28.8203C70.0842 29.0938 67.9787 30.4883 67.9787 33.0859ZM99.2884 1.91406V41.5078H92.2884V1.91406H99.2884ZM109.051 52.6641C107.657 52.6367 106.344 52.6094 105.442 52.5V46.9219C106.29 47.0039 107.465 47.0039 108.395 47.0312C110.09 47.0039 111.512 46.8945 112.715 43.6953L113.317 42.1094L102.489 11.8125H109.872L116.762 34.2344H117.09L123.981 11.8125H131.364L119.442 45.1172C117.747 49.8477 114.629 52.6367 109.051 52.6641ZM151.462 20.2891C151.025 18.0469 149.166 16.5977 146.212 16.625C143.232 16.5977 141.045 18.1016 141.072 20.125C141.045 21.6562 142.275 22.8047 145.283 23.5156L150.314 24.5547C155.92 25.7852 158.654 28.3828 158.681 32.6484C158.654 38.2266 153.759 42.1094 145.994 42.1094C138.447 42.1094 133.99 38.7188 133.252 33.0312H140.361C140.771 35.5742 142.74 36.832 145.994 36.8047C149.357 36.832 151.545 35.4648 151.572 33.25C151.545 31.5273 150.205 30.4336 147.252 29.8047L142.494 28.7656C136.97 27.6445 134.099 24.7461 134.127 20.5078C134.099 15.0117 138.857 11.4297 146.103 11.4297C153.185 11.4297 157.56 14.9023 158.08 20.2891H151.462ZM162.866 41.5078V11.8125H169.866V41.5078H162.866ZM162.374 3.77344C162.374 1.69531 164.206 0 166.421 0C168.635 0 170.467 1.69531 170.467 3.77344C170.467 5.87891 168.635 7.57422 166.421 7.60156C164.206 7.57422 162.374 5.87891 162.374 3.77344ZM192.262 20.2891C191.824 18.0469 189.965 16.5977 187.012 16.625C184.031 16.5977 181.844 18.1016 181.871 20.125C181.844 21.6562 183.074 22.8047 186.082 23.5156L191.113 24.5547C196.719 25.7852 199.453 28.3828 199.48 32.6484C199.453 38.2266 194.558 42.1094 186.793 42.1094C179.246 42.1094 174.789 38.7188 174.051 33.0312H181.16C181.57 35.5742 183.539 36.832 186.793 36.8047C190.156 36.832 192.344 35.4648 192.371 33.25C192.344 31.5273 191.004 30.4336 188.051 29.8047L183.293 28.7656C177.769 27.6445 174.898 24.7461 174.926 20.5078C174.898 15.0117 179.656 11.4297 186.902 11.4297C193.984 11.4297 198.359 14.9023 198.879 20.2891H192.262ZM230.654 11.8125V17.1719H224.803V32.5938C224.803 35.4375 226.225 36.0117 227.975 36.0391C228.795 36.0664 230.162 35.9844 231.037 35.9297V41.6172C230.217 41.7539 228.877 41.918 227.1 41.8906C221.85 41.918 217.803 39.3203 217.857 33.7422V17.1719H213.592V11.8125H217.857V4.70312H224.803V11.8125H230.654ZM242.55 24.1172V41.5078H235.55V1.91406H242.386V16.8438H242.769C244.109 13.4805 247.007 11.4297 251.573 11.4297C257.726 11.4297 261.8 15.4219 261.8 22.5859V41.5078H254.855V23.6797C254.827 19.6328 252.667 17.3086 249.003 17.3359C245.23 17.3086 242.55 19.7969 242.55 24.1172ZM267.297 41.5078V11.8125H274.078V16.7344H274.407C275.473 13.3164 278.317 11.375 281.735 11.375C282.5 11.375 283.594 11.457 284.25 11.5391V17.9922C283.621 17.7734 282.172 17.582 281.024 17.5547C277.141 17.582 274.297 20.2617 274.297 24.0078V41.5078H267.297ZM299.263 42.1094C290.595 42.1094 285.044 35.957 285.044 26.7969C285.044 17.5547 290.595 11.4297 299.263 11.4297C307.958 11.4297 313.509 17.5547 313.482 26.7969C313.509 35.957 307.958 42.1094 299.263 42.1094ZM292.099 26.7422C292.099 32.1836 294.478 36.5312 299.318 36.5312C304.076 36.5312 306.455 32.1836 306.427 26.7422C306.455 21.3008 304.076 16.9258 299.318 16.9531C294.478 16.9258 292.099 21.3008 292.099 26.7422ZM336.753 29.0391V11.8125H343.698V41.5078H336.971V36.2578H336.643C335.276 39.5664 332.159 41.8906 327.729 41.8906C321.85 41.8906 317.803 37.8438 317.776 30.7344V11.8125H324.776V29.6406C324.776 33.4141 327.018 35.8203 330.409 35.8203C333.471 35.8203 336.753 33.5781 336.753 29.0391ZM362.211 53.2656C354.336 53.2656 349.332 49.7656 348.867 44.1875H355.812C356.304 46.7852 358.738 47.9883 362.32 48.0156C366.504 47.9883 369.211 46.1836 369.211 41.8359V36.1484H368.883C367.789 38.3359 365.41 41.0703 360.297 41.0703C353.433 41.0703 348.047 36.0938 348.047 26.4141C348.047 16.6523 353.461 11.4297 360.351 11.4297C365.574 11.4297 367.789 14.5742 368.883 16.6797H369.211V11.8125H376.101V42C376.101 49.6016 370.222 53.2656 362.211 53.2656ZM355.156 26.5234C355.156 31.9922 357.617 35.6016 362.211 35.6016C366.722 35.6016 369.265 32.2109 369.265 26.5234C369.265 20.8633 366.75 17.1445 362.211 17.1172C357.562 17.1445 355.156 21.1094 355.156 26.5234ZM388.653 24.1172V41.5078H381.653V1.91406H388.489V16.8438H388.872C390.212 13.4805 393.11 11.4297 397.677 11.4297C403.829 11.4297 407.903 15.4219 407.903 22.5859V41.5078H400.958V23.6797C400.93 19.6328 398.77 17.3086 395.106 17.3359C391.333 17.3086 388.653 19.7969 388.653 24.1172ZM442.413 20.2891C441.976 18.0469 440.116 16.5977 437.163 16.625C434.183 16.5977 431.995 18.1016 432.022 20.125C431.995 21.6562 433.226 22.8047 436.233 23.5156L441.265 24.5547C446.87 25.7852 449.605 28.3828 449.632 32.6484C449.605 38.2266 444.71 42.1094 436.944 42.1094C429.397 42.1094 424.94 38.7188 424.202 33.0312H431.312C431.722 35.5742 433.69 36.832 436.944 36.8047C440.308 36.832 442.495 35.4648 442.522 33.25C442.495 31.5273 441.155 30.4336 438.202 29.8047L433.444 28.7656C427.921 27.6445 425.05 24.7461 425.077 20.5078C425.05 15.0117 429.808 11.4297 437.054 11.4297C444.136 11.4297 448.511 14.9023 449.03 20.2891H442.413ZM466.777 42.1094C457.918 42.1094 452.559 35.7656 452.559 26.7969C452.559 17.6914 458.082 11.4297 466.777 11.4297C473.969 11.4297 479.027 15.6406 479.52 22.0391H472.848C472.301 19.1953 470.223 17.0352 466.832 17.0078C462.512 17.0352 459.613 20.6445 459.613 26.6328C459.613 32.7578 462.457 36.3945 466.832 36.4219C469.922 36.3945 472.219 34.5898 472.848 31.3906H479.52C479 37.6523 474.242 42.1094 466.777 42.1094ZM483.65 41.5078V11.8125H490.65V41.5078H483.65ZM483.158 3.77344C483.158 1.69531 484.99 0 487.204 0C489.419 0 491.251 1.69531 491.251 3.77344C491.251 5.87891 489.419 7.57422 487.204 7.60156C484.99 7.57422 483.158 5.87891 483.158 3.77344ZM509.381 42.1094C500.44 42.1094 494.944 36.1484 494.944 26.8516C494.944 17.6641 500.522 11.4297 508.998 11.4297C516.272 11.4297 522.561 15.9961 522.561 26.4141V28.6016H501.834C501.944 33.6602 504.924 36.668 509.436 36.6406C512.498 36.668 514.549 35.3555 515.452 33.5781H522.288C521.03 38.7188 516.272 42.1094 509.381 42.1094ZM501.862 23.8438H515.889C515.862 19.7969 513.127 16.8438 509.108 16.8438C504.924 16.8438 502.108 20.0703 501.862 23.8438ZM533.855 24.1172V41.5078H526.855V11.8125H533.527V16.8438H533.91C535.25 13.5352 538.285 11.4297 542.714 11.4297C548.867 11.4297 552.914 15.4766 552.886 22.5859V41.5078H545.941V23.6797C545.941 19.6875 543.781 17.3086 540.144 17.3359C536.453 17.3086 533.855 19.7969 533.855 24.1172ZM573.258 11.8125V17.1719H567.407V32.5938C567.407 35.4375 568.829 36.0117 570.579 36.0391C571.399 36.0664 572.766 35.9844 573.641 35.9297V41.6172C572.821 41.7539 571.481 41.918 569.704 41.8906C564.454 41.918 560.407 39.3203 560.462 33.7422V17.1719H556.196V11.8125H560.462V4.70312H567.407V11.8125H573.258ZM577.498 41.5078V11.8125H584.498V41.5078H577.498ZM577.006 3.77344C577.006 1.69531 578.838 0 581.052 0C583.267 0 585.099 1.69531 585.099 3.77344C585.099 5.87891 583.267 7.57422 581.052 7.60156C578.838 7.57422 577.006 5.87891 577.006 3.77344ZM605.089 11.8125V17.1719H598.964V41.5078H591.964V17.1719H587.534V11.8125H591.964V8.96875C591.964 3.19922 595.546 0.0546875 601.261 0.0546875C602.874 0.0546875 604.378 0.21875 605.69 0.492188V6.01562C604.542 5.85156 603.694 5.82422 603.175 5.79688C600.358 5.82422 598.936 6.91797 598.964 9.625V11.8125H605.089ZM608.945 41.5078V11.8125H615.945V41.5078H608.945ZM608.453 3.77344C608.453 1.69531 610.285 0 612.5 0C614.715 0 616.547 1.69531 616.547 3.77344C616.547 5.87891 614.715 7.57422 612.5 7.60156C610.285 7.57422 608.453 5.87891 608.453 3.77344ZM634.458 42.1094C625.599 42.1094 620.239 35.7656 620.239 26.7969C620.239 17.6914 625.763 11.4297 634.458 11.4297C641.65 11.4297 646.708 15.6406 647.2 22.0391H640.528C639.982 19.1953 637.903 17.0352 634.513 17.0078C630.193 17.0352 627.294 20.6445 627.294 26.6328C627.294 32.7578 630.138 36.3945 634.513 36.4219C637.603 36.3945 639.9 34.5898 640.528 31.3906H647.2C646.681 37.6523 641.923 42.1094 634.458 42.1094Z" fill="black"/>
</svg>
