<svg width="1802" height="324" viewBox="0 0 1802 324" fill="none" xmlns="http://www.w3.org/2000/svg">
<path d="M1712.4 319.52H1629.84V104.16H1713.04C1766.8 104.16 1799.12 126.56 1799.12 163.36C1799.12 188 1786 204.64 1765.52 212.32C1786.96 218.4 1801.36 232.16 1801.36 259.36C1801.36 301.6 1763.92 319.52 1712.4 319.52ZM1676.56 142.56V193.76H1715.28C1740.88 193.76 1752.4 184.8 1752.4 167.2C1752.4 151.2 1739.6 142.56 1715.6 142.56H1676.56ZM1676.56 232.16V281.12H1714.96C1737.68 281.12 1754.64 276 1754.64 256.16C1754.64 237.92 1741.52 232.16 1715.28 232.16H1676.56Z" fill="white"/>
<path d="M1391.69 319.52L1448.65 134.56C1456.01 111.2 1475.21 100 1495.37 100C1515.85 100 1535.05 111.2 1542.41 134.56L1599.37 319.52H1551.69L1539.21 275.36L1451.85 275.68L1439.37 319.52H1391.69ZM1488.65 148.32L1464.01 233.76H1527.05L1502.73 148.32C1501.45 143.84 1499.53 141.92 1495.69 141.92C1492.17 141.92 1489.93 143.84 1488.65 148.32Z" fill="white"/>
<path d="M1284.36 104.16V276.32H1384.84V319.52H1278.92C1249.16 319.52 1237.64 304.16 1237.64 279.52V104.16H1284.36Z" fill="white"/>
<path d="M982.295 225.12L930.455 104.16H980.695L1024.85 212.32C1026.77 216.48 1027.74 218.72 1029.66 218.72C1031.58 218.72 1032.54 216.16 1034.46 212.32L1078.29 104.16H1128.85L1076.38 225.12C1070.93 238.24 1062.62 247.52 1053.02 253.28V319.52H1006.3V253.6C996.695 247.84 988.055 238.56 982.295 225.12Z" fill="white"/>
<path d="M739.162 319.52L796.122 134.56C803.482 111.2 822.682 100 842.842 100C863.322 100 882.523 111.2 889.883 134.56L946.842 319.52H899.162L886.682 275.36L799.323 275.68L786.842 319.52H739.162ZM836.122 148.32L811.482 233.76H874.522L850.202 148.32C848.922 143.84 847.002 141.92 843.162 141.92C839.642 141.92 837.403 143.84 836.122 148.32Z" fill="white"/>
<path d="M482.682 289.12L443.003 104.16H489.723L523.643 274.72C523.963 276 524.282 276.32 524.602 276.32C524.922 276.32 525.243 276 525.562 274.72L556.602 138.4C562.362 112.16 575.482 100.96 594.682 100.96C613.882 100.96 626.683 112.16 632.763 138.08L664.443 274.72C664.763 276 664.763 276.32 665.403 276.32C665.723 276.32 665.723 275.68 666.043 274.72L698.682 104.16H745.403L707.003 288.16C702.202 310.88 688.123 324 667.323 324C648.123 324 632.763 311.84 627.643 290.08L594.682 148.64L562.042 291.04C557.242 311.84 541.242 324 522.682 324C502.842 324 487.482 311.84 482.682 289.12Z" fill="white"/>
<path d="M321.538 323.68C257.858 323.68 209.537 275.68 209.537 212C209.537 148.64 257.858 100.32 321.538 100.32C385.538 100.32 433.858 148.64 433.858 212C433.858 275.68 385.218 323.68 321.538 323.68ZM321.538 279.52C357.378 279.52 385.538 250.08 385.538 212C385.538 173.92 357.698 144.48 321.538 144.48C285.698 144.48 257.538 173.92 257.538 212C257.538 250.08 285.698 279.52 321.538 279.52Z" fill="white"/>
<path d="M111.68 324C48.96 324 0 274.4 0 212C0 149.6 48.96 100 111.68 100C149.12 100 184.96 119.84 200.96 153.44L162.88 174.88C152.32 156.32 135.68 144.48 109.76 144.48C73.92 144.48 48 172.96 48 212C48 251.04 73.6 279.52 109.76 279.52C135.68 279.52 152.96 267.68 162.88 249.12L200.96 270.56C184.96 304.16 149.12 324 111.68 324Z" fill="white"/>
</svg>
