<svg width="600" height="360" viewBox="0 0 600 360" fill="none" xmlns="http://www.w3.org/2000/svg">
<rect width="600" height="360" rx="16" fill="white"/>
<path d="M73.375 74.2656V75.6875H60.4688V74.2656H66.0312V71.5156H61.8906V64.2031H63.625V66.5156H70.1719V64.2031H71.9062V71.5156H67.75V74.2656H73.375ZM63.625 70.1094H70.1719V67.9062H63.625V70.1094ZM85.7656 69.6875V71.0625H81.5781V74.2969H87.2031V75.7188H74.2969V74.2969H79.8594V71.0625H75.8594V64.3125H85.6562V65.7031H77.5938V69.6875H85.7656ZM93.1875 67.2812C93.1875 69.4688 94.4844 71.9531 96.7188 72.9844L95.75 74.3594C94.1562 73.6094 92.9766 72.0938 92.3438 70.3281C91.7031 72.2656 90.4688 73.9219 88.8438 74.7031L87.8281 73.3438C90.0781 72.2812 91.4375 69.625 91.4531 67.2812V66.0938H88.375V64.6562H96.1406V66.0938H93.1875V67.2812ZM99.1875 63.2656V68.7656H101.359V70.2188H99.1875V77.3906H97.4531V63.2656H99.1875ZM114.859 74.3125V75.75H101.953V74.3125H105.375V71.9844H103.484V67.375H111.609V65.6406H103.453V64.2344H113.328V68.7656H105.219V70.5781H113.656V71.9844H111.594V74.3125H114.859ZM107.062 74.3125H109.891V71.9844H107.062V74.3125Z" fill="#00A7E1"/>
<path d="M77.9297 163.773V165.695C77.9062 168.273 77.9531 171.227 76.9922 175.703L74.4375 175.445C74.8008 173.746 75.0234 172.234 75.1641 170.875L62.6719 171.578L62.2969 169.352L75.3047 168.883C75.3516 167.781 75.3633 166.797 75.375 165.883H62.9531V163.773H77.9297ZM80.0156 178.328V180.484H60.7031V178.328H67.8281V173.102H70.4062V178.328H80.0156ZM86.3091 163.141C89.0044 163.164 90.9731 164.781 90.9731 167.148C90.9731 169.492 89.0044 171.109 86.3091 171.086C83.5669 171.109 81.5981 169.492 81.5981 167.148C81.5981 164.781 83.5669 163.164 86.3091 163.141ZM86.3091 165.109C84.8794 165.086 83.9184 165.906 83.9184 167.148C83.9184 168.367 84.8794 169.164 86.3091 169.164C87.6919 169.164 88.6528 168.367 88.6763 167.148C88.6528 165.906 87.6919 165.086 86.3091 165.109ZM99.3872 161.898V183.086H96.9263V161.898H99.3872ZM95.1684 162.297V182.031H92.7309V177.602H89.145V175.609H92.7309V162.297H95.1684ZM80.6606 172.398C83.5434 172.398 88.1606 172.375 91.5591 171.859L91.7466 173.805C90.3989 174.062 88.9223 174.238 87.4575 174.344V181.375H84.9966V174.484C83.5083 174.543 82.102 174.555 80.9653 174.555L80.6606 172.398ZM118.853 161.898V183.109H116.228V161.898H118.853ZM107.438 163.445C110.626 163.445 112.946 166.352 112.97 170.922C112.946 175.539 110.626 178.422 107.438 178.422C104.228 178.422 101.907 175.539 101.907 170.922C101.907 166.352 104.228 163.445 107.438 163.445ZM107.438 165.789C105.634 165.789 104.415 167.688 104.415 170.922C104.415 174.18 105.634 176.078 107.438 176.078C109.22 176.078 110.438 174.18 110.438 170.922C110.438 167.688 109.22 165.789 107.438 165.789ZM143.486 161.898V169H146.346V171.156H143.486V178.445H140.885V161.898H143.486ZM144.236 180.555V182.664H129.564V177.344H132.166V180.555H144.236ZM126.518 174.203C128.1 174.203 129.939 174.191 131.861 174.109V172.773C129.506 172.492 128.018 171.332 128.018 169.633C128.018 167.547 130.057 166.328 133.127 166.352C136.221 166.328 138.236 167.547 138.236 169.633C138.236 171.32 136.783 172.469 134.463 172.773V173.992C136.268 173.898 138.084 173.734 139.783 173.477L139.994 175.305C135.518 176.148 130.455 176.195 126.799 176.242L126.518 174.203ZM139.221 163.75V165.648H127.057V163.75H131.861V161.828H134.463V163.75H139.221ZM133.127 168.109C131.486 168.109 130.502 168.648 130.525 169.633C130.502 170.547 131.486 171.086 133.127 171.086C134.768 171.086 135.752 170.547 135.752 169.633C135.752 168.648 134.768 168.109 133.127 168.109ZM164.709 161.922V174.297H162.108V171.953H157.069V169.844H162.108V167.57H157.28C155.932 170.945 152.85 173.301 148.233 174.578L147.178 172.516C152.135 171.168 154.772 168.66 155.194 165.508H148.303V163.398H158.03C158.03 164.137 157.971 164.84 157.842 165.508H162.108V161.922H164.709ZM157.702 174.531C161.991 174.531 164.85 176.148 164.85 178.75C164.85 181.352 161.991 182.969 157.702 182.969C153.366 182.969 150.506 181.352 150.506 178.75C150.506 176.148 153.366 174.531 157.702 174.531ZM157.702 176.57C154.842 176.57 153.108 177.344 153.108 178.75C153.108 180.133 154.842 180.906 157.702 180.906C160.491 180.906 162.248 180.133 162.248 178.75C162.248 177.344 160.491 176.57 157.702 176.57ZM184.925 161.898V183.086H182.3V161.898H184.925ZM178.597 164.148C178.597 170.453 176.159 175.82 168.729 179.336L167.37 177.25C172.913 174.613 175.491 171.027 175.948 166.211H168.448V164.148H178.597ZM198.484 162.578C198.484 164.852 201.39 166.891 205.796 167.383L204.929 169.352C201.343 168.941 198.495 167.512 197.124 165.461C195.765 167.512 192.917 168.941 189.367 169.352L188.476 167.383C192.929 166.891 195.788 164.852 195.812 162.578V162.016H198.484V162.578ZM206.804 170.406V172.469H198.413V174.109H204.39V179.359H192.343V180.906H204.976V182.898H189.788V177.484H201.835V176.102H189.765V174.109H195.812V172.469H187.492V170.406H206.804ZM225.496 161.922V177.461H222.894V172.211H217.855C216.836 173.348 215.336 174.039 213.637 174.039C210.449 174.039 208.035 171.742 208.035 168.625C208.035 165.461 210.449 163.188 213.637 163.188C215.324 163.188 216.812 163.867 217.832 164.992H222.894V161.922H225.496ZM226.035 180.555V182.664H211.598V175.867H214.199V180.555H226.035ZM213.637 165.508C211.808 165.508 210.519 166.727 210.519 168.625C210.519 170.5 211.808 171.719 213.637 171.719C215.371 171.719 216.683 170.5 216.707 168.625C216.683 166.727 215.371 165.508 213.637 165.508ZM218.98 167.102C219.109 167.582 219.191 168.086 219.191 168.625C219.191 169.141 219.121 169.633 219.004 170.102H222.894V167.102H218.98ZM244.961 163.188V165.086C244.961 167.066 244.961 169.234 244.399 172.234H247.328V174.344H238.914V183.109H236.289V174.344H228.016V172.234H241.75C242.336 169.352 242.36 167.195 242.36 165.297H230.289V163.188H244.961ZM267.637 178.352V180.461H248.278V178.352H256.575V173.453H259.153V178.352H267.637ZM259.223 164.734C259.223 167.945 262.434 171.109 266.887 171.812L265.762 173.969C262.177 173.289 259.247 171.238 257.841 168.461C256.434 171.227 253.528 173.312 249.966 173.969L248.841 171.812C253.27 171.109 256.434 167.922 256.458 164.734V163.188H259.223V164.734ZM272.665 179.336L270.697 185.898H268.47L269.689 179.336H272.665ZM280.096 181V178.797L286.096 173.008C287.807 171.297 288.697 170.289 288.697 168.859C288.697 167.289 287.455 166.281 285.791 166.281C284.033 166.281 282.908 167.383 282.932 169.094H280.026C280.002 165.883 282.416 163.797 285.815 163.797C289.283 163.797 291.627 165.859 291.627 168.719C291.627 170.641 290.69 172.188 287.362 175.328L284.338 178.328V178.445H291.885V181H280.096ZM294.077 181V178.797L300.077 173.008C301.788 171.297 302.678 170.289 302.678 168.859C302.678 167.289 301.436 166.281 299.772 166.281C298.014 166.281 296.889 167.383 296.913 169.094H294.007C293.983 165.883 296.397 163.797 299.796 163.797C303.264 163.797 305.608 165.859 305.608 168.719C305.608 170.641 304.671 172.188 301.342 175.328L298.319 178.328V178.445H305.866V181H294.077ZM325.097 161.922V177.531H322.495V170.477H316.964V168.414H322.495V166.492H316.964V164.43H322.495V161.922H325.097ZM325.636 180.555V182.664H311.175V176.148H313.8V180.555H325.636ZM311.152 163.328V172.492C313.847 172.457 316.39 172.293 319.238 171.789L319.495 173.898C316.238 174.508 313.378 174.625 310.238 174.648H308.573V163.328H311.152ZM350.574 161.922V177.461H347.973V172.211H342.934C341.914 173.348 340.414 174.039 338.715 174.039C335.527 174.039 333.113 171.742 333.113 168.625C333.113 165.461 335.527 163.188 338.715 163.188C340.402 163.188 341.891 163.867 342.91 164.992H347.973V161.922H350.574ZM351.113 180.555V182.664H336.676V175.867H339.277V180.555H351.113ZM338.715 165.508C336.887 165.508 335.598 166.727 335.598 168.625C335.598 170.5 336.887 171.719 338.715 171.719C340.449 171.719 341.762 170.5 341.785 168.625C341.762 166.727 340.449 165.508 338.715 165.508ZM344.059 167.102C344.188 167.582 344.27 168.086 344.27 168.625C344.27 169.141 344.199 169.633 344.082 170.102H347.973V167.102H344.059ZM372.407 172.305V174.414H353.094V172.305H361.438V169.352H364.016V172.305H372.407ZM364.04 163.047C364.04 165.625 366.876 167.969 371.305 168.531L370.297 170.57C366.817 170.031 364.051 168.461 362.704 166.234C361.344 168.461 358.579 170.031 355.087 170.57L354.149 168.531C358.508 167.969 361.391 165.578 361.391 163.047V162.25H364.04V163.047ZM370.04 176.102V183.086H367.438V178.141H355.227V176.102H370.04ZM395.283 161.922V168.578H398.236V170.734H395.283V177.742H392.681V161.922H395.283ZM391.158 164.266V166.352H378.595V164.266H383.587V161.898H386.189V164.266H391.158ZM384.877 167.219C387.923 167.219 390.033 168.836 390.056 171.273C390.033 173.688 387.923 175.281 384.877 175.281C381.806 175.281 379.673 173.688 379.673 171.273C379.673 168.836 381.806 167.219 384.877 167.219ZM384.877 169.234C383.259 169.234 382.205 169.984 382.205 171.273C382.205 172.539 383.259 173.289 384.877 173.266C386.494 173.289 387.572 172.539 387.572 171.273C387.572 169.984 386.494 169.234 384.877 169.234ZM396.127 180.555V182.664H381.712V176.5H384.314V180.555H396.127ZM415.826 162.859V164.477C415.826 166.059 415.826 167.875 415.381 170.242H418.193V172.352H409.779V175.656H415.873V183.086H413.272V177.742H400.803V175.656H407.178V172.352H398.834V170.242H412.756C413.178 168.074 413.225 166.422 413.225 164.945H401.225V162.859H415.826ZM436.745 161.922V177.227H434.12V161.922H436.745ZM437.331 180.555V182.664H422.729V175.68H425.354V180.555H437.331ZM425.19 163.305C428.401 163.305 430.885 165.531 430.885 168.602C430.885 171.742 428.401 173.922 425.19 173.922C421.956 173.922 419.471 171.742 419.471 168.602C419.471 165.531 421.956 163.305 425.19 163.305ZM425.19 165.578C423.385 165.578 422.003 166.773 422.026 168.602C422.003 170.477 423.385 171.648 425.19 171.648C426.948 171.648 428.331 170.477 428.331 168.602C428.331 166.773 426.948 165.578 425.19 165.578ZM457.101 161.898V174.484H454.499V169.305H450.89V167.172H454.499V161.898H457.101ZM449.929 175.023C454.429 175.023 457.171 176.5 457.171 179.055C457.171 181.609 454.429 183.086 449.929 183.086C445.452 183.086 442.71 181.609 442.733 179.055C442.71 176.5 445.452 175.023 449.929 175.023ZM449.929 177.016C446.976 177.016 445.312 177.719 445.312 179.055C445.312 180.367 446.976 181.07 449.929 181.07C452.882 181.07 454.569 180.367 454.569 179.055C454.569 177.719 452.882 177.016 449.929 177.016ZM447.14 165.531C447.14 168.109 448.851 170.711 452.132 171.812L450.819 173.875C448.464 173.078 446.788 171.461 445.874 169.469C444.937 171.73 443.167 173.535 440.647 174.438L439.288 172.375C442.687 171.203 444.491 168.344 444.491 165.555V165.391H440.085V163.281H451.522V165.391H447.14V165.531ZM477.316 161.898V183.086H474.691V161.898H477.316ZM470.988 164.148C470.988 170.453 468.55 175.82 461.121 179.336L459.761 177.25C465.304 174.613 467.882 171.027 468.339 166.211H460.839V164.148H470.988ZM496.828 163.188V165.086C496.828 167.066 496.828 169.234 496.266 172.234H499.195V174.344H490.781V183.109H488.156V174.344H479.883V172.234H493.617C494.203 169.352 494.227 167.195 494.227 165.297H482.156V163.188H496.828ZM501.411 174.531C501.411 170.125 502.723 166.445 504.926 163.305H507.739C506.122 165.625 504.504 170.336 504.504 174.531C504.504 178.727 506.122 183.438 507.739 185.781H504.926C502.723 182.617 501.411 178.961 501.411 174.531ZM511.22 181.188C510.212 181.188 509.392 180.367 509.392 179.359C509.392 178.375 510.212 177.555 511.22 177.555C512.181 177.555 513.024 178.375 513.024 179.359C513.024 180.367 512.181 181.188 511.22 181.188ZM517.759 181.188C516.751 181.188 515.931 180.367 515.931 179.359C515.931 178.375 516.751 177.555 517.759 177.555C518.72 177.555 519.563 178.375 519.563 179.359C519.563 180.367 518.72 181.188 517.759 181.188ZM524.298 181.188C523.29 181.188 522.47 180.367 522.47 179.359C522.47 178.375 523.29 177.555 524.298 177.555C525.259 177.555 526.103 178.375 526.103 179.359C526.103 180.367 525.259 181.188 524.298 181.188Z" fill="black"/>
<path d="M71.4062 213.375V218.25H73.4844V219.281H71.4062V224.25H70.1719V213.375H71.4062ZM71.9062 225.938V226.969H62.5781V223.516H63.8125V225.938H71.9062ZM60.5 221.641C61.6016 221.641 62.9062 221.633 64.2656 221.578V220.516C62.6484 220.367 61.6094 219.594 61.6094 218.422C61.6094 217.078 62.9062 216.281 64.8594 216.281C66.8281 216.281 68.1094 217.078 68.125 218.422C68.1094 219.586 67.0938 220.359 65.4844 220.516V221.516C66.7891 221.453 68.1016 221.328 69.3125 221.141L69.4219 222.016C66.4375 222.578 63.0781 222.625 60.6406 222.641L60.5 221.641ZM68.8906 214.75V215.672H60.8438V214.75H64.2656V213.344H65.4844V214.75H68.8906ZM64.8594 217.156C63.5781 217.156 62.7812 217.641 62.7812 218.422C62.7812 219.188 63.5781 219.672 64.8594 219.672C66.1406 219.672 66.9531 219.188 66.9531 218.422C66.9531 217.641 66.1406 217.156 64.8594 217.156ZM85.5863 213.391V221.734H84.3519V219.859H80.6644V218.844H84.3519V216.969H80.805C79.8909 219.203 77.7425 220.82 74.7738 221.703L74.2581 220.734C77.6175 219.734 79.7034 217.859 79.9613 215.453H74.9613V214.422H81.2894C81.2894 214.969 81.2269 215.492 81.1175 215.984H84.3519V213.391H85.5863ZM81.0394 221.875C83.8519 221.875 85.6644 222.875 85.6644 224.531C85.6644 226.203 83.8519 227.203 81.0394 227.203C78.1956 227.203 76.3988 226.203 76.3988 224.531C76.3988 222.875 78.1956 221.875 81.0394 221.875ZM81.0394 222.859C78.9456 222.844 77.6019 223.484 77.6019 224.531C77.6019 225.578 78.9456 226.203 81.0394 226.203C83.1019 226.203 84.43 225.578 84.4456 224.531C84.43 223.484 83.1019 222.844 81.0394 222.859ZM99.0631 213.375V227.266H97.8288V213.375H99.0631ZM94.9538 214.891C94.9381 218.891 93.0788 222.422 88.4225 224.656L87.7506 223.656C91.5084 221.875 93.4225 219.211 93.7038 215.891H88.3913V214.891H94.9538ZM108.056 213.984C108.056 215.719 110.556 217.031 113.056 217.344L112.618 218.281C110.431 217.992 108.29 217.008 107.415 215.5C106.524 217.008 104.376 217.992 102.212 218.281L101.79 217.344C104.274 217.031 106.79 215.719 106.79 213.984V213.453H108.056V213.984ZM113.743 219.188V220.188H108.009V221.578H112.118V224.734H103.868V226.141H112.54V227.109H102.649V223.812H110.915V222.547H102.618V221.578H106.79V220.188H101.087V219.188H113.743ZM126.111 213.391V223.656H124.876V219.906H121.283C120.642 220.727 119.611 221.219 118.423 221.219C116.345 221.219 114.814 219.781 114.814 217.75C114.814 215.719 116.345 214.281 118.423 214.266C119.603 214.273 120.611 214.758 121.267 215.562H124.876V213.391H126.111ZM126.501 225.938V226.969H117.189V222.578H118.423V225.938H126.501ZM118.423 215.359C117.001 215.375 115.986 216.359 115.986 217.75C115.986 219.141 117.001 220.125 118.423 220.125C119.783 220.125 120.829 219.141 120.829 217.75C120.829 216.359 119.783 215.375 118.423 215.359ZM121.829 216.578C121.947 216.938 122.017 217.328 122.017 217.75C122.017 218.156 121.947 218.539 121.829 218.891H124.876V216.578H121.829ZM139.088 214.281V215.5C139.088 216.82 139.088 218.25 138.697 220.25H140.759V221.266H135.025V227.297H133.791V221.266H128.103V220.25H137.447C137.869 218.25 137.869 216.789 137.869 215.5V215.297H129.697V214.281H139.088ZM154.33 224.438V225.453H141.611V224.438H147.299V221.031H148.502V224.438H154.33ZM148.533 215.391C148.533 217.719 151.283 219.75 153.705 220.172L153.158 221.188C151.041 220.758 148.807 219.32 147.908 217.312C146.994 219.312 144.775 220.758 142.658 221.188L142.111 220.172C144.533 219.75 147.252 217.719 147.252 215.391V214.328H148.533V215.391ZM165.869 213.375V219.031H168.119V220.062H165.869V227.266H164.651V213.375H165.869ZM162.276 214.875C162.276 218.812 160.432 222.391 155.901 224.625L155.213 223.656C158.807 221.867 160.76 219.195 161.041 215.906H155.854V214.875H162.276ZM183.183 213.391V217.969H185.276V219H183.183V223.797H181.964V213.391H183.183ZM180.636 215.094V216.094H172.354V215.094H175.886V213.391H177.104V215.094H180.636ZM176.495 216.859C178.479 216.859 179.823 217.875 179.839 219.453C179.823 221.016 178.479 222.016 176.495 222.016C174.495 222.016 173.136 221.016 173.151 219.453C173.136 217.875 174.495 216.859 176.495 216.859ZM176.495 217.828C175.183 217.828 174.308 218.469 174.323 219.453C174.308 220.438 175.183 221.062 176.495 221.047C177.792 221.062 178.667 220.438 178.683 219.453C178.667 218.469 177.792 217.828 176.495 217.828ZM183.823 225.938V226.969H174.495V222.969H175.698V225.938H183.823ZM196.878 214.062V215.062C196.878 216.102 196.878 217.344 196.534 219.016H198.55V220.016H192.769V222.578H196.972V227.266H195.738V223.594H187.144V222.578H191.55V220.016H185.831V219.016H195.3C195.659 217.312 195.659 216.102 195.659 215.062H187.441V214.062H196.878ZM210.808 213.391V223.547H209.589V213.391H210.808ZM211.246 225.938V226.969H201.839V222.516H203.058V225.938H211.246ZM203.308 214.359C205.386 214.359 206.949 215.766 206.949 217.766C206.949 219.797 205.386 221.188 203.308 221.188C201.23 221.188 199.667 219.797 199.667 217.766C199.667 215.766 201.23 214.359 203.308 214.359ZM203.308 215.438C201.902 215.438 200.855 216.406 200.871 217.766C200.855 219.156 201.902 220.109 203.308 220.109C204.683 220.109 205.746 219.156 205.746 217.766C205.746 216.406 204.683 215.438 203.308 215.438ZM224.363 213.375V221.656H223.129V218.016H220.332V217H223.129V213.375H224.363ZM219.754 222.094C222.644 222.094 224.41 223.031 224.41 224.672C224.41 226.312 222.644 227.25 219.754 227.266C216.863 227.25 215.098 226.312 215.098 224.672C215.098 223.031 216.863 222.094 219.754 222.094ZM219.754 223.047C217.629 223.047 216.301 223.656 216.316 224.672C216.301 225.672 217.629 226.281 219.754 226.281C221.879 226.281 223.191 225.672 223.191 224.672C223.191 223.656 221.879 223.047 219.754 223.047ZM217.676 215.922C217.676 217.734 219.066 219.453 221.098 220.156L220.457 221.141C218.894 220.578 217.683 219.414 217.098 217.969C216.488 219.602 215.199 220.906 213.551 221.531L212.91 220.547C214.973 219.797 216.441 217.922 216.441 215.938V215.422H213.301V214.391H220.785V215.422H217.676V215.922ZM237.84 213.375V227.266H236.606V213.375H237.84ZM233.731 214.891C233.715 218.891 231.856 222.422 227.199 224.656L226.527 223.656C230.285 221.875 232.199 219.211 232.481 215.891H227.168V214.891H233.731ZM250.848 214.281V215.5C250.848 216.82 250.848 218.25 250.458 220.25H252.52V221.266H246.786V227.297H245.551V221.266H239.864V220.25H249.208C249.629 218.25 249.629 216.789 249.629 215.5V215.297H241.458V214.281H250.848ZM254.231 221.688C254.247 218.734 255.044 216.281 256.481 214.203H257.669C256.606 215.75 255.622 218.906 255.622 221.688C255.622 224.469 256.606 227.641 257.669 229.188H256.481C255.044 227.094 254.247 224.641 254.231 221.688ZM259.193 226V214.688H260.599V220.281H260.739L265.771 214.688H267.614L262.88 219.797L267.614 226H265.896L262.005 220.766L260.599 222.359V226H259.193ZM277.826 220.344C277.826 223.922 275.716 226.156 272.826 226.156C269.919 226.156 267.826 223.922 267.826 220.344C267.826 216.766 269.919 214.531 272.826 214.531C275.716 214.531 277.826 216.766 277.826 220.344ZM276.466 220.344C276.466 217.422 274.872 215.844 272.826 215.844C270.779 215.844 269.185 217.422 269.185 220.344C269.185 223.266 270.779 224.844 272.826 224.844C274.872 224.844 276.466 223.266 276.466 220.344ZM279.568 226V214.688H280.974V224.75H286.224V226H279.568ZM288.967 226H287.498L291.639 214.688H293.123L297.264 226H295.779L294.654 222.812H290.107L288.967 226ZM290.529 221.578H294.217L292.42 216.516H292.326L290.529 221.578ZM304.631 217.531C304.506 216.422 303.491 215.781 302.131 215.781C300.631 215.781 299.647 216.562 299.647 217.641C299.647 218.828 300.975 219.266 301.834 219.484L302.959 219.797C304.178 220.109 306.163 220.812 306.163 222.922C306.163 224.766 304.678 226.203 302.053 226.203C299.616 226.203 298.1 224.938 297.975 223.062H299.413C299.538 224.328 300.709 224.922 302.053 224.922C303.616 224.922 304.788 224.125 304.788 222.891C304.788 221.797 303.741 221.375 302.553 221.031L301.163 220.656C299.381 220.141 298.288 219.234 298.288 217.703C298.288 215.797 299.991 214.531 302.178 214.531C304.366 214.531 305.944 215.812 306.006 217.531H304.631ZM310.639 221.688C310.624 224.641 309.827 227.094 308.389 229.188H307.202C308.264 227.641 309.249 224.469 309.249 221.688C309.249 218.906 308.264 215.75 307.202 214.203H308.389C309.827 216.281 310.624 218.734 310.639 221.688ZM325.023 224.516V225.547H312.304V224.516H318.023V221.891H313.898V217.609H322.21V215.422H313.866V214.406H323.413V218.609H315.116V220.875H323.741V221.891H319.226V224.516H325.023ZM338.515 221.625V222.625H332.718V227.266H331.515V222.625H325.796V221.625H338.515ZM328.64 213.953V215.875H335.64V213.953H336.874V219.938H327.421V213.953H328.64ZM328.64 218.938H335.64V216.875H328.64V218.938ZM350.836 213.375V227.297H349.617V219.641H346.679V218.625H349.617V213.375H350.836ZM346.445 214.656V215.672H341.195V218.562H345.836V219.562H341.195V222.922C343.75 222.922 345.375 222.836 347.289 222.5L347.429 223.516C345.414 223.844 343.711 223.938 341.023 223.938H339.961V214.656H346.445ZM357.024 226L357.008 224.969L360.867 220.906C362.211 219.484 362.852 218.719 362.852 217.672C362.852 216.516 361.867 215.75 360.602 215.75C359.258 215.75 358.399 216.609 358.399 217.875H357.071C357.055 215.875 358.602 214.531 360.649 214.531C362.696 214.531 364.164 215.906 364.164 217.672C364.164 218.938 363.571 219.922 361.571 221.984L358.977 224.656V224.75H364.367V226H357.024ZM366.094 226L366.079 224.969L369.938 220.906C371.282 219.484 371.922 218.719 371.922 217.672C371.922 216.516 370.938 215.75 369.672 215.75C368.329 215.75 367.469 216.609 367.469 217.875H366.141C366.126 215.875 367.672 214.531 369.719 214.531C371.766 214.531 373.235 215.906 373.235 217.672C373.235 218.938 372.641 219.922 370.641 221.984L368.047 224.656V224.75H373.438V226H366.094ZM386.181 213.391V223.672H384.946V218.859H380.946V217.875H384.946V216.203H380.946V215.219H384.946V213.391H386.181ZM386.556 225.938V226.969H377.228V222.797H378.462V225.938H386.556ZM376.728 214.391V220.562C378.642 220.555 380.485 220.453 382.603 220.062L382.728 221.078C380.462 221.5 378.571 221.594 376.54 221.609H375.493V214.391H376.728ZM403.384 213.391V223.656H402.15V219.906H398.556C397.916 220.727 396.884 221.219 395.697 221.219C393.619 221.219 392.087 219.781 392.087 217.75C392.087 215.719 393.619 214.281 395.697 214.266C396.877 214.273 397.884 214.758 398.541 215.562H402.15V213.391H403.384ZM403.775 225.938V226.969H394.462V222.578H395.697V225.938H403.775ZM395.697 215.359C394.275 215.375 393.259 216.359 393.259 217.75C393.259 219.141 394.275 220.125 395.697 220.125C397.056 220.125 398.103 219.141 398.103 217.75C398.103 216.359 397.056 215.375 395.697 215.359ZM399.103 216.578C399.22 216.938 399.291 217.328 399.291 217.75C399.291 218.156 399.22 218.539 399.103 218.891H402.15V216.578H399.103ZM418.08 220.359V221.375H405.377V220.359H411.096V218.219H412.299V220.359H418.08ZM412.314 214.25C412.314 216.094 414.814 217.641 417.267 217.984L416.767 218.969C414.658 218.602 412.572 217.484 411.705 215.875C410.83 217.492 408.736 218.602 406.611 218.969L406.142 217.984C408.596 217.641 411.08 216.094 411.08 214.25V213.594H412.314V214.25ZM416.471 222.734V227.266H415.236V223.719H406.783V222.734H416.471ZM428.862 222.156C431.846 222.156 433.737 223.094 433.737 224.703C433.737 226.297 431.846 227.234 428.862 227.234C425.893 227.234 424.003 226.297 424.003 224.703C424.003 223.094 425.893 222.156 428.862 222.156ZM428.862 223.094C426.643 223.109 425.206 223.719 425.221 224.703C425.206 225.672 426.643 226.266 428.862 226.266C431.081 226.266 432.503 225.672 432.518 224.703C432.503 223.719 431.081 223.109 428.862 223.094ZM433.628 214.094V215.266C433.628 216.391 433.628 217.516 433.237 218.953L432.034 218.812C432.409 217.375 432.409 216.359 432.409 215.266V215.094H424.096V214.094H433.628ZM435.237 219.859V220.859H422.596V219.859H427.831V217.172H429.034V219.859H435.237ZM447.557 213.391V223.547H446.339V213.391H447.557ZM447.995 225.938V226.969H438.589V222.516H439.807V225.938H447.995ZM440.057 214.359C442.136 214.359 443.698 215.766 443.698 217.766C443.698 219.797 442.136 221.188 440.057 221.188C437.979 221.188 436.417 219.797 436.417 217.766C436.417 215.766 437.979 214.359 440.057 214.359ZM440.057 215.438C438.651 215.438 437.604 216.406 437.62 217.766C437.604 219.156 438.651 220.109 440.057 220.109C441.432 220.109 442.495 219.156 442.495 217.766C442.495 216.406 441.432 215.438 440.057 215.438ZM454.534 217.109C454.519 219.641 456.253 222.203 458.3 223.125L457.55 224.094C455.972 223.32 454.605 221.688 453.941 219.703C453.292 221.805 451.925 223.555 450.3 224.375L449.519 223.344C451.581 222.391 453.3 219.75 453.316 217.109V214.578H454.534V217.109ZM461.05 213.375V227.297H459.816V213.375H461.05ZM474.621 213.375V221.797H473.386V218.625H471.027V217.609H473.386V213.375H474.621ZM474.621 222.547V227.078H465.543V222.547H474.621ZM466.761 223.531V226.078H473.418V223.531H466.761ZM471.23 214.844V215.844H463.121V214.844H466.574V213.25H467.777V214.844H471.23ZM467.168 216.562C469.058 216.562 470.386 217.578 470.402 219.031C470.386 220.531 469.058 221.516 467.168 221.516C465.277 221.516 463.949 220.531 463.949 219.031C463.949 217.578 465.277 216.562 467.168 216.562ZM467.168 217.516C465.964 217.516 465.121 218.141 465.121 219.031C465.121 219.953 465.964 220.562 467.168 220.578C468.371 220.562 469.214 219.953 469.214 219.031C469.214 218.141 468.371 217.516 467.168 217.516ZM488.098 213.375V227.266H486.863V213.375H488.098ZM483.988 214.891C483.973 218.891 482.113 222.422 477.457 224.656L476.785 223.656C480.543 221.875 482.457 219.211 482.738 215.891H477.426V214.891H483.988ZM497.824 214.453V215.188C497.809 216.094 497.809 217.484 497.465 219.297L496.231 219.203C496.567 217.539 496.598 216.359 496.621 215.484H490.902V214.453H497.824ZM494.246 217.531V220.516C495.785 220.453 497.379 220.344 498.824 220.141L498.902 221.047C495.996 221.547 492.637 221.609 490.168 221.609L490.043 220.594C490.942 220.586 491.957 220.578 493.027 220.547V217.531H494.246ZM501.012 213.375V217.906H503.043V218.953H501.012V223.828H499.762V213.375H501.012ZM501.465 225.938V226.969H492.184V222.891H493.418V225.938H501.465ZM512.028 217.641C512.013 219.875 513.622 222.328 515.638 223.281L514.934 224.25C513.372 223.492 512.052 221.836 511.434 219.953C510.794 222 509.395 223.797 507.841 224.594L507.091 223.625C509.091 222.656 510.809 220.016 510.825 217.641V215.828H507.591V214.812H515.153V215.828H512.028V217.641ZM518.075 213.375V219H520.403V220.047H518.075V227.266H516.856V213.375H518.075ZM528.161 214.328C528.161 214.867 528.099 215.383 527.989 215.875H531.114V213.391H532.349V221.672H531.114V219.828H527.427V218.812H531.114V216.891H527.661C526.716 219.078 524.544 220.656 521.536 221.484L521.052 220.5C524.443 219.562 526.591 217.695 526.849 215.328H521.755V214.328H528.161ZM532.349 222.281V227.25H531.114V223.266H523.005V222.281H532.349ZM66.8906 237.625C69.9844 237.625 71.7969 238.469 71.7969 240.016C71.7969 241.594 69.9844 242.438 66.8906 242.453C63.7969 242.438 61.9688 241.594 61.9688 240.016C61.9688 238.469 63.7969 237.625 66.8906 237.625ZM66.8906 238.547C64.5781 238.547 63.2344 239.109 63.25 240.016C63.2344 240.984 64.5781 241.516 66.8906 241.516C69.1875 241.516 70.5469 240.984 70.5469 240.016C70.5469 239.109 69.1875 238.547 66.8906 238.547ZM73.2188 243.391V244.391H60.5625V243.391H73.2188ZM71.5938 245.594V248.703H63.3438V250.141H72.0156V251.109H62.125V247.797H70.3906V246.531H62.0938V245.594H71.5938ZM86.5006 238.656V239.594H78.2975V238.656H81.7819V237.297H83.0006V238.656H86.5006ZM82.4069 240.125C84.3913 240.125 85.7194 240.922 85.735 242.203C85.7194 243.336 84.6491 244.086 83.0006 244.219V245.141C84.2975 245.086 85.61 244.984 86.8288 244.812L86.9225 245.688C83.8756 246.188 80.5163 246.234 78.0163 246.234L77.8288 245.25C79.0084 245.25 80.3678 245.242 81.7819 245.188V244.219C80.1256 244.078 79.0788 243.336 79.0944 242.203C79.0788 240.922 80.3913 240.125 82.4069 240.125ZM82.4069 241C81.11 240.984 80.2506 241.453 80.2506 242.203C80.2506 242.922 81.11 243.391 82.4069 243.375C83.6881 243.391 84.5475 242.922 84.5475 242.203C84.5475 241.453 83.6881 240.984 82.4069 241ZM89.2194 237.422V246.672H87.985V237.422H89.2194ZM89.2194 247.328V251.266H87.985V248.312H79.8444V247.328H89.2194ZM103.946 244.141V245.156H91.2744V244.141H103.946ZM102.384 246.828V251.344H101.165V247.828H92.6806V246.828H102.384ZM102.493 241.594V242.594H92.8838V237.922H102.368V238.922H94.1025V241.594H102.493ZM116.579 237.391V246H115.408V242.234H113.595V245.781H112.423V237.609H113.595V241.219H115.408V237.391H116.579ZM111.829 238.969V239.984H104.704V238.969H107.673V237.438H108.892V238.969H111.829ZM108.283 240.688C110.048 240.688 111.251 241.609 111.267 243.062C111.251 244.484 110.048 245.438 108.283 245.438C106.533 245.438 105.298 244.484 105.314 243.062C105.298 241.609 106.533 240.688 108.283 240.688ZM108.283 241.609C107.173 241.609 106.408 242.172 106.408 243.062C106.408 243.938 107.173 244.516 108.283 244.516C109.392 244.516 110.158 243.938 110.158 243.062C110.158 242.172 109.392 241.609 108.283 241.609ZM109.704 246.891C109.689 248.078 110.337 249.312 111.658 250.016C112.97 249.25 113.642 247.906 113.658 246.891V246.391H114.861V246.891C114.845 248.25 115.908 249.625 117.689 250.172L117.111 251.109C115.712 250.625 114.728 249.68 114.251 248.547C113.822 249.648 112.978 250.703 111.673 251.219C110.329 250.719 109.486 249.734 109.079 248.609C108.564 249.688 107.595 250.625 106.267 251.109L105.673 250.172C107.408 249.578 108.501 248.156 108.501 246.891V246.391H109.704V246.891ZM129.041 237.375V242.875H131.369V243.906H129.041V251.297H127.822V237.375H129.041ZM125.384 238.734V239.75H120.119V246.781C122.634 246.781 124.416 246.664 126.478 246.281L126.634 247.344C124.463 247.734 122.634 247.812 119.994 247.812H118.9V238.734H125.384ZM142.939 238.781V240.172C142.924 241.875 142.924 243.781 142.424 246.578L141.174 246.438C141.705 243.781 141.705 241.828 141.705 240.172V239.797H133.143V238.781H142.939ZM144.455 248.281V249.297H131.799V248.281H136.768V243.312H137.971V248.281H144.455ZM149.503 250L149.487 248.969L153.346 244.906C154.69 243.484 155.331 242.719 155.331 241.672C155.331 240.516 154.346 239.75 153.081 239.75C151.737 239.75 150.878 240.609 150.878 241.875H149.549C149.534 239.875 151.081 238.531 153.128 238.531C155.174 238.531 156.643 239.906 156.643 241.672C156.643 242.938 156.049 243.922 154.049 245.984L151.456 248.656V248.75H156.846V250H149.503ZM162.354 250.156C159.979 250.156 158.323 248.844 158.339 247C158.323 245.531 159.339 244.328 160.636 244.125V244.062C159.511 243.797 158.776 242.766 158.776 241.531C158.776 239.797 160.292 238.531 162.354 238.531C164.417 238.531 165.933 239.797 165.948 241.531C165.933 242.766 165.183 243.797 164.073 244.062V244.125C165.354 244.328 166.37 245.531 166.386 247C166.37 248.844 164.714 250.156 162.354 250.156ZM162.354 248.922C163.979 248.922 164.979 248.109 164.979 246.922C164.979 245.672 163.87 244.75 162.354 244.75C160.839 244.75 159.714 245.672 159.745 246.922C159.714 248.109 160.729 248.922 162.354 248.922ZM162.354 243.562C163.636 243.562 164.573 242.781 164.573 241.641C164.573 240.516 163.683 239.75 162.354 239.75C161.011 239.75 160.136 240.516 160.136 241.641C160.136 242.781 161.058 243.562 162.354 243.562ZM171.394 237.891C173.472 237.906 174.988 239.156 174.988 240.969C174.988 242.781 173.472 244.031 171.394 244.031C169.284 244.031 167.784 242.781 167.784 240.969C167.784 239.156 169.284 237.906 171.394 237.891ZM171.394 238.922C170.003 238.922 168.972 239.766 168.988 240.969C168.972 242.188 170.003 243.031 171.394 243.031C172.769 243.031 173.8 242.188 173.8 240.969C173.8 239.766 172.769 238.922 171.394 238.922ZM178.925 237.375V244.516H177.706V237.375H178.925ZM178.925 245.188V248.531H171.128V250.094H179.425V251.078H169.925V247.609H177.706V246.172H169.894V245.188H178.925ZM186.457 238.047V240.094H190.504V238.047H191.723V244.156H185.254V238.047H186.457ZM186.457 243.172H190.504V241.031H186.457V243.172ZM195.519 237.375V240.438H197.613V241.484H195.519V244.797H194.301V237.375H195.519ZM190.629 245.562V248.719H187.301V250.172C189.246 250.164 190.285 250.109 191.551 249.859L191.691 250.797C190.269 251.078 189.176 251.109 186.926 251.109H186.113V247.812H189.441V246.516H186.082V245.562H190.629ZM195.519 245.562V251.219H194.301V246.547H191.238V245.562H195.519ZM209.699 237.375V246.188H208.465V244.438H206.027V243.406H208.465V241.75H206.043V240.734H208.465V237.375H209.699ZM206.043 238.844V239.844H198.184V238.844H201.559V237.25H202.777V238.844H206.043ZM202.152 240.531C204.012 240.531 205.324 241.547 205.324 243.078C205.324 244.641 204.012 245.672 202.152 245.672C200.277 245.672 198.996 244.641 199.012 243.078C198.996 241.547 200.277 240.531 202.152 240.531ZM202.152 241.484C200.949 241.484 200.152 242.125 200.152 243.078C200.152 244.062 200.949 244.719 202.152 244.734C203.356 244.719 204.168 244.062 204.184 243.078C204.168 242.125 203.356 241.484 202.152 241.484ZM202.981 246.922C202.981 248.102 203.645 249.328 204.965 250.031C206.246 249.273 206.949 247.93 206.949 246.922V246.453H208.152V246.922C208.152 248.266 209.215 249.641 210.996 250.172L210.387 251.094C209.004 250.625 208.027 249.688 207.543 248.547C207.121 249.641 206.27 250.672 204.965 251.203C203.629 250.711 202.777 249.727 202.371 248.594C201.871 249.688 200.895 250.609 199.559 251.094L198.981 250.172C200.715 249.609 201.793 248.172 201.809 246.922V246.453H202.981V246.922ZM222.426 237.375V242.875H224.754V243.906H222.426V251.297H221.208V237.375H222.426ZM218.77 238.734V239.75H213.504V246.781C216.02 246.781 217.801 246.664 219.864 246.281L220.02 247.344C217.848 247.734 216.02 247.812 213.379 247.812H212.286V238.734H218.77ZM226.653 250.094C226.106 250.094 225.637 249.641 225.653 249.078C225.637 248.531 226.106 248.078 226.653 248.078C227.2 248.078 227.653 248.531 227.653 249.078C227.653 249.641 227.2 250.094 226.653 250.094Z" fill="black"/>
<path d="M61.0625 294L61.0469 292.969L64.9062 288.906C66.25 287.484 66.8906 286.719 66.8906 285.672C66.8906 284.516 65.9062 283.75 64.6406 283.75C63.2969 283.75 62.4375 284.609 62.4375 285.875H61.1094C61.0938 283.875 62.6406 282.531 64.6875 282.531C66.7344 282.531 68.2031 283.906 68.2031 285.672C68.2031 286.938 67.6094 287.922 65.6094 289.984L63.0156 292.656V292.75H68.4062V294H61.0625ZM73.8363 294.156C71.3206 294.156 69.8831 292.047 69.8831 288.344C69.8831 284.672 71.3519 282.531 73.8363 282.531C76.3206 282.531 77.7894 284.672 77.7894 288.344C77.7894 292.047 76.3363 294.156 73.8363 294.156ZM73.8363 292.906C75.4613 292.906 76.4144 291.266 76.4144 288.344C76.4144 285.422 75.4613 283.75 73.8363 283.75C72.2113 283.75 71.2425 285.422 71.2425 288.344C71.2425 291.266 72.1956 292.906 73.8363 292.906ZM79.3444 294L79.3288 292.969L83.1881 288.906C84.5319 287.484 85.1725 286.719 85.1725 285.672C85.1725 284.516 84.1881 283.75 82.9225 283.75C81.5788 283.75 80.7194 284.609 80.7194 285.875H79.3913C79.3756 283.875 80.9225 282.531 82.9694 282.531C85.0163 282.531 86.485 283.906 86.485 285.672C86.485 286.938 85.8913 287.922 83.8913 289.984L81.2975 292.656V292.75H86.6881V294H79.3444ZM92.1025 294.156C90.0556 294.156 88.5088 292.891 88.4306 291.156H89.79C89.8994 292.172 90.8838 292.922 92.1025 292.922C93.5713 292.922 94.6338 291.844 94.6338 290.422C94.6338 288.953 93.5244 287.875 92.0088 287.859C91.0556 287.844 90.3213 288.141 89.8994 288.875H88.54L89.3369 282.688H95.4619V283.938H90.5088L90.0869 287.25H90.1963C90.6963 286.859 91.4619 286.594 92.2588 286.594C94.415 286.594 96.0088 288.188 96.0088 290.391C96.0088 292.578 94.3525 294.156 92.1025 294.156ZM98.1888 294.094C97.6419 294.094 97.1731 293.641 97.1888 293.078C97.1731 292.531 97.6419 292.078 98.1888 292.078C98.7356 292.078 99.1888 292.531 99.1888 293.078C99.1888 293.641 98.7356 294.094 98.1888 294.094ZM104.259 294.156C101.744 294.156 100.306 292.047 100.306 288.344C100.306 284.672 101.775 282.531 104.259 282.531C106.744 282.531 108.213 284.672 108.213 288.344C108.213 292.047 106.759 294.156 104.259 294.156ZM104.259 292.906C105.884 292.906 106.838 291.266 106.838 288.344C106.838 285.422 105.884 283.75 104.259 283.75C102.634 283.75 101.666 285.422 101.666 288.344C101.666 291.266 102.619 292.906 104.259 292.906ZM113.533 282.531C115.486 282.547 117.643 283.719 117.643 287.891C117.643 291.906 116.002 294.156 113.346 294.156C111.361 294.156 109.955 292.938 109.674 291.141H111.064C111.314 292.156 112.08 292.906 113.346 292.906C115.189 292.906 116.314 291.312 116.33 288.562H116.174C115.518 289.5 114.486 290.062 113.283 290.062C111.252 290.062 109.58 288.516 109.58 286.328C109.58 284.219 111.127 282.516 113.533 282.531ZM113.533 283.766C112.049 283.766 110.939 284.922 110.955 286.312C110.955 287.719 112.002 288.828 113.486 288.828C114.955 288.828 116.111 287.609 116.111 286.281C116.111 284.984 115.033 283.766 113.533 283.766ZM119.822 294.094C119.276 294.094 118.807 293.641 118.822 293.078C118.807 292.531 119.276 292.078 119.822 292.078C120.369 292.078 120.822 292.531 120.822 293.078C120.822 293.641 120.369 294.094 119.822 294.094ZM125.237 282.688V294H123.815V284.156H123.752L121.002 285.984V284.562L123.815 282.688H125.237ZM127.933 294L127.917 292.969L131.776 288.906C133.12 287.484 133.761 286.719 133.761 285.672C133.761 284.516 132.776 283.75 131.511 283.75C130.167 283.75 129.308 284.609 129.308 285.875H127.979C127.964 283.875 129.511 282.531 131.558 282.531C133.604 282.531 135.073 283.906 135.073 285.672C135.073 286.938 134.479 287.922 132.479 289.984L129.886 292.656V292.75H135.276V294H127.933Z" fill="#999999"/>
</svg>
