<svg width="237" height="53" viewBox="0 0 237 53" fill="none" xmlns="http://www.w3.org/2000/svg">
<path d="M0 52.6641V11.8125H6.83594V16.6797H7.27344C8.33984 14.5742 10.5273 11.4297 15.8047 11.4297C22.6406 11.4297 28.0273 16.7891 28.0547 26.6875C28.0273 36.4492 22.8047 42.0273 15.8047 42.0547C10.6914 42.0273 8.36719 38.9922 7.27344 36.8047H7V52.6641H0ZM6.83594 26.6328C6.86328 32.4297 9.37891 36.3125 13.8906 36.3125C18.5117 36.3125 20.9453 32.2383 20.9453 26.6328C20.9453 21.1094 18.5664 17.1445 13.8906 17.1172C9.32422 17.1445 6.86328 20.8633 6.83594 26.6328ZM32.4034 41.5078V11.8125H39.1847V16.7344H39.5128C40.5792 13.3164 43.423 11.375 46.8409 11.375C47.6066 11.375 48.7003 11.457 49.3566 11.5391V17.9922C48.7277 17.7734 47.2784 17.582 46.13 17.5547C42.2472 17.582 39.4034 20.2617 39.4034 24.0078V41.5078H32.4034ZM64.5881 42.1094C55.6467 42.1094 50.1506 36.1484 50.1506 26.8516C50.1506 17.6641 55.7287 11.4297 64.2053 11.4297C71.4787 11.4297 77.7678 15.9961 77.7678 26.4141V28.6016H57.0412C57.1506 33.6602 60.1311 36.668 64.6428 36.6406C67.7053 36.668 69.7561 35.3555 70.6584 33.5781H77.4944C76.2366 38.7188 71.4787 42.1094 64.5881 42.1094ZM57.0686 23.8438H71.0959C71.0686 19.7969 68.3342 16.8438 64.3147 16.8438C60.1311 16.8438 57.3147 20.0703 57.0686 23.8438ZM95.0228 42.1094C86.1634 42.1094 80.8041 35.7656 80.8041 26.7969C80.8041 17.6914 86.3275 11.4297 95.0228 11.4297C102.214 11.4297 107.273 15.6406 107.765 22.0391H101.093C100.546 19.1953 98.4681 17.0352 95.0775 17.0078C90.7572 17.0352 87.8587 20.6445 87.8587 26.6328C87.8587 32.7578 90.7025 36.3945 95.0775 36.4219C98.1673 36.3945 100.464 34.5898 101.093 31.3906H107.765C107.245 37.6523 102.488 42.1094 95.0228 42.1094ZM111.895 41.5078V11.8125H118.895V41.5078H111.895ZM111.403 3.77344C111.403 1.69531 113.235 0 115.45 0C117.665 0 119.497 1.69531 119.497 3.77344C119.497 5.87891 117.665 7.57422 115.45 7.60156C113.235 7.57422 111.403 5.87891 111.403 3.77344ZM141.291 20.2891C140.853 18.0469 138.994 16.5977 136.041 16.625C133.06 16.5977 130.873 18.1016 130.9 20.125C130.873 21.6562 132.103 22.8047 135.111 23.5156L140.142 24.5547C145.748 25.7852 148.482 28.3828 148.509 32.6484C148.482 38.2266 143.588 42.1094 135.822 42.1094C128.275 42.1094 123.818 38.7188 123.08 33.0312H130.189C130.599 35.5742 132.568 36.832 135.822 36.8047C139.185 36.832 141.373 35.4648 141.4 33.25C141.373 31.5273 140.033 30.4336 137.08 29.8047L132.322 28.7656C126.798 27.6445 123.927 24.7461 123.955 20.5078C123.927 15.0117 128.685 11.4297 135.931 11.4297C143.013 11.4297 147.388 14.9023 147.908 20.2891H141.291ZM152.694 41.5078V11.8125H159.694V41.5078H152.694ZM152.202 3.77344C152.202 1.69531 154.034 0 156.249 0C158.464 0 160.296 1.69531 160.296 3.77344C160.296 5.87891 158.464 7.57422 156.249 7.60156C154.034 7.57422 152.202 5.87891 152.202 3.77344ZM178.207 42.1094C169.539 42.1094 163.988 35.957 163.988 26.7969C163.988 17.5547 169.539 11.4297 178.207 11.4297C186.902 11.4297 192.453 17.5547 192.426 26.7969C192.453 35.957 186.902 42.1094 178.207 42.1094ZM171.043 26.7422C171.043 32.1836 173.422 36.5312 178.262 36.5312C183.019 36.5312 185.398 32.1836 185.371 26.7422C185.398 21.3008 183.019 16.9258 178.262 16.9531C173.422 16.9258 171.043 21.3008 171.043 26.7422ZM203.72 24.1172V41.5078H196.72V11.8125H203.392V16.8438H203.774C205.114 13.5352 208.149 11.4297 212.579 11.4297C218.731 11.4297 222.778 15.4766 222.751 22.5859V41.5078H215.806V23.6797C215.806 19.6875 213.645 17.3086 210.009 17.3359C206.317 17.3086 203.72 19.7969 203.72 24.1172ZM232.623 41.9453C230.272 41.9453 228.33 40.0312 228.357 37.6797C228.33 35.3828 230.272 33.4961 232.623 33.4688C234.893 33.4961 236.834 35.3828 236.834 37.6797C236.834 40.0312 234.893 41.9453 232.623 41.9453Z" fill="black"/>
</svg>
