<svg width="365" height="99" viewBox="0 0 365 99" fill="none" xmlns="http://www.w3.org/2000/svg">
<path d="M11.7422 6.65625C11.7305 9.31641 14.7188 12.0234 19.2422 12.6094L18.2109 14.7188C14.6133 14.1797 11.7539 12.4102 10.3711 10.0195C8.98828 12.4102 6.14062 14.1797 2.57812 14.7188L1.54688 12.6094C6.02344 12.0234 9 9.33984 9 6.65625V5.57812H11.7422V6.65625ZM0.703125 18.7031V16.5469H20.0156V18.7031H11.6016V26.0859H9.02344V18.7031H0.703125ZM38.5669 4.89844V15.8203H35.9888V4.89844H38.5669ZM21.1294 13.9219C24.4223 12.9492 26.2388 10.5586 26.3677 8.0625H21.8091V5.95312H33.4575V8.0625H29.0161C29.1333 10.4062 30.9263 12.6328 34.2075 13.5234L32.9419 15.5391C30.4692 14.8242 28.6997 13.3242 27.7388 11.4023C26.7778 13.5234 24.938 15.1992 22.3247 15.9844L21.1294 13.9219ZM24.5513 18.7031V16.7109H38.6138V22.1719H27.1528V23.8828H39.2466V25.8984H24.5981V20.2734H36.0122V18.7031H24.5513ZM52.1963 6.1875C52.1845 11.6484 48.5869 15.4805 42.4228 17.2031L41.3681 15.1641C46.1142 13.875 48.9267 11.3906 49.4072 8.29688H42.5166V6.1875H52.1963ZM45.0244 25.8047V17.6953H58.9697V25.8047H45.0244ZM47.5791 23.7422H56.3916V19.7578H47.5791V23.7422ZM52.29 12.2344V10.1016H56.3681V4.92188H58.9697V16.8516H56.3681V12.2344H52.29ZM69.06 9.98438C69.0366 13.7695 70.935 17.5898 74.2163 19.1719L72.6225 21.2578C70.3256 20.0977 68.6733 17.8594 67.7709 15.1641C66.8452 18.0469 65.1108 20.4375 62.685 21.6562L61.0913 19.5703C64.5014 17.9531 66.4467 13.8984 66.4584 9.98438V6.60938H69.06V9.98438ZM75.4819 26.0859V4.89844H78.0834V13.1953H81.3413V15.4219H78.0834V26.0859H75.4819Z" fill="black"/>
<path d="M6.84375 65.1562C9.82031 65.1562 11.7109 66.0938 11.7188 67.7031C11.7109 69.2969 9.82031 70.2344 6.84375 70.2344C3.86719 70.2344 1.97656 69.2969 1.98438 67.7031C1.97656 66.0938 3.86719 65.1562 6.84375 65.1562ZM0.578125 63.8594V62.8594H5.8125V60.1719H7.01562V62.8594H13.2188V63.8594H0.578125ZM2.07812 58.0938V57.0938H11.6094V58.2656C11.6016 59.3906 11.6016 60.5156 11.2188 61.9531L10.0156 61.8125C10.3906 60.3828 10.3906 59.3516 10.3906 58.2656V58.0938H2.07812ZM3.20312 67.7031C3.19531 68.6719 4.63281 69.2656 6.84375 69.2656C9.0625 69.2656 10.4844 68.6719 10.5 67.7031C10.4844 66.7109 9.0625 66.1016 6.84375 66.0938C4.63281 66.1016 3.19531 66.7109 3.20312 67.7031ZM25.5394 56.3906V66.5469H24.3206V56.3906H25.5394ZM14.3988 60.7656C14.3909 58.7656 15.9613 57.3672 18.0394 57.3594C20.1175 57.3672 21.6722 58.7656 21.68 60.7656C21.6722 62.7891 20.1175 64.1953 18.0394 64.1875C15.9613 64.1953 14.3909 62.7891 14.3988 60.7656ZM15.6019 60.7656C15.5863 62.1484 16.6331 63.1094 18.0394 63.1094C19.4222 63.1094 20.4769 62.1484 20.4769 60.7656C20.4769 59.4062 19.4222 58.4375 18.0394 58.4375C16.6331 58.4375 15.5863 59.4062 15.6019 60.7656ZM16.5706 69.9688V65.5156H17.7894V68.9375H25.9769V69.9688H16.5706ZM36.2119 60.1094C36.2041 62.6484 37.9306 65.1953 39.9775 66.125L39.2275 67.0938C37.6416 66.3281 36.2744 64.6797 35.6103 62.7031C34.9697 64.7969 33.6025 66.5547 31.9775 67.375L31.1963 66.3438C33.2666 65.3984 34.9775 62.7422 34.9931 60.1094V57.5781H36.2119V60.1094ZM41.4931 70.2969V56.375H42.7275V70.2969H41.4931ZM56.2981 56.375V64.7969H55.0638V61.625H52.7044V60.6094H55.0638V56.375H56.2981ZM44.7981 58.8438V57.8438H48.2513V56.25H49.4544V57.8438H52.9075V58.8438H44.7981ZM45.6263 62.0312C45.6263 60.5781 46.9622 59.5625 48.845 59.5625C50.7356 59.5625 52.0638 60.5781 52.0794 62.0312C52.0638 63.5312 50.7356 64.5156 48.845 64.5156C46.9622 64.5156 45.6263 63.5312 45.6263 62.0312ZM46.7981 62.0312C46.7981 62.9531 47.6341 63.5625 48.845 63.5781C50.0559 63.5625 50.8919 62.9531 50.8919 62.0312C50.8919 61.1406 50.0559 60.5156 48.845 60.5156C47.6341 60.5156 46.7981 61.1406 46.7981 62.0312ZM47.22 70.0781V65.5469H56.2981V70.0781H47.22ZM48.4388 69.0781H55.095V66.5312H48.4388V69.0781ZM69.775 56.375V70.2656H68.5406V56.375H69.775ZM58.4625 66.6562C62.2203 64.875 64.1422 62.2109 64.4156 58.8906H59.1031V57.8906H65.6656C65.65 61.8828 63.7906 65.4219 59.1344 67.6562L58.4625 66.6562ZM79.5019 57.4531V58.1875C79.4941 59.1016 79.4941 60.4844 79.1425 62.2969L77.9081 62.2031C78.2441 60.5469 78.2753 59.3672 78.2909 58.4844H72.58V57.4531H79.5019ZM71.7206 63.5938C72.6191 63.5938 73.6347 63.5859 74.705 63.5547V60.5312H75.9238V63.5156C77.4628 63.4531 79.0566 63.3438 80.5019 63.1406L80.58 64.0469C77.6659 64.5469 74.3222 64.6016 71.8456 64.6094L71.7206 63.5938ZM73.8613 69.9688V65.8906H75.0956V68.9375H83.1425V69.9688H73.8613ZM81.4394 66.8281V56.375H82.6894V60.9062H84.7206V61.9531H82.6894V66.8281H81.4394ZM91.635 57.2812C94.5334 57.2891 96.7131 58.8047 96.7131 61.0938C96.7131 63.4062 94.5334 64.9219 91.635 64.9062C88.7366 64.9219 86.5569 63.4062 86.5569 61.0938C86.5569 58.8047 88.7366 57.2891 91.635 57.2812ZM85.3069 68.4219V67.3906H98.0256V68.4219H85.3069ZM87.7288 61.0938C87.7131 62.7812 89.3928 63.9062 91.635 63.9062C93.8616 63.9062 95.5256 62.7812 95.5256 61.0938C95.5256 59.4297 93.8616 58.2734 91.635 58.2812C89.3928 58.2734 87.7131 59.4297 87.7288 61.0938ZM111.534 67.5156V68.5469H98.815V67.5156H104.534V64.8906H100.409V60.6094H108.721V58.4219H100.378V57.4062H109.924V61.6094H101.628V63.875H110.253V64.8906H105.737V67.5156H111.534ZM127.534 65.3594V70.2969H126.3V66.3438H118.191V65.3594H127.534ZM116.675 63.625V57.4219H123.05V59.875H126.3V56.375H127.534V64.5625H126.3V60.8906H123.05V63.625H116.675ZM117.894 62.6406H121.847V58.4219H117.894V62.6406ZM140.761 60.5938V61.5781H131.246V56.8906H132.464V60.5938H140.761ZM129.511 64.4688V63.4688H142.23V64.4688H129.511ZM131.167 69.9219V65.8906H132.386V68.9062H140.839V69.9219H131.167ZM159.387 62.25V63.25H153.652V64.625H157.762V67.7344H149.512V69.1406H158.184V70.1094H148.293V66.8125H156.559V65.5781H148.262V64.625H152.434V63.25H146.731V62.25H159.387ZM148.371 61.0781V56.8438H157.746V61.0781H148.371ZM149.59 60.0938H156.527V57.8281H149.59V60.0938ZM167.942 57.9219V58.6406C167.934 59.7422 167.934 61.5781 167.536 64.1562L166.301 64.0469C166.684 61.7188 166.715 60.0312 166.708 58.9219H160.879V57.9219H167.942ZM160.098 66.1875C161.012 66.1797 162.028 66.1719 163.098 66.1484V61.8906H164.301V66.1094C165.84 66.0547 167.418 65.9531 168.864 65.7812L168.926 66.7031C166.004 67.1562 162.739 67.2188 160.254 67.2031L160.098 66.1875ZM169.739 70.2656V56.375H170.958V62.1875H173.208V63.25H170.958V70.2656H169.739ZM181.583 59.1406C181.591 60.6797 182.661 62.2344 184.443 62.9062L183.802 63.8438C182.466 63.3281 181.505 62.3359 181.005 61.1406C180.497 62.4609 179.497 63.6406 178.13 64.2344L177.458 63.2812C179.286 62.4844 180.403 60.6875 180.411 59.1406V57.25H181.583V59.1406ZM179.989 67.7656C179.974 66.1953 181.755 65.2734 184.646 65.2812C187.521 65.2734 189.31 66.1953 189.318 67.7656C189.31 69.3203 187.521 70.2344 184.646 70.2344C181.755 70.2344 179.974 69.3203 179.989 67.7656ZM181.208 67.7656C181.193 68.7109 182.513 69.2891 184.646 69.2812C186.755 69.2891 188.083 68.7109 188.099 67.7656C188.083 66.8047 186.755 66.2266 184.646 66.2188C182.513 66.2266 181.193 66.8047 181.208 67.7656ZM185.068 64.5312V56.6562H186.224V60.125H188.068V56.3906H189.239V64.9688H188.068V61.1406H186.224V64.5312H185.068ZM201.794 56.375V59.9375H203.872V60.9844H201.794V64.5781H200.56V56.375H201.794ZM190.888 63.3281C191.997 63.3281 193.294 63.3281 194.654 63.2891V62.4297C193.021 62.2969 191.99 61.6484 191.997 60.5938C191.99 59.4531 193.271 58.7891 195.247 58.7969C197.224 58.7891 198.497 59.4531 198.513 60.5938C198.497 61.6406 197.49 62.2891 195.872 62.4297V63.2422C197.169 63.1797 198.482 63.0781 199.701 62.9062L199.81 63.7344C196.81 64.2266 193.474 64.25 191.029 64.25L190.888 63.3281ZM191.232 58.3281V57.4375H194.654V56.25H195.872V57.4375H199.279V58.3281H191.232ZM192.747 66.0781V65.2031H201.794V68H193.997V69.2344H202.326V70.1094H192.779V67.1719H200.576V66.0781H192.747ZM193.169 60.5938C193.162 61.2188 193.966 61.6172 195.247 61.625C196.529 61.6172 197.341 61.2188 197.341 60.5938C197.341 59.9844 196.529 59.6172 195.247 59.6094C193.966 59.6172 193.162 59.9844 193.169 60.5938ZM217.115 63.25V64.2656H204.459V63.25H207.599V61.2891C206.49 60.8594 205.865 60.1562 205.865 59.2188C205.865 57.5859 207.74 56.6484 210.787 56.6406C213.81 56.6484 215.685 57.5859 215.693 59.2188C215.685 60.1484 215.068 60.8516 213.974 61.2891V63.25H217.115ZM205.99 67.7812C205.982 66.1953 207.771 65.3203 210.787 65.3281C213.763 65.3203 215.553 66.1953 215.568 67.7812C215.553 69.3672 213.763 70.2344 210.787 70.2344C207.771 70.2344 205.982 69.3672 205.99 67.7812ZM207.131 59.2188C207.123 60.2344 208.513 60.8203 210.787 60.8281C213.037 60.8203 214.435 60.2344 214.443 59.2188C214.435 58.2188 213.037 57.6094 210.787 57.6094C208.513 57.6094 207.123 58.2188 207.131 59.2188ZM207.24 67.7812C207.224 68.7266 208.56 69.2891 210.787 69.2812C212.99 69.2891 214.326 68.7266 214.334 67.7812C214.326 66.8359 212.99 66.2812 210.787 66.2656C208.56 66.2812 207.224 66.8359 207.24 67.7812ZM208.818 63.25H212.756V61.6172C212.17 61.7266 211.513 61.7812 210.787 61.7812C210.06 61.7812 209.404 61.7266 208.818 61.625V63.25ZM224.936 57.6719C224.943 59.6328 227.49 61.3203 229.998 61.6719L229.498 62.6719C227.342 62.3125 225.201 61.1172 224.311 59.4141C223.42 61.1328 221.287 62.3125 219.123 62.6719L218.623 61.6719C221.131 61.3203 223.67 59.6641 223.67 57.6719V56.875H224.936V57.6719ZM217.967 65.2344V64.2031H230.623V65.2344H224.873V70.2656H223.67V65.2344H217.967ZM236.022 57.3906C238.202 57.3984 239.748 58.7266 239.756 60.6562C239.748 62.5938 238.202 63.9141 236.022 63.9219C233.827 63.9141 232.264 62.5938 232.272 60.6562C232.264 58.7266 233.827 57.3984 236.022 57.3906ZM231.553 66.1875C234.116 66.1953 237.655 66.1719 240.725 65.7188L240.819 66.625C237.639 67.2188 234.225 67.2344 231.725 67.2344L231.553 66.1875ZM233.475 60.6562C233.467 61.9531 234.538 62.8438 236.022 62.8438C237.491 62.8438 238.561 61.9531 238.553 60.6562C238.561 59.3672 237.491 58.4688 236.022 58.4688C234.538 58.4688 233.467 59.3672 233.475 60.6562ZM241.647 70.2969V56.375H242.866V70.2969H241.647ZM259.538 56.375V60.6094H261.632V61.6406H259.538V66.625H258.319V56.375H259.538ZM248.944 60.7812C248.937 58.7656 250.515 57.3672 252.585 57.3594C254.671 57.3672 256.226 58.7656 256.241 60.7812C256.226 62.7891 254.671 64.2031 252.585 64.2031C250.515 64.2031 248.937 62.7891 248.944 60.7812ZM250.148 60.7812C250.14 62.1484 251.21 63.125 252.585 63.125C253.983 63.125 255.03 62.1484 255.038 60.7812C255.03 59.4062 253.983 58.4375 252.585 58.4375C251.21 58.4375 250.14 59.4062 250.148 60.7812ZM250.851 69.9688V65.5625H252.054V68.9375H260.179V69.9688H250.851ZM273.703 56.3906V66.5781H272.468V61.25H269.609V60.2344H272.468V56.3906H273.703ZM262.249 63.7969C264.296 63.0781 265.781 61.2422 265.781 59.25V58.5312H262.64V57.5156H270.124V58.5312H267.015V59.25C267.015 61.0469 268.406 62.7891 270.437 63.4844L269.796 64.4688C268.234 63.8984 267.023 62.7344 266.421 61.2969C265.82 62.9062 264.538 64.1797 262.89 64.7969L262.249 63.7969ZM264.781 69.9688V65.6562H266.015V68.9375H274.093V69.9688H264.781ZM280.476 58.5625C280.461 60.5469 281.875 62.2891 283.914 62.9844L283.226 63.9375C281.695 63.3672 280.492 62.2344 279.89 60.7734C279.297 62.4375 278.031 63.7266 276.351 64.3594L275.679 63.3594C277.82 62.6094 279.242 60.7656 279.258 58.6094V57.1719H280.476V58.5625ZM277.945 67.6406C277.937 65.9688 279.711 65.0078 282.601 65.0156C285.484 65.0078 287.258 65.9688 287.258 67.6406C287.258 69.2969 285.484 70.2344 282.601 70.2344C279.711 70.2344 277.937 69.2969 277.945 67.6406ZM279.164 67.6406C279.156 68.6484 280.468 69.2578 282.601 69.25C284.726 69.2578 286.039 68.6484 286.039 67.6406C286.039 66.6016 284.726 65.9844 282.601 65.9844C280.468 65.9844 279.156 66.6016 279.164 67.6406ZM282.883 60.375V59.3594H285.976V56.375H287.211V64.6094H285.976V60.375H282.883ZM296.906 57.9219V58.6406C296.898 59.7422 296.898 61.5781 296.5 64.1562L295.266 64.0469C295.648 61.7188 295.68 60.0312 295.672 58.9219H289.844V57.9219H296.906ZM289.062 66.1875C289.977 66.1797 290.992 66.1719 292.062 66.1484V61.8906H293.266V66.1094C294.805 66.0547 296.383 65.9531 297.828 65.7812L297.891 66.7031C294.969 67.1562 291.703 67.2188 289.219 67.2031L289.062 66.1875ZM298.703 70.2656V56.375H299.922V62.1875H302.172V63.25H299.922V70.2656H298.703ZM313.376 57.6719C313.383 59.6328 315.93 61.3203 318.438 61.6719L317.938 62.6719C315.782 62.3125 313.641 61.1172 312.751 59.4141C311.86 61.1328 309.727 62.3125 307.563 62.6719L307.063 61.6719C309.571 61.3203 312.11 59.6641 312.11 57.6719V56.875H313.376V57.6719ZM306.407 65.2344V64.2031H319.063V65.2344H313.313V70.2656H312.11V65.2344H306.407ZM331.368 56.375V63.5938H330.165V56.375H331.368ZM320.118 62.6406C322.188 61.9531 323.673 60.25 323.681 58.3438V58.1875H320.431V57.1719H328.118V58.1875H324.915V58.3438C324.923 60.1484 326.399 61.7422 328.493 62.3594L327.884 63.3125C326.243 62.7969 324.938 61.6953 324.321 60.2734C323.72 61.8281 322.392 63.0391 320.696 63.6094L320.118 62.6406ZM322.353 65.2344V64.2656H331.384V67.5781H323.587V69.125H331.884V70.1094H322.384V66.6562H330.165V65.2344H322.353ZM341.947 58.9375C341.947 60.7422 343.337 62.4688 345.369 63.1719L344.728 64.1406C343.166 63.5781 341.955 62.4141 341.361 60.9844C340.759 62.5781 339.47 63.8594 337.822 64.4688L337.181 63.5C339.228 62.7656 340.712 60.9141 340.712 58.9531V58.3438H337.572V57.3438H345.056V58.3438H341.947V58.9375ZM339.291 66.4531V65.4375H348.634V70.2656H347.4V66.4531H339.291ZM344.619 61.0469V60.0156H347.4V56.375H348.634V64.7031H347.4V61.0469H344.619ZM361.486 56.375V59.9375H363.58V60.9844H361.486V64.4531H360.267V56.375H361.486ZM350.658 58.8281V57.8125H354.189V56.25H355.408V57.8125H358.939V58.8281H350.658ZM351.455 61.9062C351.447 60.4219 352.783 59.4766 354.799 59.4688C356.791 59.4766 358.127 60.4219 358.142 61.9062C358.127 63.3906 356.791 64.3516 354.799 64.3438C352.783 64.3516 351.447 63.3906 351.455 61.9062ZM352.627 61.9062C352.619 62.8125 353.486 63.4062 354.799 63.4062C356.096 63.4062 356.971 62.8125 356.986 61.9062C356.971 61.0078 356.096 60.4062 354.799 60.4219C353.486 60.4062 352.619 61.0078 352.627 61.9062ZM352.705 70.0781V65.0625H353.924V66.5469H360.267V65.0625H361.486V70.0781H352.705ZM353.924 69.0938H360.267V67.5156H353.924V69.0938ZM5.34375 82.5625C5.32812 84.5469 6.74219 86.2891 8.78125 86.9844L8.09375 87.9375C6.5625 87.3672 5.35938 86.2344 4.75781 84.7734C4.16406 86.4375 2.89844 87.7266 1.21875 88.3594L0.546875 87.3594C2.6875 86.6094 4.10938 84.7656 4.125 82.6094V81.1719H5.34375V82.5625ZM2.8125 91.6406C2.80469 89.9688 4.57812 89.0078 7.46875 89.0156C10.3516 89.0078 12.125 89.9688 12.125 91.6406C12.125 93.2969 10.3516 94.2344 7.46875 94.2344C4.57812 94.2344 2.80469 93.2969 2.8125 91.6406ZM4.03125 91.6406C4.02344 92.6484 5.33594 93.2578 7.46875 93.25C9.59375 93.2578 10.9062 92.6484 10.9062 91.6406C10.9062 90.6016 9.59375 89.9844 7.46875 89.9844C5.33594 89.9844 4.02344 90.6016 4.03125 91.6406ZM7.75 84.375V83.3594H10.8438V80.375H12.0781V88.6094H10.8438V84.375H7.75ZM20.3988 80.625C23.4847 80.625 25.2972 81.4766 25.305 83.0156C25.2972 84.5938 23.4847 85.4453 20.3988 85.4531C17.2972 85.4453 15.4769 84.5938 15.4769 83.0156C15.4769 81.4766 17.2972 80.625 20.3988 80.625ZM14.0706 87.3906V86.3906H26.7269V87.3906H14.0706ZM15.6019 89.5312V88.5938H25.1019V91.7031H16.8519V93.1406H25.5238V94.1094H15.6331V90.7969H23.8988V89.5312H15.6019ZM16.7581 83.0156C16.7425 83.9844 18.0941 84.5156 20.3988 84.5156C22.7034 84.5156 24.0472 83.9844 24.055 83.0156C24.0472 82.1016 22.7034 81.5547 20.3988 81.5469C18.0941 81.5547 16.7425 82.1016 16.7581 83.0156ZM35.3369 84.6562C35.3447 86.8906 36.4775 89.1797 38.3681 90.1875L37.665 91.1094C36.2822 90.3516 35.2822 88.9141 34.7744 87.2422C34.2822 89.0234 33.29 90.5859 31.8994 91.4219L31.165 90.4844C33.0556 89.3906 34.1728 86.9531 34.1806 84.6562V83.9688H31.54V82.9531H34.1806V80.8906H35.3525V82.9531H37.9463V83.9688H35.3369V84.6562ZM36.9931 86.9062V85.8594H39.1806V80.7188H40.3369V93.5469H39.1806V86.9062H36.9931ZM41.9775 94.2656V80.375H43.1494V94.2656H41.9775ZM56.6731 80.375V94.2656H55.5013V80.375H56.6731ZM44.7669 90.375C47.7903 88.5859 49.3059 86.0781 49.5481 83.1719H45.3919V82.1562H50.7669C50.7669 82.8672 50.7044 83.5703 50.5794 84.25H52.6888V80.75H53.8606V93.5625H52.6888V88.75H50.1106V87.7344H52.6888V85.2656H50.3372C49.6653 87.6172 48.1419 89.6953 45.5169 91.2656L44.7669 90.375ZM63.1188 82.9375C63.1188 84.7422 64.5094 86.4688 66.5406 87.1719L65.9 88.1406C64.3375 87.5781 63.1266 86.4141 62.5328 84.9844C61.9313 86.5781 60.6422 87.8594 58.9938 88.4688L58.3531 87.5C60.4 86.7656 61.8844 84.9141 61.8844 82.9531V82.3438H58.7438V81.3438H66.2281V82.3438H63.1188V82.9375ZM60.4625 90.4531V89.4375H69.8063V94.2656H68.5719V90.4531H60.4625ZM65.7906 85.0469V84.0156H68.5719V80.375H69.8063V88.7031H68.5719V85.0469H65.7906ZM78.1269 81.2812C81.0253 81.2891 83.205 82.8047 83.205 85.0938C83.205 87.4062 81.0253 88.9219 78.1269 88.9062C75.2284 88.9219 73.0488 87.4062 73.0488 85.0938C73.0488 82.8047 75.2284 81.2891 78.1269 81.2812ZM71.7988 92.4219V91.3906H84.5175V92.4219H71.7988ZM74.2206 85.0938C74.205 86.7812 75.8847 87.9062 78.1269 87.9062C80.3534 87.9062 82.0175 86.7812 82.0175 85.0938C82.0175 83.4297 80.3534 82.2734 78.1269 82.2812C75.8847 82.2734 74.205 83.4297 74.2206 85.0938ZM98.0256 91.5156V92.5469H85.3069V91.5156H91.0256V88.8906H86.9006V84.6094H95.2131V82.4219H86.8694V81.4062H96.4163V85.6094H88.1194V87.875H96.7444V88.8906H92.2288V91.5156H98.0256ZM115.214 87.7344V88.7344H109.558V91.4531H108.339V88.7344H102.495V87.7344H115.214ZM104.12 93.9688V90.1719H105.339V92.9375H113.792V93.9688H104.12ZM104.198 86.375V80.8281H105.417V82.6094H112.292V80.8281H113.511V86.375H104.198ZM105.417 85.375H112.292V83.5469H105.417V85.375ZM120.753 82.6094C120.745 84.5234 122.175 86.2891 124.191 86.9844L123.519 87.9688C121.98 87.3984 120.769 86.2188 120.175 84.7344C119.589 86.375 118.339 87.6562 116.706 88.2969L116.034 87.2812C118.144 86.5391 119.534 84.7031 119.55 82.5625V81.0938H120.753V82.6094ZM118.191 90.3438V89.3594H127.534V94.2656H126.3V90.3438H118.191ZM123.206 84.3281V83.2969H126.3V80.375H127.534V88.5938H126.3V84.3281H123.206ZM132.98 90.0938C132.105 90.0938 131.386 89.375 131.386 88.4844C131.386 87.6094 132.105 86.8906 132.98 86.8906C133.871 86.8906 134.589 87.6094 134.589 88.4844C134.589 89.375 133.871 90.0938 132.98 90.0938ZM144.535 81.2812C144.527 84.7656 142.035 87.2656 138.035 88.4062L137.519 87.4375C140.84 86.5 142.965 84.6562 143.23 82.2969H138.238V81.2812H144.535ZM139.863 94.0781V88.9062H148.879V94.0781H139.863ZM141.051 93.0781H147.66V89.8906H141.051V93.0781ZM144.566 85V83.9688H147.644V80.3906H148.879V88.3125H147.644V85H144.566ZM163.527 86.9844V88H150.871V86.9844H163.527ZM151.59 85.1719C154.012 84.8906 156.348 83.6953 156.402 82.1094H152.027V81.0938H162.402V82.1094H157.996C158.051 83.6797 160.363 84.8906 162.824 85.1719L162.371 86.1562C160.098 85.8672 157.965 84.8438 157.199 83.3047C156.434 84.8438 154.317 85.8672 152.027 86.1562L151.59 85.1719ZM152.402 91.7344C152.395 90.1406 154.199 89.2188 157.199 89.2188C160.176 89.2188 161.965 90.1406 161.981 91.7344C161.965 93.3438 160.176 94.2344 157.199 94.2344C154.199 94.2344 152.395 93.3438 152.402 91.7344ZM153.652 91.7344C153.637 92.7031 154.973 93.2578 157.199 93.25C159.402 93.2578 160.738 92.7031 160.746 91.7344C160.738 90.7578 159.402 90.2031 157.199 90.1875C154.973 90.2031 153.637 90.7578 153.652 91.7344ZM175.239 80.375V83.9375H177.333V84.9844H175.239V88.4531H174.02V80.375H175.239ZM164.411 82.8281V81.8125H167.942V80.25H169.161V81.8125H172.692V82.8281H164.411ZM165.208 85.9062C165.2 84.4219 166.536 83.4766 168.551 83.4688C170.543 83.4766 171.879 84.4219 171.895 85.9062C171.879 87.3906 170.543 88.3516 168.551 88.3438C166.536 88.3516 165.2 87.3906 165.208 85.9062ZM166.379 85.9062C166.372 86.8125 167.239 87.4062 168.551 87.4062C169.848 87.4062 170.723 86.8125 170.739 85.9062C170.723 85.0078 169.848 84.4062 168.551 84.4219C167.239 84.4062 166.372 85.0078 166.379 85.9062ZM166.458 94.0781V89.0625H167.676V90.5469H174.02V89.0625H175.239V94.0781H166.458ZM167.676 93.0938H174.02V91.5156H167.676V93.0938ZM189.341 80.375V94.2656H188.122V80.375H189.341ZM178.794 90.6875V81.75H179.997V89.625C182.122 89.6094 184.309 89.4453 186.637 88.9531L186.809 90C184.341 90.5156 182.145 90.6875 179.919 90.6875H178.794ZM202.146 80.375V85.875H204.474V86.9062H202.146V94.2969H200.927V80.375H202.146ZM192.005 90.8125V81.7344H198.489V82.75H193.224V89.7812C195.739 89.7734 197.513 89.6641 199.583 89.2812L199.739 90.3438C197.56 90.7344 195.739 90.8125 193.099 90.8125H192.005ZM206.372 93.0938C205.826 93.0859 205.357 92.6328 205.372 92.0781C205.357 91.5312 205.826 91.0781 206.372 91.0781C206.927 91.0781 207.38 91.5312 207.372 92.0781C207.38 92.6328 206.927 93.0859 206.372 93.0938Z" fill="black"/>
</svg>
