<svg width="34" height="34" viewBox="0 0 34 34" fill="none" xmlns="http://www.w3.org/2000/svg">
<path d="M32.1981 1.47827H21.3867C20.9088 1.47827 20.4505 1.66863 20.1126 2.00746C19.7747 2.34629 19.5848 2.80585 19.5848 3.28503V14.1256C19.5848 14.6048 19.7747 15.0643 20.1126 15.4032C20.4505 15.742 20.9088 15.9324 21.3867 15.9324H32.1981C32.676 15.9324 33.1343 15.742 33.4722 15.4032C33.8101 15.0643 34 14.6048 34 14.1256V3.28503C34 2.80585 33.8101 2.34629 33.4722 2.00746C33.1343 1.66863 32.676 1.47827 32.1981 1.47827Z" fill="white"/>
<path d="M14.1791 19.5459H3.36781C2.88992 19.5459 2.4316 19.7363 2.09368 20.0751C1.75576 20.4139 1.56592 20.8735 1.56592 21.3527V32.1932C1.56592 32.6724 1.75576 33.132 2.09368 33.4708C2.4316 33.8096 2.88992 34 3.36781 34H14.1791C14.657 34 15.1154 33.8096 15.4533 33.4708C15.7912 33.132 15.981 32.6724 15.981 32.1932V21.3527C15.981 20.8735 15.7912 20.4139 15.4533 20.0751C15.1154 19.7363 14.657 19.5459 14.1791 19.5459Z" fill="white"/>
<path d="M26.7924 19.5459C28.2026 19.5459 29.5818 19.9607 30.7592 20.7389C31.9365 21.5171 32.8604 22.6245 33.4163 23.924C33.9722 25.2235 34.1357 26.6579 33.8866 28.0497C33.6375 29.4414 32.9867 30.7293 32.0148 31.7538C31.0429 32.7784 29.7926 33.4945 28.4188 33.8136C27.045 34.1327 25.608 34.0406 24.2859 33.5489C22.9637 33.0572 21.8145 32.1873 20.9805 31.0471C20.1465 29.907 19.6644 28.5465 19.5938 27.1343L19.5848 26.7729L19.5938 26.4116C19.6863 24.5597 20.4851 22.8144 21.8249 21.5364C23.1648 20.2585 24.9432 19.5459 26.7924 19.5459Z" fill="white"/>
<path d="M7.19736 3.06979C7.96352 1.71805 9.9111 1.71805 10.6773 3.06979L16.1821 12.7819C16.9377 14.1152 15.9746 15.7681 14.4421 15.7681H3.43251C1.89997 15.7681 0.936874 14.1152 1.69257 12.7819L7.19736 3.06979Z" fill="white"/>
</svg>
