<svg width="48" height="48" viewBox="0 0 48 48" fill="none" xmlns="http://www.w3.org/2000/svg">
<g clip-path="url(#clip0_729_942)">
<rect width="48" height="48" rx="24" fill="black"/>
<path d="M57.938 -36.0767H5.09668V38.7263H57.938V-36.0767Z" fill="black"/>
<path d="M-4.37172 27.4807C-4.3504 27.5945 -4.3504 27.7198 -4.34152 27.8256L-4.31133 27.807C-2.80429 33.8799 1.09607 40.3243 7.80802 47.1528C8.57531 47.6141 9.77863 47.8933 10.7955 46.4035C13.5085 40.6639 22.0978 27.1545 59.6627 6.33398C41.0312 14.0309 17.6868 21.3029 -4.9978 21.8603C-5.02355 23.6958 -4.82374 25.5758 -4.37172 27.4816" fill="#FBB033"/>
<path d="M96.3966 -11.1781C96.3966 -11.1781 82.3946 -4.52026 62.5642 4.94999L62.431 5.0131L45.9619 48.9999C73.1712 31.3599 87.2016 19.7323 92.4057 5.81844C92.4057 5.82199 92.4039 5.82466 92.4021 5.82466C95.2794 -1.28914 96.9934 -7.26694 97.0724 -11.507C96.8495 -11.3985 96.6177 -11.2847 96.3966 -11.1781Z" fill="#FBB033"/>
<path d="M48.5793 -21.7248L66.9604 -40.1524C68.9008 -42.8582 66.9604 -42.9569 65.7713 -42.8102C48.2321 -36.7453 -4.10661 -15.5701 -4.90587 21.2816C-4.96359 21.918 -4.99734 22.5651 -5 23.2194C17.6846 22.6611 41.0281 15.39 59.6605 7.69308L62.4277 6.37397L62.5609 6.31086C82.3913 -3.1594 96.3933 -9.81721 96.3933 -9.81721C96.6145 -9.92387 96.8463 -10.0385 97.0692 -10.1461C108.413 -15.6981 121.247 -21.7995 135.064 -27.4084L135.071 -27.4217C81.5601 -7.57809 48.5784 -21.7239 48.5784 -21.7239" fill="#D92128"/>
<path d="M31.9401 14.8695H25.5804C25.2993 14.8695 25.0297 14.9815 24.831 15.1808C24.6322 15.3801 24.5205 15.6504 24.5205 15.9323V22.3091C24.5205 22.591 24.6322 22.8613 24.831 23.0606C25.0297 23.2599 25.2993 23.3719 25.5804 23.3719H31.9401C32.2212 23.3719 32.4908 23.2599 32.6895 23.0606C32.8883 22.8613 33 22.591 33 22.3091V15.9323C33 15.6504 32.8883 15.3801 32.6895 15.1808C32.4908 14.9815 32.2212 14.8695 31.9401 14.8695Z" fill="white"/>
<path d="M21.3404 25.4976H14.9808C14.6997 25.4976 14.4301 25.6095 14.2313 25.8088C14.0326 26.0082 13.9209 26.2785 13.9209 26.5604V32.9372C13.9209 33.219 14.0326 33.4894 14.2313 33.6887C14.4301 33.888 14.6997 34 14.9808 34H21.3404C21.6216 34 21.8912 33.888 22.0899 33.6887C22.2887 33.4894 22.4004 33.219 22.4004 32.9372V26.5604C22.4004 26.2785 22.2887 26.0082 22.0899 25.8088C21.8912 25.6095 21.6216 25.4976 21.3404 25.4976Z" fill="white"/>
<path d="M28.7602 25.4976C29.5898 25.4976 30.4011 25.7416 31.0936 26.1993C31.7862 26.6571 32.3297 27.3085 32.6567 28.0729C32.9837 28.8373 33.0798 29.6811 32.9333 30.4998C32.7868 31.3185 32.4039 32.076 31.8322 32.6787C31.2605 33.2814 30.5251 33.7026 29.717 33.8903C28.9088 34.078 28.0636 34.0239 27.2858 33.7346C26.5081 33.4454 25.8321 32.9337 25.3415 32.263C24.8509 31.5923 24.5673 30.792 24.5258 29.9613L24.5205 29.7488L24.5258 29.5362C24.5802 28.4469 25.0501 27.4202 25.8382 26.6685C26.6264 25.9168 27.6725 25.4976 28.7602 25.4976Z" fill="white"/>
<path d="M17.3873 15.5349C17.7703 14.859 18.7441 14.859 19.1272 15.5349L22.6682 21.7823C23.046 22.4489 22.5645 23.2754 21.7982 23.2754H14.7163C13.95 23.2754 13.4684 22.4489 13.8463 21.7823L17.3873 15.5349Z" fill="white"/>
</g>
<defs>
<clipPath id="clip0_729_942">
<rect width="48" height="48" rx="24" fill="white"/>
</clipPath>
</defs>
</svg>
