<svg width="22" height="19" viewBox="0 0 22 19" fill="none" xmlns="http://www.w3.org/2000/svg">
<path d="M8.5 16.1591C6 16.1591 5 14.5909 5 12.5" stroke="white" stroke-width="1.5" stroke-linecap="round" stroke-linejoin="round"/>
<path d="M5 7.27273C5 3.80841 7.6863 1 11 1C14.3137 1 17 3.80841 17 7.27273" stroke="white" stroke-width="1.5" stroke-linecap="round" stroke-linejoin="round"/>
<path d="M17 8.22705C17 7.12248 17.8954 6.22705 19 6.22705V6.22705C20.1046 6.22705 21 7.12248 21 8.22705V10.6211C21 11.6579 20.1038 12.4998 19 12.4998C17.8962 12.4998 17 11.6579 17 10.6211V8.22705Z" stroke="white" stroke-width="1.5" stroke-linecap="round" stroke-linejoin="round"/>
<path d="M1 8.22705C1 7.12248 1.89543 6.22705 3 6.22705V6.22705C4.10457 6.22705 5 7.12248 5 8.22705V10.6211C5 11.6579 4.10378 12.4998 3 12.4998C1.89622 12.4998 1 11.6579 1 10.6211V8.22705Z" stroke="white" stroke-width="1.5" stroke-linecap="round" stroke-linejoin="round"/>
<rect x="9" y="14.1079" width="4" height="4" rx="2" stroke="white" stroke-width="1.5"/>
</svg>
