<svg width="215" height="24" viewBox="0 0 215 24" fill="none" xmlns="http://www.w3.org/2000/svg">
<g clip-path="url(#clip0_383_165)">
<path d="M110.283 1.92022C104.118 1.92022 99.121 6.86188 99.121 12.9601C99.121 19.0583 104.118 24 110.283 24C116.447 24 121.444 19.0583 121.444 12.9601C121.444 6.86188 116.447 1.92022 110.283 1.92022ZM110.283 19.49C106.807 19.49 103.996 16.5681 103.996 12.9601C103.996 9.35209 106.813 6.43025 110.283 6.43025C113.752 6.43025 116.569 9.35209 116.569 12.9601C116.569 16.5681 113.752 19.49 110.283 19.49Z" fill="#00599A"/>
<path d="M28.7978 4.79778V23.5186H33.5956V16.225H43.3406V12.0028H33.5956V6.72354H43.6781V2.40166H31.1995C29.8713 2.40166 28.7978 3.47521 28.7978 4.80332V4.79778Z" fill="#00599A"/>
<path d="M52.0784 2.40166H47.2806V23.5241H52.0784V2.40166Z" fill="#00599A"/>
<path d="M71.0426 15.8377L62.5649 3.3424C62.1609 2.75029 61.4969 2.40166 60.7775 2.40166H56.6382V23.5241H61.436V10.0825L69.9137 22.5778C70.3177 23.1699 70.9818 23.5186 71.6956 23.5186H75.8349V2.40166H71.0371V15.8432L71.0426 15.8377Z" fill="#00599A"/>
<path d="M90.2172 19.4844C86.742 19.4844 83.9308 16.5626 83.9308 12.9601C83.9308 9.35762 86.7475 6.43578 90.2172 6.43578C92.2481 6.43578 93.7312 7.24371 95.2087 8.73784L98.2799 5.27922C96 2.87756 93.4102 1.92022 90.2172 1.92022C84.0526 1.92022 79.0556 6.86188 79.0556 12.9601C79.0556 19.0583 84.0526 24 90.2172 24C93.709 24 96.2601 22.5612 98.4736 20.1596L95.3525 17.0385C93.8695 18.6322 92.2481 19.4844 90.2172 19.4844Z" fill="#00599A"/>
<path d="M4.32188 12.4676V24H10.564V14.742C8.63823 13.685 6.54093 12.9103 4.32188 12.4676Z" fill="#00599A"/>
<path d="M4.32188 6.5686C6.49112 6.89509 8.58289 7.46507 10.564 8.25086V0H1.43878V0.237953L4.31635 1.92022V6.5686H4.32188Z" fill="#00599A"/>
<path d="M0 7.58128V12.1522C8.46668 12.1522 15.8045 16.961 19.4402 24H24.9573C20.7904 14.3436 11.1838 7.58128 0 7.58128Z" fill="#00B9F2"/>
<path d="M13.5135 9.62324C14.9301 10.3869 16.2804 11.2612 17.5421 12.2463C20.9454 8.92599 23.4798 4.72031 24.7692 0H19.7556C18.4386 3.67996 16.2804 6.96703 13.5135 9.62324Z" fill="#8DC63F"/>
<path d="M135.218 18.4773H134.227L132.777 20.2592V18.4773H131.97V22.6221H132.777V20.6963H132.789L134.233 22.6221H135.284L133.563 20.4307L135.218 18.4773Z" fill="#00599A"/>
<path d="M136.701 19.4402C135.81 19.4402 135.129 20.06 135.129 21.0837C135.129 21.9746 135.71 22.6885 136.701 22.6885C137.691 22.6885 138.278 21.9746 138.278 21.0837C138.278 20.06 137.592 19.4402 136.701 19.4402ZM136.701 22.0632C136.103 22.0632 135.948 21.5043 135.948 20.9896C135.948 20.5248 136.192 20.0655 136.701 20.0655C137.21 20.0655 137.459 20.5137 137.459 20.9896C137.459 21.5098 137.299 22.0632 136.701 22.0632Z" fill="#00599A"/>
<path d="M139.446 20.2204H139.435V19.5176H138.737V22.6221H139.523V21.4821C139.523 21.0339 139.523 20.2149 140.16 20.2149C140.298 20.2149 140.442 20.237 140.508 20.2813V19.4678C140.425 19.4457 140.342 19.4457 140.27 19.4457C139.8 19.4457 139.479 19.9327 139.446 20.226V20.2204Z" fill="#00599A"/>
<path d="M142.107 19.4402C141.172 19.4402 140.707 20.1817 140.707 21.0782C140.707 22.0964 141.288 22.6885 142.279 22.6885C142.7 22.6885 143.026 22.6055 143.314 22.4395V21.781C143.02 21.9525 142.694 22.0964 142.312 22.0964C141.825 22.0964 141.488 21.8142 141.454 21.3106H143.535C143.535 20.226 143.22 19.4346 142.102 19.4346L142.107 19.4402ZM141.46 20.7627C141.493 20.3477 141.72 20.0323 142.157 20.0323C142.594 20.0323 142.771 20.3698 142.794 20.7627H141.46Z" fill="#00599A"/>
<path d="M146.579 21.1501V20.7517C146.579 19.8331 146.197 19.4457 145.278 19.4457C144.946 19.4457 144.537 19.5342 144.232 19.6781L144.255 20.3698C144.52 20.1651 144.852 20.0323 145.184 20.0323C145.643 20.0323 145.865 20.2038 145.865 20.7019H145.433C145.107 20.7019 144.719 20.7295 144.421 20.8845C144.122 21.0339 143.906 21.3051 143.906 21.7699C143.906 22.362 144.426 22.694 144.957 22.694C145.311 22.694 145.704 22.5003 145.887 22.1573H145.898C145.904 22.2513 145.904 22.4561 145.931 22.6221H146.623C146.606 22.3786 146.595 22.1628 146.59 21.9304C146.584 21.7035 146.579 21.4655 146.579 21.1501ZM145.699 21.8252C145.577 21.9968 145.389 22.1019 145.151 22.1019C144.869 22.1019 144.653 21.9857 144.653 21.7201C144.653 21.2442 145.173 21.1833 145.522 21.1833H145.859C145.859 21.4268 145.826 21.6481 145.693 21.8197L145.699 21.8252Z" fill="#00599A"/>
<path d="M148.986 22.6221H149.794V20.962H151.426V20.309H149.794V19.1303H151.471V18.4773H148.986V22.6221Z" fill="#00599A"/>
<path d="M152.903 18.4773H152.118V19.1413H152.903V18.4773Z" fill="#00599A"/>
<path d="M152.903 19.5176H152.118V22.6221H152.903V19.5176Z" fill="#00599A"/>
<path d="M155.366 19.4402C154.957 19.4402 154.625 19.5785 154.376 19.9327H154.365V19.5121H153.623V22.6166H154.409V21.0948C154.409 20.6963 154.531 20.0655 155.101 20.0655C155.604 20.0655 155.61 20.5801 155.61 20.9564V22.6166H156.396V20.6576C156.396 19.9603 156.086 19.4402 155.372 19.4402H155.366Z" fill="#00599A"/>
<path d="M159.533 21.1501V20.7517C159.533 19.8331 159.151 19.4457 158.233 19.4457C157.901 19.4457 157.491 19.5342 157.187 19.6781L157.209 20.3698C157.475 20.1651 157.807 20.0323 158.139 20.0323C158.598 20.0323 158.819 20.2038 158.819 20.7019H158.388C158.061 20.7019 157.674 20.7295 157.375 20.8845C157.076 21.0339 156.86 21.3051 156.86 21.7699C156.86 22.362 157.381 22.694 157.912 22.694C158.266 22.694 158.659 22.5003 158.842 22.1573H158.853C158.858 22.2513 158.858 22.4561 158.886 22.6221H159.578C159.561 22.3786 159.55 22.1628 159.544 21.9304C159.539 21.7035 159.533 21.4655 159.533 21.1501ZM158.659 21.8252C158.537 21.9968 158.349 22.1019 158.111 22.1019C157.829 22.1019 157.613 21.9857 157.613 21.7201C157.613 21.2442 158.133 21.1833 158.482 21.1833H158.819C158.819 21.4268 158.786 21.6481 158.653 21.8197L158.659 21.8252Z" fill="#00599A"/>
<path d="M161.957 19.4402C161.548 19.4402 161.216 19.5785 160.967 19.9327H160.955V19.5121H160.214V22.6166H161V21.0948C161 20.6963 161.121 20.0655 161.691 20.0655C162.195 20.0655 162.201 20.5801 162.201 20.9564V22.6166H162.986V20.6576C162.986 19.9603 162.676 19.4402 161.963 19.4402H161.957Z" fill="#00599A"/>
<path d="M165.028 22.0632C164.48 22.0632 164.215 21.6205 164.215 21.0505C164.215 20.4805 164.525 20.0655 165.012 20.0655C165.25 20.0655 165.405 20.1153 165.543 20.1817L165.615 19.5453C165.399 19.4789 165.172 19.4402 164.857 19.4402C163.916 19.4402 163.401 20.154 163.401 21.0505C163.401 21.9968 163.899 22.6885 164.884 22.6885C165.205 22.6885 165.438 22.6608 165.67 22.5834L165.637 21.9138C165.504 21.9746 165.255 22.0576 165.034 22.0576L165.028 22.0632Z" fill="#00599A"/>
<path d="M167.292 19.4402C166.356 19.4402 165.892 20.1817 165.892 21.0782C165.892 22.0964 166.473 22.6885 167.463 22.6885C167.884 22.6885 168.21 22.6055 168.498 22.4395V21.781C168.205 21.9525 167.878 22.0964 167.496 22.0964C167.009 22.0964 166.672 21.8142 166.639 21.3106H168.719C168.719 20.226 168.404 19.4346 167.286 19.4346L167.292 19.4402ZM166.644 20.7627C166.677 20.3477 166.904 20.0323 167.341 20.0323C167.779 20.0323 167.956 20.3698 167.978 20.7627H166.644Z" fill="#00599A"/>
<path d="M170.999 19.1026V19.5121H170.429V20.0932H170.999V22.6166H171.768V20.0932H172.444V19.5121H171.768V19.1469C171.768 18.9089 171.851 18.6765 172.106 18.6765C172.272 18.6765 172.372 18.7429 172.438 18.7816L172.499 18.1231C172.35 18.0899 172.128 18.0567 171.934 18.0567C171.326 18.0567 170.988 18.4828 170.988 19.0971L170.999 19.1026Z" fill="#00599A"/>
<path d="M176.893 20.2204H176.882V19.5176H176.184V22.6221H176.97V21.4821C176.97 21.0339 176.97 20.2149 177.607 20.2149C177.745 20.2149 177.889 20.237 177.955 20.2813V19.4678C177.872 19.4457 177.789 19.4457 177.717 19.4457C177.247 19.4457 176.926 19.9327 176.893 20.226V20.2204Z" fill="#00599A"/>
<path d="M181.829 22.041C180.971 22.041 180.468 21.4047 180.468 20.5635C180.468 19.7224 180.988 19.0639 181.812 19.0639C182.1 19.0639 182.377 19.1081 182.681 19.2852L182.736 18.588C182.443 18.4718 182.094 18.4164 181.829 18.4164C180.468 18.4164 179.626 19.2133 179.626 20.6299C179.626 22.0466 180.528 22.6996 181.829 22.6996C182.133 22.6996 182.449 22.6387 182.742 22.5668L182.709 21.875C182.521 21.9746 182.144 22.0466 181.829 22.0466V22.041Z" fill="#00599A"/>
<path d="M190.561 20.3698C190.561 20.1042 190.81 20.0267 191.021 20.0267C191.308 20.0267 191.48 20.0766 191.723 20.1596L191.779 19.5508C191.535 19.4955 191.292 19.4346 190.926 19.4346C190.312 19.4346 189.748 19.7279 189.748 20.3975C189.748 21.5209 191.109 21.1003 191.109 21.7146C191.109 22.0134 190.794 22.0964 190.594 22.0964C190.323 22.0964 190.069 22.0189 189.82 21.8916L189.775 22.5557C190.063 22.6332 190.368 22.6885 190.666 22.6885C191.303 22.6885 191.928 22.4007 191.928 21.6758C191.928 20.5525 190.567 20.8679 190.567 20.3754L190.561 20.3698Z" fill="#00599A"/>
<path d="M195.387 20.2204H195.376V19.5176H194.678V22.6221H195.464V21.4821C195.464 21.0339 195.464 20.2149 196.1 20.2149C196.239 20.2149 196.383 20.237 196.449 20.2813V19.4678C196.366 19.4457 196.283 19.4457 196.211 19.4457C195.741 19.4457 195.42 19.9327 195.387 20.226V20.2204Z" fill="#00599A"/>
<path d="M198.829 21.0339C198.829 21.4323 198.707 22.0632 198.137 22.0632C197.633 22.0632 197.628 21.5485 197.628 21.1722V19.5121H196.842V21.4711C196.842 22.1683 197.152 22.6885 197.866 22.6885C198.275 22.6885 198.613 22.4948 198.856 22.196H198.867V22.6166H199.609V19.5121H198.823V21.0339H198.829Z" fill="#00599A"/>
<path d="M201.701 22.0632C201.153 22.0632 200.887 21.6205 200.887 21.0505C200.887 20.4805 201.197 20.0655 201.684 20.0655C201.922 20.0655 202.077 20.1153 202.215 20.1817L202.287 19.5453C202.071 19.4789 201.845 19.4402 201.529 19.4402C200.588 19.4402 200.074 20.154 200.074 21.0505C200.074 21.9968 200.572 22.6885 201.557 22.6885C201.878 22.6885 202.11 22.6608 202.343 22.5834L202.309 21.9138C202.177 21.9746 201.928 22.0576 201.706 22.0576L201.701 22.0632Z" fill="#00599A"/>
<path d="M204.285 22.0576C203.986 22.0576 203.914 21.8086 203.914 21.543V20.0987H204.611V19.5066H203.914V18.6267L203.128 18.8868V19.5066H202.592V20.0987H203.128V21.6758C203.128 22.2901 203.466 22.683 204.08 22.683C204.313 22.683 204.495 22.6608 204.661 22.611L204.639 21.9746C204.556 22.03 204.423 22.0576 204.285 22.0576Z" fill="#00599A"/>
<path d="M205.872 18.4718H205.087V19.1358H205.872V18.4718Z" fill="#00599A"/>
<path d="M205.872 19.5066H205.087V22.611H205.872V19.5066Z" fill="#00599A"/>
<path d="M193.837 22.0576C193.538 22.0576 193.466 21.8086 193.466 21.543V20.0987H194.164V19.5066H193.466V18.6267L192.681 18.8868V19.5066H192.144V20.0987H192.681V21.6758C192.681 22.2901 193.018 22.683 193.632 22.683C193.865 22.683 194.047 22.6608 194.213 22.611L194.191 21.9746C194.108 22.03 193.976 22.0576 193.837 22.0576Z" fill="#00599A"/>
<path d="M207.898 19.4346C207.008 19.4346 206.327 20.0544 206.327 21.0782C206.327 21.9691 206.908 22.683 207.898 22.683C208.889 22.683 209.476 21.9691 209.476 21.0782C209.476 20.0544 208.789 19.4346 207.898 19.4346ZM207.898 22.0576C207.301 22.0576 207.146 21.4987 207.146 20.9841C207.146 20.5193 207.389 20.0599 207.898 20.0599C208.408 20.0599 208.657 20.5082 208.657 20.9841C208.657 21.5043 208.496 22.0576 207.898 22.0576Z" fill="#00599A"/>
<path d="M211.678 19.4346C211.269 19.4346 210.937 19.573 210.688 19.9271H210.676V19.5066H209.935V22.611H210.721V21.0892C210.721 20.6908 210.842 20.0599 211.412 20.0599C211.916 20.0599 211.922 20.5746 211.922 20.9509V22.611H212.707V20.6521C212.707 19.9548 212.397 19.4346 211.684 19.4346H211.678Z" fill="#00599A"/>
<path d="M174.154 19.4346C173.263 19.4346 172.582 20.0544 172.582 21.0782C172.582 21.9691 173.163 22.683 174.154 22.683C175.144 22.683 175.731 21.9691 175.731 21.0782C175.731 20.0544 175.044 19.4346 174.154 19.4346ZM174.154 22.0576C173.556 22.0576 173.401 21.4987 173.401 20.9841C173.401 20.5193 173.644 20.0599 174.154 20.0599C174.663 20.0599 174.912 20.5082 174.912 20.9841C174.912 21.5043 174.751 22.0576 174.154 22.0576Z" fill="#00599A"/>
<path d="M184.474 19.4346C183.583 19.4346 182.902 20.0544 182.902 21.0782C182.902 21.9691 183.483 22.683 184.474 22.683C185.465 22.683 186.051 21.9691 186.051 21.0782C186.051 20.0544 185.365 19.4346 184.474 19.4346ZM184.474 22.0576C183.876 22.0576 183.721 21.4987 183.721 20.9841C183.721 20.5193 183.965 20.0599 184.474 20.0599C184.983 20.0599 185.232 20.5082 185.232 20.9841C185.232 21.5043 185.072 22.0576 184.474 22.0576Z" fill="#00599A"/>
<path d="M188.248 19.4346C187.839 19.4346 187.507 19.573 187.258 19.9271H187.246V19.5066H186.505V22.611H187.291V21.0892C187.291 20.6908 187.412 20.0599 187.982 20.0599C188.486 20.0599 188.492 20.5746 188.492 20.9509V22.611H189.277V20.6521C189.277 19.9548 188.967 19.4346 188.254 19.4346H188.248Z" fill="#00599A"/>
<path d="M165.095 7.94651C166.235 9.32442 167.762 9.69518 167.762 9.69518L168.432 8.85405C168.432 8.85405 166.838 8.26747 165.897 6.41918C166.102 5.816 166.224 5.11321 166.224 4.29975V4.20014L164.575 4.01752V4.72031C164.575 4.72031 164.547 7.95758 161.691 8.98132L162.328 9.90547C162.328 9.90547 163.938 9.4683 165.089 7.94651H165.095Z" fill="#00599A"/>
<path d="M177.391 10.8573C175.233 10.8573 173.7 12.0028 173.7 13.6186C173.7 15.2345 175.227 16.38 177.391 16.38C179.554 16.38 181.082 15.2345 181.082 13.6186C181.082 12.0028 179.554 10.8573 177.391 10.8573ZM177.391 15.2566C176.168 15.2566 175.305 14.5815 175.305 13.6242C175.305 12.6668 176.168 11.9917 177.391 11.9917C178.614 11.9917 179.477 12.6668 179.477 13.6242C179.477 14.5815 178.614 15.2566 177.391 15.2566Z" fill="#00599A"/>
<path d="M133.801 11.881L132.18 11.6375V16.0812H139.562V14.9412H133.801V11.881Z" fill="#00599A"/>
<path d="M143.635 12.3016L142.019 12.0636V16.0812H149.578V14.9412H143.635V12.3016Z" fill="#00599A"/>
<path d="M140.94 10.8573H145.201V13.5024L146.822 13.3807V10.8573H150.419V9.71732H140.94V10.8573Z" fill="#00599A"/>
<path d="M136.136 10.564L136.806 9.72285C136.806 9.72285 135.345 9.03113 134.51 7.62001C135.041 6.74014 135.395 5.59465 135.395 4.31635H130.498V5.4563H133.574C133.464 6.2421 132.905 8.54415 129.839 9.75052L130.459 10.6802C130.459 10.6802 132.124 10.2375 133.525 8.86511C134.581 10.0991 136.136 10.564 136.136 10.564Z" fill="#00599A"/>
<path d="M156.966 4.32188H152.068V5.46184H155.145C155.034 6.24763 154.459 8.54968 151.399 9.75605L152.035 10.6857C152.035 10.6857 156.971 9.32441 156.971 4.32741L156.966 4.32188Z" fill="#00599A"/>
<path d="M186.306 8.87064C186.831 7.71962 187.219 6.21996 187.219 4.32188H183.301V5.43417H185.614C185.553 6.40258 185.133 9.5679 182.626 11.5435L183.323 12.285C183.323 12.285 184.48 11.7205 185.531 10.2209C186.472 11.632 187.379 12.1134 187.379 12.1134L188.077 11.3719C188.077 11.3719 186.859 10.3482 186.306 8.87064Z" fill="#00599A"/>
<path d="M137.703 12.6004L139.318 12.4787V3.96218L137.703 3.7187V6.71801H135.899V7.89117H137.703V12.6004Z" fill="#00599A"/>
<path d="M155.162 11.881L153.54 11.6375V16.0812H160.922V14.9412H155.162V11.881Z" fill="#00599A"/>
<path d="M165.842 13.8621H171.298V10.6857H164.22V11.7925H169.682V12.7775H164.22V16.0812H171.542V14.9689H165.842V13.8621Z" fill="#00599A"/>
<path d="M177.54 6.66267L175.919 6.48006V8.82085H172.798V9.9608H182.039V8.82085H177.54V6.66267Z" fill="#00599A"/>
<path d="M179.521 7.97971L181.143 7.85796V4.07839H173.822V5.19068H179.521V7.97971Z" fill="#00599A"/>
<path d="M194.092 9.15287L194.579 10.077C194.579 10.077 196.864 9.9276 198.928 8.77657C200.909 9.91653 202.542 9.95527 202.542 9.95527L203.034 9.09753C201.64 8.79871 200.743 8.14019 200.334 7.77496C201.181 7.03896 201.767 6.09269 201.994 4.80885C201.994 4.80885 202.049 4.51556 202.055 4.31635H194.949V5.42864H199.902C199.642 6.23657 198.602 8.26193 194.097 9.15287H194.092Z" fill="#00599A"/>
<path d="M156.96 8.27853H159.057V12.6004L160.679 12.4787V3.96218L159.057 3.7187V7.1109H156.96V8.27853Z" fill="#00599A"/>
<path d="M212.702 6.48005V3.96218L211.08 3.7187V10.4422L212.702 10.3205V7.64768H214.262V6.48005H212.702Z" fill="#00599A"/>
<path d="M199.321 10.4422L197.7 10.3205V13.1427H193.859V14.2827H203.162V13.1427H199.321V10.4422Z" fill="#00599A"/>
<path d="M209.763 7.08877C209.763 6.38045 209.431 5.81047 209.038 5.42864H210.123V4.31635H207.755V3.359L206.133 3.23726V4.31635H203.765V5.42864H204.849C204.462 5.81047 204.124 6.38045 204.124 7.08877C204.124 8.6659 205.292 9.77819 206.947 9.77819C208.601 9.77819 209.769 8.66036 209.769 7.08877H209.763ZM205.624 7.08877C205.624 6.14803 206.172 5.48397 206.947 5.48397C207.721 5.48397 208.264 6.14803 208.264 7.08877C208.264 8.02951 207.716 8.69357 206.947 8.69357C206.178 8.69357 205.624 8.02951 205.624 7.08877Z" fill="#00599A"/>
<path d="M211.08 12.4787H207.179V11.2778L205.558 11.0399V16.0812H212.696V11.2834L211.075 11.0454V12.4842L211.08 12.4787ZM211.08 14.9412H207.179V13.591H211.08V14.9412Z" fill="#00599A"/>
<path d="M190.888 15.5997L192.421 15.478V3.96218L190.888 3.7187V15.5997Z" fill="#00599A"/>
<path d="M169.682 10.0825L171.298 9.9608V3.96218L169.682 3.7187V6.05949H167.64V7.22711H169.682V10.0825Z" fill="#00599A"/>
<path d="M188.519 7.76942H187.108V8.90938H188.519V15.24L190.019 15.1183V4.07839L188.519 3.84044V7.76942Z" fill="#00599A"/>
<path d="M149.34 4.07839H142.019V8.46115H149.34V4.07839ZM147.719 7.32119H143.64V5.21835H147.719V7.32119Z" fill="#00599A"/>
</g>
<defs>
<clipPath id="clip0_383_165">
<rect width="214.262" height="24" fill="white"/>
</clipPath>
</defs>
</svg>
