<svg width="260" height="48" viewBox="0 0 260 48" fill="none" xmlns="http://www.w3.org/2000/svg">
<rect width="100" height="48" rx="24" fill="black" fill-opacity="0.7"/>
<path d="M22.3594 29.5V28.3594L28.2969 19.6719H22.2969V18.1875H30.4062V19.3281L24.4688 28.0156H30.4531V29.5H22.3594ZM35.5394 29.6719C33.1331 29.6719 31.5628 27.9219 31.5706 25.2969C31.5628 22.6562 33.1331 20.9062 35.5394 20.9062C37.93 20.9062 39.4925 22.6562 39.4925 25.2969C39.4925 27.9219 37.93 29.6719 35.5394 29.6719ZM33.2425 25.2969C33.2425 26.9141 33.9847 28.2812 35.5394 28.2812C37.0706 28.2812 37.805 26.9141 37.805 25.2969C37.805 23.6719 37.0706 22.2891 35.5394 22.2812C33.9847 22.2891 33.2425 23.6719 33.2425 25.2969ZM44.4069 29.6719C42.0006 29.6719 40.4303 27.9219 40.4381 25.2969C40.4303 22.6562 42.0006 20.9062 44.4069 20.9062C46.7975 20.9062 48.36 22.6562 48.36 25.2969C48.36 27.9219 46.7975 29.6719 44.4069 29.6719ZM42.11 25.2969C42.11 26.9141 42.8522 28.2812 44.4069 28.2812C45.9381 28.2812 46.6725 26.9141 46.6725 25.2969C46.6725 23.6719 45.9381 22.2891 44.4069 22.2812C42.8522 22.2891 42.11 23.6719 42.11 25.2969ZM49.6806 29.5V21.0156H51.29V22.4062H51.3838C51.7431 21.4609 52.5791 20.9062 53.6963 20.9062C54.8291 20.9062 55.6181 21.4609 55.9775 22.4062H56.0713C56.4697 21.4922 57.3916 20.9062 58.6181 20.9062C60.1494 20.9062 61.2353 21.8672 61.2431 23.8125V29.5H59.5713V23.9688C59.5713 22.8203 58.8525 22.3438 57.9775 22.3438C56.9072 22.3438 56.29 23.0781 56.29 24.0938V29.5H54.6338V23.875C54.6338 22.9453 54.0009 22.3438 53.0869 22.3438C52.1494 22.3438 51.3525 23.125 51.3525 24.2656V29.5H49.6806ZM68.3844 18.1875V29.5H66.6656V18.1875H68.3844ZM71.8925 24.4688V29.5H70.2206V21.0156H71.83V22.4062H71.9238C72.3222 21.4922 73.1581 20.9062 74.4238 20.9062C76.1659 20.9062 77.3222 22.0078 77.3144 24.1094V29.5H75.6581V24.3125C75.6503 23.0781 74.9863 22.3438 73.8613 22.3438C72.7128 22.3438 71.8925 23.1172 71.8925 24.4688Z" fill="white"/>
<rect x="108" width="96" height="48" rx="24" fill="black" fill-opacity="0.7"/>
<path d="M124 24H140" stroke="white" stroke-width="1.5" stroke-linejoin="round"/>
<path d="M172 24H188" stroke="white" stroke-width="1.5" stroke-linejoin="round"/>
<path d="M180.006 16.0049L180.006 32.0049" stroke="white" stroke-width="1.5" stroke-linejoin="round"/>
<rect x="212" width="48" height="48" rx="24" fill="black" fill-opacity="0.7"/>
<path d="M244 24C244 28.4183 240.418 32 236 32C231.582 32 228 28.4183 228 24C228 19.5817 231.582 16 236 16C238.389 16 240.534 17.0475 242 18.7084M242 18.7084H239M242 18.7084V16" stroke="white" stroke-width="1.5" stroke-linecap="round" stroke-linejoin="round"/>
</svg>
