<svg width="1920" height="560" viewBox="0 0 1920 560" fill="none" xmlns="http://www.w3.org/2000/svg">
<rect opacity="0.1" width="1920" height="1" fill="black"/>
<g clip-path="url(#clip0_1266_1163)">
<path d="M121.094 88.2148L116.634 103.073L112.173 88.2148H107.562L113.353 107.506H119.912L125.706 88.2148H121.094Z" fill="#BF0C3F"/>
<path d="M87.8193 91.7264V88.2148H76.2348C74.7899 88.2148 73.6188 89.3844 73.6188 90.8275V104.896C73.6188 106.342 74.7899 107.509 76.2348 107.509H87.8193V104H78.0682V99.6147H87.8193V96.106H78.0682V91.7264H87.8193Z" fill="#BF0C3F"/>
<path d="M141.597 91.7264V88.2148H130.018C128.57 88.2148 127.399 89.3844 127.399 90.8275V104.896C127.399 106.342 128.57 107.509 130.018 107.509H141.597V104H131.846V99.6147H141.597V96.106H131.846V91.7264H141.597Z" fill="#BF0C3F"/>
<path d="M199.813 91.7264V88.2148H188.234C186.789 88.2148 185.615 89.3844 185.615 90.8275V104.896C185.615 106.342 186.786 107.509 188.234 107.509H199.813V104H190.062V99.6147H199.813V96.106H190.062V91.7264H199.813Z" fill="#4D4D4D"/>
<path d="M103.157 98.8972C107.017 97.616 106.668 93.6411 106.668 93.6411C106.581 90.7576 104.627 89.1973 103.44 88.6641C102.439 88.2147 101.36 88.2119 99.7895 88.2119H93.7359C92.2882 88.2119 91.12 89.3815 91.12 90.8246V107.503H95.5665V91.7178H99.7867C101.567 91.7178 102.338 92.5748 102.338 93.9844C102.338 95.394 101.413 96.1031 99.6414 96.1031H96.7236L103.635 107.503H108.437L103.157 98.8944V98.8972Z" fill="#BF0C3F"/>
<path d="M70.4886 96.1537V92.3491C70.4886 91.0679 69.9213 89.4908 68.0096 88.6059C67.2075 88.2347 64.5944 88.1426 62.3613 88.1426C60.9919 88.1426 59.3485 88.1426 58.1579 88.2961C55.8885 88.592 54.2703 90.4287 54.329 93.0777C54.3709 95.0819 55.4637 96.539 56.7354 97.5829L65.3685 104.073C65.757 104.385 66.0421 104.768 66.0421 105.555V107.509H70.4886V105.468H70.4858C70.4803 103.746 69.7424 102.217 68.4736 101.173L59.5945 94.5208C59.2088 94.2026 58.9628 93.8006 58.9628 93.1586C58.9628 93.1586 58.9461 92.07 60.0584 91.8439C60.6732 91.7155 61.4195 91.7323 61.4195 91.7323H63.5407C64.8934 91.7574 65.2651 91.9444 65.2651 91.9444C65.7263 92.1705 66.0225 92.6143 66.0477 93.1865V96.1565H70.4942L70.4886 96.1537Z" fill="#BF0C3F"/>
<path d="M154.26 87.7402C148.771 87.7402 144.322 92.2762 144.322 97.87C144.322 103.464 148.771 108 154.26 108C159.749 108 164.202 103.464 164.202 97.87C164.202 92.2762 159.749 87.7402 154.26 87.7402ZM154.26 103.824C151.248 103.824 148.802 101.147 148.802 97.8449C148.802 94.5427 151.248 91.8631 154.26 91.8631C157.273 91.8631 159.719 94.54 159.719 97.8449C159.719 101.15 157.273 103.824 154.26 103.824Z" fill="#4D4D4D"/>
<path d="M58.9684 103.715H40V107.553H58.9684V103.715Z" fill="#BF0C3F"/>
<path d="M225 80H200.266V87.7572H225V80Z" fill="#BF0C3F"/>
<path d="M177.916 88.2148V101.089L172.905 89.4765C172.55 88.7759 171.773 88.24 171.038 88.2148H168.047C167.111 88.2148 166.354 88.9741 166.354 89.9092V107.503H170.797V94.6294L175.797 106.213C176.141 106.925 176.921 107.472 177.67 107.503H180.671C181.608 107.503 182.368 106.747 182.368 105.811V88.2148H177.919H177.916Z" fill="#4D4D4D"/>
</g>
<path d="M582.631 82.6758C582.624 84.3027 584.791 85.6836 586.91 85.998L586.514 86.8457C584.62 86.5244 582.768 85.5127 582.029 84.0498C581.291 85.5127 579.438 86.5244 577.572 86.8457L577.148 85.998C579.261 85.6836 581.421 84.3027 581.428 82.6758V82.5938H577.531V81.7188H586.514V82.5938H582.631V82.6758ZM576.492 88.7734V87.8848H587.566V88.7734H582.535V93.1074H581.482V88.7734H576.492ZM601.121 90.6328V91.5215H589.992V90.6328H594.968V87.6523H596.021V90.6328H601.121ZM590.429 86.9004C592.555 86.5381 594.921 84.7607 594.927 82.7168V81.7871H596.048V82.7168C596.055 84.7471 598.455 86.5381 600.574 86.9004L600.095 87.7891C598.243 87.4062 596.288 86.1553 595.502 84.4053C594.702 86.1484 592.767 87.4062 590.908 87.7891L590.429 86.9004Z" fill="#333333"/>
<path d="M582.398 115.488C582.39 118.441 583.805 121.342 586.336 122.449L585.158 124.014C583.365 123.135 582.1 121.447 581.423 119.364C580.729 121.562 579.428 123.39 577.6 124.312L576.369 122.73C578.962 121.518 580.403 118.459 580.412 115.488V112.957H582.398V115.488ZM584.578 118.389V116.807H587.918V111.674H589.852V127.582H587.918V118.389H584.578ZM599.309 111.832C602.93 111.841 605.03 112.808 605.039 114.557C605.03 116.332 602.93 117.29 599.309 117.299C595.696 117.29 593.578 116.332 593.578 114.557C593.578 112.808 595.696 111.841 599.309 111.832ZM592.084 119.654V118.125H606.568V119.654H600.275V120.867H604.758V124.752H595.723V125.93H605.197V127.424H593.807V123.363H602.842V122.309H593.789V120.867H598.324V119.654H592.084ZM595.635 114.557C595.626 115.436 596.892 115.84 599.309 115.857C601.761 115.84 603.018 115.436 603.018 114.557C603.018 113.739 601.761 113.3 599.309 113.291C596.892 113.3 595.626 113.739 595.635 114.557ZM622.125 119.988V121.518H607.605V119.988H622.125ZM609.24 124.295V122.73H620.297V127.564H618.328V124.295H609.24ZM609.469 118.811V112.061H620.385V113.59H611.42V114.68H619.998V116.139H611.42V117.316H620.508V118.811H609.469ZM636.504 111.674V119.883H634.553V118.16H631.354V119.373H623.918V112.377H625.869V114.381H629.42V112.377H631.354V113.783H634.553V111.674H636.504ZM625.869 117.826H629.42V115.875H625.869V117.826ZM626.027 122.062V120.533H636.504V124.611H627.996V125.824H637.014V127.371H626.045V123.17H634.553V122.062H626.027ZM631.354 116.666H634.553V115.26H631.354V116.666ZM644.766 115.488C644.748 118.406 646.286 121.324 648.861 122.432L647.701 123.996C645.873 123.152 644.537 121.474 643.799 119.399C643.069 121.632 641.698 123.46 639.773 124.365L638.578 122.73C641.224 121.588 642.771 118.556 642.779 115.488V112.957H644.766V115.488ZM650.004 127.582V111.674H651.973V127.582H650.004ZM666.773 117.352V119.373H673.066V120.955H658.582V119.373H664.84V117.352H666.773ZM659.268 116.684C662.203 116.394 664.11 115.242 664.436 113.941H659.9V112.377H671.766V113.941H667.187C667.512 115.233 669.419 116.394 672.381 116.684L671.678 118.213C668.795 117.914 666.668 116.789 665.807 115.189C664.945 116.789 662.836 117.914 659.953 118.213L659.268 116.684ZM660.27 124.752C660.27 122.968 662.335 121.975 665.807 121.975C669.252 121.975 671.3 122.968 671.309 124.752C671.3 126.554 669.252 127.547 665.807 127.547C662.335 127.547 660.27 126.554 660.27 124.752ZM662.256 124.752C662.247 125.622 663.469 126.07 665.807 126.07C668.101 126.07 669.34 125.622 669.357 124.752C669.34 123.908 668.101 123.478 665.807 123.469C663.469 123.478 662.247 123.908 662.256 124.752ZM688.658 124.102V125.719H674.139V124.102H680.396V121.518H675.861V116.314H685.002V114.346H675.826V112.764H686.936V117.861H677.812V119.918H687.305V121.518H682.33V124.102H688.658ZM702.404 112.641V114.064C702.396 115.55 702.396 117.176 701.982 119.426H704.18V121.008H697.869V127.582H695.9V121.008H689.695V119.426H699.996C700.436 117.264 700.453 115.638 700.453 114.223H691.4V112.641H702.404ZM714.551 115.805C714.542 118.485 715.465 121.104 717.662 122.273L716.502 123.82C715.069 123.021 714.12 121.623 713.584 119.927C713.013 121.799 711.993 123.372 710.508 124.26L709.26 122.836C711.598 121.465 712.652 118.635 712.652 115.928V113.08H714.551V115.805ZM717.873 126.791V111.955H719.719V117.932H721.354V111.674H723.234V127.564H721.354V119.514H719.719V126.791H717.873ZM739.582 119.619V121.184H733.447V124.102H731.514V121.184H725.062V119.619H739.582ZM726.82 127.248V122.643H728.771V125.666H737.982V127.248H726.82ZM726.908 118.143V112.395H737.719V118.143H726.908ZM728.807 116.613H735.785V113.924H728.807V116.613ZM753.17 111.674V116.332H755.385V117.949H753.17V123.293H751.219V111.674H753.17ZM740.812 116.736C740.804 114.39 742.685 112.737 745.102 112.729C747.519 112.737 749.373 114.39 749.391 116.736C749.373 119.048 747.519 120.727 745.102 120.727C742.685 120.727 740.804 119.048 740.812 116.736ZM742.729 116.736C742.72 118.107 743.774 119.013 745.102 119.004C746.446 119.013 747.466 118.107 747.475 116.736C747.466 115.33 746.446 114.434 745.102 114.434C743.774 114.434 742.72 115.33 742.729 116.736ZM742.992 127.248V122.08H744.943V125.666H753.803V127.248H742.992ZM770.713 124.102V125.719H756.193V124.102H762.451V121.518H757.916V116.314H767.057V114.346H757.881V112.764H768.99V117.861H759.867V119.918H769.359V121.518H764.385V124.102H770.713ZM772.752 126L778.271 115.277V115.189H771.873V113.273H780.645V115.225L775.125 126H772.752ZM786.973 126.176C784.485 126.158 782.007 124.682 782.016 119.988C782.016 115.638 783.993 113.098 787.113 113.098C789.565 113.098 791.253 114.636 791.543 116.701H789.275C789.047 115.726 788.273 115.075 787.113 115.084C785.268 115.075 784.239 116.71 784.23 119.391H784.354C785.004 118.292 786.226 117.642 787.623 117.65C789.908 117.642 791.675 119.373 791.666 121.781C791.675 124.312 789.785 126.193 786.973 126.176ZM784.477 121.852C784.494 123.179 785.531 124.321 786.973 124.33C788.388 124.321 789.442 123.231 789.451 121.834C789.442 120.48 788.423 119.391 787.008 119.391C785.575 119.391 784.494 120.524 784.477 121.852ZM810.123 112.342V113.783C810.114 115.321 810.114 116.903 809.666 119.039L807.732 118.881C807.899 118.107 808.005 117.404 808.066 116.745L798.855 117.141L798.609 115.523L808.154 115.295C808.172 114.82 808.172 114.363 808.172 113.906H799.031V112.342H810.123ZM797.379 121.482V119.918H802.934V117.826H804.885V119.918H811.793V121.482H797.379ZM799.102 127.318V122.59H801.053V125.736H810.422V127.318H799.102ZM825.82 113.08V114.521C825.812 116.446 825.838 118.67 825.117 122.027L823.201 121.834C823.482 120.551 823.649 119.417 823.746 118.406L814.377 118.934L814.096 117.264L823.86 116.912C823.896 116.086 823.904 115.348 823.904 114.662H814.588V113.08H825.82ZM812.9 125.613V123.996H818.244V120.076H820.178V123.996H827.385V125.613H812.9ZM841.676 111.674V127.582H839.707V111.674H841.676ZM829.441 123.75V113.115H837.105V114.715H831.41V122.098C834.328 122.08 836.165 122.001 838.283 121.623L838.477 123.24C836.2 123.662 834.152 123.75 830.795 123.75H829.441ZM857.32 111.691V123.328H855.369V117.545H852.495C852.091 119.408 850.447 120.674 848.426 120.674C846.026 120.674 844.225 118.995 844.225 116.666C844.225 114.319 846.026 112.676 848.426 112.676C850.509 112.676 852.188 113.985 852.53 115.945H855.369V111.691H857.32ZM846.088 116.666C846.088 118.063 847.099 118.986 848.426 118.986C849.727 118.986 850.72 118.063 850.729 116.666C850.72 115.26 849.727 114.381 848.426 114.381C847.099 114.381 846.088 115.26 846.088 116.666ZM846.896 127.248V122.15H848.848V125.666H857.725V127.248H846.896ZM872.771 111.674V119.883H870.838V111.674H872.771ZM860.379 119.32V112.342H862.312V114.328H866.092V112.342H868.043V119.32H860.379ZM862.26 122.115V120.604H872.807V124.664H864.211V125.912H873.281V127.424H862.295V123.258H870.855V122.115H862.26ZM862.312 117.773H866.092V115.84H862.312V117.773ZM888.363 111.674V121.271H886.395V111.674H888.363ZM876.059 120.094V112.887H883.617V114.469H877.992V118.512C881.13 118.512 882.967 118.397 885.023 117.984L885.199 119.584C882.976 120.015 880.998 120.094 877.412 120.094H876.059ZM877.553 124.471C877.553 122.52 879.609 121.368 882.984 121.377C886.307 121.368 888.398 122.52 888.398 124.471C888.398 126.413 886.307 127.556 882.984 127.564C879.609 127.556 877.553 126.413 877.553 124.471ZM879.521 124.471C879.521 125.473 880.752 126.026 882.984 126.018C885.199 126.026 886.474 125.473 886.482 124.471C886.474 123.434 885.199 122.915 882.984 122.906C880.752 122.915 879.521 123.434 879.521 124.471ZM900.246 126.176C897.759 126.158 895.28 124.682 895.289 119.988C895.289 115.638 897.267 113.098 900.387 113.098C902.839 113.098 904.526 114.636 904.816 116.701H902.549C902.32 115.726 901.547 115.075 900.387 115.084C898.541 115.075 897.513 116.71 897.504 119.391H897.627C898.277 118.292 899.499 117.642 900.896 117.65C903.182 117.642 904.948 119.373 904.939 121.781C904.948 124.312 903.059 126.193 900.246 126.176ZM897.75 121.852C897.768 123.179 898.805 124.321 900.246 124.33C901.661 124.321 902.716 123.231 902.725 121.834C902.716 120.48 901.696 119.391 900.281 119.391C898.849 119.391 897.768 120.524 897.75 121.852ZM912.674 119.777V121.623H906.943V119.777H912.674ZM919.477 126.176C916.638 126.176 914.634 124.664 914.643 122.59C914.634 120.973 915.838 119.654 917.367 119.408V119.338C916.031 119.057 915.126 117.896 915.117 116.508C915.126 114.539 916.963 113.098 919.477 113.098C921.973 113.098 923.818 114.539 923.818 116.508C923.818 117.905 922.887 119.057 921.568 119.338V119.408C923.089 119.654 924.302 120.973 924.311 122.59C924.302 124.664 922.289 126.176 919.477 126.176ZM916.998 122.379C916.989 123.557 917.965 124.365 919.477 124.365C920.971 124.365 921.946 123.557 921.955 122.379C921.946 121.184 920.909 120.296 919.477 120.305C918.044 120.296 916.989 121.175 916.998 122.379ZM917.35 116.719C917.358 117.835 918.237 118.6 919.477 118.6C920.698 118.6 921.586 117.835 921.586 116.719C921.586 115.638 920.725 114.891 919.477 114.891C918.202 114.891 917.358 115.638 917.35 116.719ZM940.166 119.584V121.166H925.682V119.584H940.166ZM926.367 117.316C929.654 117.097 931.526 116.007 931.781 114.697H927.105V113.15H931.939V111.709H933.873V113.15H938.742V114.697H934.022C934.269 116.007 936.149 117.097 939.445 117.316L938.848 118.811C936.009 118.591 933.891 117.703 932.906 116.332C931.904 117.703 929.795 118.591 926.965 118.811L926.367 117.316ZM927.369 124.875C927.369 123.135 929.426 122.194 932.906 122.186C936.369 122.194 938.399 123.135 938.408 124.875C938.399 126.606 936.369 127.547 932.906 127.547C929.426 127.547 927.369 126.606 927.369 124.875ZM929.355 124.875C929.347 125.684 930.568 126.088 932.906 126.088C935.2 126.088 936.439 125.684 936.457 124.875C936.439 124.058 935.2 123.645 932.906 123.645C930.568 123.645 929.347 124.058 929.355 124.875ZM944.332 124.752L942.855 129.674H941.186L942.1 124.752H944.332ZM950.361 113.273V126H948.059V115.506H947.988L945.018 117.404V115.312L948.164 113.273H950.361ZM958.148 126.176C955.081 126.176 953.253 123.803 953.262 119.637C953.253 115.488 955.099 113.098 958.148 113.098C961.198 113.098 963.035 115.488 963.035 119.637C963.035 123.812 961.207 126.176 958.148 126.176ZM955.564 119.637C955.564 122.695 956.549 124.251 958.148 124.26C959.739 124.251 960.732 122.695 960.732 119.637C960.724 116.604 959.739 115.005 958.148 114.996C956.558 115.005 955.573 116.604 955.564 119.637ZM978.908 119.584V121.166H964.424V119.584H978.908ZM965.109 117.316C968.396 117.097 970.269 116.007 970.523 114.697H965.848V113.15H970.682V111.709H972.615V113.15H977.484V114.697H972.765C973.011 116.007 974.892 117.097 978.188 117.316L977.59 118.811C974.751 118.591 972.633 117.703 971.648 116.332C970.646 117.703 968.537 118.591 965.707 118.811L965.109 117.316ZM966.111 124.875C966.111 123.135 968.168 122.194 971.648 122.186C975.111 122.194 977.142 123.135 977.15 124.875C977.142 126.606 975.111 127.547 971.648 127.547C968.168 127.547 966.111 126.606 966.111 124.875ZM968.098 124.875C968.089 125.684 969.311 126.088 971.648 126.088C973.942 126.088 975.182 125.684 975.199 124.875C975.182 124.058 973.942 123.645 971.648 123.645C969.311 123.645 968.089 124.058 968.098 124.875Z" fill="#333333"/>
<path d="M586.883 170.953V183.107H585.857V176.736H584.066V182.479H583.082V171.227H584.066V175.848H585.857V170.953H586.883ZM576.943 180.1V172.443H581.496V173.332H578.01V179.184C579.685 179.177 580.84 179.115 582.193 178.842L582.289 179.744C580.826 180.045 579.589 180.093 577.723 180.1H576.943ZM601.121 180.729V181.617H589.992V180.729H593.095V177.83H591.004V176.941H592.904V172.977H590.976V172.088H600.054V172.977H598.127V176.941H600.027V177.83H597.935V180.729H601.121ZM593.97 176.941H597.074V172.977H593.97V176.941ZM594.175 180.729H596.869V177.83H594.175V180.729ZM613.568 170.967V179.963H612.487V175.287H609.616V177.885H604.107V171.773H605.173V173.934H608.564V171.773H609.616V174.385H612.487V170.967H613.568ZM605.173 176.996H608.564V174.781H605.173V176.996ZM605.706 182.848V179.074H606.786V181.945H613.841V182.848H605.706ZM627.491 172.758V173.646H617.538V172.758H621.995V171.158H623.048V172.758H627.491ZM616.991 181.686V180.797H621.995V179.088C619.828 178.972 618.522 178.131 618.536 176.764C618.522 175.321 620.047 174.467 622.528 174.48C624.975 174.467 626.527 175.321 626.52 176.764C626.527 178.131 625.194 178.972 623.048 179.088V180.797H628.12V181.686H616.991ZM619.616 176.764C619.602 177.687 620.717 178.22 622.528 178.227C624.319 178.22 625.433 177.687 625.427 176.764C625.433 175.861 624.319 175.328 622.528 175.328C620.717 175.328 619.602 175.861 619.616 176.764ZM639.383 171.637L636.184 183.49H635.117L638.303 171.637H639.383ZM646.995 182V172.102H652.956V173.195H648.226V176.504H652.505V177.584H648.226V182H646.995ZM655.382 182H654.096L657.72 172.102H659.018L662.641 182H661.343L660.351 179.211H656.373L655.382 182ZM656.749 178.131H659.975L658.403 173.701H658.321L656.749 178.131ZM666.01 172.102L668.526 176.189H668.608L671.137 172.102H672.586L669.483 177.051L672.586 182H671.137L668.608 177.994H668.526L665.996 182H664.547L667.733 177.051L664.547 172.102H666.01Z" fill="#333333"/>
<path d="M581.748 216.176C578.681 216.176 576.853 213.803 576.861 209.637C576.853 205.488 578.698 203.098 581.748 203.098C584.798 203.098 586.635 205.488 586.635 209.637C586.635 213.812 584.807 216.176 581.748 216.176ZM579.164 209.637C579.164 212.695 580.148 214.251 581.748 214.26C583.339 214.251 584.332 212.695 584.332 209.637C584.323 206.604 583.339 205.005 581.748 204.996C580.157 205.005 579.173 206.604 579.164 209.637ZM588.551 216V214.348L593.051 210.006C594.334 208.723 595.002 207.967 595.002 206.895C595.002 205.708 594.062 204.961 592.822 204.961C591.513 204.961 590.669 205.778 590.678 207.07H588.498C588.489 204.662 590.3 203.098 592.84 203.098C595.441 203.098 597.19 204.653 597.199 206.789C597.19 208.222 596.505 209.382 594 211.746L591.732 213.996V214.084H597.393V216H588.551ZM605.197 208.723V210.568H599.467V208.723H605.197ZM612.141 216.176C609.653 216.158 607.175 214.682 607.184 209.988C607.184 205.638 609.161 203.098 612.281 203.098C614.733 203.098 616.421 204.636 616.711 206.701H614.443C614.215 205.726 613.441 205.075 612.281 205.084C610.436 205.075 609.407 206.71 609.398 209.391H609.521C610.172 208.292 611.394 207.642 612.791 207.65C615.076 207.642 616.843 209.373 616.834 211.781C616.843 214.312 614.953 216.193 612.141 216.176ZM609.645 211.852C609.662 213.179 610.699 214.321 612.141 214.33C613.556 214.321 614.61 213.231 614.619 211.834C614.61 210.48 613.591 209.391 612.176 209.391C610.743 209.391 609.662 210.524 609.645 211.852ZM619.242 216L624.762 205.277V205.189H618.363V203.273H627.135V205.225L621.615 216H619.242ZM627.732 213.627V211.799L633.234 203.273H636.082V211.746H637.752V213.627H636.082V216H633.902V213.627H627.732ZM630.07 211.746H633.938V205.875H633.797L630.07 211.658V211.746ZM644.273 216.176C641.206 216.176 639.378 213.803 639.387 209.637C639.378 205.488 641.224 203.098 644.273 203.098C647.323 203.098 649.16 205.488 649.16 209.637C649.16 213.812 647.332 216.176 644.273 216.176ZM641.689 209.637C641.689 212.695 642.674 214.251 644.273 214.26C645.864 214.251 646.857 212.695 646.857 209.637C646.849 206.604 645.864 205.005 644.273 204.996C642.683 205.005 641.698 206.604 641.689 209.637ZM656.877 208.723V210.568H651.146V208.723H656.877ZM663.68 216.176C660.841 216.176 658.837 214.664 658.846 212.59C658.837 210.973 660.041 209.654 661.57 209.408V209.338C660.234 209.057 659.329 207.896 659.32 206.508C659.329 204.539 661.166 203.098 663.68 203.098C666.176 203.098 668.021 204.539 668.021 206.508C668.021 207.905 667.09 209.057 665.771 209.338V209.408C667.292 209.654 668.505 210.973 668.514 212.59C668.505 214.664 666.492 216.176 663.68 216.176ZM661.201 212.379C661.192 213.557 662.168 214.365 663.68 214.365C665.174 214.365 666.149 213.557 666.158 212.379C666.149 211.184 665.112 210.296 663.68 210.305C662.247 210.296 661.192 211.175 661.201 212.379ZM661.553 206.719C661.562 207.835 662.44 208.6 663.68 208.6C664.901 208.6 665.789 207.835 665.789 206.719C665.789 205.638 664.928 204.891 663.68 204.891C662.405 204.891 661.562 205.638 661.553 206.719ZM674.93 216.176C672.39 216.176 670.518 214.655 670.447 212.555H672.68C672.75 213.583 673.726 214.321 674.93 214.33C676.354 214.321 677.382 213.293 677.373 211.887C677.382 210.428 676.327 209.399 674.859 209.391C673.866 209.382 673.146 209.733 672.75 210.48H670.623L671.396 203.273H678.92V205.189H673.277L672.891 208.564H673.014C673.506 208.011 674.429 207.606 675.475 207.598C677.839 207.606 679.597 209.364 679.588 211.816C679.597 214.356 677.681 216.176 674.93 216.176ZM686.215 216.176C683.147 216.176 681.319 213.803 681.328 209.637C681.319 205.488 683.165 203.098 686.215 203.098C689.265 203.098 691.102 205.488 691.102 209.637C691.102 213.812 689.273 216.176 686.215 216.176ZM683.631 209.637C683.631 212.695 684.615 214.251 686.215 214.26C687.806 214.251 688.799 212.695 688.799 209.637C688.79 206.604 687.806 205.005 686.215 204.996C684.624 205.005 683.64 206.604 683.631 209.637ZM697.711 216.176C694.644 216.176 692.815 213.803 692.824 209.637C692.815 205.488 694.661 203.098 697.711 203.098C700.761 203.098 702.598 205.488 702.598 209.637C702.598 213.812 700.77 216.176 697.711 216.176ZM695.127 209.637C695.127 212.695 696.111 214.251 697.711 214.26C699.302 214.251 700.295 212.695 700.295 209.637C700.286 206.604 699.302 205.005 697.711 204.996C696.12 205.005 695.136 206.604 695.127 209.637ZM713.988 202.676L709.893 217.916H707.924L712.037 202.676H713.988ZM724.201 216.176C721.134 216.176 719.306 213.803 719.314 209.637C719.306 205.488 721.151 203.098 724.201 203.098C727.251 203.098 729.088 205.488 729.088 209.637C729.088 213.812 727.26 216.176 724.201 216.176ZM721.617 209.637C721.617 212.695 722.602 214.251 724.201 214.26C725.792 214.251 726.785 212.695 726.785 209.637C726.776 206.604 725.792 205.005 724.201 204.996C722.61 205.005 721.626 206.604 721.617 209.637ZM731.004 216V214.348L735.504 210.006C736.787 208.723 737.455 207.967 737.455 206.895C737.455 205.708 736.515 204.961 735.275 204.961C733.966 204.961 733.122 205.778 733.131 207.07H730.951C730.942 204.662 732.753 203.098 735.293 203.098C737.895 203.098 739.644 204.653 739.652 206.789C739.644 208.222 738.958 209.382 736.453 211.746L734.186 213.996V214.084H739.846V216H731.004ZM747.65 208.723V210.568H741.92V208.723H747.65ZM754.594 216.176C752.106 216.158 749.628 214.682 749.637 209.988C749.637 205.638 751.614 203.098 754.734 203.098C757.187 203.098 758.874 204.636 759.164 206.701H756.896C756.668 205.726 755.895 205.075 754.734 205.084C752.889 205.075 751.86 206.71 751.852 209.391H751.975C752.625 208.292 753.847 207.642 755.244 207.65C757.529 207.642 759.296 209.373 759.287 211.781C759.296 214.312 757.406 216.193 754.594 216.176ZM752.098 211.852C752.115 213.179 753.152 214.321 754.594 214.33C756.009 214.321 757.063 213.231 757.072 211.834C757.063 210.48 756.044 209.391 754.629 209.391C753.196 209.391 752.115 210.524 752.098 211.852ZM765.844 216.176C763.128 216.176 761.186 214.699 761.133 212.555H763.436C763.497 213.574 764.517 214.251 765.844 214.242C767.241 214.251 768.252 213.478 768.252 212.344C768.252 211.201 767.268 210.384 765.615 210.375H764.473V208.617H765.615C766.969 208.617 767.909 207.861 767.9 206.754C767.909 205.682 767.101 204.961 765.861 204.961C764.666 204.961 763.638 205.629 763.594 206.701H761.396C761.449 204.565 763.392 203.098 765.879 203.098C768.463 203.098 770.133 204.68 770.115 206.631C770.133 208.055 769.184 209.083 767.795 209.373V209.479C769.588 209.716 770.607 210.867 770.59 212.467C770.607 214.62 768.595 216.176 765.844 216.176ZM773.068 216L778.588 205.277V205.189H772.189V203.273H780.961V205.225L775.441 216H773.068ZM787.131 216.176C784.415 216.176 782.473 214.699 782.42 212.555H784.723C784.784 213.574 785.804 214.251 787.131 214.242C788.528 214.251 789.539 213.478 789.539 212.344C789.539 211.201 788.555 210.384 786.902 210.375H785.76V208.617H786.902C788.256 208.617 789.196 207.861 789.188 206.754C789.196 205.682 788.388 204.961 787.148 204.961C785.953 204.961 784.925 205.629 784.881 206.701H782.684C782.736 204.565 784.679 203.098 787.166 203.098C789.75 203.098 791.42 204.68 791.402 206.631C791.42 208.055 790.471 209.083 789.082 209.373V209.479C790.875 209.716 791.895 210.867 791.877 212.467C791.895 214.62 789.882 216.176 787.131 216.176ZM799.682 208.723V210.568H793.951V208.723H799.682ZM806.484 216.176C803.646 216.176 801.642 214.664 801.65 212.59C801.642 210.973 802.846 209.654 804.375 209.408V209.338C803.039 209.057 802.134 207.896 802.125 206.508C802.134 204.539 803.971 203.098 806.484 203.098C808.98 203.098 810.826 204.539 810.826 206.508C810.826 207.905 809.895 209.057 808.576 209.338V209.408C810.097 209.654 811.31 210.973 811.318 212.59C811.31 214.664 809.297 216.176 806.484 216.176ZM804.006 212.379C803.997 213.557 804.973 214.365 806.484 214.365C807.979 214.365 808.954 213.557 808.963 212.379C808.954 211.184 807.917 210.296 806.484 210.305C805.052 210.296 803.997 211.175 804.006 212.379ZM804.357 206.719C804.366 207.835 805.245 208.6 806.484 208.6C807.706 208.6 808.594 207.835 808.594 206.719C808.594 205.638 807.732 204.891 806.484 204.891C805.21 204.891 804.366 205.638 804.357 206.719ZM817.734 216.176C815.194 216.176 813.322 214.655 813.252 212.555H815.484C815.555 213.583 816.53 214.321 817.734 214.33C819.158 214.321 820.187 213.293 820.178 211.887C820.187 210.428 819.132 209.399 817.664 209.391C816.671 209.382 815.95 209.733 815.555 210.48H813.428L814.201 203.273H821.725V205.189H816.082L815.695 208.564H815.818C816.311 208.011 817.233 207.606 818.279 207.598C820.644 207.606 822.401 209.364 822.393 211.816C822.401 214.356 820.485 216.176 817.734 216.176ZM828.844 203.098C831.331 203.115 833.81 204.601 833.818 209.25C833.818 213.636 831.832 216.176 828.703 216.176C826.251 216.176 824.555 214.646 824.273 212.537H826.541C826.77 213.548 827.552 214.189 828.703 214.189C830.549 214.189 831.586 212.563 831.604 209.83H831.463C830.821 210.938 829.591 211.597 828.193 211.588C825.917 211.597 824.159 209.865 824.15 207.457C824.15 204.97 826.022 203.08 828.844 203.098ZM826.383 207.404C826.383 208.775 827.402 209.848 828.826 209.848C830.241 209.848 831.331 208.705 831.322 207.387C831.322 206.095 830.285 204.952 828.861 204.943C827.429 204.952 826.365 206.042 826.383 207.404ZM840.34 216.176C837.501 216.176 835.497 214.664 835.506 212.59C835.497 210.973 836.701 209.654 838.23 209.408V209.338C836.895 209.057 835.989 207.896 835.98 206.508C835.989 204.539 837.826 203.098 840.34 203.098C842.836 203.098 844.682 204.539 844.682 206.508C844.682 207.905 843.75 209.057 842.432 209.338V209.408C843.952 209.654 845.165 210.973 845.174 212.59C845.165 214.664 843.152 216.176 840.34 216.176ZM837.861 212.379C837.853 213.557 838.828 214.365 840.34 214.365C841.834 214.365 842.81 213.557 842.818 212.379C842.81 211.184 841.772 210.296 840.34 210.305C838.907 210.296 837.853 211.175 837.861 212.379ZM838.213 206.719C838.222 207.835 839.101 208.6 840.34 208.6C841.562 208.6 842.449 207.835 842.449 206.719C842.449 205.638 841.588 204.891 840.34 204.891C839.065 204.891 838.222 205.638 838.213 206.719Z" fill="#333333"/>
<path d="M586.514 260.953V273.135H585.434V260.953H586.514ZM576.943 266.135C576.95 263.551 578.235 261.903 580.047 261.896C581.852 261.903 583.157 263.551 583.15 266.135C583.157 268.726 581.852 270.366 580.047 270.359C578.235 270.366 576.95 268.726 576.943 266.135ZM577.982 266.135C577.982 268.11 578.83 269.409 580.047 269.402C581.271 269.409 582.111 268.11 582.111 266.135C582.111 264.159 581.271 262.86 580.047 262.854C578.83 262.86 577.982 264.159 577.982 266.135ZM595.091 262.375V265.547H596.937V261.213H597.962V272.492H596.937V266.436H595.091V269.84H590.443V262.375H595.091ZM591.455 268.979H594.08V263.236H591.455V268.979ZM599.371 273.107V260.953H600.41V273.107H599.371ZM606.937 261.404C608.755 261.411 610.074 262.519 610.081 264.098C610.074 265.684 608.755 266.777 606.937 266.777C605.098 266.777 603.772 265.684 603.779 264.098C603.772 262.519 605.098 261.411 606.937 261.404ZM604.831 264.098C604.818 265.164 605.713 265.902 606.937 265.902C608.14 265.902 609.042 265.164 609.042 264.098C609.042 263.045 608.14 262.3 606.937 262.307C605.713 262.3 604.818 263.045 604.831 264.098ZM605.624 268.65V267.789H613.527V270.715H606.704V272.082H613.964V272.943H605.652V269.908H612.46V268.65H605.624ZM612.46 267.201V260.953H613.527V267.201H612.46Z" fill="#333333"/>
<path d="M577.072 306V296.455H579.217V298.072H579.34C579.735 296.982 580.693 296.332 581.959 296.332C583.251 296.332 584.183 296.991 584.543 298.072H584.648C585.062 297.018 586.125 296.332 587.514 296.332C589.263 296.332 590.493 297.457 590.484 299.584V306H588.252V299.936C588.252 298.749 587.531 298.213 586.617 298.213C585.519 298.213 584.877 298.96 584.877 300.041V306H582.697V299.848C582.688 298.854 582.038 298.213 581.08 298.213C580.113 298.213 579.322 299.013 579.322 300.199V306H577.072ZM592.629 306V296.455H594.809V298.037H594.914C595.257 296.938 596.171 296.314 597.27 296.314C597.516 296.314 597.867 296.341 598.078 296.367V298.441C597.876 298.371 597.41 298.31 597.041 298.301C595.793 298.31 594.879 299.171 594.879 300.375V306H592.629ZM603.264 306.193C600.478 306.193 598.693 304.216 598.693 301.271C598.693 298.301 600.478 296.332 603.264 296.332C606.059 296.332 607.843 298.301 607.834 301.271C607.843 304.216 606.059 306.193 603.264 306.193ZM600.961 301.254C600.961 303.003 601.726 304.4 603.281 304.4C604.811 304.4 605.575 303.003 605.566 301.254C605.575 299.505 604.811 298.099 603.281 298.107C601.726 298.099 600.961 299.505 600.961 301.254ZM614.988 299.18C614.848 298.459 614.25 297.993 613.301 298.002C612.343 297.993 611.64 298.477 611.648 299.127C611.64 299.619 612.035 299.988 613.002 300.217L614.619 300.551C616.421 300.946 617.3 301.781 617.309 303.152C617.3 304.945 615.727 306.193 613.23 306.193C610.805 306.193 609.372 305.104 609.135 303.275H611.42C611.552 304.093 612.185 304.497 613.23 304.488C614.312 304.497 615.015 304.058 615.023 303.346C615.015 302.792 614.584 302.44 613.635 302.238L612.105 301.904C610.33 301.544 609.407 300.612 609.416 299.25C609.407 297.483 610.937 296.332 613.266 296.332C615.542 296.332 616.948 297.448 617.115 299.18H614.988ZM623.25 306.193C620.376 306.193 618.609 304.277 618.609 301.289C618.609 298.336 620.402 296.332 623.127 296.332C625.465 296.332 627.486 297.8 627.486 301.148V301.852H620.824C620.859 303.478 621.817 304.444 623.268 304.436C624.252 304.444 624.911 304.022 625.201 303.451H627.398C626.994 305.104 625.465 306.193 623.25 306.193ZM620.833 300.322H625.342C625.333 299.021 624.454 298.072 623.162 298.072C621.817 298.072 620.912 299.109 620.833 300.322ZM629.227 306V296.455H631.406V298.037H631.512C631.854 296.938 632.769 296.314 633.867 296.314C634.113 296.314 634.465 296.341 634.676 296.367V298.441C634.474 298.371 634.008 298.31 633.639 298.301C632.391 298.31 631.477 299.171 631.477 300.375V306H629.227ZM644.836 296.455L641.426 306H638.965L635.555 296.455H637.945L640.143 303.557H640.248L642.463 296.455H644.836ZM646.242 306V296.455H648.492V306H646.242ZM646.084 293.871C646.084 293.203 646.673 292.658 647.385 292.658C648.097 292.658 648.686 293.203 648.686 293.871C648.686 294.548 648.097 295.093 647.385 295.102C646.673 295.093 646.084 294.548 646.084 293.871ZM654.803 306.193C651.955 306.193 650.232 304.154 650.232 301.271C650.232 298.345 652.008 296.332 654.803 296.332C657.114 296.332 658.74 297.686 658.898 299.742H656.754C656.578 298.828 655.91 298.134 654.82 298.125C653.432 298.134 652.5 299.294 652.5 301.219C652.5 303.188 653.414 304.356 654.82 304.365C655.813 304.356 656.552 303.776 656.754 302.748H658.898C658.731 304.761 657.202 306.193 654.803 306.193ZM664.822 306.193C661.948 306.193 660.182 304.277 660.182 301.289C660.182 298.336 661.975 296.332 664.699 296.332C667.037 296.332 669.059 297.8 669.059 301.148V301.852H662.396C662.432 303.478 663.39 304.444 664.84 304.436C665.824 304.444 666.483 304.022 666.773 303.451H668.971C668.566 305.104 667.037 306.193 664.822 306.193ZM662.405 300.322H666.914C666.905 299.021 666.026 298.072 664.734 298.072C663.39 298.072 662.484 299.109 662.405 300.322ZM677.021 304.225C675.396 304.225 674.13 302.941 674.139 300.621C674.13 298.274 675.448 297.035 677.021 297.035C678.155 297.035 678.727 297.721 678.955 298.213H679.043V297.193H680.748V301.887C680.766 302.484 681.003 302.774 681.486 302.766C682.383 302.774 682.963 301.737 682.963 300.164C682.98 297.105 680.827 295.102 677.619 295.102C674.35 295.11 672.258 297.475 672.258 300.621C672.258 304.022 674.086 306.185 677.566 306.158C678.814 306.149 679.755 306.044 680.748 305.789V307.406C679.816 307.67 678.735 307.828 677.566 307.828C673.154 307.828 670.579 305.016 670.588 300.621C670.57 296.455 673.488 293.432 677.619 293.432C681.776 293.432 684.65 296.262 684.65 300.111C684.642 302.783 683.288 304.312 681.328 304.312C680.15 304.304 679.28 303.75 679.104 302.959H679.025C678.788 303.451 678.208 304.225 677.021 304.225ZM676.055 300.621C676.046 301.781 676.591 302.616 677.549 302.607C678.542 302.616 679.069 301.825 679.078 300.621C679.069 299.408 678.551 298.644 677.549 298.635C676.582 298.644 676.046 299.461 676.055 300.621ZM691.98 299.18C691.84 298.459 691.242 297.993 690.293 298.002C689.335 297.993 688.632 298.477 688.641 299.127C688.632 299.619 689.027 299.988 689.994 300.217L691.611 300.551C693.413 300.946 694.292 301.781 694.301 303.152C694.292 304.945 692.719 306.193 690.223 306.193C687.797 306.193 686.364 305.104 686.127 303.275H688.412C688.544 304.093 689.177 304.497 690.223 304.488C691.304 304.497 692.007 304.058 692.016 303.346C692.007 302.792 691.576 302.44 690.627 302.238L689.098 301.904C687.322 301.544 686.399 300.612 686.408 299.25C686.399 297.483 687.929 296.332 690.258 296.332C692.534 296.332 693.94 297.448 694.107 299.18H691.98ZM700.242 306.193C697.368 306.193 695.602 304.277 695.602 301.289C695.602 298.336 697.395 296.332 700.119 296.332C702.457 296.332 704.479 297.8 704.479 301.148V301.852H697.816C697.852 303.478 698.81 304.444 700.26 304.436C701.244 304.444 701.903 304.022 702.193 303.451H704.391C703.986 305.104 702.457 306.193 700.242 306.193ZM697.825 300.322H702.334C702.325 299.021 701.446 298.072 700.154 298.072C698.81 298.072 697.904 299.109 697.825 300.322ZM706.219 306V296.455H708.398V298.037H708.504C708.847 296.938 709.761 296.314 710.859 296.314C711.105 296.314 711.457 296.341 711.668 296.367V298.441C711.466 298.371 711 298.31 710.631 298.301C709.383 298.31 708.469 299.171 708.469 300.375V306H706.219ZM721.828 296.455L718.418 306H715.957L712.547 296.455H714.938L717.135 303.557H717.24L719.455 296.455H721.828ZM727.137 306.193C724.263 306.193 722.496 304.277 722.496 301.289C722.496 298.336 724.289 296.332 727.014 296.332C729.352 296.332 731.373 297.8 731.373 301.148V301.852H724.711C724.746 303.478 725.704 304.444 727.154 304.436C728.139 304.444 728.798 304.022 729.088 303.451H731.285C730.881 305.104 729.352 306.193 727.137 306.193ZM724.72 300.322H729.229C729.22 299.021 728.341 298.072 727.049 298.072C725.704 298.072 724.799 299.109 724.72 300.322ZM737.279 306.193C734.493 306.193 732.709 304.216 732.709 301.271C732.709 298.301 734.493 296.332 737.279 296.332C740.074 296.332 741.858 298.301 741.85 301.271C741.858 304.216 740.074 306.193 737.279 306.193ZM734.977 301.254C734.977 303.003 735.741 304.4 737.297 304.4C738.826 304.4 739.591 303.003 739.582 301.254C739.591 299.505 738.826 298.099 737.297 298.107C735.741 298.099 734.977 299.505 734.977 301.254ZM745.84 300.41V306H743.59V296.455H745.734V298.072H745.857C746.288 297.009 747.264 296.332 748.688 296.332C750.665 296.332 751.966 297.633 751.957 299.918V306H749.725V300.27C749.725 298.986 749.03 298.222 747.861 298.23C746.675 298.222 745.84 299.021 745.84 300.41ZM758.338 306.193C755.464 306.193 753.697 304.277 753.697 301.289C753.697 298.336 755.49 296.332 758.215 296.332C760.553 296.332 762.574 297.8 762.574 301.148V301.852H755.912C755.947 303.478 756.905 304.444 758.355 304.436C759.34 304.444 759.999 304.022 760.289 303.451H762.486C762.082 305.104 760.553 306.193 758.338 306.193ZM755.921 300.322H760.43C760.421 299.021 759.542 298.072 758.25 298.072C756.905 298.072 756 299.109 755.921 300.322ZM765.703 306.141C764.947 306.141 764.323 305.525 764.332 304.77C764.323 304.031 764.947 303.425 765.703 303.416C766.433 303.425 767.057 304.031 767.057 304.77C767.057 305.525 766.433 306.141 765.703 306.141ZM773.385 306.193C770.537 306.193 768.814 304.154 768.814 301.271C768.814 298.345 770.59 296.332 773.385 296.332C775.696 296.332 777.322 297.686 777.48 299.742H775.336C775.16 298.828 774.492 298.134 773.402 298.125C772.014 298.134 771.082 299.294 771.082 301.219C771.082 303.188 771.996 304.356 773.402 304.365C774.396 304.356 775.134 303.776 775.336 302.748H777.48C777.313 304.761 775.784 306.193 773.385 306.193ZM783.334 306.193C780.548 306.193 778.764 304.216 778.764 301.271C778.764 298.301 780.548 296.332 783.334 296.332C786.129 296.332 787.913 298.301 787.904 301.271C787.913 304.216 786.129 306.193 783.334 306.193ZM781.031 301.254C781.031 303.003 781.796 304.4 783.352 304.4C784.881 304.4 785.646 303.003 785.637 301.254C785.646 299.505 784.881 298.099 783.352 298.107C781.796 298.099 781.031 299.505 781.031 301.254ZM791.033 306.141C790.277 306.141 789.653 305.525 789.662 304.77C789.653 304.031 790.277 303.425 791.033 303.416C791.763 303.425 792.387 304.031 792.387 304.77C792.387 305.525 791.763 306.141 791.033 306.141ZM794.549 306V293.273H796.799V300.287H796.957L800.385 296.455H803.004L799.304 300.568L803.232 306H800.561L797.625 301.904L796.799 302.783V306H794.549ZM804.34 306V296.455H806.52V298.037H806.625C806.968 296.938 807.882 296.314 808.98 296.314C809.227 296.314 809.578 296.341 809.789 296.367V298.441C809.587 298.371 809.121 298.31 808.752 298.301C807.504 298.31 806.59 299.171 806.59 300.375V306H804.34Z" fill="#333333"/>
<path d="M1250.27 80.6211V96.6172H1248.11V88.4785H1246.65V95.9141H1244.56V81.043H1246.65V86.6855H1248.11V80.6211H1250.27ZM1236.28 91.7832C1239.54 89.8672 1240.95 87.5205 1241.25 84.3828H1237.09V82.5898H1243.44C1243.43 87.0547 1242.09 90.7109 1237.58 93.3301L1236.28 91.7832ZM1265.07 80.6387V92.1348H1262.82V80.6387H1265.07ZM1251.92 85.6836C1251.92 83.3369 1253.83 81.6494 1256.29 81.6582C1258.75 81.6494 1260.66 83.3369 1260.67 85.6836C1260.66 88.0654 1258.75 89.7441 1256.29 89.7441C1253.83 89.7441 1251.92 88.0654 1251.92 85.6836ZM1254.11 85.6836C1254.1 87.0195 1255.04 87.793 1256.29 87.793C1257.51 87.793 1258.45 87.0195 1258.46 85.6836C1258.45 84.3828 1257.51 83.6006 1256.29 83.6094C1255.04 83.6006 1254.1 84.3828 1254.11 85.6836ZM1254.34 96.3359V90.9746H1256.61V94.543H1265.49V96.3359H1254.34ZM1280.35 80.6211V90.1133H1278.12V86.334H1275.62V84.5234H1278.12V80.6211H1280.35ZM1266.76 88.3555C1269.38 87.4766 1270.58 85.3848 1270.63 83.3809H1267.41V81.5879H1276.1V83.3809H1272.91C1272.96 85.2441 1274.1 87.125 1276.59 87.9512L1275.48 89.709C1273.72 89.1377 1272.5 87.9775 1271.81 86.5449C1271.1 88.1709 1269.82 89.4805 1267.92 90.1309L1266.76 88.3555ZM1269.38 93.5586C1269.38 91.6162 1271.47 90.4736 1274.88 90.4648C1278.3 90.4736 1280.39 91.6162 1280.4 93.5586C1280.39 95.501 1278.3 96.6348 1274.88 96.6348C1271.47 96.6348 1269.38 95.501 1269.38 93.5586ZM1271.61 93.5586C1271.61 94.4727 1272.77 94.9297 1274.88 94.9297C1277.01 94.9297 1278.16 94.4727 1278.17 93.5586C1278.16 92.6357 1277.01 92.1787 1274.88 92.1875C1272.77 92.1787 1271.61 92.6357 1271.61 93.5586ZM1296.71 92.9258V94.7539H1282.06V92.9258H1288.23V89.9727H1283.61V81.6406H1285.86V84.1191H1292.84V81.6406H1295.07V89.9727H1290.47V92.9258H1296.71ZM1285.86 88.1797H1292.84V85.9121H1285.86V88.1797ZM1310.78 80.6211V96.6523H1308.53V88.5664H1305.65V86.7734H1308.53V80.6211H1310.78ZM1297.19 91.9062C1299.77 90.7549 1301.01 88.0303 1301.02 85.6309V85.0156H1297.7V83.2227H1301.02V80.9727H1303.27V83.2227H1306.51V85.0156H1303.26V85.6309C1303.25 87.9424 1304.53 90.5264 1307.14 91.6602L1305.94 93.3828C1304.13 92.627 1302.85 91.0977 1302.15 89.2783C1301.46 91.2119 1300.2 92.8379 1298.37 93.6289L1297.19 91.9062ZM1325.87 80.6211V96.6523H1323.64V80.6211H1325.87ZM1313.3 83.7676V81.957H1320.91V88.127H1315.64V91.0625C1318.08 91.0449 1320.15 90.9219 1322.49 90.5352L1322.69 92.3457C1320.06 92.8115 1317.68 92.9082 1314.76 92.9082H1313.32V86.3516H1318.63V83.7676H1313.3ZM1335.11 90.4121C1338.44 90.4121 1340.5 91.5547 1340.5 93.5059C1340.5 95.4834 1338.44 96.6348 1335.11 96.6348C1331.72 96.6348 1329.61 95.4834 1329.62 93.5059C1329.61 91.5547 1331.72 90.4121 1335.11 90.4121ZM1328.13 89.1465V81.623H1330.36V83.6445H1333.63V81.623H1335.88V89.1465H1328.13ZM1330.36 87.3711H1333.63V85.3848H1330.36V87.3711ZM1331.87 93.5059C1331.86 94.4199 1333.01 94.8945 1335.11 94.8945C1337.18 94.8945 1338.29 94.4199 1338.29 93.5059C1338.29 92.5918 1337.18 92.1611 1335.11 92.1523C1333.01 92.1611 1331.86 92.5918 1331.87 93.5059ZM1338.1 90.0605V80.6211H1340.35V84.3301H1342.51V86.2109H1340.35V90.0605H1338.1ZM1352.34 82.2207V83.9785H1349.07C1349.13 85.6133 1350.36 87.2568 1352.92 87.8984L1351.89 89.6562C1350.03 89.1729 1348.73 88.1357 1347.98 86.7998C1347.26 88.2676 1345.95 89.4189 1344.05 89.9551L1343.01 88.2324C1345.54 87.4854 1346.75 85.7451 1346.81 83.9785H1343.54V82.2207H1346.81V80.5684H1349.09V82.2207H1352.34ZM1345.52 96.4414V90.6758H1356.25V96.4414H1345.52ZM1347.74 94.6484H1354.05V92.4688H1347.74V94.6484ZM1354 90.0078V80.6387H1356.25V90.0078H1354Z" fill="#333333"/>
<path d="M1249.62 122.744V138.529H1247.95V122.744H1249.62ZM1237.12 129.441C1237.12 126.075 1238.82 123.931 1241.2 123.922C1243.54 123.931 1245.26 126.075 1245.26 129.441C1245.26 132.843 1243.54 134.987 1241.2 134.979C1238.82 134.987 1237.12 132.843 1237.12 129.441ZM1238.74 129.441C1238.73 131.946 1239.74 133.484 1241.2 133.484C1242.64 133.484 1243.65 131.946 1243.65 129.441C1243.65 126.972 1242.64 125.425 1241.2 125.416C1239.74 125.425 1238.73 126.972 1238.74 129.441ZM1258.42 124.52V128.615H1260.53V123.043H1262.13V137.721H1260.53V129.986H1258.42V134.346H1252.3V124.52H1258.42ZM1253.89 133.01H1256.86V125.838H1253.89V133.01ZM1263.73 138.494V122.744H1265.33V138.494H1263.73ZM1271.44 123.271C1273.81 123.289 1275.56 124.739 1275.57 126.805C1275.56 128.879 1273.81 130.32 1271.44 130.32C1269.04 130.32 1267.3 128.879 1267.29 126.805C1267.3 124.739 1269.04 123.289 1271.44 123.271ZM1268.92 126.805C1268.92 128.105 1269.99 128.967 1271.44 128.967C1272.88 128.967 1273.95 128.105 1273.95 126.805C1273.95 125.521 1272.88 124.66 1271.44 124.678C1269.99 124.66 1268.92 125.521 1268.92 126.805ZM1269.68 132.816V131.48H1280.03V135.453H1271.35V136.965H1280.56V138.301H1269.73V134.205H1278.38V132.816H1269.68ZM1278.36 130.76V122.744H1280.03V130.76H1278.36ZM1296.57 131.779V133.133H1290.13V138.477H1288.5V133.133H1282.15V131.779H1296.57ZM1283.96 129.775V123.588H1294.76V129.775H1283.96ZM1285.6 128.475H1293.09V124.924H1285.6V128.475ZM1309.74 122.727V127.297H1312.04V128.686H1309.74V134.135H1308.07V122.727H1309.74ZM1298.07 131.41V124.08H1305.1V125.434H1299.72V130.021C1302.79 130.03 1304.51 129.934 1306.49 129.529L1306.68 130.883C1304.56 131.305 1302.69 131.41 1299.32 131.41H1298.07ZM1299.76 138.16V132.957H1301.43V136.807H1310.41V138.16H1299.76ZM1320.63 124.133C1320.62 126.225 1323.18 128.185 1326.27 128.598L1325.62 129.969C1323.05 129.556 1320.79 128.22 1319.76 126.365C1318.73 128.22 1316.47 129.556 1313.92 129.969L1313.25 128.598C1316.33 128.185 1318.88 126.251 1318.89 124.133V123.271H1320.63V124.133ZM1312.56 132.887V131.516H1326.92V132.887H1320.53V138.494H1318.89V132.887H1312.56ZM1333.6 125.258C1333.6 127.218 1335.13 129.028 1337.55 129.74L1336.71 131.041C1334.87 130.479 1333.48 129.283 1332.76 127.736C1332.06 129.397 1330.65 130.698 1328.76 131.322L1327.92 130.004C1330.37 129.257 1331.9 127.323 1331.91 125.258V125.082H1328.38V123.729H1337.06V125.082H1333.6V125.258ZM1330.52 138.301V132.008H1332.15V133.766H1339.17V132.008H1340.82V138.301H1330.52ZM1332.15 136.947H1339.17V135.084H1332.15V136.947ZM1339.15 131.27V122.744H1340.82V131.27H1339.15ZM1356.07 122.744V138.494H1354.42V130.355H1350.88V128.984H1354.42V122.744H1356.07ZM1342.92 134.258C1347.1 132.219 1348.95 129.38 1349.24 125.768H1343.62V124.432H1350.94C1350.92 128.993 1349.14 132.931 1343.8 135.576L1342.92 134.258ZM1372.55 132.008V133.326H1366.12V138.494H1364.48V133.326H1358.14V132.008H1372.55ZM1359.93 130.215V123.377H1361.58V125.434H1369.07V123.377H1370.74V130.215H1359.93ZM1361.58 128.879H1369.07V126.77H1361.58V128.879Z" fill="#333333"/>
<path d="M1240.94 165.658C1242.25 165.649 1243.37 166.142 1244.1 166.959H1248.04V164.744H1249.71V174.043H1248.04V171.916H1244.09C1243.36 172.725 1242.24 173.208 1240.94 173.199C1238.57 173.208 1236.8 171.635 1236.81 169.438C1236.8 167.214 1238.57 165.649 1240.94 165.658ZM1238.41 169.438C1238.4 170.817 1239.46 171.793 1240.94 171.775C1242.37 171.793 1243.44 170.817 1243.44 169.438C1243.44 168.022 1242.37 167.082 1240.94 167.1C1239.46 167.082 1238.4 168.022 1238.41 169.438ZM1239.11 177.436C1239.1 175.511 1241.14 174.386 1244.44 174.395C1247.72 174.386 1249.75 175.511 1249.76 177.436C1249.75 179.352 1247.72 180.468 1244.44 180.459C1241.14 180.468 1239.1 179.352 1239.11 177.436ZM1240.75 177.436C1240.74 178.517 1242.13 179.149 1244.44 179.141C1246.75 179.149 1248.13 178.517 1248.13 177.436C1248.13 176.311 1246.75 175.687 1244.44 175.678C1242.13 175.687 1240.74 176.311 1240.75 177.436ZM1244.87 168.295C1244.97 168.646 1245.04 169.033 1245.04 169.438C1245.04 169.824 1244.97 170.202 1244.87 170.545H1248.04V168.295H1244.87ZM1257.21 167.258C1257.2 169.323 1258.66 171.248 1261.01 172.021L1260.11 173.34C1258.39 172.733 1257.09 171.503 1256.41 169.947C1255.72 171.714 1254.39 173.103 1252.55 173.779L1251.65 172.443C1254.11 171.573 1255.54 169.473 1255.56 167.117V165.57H1257.21V167.258ZM1253.78 177.541C1253.78 175.695 1255.79 174.614 1259.07 174.623C1262.31 174.614 1264.29 175.695 1264.29 177.541C1264.29 179.404 1262.31 180.468 1259.07 180.459C1255.79 180.468 1253.78 179.404 1253.78 177.541ZM1255.45 177.541C1255.44 178.578 1256.8 179.141 1259.07 179.158C1261.33 179.141 1262.67 178.578 1262.66 177.541C1262.67 176.539 1261.33 175.941 1259.07 175.941C1256.8 175.941 1255.44 176.539 1255.45 177.541ZM1262.48 174.254V164.744H1264.15V168.699H1266.44V170.105H1264.15V174.254H1262.48ZM1280.1 164.744V174.113H1278.43V170.123H1275.5V168.752H1278.43V164.744H1280.1ZM1266.97 172.689C1269.42 171.837 1270.92 169.71 1270.91 167.539V167.188H1267.5V165.834H1275.99V167.188H1272.62V167.521C1272.61 169.517 1274.03 171.459 1276.41 172.268L1275.55 173.586C1273.78 172.979 1272.48 171.714 1271.8 170.158C1271.11 171.916 1269.73 173.331 1267.85 174.025L1266.97 172.689ZM1269.5 177.523C1269.5 175.651 1271.52 174.562 1274.83 174.553C1278.13 174.562 1280.15 175.651 1280.16 177.523C1280.15 179.396 1278.13 180.485 1274.83 180.494C1271.52 180.485 1269.5 179.396 1269.5 177.523ZM1271.16 177.523C1271.15 178.587 1272.52 179.193 1274.83 179.176C1277.12 179.193 1278.5 178.587 1278.5 177.523C1278.5 176.451 1277.12 175.845 1274.83 175.854C1272.52 175.845 1271.15 176.451 1271.16 177.523ZM1296.58 177.154V178.543H1282.17V177.154H1288.52V173.92H1283.82V165.816H1285.49V168.523H1293.23V165.816H1294.88V173.92H1290.17V177.154H1296.58ZM1285.49 172.566H1293.23V169.877H1285.49V172.566ZM1310.52 164.744V180.529H1308.85V172.338H1305.59V170.984H1308.85V164.744H1310.52ZM1297.37 176.188C1299.75 175.089 1301.31 172.399 1301.3 169.807V168.77H1297.81V167.434H1301.32V165.061H1302.99V167.434H1306.4V168.77H1302.96V169.807C1302.96 172.294 1304.56 174.852 1306.98 175.924L1306.05 177.207C1304.25 176.416 1302.86 174.764 1302.16 172.786C1301.47 174.878 1300.09 176.636 1298.28 177.471L1297.37 176.188ZM1325.64 164.744V180.529H1323.97V164.744H1325.64ZM1313.44 167.521V166.168H1320.82V171.916H1315.16V175.361C1317.72 175.353 1319.95 175.229 1322.58 174.799L1322.74 176.17C1319.95 176.636 1317.58 176.741 1314.8 176.75H1313.46V170.58H1319.12V167.521H1313.44ZM1340.86 164.744V180.494H1339.17V164.744H1340.86ZM1327.92 176.275C1332.1 174.28 1334.15 171.441 1334.47 167.768H1328.67V166.432H1336.16C1336.16 171.046 1334.2 175.036 1328.8 177.629L1327.92 176.275ZM1356.05 164.744V180.494H1354.36V164.744H1356.05ZM1343.11 176.275C1347.3 174.28 1349.35 171.441 1349.67 167.768H1343.87V166.432H1351.36C1351.36 171.046 1349.4 175.036 1343.99 177.629L1343.11 176.275ZM1376.58 172.637V173.99H1370.34V177.049H1368.66V173.99H1362.17V172.637H1376.58ZM1363.75 168.312C1363.74 166.344 1365.98 165.122 1369.36 165.113C1372.74 165.122 1374.96 166.344 1374.95 168.312C1374.96 170.272 1372.74 171.494 1369.36 171.494C1365.98 171.494 1363.74 170.272 1363.75 168.312ZM1363.98 180.16V175.537H1365.65V178.789H1374.98V180.16H1363.98ZM1365.55 168.312C1365.53 169.446 1367.06 170.141 1369.36 170.141C1371.67 170.141 1373.18 169.446 1373.19 168.312C1373.18 167.144 1371.67 166.458 1369.36 166.449C1367.06 166.458 1365.53 167.144 1365.55 168.312ZM1381.74 165.658C1383.05 165.649 1384.17 166.142 1384.91 166.959H1388.85V164.744H1390.52V174.043H1388.85V171.916H1384.9C1384.16 172.725 1383.04 173.208 1381.74 173.199C1379.37 173.208 1377.6 171.635 1377.61 169.438C1377.6 167.214 1379.37 165.649 1381.74 165.658ZM1379.21 169.438C1379.2 170.817 1380.27 171.793 1381.74 171.775C1383.18 171.793 1384.24 170.817 1384.24 169.438C1384.24 168.022 1383.18 167.082 1381.74 167.1C1380.27 167.082 1379.2 168.022 1379.21 169.438ZM1379.92 177.436C1379.91 175.511 1381.95 174.386 1385.24 174.395C1388.52 174.386 1390.56 175.511 1390.57 177.436C1390.56 179.352 1388.52 180.468 1385.24 180.459C1381.95 180.468 1379.91 179.352 1379.92 177.436ZM1381.55 177.436C1381.54 178.517 1382.93 179.149 1385.24 179.141C1387.55 179.149 1388.93 178.517 1388.93 177.436C1388.93 176.311 1387.55 175.687 1385.24 175.678C1382.93 175.687 1381.54 176.311 1381.55 177.436ZM1385.67 168.295C1385.78 168.646 1385.84 169.033 1385.84 169.438C1385.84 169.824 1385.78 170.202 1385.67 170.545H1388.85V168.295H1385.67ZM1401.35 165.939V166.818C1401.33 167.873 1401.33 169.438 1400.95 171.477L1399.3 171.318C1399.64 169.578 1399.69 168.304 1399.71 167.311H1393.41V165.939H1401.35ZM1392.46 172.83C1393.42 172.83 1394.52 172.821 1395.67 172.795V169.473H1397.33V172.742C1399.01 172.672 1400.75 172.549 1402.34 172.32L1402.44 173.533C1399.16 174.113 1395.39 174.175 1392.62 174.184L1392.46 172.83ZM1394.85 180.16V175.502H1396.52V178.807H1405.55V180.16H1394.85ZM1403.34 176.574V164.744H1405.04V169.754H1407.21V171.16H1405.04V176.574H1403.34ZM1420.86 164.744V180.529H1419.19V164.744H1420.86ZM1408.66 167.521V166.168H1416.04V171.916H1410.38V175.361C1412.94 175.353 1415.16 175.229 1417.8 174.799L1417.96 176.17C1415.17 176.636 1412.8 176.741 1410.01 176.75H1408.67V170.58H1414.33V167.521H1408.66ZM1430.27 174.553C1433.51 174.553 1435.49 175.643 1435.49 177.506C1435.49 179.396 1433.51 180.485 1430.27 180.494C1426.99 180.485 1424.98 179.396 1424.98 177.506C1424.98 175.643 1426.99 174.553 1430.27 174.553ZM1423.59 173.041V165.729H1425.22V167.996H1429.36V165.729H1431.01V173.041H1423.59ZM1425.22 171.705H1429.36V169.314H1425.22V171.705ZM1426.65 177.506C1426.64 178.561 1427.99 179.158 1430.27 179.158C1432.53 179.158 1433.86 178.561 1433.86 177.506C1433.86 176.46 1432.53 175.871 1430.27 175.871C1427.99 175.871 1426.64 176.46 1426.65 177.506ZM1433.68 174.148V164.744H1435.35V168.594H1437.63V170.018H1435.35V174.148H1433.68ZM1444.02 167.943C1444.02 169.815 1445.57 171.556 1448.01 172.232L1447.22 173.533C1445.37 173.006 1443.96 171.863 1443.23 170.387C1442.52 172.004 1441.12 173.27 1439.23 173.867L1438.43 172.584C1440.85 171.819 1442.36 169.947 1442.35 167.943V167.838H1438.86V166.502H1442.35V164.674H1444.04V166.502H1447.5V167.838H1444.02V167.943ZM1440.88 180.301V174.799H1451.23V180.301H1440.88ZM1442.53 178.947H1449.6V176.152H1442.53V178.947ZM1449.56 174.061V164.762H1451.23V174.061H1449.56Z" fill="#333333"/>
<path d="M1242.05 210.752C1242.03 213.538 1243.66 216.395 1246 217.537L1244.96 218.873C1243.25 217.977 1241.92 216.219 1241.23 214.118C1240.53 216.351 1239.15 218.24 1237.35 219.172L1236.32 217.818C1238.73 216.658 1240.37 213.635 1240.38 210.752V208.062H1242.05V210.752ZM1247.18 222.494V206.744H1248.85V213.02H1251.38V214.443H1248.85V222.494H1247.18ZM1264.82 206.744V222.529H1263.15V206.744H1264.82ZM1252.32 213.441C1252.32 210.075 1254.02 207.931 1256.4 207.922C1258.74 207.931 1260.46 210.075 1260.46 213.441C1260.46 216.843 1258.74 218.987 1256.4 218.979C1254.02 218.987 1252.32 216.843 1252.32 213.441ZM1253.94 213.441C1253.93 215.946 1254.93 217.484 1256.4 217.484C1257.84 217.484 1258.84 215.946 1258.84 213.441C1258.84 210.972 1257.84 209.425 1256.4 209.416C1254.93 209.425 1253.93 210.972 1253.94 213.441ZM1280.1 206.744V222.529H1278.45V213.863H1274.97V218.627H1267.59V207.957H1269.28V211.982H1273.34V207.957H1274.97V212.492H1278.45V206.744H1280.1ZM1269.28 217.256H1273.34V213.301H1269.28V217.256ZM1299.27 206.762V218.293H1297.6V206.762H1299.27ZM1286.29 214.742C1288.76 213.828 1290.22 211.561 1290.23 209.188V207.623H1291.94V209.188C1291.93 211.49 1293.39 213.6 1295.82 214.443L1294.96 215.779C1293.14 215.103 1291.79 213.767 1291.09 212.062C1290.4 213.89 1289.03 215.349 1287.19 216.061L1286.29 214.742ZM1288.96 222.16V217.203H1290.65V220.807H1299.74V222.16H1288.96ZM1315.8 214.707V216.061H1309.54V219.119H1307.89V216.061H1301.38V214.707H1315.8ZM1303.18 222.16V217.625H1304.85V220.807H1314.2V222.16H1303.18ZM1303.23 213.072V207.482H1313.93V213.072H1303.23ZM1304.86 211.754H1312.28V208.801H1304.86V211.754ZM1329.34 208.256V209.803C1329.33 211.745 1329.33 213.925 1328.74 217.15L1327.06 216.975C1327.66 213.925 1327.66 211.692 1327.67 209.803V209.609H1318.11V208.256H1329.34ZM1316.6 220.367V218.979H1322.06V213.424H1323.72V218.979H1330.96V220.367H1316.6Z" fill="#333333"/>
<path d="M1250.94 257.041V258.412H1236.58V257.041H1242.93V255.521C1239.97 255.345 1238.12 254.193 1238.13 252.348C1238.12 250.388 1240.32 249.192 1243.75 249.184C1247.16 249.192 1249.37 250.388 1249.38 252.348C1249.37 254.193 1247.51 255.345 1244.58 255.521V257.041H1250.94ZM1238.39 264.16V259.59H1240.08V262.807H1249.32V264.16H1238.39ZM1239.85 252.348C1239.84 253.534 1241.33 254.185 1243.75 254.193C1246.16 254.185 1247.66 253.534 1247.65 252.348C1247.66 251.223 1246.16 250.528 1243.75 250.537C1241.33 250.528 1239.84 251.223 1239.85 252.348ZM1264.05 248.744V254.896H1266.58V256.303H1264.05V264.529H1262.39V248.744H1264.05ZM1252.39 251.521V250.168H1259.6V255.951H1254.08V259.361C1256.78 259.353 1258.79 259.256 1261.09 258.834L1261.25 260.188C1258.79 260.645 1256.66 260.75 1253.71 260.768H1252.43V254.598H1257.95V251.521H1252.39ZM1280.03 248.762V260.205H1278.36V248.762H1280.03ZM1267.29 253.719C1267.3 251.442 1269.11 249.825 1271.49 249.816C1273.86 249.825 1275.67 251.442 1275.67 253.719C1275.67 256.03 1273.86 257.639 1271.49 257.639C1269.11 257.639 1267.3 256.03 1267.29 253.719ZM1268.92 253.719C1268.92 255.204 1270.02 256.18 1271.49 256.18C1272.93 256.18 1274.04 255.204 1274.04 253.719C1274.04 252.269 1272.93 251.275 1271.49 251.275C1270.02 251.275 1268.92 252.269 1268.92 253.719ZM1269.73 264.16V259.045H1271.42V262.807H1280.51V264.16H1269.73ZM1300.6 256.707V258.061H1294.34V261.119H1292.69V258.061H1286.19V256.707H1300.6ZM1287.98 264.16V259.625H1289.65V262.807H1299V264.16H1287.98ZM1288.03 255.072V249.482H1298.74V255.072H1288.03ZM1289.67 253.754H1297.09V250.801H1289.67V253.754ZM1306.53 249.869C1309.02 249.86 1310.81 251.398 1310.82 253.613C1310.81 255.828 1309.02 257.366 1306.53 257.375C1304.06 257.366 1302.24 255.828 1302.24 253.613C1302.24 251.398 1304.06 249.86 1306.53 249.869ZM1301.49 259.748C1304.35 259.748 1308.33 259.722 1311.77 259.221L1311.9 260.434C1308.34 261.119 1304.51 261.137 1301.7 261.137L1301.49 259.748ZM1303.9 253.613C1303.88 255.011 1305 255.916 1306.53 255.916C1308.06 255.916 1309.19 255.011 1309.19 253.613C1309.19 252.233 1308.06 251.311 1306.53 251.311C1305 251.311 1303.88 252.233 1303.9 253.613ZM1312.76 264.529V248.744H1314.43V264.529H1312.76Z" fill="#333333"/>
<rect x="1674.5" y="80.5" width="205" height="47" rx="7.5" stroke="black" stroke-opacity="0.2"/>
<path d="M1702.31 97.3906V98.1719C1702.3 99.1094 1702.3 100.5 1701.95 102.312L1700.48 102.172C1700.79 100.625 1700.84 99.4922 1700.85 98.6094H1695.25V97.3906H1702.31ZM1694.41 103.516C1695.27 103.516 1696.24 103.508 1697.27 103.484V100.531H1698.73V103.438C1700.23 103.375 1701.78 103.266 1703.19 103.062L1703.28 104.141C1700.36 104.656 1697.02 104.711 1694.55 104.719L1694.41 103.516ZM1696.53 110.031V105.891H1698.02V108.828H1706.05V110.031H1696.53ZM1704.08 106.844V96.3281H1705.59V100.781H1707.52V102.031H1705.59V106.844H1704.08ZM1715.02 97.3125V101.531H1710.39V103.609C1712.73 103.602 1714.11 103.531 1715.75 103.25L1715.91 104.453C1714.09 104.773 1712.59 104.812 1709.94 104.812H1708.91V100.391H1713.52V98.5H1708.88V97.3125H1715.02ZM1710.81 109.984V105.875H1712.3V108.766H1720.42V109.984H1710.81ZM1715.92 102.969V101.75H1718.53V99.8125H1715.92V98.625H1718.53V96.3438H1720.02V106.641H1718.53V102.969H1715.92ZM1730.94 99.8906C1730.92 102.367 1732.37 104.906 1734.45 105.922L1733.53 107.109C1732.01 106.312 1730.83 104.75 1730.21 102.883C1729.59 104.867 1728.36 106.547 1726.77 107.375L1725.84 106.172C1727.99 105.141 1729.45 102.453 1729.45 99.8906V97.5H1730.94V99.8906ZM1735.5 110.328V96.3281H1736.98V101.906H1739.23V103.172H1736.98V110.328H1735.5ZM1751.5 96.3281V110.359H1750.02V96.3281H1751.5ZM1740.39 102.281C1740.39 99.2891 1741.9 97.3828 1744.02 97.375C1746.09 97.3828 1747.62 99.2891 1747.62 102.281C1747.62 105.305 1746.09 107.211 1744.02 107.203C1741.9 107.211 1740.39 105.305 1740.39 102.281ZM1741.83 102.281C1741.82 104.508 1742.71 105.875 1744.02 105.875C1745.3 105.875 1746.19 104.508 1746.19 102.281C1746.19 100.086 1745.3 98.7109 1744.02 98.7031C1742.71 98.7109 1741.82 100.086 1741.83 102.281ZM1765.09 103.781V104.969H1755.34V97.4844H1764.95V98.6875H1756.84V100.578H1764.66V101.75H1756.84V103.781H1765.09ZM1753.73 108.562V107.344H1766.55V108.562H1753.73ZM1782.38 96.3281V101.75H1784.62V103H1782.38V110.328H1780.89V96.3281H1782.38ZM1772 107V97.5H1773.47V101.094H1777.17V97.5H1778.64V107H1772ZM1773.47 105.781H1777.17V102.266H1773.47V105.781ZM1798.11 107.406V108.656H1785.3V107.406H1790.94V104.953H1786.86V100.5H1795.08V98.5312H1786.83V97.3125H1796.55V101.688H1788.33V103.734H1796.88V104.953H1792.41V107.406H1798.11ZM1810.03 96.3281V101.906H1812.2V103.141H1810.03V110.312H1808.55V96.3281H1810.03ZM1799.14 106.578C1802.65 104.828 1804.55 102.297 1804.86 99.0312H1799.84V97.7969H1806.38C1806.36 101.844 1804.58 105.461 1799.97 107.734L1799.14 106.578ZM1824.59 96.3281V110.328H1823.09V96.3281H1824.59ZM1813.09 106.578C1816.81 104.805 1818.63 102.281 1818.92 99.0156H1813.77V97.8281H1820.42C1820.42 101.93 1818.68 105.477 1813.88 107.781L1813.09 106.578Z" fill="#333333"/>
<path d="M1856 102.5H1860V103.5H1856V107.5H1855V103.5H1851V102.5H1855V98.5H1856V102.5Z" fill="#333333"/>
<path d="M43.4219 507.344C43.4219 505.531 44.8828 504.07 46.7031 504.078C48.2656 504.07 49.5781 505.18 49.7969 506.641H48.4375C48.2891 505.898 47.5391 505.367 46.7031 505.359C45.6016 505.367 44.7188 506.25 44.7188 507.344C44.7188 508.438 45.6016 509.32 46.7031 509.328C47.5391 509.32 48.1797 508.789 48.3281 508.047H49.6719C49.4688 509.508 48.2656 510.609 46.7031 510.609C44.8828 510.609 43.4219 509.156 43.4219 507.344ZM40.8125 507.344C40.8203 504.117 43.4375 501.508 46.6406 501.516C49.875 501.508 52.4609 504.117 52.4688 507.344C52.4844 510.555 49.875 513.18 46.6406 513.172C43.4375 513.18 40.7969 510.555 40.8125 507.344ZM42.1094 507.344C42.1016 509.828 44.1406 511.875 46.6406 511.875C49.1484 511.875 51.1797 509.836 51.1719 507.344C51.1641 504.836 49.1406 502.812 46.6406 502.812C44.1562 502.812 42.125 504.844 42.1094 507.344ZM64.7188 504.531C64.6016 503.422 63.5703 502.781 62.2188 502.781C60.7188 502.781 59.7422 503.562 59.7344 504.641C59.7422 505.828 61.0625 506.273 61.9219 506.484L63.0469 506.797C64.2578 507.109 66.25 507.805 66.25 509.922C66.25 511.766 64.7656 513.195 62.1406 513.203C59.7031 513.195 58.1953 511.938 58.0625 510.062H59.5C59.6172 511.328 60.7969 511.93 62.1406 511.922C63.7031 511.93 64.875 511.125 64.875 509.891C64.875 508.789 63.8281 508.367 62.6406 508.031L61.25 507.656C59.4766 507.141 58.3672 506.234 58.375 504.703C58.3672 502.789 60.0703 501.531 62.2656 501.531C64.4609 501.531 66.0391 502.812 66.0938 504.531H64.7188ZM68.2656 513V501.688H75.125V502.938H69.6719V506.719H74.7656V507.953H69.6719V511.75H75.2031V513H68.2656ZM77.3438 513V501.688H81.1875C83.8359 501.688 85.0469 503.156 85.0469 505.172C85.0469 506.672 84.375 507.844 82.9375 508.344L85.4844 513H83.8438L81.4766 508.602C81.3906 508.609 81.2969 508.609 81.2031 508.609H78.75V513H77.3438ZM78.75 507.328H81.1406C82.9453 507.328 83.6484 506.516 83.6562 505.172C83.6484 503.82 82.9453 502.938 81.125 502.938H78.75V507.328ZM87.3281 501.688L90.6562 511.172H90.7812L94.125 501.688H95.6094L91.4688 513H89.9844L85.8438 501.688H87.3281ZM97.1406 513V501.688H104V502.938H98.5469V506.719H103.641V507.953H98.5469V511.75H104.078V513H97.1406ZM115.781 507.344C115.789 510.922 113.68 513.156 110.781 513.156C107.875 513.156 105.773 510.922 105.781 507.344C105.773 503.766 107.875 501.531 110.781 501.531C113.68 501.531 115.789 503.766 115.781 507.344ZM107.141 507.344C107.148 510.258 108.734 511.836 110.781 511.844C112.828 511.836 114.414 510.258 114.422 507.344C114.414 504.422 112.828 502.844 110.781 502.844C108.734 502.844 107.148 504.422 107.141 507.344ZM126.828 501.688V513H125.484L119.359 504.188H119.25V513H117.844V501.688H119.203L125.328 510.516H125.438V501.688H126.828ZM129.328 513V501.688H136.188V502.938H130.734V506.719H135.828V507.953H130.734V511.75H136.266V513H129.328ZM139.188 513.094C138.641 513.086 138.172 512.633 138.188 512.078C138.172 511.531 138.641 511.078 139.188 511.078C139.742 511.078 140.195 511.531 140.188 512.078C140.195 512.633 139.742 513.086 139.188 513.094ZM146.953 513H145.484L149.625 501.688H151.109L155.25 513H153.766L152.633 509.812H148.086L146.953 513ZM148.516 508.578H152.203L150.406 503.516H150.312L148.516 508.578ZM156.781 513V501.688H158.188V511.75H163.438V513H156.781ZM165.312 513V501.688H166.719V511.75H171.969V513H165.312ZM177.859 513V501.688H181.703C184.352 501.688 185.562 503.156 185.562 505.172C185.562 506.672 184.891 507.844 183.453 508.344L186 513H184.359L181.992 508.602C181.906 508.609 181.812 508.609 181.719 508.609H179.266V513H177.859ZM179.266 507.328H181.656C183.461 507.328 184.164 506.516 184.172 505.172C184.164 503.82 183.461 502.938 181.641 502.938H179.266V507.328ZM189 501.688V513H187.594V501.688H189ZM199.219 505.219C198.734 503.766 197.633 502.844 196.016 502.844C194.016 502.844 192.43 504.422 192.422 507.344C192.43 510.258 194.016 511.836 196.109 511.844C198.016 511.836 199.336 510.57 199.359 508.562H196.406V507.328H200.734V508.547C200.734 511.352 198.805 513.156 196.109 513.156C193.086 513.156 191.055 510.922 191.062 507.344C191.055 503.766 193.109 501.531 196.016 501.531C198.406 501.531 200.25 503.031 200.672 505.219H199.219ZM202.844 513V501.688H204.25V506.719H210.234V501.688H211.656V513H210.234V507.953H204.25V513H202.844ZM213.516 502.938V501.688H222.047V502.938H218.5V513H217.078V502.938H213.516ZM230.094 504.531C229.977 503.422 228.945 502.781 227.594 502.781C226.094 502.781 225.117 503.562 225.109 504.641C225.117 505.828 226.438 506.273 227.297 506.484L228.422 506.797C229.633 507.109 231.625 507.805 231.625 509.922C231.625 511.766 230.141 513.195 227.516 513.203C225.078 513.195 223.57 511.938 223.438 510.062H224.875C224.992 511.328 226.172 511.93 227.516 511.922C229.078 511.93 230.25 511.125 230.25 509.891C230.25 508.789 229.203 508.367 228.016 508.031L226.625 507.656C224.852 507.141 223.742 506.234 223.75 504.703C223.742 502.789 225.445 501.531 227.641 501.531C229.836 501.531 231.414 502.812 231.469 504.531H230.094ZM237.656 513V501.688H241.5C244.148 501.688 245.359 503.156 245.359 505.172C245.359 506.672 244.688 507.844 243.25 508.344L245.797 513H244.156L241.789 508.602C241.703 508.609 241.609 508.609 241.516 508.609H239.062V513H237.656ZM239.062 507.328H241.453C243.258 507.328 243.961 506.516 243.969 505.172C243.961 503.82 243.258 502.938 241.438 502.938H239.062V507.328ZM247.391 513V501.688H254.25V502.938H248.797V506.719H253.891V507.953H248.797V511.75H254.328V513H247.391ZM262.641 504.531C262.523 503.422 261.492 502.781 260.141 502.781C258.641 502.781 257.664 503.562 257.656 504.641C257.664 505.828 258.984 506.273 259.844 506.484L260.969 506.797C262.18 507.109 264.172 507.805 264.172 509.922C264.172 511.766 262.688 513.195 260.062 513.203C257.625 513.195 256.117 511.938 255.984 510.062H257.422C257.539 511.328 258.719 511.93 260.062 511.922C261.625 511.93 262.797 511.125 262.797 509.891C262.797 508.789 261.75 508.367 260.562 508.031L259.172 507.656C257.398 507.141 256.289 506.234 256.297 504.703C256.289 502.789 257.992 501.531 260.188 501.531C262.383 501.531 263.961 502.812 264.016 504.531H262.641ZM266.188 513V501.688H273.047V502.938H267.594V506.719H272.688V507.953H267.594V511.75H273.125V513H266.188ZM275.266 513V501.688H279.109C281.758 501.688 282.969 503.156 282.969 505.172C282.969 506.672 282.297 507.844 280.859 508.344L283.406 513H281.766L279.398 508.602C279.312 508.609 279.219 508.609 279.125 508.609H276.672V513H275.266ZM276.672 507.328H279.062C280.867 507.328 281.57 506.516 281.578 505.172C281.57 503.82 280.867 502.938 279.047 502.938H276.672V507.328ZM285.25 501.688L288.578 511.172H288.703L292.047 501.688H293.531L289.391 513H287.906L283.766 501.688H285.25ZM295.062 513V501.688H301.922V502.938H296.469V506.719H301.562V507.953H296.469V511.75H302V513H295.062ZM307.656 513H304.141V501.688H307.797C311.102 501.688 313.047 503.805 313.047 507.328C313.047 510.859 311.102 513 307.656 513ZM305.547 511.75H307.562C310.336 511.75 311.672 510.07 311.672 507.328C311.672 504.594 310.336 502.938 307.703 502.938H305.547V511.75ZM315.172 513.094C314.625 513.086 314.156 512.633 314.172 512.078C314.156 511.531 314.625 511.078 315.172 511.078C315.727 511.078 316.18 511.531 316.172 512.078C316.18 512.633 315.727 513.086 315.172 513.094Z" fill="black"/>
<path d="M1495 496C1501.63 496 1507 501.373 1507 508C1507 514.627 1501.63 520 1495 520C1488.37 520 1483 514.627 1483 508C1483 501.373 1488.37 496 1495 496ZM1493 512C1493 511.853 1498.95 507.766 1499 507.732L1493 504V512Z" fill="#333333"/>
<path d="M1515.25 503.102H1516.96L1519.53 507.586H1519.63L1522.22 503.102H1523.93L1520.33 509.117V513H1518.83V509.117L1515.25 503.102ZM1526.98 513.15C1524.87 513.15 1523.5 511.619 1523.5 509.322C1523.5 507.012 1524.87 505.48 1526.98 505.48C1529.07 505.48 1530.44 507.012 1530.44 509.322C1530.44 511.619 1529.07 513.15 1526.98 513.15ZM1524.97 509.322C1524.97 510.737 1525.62 511.934 1526.98 511.934C1528.32 511.934 1528.96 510.737 1528.96 509.322C1528.96 507.9 1528.32 506.69 1526.98 506.684C1525.62 506.69 1524.97 507.9 1524.97 509.322ZM1536.59 509.91V505.576H1538.04V513H1536.62V511.715H1536.53C1536.19 512.508 1535.43 513.096 1534.32 513.096C1532.88 513.096 1531.87 512.132 1531.87 510.293V505.576H1533.33V510.115C1533.33 511.127 1533.95 511.77 1534.84 511.77C1535.65 511.77 1536.59 511.175 1536.59 509.91ZM1543.29 505.576V506.738H1541.77V510.812C1541.78 511.653 1542.19 511.804 1542.66 511.811C1542.87 511.811 1543.19 511.79 1543.4 511.77V513.041C1543.2 513.068 1542.88 513.096 1542.48 513.096C1541.34 513.096 1540.31 512.467 1540.32 511.113V506.738H1539.23V505.576H1540.32V503.799H1541.77V505.576H1543.29ZM1549.43 509.91V505.576H1550.88V513H1549.45V511.715H1549.37C1549.03 512.508 1548.27 513.096 1547.16 513.096C1545.72 513.096 1544.71 512.132 1544.71 510.293V505.576H1546.17V510.115C1546.17 511.127 1546.79 511.77 1547.68 511.77C1548.49 511.77 1549.43 511.175 1549.43 509.91ZM1552.78 513V503.102H1554.22V506.779H1554.31C1554.57 506.314 1555.07 505.48 1556.44 505.48C1558.24 505.48 1559.56 506.889 1559.57 509.309C1559.56 511.701 1558.25 513.144 1556.45 513.15C1555.11 513.144 1554.58 512.323 1554.31 511.838H1554.2V513H1552.78ZM1554.2 509.281C1554.2 510.84 1554.89 511.899 1556.12 511.906C1557.41 511.899 1558.08 510.771 1558.08 509.281C1558.08 507.818 1557.43 506.718 1556.12 506.725C1554.87 506.718 1554.2 507.736 1554.2 509.281ZM1564.22 513.15C1562.03 513.15 1560.68 511.64 1560.69 509.336C1560.68 507.053 1562.05 505.48 1564.12 505.48C1565.81 505.48 1567.42 506.526 1567.42 509.213V509.732H1562.14C1562.18 511.147 1563.02 511.947 1564.23 511.947C1565.06 511.947 1565.6 511.592 1565.85 511.141H1567.32C1566.99 512.344 1565.85 513.15 1564.22 513.15ZM1562.15 508.639H1565.98C1565.98 507.511 1565.25 506.677 1564.14 506.684C1562.97 506.677 1562.21 507.593 1562.15 508.639Z" fill="#333333"/>
<circle cx="1604" cy="508" r="12" fill="black"/>
<path d="M1601.01 513V503.102H1604.63C1606.75 503.102 1607.77 504.229 1607.77 505.699C1607.77 506.937 1607.01 507.559 1606.1 507.791V507.887C1607.08 507.941 1608.15 508.803 1608.15 510.334C1608.15 511.852 1607.11 513 1604.8 513H1601.01ZM1602.52 511.715H1604.66C1606.08 511.708 1606.66 511.086 1606.66 510.266C1606.66 509.315 1605.91 508.557 1604.72 508.557H1602.52V511.715ZM1602.52 507.381H1604.51C1605.51 507.374 1606.29 506.772 1606.29 505.822C1606.29 505.002 1605.72 504.387 1604.54 504.387H1602.52V507.381Z" fill="white"/>
<path d="M1633 503.102V513H1631.62L1626.6 505.768H1626.52V513H1625.01V503.102H1626.41L1631.42 510.348H1631.52V503.102H1633ZM1634.55 510.908C1634.55 509.213 1635.99 508.775 1637.33 508.68C1637.82 508.652 1638.94 508.591 1639.28 508.577L1639.27 507.982C1639.28 507.142 1638.76 506.656 1637.77 506.656C1636.91 506.656 1636.39 507.053 1636.24 507.6H1634.79C1634.92 506.369 1636.07 505.48 1637.82 505.48C1639 505.48 1640.73 505.911 1640.73 508.064V513H1639.31V511.988H1639.26C1638.97 512.542 1638.29 513.164 1637.06 513.164C1635.65 513.164 1634.55 512.357 1634.55 510.908ZM1635.98 510.922C1635.98 511.633 1636.56 511.995 1637.38 512.002C1638.57 511.995 1639.29 511.202 1639.29 510.32L1639.28 509.644C1638.94 509.664 1637.88 509.739 1637.54 509.76C1636.58 509.828 1635.98 510.19 1635.98 510.922ZM1648.6 505.576L1645.9 513H1644.33L1641.64 505.576H1643.21L1645.08 511.277H1645.15L1647.02 505.576H1648.6ZM1652.72 513.15C1650.54 513.15 1649.19 511.64 1649.2 509.336C1649.19 507.053 1650.56 505.48 1652.63 505.48C1654.32 505.48 1655.92 506.526 1655.92 509.213V509.732H1650.65C1650.69 511.147 1651.52 511.947 1652.74 511.947C1653.57 511.947 1654.11 511.592 1654.35 511.141H1655.83C1655.5 512.344 1654.36 513.15 1652.72 513.15ZM1650.65 508.639H1654.49C1654.49 507.511 1653.76 506.677 1652.64 506.684C1651.47 506.677 1650.71 507.593 1650.65 508.639ZM1657.37 513V505.576H1658.78V506.752H1658.86C1659.14 505.959 1659.88 505.46 1660.75 505.467C1660.93 505.46 1661.21 505.48 1661.37 505.494V506.889C1661.24 506.861 1660.9 506.8 1660.6 506.807C1659.59 506.8 1658.84 507.504 1658.84 508.475V513H1657.37ZM1666 513V503.102H1669.62C1671.74 503.102 1672.75 504.229 1672.75 505.699C1672.75 506.937 1672 507.559 1671.09 507.791V507.887C1672.07 507.941 1673.14 508.803 1673.14 510.334C1673.14 511.852 1672.1 513 1669.79 513H1666ZM1667.5 511.715H1669.65C1671.07 511.708 1671.65 511.086 1671.65 510.266C1671.65 509.315 1670.89 508.557 1669.71 508.557H1667.5V511.715ZM1667.5 507.381H1669.5C1670.5 507.374 1671.28 506.772 1671.28 505.822C1671.28 505.002 1670.71 504.387 1669.53 504.387H1667.5V507.381ZM1676.09 503.102V513H1674.63V503.102H1676.09ZM1681.01 513.15C1678.91 513.15 1677.53 511.619 1677.54 509.322C1677.53 507.012 1678.91 505.48 1681.01 505.48C1683.1 505.48 1684.47 507.012 1684.47 509.322C1684.47 511.619 1683.1 513.15 1681.01 513.15ZM1679 509.322C1679 510.737 1679.65 511.934 1681.01 511.934C1682.35 511.934 1682.99 510.737 1682.99 509.322C1682.99 507.9 1682.35 506.69 1681.01 506.684C1679.65 506.69 1679 507.9 1679 509.322ZM1689.02 515.939C1687.15 515.939 1685.91 515.112 1685.78 513.725H1687.27C1687.42 514.429 1688.07 514.771 1689.04 514.764C1690.2 514.771 1690.93 514.265 1690.94 513.109V511.646H1690.84C1690.58 512.125 1690.05 512.891 1688.68 512.891C1686.93 512.891 1685.58 511.585 1685.58 509.213C1685.58 506.841 1686.91 505.48 1688.7 505.48C1690.08 505.48 1690.58 506.314 1690.86 506.779H1690.95V505.576H1692.37V513.164C1692.38 515.071 1690.94 515.939 1689.02 515.939ZM1687.07 509.24C1687.06 510.696 1687.73 511.681 1689.01 511.688C1690.25 511.681 1690.95 510.771 1690.95 509.24C1690.95 507.736 1690.27 506.718 1689.01 506.725C1687.72 506.718 1687.06 507.818 1687.07 509.24Z" fill="#333333"/>
<circle cx="1730" cy="508" r="12" fill="black"/>
<path d="M1726.75 513L1724.2 503.809H1725.68L1727.47 510.918H1727.54L1729.41 503.809H1730.86L1732.72 510.918H1732.8L1734.59 503.809H1736.06L1733.51 513H1732.1L1730.17 506.132H1730.09L1728.16 513H1726.75Z" fill="white"/>
<path d="M1756.4 505.713C1756.3 504.79 1755.5 504.264 1754.36 504.264C1753.15 504.264 1752.39 504.886 1752.38 505.727C1752.38 506.663 1753.4 507.032 1754.18 507.217L1755.14 507.477C1756.41 507.784 1757.99 508.475 1758 510.266C1757.99 511.94 1756.66 513.164 1754.32 513.164C1752.11 513.164 1750.71 512.057 1750.62 510.252H1752.12C1752.21 511.332 1753.17 511.845 1754.32 511.852C1755.58 511.845 1756.5 511.209 1756.51 510.238C1756.5 509.377 1755.68 509.028 1754.63 508.748L1753.46 508.434C1751.87 507.996 1750.88 507.189 1750.88 505.809C1750.88 504.1 1752.4 502.965 1754.4 502.965C1756.41 502.965 1757.81 504.113 1757.86 505.713H1756.4ZM1759.61 513V503.102H1765.82V504.4H1761.12V507.395H1765.49V508.68H1761.12V511.701H1765.87V513H1759.61ZM1767.66 513V503.102H1771.19C1773.5 503.102 1774.62 504.38 1774.62 506.205C1774.62 507.538 1774.02 508.543 1772.82 509.001L1775.01 513H1773.3L1771.29 509.268H1771.19H1769.17V513H1767.66ZM1769.17 507.969H1771.04C1772.5 507.962 1773.11 507.319 1773.11 506.205C1773.11 505.091 1772.5 504.394 1771.04 504.387H1769.17V507.969ZM1776.92 503.102L1779.67 511.154H1779.78L1782.53 503.102H1784.15L1780.58 513H1778.85L1775.29 503.102H1776.92ZM1785.41 513V503.102H1791.62V504.4H1786.91V507.395H1791.29V508.68H1786.91V511.701H1791.67V513H1785.41ZM1802.06 508.051C1802.06 511.216 1800.16 513.137 1797.61 513.137C1795.03 513.137 1793.13 511.209 1793.13 508.051C1793.13 504.886 1795.03 502.965 1797.61 502.965C1800.16 502.965 1802.06 504.886 1802.06 508.051ZM1794.62 508.051C1794.63 510.457 1795.9 511.763 1797.61 511.756C1799.3 511.763 1800.57 510.457 1800.57 508.051C1800.57 505.645 1799.3 504.339 1797.61 504.346C1795.9 504.339 1794.63 505.645 1794.62 508.051ZM1811.74 503.102V513H1810.36L1805.34 505.768H1805.26V513H1803.76V503.102H1805.15L1810.17 510.348H1810.27V503.102H1811.74ZM1813.77 513V503.102H1819.97V504.4H1815.27V507.395H1819.64V508.68H1815.27V511.701H1820.03V513H1813.77ZM1827.19 513L1824.44 503.102H1826.03L1827.96 510.758H1828.04L1830.05 503.102H1831.61L1833.62 510.758H1833.7L1835.63 503.102H1837.21L1834.46 513H1832.95L1830.87 505.604H1830.79L1828.71 513H1827.19ZM1840.78 513.15C1838.59 513.15 1837.25 511.64 1837.25 509.336C1837.25 507.053 1838.61 505.48 1840.69 505.48C1842.37 505.48 1843.98 506.526 1843.98 509.213V509.732H1838.7C1838.74 511.147 1839.58 511.947 1840.79 511.947C1841.62 511.947 1842.16 511.592 1842.41 511.141H1843.88C1843.56 512.344 1842.42 513.15 1840.78 513.15ZM1838.71 508.639H1842.54C1842.54 507.511 1841.81 506.677 1840.7 506.684C1839.53 506.677 1838.77 507.593 1838.71 508.639ZM1845.55 513V503.102H1847V506.779H1847.08C1847.35 506.314 1847.84 505.48 1849.22 505.48C1851.01 505.48 1852.34 506.889 1852.35 509.309C1852.34 511.701 1851.03 513.144 1849.23 513.15C1847.88 513.144 1847.36 512.323 1847.08 511.838H1846.97V513H1845.55ZM1846.97 509.281C1846.97 510.84 1847.67 511.899 1848.9 511.906C1850.19 511.899 1850.86 510.771 1850.86 509.281C1850.86 507.818 1850.21 506.718 1848.9 506.725C1847.65 506.718 1846.97 507.736 1846.97 509.281ZM1853.63 513V512.002L1857.65 506.902V506.834H1853.77V505.576H1859.47V506.629L1855.62 511.674V511.742H1859.61V513H1853.63ZM1861.14 513V505.576H1862.6V513H1861.14ZM1860.95 503.566C1860.95 503.088 1861.37 502.705 1861.88 502.705C1862.38 502.705 1862.79 503.088 1862.79 503.566C1862.79 504.045 1862.38 504.435 1861.88 504.428C1861.37 504.435 1860.95 504.045 1860.95 503.566ZM1865.84 508.598V513H1864.38V505.576H1865.79V506.793H1865.87C1866.22 505.993 1866.95 505.48 1868.06 505.48C1869.58 505.48 1870.59 506.444 1870.59 508.283V513H1869.14V508.461C1869.13 507.381 1868.55 506.738 1867.56 506.738C1866.56 506.738 1865.84 507.415 1865.84 508.598ZM1875.56 513.15C1873.38 513.15 1872.03 511.64 1872.04 509.336C1872.03 507.053 1873.4 505.48 1875.47 505.48C1877.16 505.48 1878.76 506.526 1878.76 509.213V509.732H1873.48C1873.53 511.147 1874.36 511.947 1875.58 511.947C1876.4 511.947 1876.94 511.592 1877.19 511.141H1878.67C1878.34 512.344 1877.2 513.15 1875.56 513.15ZM1873.49 508.639H1877.33C1877.33 507.511 1876.59 506.677 1875.48 506.684C1874.31 506.677 1873.55 507.593 1873.49 508.639Z" fill="#333333"/>
<defs>
<clipPath id="clip0_1266_1163">
<rect width="185" height="28" fill="white" transform="translate(40 80)"/>
</clipPath>
</defs>
</svg>
