<svg width="126" height="44" viewBox="0 0 126 44" fill="none" xmlns="http://www.w3.org/2000/svg">
<g clip-path="url(#clip0_887_2920)">
<path d="M14.2077 38.446V40.6115H11.5941V38.446H10.3711V44H11.5941V41.7005H14.2077V44H15.4308V38.446H14.2077Z" fill="#231F20"/>
<path d="M42.0841 39.5309H44.371V41.1435H41.7699V39.8492C41.7741 39.7864 41.7615 39.6691 41.816 39.6021C41.8746 39.5309 41.9668 39.5351 42.0799 39.5351M40.8233 38.7602C40.5678 39.0199 40.5553 39.4052 40.5469 39.623V43.9958H41.7699V42.2241H44.371V43.9958H45.5982V38.4419H41.7783C41.4139 38.4419 41.0746 38.4963 40.8191 38.7602" fill="#231F20"/>
<path d="M32.1564 38.4461H28.3281V44H29.5554V39.5309H31.8548C31.9721 39.5309 32.0643 39.5309 32.1187 39.5979C32.1732 39.6649 32.1606 39.7822 32.169 39.845V44H33.3962V39.6272C33.3878 39.4052 33.3794 39.0241 33.1239 38.7602C32.8643 38.5005 32.5292 38.4461 32.1648 38.4419" fill="#231F20"/>
<path d="M26.0163 42.5969C26.0121 42.6639 26.0247 42.777 25.9703 42.844C25.9116 42.9152 25.8195 42.911 25.7064 42.9152H23.4069V38.4461H22.1797V44H26.008C26.3724 44 26.7116 43.9414 26.9671 43.6817C27.2226 43.422 27.2352 43.0408 27.2394 42.8147V38.4419H26.0163V42.5927V42.5969Z" fill="#231F20"/>
<path d="M38.3132 42.5968C38.309 42.6638 38.3216 42.7769 38.2671 42.844C38.2127 42.9152 38.1164 42.911 38.0033 42.9152H35.7038V39.5309H38.0033C38.1164 39.5309 38.2127 39.5309 38.2671 39.5979C38.3216 39.6649 38.309 39.7822 38.3132 39.845V42.5968ZM39.5362 39.6272C39.5279 39.4052 39.5195 39.0241 39.264 38.7644C39.0085 38.5047 38.6692 38.4502 38.3048 38.446H34.4766V44H38.3048C38.6692 44 39.0085 43.9455 39.264 43.6816C39.5195 43.422 39.5279 43.0408 39.5362 42.8146V39.623" fill="#231F20"/>
<path d="M18.8078 40.8754L17.3209 38.446H15.8633L18.1544 41.9476V44H19.4612V41.9476L21.7481 38.446H20.2947L18.8078 40.8754Z" fill="#231F20"/>
<path d="M48.1388 38.446H46.832V44H48.1388V38.446Z" fill="#231F20"/>
<path d="M94.7268 40.8293C94.7268 40.888 94.7184 40.9466 94.6849 40.9885C94.6262 41.0639 94.5341 41.0555 94.421 41.0555H92.0796V39.6021H94.421C94.5341 39.6021 94.6262 39.6021 94.6849 39.6733C94.7184 39.7152 94.7268 39.778 94.7268 39.8325V40.8293ZM94.9362 42.199C95.1959 42.1696 95.4304 42.0942 95.6189 41.8974C95.8702 41.6377 95.887 41.2565 95.8912 41.0346V39.6147C95.887 39.3927 95.8702 39.0157 95.6189 38.756C95.3634 38.4963 95.0241 38.4419 94.6639 38.4419H90.8398V43.9958H92.0754V42.2115H93.6377L94.8398 43.9958H96.1466L94.932 42.1948" fill="#231F20"/>
<path d="M113.085 41.022C113.081 41.0764 113.077 41.1392 113.043 41.1853C112.985 41.2565 112.893 41.2523 112.78 41.2523H110.434V39.6021H112.78C112.893 39.6021 112.985 39.6021 113.043 39.6733C113.077 39.7152 113.081 39.778 113.085 39.8324V41.022ZM109.211 44H110.434V42.4083H113.022C113.383 42.4042 113.722 42.3539 113.973 42.09C114.229 41.8261 114.241 41.4492 114.25 41.2314V39.6188C114.241 39.3968 114.229 39.0199 113.973 38.7602C113.722 38.5005 113.383 38.446 113.022 38.446H109.211V44Z" fill="#231F20"/>
<path d="M106.914 42.601C106.91 42.6638 106.922 42.7769 106.868 42.8481C106.809 42.9193 106.717 42.9152 106.604 42.9193H104.313V38.446H103.09V44H106.91C107.274 44 107.609 43.9455 107.869 43.6858C108.124 43.4261 108.137 43.045 108.141 42.823V38.446H106.918V42.601H106.914Z" fill="#231F20"/>
<path d="M100.82 42.5549C100.82 42.6136 100.812 42.6722 100.778 42.7141C100.719 42.7853 100.627 42.7811 100.514 42.7853H98.5288C98.4157 42.7853 98.3194 42.7853 98.2649 42.7141C98.2314 42.6722 98.2188 42.6094 98.2188 42.5549V39.8911C98.2188 39.8324 98.2314 39.7738 98.2649 39.7319C98.3194 39.6607 98.4115 39.6649 98.5288 39.6607H100.514C100.627 39.6607 100.719 39.6607 100.778 39.7319C100.812 39.7738 100.82 39.8366 100.82 39.8911V42.5549ZM101.775 38.7602C101.519 38.5005 101.18 38.446 100.82 38.446H98.223C97.8628 38.446 97.5278 38.5047 97.2723 38.7602C97.0168 39.0199 97.0042 39.401 97 39.623V42.8272C97.0084 43.0492 97.0168 43.4261 97.2723 43.6858C97.5278 43.9455 97.8628 44 98.223 44H100.82C101.18 44 101.519 43.9455 101.775 43.6858C102.03 43.4261 102.043 43.0492 102.047 42.8272V39.623C102.043 39.401 102.03 39.0241 101.775 38.7602Z" fill="#231F20"/>
<path d="M85.984 39.7277C86.0384 39.6565 86.1347 39.6607 86.2436 39.6607H89.762V38.446H85.9421C85.5777 38.446 85.2384 38.5047 84.9871 38.7644C84.7316 39.0241 84.719 39.401 84.7148 39.623V42.8272C84.7232 43.0492 84.7316 43.4261 84.9871 43.6858C85.2426 43.9455 85.5819 44 85.9421 44H88.5347C88.8991 44 89.2342 43.9455 89.4897 43.6858C89.7452 43.4261 89.7578 43.0492 89.762 42.8272V40.6701H87.1232V41.7549H88.5389V42.5549C88.5389 42.6094 88.5306 42.6722 88.4929 42.7141C88.4342 42.7853 88.3463 42.7811 88.229 42.7853H86.2436C86.1306 42.7853 86.0342 42.7853 85.984 42.7141C85.9504 42.6722 85.9421 42.6094 85.9379 42.5549V39.8911C85.9421 39.8366 85.9504 39.7738 85.984 39.7277Z" fill="#231F20"/>
<path d="M79.9927 40.8293C79.9843 40.888 79.9801 40.9466 79.9466 40.9885C79.8921 41.0639 79.7958 41.0555 79.6869 41.0555H77.3455V39.6021H79.6869C79.8 39.6021 79.8921 39.6021 79.9466 39.6733C79.9843 39.7152 79.9885 39.778 79.9927 39.8325V40.8293ZM80.1979 42.199C80.4576 42.1696 80.6921 42.0943 80.8806 41.8974C81.1361 41.6377 81.1487 41.2566 81.1529 41.0346V39.6147C81.1529 39.3927 81.1361 39.0157 80.8806 38.756C80.6251 38.4963 80.29 38.4419 79.9256 38.4419H76.1016V43.9958H77.3372V42.2115H78.8995L80.1057 43.9958H81.4084L80.1937 42.1948" fill="#231F20"/>
<path d="M64.2109 38.446V39.6607H66.1209V44H67.3439V39.6607H69.2581V38.446H64.2109Z" fill="#231F20"/>
<path d="M51.4414 38.446V44H52.6644V40.4858L53.8624 44H54.9472L56.1409 40.4858V44H57.3639V38.446H55.743L54.4027 42.3581L53.0665 38.446H51.4414Z" fill="#231F20"/>
<path d="M73.828 42.5549C73.828 42.6136 73.8196 42.6722 73.7861 42.7141C73.7275 42.7853 73.6353 42.7811 73.5222 42.7853H71.5369C71.4238 42.7853 71.3317 42.7853 71.2772 42.7141C71.2395 42.6722 71.2353 42.6094 71.2311 42.5549V39.8911C71.2311 39.8324 71.2395 39.7738 71.2772 39.7319C71.3317 39.6607 71.4238 39.6649 71.5369 39.6607H73.5222C73.6353 39.6607 73.7275 39.6607 73.7861 39.7319C73.8196 39.7738 73.828 39.8366 73.828 39.8911V42.5549ZM74.783 38.7602C74.5275 38.5005 74.1882 38.446 73.828 38.446H71.2311C70.8709 38.446 70.5317 38.5047 70.2762 38.7602C70.0207 39.0199 70.0123 39.401 70.0039 39.623V42.8272C70.0123 43.0492 70.0207 43.4261 70.2762 43.6858C70.5317 43.9455 70.8667 44 71.2311 44H73.828C74.1882 44 74.5275 43.9455 74.783 43.6858C75.0385 43.4261 75.051 43.0492 75.0552 42.8272V39.623C75.0552 39.401 75.0385 39.0241 74.783 38.7602Z" fill="#231F20"/>
<path d="M62.2381 42.5549C62.234 42.6136 62.2256 42.6722 62.1921 42.7141C62.1334 42.7853 62.0413 42.7811 61.9282 42.7853H59.9429C59.8298 42.7853 59.7376 42.7853 59.679 42.7141C59.6455 42.6722 59.6371 42.6094 59.6329 42.5549V39.8911C59.6329 39.8324 59.6455 39.7738 59.679 39.7319C59.7334 39.6607 59.8298 39.6649 59.9429 39.6607H61.9282C62.0413 39.6607 62.1376 39.6607 62.1921 39.7319C62.2256 39.7738 62.234 39.8366 62.2381 39.8911V42.5549ZM63.1889 38.7602C62.9376 38.5005 62.5942 38.446 62.234 38.446H59.6413C59.2769 38.446 58.9418 38.5047 58.6863 38.7602C58.4308 39.0199 58.4224 39.401 58.4141 39.623V42.8272C58.4224 43.0492 58.4308 43.4261 58.6863 43.6858C58.9418 43.9455 59.2769 44 59.6413 44H62.234C62.5942 44 62.9334 43.9455 63.1889 43.6858C63.4444 43.4261 63.457 43.0492 63.4612 42.8272V39.623C63.457 39.401 63.4444 39.0241 63.1889 38.7602Z" fill="#231F20"/>
<path d="M37.0852 0H33.2695V28.9885H37.0852V0Z" fill="#00AFD5"/>
<path d="M3.81571 0H0V28.9885H3.81571V0Z" fill="#00AFD5"/>
<path d="M16.5903 27.2335H20.4898V16.5026H30.8772V12.4859H20.4898V1.75916H16.5903V12.4859H6.20703V16.5026H16.5903V27.2335Z" fill="#00AFD5"/>
<path d="M116.278 5.32355C111.214 5.32355 107.109 9.42826 107.109 14.4921C107.109 19.556 111.235 23.6607 116.299 23.6607C121.363 23.6607 125.451 19.556 125.451 14.4921C125.451 9.42826 121.346 5.32355 116.282 5.32355M116.278 20.6953C112.856 20.6953 110.075 17.9141 110.075 14.4921C110.075 11.0701 112.856 8.28899 116.278 8.28899C119.7 8.28899 122.481 11.0701 122.481 14.4921C122.481 17.9141 119.7 20.6953 116.278 20.6953Z" fill="#231F20"/>
<path d="M61.6386 12.9969H51.7664V6.27435H48.625V22.71H51.7664V15.8408H61.6386V22.71H64.78V6.27435H61.6386V12.9969Z" fill="#231F20"/>
<path d="M82.316 6.27435H66.7852V9.06806H73.0009V22.7099H76.1715V9.06806H82.316V6.27435Z" fill="#231F20"/>
<path d="M91.9858 22.71H88.5764L83.9062 6.27435H86.9555L90.2434 18.5759H90.2727L93.5649 6.27435H97.0581L100.346 18.5759H100.375L103.663 6.27435H106.713L102.042 22.71H98.633L95.4246 10.5089H95.1942L91.9858 22.71Z" fill="#231F20"/>
</g>
<defs>
<clipPath id="clip0_887_2920">
<rect width="125.445" height="44" fill="white"/>
</clipPath>
</defs>
</svg>
