<svg width="472" height="160" viewBox="0 0 472 160" fill="none" xmlns="http://www.w3.org/2000/svg">
<path d="M4.59375 15.9844H12.0938V9.16406H14.6953V25.4531H12.0938V18.3047H4.59375V25.4531H1.99219V9.16406H4.59375V15.9844ZM24.4809 25.4531H21.9028V11.5078H16.6294V9.16406H29.7544V11.5078H24.4809V25.4531ZM35.8369 21.5391L39.2353 9.16406H41.8369L45.0947 21.5391L48.3525 9.16406H50.8838L46.4775 25.4531H43.9228L40.5244 12.7734L37.0556 25.4531H34.5713L30.165 9.16406H32.7197L35.8369 21.5391ZM54.6459 17.3203C54.6459 19.2109 55.1459 20.6797 56.1459 21.7266C57.1616 22.7734 58.4428 23.2969 59.9897 23.2969C61.5366 23.2969 62.81 22.7734 63.81 21.7266C64.81 20.6797 65.31 19.2109 65.31 17.3203C65.31 15.4297 64.81 13.9609 63.81 12.9141C62.81 11.8672 61.5366 11.3438 59.9897 11.3438C58.4428 11.3438 57.1616 11.8672 56.1459 12.9141C55.1459 13.9609 54.6459 15.4297 54.6459 17.3203ZM52.0678 17.3203C52.0678 14.8984 52.8022 12.9141 54.2709 11.3672C55.7553 9.80469 57.6616 9.02344 59.9897 9.02344C62.3334 9.02344 64.2397 9.80469 65.7084 11.3672C67.1928 12.9141 67.935 14.8984 67.935 17.3203C67.935 19.7422 67.1928 21.7344 65.7084 23.2969C64.2397 24.8438 62.3334 25.6172 59.9897 25.6172C57.6616 25.6172 55.7553 24.8438 54.2709 23.2969C52.8022 21.7344 52.0678 19.7422 52.0678 17.3203ZM81.9628 13.6406C81.9628 14.3906 81.8066 15.1016 81.4941 15.7734C81.1972 16.4453 80.7909 17.0312 80.2753 17.5312C79.7441 18.0312 79.1347 18.4219 78.4472 18.7031C78.1503 18.8438 77.8613 18.9453 77.58 19.0078V22.0781C79.7363 22.0781 81.7909 21.9688 83.7441 21.75V7.42969H86.3222V15.3047H89.205V17.7891H86.3222V28.3828H83.7441V24.0703C81.8222 24.3047 79.6503 24.4219 77.2284 24.4219H69.4238V22.0781H75.0253V19.0547C74.6816 18.9766 74.3378 18.8594 73.9941 18.7031C73.2909 18.4219 72.6816 18.0312 72.1659 17.5312C71.6347 17.0312 71.2128 16.4453 70.9003 15.7734C70.6034 15.1016 70.455 14.3906 70.455 13.6406C70.455 12.8906 70.6034 12.1797 70.9003 11.5078C71.2128 10.8359 71.6347 10.25 72.1659 9.75C72.6816 9.26562 73.2831 8.875 73.9706 8.57812C74.6738 8.28125 75.4238 8.13281 76.2206 8.13281C77.0019 8.13281 77.7363 8.28125 78.4238 8.57812C79.1269 8.875 79.7441 9.26562 80.2753 9.75C80.7909 10.25 81.1972 10.8359 81.4941 11.5078C81.8066 12.1797 81.9628 12.8906 81.9628 13.6406ZM79.4081 13.6406C79.4081 13.2031 79.3144 12.7891 79.1269 12.3984C78.955 11.9922 78.7284 11.6484 78.4472 11.3672C78.1503 11.0859 77.8066 10.8594 77.4159 10.6875C77.0409 10.5 76.6425 10.4062 76.2206 10.4062C75.7831 10.4062 75.3691 10.5 74.9784 10.6875C74.6034 10.8594 74.2675 11.0859 73.9706 11.3672C73.6894 11.6484 73.455 11.9922 73.2675 12.3984C73.0956 12.7891 73.0097 13.2031 73.0097 13.6406C73.0097 14.0938 73.0956 14.5156 73.2675 14.9062C73.455 15.2969 73.6894 15.6406 73.9706 15.9375C74.2675 16.2188 74.6034 16.4453 74.9784 16.6172C75.3691 16.7891 75.7831 16.875 76.2206 16.875C76.6425 16.875 77.0409 16.7891 77.4159 16.6172C77.8066 16.4453 78.1503 16.2188 78.4472 15.9375C78.7284 15.6406 78.955 15.2969 79.1269 14.9062C79.3144 14.5156 79.4081 14.0938 79.4081 13.6406ZM101.581 9.09375V7.10156H104.464V9.09375H109.081V11.25H106.737L106.761 11.2734C107.245 11.7266 107.628 12.2422 107.909 12.8203C108.19 13.3984 108.331 14.0156 108.331 14.6719C108.331 15.3281 108.19 15.9531 107.909 16.5469C107.628 17.125 107.245 17.6406 106.761 18.0938C106.276 18.5156 105.706 18.8594 105.05 19.125C104.409 19.375 103.729 19.5 103.011 19.5C102.292 19.5 101.604 19.375 100.948 19.125C100.308 18.8594 99.7528 18.5156 99.2841 18.0938C98.7997 17.6406 98.4169 17.125 98.1356 16.5469C97.8544 15.9531 97.7138 15.3281 97.7138 14.6719C97.7138 14.0156 97.8544 13.3984 98.1356 12.8203C98.4169 12.2422 98.7997 11.7266 99.2841 11.2734L99.3075 11.25H96.9403V9.09375H101.581ZM105.753 14.5547C105.753 13.8203 105.479 13.1875 104.933 12.6562C104.401 12.1094 103.761 11.8359 103.011 11.8359C102.261 11.8359 101.62 12.1094 101.089 12.6562C100.558 13.1875 100.292 13.8203 100.292 14.5547C100.292 15.2891 100.558 15.9297 101.089 16.4766C101.62 17.0078 102.261 17.2734 103.011 17.2734C103.761 17.2734 104.401 17.0078 104.933 16.4766C105.479 15.9297 105.753 15.2891 105.753 14.5547ZM113.534 7.42969V12.8203H116.417V15.2344H113.534V19.5469H110.933V7.42969H113.534ZM110.933 22.9453H102.753V26.1797H110.933V22.9453ZM113.534 28.3828H100.175V20.7188H113.534V28.3828ZM132.906 7.42969H135.296V28.3828H132.906V7.42969ZM127.327 8.36719C127.327 10.1953 127.226 11.875 127.023 13.4062H129.062V7.42969H131.406V28.3828H129.062V15.75H126.554C126.445 16.2344 126.32 16.7031 126.179 17.1562C125.288 19.9531 124.109 22.2812 122.64 24.1406L120.695 23.0625C122.163 21.25 123.304 18.9844 124.117 16.2656C124.617 14.6562 124.898 12.7891 124.96 10.6641H123.109C122.952 13.0078 122.554 15.0078 121.913 16.6641C120.945 19.1328 119.695 21.2344 118.163 22.9688L116.288 21.9141C117.82 20.1328 119.015 18.0781 119.874 15.75C120.39 14.2969 120.695 12.6016 120.788 10.6641H118.023V8.36719H127.327ZM11.7656 57.9141V64.7578H9.16406V57.9141H1.125V55.5469H19.8047V57.9141H11.7656ZM11.7891 45.4453C11.7891 46.9141 12.4219 48.1719 13.6875 49.2188C15.0469 50.3281 16.7578 51.2344 18.8203 51.9375L17.4141 53.7891C15.2266 53.1172 13.3828 52.125 11.8828 50.8125C11.3203 50.3438 10.8438 49.8438 10.4531 49.3125C10.0781 49.8438 9.60938 50.3438 9.04688 50.8125C7.54688 52.125 5.70312 53.1172 3.51562 53.7891L2.10938 51.9375C4.17188 51.2344 5.88281 50.3281 7.24219 49.2188C8.50781 48.1719 9.14062 46.9141 9.14062 45.4453V43.5234H11.7891V45.4453ZM40.2544 59.8359V62.2031H21.5747V59.8359H29.6138V55.2891H32.2153V59.8359H40.2544ZM32.2388 46.2188C32.2388 48.0625 32.9184 49.6016 34.2778 50.8359C35.7622 52.1953 37.5122 53.1797 39.5278 53.7891L38.0981 55.6875C35.5981 54.8594 33.5591 53.6094 31.9809 51.9375C31.5747 51.5156 31.2153 51.0703 30.9028 50.6016C30.6059 51.0703 30.2544 51.5156 29.8481 51.9375C28.27 53.6094 26.2309 54.8594 23.7309 55.6875L22.3013 53.7891C24.3169 53.1797 26.0669 52.1953 27.5513 50.8359C28.9106 49.6016 29.5903 48.0625 29.5903 46.2188V44.0859H32.2388V46.2188ZM64.0209 50.7656H61.7709V55.4062C62.0366 55.4688 62.2866 55.5469 62.5209 55.6406C63.1928 55.9219 63.7866 56.2812 64.3022 56.7188C64.7866 57.1875 65.1772 57.7422 65.4741 58.3828C65.7709 59.0078 65.9194 59.6641 65.9194 60.3516C65.9194 61.0391 65.7709 61.7031 65.4741 62.3438C65.1772 62.9688 64.7866 63.5156 64.3022 63.9844C63.7866 64.4219 63.185 64.7734 62.4975 65.0391C61.8256 65.3203 61.1069 65.4609 60.3413 65.4609C59.5756 65.4609 58.8491 65.3203 58.1616 65.0391C57.4897 64.7734 56.8959 64.4219 56.3803 63.9844C55.8803 63.5156 55.4819 62.9688 55.185 62.3438C54.8881 61.7031 54.7397 61.0391 54.7397 60.3516C54.7397 59.6641 54.8881 59.0078 55.185 58.3828C55.4819 57.7422 55.8803 57.1875 56.3803 56.7188C56.8959 56.2812 57.4975 55.9219 58.185 55.6406C58.5288 55.5 58.8881 55.3984 59.2631 55.3359V43.4297H61.7709V48.4453H64.0209V43.4297H66.5756V55.6641H64.0209V50.7656ZM63.3413 60.3516C63.3413 59.5859 63.0444 58.9219 62.4506 58.3594C61.8569 57.7969 61.1538 57.5156 60.3413 57.5156C59.5288 57.5156 58.8256 57.7969 58.2319 58.3594C57.6381 58.9219 57.3413 59.5859 57.3413 60.3516C57.3413 61.1172 57.6381 61.7812 58.2319 62.3438C58.8256 62.9062 59.5288 63.1875 60.3413 63.1875C61.1538 63.1875 61.8569 62.9062 62.4506 62.3438C63.0444 61.7812 63.3413 61.1172 63.3413 60.3516ZM54.7397 46.3359C54.7397 48.1953 55.0913 49.6875 55.7944 50.8125C56.56 51.9688 57.4897 52.9922 58.5834 53.8828L56.9194 55.4766C55.7163 54.4766 54.6694 53.3438 53.7788 52.0781L53.4975 51.5859L53.1694 52.125C52.0913 53.7188 50.9194 54.9922 49.6538 55.9453L47.8725 54.3047C49.1225 53.4141 50.2006 52.2422 51.1069 50.7891C51.8569 49.6016 52.2319 48.1094 52.2319 46.3125V43.9922H54.7397V46.3359ZM85.3144 43.4297V48.9609H88.1972V51.3516H85.3144V58.7578H82.7363V43.4297H85.3144ZM85.9238 64.3828H72.33V57.6562H74.9784V62.0625H85.9238V64.3828ZM76.2675 45.9844C76.2675 48.0938 76.7206 49.7734 77.6269 51.0234C78.6581 52.4453 79.9159 53.6328 81.4003 54.5859L79.8534 56.3438C78.2909 55.3594 76.8534 54.0156 75.5409 52.3125C75.3222 52.0469 75.1269 51.7578 74.955 51.4453C74.7675 51.7891 74.5566 52.1172 74.3222 52.4297C73.0722 54.2266 71.6503 55.625 70.0566 56.625L68.3222 54.9375C69.8847 53.9844 71.1972 52.7266 72.2597 51.1641C73.1816 49.8359 73.6425 48.1094 73.6425 45.9844V43.9922H76.2675V45.9844ZM108.214 49.6172C108.214 50.3828 108.058 51.1094 107.745 51.7969C107.433 52.4844 107.003 53.0859 106.456 53.6016C105.925 54.1172 105.3 54.5234 104.581 54.8203C103.862 55.1172 103.097 55.2656 102.284 55.2656C101.472 55.2656 100.706 55.1172 99.9872 54.8203C99.2841 54.5234 98.6591 54.1172 98.1122 53.6016C97.5653 53.0859 97.1356 52.4844 96.8231 51.7969C96.5106 51.1094 96.3544 50.3828 96.3544 49.6172C96.3544 48.8516 96.5106 48.125 96.8231 47.4375C97.1356 46.75 97.5653 46.1484 98.1122 45.6328C98.6591 45.1172 99.2841 44.7188 99.9872 44.4375C100.706 44.1406 101.472 43.9922 102.284 43.9922C103.097 43.9922 103.862 44.1406 104.581 44.4375C105.3 44.7188 105.925 45.1172 106.456 45.6328C107.003 46.1484 107.433 46.75 107.745 47.4375C108.058 48.125 108.214 48.8516 108.214 49.6172ZM105.636 49.6172C105.636 49.1797 105.542 48.7578 105.354 48.3516C105.183 47.9453 104.948 47.5938 104.651 47.2969C104.339 46.9844 103.979 46.7422 103.573 46.5703C103.167 46.3984 102.737 46.3125 102.284 46.3125C101.847 46.3125 101.417 46.3984 100.995 46.5703C100.589 46.7422 100.237 46.9844 99.9403 47.2969C99.6278 47.5938 99.3856 47.9453 99.2138 48.3516C99.0419 48.7578 98.9559 49.1797 98.9559 49.6172C98.9559 50.0703 99.0419 50.5 99.2138 50.9062C99.3856 51.2969 99.6278 51.6484 99.9403 51.9609C100.237 52.2578 100.589 52.5 100.995 52.6875C101.417 52.8594 101.847 52.9453 102.284 52.9453C102.737 52.9453 103.167 52.8594 103.573 52.6875C103.979 52.5 104.339 52.2578 104.651 51.9609C104.948 51.6484 105.183 51.2969 105.354 50.9062C105.542 50.5 105.636 50.0703 105.636 49.6172ZM113.487 43.4297V58.7578H110.909V43.4297H113.487ZM114.12 64.3828H100.503V57.5859H103.128V62.0625H114.12V64.3828ZM133.656 44.5312V46.8281H131.007V53.4609H133.984V55.7578H117.999V53.4609H120.999V46.8281H118.351V44.5312H133.656ZM128.523 46.8281H123.507V53.4609H128.523V46.8281ZM135.343 59.4375V61.7812H116.663V59.4375H135.343ZM138.121 59.4375V50.5781H144.894V46.5234H138.121V44.2266H147.449V52.8281H140.699V57.1641H144.238C146.488 57.1641 148.605 56.9688 150.59 56.5781V43.4297H153.168V50.7188H156.332V53.1797H153.168V64.3828H150.59V58.875C148.637 59.25 146.488 59.4375 144.144 59.4375H138.121ZM174.039 51.9844H159.86V46.9688H171.344V45.7031H159.86V43.7812H173.922V48.7734H162.461V50.0625H174.039V51.9844ZM157.563 53.1562H176.242V55.125H157.563V53.1562ZM174.18 64.3828H159.86V59.4375H171.344V58.2656H159.86V56.3438H173.922V61.2656H162.461V62.4609H174.18V64.3828ZM201.931 43.4297V54.1641H199.353V49.3359H195.204V47.1094H199.353V43.4297H201.931ZM202.212 64.3828H188.712V58.7578H199.353V57.3047H188.712V55.2188H201.931V60.7969H191.314V62.2969H202.212V64.3828ZM192.158 45.6328C192.158 47.2109 192.603 48.5234 193.493 49.5703C194.322 50.5547 195.533 51.3984 197.126 52.1016L195.673 53.9297C193.986 53.1953 192.564 52.1641 191.408 50.8359C191.22 50.6172 191.04 50.3984 190.868 50.1797C190.681 50.4766 190.47 50.7656 190.236 51.0469C189.111 52.3594 187.681 53.3828 185.947 54.1172L184.329 52.3828C185.939 51.6797 187.212 50.8047 188.15 49.7578C189.056 48.7422 189.509 47.3672 189.509 45.6328V43.8516H192.158V45.6328ZM220.529 43.4297H223.013V64.3828H220.529V43.4297ZM214.084 44.3672C214.084 45.3672 214.029 46.3281 213.92 47.25H216.31V43.4297H218.748V64.3828H216.31V55.4297H213.31V53.0625H216.31V49.6172H213.521C213.146 51.1797 212.599 52.5781 211.881 53.8125C210.365 56.4219 208.599 58.5156 206.584 60.0938L204.662 58.4297C206.599 56.9766 208.263 55.0625 209.654 52.6875C210.67 50.9531 211.217 48.9609 211.295 46.7109H205.81V44.3672H214.084ZM229.354 45.6562V43.4297H232.096V45.6562H236.221V47.8125H234.276C234.354 47.8906 234.432 47.9688 234.51 48.0469C235.01 48.5312 235.401 49.1016 235.682 49.7578C235.979 50.4141 236.127 51.1094 236.127 51.8438C236.127 52.5938 235.979 53.2969 235.682 53.9531C235.401 54.6094 235.01 55.1797 234.51 55.6641C234.026 56.1484 233.447 56.5391 232.776 56.8359C232.119 57.1172 231.424 57.2578 230.69 57.2578C229.955 57.2578 229.252 57.1172 228.58 56.8359C227.924 56.5391 227.354 56.1484 226.869 55.6641C226.385 55.1797 225.994 54.6094 225.697 53.9531C225.416 53.2969 225.276 52.5938 225.276 51.8438C225.276 51.1094 225.416 50.4141 225.697 49.7578C225.994 49.1016 226.385 48.5312 226.869 48.0469C226.963 47.9688 227.049 47.8906 227.127 47.8125H225.112V45.6562H229.354ZM233.737 51.7734C233.737 50.9141 233.44 50.1797 232.846 49.5703C232.268 48.9453 231.557 48.6328 230.713 48.6328C229.885 48.6328 229.174 48.9453 228.58 49.5703C227.987 50.1797 227.69 50.9141 227.69 51.7734C227.69 52.6484 227.987 53.3984 228.58 54.0234C229.174 54.6328 229.885 54.9375 230.713 54.9375C231.557 54.9375 232.268 54.6328 232.846 54.0234C233.44 53.3984 233.737 52.6484 233.737 51.7734ZM241.588 43.4297H244.026V64.3828H241.588V52.0078H239.807V64.3828H237.416V43.4297H239.807V49.6406H241.588V43.4297ZM262.366 55.8516H256.647V59.8359H264.686V62.2031H246.007V59.8359H254.046V55.8516H248.303V44.1328H250.905V47.5312H259.788V44.1328H262.366V55.8516ZM259.788 53.5312V49.875H250.905V53.5312H259.788ZM283.73 43.4297V54.75H281.152V43.4297H283.73ZM283.73 64.3828H270.511V55.6406H273.089V57.4688H281.175V55.6406H283.73V64.3828ZM281.175 62.1797V59.625H273.089V62.1797H281.175ZM273.956 45.9375C273.956 47.6094 274.402 49 275.292 50.1094C276.167 51.1875 277.394 52.125 278.972 52.9219L277.448 54.6797C275.792 53.8984 274.378 52.8047 273.206 51.3984C273.019 51.1641 272.839 50.9219 272.667 50.6719C272.48 51 272.269 51.3047 272.034 51.5859C270.894 53.0078 269.464 54.125 267.745 54.9375L266.128 53.2031C267.722 52.4375 268.995 51.4766 269.948 50.3203C270.855 49.2109 271.308 47.75 271.308 45.9375V43.9922H273.956V45.9375ZM301.601 43.4297H304.179V64.3828H301.601V43.4297ZM294.265 47.2969C294.265 49.7812 294.734 51.8047 295.672 53.3672C296.547 54.8359 297.89 56.3047 299.703 57.7734L297.992 59.4844C296.133 58 294.57 56.2422 293.304 54.2109C293.179 54.0391 293.07 53.8594 292.976 53.6719C292.867 53.9062 292.75 54.125 292.625 54.3281C291.265 56.5 289.664 58.2578 287.82 59.6016L286.086 57.9375C287.82 56.7031 289.289 55.0938 290.492 53.1094C291.258 51.8438 291.64 49.9062 291.64 47.2969V44.0625H294.265V47.2969ZM323.199 50.1797C323.199 51.0078 323.027 51.7969 322.684 52.5469C322.34 53.2812 321.871 53.9297 321.277 54.4922C320.699 55.0391 320.02 55.4688 319.238 55.7812C318.832 55.9688 318.418 56.1016 317.996 56.1797V59.8359H326.035V62.2031H307.356V59.8359H315.395V56.1797C314.973 56.1016 314.567 55.9688 314.176 55.7812C313.379 55.4688 312.692 55.0391 312.113 54.4922C311.52 53.9297 311.051 53.2812 310.707 52.5469C310.363 51.7969 310.192 51.0078 310.192 50.1797C310.192 49.3516 310.363 48.5625 310.707 47.8125C311.051 47.0625 311.52 46.4062 312.113 45.8438C312.692 45.3125 313.371 44.8828 314.152 44.5547C314.949 44.2266 315.793 44.0625 316.684 44.0625C317.59 44.0625 318.434 44.2266 319.215 44.5547C320.012 44.8828 320.699 45.3125 321.277 45.8438C321.871 46.4062 322.34 47.0625 322.684 47.8125C323.027 48.5625 323.199 49.3516 323.199 50.1797ZM320.574 50.1797C320.574 49.6641 320.473 49.1797 320.27 48.7266C320.067 48.2734 319.785 47.8672 319.426 47.5078C319.082 47.1797 318.668 46.9141 318.184 46.7109C317.715 46.5078 317.215 46.4062 316.684 46.4062C316.168 46.4062 315.668 46.5078 315.184 46.7109C314.715 46.9141 314.309 47.1797 313.965 47.5078C313.606 47.8672 313.324 48.2734 313.121 48.7266C312.918 49.1797 312.817 49.6641 312.817 50.1797C312.817 50.6953 312.918 51.1797 313.121 51.6328C313.324 52.0859 313.606 52.4844 313.965 52.8281C314.309 53.1719 314.715 53.4453 315.184 53.6484C315.668 53.8516 316.168 53.9531 316.684 53.9531C317.215 53.9531 317.715 53.8516 318.184 53.6484C318.668 53.4453 319.082 53.1719 319.426 52.8281C319.785 52.4844 320.067 52.0859 320.27 51.6328C320.473 51.1797 320.574 50.6953 320.574 50.1797ZM328.86 62.4141V59.0156H332.282V62.4141H328.86Z" fill="white"/>
<path d="M12.1816 143.102C12.1816 143.652 12.0645 144.174 11.8301 144.666C11.6074 145.146 11.3027 145.568 10.916 145.932C10.5176 146.295 10.0547 146.582 9.52734 146.793C9.29297 146.887 9.05859 146.957 8.82422 147.004V148.059H14.8535V149.799H0.84375V148.059H6.87305V147.004C6.63867 146.957 6.4043 146.887 6.16992 146.793C5.64258 146.582 5.17969 146.295 4.78125 145.932C4.39453 145.568 4.08398 145.146 3.84961 144.666C3.62695 144.174 3.51562 143.652 3.51562 143.102C3.51562 142.551 3.62695 142.035 3.84961 141.555C4.08398 141.062 4.39453 140.635 4.78125 140.271C5.17969 139.92 5.64258 139.639 6.16992 139.428C6.69727 139.205 7.25391 139.094 7.83984 139.094C8.4375 139.094 9 139.205 9.52734 139.428C10.0547 139.639 10.5176 139.92 10.916 140.271C11.3027 140.635 11.6074 141.062 11.8301 141.555C12.0645 142.035 12.1816 142.551 12.1816 143.102ZM10.248 143.102C10.248 142.48 10.0078 141.947 9.52734 141.502C9.05859 141.057 8.49609 140.834 7.83984 140.834C7.19531 140.834 6.63281 141.057 6.15234 141.502C5.68359 141.947 5.44922 142.48 5.44922 143.102C5.44922 143.723 5.68359 144.256 6.15234 144.701C6.63281 145.146 7.19531 145.369 7.83984 145.369C8.49609 145.369 9.05859 145.146 9.52734 144.701C10.0078 144.256 10.248 143.723 10.248 143.102ZM13.3945 155.037H2.67188V150.854H4.6582V153.297H13.3945V155.037ZM16.7569 151.328V144.684H21.837V141.643H16.7569V139.92H23.753V146.371H18.6905V149.623H21.3448C23.0323 149.623 24.6202 149.477 26.1084 149.184V139.322H28.042V144.789H30.4151V146.635H28.042V155.037H26.1084V150.906C24.6436 151.188 23.0323 151.328 21.2745 151.328H16.7569ZM40.1583 143.963C40.1583 144.537 40.0411 145.082 39.8067 145.598C39.5723 146.113 39.2501 146.564 38.8399 146.951C38.4415 147.338 37.9727 147.643 37.4337 147.865C36.8946 148.088 36.3204 148.199 35.711 148.199C35.1016 148.199 34.5274 148.088 33.9884 147.865C33.461 147.643 32.9923 147.338 32.5821 146.951C32.172 146.564 31.8497 146.113 31.6153 145.598C31.3809 145.082 31.2638 144.537 31.2638 143.963C31.2638 143.389 31.3809 142.844 31.6153 142.328C31.8497 141.812 32.172 141.361 32.5821 140.975C32.9923 140.588 33.461 140.289 33.9884 140.078C34.5274 139.855 35.1016 139.744 35.711 139.744C36.3204 139.744 36.8946 139.855 37.4337 140.078C37.9727 140.289 38.4415 140.588 38.8399 140.975C39.2501 141.361 39.5723 141.812 39.8067 142.328C40.0411 142.844 40.1583 143.389 40.1583 143.963ZM38.2247 143.963C38.2247 143.635 38.1544 143.318 38.0138 143.014C37.8848 142.709 37.7091 142.445 37.4864 142.223C37.252 141.988 36.9825 141.807 36.6778 141.678C36.3731 141.549 36.0509 141.484 35.711 141.484C35.3829 141.484 35.0606 141.549 34.7442 141.678C34.4395 141.807 34.1759 141.988 33.9532 142.223C33.7188 142.445 33.5372 142.709 33.4083 143.014C33.2794 143.318 33.2149 143.635 33.2149 143.963C33.2149 144.303 33.2794 144.625 33.4083 144.93C33.5372 145.223 33.7188 145.486 33.9532 145.721C34.1759 145.943 34.4395 146.125 34.7442 146.266C35.0606 146.395 35.3829 146.459 35.711 146.459C36.0509 146.459 36.3731 146.395 36.6778 146.266C36.9825 146.125 37.252 145.943 37.4864 145.721C37.7091 145.486 37.8848 145.223 38.0138 144.93C38.1544 144.625 38.2247 144.303 38.2247 143.963ZM44.1134 139.322V150.818H42.1798V139.322H44.1134ZM44.588 155.037H34.3751V149.939H36.3438V153.297H44.588V155.037ZM61.4552 141.467H54.7931V144.139H61.4552V141.467ZM52.842 139.744H63.3888V145.879H52.842V139.744ZM65.1291 147.355V149.113H59.2931V151.539H57.3068V149.113H51.1193V147.355H65.1291ZM63.6173 155.037H52.842V150.66H54.8283V153.297H63.6173V155.037ZM75.9445 143.98C75.9445 144.543 75.8273 145.076 75.593 145.58C75.3703 146.084 75.0598 146.523 74.6613 146.898C74.2746 147.273 73.8176 147.572 73.2902 147.795C72.7629 148.018 72.2063 148.129 71.6203 148.129C71.0344 148.129 70.4777 148.018 69.9504 147.795C69.4348 147.572 68.9777 147.273 68.5793 146.898C68.1809 146.523 67.8645 146.084 67.6301 145.58C67.4074 145.076 67.2961 144.543 67.2961 143.98C67.2961 143.418 67.4074 142.885 67.6301 142.381C67.8645 141.877 68.1809 141.438 68.5793 141.062C68.9777 140.699 69.4348 140.406 69.9504 140.184C70.4777 139.961 71.0344 139.85 71.6203 139.85C72.2063 139.85 72.7629 139.961 73.2902 140.184C73.8176 140.406 74.2746 140.699 74.6613 141.062C75.0598 141.438 75.3703 141.877 75.593 142.381C75.8273 142.885 75.9445 143.418 75.9445 143.98ZM74.0109 143.98C74.0109 143.652 73.9465 143.342 73.8176 143.049C73.6887 142.744 73.5129 142.486 73.2902 142.275C73.0793 142.064 72.8273 141.895 72.5344 141.766C72.2531 141.625 71.9484 141.555 71.6203 141.555C71.3039 141.555 70.9992 141.625 70.7063 141.766C70.4133 141.895 70.1613 142.064 69.9504 142.275C69.7395 142.486 69.5637 142.744 69.423 143.049C69.2941 143.342 69.2297 143.652 69.2297 143.98C69.2297 144.32 69.2941 144.637 69.423 144.93C69.5637 145.223 69.7395 145.48 69.9504 145.703C70.1613 145.914 70.4133 146.084 70.7063 146.213C70.9992 146.342 71.3039 146.406 71.6203 146.406C71.9484 146.406 72.2531 146.342 72.5344 146.213C72.8273 146.084 73.0793 145.914 73.2902 145.703C73.5129 145.48 73.6887 145.223 73.8176 144.93C73.9465 144.637 74.0109 144.32 74.0109 143.98ZM79.4602 139.322V155.037H77.5266V151.609C76.0852 151.797 74.4094 151.891 72.4992 151.891H66.3293V150.115H72.4641C74.3156 150.115 76.0031 150.039 77.5266 149.887V139.322H79.4602Z" fill="white"/>
<path d="M95.6394 153L94.431 151.76L97.6845 148.422H90V146.61H97.6845L94.431 143.24L95.6394 142L101 147.5L95.6394 153Z" fill="white"/>
</svg>
