<svg width="91" height="22" viewBox="0 0 91 22" fill="none" xmlns="http://www.w3.org/2000/svg">
<path d="M9.84375 13.6094V18.1719H8.10938V13.6094H2.75V12.0312H15.2031V13.6094H9.84375ZM9.85938 5.29688C9.85938 6.27604 10.2812 7.11458 11.125 7.8125C12.0312 8.55208 13.1719 9.15625 14.5469 9.625L13.6094 10.8594C12.151 10.4115 10.9219 9.75 9.92188 8.875C9.54688 8.5625 9.22917 8.22917 8.96875 7.875C8.71875 8.22917 8.40625 8.5625 8.03125 8.875C7.03125 9.75 5.80208 10.4115 4.34375 10.8594L3.40625 9.625C4.78125 9.15625 5.92188 8.55208 6.82812 7.8125C7.67188 7.11458 8.09375 6.27604 8.09375 5.29688V4.01562H9.85938V5.29688ZM28.8363 14.8906V16.4688H16.3831V14.8906H21.7425V11.8594H23.4769V14.8906H28.8363ZM23.4925 5.8125C23.4925 7.04167 23.9456 8.06771 24.8519 8.89062C25.8415 9.79688 27.0081 10.4531 28.3519 10.8594L27.3988 12.125C25.7321 11.5729 24.3727 10.7396 23.3206 9.625C23.0498 9.34375 22.8102 9.04688 22.6019 8.73438C22.404 9.04688 22.1696 9.34375 21.8988 9.625C20.8467 10.7396 19.4873 11.5729 17.8206 12.125L16.8675 10.8594C18.2113 10.4531 19.3779 9.79688 20.3675 8.89062C21.2738 8.06771 21.7269 7.04167 21.7269 5.8125V4.39062H23.4925V5.8125ZM40.2119 10.8438H34.915V4.32812H36.54V6.14062H38.5869V4.32812H40.2119V10.8438ZM38.5869 9.4375V7.53125H36.54V9.4375H38.5869ZM44.6806 8.23438H43.1806V11.1406H41.5088V3.95312H43.1806V6.75H44.6806V3.95312H46.3838V11.1406H44.6806V8.23438ZM46.5556 17.9219H37.415V14.2188H44.6494V13.2656H37.415V11.8906H46.3838V15.5625H39.1338V16.5469H46.5556V17.9219ZM59.0794 11.4375H49.6106V7.10938H57.2669V5.79688H49.6106V4.29688H58.9856V8.59375H51.345V9.9375H59.0794V11.4375ZM60.5325 14.2969H57.6419V18.1719H55.9075V14.2969H52.7044V18.1719H50.9544V14.2969H48.0794V12.7812H60.5325V14.2969ZM65.8219 5.35938H68.0719V6.92188H65.8219V7.73438C65.8219 8.86979 66.0406 9.94792 66.4781 10.9688C66.9885 12.1354 67.6448 13.1562 68.4469 14.0312L67.2594 14.9531C66.2698 13.8073 65.5094 12.6302 64.9781 11.4219C64.426 12.651 63.5979 13.849 62.4938 15.0156L61.2594 14.0625C62.124 13.2292 62.8688 12.1823 63.4938 10.9219C63.9313 10.0469 64.15 8.95312 64.15 7.64062V6.92188H61.6813V5.35938H64.15V3.73438H65.8219V5.35938ZM72.025 3.95312H73.7125V17.9219H72.025V3.95312ZM70.7594 17.9219H69.1031V10.25H67.2125V8.59375H69.1031V3.95312H70.7594V17.9219ZM83.3456 8.07812C83.3456 8.58854 83.2415 9.07292 83.0331 9.53125C82.8248 9.98958 82.5383 10.3906 82.1738 10.7344C81.8196 11.0781 81.4029 11.349 80.9238 11.5469C80.4446 11.7448 79.9342 11.8438 79.3925 11.8438C78.8508 11.8438 78.3404 11.7448 77.8613 11.5469C77.3925 11.349 76.9758 11.0781 76.6113 10.7344C76.2467 10.3906 75.9602 9.98958 75.7519 9.53125C75.5435 9.07292 75.4394 8.58854 75.4394 8.07812C75.4394 7.56771 75.5435 7.08333 75.7519 6.625C75.9602 6.16667 76.2467 5.76562 76.6113 5.42188C76.9758 5.07812 77.3925 4.8125 77.8613 4.625C78.3404 4.42708 78.8508 4.32812 79.3925 4.32812C79.9342 4.32812 80.4446 4.42708 80.9238 4.625C81.4029 4.8125 81.8196 5.07812 82.1738 5.42188C82.5383 5.76562 82.8248 6.16667 83.0331 6.625C83.2415 7.08333 83.3456 7.56771 83.3456 8.07812ZM81.6269 8.07812C81.6269 7.78646 81.5644 7.50521 81.4394 7.23438C81.3248 6.96354 81.1685 6.72917 80.9706 6.53125C80.7623 6.32292 80.5227 6.16146 80.2519 6.04688C79.981 5.93229 79.6946 5.875 79.3925 5.875C79.1008 5.875 78.8144 5.93229 78.5331 6.04688C78.2623 6.16146 78.0279 6.32292 77.83 6.53125C77.6217 6.72917 77.4602 6.96354 77.3456 7.23438C77.231 7.50521 77.1738 7.78646 77.1738 8.07812C77.1738 8.38021 77.231 8.66667 77.3456 8.9375C77.4602 9.19792 77.6217 9.43229 77.83 9.64062C78.0279 9.83854 78.2623 10 78.5331 10.125C78.8144 10.2396 79.1008 10.2969 79.3925 10.2969C79.6946 10.2969 79.981 10.2396 80.2519 10.125C80.5227 10 80.7623 9.83854 80.9706 9.64062C81.1685 9.43229 81.3248 9.19792 81.4394 8.9375C81.5644 8.66667 81.6269 8.38021 81.6269 8.07812ZM86.8613 3.95312V14.1719H85.1425V3.95312H86.8613ZM87.2831 17.9219H78.205V13.3906H79.955V16.375H87.2831V17.9219Z" fill="black"/>
</svg>
