<svg width="378" height="174" viewBox="0 0 378 174" fill="none" xmlns="http://www.w3.org/2000/svg">
<path d="M0 12.5508C0 8.87109 1.10156 5.92969 3.30469 3.72656C5.50781 1.52344 8.54297 0.328125 12.4102 0.140625C14.4258 0.046875 16.4648 0.199219 18.5273 0.597656V4.07812C16.4414 3.72656 14.5664 3.58594 12.9023 3.65625C9.99609 3.77344 7.82812 4.58203 6.39844 6.08203C4.75781 7.76953 3.9375 9.97266 3.9375 12.6914V13.0781C3.9375 15.9609 4.74609 18.1523 6.36328 19.6523C8.00391 21.1523 10.207 21.9492 12.9727 22.043C14.8945 22.1133 16.7812 22.0078 18.6328 21.7266V25.207C16.7578 25.5117 14.7188 25.6172 12.5156 25.5234C8.53125 25.3594 5.44922 24.2227 3.26953 22.1133C1.08984 19.9805 0 16.9922 0 13.1484V12.5508ZM23.2031 25.0664V0.140625H27.0703V25.0664H23.2031ZM35.4727 14.8359H43.5586C43.4883 13.4766 43.125 12.3984 42.4688 11.6016C41.8125 10.7812 40.8164 10.3711 39.4805 10.3711C38.2383 10.3711 37.2773 10.7812 36.5977 11.6016C35.918 12.3984 35.543 13.4766 35.4727 14.8359ZM35.4375 18.0703C35.6016 19.3125 36.1055 20.2852 36.9492 20.9883C37.8164 21.6914 38.9766 22.0664 40.4297 22.1133C42.2344 22.207 44.2734 21.9961 46.5469 21.4805V24.8203C44.5078 25.3828 42.4688 25.6289 40.4297 25.5586C37.6875 25.5352 35.5195 24.7383 33.9258 23.168C32.332 21.5742 31.5352 19.2656 31.5352 16.2422C31.5352 13.3828 32.2969 11.1211 33.8203 9.45703C35.3438 7.79297 37.2305 6.96094 39.4805 6.96094C41.8242 6.96094 43.7344 7.80469 45.2109 9.49219C46.7109 11.1797 47.4609 13.4297 47.4609 16.2422V18.0703H35.4375ZM62.1562 17.4727C61.3359 17.2617 60.5859 17.1211 59.9062 17.0508C59.2266 16.9805 58.5352 16.957 57.832 16.9805C56.8945 17.0273 56.168 17.2266 55.6523 17.5781C55.0195 18.0703 54.6914 18.7383 54.668 19.582C54.668 20.4492 54.9023 21.0938 55.3711 21.5156C55.8633 21.9141 56.4961 22.1133 57.2695 22.1133C59.168 22.1133 60.7969 21.4219 62.1562 20.0391V17.4727ZM62.4375 23.4492C60.75 24.832 58.8633 25.5234 56.7773 25.5234C54.9023 25.5234 53.4258 24.9609 52.3477 23.8359C51.293 22.6875 50.7656 21.2695 50.7656 19.582C50.7656 17.8477 51.4219 16.4062 52.7344 15.2578C53.9766 14.1797 55.5586 13.6406 57.4805 13.6406C59.2383 13.6406 60.7969 13.8633 62.1562 14.3086V13.5703C62.1562 11.5781 60.7617 10.5234 57.9727 10.4062C56.2617 10.3359 54.5508 10.5 52.8398 10.8984V7.48828C54.6211 7.08984 56.4375 6.91406 58.2891 6.96094C60.4922 7.00781 62.332 7.60547 63.8086 8.75391C65.2852 9.94922 66.0234 11.7539 66.0234 14.168V25.0664H62.4375V23.4492ZM71.4375 14.3438C71.4375 11.8828 72.1289 10.043 73.5117 8.82422C74.918 7.60547 76.8516 6.99609 79.3125 6.99609C81.7734 6.99609 83.6953 7.64062 85.0781 8.92969C86.4609 10.2188 87.1523 12.0117 87.1523 14.3086V25.0664H83.2852V14.4492C83.2852 11.8242 81.9609 10.5117 79.3125 10.5117C76.6406 10.5117 75.3047 11.8242 75.3047 14.4492V25.0664H71.4375V14.3438ZM103.43 0.140625H107.297V9.28125C108.703 7.73438 110.391 6.96094 112.359 6.96094C114.141 6.96094 115.699 7.53516 117.035 8.68359C118.395 9.80859 119.074 11.6719 119.074 14.2734V25.0664H115.207V14.3086C115.207 11.7539 113.977 10.4766 111.516 10.4766C109.898 10.4766 108.492 11.5312 107.297 13.6406V25.0664H103.43V0.140625ZM122.414 7.41797H126.387L130.992 19.6875L136.09 7.41797H140.027L129.691 32.0625H125.824L129.059 24.3281L122.414 7.41797ZM150.715 10.4766C149.215 10.4766 148.078 11.0156 147.305 12.0938C146.531 13.1484 146.145 14.5312 146.145 16.2422C146.145 17.9531 146.52 19.3359 147.27 20.3906C148.043 21.4453 149.168 21.9844 150.645 22.0078H150.715H150.645H150.609H150.645C152.215 21.9844 153.598 21.2109 154.793 19.6875V12.5156C153.457 11.1562 152.109 10.4766 150.75 10.4766H150.715ZM150.012 25.5234C147.762 25.5234 145.898 24.7266 144.422 23.1328C142.969 21.5156 142.242 19.2188 142.242 16.2422C142.242 13.2656 142.969 10.9805 144.422 9.38672C145.898 7.76953 147.762 6.96094 150.012 6.96094C151.91 6.96094 153.504 7.53516 154.793 8.68359V0.140625H158.695V25.0664H155.109V23.4492C153.516 24.832 151.816 25.5234 150.012 25.5234ZM164.32 7.41797H167.906V9.66797C169.242 7.86328 170.977 6.96094 173.109 6.96094C173.578 6.96094 174.059 7.00781 174.551 7.10156V10.582L173.109 10.4766C171.117 10.4766 169.477 11.4727 168.188 13.4648V25.0664H164.32V7.41797ZM195.469 16.2422C195.469 18.9609 194.566 21.1875 192.762 22.9219C190.957 24.6562 188.766 25.5234 186.188 25.5234C183.703 25.5234 181.535 24.668 179.684 22.957C177.832 21.2227 176.906 18.9844 176.906 16.2422C176.906 13.4766 177.809 11.2383 179.613 9.52734C181.441 7.81641 183.633 6.96094 186.188 6.96094C188.766 6.96094 190.957 7.82812 192.762 9.5625C194.566 11.2969 195.469 13.5234 195.469 16.2422ZM180.773 16.2422C180.773 17.9766 181.277 19.3828 182.285 20.4609C183.293 21.5156 184.594 22.043 186.188 22.043C187.805 22.043 189.117 21.5156 190.125 20.4609C191.133 19.3828 191.637 17.9766 191.637 16.2422C191.637 14.5078 191.133 13.1133 190.125 12.0586C189.117 10.9805 187.805 10.4414 186.188 10.4414C184.594 10.4414 183.293 10.9805 182.285 12.0586C181.277 13.1133 180.773 14.5078 180.773 16.2422ZM207.316 21.6211C208.887 21.6211 210.223 20.7773 211.324 19.0898V12.5156C210.012 11.1328 208.676 10.4414 207.316 10.4414C205.91 10.4414 204.797 11.0039 203.977 12.1289C203.156 13.2539 202.746 14.5781 202.746 16.1016C202.746 17.6484 203.168 18.9609 204.012 20.0391C204.855 21.0938 205.957 21.6211 207.316 21.6211ZM211.324 24.1523V23.2031C209.988 24.4688 208.406 25.1016 206.578 25.1016C204.328 25.1016 202.523 24.3281 201.164 22.7812C199.594 21.0703 198.809 18.832 198.809 16.0664C198.809 13.4414 199.594 11.2031 201.164 9.35156C202.523 7.75781 204.328 6.96094 206.578 6.96094C208.664 6.96094 210.363 7.60547 211.676 8.89453V7.41797H215.227V22.5703C215.227 25.9922 214.465 28.3945 212.941 29.7773C211.348 31.2305 209.133 31.9922 206.297 32.0625C204.422 32.1328 202.594 31.9922 200.812 31.6406V28.3008C202.523 28.6992 204.281 28.8281 206.086 28.6875C207.961 28.5703 209.297 28.1367 210.094 27.3867C210.914 26.6367 211.324 25.5586 211.324 24.1523ZM223.629 14.8359H231.715C231.645 13.4766 231.281 12.3984 230.625 11.6016C229.969 10.7812 228.973 10.3711 227.637 10.3711C226.395 10.3711 225.434 10.7812 224.754 11.6016C224.074 12.3984 223.699 13.4766 223.629 14.8359ZM223.594 18.0703C223.758 19.3125 224.262 20.2852 225.105 20.9883C225.973 21.6914 227.133 22.0664 228.586 22.1133C230.391 22.207 232.43 21.9961 234.703 21.4805V24.8203C232.664 25.3828 230.625 25.6289 228.586 25.5586C225.844 25.5352 223.676 24.7383 222.082 23.168C220.488 21.5742 219.691 19.2656 219.691 16.2422C219.691 13.3828 220.453 11.1211 221.977 9.45703C223.5 7.79297 225.387 6.96094 227.637 6.96094C229.98 6.96094 231.891 7.80469 233.367 9.49219C234.867 11.1797 235.617 13.4297 235.617 16.2422V18.0703H223.594ZM240.047 14.3438C240.047 11.8828 240.738 10.043 242.121 8.82422C243.527 7.60547 245.461 6.99609 247.922 6.99609C250.383 6.99609 252.305 7.64062 253.688 8.92969C255.07 10.2188 255.762 12.0117 255.762 14.3086V25.0664H251.895V14.4492C251.895 11.8242 250.57 10.5117 247.922 10.5117C245.25 10.5117 243.914 11.8242 243.914 14.4492V25.0664H240.047V14.3438ZM9.03516 69.0078C10.5352 69.0078 11.6719 68.4805 12.4453 67.4258C13.2188 66.3477 13.6055 64.9531 13.6055 63.2422C13.6055 61.5312 13.2188 60.1484 12.4453 59.0938C11.6953 58.0156 10.582 57.4766 9.10547 57.4766H9.03516H9.10547H9.14062H9.10547C7.53516 57.4766 6.14062 58.25 4.92188 59.7969V67.0039C6.28125 68.3398 7.64062 69.0078 9 69.0078H9.03516ZM9.73828 53.9609C11.9883 53.9609 13.8398 54.7695 15.293 56.3867C16.7695 57.9805 17.5078 60.2656 17.5078 63.2422C17.5078 66.2188 16.7695 68.5156 15.293 70.1328C13.8398 71.7266 11.9883 72.5234 9.73828 72.5234C7.83984 72.5234 6.23438 71.9492 4.92188 70.8008V79.0625H1.05469V54.418H4.64062V56.0352C6.23438 54.6523 7.93359 53.9609 9.73828 53.9609ZM21.9727 54.418H25.5586V56.668C26.8945 54.8633 28.6289 53.9609 30.7617 53.9609C31.2305 53.9609 31.7109 54.0078 32.2031 54.1016V57.582L30.7617 57.4766C28.7695 57.4766 27.1289 58.4727 25.8398 60.4648V72.0664H21.9727V54.418ZM53.1211 63.2422C53.1211 65.9609 52.2188 68.1875 50.4141 69.9219C48.6094 71.6562 46.418 72.5234 43.8398 72.5234C41.3555 72.5234 39.1875 71.668 37.3359 69.957C35.4844 68.2227 34.5586 65.9844 34.5586 63.2422C34.5586 60.4766 35.4609 58.2383 37.2656 56.5273C39.0938 54.8164 41.2852 53.9609 43.8398 53.9609C46.418 53.9609 48.6094 54.8281 50.4141 56.5625C52.2188 58.2969 53.1211 60.5234 53.1211 63.2422ZM38.4258 63.2422C38.4258 64.9766 38.9297 66.3828 39.9375 67.4609C40.9453 68.5156 42.2461 69.043 43.8398 69.043C45.457 69.043 46.7695 68.5156 47.7773 67.4609C48.7852 66.3828 49.2891 64.9766 49.2891 63.2422C49.2891 61.5078 48.7852 60.1133 47.7773 59.0586C46.7695 57.9805 45.457 57.4414 43.8398 57.4414C42.2461 57.4414 40.9453 57.9805 39.9375 59.0586C38.9297 60.1133 38.4258 61.5078 38.4258 63.2422ZM64.9336 57.4766C63.4336 57.4766 62.2969 58.0156 61.5234 59.0938C60.75 60.1484 60.3633 61.5312 60.3633 63.2422C60.3633 64.9531 60.7383 66.3359 61.4883 67.3906C62.2617 68.4453 63.3867 68.9844 64.8633 69.0078H64.9336H64.8633H64.8281H64.8633C66.4336 68.9844 67.8164 68.2109 69.0117 66.6875V59.5156C67.6758 58.1562 66.3281 57.4766 64.9688 57.4766H64.9336ZM64.2305 72.5234C61.9805 72.5234 60.1172 71.7266 58.6406 70.1328C57.1875 68.5156 56.4609 66.2188 56.4609 63.2422C56.4609 60.2656 57.1875 57.9805 58.6406 56.3867C60.1172 54.7695 61.9805 53.9609 64.2305 53.9609C66.1289 53.9609 67.7227 54.5352 69.0117 55.6836V47.1406H72.9141V72.0664H69.3281V70.4492C67.7344 71.832 66.0352 72.5234 64.2305 72.5234ZM78.5039 65.3867V54.418H82.3711V65.2812C82.3711 67.8828 83.707 69.1836 86.3789 69.1836C89.0273 69.1836 90.3516 67.8828 90.3516 65.2812V54.418H94.2188V65.4219C94.2188 67.7188 93.5156 69.5117 92.1094 70.8008C90.7031 72.0664 88.7695 72.6992 86.3086 72.6992C83.8477 72.6992 81.9258 72.0898 80.543 70.8711C79.1836 69.6523 78.5039 67.8242 78.5039 65.3867ZM102.586 63.207C102.586 64.8711 103.02 66.1953 103.887 67.1797C104.965 68.375 106.547 68.9727 108.633 68.9727C110.297 68.9727 111.82 68.8086 113.203 68.4805V71.8906C111.492 72.3828 109.805 72.582 108.141 72.4883C105.117 72.3242 102.773 71.4219 101.109 69.7812C99.4688 68.1172 98.6484 65.9258 98.6484 63.207C98.6484 60.4883 99.4688 58.3086 101.109 56.668C102.773 55.0273 105.117 54.125 108.141 53.9609C109.734 53.8672 111.387 54.0664 113.098 54.5586V58.0039C111.715 57.6523 110.227 57.4766 108.633 57.4766C106.547 57.4766 104.965 58.0859 103.887 59.3047C103.02 60.2422 102.586 61.543 102.586 63.207ZM122.625 66.582C122.625 67.5664 122.824 68.2227 123.223 68.5508C123.668 68.9258 124.289 69.1133 125.086 69.1133H127.793V72.5234H124.453C122.625 72.5469 121.219 72.0781 120.234 71.1172C119.297 70.2266 118.828 68.8789 118.828 67.0742V57.8281H115.488V54.418H118.828V49.9883L122.625 48.7578V54.418H126.949V57.8281H122.625V66.582ZM131.273 72.0664V54.418H135.141V72.0664H131.273ZM131.168 51.2539V47.1406H135.281V51.2539H131.168ZM158.168 63.2422C158.168 65.9609 157.266 68.1875 155.461 69.9219C153.656 71.6562 151.465 72.5234 148.887 72.5234C146.402 72.5234 144.234 71.668 142.383 69.957C140.531 68.2227 139.605 65.9844 139.605 63.2422C139.605 60.4766 140.508 58.2383 142.312 56.5273C144.141 54.8164 146.332 53.9609 148.887 53.9609C151.465 53.9609 153.656 54.8281 155.461 56.5625C157.266 58.2969 158.168 60.5234 158.168 63.2422ZM143.473 63.2422C143.473 64.9766 143.977 66.3828 144.984 67.4609C145.992 68.5156 147.293 69.043 148.887 69.043C150.504 69.043 151.816 68.5156 152.824 67.4609C153.832 66.3828 154.336 64.9766 154.336 63.2422C154.336 61.5078 153.832 60.1133 152.824 59.0586C151.816 57.9805 150.504 57.4414 148.887 57.4414C147.293 57.4414 145.992 57.9805 144.984 59.0586C143.977 60.1133 143.473 61.5078 143.473 63.2422ZM162.633 61.3438C162.633 58.8828 163.324 57.043 164.707 55.8242C166.113 54.6055 168.047 53.9961 170.508 53.9961C172.969 53.9961 174.891 54.6406 176.273 55.9297C177.656 57.2188 178.348 59.0117 178.348 61.3086V72.0664H174.48V61.4492C174.48 58.8242 173.156 57.5117 170.508 57.5117C167.836 57.5117 166.5 58.8242 166.5 61.4492V72.0664H162.633V61.3438ZM199.582 66.582C199.582 67.5664 199.781 68.2227 200.18 68.5508C200.625 68.9258 201.246 69.1133 202.043 69.1133H204.75V72.5234H201.41C199.582 72.5469 198.176 72.0781 197.191 71.1172C196.254 70.2266 195.785 68.8789 195.785 67.0742V57.8281H192.445V54.418H195.785V49.9883L199.582 48.7578V54.418H203.906V57.8281H199.582V66.582ZM211.008 61.8359H219.094C219.023 60.4766 218.66 59.3984 218.004 58.6016C217.348 57.7812 216.352 57.3711 215.016 57.3711C213.773 57.3711 212.812 57.7812 212.133 58.6016C211.453 59.3984 211.078 60.4766 211.008 61.8359ZM210.973 65.0703C211.137 66.3125 211.641 67.2852 212.484 67.9883C213.352 68.6914 214.512 69.0664 215.965 69.1133C217.77 69.207 219.809 68.9961 222.082 68.4805V71.8203C220.043 72.3828 218.004 72.6289 215.965 72.5586C213.223 72.5352 211.055 71.7383 209.461 70.168C207.867 68.5742 207.07 66.2656 207.07 63.2422C207.07 60.3828 207.832 58.1211 209.355 56.457C210.879 54.793 212.766 53.9609 215.016 53.9609C217.359 53.9609 219.27 54.8047 220.746 56.4922C222.246 58.1797 222.996 60.4297 222.996 63.2422V65.0703H210.973ZM230.238 63.207C230.238 64.8711 230.672 66.1953 231.539 67.1797C232.617 68.375 234.199 68.9727 236.285 68.9727C237.949 68.9727 239.473 68.8086 240.855 68.4805V71.8906C239.145 72.3828 237.457 72.582 235.793 72.4883C232.77 72.3242 230.426 71.4219 228.762 69.7812C227.121 68.1172 226.301 65.9258 226.301 63.207C226.301 60.4883 227.121 58.3086 228.762 56.668C230.426 55.0273 232.77 54.125 235.793 53.9609C237.387 53.8672 239.039 54.0664 240.75 54.5586V58.0039C239.367 57.6523 237.879 57.4766 236.285 57.4766C234.199 57.4766 232.617 58.0859 231.539 59.3047C230.672 60.2422 230.238 61.543 230.238 63.207ZM245.32 47.1406H249.188V56.2812C250.594 54.7344 252.281 53.9609 254.25 53.9609C256.031 53.9609 257.59 54.5352 258.926 55.6836C260.285 56.8086 260.965 58.6719 260.965 61.2734V72.0664H257.098V61.3086C257.098 58.7539 255.867 57.4766 253.406 57.4766C251.789 57.4766 250.383 58.5312 249.188 60.6406V72.0664H245.32V47.1406ZM266.555 61.3438C266.555 58.8828 267.246 57.043 268.629 55.8242C270.035 54.6055 271.969 53.9961 274.43 53.9961C276.891 53.9961 278.812 54.6406 280.195 55.9297C281.578 57.2188 282.27 59.0117 282.27 61.3086V72.0664H278.402V61.4492C278.402 58.8242 277.078 57.5117 274.43 57.5117C271.758 57.5117 270.422 58.8242 270.422 61.4492V72.0664H266.555V61.3438ZM305.262 63.2422C305.262 65.9609 304.359 68.1875 302.555 69.9219C300.75 71.6562 298.559 72.5234 295.98 72.5234C293.496 72.5234 291.328 71.668 289.477 69.957C287.625 68.2227 286.699 65.9844 286.699 63.2422C286.699 60.4766 287.602 58.2383 289.406 56.5273C291.234 54.8164 293.426 53.9609 295.98 53.9609C298.559 53.9609 300.75 54.8281 302.555 56.5625C304.359 58.2969 305.262 60.5234 305.262 63.2422ZM290.566 63.2422C290.566 64.9766 291.07 66.3828 292.078 67.4609C293.086 68.5156 294.387 69.043 295.98 69.043C297.598 69.043 298.91 68.5156 299.918 67.4609C300.926 66.3828 301.43 64.9766 301.43 63.2422C301.43 61.5078 300.926 60.1133 299.918 59.0586C298.91 57.9805 297.598 57.4414 295.98 57.4414C294.387 57.4414 293.086 57.9805 292.078 59.0586C291.07 60.1133 290.566 61.5078 290.566 63.2422ZM309.762 72.0664V47.1406H313.629V72.0664H309.762ZM336.656 63.2422C336.656 65.9609 335.754 68.1875 333.949 69.9219C332.145 71.6562 329.953 72.5234 327.375 72.5234C324.891 72.5234 322.723 71.668 320.871 69.957C319.02 68.2227 318.094 65.9844 318.094 63.2422C318.094 60.4766 318.996 58.2383 320.801 56.5273C322.629 54.8164 324.82 53.9609 327.375 53.9609C329.953 53.9609 332.145 54.8281 333.949 56.5625C335.754 58.2969 336.656 60.5234 336.656 63.2422ZM321.961 63.2422C321.961 64.9766 322.465 66.3828 323.473 67.4609C324.48 68.5156 325.781 69.043 327.375 69.043C328.992 69.043 330.305 68.5156 331.312 67.4609C332.32 66.3828 332.824 64.9766 332.824 63.2422C332.824 61.5078 332.32 60.1133 331.312 59.0586C330.305 57.9805 328.992 57.4414 327.375 57.4414C325.781 57.4414 324.48 57.9805 323.473 59.0586C322.465 60.1133 321.961 61.5078 321.961 63.2422ZM348.504 68.6211C350.074 68.6211 351.41 67.7773 352.512 66.0898V59.5156C351.199 58.1328 349.863 57.4414 348.504 57.4414C347.098 57.4414 345.984 58.0039 345.164 59.1289C344.344 60.2539 343.934 61.5781 343.934 63.1016C343.934 64.6484 344.355 65.9609 345.199 67.0391C346.043 68.0938 347.145 68.6211 348.504 68.6211ZM352.512 71.1523V70.2031C351.176 71.4688 349.594 72.1016 347.766 72.1016C345.516 72.1016 343.711 71.3281 342.352 69.7812C340.781 68.0703 339.996 65.832 339.996 63.0664C339.996 60.4414 340.781 58.2031 342.352 56.3516C343.711 54.7578 345.516 53.9609 347.766 53.9609C349.852 53.9609 351.551 54.6055 352.863 55.8945V54.418H356.414V69.5703C356.414 72.9922 355.652 75.3945 354.129 76.7773C352.535 78.2305 350.32 78.9922 347.484 79.0625C345.609 79.1328 343.781 78.9922 342 78.6406V75.3008C343.711 75.6992 345.469 75.8281 347.273 75.6875C349.148 75.5703 350.484 75.1367 351.281 74.3867C352.102 73.6367 352.512 72.5586 352.512 71.1523ZM359.754 54.418H363.727L368.332 66.6875L373.43 54.418H377.367L367.031 79.0625H363.164L366.398 71.3281L359.754 54.418ZM1.05469 119.066V94.1406H4.92188V119.066H1.05469ZM13.3242 108.836H21.4102C21.3398 107.477 20.9766 106.398 20.3203 105.602C19.6641 104.781 18.668 104.371 17.332 104.371C16.0898 104.371 15.1289 104.781 14.4492 105.602C13.7695 106.398 13.3945 107.477 13.3242 108.836ZM13.2891 112.07C13.4531 113.312 13.957 114.285 14.8008 114.988C15.668 115.691 16.8281 116.066 18.2812 116.113C20.0859 116.207 22.125 115.996 24.3984 115.48V118.82C22.3594 119.383 20.3203 119.629 18.2812 119.559C15.5391 119.535 13.3711 118.738 11.7773 117.168C10.1836 115.574 9.38672 113.266 9.38672 110.242C9.38672 107.383 10.1484 105.121 11.6719 103.457C13.1953 101.793 15.082 100.961 17.332 100.961C19.6758 100.961 21.5859 101.805 23.0625 103.492C24.5625 105.18 25.3125 107.43 25.3125 110.242V112.07H13.2891ZM40.0078 111.473C39.1875 111.262 38.4375 111.121 37.7578 111.051C37.0781 110.98 36.3867 110.957 35.6836 110.98C34.7461 111.027 34.0195 111.227 33.5039 111.578C32.8711 112.07 32.543 112.738 32.5195 113.582C32.5195 114.449 32.7539 115.094 33.2227 115.516C33.7148 115.914 34.3477 116.113 35.1211 116.113C37.0195 116.113 38.6484 115.422 40.0078 114.039V111.473ZM40.2891 117.449C38.6016 118.832 36.7148 119.523 34.6289 119.523C32.7539 119.523 31.2773 118.961 30.1992 117.836C29.1445 116.688 28.6172 115.27 28.6172 113.582C28.6172 111.848 29.2734 110.406 30.5859 109.258C31.8281 108.18 33.4102 107.641 35.332 107.641C37.0898 107.641 38.6484 107.863 40.0078 108.309V107.57C40.0078 105.578 38.6133 104.523 35.8242 104.406C34.1133 104.336 32.4023 104.5 30.6914 104.898V101.488C32.4727 101.09 34.2891 100.914 36.1406 100.961C38.3438 101.008 40.1836 101.605 41.6602 102.754C43.1367 103.949 43.875 105.754 43.875 108.168V119.066H40.2891V117.449ZM56.6367 104.477C55.1367 104.477 54 105.016 53.2266 106.094C52.4531 107.148 52.0664 108.531 52.0664 110.242C52.0664 111.953 52.4414 113.336 53.1914 114.391C53.9648 115.445 55.0898 115.984 56.5664 116.008H56.6367H56.5664H56.5312H56.5664C58.1367 115.984 59.5195 115.211 60.7148 113.688V106.516C59.3789 105.156 58.0312 104.477 56.6719 104.477H56.6367ZM55.9336 119.523C53.6836 119.523 51.8203 118.727 50.3438 117.133C48.8906 115.516 48.1641 113.219 48.1641 110.242C48.1641 107.266 48.8906 104.98 50.3438 103.387C51.8203 101.77 53.6836 100.961 55.9336 100.961C57.832 100.961 59.4258 101.535 60.7148 102.684V94.1406H64.6172V119.066H61.0312V117.449C59.4375 118.832 57.7383 119.523 55.9336 119.523ZM70.2422 119.066V101.418H74.1094V119.066H70.2422ZM70.1367 98.2539V94.1406H74.25V98.2539H70.1367ZM79.6992 108.344C79.6992 105.883 80.3906 104.043 81.7734 102.824C83.1797 101.605 85.1133 100.996 87.5742 100.996C90.0352 100.996 91.957 101.641 93.3398 102.93C94.7227 104.219 95.4141 106.012 95.4141 108.309V119.066H91.5469V108.449C91.5469 105.824 90.2227 104.512 87.5742 104.512C84.9023 104.512 83.5664 105.824 83.5664 108.449V119.066H79.6992V108.344ZM108.352 115.621C109.922 115.621 111.258 114.777 112.359 113.09V106.516C111.047 105.133 109.711 104.441 108.352 104.441C106.945 104.441 105.832 105.004 105.012 106.129C104.191 107.254 103.781 108.578 103.781 110.102C103.781 111.648 104.203 112.961 105.047 114.039C105.891 115.094 106.992 115.621 108.352 115.621ZM112.359 118.152V117.203C111.023 118.469 109.441 119.102 107.613 119.102C105.363 119.102 103.559 118.328 102.199 116.781C100.629 115.07 99.8438 112.832 99.8438 110.066C99.8438 107.441 100.629 105.203 102.199 103.352C103.559 101.758 105.363 100.961 107.613 100.961C109.699 100.961 111.398 101.605 112.711 102.895V101.418H116.262V116.57C116.262 119.992 115.5 122.395 113.977 123.777C112.383 125.23 110.168 125.992 107.332 126.062C105.457 126.133 103.629 125.992 101.848 125.641V122.301C103.559 122.699 105.316 122.828 107.121 122.688C108.996 122.57 110.332 122.137 111.129 121.387C111.949 120.637 112.359 119.559 112.359 118.152ZM137.531 113.582C137.531 114.566 137.73 115.223 138.129 115.551C138.574 115.926 139.195 116.113 139.992 116.113H142.699V119.523H139.359C137.531 119.547 136.125 119.078 135.141 118.117C134.203 117.227 133.734 115.879 133.734 114.074V104.828H130.395V101.418H133.734V96.9883L137.531 95.7578V101.418H141.855V104.828H137.531V113.582ZM163.582 110.242C163.582 112.961 162.68 115.188 160.875 116.922C159.07 118.656 156.879 119.523 154.301 119.523C151.816 119.523 149.648 118.668 147.797 116.957C145.945 115.223 145.02 112.984 145.02 110.242C145.02 107.477 145.922 105.238 147.727 103.527C149.555 101.816 151.746 100.961 154.301 100.961C156.879 100.961 159.07 101.828 160.875 103.562C162.68 105.297 163.582 107.523 163.582 110.242ZM148.887 110.242C148.887 111.977 149.391 113.383 150.398 114.461C151.406 115.516 152.707 116.043 154.301 116.043C155.918 116.043 157.23 115.516 158.238 114.461C159.246 113.383 159.75 111.977 159.75 110.242C159.75 108.508 159.246 107.113 158.238 106.059C157.23 104.98 155.918 104.441 154.301 104.441C152.707 104.441 151.406 104.98 150.398 106.059C149.391 107.113 148.887 108.508 148.887 110.242ZM177.715 106.551C177.715 102.871 178.816 99.9297 181.02 97.7266C183.223 95.5234 186.258 94.3281 190.125 94.1406C192.141 94.0469 194.18 94.1992 196.242 94.5977V98.0781C194.156 97.7266 192.281 97.5859 190.617 97.6562C187.711 97.7734 185.543 98.582 184.113 100.082C182.473 101.77 181.652 103.973 181.652 106.691V107.078C181.652 109.961 182.461 112.152 184.078 113.652C185.719 115.152 187.922 115.949 190.688 116.043C192.609 116.113 194.496 116.008 196.348 115.727V119.207C194.473 119.512 192.434 119.617 190.23 119.523C186.246 119.359 183.164 118.223 180.984 116.113C178.805 113.98 177.715 110.992 177.715 107.148V106.551ZM211.148 111.473C210.328 111.262 209.578 111.121 208.898 111.051C208.219 110.98 207.527 110.957 206.824 110.98C205.887 111.027 205.16 111.227 204.645 111.578C204.012 112.07 203.684 112.738 203.66 113.582C203.66 114.449 203.895 115.094 204.363 115.516C204.855 115.914 205.488 116.113 206.262 116.113C208.16 116.113 209.789 115.422 211.148 114.039V111.473ZM211.43 117.449C209.742 118.832 207.855 119.523 205.77 119.523C203.895 119.523 202.418 118.961 201.34 117.836C200.285 116.688 199.758 115.27 199.758 113.582C199.758 111.848 200.414 110.406 201.727 109.258C202.969 108.18 204.551 107.641 206.473 107.641C208.23 107.641 209.789 107.863 211.148 108.309V107.57C211.148 105.578 209.754 104.523 206.965 104.406C205.254 104.336 203.543 104.5 201.832 104.898V101.488C203.613 101.09 205.43 100.914 207.281 100.961C209.484 101.008 211.324 101.605 212.801 102.754C214.277 103.949 215.016 105.754 215.016 108.168V119.066H211.43V117.449ZM220.465 101.418H224.051V103.668C225.387 101.863 227.121 100.961 229.254 100.961C229.723 100.961 230.203 101.008 230.695 101.102V104.582L229.254 104.477C227.262 104.477 225.621 105.473 224.332 107.465V119.066H220.465V101.418ZM242.191 104.477H242.156C240.797 104.477 239.438 105.156 238.078 106.516V113.688C239.297 115.211 240.691 115.984 242.262 116.008H242.297H242.191H242.262C243.738 115.984 244.852 115.445 245.602 114.391C246.375 113.336 246.762 111.953 246.762 110.242C246.762 108.531 246.375 107.148 245.602 106.094C244.828 105.016 243.691 104.477 242.191 104.477ZM242.895 119.523C241.09 119.523 239.391 118.832 237.797 117.449V119.066H234.211V94.1406H238.078V102.684C239.391 101.535 240.996 100.961 242.895 100.961C245.145 100.961 246.996 101.77 248.449 103.387C249.926 104.98 250.664 107.266 250.664 110.242C250.664 113.219 249.926 115.516 248.449 117.133C246.996 118.727 245.145 119.523 242.895 119.523ZM272.531 110.242C272.531 112.961 271.629 115.188 269.824 116.922C268.02 118.656 265.828 119.523 263.25 119.523C260.766 119.523 258.598 118.668 256.746 116.957C254.895 115.223 253.969 112.984 253.969 110.242C253.969 107.477 254.871 105.238 256.676 103.527C258.504 101.816 260.695 100.961 263.25 100.961C265.828 100.961 268.02 101.828 269.824 103.562C271.629 105.297 272.531 107.523 272.531 110.242ZM257.836 110.242C257.836 111.977 258.34 113.383 259.348 114.461C260.355 115.516 261.656 116.043 263.25 116.043C264.867 116.043 266.18 115.516 267.188 114.461C268.195 113.383 268.699 111.977 268.699 110.242C268.699 108.508 268.195 107.113 267.188 106.059C266.18 104.98 264.867 104.441 263.25 104.441C261.656 104.441 260.355 104.98 259.348 106.059C258.34 107.113 257.836 108.508 257.836 110.242ZM276.996 108.344C276.996 105.883 277.688 104.043 279.07 102.824C280.477 101.605 282.41 100.996 284.871 100.996C287.332 100.996 289.254 101.641 290.637 102.93C292.02 104.219 292.711 106.012 292.711 108.309V119.066H288.844V108.449C288.844 105.824 287.52 104.512 284.871 104.512C282.199 104.512 280.863 105.824 280.863 108.449V119.066H276.996V108.344ZM4.39453 141.633L17.4375 159.316V141.633H21.3047V166.066H18.1055L5.13281 148.453V166.066H1.23047V141.633H4.39453ZM29.8828 155.836H37.9688C37.8984 154.477 37.5352 153.398 36.8789 152.602C36.2227 151.781 35.2266 151.371 33.8906 151.371C32.6484 151.371 31.6875 151.781 31.0078 152.602C30.3281 153.398 29.9531 154.477 29.8828 155.836ZM29.8477 159.07C30.0117 160.312 30.5156 161.285 31.3594 161.988C32.2266 162.691 33.3867 163.066 34.8398 163.113C36.6445 163.207 38.6836 162.996 40.957 162.48V165.82C38.918 166.383 36.8789 166.629 34.8398 166.559C32.0977 166.535 29.9297 165.738 28.3359 164.168C26.7422 162.574 25.9453 160.266 25.9453 157.242C25.9453 154.383 26.707 152.121 28.2305 150.457C29.7539 148.793 31.6406 147.961 33.8906 147.961C36.2344 147.961 38.1445 148.805 39.6211 150.492C41.1211 152.18 41.8711 154.43 41.8711 157.242V159.07H29.8477ZM46.3008 159.387V148.418H50.168V159.281C50.168 161.883 51.5039 163.184 54.1758 163.184C56.8242 163.184 58.1484 161.883 58.1484 159.281V148.418H62.0156V159.422C62.0156 161.719 61.3125 163.512 59.9062 164.801C58.5 166.066 56.5664 166.699 54.1055 166.699C51.6445 166.699 49.7227 166.09 48.3398 164.871C46.9805 163.652 46.3008 161.824 46.3008 159.387ZM72.5625 160.582C72.5625 161.566 72.7617 162.223 73.1602 162.551C73.6055 162.926 74.2266 163.113 75.0234 163.113H77.7305V166.523H74.3906C72.5625 166.547 71.1562 166.078 70.1719 165.117C69.2344 164.227 68.7656 162.879 68.7656 161.074V151.828H65.4258V148.418H68.7656V143.988L72.5625 142.758V148.418H76.8867V151.828H72.5625V160.582ZM81.2109 148.418H84.7969V150.668C86.1328 148.863 87.8672 147.961 90 147.961C90.4688 147.961 90.9492 148.008 91.4414 148.102V151.582L90 151.477C88.0078 151.477 86.3672 152.473 85.0781 154.465V166.066H81.2109V148.418ZM105.188 158.473C104.367 158.262 103.617 158.121 102.938 158.051C102.258 157.98 101.566 157.957 100.863 157.98C99.9258 158.027 99.1992 158.227 98.6836 158.578C98.0508 159.07 97.7227 159.738 97.6992 160.582C97.6992 161.449 97.9336 162.094 98.4023 162.516C98.8945 162.914 99.5273 163.113 100.301 163.113C102.199 163.113 103.828 162.422 105.188 161.039V158.473ZM105.469 164.449C103.781 165.832 101.895 166.523 99.8086 166.523C97.9336 166.523 96.457 165.961 95.3789 164.836C94.3242 163.688 93.7969 162.27 93.7969 160.582C93.7969 158.848 94.4531 157.406 95.7656 156.258C97.0078 155.18 98.5898 154.641 100.512 154.641C102.27 154.641 103.828 154.863 105.188 155.309V154.57C105.188 152.578 103.793 151.523 101.004 151.406C99.293 151.336 97.582 151.5 95.8711 151.898V148.488C97.6523 148.09 99.4688 147.914 101.32 147.961C103.523 148.008 105.363 148.605 106.84 149.754C108.316 150.949 109.055 152.754 109.055 155.168V166.066H105.469V164.449ZM114.504 166.066V141.141H118.371V166.066H114.504ZM123.996 166.066V148.418H127.863V166.066H123.996ZM123.891 145.254V141.141H128.004V145.254H123.891ZM138.445 160.582C138.445 161.566 138.645 162.223 139.043 162.551C139.488 162.926 140.109 163.113 140.906 163.113H143.613V166.523H140.273C138.445 166.547 137.039 166.078 136.055 165.117C135.117 164.227 134.648 162.879 134.648 161.074V151.828H131.309V148.418H134.648V143.988L138.445 142.758V148.418H142.77V151.828H138.445V160.582ZM144.809 148.418H148.781L153.387 160.688L158.484 148.418H162.422L152.086 173.062H148.219L151.453 165.328L144.809 148.418Z" fill="white"/>
</svg>
