<svg width="275" height="46" viewBox="0 0 275 46" fill="none" xmlns="http://www.w3.org/2000/svg">
<path d="M5.41803 5.72334V10.4753H7.48803V5.72334H5.41803ZM4.03203 4.46334V0.917343H5.41803V4.46334H7.48803V0.917343H8.89203V11.7533H0.558031V0.917343H1.96203V4.46334H4.03203ZM4.03203 10.4753V5.72334H1.96203V10.4753H4.03203ZM12.348 0.323343V5.50734H14.238V6.94734H12.348V15.6053H10.89V0.323343H12.348ZM27.4153 7.66734H17.2093V3.52734H25.8133V1.88934H17.2093V0.629344H27.3253V4.76934H18.7213V6.40734H27.4153V7.66734ZM15.4813 9.32334H29.0533V10.6373H15.4813V9.32334ZM27.5953 15.6053H17.2993V12.0593H18.8833V14.3093H27.5953V15.6053ZM46.6203 3.70734C46.6203 4.21134 46.5123 4.69134 46.2963 5.14734C46.0803 5.59134 45.7923 5.98134 45.4323 6.31734C45.0723 6.65334 44.6463 6.92334 44.1543 7.12734C43.6623 7.31934 43.1403 7.41534 42.5883 7.41534C42.0363 7.41534 41.5143 7.31934 41.0223 7.12734C40.5303 6.92334 40.1043 6.65334 39.7443 6.31734C39.3843 5.98134 39.0963 5.59134 38.8803 5.14734C38.6643 4.69134 38.5563 4.21134 38.5563 3.70734C38.5563 3.20334 38.6643 2.72934 38.8803 2.28534C39.0963 1.82934 39.3843 1.43334 39.7443 1.09734C40.1043 0.761343 40.5303 0.497343 41.0223 0.305343C41.5143 0.101343 42.0363 -0.000656962 42.5883 -0.000656962C43.1403 -0.000656962 43.6623 0.101343 44.1543 0.305343C44.6463 0.497343 45.0723 0.761343 45.4323 1.09734C45.7923 1.43334 46.0803 1.82934 46.2963 2.28534C46.5123 2.72934 46.6203 3.20334 46.6203 3.70734ZM45.1083 3.70734C45.1083 3.03534 44.8623 2.45934 44.3703 1.97934C43.8783 1.49934 43.2843 1.25934 42.5883 1.25934C41.8923 1.25934 41.2983 1.49934 40.8063 1.97934C40.3143 2.45934 40.0683 3.03534 40.0683 3.70734C40.0683 4.37934 40.3143 4.95534 40.8063 5.43534C41.2983 5.91534 41.8923 6.15534 42.5883 6.15534C43.2843 6.15534 43.8783 5.91534 44.3703 5.43534C44.8623 4.95534 45.1083 4.37934 45.1083 3.70734ZM49.3743 8.62134V9.89934H45.0363C45.1803 9.99534 45.3123 10.1033 45.4323 10.2233C45.7923 10.5473 46.0743 10.9313 46.2783 11.3753C46.4943 11.8193 46.6023 12.2873 46.6023 12.7793C46.6023 13.2713 46.4943 13.7393 46.2783 14.1833C46.0743 14.6273 45.7923 15.0113 45.4323 15.3353C45.0723 15.6713 44.6463 15.9353 44.1543 16.1273C43.6623 16.3193 43.1403 16.4153 42.5883 16.4153C42.0363 16.4153 41.5143 16.3193 41.0223 16.1273C40.5303 15.9353 40.1043 15.6713 39.7443 15.3353C39.3843 15.0113 39.0963 14.6273 38.8803 14.1833C38.6763 13.7393 38.5743 13.2713 38.5743 12.7793C38.5743 12.2873 38.6763 11.8193 38.8803 11.3753C39.0963 10.9313 39.3843 10.5473 39.7443 10.2233C39.8643 10.1033 39.9963 9.99534 40.1403 9.89934H35.8023V8.62134H49.3743ZM45.0903 12.7433C45.0903 12.0713 44.8443 11.5013 44.3523 11.0333C43.8603 10.5533 43.2723 10.3133 42.5883 10.3133C41.9043 10.3133 41.3163 10.5533 40.8243 11.0333C40.3323 11.5013 40.0863 12.0713 40.0863 12.7433C40.0863 13.4153 40.3323 13.9913 40.8243 14.4713C41.3163 14.9393 41.9043 15.1733 42.5883 15.1733C43.2723 15.1733 43.8603 14.9393 44.3523 14.4713C44.8443 13.9913 45.0903 13.4153 45.0903 12.7433ZM51.9676 7.90134V0.935343H58.9336V2.24934H53.4796V6.60534H56.2156C58.2196 6.60534 59.9296 6.49134 61.3456 6.26334V0.323343H62.8576V3.74334H65.0176V5.07534H62.8576V8.38734H61.3456V7.55934C59.9656 7.78734 58.2916 7.90134 56.3236 7.90134H51.9676ZM62.8576 15.6053H53.3716V9.43134H54.8656V10.8353H61.3636V9.43134H62.8576V15.6053ZM61.3636 14.3813V12.0413H54.8656V14.3813H61.3636ZM79.0048 0.323343V8.94534H77.4928V4.71534H74.3788V3.41934H77.4928V0.323343H79.0048ZM78.6988 12.8333C78.6988 13.3133 78.5908 13.7753 78.3748 14.2193C78.1708 14.6513 77.8948 15.0293 77.5468 15.3533C77.1868 15.6773 76.7668 15.9353 76.2868 16.1273C75.8068 16.3193 75.2908 16.4153 74.7388 16.4153C74.1868 16.4153 73.6708 16.3193 73.1908 16.1273C72.7108 15.9353 72.2908 15.6773 71.9308 15.3533C71.5828 15.0293 71.3008 14.6513 71.0848 14.2193C70.8808 13.7753 70.7788 13.3133 70.7788 12.8333C70.7788 12.3533 70.8808 11.8973 71.0848 11.4653C71.3008 11.0213 71.5828 10.6373 71.9308 10.3133C72.2908 9.98934 72.7108 9.73134 73.1908 9.53934C73.6708 9.34734 74.1868 9.25134 74.7388 9.25134C75.2908 9.25134 75.8068 9.34734 76.2868 9.53934C76.7668 9.73134 77.1868 9.98934 77.5468 10.3133C77.8948 10.6373 78.1708 11.0213 78.3748 11.4653C78.5908 11.8973 78.6988 12.3533 78.6988 12.8333ZM77.1868 12.8333C77.1868 12.1973 76.9468 11.6573 76.4668 11.2133C75.9868 10.7573 75.4108 10.5293 74.7388 10.5293C74.0668 10.5293 73.4908 10.7573 73.0108 11.2133C72.5308 11.6573 72.2908 12.1973 72.2908 12.8333C72.2908 13.4693 72.5308 14.0153 73.0108 14.4713C73.4908 14.9153 74.0668 15.1373 74.7388 15.1373C75.4108 15.1373 75.9868 14.9153 76.4668 14.4713C76.9468 14.0153 77.1868 13.4693 77.1868 12.8333ZM71.6608 2.03334C71.6608 3.24534 72.0088 4.28334 72.7048 5.14734C73.4008 5.97534 74.2588 6.67734 75.2788 7.25334L74.4148 8.33334C73.3348 7.78134 72.3508 6.96534 71.4628 5.88534C71.2828 5.66934 71.1208 5.44134 70.9768 5.20134C70.7968 5.56134 70.5808 5.90334 70.3288 6.22734C69.4288 7.42734 68.4388 8.32734 67.3588 8.92734L66.4048 7.91934C67.4368 7.35534 68.3428 6.54534 69.1228 5.48934C69.7828 4.58934 70.1128 3.43734 70.1128 2.03334V0.719343H71.6608V2.03334ZM93.3521 5.27334C93.3521 5.88534 93.2261 6.46134 92.9741 7.00134C92.7221 7.54134 92.3861 8.01534 91.9661 8.42334C91.5221 8.83134 91.0121 9.15534 90.4361 9.39534C89.8721 9.62334 89.2601 9.73734 88.6001 9.73734C87.9401 9.73734 87.3221 9.62334 86.7461 9.39534C86.1821 9.15534 85.6781 8.83134 85.2341 8.42334C84.8141 8.01534 84.4781 7.54134 84.2261 7.00134C83.9741 6.46134 83.8481 5.88534 83.8481 5.27334C83.8481 4.66134 83.9741 4.08534 84.2261 3.54534C84.4781 3.00534 84.8141 2.53134 85.2341 2.12334C85.6781 1.71534 86.1821 1.39734 86.7461 1.16934C87.3221 0.929343 87.9401 0.809343 88.6001 0.809343C89.2601 0.809343 89.8721 0.929343 90.4361 1.16934C91.0121 1.39734 91.5221 1.71534 91.9661 2.12334C92.3861 2.53134 92.7221 3.00534 92.9741 3.54534C93.2261 4.08534 93.3521 4.66134 93.3521 5.27334ZM91.8221 5.27334C91.8221 4.84134 91.7321 4.43934 91.5521 4.06734C91.3841 3.68334 91.1561 3.34734 90.8681 3.05934C90.5801 2.78334 90.2381 2.56134 89.8421 2.39334C89.4461 2.22534 89.0321 2.14134 88.6001 2.14134C88.1681 2.14134 87.7541 2.22534 87.3581 2.39334C86.9621 2.56134 86.6201 2.78334 86.3321 3.05934C86.0441 3.34734 85.8101 3.68334 85.6301 4.06734C85.4621 4.43934 85.3781 4.84134 85.3781 5.27334C85.3781 5.70534 85.4621 6.11334 85.6301 6.49734C85.8101 6.86934 86.0441 7.19934 86.3321 7.48734C86.6201 7.76334 86.9621 7.98534 87.3581 8.15334C87.7541 8.32134 88.1681 8.40534 88.6001 8.40534C89.0321 8.40534 89.4461 8.32134 89.8421 8.15334C90.2381 7.98534 90.5801 7.76334 90.8681 7.48734C91.1561 7.19934 91.3841 6.86934 91.5521 6.49734C91.7321 6.11334 91.8221 5.70534 91.8221 5.27334ZM95.3861 12.3293V13.6613H81.8141V12.3293H95.3861ZM109.085 9.82734H104.693V12.6713H110.723V13.9673H97.1514V12.6713H103.181V9.82734H98.8794V4.76934H107.483V2.33934H98.8794V1.00734H108.995V6.06534H100.391V8.51334H109.085V9.82734ZM129.064 6.76734H127.156V15.6053H125.716V0.323343H127.156V5.43534H129.064V0.323343H130.54V15.6053H129.064V6.76734ZM120.298 2.33934H117.598V1.00734H124.096V2.33934H121.756V4.46334C121.756 6.05934 122.044 7.36734 122.62 8.38734C123.232 9.47934 123.952 10.3373 124.78 10.9613L123.916 11.8793C122.896 11.0993 122.05 10.0793 121.378 8.81934C121.258 8.60334 121.15 8.37534 121.054 8.13534C120.934 8.39934 120.808 8.65134 120.676 8.89134C119.8 10.4633 118.954 11.5373 118.138 12.1133L117.112 11.2133C117.988 10.5413 118.762 9.58134 119.434 8.33334C120.01 7.25334 120.298 5.95734 120.298 4.44534V2.33934ZM144.33 5.39934H142.206V9.16134C142.494 9.20934 142.77 9.28734 143.034 9.39534C143.514 9.58734 143.934 9.85134 144.294 10.1873C144.654 10.5233 144.936 10.9133 145.14 11.3573C145.356 11.7893 145.464 12.2573 145.464 12.7613C145.464 13.2653 145.356 13.7393 145.14 14.1833C144.936 14.6153 144.654 14.9993 144.294 15.3353C143.934 15.6713 143.508 15.9353 143.016 16.1273C142.536 16.3193 142.02 16.4153 141.468 16.4153C140.916 16.4153 140.394 16.3193 139.902 16.1273C139.422 15.9353 139.002 15.6713 138.642 15.3353C138.282 14.9993 137.994 14.6153 137.778 14.1833C137.574 13.7393 137.472 13.2653 137.472 12.7613C137.472 12.2573 137.574 11.7893 137.778 11.3573C137.994 10.9133 138.282 10.5233 138.642 10.1873C139.002 9.85134 139.428 9.58734 139.92 9.39534C140.184 9.28734 140.46 9.20934 140.748 9.16134V0.323343H142.206V4.08534H144.33V0.323343H145.806V9.28734H144.33V5.39934ZM143.952 12.7613C143.952 12.4373 143.886 12.1313 143.754 11.8433C143.622 11.5553 143.442 11.3033 143.214 11.0873C142.986 10.8713 142.722 10.7033 142.422 10.5833C142.122 10.4513 141.804 10.3853 141.468 10.3853C141.132 10.3853 140.814 10.4513 140.514 10.5833C140.214 10.7033 139.95 10.8713 139.722 11.0873C139.494 11.3033 139.314 11.5553 139.182 11.8433C139.05 12.1313 138.984 12.4373 138.984 12.7613C138.984 13.0853 139.05 13.3913 139.182 13.6793C139.314 13.9673 139.494 14.2193 139.722 14.4353C139.95 14.6513 140.214 14.8193 140.514 14.9393C140.814 15.0713 141.132 15.1373 141.468 15.1373C141.804 15.1373 142.122 15.0713 142.422 14.9393C142.722 14.8193 142.986 14.6513 143.214 14.4353C143.442 14.2193 143.622 13.9673 143.754 13.6793C143.886 13.3913 143.952 13.0853 143.952 12.7613ZM136.932 2.41134C136.932 3.75534 137.208 4.87134 137.76 5.75934C138.348 6.63534 139.002 7.37334 139.722 7.97334L138.768 8.87334C137.976 8.21334 137.256 7.41534 136.608 6.47934C136.464 6.26334 136.332 6.02934 136.212 5.77734C136.08 6.04134 135.936 6.28734 135.78 6.51534C134.988 7.70334 134.178 8.60334 133.35 9.21534L132.324 8.27934C133.152 7.67934 133.908 6.82734 134.592 5.72334C135.18 4.79934 135.474 3.68934 135.474 2.39334V0.719343H136.932V2.41134ZM155.581 6.01134C155.521 6.31134 155.437 6.59334 155.329 6.85734C155.113 7.34934 154.825 7.77534 154.465 8.13534C154.081 8.50734 153.643 8.80134 153.151 9.01734C152.671 9.23334 152.155 9.34134 151.603 9.34134C151.051 9.34134 150.529 9.23334 150.037 9.01734C149.557 8.80134 149.125 8.50734 148.741 8.13534C148.381 7.77534 148.093 7.35534 147.877 6.87534C147.673 6.38334 147.571 5.85534 147.571 5.29134C147.571 4.72734 147.673 4.20534 147.877 3.72534C148.093 3.23334 148.381 2.80734 148.741 2.44734C149.125 2.07534 149.557 1.78134 150.037 1.56534C150.529 1.34934 151.051 1.24134 151.603 1.24134C152.155 1.24134 152.671 1.34934 153.151 1.56534C153.643 1.78134 154.081 2.07534 154.465 2.44734C154.825 2.80734 155.113 3.22734 155.329 3.70734C155.437 3.98334 155.521 4.27134 155.581 4.57134H157.147V0.323343H158.551V15.6053H157.147V6.01134H155.581ZM154.213 5.29134C154.213 4.93134 154.147 4.58334 154.015 4.24734C153.883 3.91134 153.703 3.62334 153.475 3.38334C153.235 3.13134 152.953 2.93334 152.629 2.78934C152.317 2.63334 151.975 2.55534 151.603 2.55534C151.231 2.55534 150.889 2.63334 150.577 2.78934C150.265 2.93334 149.989 3.13134 149.749 3.38334C149.521 3.62334 149.335 3.91134 149.191 4.24734C149.059 4.58334 148.993 4.93134 148.993 5.29134C148.993 5.65134 149.059 5.99934 149.191 6.33534C149.335 6.67134 149.521 6.95934 149.749 7.19934C149.989 7.45134 150.265 7.65534 150.577 7.81134C150.889 7.95534 151.231 8.02734 151.603 8.02734C151.975 8.02734 152.317 7.95534 152.629 7.81134C152.953 7.65534 153.235 7.45134 153.475 7.19934C153.703 6.95934 153.883 6.67134 154.015 6.33534C154.147 5.99934 154.213 5.65134 154.213 5.29134ZM160.189 0.323343H161.629V15.6053H160.189V0.323343ZM164.69 11.3393V0.935343H166.202V9.97134H168.308C169.904 9.97134 171.446 9.85134 172.934 9.61134V10.9973C171.482 11.2253 169.994 11.3393 168.47 11.3393H164.69ZM174.5 0.323343H176.012V15.6053H174.5V6.06534H169.856V4.71534H174.5V0.323343ZM189.837 0.323343H191.349V15.6053H189.837V0.323343ZM182.655 3.95934V2.35734H179.343V1.00734H187.407V2.35734H184.203V3.92334C184.191 5.42334 184.545 6.74334 185.265 7.88334C185.949 8.97534 186.855 10.0013 187.983 10.9613L187.065 11.8973C185.889 10.9253 184.827 9.71334 183.879 8.26134C183.723 8.02134 183.579 7.78134 183.447 7.54134C183.291 7.90134 183.099 8.24934 182.871 8.58534C181.887 10.0853 180.801 11.2433 179.613 12.0593L178.605 11.0873C179.733 10.3313 180.723 9.28134 181.575 7.93734C182.295 6.78534 182.655 5.45934 182.655 3.95934ZM203.393 4.76934C203.393 5.29734 203.285 5.80134 203.069 6.28134C202.853 6.76134 202.559 7.17534 202.187 7.52334C201.803 7.88334 201.365 8.17134 200.873 8.38734C200.381 8.59134 199.853 8.69334 199.289 8.69334C198.725 8.69334 198.197 8.59134 197.705 8.38734C197.213 8.17134 196.775 7.88334 196.391 7.52334C196.019 7.17534 195.725 6.76134 195.509 6.28134C195.293 5.80134 195.185 5.29734 195.185 4.76934C195.185 4.24134 195.293 3.73734 195.509 3.25734C195.725 2.77734 196.019 2.36334 196.391 2.01534C196.775 1.65534 197.213 1.37334 197.705 1.16934C198.197 0.953343 198.725 0.845343 199.289 0.845343C199.853 0.845343 200.381 0.953343 200.873 1.16934C201.365 1.37334 201.803 1.65534 202.187 2.01534C202.559 2.36334 202.853 2.77734 203.069 3.25734C203.285 3.73734 203.393 4.24134 203.393 4.76934ZM201.899 4.76934C201.899 4.39734 201.827 4.05534 201.683 3.74334C201.539 3.41934 201.347 3.14334 201.107 2.91534C200.879 2.67534 200.609 2.48334 200.297 2.33934C199.985 2.19534 199.649 2.12334 199.289 2.12334C198.929 2.12334 198.593 2.19534 198.281 2.33934C197.969 2.48334 197.693 2.67534 197.453 2.91534C197.225 3.14334 197.039 3.41934 196.895 3.74334C196.751 4.05534 196.679 4.39734 196.679 4.76934C196.679 5.14134 196.751 5.48934 196.895 5.81334C197.039 6.12534 197.225 6.40134 197.453 6.64134C197.693 6.86934 197.969 7.05534 198.281 7.19934C198.593 7.34334 198.929 7.41534 199.289 7.41534C199.649 7.41534 199.985 7.34334 200.297 7.19934C200.609 7.05534 200.879 6.86934 201.107 6.64134C201.347 6.40134 201.539 6.12534 201.683 5.81334C201.827 5.48934 201.899 5.14134 201.899 4.76934ZM206.903 0.323343V15.6053H205.373V12.1673C204.077 12.3593 202.361 12.4553 200.225 12.4553H194.213V11.1233H200.207C202.295 11.1233 204.017 11.0393 205.373 10.8713V0.323343H206.903ZM222.472 9.30534H215.542V0.773343H217.018V3.34734H221.014V0.773343H222.472V2.33934H225.496V0.323343H227.008V11.3933H225.496V7.36134H222.472V9.30534ZM222.472 3.59934V6.10134H225.496V3.59934H222.472ZM221.014 7.99134V4.64334H217.018V7.99134H221.014ZM227.476 15.6053H217.702V11.1413H219.268V14.2733H227.476V15.6053ZM231.545 0.719343H241.589V2.01534H233.057V5.12934H241.715V6.42534H237.359V8.51334H243.389V9.79134H239.015C239.171 9.89934 239.315 10.0133 239.447 10.1333C239.807 10.4573 240.095 10.8473 240.311 11.3033C240.527 11.7473 240.635 12.2213 240.635 12.7253C240.635 13.2293 240.527 13.7093 240.311 14.1653C240.095 14.6093 239.807 14.9933 239.447 15.3173C239.087 15.6533 238.661 15.9173 238.169 16.1093C237.677 16.3133 237.155 16.4153 236.603 16.4153C236.051 16.4153 235.529 16.3133 235.037 16.1093C234.545 15.9173 234.119 15.6533 233.759 15.3173C233.399 14.9933 233.111 14.6093 232.895 14.1653C232.679 13.7093 232.571 13.2293 232.571 12.7253C232.571 12.2213 232.679 11.7473 232.895 11.3033C233.111 10.8473 233.399 10.4573 233.759 10.1333C233.891 10.0133 234.035 9.89934 234.191 9.79134H229.817V8.51334H235.847V6.42534H231.545V0.719343ZM239.123 12.6713C239.123 11.9873 238.877 11.4053 238.385 10.9253C237.893 10.4333 237.299 10.1873 236.603 10.1873C235.907 10.1873 235.313 10.4333 234.821 10.9253C234.329 11.4053 234.083 11.9873 234.083 12.6713C234.083 13.3553 234.329 13.9433 234.821 14.4353C235.313 14.9153 235.907 15.1553 236.603 15.1553C237.299 15.1553 237.893 14.9153 238.385 14.4353C238.877 13.9433 239.123 13.3553 239.123 12.6713ZM257.682 0.323343V8.94534H256.17V4.71534H253.056V3.41934H256.17V0.323343H257.682ZM257.376 12.8333C257.376 13.3133 257.268 13.7753 257.052 14.2193C256.848 14.6513 256.572 15.0293 256.224 15.3533C255.864 15.6773 255.444 15.9353 254.964 16.1273C254.484 16.3193 253.968 16.4153 253.416 16.4153C252.864 16.4153 252.348 16.3193 251.868 16.1273C251.388 15.9353 250.968 15.6773 250.608 15.3533C250.26 15.0293 249.978 14.6513 249.762 14.2193C249.558 13.7753 249.456 13.3133 249.456 12.8333C249.456 12.3533 249.558 11.8973 249.762 11.4653C249.978 11.0213 250.26 10.6373 250.608 10.3133C250.968 9.98934 251.388 9.73134 251.868 9.53934C252.348 9.34734 252.864 9.25134 253.416 9.25134C253.968 9.25134 254.484 9.34734 254.964 9.53934C255.444 9.73134 255.864 9.98934 256.224 10.3133C256.572 10.6373 256.848 11.0213 257.052 11.4653C257.268 11.8973 257.376 12.3533 257.376 12.8333ZM255.864 12.8333C255.864 12.1973 255.624 11.6573 255.144 11.2133C254.664 10.7573 254.088 10.5293 253.416 10.5293C252.744 10.5293 252.168 10.7573 251.688 11.2133C251.208 11.6573 250.968 12.1973 250.968 12.8333C250.968 13.4693 251.208 14.0153 251.688 14.4713C252.168 14.9153 252.744 15.1373 253.416 15.1373C254.088 15.1373 254.664 14.9153 255.144 14.4713C255.624 14.0153 255.864 13.4693 255.864 12.8333ZM250.338 2.03334C250.338 3.24534 250.686 4.28334 251.382 5.14734C252.078 5.97534 252.936 6.67734 253.956 7.25334L253.092 8.33334C252.012 7.78134 251.028 6.96534 250.14 5.88534C249.96 5.66934 249.798 5.44134 249.654 5.20134C249.474 5.56134 249.258 5.90334 249.006 6.22734C248.106 7.42734 247.116 8.32734 246.036 8.92734L245.082 7.91934C246.114 7.35534 247.02 6.54534 247.8 5.48934C248.46 4.58934 248.79 3.43734 248.79 2.03334V0.719343H250.338V2.03334ZM268.736 1.02534V4.17534C268.736 5.93934 268.568 7.52934 268.232 8.94534H266.738C267.074 7.60134 267.242 6.00534 267.242 4.15734V2.35734H261.23V1.02534H268.736ZM274.64 6.24534V7.64934H272.48V15.6053H270.986V12.3293C269.654 12.5333 267.968 12.6353 265.928 12.6353H260.24V11.3033H263.12V6.19134H264.596V11.3033H265.928C267.872 11.3033 269.558 11.2133 270.986 11.0333V0.323343H272.48V6.24534H274.64ZM11.862 29.3233V33.9133H14.022V35.2453H11.862V40.3933H10.35V29.3233H11.862ZM12.312 44.6053H2.55603V40.0513H4.10403V43.2733H12.312V44.6053ZM7.61403 30.0253C7.61403 32.3413 6.85803 34.2553 5.34603 35.7673C4.02603 37.0873 2.53203 38.0233 0.864031 38.5753L3.12999e-05 37.5493C1.58403 37.0093 2.92803 36.1933 4.03203 35.1013C5.28003 33.8533 5.90403 32.6413 5.90403 31.4653V31.3213H0.990031V30.0253H7.61403ZM19.0273 30.3673V29.0173H20.7553V30.3673H24.2293V31.5193H22.1773L22.4293 31.7353C22.7533 32.0233 23.0113 32.3653 23.2033 32.7613C23.2993 32.9533 23.3713 33.1513 23.4193 33.3553H26.4973V29.3233H28.0093V37.1173H26.4973V34.5613H23.4373C23.3893 34.8013 23.3113 35.0293 23.2033 35.2453C23.0113 35.6293 22.7533 35.9653 22.4293 36.2533C22.1173 36.5533 21.7393 36.7873 21.2953 36.9553C20.8513 37.1233 20.3833 37.2073 19.8913 37.2073C19.3993 37.2073 18.9313 37.1233 18.4873 36.9553C18.0433 36.7873 17.6653 36.5533 17.3533 36.2533C17.0293 35.9653 16.7713 35.6293 16.5793 35.2453C16.3873 34.8613 16.2913 34.4533 16.2913 34.0213C16.2913 33.5893 16.3873 33.1753 16.5793 32.7793C16.7713 32.3713 17.0293 32.0233 17.3533 31.7353L17.6053 31.5193H15.5533V30.3673H19.0273ZM21.9973 33.9493C21.9973 33.3853 21.7873 32.8993 21.3673 32.4913C20.9593 32.0713 20.4673 31.8613 19.8913 31.8613C19.3153 31.8613 18.8173 32.0713 18.3973 32.4913C17.9893 32.8993 17.7853 33.3853 17.7853 33.9493C17.7853 34.5133 17.9893 35.0053 18.3973 35.4253C18.8173 35.8333 19.3153 36.0373 19.8913 36.0373C20.4673 36.0373 20.9593 35.8333 21.3673 35.4253C21.7873 35.0053 21.9973 34.5133 21.9973 33.9493ZM28.2073 44.6053H18.5233V40.8793H26.4973V39.5293H18.5233V38.3053H28.0093V42.0673H20.0353V43.4173H28.2073V44.6053ZM43.3466 29.3233V37.8913H41.8346V34.4173H39.0086V33.1573H41.8346V29.3233H43.3466ZM41.8346 44.8033V40.7533H33.6806V39.4393H43.3466V44.8033H41.8346ZM34.4906 32.3293V31.2493H31.3226V29.9353H39.3686V31.2493H36.0386V32.4193C36.0386 33.3193 36.3986 34.1353 37.1186 34.8673C37.9466 35.7073 38.8646 36.3193 39.8726 36.7033L39.1166 37.7473C37.8206 37.1593 36.7286 36.4093 35.8406 35.4973C35.6246 35.2693 35.4326 35.0413 35.2646 34.8133C35.1446 35.0053 35.0006 35.1973 34.8326 35.3893C33.8126 36.6013 32.7866 37.4533 31.7546 37.9453L30.8186 36.9373C31.8266 36.4813 32.7566 35.7433 33.6086 34.7233C34.1966 34.0153 34.4906 33.2173 34.4906 32.3293ZM62.9836 29.6293V30.8713H54.3796V32.3833H62.9476V33.6073H54.3796V35.1553H63.0736V36.3793H52.8676V29.6293H62.9836ZM51.1396 37.9273H64.7116V39.2053H51.1396V37.9273ZM52.7596 40.7353H62.9836V44.8033H61.4716V42.0133H52.7596V40.7353ZM79.0048 29.3233V37.9453H77.4928V33.7153H74.3788V32.4193H77.4928V29.3233H79.0048ZM78.6988 41.8333C78.6988 42.3133 78.5908 42.7753 78.3748 43.2193C78.1708 43.6513 77.8948 44.0293 77.5468 44.3533C77.1868 44.6773 76.7668 44.9353 76.2868 45.1273C75.8068 45.3193 75.2908 45.4153 74.7388 45.4153C74.1868 45.4153 73.6708 45.3193 73.1908 45.1273C72.7108 44.9353 72.2908 44.6773 71.9308 44.3533C71.5828 44.0293 71.3008 43.6513 71.0848 43.2193C70.8808 42.7753 70.7788 42.3133 70.7788 41.8333C70.7788 41.3533 70.8808 40.8973 71.0848 40.4653C71.3008 40.0213 71.5828 39.6373 71.9308 39.3133C72.2908 38.9893 72.7108 38.7313 73.1908 38.5393C73.6708 38.3473 74.1868 38.2513 74.7388 38.2513C75.2908 38.2513 75.8068 38.3473 76.2868 38.5393C76.7668 38.7313 77.1868 38.9893 77.5468 39.3133C77.8948 39.6373 78.1708 40.0213 78.3748 40.4653C78.5908 40.8973 78.6988 41.3533 78.6988 41.8333ZM77.1868 41.8333C77.1868 41.1973 76.9468 40.6573 76.4668 40.2133C75.9868 39.7573 75.4108 39.5293 74.7388 39.5293C74.0668 39.5293 73.4908 39.7573 73.0108 40.2133C72.5308 40.6573 72.2908 41.1973 72.2908 41.8333C72.2908 42.4693 72.5308 43.0153 73.0108 43.4713C73.4908 43.9153 74.0668 44.1373 74.7388 44.1373C75.4108 44.1373 75.9868 43.9153 76.4668 43.4713C76.9468 43.0153 77.1868 42.4693 77.1868 41.8333ZM71.6608 31.0333C71.6608 32.2453 72.0088 33.2833 72.7048 34.1473C73.4008 34.9753 74.2588 35.6773 75.2788 36.2533L74.4148 37.3333C73.3348 36.7813 72.3508 35.9653 71.4628 34.8853C71.2828 34.6693 71.1208 34.4413 70.9768 34.2013C70.7968 34.5613 70.5808 34.9033 70.3288 35.2273C69.4288 36.4273 68.4388 37.3273 67.3588 37.9273L66.4048 36.9193C67.4368 36.3553 68.3428 35.5453 69.1228 34.4893C69.7828 33.5893 70.1128 32.4373 70.1128 31.0333V29.7193H71.6608V31.0333ZM87.7519 40.6093V30.0073H92.7379V31.3753H89.2459V39.2413H90.6499C92.2699 39.2413 93.6319 39.1333 94.7359 38.9173V29.3233H96.1759V34.5793H98.3179V29.3233H99.7939V44.6053H98.3179V35.9113H96.1759V44.6053H94.7359V40.2853C93.7519 40.5013 92.4379 40.6093 90.7939 40.6093H87.7519ZM112.953 32.7073C112.953 33.2113 112.845 33.6913 112.629 34.1473C112.413 34.5913 112.125 34.9813 111.765 35.3173C111.405 35.6533 110.979 35.9233 110.487 36.1273C109.995 36.3193 109.473 36.4153 108.921 36.4153C108.369 36.4153 107.847 36.3193 107.355 36.1273C106.863 35.9233 106.437 35.6533 106.077 35.3173C105.717 34.9813 105.429 34.5913 105.213 34.1473C104.997 33.6913 104.889 33.2113 104.889 32.7073C104.889 32.2033 104.997 31.7293 105.213 31.2853C105.429 30.8293 105.717 30.4333 106.077 30.0973C106.437 29.7613 106.863 29.4973 107.355 29.3053C107.847 29.1013 108.369 28.9993 108.921 28.9993C109.473 28.9993 109.995 29.1013 110.487 29.3053C110.979 29.4973 111.405 29.7613 111.765 30.0973C112.125 30.4333 112.413 30.8293 112.629 31.2853C112.845 31.7293 112.953 32.2033 112.953 32.7073ZM111.441 32.7073C111.441 32.0353 111.195 31.4593 110.703 30.9793C110.211 30.4993 109.617 30.2593 108.921 30.2593C108.225 30.2593 107.631 30.4993 107.139 30.9793C106.647 31.4593 106.401 32.0353 106.401 32.7073C106.401 33.3793 106.647 33.9553 107.139 34.4353C107.631 34.9153 108.225 35.1553 108.921 35.1553C109.617 35.1553 110.211 34.9153 110.703 34.4353C111.195 33.9553 111.441 33.3793 111.441 32.7073ZM115.707 37.6213V38.8993H111.369C111.513 38.9953 111.645 39.1033 111.765 39.2233C112.125 39.5473 112.407 39.9313 112.611 40.3753C112.827 40.8193 112.935 41.2873 112.935 41.7793C112.935 42.2713 112.827 42.7393 112.611 43.1833C112.407 43.6273 112.125 44.0113 111.765 44.3353C111.405 44.6713 110.979 44.9353 110.487 45.1273C109.995 45.3193 109.473 45.4153 108.921 45.4153C108.369 45.4153 107.847 45.3193 107.355 45.1273C106.863 44.9353 106.437 44.6713 106.077 44.3353C105.717 44.0113 105.429 43.6273 105.213 43.1833C105.009 42.7393 104.907 42.2713 104.907 41.7793C104.907 41.2873 105.009 40.8193 105.213 40.3753C105.429 39.9313 105.717 39.5473 106.077 39.2233C106.197 39.1033 106.329 38.9953 106.473 38.8993H102.135V37.6213H115.707ZM111.423 41.7433C111.423 41.0713 111.177 40.5013 110.685 40.0333C110.193 39.5533 109.605 39.3133 108.921 39.3133C108.237 39.3133 107.649 39.5533 107.157 40.0333C106.665 40.5013 106.419 41.0713 106.419 41.7433C106.419 42.4153 106.665 42.9913 107.157 43.4713C107.649 43.9393 108.237 44.1733 108.921 44.1733C109.605 44.1733 110.193 43.9393 110.685 43.4713C111.177 42.9913 111.423 42.4153 111.423 41.7433Z" fill="white"/>
</svg>
