<svg width="300" height="46" viewBox="0 0 300 46" fill="none" xmlns="http://www.w3.org/2000/svg">
<path d="M3.65399 1.58461V0.0186088H5.38199V1.58461H8.92799V2.86261H6.71399C6.91799 2.99461 7.10399 3.13861 7.27199 3.29461C7.61999 3.61861 7.89599 4.00861 8.09999 4.46461C8.31599 4.92061 8.42399 5.39461 8.42399 5.88661C8.42399 6.37861 8.31599 6.84661 8.09999 7.29061C7.89599 7.73461 7.61999 8.11861 7.27199 8.44261C6.91199 8.77861 6.49799 9.04261 6.02999 9.23461C5.56199 9.42661 5.05799 9.52261 4.51799 9.52261C3.97799 9.52261 3.47399 9.42661 3.00599 9.23461C2.53799 9.04261 2.12399 8.77861 1.76399 8.44261C1.41599 8.11861 1.13399 7.73461 0.917988 7.29061C0.713988 6.84661 0.611988 6.37861 0.611988 5.88661C0.611988 5.39461 0.713988 4.92061 0.917988 4.46461C1.13399 4.00861 1.41599 3.61861 1.76399 3.29461C1.93199 3.13861 2.11799 2.99461 2.32199 2.86261H0.107988V1.58461H3.65399ZM6.92999 5.79661C6.92999 5.14861 6.68999 4.58461 6.20999 4.10461C5.74199 3.61261 5.17799 3.36661 4.51799 3.36661C3.85799 3.36661 3.28799 3.61261 2.80799 4.10461C2.33999 4.58461 2.10599 5.14861 2.10599 5.79661C2.10599 6.44461 2.33999 7.00861 2.80799 7.48861C3.28799 7.95661 3.85799 8.19061 4.51799 8.19061C5.17799 8.19061 5.74199 7.95661 6.20999 7.48861C6.68999 7.00861 6.92999 6.44461 6.92999 5.79661ZM11.016 4.71661H9.01799V3.31261H11.016V0.270609H12.528V11.5206H11.016V8.44261H9.01799V7.03861H11.016V4.71661ZM13.068 15.5526H3.04199V11.0886H4.66199V14.2026H13.068V15.5526ZM16.2913 11.5566V0.954609H21.2773V2.32261H17.7853V10.1886H19.1893C20.8093 10.1886 22.1713 10.0806 23.2753 9.86461V0.270609H24.7153V5.52661H26.8573V0.270609H28.3333V15.5526H26.8573V6.85861H24.7153V15.5526H23.2753V11.2326C22.2913 11.4486 20.9773 11.5566 19.3333 11.5566H16.2913ZM42.2845 0.270609V5.74261H44.6605V7.14661H42.2845V15.5526H40.7725V0.270609H42.2845ZM34.1125 4.08661V3.20461H30.5845V1.83661H34.1125V0.00060904H35.6605V1.83661H38.9725V3.20461H35.6605V4.08661C35.6725 5.41861 35.9905 6.67261 36.6145 7.84861C37.2145 8.97661 38.1325 10.0566 39.3685 11.0886L38.4145 12.0606C37.1665 11.0046 36.1465 9.80461 35.3545 8.46061C35.1865 8.17261 35.0305 7.87861 34.8865 7.57861C34.7545 7.87861 34.5985 8.17861 34.4185 8.47861C33.5545 9.91861 32.4985 11.1366 31.2505 12.1326L30.1885 11.1966C31.3885 10.2486 32.3725 9.12661 33.1405 7.83061C33.7765 6.73861 34.1005 5.49061 34.1125 4.08661ZM58.5375 10.6926V15.8406H57.0255V10.6926H50.9955V9.36061H64.5675V10.6926H58.5375ZM58.5555 1.71061C58.5555 2.77861 59.0535 3.72061 60.0495 4.53661C61.0935 5.40061 62.3115 6.06661 63.7035 6.53461L62.9115 7.59661C61.3995 7.12861 60.0915 6.41461 58.9875 5.45461C58.4955 5.03461 58.0935 4.57861 57.7815 4.08661C57.4695 4.57861 57.0675 5.03461 56.5755 5.45461C55.4715 6.41461 54.1635 7.12861 52.6515 7.59661L51.8595 6.53461C53.2515 6.06661 54.4695 5.40061 55.5135 4.53661C56.5095 3.72061 57.0075 2.77861 57.0075 1.71061V0.324609H58.5555V1.71061ZM79.9048 12.5826V13.9146H66.3328V12.5826H72.3628V8.80261H73.8748V12.5826H79.9048ZM73.8928 2.28661C73.8928 3.63061 74.4208 4.78861 75.4768 5.76061C76.6168 6.80461 77.8708 7.53061 79.2388 7.93861L78.4108 9.01861C76.6828 8.44261 75.2368 7.53661 74.0728 6.30061C73.6888 5.90461 73.3708 5.48461 73.1188 5.04061C72.8668 5.48461 72.5488 5.90461 72.1648 6.30061C71.0008 7.53661 69.5548 8.44261 67.8268 9.01861L66.9988 7.93861C68.3548 7.53061 69.6028 6.80461 70.7428 5.76061C71.8108 4.78861 72.3448 3.63061 72.3448 2.28661V0.738609H73.8928V2.28661ZM90.2381 4.69861C90.2381 5.22661 90.1301 5.73061 89.9141 6.21061H92.6861V3.20461H89.9321C90.1361 3.68461 90.2381 4.18261 90.2381 4.69861ZM89.0501 7.47061C89.0381 7.49461 89.0201 7.51261 88.9961 7.52461C88.6001 7.89661 88.1501 8.19061 87.6461 8.40661C87.1421 8.61061 86.5961 8.71261 86.0081 8.71261C85.4201 8.71261 84.8741 8.61061 84.3701 8.40661C83.8661 8.19061 83.4161 7.89661 83.0201 7.52461C82.6361 7.16461 82.3301 6.73861 82.1021 6.24661C81.8861 5.75461 81.7781 5.23861 81.7781 4.69861C81.7781 4.15861 81.8861 3.64261 82.1021 3.15061C82.3301 2.65861 82.6361 2.23261 83.0201 1.87261C83.4161 1.50061 83.8661 1.21261 84.3701 1.00861C84.8741 0.792609 85.4201 0.684609 86.0081 0.684609C86.5961 0.684609 87.1421 0.792609 87.6461 1.00861C88.1501 1.21261 88.6001 1.50061 88.9961 1.87261L89.0681 1.94461H92.6861V0.270609H94.1981V11.3406H92.6861V7.47061H89.0501ZM88.7261 4.69861C88.7261 4.32661 88.6541 3.97861 88.5101 3.65461C88.3661 3.33061 88.1681 3.04861 87.9161 2.80861C87.6761 2.55661 87.3881 2.35861 87.0521 2.21461C86.7161 2.07061 86.3681 1.99861 86.0081 1.99861C85.6481 1.99861 85.3001 2.07061 84.9641 2.21461C84.6281 2.35861 84.3401 2.55661 84.1001 2.80861C83.8481 3.04861 83.6501 3.33061 83.5061 3.65461C83.3621 3.97861 83.2901 4.32661 83.2901 4.69861C83.2901 5.07061 83.3621 5.41861 83.5061 5.74261C83.6501 6.06661 83.8481 6.35461 84.1001 6.60661C84.3401 6.84661 84.6281 7.03861 84.9641 7.18261C85.3001 7.32661 85.6481 7.39861 86.0081 7.39861C86.3681 7.39861 86.7161 7.32661 87.0521 7.18261C87.3881 7.03861 87.6761 6.84661 87.9161 6.60661C88.1681 6.35461 88.3661 6.06661 88.5101 5.74261C88.6541 5.41861 88.7261 5.07061 88.7261 4.69861ZM94.6661 15.5526H84.8921V10.8546H86.4221V14.2026H94.6661V15.5526ZM108.941 9.77461H106.997V12.6366H110.579V13.9146H97.0073V12.6366H100.589V9.77461H98.7353V4.71661H107.339V2.28661H98.7353V0.954609H108.851V6.01261H100.247V8.46061H108.941V9.77461ZM105.521 9.77461H102.065V12.6366H105.521V9.77461ZM124.873 0.270609V11.3406H123.361V5.68861H120.535V4.35661H123.361V0.270609H124.873ZM125.341 15.5526H115.567V10.9986H117.115V14.2206H125.341V15.5526ZM116.017 3.38461V2.23261H112.849V0.882608H120.895V2.23261H117.565V3.47461C117.565 4.54261 117.925 5.47861 118.645 6.28261C119.497 7.24261 120.415 7.95061 121.399 8.40661L120.589 9.43261C119.329 8.79661 118.255 7.98661 117.367 7.00261C117.151 6.76261 116.965 6.51661 116.809 6.26461C116.641 6.56461 116.443 6.85261 116.215 7.12861C115.375 8.18461 114.379 9.02461 113.227 9.64861L112.273 8.67661C113.329 8.11261 114.271 7.31461 115.099 6.28261C115.711 5.51461 116.017 4.54861 116.017 3.38461ZM138.698 0.270609H140.21V15.5526H138.698V0.270609ZM131.516 3.90661V2.30461H128.204V0.954609H136.268V2.30461H133.064V3.87061C133.052 5.37061 133.406 6.69061 134.126 7.83061C134.81 8.92261 135.716 9.94861 136.844 10.9086L135.926 11.8446C134.75 10.8726 133.688 9.66061 132.74 8.20861C132.584 7.96861 132.44 7.72861 132.308 7.48861C132.152 7.84861 131.96 8.19661 131.732 8.53261C130.748 10.0326 129.662 11.1906 128.474 12.0066L127.466 11.0346C128.594 10.2786 129.584 9.22861 130.436 7.88461C131.156 6.73261 131.516 5.40661 131.516 3.90661ZM159.019 0.270609H160.531V15.5526H159.019V0.270609ZM153.097 3.07861C153.097 4.89061 153.451 6.39661 154.159 7.59661C154.831 8.72461 155.803 9.80461 157.075 10.8366L156.085 11.8266C154.813 10.8066 153.703 9.54061 152.755 8.02861C152.599 7.78861 152.461 7.53661 152.341 7.27261C152.209 7.57261 152.059 7.86061 151.891 8.13661C150.883 9.74461 149.749 11.0046 148.489 11.9166L147.499 10.9446C148.687 10.0926 149.737 8.91061 150.649 7.39861C151.249 6.42661 151.549 4.98661 151.549 3.07861V0.720608H153.097V3.07861ZM176.912 12.2766V13.6086H163.34V12.2766H176.912ZM170.9 2.66461C170.9 4.03261 171.428 5.23861 172.484 6.28261C173.576 7.35061 174.788 8.08261 176.12 8.47861L175.31 9.57661C173.75 9.03661 172.37 8.16661 171.17 6.96661C170.75 6.54661 170.402 6.09061 170.126 5.59861C169.85 6.09061 169.502 6.54661 169.082 6.96661C167.87 8.16661 166.49 9.03661 164.942 9.57661L164.132 8.47861C165.44 8.05861 166.652 7.32661 167.768 6.28261C168.824 5.27461 169.352 4.06861 169.352 2.66461V0.792608H170.9V2.66461ZM179.271 8.65861V0.810608H184.671V2.10661H180.657V4.05061H184.239V5.31061H180.657V7.38061H182.367C183.387 7.38061 184.527 7.30261 185.787 7.14661V8.40661C184.623 8.57461 183.531 8.65861 182.511 8.65861H179.271ZM187.119 5.31061H185.301V4.01461H187.119V0.270609H188.577V9.01861H187.119V5.31061ZM190.197 0.270609H191.673V9.01861H190.197V0.270609ZM190.197 11.5206H183.483V14.3286H190.197V11.5206ZM191.673 15.5526H182.007V10.2966H191.673V15.5526ZM202.259 0.972608V4.12261C202.259 5.88661 202.091 7.47661 201.755 8.89261H200.261C200.597 7.54861 200.765 5.95261 200.765 4.10461V2.30461H194.753V0.972608H202.259ZM208.163 6.19261V7.59661H206.003V15.5526H204.509V12.2766C203.177 12.4806 201.491 12.5826 199.451 12.5826H193.763V11.2506H196.643V6.13861H198.119V11.2506H199.451C201.395 11.2506 203.081 11.1606 204.509 10.9806V0.270609H206.003V6.19261H208.163ZM218.586 4.71661C218.586 5.24461 218.478 5.74861 218.262 6.22861C218.046 6.70861 217.752 7.12261 217.38 7.47061C216.996 7.83061 216.558 8.11861 216.066 8.33461C215.574 8.53861 215.046 8.64061 214.482 8.64061C213.918 8.64061 213.39 8.53861 212.898 8.33461C212.406 8.11861 211.968 7.83061 211.584 7.47061C211.212 7.12261 210.918 6.70861 210.702 6.22861C210.486 5.74861 210.378 5.24461 210.378 4.71661C210.378 4.18861 210.486 3.68461 210.702 3.20461C210.918 2.72461 211.212 2.31061 211.584 1.96261C211.968 1.60261 212.406 1.32061 212.898 1.11661C213.39 0.900609 213.918 0.792608 214.482 0.792608C215.046 0.792608 215.574 0.900609 216.066 1.11661C216.558 1.32061 216.996 1.60261 217.38 1.96261C217.752 2.31061 218.046 2.72461 218.262 3.20461C218.478 3.68461 218.586 4.18861 218.586 4.71661ZM217.092 4.71661C217.092 4.34461 217.02 4.00261 216.876 3.69061C216.732 3.36661 216.54 3.09061 216.3 2.86261C216.072 2.62261 215.802 2.43061 215.49 2.28661C215.178 2.14261 214.842 2.07061 214.482 2.07061C214.122 2.07061 213.786 2.14261 213.474 2.28661C213.162 2.43061 212.886 2.62261 212.646 2.86261C212.418 3.09061 212.232 3.36661 212.088 3.69061C211.944 4.00261 211.872 4.34461 211.872 4.71661C211.872 5.08861 211.944 5.43661 212.088 5.76061C212.232 6.07261 212.418 6.34861 212.646 6.58861C212.886 6.81661 213.162 7.00261 213.474 7.14661C213.786 7.29061 214.122 7.36261 214.482 7.36261C214.842 7.36261 215.178 7.29061 215.49 7.14661C215.802 7.00261 216.072 6.81661 216.3 6.58861C216.54 6.34861 216.732 6.07261 216.876 5.76061C217.02 5.43661 217.092 5.08861 217.092 4.71661ZM222.096 0.270609V15.5526H220.566V12.1146C219.27 12.3066 217.554 12.4026 215.418 12.4026H209.406V11.0706H215.4C217.488 11.0706 219.21 10.9866 220.566 10.8186V0.270609H222.096ZM11.844 36.8846H1.72799V29.5406H3.23999V31.7006H10.332V29.5406H11.844V36.8846ZM10.332 35.5346V33.0506H3.23999V35.5346H10.332ZM7.54199 40.1786V44.8406H6.02999V40.1786H-1.16453e-05V38.8466H13.572V40.1786H7.54199ZM27.6493 29.6666V30.8906H25.6693V33.8246H27.8653V35.0486H16.3813V33.8246H18.5953V30.8906H16.5973V29.6666H27.6493ZM24.2293 30.8906H20.0353V33.8246H24.2293V30.8906ZM28.9093 36.7046V37.9646H22.8973V39.7106H27.1813V44.5526H17.0653V39.7106H21.3493V37.9646H15.3373V36.7046H28.9093ZM25.6873 40.8986H18.5593V43.3646H25.6873V40.8986ZM36.3445 37.4966V35.2826H38.5585V37.4966H36.3445ZM54.5798 33.6986C54.5798 34.2386 54.4658 34.7546 54.2378 35.2466C54.0218 35.7386 53.7218 36.1646 53.3378 36.5246C52.9418 36.8966 52.4918 37.1906 51.9878 37.4066C51.4838 37.6106 50.9378 37.7126 50.3498 37.7126C49.7618 37.7126 49.2158 37.6106 48.7118 37.4066C48.2078 37.1906 47.7578 36.8966 47.3618 36.5246C46.9778 36.1646 46.6718 35.7386 46.4438 35.2466C46.2278 34.7546 46.1198 34.2386 46.1198 33.6986C46.1198 33.1586 46.2278 32.6426 46.4438 32.1506C46.6718 31.6586 46.9778 31.2326 47.3618 30.8726C47.7578 30.5006 48.2078 30.2126 48.7118 30.0086C49.2158 29.7926 49.7618 29.6846 50.3498 29.6846C50.9378 29.6846 51.4838 29.7926 51.9878 30.0086C52.4918 30.2126 52.9418 30.5006 53.3378 30.8726C53.7218 31.2326 54.0218 31.6586 54.2378 32.1506C54.4658 32.6426 54.5798 33.1586 54.5798 33.6986ZM53.0678 33.6986C53.0678 33.3266 52.9958 32.9786 52.8518 32.6546C52.7078 32.3306 52.5098 32.0486 52.2578 31.8086C52.0178 31.5566 51.7298 31.3586 51.3938 31.2146C51.0578 31.0706 50.7098 30.9986 50.3498 30.9986C49.9898 30.9986 49.6418 31.0706 49.3058 31.2146C48.9698 31.3586 48.6818 31.5566 48.4418 31.8086C48.1898 32.0486 47.9918 32.3306 47.8478 32.6546C47.7038 32.9786 47.6318 33.3266 47.6318 33.6986C47.6318 34.0706 47.7038 34.4186 47.8478 34.7426C47.9918 35.0666 48.1898 35.3546 48.4418 35.6066C48.6818 35.8466 48.9698 36.0386 49.3058 36.1826C49.6418 36.3266 49.9898 36.3986 50.3498 36.3986C50.7098 36.3986 51.0578 36.3266 51.3938 36.1826C51.7298 36.0386 52.0178 35.8466 52.2578 35.6066C52.5098 35.3546 52.7078 35.0666 52.8518 34.7426C52.9958 34.4186 53.0678 34.0706 53.0678 33.6986ZM58.5398 29.2706V40.3406H57.0278V29.2706H58.5398ZM59.0078 44.5526H49.2338V39.8546H50.7638V43.2026H59.0078V44.5526ZM73.6611 30.0806V31.4126H71.6811V36.7766H73.9131V38.1086H62.3571V36.7766H64.6071V31.4126H62.6091V30.0806H73.6611ZM70.2411 31.4126H66.0471V36.7766H70.2411V31.4126ZM74.9211 41.2766V42.6086H61.3491V41.2766H74.9211ZM77.4423 40.8626V34.6166H82.5183V31.1786H77.4423V29.8466H84.0123V35.9126H78.9363V39.5486H81.7263C83.7783 39.5486 85.4643 39.3986 86.7843 39.0986V29.2706H88.2963V34.7426H90.6723V36.1466H88.2963V44.5526H86.7843V40.4126C85.4643 40.7126 83.8083 40.8626 81.8163 40.8626H77.4423ZM108.401 35.4986H106.925C107.177 34.4066 107.303 33.2726 107.303 32.0966V30.9806H98.6273V29.6846H108.815V32.1146C108.815 33.2666 108.677 34.3946 108.401 35.4986ZM110.579 38.3426H106.025C106.229 38.4746 106.433 38.6246 106.637 38.7926C107.009 39.1166 107.303 39.5186 107.519 39.9986C107.747 40.4786 107.861 40.9766 107.861 41.4926C107.861 42.0086 107.747 42.5066 107.519 42.9866C107.303 43.4546 107.015 43.8626 106.655 44.2106C106.259 44.5706 105.809 44.8526 105.305 45.0566C104.813 45.2606 104.279 45.3626 103.703 45.3626C103.127 45.3626 102.587 45.2606 102.083 45.0566C101.591 44.8526 101.147 44.5706 100.751 44.2106C100.391 43.8626 100.097 43.4546 99.8693 42.9866C99.6533 42.5066 99.5453 42.0086 99.5453 41.4926C99.5453 40.9766 99.6533 40.4846 99.8693 40.0166C100.097 39.5366 100.397 39.1286 100.769 38.7926C100.961 38.6246 101.159 38.4746 101.363 38.3426H97.0073V37.0466H101.921V33.5906H103.433V37.0466H110.579V38.3426ZM106.349 41.4746C106.349 41.1146 106.277 40.7786 106.133 40.4666C105.989 40.1546 105.797 39.8786 105.557 39.6386C105.317 39.4106 105.047 39.2306 104.747 39.0986C104.459 38.9546 104.111 38.8826 103.703 38.8826C103.295 38.8826 102.941 38.9546 102.641 39.0986C102.353 39.2306 102.089 39.4106 101.849 39.6386C101.609 39.8786 101.417 40.1546 101.273 40.4666C101.129 40.7786 101.057 41.1146 101.057 41.4746C101.057 41.8346 101.129 42.1706 101.273 42.4826C101.417 42.7946 101.609 43.0706 101.849 43.3106C102.089 43.5386 102.371 43.7186 102.695 43.8506C103.019 43.9946 103.355 44.0666 103.703 44.0666C104.051 44.0666 104.387 43.9946 104.711 43.8506C105.035 43.7186 105.317 43.5386 105.557 43.3106C105.797 43.0706 105.989 42.7946 106.133 42.4826C106.277 42.1706 106.349 41.8346 106.349 41.4746ZM123.109 32.5826C123.109 33.0746 123.001 33.5426 122.785 33.9866C122.581 34.4306 122.299 34.8146 121.939 35.1386C121.579 35.4746 121.159 35.7386 120.679 35.9306C120.199 36.1226 119.683 36.2186 119.131 36.2186C118.579 36.2186 118.063 36.1226 117.583 35.9306C117.103 35.7386 116.683 35.4746 116.323 35.1386C115.963 34.8146 115.675 34.4306 115.459 33.9866C115.255 33.5426 115.153 33.0746 115.153 32.5826C115.153 32.0906 115.255 31.6226 115.459 31.1786C115.675 30.7346 115.963 30.3506 116.323 30.0266C116.683 29.6906 117.103 29.4266 117.583 29.2346C118.063 29.0426 118.579 28.9466 119.131 28.9466C119.683 28.9466 120.199 29.0426 120.679 29.2346C121.159 29.4266 121.579 29.6906 121.939 30.0266C122.299 30.3506 122.581 30.7346 122.785 31.1786C123.001 31.6226 123.109 32.0906 123.109 32.5826ZM121.597 32.5826C121.597 31.9346 121.351 31.3766 120.859 30.9086C120.379 30.4406 119.803 30.2066 119.131 30.2066C118.459 30.2066 117.877 30.4406 117.385 30.9086C116.905 31.3766 116.665 31.9346 116.665 32.5826C116.665 33.2306 116.905 33.7886 117.385 34.2566C117.877 34.7246 118.459 34.9586 119.131 34.9586C119.803 34.9586 120.379 34.7246 120.859 34.2566C121.351 33.7886 121.597 33.2306 121.597 32.5826ZM122.965 35.8406V37.7846H125.917V39.0446H121.597C121.705 39.1286 121.813 39.2186 121.921 39.3146C122.269 39.6266 122.545 40.0046 122.749 40.4486C122.965 40.8926 123.073 41.3486 123.073 41.8166C123.073 42.2846 122.965 42.7406 122.749 43.1846C122.545 43.6286 122.269 44.0066 121.921 44.3186C121.573 44.6426 121.153 44.8946 120.661 45.0746C120.181 45.2666 119.665 45.3626 119.113 45.3626C118.561 45.3626 118.039 45.2666 117.547 45.0746C117.067 44.8946 116.653 44.6426 116.305 44.3186C115.957 44.0066 115.675 43.6286 115.459 43.1846C115.255 42.7406 115.153 42.2846 115.153 41.8166C115.153 41.3486 115.255 40.8926 115.459 40.4486C115.675 40.0046 115.957 39.6266 116.305 39.3146C116.413 39.2186 116.521 39.1286 116.629 39.0446H112.345V37.7846H115.297V35.8406H116.791V37.7846H121.471V35.8406H122.965ZM121.561 41.7806C121.561 41.1446 121.321 40.5926 120.841 40.1246C120.361 39.6566 119.785 39.4226 119.113 39.4226C118.441 39.4226 117.865 39.6566 117.385 40.1246C116.905 40.5926 116.665 41.1446 116.665 41.7806C116.665 42.4166 116.905 42.9686 117.385 43.4366C117.865 43.9046 118.441 44.1386 119.113 44.1386C119.785 44.1386 120.361 43.9046 120.841 43.4366C121.321 42.9686 121.561 42.4166 121.561 41.7806ZM131.696 30.6386V29.0546H133.316V30.6386H136.898V31.8266H134.81C134.942 31.9226 135.068 32.0246 135.188 32.1326C135.524 32.4446 135.788 32.8166 135.98 33.2486C136.184 33.6806 136.286 34.1306 136.286 34.5986C136.286 35.0666 136.184 35.5166 135.98 35.9486C135.788 36.3686 135.524 36.7346 135.188 37.0466C134.84 37.3706 134.438 37.6226 133.982 37.8026C133.754 37.8986 133.514 37.9646 133.262 38.0006V40.3946C135.146 40.3946 136.784 40.3046 138.176 40.1246V29.2706H139.67V35.0306H141.83V36.4706H139.67V44.5526H138.176V41.3846C136.844 41.5886 135.158 41.6906 133.118 41.6906H127.43V40.3946H131.786V38.0186C131.522 37.9706 131.27 37.8986 131.03 37.8026C130.574 37.6226 130.172 37.3706 129.824 37.0466C129.488 36.7346 129.218 36.3686 129.014 35.9486C128.822 35.5166 128.726 35.0666 128.726 34.5986C128.726 34.1306 128.822 33.6806 129.014 33.2486C129.218 32.8166 129.488 32.4446 129.824 32.1326C129.944 32.0246 130.07 31.9226 130.202 31.8266H128.006V30.6386H131.696ZM134.792 34.5446C134.792 33.9206 134.564 33.3866 134.108 32.9426C133.664 32.4866 133.13 32.2586 132.506 32.2586C131.882 32.2586 131.342 32.4866 130.886 32.9426C130.442 33.3866 130.22 33.9206 130.22 34.5446C130.22 35.1686 130.442 35.7086 130.886 36.1646C131.342 36.6086 131.882 36.8306 132.506 36.8306C133.13 36.8306 133.664 36.6086 134.108 36.1646C134.564 35.7086 134.792 35.1686 134.792 34.5446ZM154.935 35.2646H144.747V31.8266H153.351V30.6386H144.747V29.5046H154.863V32.9246H146.259V34.1306H154.935V35.2646ZM143.019 36.4526H156.591V37.6406H143.019V36.4526ZM155.043 44.5526H144.747V41.1146H153.351V39.9626H144.747V38.8286H154.863V42.2486H146.259V43.4186H155.043V44.5526ZM175.184 29.5766V30.8006H166.58V32.3306H175.148V33.5186H166.58V35.0666H175.274V36.2726H170.882V37.8926H176.912V39.0986H172.502C172.646 39.1946 172.778 39.3026 172.898 39.4226C173.246 39.7346 173.522 40.1066 173.726 40.5386C173.942 40.9586 174.05 41.4026 174.05 41.8706C174.05 42.3386 173.942 42.7886 173.726 43.2206C173.522 43.6406 173.246 44.0066 172.898 44.3186C172.55 44.6426 172.136 44.8946 171.656 45.0746C171.176 45.2666 170.66 45.3626 170.108 45.3626C169.556 45.3626 169.04 45.2666 168.56 45.0746C168.08 44.8946 167.666 44.6426 167.318 44.3186C166.97 44.0066 166.688 43.6406 166.472 43.2206C166.268 42.7886 166.166 42.3386 166.166 41.8706C166.166 41.4026 166.268 40.9586 166.472 40.5386C166.688 40.1066 166.97 39.7346 167.318 39.4226C167.438 39.3026 167.57 39.1946 167.714 39.0986H163.34V37.8926H169.37V36.2726H165.068V29.5766H175.184ZM172.538 41.8346C172.538 41.1986 172.298 40.6526 171.818 40.1966C171.35 39.7286 170.78 39.4946 170.108 39.4946C169.436 39.4946 168.86 39.7286 168.38 40.1966C167.912 40.6526 167.678 41.1986 167.678 41.8346C167.678 42.4706 167.912 43.0226 168.38 43.4906C168.86 43.9466 169.436 44.1746 170.108 44.1746C170.78 44.1746 171.35 43.9466 171.818 43.4906C172.298 43.0226 172.538 42.4706 172.538 41.8346ZM182.223 30.5846V29.0186H183.951V30.5846H187.497V31.8626H185.283C185.487 31.9946 185.673 32.1386 185.841 32.2946C186.189 32.6186 186.465 33.0086 186.669 33.4646C186.885 33.9206 186.993 34.3946 186.993 34.8866C186.993 35.3786 186.885 35.8466 186.669 36.2906C186.465 36.7346 186.189 37.1186 185.841 37.4426C185.481 37.7786 185.067 38.0426 184.599 38.2346C184.131 38.4266 183.627 38.5226 183.087 38.5226C182.547 38.5226 182.043 38.4266 181.575 38.2346C181.107 38.0426 180.693 37.7786 180.333 37.4426C179.985 37.1186 179.703 36.7346 179.487 36.2906C179.283 35.8466 179.181 35.3786 179.181 34.8866C179.181 34.3946 179.283 33.9206 179.487 33.4646C179.703 33.0086 179.985 32.6186 180.333 32.2946C180.501 32.1386 180.687 31.9946 180.891 31.8626H178.677V30.5846H182.223ZM185.499 34.7966C185.499 34.1486 185.259 33.5846 184.779 33.1046C184.311 32.6126 183.747 32.3666 183.087 32.3666C182.427 32.3666 181.857 32.6126 181.377 33.1046C180.909 33.5846 180.675 34.1486 180.675 34.7966C180.675 35.4446 180.909 36.0086 181.377 36.4886C181.857 36.9566 182.427 37.1906 183.087 37.1906C183.747 37.1906 184.311 36.9566 184.779 36.4886C185.259 36.0086 185.499 35.4446 185.499 34.7966ZM190.755 29.2706V33.9326H192.915V35.3546H190.755V40.5206H189.243V29.2706H190.755ZM191.205 44.5526H181.449V40.0886H183.015V43.2026H191.205V44.5526ZM210.59 29.2706H212.066V44.5526H210.59V29.2706ZM208.826 44.5526H207.386V35.3366H205.154V33.9686H207.386V29.2706H208.826V44.5526ZM201.824 31.2866H199.142V29.9546H205.622V31.2866H203.282V33.4106C203.282 35.0066 203.57 36.3146 204.146 37.3346C204.758 38.4266 205.478 39.2846 206.306 39.9086L205.442 40.8266C204.422 40.0466 203.576 39.0266 202.904 37.7666C202.784 37.5506 202.676 37.3286 202.58 37.1006C202.472 37.3526 202.346 37.5986 202.202 37.8386C201.302 39.3986 200.456 40.4666 199.664 41.0426L198.638 40.1606C199.514 39.4886 200.288 38.5286 200.96 37.2806C201.536 36.2006 201.824 34.9046 201.824 33.3926V31.2866ZM227.908 41.5826V42.9146H214.336V41.5826H220.366V37.8026H221.878V41.5826H227.908ZM220.348 31.4126H215.956V30.0806H226.288V31.4126H221.896V32.1146C221.896 33.1226 222.424 34.1366 223.48 35.1566C224.572 36.1646 225.766 36.8126 227.062 37.1006L226.342 38.1806C224.746 37.7726 223.354 36.9746 222.166 35.7866C221.746 35.3786 221.398 34.9586 221.122 34.5266C220.846 34.9586 220.498 35.3786 220.078 35.7866C218.878 36.9746 217.486 37.7726 215.902 38.1806L215.182 37.1006C216.478 36.8126 217.672 36.1646 218.764 35.1566C219.82 34.1366 220.348 33.1226 220.348 32.1146V31.4126ZM246.771 32.0426H243.981C244.149 32.1626 244.305 32.2886 244.449 32.4206C244.833 32.7686 245.139 33.1886 245.367 33.6806C245.595 34.1606 245.709 34.6646 245.709 35.1926C245.709 35.7206 245.595 36.2246 245.367 36.7046C245.139 37.1726 244.833 37.5806 244.449 37.9286C244.065 38.2886 243.615 38.5706 243.099 38.7746C242.583 38.9786 242.031 39.0806 241.443 39.0806C240.855 39.0806 240.303 38.9786 239.787 38.7746C239.271 38.5706 238.821 38.2886 238.437 37.9286C238.053 37.5806 237.747 37.1726 237.519 36.7046C237.291 36.2246 237.177 35.7206 237.177 35.1926C237.177 34.6646 237.291 34.1606 237.519 33.6806C237.747 33.1886 238.053 32.7686 238.437 32.4206C238.581 32.2886 238.737 32.1626 238.905 32.0426H236.097V30.7826H240.543V29.0546H242.343V30.7826H246.771V32.0426ZM244.197 35.1386C244.197 34.7666 244.119 34.4186 243.963 34.0946C243.819 33.7706 243.621 33.4826 243.369 33.2306C243.129 33.0026 242.841 32.8166 242.505 32.6726C242.169 32.5286 241.815 32.4566 241.443 32.4566C241.071 32.4566 240.717 32.5286 240.381 32.6726C240.045 32.8166 239.757 33.0026 239.517 33.2306C239.265 33.4826 239.061 33.7706 238.905 34.0946C238.761 34.4186 238.689 34.7666 238.689 35.1386C238.689 35.5106 238.761 35.8586 238.905 36.1826C239.061 36.5066 239.265 36.7946 239.517 37.0466C239.757 37.2746 240.045 37.4606 240.381 37.6046C240.717 37.7486 241.071 37.8206 241.443 37.8206C241.815 37.8206 242.169 37.7486 242.505 37.6046C242.841 37.4606 243.129 37.2746 243.369 37.0466C243.621 36.7946 243.819 36.5066 243.963 36.1826C244.119 35.8586 244.197 35.5106 244.197 35.1386ZM245.295 39.0266V41.6366H248.229V42.9146H234.657V41.6366H237.591V39.0266H239.103V41.6366H243.783V39.0266H245.295ZM260.704 32.3126C260.704 32.7806 260.596 33.2366 260.38 33.6806C260.176 34.1246 259.9 34.4966 259.552 34.7966C259.42 34.9166 259.276 35.0306 259.12 35.1386H263.566V36.3626H260.002V38.0006H261.838V41.8526H253.234V43.3826H262.018V44.5526H251.722V40.6826H260.326V39.1706H251.722V38.0006H253.558V36.3626H249.994V35.1386H254.44C254.284 35.0306 254.14 34.9166 254.008 34.7966C253.66 34.4966 253.378 34.1246 253.162 33.6806C252.958 33.2366 252.856 32.7806 252.856 32.3126C252.856 31.8446 252.958 31.3946 253.162 30.9626C253.378 30.5306 253.66 30.1646 254.008 29.8646C254.356 29.5406 254.77 29.2886 255.25 29.1086C255.73 28.9166 256.24 28.8206 256.78 28.8206C257.32 28.8206 257.83 28.9166 258.31 29.1086C258.79 29.2886 259.204 29.5406 259.552 29.8646C259.9 30.1646 260.176 30.5306 260.38 30.9626C260.596 31.3946 260.704 31.8446 260.704 32.3126ZM259.192 32.3666C259.192 31.7426 258.952 31.2026 258.472 30.7466C258.004 30.2786 257.44 30.0446 256.78 30.0446C256.12 30.0446 255.55 30.2786 255.07 30.7466C254.602 31.2026 254.368 31.7426 254.368 32.3666C254.368 32.9906 254.602 33.5366 255.07 34.0046C255.55 34.4606 256.12 34.6886 256.78 34.6886C257.44 34.6886 258.004 34.4606 258.472 34.0046C258.952 33.5366 259.192 32.9906 259.192 32.3666ZM258.526 38.0006V36.3626H255.034V38.0006H258.526ZM273.861 30.4586V29.0186H275.589V30.4586H279.063V31.6466H276.975C277.131 31.7546 277.275 31.8686 277.407 31.9886C277.743 32.2886 278.007 32.6546 278.199 33.0866C278.403 33.5066 278.505 33.9386 278.505 34.3826C278.505 34.8266 278.403 35.2586 278.199 35.6786C278.007 36.0866 277.743 36.4406 277.407 36.7406C277.071 37.0526 276.669 37.2986 276.201 37.4786C275.745 37.6466 275.253 37.7306 274.725 37.7306C274.197 37.7306 273.699 37.6466 273.231 37.4786C272.775 37.2986 272.379 37.0526 272.043 36.7406C271.707 36.4406 271.437 36.0866 271.233 35.6786C271.041 35.2586 270.945 34.8266 270.945 34.3826C270.945 33.9386 271.041 33.5066 271.233 33.0866C271.437 32.6546 271.707 32.2886 272.043 31.9886C272.175 31.8686 272.319 31.7546 272.475 31.6466H270.387V30.4586H273.861ZM277.011 34.2926C277.011 33.6926 276.783 33.1766 276.327 32.7446C275.883 32.3006 275.349 32.0786 274.725 32.0786C274.101 32.0786 273.561 32.3006 273.105 32.7446C272.661 33.1766 272.439 33.6926 272.439 34.2926C272.439 34.8926 272.661 35.4146 273.105 35.8586C273.561 36.2906 274.101 36.5066 274.725 36.5066C275.349 36.5066 275.883 36.2906 276.327 35.8586C276.783 35.4146 277.011 34.8926 277.011 34.2926ZM282.393 29.2706V31.4486H284.535V32.6906H282.393V34.9766H284.553V36.2186H282.393V38.1986H280.881V29.2706H282.393ZM282.321 41.8706C282.321 42.3386 282.219 42.7886 282.015 43.2206C281.811 43.6526 281.541 44.0186 281.205 44.3186C280.857 44.6426 280.449 44.8946 279.981 45.0746C279.513 45.2666 279.015 45.3626 278.487 45.3626C277.959 45.3626 277.461 45.2666 276.993 45.0746C276.525 44.8946 276.117 44.6426 275.769 44.3186C275.433 44.0186 275.163 43.6526 274.959 43.2206C274.755 42.7886 274.653 42.3386 274.653 41.8706C274.653 41.4026 274.755 40.9526 274.959 40.5206C275.163 40.0886 275.433 39.7226 275.769 39.4226C276.117 39.0986 276.525 38.8466 276.993 38.6666C277.461 38.4746 277.959 38.3786 278.487 38.3786C279.015 38.3786 279.513 38.4746 279.981 38.6666C280.449 38.8466 280.857 39.0986 281.205 39.4226C281.541 39.7226 281.811 40.0886 282.015 40.5206C282.219 40.9526 282.321 41.4026 282.321 41.8706ZM280.809 41.8706C280.809 41.2586 280.581 40.7306 280.125 40.2866C279.669 39.8426 279.123 39.6206 278.487 39.6206C277.851 39.6206 277.305 39.8426 276.849 40.2866C276.393 40.7306 276.165 41.2586 276.165 41.8706C276.165 42.4826 276.393 43.0106 276.849 43.4546C277.305 43.8986 277.851 44.1206 278.487 44.1206C279.123 44.1206 279.669 43.8986 280.125 43.4546C280.581 43.0106 280.809 42.4826 280.809 41.8706ZM297.37 29.2706V32.7986H299.53V34.1666H297.37V37.8926H295.858V29.2706H297.37ZM297.37 41.7626C297.37 42.2426 297.262 42.7046 297.046 43.1486C296.842 43.5926 296.566 43.9766 296.218 44.3006C295.858 44.6246 295.438 44.8826 294.958 45.0746C294.478 45.2666 293.962 45.3626 293.41 45.3626C292.858 45.3626 292.342 45.2666 291.862 45.0746C291.382 44.8826 290.962 44.6246 290.602 44.3006C290.254 43.9766 289.972 43.5926 289.756 43.1486C289.552 42.7046 289.45 42.2426 289.45 41.7626C289.45 41.2826 289.552 40.8206 289.756 40.3766C289.972 39.9326 290.254 39.5486 290.602 39.2246C290.962 38.9006 291.382 38.6426 291.862 38.4506C292.342 38.2586 292.858 38.1626 293.41 38.1626C293.962 38.1626 294.478 38.2586 294.958 38.4506C295.438 38.6426 295.858 38.9006 296.218 39.2246C296.566 39.5486 296.842 39.9326 297.046 40.3766C297.262 40.8206 297.37 41.2826 297.37 41.7626ZM295.858 41.7626C295.858 41.1266 295.618 40.5806 295.138 40.1246C294.658 39.6686 294.082 39.4406 293.41 39.4406C292.738 39.4406 292.162 39.6686 291.682 40.1246C291.202 40.5806 290.962 41.1266 290.962 41.7626C290.962 42.3986 291.202 42.9446 291.682 43.4006C292.162 43.8566 292.738 44.0846 293.41 44.0846C294.082 44.0846 294.658 43.8566 295.138 43.4006C295.618 42.9446 295.858 42.3986 295.858 41.7626ZM290.584 30.9806C290.584 32.1926 290.932 33.2306 291.628 34.0946C292.324 34.9226 293.182 35.6246 294.202 36.2006L293.338 37.2806C292.258 36.7286 291.274 35.9126 290.386 34.8326C290.206 34.6166 290.044 34.3886 289.9 34.1486C289.72 34.5086 289.504 34.8506 289.252 35.1746C288.352 36.3746 287.362 37.2746 286.282 37.8746L285.328 36.8666C286.36 36.3026 287.266 35.4926 288.046 34.4366C288.706 33.5366 289.036 32.3846 289.036 30.9806V29.6666H290.584V30.9806Z" fill="white"/>
</svg>
