<svg width="50" height="58" viewBox="0 0 50 58" fill="none" xmlns="http://www.w3.org/2000/svg">
<g clip-path="url(#clip0_889_7146)">
<path fill-rule="evenodd" clip-rule="evenodd" d="M26.4248 43.4943L47.1467 31.4736V41.8528L26.4248 53.8735V43.4981V43.4943ZM25 16.9717L35.3609 22.9839V35.0199L26.4248 40.2038V29.8284L25 29.0038L23.5752 29.8284V53.8735L14.6391 48.6934V22.9839L25 16.9717ZM11.7857 21.3425V47.0329L2.84954 41.8528V16.1472L11.7857 10.9633V21.3425ZM50 43.4981V14.5019L25 0L0 14.5019V43.4981L25 58L50 43.4981ZM38.2105 21.3425V10.9633L47.1467 16.1472V28.1793L38.2105 33.3632V21.3425ZM26.4248 14.5057V4.13031L35.3609 9.31039V19.6896L26.4248 14.5057ZM23.5714 14.5057L14.6353 19.6896V9.31039L23.5714 4.13031V14.5057Z" fill="white"/>
</g>
<defs>
<clipPath id="clip0_889_7146">
<rect width="50" height="58" fill="white"/>
</clipPath>
</defs>
</svg>
