<svg width="413" height="48" viewBox="0 0 413 48" fill="none" xmlns="http://www.w3.org/2000/svg">
<path d="M3.54648 1.58461V0.0186088H5.27448V1.58461H8.82048V2.86261H6.60648C6.81048 2.99461 6.99648 3.13861 7.16448 3.29461C7.51248 3.61861 7.78848 4.00861 7.99248 4.46461C8.20848 4.92061 8.31648 5.39461 8.31648 5.88661C8.31648 6.37861 8.20848 6.84661 7.99248 7.29061C7.78848 7.73461 7.51248 8.11861 7.16448 8.44261C6.80448 8.77861 6.39048 9.04261 5.92248 9.23461C5.45448 9.42661 4.95048 9.52261 4.41048 9.52261C3.87048 9.52261 3.36648 9.42661 2.89848 9.23461C2.43048 9.04261 2.01648 8.77861 1.65648 8.44261C1.30848 8.11861 1.02648 7.73461 0.810477 7.29061C0.606477 6.84661 0.504477 6.37861 0.504477 5.88661C0.504477 5.39461 0.606477 4.92061 0.810477 4.46461C1.02648 4.00861 1.30848 3.61861 1.65648 3.29461C1.82448 3.13861 2.01048 2.99461 2.21448 2.86261H0.000476636V1.58461H3.54648ZM6.82248 5.79661C6.82248 5.14861 6.58248 4.58461 6.10248 4.10461C5.63448 3.61261 5.07048 3.36661 4.41048 3.36661C3.75048 3.36661 3.18048 3.61261 2.70048 4.10461C2.23248 4.58461 1.99848 5.14861 1.99848 5.79661C1.99848 6.44461 2.23248 7.00861 2.70048 7.48861C3.18048 7.95661 3.75048 8.19061 4.41048 8.19061C5.07048 8.19061 5.63448 7.95661 6.10248 7.48861C6.58248 7.00861 6.82248 6.44461 6.82248 5.79661ZM12.0785 0.270609V4.93261H14.2385V6.35461H12.0785V11.5206H10.5665V0.270609H12.0785ZM12.5285 15.5526H2.77248V11.0886H4.33848V14.2026H12.5285V15.5526ZM25.2377 7.00261C25.5017 5.87461 25.6337 4.66861 25.6337 3.38461V1.98061H16.9577V0.684609H27.1457V3.40261C27.1457 4.66261 27.0017 5.86261 26.7137 7.00261H28.9097V8.31661H22.8977V10.6566H27.1817V15.7506H25.6697V11.9526H16.9577V10.6566H21.3497V8.31661H15.3377V7.00261H25.2377ZM44.247 7.16461V8.46061H38.217V9.77461C38.469 9.81061 38.721 9.87661 38.973 9.97261C39.441 10.1526 39.849 10.3986 40.197 10.7106C40.545 11.0226 40.821 11.3886 41.025 11.8086C41.241 12.2166 41.349 12.6546 41.349 13.1226C41.349 13.5906 41.241 14.0346 41.025 14.4546C40.821 14.8626 40.545 15.2226 40.197 15.5346C39.849 15.8466 39.435 16.0926 38.955 16.2726C38.487 16.4526 37.983 16.5426 37.443 16.5426C36.903 16.5426 36.393 16.4526 35.913 16.2726C35.445 16.0926 35.037 15.8466 34.689 15.5346C34.341 15.2226 34.059 14.8626 33.843 14.4546C33.639 14.0346 33.537 13.5906 33.537 13.1226C33.537 12.6546 33.639 12.2166 33.843 11.8086C34.059 11.3886 34.341 11.0226 34.689 10.7106C35.037 10.3986 35.451 10.1526 35.931 9.97261C36.171 9.87661 36.429 9.80461 36.705 9.75661V8.46061H30.675V7.16461H44.247ZM39.837 13.1046C39.837 12.5046 39.603 11.9946 39.135 11.5746C38.667 11.1426 38.103 10.9266 37.443 10.9266C36.783 10.9266 36.219 11.1426 35.751 11.5746C35.283 11.9946 35.049 12.5046 35.049 13.1046C35.049 13.7046 35.283 14.2206 35.751 14.6526C36.219 15.0726 36.783 15.2826 37.443 15.2826C38.103 15.2826 38.667 15.0726 39.135 14.6526C39.603 14.2206 39.837 13.7046 39.837 13.1046ZM36.669 1.94461H32.295V0.666609H42.627V1.94461H38.289V2.32261C38.289 2.98261 39.039 3.63661 40.539 4.28461C41.283 4.60861 42.249 4.83061 43.437 4.95061L42.987 6.03061C41.499 5.91061 40.143 5.52661 38.919 4.87861C38.319 4.56661 37.839 4.23661 37.479 3.88861C37.119 4.23661 36.639 4.56661 36.039 4.87861C34.815 5.52661 33.459 5.91061 31.971 6.03061L31.521 4.95061C32.709 4.83061 33.675 4.60861 34.419 4.28461C35.919 3.63661 36.669 2.98261 36.669 2.32261V1.94461ZM57.8563 7.88461H47.7403V0.540609H49.2523V2.70061H56.3443V0.540609H57.8563V7.88461ZM56.3443 6.53461V4.05061H49.2523V6.53461H56.3443ZM53.5543 11.1786V15.8406H52.0423V11.1786H46.0123V9.84661H59.5843V11.1786H53.5543ZM68.8735 7.54261H61.8535V0.666609H63.3295V2.68261H67.3975V0.666609H68.8735V7.54261ZM67.3975 6.35461V3.85261H63.3295V6.35461H67.3975ZM73.0675 0.270609V3.38461H75.2275V4.71661H73.0675V7.88461H71.5555V0.270609H73.0675ZM73.2655 15.5526H63.5815V11.7366H71.5555V10.3146H63.5815V9.12661H73.0675V12.9426H65.0935V14.3646H73.2655V15.5526ZM89.2148 0.270609V11.3406H87.7028V5.68861H84.8768V4.35661H87.7028V0.270609H89.2148ZM89.6828 15.5526H79.9088V10.9986H81.4568V14.2206H89.6828V15.5526ZM80.3588 3.38461V2.23261H77.1908V0.882608H85.2368V2.23261H81.9068V3.47461C81.9068 4.54261 82.2668 5.47861 82.9868 6.28261C83.8388 7.24261 84.7568 7.95061 85.7408 8.40661L84.9308 9.43261C83.6708 8.79661 82.5968 7.98661 81.7088 7.00261C81.4928 6.76261 81.3068 6.51661 81.1508 6.26461C80.9828 6.56461 80.7848 6.85261 80.5568 7.12861C79.7168 8.18461 78.7208 9.02461 77.5688 9.64861L76.6148 8.67661C77.6708 8.11261 78.6128 7.31461 79.4408 6.28261C80.0528 5.51461 80.3588 4.54861 80.3588 3.38461ZM104.55 10.6926V15.8406H103.038V10.6926H97.0078V9.36061H110.58V10.6926H104.55ZM104.568 1.71061C104.568 2.77861 105.066 3.72061 106.062 4.53661C107.106 5.40061 108.324 6.06661 109.716 6.53461L108.924 7.59661C107.412 7.12861 106.104 6.41461 105 5.45461C104.508 5.03461 104.106 4.57861 103.794 4.08661C103.482 4.57861 103.08 5.03461 102.588 5.45461C101.484 6.41461 100.176 7.12861 98.6638 7.59661L97.8718 6.53461C99.2638 6.06661 100.482 5.40061 101.526 4.53661C102.522 3.72061 103.02 2.77861 103.02 1.71061V0.324609H104.568V1.71061ZM124.873 0.270609V11.3406H123.361V5.68861H120.535V4.35661H123.361V0.270609H124.873ZM125.341 15.5526H115.567V10.9986H117.115V14.2206H125.341V15.5526ZM116.017 3.38461V2.23261H112.849V0.882608H120.895V2.23261H117.565V3.47461C117.565 4.54261 117.925 5.47861 118.645 6.28261C119.497 7.24261 120.415 7.95061 121.399 8.40661L120.589 9.43261C119.329 8.79661 118.255 7.98661 117.367 7.00261C117.151 6.76261 116.965 6.51661 116.809 6.26461C116.641 6.56461 116.443 6.85261 116.215 7.12861C115.375 8.18461 114.379 9.02461 113.227 9.64861L112.273 8.67661C113.329 8.11261 114.271 7.31461 115.099 6.28261C115.711 5.51461 116.017 4.54861 116.017 3.38461ZM130.508 1.92661V0.270609H132.128V1.92661H135.242V3.15061H133.442C133.658 3.29461 133.856 3.45661 134.036 3.63661C134.384 3.98461 134.66 4.39261 134.864 4.86061C135.068 5.32861 135.17 5.82661 135.17 6.35461C135.17 6.88261 135.068 7.38061 134.864 7.84861C134.66 8.31661 134.384 8.72461 134.036 9.07261C133.688 9.42061 133.28 9.69661 132.812 9.90061C132.344 10.1046 131.846 10.2066 131.318 10.2066C130.79 10.2066 130.292 10.1046 129.824 9.90061C129.356 9.69661 128.948 9.42061 128.6 9.07261C128.252 8.72461 127.976 8.31661 127.772 7.84861C127.568 7.38061 127.466 6.88261 127.466 6.35461C127.466 5.82661 127.568 5.32861 127.772 4.86061C127.976 4.39261 128.252 3.98461 128.6 3.63661C128.78 3.45661 128.978 3.29461 129.194 3.15061H127.34V1.92661H130.508ZM133.82 6.31861C133.82 5.97061 133.754 5.64061 133.622 5.32861C133.49 5.01661 133.31 4.74061 133.082 4.50061C132.854 4.27261 132.59 4.09261 132.29 3.96061C131.99 3.81661 131.672 3.74461 131.336 3.74461C131 3.74461 130.682 3.81661 130.382 3.96061C130.082 4.09261 129.818 4.27261 129.59 4.50061C129.362 4.74061 129.182 5.01661 129.05 5.32861C128.918 5.64061 128.852 5.97061 128.852 6.31861C128.852 6.66661 128.918 6.99661 129.05 7.30861C129.182 7.62061 129.362 7.89661 129.59 8.13661C129.818 8.36461 130.082 8.55061 130.382 8.69461C130.682 8.82661 131 8.89261 131.336 8.89261C131.672 8.89261 131.99 8.82661 132.29 8.69461C132.59 8.55061 132.854 8.36461 133.082 8.13661C133.31 7.89661 133.49 7.62061 133.622 7.30861C133.754 6.99661 133.82 6.66661 133.82 6.31861ZM139.706 0.270609H141.092V15.5526H139.706V6.26461H137.942V15.5526H136.556V0.270609H137.942V4.93261H139.706V0.270609ZM160.315 1.08061V2.41261H158.335V7.77661H160.567V9.10861H149.011V7.77661H151.261V2.41261H149.263V1.08061H160.315ZM156.895 2.41261H152.701V7.77661H156.895V2.41261ZM161.575 12.2766V13.6086H148.003V12.2766H161.575ZM175.275 9.77461H170.883V12.6186H176.913V13.9146H163.341V12.6186H169.371V9.77461H165.069V4.71661H173.673V2.28661H165.069V0.954609H175.185V6.01261H166.581V8.46061H175.275V9.77461ZM190.198 0.270609H191.674V9.07261H190.198V0.270609ZM188.488 9.07261H187.03V5.31061H184.942V4.01461H187.03V0.270609H188.488V9.07261ZM190.18 15.7506V11.7006H181.72V10.3866H191.674V15.7506H190.18ZM181.324 2.19661H178.768V0.882608H185.23V2.19661H182.8V3.34861C182.8 4.34461 183.076 5.20261 183.628 5.92261C184.264 6.76261 184.906 7.42261 185.554 7.90261L184.708 8.85661C183.952 8.34061 183.208 7.60861 182.476 6.66061C182.332 6.46861 182.194 6.27061 182.062 6.06661C181.93 6.30661 181.78 6.54061 181.612 6.76861C180.856 7.81261 180.088 8.58061 179.308 9.07261L178.336 8.10061C179.032 7.66861 179.746 6.96061 180.478 5.97661C181.042 5.25661 181.324 4.38061 181.324 3.34861V2.19661ZM205.859 0.954609V2.28661H197.255V4.87861H205.823V6.19261H197.255V8.82061H205.949V10.1526H195.743V0.954609H205.859ZM207.587 12.6366V13.9686H194.015V12.6366H207.587ZM216.786 5.95861C216.726 6.25861 216.642 6.54061 216.534 6.80461C216.318 7.29661 216.03 7.72261 215.67 8.08261C215.286 8.45461 214.848 8.74861 214.356 8.96461C213.876 9.18061 213.36 9.28861 212.808 9.28861C212.256 9.28861 211.734 9.18061 211.242 8.96461C210.762 8.74861 210.33 8.45461 209.946 8.08261C209.586 7.72261 209.298 7.30261 209.082 6.82261C208.878 6.33061 208.776 5.80261 208.776 5.23861C208.776 4.67461 208.878 4.15261 209.082 3.67261C209.298 3.18061 209.586 2.75461 209.946 2.39461C210.33 2.02261 210.762 1.72861 211.242 1.51261C211.734 1.29661 212.256 1.18861 212.808 1.18861C213.36 1.18861 213.876 1.29661 214.356 1.51261C214.848 1.72861 215.286 2.02261 215.67 2.39461C216.03 2.75461 216.318 3.17461 216.534 3.65461C216.642 3.93061 216.726 4.21861 216.786 4.51861H218.352V0.270609H219.756V15.5526H218.352V5.95861H216.786ZM215.418 5.23861C215.418 4.87861 215.352 4.53061 215.22 4.19461C215.088 3.85861 214.908 3.57061 214.68 3.33061C214.44 3.07861 214.158 2.88061 213.834 2.73661C213.522 2.58061 213.18 2.50261 212.808 2.50261C212.436 2.50261 212.094 2.58061 211.782 2.73661C211.47 2.88061 211.194 3.07861 210.954 3.33061C210.726 3.57061 210.54 3.85861 210.396 4.19461C210.264 4.53061 210.198 4.87861 210.198 5.23861C210.198 5.59861 210.264 5.94661 210.396 6.28261C210.54 6.61861 210.726 6.90661 210.954 7.14661C211.194 7.39861 211.47 7.60261 211.782 7.75861C212.094 7.90261 212.436 7.97461 212.808 7.97461C213.18 7.97461 213.522 7.90261 213.834 7.75861C214.158 7.60261 214.44 7.39861 214.68 7.14661C214.908 6.90661 215.088 6.61861 215.22 6.28261C215.352 5.94661 215.418 5.59861 215.418 5.23861ZM221.394 0.270609H222.834V15.5526H221.394V0.270609ZM241.391 0.270609V4.23061H243.551V5.59861H241.391V8.92861H239.879V0.270609H241.391ZM239.879 11.3766H233.399V14.3286H239.879V11.3766ZM241.391 15.5526H231.905V10.1526H241.391V15.5526ZM234.659 3.04261V3.52861C234.659 4.30861 235.037 5.09461 235.793 5.88661C236.417 6.55861 237.209 7.11661 238.169 7.56061L237.395 8.64061C236.339 8.14861 235.367 7.43461 234.479 6.49861C234.239 6.24661 234.029 5.98861 233.849 5.72461C233.693 5.97661 233.507 6.22861 233.291 6.48061C232.403 7.57261 231.485 8.37661 230.537 8.89261L229.565 7.84861C230.489 7.35661 231.311 6.67861 232.031 5.81461C232.751 4.95061 233.111 4.18861 233.111 3.52861V3.04261H229.673V1.72861H233.111V0.00060904H234.659V1.72861H238.007V3.04261H234.659ZM253.669 5.41861C253.669 5.99461 253.555 6.53461 253.327 7.03861L253.291 7.11061H256.153V3.74461H253.291L253.327 3.78061C253.555 4.29661 253.669 4.84261 253.669 5.41861ZM252.355 8.40661C251.947 8.79061 251.485 9.09061 250.969 9.30661C250.429 9.53461 249.853 9.64861 249.241 9.64861C248.629 9.64861 248.053 9.54061 247.513 9.32461C246.985 9.09661 246.517 8.78461 246.109 8.38861C245.713 8.00461 245.395 7.56061 245.155 7.05661C244.927 6.54061 244.813 5.99461 244.813 5.41861C244.813 4.84261 244.927 4.30261 245.155 3.79861C245.395 3.28261 245.713 2.83261 246.109 2.44861C246.517 2.05261 246.985 1.74661 247.513 1.53061C248.053 1.30261 248.629 1.18861 249.241 1.18861C249.853 1.18861 250.429 1.29661 250.969 1.51261C251.497 1.74061 251.965 2.05261 252.373 2.44861H256.153V0.270609H257.665V15.5526H256.153V8.40661H252.355ZM252.157 5.41861C252.157 5.01061 252.079 4.63261 251.923 4.28461C251.767 3.93661 251.557 3.63061 251.293 3.36661C251.029 3.10261 250.723 2.89261 250.375 2.73661C250.027 2.58061 249.649 2.50261 249.241 2.50261C248.833 2.50261 248.455 2.58061 248.107 2.73661C247.759 2.89261 247.453 3.10261 247.189 3.36661C246.925 3.63061 246.715 3.93661 246.559 4.28461C246.403 4.63261 246.325 5.01061 246.325 5.41861C246.325 5.82661 246.403 6.20461 246.559 6.55261C246.715 6.90061 246.925 7.20661 247.189 7.47061C247.453 7.73461 247.759 7.94461 248.107 8.10061C248.455 8.25661 248.833 8.33461 249.241 8.33461C249.649 8.33461 250.027 8.25661 250.375 8.10061C250.723 7.94461 251.029 7.73461 251.293 7.47061C251.557 7.20661 251.767 6.90061 251.923 6.55261C252.079 6.20461 252.157 5.82661 252.157 5.41861ZM263.174 1.92661V0.270609H264.794V1.92661H267.908V3.15061H266.108C266.324 3.29461 266.522 3.45661 266.702 3.63661C267.05 3.98461 267.326 4.39261 267.53 4.86061C267.734 5.32861 267.836 5.82661 267.836 6.35461C267.836 6.88261 267.734 7.38061 267.53 7.84861C267.326 8.31661 267.05 8.72461 266.702 9.07261C266.354 9.42061 265.946 9.69661 265.478 9.90061C265.01 10.1046 264.512 10.2066 263.984 10.2066C263.456 10.2066 262.958 10.1046 262.49 9.90061C262.022 9.69661 261.614 9.42061 261.266 9.07261C260.918 8.72461 260.642 8.31661 260.438 7.84861C260.234 7.38061 260.132 6.88261 260.132 6.35461C260.132 5.82661 260.234 5.32861 260.438 4.86061C260.642 4.39261 260.918 3.98461 261.266 3.63661C261.446 3.45661 261.644 3.29461 261.86 3.15061H260.006V1.92661H263.174ZM266.486 6.31861C266.486 5.97061 266.42 5.64061 266.288 5.32861C266.156 5.01661 265.976 4.74061 265.748 4.50061C265.52 4.27261 265.256 4.09261 264.956 3.96061C264.656 3.81661 264.338 3.74461 264.002 3.74461C263.666 3.74461 263.348 3.81661 263.048 3.96061C262.748 4.09261 262.484 4.27261 262.256 4.50061C262.028 4.74061 261.848 5.01661 261.716 5.32861C261.584 5.64061 261.518 5.97061 261.518 6.31861C261.518 6.66661 261.584 6.99661 261.716 7.30861C261.848 7.62061 262.028 7.89661 262.256 8.13661C262.484 8.36461 262.748 8.55061 263.048 8.69461C263.348 8.82661 263.666 8.89261 264.002 8.89261C264.338 8.89261 264.656 8.82661 264.956 8.69461C265.256 8.55061 265.52 8.36461 265.748 8.13661C265.976 7.89661 266.156 7.62061 266.288 7.30861C266.42 6.99661 266.486 6.66661 266.486 6.31861ZM272.372 0.270609H273.758V15.5526H272.372V6.26461H270.608V15.5526H269.222V0.270609H270.608V4.93261H272.372V0.270609ZM3.42048 33.6646C2.50848 33.6526 1.54848 33.9166 0.540477 34.4566V33.0706C1.64448 32.5306 2.77248 32.2846 3.92448 32.3326C4.90848 32.3686 5.70648 32.6806 6.31848 33.2686C6.93048 33.8446 7.23648 34.6306 7.23648 35.6266C7.23648 37.0306 6.69648 38.3506 5.61648 39.5866L2.66448 43.0246H7.61448V44.3566H0.324477V43.6006L3.56448 39.8926C4.18848 39.1966 4.69248 38.5186 5.07648 37.8586C5.47248 37.1986 5.67048 36.5206 5.67048 35.8246C5.67048 35.1886 5.49048 34.6726 5.13048 34.2766C4.77048 33.8806 4.20048 33.6766 3.42048 33.6646ZM10.5566 45.0766V42.9526H12.7526V45.0766H10.5566ZM17.5668 37.3546C19.3548 37.2226 20.6928 37.4746 21.5808 38.1106C22.4688 38.7466 22.9128 39.6406 22.9128 40.7926C22.9128 41.8966 22.5168 42.8146 21.7248 43.5466C20.9448 44.2666 19.8168 44.6266 18.3408 44.6266C17.2368 44.6266 16.3308 44.5186 15.6228 44.3026V42.9886C16.4628 43.1806 17.3328 43.2826 18.2328 43.2946C19.2048 43.2946 19.9668 43.0786 20.5188 42.6466C21.0708 42.2026 21.3468 41.6206 21.3468 40.9006C21.3468 40.1446 21.0528 39.5806 20.4648 39.2086C19.8768 38.8246 19.0428 38.6146 17.9628 38.5786C17.3748 38.5546 16.7148 38.5906 15.9828 38.6866V32.5666H22.1928V33.8986H17.5668V37.3546ZM32.0109 44.3566H30.9489L26.9889 34.3126V44.3566H25.5129V32.5666H27.5829L31.4889 42.1246L35.3589 32.5666H37.4469V44.3566H35.9529V34.3126L32.0109 44.3566ZM43.3623 42.4306L46.0263 32.5666H47.7183L50.3103 42.4306L52.8663 32.5846L54.4143 32.5666L51.2103 44.3566H49.5543L46.8723 34.3666L44.1543 44.3566H42.5343L39.3483 32.5666H40.8783L43.3623 42.4306ZM73.2279 31.2706V38.8846H71.7159V35.2666H68.6019V34.0246H71.7159V31.2706H73.2279ZM73.4259 46.5526H63.7419V42.6826H71.7159V41.2246H63.7419V40.0186H73.2279V43.8886H65.2539V45.3466H73.4259V46.5526ZM65.8839 32.8546C65.8839 33.9826 66.2319 34.9606 66.9279 35.7886C67.5759 36.5446 68.4339 37.1566 69.5019 37.6246L68.6739 38.6686C67.5459 38.1886 66.5559 37.4626 65.7039 36.4906C65.4879 36.2506 65.3019 35.9926 65.1459 35.7166C64.9659 36.0406 64.7499 36.3466 64.4979 36.6346C63.6699 37.5946 62.6739 38.3266 61.5099 38.8306L60.5739 37.8406C61.6539 37.3726 62.5479 36.7366 63.2559 35.9326C63.9759 35.1286 64.3359 34.1026 64.3359 32.8546V31.5766H65.8839V32.8546ZM84.1551 42.8086H77.2071V31.8466H78.7011V35.2486H82.6611V31.8466H84.1551V42.8086ZM82.6611 41.4586V36.5806H78.7011V41.4586H82.6611ZM87.0531 31.2706H88.5651V46.5526H87.0531V31.2706ZM109.93 38.1646V39.4606H103.9V40.7746C104.152 40.8106 104.404 40.8766 104.656 40.9726C105.124 41.1526 105.532 41.3986 105.88 41.7106C106.228 42.0226 106.504 42.3886 106.708 42.8086C106.924 43.2166 107.032 43.6546 107.032 44.1226C107.032 44.5906 106.924 45.0346 106.708 45.4546C106.504 45.8626 106.228 46.2226 105.88 46.5346C105.532 46.8466 105.118 47.0926 104.638 47.2726C104.17 47.4526 103.666 47.5426 103.126 47.5426C102.586 47.5426 102.076 47.4526 101.596 47.2726C101.128 47.0926 100.72 46.8466 100.372 46.5346C100.024 46.2226 99.7421 45.8626 99.5261 45.4546C99.3221 45.0346 99.2201 44.5906 99.2201 44.1226C99.2201 43.6546 99.3221 43.2166 99.5261 42.8086C99.7421 42.3886 100.024 42.0226 100.372 41.7106C100.72 41.3986 101.134 41.1526 101.614 40.9726C101.854 40.8766 102.112 40.8046 102.388 40.7566V39.4606H96.3581V38.1646H109.93ZM105.52 44.1046C105.52 43.5046 105.286 42.9946 104.818 42.5746C104.35 42.1426 103.786 41.9266 103.126 41.9266C102.466 41.9266 101.902 42.1426 101.434 42.5746C100.966 42.9946 100.732 43.5046 100.732 44.1046C100.732 44.7046 100.966 45.2206 101.434 45.6526C101.902 46.0726 102.466 46.2826 103.126 46.2826C103.786 46.2826 104.35 46.0726 104.818 45.6526C105.286 45.2206 105.52 44.7046 105.52 44.1046ZM102.352 32.9446H97.9781V31.6666H108.31V32.9446H103.972V33.3226C103.972 33.9826 104.722 34.6366 106.222 35.2846C106.966 35.6086 107.932 35.8306 109.12 35.9506L108.67 37.0306C107.182 36.9106 105.826 36.5266 104.602 35.8786C104.002 35.5666 103.522 35.2366 103.162 34.8886C102.802 35.2366 102.322 35.5666 101.722 35.8786C100.498 36.5266 99.1421 36.9106 97.6541 37.0306L97.2041 35.9506C98.3921 35.8306 99.3581 35.6086 100.102 35.2846C101.602 34.6366 102.352 33.9826 102.352 33.3226V32.9446ZM120.819 44.3566V33.9166L117.831 35.0326V33.7186L120.981 32.4226H122.403V44.3566H120.819ZM133.589 44.3566H132.527L128.567 34.3126V44.3566H127.091V32.5666H129.161L133.067 42.1246L136.937 32.5666H139.025V44.3566H137.531V34.3126L133.589 44.3566ZM144.941 42.4306L147.605 32.5666H149.297L151.889 42.4306L154.445 32.5846L155.993 32.5666L152.789 44.3566H151.133L148.451 34.3666L145.733 44.3566H144.113L140.927 32.5666H142.457L144.941 42.4306ZM169.21 37.2646H159.022V33.8266H167.626V32.6386H159.022V31.5046H169.138V34.9246H160.534V36.1306H169.21V37.2646ZM157.294 38.4526H170.866V39.6406H157.294V38.4526ZM169.318 46.5526H159.022V43.1146H167.626V41.9626H159.022V40.8286H169.138V44.2486H160.534V45.4186H169.318V46.5526ZM189.009 37.4986H187.533C187.785 36.4066 187.911 35.2726 187.911 34.0966V32.9806H179.235V31.6846H189.423V34.1146C189.423 35.2666 189.285 36.3946 189.009 37.4986ZM191.187 40.3426H186.633C186.837 40.4746 187.041 40.6246 187.245 40.7926C187.617 41.1166 187.911 41.5186 188.127 41.9986C188.355 42.4786 188.469 42.9766 188.469 43.4926C188.469 44.0086 188.355 44.5066 188.127 44.9866C187.911 45.4546 187.623 45.8626 187.263 46.2106C186.867 46.5706 186.417 46.8526 185.913 47.0566C185.421 47.2606 184.887 47.3626 184.311 47.3626C183.735 47.3626 183.195 47.2606 182.691 47.0566C182.199 46.8526 181.755 46.5706 181.359 46.2106C180.999 45.8626 180.705 45.4546 180.477 44.9866C180.261 44.5066 180.153 44.0086 180.153 43.4926C180.153 42.9766 180.261 42.4846 180.477 42.0166C180.705 41.5366 181.005 41.1286 181.377 40.7926C181.569 40.6246 181.767 40.4746 181.971 40.3426H177.615V39.0466H182.529V35.5906H184.041V39.0466H191.187V40.3426ZM186.957 43.4746C186.957 43.1146 186.885 42.7786 186.741 42.4666C186.597 42.1546 186.405 41.8786 186.165 41.6386C185.925 41.4106 185.655 41.2306 185.355 41.0986C185.067 40.9546 184.719 40.8826 184.311 40.8826C183.903 40.8826 183.549 40.9546 183.249 41.0986C182.961 41.2306 182.697 41.4106 182.457 41.6386C182.217 41.8786 182.025 42.1546 181.881 42.4666C181.737 42.7786 181.665 43.1146 181.665 43.4746C181.665 43.8346 181.737 44.1706 181.881 44.4826C182.025 44.7946 182.217 45.0706 182.457 45.3106C182.697 45.5386 182.979 45.7186 183.303 45.8506C183.627 45.9946 183.963 46.0666 184.311 46.0666C184.659 46.0666 184.995 45.9946 185.319 45.8506C185.643 45.7186 185.925 45.5386 186.165 45.3106C186.405 45.0706 186.597 44.7946 186.741 44.4826C186.885 44.1706 186.957 43.8346 186.957 43.4746ZM202.925 37.5526C203.141 36.4726 203.249 35.3446 203.249 34.1686V32.9086H194.573V31.6846H204.761V34.2046C204.761 35.3566 204.635 36.4726 204.383 37.5526H206.525V38.8486H192.953V37.5526H202.925ZM204.797 46.5526H194.681V40.2166H196.157V41.7286H203.321V40.2166H204.797V46.5526ZM203.321 45.3826V42.9166H196.157V45.3826H203.321ZM213.364 38.7406C213.364 35.3686 214.384 32.7346 216.424 30.8386L217.486 31.7926C215.794 33.3286 214.948 35.6446 214.948 38.7406C214.948 41.8246 215.794 44.1346 217.486 45.6706L216.424 46.6246C214.384 44.7286 213.364 42.1006 213.364 38.7406ZM222.773 32.5846V31.0186H224.501V32.5846H228.047V33.8626H225.833C226.037 33.9946 226.223 34.1386 226.391 34.2946C226.739 34.6186 227.015 35.0086 227.219 35.4646C227.435 35.9206 227.543 36.3946 227.543 36.8866C227.543 37.3786 227.435 37.8466 227.219 38.2906C227.015 38.7346 226.739 39.1186 226.391 39.4426C226.031 39.7786 225.617 40.0426 225.149 40.2346C224.681 40.4266 224.177 40.5226 223.637 40.5226C223.097 40.5226 222.593 40.4266 222.125 40.2346C221.657 40.0426 221.243 39.7786 220.883 39.4426C220.535 39.1186 220.253 38.7346 220.037 38.2906C219.833 37.8466 219.731 37.3786 219.731 36.8866C219.731 36.3946 219.833 35.9206 220.037 35.4646C220.253 35.0086 220.535 34.6186 220.883 34.2946C221.051 34.1386 221.237 33.9946 221.441 33.8626H219.227V32.5846H222.773ZM226.049 36.7966C226.049 36.1486 225.809 35.5846 225.329 35.1046C224.861 34.6126 224.297 34.3666 223.637 34.3666C222.977 34.3666 222.407 34.6126 221.927 35.1046C221.459 35.5846 221.225 36.1486 221.225 36.7966C221.225 37.4446 221.459 38.0086 221.927 38.4886C222.407 38.9566 222.977 39.1906 223.637 39.1906C224.297 39.1906 224.861 38.9566 225.329 38.4886C225.809 38.0086 226.049 37.4446 226.049 36.7966ZM230.135 35.7166H228.137V34.3126H230.135V31.2706H231.647V42.5206H230.135V39.4426H228.137V38.0386H230.135V35.7166ZM232.187 46.5526H222.161V42.0886H223.781V45.2026H232.187V46.5526ZM235.41 42.5566V31.9546H240.396V33.3226H236.904V41.1886H238.308C239.928 41.1886 241.29 41.0806 242.394 40.8646V31.2706H243.834V36.5266H245.976V31.2706H247.452V46.5526H245.976V37.8586H243.834V46.5526H242.394V42.2326C241.41 42.4486 240.096 42.5566 238.452 42.5566H235.41ZM257.065 36.2206C257.017 36.5086 256.933 36.7846 256.813 37.0486C256.609 37.5166 256.327 37.9306 255.967 38.2906C255.631 38.6386 255.229 38.9146 254.761 39.1186C254.293 39.3226 253.795 39.4246 253.267 39.4246C252.739 39.4246 252.241 39.3226 251.773 39.1186C251.305 38.9146 250.903 38.6386 250.567 38.2906C250.207 37.9306 249.925 37.5166 249.721 37.0486C249.517 36.5806 249.415 36.0826 249.415 35.5546C249.415 35.0266 249.517 34.5286 249.721 34.0606C249.925 33.5926 250.207 33.1786 250.567 32.8186C250.903 32.4706 251.305 32.1946 251.773 31.9906C252.241 31.7866 252.739 31.6846 253.267 31.6846C253.795 31.6846 254.293 31.7866 254.761 31.9906C255.229 32.1946 255.631 32.4706 255.967 32.8186C256.327 33.1786 256.609 33.5926 256.813 34.0606C256.921 34.3006 256.999 34.5526 257.047 34.8166H258.667V31.2706H260.071V42.3406H258.667V36.2206H257.065ZM255.697 35.5546C255.697 34.8466 255.457 34.2406 254.977 33.7366C254.509 33.2206 253.939 32.9626 253.267 32.9626C252.595 32.9626 252.019 33.2206 251.539 33.7366C251.071 34.2406 250.837 34.8466 250.837 35.5546C250.837 36.2626 251.071 36.8746 251.539 37.3906C252.019 37.8946 252.595 38.1466 253.267 38.1466C253.939 38.1466 254.509 37.8946 254.977 37.3906C255.457 36.8746 255.697 36.2626 255.697 35.5546ZM261.619 31.2706H263.041V42.3406H261.619V31.2706ZM263.167 46.5526H253.087V41.8006H254.599V45.2206H263.167V46.5526ZM276.147 31.2706H277.659V46.5526H276.147V31.2706ZM268.965 34.9066V33.3046H265.653V31.9546H273.717V33.3046H270.513V34.8706C270.501 36.3706 270.855 37.6906 271.575 38.8306C272.259 39.9226 273.165 40.9486 274.293 41.9086L273.375 42.8446C272.199 41.8726 271.137 40.6606 270.189 39.2086C270.033 38.9686 269.889 38.7286 269.757 38.4886C269.601 38.8486 269.409 39.1966 269.181 39.5326C268.197 41.0326 267.111 42.1906 265.923 43.0066L264.915 42.0346C266.043 41.2786 267.033 40.2286 267.885 38.8846C268.605 37.7326 268.965 36.4066 268.965 34.9066ZM281.746 42.2866V31.8826H283.258V40.9186H286.21C288.25 40.9186 290.008 40.7926 291.484 40.5406V31.2706H292.996V46.5526H291.484V41.9266C290.08 42.1666 288.334 42.2866 286.246 42.2866H281.746ZM304.409 37.0846C304.349 37.4206 304.253 37.7386 304.121 38.0386C303.881 38.5546 303.563 39.0046 303.167 39.3886C302.759 39.7846 302.285 40.0966 301.745 40.3246C301.217 40.5406 300.647 40.6486 300.035 40.6486C299.423 40.6486 298.847 40.5406 298.307 40.3246C297.779 40.0966 297.311 39.7846 296.903 39.3886C296.507 39.0046 296.189 38.5606 295.949 38.0566C295.721 37.5406 295.607 36.9946 295.607 36.4186C295.607 35.8426 295.721 35.3026 295.949 34.7986C296.189 34.2826 296.507 33.8326 296.903 33.4486C297.311 33.0526 297.779 32.7466 298.307 32.5306C298.847 32.3026 299.423 32.1886 300.035 32.1886C300.647 32.1886 301.217 32.3026 301.745 32.5306C302.285 32.7466 302.759 33.0526 303.167 33.4486C303.563 33.8326 303.881 34.2766 304.121 34.7806C304.253 35.0806 304.349 35.3926 304.409 35.7166H306.947V31.2706H308.459V46.5526H306.947V37.0846H304.409ZM302.951 36.4186C302.951 36.0106 302.873 35.6326 302.717 35.2846C302.561 34.9366 302.351 34.6306 302.087 34.3666C301.823 34.1026 301.517 33.8926 301.169 33.7366C300.821 33.5806 300.443 33.5026 300.035 33.5026C299.627 33.5026 299.249 33.5806 298.901 33.7366C298.553 33.8926 298.247 34.1026 297.983 34.3666C297.719 34.6306 297.509 34.9366 297.353 35.2846C297.197 35.6326 297.119 36.0106 297.119 36.4186C297.119 36.8266 297.197 37.2046 297.353 37.5526C297.509 37.9006 297.719 38.2066 297.983 38.4706C298.247 38.7346 298.553 38.9446 298.901 39.1006C299.249 39.2566 299.627 39.3346 300.035 39.3346C300.443 39.3346 300.821 39.2566 301.169 39.1006C301.517 38.9446 301.823 38.7346 302.087 38.4706C302.351 38.2066 302.561 37.9006 302.717 37.5526C302.873 37.2046 302.951 36.8266 302.951 36.4186ZM312.132 39.5866V35.0506H317.496V33.0886H312.132V31.8106H318.954V36.2926H313.59V38.3266H316.884C319.092 38.3266 320.85 38.1886 322.158 37.9126V31.2706H323.67V40.2346H322.158V39.1546C320.934 39.4426 319.212 39.5866 316.992 39.5866H312.132ZM323.31 43.9606C323.31 44.4166 323.208 44.8546 323.004 45.2746C322.8 45.6826 322.53 46.0426 322.194 46.3546C321.858 46.6666 321.456 46.9126 320.988 47.0926C320.532 47.2726 320.04 47.3626 319.512 47.3626C318.984 47.3626 318.486 47.2726 318.018 47.0926C317.562 46.9126 317.166 46.6666 316.83 46.3546C316.494 46.0426 316.224 45.6826 316.02 45.2746C315.816 44.8546 315.714 44.4166 315.714 43.9606C315.714 43.5046 315.816 43.0726 316.02 42.6646C316.224 42.2446 316.494 41.8786 316.83 41.5666C317.166 41.2546 317.562 41.0086 318.018 40.8286C318.486 40.6486 318.984 40.5586 319.512 40.5586C320.04 40.5586 320.532 40.6486 320.988 40.8286C321.456 41.0086 321.858 41.2546 322.194 41.5666C322.53 41.8786 322.8 42.2446 323.004 42.6646C323.208 43.0726 323.31 43.5046 323.31 43.9606ZM321.798 43.9606C321.798 43.3606 321.57 42.8506 321.114 42.4306C320.67 42.0106 320.136 41.8006 319.512 41.8006C318.888 41.8006 318.348 42.0106 317.892 42.4306C317.448 42.8506 317.226 43.3606 317.226 43.9606C317.226 44.5606 317.448 45.0706 317.892 45.4906C318.348 45.9106 318.888 46.1206 319.512 46.1206C320.136 46.1206 320.67 45.9106 321.114 45.4906C321.57 45.0706 321.798 44.5606 321.798 43.9606ZM343.991 31.2706V38.8846H342.479V35.2666H339.365V34.0246H342.479V31.2706H343.991ZM344.189 46.5526H334.505V42.6826H342.479V41.2246H334.505V40.0186H343.991V43.8886H336.017V45.3466H344.189V46.5526ZM336.647 32.8546C336.647 33.9826 336.995 34.9606 337.691 35.7886C338.339 36.5446 339.197 37.1566 340.265 37.6246L339.437 38.6686C338.309 38.1886 337.319 37.4626 336.467 36.4906C336.251 36.2506 336.065 35.9926 335.909 35.7166C335.729 36.0406 335.513 36.3466 335.261 36.6346C334.433 37.5946 333.437 38.3266 332.273 38.8306L331.337 37.8406C332.417 37.3726 333.311 36.7366 334.019 35.9326C334.739 35.1286 335.099 34.1026 335.099 32.8546V31.5766H336.647V32.8546ZM357.817 31.2706H359.329V46.5526H357.817V31.2706ZM350.671 35.3566V34.2046H346.963V32.8366H350.671V31.0006H352.219V32.8366H355.711V34.2046H352.219V35.4106C352.219 36.4666 352.573 37.6786 353.281 39.0466C353.869 40.1866 354.787 41.2666 356.035 42.2866L355.081 43.2586C353.773 42.1786 352.717 40.9606 351.913 39.6046C351.733 39.2926 351.571 38.9806 351.427 38.6686C351.271 39.0046 351.091 39.3346 350.887 39.6586C349.987 41.0866 348.925 42.3046 347.701 43.3126L346.639 42.3766C347.803 41.4046 348.781 40.2826 349.573 39.0106C350.305 37.8586 350.671 36.6406 350.671 35.3566ZM367.808 39.4966V37.2826H370.022V39.4966H367.808ZM388.707 35.1406C388.707 35.7046 388.587 36.2386 388.347 36.7426C388.119 37.2346 387.801 37.6666 387.393 38.0386C387.153 38.2666 386.889 38.4646 386.601 38.6326H391.047V39.9826H385.215V43.1506H383.667V39.9826H377.475V38.6326H381.921C381.633 38.4646 381.363 38.2666 381.111 38.0386C380.715 37.6666 380.397 37.2346 380.157 36.7426C379.929 36.2386 379.815 35.7046 379.815 35.1406C379.815 34.5766 379.929 34.0486 380.157 33.5566C380.397 33.0526 380.715 32.6146 381.111 32.2426C381.531 31.8586 382.005 31.5586 382.533 31.3426C383.073 31.1266 383.649 31.0186 384.261 31.0186C384.861 31.0186 385.431 31.1266 385.971 31.3426C386.511 31.5586 386.985 31.8586 387.393 32.2426C387.801 32.6146 388.119 33.0526 388.347 33.5566C388.587 34.0486 388.707 34.5766 388.707 35.1406ZM387.195 35.2126C387.195 34.8286 387.117 34.4626 386.961 34.1146C386.805 33.7546 386.595 33.4426 386.331 33.1786C386.067 32.9266 385.755 32.7226 385.395 32.5666C385.047 32.4106 384.669 32.3326 384.261 32.3326C383.853 32.3326 383.469 32.4106 383.109 32.5666C382.761 32.7226 382.455 32.9266 382.191 33.1786C381.927 33.4426 381.717 33.7546 381.561 34.1146C381.405 34.4626 381.327 34.8286 381.327 35.2126C381.327 35.5966 381.405 35.9686 381.561 36.3286C381.717 36.6766 381.927 36.9826 382.191 37.2466C382.455 37.4986 382.761 37.7026 383.109 37.8586C383.469 38.0146 383.853 38.0926 384.261 38.0926C384.669 38.0926 385.047 38.0146 385.395 37.8586C385.755 37.7026 386.067 37.4986 386.331 37.2466C386.595 36.9826 386.805 36.6766 386.961 36.3286C387.117 35.9686 387.195 35.5966 387.195 35.2126ZM389.535 46.5526H379.203V42.3586H380.769V45.2026H389.535V46.5526ZM400.949 35.3746C400.949 35.8426 400.859 36.2926 400.679 36.7246H403.829V34.0066H400.661C400.853 34.4386 400.949 34.8946 400.949 35.3746ZM399.869 37.9126C399.845 37.9486 399.815 37.9786 399.779 38.0026C399.407 38.3506 398.975 38.6266 398.483 38.8306C398.003 39.0226 397.487 39.1186 396.935 39.1186C396.383 39.1186 395.861 39.0226 395.369 38.8306C394.889 38.6266 394.463 38.3506 394.091 38.0026C393.731 37.6666 393.443 37.2706 393.227 36.8146C393.023 36.3586 392.921 35.8786 392.921 35.3746C392.921 34.8706 393.023 34.3906 393.227 33.9346C393.443 33.4786 393.731 33.0826 394.091 32.7466C394.463 32.3986 394.889 32.1286 395.369 31.9366C395.861 31.7326 396.383 31.6306 396.935 31.6306C397.487 31.6306 398.003 31.7326 398.483 31.9366C398.975 32.1286 399.407 32.3986 399.779 32.7466L399.851 32.8186H403.829V31.2706H405.341V39.8926H403.829V37.9126H399.869ZM399.437 35.3746C399.437 34.7026 399.191 34.1266 398.699 33.6466C398.207 33.1546 397.619 32.9086 396.935 32.9086C396.251 32.9086 395.663 33.1546 395.171 33.6466C394.679 34.1266 394.433 34.7026 394.433 35.3746C394.433 36.0466 394.679 36.6286 395.171 37.1206C395.663 37.6006 396.251 37.8406 396.935 37.8406C397.619 37.8406 398.207 37.6006 398.699 37.1206C399.191 36.6286 399.437 36.0466 399.437 35.3746ZM405.053 43.6906C405.053 44.1826 404.945 44.6566 404.729 45.1126C404.525 45.5566 404.249 45.9406 403.901 46.2646C403.541 46.6006 403.121 46.8646 402.641 47.0566C402.173 47.2606 401.663 47.3626 401.111 47.3626C400.559 47.3626 400.043 47.2606 399.563 47.0566C399.095 46.8646 398.681 46.6006 398.321 46.2646C397.973 45.9406 397.691 45.5566 397.475 45.1126C397.271 44.6566 397.169 44.1826 397.169 43.6906C397.169 43.1986 397.271 42.7306 397.475 42.2866C397.691 41.8306 397.973 41.4406 398.321 41.1166C398.681 40.7806 399.095 40.5166 399.563 40.3246C400.043 40.1206 400.559 40.0186 401.111 40.0186C401.663 40.0186 402.173 40.1206 402.641 40.3246C403.121 40.5166 403.541 40.7806 403.901 41.1166C404.249 41.4406 404.525 41.8306 404.729 42.2866C404.945 42.7306 405.053 43.1986 405.053 43.6906ZM403.541 43.6906C403.541 43.0306 403.301 42.4666 402.821 41.9986C402.353 41.5306 401.783 41.2966 401.111 41.2966C400.439 41.2966 399.863 41.5306 399.383 41.9986C398.915 42.4666 398.681 43.0306 398.681 43.6906C398.681 44.3506 398.915 44.9146 399.383 45.3826C399.863 45.8506 400.439 46.0846 401.111 46.0846C401.783 46.0846 402.353 45.8506 402.821 45.3826C403.301 44.9146 403.541 44.3506 403.541 43.6906ZM412.146 38.7406C412.146 42.1006 411.126 44.7286 409.086 46.6246L408.024 45.6706C409.716 44.1346 410.562 41.8246 410.562 38.7406C410.562 35.6446 409.716 33.3286 408.024 31.7926L409.086 30.8386C411.126 32.7346 412.146 35.3686 412.146 38.7406Z" fill="black"/>
</svg>
