<svg width="235" height="26" viewBox="0 0 235 26" fill="none" xmlns="http://www.w3.org/2000/svg">
<path d="M7.0625 11.6562H12.0625V7.10938H13.7969V17.9688H12.0625V13.2031H7.0625V17.9688H5.32812V7.10938H7.0625V11.6562ZM17.305 12.5469C17.305 13.8073 17.6383 14.7865 18.305 15.4844C18.9821 16.1823 19.8363 16.5312 20.8675 16.5312C21.8988 16.5312 22.7477 16.1823 23.4144 15.4844C24.081 14.7865 24.4144 13.8073 24.4144 12.5469C24.4144 11.2865 24.081 10.3073 23.4144 9.60938C22.7477 8.91146 21.8988 8.5625 20.8675 8.5625C19.8363 8.5625 18.9821 8.91146 18.305 9.60938C17.6383 10.3073 17.305 11.2865 17.305 12.5469ZM15.5863 12.5469C15.5863 10.9323 16.0758 9.60938 17.055 8.57812C18.0446 7.53646 19.3154 7.01562 20.8675 7.01562C22.43 7.01562 23.7008 7.53646 24.68 8.57812C25.6696 9.60938 26.1644 10.9323 26.1644 12.5469C26.1644 14.1615 25.6696 15.4896 24.68 16.5312C23.7008 17.5625 22.43 18.0781 20.8675 18.0781C19.3154 18.0781 18.0446 17.5625 17.055 16.5312C16.0758 15.4896 15.5863 14.1615 15.5863 12.5469ZM34.0006 17.9688H32.8288L29.5788 9.78125V17.9688H27.9538V7.10938H30.0631L33.4225 15.3125L36.7663 7.10938H38.8756V17.9688H37.235V9.78125L34.0006 17.9688ZM42.9463 16.4062H48.29V17.9688H41.2119V7.10938H48.165V8.67188H42.9463V11.6562H47.6806V13.2031H42.9463V16.4062ZM59.025 13.6562V11.375H61.2906V13.6562H59.025ZM76.76 17.9688H75.0413V8.67188H71.5256V7.10938H80.2756V8.67188H76.76V17.9688ZM81.7056 13.4219H85.2994C85.2681 12.8177 85.1067 12.3385 84.815 11.9844C84.5233 11.6198 84.0806 11.4375 83.4869 11.4375C82.9348 11.4375 82.5077 11.6198 82.2056 11.9844C81.9035 12.3385 81.7369 12.8177 81.7056 13.4219ZM81.69 14.8594C81.7629 15.4115 81.9869 15.8438 82.3619 16.1562C82.7473 16.4688 83.2629 16.6354 83.9088 16.6562C84.7108 16.6979 85.6171 16.6042 86.6275 16.375V17.8594C85.7213 18.1094 84.815 18.2188 83.9088 18.1875C82.69 18.1771 81.7265 17.8229 81.0181 17.125C80.3098 16.4167 79.9556 15.3906 79.9556 14.0469C79.9556 12.776 80.2942 11.7708 80.9713 11.0312C81.6483 10.2917 82.4869 9.92188 83.4869 9.92188C84.5285 9.92188 85.3775 10.2969 86.0338 11.0469C86.7004 11.7969 87.0338 12.7969 87.0338 14.0469V14.8594H81.69ZM89.9325 14.0312C89.9325 14.7708 90.1252 15.3594 90.5106 15.7969C90.9898 16.3281 91.6929 16.5938 92.62 16.5938C93.3596 16.5938 94.0367 16.5208 94.6513 16.375V17.8906C93.8908 18.1094 93.1408 18.1979 92.4013 18.1562C91.0575 18.0833 90.0158 17.6823 89.2763 16.9531C88.5471 16.2135 88.1825 15.2396 88.1825 14.0312C88.1825 12.8229 88.5471 11.8542 89.2763 11.125C90.0158 10.3958 91.0575 9.99479 92.4013 9.92188C93.1096 9.88021 93.844 9.96875 94.6044 10.1875V11.7188C93.9898 11.5625 93.3283 11.4844 92.62 11.4844C91.6929 11.4844 90.9898 11.7552 90.5106 12.2969C90.1252 12.7135 89.9325 13.2917 89.9325 14.0312ZM96.3156 6.89062H98.0344V10.9531C98.6594 10.2656 99.4094 9.92188 100.284 9.92188C101.076 9.92188 101.769 10.1771 102.363 10.6875C102.967 11.1875 103.269 12.0156 103.269 13.1719V17.9688H101.55V13.1875C101.55 12.0521 101.003 11.4844 99.9094 11.4844C99.1906 11.4844 98.5656 11.9531 98.0344 12.8906V17.9688H96.3156V6.89062ZM105.433 13.2031C105.433 12.1094 105.74 11.2917 106.355 10.75C106.98 10.2083 107.839 9.9375 108.933 9.9375C110.027 9.9375 110.881 10.224 111.496 10.7969C112.11 11.3698 112.418 12.1667 112.418 13.1875V17.9688H110.699V13.25C110.699 12.0833 110.11 11.5 108.933 11.5C107.746 11.5 107.152 12.0833 107.152 13.25V17.9688H105.433V13.2031ZM122.316 14.0469C122.316 15.2552 121.915 16.2448 121.113 17.0156C120.311 17.7865 119.337 18.1719 118.191 18.1719C117.087 18.1719 116.124 17.7917 115.301 17.0312C114.478 16.2604 114.066 15.2656 114.066 14.0469C114.066 12.8177 114.467 11.8229 115.269 11.0625C116.082 10.3021 117.056 9.92188 118.191 9.92188C119.337 9.92188 120.311 10.3073 121.113 11.0781C121.915 11.849 122.316 12.8385 122.316 14.0469ZM115.785 14.0469C115.785 14.8177 116.009 15.4427 116.457 15.9219C116.905 16.3906 117.483 16.625 118.191 16.625C118.91 16.625 119.493 16.3906 119.941 15.9219C120.389 15.4427 120.613 14.8177 120.613 14.0469C120.613 13.276 120.389 12.6562 119.941 12.1875C119.493 11.7083 118.91 11.4688 118.191 11.4688C117.483 11.4688 116.905 11.7083 116.457 12.1875C116.009 12.6562 115.785 13.276 115.785 14.0469ZM123.996 17.9688V6.89062H125.715V17.9688H123.996ZM135.629 14.0469C135.629 15.2552 135.228 16.2448 134.426 17.0156C133.624 17.7865 132.65 18.1719 131.504 18.1719C130.4 18.1719 129.437 17.7917 128.614 17.0312C127.791 16.2604 127.379 15.2656 127.379 14.0469C127.379 12.8177 127.78 11.8229 128.582 11.0625C129.395 10.3021 130.369 9.92188 131.504 9.92188C132.65 9.92188 133.624 10.3073 134.426 11.0781C135.228 11.849 135.629 12.8385 135.629 14.0469ZM129.098 14.0469C129.098 14.8177 129.322 15.4427 129.77 15.9219C130.218 16.3906 130.796 16.625 131.504 16.625C132.223 16.625 132.806 16.3906 133.254 15.9219C133.702 15.4427 133.926 14.8177 133.926 14.0469C133.926 13.276 133.702 12.6562 133.254 12.1875C132.806 11.7083 132.223 11.4688 131.504 11.4688C130.796 11.4688 130.218 11.7083 129.77 12.1875C129.322 12.6562 129.098 13.276 129.098 14.0469ZM140.575 16.4375C141.273 16.4375 141.867 16.0625 142.356 15.3125V12.3906C141.773 11.776 141.179 11.4688 140.575 11.4688C139.95 11.4688 139.455 11.7188 139.091 12.2188C138.726 12.7188 138.544 13.3073 138.544 13.9844C138.544 14.6719 138.731 15.2552 139.106 15.7344C139.481 16.2031 139.971 16.4375 140.575 16.4375ZM142.356 17.5625V17.1406C141.762 17.7031 141.059 17.9844 140.247 17.9844C139.247 17.9844 138.445 17.6406 137.841 16.9531C137.143 16.1927 136.794 15.1979 136.794 13.9688C136.794 12.8021 137.143 11.8073 137.841 10.9844C138.445 10.276 139.247 9.92188 140.247 9.92188C141.174 9.92188 141.929 10.2083 142.512 10.7812V10.125H144.091V16.8594C144.091 18.3802 143.752 19.4479 143.075 20.0625C142.367 20.7083 141.382 21.0469 140.122 21.0781C139.289 21.1094 138.476 21.0469 137.684 20.8906V19.4062C138.445 19.5833 139.226 19.6406 140.028 19.5781C140.861 19.526 141.455 19.3333 141.809 19C142.174 18.6667 142.356 18.1875 142.356 17.5625ZM145.255 10.125H147.021L149.068 15.5781L151.333 10.125H153.083L148.489 21.0781H146.771L148.208 17.6406L145.255 10.125ZM163.287 13.6562V11.375H165.553V13.6562H163.287ZM183.35 15.6094V20.1719H181.616V15.6094H176.256V14.0312H188.709V15.6094H183.35ZM183.366 7.29688C183.366 8.27604 183.788 9.11458 184.631 9.8125C185.538 10.5521 186.678 11.1562 188.053 11.625L187.116 12.8594C185.657 12.4115 184.428 11.75 183.428 10.875C183.053 10.5625 182.735 10.2292 182.475 9.875C182.225 10.2292 181.913 10.5625 181.538 10.875C180.538 11.75 179.308 12.4115 177.85 12.8594L176.913 11.625C178.288 11.1562 179.428 10.5521 180.334 9.8125C181.178 9.11458 181.6 8.27604 181.6 7.29688V6.01562H183.366V7.29688ZM202.342 16.8906V18.4688H189.889V16.8906H195.249V13.8594H196.983V16.8906H202.342ZM196.999 7.8125C196.999 9.04167 197.452 10.0677 198.358 10.8906C199.348 11.7969 200.514 12.4531 201.858 12.8594L200.905 14.125C199.238 13.5729 197.879 12.7396 196.827 11.625C196.556 11.3438 196.316 11.0469 196.108 10.7344C195.91 11.0469 195.676 11.3438 195.405 11.625C194.353 12.7396 192.994 13.5729 191.327 14.125L190.374 12.8594C191.717 12.4531 192.884 11.7969 193.874 10.8906C194.78 10.0677 195.233 9.04167 195.233 7.8125V6.39062H196.999V7.8125ZM213.757 10.8438H212.257V13.9375C212.434 13.9792 212.601 14.0312 212.757 14.0938C213.205 14.2812 213.601 14.5208 213.944 14.8125C214.267 15.125 214.528 15.4948 214.726 15.9219C214.924 16.3385 215.023 16.776 215.023 17.2344C215.023 17.6927 214.924 18.1354 214.726 18.5625C214.528 18.9792 214.267 19.3438 213.944 19.6562C213.601 19.9479 213.2 20.1823 212.741 20.3594C212.293 20.5469 211.814 20.6406 211.304 20.6406C210.793 20.6406 210.309 20.5469 209.851 20.3594C209.403 20.1823 209.007 19.9479 208.663 19.6562C208.33 19.3438 208.064 18.9792 207.866 18.5625C207.668 18.1354 207.569 17.6927 207.569 17.2344C207.569 16.776 207.668 16.3385 207.866 15.9219C208.064 15.4948 208.33 15.125 208.663 14.8125C209.007 14.5208 209.408 14.2812 209.866 14.0938C210.095 14 210.335 13.9323 210.585 13.8906V5.95312H212.257V9.29688H213.757V5.95312H215.46V14.1094H213.757V10.8438ZM213.304 17.2344C213.304 16.724 213.106 16.2812 212.71 15.9062C212.314 15.5312 211.845 15.3438 211.304 15.3438C210.762 15.3438 210.293 15.5312 209.898 15.9062C209.502 16.2812 209.304 16.724 209.304 17.2344C209.304 17.7448 209.502 18.1875 209.898 18.5625C210.293 18.9375 210.762 19.125 211.304 19.125C211.845 19.125 212.314 18.9375 212.71 18.5625C213.106 18.1875 213.304 17.7448 213.304 17.2344ZM207.569 7.89062C207.569 9.13021 207.804 10.125 208.273 10.875C208.783 11.6458 209.403 12.3281 210.132 12.9219L209.023 13.9844C208.22 13.3177 207.523 12.5625 206.929 11.7188L206.741 11.3906L206.523 11.75C205.804 12.8125 205.023 13.6615 204.179 14.2969L202.991 13.2031C203.825 12.6094 204.543 11.8281 205.148 10.8594C205.648 10.0677 205.898 9.07292 205.898 7.875V6.32812H207.569V7.89062ZM227.952 5.95312V9.64062H229.874V11.2344H227.952V16.1719H226.234V5.95312H227.952ZM228.359 19.9219H219.296V15.4375H221.062V18.375H228.359V19.9219ZM221.921 7.65625C221.921 9.0625 222.223 10.1823 222.827 11.0156C223.515 11.9635 224.354 12.7552 225.343 13.3906L224.312 14.5625C223.27 13.9062 222.312 13.0104 221.437 11.875C221.291 11.6979 221.161 11.5052 221.046 11.2969C220.921 11.526 220.781 11.7448 220.624 11.9531C219.791 13.151 218.843 14.0833 217.781 14.75L216.624 13.625C217.666 12.9896 218.541 12.151 219.249 11.1094C219.864 10.224 220.171 9.07292 220.171 7.65625V6.32812H221.921V7.65625Z" fill="white"/>
</svg>
