<svg width="181" height="26" viewBox="0 0 181 26" fill="none" xmlns="http://www.w3.org/2000/svg">
<path d="M4.64844 2.32422V0H7.84766V2.32422H12.3867V4.83984H10.2539C10.3268 4.89453 10.3997 4.95833 10.4727 5.03125C11.0195 5.5599 11.4479 6.16146 11.7578 6.83594C12.0677 7.51042 12.2227 8.23958 12.2227 9.02344C12.2227 9.80729 12.0677 10.5456 11.7578 11.2383C11.4479 11.9128 11.0195 12.5143 10.4727 13.043C9.92578 13.5534 9.28776 13.9544 8.55859 14.2461C7.82943 14.5378 7.05469 14.6836 6.23438 14.6836C5.41406 14.6836 4.63932 14.5378 3.91016 14.2461C3.18099 13.9544 2.55208 13.5534 2.02344 13.043C1.47656 12.5143 1.03906 11.9128 0.710938 11.2383C0.401042 10.5456 0.246094 9.80729 0.246094 9.02344C0.246094 8.23958 0.401042 7.51042 0.710938 6.83594C1.03906 6.16146 1.47656 5.5599 2.02344 5.03125C2.09635 4.95833 2.16927 4.89453 2.24219 4.83984H0V2.32422H4.64844ZM9.37891 8.91406C9.37891 8.07552 9.06901 7.35547 8.44922 6.75391C7.82943 6.15234 7.09115 5.85156 6.23438 5.85156C5.3776 5.85156 4.63932 6.15234 4.01953 6.75391C3.41797 7.35547 3.11719 8.07552 3.11719 8.91406C3.11719 9.7526 3.41797 10.4818 4.01953 11.1016C4.63932 11.7031 5.3776 12.0039 6.23438 12.0039C7.09115 12.0039 7.82943 11.7031 8.44922 11.1016C9.06901 10.4818 9.37891 9.7526 9.37891 8.91406ZM18.5938 0.382812H21.4375V15.2852H18.5938V9.81641H16.3789V15.2852H13.5898V0.382812H16.3789V7H18.5938V0.382812ZM18.4844 25.1289V19.3047H5.30469V16.5977H21.4375V25.1289H18.4844ZM44.1744 0.382812V14H41.1666V0.382812H44.1744ZM41.1666 18.0742H31.7603V22.2031H41.1666V18.0742ZM44.1744 24.8281H28.7525V15.4492H44.1744V24.8281ZM32.772 3.36328C32.772 5.22266 33.3098 6.86328 34.3853 8.28516C35.4973 9.6888 36.9739 10.9102 38.815 11.9492L36.9283 14.0547C34.9778 12.9427 33.3098 11.5391 31.9244 9.84375C31.7056 9.58854 31.5051 9.3151 31.3228 9.02344C31.0858 9.44271 30.8215 9.83464 30.5298 10.1992C29.1809 11.9674 27.522 13.3984 25.5533 14.4922L23.6392 12.4141C25.5168 11.4115 27.0025 10.1901 28.0963 8.75C29.1535 7.34635 29.6822 5.55078 29.6822 3.36328V1.03906H32.772V3.36328ZM69.6325 7.60156C69.6325 8.49479 69.4502 9.34245 69.0856 10.1445C68.721 10.9466 68.2197 11.6484 67.5817 12.25C66.9619 12.8516 66.2328 13.3255 65.3942 13.6719C64.5557 14.0182 63.6624 14.1914 62.7145 14.1914C61.7666 14.1914 60.8734 14.0182 60.0348 13.6719C59.2145 13.3255 58.4854 12.8516 57.8473 12.25C57.2093 11.6484 56.708 10.9466 56.3434 10.1445C55.9789 9.34245 55.7966 8.49479 55.7966 7.60156C55.7966 6.70833 55.9789 5.86068 56.3434 5.05859C56.708 4.25651 57.2093 3.55469 57.8473 2.95312C58.4854 2.35156 59.2145 1.88672 60.0348 1.55859C60.8734 1.21224 61.7666 1.03906 62.7145 1.03906C63.6624 1.03906 64.5557 1.21224 65.3942 1.55859C66.2328 1.88672 66.9619 2.35156 67.5817 2.95312C68.2197 3.55469 68.721 4.25651 69.0856 5.05859C69.4502 5.86068 69.6325 6.70833 69.6325 7.60156ZM66.6247 7.60156C66.6247 7.09115 66.5153 6.59896 66.2966 6.125C66.096 5.65104 65.8226 5.24089 65.4762 4.89453C65.1117 4.52995 64.6924 4.2474 64.2184 4.04688C63.7445 3.84635 63.2432 3.74609 62.7145 3.74609C62.2041 3.74609 61.7028 3.84635 61.2106 4.04688C60.7367 4.2474 60.3265 4.52995 59.9802 4.89453C59.6156 5.24089 59.333 5.65104 59.1325 6.125C58.932 6.59896 58.8317 7.09115 58.8317 7.60156C58.8317 8.13021 58.932 8.63151 59.1325 9.10547C59.333 9.5612 59.6156 9.97135 59.9802 10.3359C60.3265 10.6823 60.7367 10.9648 61.2106 11.1836C61.7028 11.3841 62.2041 11.4844 62.7145 11.4844C63.2432 11.4844 63.7445 11.3841 64.2184 11.1836C64.6924 10.9648 65.1117 10.6823 65.4762 10.3359C65.8226 9.97135 66.096 9.5612 66.2966 9.10547C66.5153 8.63151 66.6247 8.13021 66.6247 7.60156ZM75.7848 0.382812V18.2656H72.777V0.382812H75.7848ZM76.5231 24.8281H60.6364V16.8984H63.6989V22.1211H76.5231V24.8281ZM99.3147 1.66797V4.34766H96.2248V12.0859H99.6975V14.7656H81.0491V12.0859H84.5491V4.34766H81.4592V1.66797H99.3147ZM93.3264 4.34766H87.4748V12.0859H93.3264V4.34766ZM101.283 19.0586V21.793H79.4905V19.0586H101.283ZM104.524 19.0586V8.72266H112.427V3.99219H104.524V1.3125H115.407V11.3477H107.532V16.4062H111.661C114.286 16.4062 116.756 16.1784 119.071 15.7227V0.382812H122.079V8.88672H125.77V11.7578H122.079V24.8281H119.071V18.4023C116.792 18.8398 114.286 19.0586 111.552 19.0586H104.524ZM149.889 12.9062C150.435 9.73438 150.709 7.08203 150.709 4.94922V4.18359H137.31V1.47656H153.717V4.56641C153.717 7.46484 153.361 10.2448 152.65 12.9062H156.752V15.6133H147.209V25.2656H144.174V15.6133H134.959V12.9062H149.889ZM161.168 5.03125V2.51562H168.141V0.0546875H171.286V2.51562H178.231V5.03125H171.34C171.523 6.05208 172.361 6.94531 173.856 7.71094C175.351 8.47656 177.146 8.97786 179.243 9.21484L178.176 11.4023C176.08 11.2018 174.038 10.6185 172.051 9.65234C171.085 9.16016 170.292 8.63151 169.672 8.06641C169.089 8.63151 168.314 9.16016 167.348 9.65234C165.379 10.6549 163.347 11.2383 161.25 11.4023L160.184 9.21484C162.28 8.97786 164.076 8.47656 165.571 7.71094C167.066 6.94531 167.904 6.05208 168.086 5.03125H161.168ZM171.258 15.3672V17.7188H177.903V25.1289H174.895V20.2891H161.333V17.7188H168.168V15.3672H158.817V12.7695H180.61V15.3672H171.258Z" fill="black"/>
</svg>
