<svg width="270" height="46" viewBox="0 0 270 46" fill="none" xmlns="http://www.w3.org/2000/svg">
<path d="M8.46008 4.75134C8.46008 5.27934 8.35208 5.78334 8.13608 6.26334H10.9081V3.25734H8.15408C8.35808 3.73734 8.46008 4.23534 8.46008 4.75134ZM7.27208 7.52334C7.26008 7.54734 7.24208 7.56534 7.21808 7.57734C6.82208 7.94934 6.37208 8.24334 5.86808 8.45934C5.36408 8.66334 4.81808 8.76534 4.23008 8.76534C3.64208 8.76534 3.09608 8.66334 2.59208 8.45934C2.08808 8.24334 1.63808 7.94934 1.24208 7.57734C0.858078 7.21734 0.552078 6.79134 0.324078 6.29934C0.108078 5.80734 7.82162e-05 5.29134 7.82162e-05 4.75134C7.82162e-05 4.21134 0.108078 3.69534 0.324078 3.20334C0.552078 2.71134 0.858078 2.28534 1.24208 1.92534C1.63808 1.55334 2.08808 1.26534 2.59208 1.06134C3.09608 0.845343 3.64208 0.737343 4.23008 0.737343C4.81808 0.737343 5.36408 0.845343 5.86808 1.06134C6.37208 1.26534 6.82208 1.55334 7.21808 1.92534L7.29008 1.99734H10.9081V0.323343H12.4201V11.3933H10.9081V7.52334H7.27208ZM6.94808 4.75134C6.94808 4.37934 6.87608 4.03134 6.73208 3.70734C6.58808 3.38334 6.39008 3.10134 6.13808 2.86134C5.89808 2.60934 5.61008 2.41134 5.27408 2.26734C4.93808 2.12334 4.59008 2.05134 4.23008 2.05134C3.87008 2.05134 3.52208 2.12334 3.18608 2.26734C2.85008 2.41134 2.56208 2.60934 2.32208 2.86134C2.07008 3.10134 1.87208 3.38334 1.72808 3.70734C1.58408 4.03134 1.51208 4.37934 1.51208 4.75134C1.51208 5.12334 1.58408 5.47134 1.72808 5.79534C1.87208 6.11934 2.07008 6.40734 2.32208 6.65934C2.56208 6.89934 2.85008 7.09134 3.18608 7.23534C3.52208 7.37934 3.87008 7.45134 4.23008 7.45134C4.59008 7.45134 4.93808 7.37934 5.27408 7.23534C5.61008 7.09134 5.89808 6.89934 6.13808 6.65934C6.39008 6.40734 6.58808 6.11934 6.73208 5.79534C6.87608 5.47134 6.94808 5.12334 6.94808 4.75134ZM12.8881 15.6053H3.11408V10.9073H4.64408V14.2553H12.8881V15.6053ZM27.1633 9.82734H25.2193V12.6893H28.8013V13.9673H15.2293V12.6893H18.8113V9.82734H16.9573V4.76934H25.5613V2.33934H16.9573V1.00734H27.0733V6.06534H18.4693V8.51334H27.1633V9.82734ZM23.7433 9.82734H20.2873V12.6893H23.7433V9.82734ZM43.0946 0.323343V11.3933H41.5826V5.74134H38.7566V4.40934H41.5826V0.323343H43.0946ZM43.5626 15.6053H33.7886V11.0513H35.3366V14.2733H43.5626V15.6053ZM34.2386 3.43734V2.28534H31.0706V0.935343H39.1166V2.28534H35.7866V3.52734C35.7866 4.59534 36.1466 5.53134 36.8666 6.33534C37.7186 7.29534 38.6366 8.00334 39.6206 8.45934L38.8106 9.48534C37.5506 8.84934 36.4766 8.03934 35.5886 7.05534C35.3726 6.81534 35.1866 6.56934 35.0306 6.31734C34.8626 6.61734 34.6646 6.90534 34.4366 7.18134C33.5966 8.23734 32.6006 9.07734 31.4486 9.70134L30.4946 8.72934C31.5506 8.16534 32.4926 7.36734 33.3206 6.33534C33.9326 5.56734 34.2386 4.60134 34.2386 3.43734ZM56.9199 0.323343H58.4319V15.6053H56.9199V0.323343ZM49.7379 3.95934V2.35734H46.4259V1.00734H54.4899V2.35734H51.2859V3.92334C51.2739 5.42334 51.6279 6.74334 52.3479 7.88334C53.0319 8.97534 53.9379 10.0013 55.0659 10.9613L54.1479 11.8973C52.9719 10.9253 51.9099 9.71334 50.9619 8.26134C50.8059 8.02134 50.6619 7.78134 50.5299 7.54134C50.3739 7.90134 50.1819 8.24934 49.9539 8.58534C48.9699 10.0853 47.8839 11.2433 46.6959 12.0593L45.6879 11.0873C46.8159 10.3313 47.8059 9.28134 48.6579 7.93734C49.3779 6.78534 49.7379 5.45934 49.7379 3.95934ZM77.8349 0.323343V5.79534H80.2109V7.19934H77.8349V15.6053H76.3229V0.323343H77.8349ZM69.6629 4.13934V3.25734H66.1349V1.88934H69.6629V0.0533434H71.2109V1.88934H74.5229V3.25734H71.2109V4.13934C71.2229 5.47134 71.5409 6.72534 72.1649 7.90134C72.7649 9.02934 73.6829 10.1093 74.9189 11.1413L73.9649 12.1133C72.7169 11.0573 71.6969 9.85734 70.9049 8.51334C70.7369 8.22534 70.5809 7.93134 70.4369 7.63134C70.3049 7.93134 70.1489 8.23134 69.9689 8.53134C69.1049 9.97134 68.0489 11.1893 66.8009 12.1853L65.7389 11.2493C66.9389 10.3013 67.9229 9.17934 68.6909 7.88334C69.3269 6.79134 69.6509 5.54334 69.6629 4.13934ZM82.3182 8.62134V4.10334H87.3222V2.14134H82.3182V0.863343H88.7802V5.34534H83.7762V7.36134H86.9442C88.8642 7.36134 90.4722 7.22334 91.7682 6.94734V0.323343H93.2802V2.37534H95.4402V3.68934H93.2802V5.79534H95.4402V7.10934H93.2802V9.28734H91.7682V8.20734C90.5082 8.48334 88.9302 8.62134 87.0342 8.62134H82.3182ZM93.1182 13.0133C93.1182 13.4693 93.0162 13.9073 92.8122 14.3273C92.6082 14.7353 92.3382 15.0953 92.0022 15.4073C91.6662 15.7193 91.2642 15.9653 90.7962 16.1453C90.3402 16.3253 89.8482 16.4153 89.3202 16.4153C88.7922 16.4153 88.2942 16.3253 87.8262 16.1453C87.3702 15.9653 86.9742 15.7193 86.6382 15.4073C86.3022 15.0953 86.0322 14.7353 85.8282 14.3273C85.6242 13.9073 85.5222 13.4693 85.5222 13.0133C85.5222 12.5573 85.6242 12.1253 85.8282 11.7173C86.0322 11.2973 86.3022 10.9313 86.6382 10.6193C86.9742 10.3073 87.3702 10.0613 87.8262 9.88134C88.2942 9.70134 88.7922 9.61134 89.3202 9.61134C89.8482 9.61134 90.3402 9.70134 90.7962 9.88134C91.2642 10.0613 91.6662 10.3073 92.0022 10.6193C92.3382 10.9313 92.6082 11.2973 92.8122 11.7173C93.0162 12.1253 93.1182 12.5573 93.1182 13.0133ZM91.6062 13.0133C91.6062 12.4133 91.3782 11.9033 90.9222 11.4833C90.4782 11.0633 89.9442 10.8533 89.3202 10.8533C88.6962 10.8533 88.1562 11.0633 87.7002 11.4833C87.2562 11.9033 87.0342 12.4133 87.0342 13.0133C87.0342 13.6133 87.2562 14.1233 87.7002 14.5433C88.1562 14.9633 88.6962 15.1733 89.3202 15.1733C89.9442 15.1733 90.4782 14.9633 90.9222 14.5433C91.3782 14.1233 91.6062 13.6133 91.6062 13.0133ZM108.489 2.10534H104.439V6.31734H108.489V2.10534ZM109.983 7.54134H102.945V0.881343H109.983V7.54134ZM114.411 0.323343V8.45934H112.899V0.323343H114.411ZM114.915 11.6273H110.451V11.6813C110.451 12.3893 111.027 13.0673 112.179 13.7153C113.103 14.2313 114.225 14.6033 115.545 14.8313L114.807 15.8393C113.271 15.6113 111.927 15.1193 110.775 14.3633C110.307 14.0513 109.923 13.7333 109.623 13.4093C109.311 13.7333 108.921 14.0513 108.453 14.3633C107.301 15.1193 105.957 15.6113 104.421 15.8393L103.683 14.8313C105.003 14.6033 106.125 14.2313 107.049 13.7153C108.201 13.0673 108.777 12.3893 108.777 11.6813V11.6273H104.313V10.4033H108.777V8.90934H110.451V10.4033H114.915V11.6273ZM133.922 0.323343V4.46334H136.082V5.83134H133.922V11.3933H132.41V0.323343H133.922ZM134.372 15.6053H124.616V10.9613H126.164V14.2553H134.372V15.6053ZM127.136 2.15934C127.136 3.68334 127.484 4.93134 128.18 5.90334C128.972 6.99534 129.878 7.86534 130.898 8.51334L129.998 9.52134C128.954 8.87334 127.946 7.91934 126.974 6.65934C126.734 6.34734 126.524 6.01734 126.344 5.66934C126.164 6.04134 125.954 6.40134 125.714 6.74934C124.79 8.06934 123.794 9.07134 122.726 9.75534L121.718 8.76534C122.774 8.12934 123.71 7.21134 124.526 6.01134C125.234 4.97934 125.588 3.69534 125.588 2.15934V0.719343H127.136V2.15934ZM145.605 5.03934C145.557 5.30334 145.479 5.55534 145.371 5.79534C145.155 6.25134 144.867 6.64134 144.507 6.96534C144.135 7.31334 143.703 7.58934 143.211 7.79334C142.731 7.98534 142.215 8.08134 141.663 8.08134C141.111 8.08134 140.589 7.98534 140.097 7.79334C139.617 7.58934 139.191 7.31334 138.819 6.96534C138.459 6.64134 138.171 6.25134 137.955 5.79534C137.751 5.33934 137.649 4.85934 137.649 4.35534C137.649 3.85134 137.751 3.37134 137.955 2.91534C138.171 2.45934 138.459 2.06934 138.819 1.74534C139.191 1.39734 139.617 1.12734 140.097 0.935343C140.589 0.731343 141.111 0.629344 141.663 0.629344C142.215 0.629344 142.731 0.731343 143.211 0.935343C143.703 1.12734 144.135 1.39734 144.507 1.74534C144.867 2.06934 145.155 2.45934 145.371 2.91534C145.491 3.19134 145.575 3.47334 145.623 3.76134H148.557V0.323343H150.069V8.38734H148.557V5.03934H145.605ZM144.165 4.35534C144.165 3.68334 143.919 3.10734 143.427 2.62734C142.935 2.14734 142.347 1.90734 141.663 1.90734C140.979 1.90734 140.391 2.14734 139.899 2.62734C139.407 3.10734 139.161 3.68334 139.161 4.35534C139.161 5.02734 139.407 5.60334 139.899 6.08334C140.391 6.56334 140.979 6.80334 141.663 6.80334C142.347 6.80334 142.935 6.56334 143.427 6.08334C143.919 5.60334 144.165 5.02734 144.165 4.35534ZM150.069 15.6053H140.583V9.43134H142.077V10.8353H148.575V9.43134H150.069V15.6053ZM148.575 14.3813V12.0413H142.077V14.3813H148.575ZM163.643 3.63534C163.643 4.12734 163.535 4.59534 163.319 5.03934C163.115 5.48334 162.833 5.86734 162.473 6.19134C162.113 6.52734 161.693 6.79134 161.213 6.98334C160.733 7.17534 160.217 7.27134 159.665 7.27134C159.113 7.27134 158.597 7.17534 158.117 6.98334C157.637 6.79134 157.217 6.52734 156.857 6.19134C156.497 5.86734 156.209 5.48334 155.993 5.03934C155.789 4.59534 155.687 4.12734 155.687 3.63534C155.687 3.14334 155.789 2.67534 155.993 2.23134C156.209 1.78734 156.497 1.40334 156.857 1.07934C157.217 0.743343 157.637 0.479343 158.117 0.287343C158.597 0.0953429 159.113 -0.000656962 159.665 -0.000656962C160.217 -0.000656962 160.733 0.0953429 161.213 0.287343C161.693 0.479343 162.113 0.743343 162.473 1.07934C162.833 1.40334 163.115 1.78734 163.319 2.23134C163.535 2.67534 163.643 3.14334 163.643 3.63534ZM162.131 3.63534C162.131 2.98734 161.885 2.42934 161.393 1.96134C160.913 1.49334 160.337 1.25934 159.665 1.25934C158.993 1.25934 158.411 1.49334 157.919 1.96134C157.439 2.42934 157.199 2.98734 157.199 3.63534C157.199 4.28334 157.439 4.84134 157.919 5.30934C158.411 5.77734 158.993 6.01134 159.665 6.01134C160.337 6.01134 160.913 5.77734 161.393 5.30934C161.885 4.84134 162.131 4.28334 162.131 3.63534ZM163.499 6.89334V8.83734H166.451V10.0973H162.131C162.239 10.1813 162.347 10.2713 162.455 10.3673C162.803 10.6793 163.079 11.0573 163.283 11.5013C163.499 11.9453 163.607 12.4013 163.607 12.8693C163.607 13.3373 163.499 13.7933 163.283 14.2373C163.079 14.6813 162.803 15.0593 162.455 15.3713C162.107 15.6953 161.687 15.9473 161.195 16.1273C160.715 16.3193 160.199 16.4153 159.647 16.4153C159.095 16.4153 158.573 16.3193 158.081 16.1273C157.601 15.9473 157.187 15.6953 156.839 15.3713C156.491 15.0593 156.209 14.6813 155.993 14.2373C155.789 13.7933 155.687 13.3373 155.687 12.8693C155.687 12.4013 155.789 11.9453 155.993 11.5013C156.209 11.0573 156.491 10.6793 156.839 10.3673C156.947 10.2713 157.055 10.1813 157.163 10.0973H152.879V8.83734H155.831V6.89334H157.325V8.83734H162.005V6.89334H163.499ZM162.095 12.8333C162.095 12.1973 161.855 11.6453 161.375 11.1773C160.895 10.7093 160.319 10.4753 159.647 10.4753C158.975 10.4753 158.399 10.7093 157.919 11.1773C157.439 11.6453 157.199 12.1973 157.199 12.8333C157.199 13.4693 157.439 14.0213 157.919 14.4893C158.399 14.9573 158.975 15.1913 159.647 15.1913C160.319 15.1913 160.895 14.9573 161.375 14.4893C161.855 14.0213 162.095 13.4693 162.095 12.8333ZM184.594 6.55134H183.118C183.37 5.45934 183.496 4.32534 183.496 3.14934V2.03334H174.82V0.737343H185.008V3.16734C185.008 4.31934 184.87 5.44734 184.594 6.55134ZM186.772 9.39534H182.218C182.422 9.52734 182.626 9.67734 182.83 9.84534C183.202 10.1693 183.496 10.5713 183.712 11.0513C183.94 11.5313 184.054 12.0293 184.054 12.5453C184.054 13.0613 183.94 13.5593 183.712 14.0393C183.496 14.5073 183.208 14.9153 182.848 15.2633C182.452 15.6233 182.002 15.9053 181.498 16.1093C181.006 16.3133 180.472 16.4153 179.896 16.4153C179.32 16.4153 178.78 16.3133 178.276 16.1093C177.784 15.9053 177.34 15.6233 176.944 15.2633C176.584 14.9153 176.29 14.5073 176.062 14.0393C175.846 13.5593 175.738 13.0613 175.738 12.5453C175.738 12.0293 175.846 11.5373 176.062 11.0693C176.29 10.5893 176.59 10.1813 176.962 9.84534C177.154 9.67734 177.352 9.52734 177.556 9.39534H173.2V8.09934H178.114V4.64334H179.626V8.09934H186.772V9.39534ZM182.542 12.5273C182.542 12.1673 182.47 11.8313 182.326 11.5193C182.182 11.2073 181.99 10.9313 181.75 10.6913C181.51 10.4633 181.24 10.2833 180.94 10.1513C180.652 10.0073 180.304 9.93534 179.896 9.93534C179.488 9.93534 179.134 10.0073 178.834 10.1513C178.546 10.2833 178.282 10.4633 178.042 10.6913C177.802 10.9313 177.61 11.2073 177.466 11.5193C177.322 11.8313 177.25 12.1673 177.25 12.5273C177.25 12.8873 177.322 13.2233 177.466 13.5353C177.61 13.8473 177.802 14.1233 178.042 14.3633C178.282 14.5913 178.564 14.7713 178.888 14.9033C179.212 15.0473 179.548 15.1193 179.896 15.1193C180.244 15.1193 180.58 15.0473 180.904 14.9033C181.228 14.7713 181.51 14.5913 181.75 14.3633C181.99 14.1233 182.182 13.8473 182.326 13.5353C182.47 13.2233 182.542 12.8873 182.542 12.5273ZM198.509 6.60534C198.725 5.52534 198.833 4.39734 198.833 3.22134V1.96134H190.157V0.737343H200.345V3.25734C200.345 4.40934 200.219 5.52534 199.967 6.60534H202.109V7.90134H188.537V6.60534H198.509ZM200.381 15.6053H190.265V9.26934H191.741V10.7813H198.905V9.26934H200.381V15.6053ZM198.905 14.4353V11.9693H191.741V14.4353H198.905ZM211.308 6.01134C211.248 6.31134 211.164 6.59334 211.056 6.85734C210.84 7.34934 210.552 7.77534 210.192 8.13534C209.808 8.50734 209.37 8.80134 208.878 9.01734C208.398 9.23334 207.882 9.34134 207.33 9.34134C206.778 9.34134 206.256 9.23334 205.764 9.01734C205.284 8.80134 204.852 8.50734 204.468 8.13534C204.108 7.77534 203.82 7.35534 203.604 6.87534C203.4 6.38334 203.298 5.85534 203.298 5.29134C203.298 4.72734 203.4 4.20534 203.604 3.72534C203.82 3.23334 204.108 2.80734 204.468 2.44734C204.852 2.07534 205.284 1.78134 205.764 1.56534C206.256 1.34934 206.778 1.24134 207.33 1.24134C207.882 1.24134 208.398 1.34934 208.878 1.56534C209.37 1.78134 209.808 2.07534 210.192 2.44734C210.552 2.80734 210.84 3.22734 211.056 3.70734C211.164 3.98334 211.248 4.27134 211.308 4.57134H212.874V0.323343H214.278V15.6053H212.874V6.01134H211.308ZM209.94 5.29134C209.94 4.93134 209.874 4.58334 209.742 4.24734C209.61 3.91134 209.43 3.62334 209.202 3.38334C208.962 3.13134 208.68 2.93334 208.356 2.78934C208.044 2.63334 207.702 2.55534 207.33 2.55534C206.958 2.55534 206.616 2.63334 206.304 2.78934C205.992 2.93334 205.716 3.13134 205.476 3.38334C205.248 3.62334 205.062 3.91134 204.918 4.24734C204.786 4.58334 204.72 4.93134 204.72 5.29134C204.72 5.65134 204.786 5.99934 204.918 6.33534C205.062 6.67134 205.248 6.95934 205.476 7.19934C205.716 7.45134 205.992 7.65534 206.304 7.81134C206.616 7.95534 206.958 8.02734 207.33 8.02734C207.702 8.02734 208.044 7.95534 208.356 7.81134C208.68 7.65534 208.962 7.45134 209.202 7.19934C209.43 6.95934 209.61 6.67134 209.742 6.33534C209.874 5.99934 209.94 5.65134 209.94 5.29134ZM215.916 0.323343H217.356V15.6053H215.916V0.323343ZM236.723 0.323343V8.89134H235.211V5.41734H232.385V4.15734H235.211V0.323343H236.723ZM235.211 15.8033V11.7533H227.057V10.4393H236.723V15.8033H235.211ZM227.867 3.32934V2.24934H224.699V0.935343H232.745V2.24934H229.415V3.41934C229.415 4.31934 229.775 5.13534 230.495 5.86734C231.323 6.70734 232.241 7.31934 233.249 7.70334L232.493 8.74734C231.197 8.15934 230.105 7.40934 229.217 6.49734C229.001 6.26934 228.809 6.04134 228.641 5.81334C228.521 6.00534 228.377 6.19734 228.209 6.38934C227.189 7.60134 226.163 8.45334 225.131 8.94534L224.195 7.93734C225.203 7.48134 226.133 6.74334 226.985 5.72334C227.573 5.01534 227.867 4.21734 227.867 3.32934ZM243.079 1.49334V0.0713432H244.807V1.49334H248.281V2.68134H246.157C246.325 2.78934 246.481 2.90934 246.625 3.04134C246.961 3.34134 247.225 3.70134 247.417 4.12134C247.621 4.54134 247.723 4.97334 247.723 5.41734C247.723 5.86134 247.621 6.28734 247.417 6.69534C247.225 7.10334 246.961 7.45734 246.625 7.75734C246.289 8.06934 245.887 8.31534 245.419 8.49534C244.963 8.66334 244.471 8.74734 243.943 8.74734C243.415 8.74734 242.917 8.66334 242.449 8.49534C241.993 8.31534 241.597 8.06934 241.261 7.75734C240.925 7.45734 240.655 7.10334 240.451 6.69534C240.259 6.28734 240.163 5.86134 240.163 5.41734C240.163 4.97334 240.259 4.54134 240.451 4.12134C240.655 3.70134 240.925 3.34134 241.261 3.04134C241.405 2.90934 241.561 2.78934 241.729 2.68134H239.605V1.49334H243.079ZM246.229 5.32734C246.229 4.72734 246.001 4.21134 245.545 3.77934C245.101 3.34734 244.567 3.13134 243.943 3.13134C243.319 3.13134 242.779 3.34734 242.323 3.77934C241.879 4.21134 241.657 4.72734 241.657 5.32734C241.657 5.92734 241.879 6.44334 242.323 6.87534C242.779 7.30734 243.319 7.52334 243.943 7.52334C244.567 7.52334 245.101 7.30734 245.545 6.87534C246.001 6.44334 246.229 5.92734 246.229 5.32734ZM251.611 0.323343V4.10334H253.771V5.39934H251.611V8.58534H250.099V0.323343H251.611ZM251.611 15.6053H242.035V9.77334H243.529V11.0513H250.117V9.77334H251.611V15.6053ZM250.117 14.3633V12.2753H243.529V14.3633H250.117ZM258.416 1.63734V0.0713432H260.144V1.63734H263.69V2.91534H261.476C261.68 3.04734 261.866 3.19134 262.034 3.34734C262.382 3.67134 262.658 4.06134 262.862 4.51734C263.078 4.97334 263.186 5.44734 263.186 5.93934C263.186 6.43134 263.078 6.89934 262.862 7.34334C262.658 7.78734 262.382 8.17134 262.034 8.49534C261.674 8.83134 261.26 9.09534 260.792 9.28734C260.324 9.47934 259.82 9.57534 259.28 9.57534C258.74 9.57534 258.236 9.47934 257.768 9.28734C257.3 9.09534 256.886 8.83134 256.526 8.49534C256.178 8.17134 255.896 7.78734 255.68 7.34334C255.476 6.89934 255.374 6.43134 255.374 5.93934C255.374 5.44734 255.476 4.97334 255.68 4.51734C255.896 4.06134 256.178 3.67134 256.526 3.34734C256.694 3.19134 256.88 3.04734 257.084 2.91534H254.87V1.63734H258.416ZM261.692 5.84934C261.692 5.20134 261.452 4.63734 260.972 4.15734C260.504 3.66534 259.94 3.41934 259.28 3.41934C258.62 3.41934 258.05 3.66534 257.57 4.15734C257.102 4.63734 256.868 5.20134 256.868 5.84934C256.868 6.49734 257.102 7.06134 257.57 7.54134C258.05 8.00934 258.62 8.24334 259.28 8.24334C259.94 8.24334 260.504 8.00934 260.972 7.54134C261.452 7.06134 261.692 6.49734 261.692 5.84934ZM266.948 0.323343V4.98534H269.108V6.40734H266.948V11.5733H265.436V0.323343H266.948ZM267.398 15.6053H257.642V11.1413H259.208V14.2553H267.398V15.6053ZM12.4201 29.3233V38.1073H10.9081V34.8133H8.24408V33.5353H10.9081V29.3233H12.4201ZM12.2041 41.8693C12.2041 42.3493 12.1021 42.8053 11.8981 43.2373C11.6941 43.6693 11.4181 44.0413 11.0701 44.3533C10.7101 44.6893 10.2961 44.9473 9.82808 45.1273C9.36008 45.3193 8.85608 45.4153 8.31608 45.4153C7.77608 45.4153 7.27208 45.3193 6.80408 45.1273C6.33608 44.9473 5.92208 44.6893 5.56208 44.3533C5.21408 44.0413 4.93808 43.6693 4.73408 43.2373C4.53008 42.8053 4.42808 42.3493 4.42808 41.8693C4.42808 41.3893 4.53008 40.9333 4.73408 40.5013C4.93808 40.0693 5.21408 39.6973 5.56208 39.3853C5.92208 39.0493 6.33608 38.7913 6.80408 38.6113C7.27208 38.4193 7.77608 38.3233 8.31608 38.3233C8.85608 38.3233 9.36008 38.4193 9.82808 38.6113C10.2961 38.7913 10.7101 39.0493 11.0701 39.3853C11.4181 39.6973 11.6941 40.0693 11.8981 40.5013C12.1021 40.9333 12.2041 41.3893 12.2041 41.8693ZM10.6921 41.8693C10.6921 41.2453 10.4581 40.7113 9.99008 40.2673C9.52208 39.8233 8.96408 39.6013 8.31608 39.6013C7.66808 39.6013 7.11008 39.8233 6.64208 40.2673C6.17408 40.7113 5.94008 41.2453 5.94008 41.8693C5.94008 42.4933 6.17408 43.0273 6.64208 43.4713C7.11008 43.9153 7.66808 44.1373 8.31608 44.1373C8.96408 44.1373 9.52208 43.9153 9.99008 43.4713C10.4581 43.0273 10.6921 42.4933 10.6921 41.8693ZM5.14808 32.0953V32.9053C5.14808 33.5653 5.50208 34.2553 6.21008 34.9753C6.83408 35.5993 7.65608 36.1573 8.67608 36.6493L7.88408 37.7293C6.80408 37.2493 5.83208 36.5773 4.96808 35.7133C4.75208 35.4973 4.56008 35.2753 4.39208 35.0473C4.22408 35.3233 4.02008 35.6053 3.78008 35.8933C2.89208 36.9853 1.97408 37.7893 1.02608 38.3053L0.0540782 37.2613C0.978078 36.7693 1.80008 36.0913 2.52008 35.2273C3.24008 34.3633 3.60008 33.5833 3.60008 32.8873V32.0953H0.162078V30.7813H3.60008V29.0533H5.14808V30.7813H8.49608V32.0953H5.14808ZM27.7573 29.3233V37.9453H26.2453V34.2913H23.4193V33.0133H26.2453V29.3233H27.7573ZM27.4513 41.8333C27.4513 42.3133 27.3433 42.7753 27.1273 43.2193C26.9233 43.6513 26.6473 44.0293 26.2993 44.3533C25.9393 44.6773 25.5193 44.9353 25.0393 45.1273C24.5593 45.3193 24.0433 45.4153 23.4913 45.4153C22.9393 45.4153 22.4233 45.3193 21.9433 45.1273C21.4633 44.9353 21.0433 44.6773 20.6833 44.3533C20.3353 44.0293 20.0533 43.6513 19.8373 43.2193C19.6333 42.7753 19.5313 42.3133 19.5313 41.8333C19.5313 41.3533 19.6333 40.8973 19.8373 40.4653C20.0533 40.0213 20.3353 39.6373 20.6833 39.3133C21.0433 38.9893 21.4633 38.7313 21.9433 38.5393C22.4233 38.3473 22.9393 38.2513 23.4913 38.2513C24.0433 38.2513 24.5593 38.3473 25.0393 38.5393C25.5193 38.7313 25.9393 38.9893 26.2993 39.3133C26.6473 39.6373 26.9233 40.0213 27.1273 40.4653C27.3433 40.8973 27.4513 41.3533 27.4513 41.8333ZM25.9393 41.8333C25.9393 41.1973 25.6993 40.6573 25.2193 40.2133C24.7393 39.7573 24.1633 39.5293 23.4913 39.5293C22.8193 39.5293 22.2433 39.7573 21.7633 40.2133C21.2833 40.6573 21.0433 41.1973 21.0433 41.8333C21.0433 42.4693 21.2833 43.0153 21.7633 43.4713C22.2433 43.9153 22.8193 44.1373 23.4913 44.1373C24.1633 44.1373 24.7393 43.9153 25.2193 43.4713C25.6993 43.0153 25.9393 42.4693 25.9393 41.8333ZM18.9013 32.0773V31.2673H15.7333V29.9353H23.7793V31.2673H20.4493V32.1673C20.4493 33.1273 20.8093 33.9673 21.5293 34.6873C22.3813 35.4433 23.2933 36.0313 24.2653 36.4513L23.5093 37.4953C22.2013 36.9193 21.1153 36.1933 20.2513 35.3173C20.0473 35.1013 19.8733 34.8793 19.7293 34.6513C19.5613 34.9273 19.3633 35.2033 19.1353 35.4793C18.2593 36.5113 17.2513 37.3273 16.1113 37.9273L15.1753 36.9013C16.1593 36.4693 17.1013 35.7373 18.0013 34.7053C18.6013 33.9973 18.9013 33.1213 18.9013 32.0773ZM43.0924 39.7453V44.8933H41.5804V39.7453H35.5504V38.4133H49.1224V39.7453H43.0924ZM43.1104 30.7633C43.1104 31.8313 43.6084 32.7733 44.6044 33.5893C45.6484 34.4533 46.8664 35.1193 48.2584 35.5873L47.4664 36.6493C45.9544 36.1813 44.6464 35.4673 43.5424 34.5073C43.0504 34.0873 42.6484 33.6313 42.3364 33.1393C42.0244 33.6313 41.6224 34.0873 41.1304 34.5073C40.0264 35.4673 38.7184 36.1813 37.2064 36.6493L36.4144 35.5873C37.8064 35.1193 39.0244 34.4533 40.0684 33.5893C41.0644 32.7733 41.5624 31.8313 41.5624 30.7633V29.3773H43.1104V30.7633ZM64.4596 41.6353V42.9673H50.8876V41.6353H56.9176V37.8553H58.4296V41.6353H64.4596ZM58.4476 31.3393C58.4476 32.6833 58.9756 33.8413 60.0316 34.8133C61.1716 35.8573 62.4256 36.5833 63.7936 36.9913L62.9656 38.0713C61.2376 37.4953 59.7916 36.5893 58.6276 35.3533C58.2436 34.9573 57.9256 34.5373 57.6736 34.0933C57.4216 34.5373 57.1036 34.9573 56.7196 35.3533C55.5556 36.5893 54.1096 37.4953 52.3816 38.0713L51.5536 36.9913C52.9096 36.5833 54.1576 35.8573 55.2976 34.8133C56.3656 33.8413 56.8996 32.6833 56.8996 31.3393V29.7913H58.4476V31.3393ZM75.4589 33.7693C75.4589 34.2973 75.3509 34.8013 75.1349 35.2813C74.9189 35.7613 74.6249 36.1753 74.2529 36.5233C73.8689 36.8833 73.4309 37.1713 72.9389 37.3873C72.4469 37.5913 71.9189 37.6933 71.3549 37.6933C70.7909 37.6933 70.2629 37.5913 69.7709 37.3873C69.2789 37.1713 68.8409 36.8833 68.4569 36.5233C68.0849 36.1753 67.7909 35.7613 67.5749 35.2813C67.3589 34.8013 67.2509 34.2973 67.2509 33.7693C67.2509 33.2413 67.3589 32.7373 67.5749 32.2573C67.7909 31.7773 68.0849 31.3633 68.4569 31.0153C68.8409 30.6553 69.2789 30.3733 69.7709 30.1693C70.2629 29.9533 70.7909 29.8453 71.3549 29.8453C71.9189 29.8453 72.4469 29.9533 72.9389 30.1693C73.4309 30.3733 73.8689 30.6553 74.2529 31.0153C74.6249 31.3633 74.9189 31.7773 75.1349 32.2573C75.3509 32.7373 75.4589 33.2413 75.4589 33.7693ZM73.9649 33.7693C73.9649 33.3973 73.8929 33.0553 73.7489 32.7433C73.6049 32.4193 73.4129 32.1433 73.1729 31.9153C72.9449 31.6753 72.6749 31.4833 72.3629 31.3393C72.0509 31.1953 71.7149 31.1233 71.3549 31.1233C70.9949 31.1233 70.6589 31.1953 70.3469 31.3393C70.0349 31.4833 69.7589 31.6753 69.5189 31.9153C69.2909 32.1433 69.1049 32.4193 68.9609 32.7433C68.8169 33.0553 68.7449 33.3973 68.7449 33.7693C68.7449 34.1413 68.8169 34.4893 68.9609 34.8133C69.1049 35.1253 69.2909 35.4013 69.5189 35.6413C69.7589 35.8693 70.0349 36.0553 70.3469 36.1993C70.6589 36.3433 70.9949 36.4153 71.3549 36.4153C71.7149 36.4153 72.0509 36.3433 72.3629 36.1993C72.6749 36.0553 72.9449 35.8693 73.1729 35.6413C73.4129 35.4013 73.6049 35.1253 73.7489 34.8133C73.8929 34.4893 73.9649 34.1413 73.9649 33.7693ZM78.9689 29.3233V44.6053H77.4389V41.1673C76.1429 41.3593 74.4269 41.4553 72.2909 41.4553H66.2789V40.1233H72.2729C74.3609 40.1233 76.0829 40.0393 77.4389 39.8713V29.3233H78.9689ZM94.9159 33.7513C94.9159 34.2913 94.8019 34.8073 94.5739 35.2993C94.3579 35.7913 94.0579 36.2173 93.6739 36.5773C93.2779 36.9493 92.8279 37.2433 92.3239 37.4593C91.8199 37.6633 91.2739 37.7653 90.6859 37.7653C90.0979 37.7653 89.5519 37.6633 89.0479 37.4593C88.5439 37.2433 88.0939 36.9493 87.6979 36.5773C87.3139 36.2173 87.0079 35.7913 86.7799 35.2993C86.5639 34.8073 86.4559 34.2913 86.4559 33.7513C86.4559 33.2113 86.5639 32.6953 86.7799 32.2033C87.0079 31.7113 87.3139 31.2853 87.6979 30.9253C88.0939 30.5533 88.5439 30.2653 89.0479 30.0613C89.5519 29.8453 90.0979 29.7373 90.6859 29.7373C91.2739 29.7373 91.8199 29.8453 92.3239 30.0613C92.8279 30.2653 93.2779 30.5533 93.6739 30.9253C94.0579 31.2853 94.3579 31.7113 94.5739 32.2033C94.8019 32.6953 94.9159 33.2113 94.9159 33.7513ZM93.4039 33.7513C93.4039 33.3793 93.3319 33.0313 93.1879 32.7073C93.0439 32.3833 92.8459 32.1013 92.5939 31.8613C92.3539 31.6093 92.0659 31.4113 91.7299 31.2673C91.3939 31.1233 91.0459 31.0513 90.6859 31.0513C90.3259 31.0513 89.9779 31.1233 89.6419 31.2673C89.3059 31.4113 89.0179 31.6093 88.7779 31.8613C88.5259 32.1013 88.3279 32.3833 88.1839 32.7073C88.0399 33.0313 87.9679 33.3793 87.9679 33.7513C87.9679 34.1233 88.0399 34.4713 88.1839 34.7953C88.3279 35.1193 88.5259 35.4073 88.7779 35.6593C89.0179 35.8993 89.3059 36.0913 89.6419 36.2353C89.9779 36.3793 90.3259 36.4513 90.6859 36.4513C91.0459 36.4513 91.3939 36.3793 91.7299 36.2353C92.0659 36.0913 92.3539 35.8993 92.5939 35.6593C92.8459 35.4073 93.0439 35.1193 93.1879 34.7953C93.3319 34.4713 93.4039 34.1233 93.4039 33.7513ZM98.2639 29.3233V33.4633H100.424V34.8313H98.2639V40.3933H96.7519V29.3233H98.2639ZM98.7139 44.6053H88.9579V39.9073H90.4879V43.2553H98.7139V44.6053ZM114.411 29.3233V37.9453H112.899V34.2913H110.073V33.0133H112.899V29.3233H114.411ZM114.105 41.8333C114.105 42.3133 113.997 42.7753 113.781 43.2193C113.577 43.6513 113.301 44.0293 112.953 44.3533C112.593 44.6773 112.173 44.9353 111.693 45.1273C111.213 45.3193 110.697 45.4153 110.145 45.4153C109.593 45.4153 109.077 45.3193 108.597 45.1273C108.117 44.9353 107.697 44.6773 107.337 44.3533C106.989 44.0293 106.707 43.6513 106.491 43.2193C106.287 42.7753 106.185 42.3133 106.185 41.8333C106.185 41.3533 106.287 40.8973 106.491 40.4653C106.707 40.0213 106.989 39.6373 107.337 39.3133C107.697 38.9893 108.117 38.7313 108.597 38.5393C109.077 38.3473 109.593 38.2513 110.145 38.2513C110.697 38.2513 111.213 38.3473 111.693 38.5393C112.173 38.7313 112.593 38.9893 112.953 39.3133C113.301 39.6373 113.577 40.0213 113.781 40.4653C113.997 40.8973 114.105 41.3533 114.105 41.8333ZM112.593 41.8333C112.593 41.1973 112.353 40.6573 111.873 40.2133C111.393 39.7573 110.817 39.5293 110.145 39.5293C109.473 39.5293 108.897 39.7573 108.417 40.2133C107.937 40.6573 107.697 41.1973 107.697 41.8333C107.697 42.4693 107.937 43.0153 108.417 43.4713C108.897 43.9153 109.473 44.1373 110.145 44.1373C110.817 44.1373 111.393 43.9153 111.873 43.4713C112.353 43.0153 112.593 42.4693 112.593 41.8333ZM105.555 32.0773V31.2673H102.387V29.9353H110.433V31.2673H107.103V32.1673C107.103 33.1273 107.463 33.9673 108.183 34.6873C109.035 35.4433 109.947 36.0313 110.919 36.4513L110.163 37.4953C108.855 36.9193 107.769 36.1933 106.905 35.3173C106.701 35.1013 106.527 34.8793 106.383 34.6513C106.215 34.9273 106.017 35.2033 105.789 35.4793C104.913 36.5113 103.905 37.3273 102.765 37.9273L101.829 36.9013C102.813 36.4693 103.755 35.7373 104.655 34.7053C105.255 33.9973 105.555 33.1213 105.555 32.0773ZM129.748 29.3233V37.8913H128.236V34.4173H125.41V33.1573H128.236V29.3233H129.748ZM128.236 44.8033V40.7533H120.082V39.4393H129.748V44.8033H128.236ZM120.892 32.3293V31.2493H117.724V29.9353H125.77V31.2493H122.44V32.4193C122.44 33.3193 122.8 34.1353 123.52 34.8673C124.348 35.7073 125.266 36.3193 126.274 36.7033L125.518 37.7473C124.222 37.1593 123.13 36.4093 122.242 35.4973C122.026 35.2693 121.834 35.0413 121.666 34.8133C121.546 35.0053 121.402 35.1973 121.234 35.3893C120.214 36.6013 119.188 37.4533 118.156 37.9453L117.22 36.9373C118.228 36.4813 119.158 35.7433 120.01 34.7233C120.598 34.0153 120.892 33.2173 120.892 32.3293ZM149.061 34.3993H146.937V38.1613C147.225 38.2093 147.501 38.2873 147.765 38.3953C148.245 38.5873 148.665 38.8513 149.025 39.1873C149.385 39.5233 149.667 39.9133 149.871 40.3573C150.087 40.7893 150.195 41.2573 150.195 41.7613C150.195 42.2653 150.087 42.7393 149.871 43.1833C149.667 43.6153 149.385 43.9993 149.025 44.3353C148.665 44.6713 148.239 44.9353 147.747 45.1273C147.267 45.3193 146.751 45.4153 146.199 45.4153C145.647 45.4153 145.125 45.3193 144.633 45.1273C144.153 44.9353 143.733 44.6713 143.373 44.3353C143.013 43.9993 142.725 43.6153 142.509 43.1833C142.305 42.7393 142.203 42.2653 142.203 41.7613C142.203 41.2573 142.305 40.7893 142.509 40.3573C142.725 39.9133 143.013 39.5233 143.373 39.1873C143.733 38.8513 144.159 38.5873 144.651 38.3953C144.915 38.2873 145.191 38.2093 145.479 38.1613V29.3233H146.937V33.0853H149.061V29.3233H150.537V38.2873H149.061V34.3993ZM148.683 41.7613C148.683 41.4373 148.617 41.1313 148.485 40.8433C148.353 40.5553 148.173 40.3033 147.945 40.0873C147.717 39.8713 147.453 39.7033 147.153 39.5833C146.853 39.4513 146.535 39.3853 146.199 39.3853C145.863 39.3853 145.545 39.4513 145.245 39.5833C144.945 39.7033 144.681 39.8713 144.453 40.0873C144.225 40.3033 144.045 40.5553 143.913 40.8433C143.781 41.1313 143.715 41.4373 143.715 41.7613C143.715 42.0853 143.781 42.3913 143.913 42.6793C144.045 42.9673 144.225 43.2193 144.453 43.4353C144.681 43.6513 144.945 43.8193 145.245 43.9393C145.545 44.0713 145.863 44.1373 146.199 44.1373C146.535 44.1373 146.853 44.0713 147.153 43.9393C147.453 43.8193 147.717 43.6513 147.945 43.4353C148.173 43.2193 148.353 42.9673 148.485 42.6793C148.617 42.3913 148.683 42.0853 148.683 41.7613ZM141.663 31.4113C141.663 32.7553 141.939 33.8713 142.491 34.7593C143.079 35.6353 143.733 36.3733 144.453 36.9733L143.499 37.8733C142.707 37.2133 141.987 36.4153 141.339 35.4793C141.195 35.2633 141.063 35.0293 140.943 34.7773C140.811 35.0413 140.667 35.2873 140.511 35.5153C139.719 36.7033 138.909 37.6033 138.081 38.2153L137.055 37.2793C137.883 36.6793 138.639 35.8273 139.323 34.7233C139.911 33.7993 140.205 32.6893 140.205 31.3933V29.7193H141.663V31.4113ZM164.597 29.3233V33.4633H166.757V34.8313H164.597V40.3933H163.085V29.3233H164.597ZM165.047 44.6053H155.291V39.9613H156.839V43.2553H165.047V44.6053ZM157.811 31.1593C157.811 32.6833 158.159 33.9313 158.855 34.9033C159.647 35.9953 160.553 36.8653 161.573 37.5133L160.673 38.5213C159.629 37.8733 158.621 36.9193 157.649 35.6593C157.409 35.3473 157.199 35.0173 157.019 34.6693C156.839 35.0413 156.629 35.4013 156.389 35.7493C155.465 37.0693 154.469 38.0713 153.401 38.7553L152.393 37.7653C153.449 37.1293 154.385 36.2113 155.201 35.0113C155.909 33.9793 156.263 32.6953 156.263 31.1593V29.7193H157.811V31.1593Z" fill="white"/>
</svg>
