<svg width="107" height="23" viewBox="0 0 107 23" fill="none" xmlns="http://www.w3.org/2000/svg">
<path d="M14.6881 0.0724835H17.9041V21.5525H14.6881V0.0724835ZM11.6881 1.00848C11.6881 4.86448 10.7601 8.14448 8.90408 10.8485C7.30408 13.2805 5.06408 15.4085 2.18408 17.2325L8.20756e-05 15.0005C2.67208 13.3845 4.71208 11.5205 6.12008 9.40848C7.32008 7.66448 8.00808 5.82448 8.18408 3.88848H1.27208V1.00848H11.6881ZM20.4498 8.68848H39.7458V11.3045H31.7298V12.4805H37.4418V18.1925H25.9698V19.1045H37.6818V21.5525H22.7538V15.7925H34.2258V14.9045H22.7538V12.4805H28.4658V11.3045H20.4498V8.68848ZM31.7058 0.888483C31.7058 1.94448 32.4178 2.97648 33.8418 3.98448C34.9618 4.73648 36.6578 5.36048 38.9298 5.85648L37.4658 8.25648C35.0658 7.71248 33.0738 6.90448 31.4898 5.83248C30.9618 5.44848 30.4978 5.05648 30.0978 4.65648C29.6978 5.05648 29.2338 5.44848 28.7058 5.83248C27.1218 6.90448 25.1298 7.71248 22.7298 8.25648L21.2658 5.85648C23.5378 5.36048 25.2338 4.73648 26.3538 3.98448C27.7778 2.97648 28.4898 1.94448 28.4898 0.888483V0.000483036H31.7058V0.888483ZM60.1685 6.52848C60.1685 7.02448 60.1045 7.51248 59.9765 7.99248H62.2325V5.08848H59.9765C60.1045 5.55248 60.1685 6.03248 60.1685 6.52848ZM58.2485 10.7765C57.6885 11.2725 57.0565 11.6645 56.3525 11.9525C55.6005 12.2725 54.7925 12.4325 53.9285 12.4325C53.0645 12.4325 52.2565 12.2805 51.5045 11.9765C50.7525 11.6565 50.0885 11.2245 49.5125 10.6805C48.9525 10.1525 48.5045 9.52848 48.1685 8.80848C47.8485 8.08848 47.6885 7.32848 47.6885 6.52848C47.6885 5.72848 47.8485 4.96848 48.1685 4.24848C48.5045 3.52848 48.9525 2.90448 49.5125 2.37648C50.0885 1.83248 50.7525 1.40848 51.5045 1.10448C52.2565 0.784483 53.0645 0.624484 53.9285 0.624484C54.7925 0.624484 55.6005 0.776484 56.3525 1.08048C57.0725 1.38448 57.7125 1.79248 58.2725 2.30448H62.2325V0.0724835H65.4485V15.9365H62.2325V10.7765H58.2485ZM56.9525 6.52848C56.9525 6.11248 56.8725 5.72048 56.7125 5.35248C56.5525 4.98448 56.3285 4.65648 56.0405 4.36848C55.7685 4.09648 55.4485 3.88048 55.0805 3.72048C54.7125 3.56048 54.3285 3.48048 53.9285 3.48048C53.5285 3.48048 53.1445 3.56048 52.7765 3.72048C52.4085 3.88048 52.0885 4.09648 51.8165 4.36848C51.5285 4.65648 51.3045 4.98448 51.1445 5.35248C50.9845 5.72048 50.9045 6.11248 50.9045 6.52848C50.9045 6.94448 50.9845 7.33648 51.1445 7.70448C51.3045 8.07248 51.5285 8.40048 51.8165 8.68848C52.0885 8.96048 52.4085 9.17648 52.7765 9.33648C53.1445 9.49648 53.5285 9.57648 53.9285 9.57648C54.3285 9.57648 54.7125 9.49648 55.0805 9.33648C55.4485 9.17648 55.7685 8.96048 56.0405 8.68848C56.3285 8.40048 56.5525 8.07248 56.7125 7.70448C56.8725 7.33648 56.9525 6.94448 56.9525 6.52848ZM66.0725 21.5525H51.8405V14.4965H55.0805V18.6965H66.0725V21.5525ZM83.4021 0.0724835H86.5221V21.5525H83.4021V0.0724835ZM77.5941 1.00848C77.5941 2.01648 77.5461 2.97648 77.4501 3.88848H79.2021V0.0724835H82.2261V21.5525H79.2021V12.6005H76.4181V9.69648H79.2021V6.79248H76.9701C76.5861 8.29648 76.0501 9.64848 75.3621 10.8485C73.8261 13.4885 71.9541 15.6565 69.7461 17.3525L67.3941 15.3125C69.4581 13.7605 71.1781 11.8165 72.5541 9.48048C73.4981 7.88048 74.0421 6.01648 74.1861 3.88848H68.6901V1.00848H77.5941ZM106.348 0.0724835V12.4565H103.132V7.03248H98.9798V4.20048H103.132V0.0724835H106.348ZM105.94 17.4245C105.94 18.1445 105.78 18.8085 105.46 19.4165C105.156 20.0245 104.74 20.5765 104.212 21.0725C103.684 21.5365 103.06 21.9125 102.34 22.2005C101.636 22.4885 100.876 22.6325 100.06 22.6325C99.2438 22.6325 98.4758 22.4885 97.7558 22.2005C97.0518 21.9125 96.4278 21.5365 95.8838 21.0725C95.3718 20.5765 94.9558 20.0245 94.6358 19.4165C94.3318 18.8085 94.1798 18.1445 94.1798 17.4245C94.1798 16.7045 94.3318 16.0485 94.6358 15.4565C94.9558 14.8645 95.3718 14.3285 95.8838 13.8485C96.4278 13.3685 97.0518 12.9845 97.7558 12.6965C98.4758 12.4085 99.2438 12.2645 100.06 12.2645C100.876 12.2645 101.636 12.4085 102.34 12.6965C103.06 12.9845 103.684 13.3685 104.212 13.8485C104.74 14.3285 105.156 14.8645 105.46 15.4565C105.78 16.0485 105.94 16.7045 105.94 17.4245ZM102.724 17.4245C102.724 16.7205 102.46 16.1445 101.932 15.6965C101.404 15.2485 100.78 15.0245 100.06 15.0245C99.3398 15.0245 98.7158 15.2485 98.1878 15.6965C97.6598 16.1445 97.3958 16.7205 97.3958 17.4245C97.3958 18.1285 97.6598 18.7045 98.1878 19.1525C98.7158 19.6005 99.3398 19.8245 100.06 19.8245C100.78 19.8245 101.404 19.6005 101.932 19.1525C102.46 18.7045 102.724 18.1285 102.724 17.4245ZM96.5558 2.40048C96.5558 4.16048 96.9878 5.56848 97.8518 6.62448C98.7158 7.68048 99.9718 8.67248 101.62 9.60048L99.7958 11.8805C97.9718 10.9365 96.4358 9.72048 95.1878 8.23248L95.0918 8.08848C94.9638 8.29648 94.8278 8.48848 94.6838 8.66448C93.4198 10.3285 91.8918 11.6645 90.0998 12.6725L88.0598 10.4885C89.7398 9.57648 91.0758 8.44848 92.0678 7.10448C92.8838 6.00048 93.2918 4.43248 93.2918 2.40048V0.624484H96.5558V2.40048Z" fill="white"/>
</svg>
