<svg width="363" height="79" viewBox="0 0 363 79" fill="none" xmlns="http://www.w3.org/2000/svg">
<path d="M9.89999 6.98308C10.164 5.85508 10.296 4.64908 10.296 3.36508V1.96108H1.61999V0.665078H11.808V3.38308C11.808 4.64308 11.664 5.84308 11.376 6.98308H13.572V8.29708H7.55999V10.6371H11.844V15.7311H10.332V11.9331H1.61999V10.6371H6.01199V8.29708H-1.16453e-05V6.98308H9.89999ZM16.2013 11.2671V0.863077H17.6953V9.89908H19.4053C20.7973 9.89908 22.0873 9.79108 23.2753 9.57508V0.251078H24.7153V5.50708H26.8573V0.251078H28.3333V15.5331H26.8573V6.83908H24.7153V15.5331H23.2753V10.9611C21.9913 11.1651 20.6773 11.2671 19.3333 11.2671H16.2013ZM40.1043 -0.000922441H41.6883V1.76308H45.0003V3.07708H41.6703V3.63508C41.6703 4.54708 42.1263 5.38108 43.0383 6.13708C43.8543 6.82108 44.6403 7.27708 45.3963 7.50508L44.6763 8.63908C43.6203 8.25508 42.6423 7.64308 41.7423 6.80308C41.3943 6.47908 41.1003 6.14908 40.8603 5.81308C40.6443 6.11308 40.3923 6.40708 40.1043 6.69508C39.1323 7.66708 38.1303 8.35708 37.0983 8.76508L36.2343 7.75708C37.0863 7.42108 37.9803 6.81508 38.9163 5.93908C39.7203 5.19508 40.1223 4.41508 40.1223 3.59908V3.07708H36.7203V1.76308H40.1043V-0.000922441ZM40.1763 8.40508H41.6703V11.3751H41.7063C43.8063 11.3751 45.5403 11.2851 46.9083 11.1051V0.251078H48.4023V15.5331H46.9083V12.3831C45.6123 12.5751 43.8843 12.6711 41.7243 12.6711H35.7123V11.3751H40.1763V8.40508ZM64.5675 12.5991V13.8951H50.9955V12.5991H57.0255V9.35908H58.5375V12.5991H64.5675ZM57.0075 3.56308H52.5255V2.26708H57.0075V0.233078H58.5555V2.26708H63.0195V3.56308H58.5555V4.01308C58.5555 4.78108 59.0535 5.60908 60.0495 6.49708C60.9735 7.32508 62.2035 8.02108 63.7395 8.58508L62.9475 9.71908C61.2675 9.07108 59.8995 8.26708 58.8435 7.30708C58.4115 6.91108 58.0575 6.51508 57.7815 6.11908C57.4935 6.51508 57.1335 6.91108 56.7015 7.30708C55.6575 8.26708 54.2955 9.07108 52.6155 9.71908L51.8235 8.58508C53.3595 8.02108 54.5895 7.32508 55.5135 6.49708C56.5095 5.60908 57.0075 4.78108 57.0075 4.01308V3.56308ZM78.2668 9.75508H73.8748V12.5991H79.9048V13.8951H66.3328V12.5991H72.3628V9.75508H68.0608V4.69708H76.6648V2.26708H68.0608V0.935077H78.1768V5.99308H69.5728V8.44108H78.2668V9.75508ZM90.7938 13.3371V2.89708L87.8058 4.01308V2.69908L90.9558 1.40308H92.3778V13.3371H90.7938ZM103.564 13.3371H102.502L98.542 3.29308V13.3371H97.066V1.54708H99.136L103.042 11.1051L106.912 1.54708H109V13.3371H107.506V3.29308L103.564 13.3371ZM114.915 11.4111L117.579 1.54708H119.271L121.863 11.4111L124.419 1.56508L125.967 1.54708L122.763 13.3371H121.107L118.425 3.34708L115.707 13.3371H114.087L110.901 1.54708H112.431L114.915 11.4111ZM137.241 6.53308C137.457 5.45308 137.565 4.32508 137.565 3.14908V1.88908H128.889V0.665078H139.077V3.18508C139.077 4.33708 138.951 5.45308 138.699 6.53308H140.841V7.82908H127.269V6.53308H137.241ZM139.113 15.5331H128.997V9.19708H130.473V10.7091H137.637V9.19708H139.113V15.5331ZM137.637 14.3631V11.8971H130.473V14.3631H137.637ZM148.202 1.54708H151.802C152.99 1.54708 153.914 1.69108 154.574 1.97908C155.006 2.15908 155.378 2.41708 155.69 2.75308C156.29 3.42508 156.59 4.24708 156.59 5.21908C156.59 6.17908 156.29 6.99508 155.69 7.66708C155.378 8.00308 155.006 8.26108 154.574 8.44108C153.938 8.70508 152.966 8.83708 151.658 8.83708H149.786V13.3371H148.202V1.54708ZM149.786 7.50508H152.234C153.122 7.50508 153.806 7.28308 154.286 6.83908C154.754 6.41908 154.988 5.87908 154.988 5.21908C154.988 4.53508 154.754 3.98308 154.286 3.56308C153.806 3.10708 153.122 2.87908 152.234 2.87908H149.786V7.50508ZM160.448 12.0051H166.46V13.3371H158.864V1.54708H166.334V2.87908H160.448V6.65908H165.776V7.97308H160.448V12.0051ZM175.338 13.3371H174.276L170.316 3.29308V13.3371H168.84V1.54708H170.91L174.816 11.1051L178.686 1.54708H180.774V13.3371H179.28V3.29308L175.338 13.3371ZM195.669 10.6731V15.8211H194.157V10.6731H188.127V9.34108H201.699V10.6731H195.669ZM195.687 1.69108C195.687 2.75908 196.185 3.70108 197.181 4.51708C198.225 5.38108 199.443 6.04708 200.835 6.51508L200.043 7.57708C198.531 7.10908 197.223 6.39508 196.119 5.43508C195.627 5.01508 195.225 4.55908 194.913 4.06708C194.601 4.55908 194.199 5.01508 193.707 5.43508C192.603 6.39508 191.295 7.10908 189.783 7.57708L188.991 6.51508C190.383 6.04708 191.601 5.38108 192.645 4.51708C193.641 3.70108 194.139 2.75908 194.139 1.69108V0.305078H195.687V1.69108ZM215.992 0.251078V11.3211H214.48V5.66908H211.654V4.33708H214.48V0.251078H215.992ZM216.46 15.5331H206.686V10.9791H208.234V14.2011H216.46V15.5331ZM207.136 3.36508V2.21308H203.968V0.863077H212.014V2.21308H208.684V3.45508C208.684 4.52308 209.044 5.45908 209.764 6.26308C210.616 7.22308 211.534 7.93108 212.518 8.38708L211.708 9.41308C210.448 8.77708 209.374 7.96708 208.486 6.98308C208.27 6.74308 208.084 6.49708 207.928 6.24508C207.76 6.54508 207.562 6.83308 207.334 7.10908C206.494 8.16508 205.498 9.00508 204.346 9.62908L203.392 8.65708C204.448 8.09308 205.39 7.29508 206.218 6.26308C206.83 5.49508 207.136 4.52908 207.136 3.36508ZM221.627 1.90708V0.251078H223.247V1.90708H226.361V3.13108H224.561C224.777 3.27508 224.975 3.43708 225.155 3.61708C225.503 3.96508 225.779 4.37308 225.983 4.84108C226.187 5.30908 226.289 5.80708 226.289 6.33508C226.289 6.86308 226.187 7.36108 225.983 7.82908C225.779 8.29708 225.503 8.70508 225.155 9.05308C224.807 9.40108 224.399 9.67708 223.931 9.88108C223.463 10.0851 222.965 10.1871 222.437 10.1871C221.909 10.1871 221.411 10.0851 220.943 9.88108C220.475 9.67708 220.067 9.40108 219.719 9.05308C219.371 8.70508 219.095 8.29708 218.891 7.82908C218.687 7.36108 218.585 6.86308 218.585 6.33508C218.585 5.80708 218.687 5.30908 218.891 4.84108C219.095 4.37308 219.371 3.96508 219.719 3.61708C219.899 3.43708 220.097 3.27508 220.313 3.13108H218.459V1.90708H221.627ZM224.939 6.29908C224.939 5.95108 224.873 5.62108 224.741 5.30908C224.609 4.99708 224.429 4.72108 224.201 4.48108C223.973 4.25308 223.709 4.07308 223.409 3.94108C223.109 3.79708 222.791 3.72508 222.455 3.72508C222.119 3.72508 221.801 3.79708 221.501 3.94108C221.201 4.07308 220.937 4.25308 220.709 4.48108C220.481 4.72108 220.301 4.99708 220.169 5.30908C220.037 5.62108 219.971 5.95108 219.971 6.29908C219.971 6.64708 220.037 6.97708 220.169 7.28908C220.301 7.60108 220.481 7.87708 220.709 8.11708C220.937 8.34508 221.201 8.53108 221.501 8.67508C221.801 8.80708 222.119 8.87308 222.455 8.87308C222.791 8.87308 223.109 8.80708 223.409 8.67508C223.709 8.53108 223.973 8.34508 224.201 8.11708C224.429 7.87708 224.609 7.60108 224.741 7.28908C224.873 6.97708 224.939 6.64708 224.939 6.29908ZM230.825 0.251078H232.211V15.5331H230.825V6.24508H229.061V15.5331H227.675V0.251078H229.061V4.91308H230.825V0.251078ZM251.65 0.251078V7.86508H250.138V4.24708H247.024V3.00508H250.138V0.251078H251.65ZM251.848 15.5331H242.164V11.6631H250.138V10.2051H242.164V8.99908H251.65V12.8691H243.676V14.3271H251.848V15.5331ZM244.306 1.83508C244.306 2.96308 244.654 3.94108 245.35 4.76908C245.998 5.52508 246.856 6.13708 247.924 6.60508L247.096 7.64908C245.968 7.16908 244.978 6.44308 244.126 5.47108C243.91 5.23108 243.724 4.97308 243.568 4.69708C243.388 5.02108 243.172 5.32708 242.92 5.61508C242.092 6.57508 241.096 7.30708 239.932 7.81108L238.996 6.82108C240.076 6.35308 240.97 5.71708 241.678 4.91308C242.398 4.10908 242.758 3.08308 242.758 1.83508V0.557078H244.306V1.83508ZM262.578 11.7891H255.63V0.827078H257.124V4.22908H261.084V0.827078H262.578V11.7891ZM261.084 10.4391V5.56108H257.124V10.4391H261.084ZM265.476 0.251078H266.988V15.5331H265.476V0.251078ZM277.231 5.93908C277.171 6.23908 277.087 6.52108 276.979 6.78508C276.763 7.27708 276.475 7.70308 276.115 8.06308C275.731 8.43508 275.293 8.72908 274.801 8.94508C274.321 9.16108 273.805 9.26908 273.253 9.26908C272.701 9.26908 272.179 9.16108 271.687 8.94508C271.207 8.72908 270.775 8.43508 270.391 8.06308C270.031 7.70308 269.743 7.28308 269.527 6.80308C269.323 6.31108 269.221 5.78308 269.221 5.21908C269.221 4.65508 269.323 4.13308 269.527 3.65308C269.743 3.16108 270.031 2.73508 270.391 2.37508C270.775 2.00308 271.207 1.70908 271.687 1.49308C272.179 1.27708 272.701 1.16908 273.253 1.16908C273.805 1.16908 274.321 1.27708 274.801 1.49308C275.293 1.70908 275.731 2.00308 276.115 2.37508C276.475 2.73508 276.763 3.15508 276.979 3.63508C277.087 3.91108 277.171 4.19908 277.231 4.49908H278.797V0.251078H280.201V15.5331H278.797V5.93908H277.231ZM275.863 5.21908C275.863 4.85908 275.797 4.51108 275.665 4.17508C275.533 3.83908 275.353 3.55108 275.125 3.31108C274.885 3.05908 274.603 2.86108 274.279 2.71708C273.967 2.56108 273.625 2.48308 273.253 2.48308C272.881 2.48308 272.539 2.56108 272.227 2.71708C271.915 2.86108 271.639 3.05908 271.399 3.31108C271.171 3.55108 270.985 3.83908 270.841 4.17508C270.709 4.51108 270.643 4.85908 270.643 5.21908C270.643 5.57908 270.709 5.92708 270.841 6.26308C270.985 6.59908 271.171 6.88708 271.399 7.12708C271.639 7.37908 271.915 7.58308 272.227 7.73908C272.539 7.88308 272.881 7.95508 273.253 7.95508C273.625 7.95508 273.967 7.88308 274.279 7.73908C274.603 7.58308 274.885 7.37908 275.125 7.12708C275.353 6.88708 275.533 6.59908 275.665 6.26308C275.797 5.92708 275.863 5.57908 275.863 5.21908ZM281.839 0.251078H283.279V15.5331H281.839V0.251078ZM291.072 11.5371V0.935077H296.058V2.30308H292.566V10.1691H293.97C295.59 10.1691 296.952 10.0611 298.056 9.84508V0.251078H299.496V5.50708H301.638V0.251078H303.114V15.5331H301.638V6.83908H299.496V15.5331H298.056V11.2131C297.072 11.4291 295.758 11.5371 294.114 11.5371H291.072ZM308.281 1.90708V0.251078H309.901V1.90708H313.015V3.13108H311.215C311.431 3.27508 311.629 3.43708 311.809 3.61708C312.157 3.96508 312.433 4.37308 312.637 4.84108C312.841 5.30908 312.943 5.80708 312.943 6.33508C312.943 6.86308 312.841 7.36108 312.637 7.82908C312.433 8.29708 312.157 8.70508 311.809 9.05308C311.461 9.40108 311.053 9.67708 310.585 9.88108C310.117 10.0851 309.619 10.1871 309.091 10.1871C308.563 10.1871 308.065 10.0851 307.597 9.88108C307.129 9.67708 306.721 9.40108 306.373 9.05308C306.025 8.70508 305.749 8.29708 305.545 7.82908C305.341 7.36108 305.239 6.86308 305.239 6.33508C305.239 5.80708 305.341 5.30908 305.545 4.84108C305.749 4.37308 306.025 3.96508 306.373 3.61708C306.553 3.43708 306.751 3.27508 306.967 3.13108H305.113V1.90708H308.281ZM311.593 6.29908C311.593 5.95108 311.527 5.62108 311.395 5.30908C311.263 4.99708 311.083 4.72108 310.855 4.48108C310.627 4.25308 310.363 4.07308 310.063 3.94108C309.763 3.79708 309.445 3.72508 309.109 3.72508C308.773 3.72508 308.455 3.79708 308.155 3.94108C307.855 4.07308 307.591 4.25308 307.363 4.48108C307.135 4.72108 306.955 4.99708 306.823 5.30908C306.691 5.62108 306.625 5.95108 306.625 6.29908C306.625 6.64708 306.691 6.97708 306.823 7.28908C306.955 7.60108 307.135 7.87708 307.363 8.11708C307.591 8.34508 307.855 8.53108 308.155 8.67508C308.455 8.80708 308.773 8.87308 309.109 8.87308C309.445 8.87308 309.763 8.80708 310.063 8.67508C310.363 8.53108 310.627 8.34508 310.855 8.11708C311.083 7.87708 311.263 7.60108 311.395 7.28908C311.527 6.97708 311.593 6.64708 311.593 6.29908ZM317.479 0.251078H318.865V15.5331H317.479V6.24508H315.715V15.5331H314.329V0.251078H315.715V4.91308H317.479V0.251078ZM327.972 1.54708V7.07308L333.12 1.54708H334.992L329.556 7.45108L335.334 13.3371H333.48L327.972 7.86508V13.3371H326.388V1.54708H327.972ZM342.139 12.3111C342.463 12.3111 342.805 12.2931 343.165 12.2571C343.525 12.2211 343.813 12.1671 344.029 12.0951V8.44108H341.347V7.10908H345.613V13.1031C344.509 13.4391 343.363 13.6071 342.175 13.6071C340.147 13.6071 338.593 13.0611 337.513 11.9691C336.433 10.8651 335.893 9.46108 335.893 7.75708C335.893 5.78908 336.445 4.24708 337.549 3.13108C338.653 2.00308 340.249 1.40308 342.337 1.33108C343.225 1.29508 344.089 1.32508 344.929 1.42108V2.71708C344.221 2.62108 343.363 2.59708 342.355 2.64508C340.759 2.70508 339.547 3.15508 338.719 3.99508C337.891 4.82308 337.477 6.02308 337.477 7.59508C337.477 9.05908 337.873 10.2111 338.665 11.0511C339.457 11.8911 340.615 12.3111 342.139 12.3111ZM354.134 7.41508C354.914 7.69108 355.46 8.07508 355.772 8.56708C356.096 9.05908 356.246 9.62308 356.222 10.2591C356.186 11.2671 355.784 12.0831 355.016 12.7071C354.248 13.3191 353.096 13.6251 351.56 13.6251C350.132 13.6251 348.998 13.4991 348.158 13.2471V11.8971C349.178 12.1731 350.318 12.3051 351.578 12.2931C352.562 12.2811 353.306 12.1011 353.81 11.7531C354.314 11.4051 354.59 10.9251 354.638 10.3131C354.71 9.46108 354.266 8.87308 353.306 8.54908L350.282 7.52308C349.574 7.28308 349.034 6.94108 348.662 6.49708C348.302 6.05308 348.122 5.48908 348.122 4.80508C348.122 3.84508 348.464 3.04108 349.148 2.39308C349.844 1.73308 350.852 1.36708 352.172 1.29508C353.204 1.23508 354.218 1.32508 355.214 1.56508V2.87908C354.266 2.62708 353.27 2.54908 352.226 2.64508C351.41 2.71708 350.786 2.92708 350.354 3.27508C349.934 3.62308 349.724 4.10308 349.724 4.71508C349.724 5.50708 350.18 6.05908 351.092 6.37108L354.134 7.41508ZM8.56799 35.6791C8.56799 36.2191 8.45399 36.7351 8.22599 37.2271C8.00999 37.7191 7.70999 38.1451 7.32599 38.5051C6.92999 38.8771 6.47999 39.1711 5.97599 39.3871C5.47199 39.5911 4.92599 39.6931 4.33799 39.6931C3.74999 39.6931 3.20399 39.5911 2.69999 39.3871C2.19599 39.1711 1.74599 38.8771 1.34999 38.5051C0.965988 38.1451 0.659988 37.7191 0.431988 37.2271C0.215988 36.7351 0.107988 36.2191 0.107988 35.6791C0.107988 35.1391 0.215988 34.6231 0.431988 34.1311C0.659988 33.6391 0.965988 33.2131 1.34999 32.8531C1.74599 32.4811 2.19599 32.1931 2.69999 31.9891C3.20399 31.7731 3.74999 31.6651 4.33799 31.6651C4.92599 31.6651 5.47199 31.7731 5.97599 31.9891C6.47999 32.1931 6.92999 32.4811 7.32599 32.8531C7.70999 33.2131 8.00999 33.6391 8.22599 34.1311C8.45399 34.6231 8.56799 35.1391 8.56799 35.6791ZM7.05599 35.6791C7.05599 35.3071 6.98399 34.9591 6.83999 34.6351C6.69599 34.3111 6.49799 34.0291 6.24599 33.7891C6.00599 33.5371 5.71799 33.3391 5.38199 33.1951C5.04599 33.0511 4.69799 32.9791 4.33799 32.9791C3.97799 32.9791 3.62999 33.0511 3.29399 33.1951C2.95799 33.3391 2.66999 33.5371 2.42999 33.7891C2.17799 34.0291 1.97999 34.3111 1.83599 34.6351C1.69199 34.9591 1.61999 35.3071 1.61999 35.6791C1.61999 36.0511 1.69199 36.3991 1.83599 36.7231C1.97999 37.0471 2.17799 37.3351 2.42999 37.5871C2.66999 37.8271 2.95799 38.0191 3.29399 38.1631C3.62999 38.3071 3.97799 38.3791 4.33799 38.3791C4.69799 38.3791 5.04599 38.3071 5.38199 38.1631C5.71799 38.0191 6.00599 37.8271 6.24599 37.5871C6.49799 37.3351 6.69599 37.0471 6.83999 36.7231C6.98399 36.3991 7.05599 36.0511 7.05599 35.6791ZM12.528 31.2511V42.3211H11.016V31.2511H12.528ZM12.996 46.5331H3.22199V41.8351H4.75199V45.1831H12.996V46.5331ZM28.9093 39.1711V40.4851H24.5173C24.6973 40.6051 24.8713 40.7431 25.0393 40.8991C25.4113 41.2351 25.7053 41.6371 25.9213 42.1051C26.1373 42.5611 26.2453 43.0471 26.2453 43.5631C26.2453 44.0791 26.1373 44.5711 25.9213 45.0391C25.7053 45.4951 25.4113 45.8911 25.0393 46.2271C24.6673 46.5751 24.2293 46.8451 23.7253 47.0371C23.2213 47.2411 22.6873 47.3431 22.1233 47.3431C21.5593 47.3431 21.0253 47.2411 20.5213 47.0371C20.0173 46.8451 19.5793 46.5751 19.2073 46.2271C18.8353 45.8911 18.5413 45.4951 18.3253 45.0391C18.1093 44.5711 18.0013 44.0791 18.0013 43.5631C18.0013 43.0471 18.1093 42.5611 18.3253 42.1051C18.5413 41.6371 18.8353 41.2351 19.2073 40.8991C19.3753 40.7431 19.5493 40.6051 19.7293 40.4851H15.3373V39.1711H28.9093ZM24.7333 43.5271C24.7333 42.8311 24.4753 42.2371 23.9593 41.7451C23.4433 41.2531 22.8313 41.0071 22.1233 41.0071C21.4153 41.0071 20.8033 41.2531 20.2873 41.7451C19.7713 42.2371 19.5133 42.8311 19.5133 43.5271C19.5133 44.2231 19.7713 44.8171 20.2873 45.3091C20.8033 45.8011 21.4153 46.0471 22.1233 46.0471C22.8313 46.0471 23.4433 45.8011 23.9593 45.3091C24.4753 44.8171 24.7333 44.2231 24.7333 43.5271ZM21.3133 32.9611H16.9573V31.6471H27.2893V32.9611H22.9333V33.3391C22.9333 34.1191 23.6593 34.8991 25.1113 35.6791C25.9273 36.0991 26.8993 36.4051 28.0273 36.5971L27.4153 37.7131C25.9873 37.4611 24.6913 36.9811 23.5273 36.2731C22.9393 35.9251 22.4713 35.5591 22.1233 35.1751C21.7753 35.5591 21.3073 35.9251 20.7193 36.2731C19.5553 36.9811 18.2593 37.4611 16.8313 37.7131L16.2193 36.5971C17.3473 36.4051 18.3193 36.0991 19.1353 35.6791C20.5873 34.8991 21.3133 34.1191 21.3133 33.3391V32.9611ZM42.2643 33.0331H38.2143V37.2451H42.2643V33.0331ZM43.7583 38.4691H36.7203V31.8091H43.7583V38.4691ZM48.1863 31.2511V39.3871H46.6743V31.2511H48.1863ZM48.6903 42.5551H44.2263V42.6091C44.2263 43.3171 44.8023 43.9951 45.9543 44.6431C46.8783 45.1591 48.0003 45.5311 49.3203 45.7591L48.5823 46.7671C47.0463 46.5391 45.7023 46.0471 44.5503 45.2911C44.0823 44.9791 43.6983 44.6611 43.3983 44.3371C43.0863 44.6611 42.6963 44.9791 42.2283 45.2911C41.0763 46.0471 39.7323 46.5391 38.1963 46.7671L37.4583 45.7591C38.7783 45.5311 39.9003 45.1591 40.8243 44.6431C41.9763 43.9951 42.5523 43.3171 42.5523 42.6091V42.5551H38.0883V41.3311H42.5523V39.8371H44.2263V41.3311H48.6903V42.5551ZM58.1753 32.5471V38.0731L63.3233 32.5471H65.1953L59.7593 38.4511L65.5373 44.3371H63.6833L58.1753 38.8651V44.3371H56.5913V32.5471H58.1753ZM67.6618 38.4691C67.6618 39.9451 68.0578 41.0911 68.8498 41.9071C69.6418 42.7231 70.6438 43.1311 71.8558 43.1311C73.0678 43.1311 74.0638 42.7231 74.8438 41.9071C75.6358 41.0911 76.0318 39.9451 76.0318 38.4691C76.0318 36.9811 75.6358 35.8291 74.8438 35.0131C74.0638 34.1851 73.0678 33.7711 71.8558 33.7711C70.6438 33.7711 69.6418 34.1851 68.8498 35.0131C68.0578 35.8291 67.6618 36.9811 67.6618 38.4691ZM66.0958 38.4691C66.0958 36.7171 66.6298 35.2711 67.6978 34.1311C68.7658 32.9911 70.1518 32.4211 71.8558 32.4211C73.5598 32.4211 74.9458 32.9911 76.0138 34.1311C77.0938 35.2711 77.6338 36.7171 77.6338 38.4691C77.6338 40.2091 77.0938 41.6491 76.0138 42.7891C74.9458 43.9171 73.5598 44.4811 71.8558 44.4811C70.1518 44.4811 68.7658 43.9171 67.6978 42.7891C66.6298 41.6491 66.0958 40.2091 66.0958 38.4691ZM85.5321 38.4151C86.3121 38.6911 86.8581 39.0751 87.1701 39.5671C87.4941 40.0591 87.6441 40.6231 87.6201 41.2591C87.5841 42.2671 87.1821 43.0831 86.4141 43.7071C85.6461 44.3191 84.4941 44.6251 82.9581 44.6251C81.5301 44.6251 80.3961 44.4991 79.5561 44.2471V42.8971C80.5761 43.1731 81.7161 43.3051 82.9761 43.2931C83.9601 43.2811 84.7041 43.1011 85.2081 42.7531C85.7121 42.4051 85.9881 41.9251 86.0361 41.3131C86.1081 40.4611 85.6641 39.8731 84.7041 39.5491L81.6801 38.5231C80.9721 38.2831 80.4321 37.9411 80.0601 37.4971C79.7001 37.0531 79.5201 36.4891 79.5201 35.8051C79.5201 34.8451 79.8621 34.0411 80.5461 33.3931C81.2421 32.7331 82.2501 32.3671 83.5701 32.2951C84.6021 32.2351 85.6161 32.3251 86.6121 32.5651V33.8791C85.6641 33.6271 84.6681 33.5491 83.6241 33.6451C82.8081 33.7171 82.1841 33.9271 81.7521 34.2751C81.3321 34.6231 81.1221 35.1031 81.1221 35.7151C81.1221 36.5071 81.5781 37.0591 82.4901 37.3711L85.5321 38.4151ZM91.7066 37.6591H97.7006V32.5471H99.2846V44.3371H97.7006V38.9731H91.7066V44.3371H90.1226V32.5471H91.7066V37.6591ZM107.534 32.3131L112.304 44.3371H110.792L109.37 40.7551H104.132L102.71 44.3371H101.216L105.986 32.3131H107.534ZM106.76 34.0051L104.654 39.4231H108.848L106.76 34.0051ZM129.809 35.1751C129.809 35.7271 129.689 36.2491 129.449 36.7411C129.221 37.2331 128.909 37.6651 128.513 38.0371C128.105 38.4091 127.631 38.7031 127.091 38.9191C126.563 39.1351 125.993 39.2431 125.381 39.2431C124.769 39.2431 124.193 39.1351 123.653 38.9191C123.125 38.7031 122.657 38.4091 122.249 38.0371C121.853 37.6651 121.535 37.2331 121.295 36.7411C121.067 36.2491 120.953 35.7271 120.953 35.1751C120.953 34.6231 121.067 34.1011 121.295 33.6091C121.535 33.1171 121.853 32.6851 122.249 32.3131C122.657 31.9411 123.125 31.6471 123.653 31.4311C124.193 31.2151 124.769 31.1071 125.381 31.1071C125.993 31.1071 126.563 31.2151 127.091 31.4311C127.631 31.6471 128.105 31.9411 128.513 32.3131C128.909 32.6851 129.221 33.1171 129.449 33.6091C129.689 34.1011 129.809 34.6231 129.809 35.1751ZM128.297 35.1751C128.297 34.8031 128.219 34.4551 128.063 34.1311C127.907 33.7951 127.697 33.5011 127.433 33.2491C127.169 33.0091 126.857 32.8171 126.497 32.6731C126.149 32.5171 125.777 32.4391 125.381 32.4391C124.985 32.4391 124.607 32.5171 124.247 32.6731C123.899 32.8171 123.593 33.0091 123.329 33.2491C123.065 33.5011 122.855 33.7951 122.699 34.1311C122.543 34.4551 122.465 34.8031 122.465 35.1751C122.465 35.5471 122.543 35.9011 122.699 36.2371C122.855 36.5611 123.065 36.8491 123.329 37.1011C123.593 37.3411 123.899 37.5391 124.247 37.6951C124.607 37.8391 124.985 37.9111 125.381 37.9111C125.777 37.9111 126.149 37.8391 126.497 37.6951C126.857 37.5391 127.169 37.3411 127.433 37.1011C127.697 36.8491 127.907 36.5611 128.063 36.2371C128.219 35.9011 128.297 35.5471 128.297 35.1751ZM128.999 42.0511V46.8211H127.487V42.0511H123.275V46.8211H121.763V42.0511H118.595V40.7371H132.167V42.0511H128.999ZM136.758 32.9071V31.2511H138.378V32.9071H141.492V34.1311H139.692C139.908 34.2751 140.106 34.4371 140.286 34.6171C140.634 34.9651 140.91 35.3731 141.114 35.8411C141.318 36.3091 141.42 36.8071 141.42 37.3351C141.42 37.8631 141.318 38.3611 141.114 38.8291C140.91 39.2971 140.634 39.7051 140.286 40.0531C139.938 40.4011 139.53 40.6771 139.062 40.8811C138.594 41.0851 138.096 41.1871 137.568 41.1871C137.04 41.1871 136.542 41.0851 136.074 40.8811C135.606 40.6771 135.198 40.4011 134.85 40.0531C134.502 39.7051 134.226 39.2971 134.022 38.8291C133.818 38.3611 133.716 37.8631 133.716 37.3351C133.716 36.8071 133.818 36.3091 134.022 35.8411C134.226 35.3731 134.502 34.9651 134.85 34.6171C135.03 34.4371 135.228 34.2751 135.444 34.1311H133.59V32.9071H136.758ZM140.07 37.2991C140.07 36.9511 140.004 36.6211 139.872 36.3091C139.74 35.9971 139.56 35.7211 139.332 35.4811C139.104 35.2531 138.84 35.0731 138.54 34.9411C138.24 34.7971 137.922 34.7251 137.586 34.7251C137.25 34.7251 136.932 34.7971 136.632 34.9411C136.332 35.0731 136.068 35.2531 135.84 35.4811C135.612 35.7211 135.432 35.9971 135.3 36.3091C135.168 36.6211 135.102 36.9511 135.102 37.2991C135.102 37.6471 135.168 37.9771 135.3 38.2891C135.432 38.6011 135.612 38.8771 135.84 39.1171C136.068 39.3451 136.332 39.5311 136.632 39.6751C136.932 39.8071 137.25 39.8731 137.586 39.8731C137.922 39.8731 138.24 39.8071 138.54 39.6751C138.84 39.5311 139.104 39.3451 139.332 39.1171C139.56 38.8771 139.74 38.6011 139.872 38.2891C140.004 37.9771 140.07 37.6471 140.07 37.2991ZM145.956 31.2511H147.342V46.5331H145.956V37.2451H144.192V46.5331H142.806V31.2511H144.192V35.9131H145.956V31.2511ZM154.939 39.4771V37.2631H157.153V39.4771H154.939ZM173.714 34.9591C173.714 35.4511 173.606 35.9191 173.39 36.3631C173.186 36.8071 172.91 37.1971 172.562 37.5331C172.202 37.8691 171.782 38.1331 171.302 38.3251C170.834 38.5171 170.324 38.6131 169.772 38.6131C169.22 38.6131 168.704 38.5171 168.224 38.3251C167.756 38.1331 167.342 37.8691 166.982 37.5331C166.634 37.1971 166.352 36.8071 166.136 36.3631C165.932 35.9191 165.83 35.4511 165.83 34.9591C165.83 34.4671 165.932 33.9991 166.136 33.5551C166.352 33.1111 166.634 32.7211 166.982 32.3851C167.342 32.0491 167.756 31.7851 168.224 31.5931C168.704 31.4011 169.22 31.3051 169.772 31.3051C170.324 31.3051 170.834 31.4011 171.302 31.5931C171.782 31.7851 172.202 32.0491 172.562 32.3851C172.91 32.7211 173.186 33.1111 173.39 33.5551C173.606 33.9991 173.714 34.4671 173.714 34.9591ZM172.22 34.9591C172.22 34.3111 171.98 33.7531 171.5 33.2851C171.02 32.8171 170.444 32.5831 169.772 32.5831C169.1 32.5831 168.524 32.8171 168.044 33.2851C167.564 33.7531 167.324 34.3111 167.324 34.9591C167.324 35.6071 167.564 36.1651 168.044 36.6331C168.524 37.1011 169.1 37.3351 169.772 37.3351C170.444 37.3351 171.02 37.1011 171.5 36.6331C171.98 36.1651 172.22 35.6071 172.22 34.9591ZM177.368 31.2511V46.5331H175.874V41.2951C174.854 41.4271 173.318 41.4931 171.266 41.4931H170.348V46.5331H168.836V41.4931H164.516V40.1791H171.248C173.324 40.1791 174.866 40.1191 175.874 39.9991V31.2511H177.368ZM183.49 32.4931V30.9991H185.218V32.4931H188.692V33.6811H186.55C186.718 33.7891 186.874 33.9091 187.018 34.0411C187.354 34.3531 187.624 34.7191 187.828 35.1391C187.9 35.3191 187.96 35.4931 188.008 35.6611H190.96V31.2511H192.472V39.9811H190.96V36.9751H188.08C188.032 37.2511 187.948 37.5151 187.828 37.7671C187.624 38.1871 187.354 38.5531 187.018 38.8651C186.682 39.1771 186.28 39.4231 185.812 39.6031C185.356 39.7831 184.87 39.8731 184.354 39.8731C183.838 39.8731 183.346 39.7831 182.878 39.6031C182.422 39.4231 182.026 39.1771 181.69 38.8651C181.354 38.5531 181.084 38.1931 180.88 37.7851C180.688 37.3651 180.592 36.9271 180.592 36.4711C180.592 36.0151 180.688 35.5771 180.88 35.1571C181.084 34.7251 181.354 34.3531 181.69 34.0411C181.834 33.9091 181.99 33.7891 182.158 33.6811H180.016V32.4931H183.49ZM186.622 36.3811C186.622 35.7691 186.4 35.2411 185.956 34.7971C185.512 34.3531 184.978 34.1311 184.354 34.1311C183.73 34.1311 183.196 34.3531 182.752 34.7971C182.308 35.2411 182.086 35.7691 182.086 36.3811C182.086 36.9931 182.308 37.5211 182.752 37.9651C183.196 38.4091 183.73 38.6311 184.354 38.6311C184.978 38.6311 185.512 38.4091 185.956 37.9651C186.4 37.5211 186.622 36.9931 186.622 36.3811ZM190.96 42.3751H184.48V45.3091H190.96V42.3751ZM192.472 46.5331H182.986V41.1511H192.472V46.5331ZM202.805 39.1891H195.785V31.7011H197.261V33.8431H201.329V31.7011H202.805V39.1891ZM201.329 37.9111V35.1031H197.261V37.9111H201.329ZM206.999 31.2511V34.7791H209.159V36.1471H206.999V39.8731H205.487V31.2511H206.999ZM206.999 43.7431C206.999 44.2231 206.891 44.6851 206.675 45.1291C206.471 45.5731 206.195 45.9571 205.847 46.2811C205.487 46.6051 205.067 46.8631 204.587 47.0551C204.107 47.2471 203.591 47.3431 203.039 47.3431C202.487 47.3431 201.971 47.2471 201.491 47.0551C201.011 46.8631 200.591 46.6051 200.231 46.2811C199.883 45.9571 199.601 45.5731 199.385 45.1291C199.181 44.6851 199.079 44.2231 199.079 43.7431C199.079 43.2631 199.181 42.8011 199.385 42.3571C199.601 41.9131 199.883 41.5291 200.231 41.2051C200.591 40.8811 201.011 40.6231 201.491 40.4311C201.971 40.2391 202.487 40.1431 203.039 40.1431C203.591 40.1431 204.107 40.2391 204.587 40.4311C205.067 40.6231 205.487 40.8811 205.847 41.2051C206.195 41.5291 206.471 41.9131 206.675 42.3571C206.891 42.8011 206.999 43.2631 206.999 43.7431ZM205.487 43.7431C205.487 43.1071 205.247 42.5611 204.767 42.1051C204.287 41.6491 203.711 41.4211 203.039 41.4211C202.367 41.4211 201.791 41.6491 201.311 42.1051C200.831 42.5611 200.591 43.1071 200.591 43.7431C200.591 44.3791 200.831 44.9251 201.311 45.3811C201.791 45.8371 202.367 46.0651 203.039 46.0651C203.711 46.0651 204.287 45.8371 204.767 45.3811C205.247 44.9251 205.487 44.3791 205.487 43.7431ZM221.634 31.2511H223.146V46.5331H221.634V31.2511ZM214.452 34.8871V33.2851H211.14V31.9351H219.204V33.2851H216V34.8511C215.988 36.3511 216.342 37.6711 217.062 38.8111C217.746 39.9031 218.652 40.9291 219.78 41.8891L218.862 42.8251C217.686 41.8531 216.624 40.6411 215.676 39.1891C215.52 38.9491 215.376 38.7091 215.244 38.4691C215.088 38.8291 214.896 39.1771 214.668 39.5131C213.684 41.0131 212.598 42.1711 211.41 42.9871L210.402 42.0151C211.53 41.2591 212.52 40.2091 213.372 38.8651C214.092 37.7131 214.452 36.3871 214.452 34.8871ZM242.495 31.2511H243.935V46.5331H242.495V31.2511ZM237.239 31.9531C237.239 32.7091 237.197 33.4291 237.113 34.1131H239.345V31.2511H240.767V46.5331H239.345V39.8191H236.843V38.4691H239.345V35.4631H236.879C236.603 36.6631 236.183 37.7491 235.619 38.7211C234.491 40.6531 233.225 42.1591 231.821 43.2391L230.723 42.3031C232.055 41.2951 233.249 39.8911 234.305 38.0911C235.157 36.6511 235.589 35.0491 235.601 33.2851H231.461V31.9531H237.239ZM250.399 32.2771V30.9811H252.163V32.2771H255.655V33.3931H253.639C253.675 33.4171 253.705 33.4411 253.729 33.4651C254.041 33.7411 254.287 34.0711 254.467 34.4551C254.647 34.8271 254.737 35.2111 254.737 35.6071C254.737 36.0031 254.647 36.3871 254.467 36.7591C254.287 37.1191 254.041 37.4371 253.729 37.7131C253.417 37.9891 253.051 38.2051 252.631 38.3611C252.463 38.4211 252.295 38.4691 252.127 38.5051V39.7471H252.343C254.251 39.7471 255.949 39.6511 257.437 39.4591V31.2511H258.931V41.3671H257.437V40.6651C256.033 40.8451 254.323 40.9351 252.307 40.9351H246.241V39.7471H250.615V38.5411C250.375 38.5051 250.147 38.4451 249.931 38.3611C249.511 38.2051 249.145 37.9891 248.833 37.7131C248.521 37.4371 248.275 37.1191 248.095 36.7591C247.915 36.3871 247.825 36.0031 247.825 35.6071C247.825 35.2111 247.915 34.8271 248.095 34.4551C248.275 34.0711 248.521 33.7411 248.833 33.4651C248.857 33.4411 248.887 33.4171 248.923 33.3931H246.745V32.2771H250.399ZM253.243 35.5531C253.243 35.0371 253.051 34.5931 252.667 34.2211C252.283 33.8371 251.821 33.6451 251.281 33.6451C250.741 33.6451 250.279 33.8371 249.895 34.2211C249.511 34.5931 249.319 35.0371 249.319 35.5531C249.319 36.0691 249.511 36.5191 249.895 36.9031C250.279 37.2751 250.741 37.4611 251.281 37.4611C251.821 37.4611 252.283 37.2751 252.667 36.9031C253.051 36.5191 253.243 36.0691 253.243 35.5531ZM248.581 42.5551H258.931V46.7311H257.419V43.7611H248.581V42.5551ZM275.166 35.6791C275.166 36.2191 275.052 36.7351 274.824 37.2271C274.608 37.7191 274.308 38.1451 273.924 38.5051C273.528 38.8771 273.078 39.1711 272.574 39.3871C272.07 39.5911 271.524 39.6931 270.936 39.6931C270.348 39.6931 269.802 39.5911 269.298 39.3871C268.794 39.1711 268.344 38.8771 267.948 38.5051C267.564 38.1451 267.258 37.7191 267.03 37.2271C266.814 36.7351 266.706 36.2191 266.706 35.6791C266.706 35.1391 266.814 34.6231 267.03 34.1311C267.258 33.6391 267.564 33.2131 267.948 32.8531C268.344 32.4811 268.794 32.1931 269.298 31.9891C269.802 31.7731 270.348 31.6651 270.936 31.6651C271.524 31.6651 272.07 31.7731 272.574 31.9891C273.078 32.1931 273.528 32.4811 273.924 32.8531C274.308 33.2131 274.608 33.6391 274.824 34.1311C275.052 34.6231 275.166 35.1391 275.166 35.6791ZM273.654 35.6791C273.654 35.3071 273.582 34.9591 273.438 34.6351C273.294 34.3111 273.096 34.0291 272.844 33.7891C272.604 33.5371 272.316 33.3391 271.98 33.1951C271.644 33.0511 271.296 32.9791 270.936 32.9791C270.576 32.9791 270.228 33.0511 269.892 33.1951C269.556 33.3391 269.268 33.5371 269.028 33.7891C268.776 34.0291 268.578 34.3111 268.434 34.6351C268.29 34.9591 268.218 35.3071 268.218 35.6791C268.218 36.0511 268.29 36.3991 268.434 36.7231C268.578 37.0471 268.776 37.3351 269.028 37.5871C269.268 37.8271 269.556 38.0191 269.892 38.1631C270.228 38.3071 270.576 38.3791 270.936 38.3791C271.296 38.3791 271.644 38.3071 271.98 38.1631C272.316 38.0191 272.604 37.8271 272.844 37.5871C273.096 37.3351 273.294 37.0471 273.438 36.7231C273.582 36.3991 273.654 36.0511 273.654 35.6791ZM279.126 31.2511V42.3211H277.614V31.2511H279.126ZM279.594 46.5331H269.82V41.8351H271.35V45.1831H279.594V46.5331ZM295.507 39.1711V40.4851H291.115C291.295 40.6051 291.469 40.7431 291.637 40.8991C292.009 41.2351 292.303 41.6371 292.519 42.1051C292.735 42.5611 292.843 43.0471 292.843 43.5631C292.843 44.0791 292.735 44.5711 292.519 45.0391C292.303 45.4951 292.009 45.8911 291.637 46.2271C291.265 46.5751 290.827 46.8451 290.323 47.0371C289.819 47.2411 289.285 47.3431 288.721 47.3431C288.157 47.3431 287.623 47.2411 287.119 47.0371C286.615 46.8451 286.177 46.5751 285.805 46.2271C285.433 45.8911 285.139 45.4951 284.923 45.0391C284.707 44.5711 284.599 44.0791 284.599 43.5631C284.599 43.0471 284.707 42.5611 284.923 42.1051C285.139 41.6371 285.433 41.2351 285.805 40.8991C285.973 40.7431 286.147 40.6051 286.327 40.4851H281.935V39.1711H295.507ZM291.331 43.5271C291.331 42.8311 291.073 42.2371 290.557 41.7451C290.041 41.2531 289.429 41.0071 288.721 41.0071C288.013 41.0071 287.401 41.2531 286.885 41.7451C286.369 42.2371 286.111 42.8311 286.111 43.5271C286.111 44.2231 286.369 44.8171 286.885 45.3091C287.401 45.8011 288.013 46.0471 288.721 46.0471C289.429 46.0471 290.041 45.8011 290.557 45.3091C291.073 44.8171 291.331 44.2231 291.331 43.5271ZM287.911 32.9611H283.555V31.6471H293.887V32.9611H289.531V33.3391C289.531 34.1191 290.257 34.8991 291.709 35.6791C292.525 36.0991 293.497 36.4051 294.625 36.5971L294.013 37.7131C292.585 37.4611 291.289 36.9811 290.125 36.2731C289.537 35.9251 289.069 35.5591 288.721 35.1751C288.373 35.5591 287.905 35.9251 287.317 36.2731C286.153 36.9811 284.857 37.4611 283.429 37.7131L282.817 36.5971C283.945 36.4051 284.917 36.0991 285.733 35.6791C287.185 34.8991 287.911 34.1191 287.911 33.3391V32.9611ZM308.126 34.4551C308.126 34.9471 308.018 35.4151 307.802 35.8591C307.586 36.2911 307.298 36.6751 306.938 37.0111C306.794 37.1431 306.638 37.2631 306.47 37.3711H310.844V38.5951H297.272V37.3711H301.646C301.478 37.2631 301.322 37.1431 301.178 37.0111C300.818 36.6751 300.53 36.2911 300.314 35.8591C300.098 35.4151 299.99 34.9471 299.99 34.4551C299.99 33.9631 300.098 33.4951 300.314 33.0511C300.53 32.6071 300.818 32.2171 301.178 31.8811C301.55 31.5451 301.982 31.2811 302.474 31.0891C302.966 30.8971 303.494 30.8011 304.058 30.8011C304.622 30.8011 305.15 30.8971 305.642 31.0891C306.134 31.2811 306.566 31.5451 306.938 31.8811C307.298 32.2171 307.586 32.6071 307.802 33.0511C308.018 33.4951 308.126 33.9631 308.126 34.4551ZM306.614 34.4911C306.614 33.8071 306.362 33.2251 305.858 32.7451C305.366 32.2531 304.766 32.0071 304.058 32.0071C303.35 32.0071 302.744 32.2531 302.24 32.7451C301.748 33.2251 301.502 33.8071 301.502 34.4911C301.502 35.1751 301.748 35.7631 302.24 36.2551C302.744 36.7351 303.35 36.9751 304.058 36.9751C304.766 36.9751 305.366 36.7351 305.858 36.2551C306.362 35.7631 306.614 35.1751 306.614 34.4911ZM309.296 46.5331H299V42.6451H307.604V41.1511H299V39.9631H309.116V43.8511H300.512V45.3451H309.296V46.5331ZM321.715 32.2771V30.9811H323.479V32.2771H326.971V33.3931H324.955C324.991 33.4171 325.021 33.4411 325.045 33.4651C325.357 33.7411 325.603 34.0711 325.783 34.4551C325.963 34.8271 326.053 35.2111 326.053 35.6071C326.053 36.0031 325.963 36.3871 325.783 36.7591C325.603 37.1191 325.357 37.4371 325.045 37.7131C324.733 37.9891 324.367 38.2051 323.947 38.3611C323.779 38.4211 323.611 38.4691 323.443 38.5051V39.7471H323.659C325.567 39.7471 327.265 39.6511 328.753 39.4591V31.2511H330.247V41.3671H328.753V40.6651C327.349 40.8451 325.639 40.9351 323.623 40.9351H317.557V39.7471H321.931V38.5411C321.691 38.5051 321.463 38.4451 321.247 38.3611C320.827 38.2051 320.461 37.9891 320.149 37.7131C319.837 37.4371 319.591 37.1191 319.411 36.7591C319.231 36.3871 319.141 36.0031 319.141 35.6071C319.141 35.2111 319.231 34.8271 319.411 34.4551C319.591 34.0711 319.837 33.7411 320.149 33.4651C320.173 33.4411 320.203 33.4171 320.239 33.3931H318.061V32.2771H321.715ZM324.559 35.5531C324.559 35.0371 324.367 34.5931 323.983 34.2211C323.599 33.8371 323.137 33.6451 322.597 33.6451C322.057 33.6451 321.595 33.8371 321.211 34.2211C320.827 34.5931 320.635 35.0371 320.635 35.5531C320.635 36.0691 320.827 36.5191 321.211 36.9031C321.595 37.2751 322.057 37.4611 322.597 37.4611C323.137 37.4611 323.599 37.2751 323.983 36.9031C324.367 36.5191 324.559 36.0691 324.559 35.5531ZM319.897 42.5551H330.247V46.7311H328.735V43.7611H319.897V42.5551ZM334.658 31.6471H344.702V32.9611H336.17V35.7151H344.828V37.0291H334.658V31.6471ZM346.502 38.8291V40.1431H332.93V38.8291H346.502ZM334.55 41.8891H344.774V46.7311H343.262V43.1851H334.55V41.8891ZM351.814 32.5651V30.9991H353.542V32.5651H357.088V33.8431H354.874C355.078 33.9751 355.264 34.1191 355.432 34.2751C355.78 34.5991 356.056 34.9891 356.26 35.4451C356.476 35.9011 356.584 36.3751 356.584 36.8671C356.584 37.3591 356.476 37.8271 356.26 38.2711C356.056 38.7151 355.78 39.0991 355.432 39.4231C355.072 39.7591 354.658 40.0231 354.19 40.2151C353.722 40.4071 353.218 40.5031 352.678 40.5031C352.138 40.5031 351.634 40.4071 351.166 40.2151C350.698 40.0231 350.284 39.7591 349.924 39.4231C349.576 39.0991 349.294 38.7151 349.078 38.2711C348.874 37.8271 348.772 37.3591 348.772 36.8671C348.772 36.3751 348.874 35.9011 349.078 35.4451C349.294 34.9891 349.576 34.5991 349.924 34.2751C350.092 34.1191 350.278 33.9751 350.482 33.8431H348.268V32.5651H351.814ZM355.09 36.7771C355.09 36.1291 354.85 35.5651 354.37 35.0851C353.902 34.5931 353.338 34.3471 352.678 34.3471C352.018 34.3471 351.448 34.5931 350.968 35.0851C350.5 35.5651 350.266 36.1291 350.266 36.7771C350.266 37.4251 350.5 37.9891 350.968 38.4691C351.448 38.9371 352.018 39.1711 352.678 39.1711C353.338 39.1711 353.902 38.9371 354.37 38.4691C354.85 37.9891 355.09 37.4251 355.09 36.7771ZM360.346 31.2511V35.9131H362.506V37.3351H360.346V42.5011H358.834V31.2511H360.346ZM360.796 46.5331H351.04V42.0691H352.606V45.1831H360.796V46.5331ZM3.65399 63.5651V61.9991H5.38199V63.5651H8.92799V64.8431H6.71399C6.91799 64.9751 7.10399 65.1191 7.27199 65.2751C7.61999 65.5991 7.89599 65.9891 8.09999 66.4451C8.31599 66.9011 8.42399 67.3751 8.42399 67.8671C8.42399 68.3591 8.31599 68.8271 8.09999 69.2711C7.89599 69.7151 7.61999 70.0991 7.27199 70.4231C6.91199 70.7591 6.49799 71.0231 6.02999 71.2151C5.56199 71.4071 5.05799 71.5031 4.51799 71.5031C3.97799 71.5031 3.47399 71.4071 3.00599 71.2151C2.53799 71.0231 2.12399 70.7591 1.76399 70.4231C1.41599 70.0991 1.13399 69.7151 0.917988 69.2711C0.713988 68.8271 0.611988 68.3591 0.611988 67.8671C0.611988 67.3751 0.713988 66.9011 0.917988 66.4451C1.13399 65.9891 1.41599 65.5991 1.76399 65.2751C1.93199 65.1191 2.11799 64.9751 2.32199 64.8431H0.107988V63.5651H3.65399ZM6.92999 67.7771C6.92999 67.1291 6.68999 66.5651 6.20999 66.0851C5.74199 65.5931 5.17799 65.3471 4.51799 65.3471C3.85799 65.3471 3.28799 65.5931 2.80799 66.0851C2.33999 66.5651 2.10599 67.1291 2.10599 67.7771C2.10599 68.4251 2.33999 68.9891 2.80799 69.4691C3.28799 69.9371 3.85799 70.1711 4.51799 70.1711C5.17799 70.1711 5.74199 69.9371 6.20999 69.4691C6.68999 68.9891 6.92999 68.4251 6.92999 67.7771ZM11.016 66.6971H9.01799V65.2931H11.016V62.2511H12.528V73.5011H11.016V70.4231H9.01799V69.0191H11.016V66.6971ZM13.068 77.5331H3.04199V73.0691H4.66199V76.1831H13.068V77.5331ZM16.2913 73.5371V62.9351H21.2773V64.3031H17.7853V72.1691H19.1893C20.8093 72.1691 22.1713 72.0611 23.2753 71.8451V62.2511H24.7153V67.5071H26.8573V62.2511H28.3333V77.5331H26.8573V68.8391H24.7153V77.5331H23.2753V73.2131C22.2913 73.4291 20.9773 73.5371 19.3333 73.5371H16.2913ZM42.2845 62.2511V67.3631H44.6605V68.7671H42.2845V77.5331H40.7725V62.2511H42.2845ZM34.2385 65.8871V64.2851H30.9265V62.9351H38.9905V64.2851H35.7865V65.8511C35.7745 67.3511 36.1285 68.6711 36.8485 69.8111C37.5325 70.9031 38.4385 71.9291 39.5665 72.8891L38.6485 73.8251C37.4725 72.8531 36.4105 71.6411 35.4625 70.1891C35.3065 69.9491 35.1625 69.7091 35.0305 69.4691C34.8745 69.8291 34.6825 70.1771 34.4545 70.5131C33.4705 72.0131 32.3845 73.1711 31.1965 73.9871L30.1885 73.0151C31.3165 72.2591 32.3065 71.2091 33.1585 69.8651C33.8785 68.7131 34.2385 67.3871 34.2385 65.8871ZM47.7398 62.6471H57.7838V63.9431H49.2518V67.0571H57.9098V68.3531H53.5538V70.4411H59.5838V71.7191H55.2098C55.3658 71.8271 55.5098 71.9411 55.6418 72.0611C56.0018 72.3851 56.2898 72.7751 56.5058 73.2311C56.7218 73.6751 56.8298 74.1491 56.8298 74.6531C56.8298 75.1571 56.7218 75.6371 56.5058 76.0931C56.2898 76.5371 56.0018 76.9211 55.6418 77.2451C55.2818 77.5811 54.8558 77.8451 54.3638 78.0371C53.8718 78.2411 53.3498 78.3431 52.7978 78.3431C52.2458 78.3431 51.7238 78.2411 51.2318 78.0371C50.7398 77.8451 50.3138 77.5811 49.9538 77.2451C49.5938 76.9211 49.3058 76.5371 49.0898 76.0931C48.8738 75.6371 48.7658 75.1571 48.7658 74.6531C48.7658 74.1491 48.8738 73.6751 49.0898 73.2311C49.3058 72.7751 49.5938 72.3851 49.9538 72.0611C50.0858 71.9411 50.2298 71.8271 50.3858 71.7191H46.0118V70.4411H52.0418V68.3531H47.7398V62.6471ZM55.3178 74.5991C55.3178 73.9151 55.0718 73.3331 54.5798 72.8531C54.0878 72.3611 53.4938 72.1151 52.7978 72.1151C52.1018 72.1151 51.5078 72.3611 51.0158 72.8531C50.5238 73.3331 50.2778 73.9151 50.2778 74.5991C50.2778 75.2831 50.5238 75.8711 51.0158 76.3631C51.5078 76.8431 52.1018 77.0831 52.7978 77.0831C53.4938 77.0831 54.0878 76.8431 54.5798 76.3631C55.0718 75.8711 55.3178 75.2831 55.3178 74.5991ZM72.9591 62.2511V67.7231H75.3351V69.1271H72.9591V77.5331H71.4471V62.2511H72.9591ZM64.7871 66.0671V65.1851H61.2591V63.8171H64.7871V61.9811H66.3351V63.8171H69.6471V65.1851H66.3351V66.0671C66.3471 67.3991 66.6651 68.6531 67.2891 69.8291C67.8891 70.9571 68.8071 72.0371 70.0431 73.0691L69.0891 74.0411C67.8411 72.9851 66.8211 71.7851 66.0291 70.4411C65.8611 70.1531 65.7051 69.8591 65.5611 69.5591C65.4291 69.8591 65.2731 70.1591 65.0931 70.4591C64.2291 71.8991 63.1731 73.1171 61.9251 74.1131L60.8631 73.1771C62.0631 72.2291 63.0471 71.1071 63.8151 69.8111C64.4511 68.7191 64.7751 67.4711 64.7871 66.0671ZM88.2783 63.0791V67.4891C88.2783 69.8171 88.0683 72.0131 87.6483 74.0771H90.2583V75.4091H76.6863V74.0771H86.2083C86.5803 72.1091 86.7663 70.0571 86.7663 67.9211V64.4111H78.1983V63.0791H88.2783ZM103.958 68.8931H93.7516V65.1491H102.356V63.7451H93.7516V62.5571H103.868V66.3011H95.2636V67.7231H103.958V68.8931ZM105.596 71.3411H99.6376V72.6011H97.9816V71.3411H92.0236V70.1351H105.596V71.3411ZM103.868 77.5331H93.7516V72.4751H95.2636V73.6451H102.356V72.4751H103.868V77.5331ZM102.356 76.3811V74.7791H95.2636V76.3811H102.356ZM116.595 66.6971C116.595 67.2251 116.487 67.7291 116.271 68.2091C116.055 68.6891 115.761 69.1031 115.389 69.4511C115.005 69.8111 114.567 70.0991 114.075 70.3151C113.583 70.5191 113.055 70.6211 112.491 70.6211C111.927 70.6211 111.399 70.5191 110.907 70.3151C110.415 70.0991 109.977 69.8111 109.593 69.4511C109.221 69.1031 108.927 68.6891 108.711 68.2091C108.495 67.7291 108.387 67.2251 108.387 66.6971C108.387 66.1691 108.495 65.6651 108.711 65.1851C108.927 64.7051 109.221 64.2911 109.593 63.9431C109.977 63.5831 110.415 63.3011 110.907 63.0971C111.399 62.8811 111.927 62.7731 112.491 62.7731C113.055 62.7731 113.583 62.8811 114.075 63.0971C114.567 63.3011 115.005 63.5831 115.389 63.9431C115.761 64.2911 116.055 64.7051 116.271 65.1851C116.487 65.6651 116.595 66.1691 116.595 66.6971ZM115.101 66.6971C115.101 66.3251 115.029 65.9831 114.885 65.6711C114.741 65.3471 114.549 65.0711 114.309 64.8431C114.081 64.6031 113.811 64.4111 113.499 64.2671C113.187 64.1231 112.851 64.0511 112.491 64.0511C112.131 64.0511 111.795 64.1231 111.483 64.2671C111.171 64.4111 110.895 64.6031 110.655 64.8431C110.427 65.0711 110.241 65.3471 110.097 65.6711C109.953 65.9831 109.881 66.3251 109.881 66.6971C109.881 67.0691 109.953 67.4171 110.097 67.7411C110.241 68.0531 110.427 68.3291 110.655 68.5691C110.895 68.7971 111.171 68.9831 111.483 69.1271C111.795 69.2711 112.131 69.3431 112.491 69.3431C112.851 69.3431 113.187 69.2711 113.499 69.1271C113.811 68.9831 114.081 68.7971 114.309 68.5691C114.549 68.3291 114.741 68.0531 114.885 67.7411C115.029 67.4171 115.101 67.0691 115.101 66.6971ZM120.105 62.2511V77.5331H118.575V74.0951C117.279 74.2871 115.563 74.3831 113.427 74.3831H107.415V73.0511H113.409C115.497 73.0511 117.219 72.9671 118.575 72.7991V62.2511H120.105ZM140.21 62.2511V72.2591H138.698V67.9751H136.034V66.6611H138.698V62.2511H140.21ZM132.938 65.1491V65.9051C132.938 66.5411 133.316 67.2851 134.072 68.1371C134.696 68.8571 135.512 69.4511 136.52 69.9191L135.692 70.9991C134.66 70.5431 133.688 69.8351 132.776 68.8751C132.56 68.6471 132.368 68.4131 132.2 68.1731C132.032 68.4731 131.828 68.7731 131.588 69.0731C130.712 70.1891 129.788 70.9991 128.816 71.5031L127.79 70.5311C128.738 70.0271 129.578 69.3011 130.31 68.3531C131.03 67.4291 131.39 66.6131 131.39 65.9051V65.1491H127.952V63.7811H131.39V61.9811H132.938V63.7811H136.286V65.1491H132.938ZM136.358 72.9071C136.358 73.9151 136.934 74.7731 138.086 75.4811C138.974 76.0211 140.03 76.3991 141.254 76.6151L140.588 77.7671C139.148 77.5871 137.804 77.0471 136.556 76.1471C136.148 75.8471 135.806 75.5231 135.53 75.1751C135.254 75.5231 134.906 75.8471 134.486 76.1471C133.25 77.0471 131.912 77.5871 130.472 77.7671L129.806 76.6151C131.03 76.3991 132.086 76.0211 132.974 75.4811C134.126 74.7731 134.702 73.9151 134.702 72.9071V72.2771H136.358V72.9071ZM160.531 62.2511V69.8651H159.019V62.2511H160.531ZM160.729 77.5331H151.045V73.6631H159.019V72.2051H151.045V70.9991H160.531V74.8691H152.557V76.3271H160.729V77.5331ZM153.187 63.8351C153.187 64.9631 153.535 65.9411 154.231 66.7691C154.879 67.5251 155.737 68.1371 156.805 68.6051L155.977 69.6491C154.849 69.1691 153.859 68.4431 153.007 67.4711C152.791 67.2311 152.605 66.9731 152.449 66.6971C152.269 67.0211 152.053 67.3271 151.801 67.6151C150.973 68.5751 149.977 69.3071 148.813 69.8111L147.877 68.8211C148.957 68.3531 149.851 67.7171 150.559 66.9131C151.279 66.1091 151.639 65.0831 151.639 63.8351V62.5571H153.187V63.8351ZM176.912 70.1711V71.4851H172.52C172.7 71.6051 172.874 71.7431 173.042 71.8991C173.414 72.2351 173.708 72.6371 173.924 73.1051C174.14 73.5611 174.248 74.0471 174.248 74.5631C174.248 75.0791 174.14 75.5711 173.924 76.0391C173.708 76.4951 173.414 76.8911 173.042 77.2271C172.67 77.5751 172.232 77.8451 171.728 78.0371C171.224 78.2411 170.69 78.3431 170.126 78.3431C169.562 78.3431 169.028 78.2411 168.524 78.0371C168.02 77.8451 167.582 77.5751 167.21 77.2271C166.838 76.8911 166.544 76.4951 166.328 76.0391C166.112 75.5711 166.004 75.0791 166.004 74.5631C166.004 74.0471 166.112 73.5611 166.328 73.1051C166.544 72.6371 166.838 72.2351 167.21 71.8991C167.378 71.7431 167.552 71.6051 167.732 71.4851H163.34V70.1711H176.912ZM172.736 74.5271C172.736 73.8311 172.478 73.2371 171.962 72.7451C171.446 72.2531 170.834 72.0071 170.126 72.0071C169.418 72.0071 168.806 72.2531 168.29 72.7451C167.774 73.2371 167.516 73.8311 167.516 74.5271C167.516 75.2231 167.774 75.8171 168.29 76.3091C168.806 76.8011 169.418 77.0471 170.126 77.0471C170.834 77.0471 171.446 76.8011 171.962 76.3091C172.478 75.8171 172.736 75.2231 172.736 74.5271ZM169.316 63.9611H164.96V62.6471H175.292V63.9611H170.936V64.3391C170.936 65.1191 171.662 65.8991 173.114 66.6791C173.93 67.0991 174.902 67.4051 176.03 67.5971L175.418 68.7131C173.99 68.4611 172.694 67.9811 171.53 67.2731C170.942 66.9251 170.474 66.5591 170.126 66.1751C169.778 66.5591 169.31 66.9251 168.722 67.2731C167.558 67.9811 166.262 68.4611 164.834 68.7131L164.222 67.5971C165.35 67.4051 166.322 67.0991 167.138 66.6791C168.59 65.8991 169.316 65.1191 169.316 64.3391V63.9611ZM193.993 64.4111H186.901V69.4691H193.993V64.4111ZM185.389 63.0611H195.505V70.8191H191.203V74.5631H197.233V75.8951H183.661V74.5631H189.691V70.8191H185.389V63.0611ZM199.952 69.4691V62.8091H204.848V64.0511H201.446V68.2451H202.886C203.918 68.2451 204.884 68.1671 205.784 68.0111V69.2171C204.86 69.3851 203.93 69.4691 202.994 69.4691H199.952ZM207.188 66.6251H204.218V65.4191H207.188V62.2511H208.646V69.8651H207.188V66.6251ZM210.518 62.2511H211.994V69.8651H210.518V62.2511ZM212.192 77.5331H202.328V73.6451H210.482V72.2051H202.328V70.9811H211.994V74.8691H203.84V76.3091H212.192V77.5331Z" fill="black"/>
</svg>
