<svg width="156" height="23" viewBox="0 0 156 23" fill="none" xmlns="http://www.w3.org/2000/svg">
<path d="M16.9921 11.6639H2.30408V0.815858H5.52008V3.67186H13.7761V0.815858H16.9921V11.6639ZM13.7761 8.80786V6.52786H5.52008V8.80786H13.7761ZM11.2561 16.0799V22.2959H8.04008V16.0799H8.20756e-05V13.1999H19.2961V16.0799H11.2561ZM25.4658 2.66386V0.431859H28.8738V2.66386H33.9138V5.35186H31.6578C32.1538 5.87986 32.5618 6.48786 32.8818 7.17586C33.2018 7.91186 33.3618 8.69586 33.3618 9.52786C33.3618 10.3599 33.1938 11.1439 32.8578 11.8799C32.5378 12.6159 32.1058 13.2559 31.5618 13.7999C31.0018 14.3599 30.3378 14.7999 29.5698 15.1199C28.8178 15.4399 28.0178 15.5999 27.1698 15.5999C26.3218 15.5999 25.5138 15.4399 24.7458 15.1199C23.9938 14.7999 23.3378 14.3599 22.7778 13.7999C22.2338 13.2559 21.7938 12.6159 21.4578 11.8799C21.1378 11.1439 20.9778 10.3599 20.9778 9.52786C20.9778 8.69586 21.1458 7.91186 21.4818 7.17586C21.7858 6.48786 22.1858 5.87986 22.6818 5.35186H20.4018V2.66386H25.4658ZM30.2178 9.43186C30.2178 8.98386 30.1298 8.55186 29.9538 8.13586C29.7778 7.71986 29.5538 7.36786 29.2818 7.07986C28.9938 6.79186 28.6658 6.55986 28.2978 6.38386C27.9458 6.20786 27.5698 6.11986 27.1698 6.11986C26.7698 6.11986 26.3858 6.20786 26.0178 6.38386C25.6498 6.55986 25.3298 6.79186 25.0578 7.07986C24.7698 7.36786 24.5378 7.71986 24.3618 8.13586C24.2018 8.55186 24.1218 8.98386 24.1218 9.43186C24.1218 9.87986 24.2018 10.3119 24.3618 10.7279C24.5378 11.1439 24.7698 11.4959 25.0578 11.7839C25.3298 12.0719 25.6498 12.3039 26.0178 12.4799C26.3858 12.6559 26.7698 12.7439 27.1698 12.7439C27.5698 12.7439 27.9458 12.6559 28.2978 12.4799C28.6658 12.3039 28.9938 12.0719 29.2818 11.7839C29.5538 11.4959 29.7778 11.1439 29.9538 10.7279C30.1298 10.3119 30.2178 9.87986 30.2178 9.43186ZM37.8978 0.431859V6.57586H40.5138V9.59986H37.8978V21.9119H34.7298V0.431859H37.8978ZM59.4005 13.4879H48.9605V1.05586H52.1285V4.48786H56.2565V1.05586H59.4005V3.11986H62.2325V0.431859H65.4485V16.2959H62.2325V10.9199H59.4005V13.4879ZM59.4005 5.90386V8.13586H62.2325V5.90386H59.4005ZM56.2565 10.6799V7.27186H52.1285V10.6799H56.2565ZM66.0725 21.9119H51.8405V15.1679H55.1285V19.0799H66.0725V21.9119ZM70.2981 0.983859H84.8901V3.76786H73.5141V6.86386H85.0581V9.64786H79.2501V11.3519H87.2901V14.1599H82.3221C82.6421 14.5279 82.9141 14.9359 83.1381 15.3839C83.4581 16.0559 83.6181 16.7679 83.6181 17.5199C83.6181 18.2719 83.4581 18.9839 83.1381 19.6559C82.8181 20.3119 82.3861 20.8879 81.8421 21.3839C81.3141 21.8639 80.6821 22.2479 79.9461 22.5359C79.2261 22.8399 78.4581 22.9919 77.6421 22.9919C76.8261 22.9919 76.0501 22.8399 75.3141 22.5359C74.5941 22.2479 73.9621 21.8639 73.4181 21.3839C72.8901 20.8879 72.4661 20.3119 72.1461 19.6559C71.8261 18.9839 71.6661 18.2719 71.6661 17.5199C71.6661 16.7679 71.8261 16.0559 72.1461 15.3839C72.3701 14.9359 72.6421 14.5279 72.9621 14.1599H67.9941V11.3519H76.0341V9.64786H70.2981V0.983859ZM80.4021 17.4479C80.4021 16.6799 80.1301 16.0319 79.5861 15.5039C79.0421 14.9599 78.3941 14.6879 77.6421 14.6879C76.8901 14.6879 76.2421 14.9599 75.6981 15.5039C75.1541 16.0319 74.8821 16.6799 74.8821 17.4479C74.8821 18.2159 75.1541 18.8719 75.6981 19.4159C76.2421 19.9439 76.8901 20.2079 77.6421 20.2079C78.3941 20.2079 79.0421 19.9439 79.5861 19.4159C80.1301 18.8719 80.4021 18.2159 80.4021 17.4479ZM106.348 0.431859V12.8159H103.132V7.39186H98.9798V4.55986H103.132V0.431859H106.348ZM105.94 17.7839C105.94 18.5039 105.78 19.1679 105.46 19.7759C105.156 20.3839 104.74 20.9359 104.212 21.4319C103.684 21.8959 103.06 22.2719 102.34 22.5599C101.636 22.8479 100.876 22.9919 100.06 22.9919C99.2438 22.9919 98.4758 22.8479 97.7558 22.5599C97.0518 22.2719 96.4278 21.8959 95.8838 21.4319C95.3718 20.9359 94.9558 20.3839 94.6358 19.7759C94.3318 19.1679 94.1798 18.5039 94.1798 17.7839C94.1798 17.0639 94.3318 16.4079 94.6358 15.8159C94.9558 15.2239 95.3718 14.6879 95.8838 14.2079C96.4278 13.7279 97.0518 13.3439 97.7558 13.0559C98.4758 12.7679 99.2438 12.6239 100.06 12.6239C100.876 12.6239 101.636 12.7679 102.34 13.0559C103.06 13.3439 103.684 13.7279 104.212 14.2079C104.74 14.6879 105.156 15.2239 105.46 15.8159C105.78 16.4079 105.94 17.0639 105.94 17.7839ZM102.724 17.7839C102.724 17.0799 102.46 16.5039 101.932 16.0559C101.404 15.6079 100.78 15.3839 100.06 15.3839C99.3398 15.3839 98.7158 15.6079 98.1878 16.0559C97.6598 16.5039 97.3958 17.0799 97.3958 17.7839C97.3958 18.4879 97.6598 19.0639 98.1878 19.5119C98.7158 19.9599 99.3398 20.1839 100.06 20.1839C100.78 20.1839 101.404 19.9599 101.932 19.5119C102.46 19.0639 102.724 18.4879 102.724 17.7839ZM96.5558 2.75986C96.5558 4.51986 96.9878 5.92786 97.8518 6.98386C98.7158 8.03986 99.9718 9.03186 101.62 9.95986L99.7958 12.2399C97.9718 11.2959 96.4358 10.0799 95.1878 8.59186L95.0918 8.44786C94.9638 8.65586 94.8278 8.84786 94.6838 9.02386C93.4198 10.6879 91.8918 12.0239 90.0998 13.0319L88.0598 10.8479C89.7398 9.93586 91.0758 8.80786 92.0678 7.46386C92.8838 6.35986 93.2918 4.79186 93.2918 2.75986V0.983859H96.5558V2.75986ZM116.811 16.5599V1.36786H124.419V4.24786H120.003V13.6799H121.611C122.971 13.6799 124.475 13.5599 126.123 13.3199V0.431859H129.243V7.43986H130.899V0.431859H134.067V21.9119H130.899V10.3199H129.243V21.9119H126.123V16.1999C124.619 16.4399 122.995 16.5599 121.251 16.5599H116.811ZM151.612 5.37586C151.612 6.12786 151.452 6.81586 151.132 7.43986C150.812 8.06386 150.388 8.62386 149.86 9.11986C149.316 9.61586 148.676 10.0159 147.94 10.3199C147.22 10.6079 146.452 10.7519 145.636 10.7519C144.82 10.7519 144.044 10.6079 143.308 10.3199C142.588 10.0159 141.956 9.61586 141.412 9.11986C140.884 8.62386 140.46 8.06386 140.14 7.43986C139.82 6.81586 139.66 6.12786 139.66 5.37586C139.66 4.62386 139.82 3.93586 140.14 3.31186C140.46 2.68786 140.884 2.12786 141.412 1.63186C141.956 1.13586 142.588 0.743858 143.308 0.455858C144.044 0.151858 144.82 -0.000141621 145.636 -0.000141621C146.452 -0.000141621 147.22 0.151858 147.94 0.455858C148.676 0.743858 149.316 1.13586 149.86 1.63186C150.388 2.12786 150.812 2.68786 151.132 3.31186C151.452 3.93586 151.612 4.62386 151.612 5.37586ZM148.396 5.37586C148.396 4.62386 148.124 4.00786 147.58 3.52786C147.036 3.03186 146.388 2.78386 145.636 2.78386C144.884 2.78386 144.236 3.03186 143.692 3.52786C143.148 4.00786 142.876 4.62386 142.876 5.37586C142.876 6.12786 143.148 6.75186 143.692 7.24786C144.236 7.72786 144.884 7.96786 145.636 7.96786C146.388 7.96786 147.036 7.72786 147.58 7.24786C148.124 6.75186 148.396 6.12786 148.396 5.37586ZM155.284 11.4959V14.3039H150.34C150.644 14.6719 150.908 15.0719 151.132 15.5039C151.436 16.1599 151.588 16.8559 151.588 17.5919C151.588 18.3279 151.428 19.0239 151.108 19.6799C150.804 20.3359 150.38 20.9119 149.836 21.4079C149.308 21.8879 148.676 22.2719 147.94 22.5599C147.22 22.8479 146.452 22.9919 145.636 22.9919C144.82 22.9919 144.044 22.8479 143.308 22.5599C142.588 22.2719 141.956 21.8879 141.412 21.4079C140.884 20.9119 140.46 20.3359 140.14 19.6799C139.836 19.0239 139.684 18.3279 139.684 17.5919C139.684 16.8559 139.844 16.1599 140.164 15.5039C140.372 15.0719 140.628 14.6719 140.932 14.3039H135.988V11.4959H155.284ZM148.372 17.5439C148.372 16.7919 148.1 16.1599 147.556 15.6479C147.012 15.1199 146.372 14.8559 145.636 14.8559C144.9 14.8559 144.26 15.1199 143.716 15.6479C143.172 16.1599 142.9 16.7919 142.9 17.5439C142.9 18.2959 143.172 18.9359 143.716 19.4639C144.26 19.9759 144.9 20.2319 145.636 20.2319C146.372 20.2319 147.012 19.9759 147.556 19.4639C148.1 18.9359 148.372 18.2959 148.372 17.5439Z" fill="white"/>
</svg>
