<svg width="156" height="23" viewBox="0 0 156 23" fill="none" xmlns="http://www.w3.org/2000/svg">
<path d="M16.9681 1.10422V6.07222C16.9681 9.08022 16.6481 11.9522 16.0081 14.6882H12.8401C13.4481 11.9362 13.7521 9.40822 13.7521 7.10422V3.98422H2.04008V1.10422H16.9681ZM19.2961 16.2722V19.1522H8.20756e-05V16.2722H6.19208V8.80822H9.40808V16.2722H19.2961ZM39.7458 10.6802V13.5602H31.9698V16.7042H28.7058V13.5602H20.4498V10.6802H39.7458ZM37.7298 21.4802H22.7538V15.3842H26.0178V18.6242H37.7298V21.4802ZM31.7298 1.46422C31.7298 3.00022 32.4178 4.28822 33.7938 5.32822C35.0738 6.28822 36.8498 6.97622 39.1218 7.39222L37.7058 9.86422C35.3858 9.51222 33.3058 8.65622 31.4658 7.29622C30.9378 6.91222 30.4818 6.48822 30.0978 6.02422C29.7138 6.48822 29.2578 6.91222 28.7298 7.29622C26.8898 8.65622 24.8098 9.51222 22.4898 9.86422L21.0738 7.39222C23.3458 6.97622 25.1218 6.28822 26.4018 5.32822C27.7778 4.28822 28.4658 3.00022 28.4658 1.46422V0.000217915H31.7298V1.46422ZM43.2035 1.10422H57.7955V3.98422H46.4195V9.62422H57.9635V12.5042H52.1555V16.4162H60.1955V19.2962H40.8995V16.4162H48.9395V12.5042H43.2035V1.10422ZM79.2501 15.0002V21.8642H76.0341V15.0002H67.9941V12.1202H87.2901V15.0002H79.2501ZM79.2741 2.08822C79.2741 3.60822 79.8741 4.86422 81.0741 5.85622C82.4021 6.96022 84.1941 7.88822 86.4501 8.64022L84.7221 10.9442C82.3381 10.2242 80.3781 9.19222 78.8421 7.84822C78.3941 7.46422 77.9941 7.05622 77.6421 6.62422C77.2901 7.05622 76.8901 7.46422 76.4421 7.84822C74.9061 9.19222 72.9461 10.2242 70.5621 10.9442L68.8341 8.64022C71.0901 7.88822 72.8821 6.96022 74.2101 5.85622C75.4101 4.86422 76.0101 3.60822 76.0101 2.08822V0.0962181H79.2741V2.08822ZM107.74 16.4162V19.2962H88.4438V16.4162H96.4838V12.1202H99.6998V16.4162H107.74ZM99.7238 2.85622C99.7238 4.76022 100.38 6.31222 101.692 7.51222C103.132 8.84022 104.964 9.83222 107.188 10.4882L105.388 12.8642C102.684 11.9522 100.524 10.6402 98.9078 8.92822C98.6038 8.60822 98.3318 8.28022 98.0918 7.94422C97.8518 8.28022 97.5798 8.60822 97.2758 8.92822C95.6598 10.6402 93.4998 11.9522 90.7958 12.8642L88.9958 10.4882C91.2198 9.83222 93.0518 8.84022 94.4918 7.51222C95.8038 6.31222 96.4598 4.76022 96.4598 2.85622V0.648218H99.7238V2.85622ZM130.899 7.87222H129.267V12.3122C129.459 12.3602 129.643 12.4242 129.819 12.5042C130.539 12.7922 131.163 13.1762 131.691 13.6562C132.219 14.1362 132.635 14.6882 132.939 15.3122C133.259 15.9362 133.419 16.6082 133.419 17.3282C133.419 18.0482 133.259 18.7202 132.939 19.3442C132.635 19.9522 132.219 20.5042 131.691 21.0002C131.163 21.4642 130.539 21.8402 129.819 22.1282C129.099 22.4162 128.331 22.5602 127.515 22.5602C126.699 22.5602 125.931 22.4162 125.211 22.1282C124.491 21.8402 123.859 21.4642 123.315 21.0002C122.803 20.5042 122.387 19.9522 122.067 19.3442C121.763 18.7202 121.611 18.0482 121.611 17.3282C121.611 16.6082 121.763 15.9362 122.067 15.3122C122.387 14.6882 122.803 14.1362 123.315 13.6562C123.859 13.1762 124.491 12.7922 125.211 12.5042C125.515 12.3762 125.827 12.2802 126.147 12.2162V0.000217915H129.267V5.01622H130.899V0.000217915H134.067V12.5522H130.899V7.87222ZM130.203 17.3282C130.203 16.6242 129.931 16.0482 129.387 15.6002C128.859 15.1362 128.235 14.9042 127.515 14.9042C126.795 14.9042 126.163 15.1362 125.619 15.6002C125.091 16.0482 124.827 16.6242 124.827 17.3282C124.827 18.0322 125.091 18.6162 125.619 19.0802C126.163 19.5282 126.795 19.7522 127.515 19.7522C128.235 19.7522 128.859 19.5282 129.387 19.0802C129.931 18.6162 130.203 18.0322 130.203 17.3282ZM119.091 0.552218H122.235V2.92822C122.235 4.65622 122.563 6.14422 123.219 7.39222C123.811 8.52822 124.715 9.57622 125.931 10.5362L123.867 12.5282C122.475 11.3442 121.387 10.1122 120.603 8.83222V8.85622C119.643 10.4882 118.443 11.8482 117.003 12.9362L114.795 10.9202C116.187 9.92822 117.259 8.72822 118.011 7.32022C118.731 6.16822 119.091 4.68822 119.091 2.88022V0.552218ZM152.812 0.000217915V5.52022H155.692V8.44822H152.812V15.8642H149.596V0.000217915H152.812ZM153.412 21.4802H139.204V14.4962H142.468V18.6242H153.412V21.4802ZM143.764 2.61622C143.764 4.69622 144.196 6.38422 145.06 7.68022C146.02 9.12022 147.292 10.3442 148.876 11.3522L146.98 13.5122C145.252 12.4562 143.732 11.0562 142.42 9.31222C142.308 9.16822 142.204 9.02422 142.108 8.88022C142.012 9.05622 141.9 9.23222 141.772 9.40822C140.508 11.2162 139.02 12.6802 137.308 13.8002L135.196 11.7362C136.828 10.7122 138.156 9.42422 139.18 7.87222C140.06 6.52822 140.5 4.77622 140.5 2.61622V0.552218H143.764V2.61622Z" fill="white"/>
</svg>
