<svg width="254" height="46" viewBox="0 0 254 46" fill="none" xmlns="http://www.w3.org/2000/svg">
<path d="M1.72799 0.666297H3.23999V4.4463H12.078V5.7243H7.54199V7.6683H13.572V8.9463H-1.16453e-05V7.6683H6.02999V5.7243H1.72799V0.666297ZM4.75199 11.7543V14.4903H8.80199V11.7543H4.75199ZM3.27599 14.4903V11.7543H1.60199V10.5123H11.97V11.7543H10.278V14.4903H12.222V15.7323H1.34999V14.4903H3.27599ZM26.6413 4.3923C26.6413 4.9683 26.5213 5.5083 26.2813 6.0123C26.0413 6.5163 25.7113 6.9543 25.2913 7.3263C25.0513 7.5663 24.7813 7.7703 24.4813 7.9383H28.9093V9.2703H15.3373V7.9383H19.7653C19.4653 7.7703 19.1893 7.5663 18.9373 7.3263C18.5293 6.9543 18.2053 6.5163 17.9653 6.0123C17.7253 5.5083 17.6053 4.9683 17.6053 4.3923C17.6053 3.8163 17.7253 3.2763 17.9653 2.7723C18.2053 2.2683 18.5293 1.8303 18.9373 1.4583C19.3453 1.0743 19.8193 0.774296 20.3593 0.558296C20.9113 0.330296 21.4993 0.216296 22.1233 0.216296C22.7353 0.216296 23.3173 0.330296 23.8693 0.558296C24.4213 0.774296 24.8953 1.0743 25.2913 1.4583C25.7113 1.8303 26.0413 2.2683 26.2813 2.7723C26.5213 3.2763 26.6413 3.8163 26.6413 4.3923ZM25.1293 4.4823C25.1293 4.0863 25.0453 3.7143 24.8773 3.3663C24.7213 3.0063 24.5113 2.6943 24.2473 2.4303C23.9713 2.1663 23.6533 1.9563 23.2933 1.8003C22.9333 1.6443 22.5433 1.5663 22.1233 1.5663C21.7033 1.5663 21.3133 1.6443 20.9533 1.8003C20.5933 1.9563 20.2753 2.1663 19.9993 2.4303C19.7353 2.6943 19.5193 3.0063 19.3513 3.3663C19.1953 3.7143 19.1173 4.0863 19.1173 4.4823C19.1173 4.8783 19.1953 5.2563 19.3513 5.6163C19.5193 5.9643 19.7353 6.2703 19.9993 6.5343C20.2753 6.7983 20.5933 7.0083 20.9533 7.1643C21.3133 7.3203 21.7033 7.3983 22.1233 7.3983C22.5433 7.3983 22.9333 7.3203 23.2933 7.1643C23.6533 7.0083 23.9713 6.7983 24.2473 6.5343C24.5113 6.2703 24.7213 5.9643 24.8773 5.6163C25.0453 5.2563 25.1293 4.8783 25.1293 4.4823ZM27.4513 15.7323H17.1553V11.2503H18.7033V14.3643H27.4513V15.7323ZM48.1863 0.450296V11.5203H46.6743V5.8683H43.8483V4.5363H46.6743V0.450296H48.1863ZM48.6543 15.7323H38.8803V11.1783H40.4283V14.4003H48.6543V15.7323ZM39.3303 3.5643V2.4123H36.1623V1.0623H44.2083V2.4123H40.8783V3.6543C40.8783 4.7223 41.2383 5.6583 41.9583 6.4623C42.8103 7.4223 43.7283 8.1303 44.7123 8.5863L43.9023 9.6123C42.6423 8.9763 41.5683 8.1663 40.6803 7.1823C40.4643 6.9423 40.2783 6.6963 40.1223 6.4443C39.9543 6.7443 39.7563 7.0323 39.5283 7.3083C38.6883 8.3643 37.6923 9.2043 36.5403 9.8283L35.5863 8.8563C36.6423 8.2923 37.5843 7.4943 38.4123 6.4623C39.0243 5.6943 39.3303 4.7283 39.3303 3.5643ZM62.9295 8.4603H52.7235V3.9783H61.3275V2.1063H52.7235V0.810296H62.8395V5.2563H54.2355V7.1643H62.9295V8.4603ZM64.5675 11.6463H61.3275V16.0203H59.7975V11.6463H55.7655V16.0203H54.2355V11.6463H50.9955V10.3863H64.5675V11.6463ZM77.9225 2.2323H73.8725V6.4443H77.9225V2.2323ZM79.4165 7.6683H72.3785V1.0083H79.4165V7.6683ZM83.8445 0.450296V8.0643H82.3325V0.450296H83.8445ZM84.0425 15.7323H74.3585V11.8623H82.3325V10.4043H74.3585V9.1983H83.8445V13.0683H75.8705V14.5263H84.0425V15.7323ZM88.3818 1.2603H98.4258V2.6283H89.8938V7.6503H98.5518V9.0183H94.1958V12.7623H100.226V14.0943H86.6538V12.7623H92.6838V9.0183H88.3818V1.2603ZM110.721 4.8963C110.721 5.4243 110.613 5.9283 110.397 6.4083C110.181 6.8883 109.887 7.3023 109.515 7.6503C109.131 8.0103 108.693 8.2923 108.201 8.4963C107.949 8.6043 107.691 8.6883 107.427 8.7483V11.4303C109.371 11.4303 111.057 11.3403 112.485 11.1603V0.450296H113.979V6.3543H116.139V7.7943H113.979V15.7323H112.485V12.4563C111.153 12.6603 109.467 12.7623 107.427 12.7623H101.739V11.4303H105.951V8.7663C105.627 8.7183 105.321 8.6283 105.033 8.4963C104.541 8.2923 104.103 8.0103 103.719 7.6503C103.347 7.3023 103.053 6.8883 102.837 6.4083C102.621 5.9283 102.513 5.4243 102.513 4.8963C102.513 4.3683 102.621 3.8643 102.837 3.3843C103.053 2.9043 103.347 2.4903 103.719 2.1423C104.103 1.7823 104.541 1.5003 105.033 1.2963C105.525 1.0803 106.053 0.972296 106.617 0.972296C107.181 0.972296 107.709 1.0803 108.201 1.2963C108.693 1.5003 109.131 1.7823 109.515 2.1423C109.887 2.4903 110.181 2.9043 110.397 3.3843C110.613 3.8643 110.721 4.3683 110.721 4.8963ZM109.227 4.8963C109.227 4.5243 109.155 4.1823 109.011 3.8703C108.867 3.5463 108.675 3.2703 108.435 3.0423C108.207 2.8023 107.937 2.6103 107.625 2.4663C107.313 2.3223 106.977 2.2503 106.617 2.2503C106.257 2.2503 105.921 2.3223 105.609 2.4663C105.297 2.6103 105.021 2.8023 104.781 3.0423C104.553 3.2703 104.367 3.5463 104.223 3.8703C104.079 4.1823 104.007 4.5243 104.007 4.8963C104.007 5.2683 104.079 5.6163 104.223 5.9403C104.367 6.2523 104.553 6.5283 104.781 6.7683C105.021 6.9963 105.297 7.1823 105.609 7.3263C105.921 7.4703 106.257 7.5423 106.617 7.5423C106.977 7.5423 107.313 7.4703 107.625 7.3263C107.937 7.1823 108.207 6.9963 108.435 6.7683C108.675 6.5283 108.867 6.2523 109.011 5.9403C109.155 5.6163 109.227 5.2683 109.227 4.8963ZM129.746 6.1383C129.686 6.4383 129.602 6.7203 129.494 6.9843C129.278 7.4763 128.99 7.9023 128.63 8.2623C128.246 8.6343 127.808 8.9283 127.316 9.1443C126.836 9.3603 126.32 9.4683 125.768 9.4683C125.216 9.4683 124.694 9.3603 124.202 9.1443C123.722 8.9283 123.29 8.6343 122.906 8.2623C122.546 7.9023 122.258 7.4823 122.042 7.0023C121.838 6.5103 121.736 5.9823 121.736 5.4183C121.736 4.8543 121.838 4.3323 122.042 3.8523C122.258 3.3603 122.546 2.9343 122.906 2.5743C123.29 2.2023 123.722 1.9083 124.202 1.6923C124.694 1.4763 125.216 1.3683 125.768 1.3683C126.32 1.3683 126.836 1.4763 127.316 1.6923C127.808 1.9083 128.246 2.2023 128.63 2.5743C128.99 2.9343 129.278 3.3543 129.494 3.8343C129.602 4.1103 129.686 4.3983 129.746 4.6983H131.312V0.450296H132.716V15.7323H131.312V6.1383H129.746ZM128.378 5.4183C128.378 5.0583 128.312 4.7103 128.18 4.3743C128.048 4.0383 127.868 3.7503 127.64 3.5103C127.4 3.2583 127.118 3.0603 126.794 2.9163C126.482 2.7603 126.14 2.6823 125.768 2.6823C125.396 2.6823 125.054 2.7603 124.742 2.9163C124.43 3.0603 124.154 3.2583 123.914 3.5103C123.686 3.7503 123.5 4.0383 123.356 4.3743C123.224 4.7103 123.158 5.0583 123.158 5.4183C123.158 5.7783 123.224 6.1263 123.356 6.4623C123.5 6.7983 123.686 7.0863 123.914 7.3263C124.154 7.5783 124.43 7.7823 124.742 7.9383C125.054 8.0823 125.396 8.1543 125.768 8.1543C126.14 8.1543 126.482 8.0823 126.794 7.9383C127.118 7.7823 127.4 7.5783 127.64 7.3263C127.868 7.0863 128.048 6.7983 128.18 6.4623C128.312 6.1263 128.378 5.7783 128.378 5.4183ZM134.354 0.450296H135.794V15.7323H134.354V0.450296ZM138.855 11.4663V1.0623H140.367V10.0983H142.473C144.069 10.0983 145.611 9.9783 147.099 9.7383V11.1243C145.647 11.3523 144.159 11.4663 142.635 11.4663H138.855ZM148.665 0.450296H150.177V15.7323H148.665V6.1923H144.021V4.8423H148.665V0.450296ZM164.003 0.450296H165.515V15.7323H164.003V0.450296ZM156.821 4.0863V2.4843H153.509V1.1343H161.573V2.4843H158.369V4.0503C158.357 5.5503 158.711 6.8703 159.431 8.0103C160.115 9.1023 161.021 10.1283 162.149 11.0883L161.231 12.0243C160.055 11.0523 158.993 9.8403 158.045 8.3883C157.889 8.1483 157.745 7.9083 157.613 7.6683C157.457 8.0283 157.265 8.3763 157.037 8.7123C156.053 10.2123 154.967 11.3703 153.779 12.1863L152.771 11.2143C153.899 10.4583 154.889 9.4083 155.741 8.0643C156.461 6.9123 156.821 5.5863 156.821 4.0863ZM185.422 3.2223H182.632C182.8 3.3423 182.956 3.4683 183.1 3.6003C183.484 3.9483 183.79 4.3683 184.018 4.8603C184.246 5.3403 184.36 5.8443 184.36 6.3723C184.36 6.9003 184.246 7.4043 184.018 7.8843C183.79 8.3523 183.484 8.7603 183.1 9.1083C182.716 9.4683 182.266 9.7503 181.75 9.9543C181.234 10.1583 180.682 10.2603 180.094 10.2603C179.506 10.2603 178.954 10.1583 178.438 9.9543C177.922 9.7503 177.472 9.4683 177.088 9.1083C176.704 8.7603 176.398 8.3523 176.17 7.8843C175.942 7.4043 175.828 6.9003 175.828 6.3723C175.828 5.8443 175.942 5.3403 176.17 4.8603C176.398 4.3683 176.704 3.9483 177.088 3.6003C177.232 3.4683 177.388 3.3423 177.556 3.2223H174.748V1.9623H179.194V0.234296H180.994V1.9623H185.422V3.2223ZM182.848 6.3183C182.848 5.9463 182.77 5.5983 182.614 5.2743C182.47 4.9503 182.272 4.6623 182.02 4.4103C181.78 4.1823 181.492 3.9963 181.156 3.8523C180.82 3.7083 180.466 3.6363 180.094 3.6363C179.722 3.6363 179.368 3.7083 179.032 3.8523C178.696 3.9963 178.408 4.1823 178.168 4.4103C177.916 4.6623 177.712 4.9503 177.556 5.2743C177.412 5.5983 177.34 5.9463 177.34 6.3183C177.34 6.6903 177.412 7.0383 177.556 7.3623C177.712 7.6863 177.916 7.9743 178.168 8.2263C178.408 8.4543 178.696 8.6403 179.032 8.7843C179.368 8.9283 179.722 9.0003 180.094 9.0003C180.466 9.0003 180.82 8.9283 181.156 8.7843C181.492 8.6403 181.78 8.4543 182.02 8.2263C182.272 7.9743 182.47 7.6863 182.614 7.3623C182.77 7.0383 182.848 6.6903 182.848 6.3183ZM183.946 10.2063V12.8163H186.88V14.0943H173.308V12.8163H176.242V10.2063H177.754V12.8163H182.434V10.2063H183.946ZM199.355 3.4923C199.355 3.9603 199.247 4.4163 199.031 4.8603C198.827 5.3043 198.551 5.6763 198.203 5.9763C198.071 6.0963 197.927 6.2103 197.771 6.3183H202.217V7.5423H198.653V9.1803H200.489V13.0323H191.885V14.5623H200.669V15.7323H190.373V11.8623H198.977V10.3503H190.373V9.1803H192.209V7.5423H188.645V6.3183H193.091C192.935 6.2103 192.791 6.0963 192.659 5.9763C192.311 5.6763 192.029 5.3043 191.813 4.8603C191.609 4.4163 191.507 3.9603 191.507 3.4923C191.507 3.0243 191.609 2.5743 191.813 2.1423C192.029 1.7103 192.311 1.3443 192.659 1.0443C193.007 0.720296 193.421 0.468296 193.901 0.288296C194.381 0.0962958 194.891 0.000295639 195.431 0.000295639C195.971 0.000295639 196.481 0.0962958 196.961 0.288296C197.441 0.468296 197.855 0.720296 198.203 1.0443C198.551 1.3443 198.827 1.7103 199.031 2.1423C199.247 2.5743 199.355 3.0243 199.355 3.4923ZM197.843 3.5463C197.843 2.9223 197.603 2.3823 197.123 1.9263C196.655 1.4583 196.091 1.2243 195.431 1.2243C194.771 1.2243 194.201 1.4583 193.721 1.9263C193.253 2.3823 193.019 2.9223 193.019 3.5463C193.019 4.1703 193.253 4.7163 193.721 5.1843C194.201 5.6403 194.771 5.8683 195.431 5.8683C196.091 5.8683 196.655 5.6403 197.123 5.1843C197.603 4.7163 197.843 4.1703 197.843 3.5463ZM197.177 9.1803V7.5423H193.685V9.1803H197.177ZM214.836 3.6543C214.836 4.1463 214.728 4.6143 214.512 5.0583C214.296 5.4903 214.008 5.8743 213.648 6.2103C213.504 6.3423 213.348 6.4623 213.18 6.5703H217.554V7.7943H203.982V6.5703H208.356C208.188 6.4623 208.032 6.3423 207.888 6.2103C207.528 5.8743 207.24 5.4903 207.024 5.0583C206.808 4.6143 206.7 4.1463 206.7 3.6543C206.7 3.1623 206.808 2.6943 207.024 2.2503C207.24 1.8063 207.528 1.4163 207.888 1.0803C208.26 0.744296 208.692 0.480296 209.184 0.288296C209.676 0.0962958 210.204 0.000295639 210.768 0.000295639C211.332 0.000295639 211.86 0.0962958 212.352 0.288296C212.844 0.480296 213.276 0.744296 213.648 1.0803C214.008 1.4163 214.296 1.8063 214.512 2.2503C214.728 2.6943 214.836 3.1623 214.836 3.6543ZM213.324 3.6903C213.324 3.0063 213.072 2.4243 212.568 1.9443C212.076 1.4523 211.476 1.2063 210.768 1.2063C210.06 1.2063 209.454 1.4523 208.95 1.9443C208.458 2.4243 208.212 3.0063 208.212 3.6903C208.212 4.3743 208.458 4.9623 208.95 5.4543C209.454 5.9343 210.06 6.1743 210.768 6.1743C211.476 6.1743 212.076 5.9343 212.568 5.4543C213.072 4.9623 213.324 4.3743 213.324 3.6903ZM216.006 15.7323H205.71V11.8443H214.314V10.3503H205.71V9.1623H215.826V13.0503H207.222V14.5443H216.006V15.7323ZM236.147 0.756297V1.9803H227.543V3.5103H236.111V4.6983H227.543V6.2463H236.237V7.4523H231.845V9.0723H237.875V10.2783H233.465C233.609 10.3743 233.741 10.4823 233.861 10.6023C234.209 10.9143 234.485 11.2863 234.689 11.7183C234.905 12.1383 235.013 12.5823 235.013 13.0503C235.013 13.5183 234.905 13.9683 234.689 14.4003C234.485 14.8203 234.209 15.1863 233.861 15.4983C233.513 15.8223 233.099 16.0743 232.619 16.2543C232.139 16.4463 231.623 16.5423 231.071 16.5423C230.519 16.5423 230.003 16.4463 229.523 16.2543C229.043 16.0743 228.629 15.8223 228.281 15.4983C227.933 15.1863 227.651 14.8203 227.435 14.4003C227.231 13.9683 227.129 13.5183 227.129 13.0503C227.129 12.5823 227.231 12.1383 227.435 11.7183C227.651 11.2863 227.933 10.9143 228.281 10.6023C228.401 10.4823 228.533 10.3743 228.677 10.2783H224.303V9.0723H230.333V7.4523H226.031V0.756297H236.147ZM233.501 13.0143C233.501 12.3783 233.261 11.8323 232.781 11.3763C232.313 10.9083 231.743 10.6743 231.071 10.6743C230.399 10.6743 229.823 10.9083 229.343 11.3763C228.875 11.8323 228.641 12.3783 228.641 13.0143C228.641 13.6503 228.875 14.2023 229.343 14.6703C229.823 15.1263 230.399 15.3543 231.071 15.3543C231.743 15.3543 232.313 15.1263 232.781 14.6703C233.261 14.2023 233.501 13.6503 233.501 13.0143ZM242.466 2.1063V0.450296H244.086V2.1063H247.2V3.3303H245.4C245.616 3.4743 245.814 3.6363 245.994 3.8163C246.342 4.1643 246.618 4.5723 246.822 5.0403C247.026 5.5083 247.128 6.0063 247.128 6.5343C247.128 7.0623 247.026 7.5603 246.822 8.0283C246.618 8.4963 246.342 8.9043 245.994 9.2523C245.646 9.6003 245.238 9.8763 244.77 10.0803C244.302 10.2843 243.804 10.3863 243.276 10.3863C242.748 10.3863 242.25 10.2843 241.782 10.0803C241.314 9.8763 240.906 9.6003 240.558 9.2523C240.21 8.9043 239.934 8.4963 239.73 8.0283C239.526 7.5603 239.424 7.0623 239.424 6.5343C239.424 6.0063 239.526 5.5083 239.73 5.0403C239.934 4.5723 240.21 4.1643 240.558 3.8163C240.738 3.6363 240.936 3.4743 241.152 3.3303H239.298V2.1063H242.466ZM245.778 6.4983C245.778 6.1503 245.712 5.8203 245.58 5.5083C245.448 5.1963 245.268 4.9203 245.04 4.6803C244.812 4.4523 244.548 4.2723 244.248 4.1403C243.948 3.9963 243.63 3.9243 243.294 3.9243C242.958 3.9243 242.64 3.9963 242.34 4.1403C242.04 4.2723 241.776 4.4523 241.548 4.6803C241.32 4.9203 241.14 5.1963 241.008 5.5083C240.876 5.8203 240.81 6.1503 240.81 6.4983C240.81 6.8463 240.876 7.1763 241.008 7.4883C241.14 7.8003 241.32 8.0763 241.548 8.3163C241.776 8.5443 242.04 8.7303 242.34 8.8743C242.64 9.0063 242.958 9.0723 243.294 9.0723C243.63 9.0723 243.948 9.0063 244.248 8.8743C244.548 8.7303 244.812 8.5443 245.04 8.3163C245.268 8.0763 245.448 7.8003 245.58 7.4883C245.712 7.1763 245.778 6.8463 245.778 6.4983ZM251.664 0.450296H253.05V15.7323H251.664V6.4443H249.9V15.7323H248.514V0.450296H249.9V5.1123H251.664V0.450296ZM0.827988 37.8923V30.0623H7.79399V31.4303H2.33999V36.5423H5.03999C7.00799 36.5423 8.72999 36.4223 10.206 36.1823V29.4503H11.718V33.5903H13.878V34.9583H11.718V40.5203H10.206V37.5323C8.75399 37.7723 7.06799 37.8923 5.14799 37.8923H0.827988ZM12.168 44.7323H2.41199V40.0883H3.95999V43.3823H12.168V44.7323ZM24.4453 33.1583C24.4453 33.6503 24.3373 34.1183 24.1213 34.5623C23.9173 35.0063 23.6413 35.3963 23.2933 35.7323C22.9333 36.0683 22.5133 36.3323 22.0333 36.5243C21.5653 36.7163 21.0553 36.8123 20.5033 36.8123C19.9513 36.8123 19.4353 36.7163 18.9553 36.5243C18.4873 36.3323 18.0733 36.0683 17.7133 35.7323C17.3653 35.3963 17.0833 35.0063 16.8673 34.5623C16.6633 34.1183 16.5613 33.6503 16.5613 33.1583C16.5613 32.6663 16.6633 32.1983 16.8673 31.7543C17.0833 31.3103 17.3653 30.9203 17.7133 30.5843C18.0733 30.2483 18.4873 29.9843 18.9553 29.7923C19.4353 29.6003 19.9513 29.5043 20.5033 29.5043C21.0553 29.5043 21.5653 29.6003 22.0333 29.7923C22.5133 29.9843 22.9333 30.2483 23.2933 30.5843C23.6413 30.9203 23.9173 31.3103 24.1213 31.7543C24.3373 32.1983 24.4453 32.6663 24.4453 33.1583ZM22.9513 33.1583C22.9513 32.5103 22.7113 31.9523 22.2313 31.4843C21.7513 31.0163 21.1753 30.7823 20.5033 30.7823C19.8313 30.7823 19.2553 31.0163 18.7753 31.4843C18.2953 31.9523 18.0553 32.5103 18.0553 33.1583C18.0553 33.8063 18.2953 34.3643 18.7753 34.8323C19.2553 35.3003 19.8313 35.5343 20.5033 35.5343C21.1753 35.5343 21.7513 35.3003 22.2313 34.8323C22.7113 34.3643 22.9513 33.8063 22.9513 33.1583ZM28.0993 29.4503V44.7323H26.6053V39.4943C25.5853 39.6263 24.0493 39.6923 21.9973 39.6923H21.0793V44.7323H19.5673V39.6923H15.2473V38.3783H21.9793C24.0553 38.3783 25.5973 38.3183 26.6053 38.1983V29.4503H28.0993ZM42.1743 31.4123H38.2143V36.7223H42.1743V31.4123ZM43.6683 38.0723H36.7203V30.0623H43.6683V31.4663H46.6743V29.4503H48.1863V40.5203H46.6743V36.4883H43.6683V38.0723ZM43.6683 32.7263V35.2283H46.6743V32.7263H43.6683ZM48.6543 44.7323H38.8803V40.1783H40.4283V43.4003H48.6543V44.7323ZM63.5235 29.4503V38.0183H62.0115V34.5443H59.1855V33.2843H62.0115V29.4503H63.5235ZM62.0115 44.9303V40.8803H53.8575V39.5663H63.5235V44.9303H62.0115ZM54.6675 32.4563V31.3763H51.4995V30.0623H59.5455V31.3763H56.2155V32.5463C56.2155 33.4463 56.5755 34.2623 57.2955 34.9943C58.1235 35.8343 59.0415 36.4463 60.0495 36.8303L59.2935 37.8743C57.9975 37.2863 56.9055 36.5363 56.0175 35.6243C55.8015 35.3963 55.6095 35.1683 55.4415 34.9403C55.3215 35.1323 55.1775 35.3243 55.0095 35.5163C53.9895 36.7283 52.9635 37.5803 51.9315 38.0723L50.9955 37.0643C52.0035 36.6083 52.9335 35.8703 53.7855 34.8503C54.3735 34.1423 54.6675 33.3443 54.6675 32.4563ZM67.1608 36.9923V30.0623H74.1268V31.3763H68.6728V35.6963H71.3728C73.3408 35.6963 75.0628 35.5583 76.5388 35.2823V29.4503H78.0508V32.9783H80.2108V34.3463H78.0508V38.0723H76.5388V36.5603C75.0868 36.8483 73.4008 36.9923 71.4808 36.9923H67.1608ZM78.0508 41.9423C78.0508 42.4223 77.9428 42.8843 77.7268 43.3283C77.5228 43.7723 77.2468 44.1563 76.8988 44.4803C76.5388 44.8043 76.1188 45.0623 75.6388 45.2543C75.1588 45.4463 74.6428 45.5423 74.0908 45.5423C73.5388 45.5423 73.0228 45.4463 72.5428 45.2543C72.0628 45.0623 71.6428 44.8043 71.2828 44.4803C70.9348 44.1563 70.6528 43.7723 70.4368 43.3283C70.2328 42.8843 70.1308 42.4223 70.1308 41.9423C70.1308 41.4623 70.2328 41.0003 70.4368 40.5563C70.6528 40.1123 70.9348 39.7283 71.2828 39.4043C71.6428 39.0803 72.0628 38.8223 72.5428 38.6303C73.0228 38.4383 73.5388 38.3423 74.0908 38.3423C74.6428 38.3423 75.1588 38.4383 75.6388 38.6303C76.1188 38.8223 76.5388 39.0803 76.8988 39.4043C77.2468 39.7283 77.5228 40.1123 77.7268 40.5563C77.9428 41.0003 78.0508 41.4623 78.0508 41.9423ZM76.5388 41.9423C76.5388 41.3063 76.2988 40.7603 75.8188 40.3043C75.3388 39.8483 74.7628 39.6203 74.0908 39.6203C73.4188 39.6203 72.8428 39.8483 72.3628 40.3043C71.8828 40.7603 71.6428 41.3063 71.6428 41.9423C71.6428 42.5783 71.8828 43.1243 72.3628 43.5803C72.8428 44.0363 73.4188 44.2643 74.0908 44.2643C74.7628 44.2643 75.3388 44.0363 75.8188 43.5803C76.2988 43.1243 76.5388 42.5783 76.5388 41.9423ZM98.1738 34.5263H96.0498V38.2883C96.3378 38.3363 96.6138 38.4143 96.8778 38.5223C97.3578 38.7143 97.7778 38.9783 98.1378 39.3143C98.4978 39.6503 98.7798 40.0403 98.9838 40.4843C99.1998 40.9163 99.3078 41.3843 99.3078 41.8883C99.3078 42.3923 99.1998 42.8663 98.9838 43.3103C98.7798 43.7423 98.4978 44.1263 98.1378 44.4623C97.7778 44.7983 97.3518 45.0623 96.8598 45.2543C96.3798 45.4463 95.8638 45.5423 95.3118 45.5423C94.7598 45.5423 94.2378 45.4463 93.7458 45.2543C93.2658 45.0623 92.8458 44.7983 92.4858 44.4623C92.1258 44.1263 91.8378 43.7423 91.6218 43.3103C91.4178 42.8663 91.3158 42.3923 91.3158 41.8883C91.3158 41.3843 91.4178 40.9163 91.6218 40.4843C91.8378 40.0403 92.1258 39.6503 92.4858 39.3143C92.8458 38.9783 93.2718 38.7143 93.7638 38.5223C94.0278 38.4143 94.3038 38.3363 94.5918 38.2883V29.4503H96.0498V33.2123H98.1738V29.4503H99.6498V38.4143H98.1738V34.5263ZM97.7958 41.8883C97.7958 41.5643 97.7298 41.2583 97.5978 40.9703C97.4658 40.6823 97.2858 40.4303 97.0578 40.2143C96.8298 39.9983 96.5658 39.8303 96.2658 39.7103C95.9658 39.5783 95.6478 39.5123 95.3118 39.5123C94.9758 39.5123 94.6578 39.5783 94.3578 39.7103C94.0578 39.8303 93.7938 39.9983 93.5658 40.2143C93.3378 40.4303 93.1578 40.6823 93.0258 40.9703C92.8938 41.2583 92.8278 41.5643 92.8278 41.8883C92.8278 42.2123 92.8938 42.5183 93.0258 42.8063C93.1578 43.0943 93.3378 43.3463 93.5658 43.5623C93.7938 43.7783 94.0578 43.9463 94.3578 44.0663C94.6578 44.1983 94.9758 44.2643 95.3118 44.2643C95.6478 44.2643 95.9658 44.1983 96.2658 44.0663C96.5658 43.9463 96.8298 43.7783 97.0578 43.5623C97.2858 43.3463 97.4658 43.0943 97.5978 42.8063C97.7298 42.5183 97.7958 42.2123 97.7958 41.8883ZM90.7758 31.5383C90.7758 32.8823 91.0518 33.9983 91.6038 34.8863C92.1918 35.7623 92.8458 36.5003 93.5658 37.1003L92.6118 38.0003C91.8198 37.3403 91.0998 36.5423 90.4518 35.6063C90.3078 35.3903 90.1758 35.1563 90.0558 34.9043C89.9238 35.1683 89.7798 35.4143 89.6238 35.6423C88.8318 36.8303 88.0218 37.7303 87.1938 38.3423L86.1678 37.4063C86.9958 36.8063 87.7518 35.9543 88.4358 34.8503C89.0238 33.9263 89.3178 32.8163 89.3178 31.5203V29.8463H90.7758V31.5383ZM113.709 29.4503V33.5903H115.869V34.9583H113.709V40.5203H112.197V29.4503H113.709ZM114.159 44.7323H104.403V40.0883H105.951V43.3823H114.159V44.7323ZM106.923 31.2863C106.923 32.8103 107.271 34.0583 107.967 35.0303C108.759 36.1223 109.665 36.9923 110.685 37.6403L109.785 38.6483C108.741 38.0003 107.733 37.0463 106.761 35.7863C106.521 35.4743 106.311 35.1443 106.131 34.7963C105.951 35.1683 105.741 35.5283 105.501 35.8763C104.577 37.1963 103.581 38.1983 102.513 38.8823L101.505 37.8923C102.561 37.2563 103.497 36.3383 104.313 35.1383C105.021 34.1063 105.375 32.8223 105.375 31.2863V29.8463H106.923V31.2863ZM118.084 37.7483V33.2303H123.088V31.2683H118.084V29.9903H124.546V34.4723H119.542V36.4883H122.71C124.63 36.4883 126.238 36.3503 127.534 36.0743V29.4503H129.046V31.5023H131.206V32.8163H129.046V34.9223H131.206V36.2363H129.046V38.4143H127.534V37.3343C126.274 37.6103 124.696 37.7483 122.8 37.7483H118.084ZM128.884 42.1403C128.884 42.5963 128.782 43.0343 128.578 43.4543C128.374 43.8623 128.104 44.2223 127.768 44.5343C127.432 44.8463 127.03 45.0923 126.562 45.2723C126.106 45.4523 125.614 45.5423 125.086 45.5423C124.558 45.5423 124.06 45.4523 123.592 45.2723C123.136 45.0923 122.74 44.8463 122.404 44.5343C122.068 44.2223 121.798 43.8623 121.594 43.4543C121.39 43.0343 121.288 42.5963 121.288 42.1403C121.288 41.6843 121.39 41.2523 121.594 40.8443C121.798 40.4243 122.068 40.0583 122.404 39.7463C122.74 39.4343 123.136 39.1883 123.592 39.0083C124.06 38.8283 124.558 38.7383 125.086 38.7383C125.614 38.7383 126.106 38.8283 126.562 39.0083C127.03 39.1883 127.432 39.4343 127.768 39.7463C128.104 40.0583 128.374 40.4243 128.578 40.8443C128.782 41.2523 128.884 41.6843 128.884 42.1403ZM127.372 42.1403C127.372 41.5403 127.144 41.0303 126.688 40.6103C126.244 40.1903 125.71 39.9803 125.086 39.9803C124.462 39.9803 123.922 40.1903 123.466 40.6103C123.022 41.0303 122.8 41.5403 122.8 42.1403C122.8 42.7403 123.022 43.2503 123.466 43.6703C123.922 44.0903 124.462 44.3003 125.086 44.3003C125.71 44.3003 126.244 44.0903 126.688 43.6703C127.144 43.2503 127.372 42.7403 127.372 42.1403ZM151.221 37.3703V38.6843H146.829C147.009 38.8043 147.183 38.9423 147.351 39.0983C147.723 39.4343 148.017 39.8363 148.233 40.3043C148.449 40.7603 148.557 41.2463 148.557 41.7623C148.557 42.2783 148.449 42.7703 148.233 43.2383C148.017 43.6943 147.723 44.0903 147.351 44.4263C146.979 44.7743 146.541 45.0443 146.037 45.2363C145.533 45.4403 144.999 45.5423 144.435 45.5423C143.871 45.5423 143.337 45.4403 142.833 45.2363C142.329 45.0443 141.891 44.7743 141.519 44.4263C141.147 44.0903 140.853 43.6943 140.637 43.2383C140.421 42.7703 140.313 42.2783 140.313 41.7623C140.313 41.2463 140.421 40.7603 140.637 40.3043C140.853 39.8363 141.147 39.4343 141.519 39.0983C141.687 38.9423 141.861 38.8043 142.041 38.6843H137.649V37.3703H151.221ZM147.045 41.7263C147.045 41.0303 146.787 40.4363 146.271 39.9443C145.755 39.4523 145.143 39.2063 144.435 39.2063C143.727 39.2063 143.115 39.4523 142.599 39.9443C142.083 40.4363 141.825 41.0303 141.825 41.7263C141.825 42.4223 142.083 43.0163 142.599 43.5083C143.115 44.0003 143.727 44.2463 144.435 44.2463C145.143 44.2463 145.755 44.0003 146.271 43.5083C146.787 43.0163 147.045 42.4223 147.045 41.7263ZM143.625 31.1603H139.269V29.8463H149.601V31.1603H145.245V31.5383C145.245 32.3183 145.971 33.0983 147.423 33.8783C148.239 34.2983 149.211 34.6043 150.339 34.7963L149.727 35.9123C148.299 35.6603 147.003 35.1803 145.839 34.4723C145.251 34.1243 144.783 33.7583 144.435 33.3743C144.087 33.7583 143.619 34.1243 143.031 34.4723C141.867 35.1803 140.571 35.6603 139.143 35.9123L138.531 34.7963C139.659 34.6043 140.631 34.2983 141.447 33.8783C142.899 33.0983 143.625 32.3183 143.625 31.5383V31.1603ZM153.941 40.7363V30.1343H158.927V31.5023H155.435V39.3683H156.839C158.459 39.3683 159.821 39.2603 160.925 39.0443V29.4503H162.365V34.7063H164.507V29.4503H165.983V44.7323H164.507V36.0383H162.365V44.7323H160.925V40.4123C159.941 40.6283 158.627 40.7363 156.983 40.7363H153.941Z" fill="white"/>
</svg>
