<svg width="470" height="120" viewBox="0 0 470 120" fill="none" xmlns="http://www.w3.org/2000/svg">
<path d="M14.1875 19.3125V28.4375H10.7188V19.3125H0V16.1562H24.9062V19.3125H14.1875ZM14.2188 2.6875C14.2188 4.64583 15.0625 6.32292 16.75 7.71875C18.5625 9.19792 20.8438 10.4062 23.5938 11.3438L21.7188 13.8125C18.8021 12.9167 16.3438 11.5938 14.3438 9.84375C13.5938 9.21875 12.9583 8.55208 12.4375 7.84375C11.9375 8.55208 11.3125 9.21875 10.5625 9.84375C8.5625 11.5938 6.10417 12.9167 3.1875 13.8125L1.3125 11.3438C4.0625 10.4062 6.34375 9.19792 8.15625 7.71875C9.84375 6.32292 10.6875 4.64583 10.6875 2.6875V0.125H14.2188V2.6875ZM52.1725 21.875V25.0312H27.2663V21.875H37.985V15.8125H41.4538V21.875H52.1725ZM41.485 3.71875C41.485 6.17708 42.3913 8.22917 44.2038 9.875C46.1829 11.6875 48.5163 13 51.2038 13.8125L49.2975 16.3438C45.9642 15.2396 43.2454 13.5729 41.1413 11.3438C40.5996 10.7812 40.1204 10.1875 39.7038 9.5625C39.3079 10.1875 38.8392 10.7812 38.2975 11.3438C36.1933 13.5729 33.4746 15.2396 30.1413 16.3438L28.235 13.8125C30.9225 13 33.2558 11.6875 35.235 9.875C37.0475 8.22917 37.9538 6.17708 37.9538 3.71875V0.875H41.485V3.71875ZM76.5013 11.4062H57.595V4.71875H72.9075V3.03125H57.595V0.46875H76.345V7.125H61.0638V8.84375H76.5013V11.4062ZM54.5325 12.9688H79.4388V15.5938H54.5325V12.9688ZM76.6888 27.9375H57.595V21.3438H72.9075V19.7812H57.595V17.2188H76.345V23.7812H61.0638V25.375H76.6888V27.9375ZM92.7525 20.8125V1.25H105.128V4.375H96.19V17.6562H99.6588C102.388 17.6562 105.044 17.4479 107.628 17.0312V20.1562C105.107 20.5938 102.378 20.8125 99.44 20.8125H92.7525ZM110.253 0H113.69V27.9375H110.253V12.125H102.753V9.03125H110.253V0ZM138.379 3.90625H132.098V10.6562H138.379V3.90625ZM141.785 13.5312H128.691V1.03125H141.785V5.6875H146.379V0H149.816V14.3125H146.379V8.59375H141.785V13.5312ZM150.191 27.9375H132.191V20.4375H146.379V18.5H132.191V15.7188H149.816V23.1562H135.66V25.1562H150.191V27.9375ZM156.27 21.3438V9.53125H165.676V4.125H156.27V1.0625H169.083V12.5312H159.676V18.3125H165.395C168.353 18.3125 171.103 18.0729 173.645 17.5938V0H177.083V27.9375H173.645V20.6875C171.228 21.125 168.437 21.3438 165.27 21.3438H156.27ZM182.63 28.4062C184.151 27.7812 184.932 26.7292 184.974 25.25H182.724V20.7812H187.286V24.4062C187.286 27.3438 186.078 29.2188 183.661 30.0312L182.63 28.4062ZM201.694 20.8125V1.25H214.069V4.375H205.131V17.6562H208.6C211.329 17.6562 213.985 17.4479 216.569 17.0312V20.1562C214.048 20.5938 211.319 20.8125 208.381 20.8125H201.694ZM219.194 0H222.631V27.9375H219.194V12.125H211.694V9.03125H219.194V0ZM246.633 3.90625H240.383V10.5938H246.633V3.90625ZM250.07 13.4688H236.945V1.03125H250.07V13.4688ZM257.32 0V5.53125H261.164V8.6875H257.32V14.3125H253.883V0H257.32ZM246.508 24.9375V27.9375H238.476V16.1562H241.883V24.9375H246.508ZM259.664 20.375H257.164C257.56 20.8125 257.893 21.2917 258.164 21.8125C258.455 22.4792 258.601 23.1771 258.601 23.9062C258.601 24.6354 258.445 25.3229 258.133 25.9688C257.841 26.6146 257.435 27.1875 256.914 27.6875C256.393 28.1458 255.789 28.5208 255.101 28.8125C254.414 29.1042 253.685 29.25 252.914 29.25C252.143 29.25 251.414 29.1042 250.726 28.8125C250.039 28.5208 249.435 28.1458 248.914 27.6875C248.393 27.1875 247.976 26.6146 247.664 25.9688C247.372 25.3229 247.226 24.6354 247.226 23.9062C247.226 23.1771 247.383 22.4792 247.695 21.8125C247.945 21.2917 248.268 20.8125 248.664 20.375H246.133V17.75H251.226V15.25H254.633V17.75H259.664V20.375ZM255.508 23.8125C255.508 23.0833 255.247 22.4583 254.726 21.9375C254.226 21.3958 253.622 21.125 252.914 21.125C252.205 21.125 251.591 21.3958 251.07 21.9375C250.57 22.4583 250.32 23.0833 250.32 23.8125C250.32 24.5417 250.57 25.1771 251.07 25.7188C251.591 26.2396 252.205 26.5 252.914 26.5C253.622 26.5 254.226 26.2396 254.726 25.7188C255.247 25.1771 255.508 24.5417 255.508 23.8125ZM279.367 9.53125C279.367 10.6146 279.149 11.6354 278.711 12.5938C278.274 13.5521 277.69 14.3854 276.961 15.0938C276.211 15.8229 275.326 16.3958 274.305 16.8125C273.305 17.2292 272.242 17.4375 271.117 17.4375C269.992 17.4375 268.93 17.2292 267.93 16.8125C266.93 16.3958 266.055 15.8229 265.305 15.0938C264.555 14.3854 263.961 13.5521 263.524 12.5938C263.086 11.6354 262.867 10.6146 262.867 9.53125C262.867 8.44792 263.086 7.4375 263.524 6.5C263.961 5.54167 264.555 4.69792 265.305 3.96875C266.055 3.23958 266.93 2.66667 267.93 2.25C268.93 1.83333 269.992 1.625 271.117 1.625C272.242 1.625 273.305 1.83333 274.305 2.25C275.326 2.66667 276.211 3.23958 276.961 3.96875C277.69 4.69792 278.274 5.54167 278.711 6.5C279.149 7.4375 279.367 8.44792 279.367 9.53125ZM275.93 9.53125C275.93 8.86458 275.795 8.25 275.524 7.6875C275.274 7.10417 274.94 6.59375 274.524 6.15625C274.065 5.71875 273.545 5.375 272.961 5.125C272.399 4.875 271.784 4.75 271.117 4.75C270.451 4.75 269.826 4.875 269.242 5.125C268.68 5.375 268.18 5.71875 267.742 6.15625C267.305 6.59375 266.961 7.10417 266.711 7.6875C266.461 8.25 266.336 8.86458 266.336 9.53125C266.336 10.1979 266.461 10.8229 266.711 11.4062C266.961 11.9688 267.305 12.4792 267.742 12.9375C268.18 13.3542 268.68 13.6979 269.242 13.9688C269.826 14.2188 270.451 14.3438 271.117 14.3438C271.784 14.3438 272.399 14.2188 272.961 13.9688C273.545 13.6979 274.065 13.3542 274.524 12.9375C274.94 12.4792 275.274 11.9688 275.524 11.4062C275.795 10.8229 275.93 10.1979 275.93 9.53125ZM282.742 0H286.211V27.9375H282.742V0ZM291.571 28.4062C293.092 27.7812 293.873 26.7292 293.915 25.25H291.665V20.7812H296.228V24.4062C296.228 27.3438 295.019 29.2188 292.603 30.0312L291.571 28.4062ZM2.09375 65.8125V46.25H14.4688V49.375H5.53125V62.6562H9C11.7292 62.6562 14.3854 62.4479 16.9688 62.0312V65.1562C14.4479 65.5938 11.7188 65.8125 8.78125 65.8125H2.09375ZM19.5938 45H23.0312V72.9375H19.5938V57.125H12.0938V54.0312H19.5938V45ZM42.6575 47.3438V44.5625H46.5013V47.3438H52.7825V50.3125H49.47C49.5533 50.375 49.6367 50.4479 49.72 50.5312C50.3867 51.1562 50.9179 51.8854 51.3138 52.7188C51.7096 53.5312 51.9075 54.4062 51.9075 55.3438C51.9075 56.2812 51.7096 57.1667 51.3138 58C50.9179 58.8125 50.3867 59.5208 49.72 60.125C49.0742 60.75 48.3033 61.25 47.4075 61.625C46.5325 61.9792 45.5846 62.1562 44.5638 62.1562C43.5638 62.1562 42.6158 61.9792 41.72 61.625C40.845 61.25 40.0846 60.75 39.4388 60.125C38.7721 59.5208 38.2408 58.8125 37.845 58C37.4492 57.1667 37.2513 56.2812 37.2513 55.3438C37.2513 54.4062 37.4492 53.5312 37.845 52.7188C38.2408 51.8854 38.7721 51.1562 39.4388 50.5312C39.5221 50.4479 39.6054 50.375 39.6888 50.3125H36.2513V47.3438H42.6575ZM48.47 55.1875C48.47 54.125 48.0846 53.2188 47.3138 52.4688C46.5638 51.7188 45.6471 51.3438 44.5638 51.3438C43.5013 51.3438 42.5846 51.7188 41.8138 52.4688C41.0638 53.2188 40.6888 54.125 40.6888 55.1875C40.6888 56.2292 41.0638 57.1354 41.8138 57.9062C42.5846 58.6562 43.5013 59.0312 44.5638 59.0312C45.6471 59.0312 46.5638 58.6562 47.3138 57.9062C48.0846 57.1354 48.47 56.2292 48.47 55.1875ZM55.72 53.6562H52.47V50.4062H55.72V45H59.1575V65.7812H55.72V60.3125H52.47V57.0625H55.72V53.6562ZM60.1263 72.9375H41.5325V64.3125H45.1888V69.8438H60.1263V72.9375ZM86.4238 45V59.3125H82.9863V45H86.4238ZM86.7988 72.9375H68.7988V65.4375H82.9863V63.5H68.7988V60.7188H86.4238V68.1562H72.2675V70.1562H86.7988V72.9375ZM73.3925 47.9375C73.3925 50.0417 73.9863 51.7917 75.1738 53.1875C76.2779 54.5 77.8925 55.625 80.0175 56.5625L78.08 59C75.83 58.0208 73.9342 56.6458 72.3925 54.875C72.1425 54.5833 71.9029 54.2917 71.6738 54C71.4238 54.3958 71.1425 54.7812 70.83 55.1562C69.33 56.9062 67.4238 58.2708 65.1113 59.25L62.955 56.9375C65.1008 56 66.7988 54.8333 68.0488 53.4375C69.2571 52.0833 69.8613 50.25 69.8613 47.9375V45.5625H73.3925V47.9375ZM113.69 45V61H110.253V54.8125H105.221V51.8125H110.253V45H113.69ZM110.253 73.2812V66.0938H95.7525V63H113.69V73.2812H110.253ZM100.721 49.1562V50.2188C100.721 52.2188 101.315 53.7917 102.503 54.9375C104.003 56.3958 105.68 57.5208 107.534 58.3125L105.878 60.75C102.919 59.5208 100.628 57.8438 99.0025 55.7188C97.3567 57.9271 95.2317 59.7292 92.6275 61.125L90.44 58.7812C92.3358 57.8646 94.0963 56.4896 95.7213 54.6562C96.7004 53.5521 97.19 52.1042 97.19 50.3125V49.1562H91.565V46.125H106.628V49.1562H100.721ZM139.206 54.1875C139.206 55.3333 138.967 56.4062 138.488 57.4062C138.029 58.4062 137.404 59.2917 136.613 60.0625C135.8 60.8125 134.863 61.4062 133.8 61.8438C132.738 62.2812 131.592 62.5 130.363 62.5C129.154 62.5 128.019 62.2812 126.956 61.8438C125.894 61.4062 124.956 60.8125 124.144 60.0625C123.352 59.2917 122.717 58.4062 122.238 57.4062C121.779 56.4062 121.55 55.3333 121.55 54.1875C121.55 53.0417 121.779 51.9688 122.238 50.9688C122.717 49.9479 123.352 49.0625 124.144 48.3125C124.956 47.5625 125.894 46.9688 126.956 46.5312C128.019 46.0938 129.154 45.875 130.363 45.875C131.592 45.875 132.738 46.0938 133.8 46.5312C134.863 46.9688 135.8 47.5625 136.613 48.3125C137.404 49.0625 138.029 49.9479 138.488 50.9688C138.967 51.9688 139.206 53.0417 139.206 54.1875ZM135.706 54.1875C135.706 53.4792 135.56 52.8125 135.269 52.1875C134.998 51.5625 134.623 51.0104 134.144 50.5312C133.665 50.0729 133.092 49.7083 132.425 49.4375C131.779 49.1458 131.092 49 130.363 49C129.654 49 128.967 49.1458 128.3 49.4375C127.654 49.7083 127.092 50.0729 126.613 50.5312C126.133 51.0104 125.748 51.5625 125.456 52.1875C125.165 52.8125 125.019 53.4792 125.019 54.1875C125.019 54.8958 125.165 55.5625 125.456 56.1875C125.748 56.8125 126.133 57.3646 126.613 57.8438C127.092 58.3021 127.654 58.6771 128.3 58.9688C128.967 59.2396 129.654 59.375 130.363 59.375C131.092 59.375 131.779 59.2396 132.425 58.9688C133.092 58.6771 133.665 58.3021 134.144 57.8438C134.623 57.3646 134.998 56.8125 135.269 56.1875C135.56 55.5625 135.706 54.8958 135.706 54.1875ZM142.831 66.3438V69.4688H117.925V66.3438H142.831ZM167.191 62.625H159.379V66.9375H170.098V70.0312H145.191V66.9375H155.91V62.625H148.254V52.9375H163.566V49.3125H148.254V46.25H167.004V55.9375H151.723V59.5938H167.191V62.625ZM206.224 66.3438V69.4688H181.318V66.3438H206.224ZM196.724 46.25H200.099V50.6562C200.099 54.1354 201.911 57.4479 205.536 60.5938L203.099 62.75C201.036 60.9167 199.474 59.0208 198.411 57.0625C197.37 59.0208 195.818 60.9167 193.755 62.75C191.713 60.9167 190.172 59.0208 189.13 57.0625C188.068 59.0208 186.495 60.9167 184.411 62.75L182.005 60.5938C185.63 57.4479 187.443 54.1354 187.443 50.6562V46.25H190.818V50.6562C190.818 53.3229 191.797 55.8229 193.755 58.1562C195.734 55.8229 196.724 53.3229 196.724 50.6562V46.25ZM228.178 45H231.615V72.9375H228.178V45ZM223.334 46.25C223.334 51.0833 222.115 55.2812 219.678 58.8438C217.573 62.0521 214.73 64.7917 211.146 67.0625L208.771 64.625C212.146 62.5625 214.782 60.1042 216.678 57.25C218.407 54.7708 219.355 52.1458 219.521 49.375H210.271V46.25H223.334ZM261.679 51.9688C261.679 52.9062 261.481 53.7917 261.085 54.625C260.689 55.4583 260.158 56.1979 259.491 56.8438C258.825 57.4688 258.043 57.9583 257.148 58.3125C256.252 58.6667 255.293 58.8438 254.273 58.8438C253.252 58.8438 252.293 58.6667 251.398 58.3125C250.502 57.9583 249.72 57.4688 249.054 56.8438C248.408 56.1979 247.887 55.4583 247.491 54.625C247.095 53.7917 246.898 52.9062 246.898 51.9688C246.898 51.0312 247.095 50.1458 247.491 49.3125C247.887 48.4792 248.408 47.75 249.054 47.125C249.72 46.5 250.502 46.0104 251.398 45.6562C252.293 45.2812 253.252 45.0938 254.273 45.0938C255.293 45.0938 256.252 45.2812 257.148 45.6562C258.043 46.0104 258.825 46.5 259.491 47.125C260.158 47.75 260.689 48.4792 261.085 49.3125C261.481 50.1458 261.679 51.0312 261.679 51.9688ZM258.241 51.9688C258.241 50.9271 257.856 50.0312 257.085 49.2812C256.314 48.5104 255.377 48.125 254.273 48.125C253.189 48.125 252.252 48.5104 251.46 49.2812C250.689 50.0312 250.304 50.9271 250.304 51.9688C250.304 53.0104 250.689 53.9167 251.46 54.6875C252.252 55.4375 253.189 55.8125 254.273 55.8125C255.377 55.8125 256.314 55.4375 257.085 54.6875C257.856 53.9167 258.241 53.0104 258.241 51.9688ZM268.179 45V72.9375H264.741V63.6875C262.762 63.875 260.127 63.9688 256.835 63.9688H255.679V72.9375H252.241V63.9688H244.554V60.875H256.773C260.106 60.875 262.762 60.7917 264.741 60.625V45H268.179ZM278.289 47.3438V44.5625H282.133V47.3438H288.414V50.3125H285.101C285.185 50.375 285.268 50.4479 285.351 50.5312C286.018 51.1562 286.549 51.8854 286.945 52.7188C287.341 53.5312 287.539 54.4062 287.539 55.3438C287.539 56.2812 287.341 57.1667 286.945 58C286.549 58.8125 286.018 59.5208 285.351 60.125C284.685 60.75 283.903 61.25 283.008 61.625C282.133 61.9792 281.195 62.1562 280.195 62.1562C279.195 62.1562 278.247 61.9792 277.351 61.625C276.476 61.25 275.705 60.75 275.039 60.125C274.393 59.5208 273.872 58.8125 273.476 58C273.08 57.1667 272.883 56.2812 272.883 55.3438C272.883 54.4062 273.08 53.5312 273.476 52.7188C273.872 51.8854 274.393 51.1562 275.039 50.5312C275.143 50.4479 275.237 50.375 275.32 50.3125H271.976V47.3438H278.289ZM284.101 55.1875C284.101 54.125 283.716 53.2188 282.945 52.4688C282.174 51.7188 281.258 51.3438 280.195 51.3438C279.133 51.3438 278.216 51.7188 277.445 52.4688C276.674 53.2188 276.289 54.125 276.289 55.1875C276.289 56.2292 276.674 57.1354 277.445 57.9062C278.216 58.6562 279.133 59.0312 280.195 59.0312C281.258 59.0312 282.174 58.6562 282.945 57.9062C283.716 57.1354 284.101 56.2292 284.101 55.1875ZM294.226 45V53.2812H298.07V56.5938H294.226V65.7812H290.758V45H294.226ZM295.008 72.9375H276.914V64.3125H280.445V69.8438H295.008V72.9375ZM313.165 47.9688V45H316.821V47.9688H322.321V50.8438H319.728C319.832 50.9479 319.936 51.0521 320.04 51.1562C320.707 51.8021 321.228 52.5625 321.603 53.4375C321.998 54.3125 322.196 55.2396 322.196 56.2188C322.196 57.2188 321.998 58.1562 321.603 59.0312C321.228 59.9062 320.707 60.6667 320.04 61.3125C319.394 61.9583 318.623 62.4792 317.728 62.875C316.853 63.25 315.925 63.4375 314.946 63.4375C313.967 63.4375 313.03 63.25 312.134 62.875C311.259 62.4792 310.498 61.9583 309.853 61.3125C309.207 60.6667 308.686 59.9062 308.29 59.0312C307.915 58.1562 307.728 57.2188 307.728 56.2188C307.728 55.2396 307.915 54.3125 308.29 53.4375C308.686 52.5625 309.207 51.8021 309.853 51.1562C309.978 51.0521 310.092 50.9479 310.196 50.8438H307.509V47.9688H313.165ZM319.009 56.125C319.009 54.9792 318.613 54 317.821 53.1875C317.05 52.3542 316.103 51.9375 314.978 51.9375C313.873 51.9375 312.925 52.3542 312.134 53.1875C311.342 54 310.946 54.9792 310.946 56.125C310.946 57.2917 311.342 58.2917 312.134 59.125C312.925 59.9375 313.873 60.3438 314.978 60.3438C316.103 60.3438 317.05 59.9375 317.821 59.125C318.613 58.2917 319.009 57.2917 319.009 56.125ZM329.478 45H332.728V72.9375H329.478V56.4375H327.103V72.9375H323.915V45H327.103V53.2812H329.478V45ZM350.369 59.5938H337.275V45.8438H340.65V49.5938H346.994V45.8438H350.369V51.1562H354.962V45H358.4V60.0938H354.962V54.1875H350.369V59.5938ZM346.994 56.6562V52.5312H340.65V56.6562H346.994ZM358.4 72.9375H340.775V61.5625H344.212V63.9062H354.994V61.5625H358.4V72.9375ZM354.994 70V66.8438H344.212V70H354.994ZM367.791 46.3438V54.875C367.791 56.8542 367.666 59.7604 367.416 63.5938H364.291C364.062 59.5312 363.948 56.625 363.948 54.875V46.3438H367.791ZM363.854 66.8438H367.885V70.875H363.854V66.8438ZM15.1875 97.75C15.1875 98.7292 14.9792 99.6562 14.5625 100.531C14.1667 101.385 13.625 102.135 12.9375 102.781C12.25 103.406 11.4479 103.906 10.5312 104.281C9.61458 104.656 8.63542 104.844 7.59375 104.844C6.55208 104.844 5.57292 104.656 4.65625 104.281C3.73958 103.906 2.9375 103.406 2.25 102.781C1.5625 102.135 1.01042 101.385 0.59375 100.531C0.197917 99.6562 0 98.7292 0 97.75C0 96.7708 0.197917 95.8542 0.59375 95C1.01042 94.125 1.5625 93.3646 2.25 92.7188C2.9375 92.0729 3.73958 91.5729 4.65625 91.2188C5.57292 90.8438 6.55208 90.6562 7.59375 90.6562C8.63542 90.6562 9.61458 90.8438 10.5312 91.2188C11.4479 91.5729 12.25 92.0729 12.9375 92.7188C13.625 93.3646 14.1667 94.125 14.5625 95C14.9792 95.8542 15.1875 96.7708 15.1875 97.75ZM11.7188 97.75C11.7188 96.6458 11.3125 95.6979 10.5 94.9062C9.6875 94.0938 8.71875 93.6875 7.59375 93.6875C6.46875 93.6875 5.5 94.0938 4.6875 94.9062C3.875 95.6979 3.46875 96.6458 3.46875 97.75C3.46875 98.8542 3.875 99.8125 4.6875 100.625C5.5 101.417 6.46875 101.812 7.59375 101.812C8.71875 101.812 9.6875 101.417 10.5 100.625C11.3125 99.8125 11.7188 98.8542 11.7188 97.75ZM21.5938 90V96.1875H25.4375V99.3438H21.5938V105.688H18.1562V90H21.5938ZM18.1562 110.25H7.40625V114.906H18.1562V110.25ZM21.5938 117.938H3.96875V107.219H21.5938V117.938ZM45.6413 94.5625H33.7975V102.875H45.6413V94.5625ZM30.3288 91.4688H49.0788V105.969H41.4538V111.875H52.1725V115.031H27.2663V111.875H37.985V105.969H30.3288V91.4688ZM56.8138 110.312V91.125H60.2513V107.188H65.2825C68.2408 107.188 71.1888 106.969 74.1263 106.531V90H77.5638V117.938H74.1263V109.719C71.3763 110.115 68.3554 110.312 65.0638 110.312H56.8138ZM97.705 99.5312C97.705 100.615 97.4863 101.635 97.0488 102.594C96.6113 103.552 96.0175 104.385 95.2675 105.094C94.5175 105.823 93.6425 106.396 92.6425 106.812C91.6425 107.229 90.58 107.438 89.455 107.438C88.33 107.438 87.2571 107.229 86.2363 106.812C85.2363 106.396 84.3613 105.823 83.6113 105.094C82.8821 104.385 82.2988 103.552 81.8613 102.594C81.4238 101.635 81.205 100.615 81.205 99.5312C81.205 98.4479 81.4238 97.4375 81.8613 96.5C82.2988 95.5417 82.8821 94.6979 83.6113 93.9688C84.3613 93.2396 85.2363 92.6667 86.2363 92.25C87.2571 91.8333 88.33 91.625 89.455 91.625C90.58 91.625 91.6425 91.8333 92.6425 92.25C93.6425 92.6667 94.5175 93.2396 95.2675 93.9688C96.0175 94.6979 96.6113 95.5417 97.0488 96.5C97.4863 97.4375 97.705 98.4479 97.705 99.5312ZM94.2363 99.5312C94.2363 98.8646 94.1113 98.25 93.8613 97.6875C93.6113 97.1042 93.2675 96.5938 92.83 96.1562C92.3925 95.7188 91.8821 95.375 91.2988 95.125C90.7363 94.875 90.1217 94.75 89.455 94.75C88.7883 94.75 88.1633 94.875 87.58 95.125C87.0175 95.375 86.5071 95.7188 86.0488 96.1562C85.6321 96.5938 85.2883 97.1042 85.0175 97.6875C84.7675 98.25 84.6425 98.8646 84.6425 99.5312C84.6425 100.198 84.7675 100.823 85.0175 101.406C85.2883 101.969 85.6321 102.479 86.0488 102.938C86.5071 103.354 87.0175 103.698 87.58 103.969C88.1633 104.219 88.7883 104.344 89.455 104.344C90.1217 104.344 90.7363 104.219 91.2988 103.969C91.8821 103.698 92.3925 103.354 92.83 102.938C93.2675 102.479 93.6113 101.969 93.8613 101.406C94.1113 100.823 94.2363 100.198 94.2363 99.5312ZM103.768 90V97.8125H107.549V101.156H103.768V117.938H100.299V90H103.768ZM139.363 91.4688V99.9062C139.363 104.365 139.008 108.073 138.3 111.031H142.831V114.156H117.925V111.031H134.956C135.415 108.865 135.717 106.448 135.863 103.781H120.394V100.75H135.925V94.5938H120.581V91.4688H139.363ZM146.41 111.344V99.5312H153.098V94.125H146.41V91.0625H156.41V102.531H149.723V108.312H153.629C155.65 108.312 157.608 108.125 159.504 107.75V90H162.816V99.3438H165.816V90H169.191V117.938H165.816V102.469H162.816V117.938H159.504V110.812C157.837 111.167 155.868 111.344 153.598 111.344H146.41ZM180.801 100H173.958V97.2188H182.77C183.228 96.2396 183.478 95.2188 183.52 94.1562H174.458V91.125H187.426C187.426 95.9375 185.937 99.6771 182.958 102.344C180.249 104.781 177.353 106.406 174.27 107.219L172.551 104.719C175.635 103.76 178.083 102.479 179.895 100.875C180.228 100.583 180.53 100.292 180.801 100ZM195.489 90V106.094H192.051V90H195.489ZM194.958 112.438C194.958 113.396 194.749 114.302 194.333 115.156C193.937 115.99 193.395 116.719 192.708 117.344C192.041 117.948 191.239 118.438 190.301 118.812C189.385 119.188 188.416 119.375 187.395 119.375C186.374 119.375 185.405 119.188 184.489 118.812C183.572 118.438 182.77 117.948 182.083 117.344C181.416 116.719 180.874 115.99 180.458 115.156C180.062 114.302 179.864 113.396 179.864 112.438C179.864 111.479 180.062 110.583 180.458 109.75C180.874 108.896 181.416 108.156 182.083 107.531C182.77 106.906 183.572 106.417 184.489 106.062C185.405 105.688 186.374 105.5 187.395 105.5C188.416 105.5 189.385 105.688 190.301 106.062C191.239 106.417 192.041 106.906 192.708 107.531C193.395 108.156 193.937 108.896 194.333 109.75C194.749 110.583 194.958 111.479 194.958 112.438ZM191.458 112.438C191.458 111.375 191.062 110.469 190.27 109.719C189.478 108.948 188.52 108.562 187.395 108.562C186.291 108.562 185.333 108.948 184.52 109.719C183.728 110.469 183.333 111.375 183.333 112.438C183.333 113.5 183.728 114.417 184.52 115.188C185.333 115.938 186.291 116.312 187.395 116.312C188.52 116.312 189.478 115.938 190.27 115.188C191.062 114.417 191.458 113.5 191.458 112.438ZM228.178 90H231.615V117.938H228.178V90ZM223.334 91.25C223.334 96.0833 222.115 100.281 219.678 103.844C217.573 107.052 214.73 109.792 211.146 112.062L208.771 109.625C212.146 107.562 214.782 105.104 216.678 102.25C218.407 99.7708 219.355 97.1458 219.521 94.375H210.271V91.25H223.334ZM235.85 101.438H260.756V104.25H250.069V106.406H257.663V113.469H242.381V115.25H258.006V117.938H238.913V110.844H254.225V109.062H238.913V106.406H246.538V104.25H235.85V101.438ZM250.038 91.3125C250.038 92.6458 251.038 94.0104 253.038 95.4062C254.579 96.4479 256.725 97.2708 259.475 97.875L257.913 100.438C254.975 99.7708 252.475 98.7396 250.413 97.3438C249.558 96.7396 248.85 96.1146 248.288 95.4688C247.746 96.1146 247.048 96.7396 246.194 97.3438C244.131 98.7396 241.631 99.7708 238.694 100.438L237.131 97.875C239.881 97.2708 242.027 96.4479 243.569 95.4062C245.569 94.0104 246.569 92.6458 246.569 91.3125V89.9062H250.038V91.3125ZM283.179 96.0938C283.179 97.0312 282.981 97.9062 282.585 98.7188C282.168 99.5312 281.616 100.26 280.929 100.906H288.022V103.781H263.116V100.906H270.179C269.512 100.26 268.97 99.5312 268.554 98.7188C268.158 97.9062 267.96 97.0312 267.96 96.0938C267.96 95.1562 268.158 94.2708 268.554 93.4375C268.97 92.6042 269.512 91.8646 270.179 91.2188C270.887 90.5938 271.7 90.1042 272.616 89.75C273.533 89.375 274.512 89.1875 275.554 89.1875C276.616 89.1875 277.606 89.375 278.522 89.75C279.439 90.1042 280.241 90.5938 280.929 91.2188C281.616 91.8646 282.158 92.6042 282.554 93.4375C282.97 94.2708 283.179 95.1562 283.179 96.0938ZM279.741 96.1562C279.741 95.0312 279.335 94.0833 278.522 93.3125C277.71 92.5208 276.72 92.125 275.554 92.125C274.408 92.125 273.429 92.5208 272.616 93.3125C271.804 94.0833 271.397 95.0312 271.397 96.1562C271.397 97.2604 271.804 98.2083 272.616 99C273.429 99.7917 274.408 100.188 275.554 100.188C276.72 100.188 277.71 99.7917 278.522 99C279.335 98.2083 279.741 97.2604 279.741 96.1562ZM285.272 117.938H266.179V110.375H281.491V108.344H266.179V105.625H284.929V113.094H269.647V115.188H285.272V117.938ZM305.93 91.8125V89.5312H309.836V91.8125H316.055V94.5H312.93C313.326 94.9167 313.649 95.375 313.899 95.875C314.253 96.5833 314.43 97.3229 314.43 98.0938C314.43 98.8646 314.253 99.6042 313.899 100.312C313.565 101 313.097 101.594 312.492 102.094C311.888 102.615 311.201 103.021 310.43 103.312C310.159 103.396 309.899 103.469 309.649 103.531V105.094C312.461 105.094 315.232 104.979 317.961 104.75V90H321.43V97.625H325.274V100.75H321.43V108.75H317.961V107.562C315.378 107.812 312.607 107.938 309.649 107.938H298.68V105.094H306.242V103.562C305.951 103.5 305.659 103.417 305.367 103.312C304.576 103.021 303.878 102.615 303.274 102.094C302.67 101.594 302.201 101 301.867 100.312C301.534 99.6042 301.367 98.8646 301.367 98.0938C301.367 97.3229 301.534 96.5833 301.867 95.875C302.117 95.375 302.44 94.9167 302.836 94.5H299.43V91.8125H305.93ZM310.992 98C310.992 97.1875 310.69 96.4896 310.086 95.9062C309.482 95.3229 308.753 95.0312 307.899 95.0312C307.045 95.0312 306.305 95.3229 305.68 95.9062C305.076 96.4896 304.774 97.1875 304.774 98C304.774 98.8125 305.076 99.5104 305.68 100.094C306.305 100.677 307.045 100.969 307.899 100.969C308.753 100.969 309.482 100.677 310.086 100.094C310.69 99.5104 310.992 98.8125 310.992 98ZM302.774 110.25H321.43V118.281H317.992V113.125H302.774V110.25ZM342.509 98.25C342.509 99.2708 342.3 100.24 341.884 101.156C341.467 102.073 340.894 102.875 340.165 103.562C339.457 104.25 338.623 104.792 337.665 105.188C336.707 105.583 335.686 105.781 334.603 105.781C333.519 105.781 332.498 105.583 331.54 105.188C330.603 104.792 329.769 104.25 329.04 103.562C328.311 102.875 327.738 102.073 327.321 101.156C326.905 100.24 326.696 99.2708 326.696 98.25C326.696 97.2292 326.905 96.2604 327.321 95.3438C327.738 94.4271 328.311 93.625 329.04 92.9375C329.769 92.25 330.603 91.7188 331.54 91.3438C332.498 90.9479 333.519 90.75 334.603 90.75C335.686 90.75 336.707 90.9479 337.665 91.3438C338.623 91.7188 339.457 92.25 340.165 92.9375C340.894 93.625 341.467 94.4271 341.884 95.3438C342.3 96.2604 342.509 97.2292 342.509 98.25ZM339.071 98.25C339.071 97.6667 338.946 97.1042 338.696 96.5625C338.467 96.0208 338.155 95.5521 337.759 95.1562C337.342 94.7396 336.863 94.4167 336.321 94.1875C335.78 93.9583 335.207 93.8438 334.603 93.8438C334.019 93.8438 333.446 93.9583 332.884 94.1875C332.342 94.4167 331.873 94.7396 331.478 95.1562C331.061 95.5521 330.738 96.0208 330.509 96.5625C330.28 97.1042 330.165 97.6667 330.165 98.25C330.165 98.8542 330.28 99.4271 330.509 99.9688C330.738 100.49 331.061 100.958 331.478 101.375C331.873 101.771 332.342 102.094 332.884 102.344C333.446 102.573 334.019 102.688 334.603 102.688C335.207 102.688 335.78 102.573 336.321 102.344C336.863 102.094 337.342 101.771 337.759 101.375C338.155 100.958 338.467 100.49 338.696 99.9688C338.946 99.4271 339.071 98.8542 339.071 98.25ZM349.54 90V110.438H346.103V90H349.54ZM350.384 117.938H332.228V108.875H335.728V114.844H350.384V117.938ZM358.837 92.9688V90H362.494V92.9688H367.994V95.8438H365.4C365.504 95.9479 365.608 96.0521 365.712 96.1562C366.379 96.8021 366.9 97.5625 367.275 98.4375C367.671 99.3125 367.869 100.24 367.869 101.219C367.869 102.219 367.671 103.156 367.275 104.031C366.9 104.906 366.379 105.667 365.712 106.312C365.067 106.958 364.296 107.479 363.4 107.875C362.525 108.25 361.598 108.438 360.619 108.438C359.64 108.438 358.702 108.25 357.806 107.875C356.931 107.479 356.171 106.958 355.525 106.312C354.879 105.667 354.358 104.906 353.962 104.031C353.587 103.156 353.4 102.219 353.4 101.219C353.4 100.24 353.587 99.3125 353.962 98.4375C354.358 97.5625 354.879 96.8021 355.525 96.1562C355.65 96.0521 355.765 95.9479 355.869 95.8438H353.181V92.9688H358.837ZM364.681 101.125C364.681 99.9792 364.285 99 363.494 98.1875C362.723 97.3542 361.775 96.9375 360.65 96.9375C359.546 96.9375 358.598 97.3542 357.806 98.1875C357.015 99 356.619 99.9792 356.619 101.125C356.619 102.292 357.015 103.292 357.806 104.125C358.598 104.938 359.546 105.344 360.65 105.344C361.775 105.344 362.723 104.938 363.494 104.125C364.285 103.292 364.681 102.292 364.681 101.125ZM375.15 90H378.4V117.938H375.15V101.438H372.775V117.938H369.587V90H372.775V98.2812H375.15V90ZM411.714 106.562H404.089V111.875H414.807V115.031H389.901V111.875H400.62V106.562H392.964V90.9375H396.432V95.4688H408.276V90.9375H411.714V106.562ZM408.276 103.469V98.5938H396.432V103.469H408.276ZM437.793 90H441.168V117.938H437.793V90ZM435.418 117.938H432.074V101.406H428.168V98.25H432.074V90H435.418V117.938ZM425.418 95.5938C425.418 98.8646 425.97 101.615 427.074 103.844C428.157 106.115 429.48 108.073 431.043 109.719L428.699 111.625C427.22 110.167 425.73 108.031 424.23 105.219C424.043 104.844 423.865 104.469 423.699 104.094C423.532 104.448 423.355 104.802 423.168 105.156C421.688 108.052 420.157 110.177 418.574 111.531L416.105 109.719C417.834 108.115 419.282 106.135 420.449 103.781C421.553 101.51 422.105 98.7812 422.105 95.5938V90.8438H425.418V95.5938ZM465.465 98.9062C465.465 100.01 465.236 101.052 464.777 102.031C464.319 102.99 463.705 103.833 462.934 104.562C462.163 105.292 461.257 105.875 460.215 106.312C459.173 106.729 458.059 106.938 456.871 106.938C455.705 106.938 454.6 106.729 453.559 106.312C452.517 105.875 451.611 105.292 450.84 104.562C450.069 103.833 449.455 102.99 448.996 102.031C448.538 101.052 448.309 100.01 448.309 98.9062C448.309 97.7812 448.538 96.7396 448.996 95.7812C449.455 94.8021 450.069 93.9479 450.84 93.2188C451.611 92.5104 452.517 91.9479 453.559 91.5312C454.6 91.0938 455.705 90.875 456.871 90.875C458.059 90.875 459.173 91.0938 460.215 91.5312C461.257 91.9479 462.163 92.5104 462.934 93.2188C463.705 93.9479 464.319 94.8021 464.777 95.7812C465.236 96.7396 465.465 97.7812 465.465 98.9062ZM461.965 98.9062C461.965 98.2396 461.83 97.6146 461.559 97.0312C461.309 96.4271 460.944 95.8958 460.465 95.4375C460.007 95.0208 459.465 94.6771 458.84 94.4062C458.236 94.1354 457.58 94 456.871 94C456.184 94 455.527 94.1354 454.902 94.4062C454.298 94.6771 453.767 95.0208 453.309 95.4375C452.83 95.8958 452.455 96.4271 452.184 97.0312C451.934 97.6146 451.809 98.2396 451.809 98.9062C451.809 99.5521 451.934 100.177 452.184 100.781C452.455 101.385 452.83 101.906 453.309 102.344C453.767 102.781 454.298 103.135 454.902 103.406C455.527 103.656 456.184 103.781 456.871 103.781C457.58 103.781 458.236 103.656 458.84 103.406C459.465 103.135 460.007 102.781 460.465 102.344C460.944 101.906 461.309 101.385 461.559 100.781C461.83 100.177 461.965 99.5521 461.965 98.9062ZM444.434 111.906H449.715V106.469H453.152V111.906H460.621V106.469H464.059V111.906H469.34V115.031H444.434V111.906Z" fill="white"/>
</svg>
