<svg width="630" height="124" viewBox="0 0 630 124" fill="none" xmlns="http://www.w3.org/2000/svg">
<path d="M3.258 13.954H9.252V8.842H10.836V20.632H9.252V15.268H3.258V20.632H1.674V8.842H3.258V13.954ZM18.1856 20.632H16.6016V10.174H12.6596V8.842H22.1276V10.174H18.1856V20.632ZM26.8802 18.706L29.5442 8.842H31.2362L33.8282 18.706L36.3842 8.86L37.9322 8.842L34.7282 20.632H33.0722L30.3902 10.642L27.6722 20.632H26.0522L22.8662 8.842H24.3962L26.8802 18.706ZM40.8 14.764C40.8 16.24 41.196 17.386 41.988 18.202C42.78 19.018 43.782 19.426 44.994 19.426C46.206 19.426 47.202 19.018 47.982 18.202C48.774 17.386 49.17 16.24 49.17 14.764C49.17 13.276 48.774 12.124 47.982 11.308C47.202 10.48 46.206 10.066 44.994 10.066C43.782 10.066 42.78 10.48 41.988 11.308C41.196 12.124 40.8 13.276 40.8 14.764ZM39.234 14.764C39.234 13.012 39.768 11.566 40.836 10.426C41.904 9.286 43.29 8.716 44.994 8.716C46.698 8.716 48.084 9.286 49.152 10.426C50.232 11.566 50.772 13.012 50.772 14.764C50.772 16.504 50.232 17.944 49.152 19.084C48.084 20.212 46.698 20.776 44.994 20.776C43.29 20.776 41.904 20.212 40.836 19.084C39.768 17.944 39.234 16.504 39.234 14.764ZM61.7662 11.992C61.7662 12.52 61.6582 13.024 61.4422 13.504C61.2262 13.984 60.9322 14.398 60.5602 14.746C60.1762 15.106 59.7382 15.394 59.2462 15.61C58.7542 15.814 58.2262 15.916 57.6622 15.916C57.0982 15.916 56.5702 15.814 56.0782 15.61C55.5862 15.394 55.1482 15.106 54.7642 14.746C54.3922 14.398 54.0982 13.984 53.8822 13.504C53.6662 13.024 53.5582 12.52 53.5582 11.992C53.5582 11.464 53.6662 10.96 53.8822 10.48C54.0982 10 54.3922 9.586 54.7642 9.238C55.1482 8.878 55.5862 8.596 56.0782 8.392C56.5702 8.176 57.0982 8.068 57.6622 8.068C58.2262 8.068 58.7542 8.176 59.2462 8.392C59.7382 8.596 60.1762 8.878 60.5602 9.238C60.9322 9.586 61.2262 10 61.4422 10.48C61.6582 10.96 61.7662 11.464 61.7662 11.992ZM60.2722 11.992C60.2722 11.62 60.2002 11.278 60.0562 10.966C59.9122 10.642 59.7202 10.366 59.4802 10.138C59.2522 9.898 58.9822 9.706 58.6702 9.562C58.3582 9.418 58.0222 9.346 57.6622 9.346C57.3022 9.346 56.9662 9.418 56.6542 9.562C56.3422 9.706 56.0662 9.898 55.8262 10.138C55.5982 10.366 55.4122 10.642 55.2682 10.966C55.1242 11.278 55.0522 11.62 55.0522 11.992C55.0522 12.364 55.1242 12.712 55.2682 13.036C55.4122 13.348 55.5982 13.624 55.8262 13.864C56.0662 14.092 56.3422 14.278 56.6542 14.422C56.9662 14.566 57.3022 14.638 57.6622 14.638C58.0222 14.638 58.3582 14.566 58.6702 14.422C58.9822 14.278 59.2522 14.092 59.4802 13.864C59.7202 13.624 59.9122 13.348 60.0562 13.036C60.2002 12.712 60.2722 12.364 60.2722 11.992ZM65.2762 7.546V22.828H63.7462V19.39C62.4502 19.582 60.7342 19.678 58.5982 19.678H52.5862V18.346H58.5802C60.6682 18.346 62.3902 18.262 63.7462 18.094V7.546H65.2762ZM73.4652 8.842H77.0652C78.2532 8.842 79.1772 8.986 79.8372 9.274C80.2692 9.454 80.6412 9.712 80.9532 10.048C81.5532 10.72 81.8532 11.542 81.8532 12.514C81.8532 13.474 81.5532 14.29 80.9532 14.962C80.6412 15.298 80.2692 15.556 79.8372 15.736C79.2012 16 78.2292 16.132 76.9212 16.132H75.0492V20.632H73.4652V8.842ZM75.0492 14.8H77.4972C78.3852 14.8 79.0692 14.578 79.5492 14.134C80.0172 13.714 80.2512 13.174 80.2512 12.514C80.2512 11.83 80.0172 11.278 79.5492 10.858C79.0692 10.402 78.3852 10.174 77.4972 10.174H75.0492V14.8ZM85.7107 19.3H91.7227V20.632H84.1267V8.842H91.5967V10.174H85.7107V13.954H91.0387V15.268H85.7107V19.3ZM100.601 20.632H99.5386L95.5786 10.588V20.632H94.1026V8.842H96.1726L100.079 18.4L103.949 8.842H106.037V20.632H104.543V10.588L100.601 20.632ZM120.932 17.968V23.116H119.42V17.968H113.39V16.636H126.962V17.968H120.932ZM120.95 8.986C120.95 10.054 121.448 10.996 122.444 11.812C123.488 12.676 124.706 13.342 126.098 13.81L125.306 14.872C123.794 14.404 122.486 13.69 121.382 12.73C120.89 12.31 120.488 11.854 120.176 11.362C119.864 11.854 119.462 12.31 118.97 12.73C117.866 13.69 116.558 14.404 115.046 14.872L114.254 13.81C115.646 13.342 116.864 12.676 117.908 11.812C118.904 10.996 119.402 10.054 119.402 8.986V7.6H120.95V8.986ZM141.255 7.546V18.616H139.743V12.964H136.917V11.632H139.743V7.546H141.255ZM141.723 22.828H131.949V18.274H133.497V21.496H141.723V22.828ZM132.399 10.66V9.508H129.231V8.158H137.277V9.508H133.947V10.75C133.947 11.818 134.307 12.754 135.027 13.558C135.879 14.518 136.797 15.226 137.781 15.682L136.971 16.708C135.711 16.072 134.637 15.262 133.749 14.278C133.533 14.038 133.347 13.792 133.191 13.54C133.023 13.84 132.825 14.128 132.597 14.404C131.757 15.46 130.761 16.3 129.609 16.924L128.655 15.952C129.711 15.388 130.653 14.59 131.481 13.558C132.093 12.79 132.399 11.824 132.399 10.66ZM146.89 9.202V7.546H148.51V9.202H151.624V10.426H149.824C150.04 10.57 150.238 10.732 150.418 10.912C150.766 11.26 151.042 11.668 151.246 12.136C151.45 12.604 151.552 13.102 151.552 13.63C151.552 14.158 151.45 14.656 151.246 15.124C151.042 15.592 150.766 16 150.418 16.348C150.07 16.696 149.662 16.972 149.194 17.176C148.726 17.38 148.228 17.482 147.7 17.482C147.172 17.482 146.674 17.38 146.206 17.176C145.738 16.972 145.33 16.696 144.982 16.348C144.634 16 144.358 15.592 144.154 15.124C143.95 14.656 143.848 14.158 143.848 13.63C143.848 13.102 143.95 12.604 144.154 12.136C144.358 11.668 144.634 11.26 144.982 10.912C145.162 10.732 145.36 10.57 145.576 10.426H143.722V9.202H146.89ZM150.202 13.594C150.202 13.246 150.136 12.916 150.004 12.604C149.872 12.292 149.692 12.016 149.464 11.776C149.236 11.548 148.972 11.368 148.672 11.236C148.372 11.092 148.054 11.02 147.718 11.02C147.382 11.02 147.064 11.092 146.764 11.236C146.464 11.368 146.2 11.548 145.972 11.776C145.744 12.016 145.564 12.292 145.432 12.604C145.3 12.916 145.234 13.246 145.234 13.594C145.234 13.942 145.3 14.272 145.432 14.584C145.564 14.896 145.744 15.172 145.972 15.412C146.2 15.64 146.464 15.826 146.764 15.97C147.064 16.102 147.382 16.168 147.718 16.168C148.054 16.168 148.372 16.102 148.672 15.97C148.972 15.826 149.236 15.64 149.464 15.412C149.692 15.172 149.872 14.896 150.004 14.584C150.136 14.272 150.202 13.942 150.202 13.594ZM156.088 7.546H157.474V22.828H156.088V13.54H154.324V22.828H152.938V7.546H154.324V12.208H156.088V7.546ZM175.401 7.546H176.913V22.828H175.401V7.546ZM172.251 8.248C172.251 10.78 171.579 13.03 170.235 14.998C169.059 16.774 167.529 18.262 165.645 19.462L164.619 18.4C166.395 17.332 167.823 15.982 168.903 14.35C169.935 12.862 170.487 11.272 170.559 9.58H165.339V8.248H172.251ZM179.723 13.936H193.295V15.16H187.283V16.672H191.567V20.362H182.963V21.604H191.747V22.828H181.451V19.138H190.055V17.896H181.451V16.672H185.735V15.16H179.723V13.936ZM187.265 8.338C187.265 9.034 187.859 9.802 189.047 10.642C189.935 11.242 191.075 11.68 192.467 11.956L191.801 13.054C190.289 12.742 188.963 12.196 187.823 11.416C187.271 11.032 186.833 10.636 186.509 10.228C186.185 10.636 185.747 11.032 185.195 11.416C184.055 12.196 182.729 12.742 181.217 13.054L180.551 11.956C181.943 11.68 183.083 11.242 183.971 10.642C185.159 9.802 185.753 9.034 185.753 8.338V7.474H187.265V8.338ZM206.364 11.488C206.364 12.064 206.244 12.604 206.004 13.108C205.764 13.612 205.434 14.05 205.014 14.422C204.774 14.662 204.504 14.866 204.204 15.034H208.632V16.366H195.06V15.034H199.488C199.188 14.866 198.912 14.662 198.66 14.422C198.252 14.05 197.928 13.612 197.688 13.108C197.448 12.604 197.328 12.064 197.328 11.488C197.328 10.912 197.448 10.372 197.688 9.868C197.928 9.364 198.252 8.926 198.66 8.554C199.068 8.17 199.542 7.87 200.082 7.654C200.634 7.426 201.222 7.312 201.846 7.312C202.458 7.312 203.04 7.426 203.592 7.654C204.144 7.87 204.618 8.17 205.014 8.554C205.434 8.926 205.764 9.364 206.004 9.868C206.244 10.372 206.364 10.912 206.364 11.488ZM204.852 11.578C204.852 11.182 204.768 10.81 204.6 10.462C204.444 10.102 204.234 9.79 203.97 9.526C203.694 9.262 203.376 9.052 203.016 8.896C202.656 8.74 202.266 8.662 201.846 8.662C201.426 8.662 201.036 8.74 200.676 8.896C200.316 9.052 199.998 9.262 199.722 9.526C199.458 9.79 199.242 10.102 199.074 10.462C198.918 10.81 198.84 11.182 198.84 11.578C198.84 11.974 198.918 12.352 199.074 12.712C199.242 13.06 199.458 13.366 199.722 13.63C199.998 13.894 200.316 14.104 200.676 14.26C201.036 14.416 201.426 14.494 201.846 14.494C202.266 14.494 202.656 14.416 203.016 14.26C203.376 14.104 203.694 13.894 203.97 13.63C204.234 13.366 204.444 13.06 204.6 12.712C204.768 12.352 204.852 11.974 204.852 11.578ZM207.174 22.828H196.878V18.346H198.426V21.46H207.174V22.828ZM219.035 8.86V7.294H220.763V8.86H224.309V10.138H222.095C222.299 10.27 222.485 10.414 222.653 10.57C223.001 10.894 223.277 11.284 223.481 11.74C223.697 12.196 223.805 12.67 223.805 13.162C223.805 13.654 223.697 14.122 223.481 14.566C223.277 15.01 223.001 15.394 222.653 15.718C222.293 16.054 221.879 16.318 221.411 16.51C220.943 16.702 220.439 16.798 219.899 16.798C219.359 16.798 218.855 16.702 218.387 16.51C217.919 16.318 217.505 16.054 217.145 15.718C216.797 15.394 216.515 15.01 216.299 14.566C216.095 14.122 215.993 13.654 215.993 13.162C215.993 12.67 216.095 12.196 216.299 11.74C216.515 11.284 216.797 10.894 217.145 10.57C217.313 10.414 217.499 10.27 217.703 10.138H215.489V8.86H219.035ZM222.311 13.072C222.311 12.424 222.071 11.86 221.591 11.38C221.123 10.888 220.559 10.642 219.899 10.642C219.239 10.642 218.669 10.888 218.189 11.38C217.721 11.86 217.487 12.424 217.487 13.072C217.487 13.72 217.721 14.284 218.189 14.764C218.669 15.232 219.239 15.466 219.899 15.466C220.559 15.466 221.123 15.232 221.591 14.764C222.071 14.284 222.311 13.72 222.311 13.072ZM226.397 11.992H224.399V10.588H226.397V7.546H227.909V18.796H226.397V15.718H224.399V14.314H226.397V11.992ZM228.449 22.828H218.423V18.364H220.043V21.478H228.449V22.828ZM231.672 18.832V8.23H236.658V9.598H233.166V17.464H234.57C236.19 17.464 237.552 17.356 238.656 17.14V7.546H240.096V12.802H242.238V7.546H243.714V22.828H242.238V14.134H240.096V22.828H238.656V18.508C237.672 18.724 236.358 18.832 234.714 18.832H231.672ZM257.665 7.546V12.658H260.041V14.062H257.665V22.828H256.153V7.546H257.665ZM249.619 11.182V9.58H246.307V8.23H254.371V9.58H251.167V11.146C251.155 12.646 251.509 13.966 252.229 15.106C252.913 16.198 253.819 17.224 254.947 18.184L254.029 19.12C252.853 18.148 251.791 16.936 250.843 15.484C250.687 15.244 250.543 15.004 250.411 14.764C250.255 15.124 250.063 15.472 249.835 15.808C248.851 17.308 247.765 18.466 246.577 19.282L245.569 18.31C246.697 17.554 247.687 16.504 248.539 15.16C249.259 14.008 249.619 12.682 249.619 11.182ZM263.121 7.942H273.165V9.238H264.633V12.352H273.291V13.648H268.935V15.736H274.965V17.014H270.591C270.747 17.122 270.891 17.236 271.023 17.356C271.383 17.68 271.671 18.07 271.887 18.526C272.103 18.97 272.211 19.444 272.211 19.948C272.211 20.452 272.103 20.932 271.887 21.388C271.671 21.832 271.383 22.216 271.023 22.54C270.663 22.876 270.237 23.14 269.745 23.332C269.253 23.536 268.731 23.638 268.179 23.638C267.627 23.638 267.105 23.536 266.613 23.332C266.121 23.14 265.695 22.876 265.335 22.54C264.975 22.216 264.687 21.832 264.471 21.388C264.255 20.932 264.147 20.452 264.147 19.948C264.147 19.444 264.255 18.97 264.471 18.526C264.687 18.07 264.975 17.68 265.335 17.356C265.467 17.236 265.611 17.122 265.767 17.014H261.393V15.736H267.423V13.648H263.121V7.942ZM270.699 19.894C270.699 19.21 270.453 18.628 269.961 18.148C269.469 17.656 268.875 17.41 268.179 17.41C267.483 17.41 266.889 17.656 266.397 18.148C265.905 18.628 265.659 19.21 265.659 19.894C265.659 20.578 265.905 21.166 266.397 21.658C266.889 22.138 267.483 22.378 268.179 22.378C268.875 22.378 269.469 22.138 269.961 21.658C270.453 21.166 270.699 20.578 270.699 19.894ZM288.34 7.546V13.018H290.716V14.422H288.34V22.828H286.828V7.546H288.34ZM280.168 11.362V10.48H276.64V9.112H280.168V7.276H281.716V9.112H285.028V10.48H281.716V11.362C281.728 12.694 282.046 13.948 282.67 15.124C283.27 16.252 284.188 17.332 285.424 18.364L284.47 19.336C283.222 18.28 282.202 17.08 281.41 15.736C281.242 15.448 281.086 15.154 280.942 14.854C280.81 15.154 280.654 15.454 280.474 15.754C279.61 17.194 278.554 18.412 277.306 19.408L276.244 18.472C277.444 17.524 278.428 16.402 279.196 15.106C279.832 14.014 280.156 12.766 280.168 11.362ZM303.659 8.374V12.784C303.659 15.112 303.449 17.308 303.029 19.372H305.639V20.704H292.067V19.372H301.589C301.961 17.404 302.147 15.352 302.147 13.216V9.706H293.579V8.374H303.659ZM319.338 14.188H309.132V10.444H317.736V9.04H309.132V7.852H319.248V11.596H310.644V13.018H319.338V14.188ZM320.976 16.636H315.018V17.896H313.362V16.636H307.404V15.43H320.976V16.636ZM319.248 22.828H309.132V17.77H310.644V18.94H317.736V17.77H319.248V22.828ZM317.736 21.676V20.074H310.644V21.676H317.736ZM330.176 13.234C330.116 13.534 330.032 13.816 329.924 14.08C329.708 14.572 329.42 14.998 329.06 15.358C328.676 15.73 328.238 16.024 327.746 16.24C327.266 16.456 326.75 16.564 326.198 16.564C325.646 16.564 325.124 16.456 324.632 16.24C324.152 16.024 323.72 15.73 323.336 15.358C322.976 14.998 322.688 14.578 322.472 14.098C322.268 13.606 322.166 13.078 322.166 12.514C322.166 11.95 322.268 11.428 322.472 10.948C322.688 10.456 322.976 10.03 323.336 9.67C323.72 9.298 324.152 9.004 324.632 8.788C325.124 8.572 325.646 8.464 326.198 8.464C326.75 8.464 327.266 8.572 327.746 8.788C328.238 9.004 328.676 9.298 329.06 9.67C329.42 10.03 329.708 10.45 329.924 10.93C330.032 11.206 330.116 11.494 330.176 11.794H331.742V7.546H333.146V22.828H331.742V13.234H330.176ZM328.808 12.514C328.808 12.154 328.742 11.806 328.61 11.47C328.478 11.134 328.298 10.846 328.07 10.606C327.83 10.354 327.548 10.156 327.224 10.012C326.912 9.856 326.57 9.778 326.198 9.778C325.826 9.778 325.484 9.856 325.172 10.012C324.86 10.156 324.584 10.354 324.344 10.606C324.116 10.846 323.93 11.134 323.786 11.47C323.654 11.806 323.588 12.154 323.588 12.514C323.588 12.874 323.654 13.222 323.786 13.558C323.93 13.894 324.116 14.182 324.344 14.422C324.584 14.674 324.86 14.878 325.172 15.034C325.484 15.178 325.826 15.25 326.198 15.25C326.57 15.25 326.912 15.178 327.224 15.034C327.548 14.878 327.83 14.674 328.07 14.422C328.298 14.182 328.478 13.894 328.61 13.558C328.742 13.222 328.808 12.874 328.808 12.514ZM334.784 7.546H336.224V22.828H334.784V7.546ZM349.185 7.546H350.697V22.828H349.185V13.594H345.711V12.28H349.185V7.546ZM343.065 10.354C343.065 12.166 343.419 13.672 344.127 14.872C344.799 16 345.771 17.08 347.043 18.112L346.053 19.102C344.781 18.082 343.671 16.816 342.723 15.304C342.567 15.064 342.429 14.812 342.309 14.548C342.177 14.848 342.027 15.136 341.859 15.412C340.851 17.02 339.717 18.28 338.457 19.192L337.467 18.22C338.655 17.368 339.705 16.186 340.617 14.674C341.217 13.702 341.517 12.262 341.517 10.354V7.996H343.065V10.354ZM12.618 45.152H10.638V53.828H9.216V38.546H10.638V43.892H12.618V38.546H14.058V53.828H12.618V45.152ZM7.362 39.248C7.362 41.9 6.822 44.156 5.742 46.016C4.614 47.948 3.348 49.454 1.944 50.534L0.846 49.598C2.178 48.59 3.372 47.186 4.428 45.386C5.28 43.946 5.712 42.344 5.724 40.58H1.584V39.248H7.362ZM23.9233 45.818H16.9033V38.942H18.3793V40.958H22.4473V38.942H23.9233V45.818ZM22.4473 44.63V42.128H18.3793V44.63H22.4473ZM28.1173 38.546V41.66H30.2773V42.992H28.1173V46.16H26.6053V38.546H28.1173ZM28.3153 53.828H18.6313V50.012H26.6053V48.59H18.6313V47.402H28.1173V51.218H20.1433V52.64H28.3153V53.828ZM35.4985 40.184V38.546H37.1545V40.184H40.9345V41.408H38.5765C38.8405 41.576 39.0745 41.762 39.2785 41.966C39.6625 42.35 39.9625 42.794 40.1785 43.298C40.4065 43.802 40.5205 44.342 40.5205 44.918C40.5205 45.494 40.4065 46.034 40.1785 46.538C39.9625 47.042 39.6625 47.486 39.2785 47.87C38.9065 48.242 38.4625 48.542 37.9465 48.77C37.4425 48.986 36.9025 49.094 36.3265 49.094C35.7505 49.094 35.2045 48.986 34.6885 48.77C34.1845 48.542 33.7465 48.242 33.3745 47.87C32.9905 47.486 32.6845 47.042 32.4565 46.538C32.2405 46.034 32.1325 45.494 32.1325 44.918C32.1325 44.342 32.2405 43.802 32.4565 43.298C32.6845 42.794 32.9905 42.35 33.3745 41.966C33.5785 41.762 33.8125 41.576 34.0765 41.408H31.7005V40.184H35.4985ZM39.0625 44.864C39.0625 44.468 38.9905 44.096 38.8465 43.748C38.7025 43.388 38.5045 43.076 38.2525 42.812C38.0005 42.548 37.7065 42.338 37.3705 42.182C37.0465 42.026 36.6985 41.948 36.3265 41.948C35.9545 41.948 35.6005 42.026 35.2645 42.182C34.9405 42.338 34.6525 42.548 34.4005 42.812C34.1485 43.076 33.9505 43.388 33.8065 43.748C33.6625 44.096 33.5905 44.468 33.5905 44.864C33.5905 45.26 33.6625 45.638 33.8065 45.998C33.9505 46.346 34.1485 46.652 34.4005 46.916C34.6525 47.18 34.9405 47.39 35.2645 47.546C35.6005 47.702 35.9545 47.78 36.3265 47.78C36.6985 47.78 37.0465 47.702 37.3705 47.546C37.7065 47.39 38.0005 47.18 38.2525 46.916C38.5045 46.652 38.7025 46.346 38.8465 45.998C38.9905 45.638 39.0625 45.26 39.0625 44.864ZM43.9225 38.546V43.154H45.8845V44.594H43.9225V53.828H42.4465V38.546H43.9225ZM58.8998 39.374V42.866C58.8998 44.978 58.6898 46.934 58.2698 48.734H56.8118C57.1958 46.97 57.3878 45.146 57.3878 43.262V40.706H48.6038V39.374H58.8998ZM60.6458 50.75V52.082H47.0738V50.75H51.7178V44.774H53.2298V50.75H60.6458ZM75.6028 42.686C75.6028 43.202 75.4948 43.694 75.2788 44.162C75.0628 44.618 74.7748 45.014 74.4148 45.35C74.0428 45.698 73.6108 45.974 73.1188 46.178C72.6388 46.37 72.1168 46.466 71.5528 46.466C70.9888 46.466 70.4608 46.37 69.9688 46.178C69.4888 45.974 69.0628 45.698 68.6908 45.35C68.3308 45.014 68.0428 44.618 67.8268 44.162C67.6108 43.694 67.5028 43.202 67.5028 42.686C67.5028 42.17 67.6108 41.684 67.8268 41.228C68.0428 40.76 68.3308 40.358 68.6908 40.022C69.0628 39.674 69.4888 39.404 69.9688 39.212C70.4608 39.008 70.9888 38.906 71.5528 38.906C72.1168 38.906 72.6388 39.008 73.1188 39.212C73.6108 39.404 74.0428 39.674 74.4148 40.022C74.7748 40.358 75.0628 40.76 75.2788 41.228C75.4948 41.684 75.6028 42.17 75.6028 42.686ZM74.0908 42.686C74.0908 42.002 73.8388 41.414 73.3348 40.922C72.8428 40.43 72.2488 40.184 71.5528 40.184C70.8568 40.184 70.2568 40.43 69.7528 40.922C69.2608 41.414 69.0148 42.002 69.0148 42.686C69.0148 43.37 69.2608 43.958 69.7528 44.45C70.2568 44.942 70.8568 45.188 71.5528 45.188C72.2488 45.188 72.8428 44.942 73.3348 44.45C73.8388 43.958 74.0908 43.37 74.0908 42.686ZM79.9228 38.546V46.862H78.4108V38.546H79.9228ZM77.1688 48.158H78.5908V49.058C78.5908 49.742 78.8848 50.498 79.4728 51.326C80.0848 52.094 80.7388 52.718 81.4348 53.198L80.5168 54.116C79.6288 53.468 78.8488 52.694 78.1768 51.794C78.0688 51.626 77.9668 51.458 77.8708 51.29C77.7748 51.458 77.6668 51.626 77.5468 51.794C76.8748 52.706 76.0708 53.474 75.1348 54.098C74.1868 53.474 73.3768 52.706 72.7048 51.794C72.5848 51.626 72.4768 51.458 72.3808 51.29C72.2848 51.458 72.1828 51.626 72.0748 51.794C71.4028 52.694 70.6228 53.468 69.7348 54.116L68.8168 53.198C69.5128 52.718 70.1668 52.094 70.7788 51.326C71.3668 50.498 71.6608 49.742 71.6608 49.058V48.158H73.0828V49.058C73.0828 49.766 73.3828 50.498 73.9828 51.254C74.3428 51.698 74.7268 52.1 75.1348 52.46C75.5308 52.1 75.9088 51.698 76.2688 51.254C76.8688 50.498 77.1688 49.766 77.1688 49.058V48.158ZM84.4601 38.762H85.9721V43.1H94.8101V44.45H84.4601V38.762ZM82.7321 47.816V46.448H96.3041V47.816H82.7321ZM94.8461 53.828H84.5501V49.598H86.0981V52.478H94.8461V53.828ZM110.595 48.968V54.116H109.083V48.968H103.053V47.636H116.625V48.968H110.595ZM110.613 39.986C110.613 41.054 111.111 41.996 112.107 42.812C113.151 43.676 114.369 44.342 115.761 44.81L114.969 45.872C113.457 45.404 112.149 44.69 111.045 43.73C110.553 43.31 110.151 42.854 109.839 42.362C109.527 42.854 109.125 43.31 108.633 43.73C107.529 44.69 106.221 45.404 104.709 45.872L103.917 44.81C105.309 44.342 106.527 43.676 107.571 42.812C108.567 41.996 109.065 41.054 109.065 39.986V38.6H110.613V39.986ZM131.962 50.858V52.19H118.39V50.858H124.42V47.078H125.932V50.858H131.962ZM125.95 40.562C125.95 41.906 126.478 43.064 127.534 44.036C128.674 45.08 129.928 45.806 131.296 46.214L130.468 47.294C128.74 46.718 127.294 45.812 126.13 44.576C125.746 44.18 125.428 43.76 125.176 43.316C124.924 43.76 124.606 44.18 124.222 44.576C123.058 45.812 121.612 46.718 119.884 47.294L119.056 46.214C120.412 45.806 121.66 45.08 122.8 44.036C123.868 43.064 124.402 41.906 124.402 40.562V39.014H125.95V40.562ZM142.296 42.974C142.296 43.502 142.188 44.006 141.972 44.486H144.744V41.48H141.99C142.194 41.96 142.296 42.458 142.296 42.974ZM141.108 45.746C141.096 45.77 141.078 45.788 141.054 45.8C140.658 46.172 140.208 46.466 139.704 46.682C139.2 46.886 138.654 46.988 138.066 46.988C137.478 46.988 136.932 46.886 136.428 46.682C135.924 46.466 135.474 46.172 135.078 45.8C134.694 45.44 134.388 45.014 134.16 44.522C133.944 44.03 133.836 43.514 133.836 42.974C133.836 42.434 133.944 41.918 134.16 41.426C134.388 40.934 134.694 40.508 135.078 40.148C135.474 39.776 135.924 39.488 136.428 39.284C136.932 39.068 137.478 38.96 138.066 38.96C138.654 38.96 139.2 39.068 139.704 39.284C140.208 39.488 140.658 39.776 141.054 40.148L141.126 40.22H144.744V38.546H146.256V49.616H144.744V45.746H141.108ZM140.784 42.974C140.784 42.602 140.712 42.254 140.568 41.93C140.424 41.606 140.226 41.324 139.974 41.084C139.734 40.832 139.446 40.634 139.11 40.49C138.774 40.346 138.426 40.274 138.066 40.274C137.706 40.274 137.358 40.346 137.022 40.49C136.686 40.634 136.398 40.832 136.158 41.084C135.906 41.324 135.708 41.606 135.564 41.93C135.42 42.254 135.348 42.602 135.348 42.974C135.348 43.346 135.42 43.694 135.564 44.018C135.708 44.342 135.906 44.63 136.158 44.882C136.398 45.122 136.686 45.314 137.022 45.458C137.358 45.602 137.706 45.674 138.066 45.674C138.426 45.674 138.774 45.602 139.11 45.458C139.446 45.314 139.734 45.122 139.974 44.882C140.226 44.63 140.424 44.342 140.568 44.018C140.712 43.694 140.784 43.346 140.784 42.974ZM146.724 53.828H136.95V49.13H138.48V52.478H146.724V53.828ZM160.999 48.05H159.055V50.912H162.637V52.19H149.065V50.912H152.647V48.05H150.793V42.992H159.397V40.562H150.793V39.23H160.909V44.288H152.305V46.736H160.999V48.05ZM157.579 48.05H154.123V50.912H157.579V48.05ZM176.93 38.546V49.616H175.418V43.964H172.592V42.632H175.418V38.546H176.93ZM177.398 53.828H167.624V49.274H169.172V52.496H177.398V53.828ZM168.074 41.66V40.508H164.906V39.158H172.952V40.508H169.622V41.75C169.622 42.818 169.982 43.754 170.702 44.558C171.554 45.518 172.472 46.226 173.456 46.682L172.646 47.708C171.386 47.072 170.312 46.262 169.424 45.278C169.208 45.038 169.022 44.792 168.866 44.54C168.698 44.84 168.5 45.128 168.272 45.404C167.432 46.46 166.436 47.3 165.284 47.924L164.33 46.952C165.386 46.388 166.328 45.59 167.156 44.558C167.768 43.79 168.074 42.824 168.074 41.66ZM190.755 38.546H192.267V53.828H190.755V38.546ZM183.573 42.182V40.58H180.261V39.23H188.325V40.58H185.121V42.146C185.109 43.646 185.463 44.966 186.183 46.106C186.867 47.198 187.773 48.224 188.901 49.184L187.983 50.12C186.807 49.148 185.745 47.936 184.797 46.484C184.641 46.244 184.497 46.004 184.365 45.764C184.209 46.124 184.017 46.472 183.789 46.808C182.805 48.308 181.719 49.466 180.531 50.282L179.523 49.31C180.651 48.554 181.641 47.504 182.493 46.16C183.213 45.008 183.573 43.682 183.573 42.182ZM203.807 42.992C203.807 43.52 203.699 44.024 203.483 44.504C203.267 44.984 202.973 45.398 202.601 45.746C202.217 46.106 201.779 46.388 201.287 46.592C201.035 46.7 200.777 46.784 200.513 46.844V49.526C202.457 49.526 204.143 49.436 205.571 49.256V38.546H207.065V44.45H209.225V45.89H207.065V53.828H205.571V50.552C204.239 50.756 202.553 50.858 200.513 50.858H194.825V49.526H199.037V46.862C198.713 46.814 198.407 46.724 198.119 46.592C197.627 46.388 197.189 46.106 196.805 45.746C196.433 45.398 196.139 44.984 195.923 44.504C195.707 44.024 195.599 43.52 195.599 42.992C195.599 42.464 195.707 41.96 195.923 41.48C196.139 41 196.433 40.586 196.805 40.238C197.189 39.878 197.627 39.596 198.119 39.392C198.611 39.176 199.139 39.068 199.703 39.068C200.267 39.068 200.795 39.176 201.287 39.392C201.779 39.596 202.217 39.878 202.601 40.238C202.973 40.586 203.267 41 203.483 41.48C203.699 41.96 203.807 42.464 203.807 42.992ZM202.313 42.992C202.313 42.62 202.241 42.278 202.097 41.966C201.953 41.642 201.761 41.366 201.521 41.138C201.293 40.898 201.023 40.706 200.711 40.562C200.399 40.418 200.063 40.346 199.703 40.346C199.343 40.346 199.007 40.418 198.695 40.562C198.383 40.706 198.107 40.898 197.867 41.138C197.639 41.366 197.453 41.642 197.309 41.966C197.165 42.278 197.093 42.62 197.093 42.992C197.093 43.364 197.165 43.712 197.309 44.036C197.453 44.348 197.639 44.624 197.867 44.864C198.107 45.092 198.383 45.278 198.695 45.422C199.007 45.566 199.343 45.638 199.703 45.638C200.063 45.638 200.399 45.566 200.711 45.422C201.023 45.278 201.293 45.092 201.521 44.864C201.761 44.624 201.953 44.348 202.097 44.036C202.241 43.712 202.313 43.364 202.313 42.992ZM217.126 38.942H227.17V40.238H218.638V43.352H227.296V44.648H222.94V46.736H228.97V48.014H224.596C224.752 48.122 224.896 48.236 225.028 48.356C225.388 48.68 225.676 49.07 225.892 49.526C226.108 49.97 226.216 50.444 226.216 50.948C226.216 51.452 226.108 51.932 225.892 52.388C225.676 52.832 225.388 53.216 225.028 53.54C224.668 53.876 224.242 54.14 223.75 54.332C223.258 54.536 222.736 54.638 222.184 54.638C221.632 54.638 221.11 54.536 220.618 54.332C220.126 54.14 219.7 53.876 219.34 53.54C218.98 53.216 218.692 52.832 218.476 52.388C218.26 51.932 218.152 51.452 218.152 50.948C218.152 50.444 218.26 49.97 218.476 49.526C218.692 49.07 218.98 48.68 219.34 48.356C219.472 48.236 219.616 48.122 219.772 48.014H215.398V46.736H221.428V44.648H217.126V38.942ZM224.704 50.894C224.704 50.21 224.458 49.628 223.966 49.148C223.474 48.656 222.88 48.41 222.184 48.41C221.488 48.41 220.894 48.656 220.402 49.148C219.91 49.628 219.664 50.21 219.664 50.894C219.664 51.578 219.91 52.166 220.402 52.658C220.894 53.138 221.488 53.378 222.184 53.378C222.88 53.378 223.474 53.138 223.966 52.658C224.458 52.166 224.704 51.578 224.704 50.894ZM238.745 42.344C238.745 42.824 238.643 43.286 238.439 43.73C238.235 44.174 237.959 44.558 237.611 44.882C237.251 45.206 236.831 45.464 236.351 45.656C235.871 45.848 235.355 45.944 234.803 45.944C234.251 45.944 233.735 45.848 233.255 45.656C232.775 45.464 232.355 45.206 231.995 44.882C231.647 44.558 231.365 44.174 231.149 43.73C230.945 43.286 230.843 42.824 230.843 42.344C230.843 41.864 230.945 41.402 231.149 40.958C231.365 40.514 231.647 40.13 231.995 39.806C232.355 39.482 232.775 39.224 233.255 39.032C233.735 38.84 234.251 38.744 234.803 38.744C235.355 38.744 235.871 38.84 236.351 39.032C236.831 39.224 237.251 39.482 237.611 39.806C237.959 40.13 238.235 40.514 238.439 40.958C238.643 41.402 238.745 41.864 238.745 42.344ZM237.251 42.344C237.251 41.708 237.011 41.162 236.531 40.706C236.051 40.25 235.475 40.022 234.803 40.022C234.131 40.022 233.555 40.25 233.075 40.706C232.595 41.162 232.355 41.708 232.355 42.344C232.355 42.98 232.595 43.526 233.075 43.982C233.555 44.438 234.131 44.666 234.803 44.666C235.475 44.666 236.051 44.438 236.531 43.982C237.011 43.526 237.251 42.98 237.251 42.344ZM243.263 38.546V46.16H241.751V38.546H243.263ZM243.461 53.828H233.777V49.958H241.751V48.572H233.777V47.33H243.263V51.2H235.289V52.586H243.461V53.828ZM249.618 39.86V38.294H251.346V39.86H254.892V41.138H252.678C252.882 41.27 253.068 41.414 253.236 41.57C253.584 41.894 253.86 42.284 254.064 42.74C254.28 43.196 254.388 43.67 254.388 44.162C254.388 44.654 254.28 45.122 254.064 45.566C253.86 46.01 253.584 46.394 253.236 46.718C252.876 47.054 252.462 47.318 251.994 47.51C251.526 47.702 251.022 47.798 250.482 47.798C249.942 47.798 249.438 47.702 248.97 47.51C248.502 47.318 248.088 47.054 247.728 46.718C247.38 46.394 247.098 46.01 246.882 45.566C246.678 45.122 246.576 44.654 246.576 44.162C246.576 43.67 246.678 43.196 246.882 42.74C247.098 42.284 247.38 41.894 247.728 41.57C247.896 41.414 248.082 41.27 248.286 41.138H246.072V39.86H249.618ZM252.894 44.072C252.894 43.424 252.654 42.86 252.174 42.38C251.706 41.888 251.142 41.642 250.482 41.642C249.822 41.642 249.252 41.888 248.772 42.38C248.304 42.86 248.07 43.424 248.07 44.072C248.07 44.72 248.304 45.284 248.772 45.764C249.252 46.232 249.822 46.466 250.482 46.466C251.142 46.466 251.706 46.232 252.174 45.764C252.654 45.284 252.894 44.72 252.894 44.072ZM258.15 38.546V43.208H260.31V44.63H258.15V49.796H256.638V38.546H258.15ZM258.6 53.828H248.844V49.364H250.41V52.478H258.6V53.828ZM278.219 39.374V42.866C278.219 44.978 278.009 46.934 277.589 48.734H276.131C276.515 46.97 276.707 45.146 276.707 43.262V40.706H267.923V39.374H278.219ZM279.965 50.75V52.082H266.393V50.75H271.037V44.774H272.549V50.75H279.965ZM293.575 45.206H283.459V38.672H284.971V40.346H292.063V38.672H293.575V45.206ZM292.063 43.91V41.624H284.971V43.91H292.063ZM295.303 46.952V48.248H289.489V50.57H287.923V48.248H281.731V46.952H295.303ZM293.791 53.828H283.459V49.976H285.025V52.514H293.791V53.828ZM308.678 38.546V43.658H311.054V45.062H308.678V53.828H307.166V38.546H308.678ZM300.632 42.182V40.58H297.32V39.23H305.384V40.58H302.18V42.146C302.168 43.646 302.522 44.966 303.242 46.106C303.926 47.198 304.832 48.224 305.96 49.184L305.042 50.12C303.866 49.148 302.804 47.936 301.856 46.484C301.7 46.244 301.556 46.004 301.424 45.764C301.268 46.124 301.076 46.472 300.848 46.808C299.864 48.308 298.778 49.466 297.59 50.282L296.582 49.31C297.71 48.554 298.7 47.504 299.552 46.16C300.272 45.008 300.632 43.682 300.632 42.182ZM329.917 38.546V49.616H328.405V43.964H325.579V42.632H328.405V38.546H329.917ZM330.385 53.828H320.611V49.274H322.159V52.496H330.385V53.828ZM321.061 41.66V40.508H317.893V39.158H325.939V40.508H322.609V41.75C322.609 42.818 322.969 43.754 323.689 44.558C324.541 45.518 325.459 46.226 326.443 46.682L325.633 47.708C324.373 47.072 323.299 46.262 322.411 45.278C322.195 45.038 322.009 44.792 321.853 44.54C321.685 44.84 321.487 45.128 321.259 45.404C320.419 46.46 319.423 47.3 318.271 47.924L317.317 46.952C318.373 46.388 319.315 45.59 320.143 44.558C320.755 43.79 321.061 42.824 321.061 41.66ZM335.552 40.202V38.546H337.172V40.202H340.286V41.426H338.486C338.702 41.57 338.9 41.732 339.08 41.912C339.428 42.26 339.704 42.668 339.908 43.136C340.112 43.604 340.214 44.102 340.214 44.63C340.214 45.158 340.112 45.656 339.908 46.124C339.704 46.592 339.428 47 339.08 47.348C338.732 47.696 338.324 47.972 337.856 48.176C337.388 48.38 336.89 48.482 336.362 48.482C335.834 48.482 335.336 48.38 334.868 48.176C334.4 47.972 333.992 47.696 333.644 47.348C333.296 47 333.02 46.592 332.816 46.124C332.612 45.656 332.51 45.158 332.51 44.63C332.51 44.102 332.612 43.604 332.816 43.136C333.02 42.668 333.296 42.26 333.644 41.912C333.824 41.732 334.022 41.57 334.238 41.426H332.384V40.202H335.552ZM338.864 44.594C338.864 44.246 338.798 43.916 338.666 43.604C338.534 43.292 338.354 43.016 338.126 42.776C337.898 42.548 337.634 42.368 337.334 42.236C337.034 42.092 336.716 42.02 336.38 42.02C336.044 42.02 335.726 42.092 335.426 42.236C335.126 42.368 334.862 42.548 334.634 42.776C334.406 43.016 334.226 43.292 334.094 43.604C333.962 43.916 333.896 44.246 333.896 44.594C333.896 44.942 333.962 45.272 334.094 45.584C334.226 45.896 334.406 46.172 334.634 46.412C334.862 46.64 335.126 46.826 335.426 46.97C335.726 47.102 336.044 47.168 336.38 47.168C336.716 47.168 337.034 47.102 337.334 46.97C337.634 46.826 337.898 46.64 338.126 46.412C338.354 46.172 338.534 45.896 338.666 45.584C338.798 45.272 338.864 44.942 338.864 44.594ZM344.75 38.546H346.136V53.828H344.75V44.54H342.986V53.828H341.6V38.546H342.986V43.208H344.75V38.546ZM360.591 38.546V46.16H359.079V38.546H360.591ZM360.789 53.828H351.105V49.958H359.079V48.5H351.105V47.294H360.591V51.164H352.617V52.622H360.789V53.828ZM351.735 40.328H348.549V39.104H356.595V40.328H353.283V41.21C353.283 41.978 353.613 42.698 354.273 43.37C355.005 44.126 355.917 44.726 357.009 45.17L356.289 46.178C355.065 45.674 354.057 45.032 353.265 44.252C352.977 43.976 352.731 43.694 352.527 43.406C352.323 43.706 352.077 44.006 351.789 44.306C350.865 45.29 349.911 45.974 348.927 46.358L348.045 45.35C348.957 45.002 349.833 44.39 350.673 43.514C351.381 42.782 351.735 42.008 351.735 41.192V40.328ZM369.539 40.49H365.579V45.17H369.539V40.49ZM371.033 46.502H364.085V39.158H371.033V46.502ZM375.119 38.546V42.146H377.279V43.496H375.119V47.114H373.607V38.546H375.119ZM373.607 54.026V49.976H365.453V48.662H375.119V54.026H373.607ZM389.592 41.75C389.592 42.242 389.484 42.71 389.268 43.154C389.052 43.586 388.764 43.97 388.404 44.306C388.26 44.438 388.104 44.558 387.936 44.666H392.31V45.89H378.738V44.666H383.112C382.944 44.558 382.788 44.438 382.644 44.306C382.284 43.97 381.996 43.586 381.78 43.154C381.564 42.71 381.456 42.242 381.456 41.75C381.456 41.258 381.564 40.79 381.78 40.346C381.996 39.902 382.284 39.512 382.644 39.176C383.016 38.84 383.448 38.576 383.94 38.384C384.432 38.192 384.96 38.096 385.524 38.096C386.088 38.096 386.616 38.192 387.108 38.384C387.6 38.576 388.032 38.84 388.404 39.176C388.764 39.512 389.052 39.902 389.268 40.346C389.484 40.79 389.592 41.258 389.592 41.75ZM388.08 41.786C388.08 41.102 387.828 40.52 387.324 40.04C386.832 39.548 386.232 39.302 385.524 39.302C384.816 39.302 384.21 39.548 383.706 40.04C383.214 40.52 382.968 41.102 382.968 41.786C382.968 42.47 383.214 43.058 383.706 43.55C384.21 44.03 384.816 44.27 385.524 44.27C386.232 44.27 386.832 44.03 387.324 43.55C387.828 43.058 388.08 42.47 388.08 41.786ZM390.762 53.828H380.466V49.94H389.07V48.446H380.466V47.258H390.582V51.146H381.978V52.64H390.762V53.828ZM410.669 38.546V43.658H413.045V45.062H410.669V53.828H409.157V38.546H410.669ZM403.991 41.228C404.003 43.172 404.357 44.714 405.053 45.854C405.737 46.982 406.703 48.068 407.951 49.112L406.943 50.084C405.695 49.076 404.597 47.828 403.649 46.34C403.493 46.1 403.355 45.842 403.235 45.566C403.103 45.866 402.953 46.148 402.785 46.412C401.777 48.02 400.643 49.28 399.383 50.192L398.393 49.22C399.581 48.368 400.631 47.186 401.543 45.674C402.143 44.702 402.443 43.262 402.443 41.354V38.996H403.991V41.228ZM425.16 41.858C425.16 42.35 425.052 42.818 424.836 43.262C424.632 43.706 424.35 44.09 423.99 44.414C423.63 44.75 423.21 45.014 422.73 45.206C422.25 45.398 421.734 45.494 421.182 45.494C420.63 45.494 420.114 45.398 419.634 45.206C419.154 45.014 418.734 44.75 418.374 44.414C418.014 44.09 417.726 43.706 417.51 43.262C417.306 42.818 417.204 42.35 417.204 41.858C417.204 41.366 417.306 40.898 417.51 40.454C417.726 40.01 418.014 39.626 418.374 39.302C418.734 38.966 419.154 38.702 419.634 38.51C420.114 38.318 420.63 38.222 421.182 38.222C421.734 38.222 422.25 38.318 422.73 38.51C423.21 38.702 423.63 38.966 423.99 39.302C424.35 39.626 424.632 40.01 424.836 40.454C425.052 40.898 425.16 41.366 425.16 41.858ZM423.648 41.858C423.648 41.21 423.402 40.652 422.91 40.184C422.43 39.716 421.854 39.482 421.182 39.482C420.51 39.482 419.928 39.716 419.436 40.184C418.956 40.652 418.716 41.21 418.716 41.858C418.716 42.506 418.956 43.064 419.436 43.532C419.928 44 420.51 44.234 421.182 44.234C421.854 44.234 422.43 44 422.91 43.532C423.402 43.064 423.648 42.506 423.648 41.858ZM425.016 45.116V47.06H427.968V48.32H423.648C423.756 48.404 423.864 48.494 423.972 48.59C424.32 48.902 424.596 49.28 424.8 49.724C425.016 50.168 425.124 50.624 425.124 51.092C425.124 51.56 425.016 52.016 424.8 52.46C424.596 52.904 424.32 53.282 423.972 53.594C423.624 53.918 423.204 54.17 422.712 54.35C422.232 54.542 421.716 54.638 421.164 54.638C420.612 54.638 420.09 54.542 419.598 54.35C419.118 54.17 418.704 53.918 418.356 53.594C418.008 53.282 417.726 52.904 417.51 52.46C417.306 52.016 417.204 51.56 417.204 51.092C417.204 50.624 417.306 50.168 417.51 49.724C417.726 49.28 418.008 48.902 418.356 48.59C418.464 48.494 418.572 48.404 418.68 48.32H414.396V47.06H417.348V45.116H418.842V47.06H423.522V45.116H425.016ZM423.612 51.056C423.612 50.42 423.372 49.868 422.892 49.4C422.412 48.932 421.836 48.698 421.164 48.698C420.492 48.698 419.916 48.932 419.436 49.4C418.956 49.868 418.716 50.42 418.716 51.056C418.716 51.692 418.956 52.244 419.436 52.712C419.916 53.18 420.492 53.414 421.164 53.414C421.836 53.414 422.412 53.18 422.892 52.712C423.372 52.244 423.612 51.692 423.612 51.056ZM433.495 40.184V38.546H435.151V40.184H438.931V41.408H436.573C436.837 41.576 437.071 41.762 437.275 41.966C437.659 42.35 437.959 42.794 438.175 43.298C438.403 43.802 438.517 44.342 438.517 44.918C438.517 45.494 438.403 46.034 438.175 46.538C437.959 47.042 437.659 47.486 437.275 47.87C436.903 48.242 436.459 48.542 435.943 48.77C435.439 48.986 434.899 49.094 434.323 49.094C433.747 49.094 433.201 48.986 432.685 48.77C432.181 48.542 431.743 48.242 431.371 47.87C430.987 47.486 430.681 47.042 430.453 46.538C430.237 46.034 430.129 45.494 430.129 44.918C430.129 44.342 430.237 43.802 430.453 43.298C430.681 42.794 430.987 42.35 431.371 41.966C431.575 41.762 431.809 41.576 432.073 41.408H429.697V40.184H433.495ZM437.059 44.864C437.059 44.468 436.987 44.096 436.843 43.748C436.699 43.388 436.501 43.076 436.249 42.812C435.997 42.548 435.703 42.338 435.367 42.182C435.043 42.026 434.695 41.948 434.323 41.948C433.951 41.948 433.597 42.026 433.261 42.182C432.937 42.338 432.649 42.548 432.397 42.812C432.145 43.076 431.947 43.388 431.803 43.748C431.659 44.096 431.587 44.468 431.587 44.864C431.587 45.26 431.659 45.638 431.803 45.998C431.947 46.346 432.145 46.652 432.397 46.916C432.649 47.18 432.937 47.39 433.261 47.546C433.597 47.702 433.951 47.78 434.323 47.78C434.695 47.78 435.043 47.702 435.367 47.546C435.703 47.39 435.997 47.18 436.249 46.916C436.501 46.652 436.699 46.346 436.843 45.998C436.987 45.638 437.059 45.26 437.059 44.864ZM441.919 38.546V43.154H443.881V44.594H441.919V53.828H440.443V38.546H441.919ZM451.497 40.58H447.627V48.554H451.497V40.58ZM452.991 49.904H446.133V39.23H452.991V41.624H456.177V38.546H457.689V53.828H456.177V47.42H452.991V49.904ZM452.991 42.92V46.124H456.177V42.92H452.991ZM461.2 54.35C461.992 54.026 462.388 53.348 462.388 52.316H461.164V50.228H463.36V52.118C463.36 53.594 462.766 54.542 461.578 54.962L461.2 54.35ZM8.604 79.968V85.116H7.092V79.968H1.062V78.636H14.634V79.968H8.604ZM8.622 70.986C8.622 72.054 9.12 72.996 10.116 73.812C11.16 74.676 12.378 75.342 13.77 75.81L12.978 76.872C11.466 76.404 10.158 75.69 9.054 74.73C8.562 74.31 8.16 73.854 7.848 73.362C7.536 73.854 7.134 74.31 6.642 74.73C5.538 75.69 4.23 76.404 2.718 76.872L1.926 75.81C3.318 75.342 4.536 74.676 5.58 73.812C6.576 72.996 7.074 72.054 7.074 70.986V69.6H8.622V70.986ZM29.9713 81.858V83.19H16.3993V81.858H22.4293V78.078H23.9413V81.858H29.9713ZM23.9593 71.562C23.9593 72.906 24.4873 74.064 25.5433 75.036C26.6833 76.08 27.9373 76.806 29.3053 77.214L28.4773 78.294C26.7493 77.718 25.3033 76.812 24.1393 75.576C23.7553 75.18 23.4373 74.76 23.1853 74.316C22.9333 74.76 22.6153 75.18 22.2313 75.576C21.0673 76.812 19.6213 77.718 17.8933 78.294L17.0653 77.214C18.4213 76.806 19.6693 76.08 20.8093 75.036C21.8773 74.064 22.4113 72.906 22.4113 71.562V70.014H23.9593V71.562ZM40.3045 73.974C40.3045 74.502 40.1965 75.006 39.9805 75.486H42.7525V72.48H39.9985C40.2025 72.96 40.3045 73.458 40.3045 73.974ZM39.1165 76.746C39.1045 76.77 39.0865 76.788 39.0625 76.8C38.6665 77.172 38.2165 77.466 37.7125 77.682C37.2085 77.886 36.6625 77.988 36.0745 77.988C35.4865 77.988 34.9405 77.886 34.4365 77.682C33.9325 77.466 33.4825 77.172 33.0865 76.8C32.7025 76.44 32.3965 76.014 32.1685 75.522C31.9525 75.03 31.8445 74.514 31.8445 73.974C31.8445 73.434 31.9525 72.918 32.1685 72.426C32.3965 71.934 32.7025 71.508 33.0865 71.148C33.4825 70.776 33.9325 70.488 34.4365 70.284C34.9405 70.068 35.4865 69.96 36.0745 69.96C36.6625 69.96 37.2085 70.068 37.7125 70.284C38.2165 70.488 38.6665 70.776 39.0625 71.148L39.1345 71.22H42.7525V69.546H44.2645V80.616H42.7525V76.746H39.1165ZM38.7925 73.974C38.7925 73.602 38.7205 73.254 38.5765 72.93C38.4325 72.606 38.2345 72.324 37.9825 72.084C37.7425 71.832 37.4545 71.634 37.1185 71.49C36.7825 71.346 36.4345 71.274 36.0745 71.274C35.7145 71.274 35.3665 71.346 35.0305 71.49C34.6945 71.634 34.4065 71.832 34.1665 72.084C33.9145 72.324 33.7165 72.606 33.5725 72.93C33.4285 73.254 33.3565 73.602 33.3565 73.974C33.3565 74.346 33.4285 74.694 33.5725 75.018C33.7165 75.342 33.9145 75.63 34.1665 75.882C34.4065 76.122 34.6945 76.314 35.0305 76.458C35.3665 76.602 35.7145 76.674 36.0745 76.674C36.4345 76.674 36.7825 76.602 37.1185 76.458C37.4545 76.314 37.7425 76.122 37.9825 75.882C38.2345 75.63 38.4325 75.342 38.5765 75.018C38.7205 74.694 38.7925 74.346 38.7925 73.974ZM44.7325 84.828H34.9585V80.13H36.4885V83.478H44.7325V84.828ZM59.0078 79.05H57.0638V81.912H60.6458V83.19H47.0738V81.912H50.6558V79.05H48.8018V73.992H57.4058V71.562H48.8018V70.23H58.9178V75.288H50.3138V77.736H59.0078V79.05ZM55.5878 79.05H52.1318V81.912H55.5878V79.05ZM74.9391 69.546V80.616H73.4271V74.964H70.6011V73.632H73.4271V69.546H74.9391ZM75.4071 84.828H65.6331V80.274H67.1811V83.496H75.4071V84.828ZM66.0831 72.66V71.508H62.9151V70.158H70.9611V71.508H67.6311V72.75C67.6311 73.818 67.9911 74.754 68.7111 75.558C69.5631 76.518 70.4811 77.226 71.4651 77.682L70.6551 78.708C69.3951 78.072 68.3211 77.262 67.4331 76.278C67.2171 76.038 67.0311 75.792 66.8751 75.54C66.7071 75.84 66.5091 76.128 66.2811 76.404C65.4411 77.46 64.4451 78.3 63.2931 78.924L62.3391 77.952C63.3951 77.388 64.3371 76.59 65.1651 75.558C65.7771 74.79 66.0831 73.824 66.0831 72.66ZM88.7643 69.546H90.2763V84.828H88.7643V69.546ZM81.5823 73.182V71.58H78.2703V70.23H86.3343V71.58H83.1303V73.146C83.1183 74.646 83.4723 75.966 84.1923 77.106C84.8763 78.198 85.7823 79.224 86.9103 80.184L85.9923 81.12C84.8163 80.148 83.7543 78.936 82.8063 77.484C82.6503 77.244 82.5063 77.004 82.3743 76.764C82.2183 77.124 82.0263 77.472 81.7983 77.808C80.8143 79.308 79.7283 80.466 78.5403 81.282L77.5323 80.31C78.6603 79.554 79.6503 78.504 80.5023 77.16C81.2223 76.008 81.5823 74.682 81.5823 73.182ZM105.593 78.42H98.5733V69.996H100.049V72.534H104.117V69.996H105.593V78.42ZM104.117 77.106V73.83H100.049V77.106H104.117ZM109.787 69.546V73.686H111.947V75.054H109.787V80.616H108.275V69.546H109.787ZM110.237 84.828H100.481V80.364H102.047V83.478H110.237V84.828ZM124.225 72.93C124.225 73.434 124.117 73.914 123.901 74.37C123.685 74.814 123.397 75.204 123.037 75.54C122.677 75.876 122.251 76.146 121.759 76.35C121.267 76.542 120.745 76.638 120.193 76.638C119.641 76.638 119.119 76.542 118.627 76.35C118.135 76.146 117.709 75.876 117.349 75.54C116.989 75.204 116.701 74.814 116.485 74.37C116.269 73.914 116.161 73.434 116.161 72.93C116.161 72.426 116.269 71.952 116.485 71.508C116.701 71.052 116.989 70.656 117.349 70.32C117.709 69.984 118.135 69.72 118.627 69.528C119.119 69.324 119.641 69.222 120.193 69.222C120.745 69.222 121.267 69.324 121.759 69.528C122.251 69.72 122.677 69.984 123.037 70.32C123.397 70.656 123.685 71.052 123.901 71.508C124.117 71.952 124.225 72.426 124.225 72.93ZM122.713 72.93C122.713 72.258 122.467 71.682 121.975 71.202C121.483 70.722 120.889 70.482 120.193 70.482C119.497 70.482 118.903 70.722 118.411 71.202C117.919 71.682 117.673 72.258 117.673 72.93C117.673 73.602 117.919 74.178 118.411 74.658C118.903 75.138 119.497 75.378 120.193 75.378C120.889 75.378 121.483 75.138 121.975 74.658C122.467 74.178 122.713 73.602 122.713 72.93ZM126.979 77.844V79.122H122.641C122.785 79.218 122.917 79.326 123.037 79.446C123.397 79.77 123.679 80.154 123.883 80.598C124.099 81.042 124.207 81.51 124.207 82.002C124.207 82.494 124.099 82.962 123.883 83.406C123.679 83.85 123.397 84.234 123.037 84.558C122.677 84.894 122.251 85.158 121.759 85.35C121.267 85.542 120.745 85.638 120.193 85.638C119.641 85.638 119.119 85.542 118.627 85.35C118.135 85.158 117.709 84.894 117.349 84.558C116.989 84.234 116.701 83.85 116.485 83.406C116.281 82.962 116.179 82.494 116.179 82.002C116.179 81.51 116.281 81.042 116.485 80.598C116.701 80.154 116.989 79.77 117.349 79.446C117.469 79.326 117.601 79.218 117.745 79.122H113.407V77.844H126.979ZM122.695 81.966C122.695 81.294 122.449 80.724 121.957 80.256C121.465 79.776 120.877 79.536 120.193 79.536C119.509 79.536 118.921 79.776 118.429 80.256C117.937 80.724 117.691 81.294 117.691 81.966C117.691 82.638 117.937 83.214 118.429 83.694C118.921 84.162 119.509 84.396 120.193 84.396C120.877 84.396 121.465 84.162 121.957 83.694C122.449 83.214 122.695 82.638 122.695 81.966ZM137.978 73.992C137.978 74.52 137.87 75.024 137.654 75.504C137.438 75.984 137.144 76.398 136.772 76.746C136.388 77.106 135.95 77.394 135.458 77.61C134.966 77.814 134.438 77.916 133.874 77.916C133.31 77.916 132.782 77.814 132.29 77.61C131.798 77.394 131.36 77.106 130.976 76.746C130.604 76.398 130.31 75.984 130.094 75.504C129.878 75.024 129.77 74.52 129.77 73.992C129.77 73.464 129.878 72.96 130.094 72.48C130.31 72 130.604 71.586 130.976 71.238C131.36 70.878 131.798 70.596 132.29 70.392C132.782 70.176 133.31 70.068 133.874 70.068C134.438 70.068 134.966 70.176 135.458 70.392C135.95 70.596 136.388 70.878 136.772 71.238C137.144 71.586 137.438 72 137.654 72.48C137.87 72.96 137.978 73.464 137.978 73.992ZM136.484 73.992C136.484 73.62 136.412 73.278 136.268 72.966C136.124 72.642 135.932 72.366 135.692 72.138C135.464 71.898 135.194 71.706 134.882 71.562C134.57 71.418 134.234 71.346 133.874 71.346C133.514 71.346 133.178 71.418 132.866 71.562C132.554 71.706 132.278 71.898 132.038 72.138C131.81 72.366 131.624 72.642 131.48 72.966C131.336 73.278 131.264 73.62 131.264 73.992C131.264 74.364 131.336 74.712 131.48 75.036C131.624 75.348 131.81 75.624 132.038 75.864C132.278 76.092 132.554 76.278 132.866 76.422C133.178 76.566 133.514 76.638 133.874 76.638C134.234 76.638 134.57 76.566 134.882 76.422C135.194 76.278 135.464 76.092 135.692 75.864C135.932 75.624 136.124 75.348 136.268 75.036C136.412 74.712 136.484 74.364 136.484 73.992ZM141.488 69.546V84.828H139.958V81.39C138.662 81.582 136.946 81.678 134.81 81.678H128.798V80.346H134.792C136.88 80.346 138.602 80.262 139.958 80.094V69.546H141.488ZM157.417 73.812C157.417 74.316 157.321 74.79 157.129 75.234H160.081V72.372H157.129C157.321 72.828 157.417 73.308 157.417 73.812ZM156.319 76.44L156.211 76.548C155.827 76.908 155.383 77.196 154.879 77.412C154.387 77.616 153.859 77.718 153.295 77.718C152.731 77.718 152.197 77.616 151.693 77.412C151.201 77.196 150.763 76.908 150.379 76.548C150.007 76.2 149.713 75.792 149.497 75.324C149.281 74.844 149.173 74.34 149.173 73.812C149.173 73.284 149.281 72.786 149.497 72.318C149.713 71.838 150.007 71.424 150.379 71.076C150.763 70.716 151.201 70.434 151.693 70.23C152.197 70.014 152.731 69.906 153.295 69.906C153.859 69.906 154.387 70.014 154.879 70.23C155.383 70.434 155.827 70.716 156.211 71.076L156.319 71.184H160.081V69.546H161.593V78.348H160.081V76.44H156.319ZM155.905 73.812C155.905 73.452 155.833 73.116 155.689 72.804C155.545 72.492 155.353 72.222 155.113 71.994C154.885 71.754 154.615 71.562 154.303 71.418C153.991 71.274 153.655 71.202 153.295 71.202C152.935 71.202 152.599 71.274 152.287 71.418C151.975 71.562 151.699 71.754 151.459 71.994C151.231 72.222 151.045 72.492 150.901 72.804C150.757 73.116 150.685 73.452 150.685 73.812C150.685 74.172 150.757 74.508 150.901 74.82C151.045 75.132 151.231 75.408 151.459 75.648C151.699 75.876 151.975 76.062 152.287 76.206C152.599 76.35 152.935 76.422 153.295 76.422C153.655 76.422 153.991 76.35 154.303 76.206C154.615 76.062 154.885 75.876 155.113 75.648C155.353 75.408 155.545 75.132 155.689 74.82C155.833 74.508 155.905 74.172 155.905 73.812ZM160.081 85.026V80.976H151.927V79.662H161.593V85.026H160.081ZM171.926 78.42H164.906V69.996H166.382V72.534H170.45V69.996H171.926V78.42ZM170.45 77.106V73.83H166.382V77.106H170.45ZM176.12 69.546V73.686H178.28V75.054H176.12V80.616H174.608V69.546H176.12ZM176.57 84.828H166.814V80.364H168.38V83.478H176.57V84.828ZM190.557 72.93C190.557 73.434 190.449 73.914 190.233 74.37C190.017 74.814 189.729 75.204 189.369 75.54C189.009 75.876 188.583 76.146 188.091 76.35C187.599 76.542 187.077 76.638 186.525 76.638C185.973 76.638 185.451 76.542 184.959 76.35C184.467 76.146 184.041 75.876 183.681 75.54C183.321 75.204 183.033 74.814 182.817 74.37C182.601 73.914 182.493 73.434 182.493 72.93C182.493 72.426 182.601 71.952 182.817 71.508C183.033 71.052 183.321 70.656 183.681 70.32C184.041 69.984 184.467 69.72 184.959 69.528C185.451 69.324 185.973 69.222 186.525 69.222C187.077 69.222 187.599 69.324 188.091 69.528C188.583 69.72 189.009 69.984 189.369 70.32C189.729 70.656 190.017 71.052 190.233 71.508C190.449 71.952 190.557 72.426 190.557 72.93ZM189.045 72.93C189.045 72.258 188.799 71.682 188.307 71.202C187.815 70.722 187.221 70.482 186.525 70.482C185.829 70.482 185.235 70.722 184.743 71.202C184.251 71.682 184.005 72.258 184.005 72.93C184.005 73.602 184.251 74.178 184.743 74.658C185.235 75.138 185.829 75.378 186.525 75.378C187.221 75.378 187.815 75.138 188.307 74.658C188.799 74.178 189.045 73.602 189.045 72.93ZM193.311 77.844V79.122H188.973C189.117 79.218 189.249 79.326 189.369 79.446C189.729 79.77 190.011 80.154 190.215 80.598C190.431 81.042 190.539 81.51 190.539 82.002C190.539 82.494 190.431 82.962 190.215 83.406C190.011 83.85 189.729 84.234 189.369 84.558C189.009 84.894 188.583 85.158 188.091 85.35C187.599 85.542 187.077 85.638 186.525 85.638C185.973 85.638 185.451 85.542 184.959 85.35C184.467 85.158 184.041 84.894 183.681 84.558C183.321 84.234 183.033 83.85 182.817 83.406C182.613 82.962 182.511 82.494 182.511 82.002C182.511 81.51 182.613 81.042 182.817 80.598C183.033 80.154 183.321 79.77 183.681 79.446C183.801 79.326 183.933 79.218 184.077 79.122H179.739V77.844H193.311ZM189.027 81.966C189.027 81.294 188.781 80.724 188.289 80.256C187.797 79.776 187.209 79.536 186.525 79.536C185.841 79.536 185.253 79.776 184.761 80.256C184.269 80.724 184.023 81.294 184.023 81.966C184.023 82.638 184.269 83.214 184.761 83.694C185.253 84.162 185.841 84.396 186.525 84.396C187.209 84.396 187.797 84.162 188.289 83.694C188.781 83.214 189.027 82.638 189.027 81.966ZM206.615 74.496C206.615 75.108 206.489 75.684 206.237 76.224C205.985 76.764 205.649 77.238 205.229 77.646C204.785 78.054 204.275 78.378 203.699 78.618C203.135 78.846 202.523 78.96 201.863 78.96C201.203 78.96 200.585 78.846 200.009 78.618C199.445 78.378 198.941 78.054 198.497 77.646C198.077 77.238 197.741 76.764 197.489 76.224C197.237 75.684 197.111 75.108 197.111 74.496C197.111 73.884 197.237 73.308 197.489 72.768C197.741 72.228 198.077 71.754 198.497 71.346C198.941 70.938 199.445 70.62 200.009 70.392C200.585 70.152 201.203 70.032 201.863 70.032C202.523 70.032 203.135 70.152 203.699 70.392C204.275 70.62 204.785 70.938 205.229 71.346C205.649 71.754 205.985 72.228 206.237 72.768C206.489 73.308 206.615 73.884 206.615 74.496ZM205.085 74.496C205.085 74.064 204.995 73.662 204.815 73.29C204.647 72.906 204.419 72.57 204.131 72.282C203.843 72.006 203.501 71.784 203.105 71.616C202.709 71.448 202.295 71.364 201.863 71.364C201.431 71.364 201.017 71.448 200.621 71.616C200.225 71.784 199.883 72.006 199.595 72.282C199.307 72.57 199.073 72.906 198.893 73.29C198.725 73.662 198.641 74.064 198.641 74.496C198.641 74.928 198.725 75.336 198.893 75.72C199.073 76.092 199.307 76.422 199.595 76.71C199.883 76.986 200.225 77.208 200.621 77.376C201.017 77.544 201.431 77.628 201.863 77.628C202.295 77.628 202.709 77.544 203.105 77.376C203.501 77.208 203.843 76.986 204.131 76.71C204.419 76.422 204.647 76.092 204.815 75.72C204.995 75.336 205.085 74.928 205.085 74.496ZM208.649 81.552V82.884H195.077V81.552H208.649ZM222.348 79.05H217.956V81.894H223.986V83.19H210.414V81.894H216.444V79.05H212.142V73.992H220.746V71.562H212.142V70.23H222.258V75.288H213.654V77.736H222.348V79.05ZM238.277 79.968V85.116H236.765V79.968H230.735V78.636H244.307V79.968H238.277ZM238.295 70.986C238.295 72.054 238.793 72.996 239.789 73.812C240.833 74.676 242.051 75.342 243.443 75.81L242.651 76.872C241.139 76.404 239.831 75.69 238.727 74.73C238.235 74.31 237.833 73.854 237.521 73.362C237.209 73.854 236.807 74.31 236.315 74.73C235.211 75.69 233.903 76.404 232.391 76.872L231.599 75.81C232.991 75.342 234.209 74.676 235.253 73.812C236.249 72.996 236.747 72.054 236.747 70.986V69.6H238.295V70.986ZM259.644 81.858V83.19H246.072V81.858H252.102V78.078H253.614V81.858H259.644ZM253.632 71.562C253.632 72.906 254.16 74.064 255.216 75.036C256.356 76.08 257.61 76.806 258.978 77.214L258.15 78.294C256.422 77.718 254.976 76.812 253.812 75.576C253.428 75.18 253.11 74.76 252.858 74.316C252.606 74.76 252.288 75.18 251.904 75.576C250.74 76.812 249.294 77.718 247.566 78.294L246.738 77.214C248.094 76.806 249.342 76.08 250.482 75.036C251.55 74.064 252.084 72.906 252.084 71.562V70.014H253.632V71.562ZM273.326 75.54H263.138V72.102H271.742V70.914H263.138V69.78H273.254V73.2H264.65V74.406H273.326V75.54ZM261.41 76.728H274.982V77.916H261.41V76.728ZM273.434 84.828H263.138V81.39H271.742V80.238H263.138V79.104H273.254V82.524H264.65V83.694H273.434V84.828ZM293.251 74.622H291.127V78.384C291.415 78.432 291.691 78.51 291.955 78.618C292.435 78.81 292.855 79.074 293.215 79.41C293.575 79.746 293.857 80.136 294.061 80.58C294.277 81.012 294.385 81.48 294.385 81.984C294.385 82.488 294.277 82.962 294.061 83.406C293.857 83.838 293.575 84.222 293.215 84.558C292.855 84.894 292.429 85.158 291.937 85.35C291.457 85.542 290.941 85.638 290.389 85.638C289.837 85.638 289.315 85.542 288.823 85.35C288.343 85.158 287.923 84.894 287.563 84.558C287.203 84.222 286.915 83.838 286.699 83.406C286.495 82.962 286.393 82.488 286.393 81.984C286.393 81.48 286.495 81.012 286.699 80.58C286.915 80.136 287.203 79.746 287.563 79.41C287.923 79.074 288.349 78.81 288.841 78.618C289.105 78.51 289.381 78.432 289.669 78.384V69.546H291.127V73.308H293.251V69.546H294.727V78.51H293.251V74.622ZM292.873 81.984C292.873 81.66 292.807 81.354 292.675 81.066C292.543 80.778 292.363 80.526 292.135 80.31C291.907 80.094 291.643 79.926 291.343 79.806C291.043 79.674 290.725 79.608 290.389 79.608C290.053 79.608 289.735 79.674 289.435 79.806C289.135 79.926 288.871 80.094 288.643 80.31C288.415 80.526 288.235 80.778 288.103 81.066C287.971 81.354 287.905 81.66 287.905 81.984C287.905 82.308 287.971 82.614 288.103 82.902C288.235 83.19 288.415 83.442 288.643 83.658C288.871 83.874 289.135 84.042 289.435 84.162C289.735 84.294 290.053 84.36 290.389 84.36C290.725 84.36 291.043 84.294 291.343 84.162C291.643 84.042 291.907 83.874 292.135 83.658C292.363 83.442 292.543 83.19 292.675 82.902C292.807 82.614 292.873 82.308 292.873 81.984ZM285.853 71.634C285.853 72.978 286.129 74.094 286.681 74.982C287.269 75.858 287.923 76.596 288.643 77.196L287.689 78.096C286.897 77.436 286.177 76.638 285.529 75.702C285.385 75.486 285.253 75.252 285.133 75C285.001 75.264 284.857 75.51 284.701 75.738C283.909 76.926 283.099 77.826 282.271 78.438L281.245 77.502C282.073 76.902 282.829 76.05 283.513 74.946C284.101 74.022 284.395 72.912 284.395 71.616V69.942H285.853V71.634ZM308.786 69.546V73.686H310.946V75.054H308.786V80.616H307.274V69.546H308.786ZM309.236 84.828H299.48V80.184H301.028V83.478H309.236V84.828ZM302 71.382C302 72.906 302.348 74.154 303.044 75.126C303.836 76.218 304.742 77.088 305.762 77.736L304.862 78.744C303.818 78.096 302.81 77.142 301.838 75.882C301.598 75.57 301.388 75.24 301.208 74.892C301.028 75.264 300.818 75.624 300.578 75.972C299.654 77.292 298.658 78.294 297.59 78.978L296.582 77.988C297.638 77.352 298.574 76.434 299.39 75.234C300.098 74.202 300.452 72.918 300.452 71.382V69.942H302V71.382ZM316.167 71.184V69.546H317.823V71.184H321.603V72.408H319.245C319.509 72.576 319.743 72.762 319.947 72.966C320.331 73.35 320.631 73.794 320.847 74.298C321.075 74.802 321.189 75.342 321.189 75.918C321.189 76.494 321.075 77.034 320.847 77.538C320.631 78.042 320.331 78.486 319.947 78.87C319.575 79.242 319.131 79.542 318.615 79.77C318.111 79.986 317.571 80.094 316.995 80.094C316.419 80.094 315.873 79.986 315.357 79.77C314.853 79.542 314.415 79.242 314.043 78.87C313.659 78.486 313.353 78.042 313.125 77.538C312.909 77.034 312.801 76.494 312.801 75.918C312.801 75.342 312.909 74.802 313.125 74.298C313.353 73.794 313.659 73.35 314.043 72.966C314.247 72.762 314.481 72.576 314.745 72.408H312.369V71.184H316.167ZM319.731 75.864C319.731 75.468 319.659 75.096 319.515 74.748C319.371 74.388 319.173 74.076 318.921 73.812C318.669 73.548 318.375 73.338 318.039 73.182C317.715 73.026 317.367 72.948 316.995 72.948C316.623 72.948 316.269 73.026 315.933 73.182C315.609 73.338 315.321 73.548 315.069 73.812C314.817 74.076 314.619 74.388 314.475 74.748C314.331 75.096 314.259 75.468 314.259 75.864C314.259 76.26 314.331 76.638 314.475 76.998C314.619 77.346 314.817 77.652 315.069 77.916C315.321 78.18 315.609 78.39 315.933 78.546C316.269 78.702 316.623 78.78 316.995 78.78C317.367 78.78 317.715 78.702 318.039 78.546C318.375 78.39 318.669 78.18 318.921 77.916C319.173 77.652 319.371 77.346 319.515 76.998C319.659 76.638 319.731 76.26 319.731 75.864ZM324.591 69.546V74.154H326.553V75.594H324.591V84.828H323.115V69.546H324.591ZM338.758 69.546H340.27V84.828H338.758V69.546ZM335.608 70.248C335.608 72.78 334.936 75.03 333.592 76.998C332.416 78.774 330.886 80.262 329.002 81.462L327.976 80.4C329.752 79.332 331.18 77.982 332.26 76.35C333.292 74.862 333.844 73.272 333.916 71.58H328.696V70.248H335.608ZM350.514 75.234C350.454 75.534 350.37 75.816 350.262 76.08C350.046 76.572 349.758 76.998 349.398 77.358C349.014 77.73 348.576 78.024 348.084 78.24C347.604 78.456 347.088 78.564 346.536 78.564C345.984 78.564 345.462 78.456 344.97 78.24C344.49 78.024 344.058 77.73 343.674 77.358C343.314 76.998 343.026 76.578 342.81 76.098C342.606 75.606 342.504 75.078 342.504 74.514C342.504 73.95 342.606 73.428 342.81 72.948C343.026 72.456 343.314 72.03 343.674 71.67C344.058 71.298 344.49 71.004 344.97 70.788C345.462 70.572 345.984 70.464 346.536 70.464C347.088 70.464 347.604 70.572 348.084 70.788C348.576 71.004 349.014 71.298 349.398 71.67C349.758 72.03 350.046 72.45 350.262 72.93C350.37 73.206 350.454 73.494 350.514 73.794H352.08V69.546H353.484V84.828H352.08V75.234H350.514ZM349.146 74.514C349.146 74.154 349.08 73.806 348.948 73.47C348.816 73.134 348.636 72.846 348.408 72.606C348.168 72.354 347.886 72.156 347.562 72.012C347.25 71.856 346.908 71.778 346.536 71.778C346.164 71.778 345.822 71.856 345.51 72.012C345.198 72.156 344.922 72.354 344.682 72.606C344.454 72.846 344.268 73.134 344.124 73.47C343.992 73.806 343.926 74.154 343.926 74.514C343.926 74.874 343.992 75.222 344.124 75.558C344.268 75.894 344.454 76.182 344.682 76.422C344.922 76.674 345.198 76.878 345.51 77.034C345.822 77.178 346.164 77.25 346.536 77.25C346.908 77.25 347.25 77.178 347.562 77.034C347.886 76.878 348.168 76.674 348.408 76.422C348.636 76.182 348.816 75.894 348.948 75.558C349.08 75.222 349.146 74.874 349.146 74.514ZM355.122 69.546H356.562V84.828H355.122V69.546ZM365.129 69.762H366.641V73.542H375.479V74.82H370.943V76.764H376.973V78.042H363.401V76.764H369.431V74.82H365.129V69.762ZM368.153 80.85V83.586H372.203V80.85H368.153ZM366.677 83.586V80.85H365.003V79.608H375.371V80.85H373.679V83.586H375.623V84.828H364.751V83.586H366.677ZM390.042 73.488C390.042 74.064 389.922 74.604 389.682 75.108C389.442 75.612 389.112 76.05 388.692 76.422C388.452 76.662 388.182 76.866 387.882 77.034H392.31V78.366H378.738V77.034H383.166C382.866 76.866 382.59 76.662 382.338 76.422C381.93 76.05 381.606 75.612 381.366 75.108C381.126 74.604 381.006 74.064 381.006 73.488C381.006 72.912 381.126 72.372 381.366 71.868C381.606 71.364 381.93 70.926 382.338 70.554C382.746 70.17 383.22 69.87 383.76 69.654C384.312 69.426 384.9 69.312 385.524 69.312C386.136 69.312 386.718 69.426 387.27 69.654C387.822 69.87 388.296 70.17 388.692 70.554C389.112 70.926 389.442 71.364 389.682 71.868C389.922 72.372 390.042 72.912 390.042 73.488ZM388.53 73.578C388.53 73.182 388.446 72.81 388.278 72.462C388.122 72.102 387.912 71.79 387.648 71.526C387.372 71.262 387.054 71.052 386.694 70.896C386.334 70.74 385.944 70.662 385.524 70.662C385.104 70.662 384.714 70.74 384.354 70.896C383.994 71.052 383.676 71.262 383.4 71.526C383.136 71.79 382.92 72.102 382.752 72.462C382.596 72.81 382.518 73.182 382.518 73.578C382.518 73.974 382.596 74.352 382.752 74.712C382.92 75.06 383.136 75.366 383.4 75.63C383.676 75.894 383.994 76.104 384.354 76.26C384.714 76.416 385.104 76.494 385.524 76.494C385.944 76.494 386.334 76.416 386.694 76.26C387.054 76.104 387.372 75.894 387.648 75.63C387.912 75.366 388.122 75.06 388.278 74.712C388.446 74.352 388.53 73.974 388.53 73.578ZM390.852 84.828H380.556V80.346H382.104V83.46H390.852V84.828ZM410.075 69.546H411.587V84.828H410.075V69.546ZM406.925 70.248C406.925 72.78 406.253 75.03 404.909 76.998C403.733 78.774 402.203 80.262 400.319 81.462L399.293 80.4C401.069 79.332 402.497 77.982 403.577 76.35C404.609 74.862 405.161 73.272 405.233 71.58H400.013V70.248H406.925ZM414.396 75.936H427.968V77.16H421.956V78.672H426.24V82.362H417.636V83.604H426.42V84.828H416.124V81.138H424.728V79.896H416.124V78.672H420.408V77.16H414.396V75.936ZM421.938 70.338C421.938 71.034 422.532 71.802 423.72 72.642C424.608 73.242 425.748 73.68 427.14 73.956L426.474 75.054C424.962 74.742 423.636 74.196 422.496 73.416C421.944 73.032 421.506 72.636 421.182 72.228C420.858 72.636 420.42 73.032 419.868 73.416C418.728 74.196 417.402 74.742 415.89 75.054L415.224 73.956C416.616 73.68 417.756 73.242 418.644 72.642C419.832 71.802 420.426 71.034 420.426 70.338V69.474H421.938V70.338ZM443.285 73.974C443.285 74.502 443.177 75.006 442.961 75.486H445.733V72.48H442.979C443.183 72.96 443.285 73.458 443.285 73.974ZM442.097 76.746C442.085 76.77 442.067 76.788 442.043 76.8C441.647 77.172 441.197 77.466 440.693 77.682C440.189 77.886 439.643 77.988 439.055 77.988C438.467 77.988 437.921 77.886 437.417 77.682C436.913 77.466 436.463 77.172 436.067 76.8C435.683 76.44 435.377 76.014 435.149 75.522C434.933 75.03 434.825 74.514 434.825 73.974C434.825 73.434 434.933 72.918 435.149 72.426C435.377 71.934 435.683 71.508 436.067 71.148C436.463 70.776 436.913 70.488 437.417 70.284C437.921 70.068 438.467 69.96 439.055 69.96C439.643 69.96 440.189 70.068 440.693 70.284C441.197 70.488 441.647 70.776 442.043 71.148L442.115 71.22H445.733V69.546H447.245V80.616H445.733V76.746H442.097ZM441.773 73.974C441.773 73.602 441.701 73.254 441.557 72.93C441.413 72.606 441.215 72.324 440.963 72.084C440.723 71.832 440.435 71.634 440.099 71.49C439.763 71.346 439.415 71.274 439.055 71.274C438.695 71.274 438.347 71.346 438.011 71.49C437.675 71.634 437.387 71.832 437.147 72.084C436.895 72.324 436.697 72.606 436.553 72.93C436.409 73.254 436.337 73.602 436.337 73.974C436.337 74.346 436.409 74.694 436.553 75.018C436.697 75.342 436.895 75.63 437.147 75.882C437.387 76.122 437.675 76.314 438.011 76.458C438.347 76.602 438.695 76.674 439.055 76.674C439.415 76.674 439.763 76.602 440.099 76.458C440.435 76.314 440.723 76.122 440.963 75.882C441.215 75.63 441.413 75.342 441.557 75.018C441.701 74.694 441.773 74.346 441.773 73.974ZM447.713 84.828H437.939V80.13H439.469V83.478H447.713V84.828ZM461.61 69.546H463.05V84.828H461.61V69.546ZM456.354 70.248C456.354 71.004 456.312 71.724 456.228 72.408H458.46V69.546H459.882V84.828H458.46V78.114H455.958V76.764H458.46V73.758H455.994C455.718 74.958 455.298 76.044 454.734 77.016C453.606 78.948 452.34 80.454 450.936 81.534L449.838 80.598C451.17 79.59 452.364 78.186 453.42 76.386C454.272 74.946 454.704 73.344 454.716 71.58H450.576V70.248H456.354ZM477.92 69.546V78.168H476.408V73.938H473.294V72.642H476.408V69.546H477.92ZM477.614 82.056C477.614 82.536 477.506 82.998 477.29 83.442C477.086 83.874 476.81 84.252 476.462 84.576C476.102 84.9 475.682 85.158 475.202 85.35C474.722 85.542 474.206 85.638 473.654 85.638C473.102 85.638 472.586 85.542 472.106 85.35C471.626 85.158 471.206 84.9 470.846 84.576C470.498 84.252 470.216 83.874 470 83.442C469.796 82.998 469.694 82.536 469.694 82.056C469.694 81.576 469.796 81.12 470 80.688C470.216 80.244 470.498 79.86 470.846 79.536C471.206 79.212 471.626 78.954 472.106 78.762C472.586 78.57 473.102 78.474 473.654 78.474C474.206 78.474 474.722 78.57 475.202 78.762C475.682 78.954 476.102 79.212 476.462 79.536C476.81 79.86 477.086 80.244 477.29 80.688C477.506 81.12 477.614 81.576 477.614 82.056ZM476.102 82.056C476.102 81.42 475.862 80.88 475.382 80.436C474.902 79.98 474.326 79.752 473.654 79.752C472.982 79.752 472.406 79.98 471.926 80.436C471.446 80.88 471.206 81.42 471.206 82.056C471.206 82.692 471.446 83.238 471.926 83.694C472.406 84.138 472.982 84.36 473.654 84.36C474.326 84.36 474.902 84.138 475.382 83.694C475.862 83.238 476.102 82.692 476.102 82.056ZM470.576 71.256C470.576 72.468 470.924 73.506 471.62 74.37C472.316 75.198 473.174 75.9 474.194 76.476L473.33 77.556C472.25 77.004 471.266 76.188 470.378 75.108C470.198 74.892 470.036 74.664 469.892 74.424C469.712 74.784 469.496 75.126 469.244 75.45C468.344 76.65 467.354 77.55 466.274 78.15L465.32 77.142C466.352 76.578 467.258 75.768 468.038 74.712C468.698 73.812 469.028 72.66 469.028 71.256V69.942H470.576V71.256ZM491.583 72.75C491.583 73.242 491.475 73.71 491.259 74.154C491.043 74.586 490.755 74.97 490.395 75.306C490.251 75.438 490.095 75.558 489.927 75.666H494.301V76.89H480.729V75.666H485.103C484.935 75.558 484.779 75.438 484.635 75.306C484.275 74.97 483.987 74.586 483.771 74.154C483.555 73.71 483.447 73.242 483.447 72.75C483.447 72.258 483.555 71.79 483.771 71.346C483.987 70.902 484.275 70.512 484.635 70.176C485.007 69.84 485.439 69.576 485.931 69.384C486.423 69.192 486.951 69.096 487.515 69.096C488.079 69.096 488.607 69.192 489.099 69.384C489.591 69.576 490.023 69.84 490.395 70.176C490.755 70.512 491.043 70.902 491.259 71.346C491.475 71.79 491.583 72.258 491.583 72.75ZM490.071 72.786C490.071 72.102 489.819 71.52 489.315 71.04C488.823 70.548 488.223 70.302 487.515 70.302C486.807 70.302 486.201 70.548 485.697 71.04C485.205 71.52 484.959 72.102 484.959 72.786C484.959 73.47 485.205 74.058 485.697 74.55C486.201 75.03 486.807 75.27 487.515 75.27C488.223 75.27 488.823 75.03 489.315 74.55C489.819 74.058 490.071 73.47 490.071 72.786ZM492.753 84.828H482.457V80.94H491.061V79.446H482.457V78.258H492.573V82.146H483.969V83.64H492.753V84.828ZM12.78 100.546V103.984H14.94V105.262H12.78V108.628H11.268V100.546H12.78ZM8.514 101.176C8.514 103.288 7.758 105.034 6.246 106.414C4.89 107.65 3.366 108.46 1.674 108.844L0.954 107.818C2.538 107.398 3.846 106.732 4.878 105.82C6.102 104.74 6.75 103.618 6.822 102.454H1.908V101.176H8.514ZM8.784 111.454V111.778C8.784 112.498 9.372 113.194 10.548 113.866C11.376 114.346 12.42 114.712 13.68 114.964L13.014 116.08C11.658 115.876 10.374 115.378 9.162 114.586C8.682 114.262 8.286 113.932 7.974 113.596C7.662 113.932 7.266 114.262 6.786 114.586C5.574 115.378 4.284 115.876 2.916 116.08L2.268 114.964C3.528 114.712 4.572 114.346 5.4 113.866C6.576 113.194 7.164 112.498 7.164 111.778V111.454H2.88V110.14H13.05V111.454H8.784ZM28.2253 101.374V104.866C28.2253 106.978 28.0153 108.934 27.5953 110.734H26.1373C26.5213 108.97 26.7133 107.146 26.7133 105.262V102.706H17.9293V101.374H28.2253ZM29.9713 112.75V114.082H16.3993V112.75H21.0433V106.774H22.5553V112.75H29.9713ZM44.9283 104.686C44.9283 105.202 44.8203 105.694 44.6043 106.162C44.3883 106.618 44.1003 107.014 43.7403 107.35C43.3683 107.698 42.9363 107.974 42.4443 108.178C41.9643 108.37 41.4423 108.466 40.8783 108.466C40.3143 108.466 39.7863 108.37 39.2943 108.178C38.8143 107.974 38.3883 107.698 38.0163 107.35C37.6563 107.014 37.3683 106.618 37.1523 106.162C36.9363 105.694 36.8283 105.202 36.8283 104.686C36.8283 104.17 36.9363 103.684 37.1523 103.228C37.3683 102.76 37.6563 102.358 38.0163 102.022C38.3883 101.674 38.8143 101.404 39.2943 101.212C39.7863 101.008 40.3143 100.906 40.8783 100.906C41.4423 100.906 41.9643 101.008 42.4443 101.212C42.9363 101.404 43.3683 101.674 43.7403 102.022C44.1003 102.358 44.3883 102.76 44.6043 103.228C44.8203 103.684 44.9283 104.17 44.9283 104.686ZM43.4163 104.686C43.4163 104.002 43.1643 103.414 42.6603 102.922C42.1683 102.43 41.5743 102.184 40.8783 102.184C40.1823 102.184 39.5823 102.43 39.0783 102.922C38.5863 103.414 38.3403 104.002 38.3403 104.686C38.3403 105.37 38.5863 105.958 39.0783 106.45C39.5823 106.942 40.1823 107.188 40.8783 107.188C41.5743 107.188 42.1683 106.942 42.6603 106.45C43.1643 105.958 43.4163 105.37 43.4163 104.686ZM49.2483 100.546V108.862H47.7363V100.546H49.2483ZM46.4943 110.158H47.9163V111.058C47.9163 111.742 48.2103 112.498 48.7983 113.326C49.4103 114.094 50.0643 114.718 50.7603 115.198L49.8423 116.116C48.9543 115.468 48.1743 114.694 47.5023 113.794C47.3943 113.626 47.2923 113.458 47.1963 113.29C47.1003 113.458 46.9923 113.626 46.8723 113.794C46.2003 114.706 45.3963 115.474 44.4603 116.098C43.5123 115.474 42.7023 114.706 42.0303 113.794C41.9103 113.626 41.8023 113.458 41.7063 113.29C41.6103 113.458 41.5083 113.626 41.4003 113.794C40.7283 114.694 39.9483 115.468 39.0603 116.116L38.1423 115.198C38.8383 114.718 39.4923 114.094 40.1043 113.326C40.6923 112.498 40.9863 111.742 40.9863 111.058V110.158H42.4083V111.058C42.4083 111.766 42.7083 112.498 43.3083 113.254C43.6683 113.698 44.0523 114.1 44.4603 114.46C44.8563 114.1 45.2343 113.698 45.5943 113.254C46.1943 112.498 46.4943 111.766 46.4943 111.058V110.158ZM65.6295 107.782V109.042H52.0575V107.782H65.6295ZM63.9015 115.828H53.7855V110.248H55.2975V111.508H62.3895V110.248H63.9015V115.828ZM62.3895 114.658V112.66H55.2975V114.658H62.3895ZM59.6175 101.392C59.6175 102.412 60.1815 103.288 61.3095 104.02C62.4255 104.74 63.5835 105.196 64.7835 105.388L64.1535 106.504C62.7735 106.3 61.4475 105.766 60.1755 104.902C59.6235 104.518 59.1795 104.104 58.8435 103.66C58.5075 104.104 58.0635 104.518 57.5115 104.902C56.2395 105.754 54.9135 106.288 53.5335 106.504L52.9035 105.388C54.1035 105.196 55.2615 104.74 56.3775 104.02C57.5055 103.288 58.0695 102.412 58.0695 101.392V100.528H59.6175V101.392ZM68.6728 111.562V101.158H70.1848V110.194H73.1368C75.1768 110.194 76.9348 110.068 78.4108 109.816V100.546H79.9228V115.828H78.4108V111.202C77.0068 111.442 75.2608 111.562 73.1728 111.562H68.6728ZM83.6861 111.832V101.23H90.2381V102.598H85.1981V110.464H87.2501C89.1941 110.464 91.0541 110.29 92.8301 109.942V100.546H94.3421V105.658H96.7181V107.062H94.3421V115.828H92.8301V111.31C91.1501 111.658 89.3321 111.832 87.3761 111.832H83.6861ZM98.8253 114.352V112.228H101.021V114.352H98.8253Z" fill="black"/>
</svg>
