<svg width="315" height="61" viewBox="0 0 315 61" fill="none" xmlns="http://www.w3.org/2000/svg">
<path d="M0 4.91406H14.1445C18.793 4.91406 22.4232 5.46745 25.0352 6.57422C26.7174 7.32682 28.1784 8.34505 29.418 9.62891C31.8529 12.3294 33.0703 15.6276 33.0703 19.5234C33.0703 23.4193 31.8529 26.6953 29.418 29.3516C28.1784 30.6797 26.7174 31.6979 25.0352 32.4062C22.556 33.513 18.9258 34.0664 14.1445 34.0664H7.37109V51.0664H0V4.91406ZM7.37109 27.4258H16.0039C19.1029 27.4258 21.5156 26.651 23.2422 25.1016C24.8359 23.6406 25.6328 21.7812 25.6328 19.5234C25.6328 17.2214 24.8359 15.3398 23.2422 13.8789C21.5156 12.3294 19.1029 11.5547 16.0039 11.5547H7.37109V27.4258ZM46.9678 44.4258H69.6787V51.0664H39.5967V4.91406H69.1475V11.5547H46.9678V24.2383H67.0889V30.8125H46.9678V44.4258ZM102.303 51.0664H97.3223L83.5098 16.2695V51.0664H76.6036V4.91406H85.5684L99.8458 39.7773L114.057 4.91406H123.022V51.0664H116.049V16.2695L102.303 51.0664ZM178.11 41.0391V60.4297H170.738V41.0391H147.961V34.332H200.887V41.0391H178.11ZM178.176 5.71094C178.176 9.8724 179.969 13.4362 183.555 16.4023C187.406 19.5456 192.254 22.1133 198.098 24.1055L194.113 29.3516C187.916 27.4479 182.692 24.6367 178.442 20.918C176.848 19.5898 175.498 18.1732 174.391 16.668C173.328 18.1732 172 19.5898 170.406 20.918C166.156 24.6367 160.932 27.4479 154.735 29.3516L150.75 24.1055C156.594 22.1133 161.442 19.5456 165.293 16.4023C168.879 13.4362 170.672 9.8724 170.672 5.71094V0.265625H178.176V5.71094ZM254.163 0V43.4297H246.859V22.1133H236.167V15.4062H246.859V0H254.163ZM255.956 59.3672H217.374V40.6406H224.878V52.8594H255.956V59.3672ZM219.101 11.9531V8.96484H207.148V2.39062H239.155V8.96484H226.605V13.0156C226.605 16.7786 227.866 20.0547 230.39 22.8438C233.445 26.2526 237.075 29.0638 241.28 31.2773L237.296 36.457C232.028 33.7122 227.579 30.1927 223.948 25.8984C223.683 25.5885 223.395 25.2565 223.085 24.9023C222.554 25.7878 221.934 26.6732 221.226 27.5586C217.197 32.3398 213.08 35.5495 208.874 37.1875L204.359 32.0078C208.697 30.1042 212.46 27.138 215.648 23.1094C217.95 20.1875 219.101 16.4688 219.101 11.9531ZM273.24 6.30859V0H281.01V6.30859H292.698V12.418H287.186C287.407 12.6393 287.628 12.8607 287.85 13.082C289.267 14.4544 290.373 16.0703 291.17 17.9297C292.011 19.7891 292.432 21.7591 292.432 23.8398C292.432 25.9648 292.011 27.957 291.17 29.8164C290.373 31.6758 289.267 33.2917 287.85 34.6641C286.477 36.0365 284.839 37.1432 282.936 37.9844C281.076 38.7812 279.106 39.1797 277.026 39.1797C274.945 39.1797 272.953 38.7812 271.049 37.9844C269.19 37.1432 267.574 36.0365 266.201 34.6641C264.829 33.2917 263.722 31.6758 262.881 29.8164C262.084 27.957 261.686 25.9648 261.686 23.8398C261.686 21.7591 262.084 19.7891 262.881 17.9297C263.722 16.0703 264.829 14.4544 266.201 13.082C266.467 12.8607 266.711 12.6393 266.932 12.418H261.221V6.30859H273.24ZM285.658 23.6406C285.658 21.2057 284.817 19.125 283.135 17.3984C281.497 15.6276 279.483 14.7422 277.092 14.7422C274.746 14.7422 272.731 15.6276 271.049 17.3984C269.367 19.125 268.526 21.2057 268.526 23.6406C268.526 26.1198 269.367 28.2448 271.049 30.0156C272.731 31.7422 274.746 32.6055 277.092 32.6055C279.483 32.6055 281.497 31.7422 283.135 30.0156C284.817 28.2448 285.658 26.1198 285.658 23.6406ZM307.905 0H314.811V59.3672H307.905V24.3047H302.858V59.3672H296.084V0H302.858V17.5977H307.905V0Z" fill="white"/>
</svg>
