<svg width="148" height="22" viewBox="0 0 148 22" fill="none" xmlns="http://www.w3.org/2000/svg">
<path d="M4.32812 5.10938H7.65625C8.75 5.10938 9.60417 5.23958 10.2188 5.5C10.6146 5.67708 10.9583 5.91667 11.25 6.21875C11.8229 6.85417 12.1094 7.63021 12.1094 8.54688C12.1094 9.46354 11.8229 10.2344 11.25 10.8594C10.9583 11.1719 10.6146 11.4115 10.2188 11.5781C9.63542 11.8385 8.78125 11.9688 7.65625 11.9688H6.0625V15.9688H4.32812V5.10938ZM6.0625 10.4062H8.09375C8.82292 10.4062 9.39062 10.224 9.79688 9.85938C10.1719 9.51562 10.3594 9.07812 10.3594 8.54688C10.3594 8.00521 10.1719 7.5625 9.79688 7.21875C9.39062 6.85417 8.82292 6.67188 8.09375 6.67188H6.0625V10.4062ZM15.5394 14.4062H20.8831V15.9688H13.805V5.10938H20.7581V6.67188H15.5394V9.65625H20.2738V11.2031H15.5394V14.4062ZM28.7194 15.9688H27.5475L24.2975 7.78125V15.9688H22.6725V5.10938H24.7819L28.1413 13.3125L31.485 5.10938H33.5944V15.9688H31.9538V7.78125L28.7194 15.9688ZM42.095 14.4062H47.4388V15.9688H40.3606V5.10938H47.3138V6.67188H42.095V9.65625H46.8294V11.2031H42.095V14.4062ZM50.9625 5.10938V14.4062H56.525V15.9688H49.2281V5.10938H50.9625ZM59.6738 14.4062H65.0175V15.9688H57.9394V5.10938H64.8925V6.67188H59.6738V9.65625H64.4081V11.2031H59.6738V14.4062ZM66.26 10.4062C66.26 8.77083 66.7496 7.46354 67.7287 6.48438C68.7079 5.50521 70.0569 4.97396 71.7756 4.89062C72.6715 4.84896 73.5777 4.91667 74.4944 5.09375V6.64062C73.5673 6.48438 72.734 6.42188 71.9944 6.45312C70.7027 6.50521 69.7392 6.86458 69.1037 7.53125C68.3746 8.28125 68.01 9.26042 68.01 10.4688V10.6406C68.01 11.9219 68.3694 12.8958 69.0881 13.5625C69.8173 14.2292 70.7965 14.5833 72.0256 14.625C72.8798 14.6562 73.7183 14.6094 74.5412 14.4844V16.0312C73.7079 16.1667 72.8017 16.2135 71.8225 16.1719C70.0517 16.099 68.6819 15.5938 67.7131 14.6562C66.7444 13.7083 66.26 12.3802 66.26 10.6719V10.4062ZM80.5181 15.9688H78.7994V6.67188H75.2838V5.10938H84.0338V6.67188H80.5181V15.9688ZM87.0575 9.875H88.8388C89.5575 9.875 90.0783 9.71354 90.4013 9.39062C90.7346 9.06771 90.9013 8.6875 90.9013 8.25C90.9013 7.82292 90.7346 7.45312 90.4013 7.14062C90.0783 6.82812 89.5575 6.67188 88.8388 6.67188H87.0575V9.875ZM88.12 11.4219H87.0575V15.9688H85.3231V5.10938H88.6356C89.9794 5.10938 90.9742 5.40625 91.62 6C92.2971 6.61458 92.6356 7.375 92.6356 8.28125C92.6356 9.22917 92.2867 9.98958 91.5888 10.5625C91.1408 10.9375 90.5731 11.1875 89.8856 11.3125L93.2919 15.9688H91.3231L88.12 11.4219ZM95.7844 10.5469C95.7844 11.8073 96.1177 12.7865 96.7844 13.4844C97.4615 14.1823 98.3156 14.5312 99.3469 14.5312C100.378 14.5312 101.227 14.1823 101.894 13.4844C102.56 12.7865 102.894 11.8073 102.894 10.5469C102.894 9.28646 102.56 8.30729 101.894 7.60938C101.227 6.91146 100.378 6.5625 99.3469 6.5625C98.3156 6.5625 97.4615 6.91146 96.7844 7.60938C96.1177 8.30729 95.7844 9.28646 95.7844 10.5469ZM94.0656 10.5469C94.0656 8.93229 94.5552 7.60938 95.5344 6.57812C96.524 5.53646 97.7948 5.01562 99.3469 5.01562C100.909 5.01562 102.18 5.53646 103.159 6.57812C104.149 7.60938 104.644 8.93229 104.644 10.5469C104.644 12.1615 104.149 13.4896 103.159 14.5312C102.18 15.5625 100.909 16.0781 99.3469 16.0781C97.7948 16.0781 96.524 15.5625 95.5344 14.5312C94.5552 13.4896 94.0656 12.1615 94.0656 10.5469ZM108.168 5.10938V14.4062H113.73V15.9688H106.433V5.10938H108.168ZM115.957 11.2344L112.004 5.10938H113.926L116.848 9.71875L119.707 5.10938H121.66L117.707 11.25V15.9688H115.957V11.2344ZM128.09 10.3438C128.809 10.5938 129.324 10.9531 129.637 11.4219C129.949 11.8802 130.09 12.4219 130.059 13.0469C130.007 14.0052 129.616 14.7708 128.887 15.3438C128.168 15.9062 127.121 16.1927 125.746 16.2031C124.465 16.2135 123.402 16.099 122.559 15.8594V14.2969C123.548 14.5469 124.616 14.6667 125.762 14.6562C126.626 14.6458 127.267 14.4948 127.684 14.2031C128.111 13.901 128.324 13.526 128.324 13.0781C128.324 12.4115 127.965 11.9531 127.246 11.7031L124.559 10.7656C123.975 10.5677 123.491 10.2552 123.106 9.82812C122.72 9.39062 122.527 8.83854 122.527 8.17188C122.527 7.27604 122.83 6.52083 123.434 5.90625C124.048 5.29167 125.001 4.94792 126.293 4.875C127.168 4.83333 128.121 4.92708 129.152 5.15625V6.71875C128.194 6.47917 127.262 6.39062 126.356 6.45312C125.606 6.50521 125.069 6.66667 124.746 6.9375C124.434 7.19792 124.277 7.57812 124.277 8.07812C124.277 8.71354 124.647 9.15625 125.387 9.40625L128.09 10.3438ZM131.957 15.9688V5.10938H133.692V15.9688H131.957ZM141.153 10.3438C141.872 10.5938 142.387 10.9531 142.7 11.4219C143.012 11.8802 143.153 12.4219 143.122 13.0469C143.07 14.0052 142.679 14.7708 141.95 15.3438C141.231 15.9062 140.184 16.1927 138.809 16.2031C137.528 16.2135 136.466 16.099 135.622 15.8594V14.2969C136.611 14.5469 137.679 14.6667 138.825 14.6562C139.69 14.6458 140.33 14.4948 140.747 14.2031C141.174 13.901 141.387 13.526 141.387 13.0781C141.387 12.4115 141.028 11.9531 140.309 11.7031L137.622 10.7656C137.039 10.5677 136.554 10.2552 136.169 9.82812C135.783 9.39062 135.591 8.83854 135.591 8.17188C135.591 7.27604 135.893 6.52083 136.497 5.90625C137.111 5.29167 138.065 4.94792 139.356 4.875C140.231 4.83333 141.184 4.92708 142.216 5.15625V6.71875C141.257 6.47917 140.325 6.39062 139.419 6.45312C138.669 6.50521 138.132 6.66667 137.809 6.9375C137.497 7.19792 137.341 7.57812 137.341 8.07812C137.341 8.71354 137.71 9.15625 138.45 9.40625L141.153 10.3438Z" fill="black"/>
</svg>
