<svg width="169" height="24" viewBox="0 0 169 24" fill="none" xmlns="http://www.w3.org/2000/svg">
<path d="M18.408 0.599827V11.6878H15.192V7.03183H11.256V4.27183H15.192V0.599827H18.408ZM18.672 22.0798H4.55999V16.0318H15.192V14.9998H4.55999V12.4798H18.408V18.5038H7.77599V19.5598H18.672V22.0798ZM8.61599 2.87983C8.61599 4.47983 9.04799 5.80783 9.91199 6.86383C10.696 7.82383 11.968 8.67983 13.728 9.43183L11.928 11.6878C10.04 10.8718 8.49599 9.79183 7.29599 8.44783L7.00799 8.11183C6.89599 8.28783 6.76799 8.45583 6.62399 8.61583C5.47199 9.97583 3.93599 11.0638 2.01599 11.8798L-1.17123e-05 9.71983C1.82399 8.96783 3.17599 8.07183 4.05599 7.03183C4.91999 6.00783 5.35199 4.62383 5.35199 2.87983V1.03183H8.61599V2.87983ZM27.7217 12.2398C26.4577 14.4478 24.7857 16.3438 22.7057 17.9278L20.4497 15.9838C22.4177 14.4158 23.8897 12.7678 24.8657 11.0398C25.6977 9.56783 26.1137 7.99983 26.1137 6.33583V5.59183H21.1697V2.71183H26.1137V0.263827H29.3777V2.71183H34.0337V5.59183H29.3777V6.33583C29.3777 7.85583 29.7777 9.43183 30.5777 11.0638C31.3137 12.5678 32.6977 14.1438 34.7297 15.7918L32.6897 17.8798C30.6737 16.3598 29.0177 14.4798 27.7217 12.2398ZM35.6417 0.599827H38.8577V22.0798H35.6417V0.599827ZM49.0354 12.7198V8.68783H53.0674V12.7198H49.0354ZM78.0291 6.31183C78.0291 7.12783 77.8611 7.89583 77.5251 8.61583C77.1891 9.30383 76.7571 9.91183 76.2291 10.4398H81.1491V13.2958H73.3731V17.2558H70.1091V13.2958H61.8531V10.4398H66.7731C66.2451 9.91183 65.8211 9.30383 65.5011 8.61583C65.1491 7.89583 64.9731 7.12783 64.9731 6.31183C64.9731 5.49583 65.1411 4.72783 65.4771 4.00783C65.8291 3.27183 66.2931 2.63183 66.8691 2.08783C67.4771 1.52783 68.1731 1.08783 68.9571 0.767827C69.7571 0.447827 70.6051 0.287827 71.5011 0.287827C72.3971 0.287827 73.2371 0.447827 74.0211 0.767827C74.8211 1.08783 75.5251 1.52783 76.1331 2.08783C76.7091 2.63183 77.1651 3.27183 77.5011 4.00783C77.8531 4.72783 78.0291 5.49583 78.0291 6.31183ZM74.8131 6.40783C74.8131 5.95983 74.7251 5.53583 74.5491 5.13583C74.3731 4.71983 74.1251 4.35983 73.8051 4.05583C73.5171 3.76783 73.1731 3.53583 72.7731 3.35983C72.3731 3.18383 71.9491 3.09583 71.5011 3.09583C71.0531 3.09583 70.6291 3.18383 70.2291 3.35983C69.8291 3.53583 69.4851 3.76783 69.1971 4.05583C68.8771 4.35983 68.6291 4.71983 68.4531 5.13583C68.2771 5.53583 68.1891 5.95983 68.1891 6.40783C68.1891 6.85583 68.2771 7.28783 68.4531 7.70383C68.6291 8.10383 68.8771 8.45583 69.1971 8.75983C69.4851 9.04783 69.8291 9.27983 70.2291 9.45583C70.6291 9.63183 71.0531 9.71983 71.5011 9.71983C71.9491 9.71983 72.3731 9.63183 72.7731 9.45583C73.1731 9.27983 73.5171 9.04783 73.8051 8.75983C74.1251 8.45583 74.3731 8.10383 74.5491 7.70383C74.7251 7.28783 74.8131 6.85583 74.8131 6.40783ZM79.1331 22.0798H64.1571V15.6958H67.4451V19.2238H79.1331V22.0798ZM94.3507 6.62383C94.3507 7.05583 94.3027 7.47183 94.2067 7.87183H96.9907V5.35183H94.1827C94.2947 5.76783 94.3507 6.19183 94.3507 6.62383ZM92.5747 10.5598C92.0467 11.0558 91.4307 11.4398 90.7267 11.7118C89.9907 12.0158 89.2147 12.1678 88.3987 12.1678C87.5827 12.1678 86.8067 12.0238 86.0707 11.7358C85.3507 11.4318 84.7187 11.0238 84.1747 10.5118C83.6467 10.0158 83.2227 9.43183 82.9027 8.75983C82.5987 8.08783 82.4467 7.37583 82.4467 6.62383C82.4467 5.87183 82.5987 5.15983 82.9027 4.48783C83.2227 3.81583 83.6467 3.23183 84.1747 2.73583C84.7187 2.22383 85.3507 1.82383 86.0707 1.53583C86.8067 1.23183 87.5827 1.07983 88.3987 1.07983C89.2147 1.07983 89.9907 1.22383 90.7267 1.51183C91.4147 1.79983 92.0227 2.18383 92.5507 2.66383H96.9907V0.599827H100.207V12.9838H96.9907V10.5598H92.5747ZM91.1347 6.62383C91.1347 5.87183 90.8627 5.23183 90.3187 4.70383C89.7747 4.15983 89.1347 3.88783 88.3987 3.88783C87.6627 3.88783 87.0227 4.15983 86.4787 4.70383C85.9347 5.23183 85.6627 5.87183 85.6627 6.62383C85.6627 7.37583 85.9347 8.02383 86.4787 8.56783C87.0227 9.09583 87.6627 9.35983 88.3987 9.35983C89.1347 9.35983 89.7747 9.09583 90.3187 8.56783C90.8627 8.02383 91.1347 7.37583 91.1347 6.62383ZM99.8227 17.7838C99.8227 18.5198 99.6627 19.2078 99.3427 19.8478C99.0387 20.4878 98.6307 21.0478 98.1187 21.5278C97.5907 22.0238 96.9667 22.4158 96.2467 22.7038C95.5427 23.0078 94.7827 23.1598 93.9667 23.1598C93.1507 23.1598 92.3827 23.0078 91.6627 22.7038C90.9587 22.4158 90.3427 22.0238 89.8147 21.5278C89.3027 21.0478 88.8867 20.4878 88.5667 19.8478C88.2627 19.2078 88.1107 18.5198 88.1107 17.7838C88.1107 17.0478 88.2627 16.3598 88.5667 15.7198C88.8867 15.0798 89.3027 14.5198 89.8147 14.0398C90.3427 13.5438 90.9587 13.1518 91.6627 12.8638C92.3827 12.5598 93.1507 12.4078 93.9667 12.4078C94.7827 12.4078 95.5427 12.5598 96.2467 12.8638C96.9667 13.1518 97.5907 13.5438 98.1187 14.0398C98.6307 14.5198 99.0387 15.0798 99.3427 15.7198C99.6627 16.3598 99.8227 17.0478 99.8227 17.7838ZM96.6067 17.7838C96.6067 17.0478 96.3427 16.4398 95.8147 15.9598C95.3027 15.4638 94.6867 15.2158 93.9667 15.2158C93.2467 15.2158 92.6227 15.4638 92.0947 15.9598C91.5827 16.4398 91.3267 17.0478 91.3267 17.7838C91.3267 18.5198 91.5827 19.1358 92.0947 19.6318C92.6227 20.1118 93.2467 20.3518 93.9667 20.3518C94.6867 20.3518 95.3027 20.1118 95.8147 19.6318C96.3427 19.1358 96.6067 18.5198 96.6067 17.7838ZM126.749 5.35183H123.821C124.221 5.78383 124.557 6.27183 124.829 6.81583C125.165 7.51983 125.333 8.26383 125.333 9.04783C125.333 9.83183 125.165 10.5758 124.829 11.2798C124.493 11.9678 124.045 12.5678 123.485 13.0798C123.277 13.2718 123.061 13.4478 122.837 13.6078H124.781V17.0878H128.693V19.8958H109.397V17.0878H113.309V13.6078H115.253C115.029 13.4478 114.813 13.2718 114.605 13.0798C114.045 12.5678 113.597 11.9678 113.261 11.2798C112.925 10.5758 112.757 9.83183 112.757 9.04783C112.757 8.26383 112.925 7.51983 113.261 6.81583C113.533 6.27183 113.869 5.78383 114.269 5.35183H111.317V2.61583H117.245V0.311827H120.845V2.61583H126.749V5.35183ZM121.565 14.3038C121.549 14.3038 121.525 14.3118 121.493 14.3278C120.725 14.6318 119.909 14.7838 119.045 14.7838C118.181 14.7838 117.365 14.6318 116.597 14.3278C116.565 14.3118 116.541 14.3038 116.525 14.3038V17.0878H121.565V14.3038ZM122.117 8.97583C122.117 8.55983 122.029 8.16783 121.853 7.79983C121.693 7.43183 121.469 7.10383 121.181 6.81583C120.909 6.55983 120.589 6.35183 120.221 6.19183C119.853 6.03183 119.461 5.95183 119.045 5.95183C118.629 5.95183 118.237 6.03183 117.869 6.19183C117.501 6.35183 117.181 6.55983 116.909 6.81583C116.621 7.10383 116.389 7.43183 116.213 7.79983C116.053 8.16783 115.973 8.55983 115.973 8.97583C115.973 9.39183 116.053 9.78383 116.213 10.1518C116.389 10.5198 116.621 10.8478 116.909 11.1358C117.181 11.3918 117.501 11.5998 117.869 11.7598C118.237 11.9198 118.629 11.9998 119.045 11.9998C119.461 11.9998 119.853 11.9198 120.221 11.7598C120.589 11.5998 120.909 11.3918 121.181 11.1358C121.469 10.8478 121.693 10.5198 121.853 10.1518C122.029 9.78383 122.117 9.39183 122.117 8.97583ZM145.327 5.18383C145.327 5.88783 145.175 6.55183 144.871 7.17583C144.615 7.67183 144.303 8.11983 143.935 8.51983H149.143V11.1118H144.367V12.4318H146.839V18.4558H135.367V19.6078H147.079V22.0798H132.151V16.0078H143.623V14.8798H132.151V12.4318H134.623V11.1118H129.847V8.51983H135.055C134.687 8.11983 134.383 7.67183 134.143 7.17583C133.823 6.55183 133.663 5.88783 133.663 5.18383C133.663 4.47983 133.815 3.81583 134.119 3.19183C134.439 2.55183 134.863 1.99983 135.391 1.53583C135.903 1.07183 136.511 0.703827 137.215 0.431827C137.935 0.143827 138.695 -0.000172138 139.495 -0.000172138C140.295 -0.000172138 141.047 0.143827 141.751 0.431827C142.471 0.703827 143.087 1.07183 143.599 1.53583C144.127 1.99983 144.543 2.55183 144.847 3.19183C145.167 3.81583 145.327 4.47983 145.327 5.18383ZM142.111 5.25583C142.111 4.55183 141.847 3.95183 141.319 3.45583C140.807 2.94383 140.199 2.68783 139.495 2.68783C138.791 2.68783 138.175 2.94383 137.647 3.45583C137.135 3.95183 136.879 4.55183 136.879 5.25583C136.879 5.95983 137.135 6.56783 137.647 7.07983C138.175 7.57583 138.791 7.82383 139.495 7.82383C140.199 7.82383 140.807 7.57583 141.319 7.07983C141.847 6.56783 142.111 5.95983 142.111 5.25583ZM141.247 12.4318V11.1118H137.743V12.4318H141.247ZM168.201 0.599827V12.9838H164.985V7.55983H160.833V4.72783H164.985V0.599827H168.201ZM167.793 17.9518C167.793 18.6718 167.633 19.3358 167.313 19.9438C167.009 20.5518 166.593 21.1038 166.065 21.5998C165.537 22.0638 164.913 22.4398 164.193 22.7278C163.489 23.0158 162.729 23.1598 161.913 23.1598C161.097 23.1598 160.329 23.0158 159.609 22.7278C158.905 22.4398 158.281 22.0638 157.737 21.5998C157.225 21.1038 156.809 20.5518 156.489 19.9438C156.185 19.3358 156.033 18.6718 156.033 17.9518C156.033 17.2318 156.185 16.5758 156.489 15.9838C156.809 15.3918 157.225 14.8558 157.737 14.3758C158.281 13.8958 158.905 13.5118 159.609 13.2238C160.329 12.9358 161.097 12.7918 161.913 12.7918C162.729 12.7918 163.489 12.9358 164.193 13.2238C164.913 13.5118 165.537 13.8958 166.065 14.3758C166.593 14.8558 167.009 15.3918 167.313 15.9838C167.633 16.5758 167.793 17.2318 167.793 17.9518ZM164.577 17.9518C164.577 17.2478 164.313 16.6718 163.785 16.2238C163.257 15.7758 162.633 15.5518 161.913 15.5518C161.193 15.5518 160.569 15.7758 160.041 16.2238C159.513 16.6718 159.249 17.2478 159.249 17.9518C159.249 18.6558 159.513 19.2318 160.041 19.6798C160.569 20.1278 161.193 20.3518 161.913 20.3518C162.633 20.3518 163.257 20.1278 163.785 19.6798C164.313 19.2318 164.577 18.6558 164.577 17.9518ZM158.409 2.92783C158.409 4.68783 158.841 6.09583 159.705 7.15183C160.569 8.20783 161.825 9.19983 163.473 10.1278L161.649 12.4078C159.825 11.4638 158.289 10.2478 157.041 8.75983L156.945 8.61583C156.817 8.82383 156.681 9.01583 156.537 9.19183C155.273 10.8558 153.745 12.1918 151.953 13.1998L149.913 11.0158C151.593 10.1038 152.929 8.97583 153.921 7.63183C154.737 6.52783 155.145 4.95983 155.145 2.92783V1.15183H158.409V2.92783Z" fill="white"/>
</svg>
