<svg width="495" height="45" viewBox="0 0 495 45" fill="none" xmlns="http://www.w3.org/2000/svg">
<path d="M0 3.60938H9.98438C13.2656 3.60938 15.8281 4 17.6719 4.78125C18.8594 5.3125 19.8906 6.03125 20.7656 6.9375C22.4844 8.84375 23.3438 11.1719 23.3438 13.9219C23.3438 16.6719 22.4844 18.9844 20.7656 20.8594C19.8906 21.7969 18.8594 22.5156 17.6719 23.0156C15.9219 23.7969 13.3594 24.1875 9.98438 24.1875H5.20312V36.1875H0V3.60938ZM5.20312 19.5H11.2969C13.4844 19.5 15.1875 18.9531 16.4062 17.8594C17.5312 16.8281 18.0938 15.5156 18.0938 13.9219C18.0938 12.2969 17.5312 10.9688 16.4062 9.9375C15.1875 8.84375 13.4844 8.29688 11.2969 8.29688H5.20312V19.5ZM33.6338 31.5H49.665V36.1875H28.4306V3.60938H49.29V8.29688H33.6338V17.25H47.8369V21.8906H33.6338V31.5ZM73.1738 36.1875H69.6581L59.9081 11.625V36.1875H55.0331V3.60938H61.3613L71.4394 28.2188L81.4706 3.60938H87.7988V36.1875H82.8769V11.625L73.1738 36.1875ZM127.644 29.1094V42.7969H122.441V29.1094H106.363V24.375H143.723V29.1094H127.644ZM127.691 4.17188C127.691 7.10937 128.957 9.625 131.488 11.7188C134.207 13.9375 137.629 15.75 141.754 17.1562L138.941 20.8594C134.566 19.5156 130.879 17.5312 127.879 14.9062C126.754 13.9688 125.801 12.9688 125.019 11.9062C124.269 12.9688 123.332 13.9688 122.207 14.9062C119.207 17.5312 115.519 19.5156 111.144 20.8594L108.332 17.1562C112.457 15.75 115.879 13.9375 118.598 11.7188C121.129 9.625 122.394 7.10937 122.394 4.17188V0.328125H127.691V4.17188ZM181.809 0.140625V30.7969H176.653V15.75H169.106V11.0156H176.653V0.140625H181.809ZM183.075 42.0469H155.841V28.8281H161.137V37.4531H183.075V42.0469ZM157.059 8.57812V6.46875H148.622V1.82812H171.216V6.46875H162.356V9.32812C162.356 11.9844 163.247 14.2969 165.028 16.2656C167.184 18.6719 169.747 20.6562 172.716 22.2188L169.903 25.875C166.184 23.9375 163.044 21.4531 160.481 18.4219C160.294 18.2031 160.091 17.9688 159.872 17.7188C159.497 18.3438 159.059 18.9688 158.559 19.5938C155.716 22.9688 152.809 25.2344 149.841 26.3906L146.653 22.7344C149.716 21.3906 152.372 19.2969 154.622 16.4531C156.247 14.3906 157.059 11.7656 157.059 8.57812ZM195.756 4.59375V0.140625H201.24V4.59375H209.49V8.90625H205.599C205.756 9.0625 205.912 9.21875 206.068 9.375C207.068 10.3438 207.849 11.4844 208.412 12.7969C209.006 14.1094 209.303 15.5 209.303 16.9688C209.303 18.4688 209.006 19.875 208.412 21.1875C207.849 22.5 207.068 23.6406 206.068 24.6094C205.099 25.5781 203.943 26.3594 202.599 26.9531C201.287 27.5156 199.896 27.7969 198.428 27.7969C196.959 27.7969 195.553 27.5156 194.209 26.9531C192.896 26.3594 191.756 25.5781 190.787 24.6094C189.818 23.6406 189.037 22.5 188.443 21.1875C187.881 19.875 187.599 18.4688 187.599 16.9688C187.599 15.5 187.881 14.1094 188.443 12.7969C189.037 11.4844 189.818 10.3438 190.787 9.375C190.974 9.21875 191.146 9.0625 191.303 8.90625H187.271V4.59375H195.756ZM204.521 16.8281C204.521 15.1094 203.928 13.6406 202.74 12.4219C201.584 11.1719 200.162 10.5469 198.474 10.5469C196.818 10.5469 195.396 11.1719 194.209 12.4219C193.021 13.6406 192.428 15.1094 192.428 16.8281C192.428 18.5781 193.021 20.0781 194.209 21.3281C195.396 22.5469 196.818 23.1562 198.474 23.1562C200.162 23.1562 201.584 22.5469 202.74 21.3281C203.928 20.0781 204.521 18.5781 204.521 16.8281ZM220.224 0.140625H225.099V42.0469H220.224V17.2969H216.662V42.0469H211.881V0.140625H216.662V12.5625H220.224V0.140625ZM271.742 0.140625H276.898V42.0469H271.742V0.140625ZM264.476 2.01562C264.476 9.26562 262.648 15.5625 258.992 20.9062C255.836 25.7188 251.57 29.8281 246.195 33.2344L242.633 29.5781C247.695 26.4844 251.648 22.7969 254.492 18.5156C257.086 14.7969 258.508 10.8594 258.758 6.70312H244.883V2.01562H264.476ZM283.251 17.2969H320.61V21.5156H304.579V24.75H315.969V35.3438H293.047V38.0156H316.485V42.0469H287.844V31.4062H310.813V28.7344H287.844V24.75H299.282V21.5156H283.251V17.2969ZM304.532 2.10938C304.532 4.10937 306.032 6.15625 309.032 8.25C311.344 9.8125 314.563 11.0469 318.688 11.9531L316.344 15.7969C311.938 14.7969 308.188 13.25 305.094 11.1562C303.813 10.25 302.751 9.3125 301.907 8.34375C301.094 9.3125 300.047 10.25 298.766 11.1562C295.672 13.25 291.922 14.7969 287.516 15.7969L285.172 11.9531C289.297 11.0469 292.516 9.8125 294.829 8.25C297.829 6.15625 299.329 4.10937 299.329 2.10938V0H304.532V2.10938ZM349.931 12.5625C349.931 14.0625 349.619 15.4844 348.994 16.8281C348.4 18.1719 347.572 19.3438 346.509 20.3438C345.478 21.3438 344.259 22.1406 342.853 22.7344C341.447 23.3281 339.962 23.625 338.4 23.625C336.837 23.625 335.353 23.3281 333.947 22.7344C332.572 22.1406 331.353 21.3438 330.291 20.3438C329.228 19.3438 328.384 18.1719 327.759 16.8281C327.166 15.4844 326.869 14.0625 326.869 12.5625C326.869 11.0625 327.166 9.64062 327.759 8.29688C328.384 6.95313 329.228 5.78125 330.291 4.78125C331.353 3.8125 332.572 3.03125 333.947 2.4375C335.353 1.84375 336.837 1.54688 338.4 1.54688C339.962 1.54688 341.447 1.84375 342.853 2.4375C344.259 3.03125 345.478 3.8125 346.509 4.78125C347.572 5.78125 348.4 6.95313 348.994 8.29688C349.619 9.64062 349.931 11.0625 349.931 12.5625ZM344.775 12.5625C344.775 11.6875 344.603 10.8594 344.259 10.0781C343.916 9.26562 343.447 8.57812 342.853 8.01562C342.291 7.45312 341.619 7 340.837 6.65625C340.087 6.28125 339.275 6.09375 338.4 6.09375C337.556 6.09375 336.744 6.28125 335.962 6.65625C335.181 7 334.509 7.45312 333.947 8.01562C333.384 8.57812 332.916 9.26562 332.541 10.0781C332.197 10.8594 332.025 11.6875 332.025 12.5625C332.025 13.4688 332.197 14.3125 332.541 15.0938C332.916 15.875 333.384 16.5625 333.947 17.1562C334.509 17.7188 335.181 18.1719 335.962 18.5156C336.744 18.8594 337.556 19.0312 338.4 19.0312C339.275 19.0312 340.087 18.8594 340.837 18.5156C341.619 18.1719 342.291 17.7188 342.853 17.1562C343.447 16.5625 343.916 15.875 344.259 15.0938C344.603 14.3125 344.775 13.4688 344.775 12.5625ZM359.306 0.140625V42.0469H354.15V32.9062C350.306 33.4062 345.837 33.6562 340.744 33.6562H324.291V28.9219H340.65C345.587 28.9219 350.087 28.7188 354.15 28.3125V0.140625H359.306ZM416.683 14.1094V18.8906H410.543V42.0469H405.386V0.140625H410.543V14.1094H416.683ZM399.058 2.01562C399.058 9.26562 397.308 15.5625 393.808 20.9062C390.621 25.7188 386.402 29.8281 381.152 33.2344L377.589 29.5781C382.527 26.4844 386.433 22.7969 389.308 18.5156C391.746 14.7969 393.105 10.8594 393.386 6.70312H379.839V2.01562H399.058ZM423.832 0.75H429.036V11.5312H452.614V16.125H423.832V0.75ZM456.598 20.625V25.3125H445.864C446.02 25.4062 446.161 25.5156 446.286 25.6406C447.317 26.6406 448.145 27.8125 448.77 29.1562C449.395 30.4688 449.707 31.8594 449.707 33.3281C449.707 34.7969 449.395 36.2031 448.77 37.5469C448.145 38.8594 447.317 40 446.286 40.9688C445.192 41.9688 443.926 42.75 442.489 43.3125C441.082 43.9062 439.551 44.2031 437.895 44.2031C436.27 44.2031 434.739 43.9062 433.301 43.3125C431.895 42.75 430.645 41.9688 429.551 40.9688C428.489 40 427.645 38.8594 427.02 37.5469C426.426 36.2031 426.129 34.7969 426.129 33.3281C426.129 31.8594 426.426 30.4688 427.02 29.1562C427.645 27.8125 428.489 26.6406 429.551 25.6406C429.676 25.5156 429.801 25.4062 429.926 25.3125H419.239V20.625H456.598ZM444.551 33.1875C444.551 32.2812 444.364 31.4375 443.989 30.6562C443.645 29.875 443.176 29.1875 442.582 28.5938C441.957 28.0312 441.239 27.5781 440.426 27.2344C439.645 26.8594 438.801 26.6719 437.895 26.6719C437.02 26.6719 436.176 26.8594 435.364 27.2344C434.582 27.5781 433.879 28.0312 433.254 28.5938C432.661 29.1875 432.176 29.875 431.801 30.6562C431.457 31.4375 431.286 32.2812 431.286 33.1875C431.286 34.0625 431.457 34.8906 431.801 35.6719C432.176 36.4531 432.661 37.1406 433.254 37.7344C433.879 38.2969 434.582 38.7656 435.364 39.1406C436.176 39.4844 437.02 39.6562 437.895 39.6562C438.801 39.6562 439.645 39.4844 440.426 39.1406C441.239 38.7656 441.957 38.2969 442.582 37.7344C443.176 37.1406 443.645 36.4531 443.989 35.6719C444.364 34.8906 444.551 34.0625 444.551 33.1875ZM494.685 0.140625V24.2812H489.529V12.9844H481.232V8.39062H489.529V0.140625H494.685ZM493.888 34.0781C493.888 35.4531 493.591 36.7656 492.997 38.0156C492.404 39.2344 491.607 40.3125 490.607 41.25C489.607 42.125 488.435 42.8281 487.091 43.3594C485.747 43.9219 484.294 44.2031 482.732 44.2031C481.201 44.2031 479.763 43.9219 478.419 43.3594C477.076 42.8281 475.888 42.125 474.857 41.25C473.888 40.3125 473.107 39.2344 472.513 38.0156C471.919 36.7656 471.622 35.4531 471.622 34.0781C471.622 32.7031 471.919 31.4062 472.513 30.1875C473.107 28.9375 473.888 27.8438 474.857 26.9062C475.888 26.0312 477.076 25.3281 478.419 24.7969C479.763 24.2344 481.201 23.9531 482.732 23.9531C484.294 23.9531 485.747 24.2344 487.091 24.7969C488.435 25.3281 489.607 26.0312 490.607 26.9062C491.607 27.8438 492.404 28.9375 492.997 30.1875C493.591 31.4062 493.888 32.7031 493.888 34.0781ZM488.685 34.0781C488.685 32.5469 488.107 31.2344 486.951 30.1406C485.794 29.0469 484.388 28.5 482.732 28.5C481.107 28.5 479.701 29.0469 478.513 30.1406C477.357 31.2344 476.779 32.5469 476.779 34.0781C476.779 35.6094 477.357 36.9219 478.513 38.0156C479.701 39.1094 481.107 39.6562 482.732 39.6562C484.388 39.6562 485.794 39.1094 486.951 38.0156C488.107 36.9219 488.685 35.6094 488.685 34.0781ZM475.138 4.875C475.138 8.25 476.029 11.0469 477.81 13.2656C479.591 15.4219 481.997 17.3438 485.029 19.0312L482.029 22.7344C478.81 21.0781 475.982 18.7969 473.544 15.8906C473.263 15.5469 472.982 15.1875 472.701 14.8125C472.357 15.5 471.951 16.1406 471.482 16.7344C469.013 20.0156 466.185 22.5469 462.997 24.3281L459.669 20.8125C462.732 19.1562 465.279 16.9531 467.31 14.2031C468.997 11.8906 469.841 8.78125 469.841 4.875V1.26562H475.138V4.875Z" fill="black"/>
</svg>
