<svg width="407" height="48" viewBox="0 0 407 48" fill="none" xmlns="http://www.w3.org/2000/svg">
<path d="M2.32245 6.6415H8.31645V1.5295H9.90045V13.3195H8.31645V7.9555H2.32245V13.3195H0.738453V1.5295H2.32245V6.6415ZM17.2501 13.3195H15.6661V2.8615H11.7241V1.5295H21.1921V2.8615H17.2501V13.3195ZM25.9446 11.3935L28.6086 1.5295H30.3006L32.8926 11.3935L35.4486 1.5475L36.9966 1.5295L33.7926 13.3195H32.1366L29.4546 3.3295L26.7366 13.3195H25.1166L21.9306 1.5295H23.4606L25.9446 11.3935ZM39.8644 7.4515C39.8644 8.9275 40.2604 10.0735 41.0524 10.8895C41.8444 11.7055 42.8464 12.1135 44.0584 12.1135C45.2704 12.1135 46.2664 11.7055 47.0464 10.8895C47.8384 10.0735 48.2344 8.9275 48.2344 7.4515C48.2344 5.9635 47.8384 4.8115 47.0464 3.9955C46.2664 3.1675 45.2704 2.7535 44.0584 2.7535C42.8464 2.7535 41.8444 3.1675 41.0524 3.9955C40.2604 4.8115 39.8644 5.9635 39.8644 7.4515ZM38.2984 7.4515C38.2984 5.6995 38.8324 4.2535 39.9004 3.1135C40.9684 1.9735 42.3544 1.4035 44.0584 1.4035C45.7624 1.4035 47.1484 1.9735 48.2164 3.1135C49.2964 4.2535 49.8364 5.6995 49.8364 7.4515C49.8364 9.1915 49.2964 10.6315 48.2164 11.7715C47.1484 12.8995 45.7624 13.4635 44.0584 13.4635C42.3544 13.4635 40.9684 12.8995 39.9004 11.7715C38.8324 10.6315 38.2984 9.1915 38.2984 7.4515ZM60.8306 4.6795C60.8306 5.2075 60.7226 5.7115 60.5066 6.1915C60.2906 6.6715 59.9966 7.0855 59.6246 7.4335C59.2406 7.7935 58.8026 8.0815 58.3106 8.2975C57.8186 8.5015 57.2906 8.6035 56.7266 8.6035C56.1626 8.6035 55.6346 8.5015 55.1426 8.2975C54.6506 8.0815 54.2126 7.7935 53.8286 7.4335C53.4566 7.0855 53.1626 6.6715 52.9466 6.1915C52.7306 5.7115 52.6226 5.2075 52.6226 4.6795C52.6226 4.1515 52.7306 3.6475 52.9466 3.1675C53.1626 2.6875 53.4566 2.2735 53.8286 1.9255C54.2126 1.5655 54.6506 1.2835 55.1426 1.0795C55.6346 0.863499 56.1626 0.755499 56.7266 0.755499C57.2906 0.755499 57.8186 0.863499 58.3106 1.0795C58.8026 1.2835 59.2406 1.5655 59.6246 1.9255C59.9966 2.2735 60.2906 2.6875 60.5066 3.1675C60.7226 3.6475 60.8306 4.1515 60.8306 4.6795ZM59.3366 4.6795C59.3366 4.3075 59.2646 3.9655 59.1206 3.6535C58.9766 3.3295 58.7846 3.0535 58.5446 2.8255C58.3166 2.5855 58.0466 2.3935 57.7346 2.2495C57.4226 2.1055 57.0866 2.0335 56.7266 2.0335C56.3666 2.0335 56.0306 2.1055 55.7186 2.2495C55.4066 2.3935 55.1306 2.5855 54.8906 2.8255C54.6626 3.0535 54.4766 3.3295 54.3326 3.6535C54.1886 3.9655 54.1166 4.3075 54.1166 4.6795C54.1166 5.0515 54.1886 5.3995 54.3326 5.7235C54.4766 6.0355 54.6626 6.3115 54.8906 6.5515C55.1306 6.7795 55.4066 6.9655 55.7186 7.1095C56.0306 7.2535 56.3666 7.3255 56.7266 7.3255C57.0866 7.3255 57.4226 7.2535 57.7346 7.1095C58.0466 6.9655 58.3166 6.7795 58.5446 6.5515C58.7846 6.3115 58.9766 6.0355 59.1206 5.7235C59.2646 5.3995 59.3366 5.0515 59.3366 4.6795ZM64.3406 0.233499V15.5155H62.8106V12.0775C61.5146 12.2695 59.7986 12.3655 57.6626 12.3655H51.6506V11.0335H57.6446C59.7326 11.0335 61.4546 10.9495 62.8106 10.7815V0.233499H64.3406ZM77.5134 1.5295H81.1134C82.3014 1.5295 83.2254 1.6735 83.8854 1.9615C84.3174 2.1415 84.6894 2.3995 85.0014 2.7355C85.6014 3.4075 85.9014 4.2295 85.9014 5.2015C85.9014 6.1615 85.6014 6.9775 85.0014 7.6495C84.6894 7.9855 84.3174 8.2435 83.8854 8.4235C83.2494 8.6875 82.2774 8.8195 80.9694 8.8195H79.0974V13.3195H77.5134V1.5295ZM79.0974 7.4875H81.5454C82.4334 7.4875 83.1174 7.2655 83.5974 6.8215C84.0654 6.4015 84.2994 5.8615 84.2994 5.2015C84.2994 4.5175 84.0654 3.9655 83.5974 3.5455C83.1174 3.0895 82.4334 2.8615 81.5454 2.8615H79.0974V7.4875ZM89.7589 11.9875H95.7709V13.3195H88.1749V1.5295H95.6449V2.8615H89.7589V6.6415H95.0869V7.9555H89.7589V11.9875ZM104.649 13.3195H103.587L99.6268 3.2755V13.3195H98.1508V1.5295H100.221L104.127 11.0875L107.997 1.5295H110.085V13.3195H108.591V3.2755L104.649 13.3195ZM124.98 10.6555V15.8035H123.468V10.6555H117.438V9.3235H131.01V10.6555H124.98ZM124.998 1.6735C124.998 2.7415 125.496 3.6835 126.492 4.4995C127.536 5.3635 128.754 6.0295 130.146 6.4975L129.354 7.5595C127.842 7.0915 126.534 6.3775 125.43 5.4175C124.938 4.9975 124.536 4.5415 124.224 4.0495C123.912 4.5415 123.51 4.9975 123.018 5.4175C121.914 6.3775 120.606 7.0915 119.094 7.5595L118.302 6.4975C119.694 6.0295 120.912 5.3635 121.956 4.4995C122.952 3.6835 123.45 2.7415 123.45 1.6735V0.2875H124.998V1.6735ZM145.303 0.233499V11.3035H143.791V5.6515H140.965V4.3195H143.791V0.233499H145.303ZM145.771 15.5155H135.997V10.9615H137.545V14.1835H145.771V15.5155ZM136.447 3.3475V2.1955H133.279V0.845499H141.325V2.1955H137.995V3.4375C137.995 4.5055 138.355 5.4415 139.075 6.2455C139.927 7.2055 140.845 7.9135 141.829 8.3695L141.019 9.3955C139.759 8.7595 138.685 7.9495 137.797 6.9655C137.581 6.7255 137.395 6.4795 137.239 6.2275C137.071 6.5275 136.873 6.8155 136.645 7.0915C135.805 8.1475 134.809 8.9875 133.657 9.6115L132.703 8.6395C133.759 8.0755 134.701 7.2775 135.529 6.2455C136.141 5.4775 136.447 4.5115 136.447 3.3475ZM150.938 1.8895V0.233499H152.558V1.8895H155.672V3.1135H153.872C154.088 3.2575 154.286 3.4195 154.466 3.5995C154.814 3.9475 155.09 4.3555 155.294 4.8235C155.498 5.2915 155.6 5.7895 155.6 6.3175C155.6 6.8455 155.498 7.3435 155.294 7.8115C155.09 8.2795 154.814 8.6875 154.466 9.0355C154.118 9.3835 153.71 9.6595 153.242 9.8635C152.774 10.0675 152.276 10.1695 151.748 10.1695C151.22 10.1695 150.722 10.0675 150.254 9.8635C149.786 9.6595 149.378 9.3835 149.03 9.0355C148.682 8.6875 148.406 8.2795 148.202 7.8115C147.998 7.3435 147.896 6.8455 147.896 6.3175C147.896 5.7895 147.998 5.2915 148.202 4.8235C148.406 4.3555 148.682 3.9475 149.03 3.5995C149.21 3.4195 149.408 3.2575 149.624 3.1135H147.77V1.8895H150.938ZM154.25 6.2815C154.25 5.9335 154.184 5.6035 154.052 5.2915C153.92 4.9795 153.74 4.7035 153.512 4.4635C153.284 4.2355 153.02 4.0555 152.72 3.9235C152.42 3.7795 152.102 3.7075 151.766 3.7075C151.43 3.7075 151.112 3.7795 150.812 3.9235C150.512 4.0555 150.248 4.2355 150.02 4.4635C149.792 4.7035 149.612 4.9795 149.48 5.2915C149.348 5.6035 149.282 5.9335 149.282 6.2815C149.282 6.6295 149.348 6.9595 149.48 7.2715C149.612 7.5835 149.792 7.8595 150.02 8.0995C150.248 8.3275 150.512 8.5135 150.812 8.6575C151.112 8.7895 151.43 8.8555 151.766 8.8555C152.102 8.8555 152.42 8.7895 152.72 8.6575C153.02 8.5135 153.284 8.3275 153.512 8.0995C153.74 7.8595 153.92 7.5835 154.052 7.2715C154.184 6.9595 154.25 6.6295 154.25 6.2815ZM160.136 0.233499H161.522V15.5155H160.136V6.2275H158.372V15.5155H156.986V0.233499H158.372V4.8955H160.136V0.233499ZM179.449 0.233499H180.961V15.5155H179.449V0.233499ZM176.299 0.935499C176.299 3.4675 175.627 5.7175 174.283 7.6855C173.107 9.4615 171.577 10.9495 169.693 12.1495L168.667 11.0875C170.443 10.0195 171.871 8.6695 172.951 7.0375C173.983 5.5495 174.535 3.9595 174.607 2.2675H169.387V0.935499H176.299ZM183.771 6.6235H197.343V7.8475H191.331V9.3595H195.615V13.0495H187.011V14.2915H195.795V15.5155H185.499V11.8255H194.103V10.5835H185.499V9.3595H189.783V7.8475H183.771V6.6235ZM191.313 1.0255C191.313 1.7215 191.907 2.4895 193.095 3.3295C193.983 3.9295 195.123 4.3675 196.515 4.6435L195.849 5.7415C194.337 5.4295 193.011 4.8835 191.871 4.1035C191.319 3.7195 190.881 3.3235 190.557 2.9155C190.233 3.3235 189.795 3.7195 189.243 4.1035C188.103 4.8835 186.777 5.4295 185.265 5.7415L184.599 4.6435C185.991 4.3675 187.131 3.9295 188.019 3.3295C189.207 2.4895 189.801 1.7215 189.801 1.0255V0.161499H191.313V1.0255ZM210.412 4.1755C210.412 4.7515 210.292 5.2915 210.052 5.7955C209.812 6.2995 209.482 6.7375 209.062 7.1095C208.822 7.3495 208.552 7.5535 208.252 7.7215H212.68V9.0535H199.108V7.7215H203.536C203.236 7.5535 202.96 7.3495 202.708 7.1095C202.3 6.7375 201.976 6.2995 201.736 5.7955C201.496 5.2915 201.376 4.7515 201.376 4.1755C201.376 3.5995 201.496 3.0595 201.736 2.5555C201.976 2.0515 202.3 1.6135 202.708 1.2415C203.116 0.857499 203.59 0.557499 204.13 0.341499C204.682 0.113499 205.27 -0.000500798 205.894 -0.000500798C206.506 -0.000500798 207.088 0.113499 207.64 0.341499C208.192 0.557499 208.666 0.857499 209.062 1.2415C209.482 1.6135 209.812 2.0515 210.052 2.5555C210.292 3.0595 210.412 3.5995 210.412 4.1755ZM208.9 4.2655C208.9 3.8695 208.816 3.4975 208.648 3.1495C208.492 2.7895 208.282 2.4775 208.018 2.2135C207.742 1.9495 207.424 1.7395 207.064 1.5835C206.704 1.4275 206.314 1.3495 205.894 1.3495C205.474 1.3495 205.084 1.4275 204.724 1.5835C204.364 1.7395 204.046 1.9495 203.77 2.2135C203.506 2.4775 203.29 2.7895 203.122 3.1495C202.966 3.4975 202.888 3.8695 202.888 4.2655C202.888 4.6615 202.966 5.0395 203.122 5.3995C203.29 5.7475 203.506 6.0535 203.77 6.3175C204.046 6.5815 204.364 6.7915 204.724 6.9475C205.084 7.1035 205.474 7.1815 205.894 7.1815C206.314 7.1815 206.704 7.1035 207.064 6.9475C207.424 6.7915 207.742 6.5815 208.018 6.3175C208.282 6.0535 208.492 5.7475 208.648 5.3995C208.816 5.0395 208.9 4.6615 208.9 4.2655ZM211.222 15.5155H200.926V11.0335H202.474V14.1475H211.222V15.5155ZM227.997 4.6615C227.997 5.1895 227.889 5.6935 227.673 6.1735H230.445V3.1675H227.691C227.895 3.6475 227.997 4.1455 227.997 4.6615ZM226.809 7.4335C226.797 7.4575 226.779 7.4755 226.755 7.4875C226.359 7.8595 225.909 8.1535 225.405 8.3695C224.901 8.5735 224.355 8.6755 223.767 8.6755C223.179 8.6755 222.633 8.5735 222.129 8.3695C221.625 8.1535 221.175 7.8595 220.779 7.4875C220.395 7.1275 220.089 6.7015 219.861 6.2095C219.645 5.7175 219.537 5.2015 219.537 4.6615C219.537 4.1215 219.645 3.6055 219.861 3.1135C220.089 2.6215 220.395 2.1955 220.779 1.8355C221.175 1.4635 221.625 1.1755 222.129 0.9715C222.633 0.755499 223.179 0.647499 223.767 0.647499C224.355 0.647499 224.901 0.755499 225.405 0.9715C225.909 1.1755 226.359 1.4635 226.755 1.8355L226.827 1.9075H230.445V0.233499H231.957V11.3035H230.445V7.4335H226.809ZM226.485 4.6615C226.485 4.2895 226.413 3.9415 226.269 3.6175C226.125 3.2935 225.927 3.0115 225.675 2.7715C225.435 2.5195 225.147 2.3215 224.811 2.1775C224.475 2.0335 224.127 1.9615 223.767 1.9615C223.407 1.9615 223.059 2.0335 222.723 2.1775C222.387 2.3215 222.099 2.5195 221.859 2.7715C221.607 3.0115 221.409 3.2935 221.265 3.6175C221.121 3.9415 221.049 4.2895 221.049 4.6615C221.049 5.0335 221.121 5.3815 221.265 5.7055C221.409 6.0295 221.607 6.3175 221.859 6.5695C222.099 6.8095 222.387 7.0015 222.723 7.1455C223.059 7.2895 223.407 7.3615 223.767 7.3615C224.127 7.3615 224.475 7.2895 224.811 7.1455C225.147 7.0015 225.435 6.8095 225.675 6.5695C225.927 6.3175 226.125 6.0295 226.269 5.7055C226.413 5.3815 226.485 5.0335 226.485 4.6615ZM232.425 15.5155H222.651V10.8175H224.181V14.1655H232.425V15.5155ZM244.324 8.2795C244.696 6.6475 244.882 4.9915 244.882 3.3115V2.2495H236.278V0.935499H246.394V3.3115C246.394 4.9795 246.196 6.6355 245.8 8.2795H248.338V9.5935H242.2V15.8035H240.688V9.5935H234.766V8.2795H244.324ZM255.915 8.6755V0.845499H262.881V2.2135H257.427V7.3255H260.127C262.095 7.3255 263.817 7.2055 265.293 6.9655V0.233499H266.805V4.3735H268.965V5.7415H266.805V11.3035H265.293V8.3155C263.841 8.5555 262.155 8.6755 260.235 8.6755H255.915ZM267.255 15.5155H257.499V10.8715H259.047V14.1655H267.255V15.5155ZM281.981 0.233499H283.421V15.5155H281.981V0.233499ZM276.725 0.935499C276.725 1.6915 276.683 2.4115 276.599 3.0955H278.831V0.233499H280.253V15.5155H278.831V8.8015H276.329V7.4515H278.831V4.4455H276.365C276.089 5.6455 275.669 6.7315 275.105 7.7035C273.977 9.6355 272.711 11.1415 271.307 12.2215L270.209 11.2855C271.541 10.2775 272.735 8.8735 273.791 7.0735C274.643 5.6335 275.075 4.0315 275.087 2.2675H270.947V0.935499H276.725ZM293.196 5.9215C293.136 6.2215 293.052 6.5035 292.944 6.7675C292.728 7.2595 292.44 7.6855 292.08 8.0455C291.696 8.4175 291.258 8.7115 290.766 8.9275C290.286 9.1435 289.77 9.2515 289.218 9.2515C288.666 9.2515 288.144 9.1435 287.652 8.9275C287.172 8.7115 286.74 8.4175 286.356 8.0455C285.996 7.6855 285.708 7.2655 285.492 6.7855C285.288 6.2935 285.186 5.7655 285.186 5.2015C285.186 4.6375 285.288 4.1155 285.492 3.6355C285.708 3.1435 285.996 2.7175 286.356 2.3575C286.74 1.9855 287.172 1.6915 287.652 1.4755C288.144 1.2595 288.666 1.1515 289.218 1.1515C289.77 1.1515 290.286 1.2595 290.766 1.4755C291.258 1.6915 291.696 1.9855 292.08 2.3575C292.44 2.7175 292.728 3.1375 292.944 3.6175C293.052 3.8935 293.136 4.1815 293.196 4.4815H294.762V0.233499H296.166V15.5155H294.762V5.9215H293.196ZM291.828 5.2015C291.828 4.8415 291.762 4.4935 291.63 4.1575C291.498 3.8215 291.318 3.5335 291.09 3.2935C290.85 3.0415 290.568 2.8435 290.244 2.6995C289.932 2.5435 289.59 2.4655 289.218 2.4655C288.846 2.4655 288.504 2.5435 288.192 2.6995C287.88 2.8435 287.604 3.0415 287.364 3.2935C287.136 3.5335 286.95 3.8215 286.806 4.1575C286.674 4.4935 286.608 4.8415 286.608 5.2015C286.608 5.5615 286.674 5.9095 286.806 6.2455C286.95 6.5815 287.136 6.8695 287.364 7.1095C287.604 7.3615 287.88 7.5655 288.192 7.7215C288.504 7.8655 288.846 7.9375 289.218 7.9375C289.59 7.9375 289.932 7.8655 290.244 7.7215C290.568 7.5655 290.85 7.3615 291.09 7.1095C291.318 6.8695 291.498 6.5815 291.63 6.2455C291.762 5.9095 291.828 5.5615 291.828 5.2015ZM297.804 0.233499H299.244V15.5155H297.804V0.233499ZM312.509 2.2675H308.639V10.2415H312.509V2.2675ZM314.003 11.5915H307.145V0.917499H314.003V5.2915H317.189V0.233499H318.701V15.5155H317.189V6.6235H314.003V11.5915ZM331.752 2.1415H324.66V5.7955H331.752V2.1415ZM323.148 0.8095H333.264V7.1275H323.148V0.8095ZM328.962 10.6555V15.8035H327.45V10.6555H321.42V9.3235H334.992V10.6555H328.962ZM348.691 10.1155H338.485V4.8415H347.089V2.2495H338.485V0.917499H348.601V6.1555H339.997V8.7835H348.691V10.1155ZM350.329 12.5995V13.9315H336.757V12.5995H350.329ZM363.111 0.233499H364.623V15.5155H363.111V0.233499ZM355.929 3.8695V2.2675H352.617V0.917499H360.681V2.2675H357.477V3.8335C357.465 5.3335 357.819 6.6535 358.539 7.7935C359.223 8.8855 360.129 9.9115 361.257 10.8715L360.339 11.8075C359.163 10.8355 358.101 9.6235 357.153 8.1715C356.997 7.9315 356.853 7.6915 356.721 7.4515C356.565 7.8115 356.373 8.1595 356.145 8.4955C355.161 9.9955 354.075 11.1535 352.887 11.9695L351.879 10.9975C353.007 10.2415 353.997 9.1915 354.849 7.8475C355.569 6.6955 355.929 5.3695 355.929 3.8695ZM380.336 4.0315C380.336 4.5115 380.228 4.9735 380.012 5.4175C379.808 5.8615 379.532 6.2455 379.184 6.5695C378.824 6.8935 378.404 7.1515 377.924 7.3435C377.444 7.5355 376.928 7.6315 376.376 7.6315C375.824 7.6315 375.308 7.5355 374.828 7.3435C374.348 7.1515 373.928 6.8935 373.568 6.5695C373.22 6.2455 372.938 5.8615 372.722 5.4175C372.518 4.9735 372.416 4.5115 372.416 4.0315C372.416 3.5515 372.518 3.0895 372.722 2.6455C372.938 2.2015 373.22 1.8175 373.568 1.4935C373.928 1.1695 374.348 0.911499 374.828 0.7195C375.308 0.527499 375.824 0.431499 376.376 0.431499C376.928 0.431499 377.444 0.527499 377.924 0.7195C378.404 0.911499 378.824 1.1695 379.184 1.4935C379.532 1.8175 379.808 2.2015 380.012 2.6455C380.228 3.0895 380.336 3.5515 380.336 4.0315ZM378.824 4.0315C378.824 3.3955 378.584 2.8495 378.104 2.3935C377.624 1.9375 377.048 1.7095 376.376 1.7095C375.704 1.7095 375.128 1.9375 374.648 2.3935C374.168 2.8495 373.928 3.3955 373.928 4.0315C373.928 4.6675 374.168 5.2135 374.648 5.6695C375.128 6.1255 375.704 6.3535 376.376 6.3535C377.048 6.3535 377.624 6.1255 378.104 5.6695C378.584 5.2135 378.824 4.6675 378.824 4.0315ZM384.134 0.233499V3.3475H386.294V4.6795H384.134V7.8475H382.622V0.233499H384.134ZM378.23 14.2555V15.5155H373.964V9.3235H375.44V14.2555H378.23ZM385.448 11.3215H383.756L383.972 11.5015C384.236 11.7535 384.446 12.0535 384.602 12.4015C384.77 12.7375 384.854 13.0915 384.854 13.4635C384.854 13.8355 384.77 14.1955 384.602 14.5435C384.446 14.8795 384.236 15.1735 383.972 15.4255C383.696 15.6775 383.378 15.8755 383.018 16.0195C382.658 16.1755 382.274 16.2535 381.866 16.2535C381.458 16.2535 381.074 16.1755 380.714 16.0195C380.354 15.8755 380.036 15.6775 379.76 15.4255C379.496 15.1735 379.28 14.8795 379.112 14.5435C378.956 14.1955 378.878 13.8355 378.878 13.4635C378.878 13.0915 378.956 12.7375 379.112 12.4015C379.28 12.0535 379.496 11.7535 379.76 11.5015L379.976 11.3215H378.266V10.1875H381.128V8.8195H382.622V10.1875H385.448V11.3215ZM383.522 13.3915C383.522 12.9235 383.36 12.5275 383.036 12.2035C382.712 11.8675 382.322 11.6995 381.866 11.6995C381.41 11.6995 381.02 11.8675 380.696 12.2035C380.372 12.5275 380.21 12.9235 380.21 13.3915C380.21 13.8595 380.372 14.2615 380.696 14.5975C381.02 14.9215 381.41 15.0835 381.866 15.0835C382.322 15.0835 382.712 14.9215 383.036 14.5975C383.36 14.2615 383.522 13.8595 383.522 13.3915ZM399.579 1.0615V4.5535C399.579 6.6655 399.369 8.6215 398.949 10.4215H397.491C397.875 8.6575 398.067 6.8335 398.067 4.9495V2.3935H389.283V1.0615H399.579ZM401.325 12.4375V13.7695H387.753V12.4375H392.397V6.4615H393.909V12.4375H401.325ZM403.882 16.0375C404.674 15.7135 405.07 15.0355 405.07 14.0035H403.846V11.9155H406.042V13.8055C406.042 15.2815 405.448 16.2295 404.26 16.6495L403.882 16.0375ZM12.6545 31.2335V38.8475H11.1425V31.2335H12.6545ZM12.8525 46.5155H3.16845V42.6455H11.1425V41.1875H3.16845V39.9815H12.6545V43.8515H4.68045V45.3095H12.8525V46.5155ZM5.31045 32.8175C5.31045 33.9455 5.65845 34.9235 6.35445 35.7515C7.00245 36.5075 7.86045 37.1195 8.92845 37.5875L8.10045 38.6315C6.97245 38.1515 5.98245 37.4255 5.13045 36.4535C4.91445 36.2135 4.72845 35.9555 4.57245 35.6795C4.39245 36.0035 4.17645 36.3095 3.92445 36.5975C3.09645 37.5575 2.10045 38.2895 0.936453 38.7935L0.000453144 37.8035C1.08045 37.3355 1.97445 36.6995 2.68245 35.8955C3.40245 35.0915 3.76245 34.0655 3.76245 32.8175V31.5395H5.31045V32.8175ZM27.0557 31.2335H28.5317V46.5155H27.0557V31.2335ZM25.2917 46.5155H23.8517V37.2995H21.6197V35.9315H23.8517V31.2335H25.2917V46.5155ZM18.2897 33.2495H15.6077V31.9175H22.0877V33.2495H19.7477V35.3735C19.7477 36.9695 20.0357 38.2775 20.6117 39.2975C21.2237 40.3895 21.9437 41.2475 22.7717 41.8715L21.9077 42.7895C20.8877 42.0095 20.0417 40.9895 19.3697 39.7295C19.2497 39.5135 19.1417 39.2915 19.0457 39.0635C18.9377 39.3155 18.8117 39.5615 18.6677 39.8015C17.7677 41.3615 16.9217 42.4295 16.1297 43.0055L15.1037 42.1235C15.9797 41.4515 16.7537 40.4915 17.4257 39.2435C18.0017 38.1635 18.2897 36.8675 18.2897 35.3555V33.2495ZM39.4387 32.5475V30.9815H41.1667V32.5475H44.7127V33.8255H42.4987C42.7027 33.9575 42.8887 34.1015 43.0567 34.2575C43.4047 34.5815 43.6807 34.9715 43.8847 35.4275C44.1007 35.8835 44.2087 36.3575 44.2087 36.8495C44.2087 37.3415 44.1007 37.8095 43.8847 38.2535C43.6807 38.6975 43.4047 39.0815 43.0567 39.4055C42.6967 39.7415 42.2827 40.0055 41.8147 40.1975C41.3467 40.3895 40.8427 40.4855 40.3027 40.4855C39.7627 40.4855 39.2587 40.3895 38.7907 40.1975C38.3227 40.0055 37.9087 39.7415 37.5487 39.4055C37.2007 39.0815 36.9187 38.6975 36.7027 38.2535C36.4987 37.8095 36.3967 37.3415 36.3967 36.8495C36.3967 36.3575 36.4987 35.8835 36.7027 35.4275C36.9187 34.9715 37.2007 34.5815 37.5487 34.2575C37.7167 34.1015 37.9027 33.9575 38.1067 33.8255H35.8927V32.5475H39.4387ZM42.7147 36.7595C42.7147 36.1115 42.4747 35.5475 41.9947 35.0675C41.5267 34.5755 40.9627 34.3295 40.3027 34.3295C39.6427 34.3295 39.0727 34.5755 38.5927 35.0675C38.1247 35.5475 37.8907 36.1115 37.8907 36.7595C37.8907 37.4075 38.1247 37.9715 38.5927 38.4515C39.0727 38.9195 39.6427 39.1535 40.3027 39.1535C40.9627 39.1535 41.5267 38.9195 41.9947 38.4515C42.4747 37.9715 42.7147 37.4075 42.7147 36.7595ZM46.8007 35.6795H44.8027V34.2755H46.8007V31.2335H48.3127V42.4835H46.8007V39.4055H44.8027V38.0015H46.8007V35.6795ZM48.8527 46.5155H38.8267V42.0515H40.4467V45.1655H48.8527V46.5155ZM62.84 31.2335V34.7615H65V36.1295H62.84V39.8555H61.328V31.2335H62.84ZM62.84 43.7255C62.84 44.2055 62.732 44.6675 62.516 45.1115C62.312 45.5555 62.036 45.9395 61.688 46.2635C61.328 46.5875 60.908 46.8455 60.428 47.0375C59.948 47.2295 59.432 47.3255 58.88 47.3255C58.328 47.3255 57.812 47.2295 57.332 47.0375C56.852 46.8455 56.432 46.5875 56.072 46.2635C55.724 45.9395 55.442 45.5555 55.226 45.1115C55.022 44.6675 54.92 44.2055 54.92 43.7255C54.92 43.2455 55.022 42.7835 55.226 42.3395C55.442 41.8955 55.724 41.5115 56.072 41.1875C56.432 40.8635 56.852 40.6055 57.332 40.4135C57.812 40.2215 58.328 40.1255 58.88 40.1255C59.432 40.1255 59.948 40.2215 60.428 40.4135C60.908 40.6055 61.328 40.8635 61.688 41.1875C62.036 41.5115 62.312 41.8955 62.516 42.3395C62.732 42.7835 62.84 43.2455 62.84 43.7255ZM61.328 43.7255C61.328 43.0895 61.088 42.5435 60.608 42.0875C60.128 41.6315 59.552 41.4035 58.88 41.4035C58.208 41.4035 57.632 41.6315 57.152 42.0875C56.672 42.5435 56.432 43.0895 56.432 43.7255C56.432 44.3615 56.672 44.9075 57.152 45.3635C57.632 45.8195 58.208 46.0475 58.88 46.0475C59.552 46.0475 60.128 45.8195 60.608 45.3635C61.088 44.9075 61.328 44.3615 61.328 43.7255ZM54.524 33.9875V33.1775H51.356V31.8455H59.402V33.1775H56.072V34.0775C56.072 35.0375 56.432 35.8775 57.152 36.5975C58.004 37.3535 58.916 37.9415 59.888 38.3615L59.132 39.4055C57.824 38.8295 56.738 38.1035 55.874 37.2275C55.67 37.0115 55.496 36.7895 55.352 36.5615C55.184 36.8375 54.986 37.1135 54.758 37.3895C53.882 38.4215 52.874 39.2375 51.734 39.8375L50.798 38.8115C51.782 38.3795 52.724 37.6475 53.624 36.6155C54.224 35.9075 54.524 35.0315 54.524 33.9875ZM73.8933 36.9215C73.8333 37.2215 73.7493 37.5035 73.6413 37.7675C73.4253 38.2595 73.1373 38.6855 72.7773 39.0455C72.3933 39.4175 71.9553 39.7115 71.4633 39.9275C70.9833 40.1435 70.4673 40.2515 69.9153 40.2515C69.3633 40.2515 68.8413 40.1435 68.3493 39.9275C67.8693 39.7115 67.4373 39.4175 67.0533 39.0455C66.6933 38.6855 66.4053 38.2655 66.1893 37.7855C65.9853 37.2935 65.8833 36.7655 65.8833 36.2015C65.8833 35.6375 65.9853 35.1155 66.1893 34.6355C66.4053 34.1435 66.6933 33.7175 67.0533 33.3575C67.4373 32.9855 67.8693 32.6915 68.3493 32.4755C68.8413 32.2595 69.3633 32.1515 69.9153 32.1515C70.4673 32.1515 70.9833 32.2595 71.4633 32.4755C71.9553 32.6915 72.3933 32.9855 72.7773 33.3575C73.1373 33.7175 73.4253 34.1375 73.6413 34.6175C73.7493 34.8935 73.8333 35.1815 73.8933 35.4815H75.4593V31.2335H76.8633V46.5155H75.4593V36.9215H73.8933ZM72.5253 36.2015C72.5253 35.8415 72.4593 35.4935 72.3273 35.1575C72.1953 34.8215 72.0153 34.5335 71.7873 34.2935C71.5473 34.0415 71.2653 33.8435 70.9413 33.6995C70.6293 33.5435 70.2873 33.4655 69.9153 33.4655C69.5433 33.4655 69.2013 33.5435 68.8893 33.6995C68.5773 33.8435 68.3013 34.0415 68.0613 34.2935C67.8333 34.5335 67.6473 34.8215 67.5033 35.1575C67.3713 35.4935 67.3053 35.8415 67.3053 36.2015C67.3053 36.5615 67.3713 36.9095 67.5033 37.2455C67.6473 37.5815 67.8333 37.8695 68.0613 38.1095C68.3013 38.3615 68.5773 38.5655 68.8893 38.7215C69.2013 38.8655 69.5433 38.9375 69.9153 38.9375C70.2873 38.9375 70.6293 38.8655 70.9413 38.7215C71.2653 38.5655 71.5473 38.3615 71.7873 38.1095C72.0153 37.8695 72.1953 37.5815 72.3273 37.2455C72.4593 36.9095 72.5253 36.5615 72.5253 36.2015ZM78.5013 31.2335H79.9413V46.5155H78.5013V31.2335ZM92.9025 31.2335H94.4145V46.5155H92.9025V37.2815H89.4285V35.9675H92.9025V31.2335ZM86.7825 34.0415C86.7825 35.8535 87.1365 37.3595 87.8445 38.5595C88.5165 39.6875 89.4885 40.7675 90.7605 41.7995L89.7705 42.7895C88.4985 41.7695 87.3885 40.5035 86.4405 38.9915C86.2845 38.7515 86.1465 38.4995 86.0265 38.2355C85.8945 38.5355 85.7445 38.8235 85.5765 39.0995C84.5685 40.7075 83.4345 41.9675 82.1745 42.8795L81.1845 41.9075C82.3725 41.0555 83.4225 39.8735 84.3345 38.3615C84.9345 37.3895 85.2345 35.9495 85.2345 34.0415V31.6835H86.7825V34.0415ZM114.646 31.2335V39.6215H113.134V36.4715H109.912V35.1575H113.134V31.2335H114.646ZM113.134 42.2135H106.654V45.2375H113.134V42.2135ZM114.646 46.5155H105.16V40.9355H114.646V46.5155ZM109.84 31.8635C109.84 34.1435 109.078 35.9675 107.554 37.3355C106.174 38.5715 104.65 39.3755 102.982 39.7475L102.28 38.7215C103.828 38.2895 105.13 37.6295 106.186 36.7415C107.41 35.7215 108.064 34.5275 108.148 33.1595H103.234V31.8635H109.84ZM131.027 39.1535V40.4675H126.635C126.815 40.5875 126.989 40.7255 127.157 40.8815C127.529 41.2175 127.823 41.6195 128.039 42.0875C128.255 42.5435 128.363 43.0295 128.363 43.5455C128.363 44.0615 128.255 44.5535 128.039 45.0215C127.823 45.4775 127.529 45.8735 127.157 46.2095C126.785 46.5575 126.347 46.8275 125.843 47.0195C125.339 47.2235 124.805 47.3255 124.241 47.3255C123.677 47.3255 123.143 47.2235 122.639 47.0195C122.135 46.8275 121.697 46.5575 121.325 46.2095C120.953 45.8735 120.659 45.4775 120.443 45.0215C120.227 44.5535 120.119 44.0615 120.119 43.5455C120.119 43.0295 120.227 42.5435 120.443 42.0875C120.659 41.6195 120.953 41.2175 121.325 40.8815C121.493 40.7255 121.667 40.5875 121.847 40.4675H117.455V39.1535H131.027ZM126.851 43.5095C126.851 42.8135 126.593 42.2195 126.077 41.7275C125.561 41.2355 124.949 40.9895 124.241 40.9895C123.533 40.9895 122.921 41.2355 122.405 41.7275C121.889 42.2195 121.631 42.8135 121.631 43.5095C121.631 44.2055 121.889 44.7995 122.405 45.2915C122.921 45.7835 123.533 46.0295 124.241 46.0295C124.949 46.0295 125.561 45.7835 126.077 45.2915C126.593 44.7995 126.851 44.2055 126.851 43.5095ZM123.431 32.9435H119.075V31.6295H129.407V32.9435H125.051V33.3215C125.051 34.1015 125.777 34.8815 127.229 35.6615C128.045 36.0815 129.017 36.3875 130.145 36.5795L129.533 37.6955C128.105 37.4435 126.809 36.9635 125.645 36.2555C125.057 35.9075 124.589 35.5415 124.241 35.1575C123.893 35.5415 123.425 35.9075 122.837 36.2555C121.673 36.9635 120.377 37.4435 118.949 37.6955L118.337 36.5795C119.465 36.3875 120.437 36.0815 121.253 35.6615C122.705 34.8815 123.431 34.1015 123.431 33.3215V32.9435ZM136.554 32.8715V31.2335H138.21V32.8715H141.99V34.0955H139.632C139.896 34.2635 140.13 34.4495 140.334 34.6535C140.718 35.0375 141.018 35.4815 141.234 35.9855C141.462 36.4895 141.576 37.0295 141.576 37.6055C141.576 38.1815 141.462 38.7215 141.234 39.2255C141.018 39.7295 140.718 40.1735 140.334 40.5575C139.962 40.9295 139.518 41.2295 139.002 41.4575C138.498 41.6735 137.958 41.7815 137.382 41.7815C136.806 41.7815 136.26 41.6735 135.744 41.4575C135.24 41.2295 134.802 40.9295 134.43 40.5575C134.046 40.1735 133.74 39.7295 133.512 39.2255C133.296 38.7215 133.188 38.1815 133.188 37.6055C133.188 37.0295 133.296 36.4895 133.512 35.9855C133.74 35.4815 134.046 35.0375 134.43 34.6535C134.634 34.4495 134.868 34.2635 135.132 34.0955H132.756V32.8715H136.554ZM140.118 37.5515C140.118 37.1555 140.046 36.7835 139.902 36.4355C139.758 36.0755 139.56 35.7635 139.308 35.4995C139.056 35.2355 138.762 35.0255 138.426 34.8695C138.102 34.7135 137.754 34.6355 137.382 34.6355C137.01 34.6355 136.656 34.7135 136.32 34.8695C135.996 35.0255 135.708 35.2355 135.456 35.4995C135.204 35.7635 135.006 36.0755 134.862 36.4355C134.718 36.7835 134.646 37.1555 134.646 37.5515C134.646 37.9475 134.718 38.3255 134.862 38.6855C135.006 39.0335 135.204 39.3395 135.456 39.6035C135.708 39.8675 135.996 40.0775 136.32 40.2335C136.656 40.3895 137.01 40.4675 137.382 40.4675C137.754 40.4675 138.102 40.3895 138.426 40.2335C138.762 40.0775 139.056 39.8675 139.308 39.6035C139.56 39.3395 139.758 39.0335 139.902 38.6855C140.046 38.3255 140.118 37.9475 140.118 37.5515ZM144.978 31.2335V35.8415H146.94V37.2815H144.978V46.5155H143.502V31.2335H144.978ZM154.555 33.2675H150.685V41.2415H154.555V33.2675ZM156.049 42.5915H149.191V31.9175H156.049V34.3115H159.235V31.2335H160.747V46.5155H159.235V40.1075H156.049V42.5915ZM156.049 35.6075V38.8115H159.235V35.6075H156.049ZM172.212 32.2595V30.9635H173.976V32.2595H177.468V33.3755H175.452C175.488 33.3995 175.518 33.4235 175.542 33.4475C175.854 33.7235 176.1 34.0535 176.28 34.4375C176.46 34.8095 176.55 35.1935 176.55 35.5895C176.55 35.9855 176.46 36.3695 176.28 36.7415C176.1 37.1015 175.854 37.4195 175.542 37.6955C175.23 37.9715 174.864 38.1875 174.444 38.3435C174.252 38.4155 174.06 38.4695 173.868 38.5055V39.7295H174.12C175.992 39.7295 177.612 39.6515 178.98 39.4955V31.2335H180.492V35.5175H182.652V36.8495H180.492V41.3495H178.98V40.6655C177.672 40.8335 176.058 40.9175 174.138 40.9175H168.126V39.7295H172.392V38.5235C172.164 38.4755 171.948 38.4155 171.744 38.3435C171.324 38.1875 170.958 37.9715 170.646 37.6955C170.334 37.4195 170.088 37.1015 169.908 36.7415C169.728 36.3695 169.638 35.9855 169.638 35.5895C169.638 35.1935 169.728 34.8095 169.908 34.4375C170.088 34.0535 170.334 33.7235 170.646 33.4475C170.67 33.4235 170.7 33.3995 170.736 33.3755H168.558V32.2595H172.212ZM175.056 35.5355C175.056 35.0195 174.864 34.5755 174.48 34.2035C174.096 33.8195 173.634 33.6275 173.094 33.6275C172.554 33.6275 172.092 33.8195 171.708 34.2035C171.324 34.5755 171.132 35.0195 171.132 35.5355C171.132 36.0515 171.324 36.5015 171.708 36.8855C172.092 37.2575 172.554 37.4435 173.094 37.4435C173.634 37.4435 174.096 37.2575 174.48 36.8855C174.864 36.5015 175.056 36.0515 175.056 35.5355ZM170.43 42.5375H180.492V46.7135H178.998V43.7435H170.43V42.5375ZM195.506 31.2335V34.7615H197.666V36.1295H195.506V39.8555H193.994V31.2335H195.506ZM195.506 43.7255C195.506 44.2055 195.398 44.6675 195.182 45.1115C194.978 45.5555 194.702 45.9395 194.354 46.2635C193.994 46.5875 193.574 46.8455 193.094 47.0375C192.614 47.2295 192.098 47.3255 191.546 47.3255C190.994 47.3255 190.478 47.2295 189.998 47.0375C189.518 46.8455 189.098 46.5875 188.738 46.2635C188.39 45.9395 188.108 45.5555 187.892 45.1115C187.688 44.6675 187.586 44.2055 187.586 43.7255C187.586 43.2455 187.688 42.7835 187.892 42.3395C188.108 41.8955 188.39 41.5115 188.738 41.1875C189.098 40.8635 189.518 40.6055 189.998 40.4135C190.478 40.2215 190.994 40.1255 191.546 40.1255C192.098 40.1255 192.614 40.2215 193.094 40.4135C193.574 40.6055 193.994 40.8635 194.354 41.1875C194.702 41.5115 194.978 41.8955 195.182 42.3395C195.398 42.7835 195.506 43.2455 195.506 43.7255ZM193.994 43.7255C193.994 43.0895 193.754 42.5435 193.274 42.0875C192.794 41.6315 192.218 41.4035 191.546 41.4035C190.874 41.4035 190.298 41.6315 189.818 42.0875C189.338 42.5435 189.098 43.0895 189.098 43.7255C189.098 44.3615 189.338 44.9075 189.818 45.3635C190.298 45.8195 190.874 46.0475 191.546 46.0475C192.218 46.0475 192.794 45.8195 193.274 45.3635C193.754 44.9075 193.994 44.3615 193.994 43.7255ZM187.19 33.9875V33.1775H184.022V31.8455H192.068V33.1775H188.738V34.0775C188.738 35.0375 189.098 35.8775 189.818 36.5975C190.67 37.3535 191.582 37.9415 192.554 38.3615L191.798 39.4055C190.49 38.8295 189.404 38.1035 188.54 37.2275C188.336 37.0115 188.162 36.7895 188.018 36.5615C187.85 36.8375 187.652 37.1135 187.424 37.3895C186.548 38.4215 185.54 39.2375 184.4 39.8375L183.464 38.8115C184.448 38.3795 185.39 37.6475 186.29 36.6155C186.89 35.9075 187.19 35.0315 187.19 33.9875ZM202.887 32.8715V31.2335H204.543V32.8715H208.323V34.0955H205.965C206.229 34.2635 206.463 34.4495 206.667 34.6535C207.051 35.0375 207.351 35.4815 207.567 35.9855C207.795 36.4895 207.909 37.0295 207.909 37.6055C207.909 38.1815 207.795 38.7215 207.567 39.2255C207.351 39.7295 207.051 40.1735 206.667 40.5575C206.295 40.9295 205.851 41.2295 205.335 41.4575C204.831 41.6735 204.291 41.7815 203.715 41.7815C203.139 41.7815 202.593 41.6735 202.077 41.4575C201.573 41.2295 201.135 40.9295 200.763 40.5575C200.379 40.1735 200.073 39.7295 199.845 39.2255C199.629 38.7215 199.521 38.1815 199.521 37.6055C199.521 37.0295 199.629 36.4895 199.845 35.9855C200.073 35.4815 200.379 35.0375 200.763 34.6535C200.967 34.4495 201.201 34.2635 201.465 34.0955H199.089V32.8715H202.887ZM206.451 37.5515C206.451 37.1555 206.379 36.7835 206.235 36.4355C206.091 36.0755 205.893 35.7635 205.641 35.4995C205.389 35.2355 205.095 35.0255 204.759 34.8695C204.435 34.7135 204.087 34.6355 203.715 34.6355C203.343 34.6355 202.989 34.7135 202.653 34.8695C202.329 35.0255 202.041 35.2355 201.789 35.4995C201.537 35.7635 201.339 36.0755 201.195 36.4355C201.051 36.7835 200.979 37.1555 200.979 37.5515C200.979 37.9475 201.051 38.3255 201.195 38.6855C201.339 39.0335 201.537 39.3395 201.789 39.6035C202.041 39.8675 202.329 40.0775 202.653 40.2335C202.989 40.3895 203.343 40.4675 203.715 40.4675C204.087 40.4675 204.435 40.3895 204.759 40.2335C205.095 40.0775 205.389 39.8675 205.641 39.6035C205.893 39.3395 206.091 39.0335 206.235 38.6855C206.379 38.3255 206.451 37.9475 206.451 37.5515ZM211.311 31.2335V35.8415H213.273V37.2815H211.311V46.5155H209.835V31.2335H211.311ZM226.288 32.0615V35.5535C226.288 37.6655 226.078 39.6215 225.658 41.4215H224.2C224.584 39.6575 224.776 37.8335 224.776 35.9495V33.3935H215.992V32.0615H226.288ZM228.034 43.4375V44.7695H214.462V43.4375H219.106V37.4615H220.618V43.4375H228.034ZM242.991 35.3735C242.991 35.8895 242.883 36.3815 242.667 36.8495C242.451 37.3055 242.163 37.7015 241.803 38.0375C241.431 38.3855 240.999 38.6615 240.507 38.8655C240.027 39.0575 239.505 39.1535 238.941 39.1535C238.377 39.1535 237.849 39.0575 237.357 38.8655C236.877 38.6615 236.451 38.3855 236.079 38.0375C235.719 37.7015 235.431 37.3055 235.215 36.8495C234.999 36.3815 234.891 35.8895 234.891 35.3735C234.891 34.8575 234.999 34.3715 235.215 33.9155C235.431 33.4475 235.719 33.0455 236.079 32.7095C236.451 32.3615 236.877 32.0915 237.357 31.8995C237.849 31.6955 238.377 31.5935 238.941 31.5935C239.505 31.5935 240.027 31.6955 240.507 31.8995C240.999 32.0915 241.431 32.3615 241.803 32.7095C242.163 33.0455 242.451 33.4475 242.667 33.9155C242.883 34.3715 242.991 34.8575 242.991 35.3735ZM241.479 35.3735C241.479 34.6895 241.227 34.1015 240.723 33.6095C240.231 33.1175 239.637 32.8715 238.941 32.8715C238.245 32.8715 237.645 33.1175 237.141 33.6095C236.649 34.1015 236.403 34.6895 236.403 35.3735C236.403 36.0575 236.649 36.6455 237.141 37.1375C237.645 37.6295 238.245 37.8755 238.941 37.8755C239.637 37.8755 240.231 37.6295 240.723 37.1375C241.227 36.6455 241.479 36.0575 241.479 35.3735ZM247.311 31.2335V39.5495H245.799V31.2335H247.311ZM244.557 40.8455H245.979V41.7455C245.979 42.4295 246.273 43.1855 246.861 44.0135C247.473 44.7815 248.127 45.4055 248.823 45.8855L247.905 46.8035C247.017 46.1555 246.237 45.3815 245.565 44.4815C245.457 44.3135 245.355 44.1455 245.259 43.9775C245.163 44.1455 245.055 44.3135 244.935 44.4815C244.263 45.3935 243.459 46.1615 242.523 46.7855C241.575 46.1615 240.765 45.3935 240.093 44.4815C239.973 44.3135 239.865 44.1455 239.769 43.9775C239.673 44.1455 239.571 44.3135 239.463 44.4815C238.791 45.3815 238.011 46.1555 237.123 46.8035L236.205 45.8855C236.901 45.4055 237.555 44.7815 238.167 44.0135C238.755 43.1855 239.049 42.4295 239.049 41.7455V40.8455H240.471V41.7455C240.471 42.4535 240.771 43.1855 241.371 43.9415C241.731 44.3855 242.115 44.7875 242.523 45.1475C242.919 44.7875 243.297 44.3855 243.657 43.9415C244.257 43.1855 244.557 42.4535 244.557 41.7455V40.8455ZM263.692 38.4695V39.7295H250.12V38.4695H263.692ZM261.964 46.5155H251.848V40.9355H253.36V42.1955H260.452V40.9355H261.964V46.5155ZM260.452 45.3455V43.3475H253.36V45.3455H260.452ZM257.68 32.0795C257.68 33.0995 258.244 33.9755 259.372 34.7075C260.488 35.4275 261.646 35.8835 262.846 36.0755L262.216 37.1915C260.836 36.9875 259.51 36.4535 258.238 35.5895C257.686 35.2055 257.242 34.7915 256.906 34.3475C256.57 34.7915 256.126 35.2055 255.574 35.5895C254.302 36.4415 252.976 36.9755 251.596 37.1915L250.966 36.0755C252.166 35.8835 253.324 35.4275 254.44 34.7075C255.568 33.9755 256.132 33.0995 256.132 32.0795V31.2155H257.68V32.0795ZM266.736 42.2495V31.8455H268.248V40.8815H271.2C273.24 40.8815 274.998 40.7555 276.474 40.5035V31.2335H277.986V46.5155H276.474V41.8895C275.07 42.1295 273.324 42.2495 271.236 42.2495H266.736ZM281.749 42.5195V31.9175H288.301V33.2855H283.261V41.1515H285.313C287.257 41.1515 289.117 40.9775 290.893 40.6295V31.2335H292.405V36.3455H294.781V37.7495H292.405V46.5155H290.893V41.9975C289.213 42.3455 287.395 42.5195 285.439 42.5195H281.749ZM296.888 45.0395V42.9155H299.084V45.0395H296.888Z" fill="black"/>
</svg>
