<svg width="472" height="160" viewBox="0 0 472 160" fill="none" xmlns="http://www.w3.org/2000/svg">
<path d="M4.59375 15.9844H12.0938V9.16406H14.6953V25.4531H12.0938V18.3047H4.59375V25.4531H1.99219V9.16406H4.59375V15.9844ZM24.4809 25.4531H21.9028V11.5078H16.6294V9.16406H29.7544V11.5078H24.4809V25.4531ZM35.8369 21.5391L39.2353 9.16406H41.8369L45.0947 21.5391L48.3525 9.16406H50.8838L46.4775 25.4531H43.9228L40.5244 12.7734L37.0556 25.4531H34.5713L30.165 9.16406H32.7197L35.8369 21.5391ZM54.6459 17.3203C54.6459 19.2109 55.1459 20.6797 56.1459 21.7266C57.1616 22.7734 58.4428 23.2969 59.9897 23.2969C61.5366 23.2969 62.81 22.7734 63.81 21.7266C64.81 20.6797 65.31 19.2109 65.31 17.3203C65.31 15.4297 64.81 13.9609 63.81 12.9141C62.81 11.8672 61.5366 11.3438 59.9897 11.3438C58.4428 11.3438 57.1616 11.8672 56.1459 12.9141C55.1459 13.9609 54.6459 15.4297 54.6459 17.3203ZM52.0678 17.3203C52.0678 14.8984 52.8022 12.9141 54.2709 11.3672C55.7553 9.80469 57.6616 9.02344 59.9897 9.02344C62.3334 9.02344 64.2397 9.80469 65.7084 11.3672C67.1928 12.9141 67.935 14.8984 67.935 17.3203C67.935 19.7422 67.1928 21.7344 65.7084 23.2969C64.2397 24.8438 62.3334 25.6172 59.9897 25.6172C57.6616 25.6172 55.7553 24.8438 54.2709 23.2969C52.8022 21.7344 52.0678 19.7422 52.0678 17.3203ZM81.9628 13.6406C81.9628 14.3906 81.8066 15.1016 81.4941 15.7734C81.1972 16.4453 80.7909 17.0312 80.2753 17.5312C79.7441 18.0312 79.1347 18.4219 78.4472 18.7031C78.1503 18.8438 77.8613 18.9453 77.58 19.0078V22.0781C79.7363 22.0781 81.7909 21.9688 83.7441 21.75V7.42969H86.3222V15.3047H89.205V17.7891H86.3222V28.3828H83.7441V24.0703C81.8222 24.3047 79.6503 24.4219 77.2284 24.4219H69.4238V22.0781H75.0253V19.0547C74.6816 18.9766 74.3378 18.8594 73.9941 18.7031C73.2909 18.4219 72.6816 18.0312 72.1659 17.5312C71.6347 17.0312 71.2128 16.4453 70.9003 15.7734C70.6034 15.1016 70.455 14.3906 70.455 13.6406C70.455 12.8906 70.6034 12.1797 70.9003 11.5078C71.2128 10.8359 71.6347 10.25 72.1659 9.75C72.6816 9.26562 73.2831 8.875 73.9706 8.57812C74.6738 8.28125 75.4238 8.13281 76.2206 8.13281C77.0019 8.13281 77.7363 8.28125 78.4238 8.57812C79.1269 8.875 79.7441 9.26562 80.2753 9.75C80.7909 10.25 81.1972 10.8359 81.4941 11.5078C81.8066 12.1797 81.9628 12.8906 81.9628 13.6406ZM79.4081 13.6406C79.4081 13.2031 79.3144 12.7891 79.1269 12.3984C78.955 11.9922 78.7284 11.6484 78.4472 11.3672C78.1503 11.0859 77.8066 10.8594 77.4159 10.6875C77.0409 10.5 76.6425 10.4062 76.2206 10.4062C75.7831 10.4062 75.3691 10.5 74.9784 10.6875C74.6034 10.8594 74.2675 11.0859 73.9706 11.3672C73.6894 11.6484 73.455 11.9922 73.2675 12.3984C73.0956 12.7891 73.0097 13.2031 73.0097 13.6406C73.0097 14.0938 73.0956 14.5156 73.2675 14.9062C73.455 15.2969 73.6894 15.6406 73.9706 15.9375C74.2675 16.2188 74.6034 16.4453 74.9784 16.6172C75.3691 16.7891 75.7831 16.875 76.2206 16.875C76.6425 16.875 77.0409 16.7891 77.4159 16.6172C77.8066 16.4453 78.1503 16.2188 78.4472 15.9375C78.7284 15.6406 78.955 15.2969 79.1269 14.9062C79.3144 14.5156 79.4081 14.0938 79.4081 13.6406ZM101.745 9.1875V7.10156H104.628V9.1875H109.339V11.4141H106.854C106.917 11.4609 106.979 11.5156 107.042 11.5781C107.542 12.0469 107.94 12.5938 108.237 13.2188C108.534 13.8281 108.683 14.4844 108.683 15.1875C108.683 15.8906 108.534 16.5547 108.237 17.1797C107.94 17.7891 107.542 18.3203 107.042 18.7734C106.558 19.2422 105.979 19.6172 105.308 19.8984C104.651 20.1641 103.94 20.2969 103.175 20.2969C102.425 20.2969 101.714 20.1641 101.042 19.8984C100.386 19.6172 99.8153 19.2422 99.3309 18.7734C98.8309 18.3203 98.4325 17.7891 98.1356 17.1797C97.8388 16.5547 97.6903 15.8906 97.6903 15.1875C97.6903 14.4844 97.8388 13.8281 98.1356 13.2188C98.4325 12.5938 98.8309 12.0469 99.3309 11.5781C99.3934 11.5156 99.4559 11.4609 99.5184 11.4141H96.9403V9.1875H101.745ZM106.104 15.0703C106.104 14.2734 105.815 13.5938 105.237 13.0312C104.675 12.4688 103.987 12.1875 103.175 12.1875C102.378 12.1875 101.69 12.4688 101.112 13.0312C100.55 13.5938 100.268 14.2734 100.268 15.0703C100.268 15.8516 100.55 16.5312 101.112 17.1094C101.69 17.6719 102.378 17.9531 103.175 17.9531C103.987 17.9531 104.675 17.6719 105.237 17.1094C105.815 16.5312 106.104 15.8516 106.104 15.0703ZM111.542 13.9219H109.104V11.4844H111.542V7.42969H114.12V23.0156H111.542V18.9141H109.104V16.4766H111.542V13.9219ZM114.847 28.3828H100.901V21.9141H103.643V26.0625H114.847V28.3828ZM118.562 23.0391V8.36719H125.546V10.7109H121.14V20.6719H122.898C124.538 20.6719 126.202 20.5391 127.89 20.2734V7.42969H130.374V14.4375H132.648V7.42969H135.202V28.3828H132.648V16.7812H130.374V28.3828H127.89V22.6172C126.39 22.8984 124.702 23.0391 122.827 23.0391H118.562ZM153.801 7.42969V14.25H156.965V16.6875H153.801V28.3828H151.223V7.42969H153.801ZM142.504 12.3984V10.6875H138.074V8.36719H149.418V10.6875H145.152V12.5156C145.121 14.4688 145.574 16.1797 146.512 17.6484C147.418 19.0859 148.683 20.4922 150.308 21.8672L148.691 23.5312C146.957 22.0938 145.457 20.3984 144.191 18.4453C144.066 18.2891 143.957 18.125 143.863 17.9531C143.707 18.2656 143.527 18.5703 143.324 18.8672C141.996 20.8984 140.457 22.5156 138.707 23.7188L136.949 22.0312C138.605 20.9219 139.988 19.4844 141.098 17.7188C142.035 16.2344 142.504 14.4609 142.504 12.3984ZM160.492 7.99219H174.461V10.2422H163.094V13.8516H174.649V16.125H168.836V18.3516H176.875V20.625H171.555C172.055 21.0781 172.453 21.6094 172.75 22.2188C173.047 22.8594 173.196 23.5391 173.196 24.2578C173.196 24.9766 173.039 25.6562 172.727 26.2969C172.43 26.9219 172.024 27.4688 171.508 27.9375C171.008 28.3906 170.414 28.7578 169.727 29.0391C169.039 29.3203 168.305 29.4609 167.524 29.4609C166.758 29.4609 166.032 29.3203 165.344 29.0391C164.657 28.7578 164.055 28.3906 163.539 27.9375C163.039 27.4688 162.633 26.9219 162.321 26.2969C162.024 25.6562 161.875 24.9766 161.875 24.2578C161.875 23.5391 162.024 22.8594 162.321 22.2188C162.617 21.6094 163.008 21.0781 163.492 20.625H158.196V18.3516H166.235V16.125H160.492V7.99219ZM170.617 24.1875C170.617 23.3594 170.313 22.6484 169.703 22.0547C169.11 21.4609 168.383 21.1641 167.524 21.1641C166.68 21.1641 165.953 21.4609 165.344 22.0547C164.75 22.6484 164.453 23.3594 164.453 24.1875C164.453 25.0156 164.75 25.7266 165.344 26.3203C165.953 26.9141 166.68 27.2109 167.524 27.2109C168.383 27.2109 169.11 26.9141 169.703 26.3203C170.313 25.7266 170.617 25.0156 170.617 24.1875ZM194.7 7.42969V14.7188H197.864V17.1797H194.7V28.3828H192.122V7.42969H194.7ZM183.239 12.7969V11.8828H178.528V9.53906H183.239V7.10156H185.864V9.53906H190.294V11.8828H185.864V12.7969C185.88 14.5312 186.302 16.1641 187.13 17.6953C187.911 19.1797 189.177 20.6562 190.927 22.125L189.286 23.8125C187.442 22.2656 185.981 20.5781 184.903 18.75C184.778 18.5469 184.661 18.3438 184.552 18.1406C184.442 18.3438 184.325 18.5547 184.2 18.7734C183.028 20.7266 181.528 22.4297 179.7 23.8828L177.848 22.2891C179.598 20.9141 180.966 19.375 181.95 17.6719C182.794 16.25 183.223 14.625 183.239 12.7969ZM215.126 8.53125V14.5547C215.126 17.4609 214.845 20.3438 214.283 23.2031H217.775V25.5469H199.095V23.2031H211.751C212.283 20.4531 212.548 17.8359 212.548 15.3516V10.875H201.111V8.53125H215.126ZM236.045 16.7812H221.842V11.3203H233.326V9.9375H221.842V7.85156H235.904V13.3359H224.443V14.7422H236.045V16.7812ZM238.224 20.1328H230.279V21.5156H227.49V20.1328H219.545V18.0234H238.224V20.1328ZM235.904 28.3828H221.842V21.3516H224.443V22.6172H233.326V21.3516H235.904V28.3828ZM233.326 26.3203V24.6328H224.443V26.3203H233.326ZM252.276 14.5781C252.276 15.3906 252.112 16.1562 251.783 16.875C251.455 17.5938 251.018 18.2188 250.471 18.75C249.908 19.2969 249.244 19.7266 248.479 20.0391C247.729 20.3516 246.932 20.5078 246.088 20.5078C245.244 20.5078 244.447 20.3516 243.697 20.0391C242.947 19.7266 242.291 19.2969 241.729 18.75C241.166 18.2188 240.721 17.5938 240.393 16.875C240.065 16.1562 239.901 15.3906 239.901 14.5781C239.901 13.7656 240.065 13.0078 240.393 12.3047C240.721 11.5859 241.166 10.9531 241.729 10.4062C242.291 9.85938 242.947 9.42969 243.697 9.11719C244.447 8.80469 245.244 8.64844 246.088 8.64844C246.932 8.64844 247.729 8.80469 248.479 9.11719C249.244 9.42969 249.908 9.85938 250.471 10.4062C251.018 10.9531 251.455 11.5859 251.783 12.3047C252.112 13.0078 252.276 13.7656 252.276 14.5781ZM249.697 14.5781C249.697 14.0781 249.596 13.6172 249.393 13.1953C249.205 12.7578 248.955 12.375 248.643 12.0469C248.299 11.7188 247.908 11.4609 247.471 11.2734C247.049 11.0859 246.588 10.9922 246.088 10.9922C245.588 10.9922 245.119 11.0859 244.682 11.2734C244.26 11.4609 243.885 11.7188 243.557 12.0469C243.229 12.375 242.971 12.7578 242.783 13.1953C242.596 13.6172 242.502 14.0781 242.502 14.5781C242.502 15.0781 242.596 15.5469 242.783 15.9844C242.971 16.4062 243.229 16.7891 243.557 17.1328C243.885 17.4453 244.26 17.7031 244.682 17.9062C245.119 18.0938 245.588 18.1875 246.088 18.1875C246.588 18.1875 247.049 18.0938 247.471 17.9062C247.908 17.7031 248.299 17.4453 248.643 17.1328C248.955 16.7891 249.205 16.4062 249.393 15.9844C249.596 15.5469 249.697 15.0781 249.697 14.5781ZM254.807 7.42969H257.408V28.3828H254.807V7.42969ZM283.12 8.53125V14.5547C283.12 17.4609 282.839 20.3438 282.277 23.2031H285.769V25.5469H267.089V23.2031H279.745C280.277 20.4531 280.542 17.8359 280.542 15.3516V10.875H269.105V8.53125H283.12ZM289.203 23.4375V14.5781H296.258V10.5234H289.203V8.22656H298.812V16.8281H291.758V21.1641H296.047C298.265 21.1641 300.328 20.9844 302.234 20.625V7.42969H304.812V28.3828H302.234V22.9453C300.422 23.2734 298.328 23.4375 295.953 23.4375H289.203ZM310.285 7.73438H312.887V13.5234H324.676V15.8438H310.285V7.73438ZM307.988 20.3438V18H326.668V20.3438H307.988ZM324.723 28.3828H310.426V22.2188H313.051V26.0625H324.723V28.3828ZM9.9375 46.6875H5.27344V56.7891H9.9375V46.6875ZM12.5391 59.1328H2.69531V44.3672H12.5391V59.1328ZM15.8203 43.4297H18.3984V64.3828H15.8203V43.4297ZM22.4888 59.4375V50.5781H27.5044V46.5234H22.4888V44.2266H29.9888V52.8281H24.9731V57.1641H27.9028C29.4184 57.1641 30.8872 57.0234 32.3091 56.7422V43.4297H34.7934V50.4375H37.0434V43.4297H39.5747V64.3828H37.0434V52.7812H34.7934V64.3828H32.3091V59.0391C31.0591 59.3047 29.5825 59.4375 27.8794 59.4375H22.4888ZM59.31 57.9141V64.7578H56.7084V57.9141H48.6694V55.5469H67.3491V57.9141H59.31ZM59.3334 45.4453C59.3334 46.9141 59.9663 48.1719 61.2319 49.2188C62.5913 50.3281 64.3022 51.2344 66.3647 51.9375L64.9584 53.7891C62.7709 53.1172 60.9272 52.125 59.4272 50.8125C58.8647 50.3438 58.3881 49.8438 57.9975 49.3125C57.6225 49.8438 57.1538 50.3438 56.5913 50.8125C55.0913 52.125 53.2475 53.1172 51.06 53.7891L49.6538 51.9375C51.7163 51.2344 53.4272 50.3281 54.7866 49.2188C56.0522 48.1719 56.685 46.9141 56.685 45.4453V43.5234H59.3334V45.4453ZM87.7988 59.8359V62.2031H69.1191V59.8359H77.1581V55.2891H79.7597V59.8359H87.7988ZM79.7831 46.2188C79.7831 48.0625 80.4628 49.6016 81.8222 50.8359C83.3066 52.1953 85.0566 53.1797 87.0722 53.7891L85.6425 55.6875C83.1425 54.8594 81.1034 53.6094 79.5253 51.9375C79.1191 51.5156 78.7597 51.0703 78.4472 50.6016C78.1503 51.0703 77.7988 51.5156 77.3925 51.9375C75.8144 53.6094 73.7753 54.8594 71.2753 55.6875L69.8456 53.7891C71.8613 53.1797 73.6113 52.1953 75.0956 50.8359C76.455 49.6016 77.1347 48.0625 77.1347 46.2188V44.0859H79.7831V46.2188ZM105.623 43.4297V50.25H108.787V52.6875H105.623V64.3828H103.045V43.4297H105.623ZM96.7172 47.2969C96.7328 49.8438 97.2016 51.8594 98.1234 53.3438C99.0141 54.8125 100.35 56.2969 102.131 57.7969L100.397 59.4609C98.5687 57.9922 97.0141 56.2578 95.7328 54.2578C95.6234 54.0859 95.5219 53.8984 95.4281 53.6953C95.3187 53.9297 95.2016 54.1406 95.0766 54.3281C93.7172 56.5 92.1156 58.2578 90.2719 59.6016L88.5375 57.9375C90.2719 56.7031 91.7328 55.0938 92.9203 53.1094C93.7016 51.8438 94.0922 49.9062 94.0922 47.2969V44.0625H96.7172V47.2969ZM115.925 45.2578V43.1484H118.667V45.2578H123.495V47.3438H121.034L121.058 47.3672C121.542 47.8203 121.925 48.3438 122.206 48.9375C122.487 49.5156 122.628 50.1406 122.628 50.8125C122.628 51.4844 122.487 52.125 122.206 52.7344C121.925 53.3281 121.542 53.8516 121.058 54.3047C120.573 54.7578 120.011 55.1094 119.37 55.3594C119.12 55.4531 118.87 55.5312 118.62 55.5938V58.2656C120.933 58.2656 123.065 58.1641 125.018 57.9609V43.4297H127.597V64.3828H125.018V60.2109C123.097 60.4453 120.862 60.5625 118.315 60.5625H110.089V58.2656H116.042V55.6172C115.761 55.5547 115.487 55.4688 115.222 55.3594C114.565 55.1094 114.003 54.7578 113.534 54.3047C113.05 53.8516 112.667 53.3281 112.386 52.7344C112.104 52.125 111.964 51.4844 111.964 50.8125C111.964 50.1406 112.104 49.5156 112.386 48.9375C112.667 48.3438 113.05 47.8203 113.534 47.3672L113.558 47.3438H110.956V45.2578H115.925ZM120.05 50.7422C120.05 49.9922 119.776 49.3516 119.229 48.8203C118.698 48.2734 118.05 48 117.284 48C116.534 48 115.886 48.2734 115.339 48.8203C114.808 49.3516 114.542 49.9922 114.542 50.7422C114.542 51.4922 114.808 52.1406 115.339 52.6875C115.886 53.2344 116.534 53.5078 117.284 53.5078C118.05 53.5078 118.698 53.2344 119.229 52.6875C119.776 52.1406 120.05 51.4922 120.05 50.7422ZM148.527 59.3672H138.683V44.2266H141.238V48.75H145.949V44.2266H148.527V59.3672ZM145.949 57.0469V51.0703H141.238V57.0469H145.949ZM151.808 43.4297H154.387V64.3828H151.808V43.4297ZM174.836 43.4297V58.7578H172.258V51.2344H168.485V48.8672H172.258V43.4297H174.836ZM175.469 64.3828H161.852V57.7734H164.5V62.0859H175.469V64.3828ZM162.461 47.6484V46.5938H158.242V44.2734H169.539V46.5938H165.11V48.0234C165.11 49.3516 165.555 50.5078 166.446 51.4922C167.524 52.6953 168.805 53.6875 170.289 54.4688L168.883 56.2969C167.024 55.3281 165.453 54.0859 164.172 52.5703C164.078 52.4609 163.977 52.3438 163.867 52.2188C163.68 52.5312 163.461 52.8438 163.211 53.1562C161.789 54.8438 160.336 55.9766 158.852 56.5547L157.258 54.7266C158.789 54.0547 160.117 53.0078 161.242 51.5859C162.055 50.5547 162.461 49.2422 162.461 47.6484ZM193.059 48C193.059 48.7031 192.911 49.3594 192.614 49.9688C192.302 50.5781 191.887 51.125 191.372 51.6094H196.692V53.7656H178.012V51.6094H183.309C182.809 51.125 182.403 50.5781 182.091 49.9688C181.794 49.3594 181.645 48.7031 181.645 48C181.645 47.2969 181.794 46.6328 182.091 46.0078C182.403 45.3828 182.809 44.8281 183.309 44.3438C183.841 43.875 184.45 43.5078 185.137 43.2422C185.825 42.9609 186.559 42.8203 187.341 42.8203C188.137 42.8203 188.88 42.9609 189.567 43.2422C190.255 43.5078 190.856 43.875 191.372 44.3438C191.887 44.8281 192.294 45.3828 192.591 46.0078C192.903 46.6328 193.059 47.2969 193.059 48ZM190.481 48.0469C190.481 47.2031 190.177 46.4922 189.567 45.9141C188.958 45.3203 188.216 45.0234 187.341 45.0234C186.481 45.0234 185.747 45.3203 185.137 45.9141C184.528 46.4922 184.223 47.2031 184.223 48.0469C184.223 48.875 184.528 49.5859 185.137 50.1797C185.747 50.7734 186.481 51.0703 187.341 51.0703C188.216 51.0703 188.958 50.7734 189.567 50.1797C190.177 49.5859 190.481 48.875 190.481 48.0469ZM194.63 64.3828H180.309V58.7109H191.794V57.1875H180.309V55.1484H194.372V60.75H182.911V62.3203H194.63V64.3828ZM213.287 46.5938H208.599V52.9219H213.287V46.5938ZM215.865 55.2422H206.021V44.2734H215.865V55.2422ZM221.303 43.4297V48.9609H224.185V51.3516H221.303V58.7578H218.724V43.4297H221.303ZM221.912 64.3828H208.318V57.6562H210.967V62.0625H221.912V64.3828ZM226.822 58.6641V44.2734H229.424V56.3203H232.612C234.815 56.3203 236.932 56.1016 238.963 55.6641V43.4297H241.541V50.1094H244.729V52.5469H241.541V64.3828H238.963V58.0547C236.994 58.4609 234.869 58.6641 232.588 58.6641H226.822ZM262.366 55.8516H256.647V59.8359H264.686V62.2031H246.007V59.8359H254.046V55.8516H248.303V44.1328H250.905V47.5312H259.788V44.1328H262.366V55.8516ZM259.788 53.5312V49.875H250.905V53.5312H259.788ZM281.925 43.4297H284.456V64.3828H281.925V43.4297ZM280.144 64.3828H277.636V51.9844H274.706V49.6172H277.636V43.4297H280.144V64.3828ZM272.644 47.625C272.644 50.0781 273.058 52.1406 273.886 53.8125C274.698 55.5156 275.691 56.9844 276.862 58.2188L275.105 59.6484C273.995 58.5547 272.878 56.9531 271.753 54.8438C271.612 54.5625 271.48 54.2812 271.355 54C271.23 54.2656 271.097 54.5312 270.956 54.7969C269.847 56.9688 268.698 58.5625 267.511 59.5781L265.659 58.2188C266.956 57.0156 268.042 55.5312 268.917 53.7656C269.745 52.0625 270.159 50.0156 270.159 47.625V44.0625H272.644V47.625ZM302.679 50.1094C302.679 50.9375 302.508 51.7188 302.164 52.4531C301.82 53.1719 301.359 53.8047 300.781 54.3516C300.203 54.8984 299.523 55.3359 298.742 55.6641C297.961 55.9766 297.125 56.1328 296.234 56.1328C295.359 56.1328 294.531 55.9766 293.75 55.6641C292.968 55.3359 292.289 54.8984 291.711 54.3516C291.133 53.8047 290.672 53.1719 290.328 52.4531C289.984 51.7188 289.812 50.9375 289.812 50.1094C289.812 49.2656 289.984 48.4844 290.328 47.7656C290.672 47.0312 291.133 46.3906 291.711 45.8438C292.289 45.3125 292.968 44.8906 293.75 44.5781C294.531 44.25 295.359 44.0859 296.234 44.0859C297.125 44.0859 297.961 44.25 298.742 44.5781C299.523 44.8906 300.203 45.3125 300.781 45.8438C301.359 46.3906 301.82 47.0312 302.164 47.7656C302.508 48.4844 302.679 49.2656 302.679 50.1094ZM300.054 50.1094C300.054 49.6094 299.953 49.1406 299.75 48.7031C299.562 48.25 299.289 47.8516 298.929 47.5078C298.586 47.1953 298.179 46.9375 297.711 46.7344C297.258 46.5312 296.765 46.4297 296.234 46.4297C295.718 46.4297 295.226 46.5312 294.758 46.7344C294.304 46.9375 293.906 47.1953 293.562 47.5078C293.203 47.8516 292.922 48.25 292.718 48.7031C292.531 49.1406 292.437 49.6094 292.437 50.1094C292.437 50.5938 292.531 51.0625 292.718 51.5156C292.922 51.9688 293.203 52.3594 293.562 52.6875C293.906 53.0156 294.304 53.2812 294.758 53.4844C295.226 53.6719 295.718 53.7656 296.234 53.7656C296.765 53.7656 297.258 53.6719 297.711 53.4844C298.179 53.2812 298.586 53.0156 298.929 52.6875C299.289 52.3594 299.562 51.9688 299.75 51.5156C299.953 51.0625 300.054 50.5938 300.054 50.1094ZM286.906 59.8594H290.867V55.7812H293.445V59.8594H299.047V55.7812H301.625V59.8594H305.586V62.2031H286.906V59.8594Z" fill="white"/>
<path d="M0.351562 140.623H2.32031L5.80078 149.816L9.26367 140.623H11.2324L6.62695 152.84H4.99219L0.351562 140.623ZM14.4893 145.984H16.4932C17.3018 145.984 17.8877 145.803 18.251 145.439C18.626 145.076 18.8135 144.648 18.8135 144.156C18.8135 143.676 18.626 143.26 18.251 142.908C17.8877 142.557 17.3018 142.381 16.4932 142.381H14.4893V145.984ZM15.6846 147.725H14.4893V152.84H12.5381V140.623H16.2647C17.7764 140.623 18.8955 140.957 19.6221 141.625C20.3838 142.316 20.7647 143.172 20.7647 144.191C20.7647 145.258 20.3721 146.113 19.587 146.758C19.083 147.18 18.4444 147.461 17.6709 147.602L21.503 152.84H19.2881L15.6846 147.725ZM35.1134 139.322V150.818H33.1798V145.176H30.3497V143.4H33.1798V139.322H35.1134ZM35.588 155.037H25.3751V150.08H27.3614V153.314H35.588V155.037ZM25.8321 142.486V141.695H22.668V139.955H31.1407V141.695H27.8184V142.768C27.8184 143.764 28.1524 144.631 28.8204 145.369C29.629 146.271 30.5899 147.016 31.7032 147.602L30.6485 148.973C29.254 148.246 28.0763 147.314 27.1153 146.178C27.045 146.096 26.9688 146.008 26.8868 145.914C26.7462 146.148 26.5821 146.383 26.3946 146.617C25.3282 147.883 24.2384 148.732 23.1251 149.166L21.9298 147.795C23.0782 147.291 24.0743 146.506 24.918 145.439C25.5274 144.666 25.8321 143.682 25.8321 142.486ZM48.337 139.322H50.2706V155.037H48.337V139.322ZM42.8351 142.223C42.8351 144.086 43.1866 145.604 43.8898 146.775C44.546 147.877 45.5538 148.979 46.9132 150.08L45.63 151.363C44.2355 150.25 43.0636 148.932 42.1144 147.408C42.0206 147.279 41.9386 147.145 41.8683 147.004C41.7863 147.18 41.6984 147.344 41.6046 147.496C40.5851 149.125 39.3839 150.443 38.0011 151.451L36.7003 150.203C38.0011 149.277 39.1027 148.07 40.005 146.582C40.5792 145.633 40.8663 144.18 40.8663 142.223V139.797H42.8351V142.223ZM61.174 139.938V142.293C61.174 143.5 61.0334 144.707 60.7521 145.914H58.8713C59.1173 144.672 59.2404 143.5 59.2404 142.398V141.625H53.1935V139.938H61.174ZM64.9533 139.322V143.998H67.1154V145.791H64.9533V151.117H63.0021V148.885C61.5138 149.049 59.9142 149.131 58.2033 149.131H52.1564V147.426H55.1271V143.629H57.0255V147.426H58.1681C59.7502 147.426 61.3615 147.35 63.0021 147.197V139.322H64.9533ZM65.34 155.037H54.8107V150.537H56.797V153.35H65.34V155.037ZM77.0569 140.904H79.5881V142.662H77.0569V143.576C77.0569 144.854 77.303 146.066 77.7952 147.215C78.3694 148.527 79.1077 149.676 80.01 150.66L78.6741 151.697C77.5608 150.408 76.7053 149.084 76.1077 147.725C75.4866 149.107 74.5549 150.455 73.3127 151.768L71.9241 150.695C72.8967 149.758 73.7346 148.58 74.4377 147.162C74.9299 146.178 75.176 144.947 75.176 143.471V142.662H72.3987V140.904H75.176V139.076H77.0569V140.904ZM84.0354 139.322H85.9338V155.037H84.0354V139.322ZM82.6116 155.037H80.7483V146.406H78.6213V144.543H80.7483V139.322H82.6116V155.037ZM91.1419 140.57V139.076H93.304V140.57H96.7669V142.188H95.0091L95.0266 142.205C95.3899 142.545 95.677 142.926 95.888 143.348C95.9348 143.488 95.9817 143.617 96.0286 143.734H98.6126V139.322H100.546V148.41H98.6126V145.475H96.1341C96.0638 145.709 95.9817 145.932 95.888 146.143C95.677 146.588 95.3899 146.98 95.0266 147.32C94.6634 147.637 94.2356 147.895 93.7434 148.094C93.263 148.281 92.7532 148.375 92.2141 148.375C91.6751 148.375 91.1595 148.281 90.6673 148.094C90.1868 147.895 89.7708 147.637 89.4192 147.32C89.0559 146.98 88.7688 146.594 88.5579 146.16C88.347 145.715 88.2415 145.246 88.2415 144.754C88.2415 144.262 88.347 143.799 88.5579 143.365C88.7688 142.932 89.0559 142.545 89.4192 142.205L89.4368 142.188H87.6614V140.57H91.1419ZM94.2708 144.666C94.2708 144.115 94.0657 143.641 93.6555 143.242C93.2571 142.832 92.7766 142.627 92.2141 142.627C91.6516 142.627 91.1712 142.832 90.7727 143.242C90.3743 143.641 90.1751 144.115 90.1751 144.666C90.1751 145.217 90.3743 145.697 90.7727 146.107C91.1712 146.506 91.6516 146.705 92.2141 146.705C92.7766 146.705 93.2571 146.506 93.6555 146.107C94.0657 145.697 94.2708 145.217 94.2708 144.666ZM98.6126 150.959H92.5657V153.385H98.6126V150.959ZM100.546 155.037H90.6321V149.289H100.546V155.037Z" fill="white"/>
<path d="M116.639 153L115.431 151.76L118.685 148.422H111V146.61H118.685L115.431 143.24L116.639 142L122 147.5L116.639 153Z" fill="white"/>
</svg>
