<svg width="597" height="93" viewBox="0 0 597 93" fill="none" xmlns="http://www.w3.org/2000/svg">
<path d="M3.258 13.954H9.252V8.842H10.836V20.632H9.252V15.268H3.258V20.632H1.674V8.842H3.258V13.954ZM18.1856 20.632H16.6016V10.174H12.6596V8.842H22.1276V10.174H18.1856V20.632ZM26.8802 18.706L29.5442 8.842H31.2362L33.8282 18.706L36.3842 8.86L37.9322 8.842L34.7282 20.632H33.0722L30.3902 10.642L27.6722 20.632H26.0522L22.8662 8.842H24.3962L26.8802 18.706ZM40.8 14.764C40.8 16.24 41.196 17.386 41.988 18.202C42.78 19.018 43.782 19.426 44.994 19.426C46.206 19.426 47.202 19.018 47.982 18.202C48.774 17.386 49.17 16.24 49.17 14.764C49.17 13.276 48.774 12.124 47.982 11.308C47.202 10.48 46.206 10.066 44.994 10.066C43.782 10.066 42.78 10.48 41.988 11.308C41.196 12.124 40.8 13.276 40.8 14.764ZM39.234 14.764C39.234 13.012 39.768 11.566 40.836 10.426C41.904 9.286 43.29 8.716 44.994 8.716C46.698 8.716 48.084 9.286 49.152 10.426C50.232 11.566 50.772 13.012 50.772 14.764C50.772 16.504 50.232 17.944 49.152 19.084C48.084 20.212 46.698 20.776 44.994 20.776C43.29 20.776 41.904 20.212 40.836 19.084C39.768 17.944 39.234 16.504 39.234 14.764ZM54.2602 7.762H55.7722V12.1H64.6102V13.45H54.2602V7.762ZM52.5322 16.816V15.448H66.1042V16.816H52.5322ZM64.6462 22.828H54.3502V18.598H55.8982V21.478H64.6462V22.828ZM84.4452 13.99H82.5372V22.828H81.0972V7.546H82.5372V12.658H84.4452V7.546H85.9212V22.828H84.4452V13.99ZM75.6792 9.562H72.9792V8.23H79.4772V9.562H77.1372V11.686C77.1372 13.282 77.4252 14.59 78.0012 15.61C78.6132 16.702 79.3332 17.56 80.1612 18.184L79.2972 19.102C78.2772 18.322 77.4312 17.302 76.7592 16.042C76.6392 15.826 76.5312 15.598 76.4352 15.358C76.3152 15.622 76.1892 15.874 76.0572 16.114C75.1812 17.686 74.3352 18.76 73.5192 19.336L72.4932 18.436C73.3692 17.764 74.1432 16.804 74.8152 15.556C75.3912 14.476 75.6792 13.18 75.6792 11.668V9.562ZM99.7104 12.622H97.5864V16.384C97.8744 16.432 98.1504 16.51 98.4144 16.618C98.8944 16.81 99.3144 17.074 99.6744 17.41C100.034 17.746 100.316 18.136 100.52 18.58C100.736 19.012 100.844 19.48 100.844 19.984C100.844 20.488 100.736 20.962 100.52 21.406C100.316 21.838 100.034 22.222 99.6744 22.558C99.3144 22.894 98.8884 23.158 98.3964 23.35C97.9164 23.542 97.4004 23.638 96.8484 23.638C96.2964 23.638 95.7744 23.542 95.2824 23.35C94.8024 23.158 94.3824 22.894 94.0224 22.558C93.6624 22.222 93.3744 21.838 93.1584 21.406C92.9544 20.962 92.8524 20.488 92.8524 19.984C92.8524 19.48 92.9544 19.012 93.1584 18.58C93.3744 18.136 93.6624 17.746 94.0224 17.41C94.3824 17.074 94.8084 16.81 95.3004 16.618C95.5644 16.51 95.8404 16.432 96.1284 16.384V7.546H97.5864V11.308H99.7104V7.546H101.186V16.51H99.7104V12.622ZM99.3324 19.984C99.3324 19.66 99.2664 19.354 99.1344 19.066C99.0024 18.778 98.8224 18.526 98.5944 18.31C98.3664 18.094 98.1024 17.926 97.8024 17.806C97.5024 17.674 97.1844 17.608 96.8484 17.608C96.5124 17.608 96.1944 17.674 95.8944 17.806C95.5944 17.926 95.3304 18.094 95.1024 18.31C94.8744 18.526 94.6944 18.778 94.5624 19.066C94.4304 19.354 94.3644 19.66 94.3644 19.984C94.3644 20.308 94.4304 20.614 94.5624 20.902C94.6944 21.19 94.8744 21.442 95.1024 21.658C95.3304 21.874 95.5944 22.042 95.8944 22.162C96.1944 22.294 96.5124 22.36 96.8484 22.36C97.1844 22.36 97.5024 22.294 97.8024 22.162C98.1024 22.042 98.3664 21.874 98.5944 21.658C98.8224 21.442 99.0024 21.19 99.1344 20.902C99.2664 20.614 99.3324 20.308 99.3324 19.984ZM92.3124 9.634C92.3124 10.978 92.5884 12.094 93.1404 12.982C93.7284 13.858 94.3824 14.596 95.1024 15.196L94.1484 16.096C93.3564 15.436 92.6364 14.638 91.9884 13.702C91.8444 13.486 91.7124 13.252 91.5924 13C91.4604 13.264 91.3164 13.51 91.1604 13.738C90.3684 14.926 89.5584 15.826 88.7304 16.438L87.7044 15.502C88.5324 14.902 89.2884 14.05 89.9724 12.946C90.5604 12.022 90.8544 10.912 90.8544 9.616V7.942H92.3124V9.634ZM110.962 13.234C110.902 13.534 110.818 13.816 110.71 14.08C110.494 14.572 110.206 14.998 109.846 15.358C109.462 15.73 109.024 16.024 108.532 16.24C108.052 16.456 107.536 16.564 106.984 16.564C106.432 16.564 105.91 16.456 105.418 16.24C104.938 16.024 104.506 15.73 104.122 15.358C103.762 14.998 103.474 14.578 103.258 14.098C103.054 13.606 102.952 13.078 102.952 12.514C102.952 11.95 103.054 11.428 103.258 10.948C103.474 10.456 103.762 10.03 104.122 9.67C104.506 9.298 104.938 9.004 105.418 8.788C105.91 8.572 106.432 8.464 106.984 8.464C107.536 8.464 108.052 8.572 108.532 8.788C109.024 9.004 109.462 9.298 109.846 9.67C110.206 10.03 110.494 10.45 110.71 10.93C110.818 11.206 110.902 11.494 110.962 11.794H112.528V7.546H113.932V22.828H112.528V13.234H110.962ZM109.594 12.514C109.594 12.154 109.528 11.806 109.396 11.47C109.264 11.134 109.084 10.846 108.856 10.606C108.616 10.354 108.334 10.156 108.01 10.012C107.698 9.856 107.356 9.778 106.984 9.778C106.612 9.778 106.27 9.856 105.958 10.012C105.646 10.156 105.37 10.354 105.13 10.606C104.902 10.846 104.716 11.134 104.572 11.47C104.44 11.806 104.374 12.154 104.374 12.514C104.374 12.874 104.44 13.222 104.572 13.558C104.716 13.894 104.902 14.182 105.13 14.422C105.37 14.674 105.646 14.878 105.958 15.034C106.27 15.178 106.612 15.25 106.984 15.25C107.356 15.25 107.698 15.178 108.01 15.034C108.334 14.878 108.616 14.674 108.856 14.422C109.084 14.182 109.264 13.894 109.396 13.558C109.528 13.222 109.594 12.874 109.594 12.514ZM115.57 7.546H117.01V22.828H115.57V7.546ZM120.071 18.562V8.158H121.583V17.194H123.689C125.285 17.194 126.827 17.074 128.315 16.834V18.22C126.863 18.448 125.375 18.562 123.851 18.562H120.071ZM129.881 7.546H131.393V22.828H129.881V13.288H125.237V11.938H129.881V7.546ZM145.218 7.546H146.73V22.828H145.218V7.546ZM138.036 11.182V9.58H134.724V8.23H142.788V9.58H139.584V11.146C139.572 12.646 139.926 13.966 140.646 15.106C141.33 16.198 142.236 17.224 143.364 18.184L142.446 19.12C141.27 18.148 140.208 16.936 139.26 15.484C139.104 15.244 138.96 15.004 138.828 14.764C138.672 15.124 138.48 15.472 138.252 15.808C137.268 17.308 136.182 18.466 134.994 19.282L133.986 18.31C135.114 17.554 136.104 16.504 136.956 15.16C137.676 14.008 138.036 12.682 138.036 11.182ZM161.455 13.54H151.267V10.102H159.871V8.914H151.267V7.78H161.383V11.2H152.779V12.406H161.455V13.54ZM149.539 14.728H163.111V15.916H149.539V14.728ZM161.563 22.828H151.267V19.39H159.871V18.238H151.267V17.104H161.383V20.524H152.779V21.694H161.563V22.828ZM173.623 8.284V7.222H175.387V8.284H178.879V9.328H176.917L176.935 9.346C177.259 9.598 177.505 9.898 177.673 10.246C177.841 10.582 177.925 10.93 177.925 11.29C177.925 11.65 177.841 11.998 177.673 12.334C177.505 12.67 177.259 12.964 176.935 13.216C176.623 13.456 176.263 13.648 175.855 13.792C175.639 13.864 175.411 13.918 175.171 13.954V14.872H175.585C177.421 14.872 179.023 14.818 180.391 14.71V7.546H181.903V11.488H184.063V12.712H181.903V16.312H180.391V15.844C179.011 15.964 177.421 16.024 175.621 16.024H169.537V14.872H173.677V13.936C173.497 13.9 173.329 13.852 173.173 13.792C172.753 13.648 172.387 13.456 172.075 13.216C171.751 12.964 171.505 12.67 171.337 12.334C171.169 11.998 171.085 11.65 171.085 11.29C171.085 10.93 171.169 10.582 171.337 10.246C171.505 9.898 171.751 9.598 172.075 9.346L172.093 9.328H169.969V8.284H173.623ZM176.467 11.254C176.467 10.798 176.275 10.396 175.891 10.048C175.507 9.688 175.045 9.508 174.505 9.508C173.965 9.508 173.503 9.688 173.119 10.048C172.735 10.396 172.543 10.798 172.543 11.254C172.543 11.71 172.735 12.118 173.119 12.478C173.503 12.826 173.965 13 174.505 13C175.045 13 175.507 12.826 175.891 12.478C176.275 12.118 176.467 11.71 176.467 11.254ZM182.155 22.828H172.021V19.498H180.391V18.364H172.021V17.266H181.903V20.596H173.533V21.73H182.155V22.828ZM195.962 10.858C195.962 11.35 195.854 11.818 195.638 12.262C195.434 12.706 195.152 13.09 194.792 13.414C194.432 13.75 194.012 14.014 193.532 14.206C193.052 14.398 192.536 14.494 191.984 14.494C191.432 14.494 190.916 14.398 190.436 14.206C189.956 14.014 189.536 13.75 189.176 13.414C188.816 13.09 188.528 12.706 188.312 12.262C188.108 11.818 188.006 11.35 188.006 10.858C188.006 10.366 188.108 9.898 188.312 9.454C188.528 9.01 188.816 8.626 189.176 8.302C189.536 7.966 189.956 7.702 190.436 7.51C190.916 7.318 191.432 7.222 191.984 7.222C192.536 7.222 193.052 7.318 193.532 7.51C194.012 7.702 194.432 7.966 194.792 8.302C195.152 8.626 195.434 9.01 195.638 9.454C195.854 9.898 195.962 10.366 195.962 10.858ZM194.45 10.858C194.45 10.21 194.204 9.652 193.712 9.184C193.232 8.716 192.656 8.482 191.984 8.482C191.312 8.482 190.73 8.716 190.238 9.184C189.758 9.652 189.518 10.21 189.518 10.858C189.518 11.506 189.758 12.064 190.238 12.532C190.73 13 191.312 13.234 191.984 13.234C192.656 13.234 193.232 13 193.712 12.532C194.204 12.064 194.45 11.506 194.45 10.858ZM195.818 14.116V16.06H198.77V17.32H194.45C194.558 17.404 194.666 17.494 194.774 17.59C195.122 17.902 195.398 18.28 195.602 18.724C195.818 19.168 195.926 19.624 195.926 20.092C195.926 20.56 195.818 21.016 195.602 21.46C195.398 21.904 195.122 22.282 194.774 22.594C194.426 22.918 194.006 23.17 193.514 23.35C193.034 23.542 192.518 23.638 191.966 23.638C191.414 23.638 190.892 23.542 190.4 23.35C189.92 23.17 189.506 22.918 189.158 22.594C188.81 22.282 188.528 21.904 188.312 21.46C188.108 21.016 188.006 20.56 188.006 20.092C188.006 19.624 188.108 19.168 188.312 18.724C188.528 18.28 188.81 17.902 189.158 17.59C189.266 17.494 189.374 17.404 189.482 17.32H185.198V16.06H188.15V14.116H189.644V16.06H194.324V14.116H195.818ZM194.414 20.056C194.414 19.42 194.174 18.868 193.694 18.4C193.214 17.932 192.638 17.698 191.966 17.698C191.294 17.698 190.718 17.932 190.238 18.4C189.758 18.868 189.518 19.42 189.518 20.056C189.518 20.692 189.758 21.244 190.238 21.712C190.718 22.18 191.294 22.414 191.966 22.414C192.638 22.414 193.214 22.18 193.694 21.712C194.174 21.244 194.414 20.692 194.414 20.056ZM203.361 9.202V7.546H204.981V9.202H208.095V10.426H206.295C206.511 10.57 206.709 10.732 206.889 10.912C207.237 11.26 207.513 11.668 207.717 12.136C207.921 12.604 208.023 13.102 208.023 13.63C208.023 14.158 207.921 14.656 207.717 15.124C207.513 15.592 207.237 16 206.889 16.348C206.541 16.696 206.133 16.972 205.665 17.176C205.197 17.38 204.699 17.482 204.171 17.482C203.643 17.482 203.145 17.38 202.677 17.176C202.209 16.972 201.801 16.696 201.453 16.348C201.105 16 200.829 15.592 200.625 15.124C200.421 14.656 200.319 14.158 200.319 13.63C200.319 13.102 200.421 12.604 200.625 12.136C200.829 11.668 201.105 11.26 201.453 10.912C201.633 10.732 201.831 10.57 202.047 10.426H200.193V9.202H203.361ZM206.673 13.594C206.673 13.246 206.607 12.916 206.475 12.604C206.343 12.292 206.163 12.016 205.935 11.776C205.707 11.548 205.443 11.368 205.143 11.236C204.843 11.092 204.525 11.02 204.189 11.02C203.853 11.02 203.535 11.092 203.235 11.236C202.935 11.368 202.671 11.548 202.443 11.776C202.215 12.016 202.035 12.292 201.903 12.604C201.771 12.916 201.705 13.246 201.705 13.594C201.705 13.942 201.771 14.272 201.903 14.584C202.035 14.896 202.215 15.172 202.443 15.412C202.671 15.64 202.935 15.826 203.235 15.97C203.535 16.102 203.853 16.168 204.189 16.168C204.525 16.168 204.843 16.102 205.143 15.97C205.443 15.826 205.707 15.64 205.935 15.412C206.163 15.172 206.343 14.896 206.475 14.584C206.607 14.272 206.673 13.942 206.673 13.594ZM212.559 7.546H213.945V22.828H212.559V13.54H210.795V22.828H209.409V7.546H210.795V12.208H212.559V7.546ZM232.376 12.622H230.252V16.384C230.54 16.432 230.816 16.51 231.08 16.618C231.56 16.81 231.98 17.074 232.34 17.41C232.7 17.746 232.982 18.136 233.186 18.58C233.402 19.012 233.51 19.48 233.51 19.984C233.51 20.488 233.402 20.962 233.186 21.406C232.982 21.838 232.7 22.222 232.34 22.558C231.98 22.894 231.554 23.158 231.062 23.35C230.582 23.542 230.066 23.638 229.514 23.638C228.962 23.638 228.44 23.542 227.948 23.35C227.468 23.158 227.048 22.894 226.688 22.558C226.328 22.222 226.04 21.838 225.824 21.406C225.62 20.962 225.518 20.488 225.518 19.984C225.518 19.48 225.62 19.012 225.824 18.58C226.04 18.136 226.328 17.746 226.688 17.41C227.048 17.074 227.474 16.81 227.966 16.618C228.23 16.51 228.506 16.432 228.794 16.384V7.546H230.252V11.308H232.376V7.546H233.852V16.51H232.376V12.622ZM231.998 19.984C231.998 19.66 231.932 19.354 231.8 19.066C231.668 18.778 231.488 18.526 231.26 18.31C231.032 18.094 230.768 17.926 230.468 17.806C230.168 17.674 229.85 17.608 229.514 17.608C229.178 17.608 228.86 17.674 228.56 17.806C228.26 17.926 227.996 18.094 227.768 18.31C227.54 18.526 227.36 18.778 227.228 19.066C227.096 19.354 227.03 19.66 227.03 19.984C227.03 20.308 227.096 20.614 227.228 20.902C227.36 21.19 227.54 21.442 227.768 21.658C227.996 21.874 228.26 22.042 228.56 22.162C228.86 22.294 229.178 22.36 229.514 22.36C229.85 22.36 230.168 22.294 230.468 22.162C230.768 22.042 231.032 21.874 231.26 21.658C231.488 21.442 231.668 21.19 231.8 20.902C231.932 20.614 231.998 20.308 231.998 19.984ZM224.978 9.634C224.978 10.978 225.254 12.094 225.806 12.982C226.394 13.858 227.048 14.596 227.768 15.196L226.814 16.096C226.022 15.436 225.302 14.638 224.654 13.702C224.51 13.486 224.378 13.252 224.258 13C224.126 13.264 223.982 13.51 223.826 13.738C223.034 14.926 222.224 15.826 221.396 16.438L220.37 15.502C221.198 14.902 221.954 14.05 222.638 12.946C223.226 12.022 223.52 10.912 223.52 9.616V7.942H224.978V9.634ZM247.911 7.546V11.686H250.071V13.054H247.911V18.616H246.399V7.546H247.911ZM248.361 22.828H238.605V18.184H240.153V21.478H248.361V22.828ZM241.125 9.382C241.125 10.906 241.473 12.154 242.169 13.126C242.961 14.218 243.867 15.088 244.887 15.736L243.987 16.744C242.943 16.096 241.935 15.142 240.963 13.882C240.723 13.57 240.513 13.24 240.333 12.892C240.153 13.264 239.943 13.624 239.703 13.972C238.779 15.292 237.783 16.294 236.715 16.978L235.707 15.988C236.763 15.352 237.699 14.434 238.515 13.234C239.223 12.202 239.577 10.918 239.577 9.382V7.942H241.125V9.382ZM263.375 15.16H253.259V7.816H254.771V9.976H261.863V7.816H263.375V15.16ZM261.863 13.81V11.326H254.771V13.81H261.863ZM259.073 18.454V23.116H257.561V18.454H251.531V17.122H265.103V18.454H259.073ZM267.804 19.138V8.122H274.284V9.454H269.298V12.892H273.87V14.188H269.298V17.842H271.674C273.246 17.842 274.77 17.728 276.246 17.5V18.796C274.854 19.024 273.378 19.138 271.818 19.138H267.804ZM277.974 7.546H279.486V22.828H277.974V14.116H275.4V12.784H277.974V7.546ZM290.951 8.284V7.222H292.715V8.284H296.207V9.328H294.245L294.263 9.346C294.587 9.598 294.833 9.898 295.001 10.246C295.169 10.582 295.253 10.93 295.253 11.29C295.253 11.65 295.169 11.998 295.001 12.334C294.833 12.67 294.587 12.964 294.263 13.216C293.951 13.456 293.591 13.648 293.183 13.792C292.967 13.864 292.739 13.918 292.499 13.954V14.872H292.913C294.749 14.872 296.351 14.818 297.719 14.71V7.546H299.231V11.488H301.391V12.712H299.231V16.312H297.719V15.844C296.339 15.964 294.749 16.024 292.949 16.024H286.865V14.872H291.005V13.936C290.825 13.9 290.657 13.852 290.501 13.792C290.081 13.648 289.715 13.456 289.403 13.216C289.079 12.964 288.833 12.67 288.665 12.334C288.497 11.998 288.413 11.65 288.413 11.29C288.413 10.93 288.497 10.582 288.665 10.246C288.833 9.898 289.079 9.598 289.403 9.346L289.421 9.328H287.297V8.284H290.951ZM293.795 11.254C293.795 10.798 293.603 10.396 293.219 10.048C292.835 9.688 292.373 9.508 291.833 9.508C291.293 9.508 290.831 9.688 290.447 10.048C290.063 10.396 289.871 10.798 289.871 11.254C289.871 11.71 290.063 12.118 290.447 12.478C290.831 12.826 291.293 13 291.833 13C292.373 13 292.835 12.826 293.219 12.478C293.603 12.118 293.795 11.71 293.795 11.254ZM299.483 22.828H289.349V19.498H297.719V18.364H289.349V17.266H299.231V20.596H290.861V21.73H299.483V22.828ZM313.29 10.858C313.29 11.35 313.182 11.818 312.966 12.262C312.762 12.706 312.48 13.09 312.12 13.414C311.76 13.75 311.34 14.014 310.86 14.206C310.38 14.398 309.864 14.494 309.312 14.494C308.76 14.494 308.244 14.398 307.764 14.206C307.284 14.014 306.864 13.75 306.504 13.414C306.144 13.09 305.856 12.706 305.64 12.262C305.436 11.818 305.334 11.35 305.334 10.858C305.334 10.366 305.436 9.898 305.64 9.454C305.856 9.01 306.144 8.626 306.504 8.302C306.864 7.966 307.284 7.702 307.764 7.51C308.244 7.318 308.76 7.222 309.312 7.222C309.864 7.222 310.38 7.318 310.86 7.51C311.34 7.702 311.76 7.966 312.12 8.302C312.48 8.626 312.762 9.01 312.966 9.454C313.182 9.898 313.29 10.366 313.29 10.858ZM311.778 10.858C311.778 10.21 311.532 9.652 311.04 9.184C310.56 8.716 309.984 8.482 309.312 8.482C308.64 8.482 308.058 8.716 307.566 9.184C307.086 9.652 306.846 10.21 306.846 10.858C306.846 11.506 307.086 12.064 307.566 12.532C308.058 13 308.64 13.234 309.312 13.234C309.984 13.234 310.56 13 311.04 12.532C311.532 12.064 311.778 11.506 311.778 10.858ZM313.146 14.116V16.06H316.098V17.32H311.778C311.886 17.404 311.994 17.494 312.102 17.59C312.45 17.902 312.726 18.28 312.93 18.724C313.146 19.168 313.254 19.624 313.254 20.092C313.254 20.56 313.146 21.016 312.93 21.46C312.726 21.904 312.45 22.282 312.102 22.594C311.754 22.918 311.334 23.17 310.842 23.35C310.362 23.542 309.846 23.638 309.294 23.638C308.742 23.638 308.22 23.542 307.728 23.35C307.248 23.17 306.834 22.918 306.486 22.594C306.138 22.282 305.856 21.904 305.64 21.46C305.436 21.016 305.334 20.56 305.334 20.092C305.334 19.624 305.436 19.168 305.64 18.724C305.856 18.28 306.138 17.902 306.486 17.59C306.594 17.494 306.702 17.404 306.81 17.32H302.526V16.06H305.478V14.116H306.972V16.06H311.652V14.116H313.146ZM311.742 20.056C311.742 19.42 311.502 18.868 311.022 18.4C310.542 17.932 309.966 17.698 309.294 17.698C308.622 17.698 308.046 17.932 307.566 18.4C307.086 18.868 306.846 19.42 306.846 20.056C306.846 20.692 307.086 21.244 307.566 21.712C308.046 22.18 308.622 22.414 309.294 22.414C309.966 22.414 310.542 22.18 311.022 21.712C311.502 21.244 311.742 20.692 311.742 20.056ZM329.815 7.546V12.748H331.921V14.152H329.815V22.828H328.339V7.546H329.815ZM326.377 8.248C326.377 10.78 326.023 12.934 325.315 14.71C324.487 16.786 323.503 18.43 322.363 19.642L321.229 18.976C322.261 17.8 323.191 16.216 324.019 14.224C324.523 13 324.805 11.44 324.865 9.544H322.489C322.369 11.284 321.991 12.88 321.355 14.332C320.587 16.084 319.603 17.566 318.403 18.778L317.323 18.058C318.487 16.834 319.429 15.406 320.149 13.774C320.701 12.514 321.001 11.104 321.049 9.544H318.223V8.248H326.377ZM344.217 7.546H345.729V22.828H344.217V7.546ZM337.035 11.182V9.58H333.723V8.23H341.787V9.58H338.583V11.146C338.571 12.646 338.925 13.966 339.645 15.106C340.329 16.198 341.235 17.224 342.363 18.184L341.445 19.12C340.269 18.148 339.207 16.936 338.259 15.484C338.103 15.244 337.959 15.004 337.827 14.764C337.671 15.124 337.479 15.472 337.251 15.808C336.267 17.308 335.181 18.466 333.993 19.282L332.985 18.31C334.113 17.554 335.103 16.504 335.955 15.16C336.675 14.008 337.035 12.682 337.035 11.182ZM362.306 12.694C362.306 13.27 362.186 13.816 361.946 14.332C361.718 14.836 361.406 15.28 361.01 15.664C360.602 16.06 360.128 16.372 359.588 16.6C359.06 16.816 358.49 16.924 357.878 16.924C357.266 16.924 356.69 16.816 356.15 16.6C355.622 16.372 355.154 16.06 354.746 15.664C354.35 15.28 354.032 14.836 353.792 14.332C353.564 13.816 353.45 13.27 353.45 12.694C353.45 12.118 353.564 11.578 353.792 11.074C354.032 10.558 354.35 10.108 354.746 9.724C355.154 9.328 355.622 9.022 356.15 8.806C356.69 8.578 357.266 8.464 357.878 8.464C358.49 8.464 359.06 8.578 359.588 8.806C360.128 9.022 360.602 9.328 361.01 9.724C361.406 10.108 361.718 10.558 361.946 11.074C362.186 11.578 362.306 12.118 362.306 12.694ZM360.794 12.694C360.794 12.286 360.716 11.908 360.56 11.56C360.404 11.212 360.194 10.906 359.93 10.642C359.666 10.378 359.36 10.168 359.012 10.012C358.664 9.856 358.286 9.778 357.878 9.778C357.47 9.778 357.092 9.856 356.744 10.012C356.396 10.168 356.09 10.378 355.826 10.642C355.562 10.906 355.352 11.212 355.196 11.56C355.04 11.908 354.962 12.286 354.962 12.694C354.962 13.102 355.04 13.48 355.196 13.828C355.352 14.176 355.562 14.482 355.826 14.746C356.09 15.01 356.396 15.22 356.744 15.376C357.092 15.532 357.47 15.61 357.878 15.61C358.286 15.61 358.664 15.532 359.012 15.376C359.36 15.22 359.666 15.01 359.93 14.746C360.194 14.482 360.404 14.176 360.56 13.828C360.716 13.48 360.794 13.102 360.794 12.694ZM364.628 7.546H366.14V22.828H364.628V7.546ZM377.463 13.36C377.403 13.696 377.307 14.014 377.175 14.314C376.935 14.83 376.617 15.28 376.221 15.664C375.813 16.06 375.339 16.372 374.799 16.6C374.271 16.816 373.701 16.924 373.089 16.924C372.477 16.924 371.901 16.816 371.361 16.6C370.833 16.372 370.365 16.06 369.957 15.664C369.561 15.28 369.243 14.836 369.003 14.332C368.775 13.816 368.661 13.27 368.661 12.694C368.661 12.118 368.775 11.578 369.003 11.074C369.243 10.558 369.561 10.108 369.957 9.724C370.365 9.328 370.833 9.022 371.361 8.806C371.901 8.578 372.477 8.464 373.089 8.464C373.701 8.464 374.271 8.578 374.799 8.806C375.339 9.022 375.813 9.328 376.221 9.724C376.617 10.108 376.935 10.552 377.175 11.056C377.307 11.356 377.403 11.668 377.463 11.992H380.001V7.546H381.513V22.828H380.001V13.36H377.463ZM376.005 12.694C376.005 12.286 375.927 11.908 375.771 11.56C375.615 11.212 375.405 10.906 375.141 10.642C374.877 10.378 374.571 10.168 374.223 10.012C373.875 9.856 373.497 9.778 373.089 9.778C372.681 9.778 372.303 9.856 371.955 10.012C371.607 10.168 371.301 10.378 371.037 10.642C370.773 10.906 370.563 11.212 370.407 11.56C370.251 11.908 370.173 12.286 370.173 12.694C370.173 13.102 370.251 13.48 370.407 13.828C370.563 14.176 370.773 14.482 371.037 14.746C371.301 15.01 371.607 15.22 371.955 15.376C372.303 15.532 372.681 15.61 373.089 15.61C373.497 15.61 373.875 15.532 374.223 15.376C374.571 15.22 374.877 15.01 375.141 14.746C375.405 14.482 375.615 14.176 375.771 13.828C375.927 13.48 376.005 13.102 376.005 12.694ZM395.212 7.546H396.724V22.828H395.212V7.546ZM388.03 11.182V9.58H384.718V8.23H392.782V9.58H389.578V11.146C389.566 12.646 389.92 13.966 390.64 15.106C391.324 16.198 392.23 17.224 393.358 18.184L392.44 19.12C391.264 18.148 390.202 16.936 389.254 15.484C389.098 15.244 388.954 15.004 388.822 14.764C388.666 15.124 388.474 15.472 388.246 15.808C387.262 17.308 386.176 18.466 384.988 19.282L383.98 18.31C385.108 17.554 386.098 16.504 386.95 15.16C387.67 14.008 388.03 12.682 388.03 11.182ZM401.261 7.762H402.773V12.1H411.611V13.45H401.261V7.762ZM399.533 16.816V15.448H413.105V16.816H399.533ZM411.647 22.828H401.351V18.598H402.899V21.478H411.647V22.828ZM427.397 17.968V23.116H425.885V17.968H419.855V16.636H433.427V17.968H427.397ZM427.415 8.986C427.415 10.054 427.913 10.996 428.909 11.812C429.953 12.676 431.171 13.342 432.563 13.81L431.771 14.872C430.259 14.404 428.951 13.69 427.847 12.73C427.355 12.31 426.953 11.854 426.641 11.362C426.329 11.854 425.927 12.31 425.435 12.73C424.331 13.69 423.023 14.404 421.511 14.872L420.719 13.81C422.111 13.342 423.329 12.676 424.373 11.812C425.369 10.996 425.867 10.054 425.867 8.986V7.6H427.415V8.986ZM448.764 19.858V21.19H435.192V19.858H441.222V16.078H442.734V19.858H448.764ZM442.752 9.562C442.752 10.906 443.28 12.064 444.336 13.036C445.476 14.08 446.73 14.806 448.098 15.214L447.27 16.294C445.542 15.718 444.096 14.812 442.932 13.576C442.548 13.18 442.23 12.76 441.978 12.316C441.726 12.76 441.408 13.18 441.024 13.576C439.86 14.812 438.414 15.718 436.686 16.294L435.858 15.214C437.214 14.806 438.462 14.08 439.602 13.036C440.67 12.064 441.204 10.906 441.204 9.562V8.014H442.752V9.562ZM461.561 14.89H456.035V7.942H457.439V9.994H460.175V7.942H461.561V14.89ZM460.175 13.702V11.164H457.439V13.702H460.175ZM467.033 11.938H464.909V15.196H463.451V7.546H464.909V10.696H467.033V7.546H468.509V15.196H467.033V11.938ZM468.707 22.828H458.843V19.012H466.997V17.59H458.843V16.402H468.509V20.218H460.355V21.64H468.707V22.828ZM482.784 15.556H472.578V11.074H481.182V9.202H472.578V7.906H482.694V12.352H474.09V14.26H482.784V15.556ZM484.422 18.742H481.182V23.116H479.652V18.742H475.62V23.116H474.09V18.742H470.85V17.482H484.422V18.742ZM492.901 10.48H490.381V11.65C490.393 12.958 490.645 14.164 491.137 15.268C491.725 16.576 492.433 17.686 493.261 18.598L492.289 19.372C491.269 18.22 490.471 17.02 489.895 15.772C489.799 15.58 489.715 15.388 489.643 15.196C489.571 15.364 489.493 15.532 489.409 15.7C488.773 17.056 487.897 18.31 486.781 19.462L485.719 18.634C486.655 17.794 487.471 16.666 488.167 15.25C488.671 14.206 488.923 12.952 488.923 11.488V10.48H486.133V9.112H488.923V7.276H490.381V9.112H492.901V10.48ZM497.779 7.546H499.255V22.828H497.779V7.546ZM495.925 22.828H494.503V14.206H492.163V12.766H494.503V7.546H495.925V22.828ZM510.093 11.974C510.093 12.514 509.979 13.03 509.751 13.522C509.535 14.014 509.235 14.44 508.851 14.8C508.455 15.172 508.005 15.466 507.501 15.682C506.997 15.886 506.451 15.988 505.863 15.988C505.275 15.988 504.729 15.886 504.225 15.682C503.721 15.466 503.271 15.172 502.875 14.8C502.491 14.44 502.185 14.014 501.957 13.522C501.741 13.03 501.633 12.514 501.633 11.974C501.633 11.434 501.741 10.918 501.957 10.426C502.185 9.934 502.491 9.508 502.875 9.148C503.271 8.776 503.721 8.488 504.225 8.284C504.729 8.068 505.275 7.96 505.863 7.96C506.451 7.96 506.997 8.068 507.501 8.284C508.005 8.488 508.455 8.776 508.851 9.148C509.235 9.508 509.535 9.934 509.751 10.426C509.979 10.918 510.093 11.434 510.093 11.974ZM508.581 11.974C508.581 11.602 508.509 11.254 508.365 10.93C508.221 10.606 508.023 10.324 507.771 10.084C507.531 9.832 507.243 9.634 506.907 9.49C506.571 9.346 506.223 9.274 505.863 9.274C505.503 9.274 505.155 9.346 504.819 9.49C504.483 9.634 504.195 9.832 503.955 10.084C503.703 10.324 503.505 10.606 503.361 10.93C503.217 11.254 503.145 11.602 503.145 11.974C503.145 12.346 503.217 12.694 503.361 13.018C503.505 13.342 503.703 13.63 503.955 13.882C504.195 14.122 504.483 14.314 504.819 14.458C505.155 14.602 505.503 14.674 505.863 14.674C506.223 14.674 506.571 14.602 506.907 14.458C507.243 14.314 507.531 14.122 507.771 13.882C508.023 13.63 508.221 13.342 508.365 13.018C508.509 12.694 508.581 12.346 508.581 11.974ZM514.053 7.546V18.616H512.541V7.546H514.053ZM514.521 22.828H504.747V18.13H506.277V21.478H514.521V22.828ZM527.716 10.75C527.716 11.242 527.608 11.71 527.392 12.154C527.176 12.586 526.888 12.97 526.528 13.306C526.384 13.438 526.228 13.558 526.06 13.666H530.434V14.89H516.862V13.666H521.236C521.068 13.558 520.912 13.438 520.768 13.306C520.408 12.97 520.12 12.586 519.904 12.154C519.688 11.71 519.58 11.242 519.58 10.75C519.58 10.258 519.688 9.79 519.904 9.346C520.12 8.902 520.408 8.512 520.768 8.176C521.14 7.84 521.572 7.576 522.064 7.384C522.556 7.192 523.084 7.096 523.648 7.096C524.212 7.096 524.74 7.192 525.232 7.384C525.724 7.576 526.156 7.84 526.528 8.176C526.888 8.512 527.176 8.902 527.392 9.346C527.608 9.79 527.716 10.258 527.716 10.75ZM526.204 10.786C526.204 10.102 525.952 9.52 525.448 9.04C524.956 8.548 524.356 8.302 523.648 8.302C522.94 8.302 522.334 8.548 521.83 9.04C521.338 9.52 521.092 10.102 521.092 10.786C521.092 11.47 521.338 12.058 521.83 12.55C522.334 13.03 522.94 13.27 523.648 13.27C524.356 13.27 524.956 13.03 525.448 12.55C525.952 12.058 526.204 11.47 526.204 10.786ZM528.886 22.828H518.59V18.94H527.194V17.446H518.59V16.258H528.706V20.146H520.102V21.64H528.886V22.828ZM9.414 42.02C9.414 42.5 9.312 42.956 9.108 43.388C8.904 43.82 8.634 44.192 8.298 44.504C7.938 44.84 7.53 45.098 7.074 45.278C6.858 45.362 6.642 45.428 6.426 45.476V47.024H6.732C8.592 47.024 10.212 46.952 11.592 46.808V38.546H13.104V43.37H15.264V44.702H13.104V49.904H11.592V48.05C10.284 48.218 8.67 48.302 6.75 48.302H0.738V47.024H4.95V45.512C4.65 45.476 4.368 45.398 4.104 45.278C3.636 45.098 3.222 44.84 2.862 44.504C2.526 44.192 2.256 43.82 2.052 43.388C1.848 42.956 1.746 42.5 1.746 42.02C1.746 41.54 1.848 41.084 2.052 40.652C2.256 40.22 2.526 39.848 2.862 39.536C3.222 39.2 3.63 38.942 4.086 38.762C4.554 38.57 5.052 38.474 5.58 38.474C6.108 38.474 6.6 38.57 7.056 38.762C7.524 38.942 7.938 39.2 8.298 39.536C8.634 39.848 8.904 40.22 9.108 40.652C9.312 41.084 9.414 41.54 9.414 42.02ZM7.902 42.02C7.902 41.396 7.674 40.862 7.218 40.418C6.762 39.974 6.216 39.752 5.58 39.752C4.944 39.752 4.398 39.974 3.942 40.418C3.486 40.862 3.258 41.396 3.258 42.02C3.258 42.644 3.486 43.178 3.942 43.622C4.398 44.066 4.944 44.288 5.58 44.288C6.216 44.288 6.762 44.066 7.218 43.622C7.674 43.178 7.902 42.644 7.902 42.02ZM13.5 53.828H3.402V49.868H4.95V52.514H13.5V53.828ZM28.9273 38.546V47.168H27.4153V42.938H24.3013V41.642H27.4153V38.546H28.9273ZM28.6213 51.056C28.6213 51.536 28.5133 51.998 28.2973 52.442C28.0933 52.874 27.8173 53.252 27.4693 53.576C27.1093 53.9 26.6893 54.158 26.2093 54.35C25.7293 54.542 25.2133 54.638 24.6613 54.638C24.1093 54.638 23.5933 54.542 23.1133 54.35C22.6333 54.158 22.2133 53.9 21.8533 53.576C21.5053 53.252 21.2233 52.874 21.0073 52.442C20.8033 51.998 20.7013 51.536 20.7013 51.056C20.7013 50.576 20.8033 50.12 21.0073 49.688C21.2233 49.244 21.5053 48.86 21.8533 48.536C22.2133 48.212 22.6333 47.954 23.1133 47.762C23.5933 47.57 24.1093 47.474 24.6613 47.474C25.2133 47.474 25.7293 47.57 26.2093 47.762C26.6893 47.954 27.1093 48.212 27.4693 48.536C27.8173 48.86 28.0933 49.244 28.2973 49.688C28.5133 50.12 28.6213 50.576 28.6213 51.056ZM27.1093 51.056C27.1093 50.42 26.8693 49.88 26.3893 49.436C25.9093 48.98 25.3333 48.752 24.6613 48.752C23.9893 48.752 23.4133 48.98 22.9333 49.436C22.4533 49.88 22.2133 50.42 22.2133 51.056C22.2133 51.692 22.4533 52.238 22.9333 52.694C23.4133 53.138 23.9893 53.36 24.6613 53.36C25.3333 53.36 25.9093 53.138 26.3893 52.694C26.8693 52.238 27.1093 51.692 27.1093 51.056ZM21.5833 40.256C21.5833 41.468 21.9313 42.506 22.6273 43.37C23.3233 44.198 24.1813 44.9 25.2013 45.476L24.3373 46.556C23.2573 46.004 22.2733 45.188 21.3853 44.108C21.2053 43.892 21.0433 43.664 20.8993 43.424C20.7193 43.784 20.5033 44.126 20.2513 44.45C19.3513 45.65 18.3613 46.55 17.2813 47.15L16.3273 46.142C17.3593 45.578 18.2653 44.768 19.0453 43.712C19.7053 42.812 20.0353 41.66 20.0353 40.256V38.942H21.5833V40.256ZM35.2825 39.716V38.294H37.0105V39.716H40.4845V40.904H38.3605C38.5285 41.012 38.6845 41.132 38.8285 41.264C39.1645 41.564 39.4285 41.924 39.6205 42.344C39.8245 42.764 39.9265 43.196 39.9265 43.64C39.9265 44.084 39.8245 44.51 39.6205 44.918C39.4285 45.326 39.1645 45.68 38.8285 45.98C38.4925 46.292 38.0905 46.538 37.6225 46.718C37.1665 46.886 36.6745 46.97 36.1465 46.97C35.6185 46.97 35.1205 46.886 34.6525 46.718C34.1965 46.538 33.8005 46.292 33.4645 45.98C33.1285 45.68 32.8585 45.326 32.6545 44.918C32.4625 44.51 32.3665 44.084 32.3665 43.64C32.3665 43.196 32.4625 42.764 32.6545 42.344C32.8585 41.924 33.1285 41.564 33.4645 41.264C33.6085 41.132 33.7645 41.012 33.9325 40.904H31.8085V39.716H35.2825ZM38.4325 43.55C38.4325 42.95 38.2045 42.434 37.7485 42.002C37.3045 41.57 36.7705 41.354 36.1465 41.354C35.5225 41.354 34.9825 41.57 34.5265 42.002C34.0825 42.434 33.8605 42.95 33.8605 43.55C33.8605 44.15 34.0825 44.666 34.5265 45.098C34.9825 45.53 35.5225 45.746 36.1465 45.746C36.7705 45.746 37.3045 45.53 37.7485 45.098C38.2045 44.666 38.4325 44.15 38.4325 43.55ZM43.8145 38.546V42.326H45.9745V43.622H43.8145V46.808H42.3025V38.546H43.8145ZM43.8145 53.828H34.2385V47.996H35.7325V49.274H42.3205V47.996H43.8145V53.828ZM42.3205 52.586V50.498H35.7325V52.586H42.3205ZM48.3518 49.562V39.158H49.8638V48.194H52.8158C54.8558 48.194 56.6138 48.068 58.0898 47.816V38.546H59.6018V53.828H58.0898V49.202C56.6858 49.442 54.9398 49.562 52.8518 49.562H48.3518ZM63.3651 49.832V39.23H69.9171V40.598H64.8771V48.464H66.9291C68.8731 48.464 70.7331 48.29 72.5091 47.942V38.546H74.0211V43.658H76.3971V45.062H74.0211V53.828H72.5091V49.31C70.8291 49.658 69.0111 49.832 67.0551 49.832H63.3651ZM78.5043 52.352V50.228H80.7003V52.352H78.5043ZM88.6442 39.842H92.2442C93.4322 39.842 94.3562 39.986 95.0162 40.274C95.4482 40.454 95.8202 40.712 96.1322 41.048C96.7322 41.72 97.0322 42.542 97.0322 43.514C97.0322 44.474 96.7322 45.29 96.1322 45.962C95.8202 46.298 95.4482 46.556 95.0162 46.736C94.3802 47 93.4082 47.132 92.1002 47.132H90.2282V51.632H88.6442V39.842ZM90.2282 45.8H92.6762C93.5642 45.8 94.2482 45.578 94.7282 45.134C95.1962 44.714 95.4302 44.174 95.4302 43.514C95.4302 42.83 95.1962 42.278 94.7282 41.858C94.2482 41.402 93.5642 41.174 92.6762 41.174H90.2282V45.8ZM100.89 50.3H106.902V51.632H99.3057V39.842H106.776V41.174H100.89V44.954H106.218V46.268H100.89V50.3ZM115.78 51.632H114.718L110.758 41.588V51.632H109.282V39.842H111.352L115.258 49.4L119.128 39.842H121.216V51.632H119.722V41.588L115.78 51.632ZM136.111 48.968V54.116H134.599V48.968H128.569V47.636H142.141V48.968H136.111ZM136.129 39.986C136.129 41.054 136.627 41.996 137.623 42.812C138.667 43.676 139.885 44.342 141.277 44.81L140.485 45.872C138.973 45.404 137.665 44.69 136.561 43.73C136.069 43.31 135.667 42.854 135.355 42.362C135.043 42.854 134.641 43.31 134.149 43.73C133.045 44.69 131.737 45.404 130.225 45.872L129.433 44.81C130.825 44.342 132.043 43.676 133.087 42.812C134.083 41.996 134.581 41.054 134.581 39.986V38.6H136.129V39.986ZM156.434 38.546V49.616H154.922V43.964H152.096V42.632H154.922V38.546H156.434ZM156.902 53.828H147.128V49.274H148.676V52.496H156.902V53.828ZM147.578 41.66V40.508H144.41V39.158H152.456V40.508H149.126V41.75C149.126 42.818 149.486 43.754 150.206 44.558C151.058 45.518 151.976 46.226 152.96 46.682L152.15 47.708C150.89 47.072 149.816 46.262 148.928 45.278C148.712 45.038 148.526 44.792 148.37 44.54C148.202 44.84 148.004 45.128 147.776 45.404C146.936 46.46 145.94 47.3 144.788 47.924L143.834 46.952C144.89 46.388 145.832 45.59 146.66 44.558C147.272 43.79 147.578 42.824 147.578 41.66ZM162.069 40.202V38.546H163.689V40.202H166.803V41.426H165.003C165.219 41.57 165.417 41.732 165.597 41.912C165.945 42.26 166.221 42.668 166.425 43.136C166.629 43.604 166.731 44.102 166.731 44.63C166.731 45.158 166.629 45.656 166.425 46.124C166.221 46.592 165.945 47 165.597 47.348C165.249 47.696 164.841 47.972 164.373 48.176C163.905 48.38 163.407 48.482 162.879 48.482C162.351 48.482 161.853 48.38 161.385 48.176C160.917 47.972 160.509 47.696 160.161 47.348C159.813 47 159.537 46.592 159.333 46.124C159.129 45.656 159.027 45.158 159.027 44.63C159.027 44.102 159.129 43.604 159.333 43.136C159.537 42.668 159.813 42.26 160.161 41.912C160.341 41.732 160.539 41.57 160.755 41.426H158.901V40.202H162.069ZM165.381 44.594C165.381 44.246 165.315 43.916 165.183 43.604C165.051 43.292 164.871 43.016 164.643 42.776C164.415 42.548 164.151 42.368 163.851 42.236C163.551 42.092 163.233 42.02 162.897 42.02C162.561 42.02 162.243 42.092 161.943 42.236C161.643 42.368 161.379 42.548 161.151 42.776C160.923 43.016 160.743 43.292 160.611 43.604C160.479 43.916 160.413 44.246 160.413 44.594C160.413 44.942 160.479 45.272 160.611 45.584C160.743 45.896 160.923 46.172 161.151 46.412C161.379 46.64 161.643 46.826 161.943 46.97C162.243 47.102 162.561 47.168 162.897 47.168C163.233 47.168 163.551 47.102 163.851 46.97C164.151 46.826 164.415 46.64 164.643 46.412C164.871 46.172 165.051 45.896 165.183 45.584C165.315 45.272 165.381 44.942 165.381 44.594ZM171.267 38.546H172.653V53.828H171.267V44.54H169.503V53.828H168.117V38.546H169.503V43.208H171.267V38.546ZM176.309 38.762H177.821V43.1H186.659V44.45H176.309V38.762ZM174.581 47.816V46.448H188.153V47.816H174.581ZM186.695 53.828H176.399V49.598H177.947V52.478H186.695V53.828ZM206.494 39.374V43.784C206.494 46.112 206.284 48.308 205.864 50.372H208.474V51.704H194.902V50.372H204.424C204.796 48.404 204.982 46.352 204.982 44.216V40.706H196.414V39.374H206.494ZM215.223 45.224H228.795V46.43H222.783V47.888H227.067V51.434H218.463V52.694H227.247V53.828H216.951V50.282H225.555V49.022H216.951V47.888H221.235V46.43H215.223V45.224ZM221.181 40.652H216.735V39.482H221.199V38.258H222.819V39.482H227.265V40.652H222.837V40.832C222.837 41.3 223.437 41.828 224.637 42.416C225.609 42.884 226.677 43.148 227.841 43.208L227.355 44.288C226.095 44.216 224.853 43.88 223.629 43.28C222.945 42.944 222.405 42.602 222.009 42.254C221.613 42.602 221.073 42.944 220.389 43.28C219.165 43.88 217.923 44.216 216.663 44.288L216.177 43.208C217.341 43.148 218.409 42.884 219.381 42.416C220.581 41.828 221.181 41.3 221.181 40.832V40.652ZM238.084 45.818H231.064V38.942H232.54V40.958H236.608V38.942H238.084V45.818ZM236.608 44.63V42.128H232.54V44.63H236.608ZM242.278 38.546V41.66H244.438V42.992H242.278V46.16H240.766V38.546H242.278ZM242.476 53.828H232.792V50.012H240.766V48.59H232.792V47.402H242.278V51.218H234.304V52.64H242.476V53.828ZM258.425 38.546V46.862H256.913V43.55H254.087V42.272H256.913V38.546H258.425ZM256.913 49.49H250.433V52.568H256.913V49.49ZM258.425 53.828H248.939V48.23H258.425V53.828ZM249.569 41.552V40.454H246.401V39.158H254.447V40.454H251.117V41.642C251.117 42.458 251.477 43.22 252.197 43.928C253.001 44.72 253.901 45.314 254.897 45.71L254.159 46.754C252.827 46.19 251.747 45.458 250.919 44.558C250.715 44.33 250.535 44.108 250.379 43.892C250.235 44.096 250.079 44.306 249.911 44.522C248.939 45.71 247.913 46.532 246.833 46.988L245.897 45.98C246.929 45.548 247.859 44.84 248.687 43.856C249.275 43.1 249.569 42.332 249.569 41.552ZM269.37 42.578C269.37 43.082 269.262 43.562 269.046 44.018C268.842 44.474 268.56 44.864 268.2 45.188C267.828 45.536 267.396 45.812 266.904 46.016C266.424 46.208 265.908 46.304 265.356 46.304C264.804 46.304 264.282 46.208 263.79 46.016C263.31 45.812 262.884 45.536 262.512 45.188C262.152 44.864 261.864 44.474 261.648 44.018C261.444 43.562 261.342 43.082 261.342 42.578C261.342 42.074 261.444 41.594 261.648 41.138C261.864 40.682 262.152 40.292 262.512 39.968C262.884 39.62 263.31 39.35 263.79 39.158C264.282 38.954 264.804 38.852 265.356 38.852C265.908 38.852 266.424 38.954 266.904 39.158C267.396 39.35 267.828 39.62 268.2 39.968C268.56 40.292 268.842 40.682 269.046 41.138C269.262 41.594 269.37 42.074 269.37 42.578ZM267.858 42.578C267.858 41.906 267.612 41.33 267.12 40.85C266.628 40.37 266.04 40.13 265.356 40.13C264.672 40.13 264.084 40.37 263.592 40.85C263.1 41.33 262.854 41.906 262.854 42.578C262.854 43.25 263.1 43.826 263.592 44.306C264.084 44.786 264.672 45.026 265.356 45.026C266.04 45.026 266.628 44.786 267.12 44.306C267.612 43.826 267.858 43.25 267.858 42.578ZM273.762 38.546V46.61H272.25V38.546H273.762ZM273.762 53.828H264.276V47.654H265.77V49.058H272.268V47.654H273.762V53.828ZM272.268 52.604V50.264H265.77V52.604H272.268ZM277.85 49.562V39.158H279.362V48.194H282.314C284.354 48.194 286.112 48.068 287.588 47.816V38.546H289.1V53.828H287.588V49.202C286.184 49.442 284.438 49.562 282.35 49.562H277.85ZM292.863 49.832V39.23H299.415V40.598H294.375V48.464H296.427C298.371 48.464 300.231 48.29 302.007 47.942V38.546H303.519V43.658H305.895V45.062H303.519V53.828H302.007V49.31C300.327 49.658 298.509 49.832 296.553 49.832H292.863ZM308.002 52.352V50.228H310.198V52.352H308.002ZM329.356 39.374V42.866C329.356 44.978 329.146 46.934 328.726 48.734H327.268C327.652 46.97 327.844 45.146 327.844 43.262V40.706H319.06V39.374H329.356ZM331.102 50.75V52.082H317.53V50.75H322.174V44.774H323.686V50.75H331.102ZM344.981 41.318H342.191C342.359 41.438 342.515 41.564 342.659 41.696C343.043 42.044 343.349 42.464 343.577 42.956C343.805 43.436 343.919 43.94 343.919 44.468C343.919 44.996 343.805 45.5 343.577 45.98C343.349 46.448 343.043 46.856 342.659 47.204C342.275 47.564 341.825 47.846 341.309 48.05C340.793 48.254 340.241 48.356 339.653 48.356C339.065 48.356 338.513 48.254 337.997 48.05C337.481 47.846 337.031 47.564 336.647 47.204C336.263 46.856 335.957 46.448 335.729 45.98C335.501 45.5 335.387 44.996 335.387 44.468C335.387 43.94 335.501 43.436 335.729 42.956C335.957 42.464 336.263 42.044 336.647 41.696C336.791 41.564 336.947 41.438 337.115 41.318H334.307V40.058H338.753V38.33H340.553V40.058H344.981V41.318ZM342.407 44.414C342.407 44.042 342.329 43.694 342.173 43.37C342.029 43.046 341.831 42.758 341.579 42.506C341.339 42.278 341.051 42.092 340.715 41.948C340.379 41.804 340.025 41.732 339.653 41.732C339.281 41.732 338.927 41.804 338.591 41.948C338.255 42.092 337.967 42.278 337.727 42.506C337.475 42.758 337.271 43.046 337.115 43.37C336.971 43.694 336.899 44.042 336.899 44.414C336.899 44.786 336.971 45.134 337.115 45.458C337.271 45.782 337.475 46.07 337.727 46.322C337.967 46.55 338.255 46.736 338.591 46.88C338.927 47.024 339.281 47.096 339.653 47.096C340.025 47.096 340.379 47.024 340.715 46.88C341.051 46.736 341.339 46.55 341.579 46.322C341.831 46.07 342.029 45.782 342.173 45.458C342.329 45.134 342.407 44.786 342.407 44.414ZM343.505 48.302V50.912H346.439V52.19H332.867V50.912H335.801V48.302H337.313V50.912H341.993V48.302H343.505ZM358.915 41.588C358.915 42.056 358.807 42.512 358.591 42.956C358.387 43.4 358.111 43.772 357.763 44.072C357.631 44.192 357.487 44.306 357.331 44.414H361.777V45.638H358.213V47.276H360.049V51.128H351.445V52.658H360.229V53.828H349.933V49.958H358.537V48.446H349.933V47.276H351.769V45.638H348.205V44.414H352.651C352.495 44.306 352.351 44.192 352.219 44.072C351.871 43.772 351.589 43.4 351.373 42.956C351.169 42.512 351.067 42.056 351.067 41.588C351.067 41.12 351.169 40.67 351.373 40.238C351.589 39.806 351.871 39.44 352.219 39.14C352.567 38.816 352.981 38.564 353.461 38.384C353.941 38.192 354.451 38.096 354.991 38.096C355.531 38.096 356.041 38.192 356.521 38.384C357.001 38.564 357.415 38.816 357.763 39.14C358.111 39.44 358.387 39.806 358.591 40.238C358.807 40.67 358.915 41.12 358.915 41.588ZM357.403 41.642C357.403 41.018 357.163 40.478 356.683 40.022C356.215 39.554 355.651 39.32 354.991 39.32C354.331 39.32 353.761 39.554 353.281 40.022C352.813 40.478 352.579 41.018 352.579 41.642C352.579 42.266 352.813 42.812 353.281 43.28C353.761 43.736 354.331 43.964 354.991 43.964C355.651 43.964 356.215 43.736 356.683 43.28C357.163 42.812 357.403 42.266 357.403 41.642ZM356.737 47.276V45.638H353.245V47.276H356.737ZM364.334 54.35C365.126 54.026 365.522 53.348 365.522 52.316H364.298V50.228H366.494V52.118C366.494 53.594 365.9 54.542 364.712 54.962L364.334 54.35ZM385.652 39.374V42.866C385.652 44.978 385.442 46.934 385.022 48.734H383.564C383.948 46.97 384.14 45.146 384.14 43.262V40.706H375.356V39.374H385.652ZM387.398 50.75V52.082H373.826V50.75H378.47V44.774H379.982V50.75H387.398ZM402.735 46.556V47.888H396.903V50.462H395.355V47.888H389.163V46.556H402.735ZM401.223 53.828H390.891V49.85H392.439V52.478H401.223V53.828ZM396.723 39.554C396.723 40.61 397.287 41.57 398.415 42.434C399.447 43.19 400.659 43.7 402.051 43.964L401.403 45.098C399.963 44.882 398.583 44.282 397.263 43.298C396.711 42.902 396.273 42.458 395.949 41.966C395.613 42.458 395.169 42.902 394.617 43.298C393.309 44.282 391.935 44.882 390.495 45.098L389.847 43.964C391.239 43.7 392.451 43.19 393.483 42.434C394.611 41.57 395.175 40.61 395.175 39.554V38.528H396.723V39.554ZM406.228 39.356H416.272V40.724H407.74V45.746H416.398V47.114H412.042V50.858H418.072V52.19H404.5V50.858H410.53V47.114H406.228V39.356ZM420.63 54.35C421.422 54.026 421.818 53.348 421.818 52.316H420.594V50.228H422.79V52.118C422.79 53.594 422.196 54.542 421.008 54.962L420.63 54.35ZM435.396 43.946V48.698H437.466V43.946H435.396ZM434.01 42.686V39.14H435.396V42.686H437.466V39.14H438.87V49.976H430.536V39.14H431.94V42.686H434.01ZM434.01 48.698V43.946H431.94V48.698H434.01ZM442.326 38.546V43.73H444.216V45.17H442.326V53.828H440.868V38.546H442.326ZM457.393 45.89H447.187V41.75H455.791V40.112H447.187V38.852H457.303V42.992H448.699V44.63H457.393V45.89ZM445.459 47.546H459.031V48.86H445.459V47.546ZM457.573 53.828H447.277V50.282H448.861V52.532H457.573V53.828ZM476.598 41.93C476.598 42.434 476.49 42.914 476.274 43.37C476.058 43.814 475.77 44.204 475.41 44.54C475.05 44.876 474.624 45.146 474.132 45.35C473.64 45.542 473.118 45.638 472.566 45.638C472.014 45.638 471.492 45.542 471 45.35C470.508 45.146 470.082 44.876 469.722 44.54C469.362 44.204 469.074 43.814 468.858 43.37C468.642 42.914 468.534 42.434 468.534 41.93C468.534 41.426 468.642 40.952 468.858 40.508C469.074 40.052 469.362 39.656 469.722 39.32C470.082 38.984 470.508 38.72 471 38.528C471.492 38.324 472.014 38.222 472.566 38.222C473.118 38.222 473.64 38.324 474.132 38.528C474.624 38.72 475.05 38.984 475.41 39.32C475.77 39.656 476.058 40.052 476.274 40.508C476.49 40.952 476.598 41.426 476.598 41.93ZM475.086 41.93C475.086 41.258 474.84 40.682 474.348 40.202C473.856 39.722 473.262 39.482 472.566 39.482C471.87 39.482 471.276 39.722 470.784 40.202C470.292 40.682 470.046 41.258 470.046 41.93C470.046 42.602 470.292 43.178 470.784 43.658C471.276 44.138 471.87 44.378 472.566 44.378C473.262 44.378 473.856 44.138 474.348 43.658C474.84 43.178 475.086 42.602 475.086 41.93ZM479.352 46.844V48.122H475.014C475.158 48.218 475.29 48.326 475.41 48.446C475.77 48.77 476.052 49.154 476.256 49.598C476.472 50.042 476.58 50.51 476.58 51.002C476.58 51.494 476.472 51.962 476.256 52.406C476.052 52.85 475.77 53.234 475.41 53.558C475.05 53.894 474.624 54.158 474.132 54.35C473.64 54.542 473.118 54.638 472.566 54.638C472.014 54.638 471.492 54.542 471 54.35C470.508 54.158 470.082 53.894 469.722 53.558C469.362 53.234 469.074 52.85 468.858 52.406C468.654 51.962 468.552 51.494 468.552 51.002C468.552 50.51 468.654 50.042 468.858 49.598C469.074 49.154 469.362 48.77 469.722 48.446C469.842 48.326 469.974 48.218 470.118 48.122H465.78V46.844H479.352ZM475.068 50.966C475.068 50.294 474.822 49.724 474.33 49.256C473.838 48.776 473.25 48.536 472.566 48.536C471.882 48.536 471.294 48.776 470.802 49.256C470.31 49.724 470.064 50.294 470.064 50.966C470.064 51.638 470.31 52.214 470.802 52.694C471.294 53.162 471.882 53.396 472.566 53.396C473.25 53.396 473.838 53.162 474.33 52.694C474.822 52.214 475.068 51.638 475.068 50.966ZM481.945 46.124V39.158H488.911V40.472H483.457V44.828H486.193C488.197 44.828 489.907 44.714 491.323 44.486V38.546H492.835V41.966H494.995V43.298H492.835V46.61H491.323V45.782C489.943 46.01 488.269 46.124 486.301 46.124H481.945ZM492.835 53.828H483.349V47.654H484.843V49.058H491.341V47.654H492.835V53.828ZM491.341 52.604V50.264H484.843V52.604H491.341ZM508.982 38.546V47.168H507.47V42.938H504.356V41.642H507.47V38.546H508.982ZM508.676 51.056C508.676 51.536 508.568 51.998 508.352 52.442C508.148 52.874 507.872 53.252 507.524 53.576C507.164 53.9 506.744 54.158 506.264 54.35C505.784 54.542 505.268 54.638 504.716 54.638C504.164 54.638 503.648 54.542 503.168 54.35C502.688 54.158 502.268 53.9 501.908 53.576C501.56 53.252 501.278 52.874 501.062 52.442C500.858 51.998 500.756 51.536 500.756 51.056C500.756 50.576 500.858 50.12 501.062 49.688C501.278 49.244 501.56 48.86 501.908 48.536C502.268 48.212 502.688 47.954 503.168 47.762C503.648 47.57 504.164 47.474 504.716 47.474C505.268 47.474 505.784 47.57 506.264 47.762C506.744 47.954 507.164 48.212 507.524 48.536C507.872 48.86 508.148 49.244 508.352 49.688C508.568 50.12 508.676 50.576 508.676 51.056ZM507.164 51.056C507.164 50.42 506.924 49.88 506.444 49.436C505.964 48.98 505.388 48.752 504.716 48.752C504.044 48.752 503.468 48.98 502.988 49.436C502.508 49.88 502.268 50.42 502.268 51.056C502.268 51.692 502.508 52.238 502.988 52.694C503.468 53.138 504.044 53.36 504.716 53.36C505.388 53.36 505.964 53.138 506.444 52.694C506.924 52.238 507.164 51.692 507.164 51.056ZM501.638 40.256C501.638 41.468 501.986 42.506 502.682 43.37C503.378 44.198 504.236 44.9 505.256 45.476L504.392 46.556C503.312 46.004 502.328 45.188 501.44 44.108C501.26 43.892 501.098 43.664 500.954 43.424C500.774 43.784 500.558 44.126 500.306 44.45C499.406 45.65 498.416 46.55 497.336 47.15L496.382 46.142C497.414 45.578 498.32 44.768 499.1 43.712C499.76 42.812 500.09 41.66 500.09 40.256V38.942H501.638V40.256ZM522.646 41.75C522.646 42.242 522.538 42.71 522.322 43.154C522.106 43.586 521.818 43.97 521.458 44.306C521.314 44.438 521.158 44.558 520.99 44.666H525.364V45.89H511.792V44.666H516.166C515.998 44.558 515.842 44.438 515.698 44.306C515.338 43.97 515.05 43.586 514.834 43.154C514.618 42.71 514.51 42.242 514.51 41.75C514.51 41.258 514.618 40.79 514.834 40.346C515.05 39.902 515.338 39.512 515.698 39.176C516.07 38.84 516.502 38.576 516.994 38.384C517.486 38.192 518.014 38.096 518.578 38.096C519.142 38.096 519.67 38.192 520.162 38.384C520.654 38.576 521.086 38.84 521.458 39.176C521.818 39.512 522.106 39.902 522.322 40.346C522.538 40.79 522.646 41.258 522.646 41.75ZM521.134 41.786C521.134 41.102 520.882 40.52 520.378 40.04C519.886 39.548 519.286 39.302 518.578 39.302C517.87 39.302 517.264 39.548 516.76 40.04C516.268 40.52 516.022 41.102 516.022 41.786C516.022 42.47 516.268 43.058 516.76 43.55C517.264 44.03 517.87 44.27 518.578 44.27C519.286 44.27 519.886 44.03 520.378 43.55C520.882 43.058 521.134 42.47 521.134 41.786ZM523.816 53.828H513.52V49.94H522.124V48.446H513.52V47.258H523.636V51.146H515.032V52.64H523.816V53.828ZM12.078 69.546H13.59V84.828H12.078V69.546ZM8.928 70.248C8.928 72.78 8.256 75.03 6.912 76.998C5.736 78.774 4.206 80.262 2.322 81.462L1.296 80.4C3.072 79.332 4.5 77.982 5.58 76.35C6.612 74.862 7.164 73.272 7.236 71.58H2.016V70.248H8.928ZM23.9233 78.42H16.9033V69.996H18.3793V72.534H22.4473V69.996H23.9233V78.42ZM22.4473 77.106V73.83H18.3793V77.106H22.4473ZM28.1173 69.546V73.686H30.2773V75.054H28.1173V80.616H26.6053V69.546H28.1173ZM28.5673 84.828H18.8113V80.364H20.3773V83.478H28.5673V84.828ZM43.2745 74.496C43.2745 75.108 43.1485 75.684 42.8965 76.224C42.6445 76.764 42.3085 77.238 41.8885 77.646C41.4445 78.054 40.9345 78.378 40.3585 78.618C39.7945 78.846 39.1825 78.96 38.5225 78.96C37.8625 78.96 37.2445 78.846 36.6685 78.618C36.1045 78.378 35.6005 78.054 35.1565 77.646C34.7365 77.238 34.4005 76.764 34.1485 76.224C33.8965 75.684 33.7705 75.108 33.7705 74.496C33.7705 73.884 33.8965 73.308 34.1485 72.768C34.4005 72.228 34.7365 71.754 35.1565 71.346C35.6005 70.938 36.1045 70.62 36.6685 70.392C37.2445 70.152 37.8625 70.032 38.5225 70.032C39.1825 70.032 39.7945 70.152 40.3585 70.392C40.9345 70.62 41.4445 70.938 41.8885 71.346C42.3085 71.754 42.6445 72.228 42.8965 72.768C43.1485 73.308 43.2745 73.884 43.2745 74.496ZM41.7445 74.496C41.7445 74.064 41.6545 73.662 41.4745 73.29C41.3065 72.906 41.0785 72.57 40.7905 72.282C40.5025 72.006 40.1605 71.784 39.7645 71.616C39.3685 71.448 38.9545 71.364 38.5225 71.364C38.0905 71.364 37.6765 71.448 37.2805 71.616C36.8845 71.784 36.5425 72.006 36.2545 72.282C35.9665 72.57 35.7325 72.906 35.5525 73.29C35.3845 73.662 35.3005 74.064 35.3005 74.496C35.3005 74.928 35.3845 75.336 35.5525 75.72C35.7325 76.092 35.9665 76.422 36.2545 76.71C36.5425 76.986 36.8845 77.208 37.2805 77.376C37.6765 77.544 38.0905 77.628 38.5225 77.628C38.9545 77.628 39.3685 77.544 39.7645 77.376C40.1605 77.208 40.5025 76.986 40.7905 76.71C41.0785 76.422 41.3065 76.092 41.4745 75.72C41.6545 75.336 41.7445 74.928 41.7445 74.496ZM45.3085 81.552V82.884H31.7365V81.552H45.3085ZM59.0078 79.05H54.6158V81.894H60.6458V83.19H47.0738V81.894H53.1038V79.05H48.8018V73.992H57.4058V71.562H48.8018V70.23H58.9178V75.288H50.3138V77.736H59.0078V79.05ZM74.0008 71.58H70.0768V79.554H74.0008V71.58ZM75.5128 80.904H68.5648V70.23H75.5128V80.904ZM78.4108 69.546H79.9228V84.828H78.4108V69.546ZM83.4161 81.138V74.892H87.1781V71.454H83.4161V70.122H88.6001V76.188H84.8381V79.824H87.1781C88.6301 79.824 89.8301 79.71 90.7781 79.482V69.546H92.2181V74.802H94.3241V69.546H95.8001V84.828H94.3241V76.134H92.2181V84.828H90.7781V80.778C89.9261 81.018 88.7681 81.138 87.3041 81.138H83.4161ZM110.487 75.234C110.427 75.534 110.343 75.816 110.235 76.08C110.019 76.572 109.731 76.998 109.371 77.358C108.987 77.73 108.549 78.024 108.057 78.24C107.577 78.456 107.061 78.564 106.509 78.564C105.957 78.564 105.435 78.456 104.943 78.24C104.463 78.024 104.031 77.73 103.647 77.358C103.287 76.998 102.999 76.578 102.783 76.098C102.579 75.606 102.477 75.078 102.477 74.514C102.477 73.95 102.579 73.428 102.783 72.948C102.999 72.456 103.287 72.03 103.647 71.67C104.031 71.298 104.463 71.004 104.943 70.788C105.435 70.572 105.957 70.464 106.509 70.464C107.061 70.464 107.577 70.572 108.057 70.788C108.549 71.004 108.987 71.298 109.371 71.67C109.731 72.03 110.019 72.45 110.235 72.93C110.343 73.206 110.427 73.494 110.487 73.794H112.053V69.546H113.457V84.828H112.053V75.234H110.487ZM109.119 74.514C109.119 74.154 109.053 73.806 108.921 73.47C108.789 73.134 108.609 72.846 108.381 72.606C108.141 72.354 107.859 72.156 107.535 72.012C107.223 71.856 106.881 71.778 106.509 71.778C106.137 71.778 105.795 71.856 105.483 72.012C105.171 72.156 104.895 72.354 104.655 72.606C104.427 72.846 104.241 73.134 104.097 73.47C103.965 73.806 103.899 74.154 103.899 74.514C103.899 74.874 103.965 75.222 104.097 75.558C104.241 75.894 104.427 76.182 104.655 76.422C104.895 76.674 105.171 76.878 105.483 77.034C105.795 77.178 106.137 77.25 106.509 77.25C106.881 77.25 107.223 77.178 107.535 77.034C107.859 76.878 108.141 76.674 108.381 76.422C108.609 76.182 108.789 75.894 108.921 75.558C109.053 75.222 109.119 74.874 109.119 74.514ZM115.095 69.546H116.535V84.828H115.095V69.546ZM119.596 80.562V70.158H121.108V79.194H123.214C124.81 79.194 126.352 79.074 127.84 78.834V80.22C126.388 80.448 124.9 80.562 123.376 80.562H119.596ZM129.406 69.546H130.918V84.828H129.406V75.288H124.762V73.938H129.406V69.546ZM144.744 69.546H146.256V84.828H144.744V69.546ZM137.562 73.182V71.58H134.25V70.23H142.314V71.58H139.11V73.146C139.098 74.646 139.452 75.966 140.172 77.106C140.856 78.198 141.762 79.224 142.89 80.184L141.972 81.12C140.796 80.148 139.734 78.936 138.786 77.484C138.63 77.244 138.486 77.004 138.354 76.764C138.198 77.124 138.006 77.472 137.778 77.808C136.794 79.308 135.708 80.466 134.52 81.282L133.512 80.31C134.64 79.554 135.63 78.504 136.482 77.16C137.202 76.008 137.562 74.682 137.562 73.182ZM165.569 74.622H163.445V78.384C163.733 78.432 164.009 78.51 164.273 78.618C164.753 78.81 165.173 79.074 165.533 79.41C165.893 79.746 166.175 80.136 166.379 80.58C166.595 81.012 166.703 81.48 166.703 81.984C166.703 82.488 166.595 82.962 166.379 83.406C166.175 83.838 165.893 84.222 165.533 84.558C165.173 84.894 164.747 85.158 164.255 85.35C163.775 85.542 163.259 85.638 162.707 85.638C162.155 85.638 161.633 85.542 161.141 85.35C160.661 85.158 160.241 84.894 159.881 84.558C159.521 84.222 159.233 83.838 159.017 83.406C158.813 82.962 158.711 82.488 158.711 81.984C158.711 81.48 158.813 81.012 159.017 80.58C159.233 80.136 159.521 79.746 159.881 79.41C160.241 79.074 160.667 78.81 161.159 78.618C161.423 78.51 161.699 78.432 161.987 78.384V69.546H163.445V73.308H165.569V69.546H167.045V78.51H165.569V74.622ZM165.191 81.984C165.191 81.66 165.125 81.354 164.993 81.066C164.861 80.778 164.681 80.526 164.453 80.31C164.225 80.094 163.961 79.926 163.661 79.806C163.361 79.674 163.043 79.608 162.707 79.608C162.371 79.608 162.053 79.674 161.753 79.806C161.453 79.926 161.189 80.094 160.961 80.31C160.733 80.526 160.553 80.778 160.421 81.066C160.289 81.354 160.223 81.66 160.223 81.984C160.223 82.308 160.289 82.614 160.421 82.902C160.553 83.19 160.733 83.442 160.961 83.658C161.189 83.874 161.453 84.042 161.753 84.162C162.053 84.294 162.371 84.36 162.707 84.36C163.043 84.36 163.361 84.294 163.661 84.162C163.961 84.042 164.225 83.874 164.453 83.658C164.681 83.442 164.861 83.19 164.993 82.902C165.125 82.614 165.191 82.308 165.191 81.984ZM158.171 71.634C158.171 72.978 158.447 74.094 158.999 74.982C159.587 75.858 160.241 76.596 160.961 77.196L160.007 78.096C159.215 77.436 158.495 76.638 157.847 75.702C157.703 75.486 157.571 75.252 157.451 75C157.319 75.264 157.175 75.51 157.019 75.738C156.227 76.926 155.417 77.826 154.589 78.438L153.563 77.502C154.391 76.902 155.147 76.05 155.831 74.946C156.419 74.022 156.713 72.912 156.713 71.616V69.942H158.171V71.634ZM170.07 81.138V70.122H175.632V71.454H171.492V74.892H175.47V76.188H171.492V79.842H173.184C174.552 79.842 175.968 79.722 177.432 79.482V69.546H178.872V74.802H180.978V69.546H182.454V84.828H180.978V76.134H178.872V84.828H177.432V80.778C176.04 81.018 174.666 81.138 173.31 81.138H170.07ZM196.279 69.546H197.719V84.828H196.279V69.546ZM191.023 70.248C191.023 71.004 190.981 71.724 190.897 72.408H193.129V69.546H194.551V84.828H193.129V78.114H190.627V76.764H193.129V73.758H190.663C190.387 74.958 189.967 76.044 189.403 77.016C188.275 78.948 187.009 80.454 185.605 81.534L184.507 80.598C185.839 79.59 187.033 78.186 188.089 76.386C188.941 74.946 189.373 73.344 189.385 71.58H185.245V70.248H191.023ZM209.294 73.992C209.294 74.52 209.186 75.024 208.97 75.504C208.754 75.984 208.46 76.398 208.088 76.746C207.704 77.106 207.266 77.394 206.774 77.61C206.282 77.814 205.754 77.916 205.19 77.916C204.626 77.916 204.098 77.814 203.606 77.61C203.114 77.394 202.676 77.106 202.292 76.746C201.92 76.398 201.626 75.984 201.41 75.504C201.194 75.024 201.086 74.52 201.086 73.992C201.086 73.464 201.194 72.96 201.41 72.48C201.626 72 201.92 71.586 202.292 71.238C202.676 70.878 203.114 70.596 203.606 70.392C204.098 70.176 204.626 70.068 205.19 70.068C205.754 70.068 206.282 70.176 206.774 70.392C207.266 70.596 207.704 70.878 208.088 71.238C208.46 71.586 208.754 72 208.97 72.48C209.186 72.96 209.294 73.464 209.294 73.992ZM207.8 73.992C207.8 73.62 207.728 73.278 207.584 72.966C207.44 72.642 207.248 72.366 207.008 72.138C206.78 71.898 206.51 71.706 206.198 71.562C205.886 71.418 205.55 71.346 205.19 71.346C204.83 71.346 204.494 71.418 204.182 71.562C203.87 71.706 203.594 71.898 203.354 72.138C203.126 72.366 202.94 72.642 202.796 72.966C202.652 73.278 202.58 73.62 202.58 73.992C202.58 74.364 202.652 74.712 202.796 75.036C202.94 75.348 203.126 75.624 203.354 75.864C203.594 76.092 203.87 76.278 204.182 76.422C204.494 76.566 204.83 76.638 205.19 76.638C205.55 76.638 205.886 76.566 206.198 76.422C206.51 76.278 206.78 76.092 207.008 75.864C207.248 75.624 207.44 75.348 207.584 75.036C207.728 74.712 207.8 74.364 207.8 73.992ZM212.804 69.546V84.828H211.274V81.39C209.978 81.582 208.262 81.678 206.126 81.678H200.114V80.346H206.108C208.196 80.346 209.918 80.262 211.274 80.094V69.546H212.804ZM223.261 70.788V69.294H224.881V70.788H227.797V71.976H226.015C226.243 72.108 226.453 72.264 226.645 72.444C226.969 72.756 227.227 73.128 227.419 73.56C227.611 73.992 227.707 74.442 227.707 74.91C227.707 75.378 227.611 75.822 227.419 76.242C227.227 76.662 226.969 77.028 226.645 77.34C226.309 77.652 225.919 77.898 225.475 78.078C225.043 78.258 224.575 78.348 224.071 78.348C223.567 78.348 223.093 78.258 222.649 78.078C222.217 77.898 221.833 77.652 221.497 77.34C221.173 77.028 220.915 76.662 220.723 76.242C220.531 75.822 220.435 75.378 220.435 74.91C220.435 74.442 220.531 73.992 220.723 73.56C220.915 73.128 221.173 72.756 221.497 72.444C221.689 72.264 221.899 72.108 222.127 71.976H220.273V70.788H223.261ZM226.303 74.838C226.303 74.238 226.081 73.722 225.637 73.29C225.205 72.846 224.683 72.624 224.071 72.624C223.459 72.624 222.931 72.846 222.487 73.29C222.055 73.722 221.839 74.238 221.839 74.838C221.839 75.438 222.055 75.96 222.487 76.404C222.931 76.836 223.459 77.052 224.071 77.052C224.683 77.052 225.205 76.836 225.637 76.404C226.081 75.96 226.303 75.438 226.303 74.838ZM232.225 69.546H233.629V78.69H232.225V75.18H230.371V78.69H229.003V69.546H230.371V73.794H232.225V69.546ZM232.153 85.026V81.21H223.675V79.896H233.629V85.026H232.153ZM248.247 69.546V77.862H246.735V69.546H248.247ZM246.735 80.49H240.255V83.568H246.735V80.49ZM248.247 84.828H238.761V79.23H248.247V84.828ZM240.903 71.382C240.903 72.522 241.263 73.566 241.983 74.514C242.727 75.438 243.627 76.206 244.683 76.818L243.747 77.862C242.619 77.226 241.623 76.368 240.759 75.288C240.543 75.024 240.351 74.748 240.183 74.46C239.991 74.832 239.763 75.192 239.499 75.54C238.659 76.644 237.669 77.514 236.529 78.15L235.575 77.124C236.667 76.536 237.573 75.768 238.293 74.82C239.001 73.884 239.355 72.738 239.355 71.382V69.942H240.903V71.382ZM264.608 73.974C264.608 74.514 264.494 75.03 264.266 75.522C264.05 76.014 263.75 76.44 263.366 76.8C262.97 77.172 262.52 77.466 262.016 77.682C261.512 77.886 260.966 77.988 260.378 77.988C259.79 77.988 259.244 77.886 258.74 77.682C258.236 77.466 257.786 77.172 257.39 76.8C257.006 76.44 256.7 76.014 256.472 75.522C256.256 75.03 256.148 74.514 256.148 73.974C256.148 73.434 256.256 72.918 256.472 72.426C256.7 71.934 257.006 71.508 257.39 71.148C257.786 70.776 258.236 70.488 258.74 70.284C259.244 70.068 259.79 69.96 260.378 69.96C260.966 69.96 261.512 70.068 262.016 70.284C262.52 70.488 262.97 70.776 263.366 71.148C263.75 71.508 264.05 71.934 264.266 72.426C264.494 72.918 264.608 73.434 264.608 73.974ZM263.096 73.974C263.096 73.602 263.024 73.254 262.88 72.93C262.736 72.606 262.538 72.324 262.286 72.084C262.046 71.832 261.758 71.634 261.422 71.49C261.086 71.346 260.738 71.274 260.378 71.274C260.018 71.274 259.67 71.346 259.334 71.49C258.998 71.634 258.71 71.832 258.47 72.084C258.218 72.324 258.02 72.606 257.876 72.93C257.732 73.254 257.66 73.602 257.66 73.974C257.66 74.346 257.732 74.694 257.876 75.018C258.02 75.342 258.218 75.63 258.47 75.882C258.71 76.122 258.998 76.314 259.334 76.458C259.67 76.602 260.018 76.674 260.378 76.674C260.738 76.674 261.086 76.602 261.422 76.458C261.758 76.314 262.046 76.122 262.286 75.882C262.538 75.63 262.736 75.342 262.88 75.018C263.024 74.694 263.096 74.346 263.096 73.974ZM268.568 69.546V80.616H267.056V69.546H268.568ZM269.036 84.828H259.262V80.13H260.792V83.478H269.036V84.828ZM283.689 70.356V71.688H281.709V77.052H283.941V78.384H272.385V77.052H274.635V71.688H272.637V70.356H283.689ZM280.269 71.688H276.075V77.052H280.269V71.688ZM284.949 81.552V82.884H271.377V81.552H284.949ZM287.47 81.138V74.892H292.546V71.454H287.47V70.122H294.04V76.188H288.964V79.824H291.754C293.806 79.824 295.492 79.674 296.812 79.374V69.546H298.324V75.018H300.7V76.422H298.324V84.828H296.812V80.688C295.492 80.988 293.836 81.138 291.844 81.138H287.47ZM313.968 75.54H303.78V72.102H312.384V70.914H303.78V69.78H313.896V73.2H305.292V74.406H313.968V75.54ZM302.052 76.728H315.624V77.916H302.052V76.728ZM314.076 84.828H303.78V81.39H312.384V80.238H303.78V79.104H313.896V82.524H305.292V83.694H314.076V84.828ZM331.931 77.592C332.303 75.96 332.489 74.304 332.489 72.624V71.562H323.885V70.248H334.001V72.624C334.001 74.292 333.803 75.948 333.407 77.592H335.945V78.906H329.807V85.116H328.295V78.906H322.373V77.592H331.931ZM345.27 78.708V80.652H349.554V85.026H348.042V81.912H339.33V80.652H343.722V78.708H337.71V77.466H351.282V78.708H345.27ZM343.704 72.12H339.222V70.896H343.704V69.312H345.288V70.896H349.752V72.12H345.288V72.192C345.288 72.936 345.876 73.614 347.052 74.226C348.036 74.73 349.116 75.042 350.292 75.162L349.806 76.206C348.594 76.086 347.364 75.72 346.116 75.108C345.42 74.772 344.88 74.394 344.496 73.974C344.1 74.382 343.56 74.76 342.876 75.108C341.628 75.744 340.398 76.11 339.186 76.206L338.682 75.162C339.87 75.042 340.956 74.73 341.94 74.226C343.116 73.614 343.704 72.936 343.704 72.192V72.12ZM356.593 70.716V69.294H358.321V70.716H361.795V71.904H359.671C359.839 72.012 359.995 72.132 360.139 72.264C360.475 72.564 360.739 72.924 360.931 73.344C361.135 73.764 361.237 74.196 361.237 74.64C361.237 75.084 361.135 75.51 360.931 75.918C360.739 76.326 360.475 76.68 360.139 76.98C359.803 77.292 359.401 77.538 358.933 77.718C358.477 77.886 357.985 77.97 357.457 77.97C356.929 77.97 356.431 77.886 355.963 77.718C355.507 77.538 355.111 77.292 354.775 76.98C354.439 76.68 354.169 76.326 353.965 75.918C353.773 75.51 353.677 75.084 353.677 74.64C353.677 74.196 353.773 73.764 353.965 73.344C354.169 72.924 354.439 72.564 354.775 72.264C354.919 72.132 355.075 72.012 355.243 71.904H353.119V70.716H356.593ZM359.743 74.55C359.743 73.95 359.515 73.434 359.059 73.002C358.615 72.57 358.081 72.354 357.457 72.354C356.833 72.354 356.293 72.57 355.837 73.002C355.393 73.434 355.171 73.95 355.171 74.55C355.171 75.15 355.393 75.666 355.837 76.098C356.293 76.53 356.833 76.746 357.457 76.746C358.081 76.746 358.615 76.53 359.059 76.098C359.515 75.666 359.743 75.15 359.743 74.55ZM365.125 69.546V73.326H367.285V74.622H365.125V77.808H363.613V69.546H365.125ZM365.125 84.828H355.549V78.996H357.043V80.274H363.631V78.996H365.125V84.828ZM363.631 83.586V81.498H357.043V83.586H363.631ZM369.662 80.562V70.158H371.174V79.194H374.126C376.166 79.194 377.924 79.068 379.4 78.816V69.546H380.912V84.828H379.4V80.202C377.996 80.442 376.25 80.562 374.162 80.562H369.662ZM384.676 80.832V70.23H391.228V71.598H386.188V79.464H388.24C390.184 79.464 392.044 79.29 393.82 78.942V69.546H395.332V74.658H397.708V76.062H395.332V84.828H393.82V80.31C392.14 80.658 390.322 80.832 388.366 80.832H384.676ZM399.815 83.352V81.228H402.011V83.352H399.815Z" fill="black"/>
</svg>
