<svg width="145" height="22" viewBox="0 0 145 22" fill="none" xmlns="http://www.w3.org/2000/svg">
<path d="M3.328 5.112H6.656C7.75467 5.112 8.608 5.24533 9.216 5.512C9.61067 5.68267 9.95733 5.92267 10.256 6.232C10.8213 6.86133 11.104 7.63467 11.104 8.552C11.104 9.46933 10.8213 10.2427 10.256 10.872C9.95733 11.1813 9.61067 11.4213 9.216 11.592C8.62933 11.848 7.776 11.976 6.656 11.976H5.056V15.976H3.328V5.112ZM5.056 10.408H7.088C7.824 10.408 8.39467 10.2267 8.8 9.864C9.17333 9.52267 9.36 9.08533 9.36 8.552C9.36 8.008 9.17333 7.56533 8.8 7.224C8.39467 6.86133 7.824 6.68 7.088 6.68H5.056V10.408ZM14.5329 14.408H19.8769V15.976H12.8049V5.112H19.7649V6.68H14.5329V9.656H19.2689V11.208H14.5329V14.408ZM27.7204 15.976H26.5524L23.3044 7.784V15.976H21.6724V5.112H23.7844L27.1444 13.32L30.4884 5.112H32.6004V15.976H30.9524V7.784L27.7204 15.976ZM45.8725 13.608V18.184H44.1445V13.608H38.7845V12.04H51.2325V13.608H45.8725ZM45.8885 5.304C45.8885 6.28533 46.3098 7.12267 47.1525 7.816C48.0592 8.56267 49.2005 9.16533 50.5765 9.624L49.6485 10.872C48.1872 10.424 46.9552 9.76267 45.9525 8.888C45.5792 8.568 45.2645 8.232 45.0085 7.88C44.7525 8.232 44.4378 8.568 44.0645 8.888C43.0618 9.76267 41.8298 10.424 40.3685 10.872L39.4405 9.624C40.8165 9.16533 41.9578 8.56267 42.8645 7.816C43.7072 7.12267 44.1285 6.28533 44.1285 5.304V4.024H45.8885V5.304ZM63.9376 3.96V14.184H62.2096V9.16H59.6976V7.592H62.2096V3.96H63.9376ZM64.3536 17.928H55.2816V13.528H57.0416V16.392H64.3536V17.928ZM55.6816 6.776V6.072H52.8656V4.52H60.4016V6.072H57.4416V7.016C57.4416 7.90133 57.7403 8.67467 58.3376 9.336C59.0523 10.136 59.9056 10.7973 60.8976 11.32L59.9696 12.536C58.7216 11.896 57.671 11.0693 56.8176 10.056C56.7536 9.98133 56.6896 9.90133 56.6256 9.816C56.4976 10.0293 56.3483 10.2373 56.1776 10.44C55.2283 11.5707 54.263 12.328 53.2816 12.712L52.2096 11.496C53.2336 11.048 54.119 10.3493 54.8656 9.4C55.4096 8.70667 55.6816 7.832 55.6816 6.776ZM68.5788 5.448V3.96H70.4028V5.448H73.1548V6.888H71.8588C71.9121 6.93067 71.9654 6.97867 72.0188 7.032C72.3494 7.36267 72.6108 7.74667 72.8028 8.184C72.9948 8.62133 73.0908 9.08533 73.0908 9.576C73.0908 10.0667 72.9948 10.5307 72.8028 10.968C72.6108 11.4053 72.3494 11.7893 72.0188 12.12C71.6988 12.44 71.3148 12.696 70.8668 12.888C70.4294 13.08 69.9654 13.176 69.4748 13.176C68.9841 13.176 68.5148 13.08 68.0668 12.888C67.6294 12.696 67.2508 12.44 66.9308 12.12C66.6001 11.7893 66.3388 11.4053 66.1468 10.968C65.9548 10.5307 65.8588 10.0667 65.8588 9.576C65.8588 9.08533 65.9548 8.62133 66.1468 8.184C66.3388 7.74667 66.6001 7.36267 66.9308 7.032C66.9841 6.97867 67.0374 6.93067 67.0908 6.888H65.7468V5.448H68.5788ZM71.5068 9.528C71.5068 8.952 71.3094 8.46133 70.9148 8.056C70.5201 7.64 70.0454 7.432 69.4908 7.432C68.9361 7.432 68.4614 7.64 68.0668 8.056C67.6721 8.46133 67.4748 8.952 67.4748 9.528C67.4748 10.104 67.6721 10.6 68.0668 11.016C68.4614 11.4213 68.9361 11.624 69.4908 11.624C70.0454 11.624 70.5201 11.4213 70.9148 11.016C71.3094 10.6 71.5068 10.104 71.5068 9.528ZM76.7388 3.96H78.3548V17.928H76.7388V9.672H75.5548V17.928H73.9548V3.96H75.5548V8.104H76.7388V3.96ZM94.3539 8.856H92.8499V11.944C93.0205 11.9867 93.1859 12.04 93.3459 12.104C93.7939 12.2853 94.1885 12.5253 94.5299 12.824C94.8605 13.1333 95.1219 13.5013 95.3139 13.928C95.5165 14.344 95.6179 14.7813 95.6179 15.24C95.6179 15.6987 95.5165 16.1413 95.3139 16.568C95.1219 16.984 94.8605 17.3467 94.5299 17.656C94.1885 17.9547 93.7885 18.1947 93.3299 18.376C92.8819 18.5573 92.4019 18.648 91.8899 18.648C91.3779 18.648 90.8925 18.5573 90.4339 18.376C89.9859 18.1947 89.5912 17.9547 89.2499 17.656C88.9192 17.3467 88.6525 16.984 88.4499 16.568C88.2579 16.1413 88.1619 15.6987 88.1619 15.24C88.1619 14.7813 88.2579 14.344 88.4499 13.928C88.6525 13.5013 88.9192 13.1333 89.2499 12.824C89.5912 12.5253 89.9912 12.2853 90.4499 12.104C90.6845 12.008 90.9245 11.9387 91.1699 11.896V3.96H92.8499V7.304H94.3539V3.96H96.0499V12.12H94.3539V8.856ZM93.8899 15.24C93.8899 14.728 93.6925 14.2853 93.2979 13.912C92.9032 13.5387 92.4339 13.352 91.8899 13.352C91.3459 13.352 90.8765 13.5387 90.4819 13.912C90.0872 14.2853 89.8899 14.728 89.8899 15.24C89.8899 15.752 90.0872 16.1947 90.4819 16.568C90.8765 16.9413 91.3459 17.128 91.8899 17.128C92.4339 17.128 92.9032 16.9413 93.2979 16.568C93.6925 16.1947 93.8899 15.752 93.8899 15.24ZM88.1619 5.896C88.1619 7.13333 88.3965 8.13067 88.8659 8.888C89.3779 9.656 89.9965 10.3387 90.7219 10.936L89.6179 11.992C88.8072 11.32 88.1085 10.5627 87.5219 9.72L87.3299 9.4L87.1059 9.752C86.3912 10.8187 85.6125 11.6667 84.7699 12.296L83.5859 11.208C84.4179 10.6107 85.1325 9.832 85.7299 8.872C86.2312 8.072 86.4819 7.07467 86.4819 5.88V4.328H88.1619V5.896ZM108.547 3.96V7.64H110.467V9.24H108.547V14.184H106.819V3.96H108.547ZM108.947 17.928H99.891V13.448H101.651V16.376H108.947V17.928ZM102.515 5.656C102.515 7.064 102.814 8.184 103.411 9.016C104.104 9.96533 104.947 10.76 105.939 11.4L104.899 12.568C103.854 11.9173 102.894 11.0213 102.019 9.88C101.88 9.69867 101.752 9.50667 101.635 9.304C101.507 9.528 101.368 9.74667 101.219 9.96C100.387 11.1547 99.4377 12.088 98.371 12.76L97.219 11.624C98.2537 10.9947 99.1283 10.1573 99.843 9.112C100.451 8.22667 100.755 7.07467 100.755 5.656V4.328H102.515V5.656ZM122.882 11.384H116.258V4.376H117.954V6.28H121.186V4.376H122.882V11.384ZM121.186 9.896V7.752H117.954V9.896H121.186ZM126.61 3.96V7.096H128.53V8.696H126.61V12.008H124.882V3.96H126.61ZM126.61 15.256C126.61 15.7147 126.509 16.152 126.306 16.568C126.114 16.984 125.853 17.3467 125.522 17.656C125.181 17.9547 124.786 18.1947 124.338 18.376C123.89 18.5573 123.41 18.648 122.898 18.648C122.386 18.648 121.906 18.5573 121.458 18.376C121.01 18.1947 120.615 17.9547 120.274 17.656C119.943 17.3467 119.677 16.984 119.474 16.568C119.282 16.152 119.186 15.7147 119.186 15.256C119.186 14.7973 119.282 14.36 119.474 13.944C119.677 13.528 119.943 13.1653 120.274 12.856C120.615 12.5573 121.01 12.3173 121.458 12.136C121.906 11.9547 122.386 11.864 122.898 11.864C123.41 11.864 123.89 11.9547 124.338 12.136C124.786 12.3173 125.181 12.5573 125.522 12.856C125.853 13.1653 126.114 13.528 126.306 13.944C126.509 14.36 126.61 14.7973 126.61 15.256ZM124.882 15.256C124.882 14.744 124.685 14.3067 124.29 13.944C123.906 13.5707 123.442 13.384 122.898 13.384C122.354 13.384 121.885 13.5707 121.49 13.944C121.106 14.3067 120.914 14.744 120.914 15.256C120.914 15.768 121.106 16.2107 121.49 16.584C121.885 16.9467 122.354 17.128 122.898 17.128C123.442 17.128 123.906 16.9467 124.29 16.584C124.685 16.2107 124.882 15.768 124.882 15.256ZM140.963 3.96V11.96H139.235V3.96H140.963ZM139.235 18.104V14.504H131.987V12.952H140.963V18.104H139.235ZM134.435 5.688C134.435 6.712 134.745 7.62933 135.363 8.44C135.993 9.25067 136.83 9.95467 137.875 10.552L136.835 11.768C135.715 11.1387 134.755 10.328 133.955 9.336C133.838 9.18667 133.726 9.032 133.619 8.872C133.481 9.10667 133.326 9.33067 133.155 9.544C132.366 10.5253 131.417 11.336 130.307 11.976L129.219 10.824C130.254 10.1947 131.102 9.48 131.763 8.68C132.371 7.92267 132.675 6.92533 132.675 5.688V4.328H134.435V5.688Z" fill="black"/>
</svg>
