<svg width="285" height="79" viewBox="0 0 285 79" fill="none" xmlns="http://www.w3.org/2000/svg">
<path d="M4.27148 1.56445V0H6.43359V1.56445H9.9668V3.23438H8.10352C8.15039 3.26953 8.19727 3.31055 8.24414 3.35742C8.61914 3.70898 8.91797 4.11914 9.14062 4.58789C9.36328 5.04492 9.47461 5.53711 9.47461 6.06445C9.47461 6.5918 9.36328 7.08984 9.14062 7.55859C8.91797 8.01562 8.61914 8.41406 8.24414 8.75391C7.88086 9.10547 7.44727 9.38672 6.94336 9.59766C6.45117 9.79688 5.91797 9.89648 5.34375 9.89648C4.78125 9.89648 4.24805 9.79688 3.74414 9.59766C3.25195 9.38672 2.82422 9.10547 2.46094 8.75391C2.08594 8.41406 1.78711 8.01562 1.56445 7.55859C1.3418 7.08984 1.23047 6.5918 1.23047 6.06445C1.23047 5.53711 1.3418 5.04492 1.56445 4.58789C1.78711 4.11914 2.08594 3.70898 2.46094 3.35742C2.50781 3.31055 2.55469 3.26953 2.60156 3.23438H0.667969V1.56445H4.27148ZM7.54102 5.97656C7.54102 5.37891 7.32422 4.86914 6.89062 4.44727C6.46875 4.02539 5.95312 3.81445 5.34375 3.81445C4.74609 3.81445 4.23047 4.02539 3.79688 4.44727C3.375 4.86914 3.16406 5.37891 3.16406 5.97656C3.16406 6.5625 3.375 7.07227 3.79688 7.50586C4.23047 7.92773 4.74609 8.13867 5.34375 8.13867C5.95312 8.13867 6.46875 7.92773 6.89062 7.50586C7.32422 7.07227 7.54102 6.5625 7.54102 5.97656ZM11.6191 5.11523H9.79102V3.28711H11.6191V0.246094H13.5527V11.9355H11.6191V8.85938H9.79102V7.03125H11.6191V5.11523ZM14.0977 15.9609H3.63867V11.1094H5.69531V14.2207H14.0977V15.9609ZM16.8841 11.9531V0.949219H22.1224V2.70703H18.8177V10.1777H20.1361C21.3666 10.1777 22.6146 10.0781 23.8802 9.87891V0.246094H25.7435V5.50195H27.4486V0.246094H29.3646V15.9609H27.4486V7.25977H25.7435V15.9609H23.8802V11.6367C22.7552 11.8477 21.4896 11.9531 20.0834 11.9531H16.8841ZM43.3132 0.246094V5.36133H45.6863V7.18945H43.3132V15.9609H41.3796V0.246094H43.3132ZM34.8405 3.97266V2.68945H31.5183V0.949219H40.0261V2.68945H36.8269V4.06055C36.8034 5.52539 37.1433 6.80859 37.8464 7.91016C38.5261 8.98828 39.4753 10.043 40.6941 11.0742L39.4812 12.3223C38.1804 11.2441 37.0554 9.97266 36.1062 8.50781C36.0124 8.39062 35.9304 8.26758 35.8601 8.13867C35.7429 8.37305 35.6081 8.60156 35.4558 8.82422C34.4597 10.3477 33.3054 11.5605 31.9929 12.4629L30.6745 11.1973C31.9167 10.3652 32.9538 9.28711 33.7859 7.96289C34.489 6.84961 34.8405 5.51953 34.8405 3.97266ZM48.3321 0.667969H58.8087V2.35547H50.2833V5.0625H58.9493V6.76758H54.5899V8.4375H60.6192V10.1426H56.629C57.004 10.4824 57.3028 10.8809 57.5255 11.3379C57.7481 11.8184 57.8595 12.3281 57.8595 12.8672C57.8595 13.4062 57.7423 13.916 57.5079 14.3965C57.2852 14.8652 56.9805 15.2754 56.5938 15.627C56.2188 15.9668 55.7735 16.2422 55.2579 16.4531C54.7423 16.6641 54.1915 16.7695 53.6055 16.7695C53.0313 16.7695 52.4864 16.6641 51.9708 16.4531C51.4552 16.2422 51.004 15.9668 50.6173 15.627C50.2423 15.2754 49.9376 14.8652 49.7032 14.3965C49.4805 13.916 49.3692 13.4062 49.3692 12.8672C49.3692 12.3281 49.4805 11.8184 49.7032 11.3379C49.9259 10.8809 50.2188 10.4824 50.5821 10.1426H46.6095V8.4375H52.6387V6.76758H48.3321V0.667969ZM55.9259 12.8145C55.9259 12.1934 55.6973 11.6602 55.2403 11.2148C54.795 10.7695 54.2501 10.5469 53.6055 10.5469C52.9727 10.5469 52.4278 10.7695 51.9708 11.2148C51.5255 11.6602 51.3028 12.1934 51.3028 12.8145C51.3028 13.4355 51.5255 13.9688 51.9708 14.4141C52.4278 14.8594 52.9727 15.082 53.6055 15.082C54.2501 15.082 54.795 14.8594 55.2403 14.4141C55.6973 13.9688 55.9259 13.4355 55.9259 12.8145ZM73.9877 0.246094V5.71289H76.3608V7.55859H73.9877V15.9609H72.0541V0.246094H73.9877ZM65.392 4.27148V3.58594H61.8588V1.82812H65.392V0H67.3608V1.82812H70.683V3.58594H67.3608V4.27148C67.3725 5.57227 67.6889 6.79688 68.31 7.94531C68.8959 9.05859 69.8452 10.166 71.1577 11.2676L69.9272 12.5332C68.5444 11.373 67.4487 10.1074 66.6401 8.73633C66.5463 8.58398 66.4584 8.43164 66.3764 8.2793C66.2944 8.43164 66.2065 8.58984 66.1127 8.75391C65.2338 10.2188 64.1088 11.4961 62.7377 12.5859L61.3491 11.3906C62.6616 10.3594 63.687 9.20508 64.4252 7.92773C65.058 6.86133 65.3803 5.64258 65.392 4.27148ZM89.3074 1.07227V5.58984C89.3074 7.76953 89.0965 9.93164 88.6746 12.0762H91.2937V13.834H77.284V12.0762H86.7762C87.1746 10.0137 87.3738 8.05078 87.3738 6.1875V2.83008H78.7957V1.07227H89.3074ZM104.996 7.25977H94.3439V3.16406H102.957V2.12695H94.3439V0.5625H104.891V4.67578H96.2951V5.73047H104.996V7.25977ZM106.631 9.77344H100.672V10.8105H98.5802V9.77344H92.6212V8.19141H106.631V9.77344ZM104.891 15.9609H94.3439V10.6875H96.2951V11.6367H102.957V10.6875H104.891V15.9609ZM102.957 14.4141V13.1484H96.2951V14.4141H102.957ZM117.626 4.9043C117.626 5.4668 117.509 6 117.275 6.50391C117.052 7.00781 116.742 7.44727 116.343 7.82227C115.957 8.19727 115.5 8.49609 114.972 8.71875C114.445 8.94141 113.888 9.05273 113.302 9.05273C112.716 9.05273 112.16 8.94141 111.632 8.71875C111.117 8.49609 110.66 8.19727 110.261 7.82227C109.863 7.44727 109.546 7.00781 109.312 6.50391C109.089 6 108.978 5.4668 108.978 4.9043C108.978 4.3418 109.089 3.80859 109.312 3.30469C109.546 2.80078 109.863 2.36133 110.261 1.98633C110.66 1.62305 111.117 1.33008 111.632 1.10742C112.16 0.884766 112.716 0.773438 113.302 0.773438C113.888 0.773438 114.445 0.884766 114.972 1.10742C115.5 1.33008 115.957 1.62305 116.343 1.98633C116.742 2.36133 117.052 2.80078 117.275 3.30469C117.509 3.80859 117.626 4.3418 117.626 4.9043ZM115.693 4.9043C115.693 4.57617 115.628 4.26562 115.5 3.97266C115.371 3.66797 115.195 3.41016 114.972 3.19922C114.761 2.98828 114.509 2.81836 114.216 2.68945C113.935 2.54883 113.63 2.47852 113.302 2.47852C112.986 2.47852 112.681 2.54883 112.388 2.68945C112.095 2.81836 111.843 2.98828 111.632 3.19922C111.421 3.41016 111.246 3.66797 111.105 3.97266C110.976 4.26562 110.912 4.57617 110.912 4.9043C110.912 5.24414 110.976 5.56055 111.105 5.85352C111.246 6.14648 111.421 6.4043 111.632 6.62695C111.843 6.83789 112.095 7.00781 112.388 7.13672C112.681 7.26562 112.986 7.33008 113.302 7.33008C113.63 7.33008 113.935 7.26562 114.216 7.13672C114.509 7.00781 114.761 6.83789 114.972 6.62695C115.195 6.4043 115.371 6.14648 115.5 5.85352C115.628 5.56055 115.693 5.24414 115.693 4.9043ZM121.142 0.246094V15.9609H119.209V12.5332C117.767 12.7207 116.091 12.8145 114.181 12.8145H108.011V11.0391H114.146C115.998 11.0391 117.685 10.9629 119.209 10.8105V0.246094H121.142ZM128.93 1.54688H132.674C133.905 1.54688 134.865 1.69336 135.557 1.98633C136.002 2.18555 136.389 2.45508 136.717 2.79492C137.362 3.50977 137.684 4.38281 137.684 5.41406C137.684 6.44531 137.362 7.3125 136.717 8.01562C136.389 8.36719 136.002 8.63672 135.557 8.82422C134.901 9.11719 133.94 9.26367 132.674 9.26367H130.881V13.7637H128.93V1.54688ZM130.881 7.50586H133.166C133.987 7.50586 134.625 7.30078 135.082 6.89062C135.504 6.50391 135.715 6.01172 135.715 5.41406C135.715 4.80469 135.504 4.30664 135.082 3.91992C134.625 3.50977 133.987 3.30469 133.166 3.30469H130.881V7.50586ZM141.543 12.0059H147.554V13.7637H139.591V1.54688H147.414V3.30469H141.543V6.66211H146.869V8.40234H141.543V12.0059ZM156.37 13.7637H155.052L151.395 4.55273V13.7637H149.567V1.54688H151.94L155.72 10.7754L159.481 1.54688H161.854V13.7637H160.009V4.55273L156.37 13.7637ZM176.797 11.1094V16.2422H174.845V11.1094H168.816V9.33398H182.826V11.1094H176.797ZM176.814 1.75781C176.814 2.85938 177.289 3.80273 178.238 4.58789C179.258 5.41992 180.541 6.09961 182.088 6.62695L181.033 8.01562C179.392 7.51172 178.009 6.76758 176.884 5.7832C176.463 5.43164 176.105 5.05664 175.812 4.6582C175.531 5.05664 175.179 5.43164 174.758 5.7832C173.633 6.76758 172.25 7.51172 170.609 8.01562L169.554 6.62695C171.101 6.09961 172.384 5.41992 173.404 4.58789C174.353 3.80273 174.828 2.85938 174.828 1.75781V0.316406H176.814V1.75781ZM197.108 0.246094V11.7422H195.175V6.09961H192.345V4.32422H195.175V0.246094H197.108ZM197.583 15.9609H187.37V11.0039H189.356V14.2383H197.583V15.9609ZM187.827 3.41016V2.61914H184.663V0.878906H193.136V2.61914H189.814V3.69141C189.814 4.6875 190.148 5.55469 190.815 6.29297C191.624 7.19531 192.585 7.93945 193.698 8.52539L192.644 9.89648C191.249 9.16992 190.071 8.23828 189.11 7.10156C189.04 7.01953 188.964 6.93164 188.882 6.83789C188.741 7.07227 188.577 7.30664 188.39 7.54102C187.323 8.80664 186.233 9.65625 185.12 10.0898L183.925 8.71875C185.073 8.21484 186.069 7.42969 186.913 6.36328C187.523 5.58984 187.827 4.60547 187.827 3.41016ZM202.338 1.91602V0.246094H204.395V1.91602H207.489V3.5332H206.03C206.088 3.5918 206.147 3.65039 206.205 3.70898C206.58 4.07227 206.873 4.5 207.084 4.99219C207.307 5.48438 207.418 6.00586 207.418 6.55664C207.418 7.11914 207.307 7.64648 207.084 8.13867C206.873 8.63086 206.58 9.05859 206.205 9.42188C205.842 9.78516 205.409 10.0781 204.905 10.3008C204.413 10.5117 203.891 10.6172 203.34 10.6172C202.789 10.6172 202.262 10.5117 201.758 10.3008C201.266 10.0781 200.838 9.78516 200.475 9.42188C200.112 9.05859 199.819 8.63086 199.596 8.13867C199.385 7.64648 199.28 7.11914 199.28 6.55664C199.28 6.00586 199.385 5.48438 199.596 4.99219C199.819 4.5 200.112 4.07227 200.475 3.70898C200.545 3.65039 200.61 3.5918 200.668 3.5332H199.157V1.91602H202.338ZM205.625 6.50391C205.625 5.85938 205.403 5.30859 204.957 4.85156C204.524 4.38281 203.991 4.14844 203.358 4.14844C202.737 4.14844 202.204 4.38281 201.758 4.85156C201.313 5.30859 201.09 5.85938 201.09 6.50391C201.09 7.16016 201.313 7.72266 201.758 8.19141C202.204 8.64844 202.737 8.87695 203.358 8.87695C203.991 8.87695 204.524 8.64844 204.957 8.19141C205.403 7.72266 205.625 7.16016 205.625 6.50391ZM211.514 0.246094H213.342V15.9609H211.514V6.67969H210.178V15.9609H208.385V0.246094H210.178V4.9043H211.514V0.246094ZM230.833 0.246094H232.767V15.9609H230.833V0.246094ZM228.109 0.949219C228.109 3.66797 227.423 6.0293 226.052 8.0332C224.868 9.83789 223.269 11.3789 221.253 12.6562L219.917 11.2852C221.816 10.125 223.298 8.74219 224.364 7.13672C225.337 5.74219 225.87 4.26562 225.964 2.70703H220.761V0.949219H228.109ZM235.149 6.67969H249.159V8.26172H243.147V9.47461H247.418V13.4473H238.823V14.4492H247.612V15.9609H236.872V11.9707H245.485V10.9688H236.872V9.47461H241.161V8.26172H235.149V6.67969ZM243.129 0.984375C243.129 1.73438 243.692 2.50195 244.817 3.28711C245.684 3.87305 246.891 4.33594 248.438 4.67578L247.559 6.11719C245.907 5.74219 244.5 5.16211 243.34 4.37695C242.86 4.03711 242.461 3.68555 242.145 3.32227C241.84 3.68555 241.448 4.03711 240.967 4.37695C239.807 5.16211 238.401 5.74219 236.749 6.11719L235.87 4.67578C237.416 4.33594 238.624 3.87305 239.491 3.28711C240.616 2.50195 241.178 1.73438 241.178 0.984375V0.193359H243.129V0.984375ZM262.228 4.39453C262.228 4.99219 262.099 5.55469 261.842 6.08203C261.596 6.60938 261.256 7.07227 260.822 7.4707C260.717 7.56445 260.599 7.6582 260.471 7.75195H264.496V9.50977H250.486V7.75195H254.494C254.377 7.6582 254.265 7.56445 254.16 7.4707C253.726 7.07227 253.381 6.60938 253.123 6.08203C252.877 5.55469 252.754 4.99219 252.754 4.39453C252.754 3.78516 252.877 3.2168 253.123 2.68945C253.381 2.16211 253.726 1.69922 254.16 1.30078C254.582 0.914062 255.08 0.603516 255.654 0.369141C256.228 0.134766 256.838 0.0175781 257.482 0.0175781C258.139 0.0175781 258.754 0.134766 259.328 0.369141C259.902 0.603516 260.4 0.914062 260.822 1.30078C261.256 1.69922 261.596 2.16211 261.842 2.68945C262.099 3.2168 262.228 3.78516 262.228 4.39453ZM260.277 4.48242C260.277 4.10742 260.201 3.75586 260.049 3.42773C259.908 3.09961 259.709 2.8125 259.451 2.56641C259.205 2.32031 258.912 2.12695 258.572 1.98633C258.232 1.83398 257.869 1.75781 257.482 1.75781C257.107 1.75781 256.75 1.83398 256.41 1.98633C256.07 2.12695 255.777 2.32031 255.531 2.56641C255.273 2.8125 255.068 3.09961 254.916 3.42773C254.775 3.75586 254.705 4.10742 254.705 4.48242C254.705 4.8457 254.775 5.19727 254.916 5.53711C255.068 5.86523 255.273 6.14648 255.531 6.38086C255.777 6.63867 256.07 6.83789 256.41 6.97852C256.75 7.11914 257.107 7.18945 257.482 7.18945C257.869 7.18945 258.232 7.11914 258.572 6.97852C258.912 6.83789 259.205 6.63867 259.451 6.38086C259.709 6.14648 259.908 5.86523 260.049 5.53711C260.201 5.19727 260.277 4.8457 260.277 4.48242ZM263.037 15.9609H252.314V11.0742H254.283V14.2031H263.037V15.9609ZM1.35352 40.8086V31.8086H8.41992V33.5137H3.25195V35.4297H8.24414V37.0996H3.25195V39.1211H6.09961C7.75195 39.1211 9.32227 39.0098 10.8105 38.7871V31.2461H12.7441V35.5879H14.9062V37.3984H12.7441V42.9355H10.8105V40.4746C9.42773 40.6973 7.83984 40.8086 6.04688 40.8086H1.35352ZM13.2012 46.9609H3.00586V42.2852H4.99219V45.2207H13.2012V46.9609ZM29.9447 43.5508V45.3262H15.9349V43.5508H21.9642V40.1406H23.9154V43.5508H29.9447ZM23.933 33.3379C23.933 34.7207 24.4427 35.875 25.4623 36.8008C26.5755 37.8203 27.888 38.5586 29.3998 39.0156L28.3275 40.4395C26.4525 39.8184 24.9232 38.8809 23.7396 37.627C23.4349 37.3105 23.1654 36.9766 22.931 36.625C22.7084 36.9766 22.4447 37.3105 22.14 37.627C20.9564 38.8809 19.4271 39.8184 17.5521 40.4395L16.4798 39.0156C17.9916 38.5586 19.3041 37.8203 20.4173 36.8008C21.4369 35.875 21.9466 34.7207 21.9466 33.3379V31.7383H23.933V33.3379ZM45.282 38.1367V39.877H39.2527V40.791C39.4519 40.8379 39.657 40.8965 39.8679 40.9668C40.3601 41.1543 40.7878 41.4121 41.1511 41.7402C41.5261 42.0801 41.8249 42.4668 42.0476 42.9004C42.2702 43.334 42.3816 43.8027 42.3816 44.3066C42.3816 44.8105 42.2702 45.2852 42.0476 45.7305C41.8249 46.1641 41.5261 46.5508 41.1511 46.8906C40.7878 47.2188 40.3542 47.4766 39.8503 47.6641C39.3581 47.8516 38.8249 47.9453 38.2507 47.9453C37.6882 47.9453 37.155 47.8516 36.6511 47.6641C36.1589 47.4766 35.7312 47.2188 35.3679 46.8906C34.9929 46.5508 34.6941 46.1641 34.4714 45.7305C34.2488 45.2852 34.1374 44.8105 34.1374 44.3066C34.1374 43.8027 34.2488 43.334 34.4714 42.9004C34.6941 42.4668 34.9929 42.0801 35.3679 41.7402C35.7312 41.4121 36.1648 41.1543 36.6687 40.9668C36.8796 40.8848 37.0905 40.8203 37.3015 40.7734V39.877H31.2722V38.1367H45.282ZM40.4304 44.2891C40.4304 43.75 40.2195 43.293 39.7976 42.918C39.3757 42.5312 38.8601 42.3379 38.2507 42.3379C37.653 42.3379 37.1433 42.5312 36.7214 42.918C36.2995 43.293 36.0886 43.75 36.0886 44.2891C36.0886 44.8398 36.2995 45.3086 36.7214 45.6953C37.1433 46.0703 37.653 46.2578 38.2507 46.2578C38.8601 46.2578 39.3757 46.0703 39.7976 45.6953C40.2195 45.3086 40.4304 44.8398 40.4304 44.2891ZM37.2663 33.3555V33.3379H32.8894V31.668H43.6648V33.3379H39.323V33.3555C39.323 34.0352 40.032 34.6797 41.4499 35.2891C42.1648 35.6055 43.2019 35.834 44.5613 35.9746L43.946 37.4336C42.3171 37.3047 40.8757 36.9121 39.6218 36.2559C39.0827 35.9746 38.6374 35.6758 38.2859 35.3594C37.946 35.6758 37.5066 35.9746 36.9675 36.2559C35.7136 36.9121 34.2722 37.3047 32.6433 37.4336L32.028 35.9746C33.3874 35.834 34.4245 35.6055 35.1394 35.2891C36.5573 34.6797 37.2663 34.0352 37.2663 33.3555ZM47.5938 39.9648V35.043H52.9727V33.4609H47.5938V31.8086H54.8536V36.6426H49.4923V38.3125H52.7442C54.3731 38.3125 56.002 38.2129 57.6309 38.0137V31.2461H59.5645V40.2109H57.6309V39.6309C56.0372 39.8535 54.4083 39.9648 52.7442 39.9648H47.5938ZM59.5645 46.9609H49.6505V40.9141H51.5841V42.1445H57.6485V40.9141H59.5645V46.9609ZM57.6485 45.3086V43.7617H51.5841V45.3086H57.6485ZM77.952 31.2461H79.8855V46.9609H77.952V31.2461ZM72.45 34.1465C72.45 36.0098 72.8016 37.5273 73.5047 38.6992C74.1609 39.8008 75.1687 40.9023 76.5281 42.0039L75.2449 43.2871C73.8504 42.1738 72.6785 40.8555 71.7293 39.332C71.6355 39.2031 71.5535 39.0684 71.4832 38.9277C71.4012 39.1035 71.3133 39.2676 71.2195 39.4199C70.2 41.0488 68.9988 42.3672 67.616 43.375L66.3152 42.127C67.616 41.2012 68.7176 39.9941 69.6199 38.5059C70.1941 37.5566 70.4812 36.1035 70.4812 34.1465V31.7207H72.45V34.1465ZM83.2169 42.9531V31.9492H88.4552V33.707H85.1505V41.1777H86.4689C87.6994 41.1777 88.9474 41.0781 90.213 40.8789V31.2461H92.0763V36.502H93.7814V31.2461H95.6974V46.9609H93.7814V38.2598H92.0763V46.9609H90.213V42.6367C89.088 42.8477 87.8224 42.9531 86.4162 42.9531H83.2169ZM109.962 37.6621H99.3277V33.9004H107.941V32.9512H99.3277V31.5098H109.875V35.2539H101.279V36.2207H109.962V37.6621ZM97.605 38.541H111.615V40.0176H97.605V38.541ZM110.068 46.9609H99.3277V43.252H107.941V42.373H99.3277V40.9316H109.875V44.623H101.279V45.5195H110.068V46.9609ZM127.471 35.166C127.471 35.6934 127.36 36.1914 127.137 36.6602C126.914 37.1289 126.615 37.5449 126.24 37.9082C125.865 38.2598 125.426 38.5352 124.922 38.7344C124.418 38.9336 123.879 39.0332 123.305 39.0332C122.731 39.0332 122.192 38.9336 121.688 38.7344C121.184 38.5352 120.744 38.2598 120.369 37.9082C120.006 37.5449 119.713 37.1289 119.49 36.6602C119.268 36.1914 119.156 35.6934 119.156 35.166C119.156 34.6387 119.268 34.1406 119.49 33.6719C119.713 33.2031 120.006 32.793 120.369 32.4414C120.744 32.0898 121.184 31.8145 121.688 31.6152C122.192 31.4043 122.731 31.2988 123.305 31.2988C123.879 31.2988 124.418 31.4043 124.922 31.6152C125.426 31.8145 125.865 32.0898 126.24 32.4414C126.615 32.793 126.914 33.2031 127.137 33.6719C127.36 34.1406 127.471 34.6387 127.471 35.166ZM125.537 35.166C125.537 34.5801 125.321 34.0762 124.887 33.6543C124.453 33.2207 123.926 33.0039 123.305 33.0039C122.696 33.0039 122.168 33.2207 121.723 33.6543C121.289 34.0762 121.073 34.5801 121.073 35.166C121.073 35.752 121.289 36.2617 121.723 36.6953C122.168 37.1172 122.696 37.3281 123.305 37.3281C123.926 37.3281 124.453 37.1172 124.887 36.6953C125.321 36.2617 125.537 35.752 125.537 35.166ZM131.127 31.2461V46.9609H129.194V41.7578C128.08 41.8633 126.598 41.916 124.746 41.916H124.096V46.9609H122.162V41.916H117.838V40.1758H124.711C126.586 40.1758 128.08 40.1289 129.194 40.0352V31.2461H131.127ZM136.814 32.5645V31H138.976V32.5645H142.509V34.2344H140.646C140.693 34.2695 140.74 34.3105 140.787 34.3574C141.162 34.709 141.461 35.1191 141.683 35.5879C141.906 36.0449 142.017 36.5371 142.017 37.0645C142.017 37.5918 141.906 38.0898 141.683 38.5586C141.461 39.0156 141.162 39.4141 140.787 39.7539C140.412 40.1055 139.972 40.3867 139.468 40.5977C138.976 40.7969 138.449 40.8965 137.886 40.8965C137.324 40.8965 136.791 40.7969 136.287 40.5977C135.795 40.3867 135.361 40.1055 134.986 39.7539C134.623 39.4141 134.33 39.0156 134.107 38.5586C133.884 38.0898 133.773 37.5918 133.773 37.0645C133.773 36.5371 133.884 36.0449 134.107 35.5879C134.33 35.1191 134.623 34.709 134.986 34.3574C135.045 34.3105 135.097 34.2695 135.144 34.2344H133.263V32.5645H136.814ZM140.084 36.9766C140.084 36.3789 139.867 35.8691 139.433 35.4473C139 35.0254 138.484 34.8145 137.886 34.8145C137.289 34.8145 136.773 35.0254 136.339 35.4473C135.906 35.8691 135.689 36.3789 135.689 36.9766C135.689 37.5625 135.906 38.0723 136.339 38.5059C136.773 38.9277 137.289 39.1387 137.886 39.1387C138.484 39.1387 139 38.9277 139.433 38.5059C139.867 38.0723 140.084 37.5625 140.084 36.9766ZM145.779 31.2461V35.9043H147.941V37.7676H145.779V42.9355H143.828V31.2461H145.779ZM146.218 46.9609H136.041V42.1094H138.027V45.2207H146.218V46.9609ZM161.565 42.1094V47.2422H159.614V42.1094H153.584V40.334H167.594V42.1094H161.565ZM161.582 32.7578C161.582 33.8594 162.057 34.8027 163.006 35.5879C164.026 36.4199 165.309 37.0996 166.856 37.627L165.801 39.0156C164.16 38.5117 162.778 37.7676 161.653 36.7832C161.231 36.4316 160.873 36.0566 160.58 35.6582C160.299 36.0566 159.948 36.4316 159.526 36.7832C158.401 37.7676 157.018 38.5117 155.377 39.0156L154.323 37.627C155.869 37.0996 157.153 36.4199 158.172 35.5879C159.121 34.8027 159.596 33.8594 159.596 32.7578V31.3164H161.582V32.7578ZM182.931 43.5508V45.3262H168.922V43.5508H174.951V40.1406H176.902V43.5508H182.931ZM176.92 33.3379C176.92 34.7207 177.429 35.875 178.449 36.8008C179.562 37.8203 180.875 38.5586 182.386 39.0156L181.314 40.4395C179.439 39.8184 177.91 38.8809 176.726 37.627C176.422 37.3105 176.152 36.9766 175.918 36.625C175.695 36.9766 175.431 37.3105 175.127 37.627C173.943 38.8809 172.414 39.8184 170.539 40.4395L169.466 39.0156C170.978 38.5586 172.291 37.8203 173.404 36.8008C174.424 35.875 174.933 34.7207 174.933 33.3379V31.7383H176.92V33.3379ZM200.756 36.748H199.069V40.2285C199.268 40.2754 199.455 40.334 199.631 40.4043C200.135 40.6152 200.58 40.8848 200.967 41.2129C201.33 41.5645 201.623 41.9805 201.846 42.4609C202.069 42.9297 202.18 43.4219 202.18 43.9375C202.18 44.4531 202.069 44.9512 201.846 45.4316C201.623 45.9004 201.33 46.3105 200.967 46.6621C200.58 46.9902 200.129 47.2539 199.614 47.4531C199.11 47.6641 198.571 47.7695 197.996 47.7695C197.422 47.7695 196.877 47.6641 196.362 47.4531C195.858 47.2539 195.413 46.9902 195.026 46.6621C194.651 46.3105 194.352 45.9004 194.129 45.4316C193.907 44.9512 193.795 44.4531 193.795 43.9375C193.795 43.4219 193.907 42.9297 194.129 42.4609C194.352 41.9805 194.651 41.5645 195.026 41.2129C195.413 40.8848 195.864 40.6152 196.379 40.4043C196.637 40.2988 196.907 40.2227 197.188 40.1758V31.2461H199.069V35.0078H200.756V31.2461H202.672V40.4219H200.756V36.748ZM200.246 43.9375C200.246 43.3633 200.024 42.8652 199.579 42.4434C199.133 42.0215 198.606 41.8105 197.996 41.8105C197.387 41.8105 196.86 42.0215 196.414 42.4434C195.969 42.8652 195.746 43.3633 195.746 43.9375C195.746 44.5117 195.969 45.0098 196.414 45.4316C196.86 45.8535 197.387 46.0645 197.996 46.0645C198.606 46.0645 199.133 45.8535 199.579 45.4316C200.024 45.0098 200.246 44.5117 200.246 43.9375ZM193.795 33.4258C193.795 34.8203 194.059 35.9395 194.586 36.7832C195.161 37.6504 195.858 38.418 196.678 39.0859L195.43 40.2812C194.528 39.5312 193.743 38.6816 193.075 37.7324L192.864 37.3633L192.618 37.7676C191.809 38.9629 190.93 39.918 189.981 40.6328L188.645 39.4023C189.582 38.7344 190.391 37.8555 191.071 36.7656C191.633 35.875 191.914 34.7559 191.914 33.4082V31.668H193.795V33.4258ZM216.726 31.2461V35.3945H218.888V37.1875H216.726V42.7422H214.793V31.2461H216.726ZM217.183 46.9609H206.988V41.916H208.974V45.2207H217.183V46.9609ZM209.941 33.1621C209.941 34.7441 210.281 36.0039 210.961 36.9414C211.734 38.0078 212.678 38.8984 213.791 39.6133L212.631 40.9316C211.459 40.1934 210.381 39.1855 209.396 37.9082C209.232 37.709 209.086 37.4922 208.957 37.2578C208.816 37.5156 208.658 37.7617 208.482 37.9961C207.545 39.3438 206.478 40.3926 205.283 41.1426L203.982 39.877C205.154 39.1621 206.138 38.2188 206.935 37.0469C207.627 36.0508 207.972 34.7559 207.972 33.1621V31.668H209.941V33.1621ZM229.585 35.9043C229.585 36.4668 229.468 37 229.234 37.5039C229.011 38.0078 228.7 38.4473 228.302 38.8223C227.915 39.1973 227.458 39.4961 226.931 39.7188C226.403 39.9414 225.847 40.0527 225.261 40.0527C224.675 40.0527 224.118 39.9414 223.591 39.7188C223.075 39.4961 222.618 39.1973 222.22 38.8223C221.821 38.4473 221.505 38.0078 221.271 37.5039C221.048 37 220.937 36.4668 220.937 35.9043C220.937 35.3418 221.048 34.8086 221.271 34.3047C221.505 33.8008 221.821 33.3613 222.22 32.9863C222.618 32.623 223.075 32.3301 223.591 32.1074C224.118 31.8848 224.675 31.7734 225.261 31.7734C225.847 31.7734 226.403 31.8848 226.931 32.1074C227.458 32.3301 227.915 32.623 228.302 32.9863C228.7 33.3613 229.011 33.8008 229.234 34.3047C229.468 34.8086 229.585 35.3418 229.585 35.9043ZM227.651 35.9043C227.651 35.5762 227.587 35.2656 227.458 34.9727C227.329 34.668 227.153 34.4102 226.931 34.1992C226.72 33.9883 226.468 33.8184 226.175 33.6895C225.894 33.5488 225.589 33.4785 225.261 33.4785C224.944 33.4785 224.64 33.5488 224.347 33.6895C224.054 33.8184 223.802 33.9883 223.591 34.1992C223.38 34.4102 223.204 34.668 223.064 34.9727C222.935 35.2656 222.87 35.5762 222.87 35.9043C222.87 36.2441 222.935 36.5605 223.064 36.8535C223.204 37.1465 223.38 37.4043 223.591 37.627C223.802 37.8379 224.054 38.0078 224.347 38.1367C224.64 38.2656 224.944 38.3301 225.261 38.3301C225.589 38.3301 225.894 38.2656 226.175 38.1367C226.468 38.0078 226.72 37.8379 226.931 37.627C227.153 37.4043 227.329 37.1465 227.458 36.8535C227.587 36.5605 227.651 36.2441 227.651 35.9043ZM233.101 31.2461V46.9609H231.167V43.5332C229.726 43.7207 228.05 43.8145 226.14 43.8145H219.97V42.0391H226.105C227.956 42.0391 229.644 41.9629 231.167 41.8105V31.2461H233.101ZM251.26 31.2461H253.193V46.9609H251.26V31.2461ZM248.535 31.9492C248.535 34.668 247.849 37.0293 246.478 39.0332C245.295 40.8379 243.695 42.3789 241.68 43.6562L240.344 42.2852C242.242 41.125 243.724 39.7422 244.791 38.1367C245.764 36.7422 246.297 35.2656 246.39 33.707H241.187V31.9492H248.535ZM262.571 35.7637C262.232 36.127 261.804 36.4668 261.288 36.7832C260.14 37.5098 258.78 38.0195 257.21 38.3125L256.331 36.8359C257.62 36.5898 258.663 36.2617 259.46 35.8516C260.855 35.1602 261.552 34.3457 261.552 33.4082V33.3906H257.193V31.668H267.968V33.3906H263.609V33.4082C263.609 34.3457 264.306 35.1602 265.7 35.8516C266.497 36.2617 267.54 36.5898 268.829 36.8359L267.95 38.3125C266.368 38.0195 265.009 37.5098 263.872 36.7832C263.357 36.4668 262.923 36.127 262.571 35.7637ZM269.585 39.2617V41.0195H263.749V43.375H261.763V41.0195H255.575V39.2617H269.585ZM268.073 46.9609H257.298V42.584H259.284V45.2207H268.073V46.9609ZM282.198 34.6738C282.198 35.2012 282.086 35.6934 281.864 36.1504C281.629 36.6074 281.319 37.0176 280.932 37.3809H284.922V38.998H270.913V37.3809H274.885C274.51 37.0176 274.206 36.6074 273.971 36.1504C273.749 35.6934 273.637 35.2012 273.637 34.6738C273.637 34.1465 273.749 33.6484 273.971 33.1797C274.206 32.7109 274.51 32.2949 274.885 31.9316C275.284 31.5801 275.741 31.3047 276.256 31.1055C276.772 30.8945 277.323 30.7891 277.909 30.7891C278.506 30.7891 279.063 30.8945 279.579 31.1055C280.094 31.3047 280.545 31.5801 280.932 31.9316C281.319 32.2949 281.624 32.7109 281.846 33.1797C282.081 33.6484 282.198 34.1465 282.198 34.6738ZM280.264 34.709C280.264 34.0762 280.036 33.543 279.579 33.1094C279.122 32.6641 278.565 32.4414 277.909 32.4414C277.264 32.4414 276.713 32.6641 276.256 33.1094C275.799 33.543 275.571 34.0762 275.571 34.709C275.571 35.3301 275.799 35.8633 276.256 36.3086C276.713 36.7539 277.264 36.9766 277.909 36.9766C278.565 36.9766 279.122 36.7539 279.579 36.3086C280.036 35.8633 280.264 35.3301 280.264 34.709ZM283.376 46.9609H272.635V42.707H281.249V41.5645H272.635V40.0352H283.182V44.2363H274.586V45.4141H283.376V46.9609ZM12.1992 69.2773H10.7227V77.9609H8.8418V62.2461H10.7227V67.5195H12.1992V62.2461H14.0977V77.9609H12.1992V69.2773ZM5.23828 65.3926C5.23828 67.2324 5.54883 68.7793 6.16992 70.0332C6.7793 71.3105 7.52344 72.4121 8.40234 73.3379L7.08398 74.4102C6.25195 73.5898 5.41406 72.3887 4.57031 70.8066C4.46484 70.5957 4.36523 70.3848 4.27148 70.1738C4.17773 70.373 4.07812 70.5723 3.97266 70.7715C3.14062 72.4004 2.2793 73.5957 1.38867 74.3574L0 73.3379C0.972656 72.4355 1.78711 71.3223 2.44336 69.998C3.06445 68.7207 3.375 67.1855 3.375 65.3926V62.7207H5.23828V65.3926ZM28.3099 69.2949H23.933V70.3672H29.9447V71.9492H15.9349V70.3672H21.9466V69.2949H17.6576V65.1816H26.2709V64.127H17.6576V62.5625H28.2045V66.6934H19.6088V67.7656H28.3099V69.2949ZM28.2045 77.9609H17.6576V72.5996H19.6088V73.5488H26.2709V72.5996H28.2045V77.9609ZM26.2709 76.4141V75.0781H19.6088V76.4141H26.2709ZM42.8386 62.2461H44.7019V77.9609H42.8386V62.2461ZM41.5027 77.9609H39.6745V69.2422H37.4948V67.4668H39.6745V62.2461H41.5027V77.9609ZM38.0046 62.9492C38.0046 65.7852 37.4538 68.1465 36.3523 70.0332C35.2155 71.9902 33.8913 73.5605 32.3796 74.7441L30.9382 73.4961C32.3913 72.4062 33.6394 70.9707 34.6823 69.1895C35.4441 67.8887 35.8542 66.3945 35.9128 64.707H31.7995V62.9492H38.0046ZM56.3393 68.2051C55.3432 69.5762 54.1186 70.6133 52.6655 71.3164L51.4702 69.998C52.5834 69.4707 53.5795 68.6914 54.4584 67.6602C54.9975 67.0273 55.267 66.2129 55.267 65.2168V64.6016H52.103V62.8789H60.5756V64.6016H57.2534V65.1641C57.2534 66.1484 57.5873 66.9688 58.2553 67.625C59.0756 68.4219 60.0073 69.043 61.0502 69.4883L60.101 70.8242C58.6362 70.332 57.3823 69.459 56.3393 68.2051ZM64.5483 62.2461V71.2988H62.6147V67.6426H59.7846V65.9375H62.6147V62.2461H64.5483ZM64.2495 74.9727C64.2495 75.4883 64.1381 75.9805 63.9155 76.4492C63.6928 76.9062 63.394 77.3105 63.019 77.6621C62.644 77.9902 62.2045 78.2539 61.7006 78.4531C61.1967 78.6641 60.6518 78.7695 60.0659 78.7695C59.4916 78.7695 58.9526 78.6641 58.4487 78.4531C57.9448 78.2539 57.4995 77.9902 57.1127 77.6621C56.7495 77.3105 56.4565 76.9062 56.2338 76.4492C56.0112 75.9805 55.8998 75.4883 55.8998 74.9727C55.8998 74.457 56.0112 73.9707 56.2338 73.5137C56.4565 73.0449 56.7495 72.6348 57.1127 72.2832C57.4995 71.9551 57.9448 71.6914 58.4487 71.4922C58.9526 71.2812 59.4916 71.1758 60.0659 71.1758C60.6518 71.1758 61.1967 71.2812 61.7006 71.4922C62.2045 71.6914 62.644 71.9551 63.019 72.2832C63.394 72.6348 63.6928 73.0449 63.9155 73.5137C64.1381 73.9707 64.2495 74.457 64.2495 74.9727ZM62.2983 74.9727C62.2983 74.3984 62.0815 73.9062 61.6479 73.4961C61.2143 73.0859 60.687 72.8809 60.0659 72.8809C59.4565 72.8809 58.9291 73.0859 58.4838 73.4961C58.0502 73.9062 57.8334 74.3984 57.8334 74.9727C57.8334 75.5469 58.0502 76.0391 58.4838 76.4492C58.9291 76.8594 59.4565 77.0645 60.0659 77.0645C60.687 77.0645 61.2143 76.8594 61.6479 76.4492C62.0815 76.0391 62.2983 75.5469 62.2983 74.9727ZM76.5984 66.9043C76.5984 67.4668 76.4812 68 76.2469 68.5039C76.0242 69.0078 75.7137 69.4473 75.3152 69.8223C74.9285 70.1973 74.4715 70.4961 73.9441 70.7188C73.4168 70.9414 72.8602 71.0527 72.2742 71.0527C71.6883 71.0527 71.1316 70.9414 70.6043 70.7188C70.0887 70.4961 69.6316 70.1973 69.2332 69.8223C68.8348 69.4473 68.5184 69.0078 68.284 68.5039C68.0613 68 67.95 67.4668 67.95 66.9043C67.95 66.3418 68.0613 65.8086 68.284 65.3047C68.5184 64.8008 68.8348 64.3613 69.2332 63.9863C69.6316 63.623 70.0887 63.3301 70.6043 63.1074C71.1316 62.8848 71.6883 62.7734 72.2742 62.7734C72.8602 62.7734 73.4168 62.8848 73.9441 63.1074C74.4715 63.3301 74.9285 63.623 75.3152 63.9863C75.7137 64.3613 76.0242 64.8008 76.2469 65.3047C76.4812 65.8086 76.5984 66.3418 76.5984 66.9043ZM74.6648 66.9043C74.6648 66.5762 74.6004 66.2656 74.4715 65.9727C74.3426 65.668 74.1668 65.4102 73.9441 65.1992C73.7332 64.9883 73.4812 64.8184 73.1883 64.6895C72.907 64.5488 72.6023 64.4785 72.2742 64.4785C71.9578 64.4785 71.6531 64.5488 71.3602 64.6895C71.0672 64.8184 70.8152 64.9883 70.6043 65.1992C70.3934 65.4102 70.2176 65.668 70.077 65.9727C69.948 66.2656 69.8836 66.5762 69.8836 66.9043C69.8836 67.2441 69.948 67.5605 70.077 67.8535C70.2176 68.1465 70.3934 68.4043 70.6043 68.627C70.8152 68.8379 71.0672 69.0078 71.3602 69.1367C71.6531 69.2656 71.9578 69.3301 72.2742 69.3301C72.6023 69.3301 72.907 69.2656 73.1883 69.1367C73.4812 69.0078 73.7332 68.8379 73.9441 68.627C74.1668 68.4043 74.3426 68.1465 74.4715 67.8535C74.6004 67.5605 74.6648 67.2441 74.6648 66.9043ZM80.1141 62.2461V77.9609H78.1805V74.5332C76.7391 74.7207 75.0633 74.8145 73.1531 74.8145H66.9832V73.0391H73.118C74.9695 73.0391 76.657 72.9629 78.1805 72.8105V62.2461H80.1141ZM85.8185 63.4414V62H87.9806V63.4414H91.4435V65.0059H89.6681L89.7209 65.0586C90.0841 65.375 90.3712 65.75 90.5822 66.1836C90.7931 66.6172 90.8986 67.0742 90.8986 67.5547C90.8986 68.0352 90.7931 68.4922 90.5822 68.9258C90.3712 69.3594 90.0841 69.7344 89.7209 70.0508C89.3576 70.3789 88.9298 70.6367 88.4377 70.8242C87.9572 71.0117 87.4416 71.1055 86.8908 71.1055C86.34 71.1055 85.8185 71.0117 85.3263 70.8242C84.8459 70.6367 84.4298 70.3789 84.0783 70.0508C83.715 69.7344 83.4279 69.3594 83.2169 68.9258C83.006 68.4922 82.9005 68.0352 82.9005 67.5547C82.9005 67.0742 83.006 66.6172 83.2169 66.1836C83.4279 65.75 83.715 65.375 84.0783 65.0586L84.131 65.0059H82.338V63.4414H85.8185ZM88.965 67.4668C88.965 66.9277 88.7599 66.4648 88.3498 66.0781C87.9396 65.6797 87.4533 65.4805 86.8908 65.4805C86.3283 65.4805 85.8419 65.6797 85.4318 66.0781C85.0334 66.4648 84.8341 66.9277 84.8341 67.4668C84.8341 68.0059 85.0334 68.4746 85.4318 68.873C85.8419 69.2598 86.3283 69.4531 86.8908 69.4531C87.4533 69.4531 87.9396 69.2598 88.3498 68.873C88.7599 68.4746 88.965 68.0059 88.965 67.4668ZM94.7834 62.2461V66.0254H96.9455V67.748H94.7834V70.9473H92.8322V62.2461H94.7834ZM94.7834 77.9609H84.7638V71.8086H86.6974V72.9688H92.8498V71.8086H94.7834V77.9609ZM92.8498 76.291V74.6387H86.6974V76.291H92.8498ZM98.8882 73.6719V62.8789H100.822V71.9141H103.652C105.316 71.9141 106.974 71.791 108.626 71.5449V62.2461H110.56V77.9609H108.626V73.3379C107.08 73.5605 105.38 73.6719 103.529 73.6719H98.8882ZM113.891 73.9531V62.9492H120.694V64.707H115.843V72.1777H117.794C119.399 72.1777 121.151 72.0195 123.05 71.7031V62.2461H124.983V67.3613H127.356V69.1895H124.983V77.9609H123.05V73.4609C121.268 73.7891 119.499 73.9531 117.741 73.9531H113.891ZM129.071 76.4844V73.9355H131.637V76.4844H129.071Z" fill="white"/>
</svg>
