<svg width="212" height="66" viewBox="0 0 212 66" fill="none" xmlns="http://www.w3.org/2000/svg">
<path d="M5.71208 2.43689V0.000889063H9.07208V2.43689H14.5601V5.04089H11.6761C11.7507 5.09689 11.8254 5.16222 11.9001 5.23689C12.4787 5.77822 12.9361 6.41289 13.2721 7.14089C13.6267 7.85022 13.8041 8.61556 13.8041 9.43689C13.8041 10.2582 13.6267 11.0329 13.2721 11.7609C12.9361 12.4702 12.4787 13.0956 11.9001 13.6369C11.3214 14.1782 10.6401 14.6076 9.85608 14.9249C9.09075 15.2422 8.26942 15.4009 7.39208 15.4009C6.51475 15.4009 5.68408 15.2422 4.90008 14.9249C4.13475 14.6076 3.46275 14.1782 2.88408 13.6369C2.30542 13.0956 1.83875 12.4702 1.48408 11.7609C1.14808 11.0329 0.980082 10.2582 0.980082 9.43689C0.980082 8.61556 1.14808 7.85022 1.48408 7.14089C1.83875 6.41289 2.30542 5.77822 2.88408 5.23689C2.95875 5.16222 3.03342 5.09689 3.10808 5.04089H0.112082V2.43689H5.71208ZM10.8081 9.29689C10.8081 8.38222 10.4721 7.59822 9.80008 6.94489C9.12808 6.27289 8.32542 5.93689 7.39208 5.93689C6.45875 5.93689 5.65608 6.27289 4.98408 6.94489C4.31208 7.59822 3.97608 8.38222 3.97608 9.29689C3.97608 10.2116 4.31208 11.0049 4.98408 11.6769C5.65608 12.3302 6.45875 12.6569 7.39208 12.6569C8.32542 12.6569 9.12808 12.3302 9.80008 11.6769C10.4721 11.0049 10.8081 10.2116 10.8081 9.29689ZM17.1361 7.95289H14.3081V5.12489H17.1361V0.392889H20.1601V18.5649H17.1361V13.7769H14.3081V10.9489H17.1361V7.95289ZM21.0001 24.8369H4.73208V17.2769H7.92408V22.1209H21.0001V24.8369ZM25.3421 18.5929V1.48489H33.4901V4.22889H28.3381V15.8489H30.3821C32.3047 15.8489 34.2461 15.6902 36.2061 15.3729V0.392889H39.1181V8.56889H41.7781V0.392889H44.7461V24.8369H41.7781V11.3129H39.1181V24.8369H36.2061V18.1169C34.4701 18.4342 32.5007 18.5929 30.2981 18.5929H25.3421ZM66.448 0.392889V8.34489H70.144V11.2009H66.448V24.8369H63.424V0.392889H66.448ZM53.26 6.18889V4.20089H48.108V1.48489H61.324V4.20089H56.34V6.32889C56.3214 8.60622 56.8534 10.6036 57.936 12.3209C59 14.0009 60.4747 15.6436 62.36 17.2489L60.484 19.1809C58.468 17.5009 56.7134 15.5222 55.22 13.2449C55.0894 13.0582 54.968 12.8622 54.856 12.6569C54.6694 13.0302 54.4547 13.3942 54.212 13.7489C52.6627 16.1009 50.8707 17.9862 48.836 19.4049L46.792 17.4169C48.7147 16.1289 50.3294 14.4582 51.636 12.4049C52.7187 10.6689 53.26 8.59689 53.26 6.18889ZM74.262 1.03689H90.558V3.66889H77.286V7.89689H90.754V10.5289H83.978V13.1329H93.358V15.7929H87.17C87.7487 16.3156 88.206 16.9316 88.542 17.6409C88.8967 18.3876 89.074 19.1809 89.074 20.0209C89.074 20.8609 88.8967 21.6542 88.542 22.4009C88.1873 23.1289 87.7113 23.7636 87.114 24.3049C86.5167 24.8462 85.8167 25.2756 85.014 25.5929C84.2113 25.9289 83.362 26.0969 82.466 26.0969C81.57 26.0969 80.7207 25.9289 79.918 25.5929C79.1153 25.2756 78.4153 24.8462 77.818 24.3049C77.2207 23.7636 76.7447 23.1289 76.39 22.4009C76.0353 21.6542 75.858 20.8609 75.858 20.0209C75.858 19.1809 76.0353 18.3876 76.39 17.6409C76.726 16.9316 77.1833 16.3156 77.762 15.7929H71.574V13.1329H80.954V10.5289H74.262V1.03689ZM86.05 19.9369C86.05 18.9662 85.6953 18.1356 84.986 17.4449C84.2953 16.7542 83.4553 16.4089 82.466 16.4089C81.4767 16.4089 80.6273 16.7542 79.918 17.4449C79.2273 18.1356 78.882 18.9662 78.882 19.9369C78.882 20.9076 79.2273 21.7382 79.918 22.4289C80.6273 23.1196 81.4767 23.4649 82.466 23.4649C83.4553 23.4649 84.2953 23.1196 84.986 22.4289C85.6953 21.7382 86.05 20.9076 86.05 19.9369ZM114.164 0.392889V8.90489H117.86V11.7609H114.164V24.8369H111.14V0.392889H114.164ZM100.78 6.66489V5.60089H95.292V2.85689H100.78V0.000889063H103.86V2.85689H109.012V5.60089H103.86V6.66489C103.879 8.68089 104.364 10.5849 105.316 12.3769C106.231 14.0942 107.715 15.8116 109.768 17.5289L107.836 19.5169C105.689 17.7062 103.991 15.7369 102.74 13.6089C102.591 13.3662 102.451 13.1236 102.32 12.8809C102.189 13.1236 102.049 13.3756 101.9 13.6369C100.537 15.9142 98.792 17.9022 96.664 19.6009L94.508 17.7249C96.5426 16.1196 98.1386 14.3276 99.296 12.3489C100.267 10.6876 100.761 8.79289 100.78 6.66489ZM137.994 1.68089V8.70889C137.994 12.0876 137.667 15.4476 137.014 18.7889H141.074V21.5329H119.29V18.7889H134.046C134.662 15.5782 134.97 12.5262 134.97 9.63289V4.42489H121.642V1.68089H137.994ZM162.384 11.3129H145.836V4.92889H159.22V3.30489H145.836V0.896889H162.244V7.28089H148.86V8.93289H162.384V11.3129ZM164.932 15.2049H155.664V16.8289H152.416V15.2049H143.148V12.7409H164.932V15.2049ZM162.244 24.8369H145.836V16.6329H148.86V18.1169H159.22V16.6329H162.244V24.8369ZM159.22 22.4289V20.4689H148.86V22.4289H159.22ZM176.554 4.08889H171.066V11.4529H176.554V4.08889ZM179.55 14.1689H168.07V1.37289H179.55V14.1689ZM185.906 0.392889V6.83289H189.266V9.63289H185.906V18.2849H182.882V0.392889H185.906ZM186.606 24.8369H170.758V16.9969H173.838V22.1209H186.606V24.8369ZM205.9 7.64489C205.9 8.52222 205.723 9.35289 205.368 10.1369C205.013 10.9209 204.528 11.6022 203.912 12.1809C203.296 12.7596 202.577 13.2262 201.756 13.5809C200.953 13.9169 200.095 14.0849 199.18 14.0849C198.265 14.0849 197.397 13.9169 196.576 13.5809C195.773 13.2262 195.064 12.7596 194.448 12.1809C193.832 11.6022 193.347 10.9209 192.992 10.1369C192.637 9.35289 192.46 8.52222 192.46 7.64489C192.46 6.76756 192.637 5.93689 192.992 5.15289C193.347 4.36889 193.832 3.68756 194.448 3.10889C195.064 2.53022 195.773 2.07289 196.576 1.73689C197.397 1.38222 198.265 1.20489 199.18 1.20489C200.095 1.20489 200.953 1.38222 201.756 1.73689C202.577 2.07289 203.296 2.53022 203.912 3.10889C204.528 3.68756 205.013 4.36889 205.368 5.15289C205.723 5.93689 205.9 6.76756 205.9 7.64489ZM202.904 7.64489C202.904 7.12222 202.801 6.63689 202.596 6.18889C202.391 5.72222 202.12 5.32089 201.784 4.98489C201.448 4.64889 201.056 4.37822 200.608 4.17289C200.16 3.96756 199.684 3.86489 199.18 3.86489C198.676 3.86489 198.2 3.96756 197.752 4.17289C197.304 4.37822 196.912 4.64889 196.576 4.98489C196.24 5.32089 195.969 5.72222 195.764 6.18889C195.559 6.63689 195.456 7.12222 195.456 7.64489C195.456 8.16756 195.559 8.66222 195.764 9.12889C195.969 9.57689 196.24 9.96889 196.576 10.3049C196.912 10.6409 197.304 10.9116 197.752 11.1169C198.2 11.3222 198.676 11.4249 199.18 11.4249C199.684 11.4249 200.16 11.3222 200.608 11.1169C201.056 10.9116 201.448 10.6409 201.784 10.3049C202.12 9.96889 202.391 9.57689 202.596 9.12889C202.801 8.66222 202.904 8.16756 202.904 7.64489ZM211.36 0.392889V24.8369H208.364V19.5169C206.124 19.7969 203.52 19.9369 200.552 19.9369H190.948V17.1929H200.496C203.371 17.1929 205.993 17.0716 208.364 16.8289V0.392889H211.36ZM2.68808 39.7569H5.71208V45.6089H19.4601V48.2129H12.4041V50.6769H21.7841V53.3089H8.20905e-05V50.6769H9.38008V48.2129H2.68808V39.7569ZM8.06408 57.6489V61.2329H13.6921V57.6489H8.06408ZM5.09608 61.2329V57.6489H2.49208V55.0449H19.2921V57.6489H16.6601V61.2329H19.6841V63.8369H2.10008V61.2329H5.09608ZM42.1141 45.8329C42.1141 46.7662 41.9181 47.6436 41.5261 48.4649C41.1341 49.2862 40.6021 50.0049 39.9301 50.6209C39.7621 50.7702 39.5847 50.9196 39.3981 51.0689H45.6421V53.8129H23.8581V51.0689H30.1021C29.9154 50.9196 29.7381 50.7702 29.5701 50.6209C28.8981 50.0049 28.3661 49.2862 27.9741 48.4649C27.5821 47.6436 27.3861 46.7662 27.3861 45.8329C27.3861 44.8996 27.5821 44.0222 27.9741 43.2009C28.3661 42.3796 28.8981 41.6609 29.5701 41.0449C30.2234 40.4289 30.9981 39.9436 31.8941 39.5889C32.7901 39.2156 33.7421 39.0289 34.7501 39.0289C35.7581 39.0289 36.7101 39.2156 37.6061 39.5889C38.5021 39.9436 39.2767 40.4289 39.9301 41.0449C40.6021 41.6609 41.1341 42.3796 41.5261 43.2009C41.9181 44.0222 42.1141 44.8996 42.1141 45.8329ZM39.0901 45.9729C39.0901 45.3942 38.9687 44.8529 38.7261 44.3489C38.5021 43.8262 38.1941 43.3782 37.8021 43.0049C37.4101 42.6129 36.9527 42.3049 36.4301 42.0809C35.9074 41.8569 35.3474 41.7449 34.7501 41.7449C34.1527 41.7449 33.5927 41.8569 33.0701 42.0809C32.5474 42.3049 32.0901 42.6129 31.6981 43.0049C31.3061 43.3782 30.9887 43.8262 30.7461 44.3489C30.5221 44.8529 30.4101 45.3942 30.4101 45.9729C30.4101 46.5516 30.5221 47.1022 30.7461 47.6249C30.9887 48.1289 31.3061 48.5676 31.6981 48.9409C32.0901 49.3329 32.5474 49.6409 33.0701 49.8649C33.5927 50.0889 34.1527 50.2009 34.7501 50.2009C35.3474 50.2009 35.9074 50.0889 36.4301 49.8649C36.9527 49.6409 37.4101 49.3329 37.8021 48.9409C38.1941 48.5676 38.5021 48.1289 38.7261 47.6249C38.9687 47.1022 39.0901 46.5516 39.0901 45.9729ZM43.3741 63.8369H26.6861V56.2489H29.7661V61.0929H43.3741V63.8369ZM72.6045 39.3929H75.6285V63.8369H72.6045V39.3929ZM68.3765 40.4849C68.3765 44.7222 67.3125 48.3996 65.1845 51.5169C63.3365 54.3169 60.8445 56.7062 57.7085 58.6849L55.6365 56.5569C58.5859 54.7649 60.8912 52.6182 62.5525 50.1169C64.0645 47.9516 64.8952 45.6556 65.0445 43.2289H56.9525V40.4849H68.3765ZM79.3265 49.3889H101.11V51.8529H91.7585V53.7569H98.4225V59.9169H85.0385V61.4849H98.7025V63.8369H82.0145V57.6209H95.3985V56.0809H82.0145V53.7569H88.6785V51.8529H79.3265V49.3889ZM91.7305 40.5409C91.7305 41.6982 92.6078 42.8929 94.3625 44.1249C95.7065 45.0396 97.5825 45.7582 99.9905 46.2809L98.6185 48.5209C96.0612 47.9422 93.8772 47.0369 92.0665 45.8049C91.3198 45.2822 90.7038 44.7409 90.2185 44.1809C89.7332 44.7409 89.1172 45.2822 88.3705 45.8049C86.5598 47.0369 84.3758 47.9422 81.8185 48.5209L80.4465 46.2809C82.8545 45.7582 84.7305 45.0396 86.0745 44.1249C87.8292 42.8929 88.7065 41.6982 88.7065 40.5409V39.3089H91.7305V40.5409ZM124.937 46.6169C124.937 47.3262 124.825 47.9982 124.601 48.6329H128.073V44.6289H124.601C124.825 45.2636 124.937 45.9262 124.937 46.6169ZM122.893 51.2649C122.258 51.8622 121.53 52.3289 120.709 52.6649C119.869 53.0196 118.973 53.1969 118.021 53.1969C117.069 53.1969 116.173 53.0289 115.333 52.6929C114.512 52.3382 113.784 51.8622 113.149 51.2649C112.514 50.6676 112.01 49.9676 111.637 49.1649C111.282 48.3622 111.105 47.5129 111.105 46.6169C111.105 45.7209 111.282 44.8716 111.637 44.0689C112.01 43.2662 112.514 42.5662 113.149 41.9689C113.784 41.3716 114.512 40.9049 115.333 40.5689C116.173 40.2142 117.069 40.0369 118.021 40.0369C118.973 40.0369 119.86 40.2142 120.681 40.5689C121.521 40.9049 122.258 41.3716 122.893 41.9689C122.912 41.9689 122.921 41.9782 122.921 41.9969H128.073V39.3929H131.097V57.2849H128.073V51.2649H122.893ZM121.913 46.6169C121.913 46.0942 121.81 45.5996 121.605 45.1329C121.4 44.6662 121.12 44.2556 120.765 43.9009C120.41 43.5462 119.99 43.2662 119.505 43.0609C119.038 42.8556 118.544 42.7529 118.021 42.7529C117.498 42.7529 116.994 42.8556 116.509 43.0609C116.042 43.2662 115.632 43.5462 115.277 43.9009C114.922 44.2556 114.642 44.6662 114.437 45.1329C114.232 45.5996 114.129 46.0942 114.129 46.6169C114.129 47.1396 114.232 47.6342 114.437 48.1009C114.642 48.5676 114.922 48.9782 115.277 49.3329C115.632 49.6876 116.042 49.9676 116.509 50.1729C116.994 50.3782 117.498 50.4809 118.021 50.4809C118.544 50.4809 119.038 50.3782 119.505 50.1729C119.99 49.9676 120.41 49.6876 120.765 49.3329C121.12 48.9782 121.4 48.5676 121.605 48.1009C121.81 47.6342 121.913 47.1396 121.913 46.6169ZM131.825 63.8369H115.949V55.9129H119.001V61.1209H131.825V63.8369ZM152.771 39.3929H155.683V63.8369H152.771V39.3929ZM145.267 40.4849C145.267 41.6609 145.202 42.7809 145.071 43.8449H147.871V39.3929H150.699V63.8369H147.871V53.3929H144.371V50.6209H147.871V46.6169H144.595C144.166 48.4276 143.531 50.0609 142.691 51.5169C140.918 54.5596 138.855 56.9956 136.503 58.8249L134.263 56.8929C136.522 55.1942 138.463 52.9636 140.087 50.2009C141.282 48.1662 141.926 45.8422 142.019 43.2289H135.607V40.4849H145.267ZM178.813 39.3929V53.4769H175.789V46.8969H170.945V44.2089H175.789V39.3929H178.813ZM178.337 59.1889C178.337 59.9916 178.16 60.7569 177.805 61.4849C177.469 62.1942 177.012 62.8196 176.433 63.3609C175.836 63.8836 175.145 64.3036 174.361 64.6209C173.577 64.9382 172.737 65.0969 171.841 65.0969C170.945 65.0969 170.105 64.9382 169.321 64.6209C168.537 64.3036 167.846 63.8836 167.249 63.3609C166.67 62.8196 166.204 62.1942 165.849 61.4849C165.513 60.7569 165.345 59.9916 165.345 59.1889C165.345 58.3862 165.513 57.6302 165.849 56.9209C166.204 56.1929 166.67 55.5582 167.249 55.0169C167.846 54.4942 168.537 54.0742 169.321 53.7569C170.105 53.4396 170.945 53.2809 171.841 53.2809C172.737 53.2809 173.577 53.4396 174.361 53.7569C175.145 54.0742 175.836 54.4942 176.433 55.0169C177.012 55.5582 177.469 56.1929 177.805 56.9209C178.16 57.6302 178.337 58.3862 178.337 59.1889ZM175.313 59.1889C175.313 58.2929 174.968 57.5276 174.277 56.8929C173.605 56.2582 172.793 55.9409 171.841 55.9409C170.889 55.9409 170.068 56.2582 169.377 56.8929C168.705 57.5276 168.369 58.2929 168.369 59.1889C168.369 60.0849 168.705 60.8502 169.377 61.4849C170.068 62.1196 170.889 62.4369 171.841 62.4369C172.793 62.4369 173.605 62.1196 174.277 61.4849C174.968 60.8502 175.313 60.0849 175.313 59.1889ZM167.389 42.1649C167.389 44.1249 167.912 45.7489 168.957 47.0369C170.002 48.3062 171.402 49.4356 173.157 50.4249L171.421 52.5809C169.536 51.6102 167.884 50.2756 166.465 48.5769C166.297 48.3716 166.138 48.1662 165.989 47.9609C165.784 48.3529 165.541 48.7262 165.261 49.0809C163.824 50.9849 162.172 52.4596 160.305 53.5049L158.373 51.4609C160.165 50.4902 161.649 49.2022 162.825 47.5969C163.814 46.2529 164.309 44.4422 164.309 42.1649V40.0369H167.389V42.1649Z" fill="black"/>
</svg>
