<svg width="627" height="110" viewBox="0 0 627 110" fill="none" xmlns="http://www.w3.org/2000/svg">
<path d="M0.611988 1.7463H4.21199C5.39999 1.7463 6.32399 1.8903 6.98399 2.1783C7.41599 2.3583 7.78799 2.6163 8.09999 2.9523C8.69999 3.6243 8.99999 4.4463 8.99999 5.4183C8.99999 6.3783 8.69999 7.1943 8.09999 7.8663C7.78799 8.2023 7.41599 8.4603 6.98399 8.6403C6.34799 8.9043 5.37599 9.0363 4.06799 9.0363H2.19599V13.5363H0.611988V1.7463ZM2.19599 7.7043H4.64399C5.53199 7.7043 6.21599 7.4823 6.69599 7.0383C7.16399 6.6183 7.39799 6.0783 7.39799 5.4183C7.39799 4.7343 7.16399 4.1823 6.69599 3.7623C6.21599 3.3063 5.53199 3.0783 4.64399 3.0783H2.19599V7.7043ZM12.8575 12.2043H18.8695V13.5363H11.2735V1.7463H18.7435V3.0783H12.8575V6.8583H18.1855V8.1723H12.8575V12.2043ZM27.7474 13.5363H26.6854L22.7254 3.4923V13.5363H21.2494V1.7463H23.3194L27.2254 11.3043L31.0954 1.7463H33.1834V13.5363H31.6894V3.4923L27.7474 13.5363ZM48.0786 10.8723V16.0203H46.5666V10.8723H40.5366V9.5403H54.1086V10.8723H48.0786ZM48.0966 1.8903C48.0966 2.9583 48.5946 3.9003 49.5906 4.7163C50.6346 5.5803 51.8526 6.2463 53.2446 6.7143L52.4526 7.7763C50.9406 7.3083 49.6326 6.5943 48.5286 5.6343C48.0366 5.2143 47.6346 4.7583 47.3226 4.2663C47.0106 4.7583 46.6086 5.2143 46.1166 5.6343C45.0126 6.5943 43.7046 7.3083 42.1926 7.7763L41.4006 6.7143C42.7926 6.2463 44.0106 5.5803 45.0546 4.7163C46.0506 3.9003 46.5486 2.9583 46.5486 1.8903V0.504297H48.0966V1.8903ZM68.4018 0.450296V11.5203H66.8898V5.8683H64.0638V4.5363H66.8898V0.450296H68.4018ZM68.8698 15.7323H59.0958V11.1783H60.6438V14.4003H68.8698V15.7323ZM59.5458 3.5643V2.4123H56.3778V1.0623H64.4238V2.4123H61.0938V3.6543C61.0938 4.7223 61.4538 5.6583 62.1738 6.4623C63.0258 7.4223 63.9438 8.1303 64.9278 8.5863L64.1178 9.6123C62.8578 8.9763 61.7838 8.1663 60.8958 7.1823C60.6798 6.9423 60.4938 6.6963 60.3378 6.4443C60.1698 6.7443 59.9718 7.0323 59.7438 7.3083C58.9038 8.3643 57.9078 9.2043 56.7558 9.8283L55.8018 8.8563C56.8578 8.2923 57.7998 7.4943 58.6278 6.4623C59.2398 5.6943 59.5458 4.7283 59.5458 3.5643ZM74.0371 2.1063V0.450296H75.6571V2.1063H78.7711V3.3303H76.9711C77.1871 3.4743 77.3851 3.6363 77.5651 3.8163C77.9131 4.1643 78.1891 4.5723 78.3931 5.0403C78.5971 5.5083 78.6991 6.0063 78.6991 6.5343C78.6991 7.0623 78.5971 7.5603 78.3931 8.0283C78.1891 8.4963 77.9131 8.9043 77.5651 9.2523C77.2171 9.6003 76.8091 9.8763 76.3411 10.0803C75.8731 10.2843 75.3751 10.3863 74.8471 10.3863C74.3191 10.3863 73.8211 10.2843 73.3531 10.0803C72.8851 9.8763 72.4771 9.6003 72.1291 9.2523C71.7811 8.9043 71.5051 8.4963 71.3011 8.0283C71.0971 7.5603 70.9951 7.0623 70.9951 6.5343C70.9951 6.0063 71.0971 5.5083 71.3011 5.0403C71.5051 4.5723 71.7811 4.1643 72.1291 3.8163C72.3091 3.6363 72.5071 3.4743 72.7231 3.3303H70.8691V2.1063H74.0371ZM77.3491 6.4983C77.3491 6.1503 77.2831 5.8203 77.1511 5.5083C77.0191 5.1963 76.8391 4.9203 76.6111 4.6803C76.3831 4.4523 76.1191 4.2723 75.8191 4.1403C75.5191 3.9963 75.2011 3.9243 74.8651 3.9243C74.5291 3.9243 74.2111 3.9963 73.9111 4.1403C73.6111 4.2723 73.3471 4.4523 73.1191 4.6803C72.8911 4.9203 72.7111 5.1963 72.5791 5.5083C72.4471 5.8203 72.3811 6.1503 72.3811 6.4983C72.3811 6.8463 72.4471 7.1763 72.5791 7.4883C72.7111 7.8003 72.8911 8.0763 73.1191 8.3163C73.3471 8.5443 73.6111 8.7303 73.9111 8.8743C74.2111 9.0063 74.5291 9.0723 74.8651 9.0723C75.2011 9.0723 75.5191 9.0063 75.8191 8.8743C76.1191 8.7303 76.3831 8.5443 76.6111 8.3163C76.8391 8.0763 77.0191 7.8003 77.1511 7.4883C77.2831 7.1763 77.3491 6.8463 77.3491 6.4983ZM83.2351 0.450296H84.6211V15.7323H83.2351V6.4443H81.4711V15.7323H80.0851V0.450296H81.4711V5.1123H83.2351V0.450296ZM88.2764 0.666297H89.7884V5.0043H98.6264V6.3543H88.2764V0.666297ZM86.5484 9.7203V8.3523H100.12V9.7203H86.5484ZM98.6624 15.7323H88.3664V11.5023H89.9144V14.3823H98.6624V15.7323ZM118.695 1.2783V4.7703C118.695 6.8823 118.485 8.8383 118.065 10.6383H116.607C116.991 8.8743 117.183 7.0503 117.183 5.1663V2.6103H108.399V1.2783H118.695ZM120.441 12.6543V13.9863H106.869V12.6543H111.513V6.6783H113.025V12.6543H120.441ZM134.051 7.1103H123.935V0.576296H125.447V2.2503H132.539V0.576296H134.051V7.1103ZM132.539 5.8143V3.5283H125.447V5.8143H132.539ZM135.779 8.8563V10.1523H129.965V12.4743H128.399V10.1523H122.207V8.8563H135.779ZM134.267 15.7323H123.935V11.8803H125.501V14.4183H134.267V15.7323ZM149.154 0.450296V5.5623H151.53V6.9663H149.154V15.7323H147.642V0.450296H149.154ZM141.108 4.0863V2.4843H137.796V1.1343H145.86V2.4843H142.656V4.0503C142.644 5.5503 142.998 6.8703 143.718 8.0103C144.402 9.1023 145.308 10.1283 146.436 11.0883L145.518 12.0243C144.342 11.0523 143.28 9.8403 142.332 8.3883C142.176 8.1483 142.032 7.9083 141.9 7.6683C141.744 8.0283 141.552 8.3763 141.324 8.7123C140.34 10.2123 139.254 11.3703 138.066 12.1863L137.058 11.2143C138.186 10.4583 139.176 9.4083 140.028 8.0643C140.748 6.9123 141.108 5.5863 141.108 4.0863ZM170.393 0.450296V11.5203H168.881V5.8683H166.055V4.5363H168.881V0.450296H170.393ZM170.861 15.7323H161.087V11.1783H162.635V14.4003H170.861V15.7323ZM161.537 3.5643V2.4123H158.369V1.0623H166.415V2.4123H163.085V3.6543C163.085 4.7223 163.445 5.6583 164.165 6.4623C165.017 7.4223 165.935 8.1303 166.919 8.5863L166.109 9.6123C164.849 8.9763 163.775 8.1663 162.887 7.1823C162.671 6.9423 162.485 6.6963 162.329 6.4443C162.161 6.7443 161.963 7.0323 161.735 7.3083C160.895 8.3643 159.899 9.2043 158.747 9.8283L157.793 8.8563C158.849 8.2923 159.791 7.4943 160.619 6.4623C161.231 5.6943 161.537 4.7283 161.537 3.5643ZM176.028 2.1063V0.450296H177.648V2.1063H180.762V3.3303H178.962C179.178 3.4743 179.376 3.6363 179.556 3.8163C179.904 4.1643 180.18 4.5723 180.384 5.0403C180.588 5.5083 180.69 6.0063 180.69 6.5343C180.69 7.0623 180.588 7.5603 180.384 8.0283C180.18 8.4963 179.904 8.9043 179.556 9.2523C179.208 9.6003 178.8 9.8763 178.332 10.0803C177.864 10.2843 177.366 10.3863 176.838 10.3863C176.31 10.3863 175.812 10.2843 175.344 10.0803C174.876 9.8763 174.468 9.6003 174.12 9.2523C173.772 8.9043 173.496 8.4963 173.292 8.0283C173.088 7.5603 172.986 7.0623 172.986 6.5343C172.986 6.0063 173.088 5.5083 173.292 5.0403C173.496 4.5723 173.772 4.1643 174.12 3.8163C174.3 3.6363 174.498 3.4743 174.714 3.3303H172.86V2.1063H176.028ZM179.34 6.4983C179.34 6.1503 179.274 5.8203 179.142 5.5083C179.01 5.1963 178.83 4.9203 178.602 4.6803C178.374 4.4523 178.11 4.2723 177.81 4.1403C177.51 3.9963 177.192 3.9243 176.856 3.9243C176.52 3.9243 176.202 3.9963 175.902 4.1403C175.602 4.2723 175.338 4.4523 175.11 4.6803C174.882 4.9203 174.702 5.1963 174.57 5.5083C174.438 5.8203 174.372 6.1503 174.372 6.4983C174.372 6.8463 174.438 7.1763 174.57 7.4883C174.702 7.8003 174.882 8.0763 175.11 8.3163C175.338 8.5443 175.602 8.7303 175.902 8.8743C176.202 9.0063 176.52 9.0723 176.856 9.0723C177.192 9.0723 177.51 9.0063 177.81 8.8743C178.11 8.7303 178.374 8.5443 178.602 8.3163C178.83 8.0763 179.01 7.8003 179.142 7.4883C179.274 7.1763 179.34 6.8463 179.34 6.4983ZM185.226 0.450296H186.612V15.7323H185.226V6.4443H183.462V15.7323H182.076V0.450296H183.462V5.1123H185.226V0.450296ZM201.067 0.450296V8.0643H199.555V0.450296H201.067ZM201.265 15.7323H191.581V11.8623H199.555V10.4043H191.581V9.1983H201.067V13.0683H193.093V14.5263H201.265V15.7323ZM192.211 2.2323H189.025V1.0083H197.071V2.2323H193.759V3.1143C193.759 3.8823 194.089 4.6023 194.749 5.2743C195.481 6.0303 196.393 6.6303 197.485 7.0743L196.765 8.0823C195.541 7.5783 194.533 6.9363 193.741 6.1563C193.453 5.8803 193.207 5.5983 193.003 5.3103C192.799 5.6103 192.553 5.9103 192.265 6.2103C191.341 7.1943 190.387 7.8783 189.403 8.2623L188.521 7.2543C189.433 6.9063 190.309 6.2943 191.149 5.4183C191.857 4.6863 192.211 3.9123 192.211 3.0963V2.2323ZM210.015 2.3943H206.055V7.0743H210.015V2.3943ZM211.509 8.4063H204.561V1.0623H211.509V8.4063ZM215.595 0.450296V4.0503H217.755V5.4003H215.595V9.0183H214.083V0.450296H215.595ZM214.083 15.9303V11.8803H205.929V10.5663H215.595V15.9303H214.083ZM230.068 3.6543C230.068 4.1463 229.96 4.6143 229.744 5.0583C229.528 5.4903 229.24 5.8743 228.88 6.2103C228.736 6.3423 228.58 6.4623 228.412 6.5703H232.786V7.7943H219.214V6.5703H223.588C223.42 6.4623 223.264 6.3423 223.12 6.2103C222.76 5.8743 222.472 5.4903 222.256 5.0583C222.04 4.6143 221.932 4.1463 221.932 3.6543C221.932 3.1623 222.04 2.6943 222.256 2.2503C222.472 1.8063 222.76 1.4163 223.12 1.0803C223.492 0.744296 223.924 0.480296 224.416 0.288296C224.908 0.0962958 225.436 0.000295639 226 0.000295639C226.564 0.000295639 227.092 0.0962958 227.584 0.288296C228.076 0.480296 228.508 0.744296 228.88 1.0803C229.24 1.4163 229.528 1.8063 229.744 2.2503C229.96 2.6943 230.068 3.1623 230.068 3.6543ZM228.556 3.6903C228.556 3.0063 228.304 2.4243 227.8 1.9443C227.308 1.4523 226.708 1.2063 226 1.2063C225.292 1.2063 224.686 1.4523 224.182 1.9443C223.69 2.4243 223.444 3.0063 223.444 3.6903C223.444 4.3743 223.69 4.9623 224.182 5.4543C224.686 5.9343 225.292 6.1743 226 6.1743C226.708 6.1743 227.308 5.9343 227.8 5.4543C228.304 4.9623 228.556 4.3743 228.556 3.6903ZM231.238 15.7323H220.942V11.8443H229.546V10.3503H220.942V9.1623H231.058V13.0503H222.454V14.5443H231.238V15.7323ZM243.297 1.1883V0.126296H245.061V1.1883H248.553V2.2323H246.591L246.609 2.2503C246.933 2.5023 247.179 2.8023 247.347 3.1503C247.515 3.4863 247.599 3.8343 247.599 4.1943C247.599 4.5543 247.515 4.9023 247.347 5.2383C247.179 5.5743 246.933 5.8683 246.609 6.1203C246.297 6.3603 245.937 6.5523 245.529 6.6963C245.313 6.7683 245.085 6.8223 244.845 6.8583V7.7763H245.259C247.095 7.7763 248.697 7.7223 250.065 7.6143V0.450296H251.577V4.3923H253.737V5.6163H251.577V9.2163H250.065V8.7483C248.685 8.8683 247.095 8.9283 245.295 8.9283H239.211V7.7763H243.351V6.8403C243.171 6.8043 243.003 6.7563 242.847 6.6963C242.427 6.5523 242.061 6.3603 241.749 6.1203C241.425 5.8683 241.179 5.5743 241.011 5.2383C240.843 4.9023 240.759 4.5543 240.759 4.1943C240.759 3.8343 240.843 3.4863 241.011 3.1503C241.179 2.8023 241.425 2.5023 241.749 2.2503L241.767 2.2323H239.643V1.1883H243.297ZM246.141 4.1583C246.141 3.7023 245.949 3.3003 245.565 2.9523C245.181 2.5923 244.719 2.4123 244.179 2.4123C243.639 2.4123 243.177 2.5923 242.793 2.9523C242.409 3.3003 242.217 3.7023 242.217 4.1583C242.217 4.6143 242.409 5.0223 242.793 5.3823C243.177 5.7303 243.639 5.9043 244.179 5.9043C244.719 5.9043 245.181 5.7303 245.565 5.3823C245.949 5.0223 246.141 4.6143 246.141 4.1583ZM251.829 15.7323H241.695V12.4023H250.065V11.2683H241.695V10.1703H251.577V13.5003H243.207V14.6343H251.829V15.7323ZM265.636 3.7623C265.636 4.2543 265.528 4.7223 265.312 5.1663C265.108 5.6103 264.826 5.9943 264.466 6.3183C264.106 6.6543 263.686 6.9183 263.206 7.1103C262.726 7.3023 262.21 7.3983 261.658 7.3983C261.106 7.3983 260.59 7.3023 260.11 7.1103C259.63 6.9183 259.21 6.6543 258.85 6.3183C258.49 5.9943 258.202 5.6103 257.986 5.1663C257.782 4.7223 257.68 4.2543 257.68 3.7623C257.68 3.2703 257.782 2.8023 257.986 2.3583C258.202 1.9143 258.49 1.5303 258.85 1.2063C259.21 0.870296 259.63 0.606296 260.11 0.414296C260.59 0.222296 261.106 0.126296 261.658 0.126296C262.21 0.126296 262.726 0.222296 263.206 0.414296C263.686 0.606296 264.106 0.870296 264.466 1.2063C264.826 1.5303 265.108 1.9143 265.312 2.3583C265.528 2.8023 265.636 3.2703 265.636 3.7623ZM264.124 3.7623C264.124 3.1143 263.878 2.5563 263.386 2.0883C262.906 1.6203 262.33 1.3863 261.658 1.3863C260.986 1.3863 260.404 1.6203 259.912 2.0883C259.432 2.5563 259.192 3.1143 259.192 3.7623C259.192 4.4103 259.432 4.9683 259.912 5.4363C260.404 5.9043 260.986 6.1383 261.658 6.1383C262.33 6.1383 262.906 5.9043 263.386 5.4363C263.878 4.9683 264.124 4.4103 264.124 3.7623ZM265.492 7.0203V8.9643H268.444V10.2243H264.124C264.232 10.3083 264.34 10.3983 264.448 10.4943C264.796 10.8063 265.072 11.1843 265.276 11.6283C265.492 12.0723 265.6 12.5283 265.6 12.9963C265.6 13.4643 265.492 13.9203 265.276 14.3643C265.072 14.8083 264.796 15.1863 264.448 15.4983C264.1 15.8223 263.68 16.0743 263.188 16.2543C262.708 16.4463 262.192 16.5423 261.64 16.5423C261.088 16.5423 260.566 16.4463 260.074 16.2543C259.594 16.0743 259.18 15.8223 258.832 15.4983C258.484 15.1863 258.202 14.8083 257.986 14.3643C257.782 13.9203 257.68 13.4643 257.68 12.9963C257.68 12.5283 257.782 12.0723 257.986 11.6283C258.202 11.1843 258.484 10.8063 258.832 10.4943C258.94 10.3983 259.048 10.3083 259.156 10.2243H254.872V8.9643H257.824V7.0203H259.318V8.9643H263.998V7.0203H265.492ZM264.088 12.9603C264.088 12.3243 263.848 11.7723 263.368 11.3043C262.888 10.8363 262.312 10.6023 261.64 10.6023C260.968 10.6023 260.392 10.8363 259.912 11.3043C259.432 11.7723 259.192 12.3243 259.192 12.9603C259.192 13.5963 259.432 14.1483 259.912 14.6163C260.392 15.0843 260.968 15.3183 261.64 15.3183C262.312 15.3183 262.888 15.0843 263.368 14.6163C263.848 14.1483 264.088 13.5963 264.088 12.9603ZM273.036 2.1063V0.450296H274.656V2.1063H277.77V3.3303H275.97C276.186 3.4743 276.384 3.6363 276.564 3.8163C276.912 4.1643 277.188 4.5723 277.392 5.0403C277.596 5.5083 277.698 6.0063 277.698 6.5343C277.698 7.0623 277.596 7.5603 277.392 8.0283C277.188 8.4963 276.912 8.9043 276.564 9.2523C276.216 9.6003 275.808 9.8763 275.34 10.0803C274.872 10.2843 274.374 10.3863 273.846 10.3863C273.318 10.3863 272.82 10.2843 272.352 10.0803C271.884 9.8763 271.476 9.6003 271.128 9.2523C270.78 8.9043 270.504 8.4963 270.3 8.0283C270.096 7.5603 269.994 7.0623 269.994 6.5343C269.994 6.0063 270.096 5.5083 270.3 5.0403C270.504 4.5723 270.78 4.1643 271.128 3.8163C271.308 3.6363 271.506 3.4743 271.722 3.3303H269.868V2.1063H273.036ZM276.348 6.4983C276.348 6.1503 276.282 5.8203 276.15 5.5083C276.018 5.1963 275.838 4.9203 275.61 4.6803C275.382 4.4523 275.118 4.2723 274.818 4.1403C274.518 3.9963 274.2 3.9243 273.864 3.9243C273.528 3.9243 273.21 3.9963 272.91 4.1403C272.61 4.2723 272.346 4.4523 272.118 4.6803C271.89 4.9203 271.71 5.1963 271.578 5.5083C271.446 5.8203 271.38 6.1503 271.38 6.4983C271.38 6.8463 271.446 7.1763 271.578 7.4883C271.71 7.8003 271.89 8.0763 272.118 8.3163C272.346 8.5443 272.61 8.7303 272.91 8.8743C273.21 9.0063 273.528 9.0723 273.864 9.0723C274.2 9.0723 274.518 9.0063 274.818 8.8743C275.118 8.7303 275.382 8.5443 275.61 8.3163C275.838 8.0763 276.018 7.8003 276.15 7.4883C276.282 7.1763 276.348 6.8463 276.348 6.4983ZM282.234 0.450296H283.62V15.7323H282.234V6.4443H280.47V15.7323H279.084V0.450296H280.47V5.1123H282.234V0.450296ZM300.863 1.9443H293.771V4.1943H300.863V1.9443ZM292.259 0.738296H302.375V5.4003H292.259V0.738296ZM290.531 6.8583H304.103V8.1003H298.091V9.5763H302.375V13.2663H293.771V14.5083H302.555V15.7323H292.259V12.0423H300.863V10.8003H292.259V9.5763H296.543V8.1003H290.531V6.8583ZM316.722 3.6543C316.722 4.1463 316.614 4.6143 316.398 5.0583C316.182 5.4903 315.894 5.8743 315.534 6.2103C315.39 6.3423 315.234 6.4623 315.066 6.5703H319.44V7.7943H305.868V6.5703H310.242C310.074 6.4623 309.918 6.3423 309.774 6.2103C309.414 5.8743 309.126 5.4903 308.91 5.0583C308.694 4.6143 308.586 4.1463 308.586 3.6543C308.586 3.1623 308.694 2.6943 308.91 2.2503C309.126 1.8063 309.414 1.4163 309.774 1.0803C310.146 0.744296 310.578 0.480296 311.07 0.288296C311.562 0.0962958 312.09 0.000295639 312.654 0.000295639C313.218 0.000295639 313.746 0.0962958 314.238 0.288296C314.73 0.480296 315.162 0.744296 315.534 1.0803C315.894 1.4163 316.182 1.8063 316.398 2.2503C316.614 2.6943 316.722 3.1623 316.722 3.6543ZM315.21 3.6903C315.21 3.0063 314.958 2.4243 314.454 1.9443C313.962 1.4523 313.362 1.2063 312.654 1.2063C311.946 1.2063 311.34 1.4523 310.836 1.9443C310.344 2.4243 310.098 3.0063 310.098 3.6903C310.098 4.3743 310.344 4.9623 310.836 5.4543C311.34 5.9343 311.946 6.1743 312.654 6.1743C313.362 6.1743 313.962 5.9343 314.454 5.4543C314.958 4.9623 315.21 4.3743 315.21 3.6903ZM317.892 15.7323H307.596V11.8443H316.2V10.3503H307.596V9.1623H317.712V13.0503H309.108V14.5443H317.892V15.7323ZM338.717 0.450296V11.5203H337.205V5.8683H334.379V4.5363H337.205V0.450296H338.717ZM339.185 15.7323H329.411V11.1783H330.959V14.4003H339.185V15.7323ZM329.861 3.5643V2.4123H326.693V1.0623H334.739V2.4123H331.409V3.6543C331.409 4.7223 331.769 5.6583 332.489 6.4623C333.341 7.4223 334.259 8.1303 335.243 8.5863L334.433 9.6123C333.173 8.9763 332.099 8.1663 331.211 7.1823C330.995 6.9423 330.809 6.6963 330.653 6.4443C330.485 6.7443 330.287 7.0323 330.059 7.3083C329.219 8.3643 328.223 9.2043 327.071 9.8283L326.117 8.8563C327.173 8.2923 328.115 7.4943 328.943 6.4623C329.555 5.6943 329.861 4.7283 329.861 3.5643ZM352.542 0.450296H354.054V15.7323H352.542V0.450296ZM349.392 1.1523C349.392 3.6843 348.72 5.9343 347.376 7.9023C346.2 9.6783 344.67 11.1663 342.786 12.3663L341.76 11.3043C343.536 10.2363 344.964 8.8863 346.044 7.2543C347.076 5.7663 347.628 4.1763 347.7 2.4843H342.48V1.1523H349.392ZM373.691 7.1103H363.575V0.576296H365.087V2.2503H372.179V0.576296H373.691V7.1103ZM372.179 5.8143V3.5283H365.087V5.8143H372.179ZM375.419 8.8563V10.1523H369.605V12.4743H368.039V10.1523H361.847V8.8563H375.419ZM373.907 15.7323H363.575V11.8803H365.141V14.4183H373.907V15.7323ZM380.01 2.1063V0.450296H381.63V2.1063H384.744V3.3303H382.944C383.16 3.4743 383.358 3.6363 383.538 3.8163C383.886 4.1643 384.162 4.5723 384.366 5.0403C384.57 5.5083 384.672 6.0063 384.672 6.5343C384.672 7.0623 384.57 7.5603 384.366 8.0283C384.162 8.4963 383.886 8.9043 383.538 9.2523C383.19 9.6003 382.782 9.8763 382.314 10.0803C381.846 10.2843 381.348 10.3863 380.82 10.3863C380.292 10.3863 379.794 10.2843 379.326 10.0803C378.858 9.8763 378.45 9.6003 378.102 9.2523C377.754 8.9043 377.478 8.4963 377.274 8.0283C377.07 7.5603 376.968 7.0623 376.968 6.5343C376.968 6.0063 377.07 5.5083 377.274 5.0403C377.478 4.5723 377.754 4.1643 378.102 3.8163C378.282 3.6363 378.48 3.4743 378.696 3.3303H376.842V2.1063H380.01ZM383.322 6.4983C383.322 6.1503 383.256 5.8203 383.124 5.5083C382.992 5.1963 382.812 4.9203 382.584 4.6803C382.356 4.4523 382.092 4.2723 381.792 4.1403C381.492 3.9963 381.174 3.9243 380.838 3.9243C380.502 3.9243 380.184 3.9963 379.884 4.1403C379.584 4.2723 379.32 4.4523 379.092 4.6803C378.864 4.9203 378.684 5.1963 378.552 5.5083C378.42 5.8203 378.354 6.1503 378.354 6.4983C378.354 6.8463 378.42 7.1763 378.552 7.4883C378.684 7.8003 378.864 8.0763 379.092 8.3163C379.32 8.5443 379.584 8.7303 379.884 8.8743C380.184 9.0063 380.502 9.0723 380.838 9.0723C381.174 9.0723 381.492 9.0063 381.792 8.8743C382.092 8.7303 382.356 8.5443 382.584 8.3163C382.812 8.0763 382.992 7.8003 383.124 7.4883C383.256 7.1763 383.322 6.8463 383.322 6.4983ZM389.208 0.450296H390.594V15.7323H389.208V6.4443H387.444V15.7323H386.058V0.450296H387.444V5.1123H389.208V0.450296ZM396.284 2.0883V0.450296H397.94V2.0883H401.72V3.3123H399.362C399.626 3.4803 399.86 3.6663 400.064 3.8703C400.448 4.2543 400.748 4.6983 400.964 5.2023C401.192 5.7063 401.306 6.2463 401.306 6.8223C401.306 7.3983 401.192 7.9383 400.964 8.4423C400.748 8.9463 400.448 9.3903 400.064 9.7743C399.692 10.1463 399.248 10.4463 398.732 10.6743C398.228 10.8903 397.688 10.9983 397.112 10.9983C396.536 10.9983 395.99 10.8903 395.474 10.6743C394.97 10.4463 394.532 10.1463 394.16 9.7743C393.776 9.3903 393.47 8.9463 393.242 8.4423C393.026 7.9383 392.918 7.3983 392.918 6.8223C392.918 6.2463 393.026 5.7063 393.242 5.2023C393.47 4.6983 393.776 4.2543 394.16 3.8703C394.364 3.6663 394.598 3.4803 394.862 3.3123H392.486V2.0883H396.284ZM399.848 6.7683C399.848 6.3723 399.776 6.0003 399.632 5.6523C399.488 5.2923 399.29 4.9803 399.038 4.7163C398.786 4.4523 398.492 4.2423 398.156 4.0863C397.832 3.9303 397.484 3.8523 397.112 3.8523C396.74 3.8523 396.386 3.9303 396.05 4.0863C395.726 4.2423 395.438 4.4523 395.186 4.7163C394.934 4.9803 394.736 5.2923 394.592 5.6523C394.448 6.0003 394.376 6.3723 394.376 6.7683C394.376 7.1643 394.448 7.5423 394.592 7.9023C394.736 8.2503 394.934 8.5563 395.186 8.8203C395.438 9.0843 395.726 9.2943 396.05 9.4503C396.386 9.6063 396.74 9.6843 397.112 9.6843C397.484 9.6843 397.832 9.6063 398.156 9.4503C398.492 9.2943 398.786 9.0843 399.038 8.8203C399.29 8.5563 399.488 8.2503 399.632 7.9023C399.776 7.5423 399.848 7.1643 399.848 6.7683ZM404.708 0.450296V5.0583H406.67V6.4983H404.708V15.7323H403.232V0.450296H404.708ZM416.517 5.5983C416.517 6.1743 416.403 6.7143 416.175 7.2183L416.139 7.2903H419.001V3.9243H416.139L416.175 3.9603C416.403 4.4763 416.517 5.0223 416.517 5.5983ZM415.203 8.5863C414.795 8.9703 414.333 9.2703 413.817 9.4863C413.277 9.7143 412.701 9.8283 412.089 9.8283C411.477 9.8283 410.901 9.7203 410.361 9.5043C409.833 9.2763 409.365 8.9643 408.957 8.5683C408.561 8.1843 408.243 7.7403 408.003 7.2363C407.775 6.7203 407.661 6.1743 407.661 5.5983C407.661 5.0223 407.775 4.4823 408.003 3.9783C408.243 3.4623 408.561 3.0123 408.957 2.6283C409.365 2.2323 409.833 1.9263 410.361 1.7103C410.901 1.4823 411.477 1.3683 412.089 1.3683C412.701 1.3683 413.277 1.4763 413.817 1.6923C414.345 1.9203 414.813 2.2323 415.221 2.6283H419.001V0.450296H420.513V15.7323H419.001V8.5863H415.203ZM415.005 5.5983C415.005 5.1903 414.927 4.8123 414.771 4.4643C414.615 4.1163 414.405 3.8103 414.141 3.5463C413.877 3.2823 413.571 3.0723 413.223 2.9163C412.875 2.7603 412.497 2.6823 412.089 2.6823C411.681 2.6823 411.303 2.7603 410.955 2.9163C410.607 3.0723 410.301 3.2823 410.037 3.5463C409.773 3.8103 409.563 4.1163 409.407 4.4643C409.251 4.8123 409.173 5.1903 409.173 5.5983C409.173 6.0063 409.251 6.3843 409.407 6.7323C409.563 7.0803 409.773 7.3863 410.037 7.6503C410.301 7.9143 410.607 8.1243 410.955 8.2803C411.303 8.4363 411.681 8.5143 412.089 8.5143C412.497 8.5143 412.875 8.4363 413.223 8.2803C413.571 8.1243 413.877 7.9143 414.141 7.6503C414.405 7.3863 414.615 7.0803 414.771 6.7323C414.927 6.3843 415.005 6.0063 415.005 5.5983ZM11.826 32.2783V35.7703C11.826 37.8823 11.616 39.8383 11.196 41.6383H9.73799C10.122 39.8743 10.314 38.0503 10.314 36.1663V33.6103H1.52999V32.2783H11.826ZM13.572 43.6543V44.9863H-1.16453e-05V43.6543H4.64399V37.6783H6.15599V43.6543H13.572ZM28.9093 39.4603V40.7923H23.0773V43.3663H21.5293V40.7923H15.3373V39.4603H28.9093ZM27.3973 46.7323H17.0653V42.7543H18.6133V45.3823H27.3973V46.7323ZM22.8973 32.4583C22.8973 33.5143 23.4613 34.4743 24.5893 35.3383C25.6213 36.0943 26.8333 36.6043 28.2253 36.8683L27.5773 38.0023C26.1373 37.7863 24.7573 37.1863 23.4373 36.2023C22.8853 35.8063 22.4473 35.3623 22.1233 34.8703C21.7873 35.3623 21.3433 35.8063 20.7913 36.2023C19.4833 37.1863 18.1093 37.7863 16.6693 38.0023L16.0213 36.8683C17.4133 36.6043 18.6253 36.0943 19.6573 35.3383C20.7853 34.4743 21.3493 33.5143 21.3493 32.4583V31.4323H22.8973V32.4583ZM32.4025 32.2603H42.4465V33.6283H33.9145V38.6503H42.5725V40.0183H38.2165V43.7623H44.2465V45.0943H30.6745V43.7623H36.7045V40.0183H32.4025V32.2603ZM58.5375 41.8723V47.0203H57.0255V41.8723H50.9955V40.5403H64.5675V41.8723H58.5375ZM58.5555 32.8903C58.5555 33.9583 59.0535 34.9003 60.0495 35.7163C61.0935 36.5803 62.3115 37.2463 63.7035 37.7143L62.9115 38.7763C61.3995 38.3083 60.0915 37.5943 58.9875 36.6343C58.4955 36.2143 58.0935 35.7583 57.7815 35.2663C57.4695 35.7583 57.0675 36.2143 56.5755 36.6343C55.4715 37.5943 54.1635 38.3083 52.6515 38.7763L51.8595 37.7143C53.2515 37.2463 54.4695 36.5803 55.5135 35.7163C56.5095 34.9003 57.0075 33.9583 57.0075 32.8903V31.5043H58.5555V32.8903ZM79.9048 43.7623V45.0943H66.3328V43.7623H72.3628V39.9823H73.8748V43.7623H79.9048ZM73.8928 33.4663C73.8928 34.8103 74.4208 35.9683 75.4768 36.9403C76.6168 37.9843 77.8708 38.7103 79.2388 39.1183L78.4108 40.1983C76.6828 39.6223 75.2368 38.7163 74.0728 37.4803C73.6888 37.0843 73.3708 36.6643 73.1188 36.2203C72.8668 36.6643 72.5488 37.0843 72.1648 37.4803C71.0008 38.7163 69.5548 39.6223 67.8268 40.1983L66.9988 39.1183C68.3548 38.7103 69.6028 37.9843 70.7428 36.9403C71.8108 35.9683 72.3448 34.8103 72.3448 33.4663V31.9183H73.8928V33.4663ZM93.5861 37.4443H83.3981V34.0063H92.0021V32.8183H83.3981V31.6843H93.5141V35.1043H84.9101V36.3103H93.5861V37.4443ZM81.6701 38.6323H95.2421V39.8203H81.6701V38.6323ZM93.6941 46.7323H83.3981V43.2943H92.0021V42.1423H83.3981V41.0083H93.5141V44.4283H84.9101V45.5983H93.6941V46.7323ZM113.511 36.5263H111.387V40.2883C111.675 40.3363 111.951 40.4143 112.215 40.5223C112.695 40.7143 113.115 40.9783 113.475 41.3143C113.835 41.6503 114.117 42.0403 114.321 42.4843C114.537 42.9163 114.645 43.3843 114.645 43.8883C114.645 44.3923 114.537 44.8663 114.321 45.3103C114.117 45.7423 113.835 46.1263 113.475 46.4623C113.115 46.7983 112.689 47.0623 112.197 47.2543C111.717 47.4463 111.201 47.5423 110.649 47.5423C110.097 47.5423 109.575 47.4463 109.083 47.2543C108.603 47.0623 108.183 46.7983 107.823 46.4623C107.463 46.1263 107.175 45.7423 106.959 45.3103C106.755 44.8663 106.653 44.3923 106.653 43.8883C106.653 43.3843 106.755 42.9163 106.959 42.4843C107.175 42.0403 107.463 41.6503 107.823 41.3143C108.183 40.9783 108.609 40.7143 109.101 40.5223C109.365 40.4143 109.641 40.3363 109.929 40.2883V31.4503H111.387V35.2123H113.511V31.4503H114.987V40.4143H113.511V36.5263ZM113.133 43.8883C113.133 43.5643 113.067 43.2583 112.935 42.9703C112.803 42.6823 112.623 42.4303 112.395 42.2143C112.167 41.9983 111.903 41.8303 111.603 41.7103C111.303 41.5783 110.985 41.5123 110.649 41.5123C110.313 41.5123 109.995 41.5783 109.695 41.7103C109.395 41.8303 109.131 41.9983 108.903 42.2143C108.675 42.4303 108.495 42.6823 108.363 42.9703C108.231 43.2583 108.165 43.5643 108.165 43.8883C108.165 44.2123 108.231 44.5183 108.363 44.8063C108.495 45.0943 108.675 45.3463 108.903 45.5623C109.131 45.7783 109.395 45.9463 109.695 46.0663C109.995 46.1983 110.313 46.2643 110.649 46.2643C110.985 46.2643 111.303 46.1983 111.603 46.0663C111.903 45.9463 112.167 45.7783 112.395 45.5623C112.623 45.3463 112.803 45.0943 112.935 44.8063C113.067 44.5183 113.133 44.2123 113.133 43.8883ZM106.113 33.5383C106.113 34.8823 106.389 35.9983 106.941 36.8863C107.529 37.7623 108.183 38.5003 108.903 39.1003L107.949 40.0003C107.157 39.3403 106.437 38.5423 105.789 37.6063C105.645 37.3903 105.513 37.1563 105.393 36.9043C105.261 37.1683 105.117 37.4143 104.961 37.6423C104.169 38.8303 103.359 39.7303 102.531 40.3423L101.505 39.4063C102.333 38.8063 103.089 37.9543 103.773 36.8503C104.361 35.9263 104.655 34.8163 104.655 33.5203V31.8463H106.113V33.5383ZM129.046 31.4503V35.5903H131.206V36.9583H129.046V42.5203H127.534V31.4503H129.046ZM129.496 46.7323H119.74V42.0883H121.288V45.3823H129.496V46.7323ZM122.26 33.2863C122.26 34.8103 122.608 36.0583 123.304 37.0303C124.096 38.1223 125.002 38.9923 126.022 39.6403L125.122 40.6483C124.078 40.0003 123.07 39.0463 122.098 37.7863C121.858 37.4743 121.648 37.1443 121.468 36.7963C121.288 37.1683 121.078 37.5283 120.838 37.8763C119.914 39.1963 118.918 40.1983 117.85 40.8823L116.842 39.8923C117.898 39.2563 118.834 38.3383 119.65 37.1383C120.358 36.1063 120.712 34.8223 120.712 33.2863V31.8463H122.26V33.2863ZM136.428 33.0883V31.4503H138.084V33.0883H141.864V34.3123H139.506C139.77 34.4803 140.004 34.6663 140.208 34.8703C140.592 35.2543 140.892 35.6983 141.108 36.2023C141.336 36.7063 141.45 37.2463 141.45 37.8223C141.45 38.3983 141.336 38.9383 141.108 39.4423C140.892 39.9463 140.592 40.3903 140.208 40.7743C139.836 41.1463 139.392 41.4463 138.876 41.6743C138.372 41.8903 137.832 41.9983 137.256 41.9983C136.68 41.9983 136.134 41.8903 135.618 41.6743C135.114 41.4463 134.676 41.1463 134.304 40.7743C133.92 40.3903 133.614 39.9463 133.386 39.4423C133.17 38.9383 133.062 38.3983 133.062 37.8223C133.062 37.2463 133.17 36.7063 133.386 36.2023C133.614 35.6983 133.92 35.2543 134.304 34.8703C134.508 34.6663 134.742 34.4803 135.006 34.3123H132.63V33.0883H136.428ZM139.992 37.7683C139.992 37.3723 139.92 37.0003 139.776 36.6523C139.632 36.2923 139.434 35.9803 139.182 35.7163C138.93 35.4523 138.636 35.2423 138.3 35.0863C137.976 34.9303 137.628 34.8523 137.256 34.8523C136.884 34.8523 136.53 34.9303 136.194 35.0863C135.87 35.2423 135.582 35.4523 135.33 35.7163C135.078 35.9803 134.88 36.2923 134.736 36.6523C134.592 37.0003 134.52 37.3723 134.52 37.7683C134.52 38.1643 134.592 38.5423 134.736 38.9023C134.88 39.2503 135.078 39.5563 135.33 39.8203C135.582 40.0843 135.87 40.2943 136.194 40.4503C136.53 40.6063 136.884 40.6843 137.256 40.6843C137.628 40.6843 137.976 40.6063 138.3 40.4503C138.636 40.2943 138.93 40.0843 139.182 39.8203C139.434 39.5563 139.632 39.2503 139.776 38.9023C139.92 38.5423 139.992 38.1643 139.992 37.7683ZM144.852 31.4503V36.0583H146.814V37.4983H144.852V46.7323H143.376V31.4503H144.852ZM149.731 31.6663H151.243V36.0043H160.081V37.3543H149.731V31.6663ZM148.003 40.7203V39.3523H161.575V40.7203H148.003ZM160.117 46.7323H149.821V42.5023H151.369V45.3823H160.117V46.7323ZM179.34 31.4503H180.852V46.7323H179.34V31.4503ZM176.19 32.1523C176.19 34.6843 175.518 36.9343 174.174 38.9023C172.998 40.6783 171.468 42.1663 169.584 43.3663L168.558 42.3043C170.334 41.2363 171.762 39.8863 172.842 38.2543C173.874 36.7663 174.426 35.1763 174.498 33.4843H169.278V32.1523H176.19ZM183.661 37.8403H197.233V39.0643H191.221V40.5763H195.505V44.2663H186.901V45.5083H195.685V46.7323H185.389V43.0423H193.993V41.8003H185.389V40.5763H189.673V39.0643H183.661V37.8403ZM191.203 32.2423C191.203 32.9383 191.797 33.7063 192.985 34.5463C193.873 35.1463 195.013 35.5843 196.405 35.8603L195.739 36.9583C194.227 36.6463 192.901 36.1003 191.761 35.3203C191.209 34.9363 190.771 34.5403 190.447 34.1323C190.123 34.5403 189.685 34.9363 189.133 35.3203C187.993 36.1003 186.667 36.6463 185.155 36.9583L184.489 35.8603C185.881 35.5843 187.021 35.1463 187.909 34.5463C189.097 33.7063 189.691 32.9383 189.691 32.2423V31.3783H191.203V32.2423ZM207.134 35.4823C207.134 35.9863 207.026 36.4663 206.81 36.9223C206.606 37.3783 206.324 37.7683 205.964 38.0923C205.592 38.4403 205.16 38.7163 204.668 38.9203C204.188 39.1123 203.672 39.2083 203.12 39.2083C202.568 39.2083 202.046 39.1123 201.554 38.9203C201.074 38.7163 200.648 38.4403 200.276 38.0923C199.916 37.7683 199.628 37.3783 199.412 36.9223C199.208 36.4663 199.106 35.9863 199.106 35.4823C199.106 34.9783 199.208 34.4983 199.412 34.0423C199.628 33.5863 199.916 33.1963 200.276 32.8723C200.648 32.5243 201.074 32.2543 201.554 32.0623C202.046 31.8583 202.568 31.7563 203.12 31.7563C203.672 31.7563 204.188 31.8583 204.668 32.0623C205.16 32.2543 205.592 32.5243 205.964 32.8723C206.324 33.1963 206.606 33.5863 206.81 34.0423C207.026 34.4983 207.134 34.9783 207.134 35.4823ZM205.622 35.4823C205.622 34.8103 205.376 34.2343 204.884 33.7543C204.392 33.2743 203.804 33.0343 203.12 33.0343C202.436 33.0343 201.848 33.2743 201.356 33.7543C200.864 34.2343 200.618 34.8103 200.618 35.4823C200.618 36.1543 200.864 36.7303 201.356 37.2103C201.848 37.6903 202.436 37.9303 203.12 37.9303C203.804 37.9303 204.392 37.6903 204.884 37.2103C205.376 36.7303 205.622 36.1543 205.622 35.4823ZM211.526 31.4503V39.5143H210.014V31.4503H211.526ZM211.526 46.7323H202.04V40.5583H203.534V41.9623H210.032V40.5583H211.526V46.7323ZM210.032 45.5083V43.1683H203.534V45.5083H210.032ZM215.614 42.4663V32.0623H217.126V41.0983H220.078C222.118 41.0983 223.876 40.9723 225.352 40.7203V31.4503H226.864V46.7323H225.352V42.1063C223.948 42.3463 222.202 42.4663 220.114 42.4663H215.614ZM230.627 42.7363V32.1343H237.179V33.5023H232.139V41.3683H234.191C236.135 41.3683 237.995 41.1943 239.771 40.8463V31.4503H241.283V36.5623H243.659V37.9663H241.283V46.7323H239.771V42.2143C238.091 42.5623 236.273 42.7363 234.317 42.7363H230.627ZM245.766 45.2563V43.1323H247.962V45.2563H245.766ZM258.948 32.7643V31.1983H260.676V32.7643H264.222V34.0423H262.008C262.212 34.1743 262.398 34.3183 262.566 34.4743C262.914 34.7983 263.19 35.1883 263.394 35.6443C263.61 36.1003 263.718 36.5743 263.718 37.0663C263.718 37.5583 263.61 38.0263 263.394 38.4703C263.19 38.9143 262.914 39.2983 262.566 39.6223C262.206 39.9583 261.792 40.2223 261.324 40.4143C260.856 40.6063 260.352 40.7023 259.812 40.7023C259.272 40.7023 258.768 40.6063 258.3 40.4143C257.832 40.2223 257.418 39.9583 257.058 39.6223C256.71 39.2983 256.428 38.9143 256.212 38.4703C256.008 38.0263 255.906 37.5583 255.906 37.0663C255.906 36.5743 256.008 36.1003 256.212 35.6443C256.428 35.1883 256.71 34.7983 257.058 34.4743C257.226 34.3183 257.412 34.1743 257.616 34.0423H255.402V32.7643H258.948ZM262.224 36.9763C262.224 36.3283 261.984 35.7643 261.504 35.2843C261.036 34.7923 260.472 34.5463 259.812 34.5463C259.152 34.5463 258.582 34.7923 258.102 35.2843C257.634 35.7643 257.4 36.3283 257.4 36.9763C257.4 37.6243 257.634 38.1883 258.102 38.6683C258.582 39.1363 259.152 39.3703 259.812 39.3703C260.472 39.3703 261.036 39.1363 261.504 38.6683C261.984 38.1883 262.224 37.6243 262.224 36.9763ZM266.31 35.8963H264.312V34.4923H266.31V31.4503H267.822V42.7003H266.31V39.6223H264.312V38.2183H266.31V35.8963ZM268.362 46.7323H258.336V42.2683H259.956V45.3823H268.362V46.7323ZM271.585 42.7363V32.1343H276.571V33.5023H273.079V41.3683H274.483C276.103 41.3683 277.465 41.2603 278.569 41.0443V31.4503H280.009V36.7063H282.151V31.4503H283.627V46.7323H282.151V38.0383H280.009V46.7323H278.569V42.4123C277.585 42.6283 276.271 42.7363 274.627 42.7363H271.585ZM297.579 31.4503V36.5623H299.955V37.9663H297.579V46.7323H296.067V31.4503H297.579ZM289.533 35.0863V33.4843H286.221V32.1343H294.285V33.4843H291.081V35.0503C291.069 36.5503 291.423 37.8703 292.143 39.0103C292.827 40.1023 293.733 41.1283 294.861 42.0883L293.943 43.0243C292.767 42.0523 291.705 40.8403 290.757 39.3883C290.601 39.1483 290.457 38.9083 290.325 38.6683C290.169 39.0283 289.977 39.3763 289.749 39.7123C288.765 41.2123 287.679 42.3703 286.491 43.1863L285.483 42.2143C286.611 41.4583 287.601 40.4083 288.453 39.0643C289.173 37.9123 289.533 36.5863 289.533 35.0863ZM303.034 31.8463H313.078V33.1423H304.546V36.2563H313.204V37.5523H308.848V39.6403H314.878V40.9183H310.504C310.66 41.0263 310.804 41.1403 310.936 41.2603C311.296 41.5843 311.584 41.9743 311.8 42.4303C312.016 42.8743 312.124 43.3483 312.124 43.8523C312.124 44.3563 312.016 44.8363 311.8 45.2923C311.584 45.7363 311.296 46.1203 310.936 46.4443C310.576 46.7803 310.15 47.0443 309.658 47.2363C309.166 47.4403 308.644 47.5423 308.092 47.5423C307.54 47.5423 307.018 47.4403 306.526 47.2363C306.034 47.0443 305.608 46.7803 305.248 46.4443C304.888 46.1203 304.6 45.7363 304.384 45.2923C304.168 44.8363 304.06 44.3563 304.06 43.8523C304.06 43.3483 304.168 42.8743 304.384 42.4303C304.6 41.9743 304.888 41.5843 305.248 41.2603C305.38 41.1403 305.524 41.0263 305.68 40.9183H301.306V39.6403H307.336V37.5523H303.034V31.8463ZM310.612 43.7983C310.612 43.1143 310.366 42.5323 309.874 42.0523C309.382 41.5603 308.788 41.3143 308.092 41.3143C307.396 41.3143 306.802 41.5603 306.31 42.0523C305.818 42.5323 305.572 43.1143 305.572 43.7983C305.572 44.4823 305.818 45.0703 306.31 45.5623C306.802 46.0423 307.396 46.2823 308.092 46.2823C308.788 46.2823 309.382 46.0423 309.874 45.5623C310.366 45.0703 310.612 44.4823 310.612 43.7983ZM328.253 31.4503V36.9223H330.629V38.3263H328.253V46.7323H326.741V31.4503H328.253ZM320.081 35.2663V34.3843H316.553V33.0163H320.081V31.1803H321.629V33.0163H324.941V34.3843H321.629V35.2663C321.641 36.5983 321.959 37.8523 322.583 39.0283C323.183 40.1563 324.101 41.2363 325.337 42.2683L324.383 43.2403C323.135 42.1843 322.115 40.9843 321.323 39.6403C321.155 39.3523 320.999 39.0583 320.855 38.7583C320.723 39.0583 320.567 39.3583 320.387 39.6583C319.523 41.0983 318.467 42.3163 317.219 43.3123L316.157 42.3763C317.357 41.4283 318.341 40.3063 319.109 39.0103C319.745 37.9183 320.069 36.6703 320.081 35.2663ZM343.572 32.2783V36.6883C343.572 39.0163 343.362 41.2123 342.942 43.2763H345.552V44.6083H331.98V43.2763H341.502C341.874 41.3083 342.06 39.2563 342.06 37.1203V33.6103H333.492V32.2783H343.572ZM359.252 38.0923H349.046V34.3483H357.65V32.9443H349.046V31.7563H359.162V35.5003H350.558V36.9223H359.252V38.0923ZM360.89 40.5403H354.932V41.8003H353.276V40.5403H347.318V39.3343H360.89V40.5403ZM359.162 46.7323H349.046V41.6743H350.558V42.8443H357.65V41.6743H359.162V46.7323ZM357.65 45.5803V43.9783H350.558V45.5803H357.65ZM373.959 35.3923C373.959 35.9683 373.839 36.5083 373.599 37.0123C373.359 37.5163 373.029 37.9543 372.609 38.3263C372.369 38.5663 372.099 38.7703 371.799 38.9383H376.227V40.2703H362.655V38.9383H367.083C366.783 38.7703 366.507 38.5663 366.255 38.3263C365.847 37.9543 365.523 37.5163 365.283 37.0123C365.043 36.5083 364.923 35.9683 364.923 35.3923C364.923 34.8163 365.043 34.2763 365.283 33.7723C365.523 33.2683 365.847 32.8303 366.255 32.4583C366.663 32.0743 367.137 31.7743 367.677 31.5583C368.229 31.3303 368.817 31.2163 369.441 31.2163C370.053 31.2163 370.635 31.3303 371.187 31.5583C371.739 31.7743 372.213 32.0743 372.609 32.4583C373.029 32.8303 373.359 33.2683 373.599 33.7723C373.839 34.2763 373.959 34.8163 373.959 35.3923ZM372.447 35.4823C372.447 35.0863 372.363 34.7143 372.195 34.3663C372.039 34.0063 371.829 33.6943 371.565 33.4303C371.289 33.1663 370.971 32.9563 370.611 32.8003C370.251 32.6443 369.861 32.5663 369.441 32.5663C369.021 32.5663 368.631 32.6443 368.271 32.8003C367.911 32.9563 367.593 33.1663 367.317 33.4303C367.053 33.6943 366.837 34.0063 366.669 34.3663C366.513 34.7143 366.435 35.0863 366.435 35.4823C366.435 35.8783 366.513 36.2563 366.669 36.6163C366.837 36.9643 367.053 37.2703 367.317 37.5343C367.593 37.7983 367.911 38.0083 368.271 38.1643C368.631 38.3203 369.021 38.3983 369.441 38.3983C369.861 38.3983 370.251 38.3203 370.611 38.1643C370.971 38.0083 371.289 37.7983 371.565 37.5343C371.829 37.2703 372.039 36.9643 372.195 36.6163C372.363 36.2563 372.447 35.8783 372.447 35.4823ZM374.769 46.7323H364.473V42.2503H366.021V45.3643H374.769V46.7323ZM391.544 35.8783C391.544 36.4063 391.436 36.9103 391.22 37.3903H393.992V34.3843H391.238C391.442 34.8643 391.544 35.3623 391.544 35.8783ZM390.356 38.6503C390.344 38.6743 390.326 38.6923 390.302 38.7043C389.906 39.0763 389.456 39.3703 388.952 39.5863C388.448 39.7903 387.902 39.8923 387.314 39.8923C386.726 39.8923 386.18 39.7903 385.676 39.5863C385.172 39.3703 384.722 39.0763 384.326 38.7043C383.942 38.3443 383.636 37.9183 383.408 37.4263C383.192 36.9343 383.084 36.4183 383.084 35.8783C383.084 35.3383 383.192 34.8223 383.408 34.3303C383.636 33.8383 383.942 33.4123 384.326 33.0523C384.722 32.6803 385.172 32.3923 385.676 32.1883C386.18 31.9723 386.726 31.8643 387.314 31.8643C387.902 31.8643 388.448 31.9723 388.952 32.1883C389.456 32.3923 389.906 32.6803 390.302 33.0523L390.374 33.1243H393.992V31.4503H395.504V42.5203H393.992V38.6503H390.356ZM390.032 35.8783C390.032 35.5063 389.96 35.1583 389.816 34.8343C389.672 34.5103 389.474 34.2283 389.222 33.9883C388.982 33.7363 388.694 33.5383 388.358 33.3943C388.022 33.2503 387.674 33.1783 387.314 33.1783C386.954 33.1783 386.606 33.2503 386.27 33.3943C385.934 33.5383 385.646 33.7363 385.406 33.9883C385.154 34.2283 384.956 34.5103 384.812 34.8343C384.668 35.1583 384.596 35.5063 384.596 35.8783C384.596 36.2503 384.668 36.5983 384.812 36.9223C384.956 37.2463 385.154 37.5343 385.406 37.7863C385.646 38.0263 385.934 38.2183 386.27 38.3623C386.606 38.5063 386.954 38.5783 387.314 38.5783C387.674 38.5783 388.022 38.5063 388.358 38.3623C388.694 38.2183 388.982 38.0263 389.222 37.7863C389.474 37.5343 389.672 37.2463 389.816 36.9223C389.96 36.5983 390.032 36.2503 390.032 35.8783ZM395.972 46.7323H386.198V42.0343H387.728V45.3823H395.972V46.7323ZM410.247 40.9543H408.303V43.8163H411.885V45.0943H398.313V43.8163H401.895V40.9543H400.041V35.8963H408.645V33.4663H400.041V32.1343H410.157V37.1923H401.553V39.6403H410.247V40.9543ZM406.827 40.9543H403.371V43.8163H406.827V40.9543ZM426.179 31.4503V42.5203H424.667V36.8683H421.841V35.5363H424.667V31.4503H426.179ZM426.647 46.7323H416.873V42.1783H418.421V45.4003H426.647V46.7323ZM417.323 34.5643V33.4123H414.155V32.0623H422.201V33.4123H418.871V34.6543C418.871 35.7223 419.231 36.6583 419.951 37.4623C420.803 38.4223 421.721 39.1303 422.705 39.5863L421.895 40.6123C420.635 39.9763 419.561 39.1663 418.673 38.1823C418.457 37.9423 418.271 37.6963 418.115 37.4443C417.947 37.7443 417.749 38.0323 417.521 38.3083C416.681 39.3643 415.685 40.2043 414.533 40.8283L413.579 39.8563C414.635 39.2923 415.577 38.4943 416.405 37.4623C417.017 36.6943 417.323 35.7283 417.323 34.5643ZM440.004 31.4503H441.516V46.7323H440.004V31.4503ZM432.822 35.0863V33.4843H429.51V32.1343H437.574V33.4843H434.37V35.0503C434.358 36.5503 434.712 37.8703 435.432 39.0103C436.116 40.1023 437.022 41.1283 438.15 42.0883L437.232 43.0243C436.056 42.0523 434.994 40.8403 434.046 39.3883C433.89 39.1483 433.746 38.9083 433.614 38.6683C433.458 39.0283 433.266 39.3763 433.038 39.7123C432.054 41.2123 430.968 42.3703 429.78 43.1863L428.772 42.2143C429.9 41.4583 430.89 40.4083 431.742 39.0643C432.462 37.9123 432.822 36.5863 432.822 35.0863ZM460.325 31.4503H461.837V46.7323H460.325V31.4503ZM454.403 34.2583C454.403 36.0703 454.757 37.5763 455.465 38.7763C456.137 39.9043 457.109 40.9843 458.381 42.0163L457.391 43.0063C456.119 41.9863 455.009 40.7203 454.061 39.2083C453.905 38.9683 453.767 38.7163 453.647 38.4523C453.515 38.7523 453.365 39.0403 453.197 39.3163C452.189 40.9243 451.055 42.1843 449.795 43.0963L448.805 42.1243C449.993 41.2723 451.043 40.0903 451.955 38.5783C452.555 37.6063 452.855 36.1663 452.855 34.2583V31.9003H454.403V34.2583ZM478.218 43.4563V44.7883H464.646V43.4563H478.218ZM472.206 33.8443C472.206 35.2123 472.734 36.4183 473.79 37.4623C474.882 38.5303 476.094 39.2623 477.426 39.6583L476.616 40.7563C475.056 40.2163 473.676 39.3463 472.476 38.1463C472.056 37.7263 471.708 37.2703 471.432 36.7783C471.156 37.2703 470.808 37.7263 470.388 38.1463C469.176 39.3463 467.796 40.2163 466.248 40.7563L465.438 39.6583C466.746 39.2383 467.958 38.5063 469.074 37.4623C470.13 36.4543 470.658 35.2483 470.658 33.8443V31.9723H472.206V33.8443ZM480.577 39.8383V31.9903H485.977V33.2863H481.963V35.2303H485.545V36.4903H481.963V38.5603H483.673C484.693 38.5603 485.833 38.4823 487.093 38.3263V39.5863C485.929 39.7543 484.837 39.8383 483.817 39.8383H480.577ZM488.425 36.4903H486.607V35.1943H488.425V31.4503H489.883V40.1983H488.425V36.4903ZM491.503 31.4503H492.979V40.1983H491.503V31.4503ZM491.503 42.7003H484.789V45.5083H491.503V42.7003ZM492.979 46.7323H483.313V41.4763H492.979V46.7323ZM511.32 31.4503H512.832V46.7323H511.32V31.4503ZM508.17 32.1523C508.17 34.6843 507.498 36.9343 506.154 38.9023C504.978 40.6783 503.448 42.1663 501.564 43.3663L500.538 42.3043C502.314 41.2363 503.742 39.8863 504.822 38.2543C505.854 36.7663 506.406 35.1763 506.478 33.4843H501.258V32.1523H508.17ZM515.642 37.8403H529.214V39.0643H523.202V40.5763H527.486V44.2663H518.882V45.5083H527.666V46.7323H517.37V43.0423H525.974V41.8003H517.37V40.5763H521.654V39.0643H515.642V37.8403ZM523.184 32.2423C523.184 32.9383 523.778 33.7063 524.966 34.5463C525.854 35.1463 526.994 35.5843 528.386 35.8603L527.72 36.9583C526.208 36.6463 524.882 36.1003 523.742 35.3203C523.19 34.9363 522.752 34.5403 522.428 34.1323C522.104 34.5403 521.666 34.9363 521.114 35.3203C519.974 36.1003 518.648 36.6463 517.136 36.9583L516.47 35.8603C517.862 35.5843 519.002 35.1463 519.89 34.5463C521.078 33.7063 521.672 32.9383 521.672 32.2423V31.3783H523.184V32.2423ZM531.969 40.0903V35.3563H536.775V33.3043H531.969V31.9903H538.233V36.6343H533.427V38.7943H536.505C537.345 38.7943 538.383 38.7343 539.619 38.6143V39.9103C538.515 40.0303 537.477 40.0903 536.505 40.0903H531.969ZM543.507 31.4503V40.6663H541.995V37.6783H539.511V36.4723H541.995V34.6723H539.511V33.3763H541.995V31.4503H543.507ZM541.995 46.9303V43.2583H533.841V41.9803H543.507V46.9303H541.995ZM557.17 34.6543C557.17 35.1463 557.062 35.6143 556.846 36.0583C556.63 36.4903 556.342 36.8743 555.982 37.2103C555.838 37.3423 555.682 37.4623 555.514 37.5703H559.888V38.7943H546.316V37.5703H550.69C550.522 37.4623 550.366 37.3423 550.222 37.2103C549.862 36.8743 549.574 36.4903 549.358 36.0583C549.142 35.6143 549.034 35.1463 549.034 34.6543C549.034 34.1623 549.142 33.6943 549.358 33.2503C549.574 32.8063 549.862 32.4163 550.222 32.0803C550.594 31.7443 551.026 31.4803 551.518 31.2883C552.01 31.0963 552.538 31.0003 553.102 31.0003C553.666 31.0003 554.194 31.0963 554.686 31.2883C555.178 31.4803 555.61 31.7443 555.982 32.0803C556.342 32.4163 556.63 32.8063 556.846 33.2503C557.062 33.6943 557.17 34.1623 557.17 34.6543ZM555.658 34.6903C555.658 34.0063 555.406 33.4243 554.902 32.9443C554.41 32.4523 553.81 32.2063 553.102 32.2063C552.394 32.2063 551.788 32.4523 551.284 32.9443C550.792 33.4243 550.546 34.0063 550.546 34.6903C550.546 35.3743 550.792 35.9623 551.284 36.4543C551.788 36.9343 552.394 37.1743 553.102 37.1743C553.81 37.1743 554.41 36.9343 554.902 36.4543C555.406 35.9623 555.658 35.3743 555.658 34.6903ZM558.34 46.7323H548.044V42.8443H556.648V41.3503H548.044V40.1623H558.16V44.0503H549.556V45.5443H558.34V46.7323ZM577.653 31.4503H579.165V46.7323H577.653V31.4503ZM574.503 32.1523C574.503 34.6843 573.831 36.9343 572.487 38.9023C571.311 40.6783 569.781 42.1663 567.897 43.3663L566.871 42.3043C568.647 41.2363 570.075 39.8863 571.155 38.2543C572.187 36.7663 572.739 35.1763 572.811 33.4843H567.591V32.1523H574.503ZM589.498 40.3243H582.478V31.9003H583.954V34.4383H588.022V31.9003H589.498V40.3243ZM588.022 39.0103V35.7343H583.954V39.0103H588.022ZM593.692 31.4503V35.5903H595.852V36.9583H593.692V42.5203H592.18V31.4503H593.692ZM594.142 46.7323H584.386V42.2683H585.952V45.3823H594.142V46.7323ZM608.85 36.4003C608.85 37.0123 608.724 37.5883 608.472 38.1283C608.22 38.6683 607.884 39.1423 607.464 39.5503C607.02 39.9583 606.51 40.2823 605.934 40.5223C605.37 40.7503 604.758 40.8643 604.098 40.8643C603.438 40.8643 602.82 40.7503 602.244 40.5223C601.68 40.2823 601.176 39.9583 600.732 39.5503C600.312 39.1423 599.976 38.6683 599.724 38.1283C599.472 37.5883 599.346 37.0123 599.346 36.4003C599.346 35.7883 599.472 35.2123 599.724 34.6723C599.976 34.1323 600.312 33.6583 600.732 33.2503C601.176 32.8423 601.68 32.5243 602.244 32.2963C602.82 32.0563 603.438 31.9363 604.098 31.9363C604.758 31.9363 605.37 32.0563 605.934 32.2963C606.51 32.5243 607.02 32.8423 607.464 33.2503C607.884 33.6583 608.22 34.1323 608.472 34.6723C608.724 35.2123 608.85 35.7883 608.85 36.4003ZM607.32 36.4003C607.32 35.9683 607.23 35.5663 607.05 35.1943C606.882 34.8103 606.654 34.4743 606.366 34.1863C606.078 33.9103 605.736 33.6883 605.34 33.5203C604.944 33.3523 604.53 33.2683 604.098 33.2683C603.666 33.2683 603.252 33.3523 602.856 33.5203C602.46 33.6883 602.118 33.9103 601.83 34.1863C601.542 34.4743 601.308 34.8103 601.128 35.1943C600.96 35.5663 600.876 35.9683 600.876 36.4003C600.876 36.8323 600.96 37.2403 601.128 37.6243C601.308 37.9963 601.542 38.3263 601.83 38.6143C602.118 38.8903 602.46 39.1123 602.856 39.2803C603.252 39.4483 603.666 39.5323 604.098 39.5323C604.53 39.5323 604.944 39.4483 605.34 39.2803C605.736 39.1123 606.078 38.8903 606.366 38.6143C606.654 38.3263 606.882 37.9963 607.05 37.6243C607.23 37.2403 607.32 36.8323 607.32 36.4003ZM610.884 43.4563V44.7883H597.312V43.4563H610.884ZM624.583 40.9543H620.191V43.7983H626.221V45.0943H612.649V43.7983H618.679V40.9543H614.377V35.8963H622.981V33.4663H614.377V32.1343H624.493V37.1923H615.889V39.6403H624.583V40.9543ZM11.826 63.2783V66.7703C11.826 68.8823 11.616 70.8383 11.196 72.6383H9.73799C10.122 70.8743 10.314 69.0503 10.314 67.1663V64.6103H1.52999V63.2783H11.826ZM13.572 74.6543V75.9863H-1.16453e-05V74.6543H4.64399V68.6783H6.15599V74.6543H13.572ZM27.8653 62.4503V73.5203H26.3533V67.8683H23.5273V66.5363H26.3533V62.4503H27.8653ZM28.3333 77.7323H18.5593V73.1783H20.1073V76.4003H28.3333V77.7323ZM19.0093 65.5643V64.4123H15.8413V63.0623H23.8873V64.4123H20.5573V65.6543C20.5573 66.7223 20.9173 67.6583 21.6373 68.4623C22.4893 69.4223 23.4073 70.1303 24.3913 70.5863L23.5813 71.6123C22.3213 70.9763 21.2473 70.1663 20.3593 69.1823C20.1433 68.9423 19.9573 68.6963 19.8013 68.4443C19.6333 68.7443 19.4353 69.0323 19.2073 69.3083C18.3673 70.3643 17.3713 71.2043 16.2193 71.8283L15.2653 70.8563C16.3213 70.2923 17.2633 69.4943 18.0913 68.4623C18.7033 67.6943 19.0093 66.7283 19.0093 65.5643ZM42.6085 70.4603H32.4025V65.9783H41.0065V64.1063H32.4025V62.8103H42.5185V67.2563H33.9145V69.1643H42.6085V70.4603ZM44.2465 73.6463H41.0065V78.0203H39.4765V73.6463H35.4445V78.0203H33.9145V73.6463H30.6745V72.3863H44.2465V73.6463ZM57.6015 64.2323H53.5515V68.4443H57.6015V64.2323ZM59.0955 69.6683H52.0575V63.0083H59.0955V69.6683ZM63.5235 62.4503V70.0643H62.0115V62.4503H63.5235ZM63.7215 77.7323H54.0375V73.8623H62.0115V72.4043H54.0375V71.1983H63.5235V75.0683H55.5495V76.5263H63.7215V77.7323ZM68.0608 63.2603H78.1048V64.6283H69.5728V69.6503H78.2308V71.0183H73.8748V74.7623H79.9048V76.0943H66.3328V74.7623H72.3628V71.0183H68.0608V63.2603ZM82.4621 78.2543C83.2541 77.9303 83.6501 77.2523 83.6501 76.2203H82.4261V74.1323H84.6221V76.0223C84.6221 77.4983 84.0281 78.4463 82.8401 78.8663L82.4621 78.2543ZM97.228 67.8503V72.6023H99.298V67.8503H97.228ZM95.842 66.5903V63.0443H97.228V66.5903H99.298V63.0443H100.702V73.8803H92.368V63.0443H93.772V66.5903H95.842ZM95.842 72.6023V67.8503H93.772V72.6023H95.842ZM104.158 62.4503V67.6343H106.048V69.0743H104.158V77.7323H102.7V62.4503H104.158ZM119.225 69.7943H109.019V65.6543H117.623V64.0163H109.019V62.7563H119.135V66.8963H110.531V68.5343H119.225V69.7943ZM107.291 71.4503H120.863V72.7643H107.291V71.4503ZM119.405 77.7323H109.109V74.1863H110.693V76.4363H119.405V77.7323ZM139.456 70.0643H129.34V62.7203H130.852V64.8803H137.944V62.7203H139.456V70.0643ZM137.944 68.7143V66.2303H130.852V68.7143H137.944ZM135.154 73.3583V78.0203H133.642V73.3583H127.612V72.0263H141.184V73.3583H135.154ZM146.712 64.0883V62.4503H148.368V64.0883H152.148V65.3123H149.79C150.054 65.4803 150.288 65.6663 150.492 65.8703C150.876 66.2543 151.176 66.6983 151.392 67.2023C151.62 67.7063 151.734 68.2463 151.734 68.8223C151.734 69.3983 151.62 69.9383 151.392 70.4423C151.176 70.9463 150.876 71.3903 150.492 71.7743C150.12 72.1463 149.676 72.4463 149.16 72.6743C148.656 72.8903 148.116 72.9983 147.54 72.9983C146.964 72.9983 146.418 72.8903 145.902 72.6743C145.398 72.4463 144.96 72.1463 144.588 71.7743C144.204 71.3903 143.898 70.9463 143.67 70.4423C143.454 69.9383 143.346 69.3983 143.346 68.8223C143.346 68.2463 143.454 67.7063 143.67 67.2023C143.898 66.6983 144.204 66.2543 144.588 65.8703C144.792 65.6663 145.026 65.4803 145.29 65.3123H142.914V64.0883H146.712ZM150.276 68.7683C150.276 68.3723 150.204 68.0003 150.06 67.6523C149.916 67.2923 149.718 66.9803 149.466 66.7163C149.214 66.4523 148.92 66.2423 148.584 66.0863C148.26 65.9303 147.912 65.8523 147.54 65.8523C147.168 65.8523 146.814 65.9303 146.478 66.0863C146.154 66.2423 145.866 66.4523 145.614 66.7163C145.362 66.9803 145.164 67.2923 145.02 67.6523C144.876 68.0003 144.804 68.3723 144.804 68.7683C144.804 69.1643 144.876 69.5423 145.02 69.9023C145.164 70.2503 145.362 70.5563 145.614 70.8203C145.866 71.0843 146.154 71.2943 146.478 71.4503C146.814 71.6063 147.168 71.6843 147.54 71.6843C147.912 71.6843 148.26 71.6063 148.584 71.4503C148.92 71.2943 149.214 71.0843 149.466 70.8203C149.718 70.5563 149.916 70.2503 150.06 69.9023C150.204 69.5423 150.276 69.1643 150.276 68.7683ZM155.136 62.4503V67.0583H157.098V68.4983H155.136V77.7323H153.66V62.4503H155.136ZM164.225 73.7363V63.1343H169.211V64.5023H165.719V72.3683H167.123C168.743 72.3683 170.105 72.2603 171.209 72.0443V62.4503H172.649V67.7063H174.791V62.4503H176.267V77.7323H174.791V69.0383H172.649V77.7323H171.209V73.4123C170.225 73.6283 168.911 73.7363 167.267 73.7363H164.225ZM189.426 65.8343C189.426 66.3383 189.318 66.8183 189.102 67.2743C188.886 67.7183 188.598 68.1083 188.238 68.4443C187.878 68.7803 187.452 69.0503 186.96 69.2543C186.468 69.4463 185.946 69.5423 185.394 69.5423C184.842 69.5423 184.32 69.4463 183.828 69.2543C183.336 69.0503 182.91 68.7803 182.55 68.4443C182.19 68.1083 181.902 67.7183 181.686 67.2743C181.47 66.8183 181.362 66.3383 181.362 65.8343C181.362 65.3303 181.47 64.8563 181.686 64.4123C181.902 63.9563 182.19 63.5603 182.55 63.2243C182.91 62.8883 183.336 62.6243 183.828 62.4323C184.32 62.2283 184.842 62.1263 185.394 62.1263C185.946 62.1263 186.468 62.2283 186.96 62.4323C187.452 62.6243 187.878 62.8883 188.238 63.2243C188.598 63.5603 188.886 63.9563 189.102 64.4123C189.318 64.8563 189.426 65.3303 189.426 65.8343ZM187.914 65.8343C187.914 65.1623 187.668 64.5863 187.176 64.1063C186.684 63.6263 186.09 63.3863 185.394 63.3863C184.698 63.3863 184.104 63.6263 183.612 64.1063C183.12 64.5863 182.874 65.1623 182.874 65.8343C182.874 66.5063 183.12 67.0823 183.612 67.5623C184.104 68.0423 184.698 68.2823 185.394 68.2823C186.09 68.2823 186.684 68.0423 187.176 67.5623C187.668 67.0823 187.914 66.5063 187.914 65.8343ZM192.18 70.7483V72.0263H187.842C187.986 72.1223 188.118 72.2303 188.238 72.3503C188.598 72.6743 188.88 73.0583 189.084 73.5023C189.3 73.9463 189.408 74.4143 189.408 74.9063C189.408 75.3983 189.3 75.8663 189.084 76.3103C188.88 76.7543 188.598 77.1383 188.238 77.4623C187.878 77.7983 187.452 78.0623 186.96 78.2543C186.468 78.4463 185.946 78.5423 185.394 78.5423C184.842 78.5423 184.32 78.4463 183.828 78.2543C183.336 78.0623 182.91 77.7983 182.55 77.4623C182.19 77.1383 181.902 76.7543 181.686 76.3103C181.482 75.8663 181.38 75.3983 181.38 74.9063C181.38 74.4143 181.482 73.9463 181.686 73.5023C181.902 73.0583 182.19 72.6743 182.55 72.3503C182.67 72.2303 182.802 72.1223 182.946 72.0263H178.608V70.7483H192.18ZM187.896 74.8703C187.896 74.1983 187.65 73.6283 187.158 73.1603C186.666 72.6803 186.078 72.4403 185.394 72.4403C184.71 72.4403 184.122 72.6803 183.63 73.1603C183.138 73.6283 182.892 74.1983 182.892 74.8703C182.892 75.5423 183.138 76.1183 183.63 76.5983C184.122 77.0663 184.71 77.3003 185.394 77.3003C186.078 77.3003 186.666 77.0663 187.158 76.5983C187.65 76.1183 187.896 75.5423 187.896 74.8703ZM194.737 78.2543C195.529 77.9303 195.925 77.2523 195.925 76.2203H194.701V74.1323H196.897V76.0223C196.897 77.4983 196.303 78.4463 195.115 78.8663L194.737 78.2543ZM205.957 62.6663H207.469V66.4463H216.307V67.7243H211.771V69.6683H217.801V70.9463H204.229V69.6683H210.259V67.7243H205.957V62.6663ZM208.981 73.7543V76.4903H213.031V73.7543H208.981ZM207.505 76.4903V73.7543H205.831V72.5123H216.199V73.7543H214.507V76.4903H216.451V77.7323H205.579V76.4903H207.505ZM230.87 66.3923C230.87 66.9683 230.75 67.5083 230.51 68.0123C230.27 68.5163 229.94 68.9543 229.52 69.3263C229.28 69.5663 229.01 69.7703 228.71 69.9383H233.138V71.2703H219.566V69.9383H223.994C223.694 69.7703 223.418 69.5663 223.166 69.3263C222.758 68.9543 222.434 68.5163 222.194 68.0123C221.954 67.5083 221.834 66.9683 221.834 66.3923C221.834 65.8163 221.954 65.2763 222.194 64.7723C222.434 64.2683 222.758 63.8303 223.166 63.4583C223.574 63.0743 224.048 62.7743 224.588 62.5583C225.14 62.3303 225.728 62.2163 226.352 62.2163C226.964 62.2163 227.546 62.3303 228.098 62.5583C228.65 62.7743 229.124 63.0743 229.52 63.4583C229.94 63.8303 230.27 64.2683 230.51 64.7723C230.75 65.2763 230.87 65.8163 230.87 66.3923ZM229.358 66.4823C229.358 66.0863 229.274 65.7143 229.106 65.3663C228.95 65.0063 228.74 64.6943 228.476 64.4303C228.2 64.1663 227.882 63.9563 227.522 63.8003C227.162 63.6443 226.772 63.5663 226.352 63.5663C225.932 63.5663 225.542 63.6443 225.182 63.8003C224.822 63.9563 224.504 64.1663 224.228 64.4303C223.964 64.6943 223.748 65.0063 223.58 65.3663C223.424 65.7143 223.346 66.0863 223.346 66.4823C223.346 66.8783 223.424 67.2563 223.58 67.6163C223.748 67.9643 223.964 68.2703 224.228 68.5343C224.504 68.7983 224.822 69.0083 225.182 69.1643C225.542 69.3203 225.932 69.3983 226.352 69.3983C226.772 69.3983 227.162 69.3203 227.522 69.1643C227.882 69.0083 228.2 68.7983 228.476 68.5343C228.74 68.2703 228.95 67.9643 229.106 67.6163C229.274 67.2563 229.358 66.8783 229.358 66.4823ZM231.68 77.7323H221.384V73.2503H222.932V76.3643H231.68V77.7323ZM251.281 68.6783H249.805C250.057 67.5863 250.183 66.4523 250.183 65.2763V64.1603H241.507V62.8643H251.695V65.2943C251.695 66.4463 251.557 67.5743 251.281 68.6783ZM253.459 71.5223H248.905C249.109 71.6543 249.313 71.8043 249.517 71.9723C249.889 72.2963 250.183 72.6983 250.399 73.1783C250.627 73.6583 250.741 74.1563 250.741 74.6723C250.741 75.1883 250.627 75.6863 250.399 76.1663C250.183 76.6343 249.895 77.0423 249.535 77.3903C249.139 77.7503 248.689 78.0323 248.185 78.2363C247.693 78.4403 247.159 78.5423 246.583 78.5423C246.007 78.5423 245.467 78.4403 244.963 78.2363C244.471 78.0323 244.027 77.7503 243.631 77.3903C243.271 77.0423 242.977 76.6343 242.749 76.1663C242.533 75.6863 242.425 75.1883 242.425 74.6723C242.425 74.1563 242.533 73.6643 242.749 73.1963C242.977 72.7163 243.277 72.3083 243.649 71.9723C243.841 71.8043 244.039 71.6543 244.243 71.5223H239.887V70.2263H244.801V66.7703H246.313V70.2263H253.459V71.5223ZM249.229 74.6543C249.229 74.2943 249.157 73.9583 249.013 73.6463C248.869 73.3343 248.677 73.0583 248.437 72.8183C248.197 72.5903 247.927 72.4103 247.627 72.2783C247.339 72.1343 246.991 72.0623 246.583 72.0623C246.175 72.0623 245.821 72.1343 245.521 72.2783C245.233 72.4103 244.969 72.5903 244.729 72.8183C244.489 73.0583 244.297 73.3343 244.153 73.6463C244.009 73.9583 243.937 74.2943 243.937 74.6543C243.937 75.0143 244.009 75.3503 244.153 75.6623C244.297 75.9743 244.489 76.2503 244.729 76.4903C244.969 76.7183 245.251 76.8983 245.575 77.0303C245.899 77.1743 246.235 77.2463 246.583 77.2463C246.931 77.2463 247.267 77.1743 247.591 77.0303C247.915 76.8983 248.197 76.7183 248.437 76.4903C248.677 76.2503 248.869 75.9743 249.013 75.6623C249.157 75.3503 249.229 75.0143 249.229 74.6543ZM266.943 62.4503V67.0403H269.103V68.3723H266.943V73.5203H265.431V62.4503H266.943ZM267.393 77.7323H257.637V73.1783H259.185V76.4003H267.393V77.7323ZM262.695 63.1523C262.695 65.4683 261.939 67.3823 260.427 68.8943C259.107 70.2143 257.613 71.1503 255.945 71.7023L255.081 70.6763C256.665 70.1363 258.009 69.3203 259.113 68.2283C260.361 66.9803 260.985 65.7683 260.985 64.5923V64.4483H256.071V63.1523H262.695ZM287.66 65.2223H284.87C285.038 65.3423 285.194 65.4683 285.338 65.6003C285.722 65.9483 286.028 66.3683 286.256 66.8603C286.484 67.3403 286.598 67.8443 286.598 68.3723C286.598 68.9003 286.484 69.4043 286.256 69.8843C286.028 70.3523 285.722 70.7603 285.338 71.1083C284.954 71.4683 284.504 71.7503 283.988 71.9543C283.472 72.1583 282.92 72.2603 282.332 72.2603C281.744 72.2603 281.192 72.1583 280.676 71.9543C280.16 71.7503 279.71 71.4683 279.326 71.1083C278.942 70.7603 278.636 70.3523 278.408 69.8843C278.18 69.4043 278.066 68.9003 278.066 68.3723C278.066 67.8443 278.18 67.3403 278.408 66.8603C278.636 66.3683 278.942 65.9483 279.326 65.6003C279.47 65.4683 279.626 65.3423 279.794 65.2223H276.986V63.9623H281.432V62.2343H283.232V63.9623H287.66V65.2223ZM285.086 68.3183C285.086 67.9463 285.008 67.5983 284.852 67.2743C284.708 66.9503 284.51 66.6623 284.258 66.4103C284.018 66.1823 283.73 65.9963 283.394 65.8523C283.058 65.7083 282.704 65.6363 282.332 65.6363C281.96 65.6363 281.606 65.7083 281.27 65.8523C280.934 65.9963 280.646 66.1823 280.406 66.4103C280.154 66.6623 279.95 66.9503 279.794 67.2743C279.65 67.5983 279.578 67.9463 279.578 68.3183C279.578 68.6903 279.65 69.0383 279.794 69.3623C279.95 69.6863 280.154 69.9743 280.406 70.2263C280.646 70.4543 280.934 70.6403 281.27 70.7843C281.606 70.9283 281.96 71.0003 282.332 71.0003C282.704 71.0003 283.058 70.9283 283.394 70.7843C283.73 70.6403 284.018 70.4543 284.258 70.2263C284.51 69.9743 284.708 69.6863 284.852 69.3623C285.008 69.0383 285.086 68.6903 285.086 68.3183ZM286.184 72.2063V74.8163H289.118V76.0943H275.546V74.8163H278.48V72.2063H279.992V74.8163H284.672V72.2063H286.184ZM301.593 65.4923C301.593 65.9603 301.485 66.4163 301.269 66.8603C301.065 67.3043 300.789 67.6763 300.441 67.9763C300.309 68.0963 300.165 68.2103 300.009 68.3183H304.455V69.5423H300.891V71.1803H302.727V75.0323H294.123V76.5623H302.907V77.7323H292.611V73.8623H301.215V72.3503H292.611V71.1803H294.447V69.5423H290.883V68.3183H295.329C295.173 68.2103 295.029 68.0963 294.897 67.9763C294.549 67.6763 294.267 67.3043 294.051 66.8603C293.847 66.4163 293.745 65.9603 293.745 65.4923C293.745 65.0243 293.847 64.5743 294.051 64.1423C294.267 63.7103 294.549 63.3443 294.897 63.0443C295.245 62.7203 295.659 62.4683 296.139 62.2883C296.619 62.0963 297.129 62.0003 297.669 62.0003C298.209 62.0003 298.719 62.0963 299.199 62.2883C299.679 62.4683 300.093 62.7203 300.441 63.0443C300.789 63.3443 301.065 63.7103 301.269 64.1423C301.485 64.5743 301.593 65.0243 301.593 65.4923ZM300.081 65.5463C300.081 64.9223 299.841 64.3823 299.361 63.9263C298.893 63.4583 298.329 63.2243 297.669 63.2243C297.009 63.2243 296.439 63.4583 295.959 63.9263C295.491 64.3823 295.257 64.9223 295.257 65.5463C295.257 66.1703 295.491 66.7163 295.959 67.1843C296.439 67.6403 297.009 67.8683 297.669 67.8683C298.329 67.8683 298.893 67.6403 299.361 67.1843C299.841 66.7163 300.081 66.1703 300.081 65.5463ZM299.415 71.1803V69.5423H295.923V71.1803H299.415ZM318.748 62.4503V71.0723H317.236V66.8423H314.122V65.5463H317.236V62.4503H318.748ZM318.442 74.9603C318.442 75.4403 318.334 75.9023 318.118 76.3463C317.914 76.7783 317.638 77.1563 317.29 77.4803C316.93 77.8043 316.51 78.0623 316.03 78.2543C315.55 78.4463 315.034 78.5423 314.482 78.5423C313.93 78.5423 313.414 78.4463 312.934 78.2543C312.454 78.0623 312.034 77.8043 311.674 77.4803C311.326 77.1563 311.044 76.7783 310.828 76.3463C310.624 75.9023 310.522 75.4403 310.522 74.9603C310.522 74.4803 310.624 74.0243 310.828 73.5923C311.044 73.1483 311.326 72.7643 311.674 72.4403C312.034 72.1163 312.454 71.8583 312.934 71.6663C313.414 71.4743 313.93 71.3783 314.482 71.3783C315.034 71.3783 315.55 71.4743 316.03 71.6663C316.51 71.8583 316.93 72.1163 317.29 72.4403C317.638 72.7643 317.914 73.1483 318.118 73.5923C318.334 74.0243 318.442 74.4803 318.442 74.9603ZM316.93 74.9603C316.93 74.3243 316.69 73.7843 316.21 73.3403C315.73 72.8843 315.154 72.6563 314.482 72.6563C313.81 72.6563 313.234 72.8843 312.754 73.3403C312.274 73.7843 312.034 74.3243 312.034 74.9603C312.034 75.5963 312.274 76.1423 312.754 76.5983C313.234 77.0423 313.81 77.2643 314.482 77.2643C315.154 77.2643 315.73 77.0423 316.21 76.5983C316.69 76.1423 316.93 75.5963 316.93 74.9603ZM311.404 64.1603C311.404 65.3723 311.752 66.4103 312.448 67.2743C313.144 68.1023 314.002 68.8043 315.022 69.3803L314.158 70.4603C313.078 69.9083 312.094 69.0923 311.206 68.0123C311.026 67.7963 310.864 67.5683 310.72 67.3283C310.54 67.6883 310.324 68.0303 310.072 68.3543C309.172 69.5543 308.182 70.4543 307.102 71.0543L306.148 70.0463C307.18 69.4823 308.086 68.6723 308.866 67.6163C309.526 66.7163 309.856 65.5643 309.856 64.1603V62.8463H311.404V64.1603ZM332.411 65.6543C332.411 66.1463 332.303 66.6143 332.087 67.0583C331.871 67.4903 331.583 67.8743 331.223 68.2103C331.079 68.3423 330.923 68.4623 330.755 68.5703H335.129V69.7943H321.557V68.5703H325.931C325.763 68.4623 325.607 68.3423 325.463 68.2103C325.103 67.8743 324.815 67.4903 324.599 67.0583C324.383 66.6143 324.275 66.1463 324.275 65.6543C324.275 65.1623 324.383 64.6943 324.599 64.2503C324.815 63.8063 325.103 63.4163 325.463 63.0803C325.835 62.7443 326.267 62.4803 326.759 62.2883C327.251 62.0963 327.779 62.0003 328.343 62.0003C328.907 62.0003 329.435 62.0963 329.927 62.2883C330.419 62.4803 330.851 62.7443 331.223 63.0803C331.583 63.4163 331.871 63.8063 332.087 64.2503C332.303 64.6943 332.411 65.1623 332.411 65.6543ZM330.899 65.6903C330.899 65.0063 330.647 64.4243 330.143 63.9443C329.651 63.4523 329.051 63.2063 328.343 63.2063C327.635 63.2063 327.029 63.4523 326.525 63.9443C326.033 64.4243 325.787 65.0063 325.787 65.6903C325.787 66.3743 326.033 66.9623 326.525 67.4543C327.029 67.9343 327.635 68.1743 328.343 68.1743C329.051 68.1743 329.651 67.9343 330.143 67.4543C330.647 66.9623 330.899 66.3743 330.899 65.6903ZM333.581 77.7323H323.285V73.8443H331.889V72.3503H323.285V71.1623H333.401V75.0503H324.797V76.5443H333.581V77.7323ZM351.436 70.4963C351.808 68.8643 351.994 67.2083 351.994 65.5283V64.4663H343.39V63.1523H353.506V65.5283C353.506 67.1963 353.308 68.8523 352.912 70.4963H355.45V71.8103H349.312V78.0203H347.8V71.8103H341.878V70.4963H351.436ZM360.87 63.7643V62.1983H362.598V63.7643H366.144V65.0423H363.93C364.134 65.1743 364.32 65.3183 364.488 65.4743C364.836 65.7983 365.112 66.1883 365.316 66.6443C365.532 67.1003 365.64 67.5743 365.64 68.0663C365.64 68.5583 365.532 69.0263 365.316 69.4703C365.112 69.9143 364.836 70.2983 364.488 70.6223C364.128 70.9583 363.714 71.2223 363.246 71.4143C362.778 71.6063 362.274 71.7023 361.734 71.7023C361.194 71.7023 360.69 71.6063 360.222 71.4143C359.754 71.2223 359.34 70.9583 358.98 70.6223C358.632 70.2983 358.35 69.9143 358.134 69.4703C357.93 69.0263 357.828 68.5583 357.828 68.0663C357.828 67.5743 357.93 67.1003 358.134 66.6443C358.35 66.1883 358.632 65.7983 358.98 65.4743C359.148 65.3183 359.334 65.1743 359.538 65.0423H357.324V63.7643H360.87ZM364.146 67.9763C364.146 67.3283 363.906 66.7643 363.426 66.2843C362.958 65.7923 362.394 65.5463 361.734 65.5463C361.074 65.5463 360.504 65.7923 360.024 66.2843C359.556 66.7643 359.322 67.3283 359.322 67.9763C359.322 68.6243 359.556 69.1883 360.024 69.6683C360.504 70.1363 361.074 70.3703 361.734 70.3703C362.394 70.3703 362.958 70.1363 363.426 69.6683C363.906 69.1883 364.146 68.6243 364.146 67.9763ZM368.232 66.8963H366.234V65.4923H368.232V62.4503H369.744V73.7003H368.232V70.6223H366.234V69.2183H368.232V66.8963ZM370.284 77.7323H360.258V73.2683H361.878V76.3823H370.284V77.7323ZM375.433 63.6923V62.1983H377.053V63.6923H379.951V64.8623H378.151C378.379 64.9943 378.589 65.1503 378.781 65.3303C379.093 65.6303 379.345 65.9903 379.537 66.4103C379.729 66.8303 379.825 67.2623 379.825 67.7063C379.825 68.1503 379.729 68.5763 379.537 68.9843C379.345 69.3923 379.093 69.7463 378.781 70.0463C378.445 70.3583 378.061 70.6043 377.629 70.7843C377.197 70.9523 376.735 71.0363 376.243 71.0363C375.751 71.0363 375.289 70.9523 374.857 70.7843C374.425 70.6043 374.041 70.3583 373.705 70.0463C373.393 69.7463 373.141 69.3923 372.949 68.9843C372.757 68.5763 372.661 68.1503 372.661 67.7063C372.661 67.2623 372.757 66.8303 372.949 66.4103C373.141 65.9903 373.393 65.6303 373.705 65.3303C373.897 65.1503 374.107 64.9943 374.335 64.8623H372.463V63.6923H375.433ZM378.421 67.6163C378.421 67.0163 378.205 66.5063 377.773 66.0863C377.353 65.6543 376.843 65.4383 376.243 65.4383C375.643 65.4383 375.127 65.6543 374.695 66.0863C374.275 66.5063 374.065 67.0163 374.065 67.6163C374.065 68.2163 374.275 68.7323 374.695 69.1643C375.127 69.5843 375.643 69.7943 376.243 69.7943C376.843 69.7943 377.353 69.5843 377.773 69.1643C378.205 68.7323 378.421 68.2163 378.421 67.6163ZM384.397 62.4503H385.801V71.3063H384.397V67.9223H382.543V71.3063H381.175V62.4503H382.543V66.5543H384.397V62.4503ZM382.273 72.4583H383.695V73.2503C383.695 73.8863 383.995 74.5703 384.595 75.3023C385.183 76.0343 385.843 76.6283 386.575 77.0843L385.639 78.0203C384.703 77.4083 383.923 76.6643 383.299 75.7883C383.191 75.6323 383.089 75.4763 382.993 75.3203C382.897 75.4763 382.789 75.6323 382.669 75.7883C381.973 76.6283 381.157 77.3603 380.221 77.9843C379.285 77.3603 378.469 76.6283 377.773 75.7883C377.653 75.6323 377.545 75.4763 377.449 75.3203C377.353 75.4763 377.251 75.6323 377.143 75.7883C376.519 76.6643 375.739 77.4083 374.803 78.0203L373.867 77.0843C374.599 76.6283 375.259 76.0343 375.847 75.3023C376.447 74.5703 376.747 73.8863 376.747 73.2503V72.4583H378.169V73.2503C378.169 73.8263 378.463 74.5043 379.051 75.2843C379.411 75.6803 379.801 76.0403 380.221 76.3643C380.641 76.0403 381.031 75.6803 381.391 75.2843C381.979 74.5043 382.273 73.8263 382.273 73.2503V72.4583ZM401.462 69.6863V70.9463H387.89V69.6863H401.462ZM399.734 77.7323H389.618V72.1523H391.13V73.4123H398.222V72.1523H399.734V77.7323ZM398.222 76.5623V74.5643H391.13V76.5623H398.222ZM395.45 63.2963C395.45 64.3163 396.014 65.1923 397.142 65.9243C398.258 66.6443 399.416 67.1003 400.616 67.2923L399.986 68.4083C398.606 68.2043 397.28 67.6703 396.008 66.8063C395.456 66.4223 395.012 66.0083 394.676 65.5643C394.34 66.0083 393.896 66.4223 393.344 66.8063C392.072 67.6583 390.746 68.1923 389.366 68.4083L388.736 67.2923C389.936 67.1003 391.094 66.6443 392.21 65.9243C393.338 65.1923 393.902 64.3163 393.902 63.2963V62.4323H395.45V63.2963ZM404.505 73.4663V63.0623H406.017V72.0983H408.969C411.009 72.0983 412.767 71.9723 414.243 71.7203V62.4503H415.755V77.7323H414.243V73.1063C412.839 73.3463 411.093 73.4663 409.005 73.4663H404.505ZM419.519 73.7363V63.1343H426.071V64.5023H421.031V72.3683H423.083C425.027 72.3683 426.887 72.1943 428.663 71.8463V62.4503H430.175V67.5623H432.551V68.9663H430.175V77.7323H428.663V73.2143C426.983 73.5623 425.165 73.7363 423.209 73.7363H419.519ZM434.658 76.2563V74.1323H436.854V76.2563H434.658ZM452.97 67.5983C452.97 68.1743 452.85 68.7203 452.61 69.2363C452.382 69.7403 452.07 70.1843 451.674 70.5683C451.266 70.9643 450.792 71.2763 450.252 71.5043C449.724 71.7203 449.154 71.8283 448.542 71.8283C447.93 71.8283 447.354 71.7203 446.814 71.5043C446.286 71.2763 445.818 70.9643 445.41 70.5683C445.014 70.1843 444.696 69.7403 444.456 69.2363C444.228 68.7203 444.114 68.1743 444.114 67.5983C444.114 67.0223 444.228 66.4823 444.456 65.9783C444.696 65.4623 445.014 65.0123 445.41 64.6283C445.818 64.2323 446.286 63.9263 446.814 63.7103C447.354 63.4823 447.93 63.3683 448.542 63.3683C449.154 63.3683 449.724 63.4823 450.252 63.7103C450.792 63.9263 451.266 64.2323 451.674 64.6283C452.07 65.0123 452.382 65.4623 452.61 65.9783C452.85 66.4823 452.97 67.0223 452.97 67.5983ZM451.458 67.5983C451.458 67.1903 451.38 66.8123 451.224 66.4643C451.068 66.1163 450.858 65.8103 450.594 65.5463C450.33 65.2823 450.024 65.0723 449.676 64.9163C449.328 64.7603 448.95 64.6823 448.542 64.6823C448.134 64.6823 447.756 64.7603 447.408 64.9163C447.06 65.0723 446.754 65.2823 446.49 65.5463C446.226 65.8103 446.016 66.1163 445.86 66.4643C445.704 66.8123 445.626 67.1903 445.626 67.5983C445.626 68.0063 445.704 68.3843 445.86 68.7323C446.016 69.0803 446.226 69.3863 446.49 69.6503C446.754 69.9143 447.06 70.1243 447.408 70.2803C447.756 70.4363 448.134 70.5143 448.542 70.5143C448.95 70.5143 449.328 70.4363 449.676 70.2803C450.024 70.1243 450.33 69.9143 450.594 69.6503C450.858 69.3863 451.068 69.0803 451.224 68.7323C451.38 68.3843 451.458 68.0063 451.458 67.5983ZM455.292 62.4503H456.804V77.7323H455.292V62.4503ZM461.251 62.6663H462.763V67.0043H471.601V68.3543H461.251V62.6663ZM459.523 71.7203V70.3523H473.095V71.7203H459.523ZM471.637 77.7323H461.341V73.5023H462.889V76.3823H471.637V77.7323ZM491.436 68.8943H489.528V77.7323H488.088V62.4503H489.528V67.5623H491.436V62.4503H492.912V77.7323H491.436V68.8943ZM482.67 64.4663H479.97V63.1343H486.468V64.4663H484.128V66.5903C484.128 68.1863 484.416 69.4943 484.992 70.5143C485.604 71.6063 486.324 72.4643 487.152 73.0883L486.288 74.0063C485.268 73.2263 484.422 72.2063 483.75 70.9463C483.63 70.7303 483.522 70.5023 483.426 70.2623C483.306 70.5263 483.18 70.7783 483.048 71.0183C482.172 72.5903 481.326 73.6643 480.51 74.2403L479.484 73.3403C480.36 72.6683 481.134 71.7083 481.806 70.4603C482.382 69.3803 482.67 68.0843 482.67 66.5723V64.4663ZM506.701 67.5263H504.577V71.2883C504.865 71.3363 505.141 71.4143 505.405 71.5223C505.885 71.7143 506.305 71.9783 506.665 72.3143C507.025 72.6503 507.307 73.0403 507.511 73.4843C507.727 73.9163 507.835 74.3843 507.835 74.8883C507.835 75.3923 507.727 75.8663 507.511 76.3103C507.307 76.7423 507.025 77.1263 506.665 77.4623C506.305 77.7983 505.879 78.0623 505.387 78.2543C504.907 78.4463 504.391 78.5423 503.839 78.5423C503.287 78.5423 502.765 78.4463 502.273 78.2543C501.793 78.0623 501.373 77.7983 501.013 77.4623C500.653 77.1263 500.365 76.7423 500.149 76.3103C499.945 75.8663 499.843 75.3923 499.843 74.8883C499.843 74.3843 499.945 73.9163 500.149 73.4843C500.365 73.0403 500.653 72.6503 501.013 72.3143C501.373 71.9783 501.799 71.7143 502.291 71.5223C502.555 71.4143 502.831 71.3363 503.119 71.2883V62.4503H504.577V66.2123H506.701V62.4503H508.177V71.4143H506.701V67.5263ZM506.323 74.8883C506.323 74.5643 506.257 74.2583 506.125 73.9703C505.993 73.6823 505.813 73.4303 505.585 73.2143C505.357 72.9983 505.093 72.8303 504.793 72.7103C504.493 72.5783 504.175 72.5123 503.839 72.5123C503.503 72.5123 503.185 72.5783 502.885 72.7103C502.585 72.8303 502.321 72.9983 502.093 73.2143C501.865 73.4303 501.685 73.6823 501.553 73.9703C501.421 74.2583 501.355 74.5643 501.355 74.8883C501.355 75.2123 501.421 75.5183 501.553 75.8063C501.685 76.0943 501.865 76.3463 502.093 76.5623C502.321 76.7783 502.585 76.9463 502.885 77.0663C503.185 77.1983 503.503 77.2643 503.839 77.2643C504.175 77.2643 504.493 77.1983 504.793 77.0663C505.093 76.9463 505.357 76.7783 505.585 76.5623C505.813 76.3463 505.993 76.0943 506.125 75.8063C506.257 75.5183 506.323 75.2123 506.323 74.8883ZM499.303 64.5383C499.303 65.8823 499.579 66.9983 500.131 67.8863C500.719 68.7623 501.373 69.5003 502.093 70.1003L501.139 71.0003C500.347 70.3403 499.627 69.5423 498.979 68.6063C498.835 68.3903 498.703 68.1563 498.583 67.9043C498.451 68.1683 498.307 68.4143 498.151 68.6423C497.359 69.8303 496.549 70.7303 495.721 71.3423L494.695 70.4063C495.523 69.8063 496.279 68.9543 496.963 67.8503C497.551 66.9263 497.845 65.8163 497.845 64.5203V62.8463H499.303V64.5383ZM517.953 68.1383C517.893 68.4383 517.809 68.7203 517.701 68.9843C517.485 69.4763 517.197 69.9023 516.837 70.2623C516.453 70.6343 516.015 70.9283 515.523 71.1443C515.043 71.3603 514.527 71.4683 513.975 71.4683C513.423 71.4683 512.901 71.3603 512.409 71.1443C511.929 70.9283 511.497 70.6343 511.113 70.2623C510.753 69.9023 510.465 69.4823 510.249 69.0023C510.045 68.5103 509.943 67.9823 509.943 67.4183C509.943 66.8543 510.045 66.3323 510.249 65.8523C510.465 65.3603 510.753 64.9343 511.113 64.5743C511.497 64.2023 511.929 63.9083 512.409 63.6923C512.901 63.4763 513.423 63.3683 513.975 63.3683C514.527 63.3683 515.043 63.4763 515.523 63.6923C516.015 63.9083 516.453 64.2023 516.837 64.5743C517.197 64.9343 517.485 65.3543 517.701 65.8343C517.809 66.1103 517.893 66.3983 517.953 66.6983H519.519V62.4503H520.923V77.7323H519.519V68.1383H517.953ZM516.585 67.4183C516.585 67.0583 516.519 66.7103 516.387 66.3743C516.255 66.0383 516.075 65.7503 515.847 65.5103C515.607 65.2583 515.325 65.0603 515.001 64.9163C514.689 64.7603 514.347 64.6823 513.975 64.6823C513.603 64.6823 513.261 64.7603 512.949 64.9163C512.637 65.0603 512.361 65.2583 512.121 65.5103C511.893 65.7503 511.707 66.0383 511.563 66.3743C511.431 66.7103 511.365 67.0583 511.365 67.4183C511.365 67.7783 511.431 68.1263 511.563 68.4623C511.707 68.7983 511.893 69.0863 512.121 69.3263C512.361 69.5783 512.637 69.7823 512.949 69.9383C513.261 70.0823 513.603 70.1543 513.975 70.1543C514.347 70.1543 514.689 70.0823 515.001 69.9383C515.325 69.7823 515.607 69.5783 515.847 69.3263C516.075 69.0863 516.255 68.7983 516.387 68.4623C516.519 68.1263 516.585 67.7783 516.585 67.4183ZM522.561 62.4503H524.001V77.7323H522.561V62.4503ZM527.062 73.4663V63.0623H528.574V72.0983H530.68C532.276 72.0983 533.818 71.9783 535.306 71.7383V73.1243C533.854 73.3523 532.366 73.4663 530.842 73.4663H527.062ZM536.872 62.4503H538.384V77.7323H536.872V68.1923H532.228V66.8423H536.872V62.4503ZM552.209 62.4503H553.721V77.7323H552.209V62.4503ZM545.027 66.0863V64.4843H541.715V63.1343H549.779V64.4843H546.575V66.0503C546.563 67.5503 546.917 68.8703 547.637 70.0103C548.321 71.1023 549.227 72.1283 550.355 73.0883L549.437 74.0243C548.261 73.0523 547.199 71.8403 546.251 70.3883C546.095 70.1483 545.951 69.9083 545.819 69.6683C545.663 70.0283 545.471 70.3763 545.243 70.7123C544.259 72.2123 543.173 73.3703 541.985 74.1863L540.977 73.2143C542.105 72.4583 543.095 71.4083 543.947 70.0643C544.667 68.9123 545.027 67.5863 545.027 66.0863ZM11.016 93.4503H12.528V108.732H11.016V93.4503ZM7.86599 94.1523C7.86599 96.6843 7.19399 98.9343 5.84999 100.902C4.67399 102.678 3.14399 104.166 1.25999 105.366L0.233988 104.304C2.00999 103.236 3.43799 101.886 4.51799 100.254C5.54999 98.7663 6.10199 97.1763 6.17399 95.4843H0.953988V94.1523H7.86599ZM22.8613 102.324H15.8413V93.9003H17.3173V96.4383H21.3853V93.9003H22.8613V102.324ZM21.3853 101.01V97.7343H17.3173V101.01H21.3853ZM27.0553 93.4503V97.5903H29.2153V98.9583H27.0553V104.52H25.5433V93.4503H27.0553ZM27.5053 108.732H17.7493V104.268H19.3153V107.382H27.5053V108.732ZM43.2003 103.872V109.02H41.6883V103.872H35.6583V102.54H49.2303V103.872H43.2003ZM43.2183 94.8903C43.2183 95.9583 43.7163 96.9003 44.7123 97.7163C45.7563 98.5803 46.9743 99.2463 48.3663 99.7143L47.5743 100.776C46.0623 100.308 44.7543 99.5943 43.6503 98.6343C43.1583 98.2143 42.7563 97.7583 42.4443 97.2663C42.1323 97.7583 41.7303 98.2143 41.2383 98.6343C40.1343 99.5943 38.8263 100.308 37.3143 100.776L36.5223 99.7143C37.9143 99.2463 39.1323 98.5803 40.1763 97.7163C41.1723 96.9003 41.6703 95.9583 41.6703 94.8903V93.5043H43.2183V94.8903ZM64.5675 105.762V107.094H50.9955V105.762H57.0255V101.982H58.5375V105.762H64.5675ZM58.5555 95.4663C58.5555 96.8103 59.0835 97.9683 60.1395 98.9403C61.2795 99.9843 62.5335 100.71 63.9015 101.118L63.0735 102.198C61.3455 101.622 59.8995 100.716 58.7355 99.4803C58.3515 99.0843 58.0335 98.6643 57.7815 98.2203C57.5295 98.6643 57.2115 99.0843 56.8275 99.4803C55.6635 100.716 54.2175 101.622 52.4895 102.198L51.6615 101.118C53.0175 100.71 54.2655 99.9843 55.4055 98.9403C56.4735 97.9683 57.0075 96.8103 57.0075 95.4663V93.9183H58.5555V95.4663ZM82.8365 98.5263H80.7125V102.288C81.0005 102.336 81.2765 102.414 81.5405 102.522C82.0205 102.714 82.4405 102.978 82.8005 103.314C83.1605 103.65 83.4425 104.04 83.6465 104.484C83.8625 104.916 83.9705 105.384 83.9705 105.888C83.9705 106.392 83.8625 106.866 83.6465 107.31C83.4425 107.742 83.1605 108.126 82.8005 108.462C82.4405 108.798 82.0145 109.062 81.5225 109.254C81.0425 109.446 80.5265 109.542 79.9745 109.542C79.4225 109.542 78.9005 109.446 78.4085 109.254C77.9285 109.062 77.5085 108.798 77.1485 108.462C76.7885 108.126 76.5005 107.742 76.2845 107.31C76.0805 106.866 75.9785 106.392 75.9785 105.888C75.9785 105.384 76.0805 104.916 76.2845 104.484C76.5005 104.04 76.7885 103.65 77.1485 103.314C77.5085 102.978 77.9345 102.714 78.4265 102.522C78.6905 102.414 78.9665 102.336 79.2545 102.288V93.4503H80.7125V97.2123H82.8365V93.4503H84.3125V102.414H82.8365V98.5263ZM82.4585 105.888C82.4585 105.564 82.3925 105.258 82.2605 104.97C82.1285 104.682 81.9485 104.43 81.7205 104.214C81.4925 103.998 81.2285 103.83 80.9285 103.71C80.6285 103.578 80.3105 103.512 79.9745 103.512C79.6385 103.512 79.3205 103.578 79.0205 103.71C78.7205 103.83 78.4565 103.998 78.2285 104.214C78.0005 104.43 77.8205 104.682 77.6885 104.97C77.5565 105.258 77.4905 105.564 77.4905 105.888C77.4905 106.212 77.5565 106.518 77.6885 106.806C77.8205 107.094 78.0005 107.346 78.2285 107.562C78.4565 107.778 78.7205 107.946 79.0205 108.066C79.3205 108.198 79.6385 108.264 79.9745 108.264C80.3105 108.264 80.6285 108.198 80.9285 108.066C81.2285 107.946 81.4925 107.778 81.7205 107.562C81.9485 107.346 82.1285 107.094 82.2605 106.806C82.3925 106.518 82.4585 106.212 82.4585 105.888ZM75.4385 95.5383C75.4385 96.8823 75.7145 97.9983 76.2665 98.8863C76.8545 99.7623 77.5085 100.5 78.2285 101.1L77.2745 102C76.4825 101.34 75.7625 100.542 75.1145 99.6063C74.9705 99.3903 74.8385 99.1563 74.7185 98.9043C74.5865 99.1683 74.4425 99.4143 74.2865 99.6423C73.4945 100.83 72.6845 101.73 71.8565 102.342L70.8305 101.406C71.6585 100.806 72.4145 99.9543 73.0985 98.8503C73.6865 97.9263 73.9805 96.8163 73.9805 95.5203V93.8463H75.4385V95.5383ZM98.3718 93.4503V97.5903H100.532V98.9583H98.3718V104.52H96.8598V93.4503H98.3718ZM98.8218 108.732H89.0658V104.088H90.6138V107.382H98.8218V108.732ZM91.5858 95.2863C91.5858 96.8103 91.9338 98.0583 92.6298 99.0303C93.4218 100.122 94.3278 100.992 95.3478 101.64L94.4478 102.648C93.4038 102 92.3958 101.046 91.4238 99.7863C91.1838 99.4743 90.9738 99.1443 90.7938 98.7963C90.6138 99.1683 90.4038 99.5283 90.1638 99.8763C89.2398 101.196 88.2438 102.198 87.1758 102.882L86.1678 101.892C87.2238 101.256 88.1598 100.338 88.9758 99.1383C89.6838 98.1063 90.0378 96.8223 90.0378 95.2863V93.8463H91.5858V95.2863ZM109.425 99.1383C109.365 99.4383 109.281 99.7203 109.173 99.9843C108.957 100.476 108.669 100.902 108.309 101.262C107.925 101.634 107.487 101.928 106.995 102.144C106.515 102.36 105.999 102.468 105.447 102.468C104.895 102.468 104.373 102.36 103.881 102.144C103.401 101.928 102.969 101.634 102.585 101.262C102.225 100.902 101.937 100.482 101.721 100.002C101.517 99.5103 101.415 98.9823 101.415 98.4183C101.415 97.8543 101.517 97.3323 101.721 96.8523C101.937 96.3603 102.225 95.9343 102.585 95.5743C102.969 95.2023 103.401 94.9083 103.881 94.6923C104.373 94.4763 104.895 94.3683 105.447 94.3683C105.999 94.3683 106.515 94.4763 106.995 94.6923C107.487 94.9083 107.925 95.2023 108.309 95.5743C108.669 95.9343 108.957 96.3543 109.173 96.8343C109.281 97.1103 109.365 97.3983 109.425 97.6983H110.991V93.4503H112.395V108.732H110.991V99.1383H109.425ZM108.057 98.4183C108.057 98.0583 107.991 97.7103 107.859 97.3743C107.727 97.0383 107.547 96.7503 107.319 96.5103C107.079 96.2583 106.797 96.0603 106.473 95.9163C106.161 95.7603 105.819 95.6823 105.447 95.6823C105.075 95.6823 104.733 95.7603 104.421 95.9163C104.109 96.0603 103.833 96.2583 103.593 96.5103C103.365 96.7503 103.179 97.0383 103.035 97.3743C102.903 97.7103 102.837 98.0583 102.837 98.4183C102.837 98.7783 102.903 99.1263 103.035 99.4623C103.179 99.7983 103.365 100.086 103.593 100.326C103.833 100.578 104.109 100.782 104.421 100.938C104.733 101.082 105.075 101.154 105.447 101.154C105.819 101.154 106.161 101.082 106.473 100.938C106.797 100.782 107.079 100.578 107.319 100.326C107.547 100.086 107.727 99.7983 107.859 99.4623C107.991 99.1263 108.057 98.7783 108.057 98.4183ZM114.033 93.4503H115.473V108.732H114.033V93.4503ZM126.758 93.1983H128.342V94.9623H131.654V96.2763H128.324V96.8343C128.324 97.7463 128.78 98.5803 129.692 99.3363C130.508 100.02 131.294 100.476 132.05 100.704L131.33 101.838C130.274 101.454 129.296 100.842 128.396 100.002C128.048 99.6783 127.754 99.3483 127.514 99.0123C127.298 99.3123 127.046 99.6063 126.758 99.8943C125.786 100.866 124.784 101.556 123.752 101.964L122.888 100.956C123.74 100.62 124.634 100.014 125.57 99.1383C126.374 98.3943 126.776 97.6143 126.776 96.7983V96.2763H123.374V94.9623H126.758V93.1983ZM126.83 101.604H128.324V104.574H128.36C130.46 104.574 132.194 104.484 133.562 104.304V93.4503H135.056V108.732H133.562V105.582C132.266 105.774 130.538 105.87 128.378 105.87H122.366V104.574H126.83V101.604ZM150.177 93.4503V102.018H148.665V98.5443H145.839V97.2843H148.665V93.4503H150.177ZM148.665 108.93V104.88H140.511V103.566H150.177V108.93H148.665ZM141.321 96.4563V95.3763H138.153V94.0623H146.199V95.3763H142.869V96.5463C142.869 97.4463 143.229 98.2623 143.949 98.9943C144.777 99.8343 145.695 100.446 146.703 100.83L145.947 101.874C144.651 101.286 143.559 100.536 142.671 99.6243C142.455 99.3963 142.263 99.1683 142.095 98.9403C141.975 99.1323 141.831 99.3243 141.663 99.5163C140.643 100.728 139.617 101.58 138.585 102.072L137.649 101.064C138.657 100.608 139.587 99.8703 140.439 98.8503C141.027 98.1423 141.321 97.3443 141.321 96.4563ZM157.001 94.8183V93.2343H158.621V94.8183H162.203V96.0063H160.115C160.247 96.1023 160.373 96.2043 160.493 96.3123C160.829 96.6243 161.093 96.9963 161.285 97.4283C161.489 97.8603 161.591 98.3103 161.591 98.7783C161.591 99.2463 161.489 99.6963 161.285 100.128C161.093 100.548 160.829 100.914 160.493 101.226C160.145 101.55 159.743 101.802 159.287 101.982C159.059 102.078 158.819 102.144 158.567 102.18V104.574C160.451 104.574 162.089 104.484 163.481 104.304V93.4503H164.975V99.2103H167.135V100.65H164.975V108.732H163.481V105.564C162.149 105.768 160.463 105.87 158.423 105.87H152.735V104.574H157.091V102.198C156.827 102.15 156.575 102.078 156.335 101.982C155.879 101.802 155.477 101.55 155.129 101.226C154.793 100.914 154.523 100.548 154.319 100.128C154.127 99.6963 154.031 99.2463 154.031 98.7783C154.031 98.3103 154.127 97.8603 154.319 97.4283C154.523 96.9963 154.793 96.6243 155.129 96.3123C155.249 96.2043 155.375 96.1023 155.507 96.0063H153.311V94.8183H157.001ZM160.097 98.7243C160.097 98.1003 159.869 97.5663 159.413 97.1223C158.969 96.6663 158.435 96.4383 157.811 96.4383C157.187 96.4383 156.647 96.6663 156.191 97.1223C155.747 97.5663 155.525 98.1003 155.525 98.7243C155.525 99.3483 155.747 99.8883 156.191 100.344C156.647 100.788 157.187 101.01 157.811 101.01C158.435 101.01 158.969 100.788 159.413 100.344C159.869 99.8883 160.097 99.3483 160.097 98.7243ZM177.324 99.4983H174.39V101.694C176.31 101.694 178.008 101.598 179.484 101.406V93.4503H180.978V104.808H179.484V102.666C177.972 102.87 176.202 102.972 174.174 102.972H168.288V101.694H172.896V99.4983H169.602V93.9543H177.252V95.2503H171.114V98.2023H177.324V99.4983ZM181.446 108.732H171.186V104.736H172.752V107.418H181.446V108.732ZM202.217 99.9843V101.208H188.645V99.9843H194.657V98.1843H196.205V99.9843H202.217ZM200.669 108.732H190.373V105.042H198.977V103.8H190.373V102.576H200.489V106.266H191.885V107.508H200.669V108.732ZM196.187 94.2423C196.187 94.9503 196.781 95.7243 197.969 96.5643C198.857 97.1643 199.997 97.6023 201.389 97.8783L200.723 98.9943C199.211 98.6823 197.885 98.1303 196.745 97.3383C196.193 96.9543 195.755 96.5583 195.431 96.1503C195.107 96.5583 194.669 96.9543 194.117 97.3383C192.977 98.1183 191.651 98.6643 190.139 98.9763L189.473 97.8783C190.865 97.6023 192.005 97.1643 192.893 96.5643C194.081 95.7243 194.675 94.9503 194.675 94.2423V93.3783H196.187V94.2423ZM215.916 101.46H205.71V96.9783H214.314V95.1063H205.71V93.8103H215.826V98.2563H207.222V100.164H215.916V101.46ZM211.524 104.61V109.02H210.012V104.61H203.982V103.35H217.554V104.61H211.524ZM231.847 93.4503V104.52H230.335V99.8943H227.563V98.6163H230.335V96.5103H227.563V95.2323H230.335V93.4503H231.847ZM232.315 108.732H222.541V104.178H224.089V107.4H232.315V108.732ZM224.449 95.4843C224.449 96.8883 224.803 98.1303 225.511 99.2103C226.255 100.338 227.119 101.22 228.103 101.856L227.149 102.846C226.129 102.162 225.175 101.184 224.287 99.9123C224.059 99.5883 223.861 99.2523 223.693 98.9043C223.501 99.2883 223.279 99.6603 223.027 100.02C222.091 101.328 221.095 102.306 220.039 102.954L219.049 101.964C220.081 101.364 221.011 100.47 221.839 99.2823C222.547 98.2743 222.901 97.0083 222.901 95.4843V93.8463H224.449V95.4843ZM242.793 97.4823C242.793 97.9863 242.685 98.4663 242.469 98.9223C242.265 99.3783 241.983 99.7683 241.623 100.092C241.251 100.44 240.819 100.716 240.327 100.92C239.847 101.112 239.331 101.208 238.779 101.208C238.227 101.208 237.705 101.112 237.213 100.92C236.733 100.716 236.307 100.44 235.935 100.092C235.575 99.7683 235.287 99.3783 235.071 98.9223C234.867 98.4663 234.765 97.9863 234.765 97.4823C234.765 96.9783 234.867 96.4983 235.071 96.0423C235.287 95.5863 235.575 95.1963 235.935 94.8723C236.307 94.5243 236.733 94.2543 237.213 94.0623C237.705 93.8583 238.227 93.7563 238.779 93.7563C239.331 93.7563 239.847 93.8583 240.327 94.0623C240.819 94.2543 241.251 94.5243 241.623 94.8723C241.983 95.1963 242.265 95.5863 242.469 96.0423C242.685 96.4983 242.793 96.9783 242.793 97.4823ZM241.281 97.4823C241.281 96.8103 241.035 96.2343 240.543 95.7543C240.051 95.2743 239.463 95.0343 238.779 95.0343C238.095 95.0343 237.507 95.2743 237.015 95.7543C236.523 96.2343 236.277 96.8103 236.277 97.4823C236.277 98.1543 236.523 98.7303 237.015 99.2103C237.507 99.6903 238.095 99.9303 238.779 99.9303C239.463 99.9303 240.051 99.6903 240.543 99.2103C241.035 98.7303 241.281 98.1543 241.281 97.4823ZM247.185 93.4503V101.514H245.673V93.4503H247.185ZM247.185 108.732H237.699V102.558H239.193V103.962H245.691V102.558H247.185V108.732ZM245.691 107.508V105.168H239.193V107.508H245.691ZM251.272 104.466V94.0623H252.784V103.098H255.736C257.776 103.098 259.534 102.972 261.01 102.72V93.4503H262.522V108.732H261.01V104.106C259.606 104.346 257.86 104.466 255.772 104.466H251.272ZM266.285 104.736V94.1343H272.837V95.5023H267.797V103.368H269.849C271.793 103.368 273.653 103.194 275.429 102.846V93.4503H276.941V98.5623H279.317V99.9663H276.941V108.732H275.429V104.214C273.749 104.562 271.931 104.736 269.975 104.736H266.285ZM281.425 107.256V105.132H283.621V107.256H281.425Z" fill="black"/>
</svg>
