<svg width="243" height="25" viewBox="0 0 243 25" fill="none" xmlns="http://www.w3.org/2000/svg">
<path d="M3.02378 9.96831H11.7878V2.01631H14.8118V21.0283H11.7878V12.6843H3.02378V21.0283H-0.00021863V2.01631H3.02378V9.96831ZM26.2445 21.0283H23.2205V4.76031H17.0885V2.01631H32.3765V4.76031H26.2445V21.0283ZM39.4894 16.4643L43.4374 2.01631H46.4894L50.2974 16.4643L54.0774 2.01631H57.0454L51.8934 21.0283H48.9254L44.9494 6.24431L40.9174 21.0283H38.0054L32.8814 2.01631H35.8494L39.4894 16.4643ZM61.4224 11.5363C61.4224 13.739 62.0104 15.4563 63.1864 16.6883C64.3624 17.9016 65.8557 18.5083 67.6664 18.5083C69.477 18.5083 70.961 17.9016 72.1184 16.6883C73.2944 15.4563 73.8824 13.739 73.8824 11.5363C73.8824 9.33365 73.2944 7.62565 72.1184 6.41231C70.961 5.18031 69.477 4.56431 67.6664 4.56431C65.8557 4.56431 64.3624 5.18031 63.1864 6.41231C62.0104 7.62565 61.4224 9.33365 61.4224 11.5363ZM58.4264 11.5363C58.4264 8.71765 59.285 6.40298 61.0024 4.59231C62.7197 2.76298 64.941 1.84831 67.6664 1.84831C70.3917 1.84831 72.613 2.76298 74.3304 4.59231C76.0664 6.40298 76.9344 8.71765 76.9344 11.5363C76.9344 14.355 76.0664 16.679 74.3304 18.5083C72.613 20.319 70.3917 21.2243 67.6664 21.2243C64.941 21.2243 62.7197 20.319 61.0024 18.5083C59.285 16.679 58.4264 14.355 58.4264 11.5363ZM94.0925 7.25231C94.0925 8.12965 93.9151 8.96031 93.5605 9.74431C93.2058 10.5283 92.7205 11.2096 92.1045 11.7883C91.4885 12.367 90.7698 12.8336 89.9485 13.1883C89.1458 13.5243 88.2871 13.6923 87.3725 13.6923C86.4578 13.6923 85.5898 13.5243 84.7685 13.1883C83.9658 12.8336 83.2565 12.367 82.6405 11.7883C82.0245 11.2096 81.5391 10.5283 81.1845 9.74431C80.8298 8.96031 80.6525 8.12965 80.6525 7.25231C80.6525 6.37498 80.8298 5.54431 81.1845 4.76031C81.5391 3.97631 82.0245 3.29498 82.6405 2.71631C83.2565 2.13765 83.9658 1.68031 84.7685 1.34431C85.5898 0.989645 86.4578 0.812312 87.3725 0.812312C88.2871 0.812312 89.1458 0.989645 89.9485 1.34431C90.7698 1.68031 91.4885 2.13765 92.1045 2.71631C92.7205 3.29498 93.2058 3.97631 93.5605 4.76031C93.9151 5.54431 94.0925 6.37498 94.0925 7.25231ZM91.0965 7.25231C91.0965 6.72964 90.9938 6.24431 90.7885 5.79631C90.5831 5.32965 90.3125 4.92831 89.9765 4.59231C89.6405 4.25631 89.2485 3.98565 88.8005 3.78031C88.3525 3.57498 87.8765 3.47231 87.3725 3.47231C86.8685 3.47231 86.3925 3.57498 85.9445 3.78031C85.4965 3.98565 85.1045 4.25631 84.7685 4.59231C84.4325 4.92831 84.1618 5.32965 83.9565 5.79631C83.7511 6.24431 83.6485 6.72964 83.6485 7.25231C83.6485 7.77498 83.7511 8.26965 83.9565 8.73631C84.1618 9.18431 84.4325 9.57631 84.7685 9.91231C85.1045 10.2483 85.4965 10.519 85.9445 10.7243C86.3925 10.9296 86.8685 11.0323 87.3725 11.0323C87.8765 11.0323 88.3525 10.9296 88.8005 10.7243C89.2485 10.519 89.6405 10.2483 89.9765 9.91231C90.3125 9.57631 90.5831 9.18431 90.7885 8.73631C90.9938 8.26965 91.0965 7.77498 91.0965 7.25231ZM99.5525 0.000310898V24.4443H96.5565V19.1243C94.3165 19.4043 91.7125 19.5443 88.7445 19.5443H79.1405V16.8003H88.6885C91.5631 16.8003 94.1858 16.679 96.5565 16.4363V0.000310898H99.5525ZM111.675 2.01631H117.499C119.422 2.01631 120.915 2.24964 121.979 2.71631C122.67 3.01498 123.276 3.43498 123.799 3.97631C124.788 5.07765 125.283 6.43098 125.283 8.03631C125.283 9.64165 124.788 10.995 123.799 12.0963C123.276 12.6376 122.67 13.0576 121.979 13.3563C120.952 13.8043 119.459 14.0283 117.499 14.0283H114.699V21.0283H111.675V2.01631ZM114.699 11.2843H118.255C119.543 11.2843 120.542 10.967 121.251 10.3323C121.904 9.73498 122.231 8.96965 122.231 8.03631C122.231 7.08431 121.904 6.30964 121.251 5.71231C120.542 5.07765 119.543 4.76031 118.255 4.76031H114.699V11.2843ZM131.283 18.2843H140.635V21.0283H128.259V2.01631H140.439V4.76031H131.283V9.96831H139.571V12.6843H131.283V18.2843ZM154.362 21.0283H152.318L146.634 6.69231V21.0283H143.778V2.01631H147.474L153.354 16.3803L159.206 2.01631H162.902V21.0283H160.018V6.69231L154.362 21.0283ZM186.128 16.8843V24.8923H183.104V16.8843H173.724V14.1403H195.508V16.8843H186.128ZM186.156 2.35231C186.156 4.06964 186.893 5.53498 188.368 6.74831C189.954 8.05498 191.952 9.10965 194.36 9.91231L192.736 12.0963C190.178 11.3123 188.022 10.155 186.268 8.62431C185.614 8.06431 185.064 7.47631 184.616 6.86031C184.168 7.47631 183.617 8.06431 182.964 8.62431C181.209 10.155 179.053 11.3123 176.496 12.0963L174.872 9.91231C177.28 9.10965 179.277 8.05498 180.864 6.74831C182.338 5.53498 183.076 4.06964 183.076 2.35231V0.112311H186.156V2.35231ZM217.742 0.000310898V17.8923H214.718V9.10031H210.322V6.35631H214.718V0.000310898H217.742ZM218.47 24.4443H202.594V16.7443H205.674V21.7563H218.47V24.4443ZM203.294 4.92831V3.69631H198.366V0.980312H211.554V3.69631H206.374V5.34831C206.374 6.89765 206.896 8.25098 207.942 9.40831C209.192 10.8083 210.686 11.9656 212.422 12.8803L210.798 15.0083C208.614 13.8883 206.775 12.4416 205.282 10.6683C205.17 10.5376 205.058 10.3976 204.946 10.2483C204.722 10.6216 204.46 10.9856 204.162 11.3403C202.5 13.319 200.811 14.6443 199.094 15.3163L197.218 13.1883C199.01 12.4043 200.559 11.1816 201.866 9.52031C202.818 8.30698 203.294 6.77631 203.294 4.92831ZM225.864 2.60431V0.000310898H229.056V2.60431H233.872V5.12431H231.604C231.697 5.19898 231.79 5.28298 231.884 5.37631C232.462 5.95498 232.92 6.62698 233.256 7.39231C233.592 8.15764 233.76 8.96964 233.76 9.82831C233.76 10.687 233.592 11.499 233.256 12.2643C232.92 13.0296 232.462 13.7016 231.884 14.2803C231.324 14.8403 230.652 15.2883 229.868 15.6243C229.102 15.9603 228.29 16.1283 227.432 16.1283C226.573 16.1283 225.752 15.9603 224.968 15.6243C224.202 15.2883 223.54 14.8403 222.98 14.2803C222.401 13.7016 221.944 13.0296 221.608 12.2643C221.272 11.499 221.104 10.687 221.104 9.82831C221.104 8.96964 221.272 8.15764 221.608 7.39231C221.944 6.62698 222.401 5.95498 222.98 5.37631C223.073 5.28298 223.166 5.19898 223.26 5.12431H220.908V2.60431H225.864ZM230.988 9.74431C230.988 8.73631 230.642 7.87765 229.952 7.16831C229.261 6.44031 228.43 6.07631 227.46 6.07631C226.489 6.07631 225.658 6.44031 224.968 7.16831C224.277 7.87765 223.932 8.73631 223.932 9.74431C223.932 10.7523 224.277 11.6203 224.968 12.3483C225.658 13.0576 226.489 13.4123 227.46 13.4123C228.43 13.4123 229.261 13.0576 229.952 12.3483C230.642 11.6203 230.988 10.7523 230.988 9.74431ZM240.144 0.000310898H242.972V24.4443H240.144V9.99631H238.072V24.4443H235.272V0.000310898H238.072V7.25231H240.144V0.000310898Z" fill="black"/>
</svg>
