<svg width="50" height="50" viewBox="0 0 50 50" fill="none" xmlns="http://www.w3.org/2000/svg">
<g clip-path="url(#clip0_889_7161)">
<path fill-rule="evenodd" clip-rule="evenodd" d="M36.8933 44.3914V32.3332L26.0495 26.0738L15.2057 32.3332V44.3947C18.3618 46.3133 22.074 47.4158 26.0495 47.4158C30.025 47.4158 33.7307 46.31 36.8933 44.3881M7.74833 36.6378C8.99891 38.8954 10.6609 40.8964 12.6256 42.5452V33.824L7.74833 36.6378ZM4.8753 36.6971C4.86871 36.6773 4.85884 36.6576 4.84897 36.6378L4.8753 36.6971ZM39.4768 33.824V42.5419C39.9474 42.1469 40.4048 41.729 40.8392 41.2946C42.2149 39.9189 43.3996 38.3524 44.3507 36.6378L39.4768 33.824ZM6.66889 7.56523C5.08263 7.08145 3.4503 6.58122 1.53494 6.80501C1.18281 6.87412 0.79776 6.79514 0.491698 6.55489C-0.0677702 6.1139 -0.163209 5.30432 0.274493 4.74485C2.11086 2.40825 4.39152 0.963504 6.66889 0.348089C8.02806 -0.0205023 9.39053 -0.092904 10.6641 0.114428C11.9707 0.331634 13.1785 0.841737 14.1855 1.63157C15.2419 2.4609 16.0745 3.58642 16.5715 4.99826C19.4708 3.71806 22.6763 3.00721 26.0462 3.00721C32.5328 3.00721 38.4072 5.63671 42.6591 9.88867C46.9111 14.1406 49.5406 20.015 49.5406 26.5016C49.5406 32.9881 46.9111 38.8625 42.6591 43.1145C41.5172 44.2532 40.2633 45.28 38.9074 46.1652C38.891 46.1784 38.8712 46.1883 38.8548 46.2014C35.1721 48.6006 30.7721 49.996 26.0462 49.996C21.3204 49.996 17.1869 48.6796 13.5635 46.4055C13.4747 46.3495 13.3825 46.2903 13.2936 46.2344C13.2311 46.1982 13.1719 46.1619 13.1159 46.1192C9.58799 43.7891 6.72483 40.5344 4.8753 36.7004V36.6938H4.86871C4.86213 36.674 4.85226 36.6543 4.84239 36.6345C4.81935 36.572 4.79631 36.5095 4.77986 36.4502C4.77328 36.4173 4.76669 36.3844 4.76011 36.3548L4.75353 36.3252L4.75024 36.2956V36.2659V36.233V36.2034V36.1705V36.108V36.0751V36.0455V36.0158V35.9928V35.9862L4.75353 35.9566L4.75682 35.927V35.9204L4.7634 35.8941L4.76998 35.8644L4.77657 35.8348V35.8282L4.78644 35.7986L4.79302 35.7723L4.7996 35.7427V35.7361C4.82593 35.6604 4.85555 35.5847 4.89504 35.5156C4.92137 35.4597 4.95757 35.407 4.99377 35.3576L5.01023 35.3313L5.02668 35.3083L5.04643 35.2852L5.06617 35.2589L5.08592 35.2359L5.10567 35.2128L5.12541 35.1898L5.14845 35.17L5.17148 35.147L5.19452 35.1273L5.22085 35.1042L5.24718 35.0845L5.27351 35.0647L5.29983 35.045L5.32616 35.0285L5.35249 35.0121L13.1521 30.5067C13.2015 30.4738 13.2542 30.4442 13.3101 30.4179L25.3485 23.4673L25.365 23.4574L25.3913 23.4443L25.4012 23.4377L25.4209 23.4278L25.4473 23.4113L25.4604 23.4048L25.4703 23.3982H25.4769V23.3949L25.4933 23.3883L25.5328 23.3718L25.5559 23.362H25.5625H25.5657L25.5888 23.3554H25.5954L25.5987 23.3521L25.6217 23.3455H25.6283L25.6447 23.3389L25.6579 23.3324H25.6645L25.6842 23.3258H25.6908L25.7073 23.3192H25.7204L25.727 23.3159L25.7468 23.3093L25.7731 23.3027H25.7862L25.806 23.2962H25.829L25.8389 23.2896H25.8685L25.8916 23.283H25.9343H25.9738H26.0331H26.0364H26.0759H26.0824C26.2174 23.2896 26.3556 23.3225 26.4839 23.3751C26.507 23.385 26.5333 23.3982 26.5563 23.4081H26.5596L26.5794 23.4179H26.5827L26.5958 23.4245L26.609 23.4311L26.6123 23.4344L26.6287 23.4443L26.6485 23.4541L32.5229 26.8438L45.4005 34.2782C46.3714 31.8692 46.9045 29.2364 46.9045 26.4785C46.9045 20.7029 44.5613 15.4768 40.78 11.6921C36.9954 7.90749 31.766 5.5676 25.9936 5.5676C22.979 5.5676 20.1126 6.20605 17.5259 7.35131C15.028 8.46038 12.7868 10.0401 10.9176 11.985C11.5758 16.6451 9.69989 19.3141 7.77466 22.0555C6.58332 23.7536 5.36565 25.488 4.92795 27.7522C4.86542 28.078 4.67784 28.3807 4.38165 28.5782C3.79256 28.9731 2.99285 28.8151 2.59793 28.2261C0.820797 25.511 0.0967793 22.5623 0.238292 19.8702C0.33044 18.1556 0.76485 16.543 1.48887 15.1543C2.22605 13.7358 3.266 12.5412 4.5462 11.6855C5.83956 10.8233 7.35999 10.3198 9.04498 10.2902C9.66369 9.63855 10.3219 9.02314 11.013 8.4505C9.47281 8.41759 8.0873 7.99635 6.66889 7.56194V7.56523ZM4.34545 4.3236C5.43476 4.50132 6.43193 4.80409 7.41594 5.10357C9.43332 5.71898 11.3717 6.31136 13.9025 5.28128C13.5767 4.61979 13.1291 4.07678 12.596 3.65882C11.9312 3.13885 11.1282 2.79988 10.2528 2.65507C9.34117 2.50369 8.34729 2.56292 7.33696 2.83608C6.32662 3.10923 5.30971 3.60288 4.34545 4.32031V4.3236ZM35.1985 13.5384C37.6437 13.5384 39.6281 15.5228 39.6281 17.968C39.6281 20.4133 37.6437 22.3977 35.1985 22.3977C32.7533 22.3977 30.7688 20.4133 30.7688 17.968C30.7688 15.5228 32.7533 13.5384 35.1985 13.5384ZM20.5931 13.9695C20.6424 14.3249 21.1756 14.3249 21.2282 13.9695C21.3434 13.1764 21.972 12.5478 22.7684 12.4326C23.1238 12.3799 23.1238 11.8501 22.7684 11.7974C21.972 11.6823 21.3467 11.0537 21.2282 10.2605C21.1756 9.90512 20.6424 9.90512 20.5931 10.2605C20.4779 11.057 19.8493 11.6823 19.0562 11.7974C18.7007 11.8501 18.7007 12.3832 19.0562 12.4326C19.8493 12.5478 20.4779 13.1764 20.5931 13.9695ZM16.2884 20.9102C16.3148 21.0978 16.5978 21.0978 16.6274 20.9102C16.6899 20.4889 17.0223 20.1566 17.4403 20.0973C17.6279 20.0677 17.6279 19.788 17.4403 19.7583C17.019 19.6958 16.6867 19.3634 16.6274 18.9455C16.6011 18.7579 16.3181 18.7579 16.2884 18.9455C16.2259 19.3667 15.8935 19.6991 15.4756 19.7583C15.288 19.7847 15.288 20.0677 15.4756 20.0973C15.8968 20.1598 16.2292 20.4922 16.2884 20.9102ZM43.4621 27.6863C43.4918 27.8937 43.8011 27.8937 43.8307 27.6863C43.8998 27.2256 44.2619 26.8603 44.7226 26.7945C44.9299 26.7649 44.9299 26.4555 44.7226 26.4259C44.2619 26.3601 43.8966 25.9948 43.8307 25.534C43.8011 25.3267 43.4918 25.3267 43.4621 25.534C43.393 25.9948 43.031 26.3601 42.5703 26.4259C42.363 26.4555 42.363 26.7649 42.5703 26.7945C43.031 26.8603 43.3963 27.2256 43.4621 27.6863ZM24.5587 20.2257C24.5949 20.4659 24.9536 20.4659 24.9898 20.2257C25.0688 19.6859 25.4966 19.2581 26.0364 19.1791C26.2766 19.1429 26.2766 18.7809 26.0364 18.748C25.4966 18.669 25.0721 18.2412 24.9898 17.7048C24.9536 17.4612 24.5949 17.4612 24.5587 17.7048C24.4797 18.2445 24.0519 18.669 23.5122 18.748C23.2686 18.7842 23.2686 19.1429 23.5122 19.1791C24.0519 19.2581 24.4797 19.6859 24.5587 20.2257ZM23.5648 36.5786V35.1042C23.5648 34.9002 23.7294 34.7356 23.9334 34.7356H25.4078C25.6118 34.7356 25.7764 34.9002 25.7764 35.1042V36.5786C25.7764 36.7826 25.6118 36.9472 25.4078 36.9472H23.9334C23.7327 36.9472 23.5648 36.7826 23.5648 36.5786ZM25.4078 34.1893H23.9334C23.7327 34.1893 23.5648 34.0248 23.5648 33.8207V32.3464C23.5648 32.1456 23.7294 31.9778 23.9334 31.9778H25.4078C25.6118 31.9778 25.7764 32.1423 25.7764 32.3464V33.8207C25.7764 34.0215 25.6118 34.1893 25.4078 34.1893ZM26.3227 33.8207V32.3464C26.3227 32.1456 26.4872 31.9778 26.6913 31.9778H28.1656C28.3664 31.9778 28.5342 32.1423 28.5342 32.3464V33.8207C28.5342 34.0215 28.3697 34.1893 28.1656 34.1893H26.6913C26.4872 34.1893 26.3227 34.0248 26.3227 33.8207ZM28.1656 36.9472H26.6913C26.4872 36.9472 26.3227 36.7826 26.3227 36.5786V35.1042C26.3227 34.9002 26.4872 34.7356 26.6913 34.7356H28.1656C28.3664 34.7356 28.5342 34.9002 28.5342 35.1042V36.5786C28.5342 36.7826 28.3697 36.9472 28.1656 36.9472ZM3.46675 24.2308C4.1085 22.8947 4.91808 21.7395 5.72108 20.5975C7.26126 18.4025 8.76195 16.2666 8.48222 12.9098C7.55087 13.0184 6.70838 13.3409 5.97778 13.828C5.06946 14.4335 4.32241 15.3023 3.77611 16.3489C3.21664 17.4217 2.87767 18.6723 2.80855 20.0052C2.73944 21.3611 2.94019 22.8025 3.46346 24.2341L3.46675 24.2308Z" fill="white"/>
</g>
<defs>
<clipPath id="clip0_889_7161">
<rect width="49.5426" height="50" fill="white"/>
</clipPath>
</defs>
</svg>
