<svg width="49" height="60" viewBox="0 0 49 60" fill="none" xmlns="http://www.w3.org/2000/svg">
<g clip-path="url(#clip0_889_7138)">
<path fill-rule="evenodd" clip-rule="evenodd" d="M23.6136 57.1042L13.3062 31.395L3.69781 33.2629L17.4568 57.1002H23.6136V57.1042ZM35.6823 57.1042L26.7058 27.5722C26.6781 27.4932 26.6544 27.4142 26.6386 27.3313C26.4886 26.5454 27.002 25.7911 27.7879 25.641L40.8399 23.1017L9.53471 14.2239L15.5177 29.1518C15.5335 29.1913 15.5493 29.2308 15.5651 29.2664L26.7255 57.1002H35.6823V57.1042ZM29.9007 28.1685L37.5384 53.2972L45.0616 25.2185L29.8967 28.1685H29.9007ZM26.1845 15.9418L40.753 20.0727L23.033 5.57519L26.1845 15.9418ZM15.3084 59.1538L0.190934 32.951C-0.203985 32.2599 0.0329666 31.3792 0.724074 30.9843C0.866245 30.9013 1.01631 30.846 1.17033 30.8184L12.2162 28.6661L5.77903 12.6166C5.64871 12.3204 5.61317 11.9768 5.70795 11.6411C5.92515 10.8711 6.72289 10.4248 7.48903 10.642L22.883 15.0059L18.9259 1.97748C18.7403 1.50358 18.8074 0.950693 19.151 0.52813C19.6565 -0.0918921 20.5687 -0.182723 21.1888 0.322773L47.9761 22.2368C48.446 22.6199 48.6119 23.2399 48.4421 23.7849L39.047 58.8458C38.9088 59.5013 38.3282 59.995 37.6292 59.995H16.6274C16.043 59.995 15.5375 59.6475 15.3084 59.1499V59.1538Z" fill="white"/>
</g>
<defs>
<clipPath id="clip0_889_7138">
<rect width="48.5079" height="60" fill="white"/>
</clipPath>
</defs>
</svg>
