<svg width="131" height="15" viewBox="0 0 131 15" fill="none" xmlns="http://www.w3.org/2000/svg">
<path d="M7.59375 3.92188C7.59375 4.41146 7.48958 4.875 7.28125 5.3125C7.08333 5.73958 6.8125 6.11458 6.46875 6.4375C6.125 6.75 5.72396 7 5.26562 7.1875C4.80729 7.375 4.31771 7.46875 3.79688 7.46875C3.27604 7.46875 2.78646 7.375 2.32812 7.1875C1.86979 7 1.46875 6.75 1.125 6.4375C0.78125 6.11458 0.505208 5.73958 0.296875 5.3125C0.0989583 4.875 0 4.41146 0 3.92188C0 3.43229 0.0989583 2.97396 0.296875 2.54688C0.505208 2.10938 0.78125 1.72917 1.125 1.40625C1.46875 1.08333 1.86979 0.833333 2.32812 0.65625C2.78646 0.46875 3.27604 0.375 3.79688 0.375C4.31771 0.375 4.80729 0.46875 5.26562 0.65625C5.72396 0.833333 6.125 1.08333 6.46875 1.40625C6.8125 1.72917 7.08333 2.10938 7.28125 2.54688C7.48958 2.97396 7.59375 3.43229 7.59375 3.92188ZM5.85938 3.92188C5.85938 3.36979 5.65625 2.89583 5.25 2.5C4.84375 2.09375 4.35938 1.89062 3.79688 1.89062C3.23438 1.89062 2.75 2.09375 2.34375 2.5C1.9375 2.89583 1.73438 3.36979 1.73438 3.92188C1.73438 4.47396 1.9375 4.95312 2.34375 5.35938C2.75 5.75521 3.23438 5.95312 3.79688 5.95312C4.35938 5.95312 4.84375 5.75521 5.25 5.35938C5.65625 4.95312 5.85938 4.47396 5.85938 3.92188ZM10.7969 0.046875V3.14062H12.7188V4.71875H10.7969V7.89062H9.07812V0.046875H10.7969ZM9.07812 10.1719H3.70312V12.5H9.07812V10.1719ZM10.7969 14.0156H1.98438V8.65625H10.7969V14.0156ZM22.8206 2.32812H16.8988V6.48438H22.8206V2.32812ZM15.1644 0.78125H24.5394V8.03125H20.7269V10.9844H26.0863V12.5625H13.6331V10.9844H18.9925V8.03125H15.1644V0.78125ZM28.4069 10.2031V0.609375H30.1256V8.64062H32.6413C34.1204 8.64062 35.5944 8.53125 37.0631 8.3125V0.046875H38.7819V14.0156H37.0631V9.90625C35.6881 10.1042 34.1777 10.2031 32.5319 10.2031H28.4069ZM48.8525 4.8125C48.8525 5.35417 48.7431 5.86458 48.5244 6.34375C48.3056 6.82292 48.0088 7.23958 47.6338 7.59375C47.2588 7.95833 46.8213 8.24479 46.3213 8.45312C45.8213 8.66146 45.29 8.76562 44.7275 8.76562C44.165 8.76562 43.6285 8.66146 43.1181 8.45312C42.6181 8.24479 42.1806 7.95833 41.8056 7.59375C41.441 7.23958 41.1494 6.82292 40.9306 6.34375C40.7119 5.86458 40.6025 5.35417 40.6025 4.8125C40.6025 4.27083 40.7119 3.76562 40.9306 3.29688C41.1494 2.81771 41.441 2.39583 41.8056 2.03125C42.1806 1.66667 42.6181 1.38021 43.1181 1.17188C43.6285 0.963542 44.165 0.859375 44.7275 0.859375C45.29 0.859375 45.8213 0.963542 46.3213 1.17188C46.8213 1.38021 47.2588 1.66667 47.6338 2.03125C48.0088 2.39583 48.3056 2.81771 48.5244 3.29688C48.7431 3.76562 48.8525 4.27083 48.8525 4.8125ZM47.1181 4.8125C47.1181 4.47917 47.0556 4.17188 46.9306 3.89062C46.8056 3.59896 46.6338 3.34375 46.415 3.125C46.1963 2.90625 45.941 2.73438 45.6494 2.60938C45.3681 2.48438 45.0608 2.42188 44.7275 2.42188C44.3942 2.42188 44.0817 2.48438 43.79 2.60938C43.5088 2.73438 43.2535 2.90625 43.0244 3.125C42.816 3.34375 42.6442 3.59896 42.5088 3.89062C42.3838 4.17188 42.3213 4.47917 42.3213 4.8125C42.3213 5.14583 42.3838 5.45833 42.5088 5.75C42.6442 6.03125 42.816 6.28646 43.0244 6.51562C43.2535 6.72396 43.5088 6.89583 43.79 7.03125C44.0817 7.15625 44.3942 7.21875 44.7275 7.21875C45.0608 7.21875 45.3681 7.15625 45.6494 7.03125C45.941 6.89583 46.1963 6.72396 46.415 6.51562C46.6338 6.28646 46.8056 6.03125 46.9306 5.75C47.0556 5.45833 47.1181 5.14583 47.1181 4.8125ZM51.8838 0.046875V3.95312H53.7744V5.625H51.8838V14.0156H50.1494V0.046875H51.8838ZM69.6813 0.78125V5C69.6813 7.22917 69.5042 9.08333 69.15 10.5625H71.4156V12.125H58.9625V10.5625H67.4781C67.7073 9.47917 67.8583 8.27083 67.9313 6.9375H60.1969V5.42188H67.9625V2.34375H60.2906V0.78125H69.6813ZM73.205 10.7188V4.8125H76.5488V2.10938H73.205V0.578125H78.205V6.3125H74.8613V9.20312H76.8144C77.8248 9.20312 78.804 9.10938 79.7519 8.92188V0.046875H81.4081V4.71875H82.9081V0.046875H84.5956V14.0156H82.9081V6.28125H81.4081V14.0156H79.7519V10.4531C78.9185 10.6302 77.9342 10.7188 76.7988 10.7188H73.205ZM90.4006 5.04688H86.9788V3.65625H91.385C91.6142 3.16667 91.7392 2.65625 91.76 2.125H87.2288V0.609375H93.7131C93.7131 3.01562 92.9683 4.88542 91.4788 6.21875C90.1246 7.4375 88.6767 8.25 87.135 8.65625L86.2756 7.40625C87.8173 6.92708 89.0413 6.28646 89.9475 5.48438C90.1142 5.33854 90.2652 5.19271 90.4006 5.04688ZM97.7444 0.046875V8.09375H96.0256V0.046875H97.7444ZM97.4788 11.2656C97.4788 11.7448 97.3746 12.1979 97.1663 12.625C96.9683 13.0417 96.6975 13.4062 96.3538 13.7188C96.0204 14.0208 95.6194 14.2656 95.1506 14.4531C94.6923 14.6406 94.2079 14.7344 93.6975 14.7344C93.1871 14.7344 92.7027 14.6406 92.2444 14.4531C91.786 14.2656 91.385 14.0208 91.0413 13.7188C90.7079 13.4062 90.4371 13.0417 90.2288 12.625C90.0308 12.1979 89.9319 11.7448 89.9319 11.2656C89.9319 10.7865 90.0308 10.3385 90.2288 9.92188C90.4371 9.49479 90.7079 9.125 91.0413 8.8125C91.385 8.5 91.786 8.25521 92.2444 8.07812C92.7027 7.89062 93.1871 7.79688 93.6975 7.79688C94.2079 7.79688 94.6923 7.89062 95.1506 8.07812C95.6194 8.25521 96.0204 8.5 96.3538 8.8125C96.6975 9.125 96.9683 9.49479 97.1663 9.92188C97.3746 10.3385 97.4788 10.7865 97.4788 11.2656ZM95.7288 11.2656C95.7288 10.7344 95.5308 10.2812 95.135 9.90625C94.7392 9.52083 94.26 9.32812 93.6975 9.32812C93.1454 9.32812 92.6663 9.52083 92.26 9.90625C91.8642 10.2812 91.6663 10.7344 91.6663 11.2656C91.6663 11.7969 91.8642 12.2552 92.26 12.6406C92.6663 13.0156 93.1454 13.2031 93.6975 13.2031C94.26 13.2031 94.7392 13.0156 95.135 12.6406C95.5308 12.2552 95.7288 11.7969 95.7288 11.2656ZM114.089 0.046875H115.808V14.0156H114.089V0.046875ZM111.667 0.671875C111.667 3.08854 111.058 5.1875 109.839 6.96875C108.787 8.57292 107.365 9.94271 105.573 11.0781L104.386 9.85938C106.073 8.82812 107.391 7.59896 108.339 6.17188C109.203 4.93229 109.677 3.61979 109.761 2.23438H105.136V0.671875H111.667ZM117.925 5.76562H130.378V7.17188H125.034V8.25H128.831V11.7812H121.191V12.6719H129.003V14.0156H119.456V10.4688H127.113V9.57812H119.456V8.25H123.269V7.17188H117.925V5.76562ZM125.019 0.703125C125.019 1.36979 125.519 2.05208 126.519 2.75C127.29 3.27083 128.363 3.68229 129.738 3.98438L128.956 5.26562C127.488 4.93229 126.238 4.41667 125.206 3.71875C124.779 3.41667 124.425 3.10417 124.144 2.78125C123.873 3.10417 123.524 3.41667 123.097 3.71875C122.066 4.41667 120.816 4.93229 119.347 5.26562L118.566 3.98438C119.941 3.68229 121.014 3.27083 121.784 2.75C122.784 2.05208 123.284 1.36979 123.284 0.703125V0H125.019V0.703125Z" fill="black"/>
</svg>
