<svg width="159" height="22" viewBox="0 0 159 22" fill="none" xmlns="http://www.w3.org/2000/svg">
<path d="M5.056 9.656H10.064V5.112H11.792V15.976H10.064V11.208H5.056V15.976H3.328V5.112H5.056V9.656ZM18.325 15.976H16.597V6.68H13.093V5.112H21.829V6.68H18.325V15.976ZM25.8935 13.368L28.1495 5.112H29.8935L32.0695 13.368L34.2295 5.112H35.9255L32.9815 15.976H31.2855L29.0135 7.528L26.7095 15.976H25.0455L22.1175 5.112H23.8135L25.8935 13.368ZM38.4266 10.552C38.4266 11.8107 38.7626 12.792 39.4346 13.496C40.1066 14.1893 40.96 14.536 41.9946 14.536C43.0293 14.536 43.8773 14.1893 44.5386 13.496C45.2106 12.792 45.5466 11.8107 45.5466 10.552C45.5466 9.29333 45.2106 8.31733 44.5386 7.624C43.8773 6.92 43.0293 6.568 41.9946 6.568C40.96 6.568 40.1066 6.92 39.4346 7.624C38.7626 8.31733 38.4266 9.29333 38.4266 10.552ZM36.7146 10.552C36.7146 8.94133 37.2053 7.61867 38.1866 6.584C39.168 5.53867 40.4373 5.016 41.9946 5.016C43.552 5.016 44.8213 5.53867 45.8026 6.584C46.7946 7.61867 47.2906 8.94133 47.2906 10.552C47.2906 12.1627 46.7946 13.4907 45.8026 14.536C44.8213 15.5707 43.552 16.088 41.9946 16.088C40.4373 16.088 39.168 15.5707 38.1866 14.536C37.2053 13.4907 36.7146 12.1627 36.7146 10.552ZM57.0953 8.104C57.0953 8.60533 56.9939 9.08 56.7913 9.528C56.5886 9.976 56.3113 10.3653 55.9593 10.696C55.6073 11.0267 55.1966 11.2933 54.7273 11.496C54.2686 11.688 53.7779 11.784 53.2553 11.784C52.7326 11.784 52.2366 11.688 51.7673 11.496C51.3086 11.2933 50.9033 11.0267 50.5513 10.696C50.1993 10.3653 49.9219 9.976 49.7193 9.528C49.5166 9.08 49.4153 8.60533 49.4153 8.104C49.4153 7.60267 49.5166 7.128 49.7193 6.68C49.9219 6.232 50.1993 5.84267 50.5513 5.512C50.9033 5.18133 51.3086 4.92 51.7673 4.728C52.2366 4.52533 52.7326 4.424 53.2553 4.424C53.7779 4.424 54.2686 4.52533 54.7273 4.728C55.1966 4.92 55.6073 5.18133 55.9593 5.512C56.3113 5.84267 56.5886 6.232 56.7913 6.68C56.9939 7.128 57.0953 7.60267 57.0953 8.104ZM55.3833 8.104C55.3833 7.80533 55.3246 7.528 55.2073 7.272C55.0899 7.00533 54.9353 6.776 54.7433 6.584C54.5513 6.392 54.3273 6.23733 54.0713 6.12C53.8153 6.00267 53.5433 5.944 53.2553 5.944C52.9673 5.944 52.6953 6.00267 52.4393 6.12C52.1833 6.23733 51.9593 6.392 51.7673 6.584C51.5753 6.776 51.4206 7.00533 51.3033 7.272C51.1859 7.528 51.1273 7.80533 51.1273 8.104C51.1273 8.40267 51.1859 8.68533 51.3033 8.952C51.4206 9.208 51.5753 9.432 51.7673 9.624C51.9593 9.816 52.1833 9.97067 52.4393 10.088C52.6953 10.2053 52.9673 10.264 53.2553 10.264C53.5433 10.264 53.8153 10.2053 54.0713 10.088C54.3273 9.97067 54.5513 9.816 54.7433 9.624C54.9353 9.432 55.0899 9.208 55.2073 8.952C55.3246 8.68533 55.3833 8.40267 55.3833 8.104ZM60.2153 3.96V17.928H58.5033V14.888C57.2233 15.048 55.7353 15.128 54.0393 15.128H48.5513V13.56H54.0073C55.6499 13.56 57.1486 13.4907 58.5033 13.352V3.96H60.2153ZM73.6544 13.608V18.184H71.9264V13.608H66.5664V12.04H79.0144V13.608H73.6544ZM73.6704 5.304C73.6704 6.28533 74.0917 7.12267 74.9344 7.816C75.841 8.56267 76.9824 9.16533 78.3584 9.624L77.4304 10.872C75.969 10.424 74.737 9.76267 73.7344 8.888C73.361 8.568 73.0464 8.232 72.7904 7.88C72.5344 8.232 72.2197 8.568 71.8464 8.888C70.8437 9.76267 69.6117 10.424 68.1504 10.872L67.2224 9.624C68.5984 9.16533 69.7397 8.56267 70.6464 7.816C71.489 7.12267 71.9104 6.28533 71.9104 5.304V4.024H73.6704V5.304ZM92.6475 14.904V16.472H80.1995V14.904H85.5595V11.864H87.2875V14.904H92.6475ZM87.3035 5.816C87.3035 7.04267 87.7568 8.072 88.6635 8.904C89.6555 9.81067 90.8235 10.4667 92.1675 10.872L91.2075 12.136C89.5435 11.5813 88.1835 10.744 87.1275 9.624C86.8608 9.34667 86.6262 9.05333 86.4235 8.744C86.2208 9.05333 85.9862 9.34667 85.7195 9.624C84.6635 10.744 83.3035 11.5813 81.6395 12.136L80.6795 10.872C82.0235 10.4667 83.1915 9.81067 84.1835 8.904C85.0902 8.072 85.5435 7.04267 85.5435 5.816V4.392H87.3035V5.816ZM108.503 8.856H106.999V11.944C107.169 11.9867 107.335 12.04 107.495 12.104C107.943 12.2853 108.337 12.5253 108.679 12.824C109.009 13.1333 109.271 13.5013 109.463 13.928C109.665 14.344 109.767 14.7813 109.767 15.24C109.767 15.6987 109.665 16.1413 109.463 16.568C109.271 16.984 109.009 17.3467 108.679 17.656C108.337 17.9547 107.937 18.1947 107.479 18.376C107.031 18.5573 106.551 18.648 106.039 18.648C105.527 18.648 105.041 18.5573 104.583 18.376C104.135 18.1947 103.74 17.9547 103.399 17.656C103.068 17.3467 102.801 16.984 102.599 16.568C102.407 16.1413 102.311 15.6987 102.311 15.24C102.311 14.7813 102.407 14.344 102.599 13.928C102.801 13.5013 103.068 13.1333 103.399 12.824C103.74 12.5253 104.14 12.2853 104.599 12.104C104.833 12.008 105.073 11.9387 105.319 11.896V3.96H106.999V7.304H108.503V3.96H110.199V12.12H108.503V8.856ZM108.039 15.24C108.039 14.728 107.841 14.2853 107.447 13.912C107.052 13.5387 106.583 13.352 106.039 13.352C105.495 13.352 105.025 13.5387 104.631 13.912C104.236 14.2853 104.039 14.728 104.039 15.24C104.039 15.752 104.236 16.1947 104.631 16.568C105.025 16.9413 105.495 17.128 106.039 17.128C106.583 17.128 107.052 16.9413 107.447 16.568C107.841 16.1947 108.039 15.752 108.039 15.24ZM102.311 5.896C102.311 7.13333 102.545 8.13067 103.015 8.888C103.527 9.656 104.145 10.3387 104.871 10.936L103.767 11.992C102.956 11.32 102.257 10.5627 101.671 9.72L101.479 9.4L101.255 9.752C100.54 10.8187 99.7613 11.6667 98.9186 12.296L97.7346 11.208C98.5666 10.6107 99.2813 9.832 99.8786 8.872C100.38 8.072 100.631 7.07467 100.631 5.88V4.328H102.311V5.896ZM122.696 3.96V7.64H124.616V9.24H122.696V14.184H120.968V3.96H122.696ZM123.096 17.928H114.04V13.448H115.8V16.376H123.096V17.928ZM116.664 5.656C116.664 7.064 116.962 8.184 117.56 9.016C118.253 9.96533 119.096 10.76 120.088 11.4L119.048 12.568C118.002 11.9173 117.042 11.0213 116.168 9.88C116.029 9.69867 115.901 9.50667 115.784 9.304C115.656 9.528 115.517 9.74667 115.368 9.96C114.536 11.1547 113.586 12.088 112.52 12.76L111.368 11.624C112.402 10.9947 113.277 10.1573 113.992 9.112C114.6 8.22667 114.904 7.07467 114.904 5.656V4.328H116.664V5.656ZM137.031 11.384H130.407V4.376H132.103V6.28H135.335V4.376H137.031V11.384ZM135.335 9.896V7.752H132.103V9.896H135.335ZM140.759 3.96V7.096H142.679V8.696H140.759V12.008H139.031V3.96H140.759ZM140.759 15.256C140.759 15.7147 140.658 16.152 140.455 16.568C140.263 16.984 140.002 17.3467 139.671 17.656C139.33 17.9547 138.935 18.1947 138.487 18.376C138.039 18.5573 137.559 18.648 137.047 18.648C136.535 18.648 136.055 18.5573 135.607 18.376C135.159 18.1947 134.764 17.9547 134.423 17.656C134.092 17.3467 133.826 16.984 133.623 16.568C133.431 16.152 133.335 15.7147 133.335 15.256C133.335 14.7973 133.431 14.36 133.623 13.944C133.826 13.528 134.092 13.1653 134.423 12.856C134.764 12.5573 135.159 12.3173 135.607 12.136C136.055 11.9547 136.535 11.864 137.047 11.864C137.559 11.864 138.039 11.9547 138.487 12.136C138.935 12.3173 139.33 12.5573 139.671 12.856C140.002 13.1653 140.263 13.528 140.455 13.944C140.658 14.36 140.759 14.7973 140.759 15.256ZM139.031 15.256C139.031 14.744 138.834 14.3067 138.439 13.944C138.055 13.5707 137.591 13.384 137.047 13.384C136.503 13.384 136.034 13.5707 135.639 13.944C135.255 14.3067 135.063 14.744 135.063 15.256C135.063 15.768 135.255 16.2107 135.639 16.584C136.034 16.9467 136.503 17.128 137.047 17.128C137.591 17.128 138.055 16.9467 138.439 16.584C138.834 16.2107 139.031 15.768 139.031 15.256ZM155.112 3.96V11.96H153.384V3.96H155.112ZM153.384 18.104V14.504H146.136V12.952H155.112V18.104H153.384ZM148.584 5.688C148.584 6.712 148.893 7.62933 149.512 8.44C150.141 9.25067 150.979 9.95467 152.024 10.552L150.984 11.768C149.864 11.1387 148.904 10.328 148.104 9.336C147.987 9.18667 147.875 9.032 147.768 8.872C147.629 9.10667 147.475 9.33067 147.304 9.544C146.515 10.5253 145.565 11.336 144.456 11.976L143.368 10.824C144.403 10.1947 145.251 9.48 145.912 8.68C146.52 7.92267 146.824 6.92533 146.824 5.688V4.328H148.584V5.688Z" fill="black"/>
</svg>
