<svg width="266" height="65" viewBox="0 0 266 65" fill="none" xmlns="http://www.w3.org/2000/svg">
<path d="M5.59978 2.43689V0.000889063H8.95978V2.43689H14.4478V5.04089H11.5638C11.6384 5.09689 11.7131 5.16222 11.7878 5.23689C12.3664 5.77822 12.8238 6.41289 13.1598 7.14089C13.5144 7.85022 13.6918 8.61556 13.6918 9.43689C13.6918 10.2582 13.5144 11.0329 13.1598 11.7609C12.8238 12.4702 12.3664 13.0956 11.7878 13.6369C11.2091 14.1782 10.5278 14.6076 9.74378 14.9249C8.97844 15.2422 8.15711 15.4009 7.27978 15.4009C6.40244 15.4009 5.57178 15.2422 4.78778 14.9249C4.02244 14.6076 3.35044 14.1782 2.77178 13.6369C2.19311 13.0956 1.72644 12.4702 1.37178 11.7609C1.03578 11.0329 0.867777 10.2582 0.867777 9.43689C0.867777 8.61556 1.03578 7.85022 1.37178 7.14089C1.72644 6.41289 2.19311 5.77822 2.77178 5.23689C2.84644 5.16222 2.92111 5.09689 2.99578 5.04089H-0.000222579V2.43689H5.59978ZM10.6958 9.29689C10.6958 8.38222 10.3598 7.59822 9.68778 6.94489C9.01578 6.27289 8.21311 5.93689 7.27978 5.93689C6.34644 5.93689 5.54378 6.27289 4.87178 6.94489C4.19978 7.59822 3.86378 8.38222 3.86378 9.29689C3.86378 10.2116 4.19978 11.0049 4.87178 11.6769C5.54378 12.3302 6.34644 12.6569 7.27978 12.6569C8.21311 12.6569 9.01578 12.3302 9.68778 11.6769C10.3598 11.0049 10.6958 10.2116 10.6958 9.29689ZM17.0238 7.95289H14.1958V5.12489H17.0238V0.392889H20.0478V18.5649H17.0238V13.7769H14.1958V10.9489H17.0238V7.95289ZM20.8878 24.8369H4.61978V17.2769H7.81178V22.1209H20.8878V24.8369ZM25.2297 18.5929V1.48489H33.3777V4.22889H28.2257V15.8489H30.2697C32.1924 15.8489 34.1337 15.6902 36.0937 15.3729V0.392889H39.0057V8.56889H41.6657V0.392889H44.6337V24.8369H41.6657V11.3129H39.0057V24.8369H36.0937V18.1169C34.3577 18.4342 32.3884 18.5929 30.1857 18.5929H25.2297ZM66.3357 0.392889V8.34489H70.0317V11.2009H66.3357V24.8369H63.3117V0.392889H66.3357ZM53.1477 6.18889V4.20089H47.9957V1.48489H61.2117V4.20089H56.2277V6.32889C56.209 8.60622 56.741 10.6036 57.8237 12.3209C58.8877 14.0009 60.3624 15.6436 62.2477 17.2489L60.3717 19.1809C58.3557 17.5009 56.601 15.5222 55.1077 13.2449C54.9771 13.0582 54.8557 12.8622 54.7437 12.6569C54.557 13.0302 54.3424 13.3942 54.0997 13.7489C52.5504 16.1009 50.7584 17.9862 48.7237 19.4049L46.6797 17.4169C48.6024 16.1289 50.217 14.4582 51.5237 12.4049C52.6064 10.6689 53.1477 8.59689 53.1477 6.18889ZM74.1497 1.03689H90.4457V3.66889H77.1737V7.89689H90.6417V10.5289H83.8657V13.1329H93.2457V15.7929H87.0577C87.6364 16.3156 88.0937 16.9316 88.4297 17.6409C88.7844 18.3876 88.9617 19.1809 88.9617 20.0209C88.9617 20.8609 88.7844 21.6542 88.4297 22.4009C88.075 23.1289 87.599 23.7636 87.0017 24.3049C86.4044 24.8462 85.7044 25.2756 84.9017 25.5929C84.099 25.9289 83.2497 26.0969 82.3537 26.0969C81.4577 26.0969 80.6084 25.9289 79.8057 25.5929C79.003 25.2756 78.303 24.8462 77.7057 24.3049C77.1084 23.7636 76.6324 23.1289 76.2777 22.4009C75.923 21.6542 75.7457 20.8609 75.7457 20.0209C75.7457 19.1809 75.923 18.3876 76.2777 17.6409C76.6137 16.9316 77.071 16.3156 77.6497 15.7929H71.4617V13.1329H80.8417V10.5289H74.1497V1.03689ZM85.9377 19.9369C85.9377 18.9662 85.583 18.1356 84.8737 17.4449C84.183 16.7542 83.343 16.4089 82.3537 16.4089C81.3644 16.4089 80.515 16.7542 79.8057 17.4449C79.115 18.1356 78.7697 18.9662 78.7697 19.9369C78.7697 20.9076 79.115 21.7382 79.8057 22.4289C80.515 23.1196 81.3644 23.4649 82.3537 23.4649C83.343 23.4649 84.183 23.1196 84.8737 22.4289C85.583 21.7382 85.9377 20.9076 85.9377 19.9369ZM114.052 0.392889V8.90489H117.748V11.7609H114.052V24.8369H111.028V0.392889H114.052ZM100.668 6.66489V5.60089H95.1797V2.85689H100.668V0.000889063H103.748V2.85689H108.9V5.60089H103.748V6.66489C103.766 8.68089 104.252 10.5849 105.204 12.3769C106.118 14.0942 107.602 15.8116 109.656 17.5289L107.724 19.5169C105.577 17.7062 103.878 15.7369 102.628 13.6089C102.478 13.3662 102.338 13.1236 102.208 12.8809C102.077 13.1236 101.937 13.3756 101.788 13.6369C100.425 15.9142 98.6797 17.9022 96.5517 19.6009L94.3957 17.7249C96.4303 16.1196 98.0263 14.3276 99.1837 12.3489C100.154 10.6876 100.649 8.79289 100.668 6.66489ZM137.882 1.68089V8.70889C137.882 12.0876 137.555 15.4476 136.902 18.7889H140.962V21.5329H119.178V18.7889H133.934C134.55 15.5782 134.858 12.5262 134.858 9.63289V4.42489H121.53V1.68089H137.882ZM162.272 11.3129H145.724V4.92889H159.108V3.30489H145.724V0.896889H162.132V7.28089H148.748V8.93289H162.272V11.3129ZM164.82 15.2049H155.552V16.8289H152.304V15.2049H143.036V12.7409H164.82V15.2049ZM162.132 24.8369H145.724V16.6329H148.748V18.1169H159.108V16.6329H162.132V24.8369ZM159.108 22.4289V20.4689H148.748V22.4289H159.108ZM0.895777 41.4089H6.71978C8.64244 41.4089 10.1358 41.6422 11.1998 42.1089C11.8904 42.4076 12.4971 42.8276 13.0198 43.3689C14.0091 44.4702 14.5038 45.8236 14.5038 47.4289C14.5038 49.0342 14.0091 50.3876 13.0198 51.4889C12.4971 52.0302 11.8904 52.4502 11.1998 52.7489C10.1731 53.1969 8.67978 53.4209 6.71978 53.4209H3.91978V60.4209H0.895777V41.4089ZM3.91978 50.6769H7.47578C8.76378 50.6769 9.76244 50.3596 10.4718 49.7249C11.1251 49.1276 11.4518 48.3622 11.4518 47.4289C11.4518 46.4769 11.1251 45.7022 10.4718 45.1049C9.76244 44.4702 8.76378 44.1529 7.47578 44.1529H3.91978V50.6769ZM20.5043 57.6769H29.8563V60.4209H17.4803V41.4089H29.6603V44.1529H20.5043V49.3609H28.7923V52.0769H20.5043V57.6769ZM43.5824 60.4209H41.5384L35.8544 46.0849V60.4209H32.9984V41.4089H36.6944L42.5744 55.7729L48.4264 41.4089H52.1224V60.4209H49.2384V46.0849L43.5824 60.4209ZM75.3487 56.2769V64.2849H72.3247V56.2769H62.9447V53.5329H84.7287V56.2769H75.3487ZM75.3767 41.7449C75.3767 43.4622 76.114 44.9276 77.5887 46.1409C79.1753 47.4476 81.1727 48.5022 83.5807 49.3049L81.9567 51.4889C79.3993 50.7049 77.2433 49.5476 75.4887 48.0169C74.8353 47.4569 74.2847 46.8689 73.8367 46.2529C73.3887 46.8689 72.838 47.4569 72.1847 48.0169C70.43 49.5476 68.274 50.7049 65.7167 51.4889L64.0927 49.3049C66.5007 48.5022 68.498 47.4476 70.0847 46.1409C71.5593 44.9276 72.2967 43.4622 72.2967 41.7449V39.5049H75.3767V41.7449ZM106.963 39.3929V57.2849H103.939V48.4929H99.5426V45.7489H103.939V39.3929H106.963ZM107.691 63.8369H91.8146V56.1369H94.8946V61.1489H107.691V63.8369ZM92.5146 44.3209V43.0889H87.5866V40.3729H100.775V43.0889H95.5946V44.7409C95.5946 46.2902 96.1173 47.6436 97.1626 48.8009C98.4133 50.2009 99.9066 51.3582 101.643 52.2729L100.019 54.4009C97.8346 53.2809 95.996 51.8342 94.5026 50.0609C94.3906 49.9302 94.2786 49.7902 94.1666 49.6409C93.9426 50.0142 93.6813 50.3782 93.3826 50.7329C91.7213 52.7116 90.032 54.0369 88.3146 54.7089L86.4386 52.5809C88.2306 51.7969 89.78 50.5742 91.0866 48.9129C92.0386 47.6996 92.5146 46.1689 92.5146 44.3209ZM115.085 41.9969V39.3929H118.277V41.9969H123.093V44.5169H120.825C120.918 44.5916 121.011 44.6756 121.105 44.7689C121.683 45.3476 122.141 46.0196 122.477 46.7849C122.813 47.5502 122.981 48.3622 122.981 49.2209C122.981 50.0796 122.813 50.8916 122.477 51.6569C122.141 52.4222 121.683 53.0942 121.105 53.6729C120.545 54.2329 119.873 54.6809 119.089 55.0169C118.323 55.3529 117.511 55.5209 116.653 55.5209C115.794 55.5209 114.973 55.3529 114.189 55.0169C113.423 54.6809 112.761 54.2329 112.201 53.6729C111.622 53.0942 111.165 52.4222 110.829 51.6569C110.493 50.8916 110.325 50.0796 110.325 49.2209C110.325 48.3622 110.493 47.5502 110.829 46.7849C111.165 46.0196 111.622 45.3476 112.201 44.7689C112.294 44.6756 112.387 44.5916 112.481 44.5169H110.129V41.9969H115.085ZM120.209 49.1369C120.209 48.1289 119.863 47.2702 119.173 46.5609C118.482 45.8329 117.651 45.4689 116.681 45.4689C115.71 45.4689 114.879 45.8329 114.189 46.5609C113.498 47.2702 113.153 48.1289 113.153 49.1369C113.153 50.1449 113.498 51.0129 114.189 51.7409C114.879 52.4502 115.71 52.8049 116.681 52.8049C117.651 52.8049 118.482 52.4502 119.173 51.7409C119.863 51.0129 120.209 50.1449 120.209 49.1369ZM129.365 39.3929H132.193V63.8369H129.365V49.3889H127.293V63.8369H124.493V39.3929H127.293V46.6449H129.365V39.3929ZM149.555 46.6449C149.555 47.5222 149.377 48.3529 149.023 49.1369C148.668 49.9209 148.183 50.6022 147.567 51.1809C146.951 51.7596 146.232 52.2262 145.411 52.5809C144.608 52.9169 143.749 53.0849 142.835 53.0849C141.92 53.0849 141.052 52.9169 140.231 52.5809C139.428 52.2262 138.719 51.7596 138.103 51.1809C137.487 50.6022 137.001 49.9209 136.647 49.1369C136.292 48.3529 136.115 47.5222 136.115 46.6449C136.115 45.7676 136.292 44.9369 136.647 44.1529C137.001 43.3689 137.487 42.6876 138.103 42.1089C138.719 41.5302 139.428 41.0729 140.231 40.7369C141.052 40.3822 141.92 40.2049 142.835 40.2049C143.749 40.2049 144.608 40.3822 145.411 40.7369C146.232 41.0729 146.951 41.5302 147.567 42.1089C148.183 42.6876 148.668 43.3689 149.023 44.1529C149.377 44.9369 149.555 45.7676 149.555 46.6449ZM146.559 46.6449C146.559 46.1222 146.456 45.6369 146.251 45.1889C146.045 44.7222 145.775 44.3209 145.439 43.9849C145.103 43.6489 144.711 43.3782 144.263 43.1729C143.815 42.9676 143.339 42.8649 142.835 42.8649C142.331 42.8649 141.855 42.9676 141.407 43.1729C140.959 43.3782 140.567 43.6489 140.231 43.9849C139.895 44.3209 139.624 44.7222 139.419 45.1889C139.213 45.6369 139.111 46.1222 139.111 46.6449C139.111 47.1676 139.213 47.6622 139.419 48.1289C139.624 48.5769 139.895 48.9689 140.231 49.3049C140.567 49.6409 140.959 49.9116 141.407 50.1169C141.855 50.3222 142.331 50.4249 142.835 50.4249C143.339 50.4249 143.815 50.3222 144.263 50.1169C144.711 49.9116 145.103 49.6409 145.439 49.3049C145.775 48.9689 146.045 48.5769 146.251 48.1289C146.456 47.6622 146.559 47.1676 146.559 46.6449ZM155.015 39.3929V63.8369H152.019V58.5169C149.779 58.7969 147.175 58.9369 144.207 58.9369H134.603V56.1929H144.151C147.025 56.1929 149.648 56.0716 152.019 55.8289V39.3929H155.015ZM170.609 41.3249V39.0009H173.801V41.3249H178.337V43.8449H176.209C176.284 43.9009 176.358 43.9662 176.433 44.0409C176.974 44.5636 177.404 45.1702 177.721 45.8609C178.038 46.5329 178.197 47.2609 178.197 48.0449C178.197 48.8289 178.038 49.5662 177.721 50.2569C177.404 50.9289 176.974 51.5262 176.433 52.0489C175.892 52.5529 175.257 52.9542 174.529 53.2529C173.801 53.5516 173.026 53.7009 172.205 53.7009C171.384 53.7009 170.609 53.5516 169.881 53.2529C169.153 52.9542 168.518 52.5529 167.977 52.0489C167.436 51.5262 167.006 50.9289 166.689 50.2569C166.372 49.5662 166.213 48.8289 166.213 48.0449C166.213 47.2609 166.372 46.5329 166.689 45.8609C167.006 45.1702 167.436 44.5636 167.977 44.0409C168.052 43.9662 168.126 43.9009 168.201 43.8449H165.961V41.3249H170.609ZM175.341 47.9329C175.341 47.0929 175.033 46.3742 174.417 45.7769C173.801 45.1609 173.064 44.8529 172.205 44.8529C171.346 44.8529 170.609 45.1609 169.993 45.7769C169.377 46.3742 169.069 47.0929 169.069 47.9329C169.069 48.7729 169.377 49.5009 169.993 50.1169C170.609 50.7142 171.346 51.0129 172.205 51.0129C173.064 51.0129 173.801 50.7142 174.417 50.1169C175.033 49.5009 175.341 48.7729 175.341 47.9329ZM184.553 39.3929H187.409V54.2889H184.553V48.8289H182.341V54.2889H179.541V39.3929H182.341V46.0009H184.553V39.3929ZM184.441 64.1449V58.3209H171.253V55.6049H187.409V64.1449H184.441ZM210.147 39.3929V53.0009H207.123V39.3929H210.147ZM207.123 57.0889H197.715V61.2049H207.123V57.0889ZM210.147 63.8369H194.719V54.4569H210.147V63.8369ZM198.723 42.3609C198.723 44.2276 199.264 45.8702 200.347 47.2889C201.467 48.6889 202.942 49.9116 204.771 50.9569L202.895 53.0569C200.935 51.9556 199.264 50.5556 197.883 48.8569C197.659 48.5956 197.463 48.3249 197.295 48.0449C197.052 48.4556 196.782 48.8476 196.483 49.2209C195.139 50.9756 193.487 52.4036 191.527 53.5049L189.595 51.4329C191.48 50.4249 192.964 49.2022 194.047 47.7649C195.111 46.3649 195.643 44.5636 195.643 42.3609V40.0369H198.723V42.3609ZM243.969 47.5409V50.3409H240.385V63.8369H237.361V39.3929H240.385V47.5409H243.969ZM233.693 40.4849C233.693 44.7222 232.667 48.3996 230.613 51.5169C228.765 54.3169 226.301 56.7062 223.221 58.6849L221.149 56.5569C224.043 54.7649 226.32 52.6182 227.981 50.1169C229.419 47.9516 230.212 45.6556 230.361 43.2289H222.465V40.4849H233.693ZM262.591 39.3929H265.615V63.8369H262.591V39.3929ZM251.475 45.9449V44.6009H245.707V41.8569H251.475V39.0009H254.555V41.8569H259.987V44.6009H254.555V45.9449C254.555 47.6996 255.097 49.6129 256.179 51.6849C257.075 53.4209 258.559 55.1382 260.631 56.8369L258.699 58.7969C256.459 56.9676 254.705 54.9796 253.435 52.8329C253.267 52.5529 253.109 52.2636 252.959 51.9649C252.791 52.2822 252.614 52.5996 252.427 52.9169C251.027 55.1756 249.282 57.1636 247.191 58.8809L245.035 57.0049C247.014 55.3622 248.61 53.5702 249.823 51.6289C250.925 49.8742 251.475 47.9796 251.475 45.9449Z" fill="black"/>
</svg>
