<svg width="397" height="38" viewBox="0 0 397 38" fill="none" xmlns="http://www.w3.org/2000/svg">
<path d="M23.06 21.905H28.07V23.705H21.05V13.19H27.965V14.99H23.06V17.45H27.5V19.235H23.06V21.905ZM29.5883 23.705V12.995H31.5983V23.705H29.5883ZM35.0884 19.205H38.0884C38.0884 18.775 37.9584 18.385 37.6984 18.035C37.4384 17.685 37.0634 17.51 36.5734 17.51C36.0834 17.51 35.7134 17.69 35.4634 18.05C35.2134 18.4 35.0884 18.785 35.0884 19.205ZM35.1034 20.795C35.1434 21.145 35.3084 21.465 35.5984 21.755C35.8984 22.045 36.3534 22.21 36.9634 22.25C37.7634 22.3 38.6784 22.195 39.7084 21.935V23.57C38.7984 23.84 37.8834 23.96 36.9634 23.93C35.7534 23.89 34.7984 23.535 34.0984 22.865C33.4084 22.185 33.0634 21.195 33.0634 19.895C33.0634 18.645 33.3984 17.655 34.0684 16.925C34.7484 16.195 35.5834 15.83 36.5734 15.83C37.6134 15.83 38.4584 16.205 39.1084 16.955C39.7584 17.695 40.0834 18.7 40.0834 19.97V20.795H35.1034ZM43.1011 19.88C43.1011 20.52 43.2611 21.025 43.5811 21.395C43.9911 21.855 44.6111 22.085 45.4411 22.085C46.1211 22.085 46.8161 22.01 47.5261 21.86V23.615C46.6961 23.845 45.9261 23.945 45.2161 23.915C43.9161 23.835 42.9011 23.435 42.1711 22.715C41.4411 21.995 41.0761 21.05 41.0761 19.88C41.0761 18.69 41.4411 17.74 42.1711 17.03C42.9011 16.31 43.9161 15.915 45.2161 15.845C45.8961 15.805 46.6511 15.9 47.4811 16.13V17.885C46.7711 17.715 46.0911 17.63 45.4411 17.63C44.6111 17.63 43.9911 17.87 43.5811 18.35C43.2611 18.72 43.1011 19.23 43.1011 19.88ZM51.4575 21.215C51.4575 21.595 51.5075 21.835 51.6075 21.935C51.7675 22.065 52.0275 22.13 52.3875 22.13H53.6025V23.885H52.0275C51.2075 23.905 50.5725 23.705 50.1225 23.285C49.6925 22.865 49.4775 22.29 49.4775 21.56V17.705H48.0975V16.025H49.4775V14.225L51.4575 13.625V16.025H53.2575V17.705H51.4575V21.215ZM54.6664 16.025H56.5564V16.835C57.1664 16.165 57.8214 15.83 58.5214 15.83C58.7314 15.83 58.9964 15.865 59.3164 15.935V17.705C59.0464 17.635 58.7764 17.615 58.5064 17.645C57.7664 17.715 57.1564 18.07 56.6764 18.71V23.705H54.6664V16.025ZM60.3939 23.705V16.025H62.4039V23.705H60.3939ZM60.3489 14.975V12.995H62.4489V14.975H60.3489ZM68.489 16.025V17.705H66.674V23.705H64.724V17.705H63.419V16.025H64.724V15.755C64.724 14.765 64.994 14.015 65.534 13.505C66.114 12.965 66.839 12.72 67.709 12.77C68.029 12.79 68.359 12.83 68.699 12.89V14.57C68.449 14.51 68.214 14.475 67.994 14.465C67.524 14.435 67.174 14.56 66.944 14.84C66.764 15.06 66.674 15.37 66.674 15.77V16.025H68.489ZM69.5053 23.705V16.025H71.5153V23.705H69.5053ZM69.4603 14.975V12.995H71.5603V14.975H69.4603ZM75.0054 19.205H78.0054C78.0054 18.775 77.8754 18.385 77.6154 18.035C77.3554 17.685 76.9804 17.51 76.4904 17.51C76.0004 17.51 75.6304 17.69 75.3804 18.05C75.1304 18.4 75.0054 18.785 75.0054 19.205ZM75.0204 20.795C75.0604 21.145 75.2254 21.465 75.5154 21.755C75.8154 22.045 76.2704 22.21 76.8804 22.25C77.6804 22.3 78.5954 22.195 79.6254 21.935V23.57C78.7154 23.84 77.8004 23.96 76.8804 23.93C75.6704 23.89 74.7154 23.535 74.0154 22.865C73.3254 22.185 72.9804 21.195 72.9804 19.895C72.9804 18.645 73.3154 17.655 73.9854 16.925C74.6654 16.195 75.5004 15.83 76.4904 15.83C77.5304 15.83 78.3754 16.205 79.0254 16.955C79.6754 17.695 80.0004 18.7 80.0004 19.97V20.795H75.0204ZM84.713 17.6C84.213 17.6 83.803 17.785 83.483 18.155C83.163 18.525 83.003 19.105 83.003 19.895C83.003 20.555 83.148 21.085 83.438 21.485C83.718 21.915 84.133 22.13 84.683 22.13H84.713H84.668H84.683C85.283 22.13 85.798 21.84 86.228 21.26V18.365C85.748 17.855 85.248 17.6 84.728 17.6H84.713ZM84.428 23.9C83.438 23.9 82.618 23.555 81.968 22.865C81.318 22.165 80.993 21.175 80.993 19.895C80.993 18.645 81.328 17.655 81.998 16.925C82.668 16.195 83.478 15.83 84.428 15.83C85.058 15.83 85.658 16.035 86.228 16.445V12.995H88.238V23.705H86.378V23.105C85.748 23.635 85.098 23.9 84.428 23.9ZM94.207 18.35C94.207 16.76 94.682 15.49 95.632 14.54C96.592 13.59 97.907 13.08 99.577 13.01C100.427 12.97 101.337 13.04 102.307 13.22V15.005C101.307 14.835 100.462 14.77 99.772 14.81C98.612 14.85 97.752 15.175 97.192 15.785C96.552 16.445 96.232 17.32 96.232 18.41V18.575C96.232 19.715 96.552 20.585 97.192 21.185C97.832 21.775 98.702 22.09 99.802 22.13C100.592 22.16 101.442 22.105 102.352 21.965V23.75C101.452 23.9 100.537 23.96 99.607 23.93C97.897 23.85 96.567 23.355 95.617 22.445C94.677 21.525 94.207 20.245 94.207 18.605V18.35ZM111.536 19.895C111.536 21.065 111.136 22.03 110.336 22.79C109.536 23.54 108.576 23.915 107.456 23.915C106.366 23.915 105.411 23.54 104.591 22.79C103.781 22.04 103.376 21.075 103.376 19.895C103.376 18.685 103.776 17.705 104.576 16.955C105.376 16.195 106.336 15.815 107.456 15.815C108.576 15.815 109.536 16.2 110.336 16.97C111.136 17.73 111.536 18.705 111.536 19.895ZM105.356 19.895C105.356 20.555 105.551 21.095 105.941 21.515C106.331 21.935 106.836 22.145 107.456 22.145C108.076 22.145 108.581 21.935 108.971 21.515C109.361 21.095 109.556 20.555 109.556 19.895C109.556 19.215 109.361 18.66 108.971 18.23C108.581 17.8 108.076 17.585 107.456 17.585C106.836 17.585 106.331 17.8 105.941 18.23C105.551 18.66 105.356 19.215 105.356 19.895ZM117.541 19.595C117.541 18.285 117.111 17.63 116.251 17.63C115.391 17.63 114.961 18.285 114.961 19.595V23.705H112.996V19.34C112.996 18.33 113.266 17.495 113.806 16.835C114.356 16.165 115.161 15.83 116.221 15.83C117.101 15.83 117.871 16.175 118.531 16.865C119.191 16.175 119.956 15.83 120.826 15.83C121.886 15.83 122.686 16.165 123.226 16.835C123.776 17.495 124.051 18.33 124.051 19.34V23.705H122.086V19.595C122.086 18.285 121.656 17.63 120.796 17.63C119.936 17.63 119.506 18.285 119.506 19.595V23.705H117.541V19.595ZM130.549 19.595C130.549 18.285 130.119 17.63 129.259 17.63C128.399 17.63 127.969 18.285 127.969 19.595V23.705H126.004V19.34C126.004 18.33 126.274 17.495 126.814 16.835C127.364 16.165 128.169 15.83 129.229 15.83C130.109 15.83 130.879 16.175 131.539 16.865C132.199 16.175 132.964 15.83 133.834 15.83C134.894 15.83 135.694 16.165 136.234 16.835C136.784 17.495 137.059 18.33 137.059 19.34V23.705H135.094V19.595C135.094 18.285 134.664 17.63 133.804 17.63C132.944 17.63 132.514 18.285 132.514 19.595V23.705H130.549V19.595ZM140.557 19.205H143.557C143.557 18.775 143.427 18.385 143.167 18.035C142.907 17.685 142.532 17.51 142.042 17.51C141.552 17.51 141.182 17.69 140.932 18.05C140.682 18.4 140.557 18.785 140.557 19.205ZM140.572 20.795C140.612 21.145 140.777 21.465 141.067 21.755C141.367 22.045 141.822 22.21 142.432 22.25C143.232 22.3 144.147 22.195 145.177 21.935V23.57C144.267 23.84 143.352 23.96 142.432 23.93C141.222 23.89 140.267 23.535 139.567 22.865C138.877 22.185 138.532 21.195 138.532 19.895C138.532 18.645 138.867 17.655 139.537 16.925C140.217 16.195 141.052 15.83 142.042 15.83C143.082 15.83 143.927 16.205 144.577 16.955C145.227 17.695 145.552 18.7 145.552 19.97V20.795H140.572ZM147.025 16.025H148.915V16.835C149.525 16.165 150.18 15.83 150.88 15.83C151.09 15.83 151.355 15.865 151.675 15.935V17.705C151.405 17.635 151.135 17.615 150.865 17.645C150.125 17.715 149.515 18.07 149.035 18.71V23.705H147.025V16.025ZM154.297 19.88C154.297 20.52 154.457 21.025 154.777 21.395C155.187 21.855 155.807 22.085 156.637 22.085C157.317 22.085 158.012 22.01 158.722 21.86V23.615C157.892 23.845 157.122 23.945 156.412 23.915C155.112 23.835 154.097 23.435 153.367 22.715C152.637 21.995 152.272 21.05 152.272 19.88C152.272 18.69 152.637 17.74 153.367 17.03C154.097 16.31 155.112 15.915 156.412 15.845C157.092 15.805 157.847 15.9 158.677 16.13V17.885C157.967 17.715 157.287 17.63 156.637 17.63C155.807 17.63 155.187 17.87 154.777 18.35C154.457 18.72 154.297 19.23 154.297 19.88ZM160.194 23.705V16.025H162.204V23.705H160.194ZM160.149 14.975V12.995H162.249V14.975H160.149ZM168.409 20.51C168.179 20.45 167.924 20.395 167.644 20.345C167.374 20.285 167.094 20.255 166.804 20.255C166.454 20.285 166.189 20.38 166.009 20.54C165.799 20.71 165.689 20.955 165.679 21.275C165.679 21.575 165.759 21.815 165.919 21.995C166.089 22.165 166.314 22.25 166.594 22.25C167.404 22.25 168.009 21.985 168.409 21.455V20.51ZM168.529 23.06C167.899 23.62 167.174 23.9 166.354 23.9C165.534 23.9 164.879 23.65 164.389 23.15C163.909 22.65 163.669 22.03 163.669 21.29C163.669 20.49 163.969 19.84 164.569 19.34C165.069 18.93 165.759 18.725 166.639 18.725C167.309 18.725 167.899 18.835 168.409 19.055V18.605C168.409 17.885 167.894 17.51 166.864 17.48C166.164 17.45 165.389 17.54 164.539 17.75V16.1C165.399 15.91 166.219 15.82 166.999 15.83C168.049 15.84 168.874 16.1 169.474 16.61C170.104 17.14 170.419 17.93 170.419 18.98V23.705H168.529V23.06ZM172.293 23.705V12.995H174.303V23.705H172.293ZM179.727 13.19H181.782L184.557 20.645L187.332 13.19H189.387L185.367 23.705H183.762L179.727 13.19ZM191.314 19.205H194.314C194.314 18.775 194.184 18.385 193.924 18.035C193.664 17.685 193.289 17.51 192.799 17.51C192.309 17.51 191.939 17.69 191.689 18.05C191.439 18.4 191.314 18.785 191.314 19.205ZM191.329 20.795C191.369 21.145 191.534 21.465 191.824 21.755C192.124 22.045 192.579 22.21 193.189 22.25C193.989 22.3 194.904 22.195 195.934 21.935V23.57C195.024 23.84 194.109 23.96 193.189 23.93C191.979 23.89 191.024 23.535 190.324 22.865C189.634 22.185 189.289 21.195 189.289 19.895C189.289 18.645 189.624 17.655 190.294 16.925C190.974 16.195 191.809 15.83 192.799 15.83C193.839 15.83 194.684 16.205 195.334 16.955C195.984 17.695 196.309 18.7 196.309 19.97V20.795H191.329ZM197.782 12.995H199.792V16.67C200.372 16.12 201.032 15.845 201.772 15.845C202.682 15.845 203.397 16.11 203.917 16.64C204.437 17.17 204.697 17.97 204.697 19.04V23.705H202.687V19.22C202.687 18.16 202.237 17.63 201.337 17.63C200.737 17.63 200.222 18.01 199.792 18.77V23.705H197.782V12.995ZM206.644 23.705V16.025H208.654V23.705H206.644ZM206.599 14.975V12.995H208.699V14.975H206.599ZM212.144 19.88C212.144 20.52 212.304 21.025 212.624 21.395C213.034 21.855 213.654 22.085 214.484 22.085C215.164 22.085 215.859 22.01 216.569 21.86V23.615C215.739 23.845 214.969 23.945 214.259 23.915C212.959 23.835 211.944 23.435 211.214 22.715C210.484 21.995 210.119 21.05 210.119 19.88C210.119 18.69 210.484 17.74 211.214 17.03C211.944 16.31 212.959 15.915 214.259 15.845C214.939 15.805 215.694 15.9 216.524 16.13V17.885C215.814 17.715 215.134 17.63 214.484 17.63C213.654 17.63 213.034 17.87 212.624 18.35C212.304 18.72 212.144 19.23 212.144 19.88ZM218.04 23.705V12.995H220.05V23.705H218.04ZM223.541 19.205H226.541C226.541 18.775 226.411 18.385 226.151 18.035C225.891 17.685 225.516 17.51 225.026 17.51C224.536 17.51 224.166 17.69 223.916 18.05C223.666 18.4 223.541 18.785 223.541 19.205ZM223.556 20.795C223.596 21.145 223.761 21.465 224.051 21.755C224.351 22.045 224.806 22.21 225.416 22.25C226.216 22.3 227.131 22.195 228.161 21.935V23.57C227.251 23.84 226.336 23.96 225.416 23.93C224.206 23.89 223.251 23.535 222.551 22.865C221.861 22.185 221.516 21.195 221.516 19.895C221.516 18.645 221.851 17.655 222.521 16.925C223.201 16.195 224.036 15.83 225.026 15.83C226.066 15.83 226.911 16.205 227.561 16.955C228.211 17.695 228.536 18.7 228.536 19.97V20.795H223.556ZM231.478 18.2C231.468 18.34 231.538 18.475 231.688 18.605C231.838 18.735 232.238 18.875 232.888 19.025L234.088 19.31C234.738 19.47 235.193 19.735 235.453 20.105C235.723 20.465 235.858 20.9 235.858 21.41C235.858 22.14 235.558 22.745 234.958 23.225C234.408 23.665 233.513 23.91 232.273 23.96C231.363 24 230.498 23.92 229.678 23.72V22.04C230.608 22.23 231.463 22.32 232.243 22.31C232.883 22.3 233.323 22.22 233.563 22.07C233.803 21.92 233.923 21.735 233.923 21.515C233.923 21.145 233.673 20.905 233.173 20.795L232.108 20.555C230.388 20.175 229.528 19.415 229.528 18.275C229.528 17.625 229.803 17.05 230.353 16.55C230.913 16.05 231.743 15.79 232.843 15.77C233.653 15.76 234.458 15.86 235.258 16.07V17.705C234.258 17.485 233.403 17.4 232.693 17.45C231.923 17.5 231.518 17.75 231.478 18.2Z" fill="black"/>
<path d="M250.87 22.7879H249.116L249.116 18.0671L243.541 23.6422L242.26 22.3608L247.835 16.7857L243.091 16.7632L243.091 15.0098L250.87 15.0098L250.87 22.7879Z" fill="black"/>
<rect x="276.559" y="0.8" width="72.4" height="36.4" rx="18.2" stroke="#00A2CE" stroke-width="1.6"/>
<path d="M296.809 23.705V13.19H298.819V17.555L302.524 13.19H304.954L300.469 18.425L305.194 23.705H302.824L298.819 19.355V23.705H296.809ZM308.252 17.675H309.782C310.382 17.675 310.817 17.54 311.087 17.27C311.357 17 311.492 16.69 311.492 16.34C311.492 15.97 311.357 15.65 311.087 15.38C310.817 15.11 310.382 14.975 309.782 14.975H308.252V17.675ZM309.032 19.43H308.252V23.705H306.257V13.19H309.527C310.857 13.19 311.842 13.485 312.482 14.075C313.162 14.695 313.502 15.455 313.502 16.355C313.502 17.295 313.147 18.05 312.437 18.62C312.067 18.92 311.622 19.135 311.102 19.265L314.192 23.705H311.927L309.032 19.43Z" fill="#00A2CE"/>
<path d="M320.759 16L325.759 21L330.759 16" stroke="#00A2CE" stroke-width="2" stroke-linecap="round"/>
<path d="M369.759 10H395.759" stroke="#00A2CE" stroke-width="2.4" stroke-linecap="round"/>
<path d="M369.759 19H395.759" stroke="#00A2CE" stroke-width="2.4" stroke-linecap="round"/>
<path d="M369.759 28H382.759" stroke="#00A2CE" stroke-width="2.4" stroke-linecap="round"/>
</svg>
