<svg width="105" height="40" viewBox="0 0 105 40" fill="none" xmlns="http://www.w3.org/2000/svg">
<g clip-path="url(#clip0_601_675)">
<path d="M83.0254 11.794C83.0254 11.794 82.6658 11.2865 81.1699 11.6248C79.6706 11.9767 79.0159 13.1405 79.0159 13.1405C77.9135 15.0351 75.8816 16.3343 73.541 16.3343C70.003 16.3343 67.1808 13.3672 67.1808 9.8689C67.1808 6.37063 70.0064 3.40354 73.541 3.40354C75.7459 3.40354 77.6048 4.48955 78.7445 6.20485C78.7445 6.20485 79.6435 7.54462 80.2744 7.89309C80.8985 8.25171 81.811 8.44117 82.4284 8.30923C83.0288 8.1739 83.4121 8.05887 83.1136 7.03036C81.9196 2.88252 78.1374 -0.00338364 73.5444 -0.00338364C67.9779 -0.00338364 63.6055 4.27641 63.6055 9.8689C63.6055 15.4614 67.9779 19.7513 73.5444 19.7513C78.0051 19.7513 81.4888 17.2207 82.9542 13.1337C83.3986 11.9496 83.0288 11.7872 83.0288 11.7872L83.0254 11.794Z" fill="#05507D"/>
<path d="M31.7131 0C26.1602 0 21.8047 4.27979 21.8047 9.87228C21.8047 15.4648 26.1602 19.7547 31.7131 19.7547C37.266 19.7547 41.6147 15.4648 41.6147 9.87228C41.6147 4.27979 37.2592 0 31.7131 0ZM31.7131 16.3376C28.1819 16.3376 25.3698 13.3705 25.3698 9.87228C25.3698 6.37402 28.1819 3.40692 31.7131 3.40692C35.2443 3.40692 38.0462 6.34018 38.0462 9.87228C38.0462 13.4044 35.2341 16.3376 31.7131 16.3376Z" fill="#05507D"/>
<path d="M95.0988 19.7547C100.648 19.7547 105 15.4648 105 9.87228C105 4.27979 100.645 0 95.0988 0C89.5527 0 85.1904 4.27979 85.1904 9.87228C85.1904 15.4648 89.5527 19.7547 95.0988 19.7547ZM95.0988 3.40692C98.6267 3.40692 101.435 6.34018 101.435 9.87228C101.435 13.4044 98.6233 16.3376 95.0988 16.3376C91.5744 16.3376 88.759 13.3705 88.759 9.87228C88.759 6.37402 91.5744 3.40692 95.0988 3.40692Z" fill="#05507D"/>
<path d="M57.8865 8.30246L48.2122 8.18743C46.7977 8.16713 46.6586 7.28411 47.0724 6.43492C47.9849 4.57752 50.2 3.23776 52.7475 3.26821C55.2984 3.29527 56.6756 4.79066 57.5304 5.61956C58.4259 6.4992 60.3119 6.77324 61.1396 6.36048C61.5602 6.15411 61.5365 5.58234 61.1532 4.85833C59.525 1.76267 56.0955 0.0507491 52.588 0.0101503C49.5928 -0.023682 46.1973 1.3533 44.1552 4.51662C42.4625 7.13863 42.5575 11.4962 48.5446 11.5673L57.0419 11.6688C58.1783 11.7195 58.4734 12.271 58.0731 13.2691C57.3438 15.0723 54.8201 16.5068 52.622 16.4831C49.915 16.4459 48.5582 15.0858 47.5338 14.01C46.4856 12.924 44.586 12.907 43.972 13.1371C43.3581 13.3638 43.6464 14.3009 43.9008 14.7983C45.529 17.9616 49.0806 19.7073 52.4422 19.7513C56.0209 19.7885 59.2231 18.0665 61.0955 15.0453C62.9747 12.0173 62.164 8.35321 57.8865 8.29908V8.30246Z" fill="#05507D"/>
<path d="M9.9156 0C4.35929 0 0.0139715 4.27979 0.0139715 9.87228V22.9586C0.0139715 22.9586 -0.159027 24.6942 0.672045 25.9054C1.2521 26.7479 2.05264 27.3501 2.9346 27.3805C3.56214 27.3196 3.59606 26.5449 3.59606 26.5449V17.5624C5.30569 18.936 7.49362 19.7581 9.9156 19.7581C15.4651 19.7581 19.824 15.4682 19.824 9.87567C19.824 4.28318 15.4651 0 9.9156 0ZM9.91899 16.3038C6.40814 16.3038 3.56214 13.4145 3.56214 9.85198C3.56214 6.28944 6.40474 3.40015 9.91899 3.40015C13.4332 3.40015 16.2792 6.28944 16.2792 9.85198C16.2792 13.4145 13.4298 16.3038 9.91899 16.3038Z" fill="#05507D"/>
<path d="M16.0547 27.4008H18.2155V32.2964H23.8294V27.4008H25.9902V39.7057H23.8294V34.1571H18.2155V39.7057H16.0547V27.4008Z" fill="#05507D"/>
<path d="M39.7391 33.5549C39.7391 37.0701 37.5274 40 33.83 40C30.1326 40 27.9209 37.0701 27.9209 33.5549C27.9209 30.0398 30.1326 27.1099 33.83 27.1099C37.5274 27.1099 39.7391 30.0398 39.7391 33.5549ZM30.0817 33.5549C30.0817 35.9164 31.1875 38.2407 33.83 38.2407C36.4725 38.2407 37.5783 35.9131 37.5783 33.5549C37.5783 31.1968 36.4725 28.8692 33.83 28.8692C31.1875 28.8692 30.0817 31.1968 30.0817 33.5549Z" fill="#05507D"/>
<path d="M41.71 27.4008H43.8707V37.8449H50.1428V39.7057H41.71V27.4008Z" fill="#05507D"/>
<path d="M51.625 27.4008H56.7403C60.5395 27.4008 62.1813 30.1582 62.1813 33.5515C62.1813 36.9449 60.5395 39.7023 56.7403 39.7023H51.625V27.3974V27.4008ZM53.7858 37.9498H55.9127C59.298 37.9498 60.0239 36.0213 60.0239 33.5549C60.0239 31.0886 59.298 29.1601 55.9127 29.1601H53.7858V37.9498Z" fill="#05507D"/>
<path d="M64.0977 27.4008H66.2584V39.7057H64.0977V27.4008Z" fill="#05507D"/>
<path d="M68.8125 27.4008H71.092L76.7229 36.4645H76.7569V27.4008H78.8125V39.7057H76.533L70.919 30.6589H70.8681V39.7057H68.8125V27.4008Z" fill="#05507D"/>
<path d="M92.1368 39.7057H90.7562L90.4272 38.2576C89.2705 39.5669 88.2155 39.9966 86.7128 39.9966C83.0154 39.9966 80.8037 37.0667 80.8037 33.5516C80.8037 30.0364 83.0154 27.1065 86.7128 27.1065C89.4062 27.1065 91.6721 28.5376 92.0011 31.3118H89.8946C89.6877 29.6913 88.2698 28.8658 86.7162 28.8658C84.0737 28.8658 82.9679 31.1934 82.9679 33.5516C82.9679 35.9097 84.0737 38.2373 86.7162 38.2373C88.9279 38.2712 90.1355 36.9449 90.1728 34.8609H86.8892V33.2234H92.1402V39.7023L92.1368 39.7057Z" fill="#05507D"/>
<path d="M95.902 35.6052C95.902 37.4998 97.3029 38.2407 99.0295 38.2407C100.929 38.2407 101.638 37.3103 101.638 36.3799C101.638 35.4495 101.119 35.0537 100.617 34.8642C99.7521 34.5361 98.6293 34.3128 96.9366 33.8459C94.8301 33.2775 94.2059 32.002 94.2059 30.7265C94.2059 28.2636 96.4854 27.1065 98.7141 27.1065C101.289 27.1065 103.449 28.4665 103.449 31.0344H101.289C101.184 29.4477 100.115 28.8624 98.6293 28.8624C97.6286 28.8624 96.3667 29.2244 96.3667 30.466C96.3667 31.3288 96.9536 31.8092 97.8355 32.0528C98.0255 32.1035 100.756 32.8106 101.394 33.0001C103.019 33.4839 103.795 34.8609 103.795 36.1363C103.795 38.8937 101.343 39.9966 98.8905 39.9966C96.075 39.9966 93.7921 38.6535 93.7412 35.6018H95.902V35.6052Z" fill="#05507D"/>
</g>
<defs>
<clipPath id="clip0_601_675">
<rect width="105" height="40" fill="white"/>
</clipPath>
</defs>
</svg>
