<svg width="613" height="24" viewBox="0 0 613 24" fill="none" xmlns="http://www.w3.org/2000/svg">
<path d="M14.6289 4.80078V6.79297C14.6289 9.15625 14.6289 11.5879 13.9844 15.3086L11.7773 15.1133C12.4609 11.6465 12.4609 9.08789 12.4609 6.79297V6.55859H2.28516V4.80078H14.6289ZM0.585938 18.3164V16.5391H16.6797V18.3164H0.585938ZM33.5844 11.6953V13.4141H26.5727V15.1719H24.4242V13.4141H17.4516V11.6953H33.5844ZM19.4438 5.03516V3.39453H31.5922V7.75H21.6508V9H31.9438V10.6211H19.5023V6.20703H29.4242V5.03516H19.4438ZM19.5219 20.5234V14.3125H21.6703V15.9141H29.4633V14.3125H31.6117V20.5234H19.5219ZM21.6703 18.8633H29.4633V17.5352H21.6703V18.8633ZM50.4891 16.793V18.5508H34.3563V16.793H41.2703V12.7109H43.4188V16.793H50.4891ZM34.825 11.3438C38.5164 10.748 41.1629 8.10156 41.1727 5.44531V4.15625H43.4773V5.44531C43.4773 8.11133 46.1434 10.748 49.8641 11.3438L48.9266 13.1406C45.948 12.5742 43.4969 10.8652 42.325 8.55078C41.1629 10.8555 38.741 12.584 35.7625 13.1406L34.825 11.3438ZM66.3977 3.08203V20.7383H64.3078V11.6758H62.4133V19.918H60.382V3.55078H62.4133V9.91797H64.3078V3.08203H66.3977ZM51.1047 15.543C54.8645 13.375 56.4562 10.582 56.7687 7.04688H51.925V5.30859H58.8781C58.8781 10.084 57.3742 14.1855 52.3547 17.0469L51.1047 15.543Z" fill="white"/>
<path d="M98.8945 7.32031C98.875 10.4746 100.457 13.6582 103.191 14.9766L101.863 16.7148C99.9492 15.748 98.5723 13.8828 97.8203 11.6367C97.0488 14.0391 95.6035 16.0312 93.582 17.0469L92.2539 15.3086C95.0957 13.9609 96.7168 10.582 96.7266 7.32031V4.50781H98.8945V7.32031ZM104.246 20.7383V3.08203H106.414V9.99609H109.129V11.8516H106.414V20.7383H104.246ZM114.373 3.86328C116.659 3.85352 118.455 5.17188 118.895 7.10547H122.088V3.08203H124.256V12.5547H122.088V8.86328H118.914C118.495 10.8457 116.678 12.1836 114.373 12.1836C111.668 12.1836 109.705 10.4453 109.705 8.00391C109.705 5.5918 111.668 3.85352 114.373 3.86328ZM111.776 8.00391C111.776 9.41992 112.85 10.3574 114.373 10.3477C115.858 10.3574 116.922 9.41992 116.932 8.00391C116.922 6.58789 115.858 5.66992 114.373 5.67969C112.85 5.66992 111.776 6.58789 111.776 8.00391ZM112.616 20.5234V13.375H114.764V15.25H122.088V13.375H124.256V20.5234H112.616ZM114.764 18.7656H122.088V16.9297H114.764V18.7656ZM142.47 12.2227V13.9609H135.653V17.0078H133.505V13.9609H126.337V12.2227H142.47ZM128.29 20.3867V15.5234H130.438V18.6289H140.692V20.3867H128.29ZM128.446 10.8359V3.64844H130.595V5.64062H138.212V3.64844H140.36V10.8359H128.446ZM130.595 9.11719H138.212V7.26172H130.595V9.11719ZM147.987 4.37109C150.644 4.37109 152.558 6.79297 152.577 10.6016C152.558 14.4395 150.644 16.8516 147.987 16.8516C145.302 16.8516 143.388 14.4395 143.398 10.6016C143.388 6.79297 145.302 4.37109 147.987 4.37109ZM145.487 10.6016C145.478 13.3164 146.503 14.8887 147.987 14.8984C149.482 14.8887 150.478 13.3164 150.487 10.6016C150.478 7.90625 149.482 6.32422 147.987 6.32422C146.503 6.32422 145.478 7.90625 145.487 10.6016ZM154.902 20.7383V3.08203H157.07V7.30078H159.687V9.11719H157.07V12.5156H159.687V14.293H157.07V20.7383H154.902Z" fill="white"/>
<path d="M200.719 16.8711V18.6875H184.586V16.8711H191.52V13.3945H185.973V11.6758H188.453V6.40234H185.914V4.64453H199.312V6.40234H196.734V11.6758H199.254V13.3945H193.668V16.8711H200.719ZM190.621 11.6758H194.586V6.40234H190.621V11.6758ZM210.592 5.50391C210.592 8.22852 213.258 10.9727 216.959 11.6172L215.983 13.4336C213.024 12.8184 210.602 11.0215 209.45 8.64844C208.288 11.002 205.866 12.8086 202.916 13.4336L201.959 11.6172C205.602 10.9531 208.278 8.21875 208.288 5.50391V4.19531H210.592V5.50391ZM201.471 18.4922V16.6953H217.604V18.4922H201.471ZM232.712 4.64453V6.24609C232.702 8.38477 232.731 10.8555 231.93 14.5859L229.802 14.3711C230.114 12.9453 230.3 11.6855 230.407 10.5625L219.997 11.1484L219.684 9.29297L230.534 8.90234C230.573 7.98438 230.583 7.16406 230.583 6.40234H220.231V4.64453H232.712ZM218.356 18.5703V16.7734H224.294V12.418H226.442V16.7734H234.45V18.5703H218.356ZM250.476 3.08203V20.7383H248.386V3.08203H250.476ZM235.202 7.63281V5.89453H238.405V3.53125H240.573V5.89453H243.737V7.63281H235.202ZM235.691 12.6914C235.681 10.2793 237.273 8.56055 239.441 8.55078C241.628 8.56055 243.21 10.2793 243.21 12.6914C243.21 15.1328 241.628 16.8418 239.441 16.8516C237.273 16.8418 235.681 15.1328 235.691 12.6914ZM237.585 12.6914C237.575 14.1172 238.337 15.0254 239.441 15.0156C240.544 15.0254 241.316 14.1172 241.335 12.6914C241.316 11.2852 240.544 10.377 239.441 10.3867C238.337 10.377 237.575 11.2852 237.585 12.6914ZM243.288 11.4805V9.70312H244.968V3.41406H246.999V19.918H244.968V11.4805H243.288ZM266.834 3.08203V20.7578H264.685V3.08203H266.834ZM253.084 6.38281V4.625H261.404V11.2461H255.33V14.8008C258.113 14.7812 260.505 14.6348 263.259 14.1758L263.455 15.9531C260.457 16.4707 257.82 16.5879 254.646 16.5781H253.103V9.52734H259.197V6.38281H253.084ZM278.875 4.60547V6.38281H272.176V9.52734H278.172V11.2461H272.176V14.8789C275.066 14.8691 277.273 14.7617 279.812 14.3516L280.027 16.1094C277.244 16.5488 274.764 16.6367 271.512 16.6367H270.027V4.60547H278.875ZM281.57 20.7383V3.08203H283.758V20.7383H281.57ZM292.557 8.10156C292.557 10.9922 294.256 14.0391 297.108 15.2305L295.916 16.9492C293.827 16.041 292.303 14.1953 291.493 11.9492C290.682 14.3711 289.129 16.4023 287.069 17.3789L285.819 15.6797C288.602 14.3906 290.34 11.0996 290.35 8.10156V6.61719H286.463V4.82031H296.424V6.61719H292.557V8.10156ZM298.397 20.7383V3.08203H300.584V20.7383H298.397Z" fill="white"/>
<path d="M334.246 8.10156C334.246 10.9922 335.945 14.0391 338.797 15.2305L337.605 16.9492C335.516 16.041 333.992 14.1953 333.182 11.9492C332.371 14.3711 330.818 16.4023 328.758 17.3789L327.508 15.6797C330.291 14.3906 332.029 11.0996 332.039 8.10156V6.61719H328.152V4.82031H338.113V6.61719H334.246V8.10156ZM340.086 20.7383V3.08203H342.273V20.7383H340.086ZM360.565 11.7539V13.5117H344.471V11.7539H351.424V9.29297H353.573V11.7539H360.565ZM345.35 8.60938C348.993 8.15039 351.385 6.14844 351.385 4.03906V3.375H353.592V4.03906C353.592 6.19727 355.965 8.15039 359.647 8.60938L358.807 10.3086C355.916 9.86914 353.602 8.56055 352.479 6.70508C351.346 8.55078 349.041 9.86914 346.131 10.3086L345.35 8.60938ZM346.248 16.6172V14.918H358.592V20.7383H356.424V16.6172H346.248ZM375.184 3.08203V9.97656H377.802V11.793H375.184V20.6992H373.016V3.08203H375.184ZM361.259 15.875C365.555 13.7266 367.88 10.7383 368.309 6.71484H362.216V4.91797H370.516C370.507 10.1035 368.358 14.6641 362.489 17.5547L361.259 15.875ZM392.519 7.67188V9.42969H380.331V3.39453H382.499V7.67188H392.519ZM378.241 12.8867V11.1289H394.355V12.8867H378.241ZM380.116 17.418C380.116 15.3379 382.431 14.166 386.269 14.1562C390.077 14.166 392.372 15.3379 392.382 17.418C392.372 19.4883 390.077 20.6602 386.269 20.6602C382.431 20.6602 380.116 19.4883 380.116 17.418ZM382.323 17.418C382.314 18.4336 383.7 18.9902 386.269 19C388.798 18.9902 390.195 18.4336 390.214 17.418C390.195 16.373 388.798 15.8652 386.269 15.8555C383.7 15.8652 382.314 16.373 382.323 17.418ZM409.912 3.10156V13.4141H407.744V11.4609H403.545V9.70312H407.744V7.80859H403.711C402.597 10.6113 400.019 12.5742 396.181 13.6484L395.302 11.9297C399.433 10.8164 401.64 8.7168 401.972 6.08984H396.24V4.33203H404.345C404.345 4.94727 404.296 5.5332 404.199 6.08984H407.744V3.10156H409.912ZM398.076 17.125C398.076 14.957 400.449 13.6191 404.072 13.6094C407.646 13.6191 410.029 14.957 410.029 17.125C410.029 19.293 407.646 20.6504 404.072 20.6406C400.449 20.6504 398.076 19.293 398.076 17.125ZM400.244 17.125C400.244 18.2871 401.699 18.9219 404.072 18.9219C406.406 18.9219 407.851 18.2871 407.861 17.125C407.851 15.9434 406.406 15.3086 404.072 15.3086C401.699 15.3086 400.244 15.9434 400.244 17.125ZM416.914 4.07812C418.34 4.06836 419.58 4.5957 420.41 5.48438H424.629V3.08203H426.797V13.4727H424.629V11.2266H420.4C419.561 12.0957 418.33 12.623 416.914 12.6133C414.248 12.623 412.246 10.8359 412.246 8.35547C412.246 5.85547 414.248 4.06836 416.914 4.07812ZM414.316 8.35547C414.316 9.80078 415.4 10.7773 416.914 10.7773C418.379 10.7773 419.463 9.80078 419.473 8.35547C419.463 6.86133 418.379 5.93359 416.914 5.93359C415.4 5.93359 414.316 6.86133 414.316 8.35547ZM414.824 17.2812C414.805 15.1035 417.119 13.834 420.82 13.8438C424.531 13.834 426.846 15.1035 426.855 17.2812C426.846 19.4492 424.531 20.7188 420.82 20.7188C417.119 20.7188 414.805 19.4492 414.824 17.2812ZM416.953 17.2812C416.934 18.4043 418.369 19.0098 420.82 19.0195C423.32 19.0098 424.727 18.4043 424.727 17.2812C424.727 16.1289 423.32 15.5137 420.82 15.5039C418.369 15.5137 416.934 16.1289 416.953 17.2812ZM421.387 7.22266C421.484 7.58398 421.543 7.95508 421.543 8.35547C421.543 8.74609 421.484 9.11719 421.396 9.46875H424.629V7.22266H421.387Z" fill="white"/>
<path d="M469.699 13.6094V15.3867H462.688V20.7383H460.539V15.3867H453.566V13.6094H469.699ZM455.637 12.1445V3.84375H467.766V5.5625H457.785V7.125H467.375V8.80469H457.785V10.4258H467.961V12.1445H455.637ZM476.799 8.10156C476.789 10.8262 478.43 13.9316 481.213 15.2305L480.002 16.9492C478.01 16.0117 476.536 14.1172 475.745 11.9102C474.944 14.332 473.401 16.4023 471.37 17.3789L470.1 15.6797C472.913 14.3418 474.621 11.041 474.631 8.10156V6.61719H470.784V4.82031H480.491V6.61719H476.799V8.10156ZM482.131 20.7383V3.08203H484.299V9.95703H487.014V11.7734H484.299V20.7383H482.131ZM502.141 3.08203V13.5703H499.973V9.25391H496.966V7.47656H499.973V3.08203H502.141ZM487.298 11.8125C490.139 10.8359 491.634 8.46289 491.634 6.12891V5.99219H487.962V4.23438H497.493V5.99219H493.841V6.10938C493.841 8.25781 495.266 10.4258 498.001 11.3438L496.907 13.0625C494.944 12.3984 493.557 11.0508 492.776 9.39062C492.005 11.2656 490.53 12.7891 488.43 13.5312L487.298 11.8125ZM490.169 17.3789C490.149 15.2598 492.444 14.0195 496.165 14.0195C499.905 14.0195 502.19 15.2598 502.2 17.3789C502.19 19.498 499.905 20.7285 496.165 20.7383C492.444 20.7285 490.149 19.498 490.169 17.3789ZM492.317 17.3789C492.307 18.4727 493.714 19.0684 496.165 19.0586C498.636 19.0684 500.032 18.4727 500.032 17.3789C500.032 16.2754 498.636 15.6797 496.165 15.6797C493.714 15.6797 492.307 16.2754 492.317 17.3789ZM520.374 16.832V18.6094H504.241V16.832H511.195V13.3945H506.019V4.25391H508.187V7.14453H516.37V4.25391H518.538V13.3945H513.343V16.832H520.374ZM508.187 11.6367H516.37V8.88281H508.187V11.6367Z" fill="white"/>
<path d="M560 4.70312V6.40234C559.98 8.59961 559.98 11.0508 559.297 14.7422L557.109 14.5078C557.803 11.0703 557.803 8.56055 557.812 6.44141H547.266V4.70312H560ZM545.586 18.4531V16.6758H551.523V10.543H553.672V16.6758H561.68V18.4531H545.586ZM577.569 3.10156V13.4531H575.498V9.05859H573.643V13.375H571.592V3.43359H573.643V7.28125H575.498V3.10156H577.569ZM562.373 11.9883C565.821 10.6699 567.608 8.66797 567.959 6.08984H563.174V4.33203H570.166C570.176 8.70703 567.969 11.7539 563.409 13.6094L562.373 11.9883ZM565.401 15.9336V14.1758H577.569V20.7383H575.401V15.9336H565.401ZM586.016 8.10156C586.016 10.9922 587.716 14.0391 590.567 15.2305L589.376 16.9492C587.286 16.041 585.763 14.1953 584.952 11.9492C584.141 14.3711 582.589 16.4023 580.528 17.3789L579.278 15.6797C582.061 14.3906 583.8 11.0996 583.809 8.10156V6.61719H579.923V4.82031H589.884V6.61719H586.016V8.10156ZM591.856 20.7383V3.08203H594.044V20.7383H591.856ZM611.046 3.10156V16.4609H608.859V14.918H605.402V13.3945H608.859V3.10156H611.046ZM596.163 11.0312C599.415 11.0117 603.8 10.9824 607.55 10.5039L607.667 12.0664C606.212 12.3105 604.708 12.4668 603.214 12.5742V15.9727H601.046V12.6914C599.396 12.7598 597.823 12.7695 596.437 12.7695L596.163 11.0312ZM597.511 6.87109C597.511 5.00586 599.308 3.73633 601.925 3.74609C604.493 3.73633 606.3 5.00586 606.32 6.87109C606.3 8.76562 604.493 9.9668 601.925 9.97656C599.308 9.9668 597.511 8.76562 597.511 6.87109ZM598.507 20.3867V15.1719H600.675V18.6289H611.456V20.3867H598.507ZM599.562 6.87109C599.562 7.82812 600.509 8.38477 601.925 8.39453C603.273 8.38477 604.239 7.82812 604.249 6.87109C604.239 5.91406 603.273 5.33789 601.925 5.34766C600.509 5.33789 599.562 5.91406 599.562 6.87109Z" fill="white"/>
</svg>
