<svg width="281" height="32" viewBox="0 0 281 32" fill="none" xmlns="http://www.w3.org/2000/svg">
<path d="M1.04688 21.5V10.1875H8.29688V11.8906H3.07812V14.9844H7.79688V16.6875H3.07812V21.5H1.04688ZM9.13313 19.1094C9.13313 17.2031 10.7191 16.6484 12.2894 16.5469C12.8831 16.5 14.0941 16.4453 14.4691 16.4297L14.4613 15.75C14.4613 14.9062 13.9222 14.4219 12.93 14.4219C12.0394 14.4219 11.4925 14.8281 11.3363 15.4375H9.41438C9.555 13.9922 10.8519 12.9062 12.9769 12.9062C14.5863 12.9062 16.4456 13.5703 16.4456 15.8281V21.5H14.5394V20.3281H14.4769C14.1019 21.0469 13.3128 21.6719 11.9769 21.6719C10.3597 21.6719 9.13313 20.7891 9.13313 19.1094ZM11.055 19.0938C11.055 19.8281 11.6566 20.2031 12.4925 20.2031C13.7034 20.2031 14.4769 19.4062 14.4769 18.4531L14.4691 17.7578C14.1097 17.7734 13.0003 17.8438 12.6019 17.875C11.6566 17.9531 11.055 18.3516 11.055 19.0938ZM18.0006 21.5V13.0156H19.9069V14.4531H20.0163C20.3678 13.4844 21.2194 12.9062 22.3444 12.9062C23.4928 12.9062 24.3209 13.4922 24.6413 14.4531H24.735C25.1022 13.5156 26.0475 12.9062 27.2819 12.9062C28.8366 12.9062 29.9303 13.9062 29.9225 15.7969V21.5H27.9381V16.1094C27.9381 15.0547 27.2975 14.5781 26.485 14.5781C25.5084 14.5781 24.9381 15.2422 24.9381 16.2031V21.5H23.0006V16.0312C22.9928 15.1484 22.4147 14.5781 21.5631 14.5781C20.7038 14.5781 20.0006 15.2891 20.0006 16.3438V21.5H18.0006ZM31.5088 21.5V13.0156H33.5088V21.5H31.5088ZM31.3681 10.7188C31.3681 10.125 31.8916 9.64062 32.5244 9.64062C33.1572 9.64062 33.6806 10.125 33.6806 10.7188C33.6806 11.3203 33.1572 11.8047 32.5244 11.8125C31.8916 11.8047 31.3681 11.3203 31.3681 10.7188ZM37.095 10.1875V21.5H35.095V10.1875H37.095ZM39.8844 24.6875C39.4859 24.6797 39.1109 24.6719 38.8531 24.6406V23.0469C39.0953 23.0703 39.4313 23.0703 39.6969 23.0781C40.1813 23.0703 40.5875 23.0391 40.9313 22.125L41.1031 21.6719L38.0094 13.0156H40.1188L42.0875 19.4219H42.1813L44.15 13.0156H46.2594L42.8531 22.5312C42.3688 23.8828 41.4781 24.6797 39.8844 24.6875ZM55.4787 15.4375C55.3537 14.7969 54.8225 14.3828 53.9787 14.3906C53.1272 14.3828 52.5022 14.8125 52.51 15.3906C52.5022 15.8281 52.8537 16.1562 53.7131 16.3594L55.1506 16.6562C56.7522 17.0078 57.5334 17.75 57.5412 18.9688C57.5334 20.5625 56.135 21.6719 53.9162 21.6719C51.76 21.6719 50.4866 20.7031 50.2756 19.0781H52.3069C52.4241 19.8047 52.9866 20.1641 53.9162 20.1562C54.8772 20.1641 55.5022 19.7734 55.51 19.1406C55.5022 18.6484 55.1194 18.3359 54.2756 18.1562L52.9162 17.8594C51.3381 17.5391 50.5178 16.7109 50.5256 15.5C50.5178 13.9297 51.8772 12.9062 53.9475 12.9062C55.9709 12.9062 57.2209 13.8984 57.3694 15.4375H55.4787ZM58.7369 21.5V13.0156H60.7369V21.5H58.7369ZM58.5962 10.7188C58.5962 10.125 59.1197 9.64062 59.7525 9.64062C60.3853 9.64062 60.9087 10.125 60.9087 10.7188C60.9087 11.3203 60.3853 11.8047 59.7525 11.8125C59.1197 11.8047 58.5962 11.3203 58.5962 10.7188ZM66.5575 13.0156V14.5469H64.8856V18.9531C64.8856 19.7656 65.2919 19.9297 65.7919 19.9375C66.0262 19.9453 66.4169 19.9219 66.6669 19.9062V21.5312C66.4325 21.5703 66.0497 21.6172 65.5419 21.6094C64.0419 21.6172 62.8856 20.875 62.9012 19.2812V14.5469H61.6825V13.0156H62.9012V10.9844H64.8856V13.0156H66.5575ZM71.4406 21.6719C68.8859 21.6719 67.3156 19.9688 67.3156 17.3125C67.3156 14.6875 68.9094 12.9062 71.3313 12.9062C73.4094 12.9062 75.2063 14.2109 75.2063 17.1875V17.8125H69.2844C69.3156 19.2578 70.1672 20.1172 71.4563 20.1094C72.3313 20.1172 72.9172 19.7422 73.175 19.2344H75.1281C74.7688 20.7031 73.4094 21.6719 71.4406 21.6719ZM69.2922 16.4531H73.3C73.2922 15.2969 72.5109 14.4531 71.3625 14.4531C70.1672 14.4531 69.3625 15.375 69.2922 16.4531Z" fill="black"/>
<rect opacity="0.1" x="96" width="1" height="32" fill="black"/>
<path d="M117.894 21.5V10.8945H125.013V12.7109H120.091V15.2891H124.646V17.1055H120.091V19.6836H125.027V21.5H117.894ZM135.574 10.8945V21.5H133.67L129.012 14.7617H128.924V21.5H126.727V10.8945H128.66L133.289 17.6328H133.392V10.8945H135.574Z" fill="black"/>
<path d="M141 14L146 19L151 14" stroke="black" stroke-width="2" stroke-linecap="round"/>
<path d="M179 4C185.63 4 191 9.37009 191 16C191 22.6299 185.63 28 179 28C172.37 28 167 22.6299 167 16C167 9.37009 172.37 4 179 4Z" stroke="black" stroke-width="2"/>
<path d="M180.571 19.3774H180.097V14H177.974V19.3774H177.5V21.5H177.974H180.097H180.571V19.3774Z" fill="black"/>
<path d="M180.474 11.1627V10.9363C180.474 10.1439 179.83 9.5 179.038 9.5C178.245 9.5 177.602 10.1439 177.602 10.9363V11.1627C177.602 11.9552 178.245 12.5991 179.038 12.5991C179.83 12.5991 180.474 11.9552 180.474 11.1627Z" fill="black"/>
<circle cx="220" cy="15" r="10.8" stroke="black" stroke-width="2.4"/>
<path d="M227.871 22.4727L231.407 26.0082" stroke="black" stroke-width="2.4" stroke-linecap="round"/>
<path d="M253 8H275" stroke="black" stroke-width="3" stroke-linecap="round"/>
<path d="M253 16H275" stroke="black" stroke-width="3" stroke-linecap="round"/>
<path d="M253 24H264" stroke="black" stroke-width="3" stroke-linecap="round"/>
</svg>
