<svg width="176" height="96" viewBox="0 0 176 96" fill="none" xmlns="http://www.w3.org/2000/svg">
<path d="M4.45312 76L4.375 67.4844L24.6875 48.8125C29.9609 43.7734 32.8125 40.6484 32.8125 36.1562C32.8125 31.1172 29.0234 27.9922 23.8281 28.0312C18.5156 27.9922 15.0391 31.3516 15.0781 36.7812H3.90625C3.86719 25.7266 12.0703 18.6562 23.9844 18.6562C36.0938 18.6562 44.1406 25.5703 44.1406 35.375C44.1406 41.8203 41.0156 47.0938 29.375 57.6406L20.7812 66V66.3125H44.9219V76H4.45312ZM60.1562 76.7031C56.4844 76.7031 53.5156 73.7734 53.5938 70.1406C53.5156 66.5469 56.4844 63.6172 60.1562 63.6562C63.6328 63.6172 66.6406 66.5469 66.6406 70.1406C66.6406 73.7734 63.6328 76.7031 60.1562 76.7031ZM75.8594 76L75.7812 67.4844L96.0938 48.8125C101.367 43.7734 104.219 40.6484 104.219 36.1562C104.219 31.1172 100.43 27.9922 95.2344 28.0312C89.9219 27.9922 86.4453 31.3516 86.4844 36.7812H75.3125C75.2734 25.7266 83.4766 18.6562 95.3906 18.6562C107.5 18.6562 115.547 25.5703 115.547 35.375C115.547 41.8203 112.422 47.0938 100.781 57.6406L92.1875 66V66.3125H116.328V76H75.8594Z" fill="black"/>
<path d="M157.797 30.7148V32.7266H141.527V30.7148H148.402V26.75H150.902V30.7148H157.797ZM142.191 25.5586C145.883 24.9629 148.09 22.7363 148.305 20.3828H142.875V18.3711H156.371V20.3828H150.961C151.156 22.7266 153.383 24.9043 157.191 25.4609L156.215 27.4336C153.1 26.8867 150.795 25.373 149.643 23.2637C148.52 25.4023 146.234 26.9746 143.168 27.5312L142.191 25.5586ZM173.871 17.043V30.4609H171.371V29.0547H167.973V27.3555H171.371V17.043H173.871ZM158.754 24.9141C162.006 24.8945 166.4 24.8457 170.16 24.3867L170.297 26.1641C168.891 26.3984 167.436 26.5645 166 26.6719V30.0508H163.5V32.4922H174.262V34.4844H161.02V29.1719H163.5V26.8184C161.908 26.877 160.395 26.8867 159.047 26.8867L158.754 24.9141ZM160.062 20.832C160.062 18.9375 161.889 17.6387 164.535 17.6484C167.113 17.6387 168.959 18.9375 168.969 20.832C168.959 22.7363 167.113 23.9668 164.535 23.957C161.889 23.9668 160.062 22.7363 160.062 20.832ZM162.426 20.832C162.416 21.6914 163.266 22.1699 164.535 22.1602C165.727 22.1699 166.586 21.6914 166.605 20.832C166.586 19.9531 165.727 19.4648 164.535 19.4648C163.266 19.4648 162.416 19.9531 162.426 20.832Z" fill="black"/>
</svg>
