<svg width="81" height="22" viewBox="0 0 81 22" fill="none" xmlns="http://www.w3.org/2000/svg">
<path d="M8.08594 6.02344C8.08594 9.49219 10.125 13.1484 13.5469 14.5781L12.1172 16.6406C9.60938 15.5508 7.78125 13.3359 6.80859 10.6406C5.83594 13.5469 3.97266 15.9844 1.5 17.1562L0 15.1172C3.33984 13.5703 5.42578 9.62109 5.4375 6.02344V4.24219H0.773438V2.08594H12.7266V4.24219H8.08594V6.02344ZM15.0938 21.1875V0H17.7188V21.1875H15.0938ZM23.4731 1.94531V6.84375H26.9184V1.94531H29.3325V16.0547H21.0122V1.94531H23.4731ZM23.4731 13.9453H26.9184V8.90625H23.4731V13.9453ZM31.4184 20.1562V0.375H33.8794V8.17969H36.1294V0H38.6372V21.1875H36.1294V10.3359H33.8794V20.1562H31.4184ZM57.5634 1.28906V3.1875C57.5517 5.16797 57.5517 7.33594 57.0009 10.3359H59.9306V12.4453H51.5166V21.2109H48.8916V12.4453H40.6181V10.3359H54.3525C54.9384 7.45312 54.9619 5.28516 54.9619 3.39844H42.8916V1.28906H57.5634ZM80.2397 16.5V18.6328H60.8803V16.5H69.2475V11.625H71.8491V16.5H80.2397ZM61.7241 10.4531C65.9428 9.75 69.0834 6.89062 69.1538 3.84375H62.4975V1.71094H78.5756V3.84375H71.8959C71.978 6.89062 75.1186 9.67969 79.4663 10.3359L78.435 12.3984C74.8608 11.7539 71.9194 9.85547 70.5483 7.20703C69.1889 9.89062 66.2827 11.8477 62.7553 12.5156L61.7241 10.4531Z" fill="white"/>
</svg>
