<svg width="43" height="12" viewBox="0 0 43 12" fill="none" xmlns="http://www.w3.org/2000/svg">
<path d="M6.60938 3.14062C6.5 2.08594 5.57812 1.48438 4.28125 1.48438C2.89844 1.48438 2.02344 2.19531 2.01562 3.15625C2.01562 4.22656 3.17969 4.64844 4.07812 4.85938L5.17188 5.15625C6.61719 5.50781 8.42969 6.29688 8.4375 8.34375C8.42969 10.2578 6.90625 11.6562 4.23438 11.6562C1.70312 11.6562 0.109375 10.3906 0 8.32812H1.71875C1.82031 9.5625 2.91406 10.1484 4.23438 10.1562C5.67969 10.1484 6.72656 9.42188 6.73438 8.3125C6.72656 7.32812 5.78906 6.92969 4.59375 6.60938L3.25 6.25C1.42969 5.75 0.304688 4.82812 0.296875 3.25C0.304688 1.29688 2.03906 0 4.32812 0C6.625 0 8.22656 1.3125 8.28125 3.14062H6.60938ZM11.68 0.15625V11.4688H9.96125V0.15625H11.68ZM22.7819 0.15625V11.4688H21.2037L15.4694 3.20312H15.3756V11.4688H13.6569V0.15625H15.2506L20.985 8.4375H21.0944V0.15625H22.7819ZM32.4306 3.84375C32.1572 2.38281 30.9463 1.57031 29.5088 1.57812C27.5556 1.57031 26.1103 3.07031 26.1025 5.8125C26.1103 8.57031 27.5634 10.0547 29.5088 10.0469C30.9306 10.0547 32.1338 9.25781 32.4306 7.8125L34.165 7.82812C33.8056 10.0625 31.9853 11.625 29.4931 11.625C26.5478 11.625 24.3994 9.42969 24.3994 5.8125C24.3994 2.19531 26.5634 0 29.4931 0C31.8838 0 33.7822 1.41406 34.165 3.84375H32.4306ZM35.7044 11.4688V0.15625H42.7981V1.64062H37.4231V5.0625H42.4231V6.53125H37.4231V9.98438H42.8606V11.4688H35.7044Z" fill="black"/>
</svg>
