<svg width="391" height="70" viewBox="0 0 391 70" fill="none" xmlns="http://www.w3.org/2000/svg">
<path d="M8.44922 6.50781C8.43555 10.541 9.55664 14.6973 12.9609 16.8711L11.0742 19.5781C8.91406 18.2793 7.56055 16.1191 6.76758 13.5762C5.87891 16.3926 4.38867 18.7578 2.13281 20.125L0 17.5547C3.69141 15.2715 5.05859 10.8828 5.05859 6.67188V2.37891H8.44922V6.50781ZM10.3359 11.4844V8.64062H13.5625V0.601562H16.8164V23.9805H13.5625V11.4844H10.3359ZM18.7031 25.1289V0.246094H22.0391V25.1289H18.7031ZM33.1822 4.15625C33.1685 7.17773 34.9322 10.0762 38.8697 11.293L37.0103 14C34.3716 13.125 32.5259 11.4297 31.4595 9.25586C30.3795 11.7578 28.4517 13.7266 25.608 14.6836L23.7213 11.9492C27.8775 10.5684 29.6548 7.25977 29.6822 3.82812V1.55859H33.1822V4.15625ZM27.1666 20.3164C27.1529 17.2949 30.4478 15.5039 35.6978 15.5039C40.8521 15.5039 44.0787 17.2949 44.0923 20.3164C44.0787 23.3652 40.8521 25.1426 35.6978 25.1289C30.4478 25.1426 27.1529 23.3652 27.1666 20.3164ZM30.6666 20.3164C30.6392 21.7246 32.4302 22.3945 35.6978 22.3945C38.9244 22.3945 40.647 21.7246 40.647 20.3164C40.647 18.9629 38.9244 18.2383 35.6978 18.2383C32.4302 18.2383 30.6392 18.9629 30.6666 20.3164ZM40.3463 15.0117V0.246094H43.8463V6.07031H47.2095V8.96875H43.8463V15.0117H40.3463ZM69.3175 0.246094V25.1289H65.9816V0.246094H69.3175ZM47.962 11.0195C47.962 5.45508 50.0812 2.00977 53.3761 2.02344C56.3702 2.00977 58.421 4.8125 58.8038 9.46094H60.8409V0.601562H64.1222V23.9805H60.8409V12.2227H58.8312C58.5304 17.1035 56.4386 20.0703 53.3761 20.0703C50.0812 20.0703 47.962 16.6113 47.962 11.0195ZM51.1886 11.0195C51.1613 14.8477 51.9816 16.7344 53.3761 16.707C54.8116 16.7344 55.6593 14.8477 55.6456 11.0195C55.6593 7.20508 54.8116 5.30469 53.3761 5.30469C51.9816 5.30469 51.1613 7.20508 51.1886 11.0195ZM96.9084 0.246094V9.78906H100.436V12.6602H96.9084V25.0742H93.4084V0.246094H96.9084ZM77.0022 18.1016C82.8948 15.1484 86.0666 11.1836 86.7229 5.63281H78.4241V2.78906H90.2639C90.2366 10.2266 87.3381 16.666 78.9709 20.7812L77.0022 18.1016ZM121.723 0.246094V25.1289H118.223V0.246094H121.723ZM101.052 17.8008C105.139 16.0098 107.163 11.8262 107.177 8.03906V7.08203H101.872V4.29297H107.149V0.792969H110.622V4.29297H115.817V7.08203H110.649V8.03906C110.649 11.6484 112.686 15.709 116.829 17.418L114.942 20.0977C112.112 18.9355 110.089 16.5566 108.954 13.6992C107.846 16.7207 105.809 19.2637 102.911 20.4805L101.052 17.8008ZM147.304 11.4023V14H124.527V11.4023H147.304ZM127.124 17.6367V15.2305H144.57V21.1094H130.624V22.5312H145.308V24.9102H127.152V18.8945H141.124V17.6367H127.124ZM127.316 3.0625V0.683594H144.542V6.53516H130.843V7.875H144.98V10.2266H127.37V4.32031H141.042V3.0625H127.316ZM166.61 2.43359V5.27734H158.79V16.3242C162.413 16.2832 165.024 16.1191 167.95 15.5859L168.305 18.4023C164.887 19.0586 161.879 19.1953 157.286 19.168H155.262V2.43359H166.61ZM165.379 11.7031V8.85938H171.641V0.246094H175.114V25.1836H171.641V11.7031H165.379ZM197.358 0.246094V9.98047H201.023V12.8516H197.358V25.1289H193.913V0.246094H197.358ZM177.589 6.75391V3.96484H183.222V0.628906H186.722V3.96484H192.218V6.75391H177.589ZM178.601 14.082C178.587 10.6094 181.294 8.13477 184.972 8.14844C188.595 8.13477 191.315 10.6094 191.315 14.082C191.315 17.5547 188.595 20.002 184.972 20.0156C181.294 20.002 178.587 17.5547 178.601 14.082ZM181.937 14.082C181.937 16.0098 183.208 17.1582 184.972 17.1445C186.708 17.1582 187.98 16.0098 187.98 14.082C187.98 12.168 186.708 10.9922 184.972 10.9648C183.208 10.9922 181.937 12.168 181.937 14.082ZM221.572 7.02734V9.76172H204.181V1.12109H207.654V7.02734H221.572ZM201.337 15.1758V12.4414H224.115V15.1758H201.337ZM203.962 24.582V17.1992H207.462V21.793H221.736V24.582H203.962ZM253.675 19.4414V22.3672H230.897V19.4414H240.467V14.957H232.784V12.2227H236.12V5.11328H232.675V2.32422H251.76V5.11328H248.26V12.2227H251.651V14.957H243.94V19.4414H253.675ZM239.62 12.2227H244.815V5.11328H239.62V12.2227ZM267.634 3.52734C267.62 7.17773 270.861 11.0742 276.493 12.0312L274.962 14.9297C270.615 14.0684 267.402 11.6211 265.788 8.43555C264.148 11.5938 260.921 14.0547 256.615 14.9297L255.111 12.0312C260.648 11.0469 263.888 7.13672 263.915 3.52734V1.72266H267.634V3.52734ZM254.536 22.0664V19.1953H277.314V22.0664H254.536ZM298.601 2.32422V4.53906C298.588 7.5332 298.642 11.0605 297.48 16.4336L294.062 16.0781C294.473 14.1914 294.732 12.5098 294.896 10.9922L280.445 11.8125L279.953 8.83203L295.101 8.33984C295.17 7.16406 295.17 6.09766 295.183 5.11328H280.773V2.32422H298.601ZM278.176 22.2578V19.4141H286.297V13.3984H289.769V19.4141H300.871V22.2578H278.176ZM323.334 1.72266V4.15625H302.909V1.72266H311.413V0H314.913V1.72266H323.334ZM301.815 14.6289V12.1406H311.413V11.0059C307.01 10.7871 304.768 9.81641 304.795 7.90234C304.768 5.74219 307.598 4.77148 313.163 4.78516C318.686 4.77148 321.516 5.74219 321.53 7.90234C321.516 9.80273 319.288 10.7871 314.913 11.0059V12.1406H324.51V14.6289H301.815ZM304.44 18.0742V15.668H321.748V21.3555H307.995V22.5312H322.405V24.9648H304.467V19.0859H318.194V18.0742H304.44ZM308.514 7.90234C308.514 8.55859 309.772 8.8457 313.163 8.83203C316.512 8.8457 317.838 8.55859 317.838 7.90234C317.838 7.23242 316.512 7 313.163 7C309.772 7 308.514 7.23242 308.514 7.90234ZM346.29 0.246094V15.1211H342.79V0.246094H346.29ZM326.876 13.5898V2.10547H338.77V4.89453H330.321V10.8008C335.038 10.7871 337.786 10.5957 340.821 10.0078L341.122 12.7969C337.759 13.4805 334.71 13.6035 329.036 13.5898H326.876ZM329.255 20.2617C329.241 17.1719 332.495 15.3535 337.813 15.3672C343.05 15.3535 346.345 17.1719 346.372 20.2617C346.345 23.3379 343.05 25.1562 337.813 25.1562C332.495 25.1562 329.241 23.3379 329.255 20.2617ZM332.755 20.2617C332.755 21.7109 334.491 22.4492 337.813 22.4492C341.108 22.4492 342.913 21.7109 342.927 20.2617C342.913 18.7715 341.108 18.1016 337.813 18.1016C334.491 18.1016 332.755 18.7715 332.755 20.2617ZM362.191 3.52734C362.177 7.17773 365.418 11.0742 371.05 12.0312L369.519 14.9297C365.171 14.0684 361.959 11.6211 360.345 8.43555C358.705 11.5938 355.478 14.0547 351.171 14.9297L349.668 12.0312C355.205 11.0469 358.445 7.13672 358.472 3.52734V1.72266H362.191V3.52734ZM349.093 22.0664V19.1953H371.871V22.0664H349.093ZM12.9883 46.4336V49.2773H5.16797V60.3242C8.79102 60.2832 11.4023 60.1191 14.3281 59.5859L14.6836 62.4023C11.2656 63.0586 8.25781 63.1953 3.66406 63.168H1.64062V46.4336H12.9883ZM11.7578 55.7031V52.8594H18.0195V44.2461H21.4922V69.1836H18.0195V55.7031H11.7578ZM53.1573 53.6797V56.5234H49.63V69.0742H46.13V44.2461H49.63V53.6797H53.1573ZM30.7902 63.0039V46.625H34.2628V60.1191C37.4484 60.0645 40.8663 59.7637 44.462 59.0391L44.8175 61.9375C40.6476 62.7852 36.6144 63.0039 32.9503 63.0039H30.7902ZM76.3317 56.9609V59.75H53.6364V56.9609H76.3317ZM55.9059 50.0977C55.9059 46.9258 59.5016 44.9844 64.9841 45.0117C70.4255 44.9844 74.0212 46.9258 74.0348 50.0977C74.0212 53.2832 70.4255 55.2383 64.9841 55.2383C59.5016 55.2383 55.9059 53.2832 55.9059 50.0977ZM56.3708 68.6914V61.418H59.8708V65.9023H73.7614V68.6914H56.3708ZM59.5427 50.0977C59.5153 51.6426 61.5251 52.4219 64.9841 52.4219C68.4157 52.4219 70.4255 51.6426 70.4255 50.0977C70.4255 48.5938 68.4157 47.7734 64.9841 47.7461C61.5251 47.7734 59.5153 48.5938 59.5427 50.0977ZM92.575 47.6367C92.5613 50.959 94.2703 54.0352 98.2625 55.2656L96.4305 58C93.7508 57.0703 91.9324 55.3613 90.8797 53.1191C89.7859 55.7168 87.7762 57.7539 84.782 58.7656L82.95 55.9766C87.202 54.6094 89.034 51.2734 89.0477 47.8008V45.5312H92.575V47.6367ZM87.0789 64.3164C87.0789 61.2539 90.3328 59.4629 95.6375 59.4766C100.956 59.4629 104.21 61.2539 104.223 64.3164C104.21 67.3926 100.956 69.1426 95.6375 69.1289C90.3328 69.1426 87.0789 67.3926 87.0789 64.3164ZM90.5516 64.3164C90.5516 65.6973 92.3426 66.4219 95.6375 66.4219C98.9461 66.4219 100.737 65.6973 100.751 64.3164C100.737 62.8945 98.9461 62.1836 95.6375 62.1836C92.3426 62.1836 90.5516 62.8945 90.5516 64.3164ZM95.993 51.6562V48.8125H100.669V44.2461H104.141V58.8203H100.669V51.6562H95.993ZM120.945 45.9141V48.7031H115.995C116.009 51.6016 117.773 54.4043 121.738 55.5664L120.07 58.3008C117.322 57.4668 115.408 55.7852 114.314 53.666C113.206 56.168 111.183 58.1641 108.202 59.1484L106.425 56.3867C110.554 55.0879 112.427 51.8613 112.468 48.7031H107.382V45.9141H120.945ZM109.87 64.2891C109.857 61.2539 113.138 59.4902 118.402 59.5039C123.583 59.4902 126.783 61.2539 126.796 64.2891C126.783 67.3379 123.583 69.1426 118.402 69.1289C113.138 69.1426 109.857 67.3379 109.87 64.2891ZM113.37 64.2891C113.343 65.7109 115.134 66.4219 118.402 66.4219C121.628 66.4219 123.351 65.7109 123.351 64.2891C123.351 62.8945 121.628 62.1973 118.402 62.2109C115.134 62.1973 113.343 62.8945 113.37 64.2891ZM123.05 59.0117V44.2461H126.55V50.0156H129.913V52.8594H126.55V59.0117H123.05ZM144.447 46.7344V48.7305C144.42 51.0684 144.42 54.1309 143.764 58.2734L140.318 58C140.893 54.3906 140.947 51.7246 140.975 49.5234H131.541V46.7344H144.447ZM130.228 61.2539C131.623 61.2539 133.182 61.2402 134.795 61.1992V53.8711H138.24V61.0898C140.687 60.9941 143.162 60.8164 145.459 60.5156L145.678 63.1133C140.551 63.9746 134.918 64.0703 130.557 64.043L130.228 61.2539ZM146.635 69.1289V44.2461H150.162V54.2539H153.553V57.1523H150.162V69.1289H146.635ZM180.815 44.2734V62.4297H177.315V44.2734H180.815ZM159.898 56.2773C164.067 54.8828 165.886 51.4238 165.886 48.0469V45.6406H169.523V48.0469C169.495 51.3418 171.259 54.5547 175.347 55.8672L173.569 58.6016C170.753 57.6719 168.825 55.8125 167.718 53.4473C166.597 55.9902 164.614 58.041 161.702 59.0391L159.898 56.2773ZM164.136 68.6914V60.6797H167.663V65.9023H181.472V68.6914H164.136ZM198.22 46.4062V53.7891H188.923V55.9492H198.795V58.6562H193.681V61.7461C195.705 61.6641 197.728 61.5273 199.642 61.3359L199.916 63.8789C194.474 64.7539 188.814 64.7949 184.138 64.7266L183.728 61.8828C185.724 61.8965 187.925 61.8965 190.181 61.8555V58.6562H185.423V51.2734H194.775V49.1406H185.396V46.4062H198.22ZM201.064 69.1836V44.2461H204.537V69.1836H201.064ZM230.008 55.4023V58H207.231V55.4023H230.008ZM209.828 61.6367V59.2305H227.274V65.1094H213.328V66.5312H228.012V68.9102H209.856V62.8945H223.828V61.6367H209.828ZM210.02 47.0625V44.6836H227.246V50.5352H213.547V51.875H227.684V54.2266H210.074V48.3203H223.746V47.0625H210.02ZM249.478 46.2969V58.2461H237.529V46.2969H249.478ZM240.4 68.6914V60.625H243.872V65.9023H257.435V68.6914H240.4ZM240.974 55.5117H246.033V49.0859H240.974V55.5117ZM253.033 62.4023V44.2461H256.533V51.4102H259.896V54.2812H256.533V62.4023H253.033ZM283.18 53.9531V56.6875H260.43V53.9531H283.18ZM263.055 60.7891V58.1641H280.363V64.6719H266.5V66.2031H281.019V68.9102H263.082V62.1836H276.918V60.7891H263.055ZM263.273 52.5859V44.7383H280.281V47.5273H266.746V49.8516H280.473V52.5859H263.273ZM290.932 45.9961C294.295 45.9961 296.811 48.7578 297.303 53.2422H301.623V44.2461H305.069V69.1836H301.623V56.0312H297.344C296.975 60.8164 294.405 63.7422 290.932 63.7422C287.159 63.7422 284.452 60.3242 284.479 54.8555C284.452 49.4277 287.159 45.9961 290.932 45.9961ZM287.815 54.8555C287.801 58.5605 289.073 60.584 290.932 60.5703C292.805 60.584 294.049 58.5605 294.049 54.8555C294.049 51.1641 292.805 49.1406 290.932 49.1406C289.073 49.1406 287.801 51.1641 287.815 54.8555ZM333.343 44.2461V49.6328H336.707V52.5039H333.343V57.7539H329.816V44.2461H333.343ZM313.492 55.2383C319.302 54.0078 322.132 51.3828 322.57 48.3203H314.75V45.5859H326.425C326.439 52.1758 322.337 56.3457 314.75 58.0547L313.492 55.2383ZM316.992 68.8555V58.7109H320.519V61.1445H329.843V58.7109H333.343V68.8555H316.992ZM320.519 66.0391H329.843V63.8242H320.519V66.0391ZM358.158 44.2461V69.1289H354.686V44.2461H358.158ZM338.58 62.9766V46.625H342.025V60.0098C345.389 59.9551 348.998 59.6406 352.662 58.9297L353.1 61.8008C348.738 62.7168 344.609 62.9902 340.768 62.9766H338.58ZM380.512 44.2461V53.4883H384.176V56.332H380.512V69.1836H377.012V44.2461H380.512ZM361.864 63.1406V46.543H373.54V49.3594H365.337V60.2695C368.946 60.2422 371.926 60.0508 375.235 59.4766L375.618 62.4023C371.749 63.0586 368.358 63.1543 363.969 63.1406H361.864ZM387.745 66.8594C386.46 66.8594 385.421 65.834 385.448 64.5625C385.421 63.3047 386.46 62.2793 387.745 62.293C388.962 62.2793 390.015 63.3047 390.015 64.5625C390.015 65.834 388.962 66.8594 387.745 66.8594Z" fill="black"/>
</svg>
