<svg width="379" height="43" viewBox="0 0 379 43" fill="none" xmlns="http://www.w3.org/2000/svg">
<path d="M12.7185 11.3438V12.3906H-0.000274658V11.3438H5.70285V8.14062H1.15598V7.15625H3.32785V2.59375H1.12473V1.57812H11.4997V2.59375H9.2966V7.15625H11.4685V8.14062H6.90598V11.3438H12.7185ZM4.5466 7.15625H8.09348V2.59375H4.5466V7.15625ZM20.4297 2.26562C20.4375 4.64844 23.1563 6.76562 25.5704 7.21875L25.0079 8.25C22.9063 7.76562 20.7032 6.27344 19.8047 4.23438C18.8985 6.27344 16.7032 7.75781 14.6016 8.25L14.0391 7.21875C16.4454 6.75781 19.1407 4.65625 19.1485 2.26562V1.20312H20.4297V2.26562ZM13.5079 12.2188V11.2031H26.2266V12.2188H13.5079ZM38.1254 1.57812V2.92188C38.1097 4.60938 38.1254 6.51562 37.5472 9.34375L36.3441 9.20312C36.6097 7.94531 36.7504 6.84375 36.8285 5.86719L28.3441 6.375L28.141 5.29688L36.8832 4.9375C36.9144 4.20312 36.9222 3.54688 36.9222 2.92188V2.59375H28.5472V1.57812H38.1254ZM27.016 12.2188V11.1719H31.9847V7.57812H33.1879V11.1719H39.6722V12.2188H27.016ZM52.446 1.20312V2.10938H41.1804V1.20312H46.2429V0H47.4616V1.20312H52.446ZM40.5241 8.17188V7.25H46.2429V6.28125C43.6882 6.19531 42.3366 5.60938 42.3366 4.48438C42.3366 3.27344 43.9069 2.6875 46.8522 2.6875C49.7741 2.6875 51.3522 3.27344 51.3522 4.48438C51.3522 5.60938 49.9929 6.19531 47.4616 6.28125V7.25H53.1804V8.17188H40.5241ZM42.0554 9.96875V9.07812H51.5554V11.875H43.3366V13.0469H51.9772V13.9531H42.0866V11.0156H50.321V9.96875H42.0554ZM43.6491 4.48438C43.6413 5.11719 44.735 5.46094 46.8522 5.46875C48.946 5.46094 50.0632 5.11719 50.071 4.48438C50.0632 3.85938 48.946 3.53125 46.8522 3.53125C44.735 3.53125 43.6413 3.85938 43.6491 4.48438ZM65.501 0.21875V8.78125H64.2822V0.21875H65.501ZM54.8916 7.40625V1.3125H61.4697V2.32812H56.1104V6.39062C59.0947 6.39062 60.8369 6.30469 62.8447 5.89062L62.9854 6.92188C60.8916 7.32031 59.1182 7.39844 56.0322 7.40625H54.8916ZM56.1729 11.4375C56.165 9.77344 57.9463 8.78906 60.8604 8.78125C63.7432 8.78906 65.5322 9.77344 65.5479 11.4375C65.5322 13.1172 63.7432 14.0938 60.8604 14.1094C57.9463 14.0938 56.165 13.1172 56.1729 11.4375ZM57.4072 11.4375C57.4072 12.4766 58.7041 13.1094 60.8604 13.1094C63.0088 13.1094 64.3291 12.4766 64.3291 11.4375C64.3291 10.3906 63.0088 9.77344 60.8604 9.76562C58.7041 9.77344 57.4072 10.3906 57.4072 11.4375ZM74.4622 2.26562C74.47 4.64844 77.1888 6.76562 79.6029 7.21875L79.0404 8.25C76.9388 7.76562 74.7357 6.27344 73.8372 4.23438C72.931 6.27344 70.7357 7.75781 68.6341 8.25L68.0716 7.21875C70.4779 6.75781 73.1732 4.65625 73.181 2.26562V1.20312H74.4622V2.26562ZM67.5404 12.2188V11.2031H80.2591V12.2188H67.5404ZM92.2829 4.4375V5.42188H82.7672V0.734375H83.986V4.4375H92.2829ZM81.0329 8.3125V7.3125H93.7516V8.3125H81.0329ZM82.6891 13.7656V9.73438H83.9079V12.75H92.361V13.7656H82.6891ZM102.987 2.95312C102.994 4.49219 104.549 5.8125 106.612 6.29688L106.049 7.23438C104.385 6.82812 103.049 5.89844 102.416 4.64844C101.799 6.01562 100.455 7.04688 98.7679 7.51562L98.2054 6.5625C100.268 6.00781 101.776 4.60156 101.783 2.95312V2.625H98.6429V1.625H101.783V0.15625H103.018V1.625H106.127V2.625H102.987V2.95312ZM100.752 9.15625V8.1875H109.752V11.4688H102.002V12.9688H110.283V13.9531H100.783V10.5312H108.533V9.15625H100.752ZM105.705 4.6875V3.6875H108.533V0.21875H109.752V7.51562H108.533V4.6875H105.705ZM122.62 0.21875V3.84375H124.713V4.85938H122.62V8.5625H121.401V0.21875H122.62ZM111.776 7.57812C115.128 6.60938 117.268 4.67969 117.518 2.26562H112.385V1.25H118.838C118.831 4.78906 116.338 7.38281 112.292 8.57812L111.776 7.57812ZM113.682 11.3906C113.674 9.72656 115.463 8.71094 118.229 8.71875C121.018 8.71094 122.776 9.72656 122.776 11.3906C122.776 13.0781 121.018 14.0781 118.229 14.0781C115.463 14.0781 113.674 13.0781 113.682 11.3906ZM114.901 11.3906C114.885 12.4375 116.19 13.1016 118.229 13.0938C120.268 13.1016 121.588 12.4375 121.588 11.3906C121.588 10.3438 120.268 9.69531 118.229 9.70312C116.19 9.69531 114.885 10.3438 114.901 11.3906ZM131.597 0.46875C134.683 0.46875 136.495 1.32031 136.503 2.85938C136.495 4.4375 134.683 5.28906 131.597 5.29688C128.495 5.28906 126.675 4.4375 126.675 2.85938C126.675 1.32031 128.495 0.46875 131.597 0.46875ZM125.268 7.23438V6.23438H137.925V7.23438H125.268ZM126.8 9.375V8.4375H136.3V11.5469H128.05V12.9844H136.722V13.9531H126.831V10.6406H135.097V9.375H126.8ZM127.956 2.85938C127.94 3.82812 129.292 4.35938 131.597 4.35938C133.901 4.35938 135.245 3.82812 135.253 2.85938C135.245 1.94531 133.901 1.39844 131.597 1.39062C129.292 1.39844 127.94 1.94531 127.956 2.85938ZM153.988 8.90625V13.9219H144.988V8.90625H153.988ZM143.3 7.32812V1.0625H144.535V6.26562C146.699 6.27344 148.543 6.14062 150.566 5.71875L150.722 6.76562C148.574 7.21094 146.675 7.32812 144.363 7.32812H143.3ZM146.191 12.9219H152.785V9.89062H146.191V12.9219ZM148.753 3.85938V2.85938H152.753V0.21875H153.988V8.23438H152.753V3.85938H148.753ZM159.715 1.29688C161.605 1.30469 162.973 2.92969 163.16 5.53125H166.277V0.21875H167.496V14.1406H166.277V6.54688H163.176C163.043 9.27344 161.652 10.9766 159.715 10.9688C157.66 10.9766 156.223 9.10156 156.23 6.14062C156.223 3.1875 157.66 1.30469 159.715 1.29688ZM157.402 6.14062C157.41 8.39844 158.348 9.88281 159.715 9.875C161.074 9.88281 162.027 8.39844 162.027 6.14062C162.027 3.88281 161.074 2.39844 159.715 2.39062C158.348 2.39844 157.41 3.88281 157.402 6.14062ZM184.637 0.21875V14.1406H183.403V0.21875H184.637ZM173.7 6.14062C173.708 3.1875 175.176 1.30469 177.247 1.29688C179.309 1.30469 180.801 3.1875 180.793 6.14062C180.801 9.10156 179.309 10.9766 177.247 10.9688C175.176 10.9766 173.708 9.10156 173.7 6.14062ZM174.887 6.14062C174.887 8.39844 175.856 9.88281 177.247 9.875C178.645 9.88281 179.606 8.39844 179.606 6.14062C179.606 3.88281 178.645 2.39844 177.247 2.39062C175.856 2.39844 174.887 3.88281 174.887 6.14062ZM191.317 4.75C191.325 6.97656 192.77 9.25 194.786 10.2188L194.067 11.1719C192.536 10.4219 191.325 8.89844 190.747 7.10938C190.138 9.04688 188.848 10.6562 187.27 11.4219L186.567 10.4688C188.606 9.51562 190.122 7.14062 190.13 4.75V3.64062H186.942V2.64062H190.114V0.484375H191.348V2.64062H194.473V3.64062H191.317V4.75ZM196.223 14.1094V0.21875H197.442V5.92188H199.77V6.96875H197.442V14.1094H196.223ZM211.716 0.234375V10.4219H210.482V5.09375H207.622V4.07812H210.482V0.234375H211.716ZM200.263 7.64062C202.31 6.92188 203.794 5.08594 203.794 3.09375V2.375H200.653V1.35938H208.138V2.375H205.028V3.09375C205.028 4.89062 206.419 6.63281 208.45 7.32812L207.81 8.3125C206.247 7.74219 205.036 6.57812 204.435 5.14062C203.833 6.75 202.552 8.02344 200.903 8.64062L200.263 7.64062ZM202.794 13.8125V9.5H204.028V12.7812H212.107V13.8125H202.794ZM218.677 4.48438C218.685 6.84375 220.396 9.24219 222.443 10.125L221.755 11.0938C220.13 10.3594 218.732 8.75781 218.083 6.83594C217.435 8.875 216.029 10.6406 214.443 11.4375L213.708 10.4688C215.701 9.51562 217.435 6.89062 217.443 4.48438V2.67188H214.162V1.65625H221.99V2.67188H218.677V4.48438ZM223.927 14.1094V0.21875H225.162V14.1094H223.927ZM243.631 11.2812V12.2969H230.912V11.2812H236.6V7.875H237.803V11.2812H243.631ZM231.412 7.01562C233.842 6.60156 236.545 4.57031 236.553 2.23438V1.17188H237.834V2.23438C237.842 4.55469 240.584 6.60156 243.006 7.01562L242.459 8.03125C240.342 7.59375 238.108 6.16406 237.209 4.16406C236.295 6.15625 234.084 7.59375 231.959 8.03125L231.412 7.01562ZM256.358 0.21875V14.1094H255.17V6.89062H253.28V13.4062H252.108V0.515625H253.28V5.84375H255.17V0.21875H256.358ZM244.28 10.2969C246.28 9.19531 247.35 6.83594 247.342 4.01562V2.90625H244.608V1.875H251.108V2.90625H248.53V4.01562C248.53 6.55469 249.584 8.79688 251.561 9.8125L250.827 10.7656C249.428 10 248.459 8.63281 247.967 6.9375C247.491 8.86719 246.506 10.3828 245.045 11.2344L244.28 10.2969ZM260.21 11.7969L258.991 16.0469H257.835L258.694 11.7969H260.21ZM277.304 0.21875V14.1094H276.117V0.21875H277.304ZM265.57 6.21875C265.578 3.26562 266.749 1.39844 268.554 1.39062C270.242 1.39844 271.382 3.02344 271.538 5.64062H273.335V0.515625H274.507V13.4062H273.335V6.65625H271.546C271.429 9.35938 270.265 11.0547 268.554 11.0469C266.749 11.0547 265.578 9.17188 265.57 6.21875ZM266.726 6.21875C266.71 8.46875 267.429 9.89062 268.554 9.875C269.687 9.89062 270.406 8.46875 270.398 6.21875C270.406 3.96094 269.687 2.54688 268.554 2.54688C267.429 2.54688 266.71 3.96094 266.726 6.21875ZM290.437 0.21875V14.1406H289.203V5.82812H284.875V4.8125H289.203V0.21875H290.437ZM279.672 10.7656V1.78125H280.906V9.73438C283.031 9.71094 284.914 9.60156 287 9.17188L287.156 10.1875C284.937 10.6484 282.984 10.7656 280.734 10.7656H279.672ZM297.383 4.48438C297.391 6.84375 299.102 9.24219 301.148 10.125L300.461 11.0938C298.836 10.3594 297.438 8.75781 296.789 6.83594C296.141 8.875 294.734 10.6406 293.148 11.4375L292.414 10.4688C294.406 9.51562 296.141 6.89062 296.148 4.48438V2.67188H292.867V1.65625H300.695V2.67188H297.383V4.48438ZM302.633 14.1094V0.21875H303.867V14.1094H302.633ZM308.203 11.7969L306.985 16.0469H305.828L306.688 11.7969H308.203ZM324.86 0.234375V10.3906H323.642V0.234375H324.86ZM313.72 4.60938C313.712 2.60938 315.282 1.21094 317.36 1.20312C319.438 1.21094 320.993 2.60938 321.001 4.60938C320.993 6.63281 319.438 8.03906 317.36 8.03125C315.282 8.03906 313.712 6.63281 313.72 4.60938ZM314.923 4.60938C314.907 5.99219 315.954 6.95312 317.36 6.95312C318.743 6.95312 319.798 5.99219 319.798 4.60938C319.798 3.25 318.743 2.28125 317.36 2.28125C315.954 2.28125 314.907 3.25 314.923 4.60938ZM315.892 13.8125V9.35938H317.11V12.7812H325.298V13.8125H315.892ZM339.618 11.2812V12.3281H326.9V11.2812H339.618ZM328.025 2.64062V1.625H338.4V2.64062H336.197V7.5H338.368V8.5H328.056V7.5H330.228V2.64062H328.025ZM331.447 7.5H334.993V2.64062H331.447V7.5ZM351.158 0.21875V5.75H353.486V6.78125H351.158V14.1406H349.939V0.21875H351.158ZM340.955 2.53125V1.51562H347.267V6.48438H342.205V9.73438C344.783 9.74219 346.588 9.64062 348.689 9.25L348.814 10.2656C346.627 10.6641 344.775 10.7656 342.095 10.7812H340.986V5.46875H346.048V2.53125H340.955ZM364.916 0.21875V5.95312H367.025V6.98438H364.916V14.1094H363.682V0.21875H364.916ZM353.869 10.2656C355.963 8.11719 356.814 5.53125 356.971 2.76562H354.307V1.73438H358.135C358.119 5.03906 357.377 8.30469 354.853 10.9688L353.869 10.2656ZM357.853 11.2031C360.025 8.75 360.674 5.66406 360.791 2.76562H358.572V1.73438H361.947C361.939 5.03125 361.455 8.86719 358.853 11.8906L357.853 11.2031ZM372.393 4.48438C372.401 6.84375 374.112 9.24219 376.158 10.125L375.471 11.0938C373.846 10.3594 372.448 8.75781 371.799 6.83594C371.151 8.875 369.744 10.6406 368.158 11.4375L367.424 10.4688C369.416 9.51562 371.151 6.89062 371.158 4.48438V2.67188H367.877V1.65625H375.705V2.67188H372.393V4.48438ZM377.643 14.1094V0.21875H378.877V14.1094H377.643ZM18.3241 28.2344V38.4219H17.0897V33.0938H14.2304V32.0781H17.0897V28.2344H18.3241ZM6.87098 35.6406C8.91785 34.9219 10.4022 33.0859 10.4022 31.0938V30.375H7.2616V29.3594H14.746V30.375H11.6366V31.0938C11.6366 32.8906 13.0272 34.6328 15.0585 35.3281L14.4179 36.3125C12.8554 35.7422 11.6444 34.5781 11.0429 33.1406C10.4413 34.75 9.16004 36.0234 7.5116 36.6406L6.87098 35.6406ZM9.40223 41.8125V37.5H10.6366V40.7812H18.7147V41.8125H9.40223ZM28.1372 32.1719C28.1372 34.3828 29.2154 36.7656 31.0591 37.8594L30.356 38.8125C29.0122 38 28.0513 36.5156 27.5669 34.8203C27.0591 36.6719 26.0279 38.2656 24.6372 39.1094L23.856 38.1875C25.7779 37.0625 26.9497 34.6016 26.9497 32.2188V29.5312H28.1372V32.1719ZM29.5279 34.25V33.2031H31.8872V28.5156H33.0435V41.4062H31.8872V34.25H29.5279ZM34.731 42.1094V28.2188H35.9185V42.1094H34.731ZM49.411 28.2188V42.1094H48.2391V28.2188H49.411ZM37.5047 38.2188C40.5282 36.4297 42.0438 33.9219 42.286 31.0156H38.1297V30H43.5047C43.5047 30.7109 43.4422 31.4141 43.3172 32.0938H45.4266V28.5938H46.5985V41.4062H45.4266V36.5938H42.8485V35.5781H45.4266V33.1094H43.075C42.4032 35.4609 40.8797 37.5391 38.2547 39.1094L37.5047 38.2188ZM61.7397 30.1875C61.7319 32.0469 64.2085 33.625 66.6304 33.9844L66.1772 34.9531C64.0132 34.5859 61.896 33.4297 61.0522 31.7578C60.2085 33.4297 58.0913 34.5859 55.9585 34.9531L55.4741 33.9844C57.8882 33.625 60.3569 32.0469 60.3647 30.1875V30.0938H55.9116V29.0938H66.1772V30.0938H61.7397V30.1875ZM54.7241 37.1562V36.1406H67.3804V37.1562H61.6304V42.1094H60.4272V37.1562H54.7241ZM80.951 39.2969V40.3281H68.2322V39.2969H71.3885V35.5547C70.201 34.9375 69.4822 33.9375 69.4822 32.6719C69.4822 30.5234 71.5916 29.1094 74.5604 29.0938C77.5291 29.1094 79.6385 30.5234 79.6385 32.6719C79.6385 33.9141 78.9432 34.8984 77.7947 35.5156V39.2969H80.951ZM70.6697 32.6719C70.6619 34.2266 72.2791 35.2656 74.5604 35.2656C76.8182 35.2656 78.451 34.2266 78.451 32.6719C78.451 31.1172 76.8182 30.0938 74.5604 30.1094C72.2791 30.0938 70.6619 31.1172 70.6697 32.6719ZM72.5916 39.2969H76.5604V35.9922C75.9588 36.1484 75.2869 36.2344 74.5604 36.2344C73.8494 36.2344 73.1854 36.1562 72.5916 36V39.2969ZM96.936 28.2188V42.1094H95.7172V34.8281H92.4047V33.8125H95.7172V28.2188H96.936ZM85.4516 38.4844C89.2094 36.6641 90.9516 33.9844 91.2016 30.7344H86.061V29.7344H92.436C92.4282 33.6719 90.7641 37.1641 86.1235 39.4688L85.4516 38.4844ZM110.46 28.2188V36.3594H109.225V32.7344H106.413V31.7031H109.225V28.2188H110.46ZM99.0066 35.25C101.053 34.5234 102.538 32.6641 102.538 30.6875V30.1406H99.3972V29.125H106.882V30.1406H103.772V30.6875C103.772 32.4766 105.163 34.2109 107.194 34.9375L106.553 35.9062C104.991 35.3359 103.78 34.1719 103.178 32.7344C102.577 34.3438 101.296 35.6172 99.6472 36.2188L99.0066 35.25ZM101.382 41.9219V37.0469H110.46V41.9219H101.382ZM102.6 40.9219H109.257V38.0312H102.6V40.9219ZM124.358 28.2188V42.1094H123.171V28.2188H124.358ZM112.624 34.2188C112.632 31.2656 113.804 29.3984 115.608 29.3906C117.296 29.3984 118.437 31.0234 118.593 33.6406H120.39V28.5156H121.562V41.4062H120.39V34.6562H118.601C118.483 37.3594 117.319 39.0547 115.608 39.0469C113.804 39.0547 112.632 37.1719 112.624 34.2188ZM113.78 34.2188C113.765 36.4688 114.483 37.8906 115.608 37.875C116.741 37.8906 117.46 36.4688 117.452 34.2188C117.46 31.9609 116.741 30.5469 115.608 30.5469C114.483 30.5469 113.765 31.9609 113.78 34.2188ZM130.851 31.9531C130.843 34.4688 132.46 37 134.476 37.9219L133.742 38.9219C132.163 38.1094 130.859 36.4531 130.242 34.4766C129.624 36.5547 128.32 38.3359 126.742 39.1719L125.945 38.1875C127.984 37.1875 129.593 34.5156 129.601 31.9531V29.4219H130.851V31.9531ZM132.96 33.9688V32.9688H136.257V28.2188H137.476V42.1406H136.257V33.9688H132.96ZM150.398 29.5938V38.625H143.977V29.5938H150.398ZM145.18 37.625H149.195V30.5781H145.18V37.625ZM153.383 42.1406V28.2188H154.617V42.1406H153.383ZM162.344 29.7344V34.5938H158.328V37.75C159.93 37.7422 161.438 37.6797 163.235 37.375L163.344 38.375C161.368 38.7188 159.797 38.7812 158.047 38.7812H157.141V33.5781H161.157V30.7656H157.11V29.7344H162.344ZM164.203 41.3906V28.5312H165.328V33.7188H167.375V28.2188H168.547V42.1094H167.375V34.7344H165.328V41.3906H164.203ZM178.548 30.8438C178.54 32.7578 179.985 34.5234 182.032 35.2344L181.407 36.2188C179.829 35.6406 178.603 34.4688 177.985 33C177.399 34.6562 176.142 35.9297 174.501 36.5625L173.829 35.5781C175.946 34.8359 177.337 32.9531 177.345 30.7969V29.0781H178.548V30.8438ZM176.063 41.8125V37.5H177.313V40.7812H185.376V41.8125H176.063ZM183.517 38.4844V28.2188H184.735V32.4844H186.829V33.5312H184.735V38.4844H183.517ZM191.212 28.875C193.072 28.8672 194.493 29.9531 194.759 31.5469H197.665V28.2188H198.9V35.6719H197.665V32.5625H194.767C194.525 34.2031 193.095 35.2969 191.212 35.2969C189.095 35.2969 187.595 33.9844 187.603 32.0781C187.595 30.1953 189.095 28.8672 191.212 28.875ZM188.775 32.0781C188.775 33.3438 189.783 34.2578 191.212 34.2656C192.611 34.2578 193.618 33.3438 193.618 32.0781C193.618 30.7969 192.611 29.9062 191.212 29.9219C189.783 29.9062 188.775 30.7969 188.775 32.0781ZM189.947 41.9219V36.375H191.181V38.1406H197.665V36.375H198.9V41.9219H189.947ZM191.181 40.9219H197.665V39.125H191.181V40.9219ZM205.439 29.2344C207.619 29.2422 209.166 30.5703 209.173 32.5C209.166 34.4375 207.619 35.7578 205.439 35.7656C203.244 35.7578 201.681 34.4375 201.689 32.5C201.681 30.5703 203.244 29.2422 205.439 29.2344ZM200.97 38.0312C203.533 38.0391 207.072 38.0156 210.142 37.5625L210.236 38.4688C207.056 39.0625 203.642 39.0781 201.142 39.0781L200.97 38.0312ZM202.892 32.5C202.884 33.7969 203.955 34.6875 205.439 34.6875C206.908 34.6875 207.978 33.7969 207.97 32.5C207.978 31.2109 206.908 30.3125 205.439 30.3125C203.955 30.3125 202.884 31.2109 202.892 32.5ZM211.064 42.1406V28.2188H212.283V42.1406H211.064ZM229.58 28.2188V42.1094H228.346V28.2188H229.58ZM218.268 38.5C222.026 36.7188 223.948 34.0547 224.221 30.7344H218.908V29.7344H225.471C225.455 33.7266 223.596 37.2656 218.94 39.5L218.268 38.5ZM242.463 28.2344V32.4375H244.557V33.4688H242.463V38.4375H241.245V28.2344H242.463ZM232.198 36.0938V29.2344H233.401V31.5781H237.448V29.2344H238.667V36.0938H232.198ZM233.401 35.0938H237.448V32.5469H233.401V35.0938ZM233.776 41.8125V37.4375H234.979V40.7812H243.104V41.8125H233.776ZM251.44 28.4688C254.526 28.4688 256.339 29.3203 256.347 30.8594C256.339 32.4375 254.526 33.2891 251.44 33.2969C248.339 33.2891 246.518 32.4375 246.518 30.8594C246.518 29.3203 248.339 28.4688 251.44 28.4688ZM245.112 35.2344V34.2344H257.768V35.2344H245.112ZM246.643 37.375V36.4375H256.143V39.5469H247.893V40.9844H256.565V41.9531H246.675V38.6406H254.94V37.375H246.643ZM247.8 30.8594C247.784 31.8281 249.136 32.3594 251.44 32.3594C253.745 32.3594 255.089 31.8281 255.097 30.8594C255.089 29.9453 253.745 29.3984 251.44 29.3906C249.136 29.3984 247.784 29.9453 247.8 30.8594ZM273.3 29.125V30.3438C273.3 31.6562 273.3 33.1016 272.902 35.0938H274.972V36.1094H269.238V42.1406H268.003V36.1094H262.316V35.0938H271.66C272.082 33.0938 272.082 31.6406 272.082 30.3438V30.1406H263.91V29.125H273.3ZM288.48 35.2188V36.2188H282.746V37.8125H286.918V42.0625H285.683V38.8125H277.23V37.8125H281.543V36.2188H275.824V35.2188H288.48ZM276.574 33.5C279.176 33.2422 281.379 32.1641 281.48 30.5781H277.137V29.5938H281.543V28.1562H282.746V29.5938H287.199V30.5781H282.824C282.91 32.1641 285.105 33.2422 287.73 33.5L287.324 34.4375C285.035 34.1953 282.988 33.3594 282.152 31.9453C281.301 33.3594 279.254 34.1953 276.98 34.4375L276.574 33.5ZM300.082 28.2188V33.9531H302.41V34.9688H300.082V42.1094H298.863V28.2188H300.082ZM289.254 31.4688V30.4531H292.832V28.3906H294.051V30.4531H297.52V31.4688H289.254ZM290.051 35.8125C290.043 33.9375 291.481 32.625 293.457 32.625C295.418 32.625 296.848 33.9375 296.863 35.8125C296.848 37.6953 295.418 39 293.457 39C291.481 39 290.043 37.6953 290.051 35.8125ZM291.223 35.8125C291.215 37.0781 292.16 37.9688 293.457 37.9531C294.738 37.9688 295.676 37.0781 295.692 35.8125C295.676 34.5547 294.738 33.6484 293.457 33.6562C292.16 33.6484 291.215 34.5547 291.223 35.8125ZM313.981 29.625V31.0156C313.965 32.7188 313.965 34.625 313.465 37.4219L312.215 37.2812C312.739 34.625 312.739 32.6797 312.747 31.0156V30.6406H304.184V29.625H313.981ZM302.84 40.1406V39.125H307.809V34.1562H309.012V39.125H315.497V40.1406H302.84ZM324.747 37.5469C324.739 38.7734 325.403 40.0781 326.724 40.8281C328.052 40.0078 328.755 38.6172 328.747 37.5469V36.7812H329.95V37.5469C329.943 38.9766 330.997 40.3984 332.778 41.0156L332.169 41.9219C330.778 41.4297 329.81 40.4609 329.325 39.2969C328.896 40.4219 328.044 41.4922 326.763 42.0312C325.411 41.5156 324.552 40.5 324.138 39.3359C323.638 40.4531 322.685 41.4219 321.357 41.9219L320.732 41.0156C322.489 40.3594 323.544 38.875 323.56 37.5469V36.7812H324.747V37.5469ZM320.372 32.2969C320.364 30.3594 321.903 29.0391 324.013 29.0469C326.122 29.0391 327.646 30.3594 327.653 32.2969C327.646 34.2031 326.122 35.5156 324.013 35.5156C321.903 35.5156 320.364 34.2031 320.372 32.2969ZM321.575 32.2969C321.56 33.5859 322.583 34.4922 324.013 34.5C325.427 34.4922 326.45 33.5859 326.45 32.2969C326.45 31 325.427 30.0781 324.013 30.0938C322.583 30.0781 321.56 31 321.575 32.2969ZM330.294 36.1719V28.2344H331.513V36.1719H330.294ZM336.38 36.5625V38.1875H343.318V36.5625H344.552V41.9219H335.162V36.5625H336.38ZM333.552 35.5781V34.5625H346.208V35.5781H333.552ZM334.271 32.5938C336.748 32.2578 339.255 30.7969 339.255 29.0312V28.375H340.521V29.0312C340.513 30.7422 343.044 32.2812 345.49 32.5938L345.037 33.5781C342.888 33.2578 340.771 32.1641 339.888 30.6094C339.005 32.1719 336.88 33.2578 334.74 33.5781L334.271 32.5938ZM336.38 40.9375H343.318V39.1562H336.38V40.9375ZM358.513 28.2188V42.1094H357.295V28.2188H358.513ZM347.967 38.5312V29.5938H349.17V37.4688C351.295 37.4531 353.482 37.2891 355.81 36.7969L355.982 37.8438C353.513 38.3594 351.318 38.5312 349.092 38.5312H347.967ZM371.318 28.2188V33.7188H373.647V34.75H371.318V42.1406H370.1V28.2188H371.318ZM361.178 38.6562V29.5781H367.662V30.5938H362.397V37.625C364.912 37.6172 366.686 37.5078 368.756 37.125L368.912 38.1875C366.733 38.5781 364.912 38.6562 362.272 38.6562H361.178ZM375.545 40.9375C374.998 40.9297 374.53 40.4766 374.545 39.9219C374.53 39.375 374.998 38.9219 375.545 38.9219C376.1 38.9219 376.553 39.375 376.545 39.9219C376.553 40.4766 376.1 40.9297 375.545 40.9375Z" fill="white"/>
</svg>
