<svg width="869" height="126" viewBox="0 0 869 126" fill="none" xmlns="http://www.w3.org/2000/svg">
<path d="M46.4398 123.66H-0.000194669V2.51991H46.7998C77.0398 2.51991 95.2198 15.1199 95.2198 35.8199C95.2198 49.6799 87.8398 59.0399 76.3198 63.3599C88.3798 66.7799 96.4798 74.5199 96.4798 89.8199C96.4798 113.58 75.4198 123.66 46.4398 123.66ZM26.2798 24.1199V52.9199H48.0598C62.4598 52.9199 68.9398 47.8799 68.9398 37.9799C68.9398 28.9799 61.7398 24.1199 48.2398 24.1199H26.2798ZM26.2798 74.5199V102.06H47.8798C60.6598 102.06 70.1998 99.1799 70.1998 88.0199C70.1998 77.7599 62.8198 74.5199 48.0598 74.5199H26.2798ZM171.848 125.64C135.668 125.64 119.108 104.76 119.108 69.8399V2.51991H145.388V69.2999C145.388 90.3599 154.028 100.62 171.848 100.62C189.668 100.62 198.308 90.3599 198.308 69.2999V2.51991H224.588V69.8399C224.588 104.76 207.848 125.64 171.848 125.64ZM292.884 126C271.104 126 253.644 116.82 245.904 99.5399L267.864 88.5599C271.824 97.3799 280.284 101.88 292.884 101.88C304.224 101.88 312.864 97.1999 312.864 88.5599C312.864 78.4799 303.324 76.8599 290.724 74.6999C272.544 71.6399 247.884 65.1599 247.884 37.7999C247.884 16.5599 266.964 0.359901 291.984 0.359901C311.964 0.359901 329.244 9.53991 336.984 26.8199L315.024 37.7999C311.064 30.0599 303.144 24.6599 290.904 24.6599C281.004 24.6599 274.164 29.3399 274.164 36.7199C274.164 46.4399 284.244 48.9599 297.384 51.2999C315.384 54.3599 339.144 60.8399 339.144 88.3799C339.144 110.16 318.624 126 292.884 126ZM363.515 2.51991H389.795V123.66H363.515V2.51991ZM445.811 123.66H420.791V19.0799C420.791 7.01991 429.611 -9.44138e-05 439.511 -9.44138e-05C447.431 -9.44138e-05 453.731 2.87991 457.691 9.53991L505.571 91.6199V2.51991H530.411V107.1C530.411 119.16 521.591 126 512.051 126C504.311 126 497.651 123.3 493.691 116.64L445.811 34.0199V123.66ZM648.377 123.66H583.217C566.477 123.66 559.997 115.02 559.997 101.16V25.1999C559.997 11.3399 566.477 2.51991 583.217 2.51991H647.297V26.0999H586.277V51.2999H643.517V74.8799H586.277V100.08H648.377V123.66ZM713.001 126C691.221 126 673.761 116.82 666.021 99.5399L687.981 88.5599C691.941 97.3799 700.401 101.88 713.001 101.88C724.341 101.88 732.981 97.1999 732.981 88.5599C732.981 78.4799 723.441 76.8599 710.841 74.6999C692.661 71.6399 668.001 65.1599 668.001 37.7999C668.001 16.5599 687.081 0.359901 712.101 0.359901C732.081 0.359901 749.361 9.53991 757.101 26.8199L735.141 37.7999C731.181 30.0599 723.261 24.6599 711.021 24.6599C701.121 24.6599 694.281 29.3399 694.281 36.7199C694.281 46.4399 704.361 48.9599 717.501 51.2999C735.501 54.3599 759.261 60.8399 759.261 88.3799C759.261 110.16 738.741 126 713.001 126ZM822.513 126C800.733 126 783.273 116.82 775.533 99.5399L797.493 88.5599C801.453 97.3799 809.913 101.88 822.513 101.88C833.853 101.88 842.493 97.1999 842.493 88.5599C842.493 78.4799 832.953 76.8599 820.353 74.6999C802.173 71.6399 777.513 65.1599 777.513 37.7999C777.513 16.5599 796.593 0.359901 821.613 0.359901C841.593 0.359901 858.873 9.53991 866.613 26.8199L844.653 37.7999C840.693 30.0599 832.773 24.6599 820.533 24.6599C810.633 24.6599 803.793 29.3399 803.793 36.7199C803.793 46.4399 813.873 48.9599 827.013 51.2999C845.013 54.3599 868.773 60.8399 868.773 88.3799C868.773 110.16 848.253 126 822.513 126Z" fill="#00A5E5"/>
</svg>
