<svg width="477" height="54" viewBox="0 0 477 54" fill="none" xmlns="http://www.w3.org/2000/svg">
<path d="M24.3162 4.6875V10.7812H7.5584V34.4531C15.3221 34.3652 20.9178 34.0137 27.1873 32.8711L27.949 38.9062C20.6248 40.3125 14.1795 40.6055 4.33574 40.5469H-0.000198364V4.6875H24.3162ZM21.6795 24.5508V18.457H35.0975V0H42.5389V53.4375H35.0975V24.5508H21.6795ZM107.993 20.2148V26.3086H100.434V53.2031H92.9342V0H100.434V20.2148H107.993ZM60.0631 40.1953V5.09766H67.5045V34.0137C74.3307 33.8965 81.6549 33.252 89.36 31.6992L90.1217 37.9102C81.1861 39.7266 72.5436 40.1953 64.692 40.1953H60.0631ZM156.452 27.2461V33.2227H107.819V27.2461H156.452ZM112.683 12.5391C112.683 5.74219 120.388 1.58203 132.136 1.64062C143.796 1.58203 151.501 5.74219 151.53 12.5391C151.501 19.3652 143.796 23.5547 132.136 23.5547C120.388 23.5547 112.683 19.3652 112.683 12.5391ZM113.679 52.3828V36.7969H121.179V46.4062H150.944V52.3828H113.679ZM120.476 12.5391C120.417 15.8496 124.724 17.5195 132.136 17.5195C139.489 17.5195 143.796 15.8496 143.796 12.5391C143.796 9.31641 139.489 7.55859 132.136 7.5C124.724 7.55859 120.417 9.31641 120.476 12.5391ZM185.812 13.418C185.783 22.0605 188.185 30.9668 195.48 35.625L191.437 41.4258C186.808 38.6426 183.908 34.0137 182.209 28.5645C180.304 34.5996 177.111 39.668 172.277 42.5977L167.707 37.0898C175.617 32.1973 178.547 22.793 178.547 13.7695V4.57031H185.812V13.418ZM189.855 24.082V17.9883H196.769V0.761719H203.742V50.8594H196.769V24.082H189.855ZM207.785 53.3203V0H214.933V53.3203H207.785ZM237.612 8.37891C237.582 14.8535 241.362 21.0645 249.799 23.6719L245.815 29.4727C240.16 27.5977 236.205 23.9648 233.92 19.3066C231.606 24.668 227.475 28.8867 221.381 30.9375L217.338 25.0781C226.244 22.1191 230.053 15.0293 230.112 7.67578V2.8125H237.612V8.37891ZM224.721 43.0078C224.692 36.5332 231.752 32.6953 243.002 32.6953C254.047 32.6953 260.961 36.5332 260.99 43.0078C260.961 49.541 254.047 53.3496 243.002 53.3203C231.752 53.3496 224.692 49.541 224.721 43.0078ZM232.221 43.0078C232.162 46.0254 236 47.4609 243.002 47.4609C249.916 47.4609 253.608 46.0254 253.608 43.0078C253.608 40.1074 249.916 38.5547 243.002 38.5547C236 38.5547 232.162 40.1074 232.221 43.0078ZM252.963 31.6406V0H260.463V12.4805H267.67V18.6914H260.463V31.6406H252.963ZM291.93 0.761719C304.206 0.761719 311.296 3.98438 311.325 9.84375C311.296 15.791 304.206 18.9844 291.93 18.9844C279.626 18.9844 272.477 15.791 272.477 9.84375C272.477 3.98438 279.626 0.761719 291.93 0.761719ZM267.614 27.4219V21.5039H316.247V27.4219H267.614ZM273.239 35.9766V30.5273H310.329V44.1211H280.622V47.3438H311.735V52.9688H273.297V38.9062H302.946V35.9766H273.239ZM280.329 9.84375C280.299 12.4512 284.108 13.4766 291.93 13.4766C299.811 13.4766 303.59 12.4512 303.59 9.84375C303.59 7.4707 299.811 6.21094 291.93 6.21094C284.108 6.21094 280.299 7.4707 280.329 9.84375ZM355.685 4.39453V30H330.079V4.39453H355.685ZM336.232 52.3828V35.0977H343.673V46.4062H372.736V52.3828H336.232ZM337.462 24.1406H348.302V10.3711H337.462V24.1406ZM363.302 38.9062V0H370.802V15.3516H378.009V21.5039H370.802V38.9062H363.302ZM421.43 24.668V30.6445H383.695V4.45312H421.019V10.4883H391.078V24.668H421.43ZM377.953 46.8164V40.6641H426.762V46.8164H377.953ZM470.709 14.5312V20.3906H433.444V1.875H440.885V14.5312H470.709ZM427.35 31.9922V26.1328H476.158V31.9922H427.35ZM432.975 52.1484V36.3281H440.475V46.1719H471.061V52.1484H432.975Z" fill="#0E0D0D"/>
</svg>
