<svg width="127" height="145" viewBox="0 0 127 145" fill="none" xmlns="http://www.w3.org/2000/svg">
<path d="M126.603 140.902H111.18L107.505 124.704C94.5828 139.35 82.7979 144.157 66.0109 144.157C24.7067 144.157 0 111.382 0 72.0594C0 32.7371 24.7067 0 66.0109 0C96.0986 0 121.412 16.009 125.087 47.043H101.555C99.2437 28.9146 83.4042 19.6801 66.0488 19.6801C36.5296 19.6801 24.1762 45.7183 24.1762 72.0972C24.1762 98.4761 36.5296 124.514 66.0488 124.514C90.7555 124.893 104.246 110.057 104.663 86.7437H67.9814V68.4261H126.641V140.902H126.603Z" fill="#00A5E5"/>
</svg>
