<svg width="54" height="14" viewBox="0 0 54 14" fill="none" xmlns="http://www.w3.org/2000/svg">
<path d="M7.10938 4.98438V6.875H12.7656V8.09375H0V6.875H5.64062V4.98438H7.10938ZM0.65625 4.54688C3.1875 4.28906 5.17188 3.17969 5.375 1.82812H1.17188V0.640625H11.625V1.82812H7.375C7.58594 3.17188 9.57031 4.28906 12.1094 4.54688L11.5781 5.71875C9.14844 5.4375 7.14062 4.4375 6.375 2.96094C5.60938 4.4375 3.61719 5.4375 1.1875 5.71875L0.65625 4.54688ZM1.51562 11.5469C1.51562 9.97656 3.32812 9.10938 6.375 9.10938C9.39844 9.10938 11.1953 9.97656 11.2031 11.5469C11.1953 13.1094 9.39844 13.9766 6.375 13.9688C3.32812 13.9766 1.51562 13.1094 1.51562 11.5469ZM3.01562 11.5469C3.00781 12.3828 4.21094 12.8438 6.375 12.8438C8.50781 12.8438 9.71875 12.3828 9.71875 11.5469C9.71875 10.7109 8.50781 10.2578 6.375 10.25C4.21094 10.2578 3.00781 10.7109 3.01562 11.5469ZM26.305 6.95312V8.17188H13.5081V6.95312H19.1488V4.90625H20.6175V6.95312H26.305ZM14.2425 4.5C16.9222 4.15625 19.1253 2.57812 19.1331 0.8125V0.21875H20.6331V0.8125C20.6253 2.60156 22.8206 4.15625 25.5238 4.5L24.9456 5.67188C22.7269 5.3125 20.7659 4.23438 19.8753 2.6875C18.9847 4.23438 17.0238 5.3125 14.7894 5.67188L14.2425 4.5ZM14.93 10.5781V9.40625H24.7113V14H23.2113V10.5781H14.93ZM38.5944 0V14H37.11V0H38.5944ZM27.0944 10.1875C28.2506 10.1797 29.5631 10.1719 30.9381 10.1406V8.73438C29.3053 8.51562 28.2428 7.55469 28.2506 6.1875C28.2428 4.60938 29.6178 3.57031 31.6413 3.5625C33.6881 3.57031 35.0866 4.60938 35.0944 6.1875C35.0866 7.53906 34.0319 8.49219 32.4069 8.72656V10.0859C33.7038 10.0234 35.0163 9.92969 36.2506 9.76562L36.36 10.875C33.2506 11.3906 29.86 11.4297 27.2975 11.4219L27.0944 10.1875ZM27.3913 2.85938V1.67188H30.9381V0.03125H32.4225V1.67188H35.9381V2.85938H27.3913ZM29.6569 6.1875C29.6413 7.07812 30.4694 7.63281 31.6413 7.625C32.8522 7.63281 33.6725 7.07812 33.6725 6.1875C33.6725 5.28906 32.8522 4.71875 31.6413 4.71875C30.4694 4.71875 29.6413 5.28906 29.6569 6.1875ZM45.3838 3.5625C45.3681 6.03906 46.8134 8.57812 48.8994 9.59375L47.9775 10.7812C46.4541 9.98438 45.2744 8.42188 44.6572 6.55469C44.0322 8.53906 42.8056 10.2188 41.2119 11.0469L40.29 9.84375C42.4384 8.8125 43.8916 6.125 43.8994 3.5625V1.17188H45.3838V3.5625ZM49.9463 14V0H51.4306V5.57812H53.6806V6.84375H51.4306V14H49.9463Z" fill="black"/>
</svg>
