<svg width="1005" height="340" viewBox="0 0 1005 340" fill="none" xmlns="http://www.w3.org/2000/svg">
<path d="M173.97 140C134.57 140 104.17 108.8 104.17 70.0002C104.17 31.2002 134.17 0.200183 173.97 0.200183C196.97 0.200183 219.77 11.8002 229.77 33.4002L205.97 46.8002C199.17 34.8002 188.77 27.6002 172.77 27.6002C150.17 27.6002 134.17 46.0002 134.17 70.4002C134.17 95.6002 150.37 113.4 173.97 113.4C187.17 113.4 196.77 110 202.97 103.6L202.77 73.8002H231.17V113.4C221.37 128.2 200.57 140 173.97 140ZM287.534 2.60019V110.2H350.334V137.2H284.134C265.534 137.2 258.334 127.6 258.334 112.2V2.60019H287.534ZM429.248 139.8C389.448 139.8 359.248 109.8 359.248 70.0002C359.248 30.4002 389.448 0.200183 429.248 0.200183C469.248 0.200183 499.448 30.4002 499.448 70.0002C499.448 109.8 469.048 139.8 429.248 139.8ZM429.248 112.2C451.648 112.2 469.248 93.8002 469.248 70.0002C469.248 46.2002 451.848 27.8002 429.248 27.8002C406.848 27.8002 389.248 46.2002 389.248 70.0002C389.248 93.8002 406.848 112.2 429.248 112.2ZM575.754 137.2H524.154V2.60019H576.154C609.754 2.60019 629.954 16.6002 629.954 39.6002C629.954 55.0002 621.754 65.4002 608.954 70.2002C622.354 74.0002 631.354 82.6002 631.354 99.6002C631.354 126 607.954 137.2 575.754 137.2ZM553.354 26.6002V58.6002H577.554C593.554 58.6002 600.754 53.0002 600.754 42.0002C600.754 32.0002 592.754 26.6002 577.754 26.6002H553.354ZM553.354 82.6002V113.2H577.354C591.554 113.2 602.154 110 602.154 97.6002C602.154 86.2002 593.954 82.6002 577.554 82.6002H553.354ZM646.506 137.2L682.106 21.6002C686.706 7.00019 698.706 0.00018549 711.306 0.00018549C724.106 0.00018549 736.106 7.00019 740.706 21.6002L776.306 137.2H746.506L738.706 109.6L684.106 109.8L676.306 137.2H646.506ZM707.106 30.2002L691.706 83.6002H731.106L715.906 30.2002C715.106 27.4002 713.906 26.2002 711.506 26.2002C709.306 26.2002 707.906 27.4002 707.106 30.2002ZM828.55 2.60019V110.2H891.35V137.2H825.15C806.55 137.2 799.35 127.6 799.35 112.2V2.60019H828.55ZM27.8004 337.2H0.000391483V221C0.000391483 207.6 9.80039 199.8 20.8004 199.8C29.6004 199.8 36.6004 203 41.0004 210.4L94.2004 301.6V202.6H121.8V318.8C121.8 332.2 112 339.8 101.4 339.8C92.8004 339.8 85.4004 336.8 81.0004 329.4L27.8004 237.6V337.2ZM252.874 337.2H180.474C161.874 337.2 154.674 327.6 154.674 312.2V227.8C154.674 212.4 161.874 202.6 180.474 202.6H251.674V228.8H183.874V256.8H247.474V283H183.874V311H252.874V337.2ZM374.679 202.6V229.6H335.079V337.2H305.879V229.6H266.279V202.6H374.679ZM405.936 318.2L381.136 202.6H410.336L431.536 309.2C431.736 310 431.936 310.2 432.136 310.2C432.336 310.2 432.536 310 432.736 309.2L452.136 224C455.736 207.6 463.936 200.6 475.936 200.6C487.936 200.6 495.936 207.6 499.736 223.8L519.536 309.2C519.736 310 519.736 310.2 520.136 310.2C520.336 310.2 520.336 309.8 520.536 309.2L540.936 202.6H570.136L546.136 317.6C543.136 331.8 534.336 340 521.336 340C509.336 340 499.736 332.4 496.536 318.8L475.936 230.4L455.536 319.4C452.536 332.4 442.536 340 430.936 340C418.536 340 408.936 332.4 405.936 318.2ZM650.049 339.8C610.249 339.8 580.049 309.8 580.049 270C580.049 230.4 610.249 200.2 650.049 200.2C690.049 200.2 720.249 230.4 720.249 270C720.249 309.8 689.849 339.8 650.049 339.8ZM650.049 312.2C672.449 312.2 690.049 293.8 690.049 270C690.049 246.2 672.649 227.8 650.049 227.8C627.649 227.8 610.049 246.2 610.049 270C610.049 293.8 627.649 312.2 650.049 312.2ZM773.755 337.2H744.955V202.6H796.755C827.155 202.6 850.555 216.8 850.555 245.4C850.555 263.8 839.755 278 822.555 282.6C831.155 287.4 836.155 296.6 843.155 310.6L856.155 337.2H824.555L812.555 313.2C806.355 300.8 800.555 294.2 785.355 294.2H773.955L773.755 337.2ZM797.155 229.6H774.155L773.955 268.2H796.755C810.555 268.2 820.555 261 820.555 248.4C820.555 235.2 810.355 229.6 797.155 229.6ZM912.436 337.2H883.236V202.6H912.436V256.8H929.636C931.236 252.6 933.836 248.4 937.036 244L969.636 202.6H1002.84L964.436 252C959.036 259.2 956.236 264.2 956.236 269.2C956.236 274.2 959.036 279 964.436 286.2L1004.04 337.2H968.236L937.036 296.2C933.836 292 931.436 287.8 929.836 283.6H912.436V337.2Z" fill="#00A5E5"/>
</svg>
