<svg width="255" height="96" viewBox="0 0 255 96" fill="none" xmlns="http://www.w3.org/2000/svg">
<path d="M28.8281 19.4375V76H17.0312V30.6094H16.7188L3.75 38.7344V28.3438L17.7344 19.4375H28.8281ZM62.5781 18.6562C74.2969 18.6953 85.3906 25.6875 85.3906 46.2344C85.4297 65.4531 76.3281 76.7812 62.1094 76.7812C50.7422 76.7812 42.9297 69.6328 41.7969 60.0625H53.3594C54.3359 64.2422 57.5781 66.7031 62.1094 66.7031C69.8047 66.7031 73.8672 59.7891 73.9062 48.5H73.4375C70.7812 53.5 65.1953 56.4688 58.9062 56.4688C48.75 56.4688 41.25 48.8125 41.1719 38.2656C41.1719 26.8984 49.8047 18.6172 62.5781 18.6562ZM52.6562 37.9531C52.6562 43.5391 56.7578 47.875 62.5781 47.875C68.3203 47.875 72.7344 43.3047 72.7344 37.875C72.6562 32.4844 68.4375 27.9141 62.6562 27.875C56.875 27.9141 52.5781 32.3281 52.6562 37.9531ZM114.297 76.7812C101.875 76.7812 92.9688 69.9453 92.7344 60.0625H104.609C104.805 64.2812 108.906 67.0547 114.375 67.0938C120 67.0547 124.023 63.9297 123.984 59.3594C124.023 54.75 119.922 51.5078 113.281 51.4688H108.047V42.7969H113.281C118.867 42.7969 122.773 39.75 122.734 35.2969C122.773 30.9609 119.453 27.9922 114.453 28.0312C109.453 27.9922 105.352 30.8047 105.156 35.1406H93.9062C94.1016 25.4141 102.852 18.6562 114.453 18.6562C126.25 18.6562 134.102 25.6484 134.062 34.5938C134.102 40.9219 129.688 45.4141 123.359 46.5469V47.0156C131.68 48.0312 136.25 53.0703 136.172 60.1406C136.25 69.8281 127.07 76.7812 114.297 76.7812Z" fill="black"/>
<path d="M175.859 17.0234V34.7969H173.457V25.7539H171.836V34.0156H169.512V17.4922H171.836V23.7617H173.457V17.0234H175.859ZM160.312 29.4258C163.936 27.2969 165.498 24.6895 165.83 21.2031H161.211V19.2109H168.262C168.252 24.1719 166.768 28.2344 161.758 31.1445L160.312 29.4258Z" fill="black"/>
<path d="M161.271 58.2266C161.271 55.6973 161.935 53.5234 163.131 51.6777H163.965C163.008 53.1885 162.229 55.8066 162.229 58.2266C162.229 60.6602 163.008 63.2715 163.965 64.7891H163.131C161.935 62.9297 161.271 60.7559 161.271 58.2266ZM165.243 62V61.2891L168.593 57.666C169.858 56.2783 170.384 55.5947 170.398 54.6582C170.384 53.5645 169.495 52.8193 168.32 52.8262C167.069 52.8193 166.255 53.6465 166.255 54.8086H165.325C165.325 53.1406 166.611 51.9648 168.347 51.9648C170.063 51.9648 171.3 53.1406 171.3 54.6582C171.3 55.7656 170.794 56.5996 169.085 58.4043L166.624 61.0566V61.125H171.601V62H165.243ZM176.325 62.1367C174.212 62.1367 172.975 60.2637 172.975 57.0508C172.975 53.8584 174.226 51.9648 176.325 51.9648C178.417 51.9648 179.661 53.8584 179.661 57.0508C179.661 60.2637 178.43 62.1367 176.325 62.1367ZM173.932 57.0508C173.925 59.7305 174.814 61.2617 176.325 61.2617C177.822 61.2617 178.711 59.7305 178.717 57.0508C178.711 54.3711 177.815 52.8193 176.325 52.8262C174.821 52.8193 173.925 54.3711 173.932 57.0508ZM181.09 62V61.2891L184.439 57.666C185.704 56.2783 186.23 55.5947 186.244 54.6582C186.23 53.5645 185.342 52.8193 184.166 52.8262C182.915 52.8193 182.101 53.6465 182.101 54.8086H181.172C181.172 53.1406 182.457 51.9648 184.193 51.9648C185.909 51.9648 187.146 53.1406 187.146 54.6582C187.146 55.7656 186.64 56.5996 184.931 58.4043L182.471 61.0566V61.125H187.447V62H181.09ZM188.603 59.8945V59.1016L193.114 52.1016H194.29V59.0332H195.644V59.8945H194.29V62H193.36V59.8945H188.603ZM189.683 59.0332H193.36V53.4004H193.265L189.683 58.9648V59.0332ZM206.575 51.0078V59.9629H205.713V55.7109H202.077V54.9863H205.713V53.3867H202.077V52.6758H205.713V51.0078H206.575ZM197.36 58.0762V51.9238H198.235V57.3379H198.262C199.971 57.3379 201.632 57.249 203.58 56.8867L203.69 57.625C201.66 57.9941 200.012 58.0762 198.262 58.0762H197.36ZM198.891 62.7793V59.2109H199.752V62.0547H206.916V62.7793H198.891ZM220.944 51.0078V53.7148H222.804V54.4395H220.944V57.1875H220.083V51.0078H220.944ZM212.112 56.4902V51.7324H217.622V56.4902H212.112ZM212.946 55.793H216.788V52.4434H212.946V55.793ZM213.343 58.5V57.7891H220.944V60.6055H214.218V62.1777H221.409V62.8887H213.37V59.9355H220.083V58.5H213.343ZM236.38 51.0078V63.0664H235.533V51.0078H236.38ZM226.66 60.0176C229.968 58.4453 231.739 55.9775 231.958 53.0449H227.193V52.334H232.826C232.819 55.7383 231.096 58.8145 227.138 60.7285L226.66 60.0176ZM244.317 52.4844C244.31 54.0977 246.594 55.3145 248.569 55.6016L248.214 56.2988C246.382 55.998 244.433 55.0273 243.791 53.5508C243.135 55.0273 241.193 55.998 239.354 56.2988L239.012 55.6016C240.988 55.3145 243.251 54.1045 243.251 52.4844V52.3613H239.3V51.6367H248.296V52.3613H244.317V52.4844ZM238.274 58.0078V57.2832H249.307V58.0078H244.276V60.5918H243.429V58.0078H238.274ZM239.723 62.7793V59.3613H240.585V62.0547H248.077V62.7793H239.723ZM252.856 58.2266C252.856 60.7559 252.192 62.9297 250.996 64.7891H250.162C251.119 63.2715 251.899 60.6602 251.899 58.2266C251.899 55.8066 251.119 53.1885 250.162 51.6777H250.996C252.192 53.5234 252.856 55.6973 252.856 58.2266Z" fill="#B6B6B6"/>
</svg>
