<svg width="153" height="94" viewBox="0 0 153 94" fill="none" xmlns="http://www.w3.org/2000/svg">
<path d="M10.2764 19.404C4.9004 19.404 0.728399 15.064 0.728399 9.65999C0.728399 4.36799 4.8724 -8.34465e-06 10.2764 -8.34465e-06C13.3844 -8.34465e-06 16.4084 1.51199 17.8644 4.36799L15.5404 5.71199C14.4204 3.77999 12.4604 2.68799 10.1644 2.68799C6.4684 2.68799 3.6684 5.79599 3.6684 9.71599C3.6684 13.72 6.4684 16.772 10.2764 16.772C12.5164 16.772 14.3364 15.904 15.2324 14.84V10.332H18.0044V15.82C16.7164 17.696 13.9444 19.404 10.2764 19.404ZM24.2473 19.068H21.4753V10.892C21.4753 7.55999 23.3793 5.06799 26.9633 5.06799C27.8313 5.06799 28.7273 5.23599 29.4273 5.57199V8.31599C28.7553 7.92399 27.9713 7.72799 27.2153 7.72799C25.3673 7.72799 24.2473 8.98799 24.2473 11.004V19.068ZM37.8678 19.376C33.6958 19.376 30.5878 16.352 30.5878 12.124C30.5878 8.17599 33.4158 4.95599 37.5318 4.95599C41.6758 4.95599 44.2518 7.95199 44.2518 11.788V12.908H33.2758C33.5838 15.26 35.3758 16.912 37.8398 16.912C39.5198 16.912 41.0318 16.184 41.8438 14.672L43.9718 15.764C42.7678 18.116 40.5558 19.376 37.8678 19.376ZM33.3878 11.116H41.4798C41.3678 8.93199 39.7718 7.44799 37.5038 7.44799C35.1798 7.44799 33.6678 9.07199 33.3878 11.116ZM53.9732 19.376C49.8012 19.376 46.6932 16.352 46.6932 12.124C46.6932 8.17599 49.5212 4.95599 53.6372 4.95599C57.7812 4.95599 60.3572 7.95199 60.3572 11.788V12.908H49.3812C49.6892 15.26 51.4812 16.912 53.9452 16.912C55.6252 16.912 57.1372 16.184 57.9492 14.672L60.0772 15.764C58.8732 18.116 56.6612 19.376 53.9732 19.376ZM49.4932 11.116H57.5852C57.4732 8.93199 55.8772 7.44799 53.6092 7.44799C51.2852 7.44799 49.7732 9.07199 49.4932 11.116ZM70.4707 7.67199C67.7827 7.67199 66.4387 9.88399 66.4387 12.432V19.068H63.6667V12.152C63.6667 8.14799 66.0467 5.01199 70.4707 5.01199C74.9507 5.01199 77.3867 8.14799 77.3867 12.124V19.068H74.6147V12.46C74.6147 9.88399 73.2147 7.67199 70.4707 7.67199ZM14.3644 34.308V36.94H8.5964V53.068H5.7404V36.94H0.00039845V34.308H14.3644ZM21.955 53.404C17.811 53.404 14.619 50.156 14.619 46.18C14.619 42.232 17.839 39.012 21.955 39.012C26.099 39.012 29.235 42.26 29.235 46.18C29.235 50.156 26.071 53.404 21.955 53.404ZM21.955 50.772C24.503 50.772 26.463 48.7 26.463 46.208C26.463 43.688 24.503 41.616 21.955 41.616C19.379 41.616 17.391 43.688 17.391 46.208C17.391 48.7 19.379 50.772 21.955 50.772ZM49.3548 38.956C53.4988 38.956 55.7388 42.036 55.7388 45.844V53.068H52.9668V46.292C52.9668 43.8 51.7348 41.616 49.1588 41.616C46.6668 41.616 45.4068 43.716 45.4068 46.236V53.068H42.6348V46.236C42.6348 43.716 41.3748 41.616 38.8268 41.616C36.2508 41.616 35.1028 43.8 35.1028 46.292V53.068H32.3308V45.872C32.3308 42.036 34.5148 38.956 38.6308 38.956C41.3748 38.956 43.3628 40.356 44.0628 42.484C44.8188 40.356 46.7508 38.956 49.3548 38.956ZM66.1699 53.404C62.0259 53.404 58.8339 50.156 58.8339 46.18C58.8339 42.232 62.0539 39.012 66.1699 39.012C70.3139 39.012 73.4499 42.26 73.4499 46.18C73.4499 50.156 70.2859 53.404 66.1699 53.404ZM66.1699 50.772C68.7179 50.772 70.6779 48.7 70.6779 46.208C70.6779 43.688 68.7179 41.616 66.1699 41.616C63.5939 41.616 61.6059 43.688 61.6059 46.208C61.6059 48.7 63.5939 50.772 66.1699 50.772ZM79.3176 53.068H76.5456V44.892C76.5456 41.56 78.4496 39.068 82.0336 39.068C82.9016 39.068 83.7976 39.236 84.4976 39.572V42.316C83.8256 41.924 83.0416 41.728 82.2856 41.728C80.4376 41.728 79.3176 42.988 79.3176 45.004V53.068ZM89.1614 53.068H86.3894V44.892C86.3894 41.56 88.2934 39.068 91.8774 39.068C92.7454 39.068 93.6414 39.236 94.3414 39.572V42.316C93.6694 41.924 92.8854 41.728 92.1294 41.728C90.2814 41.728 89.1614 42.988 89.1614 45.004V53.068ZM102.838 53.404C98.6938 53.404 95.5018 50.156 95.5018 46.18C95.5018 42.232 98.7218 39.012 102.838 39.012C106.982 39.012 110.118 42.26 110.118 46.18C110.118 50.156 106.954 53.404 102.838 53.404ZM102.838 50.772C105.386 50.772 107.346 48.7 107.346 46.208C107.346 43.688 105.386 41.616 102.838 41.616C100.262 41.616 98.2738 43.688 98.2738 46.208C98.2738 48.7 100.262 50.772 102.838 50.772ZM117.362 53.432C115.99 53.432 114.814 52.592 114.422 50.912L111.734 39.348H114.338L116.858 50.38C116.942 50.716 117.054 50.884 117.362 50.884C117.586 50.884 117.754 50.688 117.81 50.436L120.05 41.504C120.47 39.824 121.422 39.012 122.878 39.012C124.334 39.012 125.258 39.796 125.678 41.476L127.89 50.436C127.974 50.716 128.114 50.884 128.394 50.884C128.646 50.884 128.786 50.716 128.87 50.38L131.306 39.348H133.882L131.278 50.912C130.886 52.592 129.738 53.432 128.366 53.432C126.938 53.432 125.986 52.592 125.594 50.94L123.354 41.868C123.27 41.588 123.13 41.42 122.85 41.42C122.598 41.42 122.458 41.588 122.402 41.868L120.134 50.94C119.742 52.592 118.79 53.432 117.362 53.432ZM137.215 58.304H135.367L136.179 52.984C135.731 52.648 135.423 52.116 135.423 51.5C135.423 50.492 136.235 49.708 137.243 49.708C138.251 49.708 139.063 50.492 139.063 51.5C139.063 51.724 139.035 51.948 138.951 52.144L137.215 58.304ZM3.9204 84.884L0.308398 68.308H3.1644L6.4404 84.016C6.5244 84.436 6.6644 84.632 6.8884 84.632C7.1124 84.632 7.2804 84.464 7.3644 84.016L10.4724 70.66C10.8364 68.924 11.7884 68.14 13.0764 68.14C14.3924 68.14 15.3164 68.896 15.7084 70.632L18.9284 84.016C19.0404 84.408 19.1524 84.604 19.4044 84.604C19.6564 84.604 19.7684 84.408 19.8244 84.016L22.8484 68.308H25.7044L22.3724 84.716C22.0364 86.368 21.0844 87.404 19.5444 87.404C18.0604 87.404 17.0244 86.508 16.6044 84.8L13.3564 71.248C13.3004 70.996 13.2164 70.884 13.0764 70.884C12.9644 70.884 12.8524 70.996 12.7964 71.248L9.6324 84.968C9.2684 86.536 8.1764 87.432 6.8324 87.432C5.3764 87.432 4.2844 86.536 3.9204 84.884ZM30.3526 70.632C29.3446 70.632 28.5326 69.82 28.5326 68.812C28.5326 67.804 29.3446 66.964 30.3526 66.964C31.3606 66.964 32.1446 67.804 32.1446 68.812C32.1446 69.82 31.3606 70.632 30.3526 70.632ZM28.9806 73.348H31.7526V87.068H28.9806V73.348ZM42.5123 87.432C39.0963 87.432 37.2763 85.276 37.2763 82.14V75.756H34.5603V73.348H37.2763V69.792H40.0483V73.348H45.3123V75.756H40.0483V82.056C40.0483 83.848 41.1123 84.912 42.7643 84.912C43.6603 84.912 44.6403 84.576 45.3123 84.1V86.648C44.6123 87.124 43.5203 87.432 42.5123 87.432ZM52.2057 87.068H49.4337V67.048H52.2057V74.888C53.2697 73.74 54.9217 73.012 56.7697 73.012C60.8017 73.012 63.0697 75.7 63.0697 79.9V87.068H60.2977V80.18C60.2977 77.744 58.9537 75.644 56.3497 75.644C53.9137 75.644 52.2057 77.604 52.2057 80.264V87.068ZM77.7864 93.368H75.0144V80.18C75.0144 76.092 78.1784 73.012 82.3224 73.012C86.4664 73.012 89.6024 76.26 89.6024 80.18C89.6024 84.324 86.6064 87.404 82.4344 87.404C80.5864 87.404 78.9064 86.592 77.7864 85.36V93.368ZM82.3224 84.8C84.8704 84.8 86.8304 82.7 86.8304 80.208C86.8304 77.688 84.8704 75.644 82.3224 75.644C79.7464 75.644 77.7864 77.688 77.7864 80.208C77.7864 82.7 79.7464 84.8 82.3224 84.8ZM99.2011 87.404C95.0571 87.404 91.8651 84.156 91.8651 80.18C91.8651 76.232 95.0851 73.012 99.2011 73.012C103.345 73.012 106.481 76.26 106.481 80.18C106.481 84.156 103.317 87.404 99.2011 87.404ZM99.2011 84.772C101.749 84.772 103.709 82.7 103.709 80.208C103.709 77.688 101.749 75.616 99.2011 75.616C96.6251 75.616 94.6371 77.688 94.6371 80.208C94.6371 82.7 96.6251 84.772 99.2011 84.772ZM114.505 87.376C111.957 87.376 109.997 86.368 108.933 84.324L111.061 83.148C111.761 84.52 112.881 85.024 114.393 85.024C115.961 85.024 117.165 84.38 117.165 83.176C117.165 80.292 109.297 82.476 109.297 77.24C109.297 74.832 111.425 73.068 114.421 73.068C116.969 73.068 118.705 74.244 119.573 75.84L117.445 77.044C116.857 75.84 115.737 75.42 114.477 75.42C113.189 75.42 112.069 76.092 112.069 77.184C112.069 79.984 119.937 77.94 119.937 83.12C119.937 85.724 117.417 87.376 114.505 87.376ZM129.576 87.376C125.628 87.432 122.408 84.156 122.408 80.18C122.408 76.232 125.628 72.984 129.576 73.012C132.096 73.012 134.42 74.16 135.68 76.624L133.384 77.912C132.572 76.428 131.2 75.644 129.576 75.644C127.168 75.644 125.18 77.688 125.18 80.18C125.18 82.7 127.168 84.772 129.576 84.772C131.2 84.772 132.572 83.988 133.384 82.504L135.68 83.764C134.42 86.256 132.096 87.376 129.576 87.376ZM144.975 87.404C140.831 87.404 137.639 84.156 137.639 80.18C137.639 76.232 140.859 73.012 144.975 73.012C149.119 73.012 152.255 76.26 152.255 80.18C152.255 84.156 149.091 87.404 144.975 87.404ZM144.975 84.772C147.523 84.772 149.483 82.7 149.483 80.208C149.483 77.688 147.523 75.616 144.975 75.616C142.399 75.616 140.411 77.688 140.411 80.208C140.411 82.7 142.399 84.772 144.975 84.772Z" fill="white"/>
</svg>
