<svg width="52" height="15" viewBox="0 0 52 15" fill="none" xmlns="http://www.w3.org/2000/svg">
<path d="M3.67969 0.8125C4.84375 0.804688 5.83594 1.24219 6.49219 1.96875H9.99219V0H11.4766V8.26562H9.99219V6.375H6.48438C5.82812 7.09375 4.83594 7.52344 3.67969 7.51562C1.57031 7.52344 0 6.125 0.0078125 4.17188C0 2.19531 1.57031 0.804688 3.67969 0.8125ZM1.42969 4.17188C1.42188 5.39844 2.36719 6.26562 3.67969 6.25C4.95312 6.26562 5.89844 5.39844 5.89844 4.17188C5.89844 2.91406 4.95312 2.07812 3.67969 2.09375C2.36719 2.07812 1.42188 2.91406 1.42969 4.17188ZM2.05469 11.2812C2.04688 9.57031 3.85938 8.57031 6.78906 8.57812C9.70312 8.57031 11.5156 9.57031 11.5234 11.2812C11.5156 12.9844 9.70312 13.9766 6.78906 13.9688C3.85938 13.9766 2.04688 12.9844 2.05469 11.2812ZM3.50781 11.2812C3.5 12.2422 4.73438 12.8047 6.78906 12.7969C8.84375 12.8047 10.0703 12.2422 10.0703 11.2812C10.0703 10.2812 8.84375 9.72656 6.78906 9.71875C4.73438 9.72656 3.5 10.2812 3.50781 11.2812ZM7.17188 3.15625C7.26562 3.46875 7.32031 3.8125 7.32031 4.17188C7.32031 4.51562 7.26562 4.85156 7.17188 5.15625H9.99219V3.15625H7.17188ZM17.1878 0.640625C19.0316 0.625 20.4613 1.69531 20.7659 3.26562H23.5003V0H24.9847V7.51562H23.5003V4.48438H20.7738C20.4847 6.09375 19.0472 7.17188 17.1878 7.17188C15.0472 7.17188 13.5081 5.82031 13.5159 3.89062C13.5081 1.98438 15.0472 0.625 17.1878 0.640625ZM14.9378 3.89062C14.93 5.08594 15.8675 5.92188 17.1878 5.92188C18.4847 5.92188 19.4066 5.08594 19.4066 3.89062C19.4066 2.6875 18.4847 1.86719 17.1878 1.875C15.8675 1.86719 14.93 2.6875 14.9378 3.89062ZM15.8597 13.8281V8.1875H17.3284V9.8125H23.5003V8.1875H24.9847V13.8281H15.8597ZM17.3284 12.6094H23.5003V10.9844H17.3284V12.6094ZM38.4147 0V14.0312H36.9303V0H38.4147ZM27.3053 5.95312C27.3053 2.96094 28.8131 1.05469 30.9303 1.04688C33.0084 1.05469 34.5397 2.96094 34.5397 5.95312C34.5397 8.97656 33.0084 10.8828 30.9303 10.875C28.8131 10.8828 27.3053 8.97656 27.3053 5.95312ZM28.7428 5.95312C28.735 8.17969 29.6256 9.54688 30.9303 9.54688C32.2116 9.54688 33.1022 8.17969 33.1022 5.95312C33.1022 3.75781 32.2116 2.38281 30.9303 2.375C29.6256 2.38281 28.735 3.75781 28.7428 5.95312ZM51.9384 9.01562V14H50.4541V10.2188H42.4541V9.01562H51.9384ZM40.6103 4.15625C40.6181 2.19531 42.1963 0.8125 44.3447 0.8125C46.4853 0.8125 48.0634 2.19531 48.0634 4.15625C48.0634 6.13281 46.4853 7.5 44.3447 7.5C42.1963 7.5 40.6181 6.13281 40.6103 4.15625ZM42.0634 4.15625C42.0556 5.41406 43.0166 6.25 44.3447 6.23438C45.6572 6.25 46.6103 5.41406 46.6103 4.15625C46.6103 2.90625 45.6572 2.08594 44.3447 2.07812C43.0166 2.08594 42.0556 2.90625 42.0634 4.15625ZM50.4541 8.29688V0H51.9384V8.29688H50.4541Z" fill="black"/>
</svg>
