<svg width="370" height="43" viewBox="0 0 370 43" fill="none" xmlns="http://www.w3.org/2000/svg">
<path d="M38.7188 33.6094V37.9688H0V33.6094H16.6406V25.2656H3.32812V21.1406H9.28125V8.48438H3.1875V4.26562H35.3438V8.48438H29.1562V21.1406H35.2031V25.2656H21.7969V33.6094H38.7188ZM14.4844 21.1406H24V8.48438H14.4844V21.1406ZM62.415 6.32812C62.415 12.8672 68.8134 19.4531 77.6963 21L75.3525 25.3594C68.2509 23.8828 62.4384 19.5703 59.6728 13.875C56.8838 19.5234 51.0713 23.8594 43.9931 25.3594L41.6963 21C50.4384 19.4062 56.8603 12.8438 56.8838 6.32812V3.1875H62.415V6.32812ZM40.5244 37.5V33.1875H79.2431V37.5H40.5244ZM115.502 4.26562V8.10938C115.478 13.2422 115.549 19.1719 113.627 28.125L108.518 27.6094C109.268 24.1875 109.713 21.1641 109.971 18.4688L84.9863 19.875L84.2363 15.4219L110.275 14.4844C110.369 12.2812 110.393 10.3125 110.393 8.48438H85.5488V4.26562H115.502ZM81.0488 37.6875V33.375H95.2988V22.9219H100.455V33.375H119.674V37.6875H81.0488ZM158.089 3.1875V6.89062H123.495V3.1875H138.261V0H143.464V3.1875H158.089ZM121.573 24.9375V21.1875H138.261V18.8906C130.69 18.5625 126.776 16.875 126.776 13.5469C126.776 9.86719 131.581 8.17969 140.839 8.15625C150.097 8.17969 154.925 9.86719 154.948 13.5469C154.925 16.8516 151.011 18.5625 143.464 18.8906V21.1875H160.198V24.9375H121.573ZM126.12 30.6562V27H155.37V36.3281H131.464V38.8125H156.542V42.5156H126.167V32.8594H150.073V30.6562H126.12ZM132.354 13.5469C132.354 14.9297 134.886 15.6094 140.839 15.6094C146.792 15.6094 149.417 14.9297 149.464 13.5469C149.417 12.1641 146.792 11.5547 140.839 11.5781C134.886 11.5547 132.354 12.1641 132.354 13.5469ZM197.394 0.515625V26.1094H192.144V0.515625H197.394ZM164.582 22.9688V3.75H184.738V7.96875H169.738V18.75C178.105 18.75 183.004 18.4453 188.488 17.3438L188.957 21.6094C183.027 22.7578 177.754 22.9688 168.191 22.9688H164.582ZM168.566 34.6406C168.566 29.4375 174.051 26.3672 183.051 26.3906C191.91 26.3672 197.488 29.4375 197.488 34.6406C197.488 39.8203 191.91 42.8672 183.051 42.8906C174.051 42.8672 168.566 39.8203 168.566 34.6406ZM173.816 34.6406C173.816 37.3125 177.098 38.7891 183.051 38.7656C188.957 38.7891 192.355 37.3125 192.379 34.6406C192.355 31.875 188.957 30.4922 183.051 30.4688C177.098 30.4922 173.816 31.875 173.816 34.6406ZM224.512 6.32812C224.512 12.8672 230.911 19.4531 239.794 21L237.45 25.3594C230.348 23.8828 224.536 19.5703 221.77 13.875C218.981 19.5234 213.169 23.8594 206.091 25.3594L203.794 21C212.536 19.4062 218.958 12.8438 218.981 6.32812V3.1875H224.512V6.32812ZM202.622 37.5V33.1875H241.341V37.5H202.622ZM266.983 11.5312C266.96 18.6797 269.421 25.6641 275.28 28.7812L272.186 32.9062C268.366 30.7734 265.835 27.0469 264.405 22.5234C262.882 27.5156 260.163 31.7109 256.202 34.0781L252.874 30.2812C259.108 26.625 261.921 19.0781 261.921 11.8594V4.26562H266.983V11.5312ZM275.842 40.8281V1.26562H280.764V17.2031H285.124V0.515625H290.139V42.8906H285.124V21.4219H280.764V40.8281H275.842ZM332.82 33.4219V37.6406H294.101V33.4219H310.695V23.625H315.851V33.4219H332.82ZM295.226 20.3438C304.086 18.9141 310.437 12.5625 310.461 6.1875V3.09375H315.992V6.1875C315.992 12.5859 322.39 18.9141 331.32 20.3438L329.07 24.6562C321.922 23.2969 316.039 19.1953 313.226 13.6406C310.437 19.1719 304.625 23.3203 297.476 24.6562L295.226 20.3438ZM350.422 6.5625C350.399 12.1406 353.915 17.3906 360.641 19.5L358.063 23.625C353.188 22.0078 349.696 18.7734 347.774 14.625C345.876 19.0781 342.313 22.6172 337.297 24.3281L334.672 20.25C341.516 17.9297 345.055 12.3047 345.032 6.5625V2.53125H350.422V6.5625ZM341.001 31.9688V27.7969H369.922V42.8906H364.672V31.9688H341.001ZM364.672 25.875V0.515625H369.922V25.875H364.672Z" fill="black"/>
</svg>
