<svg width="788" height="61" viewBox="0 0 788 61" fill="none" xmlns="http://www.w3.org/2000/svg">
<path d="M20.0981 10.7812C20.1273 15.5273 24.2582 20.3613 32.8715 22.0898L29.5902 27.7734C23.3207 26.4551 18.9555 23.4082 16.4945 19.4238C14.1215 23.8184 9.66837 27.1875 3.16446 28.6523L0.000396729 22.9688C8.61368 20.9766 12.6566 15.9375 12.6566 10.7812V10.6055H1.93399V4.6875H12.6566V0H20.2152V4.6875H30.8793V10.6055H20.0981V10.7812ZM9.90274 35.5664V29.8828H45.4106V44.1797H17.4613V47.4609H46.9926V53.2031H9.96133V38.7305H37.9691V35.5664H9.90274ZM29.4731 18.6328V12.7148H37.9691V0.234375H45.4106V27.9492H37.9691V18.6328H29.4731ZM92.2293 0.234375V12.7734H99.4363V18.8672H92.2293V31.1719H84.7293V0.234375H92.2293ZM49.5731 26.3086C61.3211 23.2031 68.0301 17.1094 69.202 9.72656H52.0926V3.75H77.3465C77.3758 17.959 68.4402 27.9199 52.5613 32.3438L49.5731 26.3086ZM56.7801 42.7148C56.7215 36.0352 63.9871 31.8164 74.827 31.8164C85.6961 31.8164 92.7859 36.0352 92.8152 42.7148C92.7859 49.4531 85.6961 53.6133 74.827 53.6133C63.9871 53.6133 56.7215 49.4531 56.7801 42.7148ZM64.1629 42.7148C64.1336 45.9375 68.118 47.7832 74.827 47.7539C81.4481 47.7832 85.4324 45.9375 85.4324 42.7148C85.4324 39.4336 81.4481 37.6172 74.827 37.6172C68.118 37.6172 64.1336 39.4336 64.1629 42.7148ZM123.696 0.996094C135.972 0.996094 143.062 4.21875 143.091 10.0781C143.062 16.0254 135.972 19.2188 123.696 19.2188C111.392 19.2188 104.243 16.0254 104.243 10.0781C104.243 4.21875 111.392 0.996094 123.696 0.996094ZM99.3801 27.6562V21.7383H148.013V27.6562H99.3801ZM105.005 36.2109V30.7617H142.095V44.3555H112.388V47.5781H143.501V53.2031H105.064V39.1406H134.712V36.2109H105.005ZM112.095 10.0781C112.066 12.6855 115.874 13.7109 123.696 13.7109C131.577 13.7109 135.357 12.6855 135.357 10.0781C135.357 7.70508 131.577 6.44531 123.696 6.44531C115.874 6.44531 112.066 7.70508 112.095 10.0781ZM205.205 32.9297V52.9688H169.58V32.9297H205.205ZM163.252 28.7109V3.04688H170.635V22.3828C177.314 22.2949 184.17 21.7676 191.318 20.332L192.08 26.6016C183.672 28.3008 175.674 28.7109 167.705 28.7109H163.252ZM176.963 46.9922H197.881V38.8477H176.963V46.9922ZM184.521 15.2344V9.19922H197.764V0.234375H205.205V30.7031H197.764V15.2344H184.521ZM224.426 3.98438C231.633 3.98438 237.024 9.90234 238.079 19.5117H247.336V0.234375H254.719V53.6719H247.336V25.4883H238.166C237.375 35.7422 231.868 42.0117 224.426 42.0117C216.34 42.0117 210.539 34.6875 210.598 22.9688C210.539 11.3379 216.34 3.98438 224.426 3.98438ZM217.746 22.9688C217.717 30.9082 220.442 35.2441 224.426 35.2148C228.44 35.2441 231.106 30.9082 231.106 22.9688C231.106 15.0586 228.44 10.7227 224.426 10.7227C220.442 10.7227 217.717 15.0586 217.746 22.9688ZM299.021 5.03906V40.8398H273.239V5.03906H299.021ZM280.739 34.9219H291.755V10.8984H280.739V34.9219ZM307.693 53.6719V0.234375H315.251V53.6719H307.693ZM341.796 5.39062V25.957H328.73V35.5078C333.798 35.4492 338.603 35.2441 344.082 34.3945L344.609 40.3711C337.636 41.543 331.865 41.7188 325.273 41.7188H321.582V19.9805H334.589V11.4258H321.523V5.39062H341.796ZM347.07 50.9766V1.11328H353.925V20.3906H359.082V0.234375H366.171V53.5547H359.082V26.4258H353.925V50.9766H347.07ZM418.322 41.1914V47.168H369.514V41.1914H389.904V29.1211H397.346V41.1914H418.322ZM370.686 24.6094C382.756 22.7344 389.553 14.6191 389.611 7.08984V3.28125H397.58V7.08984C397.551 14.707 404.436 22.7344 416.623 24.6094L413.459 30.8203C404.084 29.1211 397.111 24.1113 393.596 17.4609C390.109 24.082 383.166 29.1504 373.85 30.8203L370.686 24.6094ZM465.493 0.234375V53.5547H458.344V26.8359H453.832V51.0938H446.743V35.8301L442.524 41.4258C437.573 38.8184 434.379 34.3945 432.475 28.9746C430.717 35.2148 427.582 40.3125 422.485 43.3594L417.856 37.6172C425.971 33.0469 428.666 23.6133 428.696 13.418V11.7188H419.672V5.74219H444.106V11.7188H435.961V13.418C435.961 22.7051 438.715 31.5527 446.743 35.7129V0.996094H453.832V20.7422H458.344V0.234375H465.493ZM484.304 3.39844C492.536 3.42773 498.893 8.81836 498.952 16.4648C498.893 22.9102 494.411 27.7441 488.112 29.1211V36.416C492.302 36.2109 496.52 35.8594 500.475 35.332L501.003 40.8398C489.841 42.9785 477.829 42.9492 468.776 42.832L467.78 36.7969C471.647 36.7969 476.042 36.7969 480.671 36.6797V29.1797C474.167 27.8613 469.655 22.998 469.655 16.4648C469.655 8.81836 475.895 3.42773 484.304 3.39844ZM476.979 16.4648C476.95 20.6543 480.085 23.2031 484.304 23.2031C488.434 23.2031 491.569 20.6543 491.569 16.4648C491.569 12.2168 488.434 9.75586 484.304 9.72656C480.085 9.75586 476.95 12.2168 476.979 16.4648ZM503.288 53.5547V0.234375H510.788V21.1523H518.054V27.4219H510.788V53.5547H503.288ZM575.539 0.234375V53.5547H568.39V0.234375H575.539ZM529.777 23.3203C529.777 11.3965 534.318 4.01367 541.379 4.04297C547.795 4.01367 552.189 10.0195 553.009 19.9805H557.375V0.996094H564.406V51.0938H557.375V25.8984H553.068C552.423 36.3574 547.941 42.7148 541.379 42.7148C534.318 42.7148 529.777 35.3027 529.777 23.3203ZM536.691 23.3203C536.632 31.5234 538.39 35.5664 541.379 35.5078C544.455 35.5664 546.271 31.5234 546.242 23.3203C546.271 15.1465 544.455 11.0742 541.379 11.0742C538.39 11.0742 536.632 15.1465 536.691 23.3203ZM623.822 0.234375V53.6719H616.381V22.793H601.791V16.6992H616.381V0.234375H623.822ZM581.518 41.1328V5.91797H589.018V34.8926C595.785 34.7754 602.758 34.1895 609.994 32.8125L610.814 38.9062C602.201 40.6934 593.998 41.1328 586.029 41.1328H581.518ZM648.903 14.7656C648.873 23.3789 653.327 32.6074 662.262 36.3281L658.219 42.1875C651.95 39.5215 647.614 34.2188 645.211 27.7734C642.809 34.7754 638.385 40.6348 632.086 43.5352L627.809 37.6172C636.657 33.6621 641.227 23.7891 641.227 14.7656V11.4844H629.918V5.39062H660.036V11.4844H648.903V14.7656ZM665.309 53.5547V0.234375H672.868V53.5547H665.309ZM720.389 0.234375V21.1523H727.479V27.3047H720.389V53.5547H712.889V0.234375H720.389ZM676.62 38.0859C683.885 30.2051 685.995 22.4121 686.464 11.7773H678.964V5.68359H693.612C693.553 20.332 692.03 31.7578 682.479 42.2461L676.62 38.0859ZM691.678 41.543C698.915 32.6367 700.907 23.4961 701.317 11.7773H695.37V5.68359H708.378C708.348 20.8887 707.03 34.1016 697.596 45.7031L691.678 41.543ZM747.814 14.7656C747.784 23.3789 752.238 32.6074 761.173 36.3281L757.13 42.1875C750.861 39.5215 746.525 34.2188 744.122 27.7734C741.72 34.7754 737.296 40.6348 730.997 43.5352L726.72 37.6172C735.568 33.6621 740.138 23.7891 740.138 14.7656V11.4844H728.829V5.39062H758.947V11.4844H747.814V14.7656ZM764.22 53.5547V0.234375H771.779V53.5547H764.22ZM787.836 43.8281L782.797 60.5273H776.586L779.515 43.8281H787.836Z" fill="#0E0D0D"/>
</svg>
