<svg width="225" height="96" viewBox="0 0 225 96" fill="none" xmlns="http://www.w3.org/2000/svg">
<path d="M28.8281 19.4375V76H17.0312V30.6094H16.7188L3.75 38.7344V28.3438L17.7344 19.4375H28.8281ZM62.5781 18.6562C74.2969 18.6953 85.3906 25.6875 85.3906 46.2344C85.4297 65.4531 76.3281 76.7812 62.1094 76.7812C50.7422 76.7812 42.9297 69.6328 41.7969 60.0625H53.3594C54.3359 64.2422 57.5781 66.7031 62.1094 66.7031C69.8047 66.7031 73.8672 59.7891 73.9062 48.5H73.4375C70.7812 53.5 65.1953 56.4688 58.9062 56.4688C48.75 56.4688 41.25 48.8125 41.1719 38.2656C41.1719 26.8984 49.8047 18.6172 62.5781 18.6562ZM52.6562 37.9531C52.6562 43.5391 56.7578 47.875 62.5781 47.875C68.3203 47.875 72.7344 43.3047 72.7344 37.875C72.6562 32.4844 68.4375 27.9141 62.6562 27.875C56.875 27.9141 52.5781 32.3281 52.6562 37.9531ZM115.234 76.7812C103.555 76.7422 92.3828 69.75 92.4219 49.0469C92.4609 29.9453 101.562 18.6562 115.703 18.6562C127.07 18.6562 134.883 25.8438 136.016 35.1406H124.453C123.516 31.1953 120.273 28.7344 115.703 28.7344C108.008 28.7344 103.984 35.6484 103.906 46.7812H104.453C107.07 41.7422 112.656 38.8125 118.906 38.8125C129.102 38.8125 136.68 46.4297 136.641 57.0938C136.68 68.5781 128.008 76.8203 115.234 76.7812ZM105.078 57.4062C105.156 62.9531 109.375 67.5234 115.156 67.4844C120.977 67.5234 125.234 63.1094 125.234 57.4062C125.234 51.7422 121.055 47.3672 115.312 47.3281C109.531 47.3672 105.156 51.8984 105.078 57.4062ZM146.953 76L170.781 29.4375V29.0469H143.047V19.4375H182.969V29.2031L159.141 76H146.953Z" fill="#00A5E5"/>
<path d="M222.508 17.043V30.1094H220.027V24.2891H215.613V22.3359H220.027V20.9688H215.613V19.0156H220.027V17.043H222.508ZM208.523 27.8047V18.1562H210.984V25.7539C213.152 25.7246 215.203 25.5879 217.41 25.1875L217.664 27.1992C214.998 27.707 212.605 27.7949 209.949 27.8047H208.523ZM210.691 34.4844V28.9375H213.191V32.4922H222.938V34.4844H210.691Z" fill="#00A5E5"/>
</svg>
