<svg width="121" height="18" viewBox="0 0 121 18" fill="none" xmlns="http://www.w3.org/2000/svg">
<path d="M16.2697 13.7109V15.8008H0.000198364V13.7109H6.83614V10.5078H1.34785V8.55469H3.73067V3.47656H1.26973V1.48438H14.9025V3.47656H12.4025V8.55469H14.8244V10.5078H9.3166V13.7109H16.2697ZM6.23067 8.55469H9.9416V3.47656H6.23067V8.55469ZM26.2408 2.34375C26.2311 4.95117 28.5455 7.73438 32.5689 8.41797L31.4752 10.4883C28.3697 9.87305 26.0748 8.125 24.9225 5.84961C23.7506 8.10547 21.4459 9.86328 18.3697 10.4883L17.2955 8.41797C21.2506 7.71484 23.565 4.92188 23.5846 2.34375V1.05469H26.2408V2.34375ZM16.8854 15.5859V13.5352H33.1549V15.5859H16.8854ZM48.3604 1.48438V3.06641C48.3506 5.20508 48.3897 7.72461 47.5596 11.5625L45.1182 11.3086C45.4111 9.96094 45.5967 8.75977 45.7139 7.67578L35.3916 8.26172L35.04 6.13281L45.8604 5.78125C45.9092 4.94141 45.9092 4.17969 45.9189 3.47656H35.626V1.48438H48.3604ZM33.7705 15.7227V13.6914H39.5713V9.39453H42.0518V13.6914H49.9814V15.7227H33.7705ZM70.2752 0V17.7734H67.8924V0H70.2752ZM54.8455 4.66797V2.69531H57.8533V0.429688H60.3338V2.69531H63.3025V4.66797H54.8455ZM55.2361 9.70703C55.2264 7.24609 56.8475 5.48828 59.0252 5.48828C61.2518 5.48828 62.8533 7.24609 62.8533 9.70703C62.8533 12.1973 61.2518 13.9453 59.0252 13.9453C56.8475 13.9453 55.2264 12.1973 55.2361 9.70703ZM57.4041 9.70703C57.3943 11.0742 58.0486 11.875 59.0252 11.875C60.0213 11.875 60.6951 11.0742 60.7049 9.70703C60.6951 8.36914 60.0213 7.55859 59.0252 7.55859C58.0486 7.55859 57.3943 8.36914 57.4041 9.70703ZM62.8924 8.59375V6.5625H64.3768V0.292969H66.7205V16.9922H64.3768V8.59375H62.8924ZM86.6525 0V17.8125H84.1721V0H86.6525ZM72.6877 3.49609V1.48438H81.1447V8.33984H75.2854V11.6016C78.0002 11.582 80.2951 11.4453 82.9025 11.0156L83.1174 13.0273C80.1975 13.5449 77.551 13.6523 74.3088 13.6523H72.7072V6.36719H78.6057V3.49609H72.6877ZM98.6549 1.46484V3.49609H92.0729V6.42578H97.9127V8.37891H92.0729V11.7383C94.7975 11.7188 96.9654 11.6113 99.4557 11.2305L99.69 13.2422C96.8971 13.6523 94.3482 13.7305 91.1354 13.7305H89.6119V1.46484H98.6549ZM101.057 17.7734V0H103.577V17.7734H101.057ZM112.415 4.84375C112.405 7.71484 113.89 10.791 116.868 12.0312L115.521 13.9844C113.431 13.0957 111.985 11.3281 111.185 9.17969C110.384 11.5137 108.909 13.4668 106.81 14.4336L105.384 12.4609C108.333 11.1426 109.856 7.85156 109.856 4.84375V3.75H106.087V1.71875H116.126V3.75H112.415V4.84375ZM117.884 17.7734V0H120.403V17.7734H117.884Z" fill="white"/>
</svg>
