<svg width="143" height="145" viewBox="0 0 143 145" fill="none" xmlns="http://www.w3.org/2000/svg">
<path d="M141.436 86.1874C141.436 86.1874 138.817 82.4788 127.922 84.9512C117.003 87.5224 112.235 96.0274 112.235 96.0274C104.205 109.873 89.4072 119.367 72.3608 119.367C46.5935 119.367 26.039 97.6839 26.039 72.1195C26.039 46.555 46.6182 24.8722 72.3608 24.8722C88.419 24.8722 101.957 32.8086 110.258 45.3436C110.258 45.3436 116.805 55.1342 121.4 57.6808C125.946 60.3015 132.591 61.686 137.088 60.7218C141.46 59.7328 144.252 58.8922 142.078 51.3762C133.382 21.0648 105.836 -0.0246582 72.3855 -0.0246582C31.8447 -0.0246582 0 31.251 0 72.1195C0 112.988 31.8447 144.338 72.3855 144.338C104.872 144.338 130.244 125.844 140.917 95.978C144.153 87.3246 141.46 86.1379 141.46 86.1379L141.436 86.1874Z" fill="#00A5E5"/>
</svg>
