<svg width="54" height="14" viewBox="0 0 54 14" fill="none" xmlns="http://www.w3.org/2000/svg">
<path d="M11.5312 0V10.25H10.0469V0H11.5312ZM0 7.09375C2.19531 6.28125 3.49219 4.26562 3.5 2.15625V0.765625H5.01562V2.15625C5.00781 4.20312 6.30469 6.07812 8.46875 6.82812L7.70312 8.01562C6.08594 7.41406 4.89062 6.22656 4.26562 4.71094C3.64844 6.33594 2.4375 7.63281 0.796875 8.26562L0 7.09375ZM2.375 13.6875V9.28125H3.875V12.4844H11.9531V13.6875H2.375ZM26.1956 6.8125V8.01562H13.43V6.8125H16.4925V4.92969C15.4066 4.49219 14.7972 3.78906 14.805 2.85938C14.7972 1.19531 16.7269 0.226562 19.805 0.234375C22.8753 0.226562 24.7972 1.19531 24.805 2.85938C24.7972 3.78906 24.1878 4.49219 23.1019 4.9375V6.8125H26.1956ZM14.9456 11.4531C14.9456 9.85156 16.7581 8.96875 19.805 8.96875C22.8128 8.96875 24.6253 9.85156 24.6331 11.4531C24.6253 13.0703 22.8128 13.9531 19.805 13.9531C16.7581 13.9531 14.9456 13.0703 14.9456 11.4531ZM16.3363 2.85938C16.3284 3.79688 17.6253 4.32031 19.805 4.32812C21.9691 4.32031 23.2816 3.79688 23.2738 2.85938C23.2816 1.92188 21.9691 1.38281 19.805 1.375C17.6253 1.38281 16.3284 1.92188 16.3363 2.85938ZM16.4456 11.4531C16.4378 12.3281 17.6644 12.8281 19.805 12.8125C21.9144 12.8281 23.1488 12.3281 23.1488 11.4531C23.1488 10.5938 21.9144 10.1094 19.805 10.1094C17.6644 10.1094 16.4378 10.5938 16.4456 11.4531ZM17.9925 6.8125H21.6331V5.32031C21.0863 5.40625 20.4691 5.45312 19.805 5.45312C19.1488 5.45312 18.5394 5.40625 17.9925 5.32812V6.8125ZM39.7194 6.5625V7.78125H26.9381V6.5625H39.7194ZM28.4538 11.4219C28.4538 9.79688 30.2741 8.875 33.3131 8.875C36.3288 8.875 38.1334 9.79688 38.1413 11.4219C38.1334 13.0469 36.3288 13.9609 33.3131 13.9531C30.2741 13.9609 28.4538 13.0469 28.4538 11.4219ZM28.5319 5.34375V0.484375H38.1413V1.70312H30.0006V4.14062H38.235V5.34375H28.5319ZM29.9538 11.4219C29.9459 12.3203 31.1725 12.8047 33.3131 12.8125C35.4225 12.8047 36.6569 12.3203 36.6569 11.4219C36.6569 10.5312 35.4225 10.0312 33.3131 10.0156C31.1725 10.0312 29.9459 10.5312 29.9538 11.4219ZM43.54 7.96875V9.71875H50.1494V7.96875H51.6025V13.8125H42.0713V7.96875H43.54ZM40.4463 6.82812V5.625H49.8134C50.1494 4.02344 50.165 2.83594 50.165 1.8125H42.0556V0.59375H51.6338V1.65625C51.6416 2.71875 51.6416 3.92969 51.2744 5.625H53.2588V6.82812H40.4463ZM43.54 12.5938H50.1494V10.875H43.54V12.5938Z" fill="black"/>
</svg>
