<svg width="257" height="98" viewBox="0 0 257 98" fill="none" xmlns="http://www.w3.org/2000/svg">
<path d="M11.2031 1.99219V16.0312H1.125V1.99219H11.2031ZM3.70312 13.9453H8.67188V4.03125H3.70312V13.9453ZM15 21.2109V0H17.625V21.2109H15ZM28.8872 2.15625V10.0547H23.4028V14.1797C25.5473 14.1562 27.5981 14.0742 29.9653 13.6875L30.1528 15.7969C27.2934 16.2773 24.9731 16.3477 22.3481 16.3594H20.895V7.94531H26.3794V4.26562H20.8716V2.15625H28.8872ZM31.2309 20.1094V0.398438H33.6216V8.13281H36.0122V0H38.4966V21.1875H36.0122V10.2422H33.6216V20.1094H31.2309ZM59.8603 9.60938V11.5781H40.5009V9.60938H59.8603ZM42.7509 14.6719V12.8438H57.5166V17.6719H45.3759V19.1484H58.1494V20.9531H42.7744V15.9844H54.9384V14.6719H42.7509ZM42.8916 2.27344V0.46875H57.4697V5.25H45.54V6.63281H57.8447V8.41406H42.9619V3.5625H54.8681V2.27344H42.8916ZM71.7909 1.54688C73.7011 1.54688 75.2831 2.61328 76.2323 4.47656H81.1894V0H83.7675V21.2109H81.1894V13.1953H76.4198C75.4941 15.3047 73.83 16.5234 71.7909 16.5234C68.6034 16.5234 66.3417 13.6289 66.3534 9.02344C66.3417 4.45312 68.6034 1.54688 71.7909 1.54688ZM68.8613 9.02344C68.8495 12.2812 70.0448 14.168 71.7909 14.1797C73.5488 14.168 74.7323 12.2812 74.7441 9.02344C74.7323 5.78906 73.5488 3.89062 71.7909 3.89062C70.0448 3.89062 68.8495 5.78906 68.8613 9.02344ZM76.9706 6.60938C77.123 7.34766 77.205 8.15625 77.205 9.02344C77.205 9.75 77.1464 10.4414 77.0292 11.0859H81.1894V6.60938H76.9706ZM103.42 6V8.0625H88.7484V0.773438H91.3266V6H103.42ZM86.2406 12.5859V10.5234H105.6V12.5859H86.2406ZM88.5609 20.6953V14.4609H91.1625V18.5859H103.561V20.6953H88.5609ZM131.101 16.4531V18.5625H111.742V16.4531H120.038V11.5547H122.617V16.4531H131.101ZM112.304 9.91406C116.734 9.19922 119.91 6.02344 119.921 2.83594V1.28906H122.687V2.83594C122.687 6.03516 125.886 9.19922 130.351 9.91406L129.226 12.0703C125.652 11.3906 122.71 9.33984 121.304 6.5625C119.91 9.32812 117.003 11.4023 113.429 12.0703L112.304 9.91406ZM150.379 0V21.1875H147.894V10.4531H145.715V20.1562H143.254V0.375H145.715V8.29688H147.894V0H150.379ZM131.652 15.0234C134.793 13.2422 136.058 9.55078 136.058 5.41406V4.40625H132.285V2.32031H142.058V4.40625H138.59V5.41406C138.59 9.17578 139.855 12.6562 142.996 14.2734L141.473 16.2656C139.457 15.1758 138.133 13.3125 137.383 11.0156C136.668 13.6523 135.344 15.7734 133.246 17.0156L131.652 15.0234ZM156.391 17.4375L154.422 24H152.196L153.414 17.4375H156.391ZM19.3594 54.5469V56.6797H0V54.5469H8.36719V50.1641H10.9453V54.5469H19.3594ZM0.796875 48.8516C5.39062 48.2539 8.14453 45.8164 8.33203 43.1797H1.71094V41.0703H8.36719V38.3281H10.9453V41.0703H17.625V43.1797H11.0039C11.1797 45.8164 13.9336 48.2539 18.5156 48.8516L17.5547 50.8906C13.8984 50.375 11.0625 48.7461 9.65625 46.4375C8.26172 48.7461 5.44922 50.375 1.78125 50.8906L0.796875 48.8516ZM26.2622 38.6797C29.4731 38.6914 31.8638 40.6719 31.8872 43.4609C31.8638 46.2617 29.4731 48.2305 26.2622 48.2422C23.0278 48.2305 20.6372 46.2617 20.6372 43.4609C20.6372 40.6719 23.0278 38.6914 26.2622 38.6797ZM23.1684 43.4609C23.1684 45.1016 24.4809 46.1328 26.2622 46.1328C28.0434 46.1328 29.3442 45.1016 29.3559 43.4609C29.3442 41.8555 28.0434 40.8242 26.2622 40.8359C24.4809 40.8242 23.1684 41.8555 23.1684 43.4609ZM23.8481 51.6641V49.625H37.9106V55.1562H26.4497V56.8672H38.5434V58.9297H23.895V53.2344H35.3091V51.6641H23.8481ZM35.2856 48.7109V38H37.9106V48.7109H35.2856ZM59.8603 50.5156V52.5547H55.1963V59.1875H52.5713V52.5547H47.8134V59.1875H45.2119V52.5547H40.5009V50.5156H59.8603ZM42.7744 40.8359V38.7031H57.6103V44.6328H45.4463V46.6484H58.0791V48.7578H42.8213V42.6875H54.9384V40.8359H42.7744ZM80.1225 47.6094V49.5781H60.7631V47.6094H80.1225ZM63.0131 52.6719V50.8438H77.7788V55.6719H65.6381V57.1484H78.4116V58.9531H63.0366V53.9844H75.2006V52.6719H63.0131ZM63.1538 40.2734V38.4688H77.7319V43.25H65.8022V44.6328H78.1069V46.4141H63.2241V41.5625H75.1303V40.2734H63.1538ZM105.858 41.3047V43.4375H102.975V45.8516H105.858V47.9844H102.975V51.5234H100.373V38H102.975V41.3047H105.858ZM86.2875 42.1953V40.1562H91.2797V37.8594H93.8812V40.1562H98.85V42.1953H86.2875ZM87.3656 46.8359C87.3656 44.5625 89.475 43.0508 92.5687 43.0391C95.6273 43.0508 97.7367 44.5625 97.7484 46.8359C97.7367 49.1094 95.6273 50.6094 92.5687 50.6094C89.475 50.6094 87.3656 49.1094 87.3656 46.8359ZM89.0531 55.4375C89.0297 53.082 91.7367 51.6992 96.1312 51.7109C100.479 51.6992 103.209 53.082 103.209 55.4375C103.209 57.7695 100.479 59.1641 96.1312 59.1641C91.7367 59.1641 89.0297 57.7695 89.0531 55.4375ZM89.8969 46.8359C89.8852 47.9844 90.9633 48.6523 92.5687 48.6406C94.1742 48.6523 95.2641 47.9844 95.2641 46.8359C95.2641 45.6641 94.1742 44.9609 92.5687 44.9609C90.9633 44.9609 89.8852 45.6641 89.8969 46.8359ZM91.6312 55.4375C91.6195 56.5625 93.2367 57.1953 96.1312 57.1953C98.9906 57.1953 100.596 56.5625 100.608 55.4375C100.596 54.2773 98.9906 53.7031 96.1312 53.7031C93.2367 53.7031 91.6195 54.2773 91.6312 55.4375ZM123.237 38.0234V44.6797H126.19V46.8359H123.237V53.8438H120.636V38.0234H123.237ZM106.55 42.4531V40.3672H111.542V38H114.143V40.3672H119.112V42.4531H106.55ZM107.628 47.375C107.628 44.9375 109.749 43.3203 112.831 43.3203C115.89 43.3203 117.999 44.9375 118.011 47.375C117.999 49.8008 115.89 51.3828 112.831 51.3828C109.749 51.3828 107.628 49.8008 107.628 47.375ZM109.667 58.7656V52.6016H112.268V56.6562H124.081V58.7656H109.667ZM110.159 47.375C110.147 48.6523 111.225 49.3789 112.831 49.3672C114.436 49.3789 115.526 48.6523 115.526 47.375C115.526 46.0859 114.436 45.3359 112.831 45.3359C111.225 45.3359 110.147 46.0859 110.159 47.375ZM143.887 39.9453V42.0078H132.051V39.9453H136.785V37.8125H139.387V39.9453H143.887ZM133.152 46.9531C133.14 44.5742 135.226 42.9219 138.051 42.9219C140.91 42.9219 143.008 44.5742 143.019 46.9531C143.008 49.2734 140.91 50.9492 138.051 50.9609C135.226 50.9492 133.14 49.2734 133.152 46.9531ZM135.308 54.5938V52.5312H149.746V59.1875H147.144V54.5938H135.308ZM135.59 46.9531C135.578 48.1602 136.598 48.9453 138.051 48.9453C139.515 48.9453 140.582 48.1602 140.582 46.9531C140.582 45.6875 139.515 44.8906 138.051 44.8906C136.598 44.8906 135.578 45.6875 135.59 46.9531ZM144.004 49.0625V46.9531H147.144V44.9844H144.027V42.9219H147.144V38H149.746V51.4531H147.144V49.0625H144.004ZM169.914 38.0234V53.4922H167.289V38.0234H169.914ZM152.289 48.5C155.723 47.293 157.481 44.3047 157.469 41.2578V39.1953H160.164V41.2578C160.153 44.2109 161.887 47 165.25 48.125L163.914 50.1875C161.5 49.3438 159.778 47.6562 158.84 45.4883C157.903 47.8086 156.145 49.6602 153.649 50.5625L152.289 48.5ZM155.899 58.7656V52.0156H158.524V56.6562H170.5V58.7656H155.899ZM182.161 38.3281C186.989 38.3398 189.79 39.6172 189.802 41.9609C189.79 44.3281 186.989 45.6055 182.161 45.6172C177.345 45.6055 174.52 44.3281 174.52 41.9609C174.52 39.6172 177.345 38.3398 182.161 38.3281ZM172.528 48.8281V46.7422H191.841V48.8281H172.528ZM174.802 52.1797V50.2578H189.427V55.4375H177.38V57.0078H190.012V59H174.825V53.5859H186.872V52.1797H174.802ZM177.262 41.9609C177.251 43.1328 178.938 43.6719 182.161 43.6719C185.43 43.6719 187.106 43.1328 187.106 41.9609C187.106 40.8711 185.43 40.25 182.161 40.25C178.938 40.25 177.251 40.8711 177.262 41.9609ZM217.599 41.3047V43.4375H214.717V45.8516H217.599V47.9844H214.717V51.5234H212.115V38H214.717V41.3047H217.599ZM198.029 42.1953V40.1562H203.021V37.8594H205.623V40.1562H210.592V42.1953H198.029ZM199.107 46.8359C199.107 44.5625 201.217 43.0508 204.31 43.0391C207.369 43.0508 209.478 44.5625 209.49 46.8359C209.478 49.1094 207.369 50.6094 204.31 50.6094C201.217 50.6094 199.107 49.1094 199.107 46.8359ZM200.795 55.4375C200.771 53.082 203.478 51.6992 207.873 51.7109C212.22 51.6992 214.951 53.082 214.951 55.4375C214.951 57.7695 212.22 59.1641 207.873 59.1641C203.478 59.1641 200.771 57.7695 200.795 55.4375ZM201.638 46.8359C201.627 47.9844 202.705 48.6523 204.31 48.6406C205.916 48.6523 207.006 47.9844 207.006 46.8359C207.006 45.6641 205.916 44.9609 204.31 44.9609C202.705 44.9609 201.627 45.6641 201.638 46.8359ZM203.373 55.4375C203.361 56.5625 204.978 57.1953 207.873 57.1953C210.732 57.1953 212.338 56.5625 212.349 55.4375C212.338 54.2773 210.732 53.7031 207.873 53.7031C204.978 53.7031 203.361 54.2773 203.373 55.4375ZM234.862 38V46.4375H238.119V48.5938H234.862V59.1875H232.283V38H234.862ZM218.151 43.3438V41.2578H223.166V38.3047H225.768V41.2578H230.643V43.3438H218.151ZM219.135 49.7188C219.112 46.7891 221.385 44.7148 224.479 44.7266C227.526 44.7148 229.787 46.7891 229.799 49.7188C229.787 52.6367 227.526 54.6875 224.479 54.6875C221.385 54.6875 219.112 52.6367 219.135 49.7188ZM221.619 49.7188C221.608 51.4414 222.815 52.543 224.479 52.5312C226.108 52.543 227.291 51.4414 227.315 49.7188C227.291 47.9961 226.108 46.8594 224.479 46.8594C222.815 46.8594 221.608 47.9961 221.619 49.7188ZM244.319 39.5469C246.229 39.5469 247.811 40.6133 248.76 42.4766H253.717V38H256.296V59.2109H253.717V51.1953H248.948C248.022 53.3047 246.358 54.5234 244.319 54.5234C241.132 54.5234 238.87 51.6289 238.882 47.0234C238.87 42.4531 241.132 39.5469 244.319 39.5469ZM241.389 47.0234C241.378 50.2812 242.573 52.168 244.319 52.1797C246.077 52.168 247.26 50.2812 247.272 47.0234C247.26 43.7891 246.077 41.8906 244.319 41.8906C242.573 41.8906 241.378 43.7891 241.389 47.0234ZM249.499 44.6094C249.651 45.3477 249.733 46.1562 249.733 47.0234C249.733 47.75 249.675 48.4414 249.557 49.0859H253.717V44.6094H249.499ZM16.7109 76.0234V80.875H19.6641V82.9844H16.7109V87.8594H14.1094V76.0234H16.7109ZM0.234375 82.1875C0.222656 79.2109 2.68359 77.1367 5.95312 77.1484C9.21094 77.1367 11.6484 79.2109 11.6719 82.1875C11.6484 85.1406 9.21094 87.2148 5.95312 87.2031C2.68359 87.2148 0.222656 85.1406 0.234375 82.1875ZM2.74219 96.8594V94.75H5.64844V90.9062H2.88281V88.8438H17.1562V90.9062H14.4609V94.75H17.4375V96.8594H2.74219ZM2.78906 82.1875C2.77734 83.9336 4.13672 85.0469 5.95312 85.0469C7.75781 85.0469 9.10547 83.9336 9.11719 82.1875C9.10547 80.418 7.75781 79.3164 5.95312 79.3281C4.13672 79.3164 2.77734 80.418 2.78906 82.1875ZM8.17969 94.75H11.9297V90.9062H8.17969V94.75ZM29.895 77.1953C34.3598 77.1953 37.8052 79.5742 37.7934 83.1719C37.8052 86.8164 34.3598 89.1953 29.895 89.1953C25.4536 89.1953 22.0317 86.8164 22.0434 83.1719C22.0317 79.5742 25.4536 77.1953 29.895 77.1953ZM20.2622 94.5156V92.3828H39.6216V94.5156H20.2622ZM24.5513 83.1719C24.5395 85.5742 26.813 87.0508 29.895 87.0625C32.9888 87.0508 35.2388 85.5742 35.2388 83.1719C35.2388 80.8281 32.9888 79.2812 29.895 79.3047C26.813 79.2812 24.5395 80.8281 24.5513 83.1719ZM59.8838 92.5703V94.7266H40.5244V92.5703H48.8681V89.125H42.8213V82.1875H55.0088V79.5625H42.7744V77.4531H57.5869V84.25H45.4228V86.9922H58.0791V89.125H51.4463V92.5703H59.8838ZM85.7363 84.1797V86.3125H82.5956V97.1406H79.9941V76H82.5956V84.1797H85.7363ZM66.7519 91.9141V78.0625H69.33V89.7578C72.1542 89.7109 75.1542 89.4648 78.3534 88.7969L78.6347 91C75.0605 91.7148 71.6738 91.9023 68.5331 91.9141H66.7519ZM91.9594 77.5469C95.1469 77.5469 97.4437 80.4531 97.4672 85.0234C97.4437 89.6289 95.1469 92.5234 91.9594 92.5234C88.7367 92.5234 86.4398 89.6289 86.4516 85.0234C86.4398 80.4531 88.7367 77.5469 91.9594 77.5469ZM88.9594 85.0234C88.9477 88.2812 90.1781 90.168 91.9594 90.1797C93.7523 90.168 94.9477 88.2812 94.9594 85.0234C94.9477 81.7891 93.7523 79.8906 91.9594 79.8906C90.1781 79.8906 88.9477 81.7891 88.9594 85.0234ZM100.256 97.1875V76H102.858V84.1328H106.116V86.3359H102.858V97.1875H100.256ZM123.237 76V80.7578H126.19V82.8906H123.237V87.4844H120.589V76H123.237ZM106.479 85.6328C111.507 84.5312 114.143 82.1523 114.495 79.2812H107.511V77.1953H117.401C117.401 82.7031 113.815 86.2656 107.44 87.7422L106.479 85.6328ZM109.479 96.9297V88.3516H112.104V90.625H120.636V88.3516H123.237V96.9297H109.479ZM112.104 94.8203H120.636V92.6641H112.104V94.8203ZM144.46 76V97.1875H141.882V76H144.46ZM128.007 91.8672V78.0625H130.585V89.6406C133.55 89.5938 136.714 89.3359 139.984 88.6797L140.312 90.8594C136.585 91.6328 133.128 91.8789 129.835 91.8672H128.007ZM163.644 76V84.0391H166.902V86.1719H163.644V97.2109H161.043V76H163.644ZM147.918 92.0312V78.0156H157.832V80.125H150.519V89.8516C153.812 89.8398 156.426 89.6758 159.332 89.1719L159.637 91.375C156.344 91.9375 153.496 92.0312 149.676 92.0312H147.918ZM169.891 95.2891C168.883 95.2891 168.051 94.4688 168.063 93.4609C168.051 92.4766 168.883 91.668 169.891 91.6562C170.864 91.668 171.696 92.4766 171.696 93.4609C171.696 94.4688 170.864 95.2891 169.891 95.2891Z" fill="white"/>
</svg>
