<svg width="186" height="14" viewBox="0 0 186 14" fill="none" xmlns="http://www.w3.org/2000/svg">
<path d="M11.25 3.59375V4.57812H6.9375V6.34375H12.6562V7.35938H0V6.34375H5.71875V4.57812H1.73438V0.3125H2.95312V3.59375H11.25ZM1.29688 13.7031V12.7031H3.5625V9.73438H1.42188V8.75H11.2656V9.73438H9.10938V12.7031H11.375V13.7031H1.29688ZM4.78125 12.7031H7.90625V9.73438H4.78125V12.7031ZM25.6844 7.32812V8.32812H13.0281V7.32812H25.6844ZM14.4344 3.25C14.4344 1.50781 16.3406 0.484375 19.3562 0.5C22.3406 0.484375 24.2547 1.50781 24.2625 3.25C24.2547 4.97656 22.3406 6.01562 19.3562 6.01562C16.3406 6.01562 14.4344 4.97656 14.4344 3.25ZM14.6687 13.5938V9.54688H15.9031V12.5625H24.2781V13.5938H14.6687ZM15.7 3.25C15.6922 4.35156 17.1141 5.01562 19.3562 5.01562C21.5828 5.01562 23.0047 4.35156 23.0125 3.25C23.0047 2.16406 21.5828 1.48438 19.3562 1.48438C17.1141 1.48438 15.6922 2.16406 15.7 3.25ZM36.2406 1.29688C36.2484 3.25781 38.7953 4.94531 41.3031 5.29688L40.8031 6.29688C38.6469 5.9375 36.5063 4.74219 35.6156 3.03906C34.725 4.75781 32.5922 5.9375 30.4281 6.29688L29.9281 5.29688C32.4359 4.94531 34.975 3.28906 34.975 1.29688V0.5H36.2406V1.29688ZM29.2719 8.85938V7.82812H41.9281V8.85938H36.1781V13.8906H34.975V8.85938H29.2719ZM49.425 1.73438C49.4172 3.44531 51.7453 4.83594 54.2062 5.17188L53.7219 6.14062C51.4797 5.8125 49.3781 4.69531 48.6281 3.07031C47.8703 4.69531 45.7844 5.8125 43.5344 6.14062L43.0812 5.17188C45.5266 4.83594 47.8391 3.44531 47.8312 1.73438V1.70312H43.4562V0.703125H53.8312V1.70312H49.425V1.73438ZM42.2844 8.17188V7.15625H55.0031V8.17188H49.3469V11.0156H48.1281V8.17188H42.2844ZM43.9094 13.5938V9.625H45.1437V12.5625H53.5812V13.5938H43.9094ZM59.875 1.01562C62.0547 1.02344 63.6016 2.35156 63.6094 4.28125C63.6016 6.21875 62.0547 7.53906 59.875 7.54688C57.6797 7.53906 56.1172 6.21875 56.125 4.28125C56.1172 2.35156 57.6797 1.02344 59.875 1.01562ZM55.4062 9.8125C57.9688 9.82031 61.5078 9.79688 64.5781 9.34375L64.6719 10.25C61.4922 10.8438 58.0781 10.8594 55.5781 10.8594L55.4062 9.8125ZM57.3281 4.28125C57.3203 5.57812 58.3906 6.46875 59.875 6.46875C61.3438 6.46875 62.4141 5.57812 62.4062 4.28125C62.4141 2.99219 61.3438 2.09375 59.875 2.09375C58.3906 2.09375 57.3203 2.99219 57.3281 4.28125ZM65.5 13.9219V0H66.7188V13.9219H65.5ZM72.2594 12.625V1.3125H79.1188V2.5625H73.6656V6.34375H78.7594V7.57812H73.6656V11.375H79.1969V12.625H72.2594ZM86.7094 4.15625C86.5922 3.04688 85.5609 2.40625 84.2094 2.40625C82.7094 2.40625 81.7328 3.1875 81.725 4.26562C81.7328 5.45312 83.0531 5.89844 83.9125 6.10938L85.0375 6.42188C86.2484 6.73438 88.2406 7.42969 88.2406 9.54688C88.2406 11.3906 86.7562 12.8203 84.1312 12.8281C81.6937 12.8203 80.1859 11.5625 80.0531 9.6875H81.4906C81.6078 10.9531 82.7875 11.5547 84.1312 11.5469C85.6937 11.5547 86.8656 10.75 86.8656 9.51562C86.8656 8.41406 85.8187 7.99219 84.6312 7.65625L83.2406 7.28125C81.4672 6.76562 80.3578 5.85938 80.3656 4.32812C80.3578 2.41406 82.0609 1.15625 84.2562 1.15625C86.4516 1.15625 88.0297 2.4375 88.0844 4.15625H86.7094ZM97.175 4.84375C96.6906 3.39062 95.5891 2.46875 93.9719 2.46875C91.9719 2.46875 90.3859 4.04688 90.3781 6.96875C90.3859 9.88281 91.9719 11.4609 94.0656 11.4688C95.9719 11.4609 97.2922 10.1953 97.3156 8.1875H94.3625V6.95312H98.6906V8.17188C98.6906 10.9766 96.7609 12.7812 94.0656 12.7812C91.0422 12.7812 89.0109 10.5469 89.0188 6.96875C89.0109 3.39062 91.0656 1.15625 93.9719 1.15625C96.3625 1.15625 98.2063 2.65625 98.6281 4.84375H97.175ZM114.044 0.015625V8.35938H112.809V6.48438H109.122V5.46875H112.809V3.59375H109.262C108.348 5.82812 106.208 7.44531 103.231 8.32812L102.716 7.35938C106.067 6.36719 108.169 4.48438 108.411 2.07812H103.419V1.04688H109.747C109.747 1.59375 109.684 2.11719 109.567 2.60938H112.809V0.015625H114.044ZM104.856 11.1562C104.848 9.5 106.653 8.5 109.497 8.5C112.309 8.5 114.122 9.5 114.122 11.1562C114.122 12.8203 112.309 13.8281 109.497 13.8281C106.653 13.8281 104.848 12.8203 104.856 11.1562ZM106.059 11.1562C106.067 12.2031 107.403 12.8359 109.497 12.8281C111.559 12.8359 112.895 12.2031 112.903 11.1562C112.895 10.1094 111.559 9.47656 109.497 9.48438C107.403 9.47656 106.067 10.1094 106.059 11.1562ZM119.384 0.84375C120.556 0.835938 121.548 1.28125 122.197 2.01562H125.838V0H127.072V8.23438H125.838V6.25H122.197C121.556 6.98438 120.556 7.42969 119.384 7.42188C117.306 7.42969 115.767 6.07031 115.775 4.14062C115.767 2.19531 117.306 0.835938 119.384 0.84375ZM116.947 4.14062C116.947 5.42969 117.963 6.38281 119.384 6.375C120.759 6.38281 121.791 5.42969 121.791 4.14062C121.791 2.82031 120.759 1.89844 119.384 1.90625C117.963 1.89844 116.947 2.82031 116.947 4.14062ZM117.806 11.2031C117.798 9.53125 119.58 8.5625 122.463 8.5625C125.338 8.5625 127.119 9.53125 127.119 11.2031C127.119 12.8906 125.338 13.8594 122.463 13.8594C119.58 13.8594 117.798 12.8906 117.806 11.2031ZM119.009 11.2031C119.002 12.25 120.33 12.8828 122.463 12.875C124.595 12.8828 125.923 12.25 125.916 11.2031C125.923 10.1484 124.595 9.52344 122.463 9.51562C120.33 9.52344 119.002 10.1484 119.009 11.2031ZM122.783 3.01562C122.908 3.35938 122.978 3.73438 122.978 4.14062C122.978 4.53125 122.908 4.89844 122.791 5.23438H125.838V3.01562H122.783ZM136.581 2.1875C136.566 4.17188 137.98 5.91406 140.019 6.60938L139.331 7.5625C137.8 6.99219 136.597 5.85938 135.995 4.39844C135.402 6.0625 134.136 7.35156 132.456 7.98438L131.784 6.98438C133.925 6.23438 135.347 4.39062 135.363 2.23438V0.796875H136.581V2.1875ZM134.05 11.2656C134.042 9.59375 135.816 8.63281 138.706 8.64062C141.589 8.63281 143.363 9.59375 143.363 11.2656C143.363 12.9219 141.589 13.8594 138.706 13.8594C135.816 13.8594 134.042 12.9219 134.05 11.2656ZM135.269 11.2656C135.261 12.2734 136.573 12.8828 138.706 12.875C140.831 12.8828 142.144 12.2734 142.144 11.2656C142.144 10.2266 140.831 9.60938 138.706 9.60938C136.573 9.60938 135.261 10.2266 135.269 11.2656ZM138.988 4V2.98438H142.081V0H143.316V8.23438H142.081V4H138.988ZM152.531 1.54688V2.26562C152.523 3.36719 152.523 5.20312 152.125 7.78125L150.891 7.67188C151.273 5.34375 151.305 3.65625 151.297 2.54688H145.469V1.54688H152.531ZM144.688 9.8125C145.602 9.80469 146.617 9.79688 147.688 9.77344V5.51562H148.891V9.73438C150.43 9.67969 152.008 9.57812 153.453 9.40625L153.516 10.3281C150.594 10.7812 147.328 10.8438 144.844 10.8281L144.688 9.8125ZM154.328 13.8906V0H155.547V5.8125H157.797V6.875H155.547V13.8906H154.328ZM172.541 0.015625V10.1719H171.322V0.015625H172.541ZM161.4 4.39062C161.392 2.39062 162.962 0.992188 165.041 0.984375C167.119 0.992188 168.673 2.39062 168.681 4.39062C168.673 6.41406 167.119 7.82031 165.041 7.8125C162.962 7.82031 161.392 6.41406 161.4 4.39062ZM162.603 4.39062C162.587 5.77344 163.634 6.73438 165.041 6.73438C166.423 6.73438 167.478 5.77344 167.478 4.39062C167.478 3.03125 166.423 2.0625 165.041 2.0625C163.634 2.0625 162.587 3.03125 162.603 4.39062ZM163.572 13.5938V9.14062H164.791V12.5625H172.978V13.5938H163.572ZM185.616 0V8.28125H184.381V4.64062H181.584V3.625H184.381V0H185.616ZM174.163 7.17188C176.225 6.42969 177.694 4.54688 177.694 2.5625V2.04688H174.553V1.01562H182.038V2.04688H178.928V2.54688C178.928 4.35938 180.319 6.08594 182.35 6.78125L181.709 7.76562C180.155 7.20312 178.944 6.03125 178.342 4.60156C177.748 6.22656 176.459 7.52344 174.803 8.15625L174.163 7.17188ZM176.35 11.2969C176.342 9.66406 178.116 8.71094 181.006 8.71875C183.889 8.71094 185.663 9.66406 185.663 11.2969C185.663 12.9375 183.889 13.875 181.006 13.8906C178.116 13.875 176.342 12.9375 176.35 11.2969ZM177.569 11.2969C177.561 12.3047 178.873 12.9141 181.006 12.9062C183.131 12.9141 184.444 12.3047 184.444 11.2969C184.444 10.2812 183.131 9.67188 181.006 9.67188C178.873 9.67188 177.561 10.2812 177.569 11.2969Z" fill="black"/>
</svg>
