<svg width="245" height="136" viewBox="0 0 245 136" fill="none" xmlns="http://www.w3.org/2000/svg">
<path d="M40.0312 31.6406V35.8594H23.2031V40.1719H18.0469V35.8594H1.40625V31.6406H40.0312ZM3.42188 25.125C12.2578 24.1172 18.0234 19.5703 18.0469 14.9062V13.3125H23.3906V14.9062C23.3906 19.5234 29.1797 24.1172 38.0156 25.125L36.1875 29.1562C29.0859 28.2656 23.4609 25.1953 20.7188 20.9531C17.9766 25.2188 12.3281 28.2422 5.25 29.1562L3.42188 25.125ZM3.98438 51C12.6562 50.25 17.9062 46.6406 17.9062 42.8906V41.9062H23.25V42.8906C23.2734 46.7812 28.4062 50.25 37.1719 51L35.5781 54.9375C28.4766 54.2578 23.1328 51.8203 20.5781 48.2109C18 51.75 12.7266 54.2812 5.71875 54.9375L3.98438 51ZM57.1181 24.8438C57.0947 31.3828 61.0322 38.8359 67.7119 41.9531L64.8056 46.0781C60.0244 43.8281 56.4853 39.2812 54.5869 33.9844C52.665 39.7969 48.9619 44.7656 44.0869 47.1094L41.04 43.0312C47.79 39.8203 51.8916 31.8984 51.915 24.8438V21.2812H42.6806V16.9688H65.9775V21.2812H57.1181V24.8438ZM69.915 55.1719V12.7969H75.1181V29.2969H81.6338V33.6562H75.1181V55.1719H69.915ZM121.174 45.9375V50.25H82.455V45.9375H99.1425V39.0469H87.0488V25.1719H111.424V19.9219H86.955V15.7031H116.58V29.2969H92.2519V34.7812H117.564V39.0469H104.299V45.9375H121.174ZM172.129 45.7969V50.0625H133.41V45.7969H150.098V37.5469H137.676V15.6094H142.879V22.5469H162.519V15.6094H167.723V37.5469H155.254V45.7969H172.129ZM142.879 33.3281H162.519V26.7188H142.879V33.3281ZM208.247 24.7969V28.9219H178.903V14.3438H184.059V24.7969H208.247ZM173.887 37.9688V33.8438H212.606V37.9688H173.887ZM178.528 54.1875V41.7188H183.731V49.9688H208.528V54.1875H178.528ZM40.125 113.891V118.25H1.40625V113.891H18.0469V105.547H4.73438V101.422H10.6875V88.7656H4.59375V84.5469H36.75V88.7656H30.5625V101.422H36.6094V105.547H23.2031V113.891H40.125ZM15.8906 101.422H25.4062V88.7656H15.8906V101.422ZM63.8213 86.6094C63.8213 93.1484 70.2197 99.7344 79.1025 101.281L76.7588 105.641C69.6572 104.164 63.8447 99.8516 61.0791 94.1562C58.29 99.8047 52.4775 104.141 45.3994 105.641L43.1025 101.281C51.8447 99.6875 58.2666 93.125 58.29 86.6094V83.4688H63.8213V86.6094ZM41.9306 117.781V113.469H80.6494V117.781H41.9306ZM116.908 84.5469V88.3906C116.885 93.5234 116.955 99.4531 115.033 108.406L109.924 107.891C110.674 104.469 111.119 101.445 111.377 98.75L86.3925 100.156L85.6425 95.7031L111.682 94.7656C111.775 92.5625 111.799 90.5938 111.799 88.7656H86.955V84.5469H116.908ZM82.455 117.969V113.656H96.705V103.203H101.861V113.656H121.08V117.969H82.455ZM159.495 83.4688V87.1719H124.901V83.4688H139.667V80.2812H144.87V83.4688H159.495ZM122.979 105.219V101.469H139.667V99.1719C132.097 98.8438 128.183 97.1562 128.183 93.8281C128.183 90.1484 132.987 88.4609 142.245 88.4375C151.503 88.4609 156.331 90.1484 156.354 93.8281C156.331 97.1328 152.417 98.8438 144.87 99.1719V101.469H161.604V105.219H122.979ZM127.526 110.938V107.281H156.776V116.609H132.87V119.094H157.948V122.797H127.573V113.141H151.479V110.938H127.526ZM133.761 93.8281C133.761 95.2109 136.292 95.8906 142.245 95.8906C148.198 95.8906 150.823 95.2109 150.87 93.8281C150.823 92.4453 148.198 91.8359 142.245 91.8594C136.292 91.8359 133.761 92.4453 133.761 93.8281ZM198.801 80.7969V106.391H193.551V80.7969H198.801ZM165.988 103.25V84.0312H186.144V88.25H171.144V99.0312C179.512 99.0312 184.41 98.7266 189.894 97.625L190.363 101.891C184.433 103.039 179.16 103.25 169.598 103.25H165.988ZM169.973 114.922C169.973 109.719 175.457 106.648 184.457 106.672C193.316 106.648 198.894 109.719 198.894 114.922C198.894 120.102 193.316 123.148 184.457 123.172C175.457 123.148 169.973 120.102 169.973 114.922ZM175.223 114.922C175.223 117.594 178.504 119.07 184.457 119.047C190.363 119.07 193.762 117.594 193.785 114.922C193.762 112.156 190.363 110.773 184.457 110.75C178.504 110.773 175.223 112.156 175.223 114.922ZM225.919 86.6094C225.919 93.1484 232.317 99.7344 241.2 101.281L238.856 105.641C231.755 104.164 225.942 99.8516 223.177 94.1562C220.387 99.8047 214.575 104.141 207.497 105.641L205.2 101.281C213.942 99.6875 220.364 93.125 220.387 86.6094V83.4688H225.919V86.6094ZM204.028 117.781V113.469H242.747V117.781H204.028Z" fill="black"/>
</svg>
