<svg width="245" height="151" viewBox="0 0 245 151" fill="none" xmlns="http://www.w3.org/2000/svg">
<path d="M25.2344 78.7812C13.4375 78.7812 4.80469 71.8281 4.60938 62.0625H16.0156C16.2891 66.4766 20.3125 69.5234 25.2344 69.4844C31.0938 69.5234 35.2734 65.3828 35.2344 59.4844C35.2734 53.4688 31.0156 49.2891 25.0781 49.25C20.8203 49.25 17.8516 50.8516 16.1719 54.0156H5.54688L8.59375 21.4375H43.4375V31.0469H18.2812L16.7188 45.3438H17.1875C19.2578 42.5703 23.5547 40.5391 28.5156 40.5781C38.9062 40.5391 46.6406 48.3125 46.6406 59.1719C46.6406 70.6172 37.9688 78.7812 25.2344 78.7812ZM65.4688 72.2188L58.75 94.4844H50.4688L54.375 72.2188H65.4688ZM75.9375 78L99.7656 31.4375V31.0469H72.0312V21.4375H111.953V31.2031L88.125 78H75.9375ZM144.141 21.4375V78H132.344V32.6094H132.031L119.062 40.7344V30.3438L133.047 21.4375H144.141ZM179.141 78.7812C167.461 78.7422 156.289 71.75 156.328 51.0469C156.367 31.9453 165.469 20.6562 179.609 20.6562C190.977 20.6562 198.789 27.8438 199.922 37.1406H188.359C187.422 33.1953 184.18 30.7344 179.609 30.7344C171.914 30.7344 167.891 37.6484 167.812 48.7812H168.359C170.977 43.7422 176.562 40.8125 182.812 40.8125C193.008 40.8125 200.586 48.4297 200.547 59.0938C200.586 70.5781 191.914 78.8203 179.141 78.7812ZM168.984 59.4062C169.062 64.9531 173.281 69.5234 179.062 69.4844C184.883 69.5234 189.141 65.1094 189.141 59.4062C189.141 53.7422 184.961 49.3672 179.219 49.3281C173.438 49.3672 169.062 53.8984 168.984 59.4062Z" fill="white"/>
<path d="M216.039 60.8008V58.2031H231.379V60.8008H225.227V78H222.219V60.8008H216.039ZM239.637 58.2031H242.645V72.2305C242.631 76.0449 240.252 78.2734 236.602 78.2734C233.238 78.2734 230.723 76.3867 230.723 73.0234H233.703C233.73 74.6777 234.947 75.7031 236.684 75.7031C238.57 75.7031 239.623 74.5137 239.637 72.2305V58.2031Z" fill="white"/>
<path d="M84.5234 138.93V140.922H68.3125V138.93H75.168V137.211H77.6289V138.93H84.5234ZM68.9961 136.176C72.7852 135.951 74.5918 134.809 74.9434 133.578H69.875V131.605H75.168V130.082H77.6289V131.605H82.9609V133.578H77.8438C78.1855 134.809 80.002 135.951 83.8008 136.176L83.0586 138.07C79.7773 137.836 77.5117 136.889 76.3984 135.453C75.2754 136.889 73.0098 137.836 69.7578 138.07L68.9961 136.176ZM70.168 144.77C70.168 142.826 72.4824 141.752 76.3984 141.762C80.2949 141.752 82.5703 142.826 82.5898 144.77C82.5703 146.732 80.2949 147.807 76.3984 147.797C72.4824 147.807 70.168 146.732 70.168 144.77ZM72.707 144.77C72.6973 145.59 73.9082 145.961 76.3984 145.961C78.8301 145.961 80.0801 145.59 80.0898 144.77C80.0801 143.969 78.8301 143.598 76.3984 143.598C73.9082 143.598 72.6973 143.969 72.707 144.77ZM104.617 130.023V147.797H102.234V130.023H104.617ZM89.3633 137.719C89.3633 133.744 90.877 131.283 93.2305 131.293C95.3691 131.283 96.834 133.285 97.1074 136.605H98.5625V130.277H100.906V146.977H98.5625V138.578H97.127C96.9121 142.064 95.418 144.184 93.2305 144.184C90.877 144.184 89.3633 141.713 89.3633 137.719ZM91.668 137.719C91.6484 140.453 92.2344 141.801 93.2305 141.781C94.2559 141.801 94.8613 140.453 94.8516 137.719C94.8613 134.994 94.2559 133.637 93.2305 133.637C92.2344 133.637 91.6484 134.994 91.668 137.719ZM121.012 130.023V147.836H118.531V137.543H113.668V135.512H118.531V130.023H121.012ZM106.91 143.656V131.918H109.41V141.576C111.666 141.537 113.99 141.342 116.402 140.883L116.676 142.914C113.805 143.51 111.07 143.656 108.414 143.656H106.91ZM129.672 134.867C129.662 137.738 131.146 140.814 134.125 142.055L132.777 144.008C130.688 143.119 129.242 141.352 128.441 139.203C127.641 141.537 126.166 143.49 124.066 144.457L122.641 142.484C125.59 141.166 127.113 137.875 127.113 134.867V133.773H123.344V131.742H133.383V133.773H129.672V134.867ZM135.141 147.797V130.023H137.66V147.797H135.141ZM153.828 130.707V132.699H150.293C150.352 134.477 151.641 136.342 154.355 137.113L153.203 139.086C151.211 138.51 149.834 137.328 149.043 135.854C148.232 137.494 146.787 138.842 144.727 139.457L143.516 137.523C146.299 136.625 147.695 134.584 147.793 132.699H144.199V130.707H153.828ZM146.816 141.723V139.75H158.652V144.555H149.336V145.688H159.18V147.621H146.836V142.738H156.172V141.723H146.816ZM153.379 135.648V133.676H156.172V130.023H158.652V139.066H156.172V135.648H153.379ZM174.559 130.023V133.91H176.961V135.961H174.559V139.965H172.059V130.023H174.559ZM160.262 138.383C164.256 137.387 166.453 135.414 166.854 133.051H161.141V131.059H169.578C169.568 135.766 166.59 138.949 161.258 140.355L160.262 138.383ZM162.938 147.582V140.629H174.559V147.582H162.938ZM165.418 145.629H172.098V142.641H165.418V145.629Z" fill="white"/>
</svg>
