<svg width="145" height="201" viewBox="0 0 145 201" fill="none" xmlns="http://www.w3.org/2000/svg">
<path d="M72.2128 -0.00012207C31.7461 -0.00012207 0.0991011 31.2755 0.0991011 72.144V167.776C0.0991011 167.776 -1.16085 180.459 4.89186 189.31C9.1164 195.467 14.9468 199.867 21.37 200.09C25.9405 199.645 26.1875 193.983 26.1875 193.983V128.341C38.6388 138.379 54.5735 144.387 72.2128 144.387C112.63 144.387 144.376 113.037 144.376 72.1688C144.376 31.3003 112.63 -0.00012207 72.2128 -0.00012207ZM72.2375 119.144C46.6679 119.144 25.9405 98.0299 25.9405 71.9957C25.9405 45.9615 46.6432 24.8473 72.2375 24.8473C97.8318 24.8473 118.559 45.9615 118.559 71.9957C118.559 98.0299 97.8071 119.144 72.2375 119.144Z" fill="#00A5E5"/>
</svg>
