<svg width="87" height="14" viewBox="0 0 87 14" fill="none" xmlns="http://www.w3.org/2000/svg">
<path d="M0.015625 12.625L0 11.5938L3.85938 7.53125C5.19531 6.10938 5.83594 5.34375 5.84375 4.29688C5.83594 3.13281 4.86719 2.38281 3.59375 2.375C2.24219 2.38281 1.39844 3.23438 1.39062 4.5H0.0625C0.046875 2.5 1.59375 1.15625 3.64062 1.15625C5.69531 1.15625 7.14844 2.53906 7.15625 4.29688C7.14844 5.5625 6.5625 6.54688 4.5625 8.60938L1.96875 11.2812V11.375H7.35938V12.625H0.015625ZM12.3094 12.7812C9.80156 12.7812 8.34844 10.6719 8.35625 6.96875C8.34844 3.29688 9.81719 1.15625 12.3094 1.15625C14.7937 1.15625 16.2625 3.29688 16.2625 6.96875C16.2625 10.6719 14.8172 12.7812 12.3094 12.7812ZM9.71562 6.96875C9.72344 9.89844 10.6687 11.5312 12.3094 11.5312C13.9422 11.5312 14.8953 9.89844 14.8875 6.96875C14.8953 4.03906 13.9344 2.38281 12.3094 2.375C10.6844 2.38281 9.72344 4.03906 9.71562 6.96875ZM17.3375 12.625L17.3219 11.5938L21.1812 7.53125C22.5172 6.10938 23.1578 5.34375 23.1656 4.29688C23.1578 3.13281 22.1891 2.38281 20.9156 2.375C19.5641 2.38281 18.7203 3.23438 18.7125 4.5H17.3844C17.3687 2.5 18.9156 1.15625 20.9625 1.15625C23.0172 1.15625 24.4703 2.53906 24.4781 4.29688C24.4703 5.5625 23.8844 6.54688 21.8844 8.60938L19.2906 11.2812V11.375H24.6812V12.625H17.3375ZM29.6156 12.7812C27.5766 12.7812 26.0297 11.5234 25.9438 9.78125H27.3031C27.4047 10.7891 28.3891 11.5391 29.6156 11.5469C31.0844 11.5391 32.1469 10.4688 32.1469 9.04688C32.1469 7.57812 31.0453 6.49219 29.5219 6.48438C28.5688 6.46875 27.8266 6.76562 27.4125 7.5H26.0531L26.85 1.3125H32.975V2.5625H28.0219L27.6 5.875H27.7094C28.2172 5.48438 28.975 5.21875 29.7719 5.21875C31.9281 5.21875 33.5141 6.8125 33.5219 9.01562C33.5141 11.2031 31.8734 12.7812 29.6156 12.7812ZM35.2219 12.7188C34.675 12.7109 34.2062 12.2578 34.2219 11.7031C34.2062 11.1562 34.675 10.7031 35.2219 10.7031C35.7766 10.7031 36.2297 11.1562 36.2219 11.7031C36.2297 12.2578 35.7766 12.7109 35.2219 12.7188ZM44.4031 12.7812C41.8953 12.7812 40.4422 10.6719 40.45 6.96875C40.4422 3.29688 41.9109 1.15625 44.4031 1.15625C46.8875 1.15625 48.3563 3.29688 48.3563 6.96875C48.3563 10.6719 46.9109 12.7812 44.4031 12.7812ZM41.8094 6.96875C41.8172 9.89844 42.7625 11.5312 44.4031 11.5312C46.0359 11.5312 46.9891 9.89844 46.9813 6.96875C46.9891 4.03906 46.0281 2.38281 44.4031 2.375C42.7781 2.38281 41.8172 4.03906 41.8094 6.96875ZM53.3375 12.7812C51.0875 12.7812 49.4703 11.5781 49.4 9.78125H50.8219C50.9 10.8594 51.9703 11.5312 53.3219 11.5312C54.8141 11.5312 55.8922 10.7266 55.9 9.54688C55.8922 8.3125 54.9078 7.44531 53.15 7.4375H52.2281V6.20312H53.15C54.525 6.20312 55.4859 5.42969 55.4781 4.26562C55.4859 3.13281 54.6578 2.38281 53.3688 2.375C52.1578 2.38281 51.0563 3.04688 50.9938 4.15625H49.6344C49.7047 2.35938 51.3766 1.15625 53.3844 1.15625C55.5406 1.15625 56.8531 2.57031 56.8375 4.1875C56.8531 5.47656 56.1031 6.41406 54.9156 6.75V6.82812C56.3922 7.05469 57.2828 8.10938 57.275 9.54688C57.2828 11.4062 55.5953 12.7812 53.3375 12.7812ZM72.7062 0V13.8906H71.4719V0H72.7062ZM61.3937 10.2812C65.1516 8.5 67.0734 5.83594 67.3469 2.51562H62.0344V1.51562H68.5969C68.5812 5.50781 66.7219 9.04688 62.0656 11.2812L61.3937 10.2812ZM81.375 1.73438C81.3672 3.44531 83.6953 4.83594 86.1562 5.17188L85.6719 6.14062C83.4297 5.8125 81.3281 4.69531 80.5781 3.07031C79.8203 4.69531 77.7344 5.8125 75.4844 6.14062L75.0312 5.17188C77.4766 4.83594 79.7891 3.44531 79.7812 1.73438V1.70312H75.4062V0.703125H85.7812V1.70312H81.375V1.73438ZM74.2344 8.17188V7.15625H86.9531V8.17188H81.2969V11.0156H80.0781V8.17188H74.2344ZM75.8594 13.5938V9.625H77.0938V12.5625H85.5312V13.5938H75.8594Z" fill="black"/>
</svg>
