<svg width="172" height="18" viewBox="0 0 172 18" fill="none" xmlns="http://www.w3.org/2000/svg">
<path d="M16.2695 13.7109V15.8008H0V13.7109H6.83594V10.5078H1.34766V8.55469H3.73047V3.47656H1.26953V1.48438H14.9023V3.47656H12.4023V8.55469H14.8242V10.5078H9.31641V13.7109H16.2695ZM6.23047 8.55469H9.94141V3.47656H6.23047V8.55469ZM26.2406 2.34375C26.2309 4.95117 28.5453 7.73438 32.5688 8.41797L31.475 10.4883C28.3695 9.87305 26.0746 8.125 24.9223 5.84961C23.7504 8.10547 21.4457 9.86328 18.3695 10.4883L17.2953 8.41797C21.2504 7.71484 23.5648 4.92188 23.5844 2.34375V1.05469H26.2406V2.34375ZM16.8852 15.5859V13.5352H33.1547V15.5859H16.8852ZM48.3602 1.48438V3.06641C48.3504 5.20508 48.3895 7.72461 47.5594 11.5625L45.118 11.3086C45.4109 9.96094 45.5965 8.75977 45.7137 7.67578L35.3914 8.26172L35.0398 6.13281L45.8602 5.78125C45.909 4.94141 45.909 4.17969 45.9188 3.47656H35.6258V1.48438H48.3602ZM33.7703 15.7227V13.6914H39.5711V9.39453H42.0516V13.6914H49.9813V15.7227H33.7703ZM56.4172 1.19141C59.2395 1.18164 61.3293 2.99805 61.3391 5.54688C61.3293 8.10547 59.2395 9.91211 56.4172 9.92188C53.6145 9.91211 51.466 8.10547 51.4758 5.54688C51.466 2.99805 53.6145 1.18164 56.4172 1.19141ZM50.7336 12.1484C53.9074 12.1582 58.302 12.1191 62.1008 11.582L62.2961 13.3789C58.3508 14.1504 54.132 14.1797 51.0266 14.1797L50.7336 12.1484ZM53.9562 5.54688C53.9465 6.95312 55.0109 7.76367 56.4172 7.75391C57.8332 7.76367 58.9074 6.95312 58.9172 5.54688C58.9074 4.16016 57.8332 3.33984 56.4172 3.33984C55.0109 3.33984 53.9465 4.16016 53.9562 5.54688ZM63.1164 17.8125V0H65.5969V17.8125H63.1164ZM78.6445 4.84375C78.6348 7.71484 80.1191 10.791 83.0977 12.0312L81.75 13.9844C79.6602 13.0957 78.2148 11.3281 77.4141 9.17969C76.6133 11.5137 75.1387 13.4668 73.0391 14.4336L71.6133 12.4609C74.5625 11.1426 76.0859 7.85156 76.0859 4.84375V3.75H72.3164V1.71875H82.3555V3.75H78.6445V4.84375ZM84.1133 17.7734V0H86.6328V17.7734H84.1133ZM104.846 8.65234V10.6445H88.6352V8.65234H95.4906V6.28906H97.9516V8.65234H104.846ZM89.475 5.41016C93.4008 4.91211 95.4418 2.88086 95.4516 0.878906V0.292969H97.9906V0.878906C97.9809 2.95898 99.973 4.91211 103.987 5.41016L103.03 7.34375C100.022 6.89453 97.8148 5.63477 96.6918 3.85742C95.559 5.625 93.352 6.9043 90.3539 7.34375L89.475 5.41016ZM90.432 13.8281V11.8945H102.873V17.7734H100.393V13.8281H90.432ZM119.544 0V6.81641H122.063V8.86719H119.544V17.7344H117.044V0H119.544ZM105.325 12.7539C109.534 10.6445 111.8 7.8125 112.268 3.84766H106.341V1.81641H114.798C114.778 7.12891 112.708 11.7285 106.731 14.668L105.325 12.7539ZM136.82 4.45312V6.44531H124.456V0.273438H126.937V4.45312H136.82ZM122.405 10V7.96875H138.655V10H122.405ZM124.261 14.4141C124.261 12.3145 126.605 11.123 130.491 11.1133C134.349 11.123 136.663 12.3145 136.683 14.4141C136.663 16.5332 134.349 17.7148 130.491 17.7148C126.605 17.7148 124.261 16.5332 124.261 14.4141ZM126.8 14.4141C126.79 15.3418 128.03 15.8105 130.491 15.8203C132.904 15.8105 134.173 15.3418 134.183 14.4141C134.173 13.4668 132.904 13.0664 130.491 13.0469C128.03 13.0664 126.79 13.4668 126.8 14.4141ZM154.271 0.0195312V10.2539H151.791V8.51562H147.787V6.52344H151.791V4.82422H147.972C146.859 7.63672 144.33 9.58008 140.423 10.6445L139.447 8.67188C143.529 7.60742 145.541 5.64453 145.892 3.20312H140.404V1.21094H148.607C148.607 1.78711 148.568 2.34375 148.48 2.87109H151.791V0.0195312H154.271ZM142.279 14.0625C142.269 11.8652 144.701 10.4785 148.353 10.4688C151.957 10.4785 154.398 11.8652 154.408 14.0625C154.398 16.2891 151.957 17.6953 148.353 17.6953C144.701 17.6953 142.269 16.2891 142.279 14.0625ZM144.759 14.0625C144.759 15.166 146.097 15.7227 148.353 15.7227C150.56 15.7227 151.898 15.166 151.908 14.0625C151.898 12.9688 150.56 12.4023 148.353 12.4219C146.097 12.4023 144.759 12.9688 144.759 14.0625ZM161.137 0.957031C162.553 0.947266 163.793 1.47461 164.643 2.34375H168.676V0H171.156V10.4102H168.676V8.28125H164.623C163.773 9.14062 162.543 9.6582 161.137 9.64844C158.441 9.6582 156.391 7.82227 156.41 5.3125C156.391 2.77344 158.441 0.947266 161.137 0.957031ZM158.773 5.3125C158.764 6.67969 159.75 7.54883 161.137 7.53906C162.475 7.54883 163.451 6.67969 163.461 5.3125C163.451 3.89648 162.475 3.07617 161.137 3.08594C159.75 3.07617 158.764 3.89648 158.773 5.3125ZM158.969 14.2773C158.969 12.0703 161.322 10.7715 165.082 10.7812C168.842 10.7715 171.205 12.0703 171.215 14.2773C171.205 16.4844 168.842 17.7832 165.082 17.7734C161.322 17.7832 158.969 16.4844 158.969 14.2773ZM161.41 14.2773C161.41 15.3125 162.729 15.8398 165.082 15.8398C167.484 15.8398 168.764 15.3125 168.773 14.2773C168.764 13.2129 167.484 12.6855 165.082 12.6758C162.729 12.6855 161.41 13.2129 161.41 14.2773ZM165.707 4.31641C165.785 4.62891 165.824 4.9707 165.824 5.3125C165.824 5.6543 165.785 5.97656 165.717 6.28906H168.676V4.31641H165.707Z" fill="black"/>
</svg>
