<svg width="329" height="126" viewBox="0 0 329 126" fill="none" xmlns="http://www.w3.org/2000/svg">
<path d="M88.3796 123.3H23.2196C6.47961 123.3 -0.000389606 114.66 -0.000389606 100.8V24.8398C-0.000389606 10.9798 6.47961 2.1598 23.2196 2.1598H87.2996V25.7398H26.2796V50.9398H83.5196V74.5198H26.2796V99.7198H88.3796V123.3ZM153.004 125.64C131.224 125.64 113.764 116.46 106.024 99.1798L127.984 88.1998C131.944 97.0198 140.404 101.52 153.004 101.52C164.344 101.52 172.984 96.8398 172.984 88.1998C172.984 78.1198 163.444 76.4998 150.844 74.3398C132.664 71.2798 108.004 64.7998 108.004 37.4398C108.004 16.1998 127.084 -0.00020647 152.104 -0.00020647C172.084 -0.00020647 189.364 9.1798 197.104 26.4598L175.144 37.4398C171.184 29.6998 163.264 24.2998 151.024 24.2998C141.124 24.2998 134.284 28.9798 134.284 36.3598C134.284 46.0798 144.364 48.5998 157.504 50.9398C175.504 53.9998 199.264 60.4798 199.264 88.0198C199.264 109.8 178.744 125.64 153.004 125.64ZM276.556 125.82C241.096 125.82 213.736 97.7398 213.736 62.8198C213.736 27.8998 240.736 -0.00020647 276.556 -0.00020647C297.256 -0.00020647 317.776 10.4398 326.776 29.8798L305.356 41.9398C299.236 31.1398 289.876 24.6598 275.476 24.6598C255.136 24.6598 240.736 41.2198 240.736 63.1798C240.736 85.8598 255.316 101.88 276.556 101.88C288.436 101.88 297.076 98.8198 302.656 93.0598L302.476 66.2398H328.036V101.88C319.216 115.2 300.496 125.82 276.556 125.82Z" fill="#00A5E5"/>
</svg>
