<svg width="710" height="403" viewBox="0 0 710 403" fill="none" xmlns="http://www.w3.org/2000/svg">
<path d="M36.375 0.1875V42.1875H32.1094V20.6719H26.7188V40.0312H22.5469V1.03125H26.7188V17.0156H32.1094V0.1875H36.375ZM2.39062 31.5V5.15625H6.84375V27.5859C10.7109 27.5391 14.9531 27.2344 19.7344 26.2969L20.2031 30.1875C14.4375 31.2188 9.63281 31.5234 5.10938 31.5H2.39062ZM51.4125 1.59375C57.7406 1.64062 62.4047 5.50781 62.4281 11.0156C62.4047 16.5469 57.7406 20.3906 51.4125 20.3906C45.0141 20.3906 40.3734 16.5469 40.35 11.0156C40.3734 5.50781 45.0141 1.64062 51.4125 1.59375ZM44.7094 11.0156C44.6859 14.4844 47.5453 16.7812 51.4125 16.7812C55.2562 16.7812 58.1156 14.4844 58.1156 11.0156C58.1156 7.59375 55.2562 5.29688 51.4125 5.34375C47.5453 5.29688 44.6859 7.59375 44.7094 11.0156ZM46.725 27.0469V23.4844H74.3344V34.0781H51.1781V38.1094H75.7406V41.6719H46.8656V30.75H69.9281V27.0469H46.725ZM69.8812 21.5625V0.1875H74.3344V21.5625H69.8812ZM97.7156 0.890625C107.184 0.867188 112.692 3.42188 112.716 8.10938C112.692 12.8203 107.184 15.375 97.7156 15.375C88.2469 15.375 82.6922 12.8203 82.7156 8.10938C82.6922 3.42188 88.2469 0.867188 97.7156 0.890625ZM78.5906 21.5156V17.9531H116.887V21.5156H78.5906ZM83.1844 28.0781V24.75H112.059V34.5938H87.5906V38.3438H113.231V41.7656H83.2312V31.3594H107.653V28.0781H83.1844ZM87.3562 8.10938C87.3328 10.7109 91.0359 12.0469 97.7156 12.0469C104.442 12.0469 108.145 10.7109 108.122 8.10938C108.145 5.625 104.442 4.17188 97.7156 4.17188C91.0359 4.17188 87.3328 5.625 87.3562 8.10938ZM139.838 8.25C139.838 12.8438 142.767 17.4844 148.228 19.5469L145.884 22.9688C141.97 21.4688 139.228 18.6094 137.728 15.1641C136.181 19.0547 133.322 22.4297 129.244 24.1875L126.806 20.7188C132.478 18.2578 135.525 12.9141 135.525 8.25V2.8125H139.838V8.25ZM134.541 34.5C134.494 29.7188 139.955 26.8828 148.744 26.8594C157.509 26.8828 163.017 29.7188 163.041 34.5C163.017 39.2812 157.509 42.1172 148.744 42.0938C139.955 42.1172 134.494 39.2812 134.541 34.5ZM138.947 34.5C138.9 37.1719 142.627 38.7188 148.744 38.6719C154.838 38.7188 158.564 37.1719 158.588 34.5C158.564 31.8047 154.838 30.2578 148.744 30.2812C142.627 30.2578 138.9 31.8047 138.947 34.5ZM149.541 24.75V0.984375H153.666V11.1562H158.588V0.234375H162.806V26.0625H158.588V14.8125H153.666V24.75H149.541ZM199.078 0.1875V10.5469H205.172V14.2969H199.078V24.75H194.625V0.1875H199.078ZM165.844 20.9531C175.922 18.3047 181.898 12.9844 182.672 6.375H167.859V2.76562H187.453C187.43 13.5703 180.141 21.1641 167.672 24.375L165.844 20.9531ZM171.328 30.1875V26.5781H199.078V42.1875H194.625V30.1875H171.328ZM237.881 0.1875V17.2031H244.631V20.9062H237.881V42.1875H233.475V0.1875H237.881ZM204.928 10.4062V6.75H215.288V0.75H219.741V6.75H229.819V10.4062H204.928ZM207.084 23.25C207.084 17.5312 211.491 13.5 217.538 13.5C223.561 13.5 227.967 17.5312 227.991 23.25C227.967 29.0156 223.561 33.0234 217.538 33.0469C211.491 33.0234 207.084 29.0156 207.084 23.25ZM211.35 23.25C211.327 26.9062 213.952 29.3438 217.538 29.2969C221.1 29.3438 223.702 26.9062 223.725 23.25C223.702 19.6641 221.1 17.1797 217.538 17.1562C213.952 17.1797 211.327 19.6641 211.35 23.25ZM278.231 12.4688V16.0312H249.309V1.6875H253.716V12.4688H278.231ZM244.2 24.8906V21.3281H282.637V24.8906H244.2ZM248.981 41.2031V28.875H253.434V37.5469H278.512V41.2031H248.981ZM307.369 8.4375C307.369 12.7969 311.587 16.7344 318.009 18.1406L315.994 21.5625C311.002 20.3906 307.181 17.7188 305.259 14.1797C303.361 18.0703 299.541 21.0234 294.384 22.3594L292.416 18.8906C298.837 17.2734 302.962 13.125 302.962 8.4375V7.73438H293.822V4.17188H302.962V0H307.416V4.17188H316.509V7.73438H307.369V8.4375ZM300.15 27.4688V24H327.619V34.3594H304.697V38.2969H329.119V41.7656H300.244V31.0781H323.212V27.4688H300.15ZM315.291 14.0156V10.4531H323.212V0.1875H327.619V22.1719H323.212V14.0156H315.291ZM364.734 0.1875V10.7812H370.828V14.3906H364.734V25.125H360.281V0.1875H364.734ZM331.688 21.8438C341.531 19.0781 347.555 13.5938 348.375 6.79688H333.562V3.1875H353.203C353.203 14.0391 345.82 21.8906 333.516 25.4531L331.688 21.8438ZM337.406 33.8438C337.359 28.7344 342.891 25.5703 351.328 25.5938C359.789 25.5703 365.203 28.7344 365.203 33.8438C365.203 39 359.789 42.1172 351.328 42.1406C342.891 42.1172 337.359 39 337.406 33.8438ZM341.812 33.8438C341.789 36.7969 345.445 38.6016 351.328 38.625C357.164 38.6016 360.844 36.7969 360.844 33.8438C360.844 30.8906 357.164 29.0859 351.328 29.1094C345.445 29.0859 341.789 30.8906 341.812 33.8438ZM378.366 34.9688L374.616 47.9062H370.631L373.116 34.9688H378.366ZM22.4531 76.2188V103.828H2.76562V76.2188H22.4531ZM7.17188 100.219H18.1406V79.7344H7.17188V100.219ZM30.75 114.281V72.1875H35.2031V114.281H30.75ZM56.6625 76.5938V91.7812H45.1312V100.641C49.6781 100.617 53.9906 100.406 59.0531 99.6094L59.4281 103.172C53.5922 104.203 48.9047 104.344 43.6781 104.391H40.8187V88.125H52.35V80.25H40.7719V76.5938H56.6625ZM61.7719 112.031V73.0312H65.85V88.5469H71.2875V72.1875H75.5531V114.188H71.2875V92.1562H65.85V112.031H61.7719ZM126.347 105.234V108.938H87.9094V105.234H104.831V95.5312H92.3156V75.5625H121.753V95.5312H109.238V105.234H126.347ZM96.6281 92.0156H117.394V79.125H96.6281V92.0156ZM161.775 72.1875V94.0312H157.369V72.1875H161.775ZM129.197 92.3438V73.9219H133.556V79.6406H144.759V73.9219H149.166V92.3438H129.197ZM133.556 88.7812H144.759V83.0625H133.556V88.7812ZM134.213 99.5156V96.0469H161.822V106.359H138.666V110.297H163.228V113.766H134.353V103.125H157.416V99.5156H134.213ZM200.953 72.1875V114.281H196.5V72.1875H200.953ZM168.422 79.5938V75.9844H188.109V91.3125H173.016V100.5C179.836 100.477 185.766 100.148 192.797 99L193.219 102.656C185.789 103.898 179.461 104.18 172.031 104.203H168.469V87.75H183.562V79.5938H168.422ZM228.506 75.8906V79.5469H212.147V87.6562H226.913V91.2188H212.147V100.641C219.483 100.594 224.803 100.336 231.038 99.3281L231.506 102.938C224.85 104.016 219.084 104.227 211.163 104.25H207.741V75.8906H228.506ZM235.584 114.188V72.1875H240.084V114.188H235.584ZM282.637 91.4531V94.875H244.2V91.4531H282.637ZM248.747 101.016V97.8281H277.903V107.062H253.247V110.531H279.216V113.672H248.794V104.109H273.497V101.016H248.747ZM249.028 76.4062V73.2656H277.809V82.3594H253.528V85.5469H278.512V88.6875H249.122V79.4062H273.356V76.4062H249.028ZM325.65 72.2344V82.1719H331.744V85.7812H325.65V95.8594H321.197V72.2344H325.65ZM293.306 84.4688C293.259 78.5859 298.041 74.5312 304.462 74.5312C310.908 74.5312 315.619 78.5859 315.666 84.4688C315.619 90.3047 310.908 94.3359 304.462 94.3594C298.041 94.3359 293.259 90.3047 293.306 84.4688ZM297.666 84.4688C297.619 88.1719 300.525 90.6328 304.462 90.6562C308.4 90.6328 311.283 88.1719 311.306 84.4688C311.283 80.7188 308.4 78.2344 304.462 78.2812C300.525 78.2344 297.619 80.7188 297.666 84.4688ZM298.134 113.531V109.922H304.181V101.531H298.462V97.9688H326.634V101.531H321.056V109.922H327.197V113.531H298.134ZM308.494 109.922H316.697V101.531H308.494V109.922ZM364.781 72.1875V82.8281H370.828V86.4844H364.781V96.9844H360.281V72.1875H364.781ZM333.516 93.9375V75.2812H352.266V78.8906H337.922V90.3281C346.195 90.2812 350.859 90.0469 356.156 88.9688L356.578 92.5781C350.953 93.7266 345.938 93.9375 336.844 93.9375H333.516ZM337.078 105.938C337.078 100.805 342.516 97.8047 351.188 97.7812C359.766 97.8047 365.109 100.805 365.109 105.938C365.109 111.117 359.766 114.117 351.188 114.094C342.516 114.117 337.078 111.117 337.078 105.938ZM341.484 105.938C341.461 108.844 345.117 110.555 351.188 110.531C357.141 110.555 360.82 108.844 360.844 105.938C360.82 103.031 357.141 101.367 351.188 101.391C345.117 101.367 341.461 103.031 341.484 105.938ZM405.741 72.1875V114.188H401.241V72.1875H405.741ZM371.241 102.938C382.397 97.6172 387.858 90.0469 388.725 80.25H373.256V76.6875H393.225C393.225 88.9922 387.998 99.6328 373.584 106.547L371.241 102.938ZM443.888 84.4688V88.0312H414.966V73.6875H419.372V84.4688H443.888ZM409.856 96.8906V93.3281H448.294V96.8906H409.856ZM414.638 113.203V100.875H419.091V109.547H444.169V113.203H414.638ZM493.087 72.1875V114.281H488.634V72.1875H493.087ZM459.759 90.0469C459.759 81.0703 464.283 75.3516 470.634 75.3281C476.869 75.3516 481.462 81.0703 481.462 90.0469C481.462 99.1172 476.869 104.836 470.634 104.812C464.283 104.836 459.759 99.1172 459.759 90.0469ZM464.072 90.0469C464.048 96.7266 466.72 100.828 470.634 100.828C474.478 100.828 477.15 96.7266 477.15 90.0469C477.15 83.4609 474.478 79.3359 470.634 79.3125C466.72 79.3359 464.048 83.4609 464.072 90.0469ZM511.781 85.6875C511.781 92.1562 515.742 99 522 102L519.469 105.375C514.898 103.219 511.453 98.8359 509.672 93.7031C507.82 99.2578 504.164 103.898 499.359 106.125L496.875 102.703C503.273 99.7734 507.398 92.6016 507.422 85.6875V82.9219H498.141V79.3594H507.375V73.0312H511.875V79.3594H521.016V82.9219H511.781V85.6875ZM525.656 114.188V72.1875H530.109V89.1094H536.859V92.8594H530.109V114.188H525.656ZM571.491 72.2344V102.984H567.037V87.1875H559.022V83.5781H567.037V72.2344H571.491ZM536.522 94.2188C542.967 92.0391 546.998 86.5078 546.975 80.7188V79.0781H537.881V75.4219H560.522V79.0781H551.522V80.7188C551.498 85.9453 555.295 91.2188 561.647 93.3281L559.35 96.8906C554.639 95.25 551.147 91.875 549.319 87.7031C547.491 92.3438 543.811 96.0469 538.819 97.8281L536.522 94.2188ZM544.209 113.297V100.219H548.662V109.688H572.616V113.297H544.209ZM591.028 84.5625C591.005 91.5938 595.622 98.8594 602.091 101.625L599.653 105.094C594.708 102.914 590.77 98.2734 588.825 92.6719C586.88 98.6719 582.942 103.781 578.044 106.172L575.466 102.656C581.794 99.6797 586.481 91.8047 586.528 84.5625V80.1094H576.919V76.4062H600.591V80.1094H591.028V84.5625ZM605.888 114.188V72.1875H610.341V114.188H605.888ZM662.4 105.188V108.844H623.963V105.188H640.791V95.2031H645.197V105.188H662.4ZM625.275 92.2969C633.361 90.9375 640.58 84.7031 640.603 78.0469V74.8594H645.291V78.0469C645.291 84.7031 652.603 90.9375 660.713 92.2969L658.791 95.9531C651.97 94.6172 645.736 90.3984 642.97 84.6562C640.205 90.375 634.017 94.6172 627.244 95.9531L625.275 92.2969ZM699.328 72.1875V114.188H695.062V92.625H690.047V112.125H685.828V72.9844H690.047V88.875H695.062V72.1875H699.328ZM662.484 102.328C668.625 98.8828 671.484 91.6406 671.484 83.2969V80.5781H663.609V76.9688H683.109V80.5781H675.797V83.2969C675.797 90.8438 678.633 97.6875 684.75 100.828L682.125 104.25C678 102 675.234 98.0859 673.734 93.2578C672.305 98.7656 669.539 103.172 665.25 105.703L662.484 102.328ZM709.678 106.969L705.928 119.906H701.944L704.428 106.969H709.678ZM19.5469 146.719C28.5234 146.742 35.0625 151.172 35.0625 157.875C35.0625 164.156 29.5781 168.352 21.75 168.984V177.234H38.8594V180.938H0.421875V177.234H17.3438V168.984C9.5625 168.352 4.05469 164.156 4.07812 157.875C4.05469 151.172 10.6172 146.742 19.5469 146.719ZM8.39062 157.875C8.39062 162.586 13.0781 165.516 19.5469 165.562C26.0625 165.516 30.7266 162.586 30.75 157.875C30.7266 153.328 26.0625 150.328 19.5469 150.375C13.0781 150.328 8.39062 153.328 8.39062 157.875ZM51.1312 146.531C54.6234 146.531 57.6234 147.82 59.5922 150H70.0687V144.188H74.5219V168.188H70.0687V163.078H59.5922C57.6234 165.258 54.6234 166.547 51.1312 166.547C44.8031 166.547 40.0922 162.398 40.1156 156.562C40.0922 150.656 44.8031 146.531 51.1312 146.531ZM44.3812 156.562C44.3578 160.266 47.1937 162.773 51.1312 162.797C54.9516 162.773 57.7875 160.266 57.7875 156.562C57.7875 152.859 54.9516 150.258 51.1312 150.281C47.1937 150.258 44.3578 152.859 44.3812 156.562ZM46.8187 185.672V170.25H74.5219V185.672H46.8187ZM51.225 182.062H70.1625V173.812H51.225V182.062ZM61.6312 153.656C61.9125 154.57 62.0531 155.531 62.0531 156.562C62.0531 157.547 61.9125 158.484 61.6547 159.375H70.0687V153.656H61.6312ZM97.7156 144.891C107.184 144.867 112.692 147.422 112.716 152.109C112.692 156.82 107.184 159.375 97.7156 159.375C88.2469 159.375 82.6922 156.82 82.7156 152.109C82.6922 147.422 88.2469 144.867 97.7156 144.891ZM78.5906 165.516V161.953H116.887V165.516H78.5906ZM83.1844 172.078V168.75H112.059V178.594H87.5906V182.344H113.231V185.766H83.2312V175.359H107.653V172.078H83.1844ZM87.3562 152.109C87.3328 154.711 91.0359 156.047 97.7156 156.047C104.442 156.047 108.145 154.711 108.122 152.109C108.145 149.625 104.442 148.172 97.7156 148.172C91.0359 148.172 87.3328 149.625 87.3562 152.109ZM165.291 161.438V165H148.322V168.75H160.463V178.688H135.994V182.344H161.634V185.766H131.634V175.5H156.056V172.078H131.588V168.75H143.916V165H126.994V161.438H165.291ZM128.963 156.328C136.556 155.695 142.509 152.766 143.423 149.062H130.509V145.547H161.869V149.062H148.814C149.705 152.742 155.728 155.695 163.369 156.328L161.916 159.703C154.697 159.023 148.65 156.422 146.119 152.438C143.588 156.422 137.588 159.023 130.369 159.703L128.963 156.328ZM200.859 144.188V186.281H196.406V144.188H200.859ZM167.531 162.047C167.531 153.07 172.055 147.352 178.406 147.328C184.641 147.352 189.234 153.07 189.234 162.047C189.234 171.117 184.641 176.836 178.406 176.812C172.055 176.836 167.531 171.117 167.531 162.047ZM171.844 162.047C171.82 168.727 174.492 172.828 178.406 172.828C182.25 172.828 184.922 168.727 184.922 162.047C184.922 155.461 182.25 151.336 178.406 151.312C174.492 151.336 171.82 155.461 171.844 162.047ZM239.147 148.219V152.344C239.123 157.523 239.123 163.336 237.553 171.938L233.053 171.469C234.67 163.336 234.67 157.383 234.694 152.344V151.828H209.194V148.219H239.147ZM205.163 180.516V176.812H219.741V162H224.147V176.812H243.459V180.516H205.163ZM275.597 148.219V175.828H255.909V148.219H275.597ZM260.316 172.219H271.284V151.734H260.316V172.219ZM283.894 186.281V144.188H288.347V186.281H283.894ZM309.806 148.594V163.781H298.275V172.641C302.822 172.617 307.134 172.406 312.197 171.609L312.572 175.172C306.736 176.203 302.048 176.344 296.822 176.391H293.962V160.125H305.494V152.25H293.916V148.594H309.806ZM314.916 184.031V145.031H318.994V160.547H324.431V144.188H328.697V186.188H324.431V164.156H318.994V184.031H314.916ZM370.125 163.453V166.875H331.688V163.453H370.125ZM336.234 173.016V169.828H365.391V179.062H340.734V182.531H366.703V185.672H336.281V176.109H360.984V173.016H336.234ZM336.516 148.406V145.266H365.297V154.359H341.016V157.547H366V160.688H336.609V151.406H360.844V148.406H336.516ZM392.981 152.25C392.981 156.844 395.911 161.484 401.372 163.547L399.028 166.969C395.114 165.469 392.372 162.609 390.872 159.164C389.325 163.055 386.466 166.43 382.388 168.188L379.95 164.719C385.622 162.258 388.669 156.914 388.669 152.25V146.812H392.981V152.25ZM387.684 178.5C387.638 173.719 393.098 170.883 401.888 170.859C410.653 170.883 416.161 173.719 416.184 178.5C416.161 183.281 410.653 186.117 401.888 186.094C393.098 186.117 387.638 183.281 387.684 178.5ZM392.091 178.5C392.044 181.172 395.77 182.719 401.888 182.672C407.981 182.719 411.708 181.172 411.731 178.5C411.708 175.805 407.981 174.258 401.888 174.281C395.77 174.258 392.044 175.805 392.091 178.5ZM402.684 168.75V144.984H406.809V155.156H411.731V144.234H415.95V170.062H411.731V158.812H406.809V168.75H402.684ZM452.222 144.188V154.547H458.316V158.297H452.222V168.75H447.769V144.188H452.222ZM418.987 164.953C429.066 162.305 435.042 156.984 435.816 150.375H421.003V146.766H440.597C440.573 157.57 433.284 165.164 420.816 168.375L418.987 164.953ZM424.472 174.188V170.578H452.222V186.188H447.769V174.188H424.472ZM491.306 144.234V157.734H497.4V161.438H491.306V175.641H486.853V144.234H491.306ZM458.353 152.719V149.109H468.666V144.188H473.119V149.109H483.384V152.719H458.353ZM460.65 162.656C460.627 157.852 464.775 154.711 470.869 154.734C476.892 154.711 481.041 157.852 481.041 162.656C481.041 167.414 476.892 170.508 470.869 170.531C464.775 170.508 460.627 167.414 460.65 162.656ZM464.681 185.297V173.156H469.134V181.688H493.087V185.297H464.681ZM464.962 162.656C464.916 165.398 467.306 167.086 470.869 167.062C474.431 167.086 476.822 165.398 476.869 162.656C476.822 159.891 474.431 158.18 470.869 158.156C467.306 158.18 464.916 159.891 464.962 162.656ZM542.85 144.188V186.188H538.584V144.188H542.85ZM507.178 162.328C507.178 153.234 510.741 147.539 516.225 147.562C521.334 147.539 524.78 152.391 525.295 160.266H530.053V144.984H534.319V184.125H530.053V163.875H525.319C524.92 172.078 521.428 177.164 516.225 177.141C510.741 177.164 507.178 171.445 507.178 162.328ZM511.303 162.328C511.303 169.008 513.202 172.945 516.225 172.922C519.319 172.945 521.241 169.008 521.241 162.328C521.241 155.625 519.319 151.711 516.225 151.734C513.202 151.711 511.303 155.625 511.303 162.328ZM580.856 144.188V186.281H576.403V161.391H563.888V157.734H576.403V144.188H580.856ZM548.044 176.156V148.828H552.544V172.453C558.544 172.359 564.192 171.984 570.309 170.766L570.872 174.422C564.098 175.805 558.005 176.18 551.419 176.156H548.044ZM600.347 156.562C600.323 163.594 604.941 170.859 611.409 173.625L608.972 177.094C604.027 174.914 600.089 170.273 598.144 164.672C596.198 170.672 592.261 175.781 587.362 178.172L584.784 174.656C591.112 171.68 595.8 163.805 595.847 156.562V152.109H586.237V148.406H609.909V152.109H600.347V156.562ZM615.206 186.188V144.188H619.659V186.188H615.206ZM631.509 178.969L627.759 191.906H623.775L626.259 178.969H631.509ZM14.9531 221.016C14.9297 226.664 18.7266 231.539 25.2188 233.578L22.7812 237.047C18.1406 235.477 14.6953 232.336 12.8672 228.258C11.0391 232.945 7.33594 236.578 2.29688 238.359L0 234.797C6.63281 232.594 10.5234 227.203 10.5469 221.109V217.828H14.9531V221.016ZM3.9375 243.891V240.562H17.4844V250.5H8.34375V254.438C12.4688 254.414 15.0703 254.32 18.2812 253.688L18.7031 257.062C14.8594 257.812 11.8594 257.859 6.32812 257.859H4.03125V247.266H13.1719V243.891H3.9375ZM19.9219 257.859V240.562H33.4219V257.859H19.9219ZM23.8594 254.578H29.5312V243.891H23.8594V254.578ZM28.9688 238.547V216.188H33.4219V225.141H39.5156V228.797H33.4219V238.547H28.9688ZM58.6312 216.891C68.1 216.867 73.6078 219.422 73.6312 224.109C73.6078 228.82 68.1 231.375 58.6312 231.375C49.1625 231.375 43.6078 228.82 43.6312 224.109C43.6078 219.422 49.1625 216.867 58.6312 216.891ZM39.5062 237.516V233.953H77.8031V237.516H39.5062ZM44.1 244.078V240.75H72.975V250.594H48.5062V254.344H74.1469V257.766H44.1469V247.359H68.5687V244.078H44.1ZM48.2719 224.109C48.2484 226.711 51.9516 228.047 58.6312 228.047C65.3578 228.047 69.0609 226.711 69.0375 224.109C69.0609 221.625 65.3578 220.172 58.6312 220.172C51.9516 220.172 48.2484 221.625 48.2719 224.109ZM126.206 236.297V239.859H109.238V244.359H121.519V257.672H92.5031V244.359H104.831V239.859H87.9094V236.297H126.206ZM91.425 221.109V217.5H122.597V221.109H116.503V229.125H122.409V232.734H91.6125V229.125H97.5656V221.109H91.425ZM96.9094 254.062H117.206V247.875H96.9094V254.062ZM101.972 229.125H112.05V221.109H101.972V229.125ZM165.291 238.125V241.688H126.994V238.125H165.291ZM131.119 225.984C131.095 220.711 136.978 217.57 146.119 217.594C155.213 217.57 161.095 220.711 161.119 225.984C161.095 231.281 155.213 234.492 146.119 234.516C136.978 234.492 131.095 231.281 131.119 225.984ZM131.822 257.297V245.109H136.322V253.688H160.978V257.297H131.822ZM135.713 225.984C135.689 229.102 139.673 230.859 146.119 230.859C152.541 230.859 156.548 229.102 156.525 225.984C156.548 222.984 152.541 221.156 146.119 221.156C139.673 221.156 135.689 222.984 135.713 225.984ZM210.225 216.234V246.75H205.772V216.234H210.225ZM176.241 229.453C176.264 223.383 181.092 219.07 187.444 219.047C193.772 219.07 198.6 223.383 198.6 229.453C198.6 235.617 193.772 239.906 187.444 239.906C181.092 239.906 176.264 235.617 176.241 229.453ZM180.6 229.453C180.577 233.414 183.53 236.016 187.444 236.016C191.288 236.016 194.241 233.414 194.241 229.453C194.241 225.586 191.288 222.938 187.444 222.938C183.53 222.938 180.577 225.586 180.6 229.453ZM182.756 257.297V243.656H187.256V253.688H211.491V257.297H182.756ZM252.919 249.188V252.938H214.481V249.188H252.919ZM217.762 223.875V220.219H249.403V223.875H242.981V237.891H249.262V241.453H217.856V237.891H224.137V223.875H217.762ZM228.544 237.891H238.622V223.875H228.544V237.891ZM286.284 216.188V232.594H293.034V236.344H286.284V258.281H281.878V216.188H286.284ZM255.206 223.594V219.984H274.425V235.406H259.706V244.5C266.902 244.477 272.269 244.219 278.409 243.094L278.831 246.703C272.269 247.922 266.597 248.203 258.722 248.25H255.3V231.797H270.019V223.594H255.206ZM326.025 216.188V233.25H332.119V236.906H326.025V258.188H321.572V216.188H326.025ZM292.275 246.375C298.416 239.977 300.642 232.758 301.087 224.344H293.775V220.688H305.306C305.283 231.188 303.408 240.75 295.791 248.859L292.275 246.375ZM304.275 249.188C310.533 241.875 312.361 233.297 312.689 224.344H306.666V220.688H316.884C316.884 231.305 315.548 242.508 307.837 251.625L304.275 249.188ZM347.203 228.562C347.18 235.594 351.797 242.859 358.266 245.625L355.828 249.094C350.883 246.914 346.945 242.273 345 236.672C343.055 242.672 339.117 247.781 334.219 250.172L331.641 246.656C337.969 243.68 342.656 235.805 342.703 228.562V224.109H333.094V220.406H356.766V224.109H347.203V228.562ZM362.062 258.188V216.188H366.516V258.188H362.062ZM375.6 254.531C373.772 254.508 372.248 253.031 372.272 251.203C372.248 249.375 373.772 247.875 375.6 247.875C377.405 247.875 378.905 249.375 378.928 251.203C378.905 253.031 377.405 254.508 375.6 254.531ZM38.8125 312.047V315.75H21.6562V330.188H17.2969V315.75H0.375V312.047H38.8125ZM4.54688 299.109C4.57031 293.391 10.6172 289.781 19.5 289.781C28.3828 289.781 34.4766 293.391 34.4531 299.109C34.4766 304.758 28.3828 308.344 19.5 308.344C10.6172 308.344 4.57031 304.758 4.54688 299.109ZM9.14062 299.109C9.11719 302.602 13.2656 304.781 19.5 304.781C25.7578 304.781 29.8828 302.602 29.9062 299.109C29.8828 295.57 25.7578 293.367 19.5 293.344C13.2656 293.367 9.11719 295.57 9.14062 299.109ZM74.3812 288.188V330.281H69.9281V288.188H74.3812ZM41.85 295.594V291.984H61.5375V307.312H46.4437V316.5C53.2641 316.477 59.1937 316.148 66.225 315L66.6469 318.656C59.2172 319.898 52.8891 320.18 45.4594 320.203H41.8969V303.75H56.9906V295.594H41.85ZM112.575 300.469V304.031H83.6531V289.688H88.0594V300.469H112.575ZM78.5437 312.891V309.328H116.981V312.891H78.5437ZM83.325 329.203V316.875H87.7781V325.547H112.856V329.203H83.325ZM159.713 288.188V304.922H166.228V308.625H159.713V330.141H155.259V288.188H159.713ZM127.041 318.938C137.564 313.688 143.283 306.094 144.197 296.297H129.15V292.594H148.744C148.697 304.734 143.353 315.586 129.525 322.406L127.041 318.938ZM200.016 299.531V303.141H171.188V288.938H175.594V299.531H200.016ZM166.078 311.25V307.594H204.422V311.25H166.078ZM170.625 322.312C170.625 317.414 176.086 314.648 185.203 314.672C194.25 314.648 199.664 317.414 199.688 322.312C199.664 327.234 194.25 330 185.203 330C176.086 330 170.625 327.234 170.625 322.312ZM175.125 322.312C175.102 325.008 178.781 326.555 185.203 326.578C191.531 326.555 195.234 325.008 195.234 322.312C195.234 319.594 191.531 318.164 185.203 318.141C178.781 318.164 175.102 319.594 175.125 322.312ZM220.069 294.469C220.045 300.352 223.866 305.602 230.241 307.688L227.803 311.156C223.186 309.469 219.788 306.234 217.959 302.016C216.155 306.82 212.498 310.594 207.413 312.422L205.022 308.859C211.725 306.562 215.616 300.961 215.663 294.656V290.531H220.069V294.469ZM211.913 322.172C211.889 317.086 217.28 314.133 226.116 314.156C234.905 314.133 240.295 317.086 240.319 322.172C240.295 327.234 234.905 330.117 226.116 330.094C217.28 330.117 211.889 327.234 211.913 322.172ZM216.319 322.172C216.295 324.961 219.952 326.602 226.116 326.578C232.233 326.602 235.889 324.961 235.913 322.172C235.889 319.289 232.233 317.625 226.116 317.625C219.952 317.625 216.295 319.289 216.319 322.172ZM226.866 300.375V296.719H235.725V288.188H240.178V312.984H235.725V300.375H226.866ZM257.934 291.188C264.567 291.164 269.348 295.266 269.372 301.172C269.348 307.078 264.567 311.18 257.934 311.203C251.325 311.18 246.473 307.078 246.497 301.172C246.473 295.266 251.325 291.164 257.934 291.188ZM244.481 317.531C252.122 317.531 262.716 317.461 271.903 316.125L272.231 319.359C262.739 321.188 252.544 321.234 245.044 321.234L244.481 317.531ZM250.903 301.172C250.856 304.898 253.856 307.312 257.934 307.312C262.012 307.312 265.012 304.898 265.012 301.172C265.012 297.492 262.012 295.031 257.934 295.031C253.856 295.031 250.856 297.492 250.903 301.172ZM274.528 330.281V288.188H278.981V330.281H274.528ZM327.666 288.234V313.078H323.212V307.969H312.619V304.312H323.212V299.203H313.064C310.345 305.953 304.041 310.711 294.947 313.312L293.166 309.844C303.103 307.008 308.916 301.664 309.712 294.891H295.322V291.234H314.541C314.541 292.781 314.377 294.281 314.095 295.688H323.212V288.234H327.666ZM299.681 321.75C299.681 316.664 305.212 313.57 313.837 313.547C322.345 313.57 327.923 316.664 327.947 321.75C327.923 326.859 322.345 330 313.837 330C305.212 330 299.681 326.859 299.681 321.75ZM304.087 321.75C304.087 324.703 307.837 326.414 313.837 326.438C319.72 326.414 323.47 324.703 323.494 321.75C323.47 318.75 319.72 317.039 313.837 317.062C307.837 317.039 304.087 318.75 304.087 321.75ZM367.828 288.188V330.188H363.609V288.188H367.828ZM331.5 318.047C340.43 312.75 344.695 305.695 345.469 297.047H333.562V293.391H349.875C349.875 295.547 349.711 297.633 349.383 299.672H355.031V289.266H359.25V328.125H355.031V313.828H347.859V310.172H355.031V303.328H348.562C346.523 310.383 342.047 316.523 334.125 321.234L331.5 318.047ZM409.209 307.453V310.875H370.772V307.453H409.209ZM375.319 317.016V313.828H404.475V323.062H379.819V326.531H405.788V329.672H375.366V320.109H400.069V317.016H375.319ZM375.6 292.406V289.266H404.381V298.359H380.1V301.547H405.084V304.688H375.694V295.406H399.928V292.406H375.6ZM426.112 290.203V304.875C432.159 304.852 437.691 304.477 443.691 303.281L444.3 306.938C437.597 308.273 431.714 308.578 424.987 308.578H421.706V290.203H426.112ZM424.237 315.797V312.422H438.066V322.359H428.691V326.297C432.933 326.273 435.558 326.156 438.862 325.594L439.284 328.969C435.394 329.648 432.347 329.742 426.628 329.719H424.331V319.172H433.8V315.797H424.237ZM438.253 298.453V294.844H449.784V288.188H454.237V310.453H449.784V298.453H438.253ZM440.456 329.719V311.953H444.534V317.109H450.206V311.953H454.237V329.719H440.456ZM444.534 326.203H450.206V320.531H444.534V326.203ZM483.009 294.75V298.406H458.353V294.75H468.478V288.703H473.025V294.75H483.009ZM460.837 311.25C460.837 305.531 465.009 301.5 470.775 301.5C476.447 301.5 480.666 305.531 480.712 311.25C480.666 316.969 476.447 321.023 470.775 321.047C465.009 321.023 460.837 316.969 460.837 311.25ZM464.869 311.25C464.845 314.836 467.33 317.25 470.775 317.203C474.173 317.25 476.658 314.836 476.681 311.25C476.658 307.734 474.173 305.297 470.775 305.25C467.33 305.297 464.845 307.734 464.869 311.25ZM482.259 305.766V302.109H488.916V288.188H493.322V330.188H488.916V316.172H482.306V312.562H488.916V305.766H482.259ZM504.938 322.969L501.188 335.906H497.203L499.688 322.969H504.938ZM21.75 364.078V367.781H6.98438V388.266C14.0391 388.219 18.8438 387.961 24.375 386.906L24.8906 390.562C18.8438 391.711 13.7344 391.969 5.8125 391.969H2.48438V364.078H21.75ZM19.3594 378.891V375.188H31.0312V360.188H35.4844V402.281H31.0312V378.891H19.3594ZM88.0594 376.688V380.344H81.5438V402.141H77.0906V360.188H81.5438V376.688H88.0594ZM50.4188 391.594V364.266H54.825V387.891C60.6844 387.867 66.8016 387.375 73.4813 386.016L73.9969 389.766C66.8016 391.195 60.1922 391.617 53.8875 391.594H50.4188ZM126.206 382.125V385.688H87.9094V382.125H126.206ZM92.0344 369.984C92.0109 364.711 97.8938 361.57 107.034 361.594C116.128 361.57 122.011 364.711 122.034 369.984C122.011 375.281 116.128 378.492 107.034 378.516C97.8938 378.492 92.0109 375.281 92.0344 369.984ZM92.7375 401.297V389.109H97.2375V397.688H121.894V401.297H92.7375ZM96.6281 369.984C96.6047 373.102 100.589 374.859 107.034 374.859C113.456 374.859 117.464 373.102 117.441 369.984C117.464 366.984 113.456 365.156 107.034 365.156C100.589 365.156 96.6047 366.984 96.6281 369.984ZM149.109 371.672C149.109 378.375 151.922 385.523 157.547 388.969L155.062 392.391C151.125 390.023 148.477 385.828 147.023 380.977C145.5 386.297 142.594 390.844 138.516 393.328L135.75 390C141.68 386.438 144.82 379.008 144.797 371.859V364.031H149.109V371.672ZM153 378.656V374.953H159.516V360.984H163.734V400.125H159.516V378.656H153ZM168.188 402.188V360.188H172.453V402.188H168.188ZM189.881 366.891C189.858 372.398 193.748 377.531 200.006 379.594L197.616 383.109C193.022 381.492 189.577 378.211 187.748 374.062C185.92 378.773 182.358 382.477 177.459 384.281L175.069 380.719C181.631 378.398 185.428 372.797 185.475 366.516V362.391H189.881V366.891ZM180.741 394.312C180.741 389.391 186.108 386.508 194.85 386.531C203.475 386.508 208.772 389.391 208.772 394.312C208.772 399.281 203.475 402.117 194.85 402.094C186.108 402.117 180.741 399.281 180.741 394.312ZM185.194 394.312C185.17 397.078 188.78 398.578 194.85 398.625C200.873 398.578 204.436 397.078 204.413 394.312C204.436 391.641 200.873 390.047 194.85 390.047C188.78 390.047 185.17 391.641 185.194 394.312ZM203.944 385.547V360.188H208.397V370.734H214.491V374.484H208.397V385.547H203.944ZM233.606 360.891C243.075 360.867 248.583 363.422 248.606 368.109C248.583 372.82 243.075 375.375 233.606 375.375C224.137 375.375 218.583 372.82 218.606 368.109C218.583 363.422 224.137 360.867 233.606 360.891ZM214.481 381.516V377.953H252.778V381.516H214.481ZM219.075 388.078V384.75H247.95V394.594H223.481V398.344H249.122V401.766H219.122V391.359H243.544V388.078H219.075ZM223.247 368.109C223.223 370.711 226.927 372.047 233.606 372.047C240.333 372.047 244.036 370.711 244.012 368.109C244.036 365.625 240.333 364.172 233.606 364.172C226.927 364.172 223.223 365.625 223.247 368.109ZM301.837 367.125V370.781H295.884V376.078H301.837V379.734H295.884V387.141H291.431V360.188H295.884V367.125H301.837ZM262.931 368.203V364.688H273.244V359.859H277.697V364.688H287.962V368.203H262.931ZM265.228 377.625C265.205 373.102 269.33 370.148 275.447 370.125C281.494 370.148 285.619 373.102 285.619 377.625C285.619 382.125 281.494 385.055 275.447 385.031C269.33 385.055 265.205 382.125 265.228 377.625ZM268.556 394.828C268.509 390.188 273.806 387.469 282.478 387.469C291.033 387.469 296.353 390.188 296.353 394.828C296.353 399.398 291.033 402.117 282.478 402.094C273.806 402.117 268.509 399.398 268.556 394.828ZM269.541 377.625C269.494 380.109 271.884 381.656 275.447 381.656C279.009 381.656 281.4 380.109 281.447 377.625C281.4 375.07 279.009 373.453 275.447 373.453C271.884 373.453 269.494 375.07 269.541 377.625ZM272.962 394.828C272.939 397.289 276.431 398.719 282.478 398.719C288.431 398.719 291.923 397.289 291.947 394.828C291.923 392.273 288.431 390.914 282.478 390.891C276.431 390.914 272.939 392.273 272.962 394.828ZM322.734 367.125V370.734H301.875V367.125H310.125V361.406H314.531V367.125H322.734ZM303.234 382.922C303.211 377.273 307.055 373.266 312.328 373.266C317.648 373.266 321.445 377.273 321.469 382.922C321.445 388.664 317.648 392.695 312.328 392.672C307.055 392.695 303.211 388.664 303.234 382.922ZM307.172 382.922C307.148 386.484 309.305 388.875 312.328 388.875C315.352 388.875 317.531 386.484 317.531 382.922C317.531 379.43 315.352 376.992 312.328 376.969C309.305 376.992 307.148 379.43 307.172 382.922ZM324.656 400.219V361.125H328.875V377.672H333.703V360.188H337.922V402.188H333.703V381.328H328.875V400.219H324.656ZM389.606 376.688V380.344H383.091V402.141H378.638V360.188H383.091V376.688H389.606ZM351.966 391.594V364.266H356.372V387.891C362.231 387.867 368.348 387.375 375.028 386.016L375.544 389.766C368.348 391.195 361.739 391.617 355.434 391.594H351.966ZM400.706 363.328C406.987 363.352 411.464 369.07 411.487 378.047C411.464 387.117 406.987 392.836 400.706 392.812C394.425 392.836 389.948 387.117 389.972 378.047C389.948 369.07 394.425 363.352 400.706 363.328ZM394.237 378.047C394.214 384.727 396.886 388.828 400.706 388.828C404.597 388.828 407.222 384.727 407.222 378.047C407.222 371.461 404.597 367.336 400.706 367.312C396.886 367.336 394.214 371.461 394.237 378.047ZM417.722 402.188V360.188H422.175V376.641H428.925V380.391H422.175V402.188H417.722ZM461.541 360.188V369.891H467.634V373.547H461.541V382.922H457.041V360.188H461.541ZM428.541 379.828C438.736 377.484 444.408 372.469 445.111 366.234H430.509V362.672H450.009C450.033 373.359 442.72 380.461 430.181 383.438L428.541 379.828ZM434.541 401.672V384.75H438.994V389.672H457.087V384.75H461.541V401.672H434.541ZM438.994 398.016H457.087V393.188H438.994V398.016ZM502.5 360.188V402.188H498.047V360.188H502.5ZM470.203 391.5V364.266H474.609V387.656C480.75 387.633 487.195 387.094 493.922 385.734L494.531 389.484C487.102 391.008 480.352 391.523 473.719 391.5H470.203ZM539.428 360.188V376.453H546.178V380.109H539.428V402.281H534.975V360.188H539.428ZM508.491 391.828V364.219H528.131V367.828H512.944V388.125C519.998 388.102 525.272 387.797 531.272 386.719L531.834 390.469C525.248 391.641 519.67 391.852 511.866 391.828H508.491ZM550.575 398.531C548.747 398.508 547.223 397.031 547.247 395.203C547.223 393.375 548.747 391.875 550.575 391.875C552.38 391.875 553.88 393.375 553.903 395.203C553.88 397.031 552.38 398.508 550.575 398.531Z" fill="white"/>
</svg>
