<svg width="61" height="32" viewBox="0 0 61 32" fill="none" xmlns="http://www.w3.org/2000/svg">
<path d="M11.6367 6.43359C11.6191 9.47461 14.4492 12.4102 19.4414 13.4648L17.7188 16.418C13.9395 15.5918 11.2148 13.6934 9.73828 11.1621C8.31445 13.9395 5.55469 16.0488 1.6875 16.9805L0 13.9922C4.97461 12.7793 7.73438 9.7207 7.73438 6.43359V6.11719H1.08984V2.98828H7.73438V0H11.6719V2.98828H18.2812V6.11719H11.6367V6.43359ZM5.87109 20.9883V17.9648H26.8242V26.1562H9.80859V28.6172H27.8438V31.6406H5.90625V23.2734H22.9219V20.9883H5.87109ZM17.4023 10.8633V7.73438H22.9219V0.140625H26.8242V16.6992H22.9219V10.8633H17.4023ZM55.6706 0.140625V7.875H60.1003V11.0742H55.6706V18.7734H51.7683V0.140625H55.6706ZM30.4988 16.1016C37.6882 14.1328 41.9773 10.248 42.6452 5.48438H31.9402V2.32031H46.8816C46.8991 10.6699 41.4499 16.6113 32.0456 19.2656L30.4988 16.1016ZM34.7878 25.5234C34.7527 21.6035 39.0066 19.1602 45.405 19.1602C51.8562 19.1602 56.0222 21.6035 56.0222 25.5234C56.0222 29.4785 51.8562 31.9043 45.405 31.8867C39.0066 31.9043 34.7527 29.4785 34.7878 25.5234ZM38.655 25.5234C38.6374 27.5977 41.2038 28.8281 45.405 28.8281C49.5886 28.8281 52.1726 27.5977 52.1902 25.5234C52.1726 23.4316 49.5886 22.2188 45.405 22.2188C41.2038 22.2188 38.6374 23.4316 38.655 25.5234Z" fill="white"/>
</svg>
