<svg width="316" height="34" viewBox="0 0 316 34" fill="none" xmlns="http://www.w3.org/2000/svg">
<path d="M21.6045 32.7803H5.67647C1.58447 32.7803 0.000468999 30.6683 0.000468999 27.2803V8.71227C0.000468999 5.32427 1.58447 3.16827 5.67647 3.16827H21.3405V8.93227H6.42447V15.0923H20.4165V20.8563H6.42447V27.0163H21.6045V32.7803ZM37.9295 16.4563C34.4095 16.4563 32.8255 19.3163 32.8255 22.6603V32.7803H26.5775V21.9123C26.5775 15.5763 30.3175 10.3843 37.9295 10.3843C45.5415 10.3843 49.3695 15.5323 49.3695 21.9123V32.7803H43.1215V22.6603C43.1215 19.3163 41.4935 16.4563 37.9295 16.4563ZM58.1726 29.1723L51.5286 11.0003H58.1726L63.8926 27.2363L69.5686 11.0003H76.2126L69.4806 29.1723C68.4246 31.9883 66.5326 33.3963 63.8486 33.3963C61.2086 33.3963 59.1846 31.9883 58.1726 29.1723ZM63.8486 27.4123C63.8926 27.4123 63.8926 27.4123 63.8926 27.4123H63.8486ZM83.0893 7.74427C80.9773 7.74427 79.2173 6.02827 79.2173 3.87227C79.2173 1.76027 80.9773 0.000270605 83.0893 0.000270605C85.2013 0.000270605 86.9173 1.76027 86.9173 3.87227C86.9173 6.02827 85.2013 7.74427 83.0893 7.74427ZM79.9653 11.0003H86.2133V32.7803H79.9653V11.0003ZM98.5677 32.7803H92.3197V20.2843C92.3197 14.6963 95.4877 10.4283 101.956 10.4283C103.364 10.4283 104.904 10.6923 106.004 11.1763V17.2483C104.948 16.6323 103.672 16.3243 102.528 16.3243C100.064 16.3243 98.5677 17.9083 98.5677 20.5043V32.7803ZM119.77 33.3523C113.082 33.3523 107.978 28.1603 107.978 21.8243C107.978 15.5323 113.126 10.3403 119.77 10.3403C126.502 10.3403 131.606 15.5763 131.606 21.8243C131.606 28.1603 126.458 33.3523 119.77 33.3523ZM119.77 27.5003C122.982 27.5003 125.358 24.9483 125.358 21.8683C125.358 18.7883 122.982 16.2363 119.77 16.2363C116.558 16.2363 114.226 18.7883 114.226 21.8683C114.226 24.9483 116.558 27.5003 119.77 27.5003ZM147.113 16.4563C143.593 16.4563 142.009 19.3163 142.009 22.6603V32.7803H135.761V21.9123C135.761 15.5763 139.501 10.3843 147.113 10.3843C154.725 10.3843 158.553 15.5323 158.553 21.9123V32.7803H152.305V22.6603C152.305 19.3163 150.677 16.4563 147.113 16.4563ZM191.233 10.2083C198.317 10.2083 201.925 15.3123 201.925 21.3843V32.7803H195.677V22.4403C195.677 19.0963 194.225 16.2803 190.793 16.2803C187.405 16.2803 185.953 19.0523 185.953 22.3523V32.7803H179.705V22.3963C179.705 19.0523 178.253 16.2803 174.865 16.2803C171.389 16.2803 170.025 19.0963 170.025 22.3963V32.7803H163.777V21.3843C163.777 15.3123 167.341 10.2083 174.381 10.2083C178.561 10.2083 181.597 12.0563 182.873 15.0483C184.237 12.0563 187.317 10.2083 191.233 10.2083ZM217.955 33.3523C211.179 33.3523 206.075 28.6443 206.075 21.6923C206.075 15.4003 210.651 10.2083 217.383 10.2083C224.291 10.2083 228.295 15.3123 228.295 21.2523V23.1003H212.103C212.543 26.0043 214.787 27.9403 217.911 27.9403C220.287 27.9403 222.267 26.7963 223.279 24.7723L228.075 27.1923C226.183 31.1083 222.575 33.3523 217.955 33.3523ZM212.367 19.6243H222.091C221.827 17.3803 219.979 15.6643 217.339 15.6643C214.611 15.6643 212.807 17.4243 212.367 19.6243ZM244.222 16.4563C240.702 16.4563 239.118 19.3163 239.118 22.6603V32.7803H232.87V21.9123C232.87 15.5763 236.61 10.3843 244.222 10.3843C251.834 10.3843 255.662 15.5323 255.662 21.9123V32.7803H249.414V22.6603C249.414 19.3163 247.786 16.4563 244.222 16.4563ZM272.106 33.3963C265.814 33.3963 262.69 29.6123 262.69 24.1563V16.2803H258.686V11.0003H262.69V5.45627H268.938V11.0003H276.638V16.2803H268.938V23.9803C268.938 26.4003 270.39 27.8083 272.678 27.8083C273.954 27.8083 275.582 27.4123 276.638 26.7523V32.3403C275.538 33.0443 273.646 33.3963 272.106 33.3963ZM290.59 33.3523C284.254 33.3523 279.81 28.1603 279.81 21.8243C279.81 15.5763 284.914 10.3403 291.602 10.3403C298.422 10.3403 303.438 15.2683 303.438 21.8243V32.7803H297.498V30.2283C295.958 32.1643 293.582 33.3523 290.59 33.3523ZM291.602 27.5003C294.814 27.5003 297.19 24.9483 297.19 21.8683C297.19 18.7883 294.814 16.2363 291.602 16.2363C288.39 16.2363 286.058 18.7883 286.058 21.8683C286.058 24.9483 288.39 27.5003 291.602 27.5003ZM309.547 0.968271H315.795V32.7803H309.547V0.968271Z" fill="white"/>
</svg>
