<svg width="217" height="96" viewBox="0 0 217 96" fill="none" xmlns="http://www.w3.org/2000/svg">
<path d="M6.64062 76L30.4688 29.4375V29.0469H2.73438V19.4375H42.6562V29.2031L18.8281 76H6.64062ZM50.4688 76L50.3906 67.4844L70.7031 48.8125C75.9766 43.7734 78.8281 40.6484 78.8281 36.1562C78.8281 31.1172 75.0391 27.9922 69.8438 28.0312C64.5312 27.9922 61.0547 31.3516 61.0938 36.7812H49.9219C49.8828 25.7266 58.0859 18.6562 70 18.6562C82.1094 18.6562 90.1562 25.5703 90.1562 35.375C90.1562 41.8203 87.0312 47.0938 75.3906 57.6406L66.7969 66V66.3125H90.9375V76H50.4688ZM106.172 76.7031C102.5 76.7031 99.5312 73.7734 99.6094 70.1406C99.5312 66.5469 102.5 63.6172 106.172 63.6562C109.648 63.6172 112.656 66.5469 112.656 70.1406C112.656 73.7734 109.648 76.7031 106.172 76.7031ZM122.031 76L145.859 29.4375V29.0469H118.125V19.4375H158.047V29.2031L134.219 76H122.031Z" fill="#00A5E5"/>
<path d="M198.797 30.7148V32.7266H182.527V30.7148H189.402V26.75H191.902V30.7148H198.797ZM183.191 25.5586C186.883 24.9629 189.09 22.7363 189.305 20.3828H183.875V18.3711H197.371V20.3828H191.961C192.156 22.7266 194.383 24.9043 198.191 25.4609L197.215 27.4336C194.1 26.8867 191.795 25.373 190.643 23.2637C189.52 25.4023 187.234 26.9746 184.168 27.5312L183.191 25.5586ZM214.871 17.043V30.4609H212.371V29.0547H208.973V27.3555H212.371V17.043H214.871ZM199.754 24.9141C203.006 24.8945 207.4 24.8457 211.16 24.3867L211.297 26.1641C209.891 26.3984 208.436 26.5645 207 26.6719V30.0508H204.5V32.4922H215.262V34.4844H202.02V29.1719H204.5V26.8184C202.908 26.877 201.395 26.8867 200.047 26.8867L199.754 24.9141ZM201.062 20.832C201.062 18.9375 202.889 17.6387 205.535 17.6484C208.113 17.6387 209.959 18.9375 209.969 20.832C209.959 22.7363 208.113 23.9668 205.535 23.957C202.889 23.9668 201.062 22.7363 201.062 20.832ZM203.426 20.832C203.416 21.6914 204.266 22.1699 205.535 22.1602C206.727 22.1699 207.586 21.6914 207.605 20.832C207.586 19.9531 206.727 19.4648 205.535 19.4648C204.266 19.4648 203.416 19.9531 203.426 20.832Z" fill="#00A5E5"/>
</svg>
