<svg width="187" height="32" viewBox="0 0 187 32" fill="none" xmlns="http://www.w3.org/2000/svg">
<path d="M25.4355 0V31.8164H21.498V0H25.4355ZM0.0175781 13.5352C0 6.67969 3.49805 2.32031 8.31445 2.32031C13.0781 2.32031 16.5938 6.67969 16.6113 13.5352C16.5938 20.4434 13.0781 24.7852 8.31445 24.7852C3.49805 24.7852 0 20.4434 0.0175781 13.5352ZM3.7793 13.5352C3.7793 18.4219 5.625 21.252 8.31445 21.2695C10.9863 21.252 12.8145 18.4219 12.8145 13.5352C12.8145 8.68359 10.9863 5.83594 8.31445 5.83594C5.625 5.83594 3.7793 8.68359 3.7793 13.5352ZM40.571 10.0898C40.571 14.8008 43.2253 19.9336 48.1296 22.2539L45.9499 25.207C42.5046 23.625 40.0261 20.4609 38.6902 16.752C37.3015 20.7598 34.6823 24.1348 31.0437 25.7695L28.8991 22.7461C33.9089 20.4961 36.7038 15.082 36.7038 10.0898V8.4375H29.9187V5.30859H36.7038V0.667969H40.6062V5.30859H47.2859V8.4375H40.571V10.0898ZM50.3796 31.7812V0H54.282V12.5859H59.1687V15.8555H54.282V31.7812H50.3796ZM86.3979 0.0351562V23.2383H82.4955V11.6016H76.8705V8.4375H82.4955V0.0351562H86.3979ZM59.7143 16.3828C64.7768 14.7129 67.4838 10.5645 67.4838 6.32812V5.48438H60.8745V2.32031H78.0307V5.48438H71.4565V6.36328C71.4565 10.1777 74.0229 14.1328 78.9448 15.75L76.976 18.8789C73.4252 17.666 70.9116 15.2402 69.5229 12.2344C68.1342 15.5742 65.4799 18.2461 61.7182 19.5469L59.7143 16.3828ZM65.5502 31.1484V21.1992H69.4526V27.9844H87.2065V31.1484H65.5502ZM102.166 9.03516C102.166 14.2383 105.225 19.7227 110.358 21.8672L108.213 24.9609C104.451 23.3262 101.709 20.0039 100.25 15.9609C98.7912 20.3203 95.9962 23.9766 92.2873 25.7344L90.0373 22.6758C95.047 20.3555 98.1759 14.4316 98.1935 9.03516V6.36328H91.1974V3.12891H109.127V6.36328H102.166V9.03516ZM112.678 31.7812V0H116.615V31.7812H112.678ZM157.433 24.6797V27.8438H128.394V24.6797H140.839V17.332H144.707V24.6797H157.433ZM129.238 14.8711C135.882 13.7988 140.646 9.03516 140.664 4.25391V1.93359H144.812V4.25391C144.812 9.05273 149.611 13.7988 156.308 14.8711L154.621 18.1055C149.259 17.0859 144.847 14.0098 142.738 9.84375C140.646 13.9922 136.287 17.1035 130.925 18.1055L129.238 14.8711ZM186.069 0V31.7812H182.307V15.4688H178.897V30.3047H175.241V0.84375H178.897V12.3047H182.307V0H186.069ZM158.541 22.4297C165.309 18.5273 168.174 13.5 168.737 7.13672H160.018V4.00781H172.534C172.534 12.6035 169.826 19.9863 160.791 25.1367L158.541 22.4297Z" fill="white"/>
</svg>
