<svg width="203" height="56" viewBox="0 0 203 56" fill="none" xmlns="http://www.w3.org/2000/svg">
<rect x="0.5" y="0.5" width="202" height="55" rx="27.5" fill="white"/>
<rect x="0.5" y="0.5" width="202" height="55" rx="27.5" stroke="#D9D9D9"/>
<path d="M37.3594 25.3066V26.8887H26.3203V20.9297H28.2715V25.3066H37.3594ZM24.5273 30.4219V28.8398H39.0117V30.4219H35.5312V36.0645H33.5625V30.4219H29.9766V36.0645H28.0254V30.4219H24.5273ZM47.933 22.3535C47.933 24.8057 50.3324 27.2754 53.6634 27.8555L52.7845 29.4902C50.1214 28.9365 47.9418 27.3193 46.9046 25.1836C45.8588 27.3018 43.6791 28.9277 41.0248 29.4902L40.1634 27.8555C43.4418 27.2578 45.85 24.7969 45.8588 22.3535V21.1758H47.933V22.3535ZM39.724 34.043V32.4258H54.2435V34.043H39.724ZM69.4226 28.1543V29.7188H63.1296V31.002H67.6823V35.8711H56.8015V31.002H61.196V29.7188H54.903V28.1543H69.4226ZM56.696 21.9844V20.5078H67.6296V24.5508H58.6823V25.6758H67.946V27.2227H56.7488V23.1445H65.6784V21.9844H56.696ZM58.7175 34.2891H65.7488V32.5312H58.7175V34.2891ZM86.4741 20.1738V26.2207H88.9174V27.873H86.4741V36.0645H84.5229V20.1738H86.4741ZM74.5913 32.3379V21.4746H76.5248V25.4473H80.269V21.4746H82.2202V32.3379H74.5913ZM76.5248 30.7383H80.269V26.9766H76.5248V30.7383ZM103.745 32.6016V34.2188H89.2254V32.6016H95.4832V30.0176H90.948V24.8145H100.089V22.8457H90.9129V21.2637H102.022V26.3613H92.8992V28.418H102.391V30.0176H97.4168V32.6016H103.745ZM116.867 20.1738V26.3789H119.223V28.0137H116.867V36.0293H114.916V20.1738H116.867ZM104.334 31.6875C108.201 29.7539 110.293 27.0645 110.68 23.4434H105.195V21.8262H112.666C112.657 26.4932 110.724 30.5977 105.442 33.1992L104.334 31.6875ZM132.89 20.1738V36.0645H130.921V20.1738H132.89ZM119.724 31.6875C123.89 29.71 125.806 27.0205 126.158 23.4082H120.533V21.8613H128.144C128.144 26.5898 126.307 30.6064 120.744 33.252L119.724 31.6875Z" fill="black"/>
<rect x="155" y="8" width="40" height="40" rx="20" fill="#00A5E5"/>
<path d="M167 28H181M181 28L174.875 21M181 28L174.875 35" stroke="white" stroke-width="2"/>
</svg>
