<svg width="127" height="34" viewBox="0 0 127 34" fill="none" xmlns="http://www.w3.org/2000/svg">
<path d="M11.4835 33.3523C6.15953 33.3523 1.89153 31.1083 -0.000468671 26.8843L5.36753 24.2003C6.33553 26.3563 8.40353 27.4563 11.4835 27.4563C14.2555 27.4563 16.3675 26.3123 16.3675 24.2003C16.3675 21.7363 14.0355 21.3403 10.9555 20.8123C6.51153 20.0643 0.483531 18.4803 0.483531 11.7923C0.483531 6.60027 5.14753 2.64027 11.2635 2.64027C16.1475 2.64027 20.3715 4.88427 22.2635 9.10827L16.8955 11.7923C15.9275 9.90027 13.9915 8.58027 10.9995 8.58027C8.57953 8.58027 6.90753 9.72427 6.90753 11.5283C6.90753 13.9043 9.37153 14.5203 12.5835 15.0923C16.9835 15.8403 22.7915 17.4243 22.7915 24.1563C22.7915 29.4803 17.7755 33.3523 11.4835 33.3523ZM38.1211 33.3523C31.4331 33.3523 26.3291 28.1603 26.3291 21.8243C26.3291 15.5323 31.4771 10.3403 38.1211 10.3403C44.8531 10.3403 49.9571 15.5763 49.9571 21.8243C49.9571 28.1603 44.8091 33.3523 38.1211 33.3523ZM38.1211 27.5003C41.3331 27.5003 43.7091 24.9483 43.7091 21.8683C43.7091 18.7883 41.3331 16.2363 38.1211 16.2363C34.9091 16.2363 32.5771 18.7883 32.5771 21.8683C32.5771 24.9483 34.9091 27.5003 38.1211 27.5003ZM64.7167 33.3523C58.1607 33.3963 53.0127 28.1603 53.0127 21.8683C53.0127 15.5323 58.1607 10.3403 64.7167 10.3843C68.8967 10.4283 72.7687 12.3203 74.7487 16.5443L69.6007 19.3603C68.6327 17.4683 66.8727 16.2803 64.7167 16.2803C61.5927 16.2803 59.2607 18.7883 59.2607 21.8683C59.2607 24.9483 61.5927 27.4563 64.7167 27.4563C66.8727 27.4563 68.6327 26.2683 69.6007 24.3763L74.7487 27.1923C72.7687 31.4163 68.8967 33.3083 64.7167 33.3523ZM82.4799 7.74427C80.3679 7.74427 78.6079 6.02827 78.6079 3.87227C78.6079 1.76027 80.3679 0.000270605 82.4799 0.000270605C84.5919 0.000270605 86.3079 1.76027 86.3079 3.87227C86.3079 6.02827 84.5919 7.74427 82.4799 7.74427ZM79.3559 11.0003H85.6039V32.7803H79.3559V11.0003ZM101.39 33.3523C95.0543 33.3523 90.6103 28.1603 90.6103 21.8243C90.6103 15.5763 95.7143 10.3403 102.402 10.3403C109.222 10.3403 114.238 15.2683 114.238 21.8243V32.7803H108.298V30.2283C106.758 32.1643 104.382 33.3523 101.39 33.3523ZM102.402 27.5003C105.614 27.5003 107.99 24.9483 107.99 21.8683C107.99 18.7883 105.614 16.2363 102.402 16.2363C99.1903 16.2363 96.8583 18.7883 96.8583 21.8683C96.8583 24.9483 99.1903 27.5003 102.402 27.5003ZM120.348 0.968271H126.596V32.7803H120.348V0.968271Z" fill="white"/>
</svg>
