<svg width="169" height="14" viewBox="0 0 169 14" fill="none" xmlns="http://www.w3.org/2000/svg">
<path d="M11.0469 0.609375V1.5C11.0469 2.4375 11.0469 3.64062 10.7344 5.20312H12.7188V6.1875H0V5.20312H9.5C9.82031 3.65625 9.83594 2.52344 9.82812 1.60938H1.60938V0.609375H11.0469ZM1.51562 8.57812V7.59375H11.0938V11.0938H2.76562V12.7344H11.4531V13.7344H1.53125V10.125H9.875V8.57812H1.51562ZM25.7469 11.1406V12.1719H13.0281V11.1406H18.7469V8.51562H14.6219V4.23438H22.9344V2.04688H14.5906V1.03125H24.1375V5.23438H15.8406V7.5H24.4656V8.51562H19.95V11.1406H25.7469ZM37.5562 0V7.25H36.3375V4.125H33.0562V6.6875H26.7594V0.65625H27.9781V2.64062H31.8531V0.65625H33.0562V3.09375H36.3375V0H37.5562ZM27.9781 5.6875H31.8531V3.625H27.9781V5.6875ZM28.5562 8.90625V7.92188H37.5562V11.2031H29.8062V12.7188H38.0875V13.7031H28.5875V10.2656H36.3375V8.90625H28.5562ZM55.0187 11.0781V12.1094H42.3V11.0781H48.0344V7.70312H49.2687V11.0781H55.0187ZM42.925 7.20312C45.2766 6.80469 48.0031 4.85938 48.0031 2.64062V2.29688H43.3469V1.26562H53.925V2.29688H49.2687V2.64062C49.2766 4.85938 52.0109 6.76562 54.4094 7.15625L53.9094 8.125C51.7844 7.70312 49.5422 6.35156 48.6516 4.42969C47.7609 6.375 45.5266 7.75781 43.4406 8.1875L42.925 7.20312ZM60.0781 2.625C60.0781 4.5625 61.4844 6.39062 63.5156 7.125L62.8281 8.07812C61.3047 7.47656 60.0859 6.27344 59.4922 4.75781C58.9062 6.4375 57.6406 7.76562 56 8.42188L55.3438 7.42188C57.4297 6.65625 58.8672 4.71094 58.875 2.57812V0.859375H60.0781V2.625ZM57.8594 13.5938V9.23438H59.0938V12.5625H67.1562V13.5938H57.8594ZM62.5156 4.3125V3.28125H65.6094V0.015625H66.8438V10.4219H65.6094V4.3125H62.5156ZM76.2438 2.625C76.2359 4.53906 77.6813 6.30469 79.7281 7.01562L79.1031 8C77.525 7.42188 76.2984 6.25 75.6813 4.78125C75.0953 6.4375 73.8375 7.71094 72.1969 8.34375L71.525 7.35938C73.6422 6.61719 75.0328 4.73438 75.0406 2.57812V0.859375H76.2438V2.625ZM73.7594 13.5938V9.28125H75.0094V12.5625H83.0719V13.5938H73.7594ZM81.2125 10.2656V0H82.4313V4.26562H84.525V5.3125H82.4313V10.2656H81.2125ZM88.4281 0.65625C90.2875 0.648438 91.7094 1.73438 91.975 3.32812H94.8812V0H96.1156V7.45312H94.8812V4.34375H91.9828C91.7406 5.98438 90.3109 7.07812 88.4281 7.07812C86.3109 7.07812 84.8109 5.76562 84.8187 3.85938C84.8109 1.97656 86.3109 0.648438 88.4281 0.65625ZM85.9906 3.85938C85.9906 5.125 86.9984 6.03906 88.4281 6.04688C89.8266 6.03906 90.8344 5.125 90.8344 3.85938C90.8344 2.57812 89.8266 1.6875 88.4281 1.70312C86.9984 1.6875 85.9906 2.57812 85.9906 3.85938ZM87.1625 13.7031V8.15625H88.3969V9.92188H94.8812V8.15625H96.1156V13.7031H87.1625ZM88.3969 12.7031H94.8812V10.9062H88.3969V12.7031ZM102.175 1.01562C104.355 1.02344 105.902 2.35156 105.909 4.28125C105.902 6.21875 104.355 7.53906 102.175 7.54688C99.9797 7.53906 98.4172 6.21875 98.425 4.28125C98.4172 2.35156 99.9797 1.02344 102.175 1.01562ZM97.7063 9.8125C100.269 9.82031 103.808 9.79688 106.878 9.34375L106.972 10.25C103.792 10.8438 100.378 10.8594 97.8781 10.8594L97.7063 9.8125ZM99.6281 4.28125C99.6203 5.57812 100.691 6.46875 102.175 6.46875C103.644 6.46875 104.714 5.57812 104.706 4.28125C104.714 2.99219 103.644 2.09375 102.175 2.09375C100.691 2.09375 99.6203 2.99219 99.6281 4.28125ZM107.8 13.9219V0H109.019V13.9219H107.8ZM120.919 1.64062V2.64062H113.794V1.64062H116.762V0.078125H117.981V1.64062H120.919ZM114.403 5.8125C114.395 4.32812 115.622 3.34375 117.372 3.34375C119.13 3.34375 120.348 4.32812 120.356 5.8125C120.348 7.26562 119.13 8.25 117.372 8.25C115.622 8.25 114.395 7.26562 114.403 5.8125ZM115.497 5.8125C115.497 6.70312 116.262 7.3125 117.372 7.3125C118.481 7.3125 119.247 6.70312 119.247 5.8125C119.247 4.89062 118.481 4.28125 117.372 4.26562C116.262 4.28125 115.497 4.89062 115.497 5.8125ZM116.309 10.4688V9.46875H125.669V13.8906H124.466V10.4688H116.309ZM121.512 8.54688V0.25H122.684V3.92188H124.497V0.015625H125.669V8.64062H124.497V4.9375H122.684V8.54688H121.512ZM138.369 0.015625V7.90625H137.15V0.015625H138.369ZM127.009 6.57812C129.111 5.84375 130.572 3.96094 130.572 1.92188V0.5625H131.822V1.92188C131.806 3.88281 133.306 5.61719 135.353 6.34375L134.728 7.28125C133.119 6.72656 131.83 5.55469 131.205 4.03906C130.588 5.64844 129.291 6.92969 127.634 7.54688L127.009 6.57812ZM129.338 13.7031V8.70312H138.369V13.7031H129.338ZM130.541 12.7031H137.166V9.70312H130.541V12.7031ZM155.847 8.25V9.25H150.05V13.8906H148.847V9.25H143.128V8.25H155.847ZM144.753 6.5625V0.578125H145.972V2.5H152.972V0.578125H154.206V6.5625H144.753ZM145.972 5.5625H152.972V3.5H145.972V5.5625ZM168.875 7.35938V8.35938H163.219V11.0781H162V8.35938H156.156V7.35938H168.875ZM157.781 13.5938V9.79688H159V12.5625H167.453V13.5938H157.781ZM157.859 6V0.453125H159.078V2.23438H165.953V0.453125H167.172V6H157.859ZM159.078 5H165.953V3.17188H159.078V5Z" fill="black"/>
</svg>
