<svg width="56" height="14" viewBox="0 0 56 14" fill="none" xmlns="http://www.w3.org/2000/svg">
<path d="M0 12.1719V0.859375H7.09375V2.34375H1.71875V5.76562H6.71875V7.23438H1.71875V10.6875H7.15625V12.1719H0ZM15.0394 3.84375C14.93 2.78906 14.0081 2.1875 12.7113 2.1875C11.3284 2.1875 10.4534 2.89844 10.4456 3.85938C10.4456 4.92969 11.6097 5.35156 12.5081 5.5625L13.6019 5.85938C15.0472 6.21094 16.8597 7 16.8675 9.04688C16.8597 10.9609 15.3363 12.3594 12.6644 12.3594C10.1331 12.3594 8.53938 11.0938 8.43 9.03125H10.1488C10.2503 10.2656 11.3441 10.8516 12.6644 10.8594C14.1097 10.8516 15.1566 10.125 15.1644 9.01562C15.1566 8.03125 14.2191 7.63281 13.0238 7.3125L11.68 6.95312C9.85969 6.45312 8.73469 5.53125 8.72688 3.95312C8.73469 2 10.4691 0.703125 12.7581 0.703125C15.055 0.703125 16.6566 2.01562 16.7113 3.84375H15.0394ZM26.0319 4.4375C25.61 3.10156 24.5866 2.27344 23.0944 2.28125C21.1881 2.27344 19.7272 3.77344 19.7194 6.51562C19.7272 9.25 21.1725 10.7578 23.1725 10.75C24.9772 10.7578 26.1725 9.60938 26.2038 7.79688H23.4225V6.375H27.8756V7.65625C27.8756 10.5234 25.9069 12.3281 23.1569 12.3281C20.0944 12.3281 18.0163 10.1016 18.0163 6.51562C18.0163 2.90625 20.1569 0.703125 23.0788 0.703125C25.5241 0.703125 27.4147 2.22656 27.7975 4.4375H26.0319ZM41.6806 6.07812V7.29688H28.8994V6.07812H41.6806ZM30.415 10.9375C30.415 9.3125 32.2353 8.39062 35.2744 8.39062C38.29 8.39062 40.0947 9.3125 40.1025 10.9375C40.0947 12.5625 38.29 13.4766 35.2744 13.4688C32.2353 13.4766 30.415 12.5625 30.415 10.9375ZM30.4931 4.85938V0H40.1025V1.21875H31.9619V3.65625H40.1963V4.85938H30.4931ZM31.915 10.9375C31.9072 11.8359 33.1338 12.3203 35.2744 12.3281C37.3838 12.3203 38.6181 11.8359 38.6181 10.9375C38.6181 10.0469 37.3838 9.54688 35.2744 9.53125C33.1338 9.54688 31.9072 10.0469 31.915 10.9375ZM45.5013 7.48438V9.23438H52.1106V7.48438H53.5638V13.3281H44.0325V7.48438H45.5013ZM42.4075 6.34375V5.14062H51.7747C52.1106 3.53906 52.1263 2.35156 52.1263 1.32812H44.0169V0.109375H53.595V1.17188C53.6028 2.23438 53.6028 3.44531 53.2356 5.14062H55.22V6.34375H42.4075ZM45.5013 12.1094H52.1106V10.3906H45.5013V12.1094Z" fill="black"/>
</svg>
