<svg width="113" height="145" viewBox="0 0 113 145" fill="none" xmlns="http://www.w3.org/2000/svg">
<path d="M24.1383 95.0322C24.1383 116.226 39.7884 124.514 59.0764 124.514C80.2969 124.514 88.2167 114.107 88.2167 103.699C88.2167 93.2913 82.4189 88.8633 76.8106 86.7439C67.1477 83.0728 54.6049 80.5749 35.6959 75.3521C12.1639 68.9939 5.19143 54.7259 5.19143 40.4578C5.19143 12.9057 30.656 -0.0377197 55.5522 -0.0377197C84.3136 -0.0377197 108.452 15.1765 108.452 43.9018H84.3136C83.1389 26.1519 71.2023 19.6045 54.6049 19.6045C43.4262 19.6045 29.3297 23.6541 29.3297 37.5437C29.3297 47.1945 35.8854 52.5686 45.7377 55.2936C47.8598 55.8613 78.3643 63.7711 85.4883 65.8905C103.639 71.3026 112.317 86.706 112.317 100.974C112.317 131.819 84.9199 144.157 57.5227 144.157C26.0709 144.157 0.568406 129.132 0 94.9943H24.1383V95.0322Z" fill="#00A5E5"/>
</svg>
