<svg width="255" height="31" viewBox="0 0 255 31" fill="none" xmlns="http://www.w3.org/2000/svg">
<path d="M15.356 30.7556C6.68796 30.7556 -3.90559e-05 23.8916 -3.90559e-05 15.3556C-3.90559e-05 6.81965 6.59996 -0.00035429 15.356 -0.00035429C20.416 -0.00035429 25.432 2.55165 27.632 7.30365L22.396 10.2516C20.9 7.61165 18.612 6.02765 15.092 6.02765C10.12 6.02765 6.59996 10.0756 6.59996 15.4436C6.59996 20.9876 10.164 24.9036 15.356 24.9036C18.26 24.9036 20.372 24.1556 21.736 22.7476L21.692 16.1916H27.94V24.9036C25.784 28.1596 21.208 30.7556 15.356 30.7556ZM43.2881 30.7116C36.6001 30.7116 31.4961 25.5196 31.4961 19.1836C31.4961 12.8916 36.6441 7.69965 43.2881 7.69965C50.0201 7.69965 55.1241 12.9356 55.1241 19.1836C55.1241 25.5196 49.9761 30.7116 43.2881 30.7116ZM43.2881 24.8596C46.5001 24.8596 48.8761 22.3076 48.8761 19.2276C48.8761 16.1476 46.5001 13.5956 43.2881 13.5956C40.0761 13.5956 37.7441 16.1476 37.7441 19.2276C37.7441 22.3076 40.0761 24.8596 43.2881 24.8596ZM63.1169 26.5316L56.4729 8.35965H63.1169L68.8369 24.5956L74.5129 8.35965H81.1569L74.4249 26.5316C73.3689 29.3476 71.4769 30.7556 68.7929 30.7556C66.1529 30.7556 64.1289 29.3476 63.1169 26.5316ZM68.7929 24.7716C68.8369 24.7716 68.8369 24.7716 68.8369 24.7716H68.7929ZM94.4229 30.7116C87.6469 30.7116 82.5429 26.0036 82.5429 19.0516C82.5429 12.7596 87.1189 7.56765 93.8509 7.56765C100.759 7.56765 104.763 12.6716 104.763 18.6116V20.4596H88.5709C89.0109 23.3636 91.2549 25.2996 94.3789 25.2996C96.7549 25.2996 98.7349 24.1556 99.7469 22.1316L104.543 24.5516C102.651 28.4676 99.0429 30.7116 94.4229 30.7116ZM88.8349 16.9836H98.5589C98.2949 14.7396 96.4469 13.0236 93.8069 13.0236C91.0789 13.0236 89.2749 14.7836 88.8349 16.9836ZM115.586 30.1396H109.338V17.6436C109.338 12.0556 112.506 7.78765 118.974 7.78765C120.382 7.78765 121.922 8.05165 123.022 8.53565V14.6076C121.966 13.9916 120.69 13.6836 119.546 13.6836C117.082 13.6836 115.586 15.2676 115.586 17.8636V30.1396ZM137.061 13.8156C133.541 13.8156 131.957 16.6756 131.957 20.0196V30.1396H125.709V19.2716C125.709 12.9356 129.449 7.74365 137.061 7.74365C144.673 7.74365 148.501 12.8916 148.501 19.2716V30.1396H142.253V20.0196C142.253 16.6756 140.625 13.8156 137.061 13.8156ZM163.405 30.7116C157.069 30.7116 152.625 25.5196 152.625 19.1836C152.625 12.9356 157.729 7.69965 164.417 7.69965C171.237 7.69965 176.253 12.6276 176.253 19.1836V30.1396H170.313V27.5876C168.773 29.5236 166.397 30.7116 163.405 30.7116ZM164.417 24.8596C167.629 24.8596 170.005 22.3076 170.005 19.2276C170.005 16.1476 167.629 13.5956 164.417 13.5956C161.205 13.5956 158.873 16.1476 158.873 19.2276C158.873 22.3076 161.205 24.8596 164.417 24.8596ZM192.835 13.8156C189.315 13.8156 187.731 16.6756 187.731 20.0196V30.1396H181.483V19.2716C181.483 12.9356 185.223 7.74365 192.835 7.74365C200.447 7.74365 204.275 12.8916 204.275 19.2716V30.1396H198.027V20.0196C198.027 16.6756 196.399 13.8156 192.835 13.8156ZM220.102 30.7116C213.546 30.7556 208.398 25.5196 208.398 19.2276C208.398 12.8916 213.546 7.69965 220.102 7.74365C224.282 7.78765 228.154 9.67965 230.134 13.9036L224.986 16.7196C224.018 14.8276 222.258 13.6396 220.102 13.6396C216.978 13.6396 214.646 16.1476 214.646 19.2276C214.646 22.3076 216.978 24.8156 220.102 24.8156C222.258 24.8156 224.018 23.6276 224.986 21.7356L230.134 24.5516C228.154 28.7756 224.282 30.6676 220.102 30.7116ZM244.642 30.7116C237.866 30.7116 232.762 26.0036 232.762 19.0516C232.762 12.7596 237.338 7.56765 244.07 7.56765C250.978 7.56765 254.982 12.6716 254.982 18.6116V20.4596H238.79C239.23 23.3636 241.474 25.2996 244.598 25.2996C246.974 25.2996 248.954 24.1556 249.966 22.1316L254.762 24.5516C252.87 28.4676 249.262 30.7116 244.642 30.7116ZM239.054 16.9836H248.778C248.514 14.7396 246.666 13.0236 244.026 13.0236C241.298 13.0236 239.494 14.7836 239.054 16.9836Z" fill="white"/>
</svg>
