<svg width="39" height="22" viewBox="0 0 39 22" fill="none" xmlns="http://www.w3.org/2000/svg">
<path d="M16.9688 0.0703125V7.17188H19.8281V9.32812H16.9688V16.6172H14.3672V0.0703125H16.9688ZM0 12.375C1.58203 12.375 3.42188 12.3633 5.34375 12.3047V10.957C2.98828 10.6641 1.48828 9.50391 1.5 7.80469C1.48828 5.73047 3.53906 4.5 6.60938 4.52344C9.69141 4.5 11.7188 5.73047 11.7188 7.80469C11.7188 9.49219 10.2656 10.6406 7.94531 10.957V12.1758C9.75 12.0703 11.5664 11.9062 13.2656 11.6484L13.4766 13.4766C8.98828 14.3203 3.9375 14.3789 0.28125 14.4141L0 12.375ZM0.539062 3.82031V1.92188H5.34375V0H7.94531V1.92188H12.7031V3.82031H0.539062ZM3.04688 20.8359V15.5156H5.64844V18.7266H17.7188V20.8359H3.04688ZM4.00781 7.80469C3.98438 8.71875 4.96875 9.25781 6.60938 9.25781C8.25 9.25781 9.23438 8.71875 9.23438 7.80469C9.23438 6.80859 8.25 6.26953 6.60938 6.28125C4.96875 6.26953 3.98438 6.80859 4.00781 7.80469ZM38.1919 0.09375V12.4688H35.5903V10.125H30.5513V8.01562H35.5903V5.74219H30.7505C29.4145 9.10547 26.3208 11.4609 21.7153 12.75L20.6606 10.6875C25.6177 9.35156 28.2661 6.83203 28.6645 3.67969H21.7856V1.57031H31.5122C31.5122 2.30859 31.4536 3.01172 31.3364 3.67969H35.5903V0.09375H38.1919ZM23.9888 16.9219C23.9888 14.3203 26.8364 12.7148 31.1841 12.7031C35.4731 12.7148 38.3325 14.3203 38.3325 16.9219C38.3325 19.5234 35.4731 21.1523 31.1841 21.1406C26.8364 21.1523 23.9888 19.5234 23.9888 16.9219ZM26.5903 16.9219C26.5903 18.3164 28.3364 19.0781 31.1841 19.0781C33.9848 19.0781 35.7192 18.3164 35.7309 16.9219C35.7192 15.5039 33.9848 14.7422 31.1841 14.7422C28.3364 14.7422 26.5903 15.5039 26.5903 16.9219Z" fill="white"/>
</svg>
