<svg width="202" height="140" viewBox="0 0 202 140" fill="none" xmlns="http://www.w3.org/2000/svg">
<path d="M8.6543 10.3047V40H2.50195V10.3047H8.6543ZM29.7773 18.7949C29.5312 16.4365 27.665 15.0625 24.6504 15.0625C21.5332 15.0625 19.79 16.498 19.7695 18.4668C19.749 20.6201 21.9639 21.584 24.5273 22.1582L27.1934 22.8145C32.2793 23.9834 36.0732 26.5674 36.0938 31.5098C36.0732 36.9443 31.8486 40.4307 24.6094 40.4102C17.4316 40.4307 12.8584 37.1084 12.6738 30.7305H18.6621C18.8672 33.7246 21.2461 35.2422 24.5273 35.2422C27.7676 35.2422 29.8594 33.7246 29.8594 31.5098C29.8594 29.4795 28.0137 28.5361 24.7734 27.7363L21.5332 26.957C16.5293 25.7266 13.4531 23.2246 13.4531 18.877C13.4326 13.4834 18.1904 9.89453 24.6914 9.89453C31.2744 9.89453 35.6016 13.5449 35.6836 18.7949H29.7773ZM67.3066 25.1523C67.3066 34.8525 61.2979 40.4102 53.4434 40.4102C45.5273 40.4102 39.5391 34.8115 39.5391 25.1523C39.5391 15.4521 45.5273 9.89453 53.4434 9.89453C61.2979 9.89453 67.3066 15.4521 67.3066 25.1523ZM45.8145 25.1523C45.8145 31.4893 48.8291 34.9346 53.4434 34.9551C58.0166 34.9346 61.0518 31.4893 61.0312 25.1523C61.0518 18.7949 58.0166 15.3701 53.4434 15.3496C48.8291 15.3701 45.8145 18.7949 45.8145 25.1523ZM94.0488 10.3047V40H87.8555V16.1699H87.6914L80.8828 20.4355V14.9805L88.2246 10.3047H94.0488ZM100.447 34.75V29.8691L112.998 10.3047H120.75V29.7871H124.523V34.75H120.75V40H114.885V34.75H100.447ZM106.682 29.7871H114.967V17.0723H114.68L106.682 29.541V29.7871ZM140.068 40.4102C132.624 40.4102 128.133 34.873 128.133 25.1523C128.133 15.4521 132.665 9.89453 140.068 9.89453C147.472 9.89453 152.004 15.4521 152.004 25.1523C152.004 34.9141 147.492 40.4102 140.068 40.4102ZM134.449 25.1523C134.408 32.002 136.623 35.3242 140.068 35.3242C143.514 35.3242 145.708 32.002 145.688 25.1523C145.708 18.3643 143.493 14.96 140.068 14.9395C136.644 14.96 134.449 18.3643 134.449 25.1523ZM167.795 40.4102C160.351 40.4102 155.859 34.873 155.859 25.1523C155.859 15.4521 160.392 9.89453 167.795 9.89453C175.198 9.89453 179.73 15.4521 179.73 25.1523C179.73 34.9141 175.219 40.4102 167.795 40.4102ZM162.176 25.1523C162.135 32.002 164.35 35.3242 167.795 35.3242C171.24 35.3242 173.435 32.002 173.414 25.1523C173.435 18.3643 171.22 14.96 167.795 14.9395C164.37 14.96 162.176 18.3643 162.176 25.1523ZM196.793 10.3047V40H190.6V16.1699H190.436L183.627 20.4355V14.9805L190.969 10.3047H196.793Z" fill="white"/>
<path d="M46.2188 58.8516V76.6523H43.6211V58.8516H46.2188ZM26.3945 66.5625C26.4082 63.0215 29.2246 60.5059 32.9297 60.4922C36.6211 60.5059 39.4375 63.0215 39.4375 66.5625C39.4375 70.1582 36.6211 72.6602 32.9297 72.6602C29.2246 72.6602 26.4082 70.1582 26.3945 66.5625ZM28.9375 66.5625C28.9238 68.873 30.6465 70.3906 32.9297 70.3906C35.1719 70.3906 36.8945 68.873 36.8945 66.5625C36.8945 64.3066 35.1719 62.7617 32.9297 62.7617C30.6465 62.7617 28.9238 64.3066 28.9375 66.5625ZM30.1953 82.8047V74.8477H32.8203V80.6992H46.957V82.8047H30.1953ZM72.4414 70.3633V72.4688H50.1016V70.3633H72.4414ZM51.2773 67.0273C55.7207 66.5488 59.2344 64.5527 59.5215 62.1602H52.1523V60.0273H70.4453V62.1602H62.9941C63.2949 64.5391 66.7539 66.5488 71.293 67.0273L70.3633 69.0781C66.1113 68.5859 62.5977 66.7949 61.2715 64.2109C59.918 66.7949 56.4316 68.5859 52.1797 69.0781L51.2773 67.0273ZM52.7539 78.8398C52.7539 75.9961 55.9395 74.3555 61.2578 74.3555C66.5352 74.3555 69.6934 75.9961 69.707 78.8398C69.6934 81.6836 66.5352 83.2832 61.2578 83.2695C55.9395 83.2832 52.7539 81.6836 52.7539 78.8398ZM55.3789 78.8398C55.3652 80.3848 57.5117 81.2324 61.2578 81.2188C64.9492 81.2324 67.1094 80.3848 67.1094 78.8398C67.1094 77.2539 64.9492 76.4062 61.2578 76.3789C57.5117 76.4062 55.3652 77.2539 55.3789 78.8398ZM96.6953 69.8984V71.8398H90.8164V73.8086H93.9336V79.1953H79.5508V81.2461H94.6992V83.0781H76.9531V77.4727H91.3633V75.668H76.9258V73.8086H80.1797V71.8398H74.2734V69.8984H96.6953ZM77.0898 61.2578V59.4531H93.8789V64.7305H79.7148V66.5352H94.2891V68.3672H77.1445V63.0078H91.2812V61.2578H77.0898ZM82.75 73.8086H88.2461V71.8398H82.75V73.8086ZM113.703 61.2031V81H110.668V64.2109H110.559L105.828 67.3008V64.4297L110.75 61.2031H113.703ZM125.625 81.2734C121.045 81.2734 118.352 77.582 118.352 71.1016C118.352 64.6621 121.072 60.9297 125.625 60.9297C130.164 60.9297 132.885 64.6621 132.898 71.1016C132.885 77.582 130.205 81.2734 125.625 81.2734ZM121.359 71.1016C121.346 76.0371 122.945 78.6758 125.625 78.6758C128.291 78.6758 129.891 76.0371 129.891 71.1016C129.891 66.1797 128.277 63.4863 125.625 63.4727C122.959 63.4863 121.359 66.1797 121.359 71.1016ZM142.906 81.2734C138.326 81.2734 135.633 77.582 135.633 71.1016C135.633 64.6621 138.354 60.9297 142.906 60.9297C147.445 60.9297 150.166 64.6621 150.18 71.1016C150.166 77.582 147.486 81.2734 142.906 81.2734ZM138.641 71.1016C138.627 76.0371 140.227 78.6758 142.906 78.6758C145.572 78.6758 147.172 76.0371 147.172 71.1016C147.172 66.1797 145.559 63.4863 142.906 63.4727C140.24 63.4863 138.641 66.1797 138.641 71.1016ZM157.836 70.6094C155.129 70.6367 153.652 68.627 153.68 65.6875C153.652 62.7891 155.197 60.7793 157.836 60.793C160.557 60.7793 161.979 62.7891 161.992 65.6875C161.979 68.6406 160.502 70.6367 157.836 70.6094ZM155.922 81L169.512 61.2031H172L158.41 81H155.922ZM155.922 65.6875C155.936 67.5059 156.564 68.6816 157.836 68.6953C159.121 68.6816 159.723 67.5059 159.723 65.6875C159.723 63.9102 159.162 62.6934 157.836 62.707C156.564 62.7344 155.936 63.9238 155.922 65.6875ZM166.176 76.4883C166.162 73.5625 167.693 71.5527 170.332 71.5664C173.039 71.5527 174.475 73.5625 174.488 76.4883C174.475 79.4141 172.998 81.4102 170.332 81.4102C167.639 81.4102 166.162 79.4004 166.176 76.4883ZM168.418 76.4883C168.432 78.2793 169.061 79.4688 170.332 79.4688C171.617 79.4688 172.219 78.2793 172.219 76.4883C172.219 74.6836 171.658 73.4805 170.332 73.4805C169.074 73.5078 168.432 74.6973 168.418 76.4883Z" fill="white"/>
<path d="M29.4895 119V124.84H31.7695V126.92H29.4895V132.88H27.0095V119H29.4895ZM15.0895 129.24C16.3695 129.24 17.8495 129.22 19.4095 129.18V128.16C17.4895 127.88 16.2895 126.92 16.2895 125.52C16.2895 123.76 18.0095 122.74 20.6495 122.76C23.2695 122.74 24.9895 123.76 25.0095 125.52C24.9895 126.92 23.7895 127.88 21.8895 128.16V129.06C23.3495 128.98 24.8095 128.84 26.1695 128.64L26.3695 130.36C22.6295 131.08 18.4095 131.12 15.3695 131.16L15.0895 129.24ZM15.5695 122.24V120.48H19.4095V118.96H21.8895V120.48H25.7295V122.24H15.5695ZM17.6095 136.48V131.96H20.0895V134.48H30.1295V136.48H17.6095ZM18.6895 125.52C18.6695 126.18 19.3895 126.56 20.6495 126.56C21.8895 126.56 22.6095 126.18 22.6095 125.52C22.6095 124.78 21.8895 124.4 20.6495 124.4C19.3895 124.4 18.6695 124.78 18.6895 125.52ZM47.0747 119.04V129.28H44.5947V127.52H40.5947V125.56H44.5947V123.84H40.7747C39.6747 126.66 37.1347 128.6 33.2347 129.64L32.2347 127.72C36.3147 126.62 38.3347 124.66 38.6947 122.24H33.1947V120.24H41.3947C41.3947 120.82 41.3547 121.36 41.2747 121.88H44.5947V119.04H47.0747ZM35.0747 133.08C35.0547 130.88 37.4947 129.5 41.1547 129.48C44.7547 129.5 47.1947 130.88 47.1947 133.08C47.1947 135.32 44.7547 136.72 41.1547 136.72C37.4947 136.72 35.0547 135.32 35.0747 133.08ZM37.5547 133.08C37.5547 134.18 38.8947 134.74 41.1547 134.76C43.3547 134.74 44.6947 134.18 44.7147 133.08C44.6947 132 43.3547 131.42 41.1547 131.44C38.8947 131.42 37.5547 132 37.5547 133.08ZM63.8598 119.04V129.28H61.3798V127.52H57.3798V125.56H61.3798V123.84H57.5598C56.4598 126.66 53.9198 128.6 50.0198 129.64L49.0198 127.72C53.0998 126.62 55.1198 124.66 55.4798 122.24H49.9798V120.24H58.1798C58.1798 120.82 58.1398 121.36 58.0598 121.88H61.3798V119.04H63.8598ZM51.8598 133.08C51.8398 130.88 54.2798 129.5 57.9398 129.48C61.5398 129.5 63.9798 130.88 63.9798 133.08C63.9798 135.32 61.5398 136.72 57.9398 136.72C54.2798 136.72 51.8398 135.32 51.8598 133.08ZM54.3398 133.08C54.3398 134.18 55.6798 134.74 57.9398 134.76C60.1398 134.74 61.4798 134.18 61.4998 133.08C61.4798 132 60.1398 131.42 57.9398 131.44C55.6798 131.42 54.3398 132 54.3398 133.08ZM70.605 119.96C72.025 119.98 73.265 120.5 74.105 121.36H78.165V119H80.645V129.44H78.165V127.32H74.085C73.225 128.18 72.005 128.68 70.605 128.68C67.925 128.68 65.865 126.84 65.885 124.32C65.865 121.8 67.925 119.98 70.605 119.96ZM68.245 124.32C68.245 125.7 69.225 126.58 70.605 126.56C71.965 126.58 72.925 125.7 72.925 124.32C72.925 122.92 71.965 122.1 70.605 122.12C69.225 122.1 68.245 122.92 68.245 124.32ZM68.445 133.32C68.445 131.08 70.805 129.8 74.565 129.8C78.325 129.8 80.685 131.08 80.685 133.32C80.685 135.5 78.325 136.8 74.565 136.8C70.805 136.8 68.445 135.5 68.445 133.32ZM70.885 133.32C70.885 134.34 72.205 134.86 74.565 134.84C76.965 134.86 78.245 134.34 78.245 133.32C78.245 132.24 76.965 131.7 74.565 131.72C72.205 131.7 70.885 132.24 70.885 133.32ZM75.205 125.32H78.165V123.36H75.205C75.285 123.66 75.325 123.98 75.325 124.32C75.325 124.66 75.285 125 75.205 125.32ZM89.3502 123.04C89.3502 126.32 90.8302 129.58 93.8702 130.84L92.3902 132.84C90.3502 131.92 88.9302 130.16 88.1302 127.96C87.3302 130.36 85.8702 132.3 83.7102 133.28L82.1902 131.2C85.3102 129.9 86.8102 126.5 86.8302 123.04V120.4H89.3502V123.04ZM94.7902 136.84V119H97.3102V136.84H94.7902ZM108.575 121.36C108.575 123.98 110.875 126.76 114.895 127.44L113.815 129.52C110.715 128.9 108.415 127.16 107.255 124.88C106.095 127.14 103.775 128.88 100.695 129.52L99.6153 127.44C103.595 126.74 105.895 123.94 105.935 121.36V120.08H108.575V121.36ZM99.2153 134.6V132.56H115.495V134.6H99.2153ZM123.48 120.08V122.08H119.12V123.52H122.84V125.4H119.12V126.96C121.04 126.94 122.46 126.84 124.08 126.56L124.36 128.52C122.3 128.88 120.6 128.94 117.92 128.92H116.72V120.08H123.48ZM119.16 136.6V130.32H131.28V136.6H119.16ZM121.64 134.6H128.8V132.28H121.64V134.6ZM123.6 125.28V123.28H125.4V119.28H127.76V129.52H125.4V125.28H123.6ZM128.92 129.64V119H131.28V129.64H128.92ZM151.775 119.04V131.8H149.295V119.04H151.775ZM137.175 124.64C137.175 122.04 139.315 120.16 142.055 120.16C144.775 120.16 146.895 122.04 146.895 124.64C146.895 127.3 144.775 129.16 142.055 129.16C139.315 129.16 137.175 127.3 137.175 124.64ZM139.615 124.64C139.595 126.14 140.655 126.98 142.055 127C143.395 126.98 144.435 126.14 144.415 124.64C144.435 123.2 143.395 122.34 142.055 122.32C140.655 122.34 139.595 123.2 139.615 124.64ZM139.855 136.48V130.52H142.375V134.48H152.255V136.48H139.855ZM169.92 127.2V129.2H153.68V127.2H169.92ZM154.4 124.6C157.74 124.3 159.58 123.1 159.98 121.84H155.16V119.84H168.44V121.84H163.58C163.98 123.08 165.8 124.3 169.2 124.6L168.36 126.56C164.98 126.24 162.72 124.96 161.78 123.24C160.84 124.96 158.6 126.24 155.24 126.56L154.4 124.6ZM155.56 133.52C155.54 131.42 157.88 130.22 161.76 130.2C165.62 130.22 167.94 131.42 167.96 133.52C167.94 135.62 165.62 136.8 161.76 136.8C157.88 136.8 155.54 135.62 155.56 133.52ZM158.08 133.52C158.06 134.44 159.3 134.86 161.76 134.84C164.18 134.86 165.46 134.44 165.48 133.52C165.46 132.58 164.18 132.16 161.76 132.16C159.3 132.16 158.06 132.58 158.08 133.52ZM177.185 123.04C177.205 126.38 178.545 129.64 181.505 130.92L179.985 132.92C178.005 131.96 176.685 130.18 175.945 127.98C175.185 130.32 173.805 132.24 171.785 133.24L170.225 131.2C173.265 129.82 174.645 126.38 174.665 123.04V120.4H177.185V123.04ZM179.505 126.6V124.6H183.025V119H185.465V136.84H183.025V126.6H179.505Z" fill="white"/>
</svg>
