<svg width="231" height="147" viewBox="0 0 231 147" fill="none" xmlns="http://www.w3.org/2000/svg">
<path d="M6.64062 76L30.4688 29.4375V29.0469H2.73438V19.4375H42.6562V29.2031L18.8281 76H6.64062ZM74.8438 19.4375V76H63.0469V30.6094H62.7344L49.7656 38.7344V28.3438L63.75 19.4375H74.8438ZM91.7969 76.7031C88.125 76.7031 85.1562 73.7734 85.2344 70.1406C85.1562 66.5469 88.125 63.6172 91.7969 63.6562C95.2734 63.6172 98.2812 66.5469 98.2812 70.1406C98.2812 73.7734 95.2734 76.7031 91.7969 76.7031ZM107.656 76L131.484 29.4375V29.0469H103.75V19.4375H143.672V29.2031L119.844 76H107.656Z" fill="white"/>
<path d="M162.402 55.3828V59.1289H167.133V55.3828H169.539V66.9492H159.941V55.3828H162.402ZM162.402 64.8438H167.133V61.1523H162.402V64.8438ZM163.141 72.0352V69.9297H179.793V78.3242H177.223V72.0352H163.141ZM172.055 68.3984V54.2891H174.461V60.0859H177.332V53.8516H179.793V68.5625H177.332V62.2188H174.461V68.3984H172.055ZM195.516 55.9844V67.4141H184.059V55.9844H195.516ZM186.602 65.3633H192.973V58.0898H186.602V65.3633ZM186.82 77.8047V70.0391H189.418V75.6992H203.391V77.8047H186.82ZM199.754 71.7617V53.7969H202.352V61.125H205.906V63.3125H202.352V71.7617H199.754ZM229.641 67.5781V69.6836H207.246V67.5781H217.145V65.2266H210.172V54.6992H226.906V56.7227H212.797V58.9648H226.277V60.9336H212.797V63.2305H227.07V65.2266H219.742V67.5781H229.641ZM210.117 77.8047V71.1875H212.688V75.6992H227.316V77.8047H210.117Z" fill="white"/>
<path d="M60.76 135.2V137.2H44.52V135.2H51.36V133.74C48.16 133.48 46.14 132.16 46.16 130.12C46.14 127.88 48.72 126.48 52.64 126.48C56.52 126.48 59.08 127.88 59.08 130.12C59.08 132.16 57.06 133.48 53.88 133.74V135.2H60.76ZM46.48 143.48V138.28H49V141.48H58.88V143.48H46.48ZM48.76 130.12C48.72 131.26 50.16 131.8 52.64 131.8C55.08 131.8 56.52 131.26 56.52 130.12C56.52 129.04 55.08 128.46 52.64 128.44C50.16 128.46 48.72 129.04 48.76 130.12ZM76.1852 126V135.04H73.7052V126H76.1852ZM61.2252 133.12C64.2052 132.22 65.5252 129.98 65.5452 127.76V126.4H68.1052V127.76C68.1052 129.94 69.4052 132 72.3052 132.84L71.1052 134.76C69.0452 134.16 67.6452 132.92 66.8452 131.32C66.0452 133.06 64.5852 134.44 62.4652 135.08L61.2252 133.12ZM64.2652 137.72V135.8H76.1852V140.6H66.7452V141.72H76.6652V143.68H64.3052V138.76H73.7052V137.72H64.2652ZM92.1303 126V132.84H94.6503V134.88H92.1303V143.76H89.6103V126H92.1303ZM77.8903 138.8C82.1103 136.68 84.3503 133.84 84.8303 129.88H78.9303V127.84H87.3703C87.3503 133.16 85.2903 137.76 79.3303 140.68L77.8903 138.8ZM104.235 128.36C104.235 130.98 106.535 133.76 110.555 134.44L109.475 136.52C106.375 135.9 104.075 134.16 102.915 131.88C101.755 134.14 99.4355 135.88 96.3555 136.52L95.2755 134.44C99.2555 133.74 101.555 130.94 101.595 128.36V127.08H104.235V128.36ZM94.8755 141.6V139.56H111.155V141.6H94.8755ZM118.61 127.6V131.6H121.05V127.6H123.37V139.6H116.29V127.6H118.61ZM118.61 137.6H121.05V133.56H118.61V137.6ZM124.85 142.96V126.28H127.21V132.8H128.81V126H131.17V143.8H128.81V134.84H127.21V142.96H124.85ZM148.755 133.6V135.4H141.875V136.52H146.795V140.88H136.875V141.84H147.275V143.68H134.435V139.2H144.355V138.32H134.435V136.52H139.435V135.4H132.595V133.6H148.755ZM133.235 131.28C136.795 131.14 138.595 130.28 139.115 129.24H134.115V127.4H139.395V126H141.875V127.4H147.195V129.24H142.175C142.675 130.28 144.495 131.14 148.075 131.28L147.355 133.12C144.075 132.94 141.775 132.1 140.655 130.78C139.535 132.1 137.235 132.94 133.915 133.12L133.235 131.28ZM168.33 126V135.04H165.85V126H168.33ZM153.37 133.12C156.35 132.22 157.67 129.98 157.69 127.76V126.4H160.25V127.76C160.25 129.94 161.55 132 164.45 132.84L163.25 134.76C161.19 134.16 159.79 132.92 158.99 131.32C158.19 133.06 156.73 134.44 154.61 135.08L153.37 133.12ZM156.41 137.72V135.8H168.33V140.6H158.89V141.72H168.81V143.68H156.45V138.76H165.85V137.72H156.41ZM180.475 127V129H176.955C176.975 131.08 178.235 133.22 181.035 134.16L179.795 136.08C177.835 135.46 176.495 134.18 175.715 132.58C174.935 134.36 173.515 135.78 171.435 136.44L170.155 134.48C173.055 133.54 174.395 131.22 174.435 129H170.835V127H180.475ZM172.995 139.4V137.4H185.235V143.8H182.755V139.4H172.995ZM179.995 132.32V130.28H182.755V126H185.235V136.6H182.755V132.32H179.995Z" fill="white"/>
</svg>
