<svg width="88" height="32" viewBox="0 0 88 32" fill="none" xmlns="http://www.w3.org/2000/svg">
<path d="M26.4375 0.0351562V23.2383H22.5V0.0351562H26.4375ZM0 15.75C5.15039 13.9395 7.78711 9.45703 7.76953 4.88672V1.79297H11.8125V4.88672C11.7949 9.31641 14.3965 13.5 19.4414 15.1875L17.4375 18.2812C13.8164 17.0156 11.2324 14.4844 9.82617 11.2324C8.41992 14.7129 5.7832 17.4902 2.03906 18.8438L0 15.75ZM5.41406 31.1484V21.0234H9.35156V27.9844H27.3164V31.1484H5.41406ZM41.7136 7.62891C41.6784 13.3066 44.5261 19.0371 49.448 21.4102L47.0573 24.5391C43.612 22.7988 41.1335 19.4414 39.78 15.3984C38.3913 19.7227 35.7898 23.3086 32.1511 25.1367L29.7605 22.0078C34.8757 19.582 37.7937 13.5 37.8113 7.62891V2.56641H41.7136V7.62891ZM51.3464 31.7812V0H55.2488V12.4453H60.1355V15.7852H55.2488V31.7812H51.3464ZM69.5756 1.40625C73.6889 1.38867 76.9233 3.76172 77.7143 7.24219H83.4623V0H87.3647V17.0508H83.4623V10.4062H77.7495C76.9936 13.9746 73.7241 16.3828 69.5756 16.3828C64.7065 16.3828 61.1733 13.2539 61.1733 8.85938C61.1733 4.51758 64.7065 1.38867 69.5756 1.40625ZM64.8998 8.85938C64.8998 11.4082 66.8334 13.0957 69.5756 13.0781C72.2475 13.0957 74.1635 11.4082 74.1811 8.85938C74.1635 6.31055 72.2475 4.6582 69.5756 4.67578C66.8334 4.6582 64.8998 6.31055 64.8998 8.85938ZM66.4116 31.3945V18.5273H70.2788V21.9023H83.4623V18.5273H87.3647V31.3945H66.4116ZM70.2788 28.2305H83.4623V24.9258H70.2788V28.2305Z" fill="white"/>
</svg>
