<svg width="39" height="22" viewBox="0 0 39 22" fill="none" xmlns="http://www.w3.org/2000/svg">
<path d="M7.96875 5.08594C7.94531 8.87109 9.84375 12.6914 13.125 14.2734L11.5312 16.3594C9.23438 15.1992 7.58203 12.9609 6.67969 10.2656C5.75391 13.1484 4.01953 15.5391 1.59375 16.7578L0 14.6719C3.41016 13.0547 5.35547 9 5.36719 5.08594V1.71094H7.96875V5.08594ZM14.3906 21.1875V0H16.9922V8.29688H20.25V10.5234H16.9922V21.1875H14.3906ZM38.3091 0V21.1875H35.7075V0H38.3091ZM20.7544 15.3047C22.4419 15.293 24.352 15.293 26.3559 15.2344V13.2891C23.977 12.9141 22.4184 11.4609 22.4184 9.44531C22.4184 7.05469 24.5395 5.47266 27.6216 5.46094C30.7388 5.47266 32.895 7.05469 32.895 9.44531C32.895 11.4492 31.3364 12.8906 28.9575 13.2773V15.1406C30.8208 15.0586 32.6958 14.9062 34.4653 14.6719L34.6528 16.6172C30.0005 17.4023 24.938 17.4609 21.1294 17.4609L20.7544 15.3047ZM21.1997 4.5V2.4375H26.3559V0.0703125H28.9575V2.4375H34.0903V4.5H21.1997ZM24.9028 9.44531C24.8794 10.6641 26.0161 11.3789 27.6216 11.3672C29.2739 11.3789 30.3989 10.6641 30.3872 9.44531C30.3989 8.21484 29.2739 7.46484 27.6216 7.45312C26.0161 7.46484 24.8794 8.21484 24.9028 9.44531Z" fill="white"/>
</svg>
