<svg width="90" height="32" viewBox="0 0 90 32" fill="none" xmlns="http://www.w3.org/2000/svg">
<path d="M25.9102 0.0351562V22.9922H21.9727V0.0351562H25.9102ZM0 10.0547C0 5.43164 3.74414 2.12695 8.57812 2.10938C13.4121 2.12695 17.1387 5.43164 17.1211 10.0547C17.1387 14.748 13.4121 18.0352 8.57812 18.0352C3.74414 18.0352 0 14.748 0 10.0547ZM3.83203 10.0547C3.81445 12.8672 5.85352 14.625 8.57812 14.625C11.2324 14.625 13.2891 12.8672 13.2891 10.0547C13.2891 7.3125 11.2324 5.51953 8.57812 5.51953C5.85352 5.51953 3.81445 7.3125 3.83203 10.0547ZM4.88672 31.1484V20.6719H8.82422V27.9844H26.7891V31.1484H4.88672ZM58.8698 24.6797V27.9492H29.8308V24.6797H58.8698ZM32.2214 6.08203V2.95312H56.3386V6.08203H51.698V16.207H56.2331V19.3008H32.3269V16.207H36.7917V6.08203H32.2214ZM40.6941 16.207H47.8308V6.08203H40.6941V16.207ZM85.1147 0V12.1992H90.0014V15.4688H85.1147V31.8164H81.2475V0H85.1147ZM61.4897 5.94141V2.77734H76.1147V14.7656H65.4272V21.0938C70.4721 21.0586 74.392 20.8477 78.8217 20.0742L79.1733 23.2383C74.269 24.1172 69.9448 24.3281 64.1616 24.3281H61.56V11.6367H72.2123V5.94141H61.4897Z" fill="white"/>
</svg>
