<svg width="122" height="18" viewBox="0 0 122 18" fill="none" xmlns="http://www.w3.org/2000/svg">
<path d="M14.3355 0.722656V1.93359C14.3453 3.07617 14.3453 4.50195 13.9938 6.28906H16.2691V8.24219H-0.000389099V6.28906H11.484C11.7672 4.84375 11.8258 3.68164 11.8453 2.69531H1.9918V0.722656H14.3355ZM1.83555 11.4258V9.49219H14.2574V14.4727H4.33555V15.7227H14.7457V17.6367H1.85508V12.5977H11.7965V11.4258H1.83555ZM33.1543 13.75V15.8008H16.8848V13.75H23.7402V11.0742H18.7598V5.09766H28.8184V3.14453H18.7402V1.15234H31.2793V7.05078H21.2598V9.04297H31.6895V11.0742H26.2207V13.75H33.1543ZM48.7504 0V9.08203H46.2699V5.60547H42.9887V8.59375H34.5316V0.761719H37.0316V2.79297H40.5277V0.761719H42.9887V3.59375H46.2699V0H48.7504ZM36.9145 11.6992V9.74609H48.7504V14.5312H39.434V15.625H49.2777V17.5781H36.934V12.7344H46.2699V11.6992H36.9145ZM37.0316 6.64062H40.5277V4.72656H37.0316V6.64062ZM58.048 1.69922V11.377C59.6789 11.3477 61.1828 11.2305 62.8527 10.8789L63.1848 12.9688C60.9973 13.4473 59.0832 13.5254 56.798 13.5156H55.548V1.69922H58.048ZM60.548 7.63672V5.625H64.1027V0.332031H66.466V16.9922H64.1027V7.63672H60.548ZM67.9309 17.7734V0H70.2746V17.7734H67.9309ZM86.2418 9.17969V11.1523H73.6637V1.30859H86.1051V3.32031H76.2027V5.19531H85.6949V7.14844H76.2027V9.17969H86.2418ZM71.7496 15.7031V13.6719H88.0191V15.7031H71.7496ZM103.811 0.0195312V17.7734H101.271V13.8477H97.6582V11.9727H101.271V0.0195312H103.811ZM88.5566 9.02344C91.8867 9.02344 96.3008 9.00391 100.139 8.49609L100.275 10.3125C98.7129 10.5859 97.1113 10.7617 95.5293 10.8691V17.2461H93.0098V10.9961C91.5352 11.0449 90.1289 11.0547 88.8691 11.0547L88.5566 9.02344ZM89.8066 4.375C89.7969 2.23633 91.7109 0.732422 94.377 0.722656C97.0039 0.732422 98.9375 2.23633 98.9473 4.375C98.9375 6.5625 97.0039 8.00781 94.377 8.00781C91.7109 8.00781 89.7969 6.5625 89.8066 4.375ZM92.1504 4.375C92.1406 5.48828 93.0488 6.11328 94.377 6.11328C95.6562 6.11328 96.5645 5.48828 96.584 4.375C96.5645 3.29102 95.666 2.61719 94.377 2.61719C93.0488 2.61719 92.1406 3.29102 92.1504 4.375ZM120.071 1.5625V3.63281C120.061 6.2207 120.061 8.68164 119.25 12.5391L116.77 12.3047C117.121 10.8301 117.327 9.52148 117.454 8.32031L107.141 8.82812L106.829 6.83594L117.58 6.44531C117.62 5.46875 117.629 4.55078 117.629 3.63281V3.55469H107.375V1.5625H120.071ZM105.52 15.6445V13.6133H121.731V15.6445H105.52Z" fill="white"/>
</svg>
