<svg width="143" height="14" viewBox="0 0 143 14" fill="none" xmlns="http://www.w3.org/2000/svg">
<path d="M4.28125 3.95312C4.28125 6.16406 5.35938 8.54688 7.20312 9.64062L6.5 10.5938C5.15625 9.78125 4.19531 8.29688 3.71094 6.60156C3.20312 8.45312 2.17188 10.0469 0.78125 10.8906L0 9.96875C1.92188 8.84375 3.09375 6.38281 3.09375 4V1.3125H4.28125V3.95312ZM5.67188 6.03125V4.98438H8.03125V0.296875H9.1875V13.1875H8.03125V6.03125H5.67188ZM10.875 13.8906V0H12.0625V13.8906H10.875ZM25.075 0V13.8906H23.9031V0H25.075ZM13.1687 10C16.1922 8.21094 17.7078 5.70312 17.95 2.79688H13.7937V1.78125H19.1687C19.1687 2.49219 19.1062 3.19531 18.9812 3.875H21.0906V0.375H22.2625V13.1875H21.0906V8.375H18.5125V7.35938H21.0906V4.89062H18.7391C18.0672 7.24219 16.5437 9.32031 13.9187 10.8906L13.1687 10ZM34.6938 7.32812V9.89062C36.0375 9.82031 37.3969 9.71094 38.6781 9.51562L38.7719 10.4219C35.5922 11 32.1781 11.0234 29.6781 11.0156L29.5063 10C30.6703 9.99219 32.0453 9.98438 33.4906 9.9375V7.32812H34.6938ZM29.9281 6.84375C31.9828 6.23438 33.4281 4.71094 33.4594 2.84375H30.2719V1.82812H33.4906V0.109375H34.6938V1.82812H37.9594V2.84375H34.6938C34.7328 4.63281 36.2172 6.10156 38.2719 6.6875L37.6938 7.65625C36.0297 7.15625 34.7172 6.08594 34.0922 4.67969C33.4906 6.16406 32.1938 7.27344 30.5219 7.78125L29.9281 6.84375ZM39.6 13.9219V0H40.8188V13.9219H39.6ZM55.175 11.1094V12.1406H42.4562V11.1094H48.1906V7.92188H49.3937V11.1094H55.175ZM43.1594 7.45312C45.8391 7.02344 48.1594 5.40625 48.175 3.23438H43.6437V2.21875H48.1906V0.296875H49.3937V2.21875H53.9562V3.23438H49.425C49.425 5.40625 51.7453 7.02344 54.4094 7.45312L53.9406 8.42188C51.7219 8.03125 49.6828 6.90625 48.7922 5.16406C47.9172 6.90625 45.8781 8.03125 43.6437 8.42188L43.1594 7.45312ZM70.1844 0V13.8906H68.95V0H70.1844ZM58.8719 10.2812C62.6297 8.5 64.5516 5.83594 64.825 2.51562H59.5125V1.51562H66.075C66.0594 5.50781 64.2 9.04688 59.5438 11.2812L58.8719 10.2812ZM78.6969 0.609375C78.6891 2.33594 81.1969 3.66406 83.6969 3.96875L83.2594 4.90625C81.0719 4.60938 78.9313 3.63281 78.0563 2.13281C77.1656 3.63281 75.0172 4.60938 72.8531 4.90625L72.4313 3.96875C74.9234 3.66406 77.4313 2.33594 77.4313 0.609375V0.078125H78.6969V0.609375ZM71.7281 6.8125V5.8125H84.3844V6.8125H78.65V8.20312H82.7594V11.3594H74.5094V12.7656H83.1813V13.7344H73.2906V10.4375H81.5563V9.17188H73.2594V8.20312H77.4313V6.8125H71.7281ZM98.7219 0V5.5H101.05V6.53125H98.7219V13.9219H97.5031V0H98.7219ZM88.5813 10.4375V1.35938H95.0656V2.375H89.8V9.40625C92.3156 9.39844 94.0891 9.28906 96.1594 8.90625L96.3156 9.96875C94.1359 10.3594 92.3156 10.4375 89.675 10.4375H88.5813ZM107.969 1.29688C107.977 3.25781 110.523 4.94531 113.031 5.29688L112.531 6.29688C110.375 5.9375 108.234 4.74219 107.344 3.03906C106.453 4.75781 104.32 5.9375 102.156 6.29688L101.656 5.29688C104.164 4.94531 106.703 3.28906 106.703 1.29688V0.5H107.969V1.29688ZM101 8.85938V7.82812H113.656V8.85938H107.906V13.8906H106.703V8.85938H101ZM129.963 11.0938V12.1094H117.244V11.0938H122.963V8.09375H118.744V0.984375H119.978V3.5H127.197V0.984375H128.4V8.09375H124.166V11.0938H129.963ZM119.978 7.09375H127.197V4.5H119.978V7.09375ZM142.975 7.92188V8.9375H139.616V13.8906H138.381V8.9375H134.819V13.8906H133.553V8.9375H130.256V7.92188H142.975ZM131.694 3.59375C131.702 1.74219 133.663 0.570312 136.584 0.5625C139.498 0.570312 141.475 1.74219 141.475 3.59375C141.475 5.44531 139.498 6.60156 136.584 6.59375C133.663 6.60156 131.702 5.44531 131.694 3.59375ZM132.959 3.59375C132.944 4.82031 134.42 5.60938 136.584 5.60938C138.748 5.60938 140.217 4.82031 140.225 3.59375C140.217 2.35938 138.748 1.5625 136.584 1.5625C134.42 1.5625 132.944 2.35938 132.959 3.59375Z" fill="black"/>
</svg>
