<svg width="39" height="15" viewBox="0 0 39 15" fill="none" xmlns="http://www.w3.org/2000/svg">
<path d="M11.5781 0.0625V14.0625H10.1562V6.76562H8.42188V13.375H7.01562V0.328125H8.42188V5.54688H10.1562V0.0625H11.5781ZM0 10.375V1.64062H5.4375V10.375H0ZM1.40625 9.1875H4.04688V2.8125H1.40625V9.1875ZM25.7894 6.20312V7.3125H20.1488V8.48438H24.1956V11.6406H16.0394V12.7969H24.5863V13.9219H14.5863V10.6094H22.7269V9.5625H14.5706V8.48438H18.68V7.3125H13.055V6.20312H25.7894ZM13.68 4.53125C16.3597 4.38281 18.2503 3.5625 18.555 2.375H14.3206V1.23438H18.68V0H20.1488V1.23438H24.5238V2.375H20.2659C20.5628 3.5625 22.4534 4.38281 25.1644 4.53125L24.7113 5.65625C22.2738 5.47656 20.2894 4.76562 19.4144 3.53906C18.5394 4.76562 16.555 5.47656 14.1019 5.65625L13.68 4.53125ZM29.8756 0.921875C31.7272 0.929688 33.0944 2.30469 33.0944 4.28125C33.0944 6.25 31.7272 7.59375 29.8756 7.59375C28.0084 7.59375 26.6647 6.25 26.6725 4.28125C26.6647 2.30469 28.0084 0.929688 29.8756 0.921875ZM28.0006 4.28125C27.9928 5.5 28.7897 6.35156 29.8756 6.34375C30.9538 6.35156 31.735 5.5 31.7506 4.28125C31.735 3.03906 30.9538 2.20312 29.8756 2.20312C28.7897 2.20312 27.9928 3.03906 28.0006 4.28125ZM28.9694 10.3281V9.14062H38.485V14.0625H37.0163V10.3281H28.9694ZM34.0631 8.32812V0.328125H35.4538V3.60938H37.0788V0.078125H38.485V8.42188H37.0788V4.8125H35.4538V8.32812H34.0631Z" fill="black"/>
</svg>
