<svg width="370" height="98" viewBox="0 0 370 98" fill="none" xmlns="http://www.w3.org/2000/svg">
<path d="M6.96094 5.55469C6.97266 8.97656 8.14453 12.5391 11.0156 14.3438L9.58594 16.3359C7.67578 15.1875 6.43359 13.2188 5.73047 10.9102C4.96875 13.4531 3.60938 15.6094 1.61719 16.8281L0 14.8828C3.08203 13.0195 4.44141 9.28125 4.45312 5.67188V1.875H6.96094V5.55469ZM8.74219 9.44531V7.28906H11.7656V0.375H14.2266V20.1562H11.7656V9.44531H8.74219ZM16.125 21.1875V0H18.6328V21.1875H16.125ZM28.1138 3.375C28.1138 6.03516 29.8364 8.55469 33.1059 9.58594L31.6997 11.625C29.4145 10.8516 27.7739 9.30469 26.8481 7.33594C25.9341 9.58594 24.2231 11.3555 21.7856 12.2109L20.3794 10.1719C23.7895 8.98828 25.5005 6.16406 25.5122 3.14062V1.125H28.1138V3.375ZM23.2622 17.1328C23.2622 14.625 26.0161 13.1367 30.4341 13.1484C34.8169 13.1367 37.5239 14.625 37.5356 17.1328C37.5239 19.6992 34.8169 21.1641 30.4341 21.1641C26.0161 21.1641 23.2622 19.6992 23.2622 17.1328ZM25.8638 17.1328C25.8638 18.4453 27.5278 19.1016 30.4341 19.1016C33.3286 19.1016 34.9575 18.4453 34.9575 17.1328C34.9575 15.8906 33.3286 15.1875 30.4341 15.1875C27.5278 15.1875 25.8638 15.8906 25.8638 17.1328ZM34.7231 12.6797V0H37.3247V5.15625H40.2778V7.3125H37.3247V12.6797H34.7231ZM59.1572 0V21.1875H56.6494V0H59.1572ZM41.0869 9.16406C41.0869 4.5 42.8916 1.60547 45.6572 1.61719C48.2236 1.60547 49.9697 4.00781 50.2744 7.96875H52.3134V0.375H54.7978V20.1562H52.3134V10.0781H50.2978C50.0517 14.2148 48.2822 16.7461 45.6572 16.7344C42.8916 16.7461 41.0869 13.8398 41.0869 9.16406ZM43.5009 9.16406C43.4892 12.4805 44.3095 14.2617 45.6572 14.25C47.0634 14.2617 47.8955 12.4805 47.9072 9.16406C47.8955 5.85938 47.0634 4.06641 45.6572 4.07812C44.3095 4.06641 43.4892 5.85938 43.5009 9.16406ZM82.9472 0V8.27344H86.0878V10.4531H82.9472V21.1406H80.3456V0H82.9472ZM66.2363 15.3516C71.3925 12.7734 74.1816 9.1875 74.6972 4.35938H67.3847V2.20312H77.3456C77.3339 8.42578 74.7558 13.8984 67.7128 17.3672L66.2363 15.3516ZM104.217 0V21.1875H101.616V0H104.217ZM86.8266 15.1641C90.2016 13.6758 92.1469 10.1133 92.1469 6.72656V5.625H87.4828V3.53906H92.1469V0.445312H94.725V3.53906H99.2953V5.625H94.7484V6.72656C94.7367 9.94922 96.7172 13.4062 100.139 14.8359L98.7094 16.8281C96.2836 15.7969 94.4555 13.6875 93.4828 11.1328C92.5336 13.8398 90.7055 16.1016 88.2328 17.1797L86.8266 15.1641ZM126.214 9.60938V11.5781H106.854V9.60938H126.214ZM109.104 14.6719V12.8438H123.87V17.6719H111.729V19.1484H124.503V20.9531H109.128V15.9844H121.292V14.6719H109.104ZM109.245 2.27344V0.46875H123.823V5.25H111.893V6.63281H124.198V8.41406H109.315V3.5625H121.222V2.27344H109.245ZM143.066 1.92188V4.05469H136.012V13.9219C139.328 13.8984 141.66 13.7578 144.285 13.2656L144.566 15.375C141.59 15.9609 139.023 16.0781 135.074 16.0781H133.387V1.92188H143.066ZM141.941 9.58594V7.45312H147.543V0H150.144V21.2109H147.543V9.58594H141.941ZM169.211 0V8.4375H172.469V10.5938H169.211V21.1875H166.633V0H169.211ZM152.5 5.34375V3.25781H157.516V0.304688H160.117V3.25781H164.992V5.34375H152.5ZM153.485 11.7188C153.461 8.78906 155.735 6.71484 158.828 6.72656C161.875 6.71484 164.137 8.78906 164.149 11.7188C164.137 14.6367 161.875 16.6875 158.828 16.6875C155.735 16.6875 153.461 14.6367 153.485 11.7188ZM155.969 11.7188C155.957 13.4414 157.164 14.543 158.828 14.5312C160.457 14.543 161.641 13.4414 161.664 11.7188C161.641 9.99609 160.457 8.85938 158.828 8.85938C157.164 8.85938 155.957 9.99609 155.969 11.7188ZM189.473 0V8.03906H192.731V10.1719H189.473V21.2109H186.872V0H189.473ZM173.747 16.0312V2.01562H183.661V4.125H176.348V13.8516C179.641 13.8398 182.255 13.6758 185.161 13.1719L185.466 15.375C182.173 15.9375 179.325 16.0312 175.505 16.0312H173.747ZM18 38.0234V53.3281H15.375V38.0234H18ZM0.726562 44.7031C0.726562 41.6211 3.22266 39.418 6.44531 39.4062C9.66797 39.418 12.1523 41.6211 12.1406 44.7031C12.1523 47.832 9.66797 50.0234 6.44531 50.0234C3.22266 50.0234 0.726562 47.832 0.726562 44.7031ZM3.28125 44.7031C3.26953 46.5781 4.62891 47.75 6.44531 47.75C8.21484 47.75 9.58594 46.5781 9.58594 44.7031C9.58594 42.875 8.21484 41.6797 6.44531 41.6797C4.62891 41.6797 3.26953 42.875 3.28125 44.7031ZM3.98438 58.7656V51.7812H6.60938V56.6562H18.5859V58.7656H3.98438ZM39.9497 50.5156V52.5547H35.2856V59.1875H32.6606V52.5547H27.9028V59.1875H25.3013V52.5547H20.5903V50.5156H39.9497ZM22.8638 40.8359V38.7031H37.6997V44.6328H25.5356V46.6484H38.1684V48.7578H22.9106V42.6875H35.0278V40.8359H22.8638ZM47.7431 39.4766C51.1064 39.4648 53.5556 41.5859 53.5791 44.5859C53.5556 47.5977 51.1064 49.707 47.7431 49.7188C44.415 49.707 41.9189 47.5977 41.9306 44.5859C41.9189 41.5859 44.415 39.4648 47.7431 39.4766ZM40.9697 52.6484C44.79 52.6484 50.0752 52.6016 54.6572 51.9453L54.8681 53.8438C50.122 54.7461 45.0361 54.7812 41.2978 54.7812L40.9697 52.6484ZM44.5088 44.5859C44.497 46.3555 45.8916 47.4453 47.7431 47.4453C49.6181 47.4453 51.0127 46.3555 51.0244 44.5859C51.0127 42.8281 49.6298 41.7266 47.7431 41.7266C45.8916 41.7266 44.497 42.8281 44.5088 44.5859ZM55.9228 59.2109V38H58.5244V59.2109H55.9228ZM74.3456 44.0234C74.3456 47.4922 76.3847 51.1484 79.8066 52.5781L78.3769 54.6406C75.8691 53.5508 74.0409 51.3359 73.0683 48.6406C72.0956 51.5469 70.2323 53.9844 67.7597 55.1562L66.2597 53.1172C69.5995 51.5703 71.6855 47.6211 71.6972 44.0234V42.2422H67.0331V40.0859H78.9863V42.2422H74.3456V44.0234ZM81.3534 59.1875V38H83.9784V59.1875H81.3534ZM105.928 48.4062V50.5156H86.6156V48.4062H94.9594V45.4531H97.5375V48.4062H105.928ZM87.6703 44.6328C92.0414 44.082 94.9125 41.6797 94.9125 39.1484V38.3516H97.5609V39.1484C97.5609 41.7383 100.409 44.082 104.827 44.6328L103.819 46.6719C100.35 46.1445 97.5727 44.5742 96.225 42.3477C94.8656 44.5625 92.1 46.1445 88.6078 46.6719L87.6703 44.6328ZM88.7484 54.2422V52.2031H103.561V59.1875H100.959V54.2422H88.7484ZM128.687 38V46.2734H131.827V48.4531H128.687V59.1406H126.085V38H128.687ZM111.976 53.3516C117.132 50.7734 119.921 47.1875 120.437 42.3594H113.124V40.2031H123.085C123.074 46.4258 120.495 51.8984 113.452 55.3672L111.976 53.3516ZM149.488 43.5078V45.6172H134.863V38.375H137.465V43.5078H149.488ZM132.355 49.7656V47.6562H151.691V49.7656H132.355ZM134.605 55.2031C134.605 52.707 137.383 51.3008 141.988 51.2891C146.558 51.3008 149.312 52.707 149.324 55.2031C149.312 57.6875 146.558 59.0938 141.988 59.0938C137.383 59.0938 134.605 57.6875 134.605 55.2031ZM137.254 55.2031C137.242 56.4219 138.906 57.0898 141.988 57.1016C145.023 57.0898 146.699 56.4219 146.723 55.2031C146.699 53.9492 145.023 53.3398 141.988 53.3281C138.906 53.3398 137.242 53.9492 137.254 55.2031ZM169.328 38.0234V44.6797H172.282V46.8359H169.328V53.8438H166.727V38.0234H169.328ZM152.641 42.4531V40.3672H157.633V38H160.235V40.3672H165.203V42.4531H152.641ZM153.719 47.375C153.719 44.9375 155.84 43.3203 158.922 43.3203C161.981 43.3203 164.09 44.9375 164.102 47.375C164.09 49.8008 161.981 51.3828 158.922 51.3828C155.84 51.3828 153.719 49.8008 153.719 47.375ZM155.758 58.7656V52.6016H158.36V56.6562H170.172V58.7656H155.758ZM156.25 47.375C156.239 48.6523 157.317 49.3789 158.922 49.3672C160.528 49.3789 161.617 48.6523 161.617 47.375C161.617 46.0859 160.528 45.3359 158.922 45.3359C157.317 45.3359 156.239 46.0859 156.25 47.375ZM189.298 39.9922V54.0312H179.22V39.9922H189.298ZM181.798 51.9453H186.767V42.0312H181.798V51.9453ZM193.095 59.2109V38H195.72V59.2109H193.095ZM206.982 40.1562V48.0547H201.498V52.1797C203.642 52.1562 205.693 52.0742 208.06 51.6875L208.248 53.7969C205.388 54.2773 203.068 54.3477 200.443 54.3594H198.99V45.9453H204.474V42.2656H198.967V40.1562H206.982ZM209.326 58.1094V38.3984H211.717V46.1328H214.107V38H216.592V59.1875H214.107V48.2422H211.717V58.1094H209.326ZM237.955 47.6094V49.5781H218.596V47.6094H237.955ZM220.846 52.6719V50.8438H235.612V55.6719H223.471V57.1484H236.244V58.9531H220.869V53.9844H233.033V52.6719H220.846ZM220.987 40.2734V38.4688H235.565V43.25H223.635V44.6328H235.94V46.4141H221.057V41.5625H232.963V40.2734H220.987ZM263.691 41.3047V43.4375H260.808V45.8516H263.691V47.9844H260.808V51.5234H258.206V38H260.808V41.3047H263.691ZM244.12 42.1953V40.1562H249.113V37.8594H251.714V40.1562H256.683V42.1953H244.12ZM245.198 46.8359C245.198 44.5625 247.308 43.0508 250.402 43.0391C253.46 43.0508 255.57 44.5625 255.581 46.8359C255.57 49.1094 253.46 50.6094 250.402 50.6094C247.308 50.6094 245.198 49.1094 245.198 46.8359ZM246.886 55.4375C246.863 53.082 249.57 51.6992 253.964 51.7109C258.312 51.6992 261.042 53.082 261.042 55.4375C261.042 57.7695 258.312 59.1641 253.964 59.1641C249.57 59.1641 246.863 57.7695 246.886 55.4375ZM247.73 46.8359C247.718 47.9844 248.796 48.6523 250.402 48.6406C252.007 48.6523 253.097 47.9844 253.097 46.8359C253.097 45.6641 252.007 44.9609 250.402 44.9609C248.796 44.9609 247.718 45.6641 247.73 46.8359ZM249.464 55.4375C249.452 56.5625 251.07 57.1953 253.964 57.1953C256.823 57.1953 258.429 56.5625 258.441 55.4375C258.429 54.2773 256.823 53.7031 253.964 53.7031C251.07 53.7031 249.452 54.2773 249.464 55.4375ZM274.695 41.375V43.4609H264.312V41.375H268.25V38.6094H270.828V41.375H274.695ZM264.922 49.5078C264.898 46.625 266.855 44.5742 269.539 44.5859C272.234 44.5742 274.156 46.625 274.156 49.5078C274.156 52.4492 272.234 54.5 269.539 54.5C266.855 54.5 264.898 52.4492 264.922 49.5078ZM267.218 49.5078C267.207 51.2188 268.168 52.2852 269.539 52.2734C270.898 52.2852 271.859 51.2188 271.859 49.5078C271.859 47.8438 270.898 46.7422 269.539 46.7422C268.168 46.7422 267.207 47.8438 267.218 49.5078ZM275.586 58.2266V38.4453H278.023V46.7188H280.086V38H282.57V59.1875H280.086V48.8281H278.023V58.2266H275.586ZM309.571 46.1797V48.3125H306.43V59.1406H303.829V38H306.43V46.1797H309.571ZM290.587 53.9141V40.0625H293.165V51.7578C295.989 51.7109 298.989 51.4648 302.188 50.7969L302.469 53C298.895 53.7148 295.508 53.9023 292.368 53.9141H290.587ZM315.794 39.5469C318.982 39.5469 321.278 42.4531 321.302 47.0234C321.278 51.6289 318.982 54.5234 315.794 54.5234C312.571 54.5234 310.275 51.6289 310.286 47.0234C310.275 42.4531 312.571 39.5469 315.794 39.5469ZM312.794 47.0234C312.782 50.2812 314.013 52.168 315.794 52.1797C317.587 52.168 318.782 50.2812 318.794 47.0234C318.782 43.7891 317.587 41.8906 315.794 41.8906C314.013 41.8906 312.782 43.7891 312.794 47.0234ZM324.091 59.1875V38H326.693V46.1328H329.95V48.3359H326.693V59.1875H324.091ZM346.955 38V46.2734H350.095V48.4531H346.955V59.1406H344.353V38H346.955ZM330.244 53.3516C335.4 50.7734 338.189 47.1875 338.705 42.3594H331.392V40.2031H341.353C341.341 46.4258 338.763 51.8984 331.72 55.3672L330.244 53.3516ZM367.779 44V46.0625H353.108V38.7734H355.686V44H367.779ZM350.6 50.5859V48.5234H369.959V50.5859H350.6ZM352.92 58.6953V52.4609H355.522V56.5859H367.92V58.6953H352.92ZM19.7109 92.5469V94.7266H0.351562V92.5469H8.67188V88.375H2.01562V86.3125H4.99219V79.9844H1.94531V77.875H18.0234V79.9844H14.9297V86.3125H17.9531V88.375H11.25V92.5469H19.7109ZM7.59375 86.3125H12.3516V79.9844H7.59375V86.3125ZM31.5591 78.9062C31.5591 82.1758 34.7583 85.4688 39.1997 86.2422L38.0278 88.4219C34.477 87.6836 31.5708 85.5273 30.188 82.6797C28.7934 85.5039 25.8872 87.6719 22.3481 88.4219L21.1997 86.2422C25.5708 85.4453 28.7817 82.1641 28.7934 78.9062V77.3359H31.5591V78.9062ZM20.6138 94.4922V92.3359H39.9731V94.4922H20.6138ZM58.1025 77.875V79.7969C58.0908 82.3633 58.1259 85.3281 57.165 89.8047L54.6103 89.5469C54.9853 87.8359 55.208 86.3242 55.3369 84.9766L42.8447 85.6797L42.4697 83.4531L55.4892 82.9844C55.5361 81.8828 55.5478 80.8984 55.5478 79.9844H43.1259V77.875H58.1025ZM40.8759 94.5859V92.4297H48.0009V87.2031H50.5791V92.4297H60.1884V94.5859H40.8759ZM84.6113 77.3359V79.1875H67.3144V77.3359H74.6972V75.7422H77.2988V77.3359H84.6113ZM66.3534 88.2109V86.3359H74.6972V85.1875C70.912 85.0234 68.955 84.1797 68.955 82.5156C68.955 80.6758 71.3573 79.832 75.9863 79.8203C80.6152 79.832 83.0292 80.6758 83.0409 82.5156C83.0292 84.168 81.0722 85.0234 77.2988 85.1875V86.3359H85.6659V88.2109H66.3534ZM68.6269 91.0703V89.2422H83.2519V93.9062H71.2988V95.1484H83.8378V97H68.6503V92.1719H80.6034V91.0703H68.6269ZM71.7441 82.5156C71.7441 83.207 73.0097 83.5469 75.9863 83.5469C78.9628 83.5469 80.2753 83.207 80.2988 82.5156C80.2753 81.8242 78.9628 81.5195 75.9863 81.5312C73.0097 81.5195 71.7441 81.8242 71.7441 82.5156ZM104.264 76V88.7969H101.639V76H104.264ZM87.8578 87.2266V77.6172H97.9359V79.7266H90.4359V85.1172C94.6195 85.1172 97.0687 84.9648 99.8109 84.4141L100.045 86.5469C97.0805 87.1211 94.4437 87.2266 89.6625 87.2266H87.8578ZM89.85 93.0625C89.85 90.4609 92.5922 88.9258 97.0922 88.9375C101.522 88.9258 104.311 90.4609 104.311 93.0625C104.311 95.6523 101.522 97.1758 97.0922 97.1875C92.5922 97.1758 89.85 95.6523 89.85 93.0625ZM92.475 93.0625C92.475 94.3984 94.1156 95.1367 97.0922 95.125C100.045 95.1367 101.745 94.3984 101.756 93.0625C101.745 91.6797 100.045 90.9883 97.0922 90.9766C94.1156 90.9883 92.475 91.6797 92.475 93.0625ZM117.823 78.9062C117.823 82.1758 121.022 85.4688 125.464 86.2422L124.292 88.4219C120.741 87.6836 117.835 85.5273 116.452 82.6797C115.058 85.5039 112.151 87.6719 108.612 88.4219L107.464 86.2422C111.835 85.4453 115.046 82.1641 115.058 78.9062V77.3359H117.823V78.9062ZM106.878 94.4922V92.3359H126.237V94.4922H106.878ZM134.007 77.4766C137.37 77.4648 139.82 79.5859 139.843 82.5859C139.82 85.5977 137.37 87.707 134.007 87.7188C130.679 87.707 128.183 85.5977 128.195 82.5859C128.183 79.5859 130.679 77.4648 134.007 77.4766ZM127.234 90.6484C131.054 90.6484 136.339 90.6016 140.921 89.9453L141.132 91.8438C136.386 92.7461 131.3 92.7812 127.562 92.7812L127.234 90.6484ZM130.773 82.5859C130.761 84.3555 132.156 85.4453 134.007 85.4453C135.882 85.4453 137.277 84.3555 137.288 82.5859C137.277 80.8281 135.894 79.7266 134.007 79.7266C132.156 79.7266 130.761 80.8281 130.773 82.5859ZM142.187 97.2109V76H144.788V97.2109H142.187ZM160.657 80.3125C160.657 82.9492 162.461 85.5273 165.836 86.5703L164.5 88.6094C162.098 87.8359 160.352 86.2422 159.379 84.2266C158.43 86.418 156.625 88.1641 154.117 89.0312L152.782 86.9688C156.192 85.8438 158.008 83.1016 158.032 80.3125V79.7031H153.461V77.6172H165.11V79.7031H160.657V80.3125ZM156.25 96.7656V89.9922H158.875V94.6562H170.852V96.7656H156.25ZM167.641 91.3984V76.0234H170.266V91.3984H167.641ZM190.528 76.0234V88H187.903V76.0234H190.528ZM172.88 85.5156C176.313 84.4258 178.095 81.6719 178.083 78.8828V76.8203H180.778V78.8828C180.766 81.5898 182.571 84.1094 185.887 85.1641L184.622 87.1562C182.173 86.3945 180.415 84.8359 179.454 82.8086C178.505 84.9883 176.712 86.7344 174.169 87.5781L172.88 85.5156ZM176.466 96.9297V89.0547H190.528V96.9297H176.466ZM179.044 94.8203H187.973V91.1172H179.044V94.8203ZM210.79 76V87.3672H208.165V76H210.79ZM193.517 81.9062C193.517 78.9648 195.954 76.9258 199.236 76.9375C202.505 76.9258 204.943 78.9648 204.931 81.9062C204.943 84.8008 202.505 86.8398 199.236 86.8281C195.954 86.8398 193.517 84.8008 193.517 81.9062ZM196.072 81.9062C196.06 83.6055 197.384 84.6836 199.236 84.6953C201.052 84.6836 202.376 83.6055 202.376 81.9062C202.376 80.207 201.052 79.1055 199.236 79.1172C197.384 79.1055 196.06 80.207 196.072 81.9062ZM196.775 96.9297V88.3516H199.353V90.5312H208.189V88.3516H210.79V96.9297H196.775ZM199.353 94.8203H208.189V92.5703H199.353V94.8203ZM231.076 76V97.1875H228.498V76H231.076ZM214.623 91.8672V78.0625H217.201V89.6406C220.166 89.5938 223.33 89.3359 226.599 88.6797L226.928 90.8594C223.201 91.6328 219.744 91.8789 216.451 91.8672H214.623ZM250.26 76V84.0391H253.518V86.1719H250.26V97.2109H247.658V76H250.26ZM234.533 92.0312V78.0156H244.447V80.125H237.135V89.8516C240.428 89.8398 243.041 89.6758 245.947 89.1719L246.252 91.375C242.959 91.9375 240.112 92.0312 236.291 92.0312H234.533Z" fill="white"/>
</svg>
