<svg width="138" height="145" viewBox="0 0 138 145" fill="none" xmlns="http://www.w3.org/2000/svg">
<path d="M106.89 60.6026L36.4314 59.762C26.1294 59.6136 25.1165 53.1607 28.1305 46.955C34.7761 33.3816 50.9084 23.591 69.4618 23.8135C88.0399 24.0113 98.0702 34.9392 104.296 40.9966C110.818 47.4248 124.554 49.4274 130.582 46.4111C133.645 44.9029 133.472 40.7246 130.681 35.4337C118.822 12.8114 93.8456 0.301128 68.3007 0.00444201C46.4863 -0.242796 21.7566 9.81981 6.88425 32.9366C-5.44351 52.0976 -4.75177 83.9419 38.8524 84.4611L100.738 85.2028C109.014 85.5737 111.164 89.6036 108.249 96.8972C102.937 110.075 84.5566 120.558 68.5478 120.385C48.8332 120.113 38.9513 110.174 31.4904 102.312C23.8566 94.3753 10.0218 94.2517 5.5502 95.9329C1.07861 97.5894 3.17851 104.438 5.03138 108.072C16.8897 131.189 42.7558 143.947 67.2384 144.268C93.3021 144.54 116.624 131.956 130.261 109.877C143.947 87.7493 138.043 60.9734 106.89 60.5778V60.6026Z" fill="#00A5E5"/>
</svg>
