<svg width="297" height="54" viewBox="0 0 297 54" fill="none" xmlns="http://www.w3.org/2000/svg">
<path d="M48.8086 41.6602V47.9297H0V41.6602H20.5078V32.0508H4.04297V26.1914H11.1914V10.957H3.80859V4.98047H44.707V10.957H37.207V26.1914H44.4727V32.0508H27.9492V41.6602H48.8086ZM18.6914 26.1914H29.8242V10.957H18.6914V26.1914ZM77.5219 7.55859C77.4926 15.3809 84.4359 23.7305 96.5062 25.7812L93.225 31.9922C83.9086 30.1465 77.0238 24.9023 73.5668 18.0762C70.0512 24.8438 63.1371 30.1172 53.9086 31.9922L50.6859 25.7812C62.5512 23.6719 69.4945 15.293 69.5531 7.55859V3.69141H77.5219V7.55859ZM49.4555 47.2852V41.1328H98.2641V47.2852H49.4555ZM142.68 4.98047V9.72656C142.651 16.1426 142.768 23.7012 140.278 35.2148L132.954 34.4531C133.833 30.4102 134.389 26.8066 134.741 23.5547L103.774 25.3125L102.72 18.9258L135.18 17.8711C135.327 15.3516 135.327 13.0664 135.356 10.957H104.477V4.98047H142.68ZM98.9109 47.6953V41.6016H116.313V28.7109H123.755V41.6016H147.544V47.6953H98.9109ZM194.48 3.69141V8.90625H150.71V3.69141H168.933V0H176.433V3.69141H194.48ZM148.366 31.3477V26.0156H168.933V23.584C159.499 23.1152 154.695 21.0352 154.753 16.9336C154.695 12.3047 160.759 10.2246 172.683 10.2539C184.519 10.2246 190.583 12.3047 190.613 16.9336C190.583 21.0059 185.808 23.1152 176.433 23.584V26.0156H196.999V31.3477H148.366ZM153.991 38.7305V33.5742H191.081V45.7617H161.609V48.2812H192.488V53.4961H154.05V40.8984H183.464V38.7305H153.991ZM162.722 16.9336C162.722 18.3398 165.417 18.9551 172.683 18.9258C179.861 18.9551 182.702 18.3398 182.702 16.9336C182.702 15.498 179.861 15 172.683 15C165.417 15 162.722 15.498 162.722 16.9336ZM242.47 0.527344V32.4023H234.97V0.527344H242.47ZM200.869 29.1211V4.51172H226.357V10.4883H208.252V23.1445C218.359 23.1152 224.248 22.7051 230.752 21.4453L231.396 27.4219C224.189 28.8867 217.656 29.1504 205.498 29.1211H200.869ZM205.966 43.418C205.937 36.7969 212.91 32.9004 224.306 32.9297C235.527 32.9004 242.587 36.7969 242.646 43.418C242.587 50.0098 235.527 53.9062 224.306 53.9062C212.91 53.9062 205.937 50.0098 205.966 43.418ZM213.466 43.418C213.466 46.5234 217.187 48.1055 224.306 48.1055C231.367 48.1055 235.234 46.5234 235.263 43.418C235.234 40.2246 231.367 38.7891 224.306 38.7891C217.187 38.7891 213.466 40.2246 213.466 43.418ZM275.344 7.55859C275.314 15.3809 282.258 23.7305 294.328 25.7812L291.047 31.9922C281.73 30.1465 274.846 24.9023 271.389 18.0762C267.873 24.8438 260.959 30.1172 251.73 31.9922L248.508 25.7812C260.373 23.6719 267.316 15.293 267.375 7.55859V3.69141H275.344V7.55859ZM247.277 47.2852V41.1328H296.086V47.2852H247.277Z" fill="#05507D"/>
</svg>
