<svg width="132" height="16" viewBox="0 0 132 16" fill="none" xmlns="http://www.w3.org/2000/svg">
<path d="M11.0469 0.6875V1.6875C11.0469 2.71875 11.0469 3.96875 10.7031 5.64062H12.7188V6.64062H6.9375V9.20312H11.1406V13.8906H9.90625V10.2188H1.3125V9.20312H5.71875V6.64062H0V5.64062H9.46875C9.83594 3.94531 9.83594 2.71875 9.82812 1.6875H1.60938V0.6875H11.0469ZM24.8875 0V13.8906H23.6844V6.70312H21.6844V13.1719H20.5281V0.3125H21.6844V5.65625H23.6844V0H24.8875ZM13.7312 10.2969V1.70312H14.95V9.20312C16.325 9.19531 17.8094 9.09375 19.4969 8.75L19.6531 9.84375C17.7156 10.1953 16.1219 10.2969 14.5906 10.2969H13.7312ZM33.4594 12.7812C31.4203 12.7812 29.8734 11.5234 29.7875 9.78125H31.1469C31.2484 10.7891 32.2328 11.5391 33.4594 11.5469C34.9281 11.5391 35.9906 10.4688 35.9906 9.04688C35.9906 7.57812 34.8891 6.49219 33.3656 6.48438C32.4125 6.46875 31.6703 6.76562 31.2563 7.5H29.8969L30.6938 1.3125H36.8188V2.5625H31.8656L31.4438 5.875H31.5531C32.0609 5.48438 32.8188 5.21875 33.6156 5.21875C35.7719 5.21875 37.3578 6.8125 37.3656 9.01562C37.3578 11.2031 35.7172 12.7812 33.4594 12.7812ZM38.8781 12.625L44.0656 2.64062V2.5625H38.0812V1.3125H45.5187V2.625L40.3469 12.625H38.8781ZM57.9062 0V13.8906H56.7031V6.625H54.7812V13.2031H53.6094V0.375H54.7812V5.60938H56.7031V0H57.9062ZM46.0625 10.0469C49.2891 8.24219 50.6172 5.70312 50.8281 2.82812H46.5938V1.8125H52.0312C52.0156 5.34375 50.7734 8.67969 46.7812 10.9062L46.0625 10.0469ZM61.3563 11.5781L60.1375 15.8281H58.9813L59.8406 11.5781H61.3563ZM72.5219 2.40625V3.40625H65.5531V2.40625H68.4437V0.421875H69.6625V2.40625H72.5219ZM66.0531 7.5C66.0531 5.65625 67.3109 4.35156 69.0375 4.34375C70.7875 4.35156 72.0375 5.65625 72.0531 7.5C72.0375 9.36719 70.7875 10.6797 69.0375 10.6875C67.3109 10.6797 66.0531 9.36719 66.0531 7.5ZM67.1469 7.5C67.1469 8.73438 67.9359 9.61719 69.0375 9.60938C70.1469 9.61719 70.9594 8.73438 70.9594 7.5C70.9594 6.28125 70.1469 5.39062 69.0375 5.375C67.9359 5.39062 67.1469 6.28125 67.1469 7.5ZM73.2406 13.2031V0.34375H74.3969V5.85938H76.2406V0H77.4125V13.8906H76.2406V6.875H74.3969V13.2031H73.2406ZM83.1594 0.90625C85.3391 0.921875 86.8859 2.23438 86.8938 4.17188C86.8859 5.92188 85.6203 7.16406 83.7688 7.38281V9.75C85.1438 9.67969 86.55 9.5625 87.8625 9.35938L87.9563 10.2656C84.7766 10.8594 81.3625 10.8672 78.8625 10.875L78.6906 9.84375C79.8234 9.84375 81.1438 9.84375 82.5344 9.79688V7.38281C80.675 7.15625 79.4016 5.92188 79.4094 4.17188C79.4016 2.23438 80.9641 0.921875 83.1594 0.90625ZM80.6125 4.17188C80.6047 5.46094 81.675 6.36719 83.1594 6.35938C84.6281 6.36719 85.6984 5.46094 85.6906 4.17188C85.6984 2.86719 84.6281 1.98438 83.1594 1.98438C81.675 1.98438 80.6047 2.86719 80.6125 4.17188ZM88.7844 13.9219V0H90.0031V13.9219H88.7844ZM99.3562 1.3125V12.625H97.9344V2.78125H97.8719L95.1219 4.60938V3.1875L97.9344 1.3125H99.3562ZM105.478 12.7812C103.228 12.7812 101.611 11.5781 101.541 9.78125H102.963C103.041 10.8594 104.111 11.5312 105.463 11.5312C106.955 11.5312 108.033 10.7266 108.041 9.54688C108.033 8.3125 107.048 7.44531 105.291 7.4375H104.369V6.20312H105.291C106.666 6.20312 107.627 5.42969 107.619 4.26562C107.627 3.13281 106.798 2.38281 105.509 2.375C104.298 2.38281 103.197 3.04688 103.134 4.15625H101.775C101.845 2.35938 103.517 1.15625 105.525 1.15625C107.681 1.15625 108.994 2.57031 108.978 4.1875C108.994 5.47656 108.244 6.41406 107.056 6.75V6.82812C108.533 7.05469 109.423 8.10938 109.416 9.54688C109.423 11.4062 107.736 12.7812 105.478 12.7812ZM114.584 12.7812C112.623 12.7578 110.459 11.5938 110.459 7.40625C110.459 3.39844 112.1 1.15625 114.756 1.15625C116.748 1.15625 118.139 2.38281 118.428 4.15625H117.037C116.78 3.15625 116.014 2.40625 114.756 2.40625C112.897 2.40625 111.78 3.99219 111.787 6.71875H111.928C112.577 5.77344 113.616 5.21875 114.834 5.21875C116.842 5.21875 118.522 6.78125 118.522 8.96875C118.522 11.1016 116.967 12.8047 114.584 12.7812ZM111.975 9C111.983 10.3281 113.069 11.5391 114.584 11.5469C116.045 11.5391 117.155 10.3906 117.162 8.98438C117.155 7.59375 116.092 6.46094 114.616 6.45312C113.131 6.46094 111.991 7.66406 111.975 9ZM131.019 0V13.8906H129.816V6.625H127.894V13.2031H126.722V0.375H127.894V5.60938H129.816V0H131.019ZM119.175 10.0469C122.402 8.24219 123.73 5.70312 123.941 2.82812H119.706V1.8125H125.144C125.128 5.34375 123.886 8.67969 119.894 10.9062L119.175 10.0469Z" fill="black"/>
</svg>
