<svg width="156" height="14" viewBox="0 0 156 14" fill="none" xmlns="http://www.w3.org/2000/svg">
<path d="M3.61719 0.5C4.84375 0.492188 5.875 0.945312 6.51562 1.70312H10.0703V0H11.2891V7.14062H10.0703V5.54688H6.54688C5.91406 6.33594 4.86719 6.80469 3.61719 6.79688C1.52344 6.80469 0 5.52344 0.0078125 3.64062C0 1.77344 1.52344 0.492188 3.61719 0.5ZM1.17969 3.64062C1.17969 4.89844 2.19531 5.79688 3.61719 5.8125C4.99219 5.79688 6.02344 4.89844 6.02344 3.64062C6.02344 2.39062 4.99219 1.5 3.61719 1.51562C2.19531 1.5 1.17969 2.39062 1.17969 3.64062ZM2.28906 8.82812V7.84375H11.2891V11.1719H3.53906V12.7188H11.8203V13.7031H2.32031V10.2344H10.0703V8.82812H2.28906ZM7.0625 2.6875C7.15625 2.98438 7.21094 3.30469 7.21094 3.64062C7.21094 3.96875 7.16406 4.27344 7.07031 4.5625H10.0703V2.6875H7.0625ZM24.3328 0V8.28125H23.0984V4.64062H20.3016V3.625H23.0984V0H24.3328ZM12.8797 7.17188C14.9422 6.42969 16.4109 4.54688 16.4109 2.5625V2.04688H13.2703V1.01562H20.7547V2.04688H17.6453V2.54688C17.6453 4.35938 19.0359 6.08594 21.0672 6.78125L20.4266 7.76562C18.8719 7.20312 17.6609 6.03125 17.0594 4.60156C16.4656 6.22656 15.1766 7.52344 13.5203 8.15625L12.8797 7.17188ZM15.0672 11.2969C15.0594 9.66406 16.8328 8.71094 19.7234 8.71875C22.6062 8.71094 24.3797 9.66406 24.3797 11.2969C24.3797 12.9375 22.6062 13.875 19.7234 13.8906C16.8328 13.875 15.0594 12.9375 15.0672 11.2969ZM16.2859 11.2969C16.2781 12.3047 17.5906 12.9141 19.7234 12.9062C21.8484 12.9141 23.1609 12.3047 23.1609 11.2969C23.1609 10.2812 21.8484 9.67188 19.7234 9.67188C17.5906 9.67188 16.2781 10.2812 16.2859 11.2969ZM33.5484 1.54688V2.26562C33.5406 3.36719 33.5406 5.20312 33.1422 7.78125L31.9078 7.67188C32.2906 5.34375 32.3219 3.65625 32.3141 2.54688H26.4859V1.54688H33.5484ZM25.7047 9.8125C26.6187 9.80469 27.6344 9.79688 28.7047 9.77344V5.51562H29.9078V9.73438C31.4469 9.67969 33.025 9.57812 34.4703 9.40625L34.5328 10.3281C31.6109 10.7812 28.3453 10.8438 25.8609 10.8281L25.7047 9.8125ZM35.3453 13.8906V0H36.5641V5.8125H38.8141V6.875H36.5641V13.8906H35.3453ZM53.3078 6.51562V7.51562H49.0109V11.1094H54.8078V12.1406H42.0891V11.1094H47.8078V7.51562H43.7141V1.14062H53.1672V2.14062H44.9484V6.51562H53.3078ZM66.6328 0.015625V10.2031H65.3984V4.875H62.5391V3.85938H65.3984V0.015625H66.6328ZM55.1797 7.42188C57.2266 6.70312 58.7109 4.86719 58.7109 2.875V2.15625H55.5703V1.14062H63.0547V2.15625H59.9453V2.875C59.9453 4.67188 61.3359 6.41406 63.3672 7.10938L62.7266 8.09375C61.1641 7.52344 59.9531 6.35938 59.3516 4.92188C58.75 6.53125 57.4688 7.80469 55.8203 8.42188L55.1797 7.42188ZM57.7109 13.5938V9.28125H58.9453V12.5625H67.0234V13.5938H57.7109ZM72.6922 1.01562C74.8719 1.02344 76.4187 2.35156 76.4266 4.28125C76.4187 6.21875 74.8719 7.53906 72.6922 7.54688C70.4969 7.53906 68.9344 6.21875 68.9422 4.28125C68.9344 2.35156 70.4969 1.02344 72.6922 1.01562ZM68.2234 9.8125C70.7859 9.82031 74.325 9.79688 77.3953 9.34375L77.4891 10.25C74.3094 10.8438 70.8953 10.8594 68.3953 10.8594L68.2234 9.8125ZM70.1453 4.28125C70.1375 5.57812 71.2078 6.46875 72.6922 6.46875C74.1609 6.46875 75.2312 5.57812 75.2234 4.28125C75.2312 2.99219 74.1609 2.09375 72.6922 2.09375C71.2078 2.09375 70.1375 2.99219 70.1453 4.28125ZM78.3172 13.9219V0H79.5359V13.9219H78.3172ZM88.8266 12.7812C86.8656 12.7578 84.7016 11.5938 84.7016 7.40625C84.7016 3.39844 86.3422 1.15625 88.9984 1.15625C90.9906 1.15625 92.3812 2.38281 92.6703 4.15625H91.2797C91.0219 3.15625 90.2562 2.40625 88.9984 2.40625C87.1391 2.40625 86.0219 3.99219 86.0297 6.71875H86.1703C86.8187 5.77344 87.8578 5.21875 89.0766 5.21875C91.0844 5.21875 92.7641 6.78125 92.7641 8.96875C92.7641 11.1016 91.2094 12.8047 88.8266 12.7812ZM86.2172 9C86.225 10.3281 87.3109 11.5391 88.8266 11.5469C90.2875 11.5391 91.3969 10.3906 91.4047 8.98438C91.3969 7.59375 90.3344 6.46094 88.8578 6.45312C87.3734 6.46094 86.2328 7.66406 86.2172 9ZM97.6047 12.7812C95.0969 12.7812 93.6438 10.6719 93.6516 6.96875C93.6438 3.29688 95.1125 1.15625 97.6047 1.15625C100.089 1.15625 101.558 3.29688 101.558 6.96875C101.558 10.6719 100.113 12.7812 97.6047 12.7812ZM95.0109 6.96875C95.0188 9.89844 95.9641 11.5312 97.6047 11.5312C99.2375 11.5312 100.191 9.89844 100.183 6.96875C100.191 4.03906 99.2297 2.38281 97.6047 2.375C95.9797 2.38281 95.0188 4.03906 95.0109 6.96875ZM113.648 0.015625V10.2969H112.414V5.48438H108.414V4.5H112.414V2.82812H108.414V1.84375H112.414V0.015625H113.648ZM102.961 8.23438V1.01562H104.195V7.1875C106.109 7.17969 107.953 7.07031 110.07 6.6875L110.195 7.70312C107.938 8.125 106.047 8.21875 104.008 8.23438H102.961ZM104.695 13.5938V9.42188H105.93V12.5625H114.023V13.5938H104.695ZM121.489 0.25C124.575 0.25 126.387 1.10156 126.395 2.64062C126.387 4.21875 124.575 5.07031 121.489 5.07812C118.387 5.07031 116.567 4.21875 116.567 2.64062C116.567 1.10156 118.387 0.25 121.489 0.25ZM115.161 7.01562V6.01562H127.817V7.01562H115.161ZM116.692 9.15625V8.21875H126.192V11.3281H117.942V12.7656H126.614V13.7344H116.723V10.4219H124.989V9.15625H116.692ZM117.848 2.64062C117.833 3.60938 119.184 4.14062 121.489 4.14062C123.794 4.14062 125.137 3.60938 125.145 2.64062C125.137 1.72656 123.794 1.17969 121.489 1.17188C119.184 1.17969 117.833 1.72656 117.848 2.64062ZM142.92 8.6875V13.7031H133.92V8.6875H142.92ZM132.233 7.10938V0.84375H133.467V6.04688C135.631 6.05469 137.475 5.92188 139.498 5.5L139.655 6.54688C137.506 6.99219 135.608 7.10938 133.295 7.10938H132.233ZM135.123 12.7031H141.717V9.67188H135.123V12.7031ZM137.686 3.64062V2.64062H141.686V0H142.92V8.01562H141.686V3.64062H137.686ZM148.167 1.07812C150.058 1.08594 151.425 2.71094 151.613 5.3125H154.73V0H155.948V13.9219H154.73V6.32812H151.628C151.495 9.05469 150.105 10.7578 148.167 10.75C146.113 10.7578 144.675 8.88281 144.683 5.92188C144.675 2.96875 146.113 1.08594 148.167 1.07812ZM145.855 5.92188C145.863 8.17969 146.8 9.66406 148.167 9.65625C149.527 9.66406 150.48 8.17969 150.48 5.92188C150.48 3.66406 149.527 2.17969 148.167 2.17188C146.8 2.17969 145.863 3.66406 145.855 5.92188Z" fill="black"/>
</svg>
