<svg width="277" height="96" viewBox="0 0 277 96" fill="none" xmlns="http://www.w3.org/2000/svg">
<path d="M14.2188 76H1.5625L21.1719 19.4375H36.25L55.7812 76H43.2031L38.9453 62.9531H18.4766L14.2188 76ZM21.4453 53.8125H35.9766L28.9062 32.1719H28.5156L21.4453 53.8125ZM88.2812 43.1094V52.3281H62.5V43.1094H88.2812Z" fill="#00A5E5"/>
<path d="M122.867 22.9023C122.75 21.7793 121.861 21.125 120.426 21.125C118.941 21.125 118.111 21.8086 118.102 22.7461C118.092 23.7715 119.146 24.2305 120.367 24.5039L121.637 24.8164C124.059 25.373 125.865 26.6035 125.875 28.957C125.865 31.5449 123.854 33.2051 120.406 33.1953C116.988 33.2051 114.811 31.623 114.723 28.5859H117.574C117.672 30.0117 118.805 30.7344 120.367 30.7344C121.91 30.7344 122.906 30.0117 122.906 28.957C122.906 27.9902 122.027 27.541 120.484 27.1602L118.941 26.7891C116.559 26.2031 115.094 25.0117 115.094 22.9414C115.084 20.373 117.35 18.6641 120.445 18.6641C123.58 18.6641 125.641 20.4023 125.68 22.9023H122.867ZM132.047 33.2148C129.117 33.2051 127.32 31.4766 127.32 29.25C127.32 27.5996 128.365 26.6035 129.908 25.5391C129.166 24.5918 128.551 23.5469 128.551 22.2969C128.551 20.2461 130.084 18.6738 132.398 18.6641C134.664 18.6738 136.061 20.1973 136.051 21.9844C136.061 23.3223 135.367 24.3965 134.176 25.2461L133.346 25.8516L135.709 28.5664C136.08 27.873 136.305 27.043 136.305 26.125H138.707C138.717 28.0391 138.219 29.5234 137.438 30.5586L139.566 33H136.539L135.67 32.0234C134.635 32.8535 133.287 33.2051 132.047 33.2148ZM130.133 29.0938C130.133 30.1094 130.934 30.8809 132.184 30.8711C132.838 30.8711 133.502 30.666 134.107 30.2852L131.402 27.2676L131.305 27.3359C130.504 27.9121 130.133 28.5469 130.133 29.0938ZM131.031 22.3359C131.041 22.9219 131.412 23.5176 131.949 24.2012L132.691 23.7031C133.404 23.2539 133.736 22.7559 133.727 22.1406C133.736 21.5938 133.248 20.998 132.418 21.0078C131.588 21.0078 131.041 21.6133 131.031 22.3359ZM140.758 33V18.8594H146.305C149.518 18.8594 151.363 20.8418 151.363 23.625C151.363 26.4473 149.488 28.3906 146.227 28.3906H143.688V33H140.758ZM143.688 26.0273H145.758C147.496 26.0273 148.346 25.0508 148.336 23.625C148.346 22.2188 147.496 21.2715 145.758 21.2617H143.688V26.0273ZM167.223 23.4102C166.822 22.082 165.758 21.2715 164.215 21.2617C162.027 21.2715 160.543 22.9414 160.543 25.9102C160.543 28.8984 161.979 30.5879 164.234 30.5977C166.256 30.5879 167.457 29.4453 167.496 27.668H164.43V25.4609H170.328V27.2188C170.328 30.9297 167.779 33.1953 164.215 33.1953C160.25 33.1953 157.555 30.4219 157.555 25.9492C157.555 21.3594 160.426 18.6641 164.156 18.6641C167.35 18.6641 169.801 20.627 170.191 23.4102H167.223ZM175.309 18.8594V33H172.418V18.8594H175.309ZM182.32 33.2148C179.117 33.2051 177.115 31.0078 177.125 27.7266C177.115 24.4551 179.117 22.2578 182.32 22.2578C185.533 22.2578 187.525 24.4551 187.535 27.7266C187.525 31.0078 185.533 33.2051 182.32 33.2148ZM180.055 27.7266C180.055 29.582 180.826 30.959 182.34 30.9688C183.814 30.959 184.596 29.582 184.586 27.7266C184.596 25.8613 183.814 24.4648 182.34 24.4648C180.826 24.4648 180.055 25.8613 180.055 27.7266ZM189.41 33V18.8594H192.301V24.1719H192.379C192.779 23.3125 193.619 22.2578 195.406 22.2578C197.75 22.2578 199.713 24.0742 199.723 27.707C199.713 31.252 197.828 33.1758 195.406 33.1758C193.678 33.1758 192.799 32.1797 192.379 31.3008H192.262V33H189.41ZM192.242 27.6875C192.232 29.6016 193.062 30.8613 194.488 30.8711C195.963 30.8613 196.764 29.5625 196.754 27.6875C196.764 25.8418 195.982 24.5625 194.488 24.5625C193.053 24.5625 192.232 25.7832 192.242 27.6875ZM201.07 30.0312C201.08 27.668 202.975 26.8965 205.016 26.7695C205.777 26.7207 207.203 26.6523 207.652 26.6328V25.7734C207.643 24.8848 207.037 24.377 205.953 24.3672C204.967 24.377 204.352 24.8164 204.195 25.5391H201.441C201.617 23.7031 203.219 22.2578 206.031 22.2578C208.346 22.2578 210.533 23.293 210.523 25.8516V33H207.789V31.5352H207.711C207.193 32.5117 206.178 33.2051 204.605 33.1953C202.574 33.2051 201.08 32.1309 201.07 30.0312ZM203.844 29.9531C203.844 30.7637 204.498 31.1934 205.426 31.2031C206.744 31.1934 207.662 30.334 207.652 29.2109V28.4395C207.213 28.459 205.973 28.5273 205.484 28.5664C204.479 28.6543 203.844 29.1328 203.844 29.9531ZM215.621 18.8594V33H212.73V18.8594H215.621ZM222.477 33V22.3945H225.27V24.2305H225.387C225.768 22.9316 226.754 22.2383 227.945 22.2383C228.238 22.2383 228.609 22.2773 228.863 22.3359V24.9141C228.59 24.8262 228.033 24.7578 227.633 24.7578C226.324 24.7578 225.357 25.666 225.367 26.9648V33H222.477ZM229.469 30.0312C229.479 27.668 231.373 26.8965 233.414 26.7695C234.176 26.7207 235.602 26.6523 236.051 26.6328V25.7734C236.041 24.8848 235.436 24.377 234.352 24.3672C233.365 24.377 232.75 24.8164 232.594 25.5391H229.84C230.016 23.7031 231.617 22.2578 234.43 22.2578C236.744 22.2578 238.932 23.293 238.922 25.8516V33H236.188V31.5352H236.109C235.592 32.5117 234.576 33.2051 233.004 33.1953C230.973 33.2051 229.479 32.1309 229.469 30.0312ZM232.242 29.9531C232.242 30.7637 232.896 31.1934 233.824 31.2031C235.143 31.1934 236.061 30.334 236.051 29.2109V28.4395C235.611 28.459 234.371 28.5273 233.883 28.5664C232.877 28.6543 232.242 29.1328 232.242 29.9531ZM246.715 22.3945V24.5625H244.723V29.7383C244.713 30.5879 245.133 30.793 245.719 30.8125C246.012 30.8125 246.52 30.7832 246.871 30.7539V33.0391C246.559 33.0879 246.041 33.1465 245.328 33.1367C243.238 33.1465 241.812 32.209 241.832 30.1484V24.5625H240.367V22.3945H241.832V19.8555H244.723V22.3945H246.715ZM248.531 33V22.3945H251.422V33H248.531ZM248.395 19.543C248.395 18.7227 249.107 18.0684 249.977 18.0586C250.836 18.0684 251.549 18.7227 251.539 19.543C251.549 20.3438 250.836 21.0078 249.977 21.0078C249.107 21.0078 248.395 20.3438 248.395 19.543ZM256.559 26.8672V33H253.668V22.3945H256.422V24.25H256.539C257.018 23.0293 258.15 22.2578 259.723 22.2578C261.939 22.2578 263.385 23.7715 263.375 26.2422V33H260.504V26.75C260.494 25.4414 259.791 24.6602 258.59 24.6602C257.389 24.6602 256.559 25.4707 256.559 26.8672ZM270.387 37.1992C267.457 37.1992 265.65 35.8809 265.484 33.8789H268.336C268.492 34.7285 269.293 35.1094 270.445 35.1094C271.783 35.1094 272.682 34.5332 272.691 33.0586V31.125H272.555C272.174 31.9844 271.236 32.8535 269.527 32.8438C267.135 32.8535 265.211 31.1641 265.211 27.6289C265.211 24.0449 267.184 22.2578 269.527 22.2578C271.305 22.2578 272.164 23.3125 272.555 24.1719H272.672V22.3945H275.543V33.1172C275.533 35.8223 273.404 37.1992 270.387 37.1992ZM268.18 27.668C268.17 29.5039 268.961 30.666 270.426 30.6758C271.871 30.666 272.691 29.5527 272.691 27.668C272.691 25.7832 271.881 24.5625 270.426 24.5625C268.951 24.5625 268.17 25.8418 268.18 27.668Z" fill="#00A5E5"/>
<path d="M115.271 58.2266C115.271 55.6973 115.935 53.5234 117.131 51.6777H117.965C117.008 53.1885 116.229 55.8066 116.229 58.2266C116.229 60.6602 117.008 63.2715 117.965 64.7891H117.131C115.935 62.9297 115.271 60.7559 115.271 58.2266ZM127.187 52.1016V62H126.257L120.501 53.8379H120.419V62H119.449V52.1016H120.392L126.148 60.2773H126.23V52.1016H127.187ZM132.116 62.1504C130.017 62.1572 128.705 60.5918 128.711 58.3359C128.705 56.0801 130.044 54.4736 131.979 54.4668C133.592 54.4736 135.144 55.6084 135.151 58.1309V58.5684H129.641C129.682 60.25 130.639 61.3164 132.116 61.3164C133.134 61.3164 133.736 60.79 134.002 60.3184H135.001C134.666 61.3438 133.613 62.1572 132.116 62.1504ZM129.648 57.7617H134.194C134.194 56.374 133.292 55.3076 131.993 55.3145C130.653 55.3076 129.73 56.4287 129.648 57.7617ZM139.355 64.9395C137.722 64.9395 136.518 64.2354 136.347 62.9297H137.332C137.503 63.7295 138.289 64.1191 139.355 64.1191C140.709 64.1191 141.522 63.4902 141.529 62.1367V60.4961H141.447C141.153 61.1387 140.524 61.918 139.178 61.918C137.4 61.918 136.108 60.5098 136.115 58.2266C136.108 55.957 137.359 54.4736 139.191 54.4668C140.565 54.4736 141.16 55.3213 141.461 55.957H141.543V54.5762H142.459V62.1914C142.452 64.0781 141.146 64.9395 139.355 64.9395ZM137.058 58.2539C137.052 59.9219 137.851 61.0771 139.301 61.084C140.716 61.0771 141.543 60.0107 141.543 58.2539C141.543 56.5381 140.736 55.3145 139.301 55.3145C137.838 55.3145 137.052 56.6064 137.058 58.2539ZM143.833 59.9219C143.826 58.4111 145.05 57.8438 146.567 57.7207C147.067 57.6934 148.263 57.6113 148.618 57.5977V56.9004C148.625 55.9023 147.983 55.2939 146.814 55.3008C145.843 55.2939 145.187 55.7451 145.009 56.4219H144.038C144.195 55.2461 145.323 54.4736 146.868 54.4668C147.976 54.4736 149.548 54.9453 149.548 56.9824V62H148.618V60.8516H148.564C148.263 61.4873 147.525 62.1709 146.28 62.1641C144.927 62.1709 143.826 61.3506 143.833 59.9219ZM144.763 59.9629C144.763 60.8379 145.467 61.3301 146.417 61.3301C147.777 61.3301 148.625 60.3525 148.618 59.1699V58.3701C148.249 58.4043 147.073 58.4932 146.704 58.5137C145.392 58.6025 144.763 59.1084 144.763 59.9629ZM154.272 54.5762V55.3691H152.713V60.0176C152.706 60.9541 153.233 61.2139 153.793 61.2207L154.409 61.1934V62.0684C154.258 62.082 154.026 62.1094 153.711 62.1094C152.747 62.1094 151.77 61.4805 151.77 60.25V55.3691H150.662V54.5762H151.77V52.7988H152.713V54.5762H154.272ZM155.674 62V54.5762H156.603V62H155.674ZM155.468 52.6621C155.468 52.2998 155.776 52.0127 156.152 52.0059C156.521 52.0127 156.829 52.2998 156.836 52.6621C156.829 53.0244 156.521 53.3115 156.152 53.3047C155.776 53.3115 155.468 53.0244 155.468 52.6621ZM164.157 54.5762L161.45 62H160.452L157.745 54.5762H158.757L160.917 60.7832H160.985L163.159 54.5762H164.157ZM168.047 62.1504C165.948 62.1572 164.636 60.5918 164.643 58.3359C164.636 56.0801 165.976 54.4736 167.91 54.4668C169.524 54.4736 171.075 55.6084 171.082 58.1309V58.5684H165.572C165.614 60.25 166.571 61.3164 168.047 61.3164C169.066 61.3164 169.667 60.79 169.934 60.3184H170.932C170.597 61.3438 169.544 62.1572 168.047 62.1504ZM165.579 57.7617H170.125C170.125 56.374 169.223 55.3076 167.924 55.3145C166.584 55.3076 165.661 56.4287 165.579 57.7617ZM174.699 58.2266C174.699 60.7559 174.036 62.9297 172.839 64.7891H172.005C172.962 63.2715 173.742 60.6602 173.742 58.2266C173.742 55.8066 172.962 53.1885 172.005 51.6777H172.839C174.036 53.5234 174.699 55.6973 174.699 58.2266Z" fill="#B6B6B6"/>
</svg>
