<svg width="402" height="16" viewBox="0 0 402 16" fill="none" xmlns="http://www.w3.org/2000/svg">
<path d="M14.3086 12.7617V13.9395H0V12.7617H6.41602V9.1582H1.30078V8.05078H3.74414V2.91797H1.26562V1.77539H12.9375V2.91797H10.459V8.05078H12.9023V9.1582H7.76953V12.7617H14.3086ZM5.11523 8.05078H9.10547V2.91797H5.11523V8.05078ZM22.4438 2.54883C22.4525 5.22949 25.5111 7.61133 28.227 8.12109L27.5941 9.28125C25.2299 8.73633 22.7514 7.05762 21.7406 4.76367C20.7211 7.05762 18.2514 8.72754 15.8871 9.28125L15.2543 8.12109C17.9613 7.60254 20.9936 5.23828 21.0023 2.54883V1.35352H22.4438V2.54883ZM14.6566 13.7461V12.6035H28.9652V13.7461H14.6566ZM41.8113 1.77539V3.28711C41.7938 5.18555 41.8113 7.33008 41.1609 10.5117L39.8074 10.3535C40.1063 8.93848 40.2645 7.69922 40.3523 6.60059L30.8074 7.17188L30.5789 5.95898L40.4139 5.55469C40.449 4.72852 40.4578 3.99023 40.4578 3.28711V2.91797H31.0359V1.77539H41.8113ZM29.3133 13.7461V12.5684H34.9031V8.52539H36.2566V12.5684H43.5516V13.7461H29.3133ZM57.382 1.35352V2.37305H44.7082V1.35352H50.4035V0H51.7746V1.35352H57.382ZM43.9699 9.19336V8.15625H50.4035V7.06641C47.5295 6.96973 46.009 6.31055 46.009 5.04492C46.009 3.68262 47.7756 3.02344 51.0891 3.02344C54.3762 3.02344 56.1516 3.68262 56.1516 5.04492C56.1516 6.31055 54.6223 6.96973 51.7746 7.06641V8.15625H58.2082V9.19336H43.9699ZM45.6926 11.2148V10.2129H56.3801V13.3594H47.134V14.6777H56.8547V15.6973H45.7277V12.3926H54.9914V11.2148H45.6926ZM47.4855 5.04492C47.4768 5.75684 48.7072 6.14355 51.0891 6.15234C53.4445 6.14355 54.7014 5.75684 54.7102 5.04492C54.7014 4.3418 53.4445 3.97266 51.0891 3.97266C48.7072 3.97266 47.4768 4.3418 47.4855 5.04492ZM71.5289 0.246094V9.87891H70.1578V0.246094H71.5289ZM59.5934 8.33203V1.47656H66.9938V2.61914H60.9645V7.18945C64.3219 7.18945 66.2818 7.09277 68.5406 6.62695L68.6988 7.78711C66.3434 8.23535 64.3482 8.32324 60.8766 8.33203H59.5934ZM61.0348 12.8672C61.026 10.9951 63.0299 9.8877 66.3082 9.87891C69.5514 9.8877 71.5641 10.9951 71.5816 12.8672C71.5641 14.7568 69.5514 15.8555 66.3082 15.873C63.0299 15.8555 61.026 14.7568 61.0348 12.8672ZM62.4234 12.8672C62.4234 14.0361 63.8824 14.748 66.3082 14.748C68.7252 14.748 70.2105 14.0361 70.2105 12.8672C70.2105 11.6895 68.7252 10.9951 66.3082 10.9863C63.8824 10.9951 62.4234 11.6895 62.4234 12.8672ZM81.0703 2.54883C81.0791 5.22949 84.1377 7.61133 86.8535 8.12109L86.2207 9.28125C83.8564 8.73633 81.3779 7.05762 80.3672 4.76367C79.3477 7.05762 76.8779 8.72754 74.5137 9.28125L73.8809 8.12109C76.5879 7.60254 79.6201 5.23828 79.6289 2.54883V1.35352H81.0703V2.54883ZM73.2832 13.7461V12.6035H87.5918V13.7461H73.2832ZM93.0551 1.38867C95.5072 1.39746 97.2475 2.8916 97.2562 5.0625C97.2475 7.24219 95.5072 8.72754 93.0551 8.73633C90.5854 8.72754 88.8275 7.24219 88.8363 5.0625C88.8275 2.8916 90.5854 1.39746 93.0551 1.38867ZM88.0277 11.2852C90.9105 11.2939 94.892 11.2676 98.3461 10.7578L98.4516 11.7773C94.8744 12.4453 91.0336 12.4629 88.2211 12.4629L88.0277 11.2852ZM90.1898 5.0625C90.1811 6.52148 91.3852 7.52344 93.0551 7.52344C94.7074 7.52344 95.9115 6.52148 95.9027 5.0625C95.9115 3.6123 94.7074 2.60156 93.0551 2.60156C91.3852 2.60156 90.1811 3.6123 90.1898 5.0625ZM99.3832 15.9082V0.246094H100.754V15.9082H99.3832ZM110.89 4.6582C110.89 7.22461 112.129 9.87891 114.212 11.0039L113.386 12.0938C111.874 11.2324 110.793 9.63281 110.231 7.75195C109.651 9.7998 108.49 11.5488 106.935 12.4805L106.038 11.4609C108.218 10.2129 109.563 7.42676 109.554 4.74609V1.72266H110.89V4.6582ZM114.792 15.082V0.580078H116.128V6.53906H118.273V0.246094H119.609V15.873H118.273V7.68164H116.128V15.082H114.792ZM135.179 12.7793V13.9395H120.871V12.7793H127.304V9.82617H122.664V5.00977H132.015V2.54883H122.629V1.40625H133.369V6.13477H124.035V8.68359H133.738V9.82617H128.658V12.7793H135.179ZM149.818 8.19141V9.33398H143.473V12.5332H142.084V9.33398H135.51V8.19141H149.818ZM137.127 3.79688C137.118 1.85449 139.307 0.65918 142.646 0.650391C145.986 0.65918 148.148 1.85449 148.148 3.79688C148.148 5.72168 145.986 6.91699 142.646 6.9082C139.307 6.91699 137.118 5.72168 137.127 3.79688ZM137.355 15.5391V10.9688H138.744V14.3613H148.219V15.5391H137.355ZM138.604 3.79688C138.586 5.00977 140.212 5.7832 142.646 5.7832C145.072 5.7832 146.689 5.00977 146.689 3.79688C146.689 2.54883 145.072 1.78418 142.646 1.77539C140.212 1.78418 138.586 2.54883 138.604 3.79688ZM168.11 12.6914V13.834H153.802V12.6914H160.2V8.85938H161.554V12.6914H168.11ZM154.364 7.89258C157.097 7.42676 160.138 5.1416 160.147 2.51367V1.31836H161.589V2.51367C161.597 5.12402 164.682 7.42676 167.407 7.89258L166.792 9.03516C164.41 8.54297 161.896 6.93457 160.886 4.68457C159.857 6.92578 157.37 8.54297 154.979 9.03516L154.364 7.89258ZM173.995 2.51367C173.978 4.79004 175.63 6.82031 177.95 7.62891L177.247 8.71875C175.437 8.05078 174.004 6.70605 173.301 4.97461C172.615 6.8291 171.174 8.28809 169.337 9L168.616 7.91016C170.954 7.04004 172.589 4.87793 172.589 2.51367V1.01953H173.995V2.51367ZM170.849 11.584V10.4414H181.361V15.873H179.989V11.584H170.849ZM179.989 9.66797V0.246094H181.361V9.66797H179.989ZM190.234 0.527344C193.706 0.527344 195.745 1.48535 195.754 3.2168C195.745 4.99219 193.706 5.9502 190.234 5.95898C186.745 5.9502 184.697 4.99219 184.697 3.2168C184.697 1.48535 186.745 0.527344 190.234 0.527344ZM183.115 8.13867V7.01367H197.353V8.13867H183.115ZM184.837 10.5469V9.49219H195.525V12.9902H186.244V14.6074H196V15.6973H184.873V11.9707H194.171V10.5469H184.837ZM186.138 3.2168C186.121 4.30664 187.641 4.9043 190.234 4.9043C192.827 4.9043 194.338 4.30664 194.347 3.2168C194.338 2.18848 192.827 1.57324 190.234 1.56445C187.641 1.57324 186.121 2.18848 186.138 3.2168ZM214.344 0.263672V12.1816H212.955V8.82422H210.248V7.69922H212.955V5.57227H210.248V4.42969H212.955V0.263672H214.344ZM201.407 3.30469V2.17969H205.204V0.246094H206.575V2.17969H210.248V3.30469H201.407ZM202.338 7.1543C202.321 5.36133 203.78 4.16602 205.871 4.16602C207.963 4.16602 209.431 5.36133 209.44 7.1543C209.431 8.92969 207.963 10.1338 205.871 10.1426C203.78 10.1338 202.321 8.92969 202.338 7.1543ZM203.621 7.1543C203.613 8.2793 204.536 9.04395 205.871 9.03516C207.207 9.04395 208.13 8.2793 208.139 7.1543C208.13 6.0293 207.207 5.27344 205.871 5.25586C204.536 5.27344 203.613 6.0293 203.621 7.1543ZM204.237 15.5391V11.127H205.625V14.3789H214.696V15.5391H204.237ZM221.337 3.2168C221.346 5.26465 222.875 7.09277 225.169 7.83984L224.518 8.92969C222.717 8.33203 221.354 7.09277 220.678 5.51953C220.01 7.3125 218.568 8.70996 216.696 9.38672L215.993 8.2793C218.331 7.48828 219.966 5.47559 219.983 3.2168V2.54883H216.415V1.40625H224.852V2.54883H221.337V3.2168ZM218.067 12.9551C218.076 11.1533 220.036 10.1074 223.253 10.1074C226.461 10.1074 228.403 11.1533 228.403 12.9551C228.403 14.7832 226.461 15.8379 223.253 15.8379C220.036 15.8379 218.076 14.7832 218.067 12.9551ZM219.456 12.9551C219.438 14.0801 220.897 14.7393 223.253 14.7305C225.617 14.7393 227.058 14.0801 227.067 12.9551C227.058 11.8652 225.617 11.2148 223.253 11.2148C220.897 11.2148 219.438 11.8652 219.456 12.9551ZM226.891 9.68555V0.246094H228.262V4.23633H230.618V5.39648H228.262V9.68555H226.891ZM242.919 0.246094V4.07812H245.275V5.2207H242.919V9.12305H241.548V0.246094H242.919ZM230.685 8.17383C234.526 7.13672 236.872 5.05371 237.162 2.4082H231.388V1.26562H238.648C238.63 5.20312 235.879 8.02441 231.247 9.28125L230.685 8.17383ZM233.023 15.6621V9.84375H242.919V15.6621H233.023ZM234.394 14.5371H241.548V10.9863H234.394V14.5371ZM250.65 10.7402C250.641 12.1201 251.388 13.5879 252.874 14.4316C254.368 13.5088 255.159 11.9443 255.15 10.7402V9.87891H256.504V10.7402C256.495 12.3486 257.681 13.9482 259.685 14.6426L259 15.6621C257.435 15.1084 256.345 14.0186 255.8 12.709C255.317 13.9746 254.359 15.1787 252.918 15.7852C251.397 15.2051 250.43 14.0625 249.964 12.7529C249.402 14.0098 248.33 15.0996 246.836 15.6621L246.132 14.6426C248.11 13.9043 249.296 12.2344 249.314 10.7402V9.87891H250.65V10.7402ZM245.728 4.83398C245.719 2.6543 247.451 1.16895 249.824 1.17773C252.197 1.16895 253.911 2.6543 253.92 4.83398C253.911 6.97852 252.197 8.45508 249.824 8.45508C247.451 8.45508 245.719 6.97852 245.728 4.83398ZM247.082 4.83398C247.064 6.28418 248.215 7.30371 249.824 7.3125C251.415 7.30371 252.566 6.28418 252.566 4.83398C252.566 3.375 251.415 2.33789 249.824 2.35547C248.215 2.33789 247.064 3.375 247.082 4.83398ZM256.89 9.19336V0.263672H258.261V9.19336H256.89ZM272.549 1.82812V3.39258C272.531 5.30859 272.531 7.45312 271.969 10.5996L270.562 10.4414C271.151 7.45312 271.151 5.26465 271.16 3.39258V2.9707H261.527V1.82812H272.549ZM260.016 13.6582V12.5156H265.605V6.92578H266.959V12.5156H274.254V13.6582H260.016ZM290.384 0.246094V6.43359H293.003V7.59375H290.384V15.9082H289.013V0.246094H290.384ZM278.975 11.9883V1.77539H286.27V2.91797H280.346V10.8281C283.177 10.8193 285.172 10.6963 287.501 10.2656L287.677 11.4609C285.224 11.9004 283.177 11.9883 280.206 11.9883H278.975ZM307.484 2.61914V3.76172H305.163V5.94141H307.484V7.10156H305.163V9.52734H303.792V0.246094H305.163V2.61914H307.484ZM293.245 4.86914C293.237 2.68945 294.977 1.18652 297.341 1.19531C299.723 1.18652 301.437 2.68945 301.454 4.86914C301.437 7.04004 299.723 8.53418 297.341 8.54297C294.977 8.53418 293.237 7.04004 293.245 4.86914ZM294.599 4.86914C294.59 6.3457 295.759 7.36523 297.341 7.38281C298.941 7.36523 300.092 6.3457 300.101 4.86914C300.092 3.40137 298.941 2.35547 297.341 2.37305C295.759 2.35547 294.59 3.40137 294.599 4.86914ZM294.968 12.9375C294.977 11.083 296.963 10.0107 300.154 10.002C303.344 10.0107 305.304 11.083 305.304 12.9375C305.304 14.7568 303.344 15.8379 300.154 15.8379C296.963 15.8379 294.977 14.7568 294.968 12.9375ZM296.357 12.9375C296.339 14.0625 297.798 14.7217 300.154 14.7305C302.518 14.7217 303.959 14.0625 303.968 12.9375C303.959 11.8037 302.518 11.127 300.154 11.127C297.798 11.127 296.339 11.8037 296.357 12.9375ZM319.697 0.246094V6.69727H322.316V7.83984H319.697V15.873H318.326V0.246094H319.697ZM307.515 3.90234V2.75977H311.541V0.439453H312.912V2.75977H316.814V3.90234H307.515ZM308.412 8.78906C308.403 6.67969 310.02 5.20312 312.244 5.20312C314.45 5.20312 316.058 6.67969 316.076 8.78906C316.058 10.9072 314.45 12.375 312.244 12.375C310.02 12.375 308.403 10.9072 308.412 8.78906ZM309.73 8.78906C309.721 10.2129 310.785 11.2148 312.244 11.1973C313.685 11.2148 314.74 10.2129 314.757 8.78906C314.74 7.37402 313.685 6.35449 312.244 6.36328C310.785 6.35449 309.721 7.37402 309.73 8.78906ZM335.637 0.246094V15.873H334.318V0.246094H335.637ZM322.277 11.4961C325.67 9.4834 327.375 6.66211 327.639 3.39258H322.945V2.25H329.01C329.01 3.78809 328.764 5.27344 328.228 6.66211H331.031V0.667969H332.35V15.082H331.031V7.78711H327.718C326.777 9.60645 325.266 11.2148 323.086 12.498L322.277 11.4961ZM353.489 0.263672V11.7246H352.1V5.73047H348.884V4.58789H352.1V0.263672H353.489ZM340.604 8.5957C342.907 7.78711 344.577 5.72168 344.577 3.48047V2.67188H341.044V1.5293H349.464V2.67188H345.966V3.48047C345.966 5.50195 347.53 7.46191 349.815 8.24414L349.095 9.35156C347.337 8.70996 345.974 7.40039 345.298 5.7832C344.621 7.59375 343.18 9.02637 341.325 9.7207L340.604 8.5957ZM343.452 15.5391V10.6875H344.841V14.3789H353.929V15.5391H343.452ZM367.407 0.246094V4.25391H369.763V5.43164H367.407V9.33398H366.036V0.246094H367.407ZM355.226 3.00586V1.86328H359.198V0.105469H360.57V1.86328H364.542V3.00586H355.226ZM356.122 6.46875C356.113 4.79883 357.616 3.73535 359.884 3.72656C362.125 3.73535 363.628 4.79883 363.646 6.46875C363.628 8.13867 362.125 9.21973 359.884 9.21094C357.616 9.21973 356.113 8.13867 356.122 6.46875ZM357.441 6.46875C357.432 7.48828 358.407 8.15625 359.884 8.15625C361.343 8.15625 362.327 7.48828 362.345 6.46875C362.327 5.45801 361.343 4.78125 359.884 4.79883C358.407 4.78125 357.432 5.45801 357.441 6.46875ZM357.529 15.6621V10.0195H358.9V11.6895H366.036V10.0195H367.407V15.6621H357.529ZM358.9 14.5547H366.036V12.7793H358.9V14.5547ZM382.732 0.246094V15.873H381.361V0.246094H382.732ZM370.867 11.8477V1.79297H372.22V10.6523C374.611 10.6348 377.072 10.4502 379.691 9.89648L379.884 11.0742C377.107 11.6543 374.637 11.8477 372.132 11.8477H370.867ZM396.598 0.246094V6.43359H399.217V7.59375H396.598V15.9082H395.227V0.246094H396.598ZM385.189 11.9883V1.77539H392.484V2.91797H386.561V10.8281C389.391 10.8193 391.386 10.6963 393.715 10.2656L393.891 11.4609C391.438 11.9004 389.391 11.9883 386.42 11.9883H385.189ZM400.813 14.5547C400.198 14.5459 399.67 14.0361 399.688 13.4121C399.67 12.7969 400.198 12.2871 400.813 12.2871C401.437 12.2871 401.947 12.7969 401.938 13.4121C401.947 14.0361 401.437 14.5459 400.813 14.5547Z" fill="#666666"/>
</svg>
