<svg width="104" height="18" viewBox="0 0 104 18" fill="none" xmlns="http://www.w3.org/2000/svg">
<path d="M16.1324 13.6523V15.4492H-0.000389099V13.6523H16.1324ZM1.77695 10.5078V1.19141H3.94492V4.21875H12.1285V1.19141H14.2965V10.5078H1.77695ZM3.94492 8.80859H12.1285V5.91797H3.94492V8.80859ZM31.9824 0.0195312V13.125H29.9121V6.89453H28.0762V12.7148H26.0449V0.351562H28.0762V5.11719H29.9121V0.0195312H31.9824ZM17.6074 3.18359V1.46484H24.3262V6.81641H19.7363V8.90625C21.7969 8.89648 23.3496 8.78906 25.1465 8.4375L25.3418 10.1758C23.2129 10.5566 21.4258 10.625 18.8379 10.625H17.627V5.17578H22.2363V3.18359H17.6074ZM20.166 17.3047V11.8945H22.334V15.5469H32.4707V17.3047H20.166ZM48.1059 8.28125V10.0195H35.723V1.54297H47.9691V3.30078H37.8715V8.28125H48.1059ZM33.7699 15.4102V13.6133H49.9027V15.4102H33.7699ZM64.1223 2.42188C64.1223 5.14648 66.7883 7.89062 70.4895 8.53516L69.5129 10.3516C66.5539 9.73633 64.132 7.93945 62.9797 5.56641C61.8176 7.91992 59.3957 9.72656 56.4465 10.3516L55.4895 8.53516C59.132 7.87109 61.8078 5.13672 61.8176 2.42188V1.11328H64.1223V2.42188ZM55.0012 15.4102V13.6133H71.134V15.4102H55.0012ZM86.2418 8.88672V10.625H81.027V13.8477H88.0191V15.5859H71.8863V13.8477H78.8395V10.625H73.859V1.30859H86.0855V3.06641H76.066V5.05859H85.6754V6.77734H76.066V8.88672H86.2418ZM103.479 0V17.6758H101.33V0H103.479ZM89.7285 3.30078V1.54297H98.0488V8.16406H91.9746V11.7188C94.7578 11.6992 97.1504 11.5527 99.9043 11.0938L100.1 12.8711C97.1016 13.3887 94.4648 13.5059 91.291 13.4961H89.748V6.44531H95.8418V3.30078H89.7285Z" fill="white"/>
</svg>
