<svg width="1200" height="146" viewBox="0 0 1200 146" fill="none" xmlns="http://www.w3.org/2000/svg">
<path d="M5.96875 9.03125C5.96094 10.7266 7.02344 12.4609 9.35938 13.1719L8.34375 14.7344C6.75 14.2266 5.63281 13.2031 4.99219 11.9219C4.34375 13.3281 3.1875 14.4453 1.51562 15L0.484375 13.4375C2.85156 12.6797 3.9375 10.8281 3.9375 9.03125V8.82812H1.01562V7.23438H8.82812V8.82812H5.96875V9.03125ZM2.79688 20.1875V15.5781H4.8125V18.5938H12.7031V20.1875H2.79688ZM10.3281 16.5156V6.23438H12.3281V16.5156H10.3281ZM26.8675 12.2812V13.7344H21.3988V14.625H25.3206V18.0938H17.3988V18.875H25.6956V20.3438H15.4456V16.75H23.3519V16.0469H15.43V14.625H19.4144V13.7344H13.9613V12.2812H26.8675ZM14.4613 10.4219C17.305 10.2969 18.7503 9.61719 19.1644 8.79688H15.18V7.32812H19.4144V6.20312H21.3831V7.32812H25.6488V8.79688H21.6253C22.0316 9.61719 23.4847 10.2969 26.3519 10.4219L25.7738 11.8906C23.1331 11.7578 21.2972 11.0938 20.3988 10.0234C19.5003 11.0938 17.6722 11.7578 15.0081 11.8906L14.4613 10.4219ZM38.9069 6.84375V7.95312C38.9147 9 38.9147 10.2031 38.6178 11.7344H40.4538V13.3281H34.9225V15.375H38.9225V20.4375H36.9225V16.9375H28.7506V15.375H32.9225V13.3281H27.4381V11.7344H36.6022C36.8678 10.3984 36.9069 9.35938 36.9225 8.42188H29.0319V6.84375H38.9069ZM52.165 6.21875V11.6719H54.1806V13.3125H52.165V20.4062H50.165V6.21875H52.165ZM40.79 16.4219C44.1572 14.7344 45.9697 12.4688 46.3447 9.29688H41.6025V7.67188H48.3681C48.3525 11.9219 46.6963 15.6016 41.915 17.9531L40.79 16.4219Z" fill="white"/>
<path d="M28.8281 77.4375V134H17.0312V88.6094H16.7188L3.75 96.7344V86.3438L17.7344 77.4375H28.8281ZM62.2281 134.781C50.5484 134.742 39.3766 127.75 39.4156 107.047C39.4547 87.9453 48.5563 76.6562 62.6969 76.6562C74.0641 76.6562 81.8766 83.8438 83.0094 93.1406H71.4469C70.5094 89.1953 67.2672 86.7344 62.6969 86.7344C55.0016 86.7344 50.9781 93.6484 50.9 104.781H51.4469C54.0641 99.7422 59.65 96.8125 65.9 96.8125C76.0953 96.8125 83.6734 104.43 83.6344 115.094C83.6734 126.578 75.0016 134.82 62.2281 134.781ZM52.0719 115.406C52.15 120.953 56.3688 125.523 62.15 125.484C67.9703 125.523 72.2281 121.109 72.2281 115.406C72.2281 109.742 68.0484 105.367 62.3063 105.328C56.525 105.367 52.15 109.898 52.0719 115.406Z" fill="white"/>
<path d="M111.019 119.219V133.438H109.097V126.203H107.801V132.812H105.941V119.594H107.801V124.609H109.097V119.219H111.019ZM98.5819 129.141C101.48 127.438 102.73 125.352 102.996 122.562H99.3006V120.969H104.941C104.933 124.938 103.746 128.188 99.7381 130.516L98.5819 129.141ZM123.731 119.844V120.953C123.738 122 123.738 123.203 123.442 124.734H125.278V126.328H119.746V128.375H123.746V133.438H121.746V129.938H113.574V128.375H117.746V126.328H112.262V124.734H121.426C121.692 123.398 121.731 122.359 121.746 121.422H113.856V119.844H123.731Z" fill="white"/>
<path d="M375.224 6.79688V7.76562C375.231 8.67969 375.231 9.82031 374.95 11.25H376.771V12.8125H363.755V11.25H372.942C373.169 10.0938 373.216 9.16406 373.231 8.375H365.349V6.79688H375.224ZM365.224 15.3594V13.8125H375.161V17.7969H367.224V18.7969H375.552V20.3281H365.239V16.2969H373.192V15.3594H365.224ZM390.279 17.2188V18.8594H377.263V17.2188H382.747V15.0781H378.763V10.2969H386.81V8.73438H378.747V7.14062H388.779V11.8594H380.763V13.4531H389.107V15.0781H384.732V17.2188H390.279ZM402.756 6.21875V13.4844H400.771V10.7031H398.146V13.0938H391.381V6.82812H393.381V8.45312H396.177V6.82812H398.146V9.09375H400.771V6.21875H402.756ZM393.287 15.5781V14.0156H402.756V17.8438H395.302V18.7188H403.177V20.2812H393.302V16.4062H400.771V15.5781H393.287ZM393.381 11.5312H396.177V10H393.381V11.5312ZM410.256 6.9375V8.76562H413.053V6.9375H415.022V9.46875H417.647V6.21875H419.631V14H417.647V11.0938H415.022V13.5938H408.256V6.9375H410.256ZM410.147 20.25V14.5938H412.116V15.9062H417.647V14.5938H419.631V20.25H410.147ZM410.256 12H413.053V10.2969H410.256V12ZM412.116 18.6562H417.647V17.4375H412.116V18.6562ZM433.061 6.23438V16.4531H431.061V6.23438H433.061ZM421.374 10.7188C421.374 8.63281 423.077 7.13281 425.264 7.14062C427.444 7.13281 429.147 8.63281 429.155 10.7188C429.147 12.8359 427.444 14.3281 425.264 14.3281C423.077 14.3281 421.374 12.8359 421.374 10.7188ZM423.327 10.7188C423.311 11.9062 424.147 12.5938 425.264 12.5938C426.342 12.5938 427.178 11.9062 427.186 10.7188C427.178 9.5625 426.342 8.86719 425.264 8.875C424.147 8.86719 423.311 9.5625 423.327 10.7188ZM423.53 20.1875V15.4219H425.546V18.5938H433.436V20.1875H423.53ZM442.21 7.32812C442.202 9.00781 443.921 10.8594 447.179 11.2656L446.397 12.875C443.913 12.5156 442.093 11.3672 441.163 9.82812C440.226 11.3594 438.413 12.5156 435.96 12.875L435.163 11.2656C438.397 10.8594 440.108 9.00781 440.116 7.32812V6.64062H442.21V7.32812ZM434.663 15.5781V13.9531H447.632V15.5781H442.101V20.4375H440.132V15.5781H434.663Z" fill="white"/>
<path d="M366.849 124V114.703L390.755 77.4375H405.521V114.547H412.708V124H405.521V134H394.349V124H366.849ZM378.724 114.547H394.505V90.3281H393.958L378.724 114.078V114.547ZM440.639 134.781C428.96 134.742 417.788 127.75 417.827 107.047C417.866 87.9453 426.967 76.6562 441.108 76.6562C452.475 76.6562 460.288 83.8438 461.421 93.1406H449.858C448.921 89.1953 445.678 86.7344 441.108 86.7344C433.413 86.7344 429.389 93.6484 429.311 104.781H429.858C432.475 99.7422 438.061 96.8125 444.311 96.8125C454.506 96.8125 462.085 104.43 462.046 115.094C462.085 126.578 453.413 134.82 440.639 134.781ZM430.483 115.406C430.561 120.953 434.78 125.523 440.561 125.484C446.381 125.523 450.639 121.109 450.639 115.406C450.639 109.742 446.46 105.367 440.717 105.328C434.936 105.367 430.561 109.898 430.483 115.406Z" fill="white"/>
<path d="M489.021 119.219V133.438H487.099V126.203H485.802V132.812H483.942V119.594H485.802V124.609H487.099V119.219H489.021ZM476.583 129.141C479.481 127.438 480.731 125.352 480.997 122.562H477.302V120.969H482.942C482.935 124.938 481.747 128.188 477.739 130.516L476.583 129.141Z" fill="white"/>
<path d="M737.558 6.79688V7.76562C737.565 8.67969 737.565 9.82031 737.284 11.25H739.104V12.8125H726.089V11.25H735.276C735.503 10.0938 735.55 9.16406 735.565 8.375H727.683V6.79688H737.558ZM727.558 15.3594V13.8125H737.495V17.7969H729.558V18.7969H737.886V20.3281H727.573V16.2969H735.526V15.3594H727.558ZM752.613 17.2188V18.8594H739.597V17.2188H745.081V15.0781H741.097V10.2969H749.144V8.73438H741.081V7.14062H751.113V11.8594H743.097V13.4531H751.441V15.0781H747.066V17.2188H752.613ZM765.089 6.21875V13.4844H763.105V10.7031H760.48V13.0938H753.714V6.82812H755.714V8.45312H758.511V6.82812H760.48V9.09375H763.105V6.21875H765.089ZM755.621 15.5781V14.0156H765.089V17.8438H757.636V18.7188H765.511V20.2812H755.636V16.4062H763.105V15.5781H755.621ZM755.714 11.5312H758.511V10H755.714V11.5312ZM782.996 17.1719V18.7812H769.981V17.1719H775.481V14H777.481V17.1719H782.996ZM770.512 13.0469C773.465 12.5703 775.231 10.7891 775.403 8.90625H771.059V7.29688H781.856V8.90625H777.528C777.684 10.7812 779.465 12.5234 782.512 12.9688L781.731 14.5469C779.239 14.1094 777.395 12.8984 776.473 11.2109C775.574 12.9219 773.746 14.1797 771.293 14.625L770.512 13.0469ZM794.77 6.21875V9.5625H796.692V11.1875H794.77V14.4688H792.77V6.21875H794.77ZM783.395 13.1719C786.528 12.3438 788.317 10.7188 788.629 8.75H784.067V7.15625H790.801C790.809 10.9453 788.426 13.6016 784.192 14.7812L783.395 13.1719ZM785.317 17.5469C785.301 15.7656 787.239 14.6406 790.129 14.6406C793.028 14.6406 794.919 15.7656 794.926 17.5469C794.919 19.3438 793.028 20.4531 790.129 20.4531C787.239 20.4531 785.301 19.3438 785.317 17.5469ZM787.286 17.5469C787.278 18.4062 788.34 18.8984 790.129 18.8906C791.895 18.8984 792.958 18.4062 792.958 17.5469C792.958 16.6719 791.895 16.1875 790.129 16.1875C788.34 16.1875 787.278 16.6719 787.286 17.5469ZM801.544 8.75C801.544 10.2891 802.341 11.8047 804.231 12.5312L803.169 14.0469C801.95 13.5859 801.114 12.7422 800.606 11.6953C800.091 12.9219 799.2 13.9453 797.872 14.5L796.794 12.9688C798.802 12.0859 799.606 10.3359 799.606 8.75V7.07812H801.544V8.75ZM799.434 17.7812C799.427 16.1172 801.341 15.1172 804.356 15.125C807.356 15.1172 809.278 16.1172 809.294 17.7812C809.278 19.4297 807.356 20.4453 804.356 20.4375C801.341 20.4453 799.427 19.4297 799.434 17.7812ZM801.434 17.7812C801.419 18.5469 802.489 18.9375 804.356 18.9375C806.208 18.9375 807.278 18.5469 807.278 17.7812C807.278 17.0078 806.208 16.6094 804.356 16.6094C802.489 16.6094 801.419 17.0078 801.434 17.7812ZM804.278 14.4844V6.48438H806.138V9.70312H807.325V6.23438H809.216V14.9219H807.325V11.3125H806.138V14.4844H804.278ZM815.755 8.65625C815.747 10.4766 816.779 12.2422 819.083 12.9844L818.036 14.5469C816.482 14.0234 815.404 13.0078 814.786 11.7109C814.154 13.1328 813.021 14.25 811.38 14.8125L810.271 13.2344C812.7 12.4844 813.739 10.5781 813.755 8.64062V7.09375H815.755V8.65625ZM812.552 20.1875V15.6094H814.583V18.5938H822.318V20.1875H812.552ZM819.786 16.6406V6.21875H821.786V10.3281H823.708V12.0156H821.786V16.6406H819.786ZM826.623 6.9375V8.76562H829.419V6.9375H831.388V9.46875H834.013V6.21875H835.998V14H834.013V11.0938H831.388V13.5938H824.623V6.9375H826.623ZM826.513 20.25V14.5938H828.482V15.9062H834.013V14.5938H835.998V20.25H826.513ZM826.623 12H829.419V10.2969H826.623V12ZM828.482 18.6562H834.013V17.4375H828.482V18.6562ZM849.428 6.23438V16.4531H847.428V6.23438H849.428ZM837.74 10.7188C837.74 8.63281 839.443 7.13281 841.631 7.14062C843.81 7.13281 845.514 8.63281 845.521 10.7188C845.514 12.8359 843.81 14.3281 841.631 14.3281C839.443 14.3281 837.74 12.8359 837.74 10.7188ZM839.693 10.7188C839.678 11.9062 840.514 12.5938 841.631 12.5938C842.709 12.5938 843.545 11.9062 843.553 10.7188C843.545 9.5625 842.709 8.86719 841.631 8.875C840.514 8.86719 839.678 9.5625 839.693 10.7188ZM839.896 20.1875V15.4219H841.912V18.5938H849.803V20.1875H839.896Z" fill="white"/>
<path d="M750.901 134.781C739.104 134.781 730.472 127.828 730.276 118.062H741.683C741.956 122.477 745.979 125.523 750.901 125.484C756.761 125.523 760.94 121.383 760.901 115.484C760.94 109.469 756.683 105.289 750.745 105.25C746.487 105.25 743.519 106.852 741.839 110.016H731.214L734.261 77.4375H769.104V87.0469H743.948L742.386 101.344H742.854C744.925 98.5703 749.222 96.5391 754.183 96.5781C764.573 96.5391 772.308 104.312 772.308 115.172C772.308 126.617 763.636 134.781 750.901 134.781Z" fill="white"/>
<path d="M799.354 119.219V133.438H797.433V126.203H796.136V132.812H794.276V119.594H796.136V124.609H797.433V119.219H799.354ZM786.917 129.141C789.815 127.438 791.065 125.352 791.331 122.562H787.636V120.969H793.276C793.269 124.938 792.081 128.188 788.073 130.516L786.917 129.141Z" fill="white"/>
<path d="M1125.28 8.39062V9.96875H1118.41V8.39062H1120.88V6.60938H1122.84V8.39062H1125.28ZM1118.73 13.9844C1118.73 12.0078 1120.06 10.6172 1121.88 10.6094C1123.7 10.6172 1124.99 12.0078 1125 13.9844C1124.99 15.9688 1123.7 17.375 1121.88 17.375C1120.06 17.375 1118.73 15.9688 1118.73 13.9844ZM1120.48 13.9844C1120.48 15.0703 1121.05 15.6875 1121.88 15.6875C1122.67 15.6875 1123.24 15.0703 1123.25 13.9844C1123.24 12.9141 1122.67 12.2656 1121.88 12.2656C1121.05 12.2656 1120.48 12.9141 1120.48 13.9844ZM1125.81 19.8281V6.5H1127.67V12H1128.83V6.21875H1130.72V20.4375H1128.83V13.5938H1127.67V19.8281H1125.81ZM1136.54 7.0625C1138.8 7.07031 1140.47 8.50781 1140.48 10.5469C1140.47 12.2812 1139.27 13.5781 1137.52 13.9375V15.8516C1138.73 15.7812 1139.94 15.6797 1141.09 15.5156L1141.24 16.9531C1138.09 17.5547 1134.71 17.5781 1132.23 17.5781L1131.99 15.9688C1133.04 15.9688 1134.26 15.9609 1135.54 15.9297V13.9297C1133.81 13.5703 1132.58 12.2734 1132.59 10.5469C1132.58 8.50781 1134.3 7.07031 1136.54 7.0625ZM1134.57 10.5469C1134.56 11.6484 1135.41 12.3359 1136.54 12.3281C1137.67 12.3359 1138.53 11.6484 1138.54 10.5469C1138.53 9.41406 1137.67 8.77344 1136.54 8.76562C1135.41 8.77344 1134.56 9.41406 1134.57 10.5469ZM1141.9 20.4688V6.21875H1143.88V20.4688H1141.9ZM1150.69 10.0938C1150.68 12.2578 1151.84 14.7578 1154.17 15.8438L1153.06 17.4062C1151.48 16.6797 1150.35 15.2266 1149.71 13.5234C1149.08 15.3984 1147.91 16.9922 1146.27 17.7656L1145.11 16.1875C1147.48 15.0859 1148.67 12.4453 1148.69 10.0938V9.21875H1145.67V7.59375H1153.55V9.21875H1150.69V10.0938ZM1154.66 20.4375V6.21875H1156.66V11.6406H1158.75V13.3125H1156.66V20.4375H1154.66ZM1170.99 6.23438V16.9688H1168.99V15.8438H1166.27V14.4844H1168.99V6.23438H1170.99ZM1158.9 12.5312C1161.5 12.5156 1165.02 12.4766 1168.02 12.1094L1168.13 13.5312C1167.01 13.7188 1165.84 13.8516 1164.7 13.9375V16.6406H1162.7V18.5938H1171.31V20.1875H1160.71V15.9375H1162.7V14.0547C1161.42 14.1016 1160.21 14.1094 1159.13 14.1094L1158.9 12.5312ZM1159.95 9.26562C1159.95 7.75 1161.41 6.71094 1163.52 6.71875C1165.59 6.71094 1167.06 7.75 1167.07 9.26562C1167.06 10.7891 1165.59 11.7734 1163.52 11.7656C1161.41 11.7734 1159.95 10.7891 1159.95 9.26562ZM1161.84 9.26562C1161.83 9.95312 1162.51 10.3359 1163.52 10.3281C1164.48 10.3359 1165.17 9.95312 1165.18 9.26562C1165.17 8.5625 1164.48 8.17188 1163.52 8.17188C1162.51 8.17188 1161.83 8.5625 1161.84 9.26562ZM1180.45 7V7.92188C1180.44 8.85156 1180.44 10.1172 1180.11 11.6562L1178.16 11.5156C1178.39 10.3281 1178.45 9.39062 1178.46 8.59375H1173.11V7H1180.45ZM1172.27 12.7188C1173.08 12.7188 1173.97 12.7109 1174.91 12.6953V10.1719H1176.89V12.6406C1178.31 12.5859 1179.76 12.4922 1181.1 12.3281L1181.2 13.7188C1178.24 14.2266 1175 14.3125 1172.44 14.3125L1172.27 12.7188ZM1174.11 17.7031C1174.11 16.0703 1176.02 15.0625 1179.06 15.0625C1182.11 15.0625 1184 16.0703 1184 17.7031C1184 19.4219 1182.11 20.4141 1179.06 20.4062C1176.02 20.4141 1174.11 19.4219 1174.11 17.7031ZM1176.14 17.7031C1176.13 18.5078 1177.2 18.8594 1179.06 18.8594C1180.93 18.8594 1181.95 18.5078 1181.95 17.7031C1181.95 16.9844 1180.93 16.5859 1179.06 16.5938C1177.2 16.5859 1176.13 16.9844 1176.14 17.7031ZM1181.86 14.8906V6.21875H1183.91V9.71875H1185.64V11.375H1183.91V14.8906H1181.86ZM1191.21 8.65625C1191.2 10.4766 1192.24 12.2422 1194.54 12.9844L1193.49 14.5469C1191.94 14.0234 1190.86 13.0078 1190.24 11.7109C1189.61 13.1328 1188.48 14.25 1186.84 14.8125L1185.73 13.2344C1188.16 12.4844 1189.2 10.5781 1189.21 8.64062V7.09375H1191.21V8.65625ZM1188.01 20.1875V15.6094H1190.04V18.5938H1197.78V20.1875H1188.01ZM1195.24 16.6406V6.21875H1197.24V10.3281H1199.17V12.0156H1197.24V16.6406H1195.24Z" fill="white"/>
<path d="M1121.52 124V114.703L1145.42 77.4375H1160.19V114.547H1167.38V124H1160.19V134H1149.02V124H1121.52ZM1133.39 114.547H1149.17V90.3281H1148.62L1133.39 114.078V114.547Z" fill="white"/>
<path d="M1193.69 119.219V133.438H1191.77V126.203H1190.47V132.812H1188.61V119.594H1190.47V124.609H1191.77V119.219H1193.69ZM1181.25 129.141C1184.15 127.438 1185.4 125.352 1185.66 122.562H1181.97V120.969H1187.61C1187.6 124.938 1186.41 128.188 1182.41 130.516L1181.25 129.141Z" fill="white"/>
</svg>
