<svg width="129" height="96" viewBox="0 0 129 96" fill="none" xmlns="http://www.w3.org/2000/svg">
<path d="M14.2188 76H1.5625L21.1719 19.4375H36.25L55.7812 76H43.2031L38.9453 62.9531H18.4766L14.2188 76ZM21.4453 53.8125H35.9766L28.9062 32.1719H28.5156L21.4453 53.8125Z" fill="#00A5E5"/>
<path d="M79.1914 18.8594H82.8242L86.75 28.4492H86.9062L90.832 18.8594H94.4648V33H91.6133V23.7422H91.4961L87.8047 32.9414H85.8516L82.1602 23.7031H82.043V33H79.1914V18.8594ZM104.523 22.9023C104.406 21.7793 103.518 21.125 102.082 21.125C100.598 21.125 99.7676 21.8086 99.7578 22.7461C99.748 23.7715 100.803 24.2305 102.023 24.5039L103.293 24.8164C105.715 25.373 107.521 26.6035 107.531 28.957C107.521 31.5449 105.51 33.2051 102.062 33.1953C98.6445 33.2051 96.4668 31.623 96.3789 28.5859H99.2305C99.3281 30.0117 100.461 30.7344 102.023 30.7344C103.566 30.7344 104.562 30.0117 104.562 28.957C104.562 27.9902 103.684 27.541 102.141 27.1602L100.598 26.7891C98.2148 26.2031 96.75 25.0117 96.75 22.9414C96.7402 20.373 99.0059 18.6641 102.102 18.6641C105.236 18.6641 107.297 20.4023 107.336 22.9023H104.523ZM118.898 23.7812C118.664 22.2188 117.463 21.2715 115.812 21.2617C113.615 21.2715 112.16 22.9512 112.16 25.9297C112.16 28.9766 113.635 30.5879 115.793 30.5977C117.404 30.5879 118.615 29.709 118.898 28.1758L121.867 28.1953C121.545 30.8125 119.348 33.1953 115.754 33.1953C111.975 33.1953 109.172 30.5293 109.172 25.9297C109.172 21.3105 112.023 18.6641 115.754 18.6641C119.016 18.6641 121.477 20.5293 121.867 23.7812H118.898ZM126.848 18.8594V33H123.918V18.8594H126.848Z" fill="#00A5E5"/>
</svg>
