<svg width="120" height="55" viewBox="0 0 120 55" fill="none" xmlns="http://www.w3.org/2000/svg">
<g clip-path="url(#clip0_2551_140)">
<path d="M85.2011 7.76861C82.7277 8.79532 79.736 8.98422 76.1472 8.53753C73.1532 8.16419 69.547 7.18192 64.5848 5.6552C58.1574 3.67734 48.2745 1.32169 40.9745 4.57515C35.225 7.13748 33.1124 12.331 35.3169 16.9557L36.126 16.5423C34.9123 13.6155 35.4809 10.7932 37.4973 8.56865C38.4879 7.47527 39.8001 6.51523 41.4556 5.85298C47.999 3.23288 58.5685 5.16629 64.9063 7.01525C70.857 8.7531 75.5589 9.90648 79.9481 9.76425C81.9492 9.6998 83.8102 9.34423 85.5379 8.6242L85.199 7.76861H85.2011Z" fill="#172C56"/>
<path d="M63.1644 8.22852C58.7031 10.9464 56.9951 14.1976 53.8087 19.2312C51.5802 22.7513 48.2691 29.2894 43.0708 29.356C41.3715 29.3783 40.0309 28.9094 39.248 27.9671C38.5044 27.0715 38.4957 26.027 38.4891 25.6203L37.4766 25.6337C37.4831 26.1515 37.5181 27.4804 38.4716 28.6293C39.4601 29.8183 41.0653 30.4094 43.0817 30.385C49.2095 30.3072 53.4019 22.8247 55.3221 19.5445C58.2591 14.531 60.1508 11.0153 63.6674 9.12189L63.1623 8.23296L63.1644 8.22852Z" fill="#172C56"/>
<path d="M80.5339 22.4498C78.5088 26.5344 75.5346 28.5012 73.4242 28.9789C72.1973 29.2567 71.1104 29.0812 70.3646 28.4878C69.9929 28.19 69.3827 27.4367 69.3215 26.5077C70.9136 25.7344 72.3985 24.6277 73.4417 23.3632C74.6139 21.9453 75.1278 20.6297 74.9769 19.6208C74.9047 19.1363 74.6751 18.7563 74.3121 18.5207C73.9337 18.2741 73.4613 18.2118 72.9452 18.3407C71.7971 18.6296 70.5002 19.8652 69.5642 21.5609C69.1553 22.3009 68.263 24.0943 68.2652 25.921C67.187 26.3877 65.28 26.8589 64.8535 26.2877C63.6048 24.6099 69.1399 20.0608 66.7059 18.8519C66.1023 18.5519 64.8317 18.4874 62.9815 20.0208L75.6833 0H74.4017L57.1445 27.0411H58.5354C60.7902 23.4854 62.0214 22.0009 63.093 21.0942C65.5512 19.0119 66.4872 19.7119 65.8136 20.8208C63.7338 24.2543 62.7847 25.9588 63.7666 27.0322C64.7748 28.1322 67.2548 27.3478 68.3614 26.91C68.5342 27.7545 68.965 28.5789 69.7851 29.2323C70.4674 29.7768 71.3444 30.0546 72.3285 30.0546C72.744 30.0546 73.1814 30.0034 73.6297 29.9034C76.5887 29.2345 79.3683 26.4455 81.1857 22.7787L80.5361 22.4476L80.5339 22.4498ZM70.5046 22.1164C71.48 20.3497 73.1377 18.9385 73.7697 19.4052C74.3886 19.8608 73.6625 21.612 72.72 22.7565C71.9217 23.7276 70.7058 24.7343 69.3062 25.481C69.4308 24.5832 69.7239 23.5321 70.5046 22.1187V22.1164Z" fill="#172C56"/>
<path d="M20.4763 33.8965H16.1309V54.5662H26.1689L27.1684 50.7794H20.4763V33.8965Z" fill="#172C56"/>
<path d="M48.6641 37.6833V54.5662H52.9942V37.6833H57.2413V33.8965H44.4367L43.4395 37.6833H48.6641Z" fill="#172C56"/>
<path d="M64.9618 33.8965H60.5879V54.564H64.9618V33.8965Z" fill="#172C56"/>
<path d="M78.5186 33.8965V43.468C78.5186 44.8636 78.6738 46.057 78.6738 46.057H78.4092C78.4092 46.057 78.1293 44.9436 77.8362 44.148C77.4185 43.0124 74.2606 34.8254 73.926 33.9743L73.9107 33.8965H69.4121V54.564H73.5454V44.9925C73.5454 43.5969 73.3902 42.4035 73.3902 42.4035H73.6548C73.6548 42.4035 73.9347 43.5169 74.2278 44.3125C74.6455 45.4481 77.8034 53.6351 78.138 54.4862L78.1533 54.564H82.6519V33.8965H78.5186Z" fill="#172C56"/>
<path d="M112.016 42.5413L115.126 33.8965H120V54.564H115.777V44.2302C115.777 42.5524 115.968 41.2234 115.968 41.2234H115.675C115.675 41.2234 115.495 42.0501 115.071 43.0569C114.647 44.0636 112.016 50.4594 112.016 50.4594C112.016 50.4594 109.385 44.0636 108.961 43.0569C108.536 42.0501 108.357 41.2234 108.357 41.2234H108.064C108.064 41.2234 108.254 42.5524 108.254 44.2302V54.564H104.031V33.8965H108.906L112.016 42.5413Z" fill="#172C56"/>
<path d="M90.8227 48.4593V33.8965H86.5078V48.4104C86.5078 53.8573 90.3044 55.0018 93.3136 55.0018C96.3228 55.0018 100.119 53.8573 100.119 48.4104V33.8965H95.8045V48.4593C95.8045 50.4172 94.8707 51.3305 93.3136 51.3305C91.7565 51.3305 90.8227 50.4194 90.8227 48.4593Z" fill="#172C56"/>
<path d="M7.33721 33.8965H0V54.564H4.37389V48.2926H7.33721C11.6389 48.2926 12.9708 44.0902 12.9708 41.0946C12.9708 38.0989 11.6367 33.8965 7.33721 33.8965ZM6.20437 44.5436H4.37389V37.6477H6.20437C8.28634 37.6477 8.61657 39.6723 8.61657 41.0212C8.61657 42.3702 8.28634 44.5436 6.20437 44.5436Z" fill="#172C56"/>
<path d="M38.5174 33.8965H33.881L28.4355 54.564H32.9385L33.9335 50.2305H38.4671L39.4621 54.564H43.9651L38.5196 33.8965H38.5174ZM34.5284 46.9881L35.6722 41.6701C35.9652 40.239 36.0352 39.2411 36.0352 39.2411H36.3632C36.3632 39.2411 36.431 40.2367 36.7263 41.6701L37.87 46.9881H34.5262H34.5284Z" fill="#172C56"/>
</g>
<defs>
<clipPath id="clip0_2551_140">
<rect width="120" height="55" fill="white"/>
</clipPath>
</defs>
</svg>
