<svg width="180" height="64" viewBox="0 0 180 64" fill="none" xmlns="http://www.w3.org/2000/svg">
<rect x="0.5" y="0.5" width="179" height="63" fill="white"/>
<rect x="0.5" y="0.5" width="179" height="63" stroke="#141835"/>
<path d="M65.75 26.6875L69.3281 35.4531H69.4688L73.0469 26.6875H75.1406V38H73.5V29.8281H73.3906L70.0781 37.9844H68.7188L65.3906 29.8125H65.2969V38H63.6562V26.6875H65.75ZM80.5863 38.1719C79.7946 38.1719 79.0967 37.9896 78.4925 37.625C77.8935 37.2604 77.43 36.75 77.1019 36.0938C76.779 35.4323 76.6175 34.6667 76.6175 33.7969C76.6175 32.9271 76.779 32.1615 77.1019 31.5C77.43 30.8333 77.8935 30.3177 78.4925 29.9531C79.0967 29.5885 79.7946 29.4062 80.5863 29.4062C81.3727 29.4062 82.0654 29.5885 82.6644 29.9531C83.2633 30.3177 83.7243 30.8333 84.0472 31.5C84.3753 32.1615 84.5394 32.9271 84.5394 33.7969C84.5394 34.6667 84.3753 35.4323 84.0472 36.0938C83.7243 36.75 83.2633 37.2604 82.6644 37.625C82.0654 37.9896 81.3727 38.1719 80.5863 38.1719ZM78.2894 33.7969C78.2894 34.3542 78.3753 34.8594 78.5472 35.3125C78.7191 35.7604 78.9769 36.1172 79.3206 36.3828C79.6644 36.6484 80.0863 36.7812 80.5863 36.7812C81.0758 36.7812 81.4899 36.6484 81.8284 36.3828C82.1722 36.1172 82.4274 35.7604 82.5941 35.3125C82.7659 34.8594 82.8519 34.3542 82.8519 33.7969C82.8519 33.2396 82.7659 32.7344 82.5941 32.2812C82.4274 31.8229 82.1722 31.4583 81.8284 31.1875C81.4899 30.9167 81.0758 30.7812 80.5863 30.7812C80.0863 30.7812 79.6644 30.9167 79.3206 31.1875C78.9769 31.4583 78.7191 31.8229 78.5472 32.2812C78.3753 32.7344 78.2894 33.2396 78.2894 33.7969ZM85.86 29.5156H87.4694V30.8594H87.5631C87.7194 30.4115 87.9902 30.0547 88.3756 29.7891C88.7663 29.5234 89.2064 29.3906 89.6959 29.3906C89.9407 29.3906 90.1829 29.401 90.4225 29.4219V31.0156C90.3288 30.9948 90.1933 30.974 90.0163 30.9531C89.8444 30.9323 89.6829 30.9219 89.5319 30.9219C89.1517 30.9219 88.8105 31.0052 88.5084 31.1719C88.2064 31.3333 87.9668 31.5599 87.7897 31.8516C87.6178 32.138 87.5319 32.4635 87.5319 32.8281V38H85.86V29.5156ZM94.7275 38.1719C93.9046 38.1719 93.1884 37.9922 92.5791 37.6328C91.9697 37.2734 91.5035 36.7656 91.1806 36.1094C90.8577 35.4531 90.6963 34.6875 90.6963 33.8125C90.6963 32.9479 90.8577 32.1823 91.1806 31.5156C91.5035 30.849 91.9619 30.3307 92.5556 29.9609C93.1494 29.5911 93.8369 29.4062 94.6181 29.4062C95.3004 29.4062 95.9254 29.5547 96.4931 29.8516C97.0608 30.1484 97.5166 30.6172 97.8603 31.2578C98.2093 31.8932 98.3838 32.6979 98.3838 33.6719V34.2656H92.3525C92.3681 34.7969 92.4775 35.2526 92.6806 35.6328C92.8838 36.013 93.1624 36.3021 93.5166 36.5C93.8707 36.6979 94.2796 36.7969 94.7431 36.7969C95.191 36.7969 95.5713 36.7135 95.8838 36.5469C96.2015 36.375 96.4358 36.151 96.5869 35.875H98.2744C98.1494 36.3333 97.9254 36.737 97.6025 37.0859C97.2796 37.4297 96.8733 37.6979 96.3838 37.8906C95.8942 38.0781 95.3421 38.1719 94.7275 38.1719ZM96.7431 33.0156C96.7431 32.5885 96.6546 32.2057 96.4775 31.8672C96.3056 31.5234 96.0582 31.2578 95.7353 31.0703C95.4176 30.8776 95.0504 30.7812 94.6338 30.7812C94.2015 30.7812 93.816 30.8828 93.4775 31.0859C93.1442 31.2839 92.8811 31.5547 92.6884 31.8984C92.4957 32.2422 92.3864 32.6146 92.3603 33.0156H96.7431Z" fill="#141835"/>
<path d="M112.5 27V37" stroke="#141835" stroke-width="1.5"/>
<path d="M117.5 32H107.5" stroke="#141835" stroke-width="1.5"/>
</svg>
